#N canvas 573 113 970 852 10;
#X obj -755 4 pack 0 0;
#X obj -755 25 line;
#X floatatom -756 46 5 0 0 0 - - -;
#X floatatom -522 -432 5 0 0 0 - - -;
#X obj -760 175 outlet;
#X obj -1129 -762 inlet~;
#X obj -531 -606 inlet;
#X obj -596 -753 inlet;
#X obj -1037 -269 f;
#X obj -1005 -271 + 1;
#X floatatom -1036 -227 0 0 0 0 - - -;
#X floatatom -905 -610 0 0 0 0 >_<_back_n_forth - -;
#X obj -901 -637 inlet;
#X obj -476 -690 inlet;
#X floatatom -483 -533 0 0 0 0 tout_les_combien_ça_change_le_variant/note_A/R
- -;
#X floatatom -529 -352 5 0 0 0 25_norm - -;
#X obj -532 -401 r lo;
#X floatatom -1037 -112 5 0 0 0 - - -;
#X obj -1037 -177 bng 15 250 50 0 empty empty empty 17 7 0 10 -262144
-1 -1;
#X obj -624 -240 f;
#X obj -626 -209 pack 0 0;
#X obj -626 -188 line;
#X floatatom -530 -154 5 0 0 0 - - -;
#X obj -621 -442 f;
#X obj -588 -442 + 1;
#X obj -621 -442 f;
#X obj -628 -269 bng 15 250 50 0 empty empty empty 17 7 0 10 -262144
-1 -1;
#X obj -1036 -200 sel 0 1;
#X floatatom -763 -49 5 0 0 0 - - -;
#X obj -805 -717 bng 15 250 50 0 empty empty empty 17 7 0 10 -262144
-1 -1;
#X floatatom -590 -725 5 0 0 0 - - -;
#X floatatom -756 146 5 0 0 0 - - -;
#X floatatom -1038 -28 5 0 0 0 - - -;
#X floatatom -988 -112 5 0 0 0 - - -;
#X obj -988 -177 bng 15 250 50 0 empty empty empty 17 7 0 10 -262144
-1 -1;
#X floatatom -989 -28 5 0 0 0 - - -;
#X msg -528 -380 25;
#X floatatom -431 -353 5 0 0 0 25_norm - -;
#X obj -434 -402 r lo;
#X msg -430 -381 25;
#X obj -585 -241 f;
#X obj -589 -270 bng 15 250 50 0 empty empty empty 17 7 0 10 -262144
-1 -1;
#X obj -695 -91 inlet;
#X obj -621 -512 f;
#X obj -588 -512 + 1;
#X obj -621 -512 f;
#X obj -1037 -269 f;
#X obj -1005 -271 + 1;
#X obj -1036 -248 mod 2;
#X obj -1035 -357 f;
#X obj -1003 -359 + 1;
#X floatatom -1036 -314 0 0 0 0 - - -;
#X obj -1034 -336 mod 2;
#X obj -1038 -291 sel;
#X obj -619 -463 sel;
#X obj -843 -757 bonk~;
#X obj -412 -471 * 1;
#X obj -402 -497 inlet;
#X floatatom -414 -436 5 0 0 0 - - -;
#X obj -528 -192 inlet;
#X floatatom -351 -353 5 0 0 0 25_norm - -;
#X obj -354 -402 r lo;
#X msg -350 -381 25;
#X obj -332 -471 * 1;
#X obj -322 -497 inlet;
#X floatatom -334 -436 5 0 0 0 - - -;
#X floatatom -241 -353 5 0 0 0 25_norm - -;
#X obj -244 -402 r lo;
#X msg -240 -381 25;
#X obj -222 -471 * 1;
#X obj -212 -497 inlet;
#X floatatom -224 -436 5 0 0 0 - - -;
#X obj -542 -240 f;
#X obj -546 -269 bng 15 250 50 0 empty empty empty 17 7 0 10 -262144
-1 -1;
#X obj -508 -241 f;
#X obj -512 -270 bng 15 250 50 0 empty empty empty 17 7 0 10 -262144
-1 -1;
#X floatatom -131 -353 5 0 0 0 25_norm - -;
#X obj -134 -402 r lo;
#X msg -130 -381 25;
#X obj -112 -471 * 1;
#X obj -102 -497 inlet;
#X floatatom -114 -436 5 0 0 0 - - -;
#X obj -467 -240 f;
#X obj -471 -269 bng 15 250 50 0 empty empty empty 17 7 0 10 -262144
-1 -1;
#X floatatom -975 -318 5 0 0 0 - - -;
#X floatatom -696 -71 5 0 0 0 - - -;
#X obj -620 -420 mod 1;
#X obj -988 -51 + 0;
#X obj -1037 -51 - 0;
#X obj -738 -615 spigot-toggle_jaune;
#X obj -508 -462 inlet;
#X obj -620 -490 mod 1;
#X obj -729 -652 inlet;
#X obj -1036 -248 mod 2;
#X obj -913 -467 spigot-toggle_jaune;
#X floatatom -54 -343 5 0 0 0 25_norm - -;
#X obj -57 -392 r lo;
#X msg -53 -371 25;
#X obj -35 -461 * 1;
#X obj -25 -487 inlet;
#X floatatom -37 -426 5 0 0 0 - - -;
#X obj -428 -241 f;
#X obj -432 -270 bng 15 250 50 0 empty empty empty 17 7 0 10 -262144
-1 -1;
#X floatatom 47 -346 5 0 0 0 25_norm - -;
#X obj 44 -395 r lo;
#X msg 48 -374 25;
#X obj 66 -464 * 1;
#X obj 76 -490 inlet;
#X floatatom 64 -429 5 0 0 0 - - -;
#X floatatom 157 -346 5 0 0 0 25_norm - -;
#X obj 154 -395 r lo;
#X msg 158 -374 25;
#X obj 176 -464 * 1;
#X obj 186 -490 inlet;
#X floatatom 174 -429 5 0 0 0 - - -;
#X floatatom 234 -336 5 0 0 0 25_norm - -;
#X obj 231 -385 r lo;
#X msg 235 -364 25;
#X obj 253 -454 * 1;
#X obj 263 -480 inlet;
#X floatatom 251 -419 5 0 0 0 - - -;
#X obj -389 -243 f;
#X obj -393 -272 bng 15 250 50 0 empty empty empty 17 7 0 10 -262144
-1 -1;
#X obj -348 -242 f;
#X obj -352 -271 bng 15 250 50 0 empty empty empty 17 7 0 10 -262144
-1 -1;
#X obj -309 -243 f;
#X obj -313 -272 bng 15 250 50 0 empty empty empty 17 7 0 10 -262144
-1 -1;
#X obj -698 -371 sel 0 1 2 4 5 6 7 8;
#X obj -820 -298 bng 15 250 50 0 empty empty empty 17 7 0 10 -262144
-1 -1;
#X msg -1036 -154 25;
#X msg -988 -155 75;
#X obj -791 -274 s bonkBB;
#X obj -737 -707 outlet;
#X connect 0 0 1 0;
#X connect 1 0 2 0;
#X connect 2 0 31 0;
#X connect 3 0 15 0;
#X connect 5 0 55 0;
#X connect 6 0 84 0;
#X connect 7 0 30 0;
#X connect 8 0 9 0;
#X connect 8 0 93 0;
#X connect 9 0 8 1;
#X connect 10 0 27 0;
#X connect 11 0 94 1;
#X connect 12 0 11 0;
#X connect 13 0 14 0;
#X connect 14 0 91 1;
#X connect 15 0 19 1;
#X connect 15 0 17 0;
#X connect 16 0 36 0;
#X connect 17 0 88 0;
#X connect 18 0 129 0;
#X connect 19 0 20 0;
#X connect 20 0 21 0;
#X connect 21 0 28 0;
#X connect 22 0 20 1;
#X connect 23 0 24 0;
#X connect 23 0 86 0;
#X connect 23 0 128 0;
#X connect 24 0 23 1;
#X connect 26 0 19 0;
#X connect 27 0 18 0;
#X connect 27 1 34 0;
#X connect 28 0 0 0;
#X connect 29 0 89 0;
#X connect 29 0 94 0;
#X connect 29 0 132 0;
#X connect 30 0 86 1;
#X connect 31 0 4 0;
#X connect 32 0 0 0;
#X connect 33 0 87 0;
#X connect 34 0 130 0;
#X connect 35 0 0 0;
#X connect 36 0 15 0;
#X connect 37 0 40 1;
#X connect 37 0 33 0;
#X connect 38 0 39 0;
#X connect 39 0 37 0;
#X connect 40 0 20 0;
#X connect 41 0 40 0;
#X connect 42 0 85 0;
#X connect 43 0 44 0;
#X connect 43 0 91 0;
#X connect 44 0 43 1;
#X connect 46 0 47 0;
#X connect 46 0 48 0;
#X connect 47 0 46 1;
#X connect 49 0 50 0;
#X connect 49 0 52 0;
#X connect 50 0 49 1;
#X connect 51 0 53 0;
#X connect 52 0 51 0;
#X connect 53 0 8 0;
#X connect 53 0 128 0;
#X connect 54 0 23 0;
#X connect 55 1 29 0;
#X connect 56 0 58 0;
#X connect 57 0 56 0;
#X connect 58 0 37 0;
#X connect 59 0 22 0;
#X connect 60 0 72 1;
#X connect 61 0 62 0;
#X connect 62 0 60 0;
#X connect 63 0 65 0;
#X connect 64 0 63 0;
#X connect 65 0 60 0;
#X connect 66 0 74 1;
#X connect 67 0 68 0;
#X connect 68 0 66 0;
#X connect 69 0 71 0;
#X connect 70 0 69 0;
#X connect 71 0 66 0;
#X connect 72 0 20 0;
#X connect 73 0 72 0;
#X connect 74 0 20 0;
#X connect 75 0 74 0;
#X connect 76 0 82 1;
#X connect 77 0 78 0;
#X connect 78 0 76 0;
#X connect 79 0 81 0;
#X connect 80 0 79 0;
#X connect 81 0 76 0;
#X connect 82 0 20 0;
#X connect 83 0 82 0;
#X connect 84 0 52 1;
#X connect 85 0 0 1;
#X connect 86 0 127 0;
#X connect 87 0 35 0;
#X connect 88 0 32 0;
#X connect 89 0 43 0;
#X connect 90 0 3 0;
#X connect 91 0 54 0;
#X connect 92 0 89 1;
#X connect 93 0 10 0;
#X connect 94 0 49 0;
#X connect 95 0 101 1;
#X connect 96 0 97 0;
#X connect 97 0 95 0;
#X connect 98 0 100 0;
#X connect 99 0 98 0;
#X connect 100 0 95 0;
#X connect 101 0 20 0;
#X connect 102 0 101 0;
#X connect 103 0 121 1;
#X connect 104 0 105 0;
#X connect 105 0 103 0;
#X connect 106 0 108 0;
#X connect 107 0 106 0;
#X connect 108 0 103 0;
#X connect 109 0 123 1;
#X connect 110 0 111 0;
#X connect 111 0 109 0;
#X connect 112 0 114 0;
#X connect 113 0 112 0;
#X connect 114 0 109 0;
#X connect 115 0 125 1;
#X connect 116 0 117 0;
#X connect 117 0 115 0;
#X connect 118 0 120 0;
#X connect 119 0 118 0;
#X connect 120 0 115 0;
#X connect 121 0 20 0;
#X connect 122 0 121 0;
#X connect 123 0 20 0;
#X connect 124 0 123 0;
#X connect 125 0 20 0;
#X connect 126 0 125 0;
#X connect 127 0 26 0;
#X connect 127 1 41 0;
#X connect 127 2 73 0;
#X connect 127 3 75 0;
#X connect 127 4 83 0;
#X connect 127 5 102 0;
#X connect 127 6 122 0;
#X connect 127 7 124 0;
#X connect 127 8 126 0;
#X connect 128 0 131 0;
#X connect 129 0 17 0;
#X connect 130 0 33 0;
