#N canvas -40 251 830 1002 10;
#X obj 162 339 inlet;
#X obj 283 710 inlet;
#X obj 416 290 inlet;
#X obj -155 -19 spigot-toggle_red;
#X obj 222 228 bng 20 250 50 0 empty empty empty 17 7 0 10 -4034 -1
-1;
#X obj 80 758 vline~;
#X floatatom 388 367 5 0 0 0 - - -;
#X floatatom 161 501 5 0 0 0 - - -;
#X obj 88 568 f;
#X obj 117 567 f;
#X obj -155 83 pack \$1 \$0;
#X floatatom -84 87 12 0 0 0 - - -;
#X floatatom -155 59 12 0 0 0 - - -;
#X obj -155 9 f;
#X floatatom 122 735 7 0 0 0 - - -;
#X floatatom 295 735 7 0 0 0 - - -;
#X obj 231 758 vline~;
#X obj 122 710 inlet;
#X obj 88 490 bng 15 250 50 0 empty empty empty 17 7 0 10 -262144 -1
-1;
#X floatatom 121 501 5 0 0 0 - - -;
#X obj 100 853 outlet~;
#X msg 86 710 stop;
#X msg 246 710 stop;
#X floatatom -146 -105 5 0 0 0 - - -;
#X obj 238 789 pow~ 4;
#X obj 98 789 pow~ 2;
#X obj 143 424 t b f;
#X obj 147 453 * 1;
#X obj 212 424 t b f;
#X obj 211 453 * 1;
#X obj 224 339 inlet;
#X obj 145 566 f;
#X floatatom 204 499 5 0 0 0 - - -;
#X obj -149 -136 inlet;
#X obj 279 424 t b f;
#X obj 287 453 * 1;
#X obj -155 34 * 100;
#X obj 314 339 inlet;
#X floatatom 161 372 5 0 0 0 - - -;
#X floatatom 223 372 5 0 0 0 - - -;
#X floatatom 314 372 5 0 0 0 - - -;
#X obj 179 566 f;
#X floatatom 248 499 5 0 0 0 - - -;
#X msg -155 108 \; env1 resize \$1, f 15;
#X obj 78 -56 r bonktoenvA;
#X obj 163 854 tabwrite~ env1;
#X obj 378 323 * 1;
#X floatatom 415 312 5 0 0 0 - - -;
#X floatatom 377 291 5 0 0 0 - - -;
#X obj 90 22 r BngslcttoenvAaudiomods;
#X obj 429 649 f;
#X obj 413 672 pack f;
#X obj 339 493 t b f;
#X obj 227 276 t b b;
#X obj 284 288 bng 20 250 50 0 empty empty empty 17 7 0 10 -258113
-1 -1;
#X obj 282 256 bng 20 250 50 0 empty empty empty 17 7 0 10 -260097
-1 -1;
#X obj -13 652 f;
#X obj -12 675 pack f;
#X obj 390 451 outlet;
#X obj 2 631 * 1;
#X obj 379 87 r T$mod;
#X obj 129 320 spigot-toggle_red;
#X obj 130 261 - 1;
#X obj 130 286 * -1;
#X obj 152 309 r lo;
#X obj 129 234 r ø@S;
#X obj 93 -6 r SmplbangB;
#X obj -87 589 delay 11;
#X text -177 512 pas de silence au D tuch midi_new click;
#X obj 593 -21 r trgrtoenv;
#X obj 492 688 bng 15 250 50 0 empty empty empty 17 7 0 10 -262144
-1 -1;
#X floatatom 445 631 5 0 0 0 - - -;
#X obj 586 112 bng 15 250 50 0 empty empty empty 17 7 0 10 -262144
-1 -1;
#X obj 592 67 sel;
#X obj -22 563 r T$mod;
#X obj -86 560 bng 15 250 50 0 empty empty empty 17 7 0 10 -262144
-1 -1;
#X obj -120 538 r AnB_Aenv;
#X obj -121 564 sel;
#X obj -19 593 * 1.1;
#X obj -84 385 r Abutton;
#X obj -84 623 spigot-toggle_red;
#X obj -76 427 - 1;
#X obj -76 452 * -1;
#X text 152 1008 unconnect @ un used;
#X obj 140 955 line;
#X obj 190 950 line;
#X floatatom 274 983 5 0 0 0 - - -;
#X obj 185 983 spigot-toggle_red;
#X obj 141 987 spigot-toggle_red;
#X obj 276 1015 s ramptooff;
#X obj 299 953 pow 3;
#X obj 253 953 pow 0.01;
#X obj 229 134 bng 20 250 50 0 empty empty empty 17 7 0 10 -4034 -1
-1;
#X obj 580 298 r trgrafter_env0;
#X obj 601 462 bng 15 250 50 0 empty empty empty 17 7 0 10 -262144
-1 -1;
#X text 51 597 add minimum and maximum - scale;
#X obj 645 499 f;
#X obj 671 499 + 1;
#X obj 672 609 bng 15 250 50 0 empty empty empty 17 7 0 10 -262144
-1 -1;
#X obj 690 608 bng 15 250 50 0 empty empty empty 17 7 0 10 -262144
-1 -1;
#X floatatom 645 519 5 0 0 0 - - -;
#X obj 645 572 sel 0 1;
#X obj 645 544 mod 200;
#X obj 646 641 bng 15 250 50 0 empty empty empty 17 7 0 10 -262144
-1 -1;
#X obj 644 669 delay 0;
#X floatatom 675 641 5 0 0 0 - - -;
#X msg -11 696 0.5 \$1;
#X obj 611 92 bng 15 250 50 0 empty empty empty 17 7 0 10 -262144 -1
-1;
#X msg 400 710 0 \$1;
#X obj 600 140 f;
#X obj 626 140 + 1;
#X obj 627 250 bng 15 250 50 0 empty empty empty 17 7 0 10 -262144
-1 -1;
#X obj 645 249 bng 15 250 50 0 empty empty empty 17 7 0 10 -262144
-1 -1;
#X floatatom 600 160 5 0 0 0 - - -;
#X obj 600 213 sel 0 1;
#X obj 600 185 mod 200;
#X obj 607 250 bng 15 250 50 0 empty empty empty 17 7 0 10 -262144
-1 -1;
#X msg 614 116 -1;
#X obj 631 467 bng 15 250 50 0 empty empty empty 17 7 0 10 -262144
-1 -1;
#X obj -59 616 delay 100;
#X obj 646 167 == 1;
#X obj 342 516 -;
#X floatatom 588 333 5 0 0 0 - - -;
#X obj 605 435 sel 2;
#X floatatom 489 359 5 0 0 0 - - -;
#X obj 499 311 r trgrtoenv;
#X obj 487 331 == 0;
#X obj 593 411 +;
#X msg 663 463 -1;
#X obj 89 532 t b b b b b b;
#X msg 108 650 \$6 \$1 \, \$6 0 \$3 \, \$5 0 \$4;
#X msg 262 647 \$5 0 \$1 \, \$6 0 \$4 \, \$5 \$2 \$4;
#X msg 89 678 1 \$1 \, 1 0 \$3 \, 0 0 \$4;
#X msg 243 675 0 0 \$1 \, 1 0 \$4 \, 0 \$2 \$4;
#X obj 228 556 f;
#X obj 268 566 f;
#X obj 93 614 pack f f f f;
#X obj 746 937 r IT≠T;
#X obj 766 1025 - 1;
#X obj 762 1051 * -1;
#X floatatom 422 1009 5 0 0 0 - - -;
#X obj 491 901 r ITA%ITA;
#X obj 39 2247 s ITA%ITA;
#X obj 471 941 - 1;
#X obj 467 967 * -1;
#X floatatom 526 969 5 0 0 0 - - -;
#X obj 732 366 r IT;
#X floatatom 731 418 5 0 0 0 - - -;
#X floatatom 478 526 5 0 0 0 - - -;
#X obj -107 696 r AAonoff;
#X obj 411 1029 r IT;
#X floatatom 410 1081 5 0 0 0 - - -;
#X obj 412 1106 t b f;
#X obj 413 1134 *;
#X floatatom 417 1162 5 0 0 0 - - -;
#X obj 414 1058 * 1;
#X obj -280 514 t b f;
#X floatatom -271 567 5 0 0 0 - - -;
#X obj -277 537 +;
#X obj -235 516 t b f;
#X floatatom -226 569 5 0 0 0 - - -;
#X obj -232 539 +;
#X obj -195 513 t b f;
#X floatatom -186 566 5 0 0 0 - - -;
#X obj -192 536 +;
#X obj 522 1007 spigot-toggle_red;
#X obj 468 989 + 0;
#X obj -192 595 / 4;
#X obj 439 391 bng 15 250 50 0 empty empty empty 17 7 0 10 -262144
-1 -1;
#X obj 460 375 bng 15 250 50 0 empty empty empty 17 7 0 10 -262144
-1 -1;
#X obj 758 433 t b f;
#X obj 735 395 + 1;
#X obj 236 86 r BBmod;
#X obj 277 168 spigot-toggle_red;
#X obj 731 168 - 1;
#X obj 727 194 * -1;
#X obj 298 133 bng 20 250 50 0 empty empty empty 17 7 0 10 -4034 -1
-1;
#X obj 306 85 r BB;
#X obj 252 225 bng 20 250 50 0 empty empty empty 17 7 0 10 -4034 -1
-1;
#X msg 570 505 1;
#X msg 563 636 0;
#X obj 338 171 spigot-toggle_red;
#X msg 480 190 0;
#X obj 572 527 delay 0;
#X floatatom 603 499 5 0 0 0 - - -;
#X obj 465 568 + 1;
#X connect 0 0 38 0;
#X connect 1 0 15 0;
#X connect 2 0 47 0;
#X connect 3 0 13 0;
#X connect 3 0 45 0;
#X connect 4 0 53 0;
#X connect 4 0 3 0;
#X connect 5 0 25 0;
#X connect 6 0 13 1;
#X connect 6 0 34 0;
#X connect 6 0 28 0;
#X connect 6 0 26 0;
#X connect 6 0 58 0;
#X connect 6 0 140 0;
#X connect 6 0 184 0;
#X connect 6 0 185 1;
#X connect 7 0 9 1;
#X connect 7 0 71 0;
#X connect 7 0 158 0;
#X connect 8 0 136 0;
#X connect 9 0 136 1;
#X connect 10 0 43 0;
#X connect 11 0 10 1;
#X connect 12 0 10 0;
#X connect 13 0 36 0;
#X connect 14 0 25 1;
#X connect 15 0 24 1;
#X connect 16 0 24 0;
#X connect 17 0 14 0;
#X connect 18 0 129 0;
#X connect 19 0 8 1;
#X connect 19 0 59 0;
#X connect 19 0 52 0;
#X connect 19 0 156 0;
#X connect 21 0 5 0;
#X connect 22 0 16 0;
#X connect 23 0 3 1;
#X connect 24 0 20 0;
#X connect 24 0 45 0;
#X connect 25 0 20 0;
#X connect 25 0 45 0;
#X connect 26 0 27 0;
#X connect 26 1 27 1;
#X connect 27 0 19 0;
#X connect 28 0 29 0;
#X connect 28 1 29 1;
#X connect 29 0 32 0;
#X connect 30 0 39 0;
#X connect 31 0 136 2;
#X connect 32 0 31 1;
#X connect 32 0 121 0;
#X connect 32 0 159 0;
#X connect 33 0 23 0;
#X connect 34 0 35 0;
#X connect 34 1 35 1;
#X connect 35 0 7 0;
#X connect 36 0 12 0;
#X connect 37 0 40 0;
#X connect 38 0 27 0;
#X connect 39 0 29 0;
#X connect 40 0 35 0;
#X connect 41 0 136 3;
#X connect 42 0 41 1;
#X connect 42 0 162 0;
#X connect 44 0 3 0;
#X connect 44 0 4 0;
#X connect 46 0 6 0;
#X connect 47 0 46 1;
#X connect 48 0 46 0;
#X connect 50 0 51 0;
#X connect 51 0 108 0;
#X connect 52 0 121 0;
#X connect 52 1 121 1;
#X connect 53 1 18 0;
#X connect 54 0 61 0;
#X connect 54 0 169 0;
#X connect 55 0 3 0;
#X connect 55 0 50 0;
#X connect 56 0 57 0;
#X connect 57 0 106 0;
#X connect 59 0 56 1;
#X connect 60 0 48 0;
#X connect 61 0 56 0;
#X connect 62 0 63 0;
#X connect 63 0 61 1;
#X connect 64 0 61 1;
#X connect 65 0 62 0;
#X connect 66 0 3 0;
#X connect 67 0 80 0;
#X connect 69 0 73 0;
#X connect 70 0 22 0;
#X connect 70 0 21 0;
#X connect 71 0 50 1;
#X connect 71 0 165 0;
#X connect 72 0 109 0;
#X connect 73 0 72 0;
#X connect 73 1 107 0;
#X connect 74 0 78 0;
#X connect 75 0 67 0;
#X connect 75 0 3 0;
#X connect 75 0 119 0;
#X connect 77 0 75 0;
#X connect 78 0 67 1;
#X connect 79 0 81 0;
#X connect 80 0 56 0;
#X connect 81 0 82 0;
#X connect 82 0 80 1;
#X connect 84 0 88 0;
#X connect 85 0 87 0;
#X connect 86 0 89 0;
#X connect 87 0 90 0;
#X connect 88 0 91 0;
#X connect 90 0 86 0;
#X connect 91 0 86 0;
#X connect 92 0 4 0;
#X connect 93 0 122 0;
#X connect 94 0 96 0;
#X connect 96 0 97 0;
#X connect 96 0 100 0;
#X connect 97 0 96 1;
#X connect 100 0 102 0;
#X connect 101 0 103 0;
#X connect 101 1 98 0;
#X connect 101 2 99 0;
#X connect 102 0 101 0;
#X connect 103 0 104 0;
#X connect 103 0 183 0;
#X connect 104 0 55 0;
#X connect 104 0 180 0;
#X connect 105 0 104 1;
#X connect 106 0 5 0;
#X connect 106 0 16 0;
#X connect 107 0 117 0;
#X connect 108 0 16 0;
#X connect 108 0 5 0;
#X connect 109 0 110 0;
#X connect 109 0 113 0;
#X connect 110 0 109 1;
#X connect 113 0 115 0;
#X connect 113 0 120 0;
#X connect 114 0 116 0;
#X connect 114 1 111 0;
#X connect 114 2 112 0;
#X connect 115 0 114 0;
#X connect 116 0 54 0;
#X connect 116 0 182 0;
#X connect 117 0 109 0;
#X connect 118 0 128 0;
#X connect 119 0 80 0;
#X connect 121 0 42 0;
#X connect 121 0 148 0;
#X connect 121 0 185 0;
#X connect 122 0 127 0;
#X connect 123 0 94 0;
#X connect 123 1 118 0;
#X connect 124 0 127 1;
#X connect 125 0 126 0;
#X connect 125 0 181 1;
#X connect 126 0 124 0;
#X connect 127 0 123 0;
#X connect 128 0 96 0;
#X connect 129 0 8 0;
#X connect 129 1 9 0;
#X connect 129 2 31 0;
#X connect 129 3 41 0;
#X connect 129 4 134 0;
#X connect 129 5 135 0;
#X connect 132 0 5 0;
#X connect 133 0 16 0;
#X connect 136 0 132 0;
#X connect 136 0 133 0;
#X connect 137 0 138 0;
#X connect 138 0 139 0;
#X connect 141 0 143 0;
#X connect 143 0 144 0;
#X connect 144 0 166 0;
#X connect 145 0 165 1;
#X connect 146 0 171 0;
#X connect 147 0 170 0;
#X connect 149 0 77 0;
#X connect 150 0 155 0;
#X connect 151 0 152 0;
#X connect 152 0 153 0;
#X connect 152 1 153 1;
#X connect 153 0 154 0;
#X connect 155 0 151 0;
#X connect 156 0 158 0;
#X connect 156 1 158 1;
#X connect 158 0 157 0;
#X connect 158 0 161 0;
#X connect 159 0 161 0;
#X connect 159 1 161 1;
#X connect 160 0 167 0;
#X connect 161 0 160 0;
#X connect 161 0 164 0;
#X connect 162 0 164 0;
#X connect 162 1 164 1;
#X connect 164 0 163 0;
#X connect 166 0 145 0;
#X connect 171 0 147 0;
#X connect 172 0 92 0;
#X connect 174 0 175 0;
#X connect 176 0 173 0;
#X connect 177 0 176 0;
#X connect 178 0 53 0;
#X connect 179 0 173 1;
#X connect 182 0 173 1;
#X connect 183 0 179 0;
#X connect 184 0 183 1;
#X connect 185 0 105 0;
