#N canvas -147 200 1280 763 12;
#X obj -17054 -403 select 0 1 2 3 4 5 6 7 8 9 10 11 12 13 14 15;
#X obj -17145 -483 f;
#X obj -17087 -483 f;
#X obj -17030 -483 f;
#X obj -16972 -483 f;
#X obj -16876 -485 f;
#X obj -16767 -484 f;
#X obj -16709 -484 f;
#X obj -16622 -484 f;
#X obj -16564 -484 f;
#X obj -16507 -484 f;
#X obj -16449 -484 f;
#X obj -16393 -484 f;
#X obj -16350 -485 f;
#X obj -16286 -480 f;
#X obj -16217 -483 f;
#X obj -17130 -524 nbx 5 14 -1e+37 1e+37 0 0 empty empty empty 0 -8
0 10 -262144 -1 -1 2 256;
#X obj -17067 -525 nbx 5 14 -1e+37 1e+37 0 0 empty empty empty 0 -8
0 10 -262144 -1 -1 4 256;
#X obj -17016 -507 nbx 5 14 -1e+37 1e+37 0 0 empty empty empty 0 -8
0 10 -262144 -1 -1 2 256;
#X obj -16958 -507 nbx 5 14 -1e+37 1e+37 0 0 empty empty empty 0 -8
0 10 -262144 -1 -1 1 256;
#X obj -16867 -510 nbx 5 14 -1e+37 1e+37 0 0 empty empty empty 0 -8
0 10 -262144 -1 -1 2 256;
#X obj -16689 -510 nbx 5 14 -1e+37 1e+37 0 0 empty empty empty 0 -8
0 10 -262144 -1 -1 1 256;
#X obj -16608 -511 nbx 5 14 -1e+37 1e+37 0 0 empty empty empty 0 -8
0 10 -262144 -1 -1 1 256;
#X obj -16538 -511 nbx 5 14 -1e+37 1e+37 0 0 empty empty empty 0 -8
0 10 -262144 -1 -1 1 256;
#X obj -16469 -505 nbx 5 14 -1e+37 1e+37 0 0 empty empty empty 0 -8
0 10 -262144 -1 -1 1 256;
#X obj -16409 -508 nbx 5 14 -1e+37 1e+37 0 0 empty empty empty 0 -8
0 10 -262144 -1 -1 1 256;
#X obj -16143 -513 nbx 5 14 -1e+37 1e+37 0 0 empty empty empty 0 -8
0 10 -262144 -1 -1 1 256;
#X obj -16278 -513 nbx 5 14 -1e+37 1e+37 0 0 empty empty empty 0 -8
0 10 -262144 -1 -1 1 256;
#X obj -16212 -514 nbx 5 14 -1e+37 1e+37 0 0 empty empty empty 0 -8
0 10 -262144 -1 -1 1 256;
#X obj -16349 -514 nbx 5 14 -1e+37 1e+37 0 0 empty empty empty 0 -8
0 10 -262144 -1 -1 1 256;
#X floatatom -17220 -463 5 0 0 0 - - -;
#X obj -17125 -549 inlet;
#X obj -17054 -549 inlet;
#X obj -16853 -549 inlet;
#X obj -16807 -549 inlet;
#X obj -16758 -549 inlet;
#X obj -16696 -549 inlet;
#X obj -16590 -550 inlet;
#X obj -16540 -551 inlet;
#X obj -16479 -550 inlet;
#X obj -16220 -549 inlet;
#X obj -16338 -549 inlet;
#X obj -16767 -484 f;
#X obj -16756 -509 nbx 5 14 -1e+37 1e+37 0 0 empty empty empty 0 -8
0 10 -262144 -1 -1 9 256;
#X obj -16932 -549 inlet;
#X obj -16826 -483 f;
#X obj -16810 -511 nbx 5 14 -1e+37 1e+37 0 0 empty empty empty 0 -8
0 10 -262144 -1 -1 1 256;
#X obj -16983 -549 inlet;
#X obj -16796 -1113 tgl 15 0 empty empty empty 17 7 0 10 -262144 -1
-1 0 1;
#X obj -16828 -890 bng 15 250 50 0 empty empty empty 17 7 0 10 -262144
-1 -1;
#X floatatom -16719 -1108 5 0 0 0 - - -;
#X obj -16790 -1087 metro 300;
#X obj -16762 -643 mod;
#X floatatom -17009 -820 5 0 0 0 - - -;
#X floatatom -16767 -608 5 0 0 0 - - -;
#X obj -16268 -549 inlet;
#X obj -16145 -549 inlet;
#X obj -16427 -548 inlet;
#X floatatom -16759 -679 5 0 0 0 - - -;
#X obj -16840 -698 bng 15 250 50 0 empty empty empty 17 7 0 10 -262144
-1 -1;
#X obj -16643 -663 f;
#X floatatom -16644 -638 5 0 0 0 - - -;
#X obj -16852 -1103 inlet;
#X obj -16855 -1075 inlet;
#X obj -16953 -1055 inlet;
#X obj -16541 -643 outlet;
#X obj -16531 -600 outlet;
#X obj -16724 -583 outlet;
#X obj -16725 -711 + 1;
#X obj -17064 -769 t b f;
#X obj -17076 -735 * 1;
#X floatatom -17079 -685 5 0 0 0 - - -;
#X obj -17145 -945 notein;
#X obj -17124 -908 / 64;
#X obj -17179 -859 spigot-toggle_red;
#X obj -17090 -857 r LNR+TUCH;
#X obj -17080 -826 - 1;
#X obj -17082 -797 * -1;
#X floatatom -17172 -884 5 0 0 0 - - -;
#X obj -17171 -908 < 16;
#X floatatom -17124 -885 5 0 0 0 - - -;
#X floatatom -17177 -834 5 0 0 0 - - -;
#X obj -17173 -804 - 1;
#X obj -17175 -775 * -1;
#X obj -17171 -733 * 100;
#X obj -17127 -827 spigot-toggle_red;
#X obj -17127 -797 spigot-toggle_red;
#X obj -17125 -670 r lo;
#X obj -16757 -711 f;
#X floatatom -16928 -1021 5 0 0 0 - - -;
#X obj -16760 -1023 - 1;
#X obj -16759 -998 * -1;
#X obj -16843 -926 spigot-toggle_red;
#X floatatom -16843 -755 5 0 0 0 - - -;
#X obj -16846 -733 sel 0 1;
#X obj -16791 -922 spigot-toggle_red;
#X obj -16763 -1048 r IT≠T;
#X obj -16245 -990 bng 15 250 50 0 empty empty empty 17 7 0 10 -262144
-1 -1;
#X floatatom -16266 -1090 5 0 0 0 - - -;
#X obj -16267 -1064 mod;
#X floatatom -16265 -1036 5 0 0 0 - - -;
#X obj -16269 -988 bng 15 250 50 0 empty empty empty 17 7 0 10 -262144
-1 -1;
#X obj -16257 -1011 sel;
#X obj -16344 -1104 f;
#X obj -16315 -1104 + 1;
#X obj -16271 -1117 r stpT$;
#X obj -16816 -1002 r lo;
#X obj -16835 -803 nbx 2 14 -1e+37 1e+37 0 0 empty empty empty 0 -8
0 10 -228856 -1 -1 0 256;
#X obj -16835 -859 bng 19 250 50 0 empty empty empty 17 7 0 10 -228856
-1 -1;
#X text -16801 -804 <= counter value;
#X text -16812 -859 <= next value;
#X obj -16835 -831 cyclone/counter 0 15;
#X obj -16896 -761 - 1;
#X obj -16765 -741 s ITAng;
#X obj -16054 -877 bng 15 250 50 0 empty empty empty 17 7 0 10 -262144
-1 -1;
#X obj -16081 -878 bng 15 250 50 0 empty empty empty 17 7 0 10 -262144
-1 -1;
#X obj -16072 -907 sel;
#X obj -16065 -978 ==;
#X floatatom -16064 -932 5 0 0 0 - - -;
#X obj -16482 -645 s floatIT;
#X obj -16170 -1095 * 1;
#X floatatom -16081 -1078 5 0 0 0 - - -;
#X obj -16086 -1105 r stpT$;
#X obj -16170 -1119 t b f;
#X floatatom -16023 -1076 5 0 0 0 - - -;
#X obj -16014 -1098 * 1;
#X floatatom -16175 -1067 5 0 0 0 - - -;
#X obj -16200 -989 bng 15 250 50 0 empty empty empty 17 7 0 10 -262144
-1 -1;
#X floatatom -16221 -1089 5 0 0 0 - - -;
#X obj -16222 -1063 mod;
#X floatatom -16220 -1035 5 0 0 0 - - -;
#X obj -16224 -987 bng 15 250 50 0 empty empty empty 17 7 0 10 -262144
-1 -1;
#X obj -16212 -1010 sel;
#X obj -16067 -1012 + 1;
#X obj -16012 -1015 - 1;
#X obj -16790 -957 bng 15 250 50 0 empty empty empty 17 7 0 10 -262144
-1 -1;
#X obj -16611 -797 == 0;
#X obj -16609 -771 s IT0;
#X obj -16885 -909 bng 15 250 50 0 empty empty empty 17 7 0 10 -262144
-1 -1;
#X obj -16525 -697 s floatITreal;
#X obj -16700 -926 r stpTendIT;
#X connect 0 0 1 0;
#X connect 0 1 2 0;
#X connect 0 2 3 0;
#X connect 0 3 4 0;
#X connect 0 4 5 0;
#X connect 0 5 45 0;
#X connect 0 6 6 0;
#X connect 0 7 7 0;
#X connect 0 8 8 0;
#X connect 0 9 9 0;
#X connect 0 10 10 0;
#X connect 0 11 11 0;
#X connect 0 12 12 0;
#X connect 0 13 13 0;
#X connect 0 14 14 0;
#X connect 0 15 15 0;
#X connect 1 0 30 0;
#X connect 2 0 30 0;
#X connect 3 0 30 0;
#X connect 4 0 30 0;
#X connect 5 0 30 0;
#X connect 6 0 30 0;
#X connect 7 0 30 0;
#X connect 8 0 30 0;
#X connect 9 0 30 0;
#X connect 10 0 30 0;
#X connect 11 0 30 0;
#X connect 12 0 30 0;
#X connect 13 0 30 0;
#X connect 14 0 30 0;
#X connect 15 0 30 0;
#X connect 16 0 1 1;
#X connect 17 0 2 1;
#X connect 18 0 3 1;
#X connect 19 0 4 1;
#X connect 20 0 5 1;
#X connect 21 0 7 1;
#X connect 22 0 8 1;
#X connect 23 0 9 1;
#X connect 24 0 10 1;
#X connect 25 0 11 1;
#X connect 26 0 15 1;
#X connect 27 0 13 1;
#X connect 28 0 14 1;
#X connect 29 0 12 1;
#X connect 30 0 66 0;
#X connect 30 0 112 0;
#X connect 31 0 16 0;
#X connect 32 0 17 0;
#X connect 33 0 20 0;
#X connect 34 0 46 0;
#X connect 35 0 43 0;
#X connect 36 0 21 0;
#X connect 37 0 22 0;
#X connect 38 0 23 0;
#X connect 39 0 24 0;
#X connect 40 0 28 0;
#X connect 41 0 29 0;
#X connect 43 0 6 1;
#X connect 44 0 19 0;
#X connect 45 0 30 0;
#X connect 46 0 45 1;
#X connect 47 0 18 0;
#X connect 48 0 51 0;
#X connect 49 0 108 0;
#X connect 50 0 51 1;
#X connect 51 0 49 0;
#X connect 52 0 54 0;
#X connect 53 0 69 0;
#X connect 54 0 0 0;
#X connect 54 0 67 0;
#X connect 55 0 27 0;
#X connect 56 0 26 0;
#X connect 57 0 25 0;
#X connect 58 0 52 0;
#X connect 58 0 139 0;
#X connect 58 0 119 0;
#X connect 58 0 65 0;
#X connect 59 0 88 0;
#X connect 59 0 113 0;
#X connect 60 0 61 0;
#X connect 61 0 65 0;
#X connect 61 0 119 0;
#X connect 62 0 48 0;
#X connect 63 0 89 0;
#X connect 63 0 92 0;
#X connect 63 0 138 0;
#X connect 64 0 53 0;
#X connect 68 0 88 1;
#X connect 69 0 70 0;
#X connect 69 1 70 1;
#X connect 70 0 71 0;
#X connect 71 0 52 1;
#X connect 72 0 79 0;
#X connect 72 1 73 0;
#X connect 73 0 80 0;
#X connect 74 0 81 0;
#X connect 75 0 76 0;
#X connect 75 0 85 1;
#X connect 75 0 86 1;
#X connect 76 0 77 0;
#X connect 77 0 70 0;
#X connect 78 0 74 1;
#X connect 79 0 78 0;
#X connect 80 0 74 0;
#X connect 81 0 82 0;
#X connect 81 0 85 0;
#X connect 82 0 83 0;
#X connect 83 0 84 0;
#X connect 84 0 86 0;
#X connect 85 0 70 0;
#X connect 86 0 58 0;
#X connect 87 0 70 0;
#X connect 88 0 58 0;
#X connect 88 0 68 0;
#X connect 90 0 91 0;
#X connect 91 0 95 1;
#X connect 92 0 49 0;
#X connect 93 0 94 0;
#X connect 93 0 136 0;
#X connect 94 0 59 0;
#X connect 95 0 49 0;
#X connect 96 0 90 0;
#X connect 96 0 92 1;
#X connect 98 0 99 1;
#X connect 99 0 100 0;
#X connect 100 0 102 0;
#X connect 102 0 101 0;
#X connect 102 1 97 0;
#X connect 103 0 104 0;
#X connect 103 0 99 0;
#X connect 103 0 129 0;
#X connect 104 0 103 1;
#X connect 105 0 98 0;
#X connect 106 0 92 1;
#X connect 107 0 93 0;
#X connect 108 0 111 0;
#X connect 111 0 107 0;
#X connect 112 0 111 4;
#X connect 112 0 125 0;
#X connect 116 0 115 0;
#X connect 116 1 114 0;
#X connect 117 0 118 0;
#X connect 118 0 116 0;
#X connect 120 0 126 0;
#X connect 121 0 123 0;
#X connect 122 0 121 0;
#X connect 123 0 120 0;
#X connect 123 1 120 1;
#X connect 124 0 120 0;
#X connect 125 0 124 0;
#X connect 126 0 128 0;
#X connect 126 0 134 0;
#X connect 128 0 129 1;
#X connect 129 0 130 0;
#X connect 130 0 132 0;
#X connect 130 0 133 0;
#X connect 132 0 131 0;
#X connect 132 1 127 0;
#X connect 133 0 117 0;
#X connect 134 0 117 1;
#X connect 135 0 95 0;
#X connect 136 0 137 0;
#X connect 140 0 135 0;
