#N canvas 733 241 686 359 10;
#X obj 101 100 cnv 30 120 100 \$0-module-send \$0-module-recv mono_vco
1 4 0 10 -204786 -13381 0;
#N canvas 642 120 500 413 multi_oscillator 1;
#N canvas 430 458 1116 633 sine 0;
#X floatatom 603 58 5 0 0 0 - - -;
#X obj 603 80 sel 0;
#X obj 79 269 osc~;
#X obj 81 32 r \$0-freq1;
#X obj 603 36 r \$0-wave-send;
#X floatatom 81 54 5 0 0 0 - - -;
#X obj 320 263 osc~;
#X obj 79 418 *~;
#X obj 319 418 *~;
#X obj 604 205 f;
#X msg 945 214 0;
#X obj 945 192 t b;
#X obj 336 371 pack f 50;
#X obj 336 393 line~;
#X obj 98 371 pack f 50;
#X obj 98 393 line~;
#X obj 81 135 pack f f;
#X floatatom 134 116 5 0 0 0 - - -;
#X obj 81 157 line~;
#X obj 80 235 +~;
#X floatatom 320 54 5 0 0 0 - - -;
#X obj 320 136 pack f f;
#X floatatom 373 117 5 0 0 0 - - -;
#X obj 320 158 line~;
#X obj 319 236 +~;
#X obj 621 137 r \$0-balance-send;
#X obj 320 33 r \$0-freq2;
#X obj 79 442 +~;
#X obj 78 467 outlet~;
#X floatatom 621 159 5 0 0 0 - - -;
#X obj 621 178 t b f;
#X obj 98 327 swap 1;
#X obj 98 349 -;
#X obj 603 104 t b b b;
#X obj 336 345 spigot;
#X msg 716 208 1;
#X obj 98 304 spigot;
#X msg 794 209 0;
#X obj 794 184 r \$0-reset-send;
#X obj 134 94 r \$0-glide;
#X obj 373 95 r \$0-glide;
#X obj 97 211 r~ \$0-fm;
#X obj 336 213 r~ \$0-fm;
#X obj 304 496 s~ wave0;
#X connect 0 0 1 0;
#X connect 1 0 33 0;
#X connect 1 1 11 0;
#X connect 2 0 7 0;
#X connect 3 0 5 0;
#X connect 4 0 0 0;
#X connect 5 0 16 0;
#X connect 6 0 8 0;
#X connect 7 0 27 0;
#X connect 8 0 27 1;
#X connect 9 0 34 0;
#X connect 9 0 36 0;
#X connect 10 0 12 0;
#X connect 10 0 14 0;
#X connect 10 0 34 1;
#X connect 10 0 36 1;
#X connect 11 0 10 0;
#X connect 12 0 13 0;
#X connect 13 0 8 1;
#X connect 14 0 15 0;
#X connect 15 0 7 1;
#X connect 16 0 18 0;
#X connect 17 0 16 1;
#X connect 18 0 19 0;
#X connect 19 0 2 0;
#X connect 20 0 21 0;
#X connect 21 0 23 0;
#X connect 22 0 21 1;
#X connect 23 0 24 0;
#X connect 24 0 6 0;
#X connect 25 0 29 0;
#X connect 26 0 20 0;
#X connect 27 0 28 0;
#X connect 27 0 43 0;
#X connect 29 0 30 0;
#X connect 30 0 9 0;
#X connect 30 1 9 1;
#X connect 31 0 32 0;
#X connect 31 1 32 1;
#X connect 32 0 14 0;
#X connect 33 0 9 0;
#X connect 33 1 35 0;
#X connect 33 2 37 0;
#X connect 34 0 12 0;
#X connect 35 0 34 1;
#X connect 35 0 36 1;
#X connect 36 0 31 0;
#X connect 37 0 6 1;
#X connect 37 0 2 1;
#X connect 38 0 37 0;
#X connect 39 0 17 0;
#X connect 40 0 22 0;
#X connect 41 0 19 1;
#X connect 42 0 24 1;
#X restore 86 23 pd sine;
#X obj 85 118 +~;
#X obj 133 337 tabwrite~ \$0-waveform;
#X obj 133 311 metro 100;
#X obj 133 284 tgl 15 0 empty empty empty 17 7 0 10 -262144 -1 -1 0
1;
#X obj 133 259 loadbang;
#X obj 150 100 +~;
#N canvas 564 50 1116 726 pulse 0;
#X floatatom 603 58 5 0 0 0 - - -;
#X obj 81 32 r \$0-freq1;
#X obj 603 36 r \$0-wave-send;
#X floatatom 81 54 5 0 0 0 - - -;
#X obj 78 588 *~;
#X obj 314 588 *~;
#X obj 604 205 f;
#X msg 922 209 0;
#X obj 922 187 t b;
#X obj 331 541 pack f 50;
#X obj 331 563 line~;
#X obj 97 541 pack f 50;
#X obj 97 563 line~;
#X obj 81 135 pack f f;
#X floatatom 134 116 5 0 0 0 - - -;
#X obj 81 157 line~;
#X obj 80 235 +~;
#X floatatom 320 54 5 0 0 0 - - -;
#X obj 320 136 pack f f;
#X floatatom 373 117 5 0 0 0 - - -;
#X obj 320 158 line~;
#X obj 319 236 +~;
#X obj 621 137 r \$0-balance-send;
#X obj 320 33 r \$0-freq2;
#X obj 78 610 +~;
#X obj 77 637 outlet~;
#X floatatom 621 159 5 0 0 0 - - -;
#X obj 621 178 t b f;
#X obj 97 497 swap 1;
#X obj 97 519 -;
#X obj 603 104 t b b b;
#X obj 331 515 spigot;
#X msg 716 208 1;
#X obj 97 474 spigot;
#X msg 794 209 0;
#X obj 603 80 sel 2;
#X obj 79 290 phasor~;
#X obj 317 288 phasor~;
#X obj 78 374 expr~ $v1 > $v2;
#X obj 181 329 pack f 50;
#X obj 181 351 line~;
#X floatatom 181 310 5 0 0 0 - - -;
#X obj 316 375 expr~ $v1 > $v2;
#X obj 417 331 pack f 50;
#X obj 417 353 line~;
#X floatatom 417 312 5 0 0 0 - - -;
#X obj 77 399 *~ 2;
#X obj 77 421 -~ 1;
#X obj 315 398 *~ 2;
#X obj 315 420 -~ 1;
#X obj 794 184 r \$0-reset-send;
#X obj 134 94 r \$0-glide;
#X obj 373 95 r \$0-glide;
#X obj 99 210 r~ \$0-fm;
#X obj 336 211 r~ \$0-fm;
#X obj 417 290 r \$0-pwm;
#X obj 181 288 r \$0-pwm;
#X obj 201 686 s~ wave2;
#X connect 0 0 35 0;
#X connect 1 0 3 0;
#X connect 2 0 0 0;
#X connect 3 0 13 0;
#X connect 4 0 24 0;
#X connect 5 0 24 1;
#X connect 6 0 31 0;
#X connect 6 0 33 0;
#X connect 7 0 9 0;
#X connect 7 0 11 0;
#X connect 7 0 31 1;
#X connect 7 0 33 1;
#X connect 8 0 7 0;
#X connect 9 0 10 0;
#X connect 10 0 5 1;
#X connect 11 0 12 0;
#X connect 12 0 4 1;
#X connect 13 0 15 0;
#X connect 14 0 13 1;
#X connect 15 0 16 0;
#X connect 16 0 36 0;
#X connect 17 0 18 0;
#X connect 18 0 20 0;
#X connect 19 0 18 1;
#X connect 20 0 21 0;
#X connect 21 0 37 0;
#X connect 22 0 26 0;
#X connect 23 0 17 0;
#X connect 24 0 25 0;
#X connect 24 0 57 0;
#X connect 26 0 27 0;
#X connect 27 0 6 0;
#X connect 27 1 6 1;
#X connect 28 0 29 0;
#X connect 28 1 29 1;
#X connect 29 0 11 0;
#X connect 30 0 6 0;
#X connect 30 1 32 0;
#X connect 30 2 34 0;
#X connect 31 0 9 0;
#X connect 32 0 31 1;
#X connect 32 0 33 1;
#X connect 33 0 28 0;
#X connect 34 0 36 1;
#X connect 34 0 37 1;
#X connect 35 0 30 0;
#X connect 35 1 8 0;
#X connect 36 0 38 0;
#X connect 37 0 42 0;
#X connect 38 0 46 0;
#X connect 39 0 40 0;
#X connect 40 0 38 1;
#X connect 41 0 39 0;
#X connect 42 0 48 0;
#X connect 43 0 44 0;
#X connect 44 0 42 1;
#X connect 45 0 43 0;
#X connect 46 0 47 0;
#X connect 47 0 4 0;
#X connect 48 0 49 0;
#X connect 49 0 5 0;
#X connect 50 0 34 0;
#X connect 51 0 14 0;
#X connect 52 0 19 0;
#X connect 53 0 16 1;
#X connect 54 0 21 1;
#X connect 55 0 45 0;
#X connect 56 0 41 0;
#X restore 241 26 pd pulse;
#X obj 242 82 +~;
#N canvas 469 121 1116 726 saw 0;
#X floatatom 603 58 5 0 0 0 - - -;
#X obj 81 32 r \$0-freq1;
#X obj 603 36 r \$0-wave-send;
#X floatatom 81 54 5 0 0 0 - - -;
#X obj 81 513 *~;
#X obj 317 513 *~;
#X obj 604 205 f;
#X msg 922 209 0;
#X obj 922 187 t b;
#X obj 334 466 pack f 50;
#X obj 334 488 line~;
#X obj 100 466 pack f 50;
#X obj 100 488 line~;
#X obj 81 135 pack f f;
#X floatatom 134 116 5 0 0 0 - - -;
#X obj 81 157 line~;
#X obj 80 235 +~;
#X floatatom 320 54 5 0 0 0 - - -;
#X obj 320 136 pack f f;
#X floatatom 373 117 5 0 0 0 - - -;
#X obj 320 158 line~;
#X obj 319 236 +~;
#X obj 621 137 r \$0-balance-send;
#X obj 320 33 r \$0-freq2;
#X obj 81 535 +~;
#X obj 80 562 outlet~;
#X floatatom 621 159 5 0 0 0 - - -;
#X obj 621 178 t b f;
#X obj 100 422 swap 1;
#X obj 100 444 -;
#X obj 603 104 t b b b;
#X obj 334 440 spigot;
#X msg 716 208 1;
#X obj 100 399 spigot;
#X msg 794 209 0;
#X obj 79 290 phasor~;
#X obj 317 288 phasor~;
#X obj 80 324 *~ 2;
#X obj 80 346 -~ 1;
#X obj 318 323 *~ 2;
#X obj 318 345 -~ 1;
#X obj 603 80 sel 3;
#X obj 794 184 r \$0-reset-send;
#X obj 373 95 r \$0-glide;
#X obj 134 94 r \$0-glide;
#X obj 98 212 r~ \$0-fm;
#X obj 337 211 r~ \$0-fm;
#X obj 252 635 s~ wave3;
#X connect 0 0 41 0;
#X connect 1 0 3 0;
#X connect 2 0 0 0;
#X connect 3 0 13 0;
#X connect 4 0 24 0;
#X connect 5 0 24 1;
#X connect 6 0 31 0;
#X connect 6 0 33 0;
#X connect 7 0 9 0;
#X connect 7 0 11 0;
#X connect 7 0 31 1;
#X connect 7 0 33 1;
#X connect 8 0 7 0;
#X connect 9 0 10 0;
#X connect 10 0 5 1;
#X connect 11 0 12 0;
#X connect 12 0 4 1;
#X connect 13 0 15 0;
#X connect 14 0 13 1;
#X connect 15 0 16 0;
#X connect 16 0 35 0;
#X connect 17 0 18 0;
#X connect 18 0 20 0;
#X connect 19 0 18 1;
#X connect 20 0 21 0;
#X connect 21 0 36 0;
#X connect 22 0 26 0;
#X connect 23 0 17 0;
#X connect 24 0 25 0;
#X connect 24 0 47 0;
#X connect 26 0 27 0;
#X connect 27 0 6 0;
#X connect 27 1 6 1;
#X connect 28 0 29 0;
#X connect 28 1 29 1;
#X connect 29 0 11 0;
#X connect 30 0 6 0;
#X connect 30 1 32 0;
#X connect 30 2 34 0;
#X connect 31 0 9 0;
#X connect 32 0 31 1;
#X connect 32 0 33 1;
#X connect 33 0 28 0;
#X connect 34 0 35 1;
#X connect 34 0 36 1;
#X connect 35 0 37 0;
#X connect 36 0 39 0;
#X connect 37 0 38 0;
#X connect 38 0 4 0;
#X connect 39 0 40 0;
#X connect 40 0 5 0;
#X connect 41 0 30 0;
#X connect 41 1 8 0;
#X connect 42 0 34 0;
#X connect 43 0 19 0;
#X connect 44 0 14 0;
#X connect 45 0 16 1;
#X connect 46 0 21 1;
#X restore 308 27 pd saw;
#X obj 307 64 +~;
#N canvas 564 60 1116 554 noise 0;
#X floatatom 603 58 5 0 0 0 - - -;
#X obj 93 31 r \$0-freq1;
#X obj 603 36 r \$0-wave-send;
#X floatatom 93 53 5 0 0 0 - - -;
#X obj 79 434 *~;
#X obj 319 434 *~;
#X obj 604 205 f;
#X msg 945 214 0;
#X obj 945 192 t b;
#X obj 336 387 pack f 50;
#X obj 336 409 line~;
#X obj 98 387 pack f 50;
#X obj 98 409 line~;
#X obj 93 134 pack f f;
#X floatatom 146 115 5 0 0 0 - - -;
#X obj 93 156 line~;
#X obj 92 234 +~;
#X floatatom 332 53 5 0 0 0 - - -;
#X obj 332 135 pack f f;
#X floatatom 385 116 5 0 0 0 - - -;
#X obj 332 157 line~;
#X obj 331 235 +~;
#X obj 621 137 r \$0-balance-send;
#X obj 332 32 r \$0-freq2;
#X obj 79 456 +~;
#X obj 78 483 outlet~;
#X floatatom 621 159 5 0 0 0 - - -;
#X obj 621 178 t b f;
#X obj 98 343 swap 1;
#X obj 98 365 -;
#X obj 336 361 spigot;
#X msg 716 208 1;
#X obj 98 320 spigot;
#X obj 603 80 sel 4;
#X obj 42 233 noise~;
#X obj 80 283 vcf~;
#X floatatom 121 258 5 0 0 0 - - -;
#X obj 280 234 noise~;
#X obj 318 278 vcf~;
#X floatatom 362 259 5 0 0 0 - - -;
#X obj 603 104 t b b;
#X obj 146 93 r \$0-glide;
#X obj 385 94 r \$0-glide;
#X obj 121 236 r \$0-nf;
#X obj 362 237 r \$0-nf;
#X obj 349 212 r~ \$0-fm;
#X obj 110 211 r~ \$0-fm;
#X obj 205 497 s~ wave4;
#X connect 0 0 33 0;
#X connect 1 0 3 0;
#X connect 2 0 0 0;
#X connect 3 0 13 0;
#X connect 4 0 24 0;
#X connect 5 0 24 1;
#X connect 6 0 30 0;
#X connect 6 0 32 0;
#X connect 7 0 9 0;
#X connect 7 0 11 0;
#X connect 7 0 30 1;
#X connect 7 0 32 1;
#X connect 8 0 7 0;
#X connect 9 0 10 0;
#X connect 10 0 5 1;
#X connect 11 0 12 0;
#X connect 12 0 4 1;
#X connect 13 0 15 0;
#X connect 14 0 13 1;
#X connect 15 0 16 0;
#X connect 16 0 35 1;
#X connect 17 0 18 0;
#X connect 18 0 20 0;
#X connect 19 0 18 1;
#X connect 20 0 21 0;
#X connect 21 0 38 1;
#X connect 22 0 26 0;
#X connect 23 0 17 0;
#X connect 24 0 25 0;
#X connect 24 0 47 0;
#X connect 26 0 27 0;
#X connect 27 0 6 0;
#X connect 27 1 6 1;
#X connect 28 0 29 0;
#X connect 28 1 29 1;
#X connect 29 0 11 0;
#X connect 30 0 9 0;
#X connect 31 0 30 1;
#X connect 31 0 32 1;
#X connect 32 0 28 0;
#X connect 33 0 40 0;
#X connect 33 1 8 0;
#X connect 34 0 35 0;
#X connect 35 0 4 0;
#X connect 36 0 35 2;
#X connect 37 0 38 0;
#X connect 38 0 5 0;
#X connect 39 0 38 2;
#X connect 40 0 6 0;
#X connect 40 1 31 0;
#X connect 41 0 14 0;
#X connect 42 0 19 0;
#X connect 43 0 36 0;
#X connect 44 0 39 0;
#X connect 45 0 21 1;
#X connect 46 0 16 1;
#X restore 360 28 pd noise;
#X obj 86 365 s~ \$0-sig;
#X obj 85 325 *~;
#N canvas 144 265 1116 554 triangle 0;
#X floatatom 603 58 5 0 0 0 - - -;
#X obj 81 32 r \$0-freq1;
#X obj 603 36 r \$0-wave-send;
#X floatatom 81 54 5 0 0 0 - - -;
#X obj 79 434 *~;
#X obj 319 434 *~;
#X obj 601 218 f;
#X msg 789 136 0;
#X obj 98 344 swap 1;
#X obj 98 366 -;
#X msg 984 134 0;
#X obj 984 112 t b;
#X obj 336 387 pack f 50;
#X obj 336 409 line~;
#X obj 98 387 pack f 50;
#X obj 98 409 line~;
#X obj 81 135 pack f f;
#X floatatom 134 116 5 0 0 0 - - -;
#X obj 81 157 line~;
#X obj 80 235 +~;
#X floatatom 320 55 5 0 0 0 - - -;
#X obj 320 136 pack f f;
#X floatatom 373 117 5 0 0 0 - - -;
#X obj 320 158 line~;
#X obj 319 236 +~;
#X obj 621 135 r \$0-balance-send;
#X obj 320 33 r \$0-freq2;
#X obj 79 456 +~;
#X obj 78 483 outlet~;
#X obj 603 80 sel 1;
#N canvas 406 87 501 366 make-triangle 0;
#X obj 52 20 inlet~;
#X obj 341 42 inlet phase;
#X obj 51 126 phasor~;
#X obj 295 125 phasor~;
#X obj 49 174 -~ 1;
#X obj 49 201 clip~ -1 0;
#X obj 50 148 *~ 2;
#X obj 295 147 *~ -2;
#X obj 294 170 +~ 1;
#X obj 294 195 clip~ -1 0;
#X obj 48 225 *~ 2;
#X obj 294 218 *~ 2;
#X obj 181 307 +~;
#X obj 181 329 outlet~;
#X obj 294 240 +~ 0.5;
#X obj 48 247 +~ 0.5;
#X connect 0 0 2 0;
#X connect 0 0 3 0;
#X connect 1 0 3 1;
#X connect 1 0 2 1;
#X connect 2 0 6 0;
#X connect 3 0 7 0;
#X connect 4 0 5 0;
#X connect 5 0 10 0;
#X connect 6 0 4 0;
#X connect 7 0 8 0;
#X connect 8 0 9 0;
#X connect 9 0 11 0;
#X connect 10 0 15 0;
#X connect 11 0 14 0;
#X connect 12 0 13 0;
#X connect 14 0 12 1;
#X connect 15 0 12 0;
#X restore 81 265 pd make-triangle;
#N canvas 270 393 444 366 make-triangle 0;
#X obj 52 20 inlet~;
#X obj 341 34 inlet phase;
#X obj 51 126 phasor~;
#X obj 295 125 phasor~;
#X obj 49 174 -~ 1;
#X obj 49 201 clip~ -1 0;
#X obj 50 148 *~ 2;
#X obj 295 147 *~ -2;
#X obj 294 170 +~ 1;
#X obj 294 195 clip~ -1 0;
#X obj 48 225 *~ 2;
#X obj 294 218 *~ 2;
#X obj 181 307 +~;
#X obj 181 329 outlet~;
#X obj 294 240 +~ 0.5;
#X obj 48 247 +~ 0.5;
#X connect 0 0 2 0;
#X connect 0 0 3 0;
#X connect 1 0 3 1;
#X connect 1 0 2 1;
#X connect 2 0 6 0;
#X connect 3 0 7 0;
#X connect 4 0 5 0;
#X connect 5 0 10 0;
#X connect 6 0 4 0;
#X connect 7 0 8 0;
#X connect 8 0 9 0;
#X connect 9 0 11 0;
#X connect 10 0 15 0;
#X connect 11 0 14 0;
#X connect 12 0 13 0;
#X connect 14 0 12 1;
#X connect 15 0 12 0;
#X restore 318 262 pd make-triangle;
#X obj 373 95 r \$0-glide;
#X obj 134 93 r \$0-glide;
#X floatatom 621 159 5 0 0 0 - - -;
#X obj 621 178 t b f;
#X obj 603 104 t b b b;
#X obj 98 322 spigot;
#X msg 912 134 1;
#X obj 336 363 spigot;
#X obj 789 108 r \$0-reset-send;
#X obj 99 211 r~ \$0-fm;
#X obj 338 209 r~ \$0-fm;
#X obj 193 487 s~ wave1;
#X connect 0 0 29 0;
#X connect 1 0 3 0;
#X connect 2 0 0 0;
#X connect 3 0 16 0;
#X connect 4 0 27 0;
#X connect 5 0 27 1;
#X connect 6 0 39 0;
#X connect 6 0 37 0;
#X connect 7 0 30 1;
#X connect 7 0 31 1;
#X connect 8 0 9 0;
#X connect 8 1 9 1;
#X connect 9 0 14 0;
#X connect 10 0 12 0;
#X connect 10 0 37 1;
#X connect 10 0 39 1;
#X connect 10 0 14 0;
#X connect 11 0 10 0;
#X connect 12 0 13 0;
#X connect 13 0 5 1;
#X connect 14 0 15 0;
#X connect 15 0 4 1;
#X connect 16 0 18 0;
#X connect 17 0 16 1;
#X connect 18 0 19 0;
#X connect 19 0 30 0;
#X connect 20 0 21 0;
#X connect 21 0 23 0;
#X connect 22 0 21 1;
#X connect 23 0 24 0;
#X connect 24 0 31 0;
#X connect 25 0 34 0;
#X connect 26 0 20 0;
#X connect 27 0 28 0;
#X connect 27 0 43 0;
#X connect 29 0 36 0;
#X connect 29 1 11 0;
#X connect 30 0 4 0;
#X connect 31 0 5 0;
#X connect 32 0 22 0;
#X connect 33 0 17 0;
#X connect 34 0 35 0;
#X connect 35 0 6 0;
#X connect 35 1 6 1;
#X connect 36 0 6 0;
#X connect 36 1 7 0;
#X connect 36 2 38 0;
#X connect 37 0 8 0;
#X connect 38 0 39 1;
#X connect 38 0 37 1;
#X connect 39 0 12 0;
#X connect 40 0 7 0;
#X connect 41 0 19 1;
#X connect 42 0 24 1;
#X restore 150 24 pd triangle;
#X connect 0 0 1 0;
#X connect 1 0 2 0;
#X connect 1 0 13 0;
#X connect 3 0 2 0;
#X connect 4 0 3 0;
#X connect 4 0 13 1;
#X connect 5 0 4 0;
#X connect 6 0 1 1;
#X connect 7 0 8 0;
#X connect 8 0 6 1;
#X connect 9 0 10 0;
#X connect 10 0 8 1;
#X connect 11 0 10 1;
#X connect 13 0 12 0;
#X connect 14 0 6 0;
#X restore 361 213 pd multi_oscillator;
#X obj 101 121 vradio 15 1 0 5 \$0-wave-send \$0-wave-recv empty 0
-8 0 10 -262130 -232576 -45076 1;
#X obj 119 120 cnv 15 98 75 empty empty empty 20 12 0 14 -4034 -66577
0;
#N canvas 0 50 450 250 (subpatch) 0;
#X array \$0-waveform 100 float 4;
#X coords 0 1.2 100 -1.2 100 76 2 0 0;
#X restore 118 120 graph;
#N canvas 360 116 1007 625 data_converseions 0;
#X floatatom 320 86 5 0 0 0 - - -;
#X obj 320 246 t b f;
#X obj 320 272 *;
#X floatatom 65 107 5 0 0 0 - - -;
#X floatatom 320 297 5 0 0 0 - - -;
#X obj 142 558 s \$0-freq2;
#X obj 320 105 moses 0.5;
#X obj 390 181 sel 0.5;
#X obj 320 182 swap 0.5;
#X obj 320 205 -;
#X floatatom 320 226 5 0 0 0 - - -;
#X obj 325 352 -;
#X floatatom 105 451 5 0 0 0 - - -;
#X obj 320 316 t b f;
#X obj 320 64 r \$0-freq2-send;
#X floatatom 436 247 5 0 0 0 - - -;
#X obj 436 308 t b f;
#X obj 436 330 *;
#X obj 436 401 +;
#X floatatom 436 352 5 0 0 0 - - -;
#X obj 436 371 t b f;
#X obj 391 390 f;
#X obj 436 225 - 0.5;
#X floatatom 436 205 5 0 0 0 - - -;
#X obj 436 265 * 2;
#X floatatom 436 287 5 0 0 0 - - -;
#X obj 612 83 r \$0-nf-send;
#X floatatom 612 112 5 0 0 0 - - -;
#X obj 612 132 * 19.99;
#X obj 612 155 + 0.01;
#X floatatom 612 177 5 0 0 0 - - -;
#X obj 716 81 r \$0-glide-send;
#X floatatom 720 113 5 0 0 0 - - -;
#X floatatom 720 182 5 0 0 0 - - -;
#X obj 720 201 s \$0-glide;
#X obj 850 84 r \$0-pwm-send;
#X floatatom 849 115 5 0 0 0 - - -;
#X obj 849 134 * 0.98;
#X floatatom 849 178 5 0 0 0 - - -;
#X obj 849 197 s \$0-pwm;
#X obj 612 196 s \$0-nf;
#X obj 720 134 * 975;
#X obj 720 160 + 25;
#X obj 65 85 r \$0-freq1-recv;
#X floatatom 64 450 5 0 0 0 - - -;
#X obj 64 560 s \$0-freq1;
#X obj 64 494 pack f f;
#X obj 64 516 unpack f f;
#X obj 105 470 t b f;
#X obj 849 156 + 0.01;
#X obj 105 421 spigot 0;
#X obj 191 420 spigot 0;
#X msg 245 372 0, f 1;
#X msg 158 375 1, f 1;
#X obj 321 128 t b b f;
#X msg 227 370 1, f 1;
#X obj 385 129 t b b f;
#X msg 180 370 0, f 1;
#X connect 0 0 6 0;
#X connect 1 0 2 0;
#X connect 1 1 2 1;
#X connect 2 0 4 0;
#X connect 3 0 2 0;
#X connect 3 0 11 0;
#X connect 3 0 17 0;
#X connect 3 0 18 0;
#X connect 3 0 21 1;
#X connect 3 0 44 0;
#X connect 4 0 13 0;
#X connect 6 0 54 0;
#X connect 6 1 56 0;
#X connect 7 0 21 0;
#X connect 7 1 23 0;
#X connect 8 0 9 0;
#X connect 8 1 9 1;
#X connect 9 0 10 0;
#X connect 10 0 1 0;
#X connect 11 0 50 0;
#X connect 12 0 48 0;
#X connect 13 0 11 0;
#X connect 13 1 11 1;
#X connect 14 0 0 0;
#X connect 15 0 24 0;
#X connect 16 0 17 0;
#X connect 16 1 17 1;
#X connect 17 0 19 0;
#X connect 18 0 51 0;
#X connect 19 0 20 0;
#X connect 20 0 18 0;
#X connect 20 1 18 1;
#X connect 21 0 12 0;
#X connect 22 0 15 0;
#X connect 23 0 22 0;
#X connect 24 0 25 0;
#X connect 25 0 16 0;
#X connect 26 0 27 0;
#X connect 27 0 28 0;
#X connect 28 0 29 0;
#X connect 29 0 30 0;
#X connect 30 0 40 0;
#X connect 31 0 32 0;
#X connect 32 0 41 0;
#X connect 33 0 34 0;
#X connect 35 0 36 0;
#X connect 36 0 37 0;
#X connect 37 0 49 0;
#X connect 38 0 39 0;
#X connect 41 0 42 0;
#X connect 42 0 33 0;
#X connect 43 0 3 0;
#X connect 44 0 46 0;
#X connect 46 0 47 0;
#X connect 47 0 45 0;
#X connect 47 1 5 0;
#X connect 48 0 46 0;
#X connect 48 1 46 1;
#X connect 49 0 38 0;
#X connect 50 0 12 0;
#X connect 51 0 12 0;
#X connect 52 0 51 1;
#X connect 53 0 50 1;
#X connect 54 0 53 0;
#X connect 54 1 52 0;
#X connect 54 2 8 0;
#X connect 55 0 51 1;
#X connect 56 0 55 0;
#X connect 56 1 57 0;
#X connect 56 2 7 0;
#X connect 57 0 50 1;
#X restore 360 189 pd data_converseions;
#X obj 22 25 inlet~ fm1;
#X obj 29 331 outlet~ sig;
#X obj 119 76 cnv 10 27 10 empty empty FM 2 6 0 8 -258113 -86277 0
;
#X obj 30 278 r~ \$0-sig;
#X obj 21 43 s~ \$0-fm;
#X connect 6 0 10 0;
#X connect 9 0 7 0;
#X coords 0 -1 1 1 120 100 2 100 100;
