#N canvas 206 82 747 735 10;
#X floatatom 235 119 5 0 0 0 - - -;
#X obj 316 438 outlet;
#X floatatom 303 176 5 0 0 0 - - -;
#X obj 514 122 r lo;
#X obj 307 382 spigot-toggle_orange;
#X obj 524 339 tgl 15 0 empty empty empty 17 7 0 10 -262144 -1 -1 0
1;
#X obj 506 390 inlet;
#X obj 234 152 select 3;
#X msg 516 146 3;
#X obj 565 477 noteout;
#X floatatom 620 442 5 0 0 0 - - -;
#X obj 559 370 r lo;
#X msg 561 405 3;
#X obj 582 439 * 80;
#X obj 632 303 sel;
#X obj 632 279 == 3;
#X obj 275 198 float;
#X obj 320 199 + 1;
#X floatatom 258 341 5 0 0 0 - - -;
#X obj 278 283 sel 0;
#X obj 276 248 mod 2;
#X msg 253 314 1;
#X msg 290 313 0;
#X floatatom 376 354 5 0 0 0 - - -;
#X obj 371 285 sel 1 2 3;
#X obj 369 250 mod 4;
#X obj 505 446 - 1;
#X obj 507 476 * -1;
#X obj 369 384 spigot-toggle_orange;
#X msg 383 315 1;
#X msg 413 315 0;
#X msg 346 316 0;
#X msg 450 314 1;
#X obj 241 45 notein 1;
#X obj 399 225 + 1;
#X obj 369 224 f;
#X connect 0 0 7 0;
#X connect 0 0 15 0;
#X connect 3 0 8 0;
#X connect 3 0 4 1;
#X connect 4 0 1 0;
#X connect 4 0 13 0;
#X connect 5 0 26 0;
#X connect 5 0 28 1;
#X connect 6 0 5 0;
#X connect 7 0 16 0;
#X connect 7 1 2 0;
#X connect 8 0 7 1;
#X connect 10 0 9 2;
#X connect 11 0 12 0;
#X connect 12 0 9 0;
#X connect 13 0 9 1;
#X connect 14 1 12 0;
#X connect 15 0 14 0;
#X connect 16 0 17 0;
#X connect 16 0 20 0;
#X connect 17 0 16 1;
#X connect 18 0 4 0;
#X connect 19 0 21 0;
#X connect 19 0 35 0;
#X connect 19 1 22 0;
#X connect 20 0 19 0;
#X connect 21 0 18 0;
#X connect 22 0 18 0;
#X connect 23 0 13 0;
#X connect 23 0 28 0;
#X connect 24 0 31 0;
#X connect 24 1 29 0;
#X connect 24 2 30 0;
#X connect 24 3 32 0;
#X connect 25 0 24 0;
#X connect 26 0 27 0;
#X connect 27 0 4 1;
#X connect 28 0 1 0;
#X connect 29 0 23 0;
#X connect 30 0 23 0;
#X connect 31 0 23 0;
#X connect 32 0 23 0;
#X connect 33 0 0 0;
#X connect 34 0 35 1;
#X connect 35 0 34 0;
#X connect 35 0 25 0;
