#N canvas 400 14 1280 1006 10;
#X obj -32 712 spigot-toggle_jaunenoir;
#X obj -74 712 spigot-toggle_red;
#X obj -105 713 spigot-toggle_vert;
#X obj -2 688 r fll0;
#X obj 54 688 r fll1;
#X obj 167 714 spigot-toggle_jaunenoir;
#X obj 198 714 spigot-toggle_jaunenoir;
#X obj 112 717 spigot-toggle_red;
#X obj 82 717 spigot-toggle_vert;
#X obj 207 737 r lo;
#X floatatom 156 732 5 0 0 0 - - -;
#X obj 319 717 spigot-toggle_jaunenoir;
#X obj 280 717 spigot-toggle_red;
#X obj 245 717 spigot-toggle_vert;
#X obj 359 686 r fll0;
#X obj 429 688 r fll1;
#X obj 466 717 spigot-toggle_jaunenoir;
#X obj 497 717 spigot-toggle_jaunenoir;
#X obj 433 717 spigot-toggle_red;
#X obj 401 717 spigot-toggle_vert;
#X floatatom 446 754 5 0 0 0 - - -;
#X obj 307 754 * 1;
#X obj 597 717 spigot-toggle_jaunenoir;
#X obj 567 717 spigot-toggle_red;
#X obj 620 694 r fll0;
#X obj 722 694 r fll1;
#X obj 730 717 spigot-toggle_jaunenoir;
#X obj 761 717 spigot-toggle_jaunenoir;
#X obj 700 717 spigot-toggle_red;
#X obj 669 717 spigot-toggle_vert;
#X obj 721 749 r lo;
#X floatatom 658 756 5 0 0 0 - - -;
#X msg 719 770 1;
#X obj 89 840 - 2;
#X obj 97 869 * 4;
#X obj 156 860 t b f;
#X floatatom 641 87 5 0 0 0 - - -;
#X obj 538 717 spigot-toggle_vert;
#X obj 582 755 * 1;
#X obj 55 758 * 1;
#X obj 641 894 t b f;
#X obj 312 839 - 2;
#X obj 313 800 * 4;
#X obj 385 888 * 4;
#X obj 439 860 t b f;
#X obj 1283 147 r lo;
#X floatatom 590 876 5 0 0 0 - - -;
#X obj 440 800 * 4;
#X obj 440 829 - 2;
#X obj 155 822 - 1;
#X msg 204 714 0.75;
#X msg 384 743 0.75;
#X obj -2 712 spigot-toggle_jaunenoir;
#X obj 358 718 spigot-toggle_jaunenoir;
#X obj 627 719 spigot-toggle_jaunenoir;
#X obj 761 -27 r lo;
#X obj -204 690 spigot-toggle_red;
#X obj -239 690 spigot-toggle_vert;
#X obj -306 667 r trgrA;
#X obj -241 667 r trgrB;
#X obj -241 640 r A;
#X obj -196 640 r B;
#X msg 196 767 4;
#X obj -364 821 spigot-toggle_orange;
#X obj -364 844 spigot-toggle_orange;
#X obj -364 871 spigot-toggle_orange;
#X obj -365 897 spigot-toggle_orange;
#X obj -152 989 tgl 15 0 empty empty empty 17 7 0 10 -262144 -1 -1
1 1;
#X obj -327 932 spigot-toggle_red;
#X obj -327 955 spigot-toggle_red;
#X obj -353 1014 r lo;
#X obj -150 1031 - 1;
#X obj -149 1057 * -1;
#X obj -94 930 tgl 15 0 empty empty empty 17 7 0 10 -262144 -1 -1 -0
1;
#X obj -361 933 spigot-toggle_vert;
#X obj -361 958 spigot-toggle_vert;
#X obj 793 73 - 0.02;
#X obj 107 288 sel;
#X obj 89 503 spigot-toggle_orange;
#X obj 28 464 line;
#X obj 27 438 pack f f;
#X obj 90 535 f;
#X obj 248 306 sel;
#X obj 212 331 spigot-toggle_orange;
#X obj 257 415 line;
#X obj 255 382 pack f f;
#X obj 297 369 f;
#X obj 462 341 sel;
#X obj 435 366 spigot-toggle_orange;
#X obj 451 444 line;
#X obj 454 419 pack f f;
#X obj 514 391 f;
#X msg 255 357 1;
#X msg 424 416 1;
#X msg 21 367 1;
#X obj 26 403 + 1;
#X obj 57 379 - 1;
#X obj 59 405 * -1;
#X obj 162 162 tgl 25 0 empty empty A 8 14 0 16 -1 -262144 -262144
0 1;
#X obj 187 162 tgl 25 1 empty empty A 8 14 0 16 -1 -262144 -262144
0 1;
#X floatatom 251 116 8 0 0 0 - - -;
#X floatatom 340 116 8 0 0 0 - - -;
#X obj 251 188 tgl 25 0 empty empty B 8 14 0 16 -1 -262144 -262144
0 1;
#X obj 277 188 tgl 25 0 empty empty B 8 14 0 16 -1 -262144 -262144
0 1;
#X obj 251 214 tgl 25 0 empty empty ''a 8 14 1 16 -1 -262144 -262144
0 1;
#X obj 277 214 tgl 25 0 empty empty "a 3 14 0 16 -1 -262144 -262144
0 1;
#X obj 251 240 tgl 25 0 empty empty ''b 8 14 1 16 -1 -262144 -262144
0 1;
#X obj 277 240 tgl 25 0 empty empty "b 3 14 0 16 -1 -262144 -262144
0 1;
#X obj 251 162 tgl 25 0 empty empty A 8 14 0 16 -1 -262144 -262144
0 1;
#X obj 277 162 tgl 25 0 empty empty A 8 14 0 16 -1 -262144 -262144
0 1;
#X obj 339 188 tgl 25 0 empty empty B 8 14 0 16 -1 -262144 -262144
0 1;
#X obj 363 188 tgl 25 0 empty empty B 8 14 0 16 -1 -262144 -262144
0 1;
#X obj 339 214 tgl 25 0 empty empty ''a 8 14 1 16 -1 -262144 -262144
0 1;
#X obj 363 214 tgl 25 0 empty empty "a 3 14 0 16 -1 -262144 -262144
0 1;
#X obj 339 240 tgl 25 0 empty empty ''b 8 14 1 16 -1 -262144 -262144
0 1;
#X obj 363 240 tgl 25 0 empty empty "b 3 14 0 16 -1 -262144 -262144
0 1;
#X obj 339 162 tgl 25 0 empty empty A 8 14 0 16 -1 -262144 -262144
0 1;
#X obj 365 162 tgl 25 1 empty empty A 8 14 0 16 -1 -262144 -262144
0 1;
#X obj 162 188 tgl 25 0 empty empty B 8 14 0 16 -1 -262144 -262144
0 1;
#X obj 187 188 tgl 25 0 empty empty B 8 14 0 16 -1 -262144 -262144
0 1;
#X obj 162 214 tgl 25 0 empty empty ''a 8 14 1 16 -1 -262144 -262144
0 1;
#X obj 187 214 tgl 25 0 empty empty "a 3 14 0 16 -1 -262144 -262144
0 1;
#X obj 161 240 tgl 25 0 empty empty ''b 8 14 1 16 -1 -262144 -262144
0 1;
#X obj 187 240 tgl 25 0 empty empty "b 3 14 0 16 -1 -262144 -262144
0 1;
#X floatatom 163 116 8 0 0 0 - - -;
#X floatatom 103 761 5 0 0 0 - - -;
#X obj 659 60 inlet;
#X obj 760 99 spigot-toggle_orange;
#X floatatom 651 182 6 0 0 0 - - -;
#X obj 654 219 * 1.3;
#X obj 773 45 tgl 25 0 empty empty A=V 4 12 0 10 -1 -262144 -262144
1 1;
#X obj -405 863 tgl 15 0 empty empty loc 2 7 0 10 -262144 -1 -1 0 1
;
#X obj -444 772 * -1;
#X obj -443 713 r freestepsouts1;
#X obj -444 745 - 1;
#X obj 1703 155 s pitchNspeedB;
#X obj 1819 155 s speedB;
#X obj 1891 155 s pitchB;
#X obj 105 441 r T$mod1;
#X obj 308 352 r T$mod1;
#X obj 484 364 r T$mod1;
#X obj -646 842 r locB;
#X obj -180 905 r padspeedB;
#X obj -70 905 r padpitchB;
#X obj 808 171 s s&pAb;
#X obj 808 198 s s&pBb;
#X obj 809 228 s speedAb;
#X obj 808 259 s speedBb;
#X obj 807 286 s pitchAb;
#X obj 808 314 s pitchBb;
#X obj 651 161 r V1B;
#X obj 773 19 r A=V2;
#X obj 792 102 s opa1;
#X obj 1405 131 s padspeedB;
#X obj 1406 154 s padpitchB;
#X obj -564 669 notein;
#X floatatom -588 731 5 0 0 0 - - -;
#X floatatom -548 731 5 0 0 0 - - -;
#X obj -340 822 onoff8x;
#X obj -338 872 onoff10x;
#X obj -337 897 onoff11x;
#X obj -340 845 onoff9x;
#X obj 1786 135 s 44/88_B;
#X msg 241 763 2;
#X obj 155 794 * 4;
#X obj 111 905 * 1;
#X obj 76 800 * 4;
#X obj 159 -294 r send_s@pBA;
#X obj 159 -274 s s@pBA;
#X obj 158 -246 r send_s@pBB;
#X obj 159 -224 s s@pBB;
#X obj 158 -195 r send_s@pBa;
#X obj 159 -175 s s@pBa;
#X obj 158 -148 r send_s@pBb;
#X obj 159 -126 s s@pBb;
#X obj 177 -100 r send_mods@pBA;
#X obj 176 -80 s mods@pBA;
#X obj 176 -52 r send_mods@pBB;
#X obj 177 -30 s mods@pBB;
#X obj 176 -1 r send_mods@pBa;
#X obj 178 19 s mods@pBa;
#X obj 177 46 r send_mods@pBb;
#X obj 177 68 s mods@pBb;
#X obj 242 -294 r send_spBA;
#X obj 242 -274 s spBA;
#X obj 240 -246 r send_spBB;
#X obj 242 -224 s spBB;
#X obj 241 -195 r send_spBa;
#X obj 242 -175 s spBa;
#X obj 242 -151 r send_spBb;
#X obj 242 -129 s spBb;
#X obj 277 -104 r send_modspBA;
#X obj 278 -84 s modspBA;
#X obj 277 -57 r send_modspBB;
#X obj 278 -34 s modspBB;
#X obj 277 -5 r send_modspBa;
#X obj 278 14 s modspBa;
#X obj 278 39 r send_modspBb;
#X obj 278 60 s modspBb;
#X obj 323 -295 r send_pBA;
#X obj 323 -226 s pBB;
#X obj 323 -196 r send_pBa;
#X obj 324 -176 s pBa;
#X obj 324 -150 r send_pBb;
#X obj 324 -129 s pBb;
#X obj 361 -96 r send_modpBA;
#X obj 361 -77 s modpBA;
#X obj 359 -52 r send_modpBB;
#X obj 361 -26 s modpBB;
#X obj 359 3 r send_modpBa;
#X obj 361 23 s modpBa;
#X obj 360 49 r send_modpBb;
#X obj 360 71 s modpBb;
#X obj 323 -276 s pBA;
#X obj 321 -249 r send_pBB;
#X obj 1509 -1 r send_$s&pB;
#X obj 1500 153 s $s&pB;
#X obj 1600 -1 r send_$sB;
#X obj 1590 153 s $sB;
#X obj 1660 154 s $pB;
#X obj 1670 -1 r send_$pB;
#X floatatom -670 699 5 0 0 0 - - -;
#X floatatom 1504 66 5 0 0 0 - - -;
#X obj 1504 117 line;
#X obj 1503 91 pack f f;
#X obj 1545 30 r T$mod1;
#X obj 1547 54 * 1.1;
#X floatatom 1614 66 5 0 0 0 - - -;
#X obj 1614 117 line;
#X obj 1613 91 pack f f;
#X floatatom 1714 66 5 0 0 0 - - -;
#X obj 1714 117 line;
#X obj 1713 91 pack f f;
#X obj -694 674 s Aonoff;
#X obj -685 726 s Bonoff;
#X obj 1054 235 r bonkA;
#X obj 1110 236 r bonkB;
#X obj 1055 263 spigot-toggle_red;
#X obj 1081 264 spigot-toggle_red;
#X obj 1054 300 s bonkBB;
#X msg -474 356 record;
#X floatatom -422 -67 3 0 0 0 - - -;
#X obj -494 333 bng 15 250 50 0 empty empty empty 17 7 0 10 -262144
-1 -1;
#X obj -535 365 pack;
#X floatatom -541 334 5 0 0 0 - - -;
#X floatatom -541 308 5 0 0 0 - - -;
#X obj -541 391 cyclone/midiformat;
#X obj -494 310 sel;
#X obj -475 333 bng 15 250 50 0 empty empty empty 17 7 0 10 -262144
-1 -1;
#X floatatom -497 285 5 0 0 0 - - -;
#X obj 101 116 tgl 20 0 empty empty REC 1 10 0 10 -260097 -1 -1 0 1
;
#X obj 122 116 bng 20 250 50 0 empty empty S 6 10 1 11 -1 -260097 -260097
;
#X obj 101 157 tgl 20 0 empty empty LOOP 1 10 1 7 -1 -262144 -262144
1 1;
#X obj 122 136 bng 20 250 50 0 empty empty PLAY 2 10 0 7 -1 -262144
-262144;
#X obj 125 178 tgl 17 0 empty empty >< 2 7 1 13 -1 -262144 -262144
1 1;
#X obj 122 157 tgl 20 0 empty empty MIDI 2 10 1 8 -1 -262144 -262144
0 1;
#X obj -781 -269 notein;
#X obj -788 -236 spigot-toggle_violet;
#X obj -766 -236 spigot-toggle_violet;
#X obj -761 -190 sel;
#X obj -768 -212 == 64;
#X floatatom -805 -211 5 0 0 0 - - -;
#X obj -802 -190 - 0;
#X obj -432 470 bng 15 250 50 0 empty empty empty 17 7 0 10 -262144
-1 -1;
#X obj -431 494 spigot-toggle_violet;
#X obj -571 80 f;
#X floatatom -520 110 5 0 0 0 - - -;
#X floatatom -574 110 5 0 0 0 - - -;
#X floatatom -495 53 5 0 0 0 - - -;
#X floatatom -554 54 5 0 0 0 - - -;
#X obj -541 -71 f;
#X obj -511 -71 + 1;
#X msg -552 34 0.75;
#X msg -492 32 0.25;
#X obj -543 -29 sel;
#X obj -513 81 f;
#X obj -568 -9 bng 15 250 50 0 empty empty empty 17 7 0 10 -262144
-1 -1;
#X obj -542 -49 mod 2;
#X obj -796 -68 f;
#X obj -769 -67 + 1;
#X obj -797 -28 sel;
#X obj -796 -48 mod 2;
#X obj -797 -9 bng 15 250 50 0 empty empty empty 17 7 0 10 -262144
-1 -1;
#X obj -795 -93 spigot-toggle_violet;
#X obj -785 -143 - 1;
#X obj -784 -117 * -1;
#X obj -541 286 * 100;
#X obj -550 497 / 100;
#X obj -625 21 r lo;
#X obj -547 201 pack \$1 \$2;
#X obj -548 224 line;
#X floatatom -490 181 5 0 0 0 - - -;
#X obj -422 -39 - 1, f 4;
#X obj -422 -17 * -1;
#X obj 101 136 tgl 20 0 empty empty STOP 1 10 1 7 -1 -262144 -262144
0 1;
#X obj 93 72 r lo;
#X floatatom -547 247 5 0 0 0 - - -;
#X obj -517 133 spigot-toggle_violet;
#X obj -501 -12 bng 15 250 50 0 empty empty empty 17 7 0 10 -262144
-1 -1;
#X obj -552 451 cyclone/seq seq3.mid;
#X obj -259 -236 spigot-toggle_orange;
#X obj -259 -265 * 100;
#X obj -259 -289 r A;
#X obj -211 -240 spigot-toggle_orange;
#X obj -212 -262 * 100;
#X obj -212 -286 r B;
#X obj 239 888 sel;
#X msg 211 889 0.5;
#X msg 266 889 1;
#X obj 167 889 t b f;
#X obj -139 -226 spigot-toggle_orange;
#X obj -139 -255 * 100;
#X obj -91 -230 spigot-toggle_orange;
#X obj -92 -252 * 100;
#X obj -139 -279 r a';
#X obj -92 -276 r b';
#X floatatom -37 170 7 0 0 0 - - -;
#X obj -550 521 spigot-toggle_violet;
#X obj 144 130 cnv 12 180 31 empty empty empty 0 11 1 13 -1 -262144
0;
#X obj 142 115 cnv 3 3 150 empty empty empty 10 12 0 14 -1 -66577 0
;
#X obj 228 115 cnv 5 6 150 empty empty empty 10 12 0 14 -1 -66577 0
;
#X obj 231 114 cnv 1 1 150 empty empty empty 10 12 0 14 -262144 -66577
0;
#X obj 316 130 cnv 12 86 32 empty empty empty 0 12 1 13 -1 -262144
0;
#X obj 110 232 hsl 30 33 0 400 0 0 empty empty glide 6 25 1 7 -1 -262144
-262144 0 1;
#X obj 107 196 tgl 17 0 empty empty A 4 8 1 11 -1 -1 -262144 0 1;
#X obj 125 196 tgl 17 0 empty empty B 4 8 1 11 -1 -262144 -262144 0
1;
#X obj 125 214 tgl 17 0 empty empty b' 5 8 1 11 -1 -262144 -262144
0 1;
#X obj 107 214 tgl 17 0 empty empty a' 4 8 1 11 -1 -262144 -262144
0 1;
#X obj 316 115 cnv 5 6 150 empty empty empty 10 12 0 14 -1 -66577 0
;
#X obj 319 115 cnv 1 1 150 empty empty empty 10 12 0 14 -262144 -66577
0;
#X obj 107 178 tgl 17 0 empty empty >< 2 7 1 13 -1 -1 -1 0 1;
#X obj 100 177 cnv 10 6 88 empty empty empty 10 12 0 14 -1 -66577 0
;
#X msg 1195 172 0.75;
#X msg 1295 172 0.75;
#X obj 213 162 vsl 15 100 0 1 0 0 empty empty md 2 95 1 8 -16662 -260097
-260097 7425 1;
#X obj 146 162 vsl 15 100 0 1 0 0 empty empty raw 1 95 0 8 -16662 -262144
-262144 7425 1;
#X obj 301 162 vsl 15 100 0 1 0 0 empty empty md 2 95 1 8 -16662 -260097
-260097 7425 1;
#X obj 235 162 vsl 15 100 0 1 0 0 empty empty raw 1 95 0 8 -16662 -262144
-262144 7425 1;
#X obj 389 162 vsl 15 100 -2 2 0 0 empty empty md 2 95 1 8 -16662 -260097
-260097 7425 1;
#X obj 323 162 vsl 15 100 0 1 0 0 empty empty raw 1 95 0 8 -16662 -262144
-262144 0 1;
#X floatatom 1218 138 12 0 0 0 - - -;
#X floatatom 1116 141 5 0 0 0 - - -;
#X floatatom 1029 142 5 0 0 0 - - -;
#X msg 1340 172 0.75;
#X msg 1259 172 0.75;
#X obj 1225 15 * 0.0078741;
#X obj 1118 100 * 0.0078741;
#X obj 1030 101 * 0.0078741;
#X obj 208 117 bng 20 250 50 0 empty empty 0 4 10 0 20 -16662 -260097
-260097;
#X obj 296 117 bng 20 250 50 0 empty empty 0 4 10 0 20 -16662 -260097
-260097;
#X obj 233 117 bng 20 250 50 0 empty empty 0 4 10 0 20 -16662 -262144
-262144;
#X obj 384 117 bng 20 250 50 0 empty empty 0 4 10 0 20 -16662 -260097
-260097;
#X obj 322 117 bng 20 250 50 0 empty empty 0 4 10 0 20 -16662 -262144
-262144;
#X obj 144 118 bng 20 250 50 0 empty empty 0 4 10 0 20 -16662 -262144
-262144;
#X obj 210 143 tgl 20 0 empty empty 88 4 9 1 10 -1 -262144 -262144
1 1;
#X obj 144 145 tgl 20 0 empty empty bck 3 9 1 10 -1 -262144 -262144
0 1;
#X obj 233 144 tgl 20 0 empty empty bck 3 9 1 10 -1 -262144 -262144
0 1;
#X obj 321 144 tgl 20 0 empty empty bck 3 9 1 9 -1 -262144 -262144
0 1;
#X obj 298 144 tgl 20 0 empty empty pad 3 9 1 9 -1 -262144 -262144
1 1;
#X obj 383 144 tgl 20 0 empty empty pad 2 9 1 9 -1 -262144 -262144
0 1;
#X obj 100 101 cnv 5 220 16 empty empty ––––––––ω&♪––––––––ω–––––
0 8 0 15 -1 -262144 0;
#X obj 321 101 cnv 5 82 16 empty empty ––––♪––––
0 8 0 15 -1 -262144 0;
#X obj 1225 -6 ctlin 29;
#X obj 1118 78 ctlin 25;
#X obj 1031 79 ctlin 21;
#X obj 620 921 * 1;
#X msg 1441 172 1;
#X msg 1379 172 0;
#X obj 131 1015 pack \$1 \$2;
#X floatatom 185 989 5 0 0 0 - - -;
#X obj 428 1017 pack \$1 \$2;
#X floatatom 486 991 5 0 0 0 - - -;
#X obj 257 132 hsl 37 30 0 400 0 0 empty empty glide 6 22 1 7 -16662
-262144 -262144 0 1;
#X obj 168 132 hsl 37 30 0 400 0 0 empty empty glide 6 22 1 7 -16662
-262144 -262144 0 1;
#X obj 137 1068 line;
#X obj 431 1059 line;
#X floatatom 633 950 5 0 0 0 - - -;
#X obj 635 1012 pack \$1 \$2;
#X floatatom 692 983 5 0 0 0 - - -;
#X obj 343 132 hsl 37 30 0 400 0 0 empty empty glide 6 22 1 7 -16662
-262144 -262144 0 1;
#X obj 638 1033 line;
#X obj 641 1057 * 100;
#X obj 222 989 t b f;
#X obj 224 1010 * 1;
#X obj -209 548;
#X obj 547 986 r T$mod1;
#X obj 515 1014 t b f;
#X obj 517 1035 * 1;
#X obj 156 335 s Bbutton;
#X obj 257 333 s Bbutton;
#X obj 343 329 s Bbutton;
#X connect 0 0 39 0;
#X connect 1 0 39 0;
#X connect 2 0 39 0;
#X connect 3 0 0 0;
#X connect 3 0 5 0;
#X connect 4 0 6 0;
#X connect 4 0 52 0;
#X connect 5 0 10 0;
#X connect 6 0 10 0;
#X connect 7 0 10 0;
#X connect 8 0 10 0;
#X connect 9 0 50 0;
#X connect 10 0 164 0;
#X connect 11 0 21 0;
#X connect 12 0 21 0;
#X connect 13 0 21 0;
#X connect 14 0 11 0;
#X connect 14 0 16 0;
#X connect 15 0 17 0;
#X connect 15 0 53 0;
#X connect 16 0 20 0;
#X connect 17 0 20 0;
#X connect 18 0 20 0;
#X connect 19 0 20 0;
#X connect 20 0 47 0;
#X connect 21 0 42 0;
#X connect 22 0 38 0;
#X connect 23 0 38 0;
#X connect 24 0 22 0;
#X connect 24 0 26 0;
#X connect 25 0 27 0;
#X connect 25 0 54 0;
#X connect 26 0 31 0;
#X connect 27 0 31 0;
#X connect 28 0 31 0;
#X connect 29 0 31 0;
#X connect 30 0 32 0;
#X connect 31 0 40 0;
#X connect 32 0 31 0;
#X connect 33 0 34 0;
#X connect 34 0 165 0;
#X connect 35 0 34 0;
#X connect 35 1 34 1;
#X connect 37 0 38 0;
#X connect 38 0 46 0;
#X connect 39 0 166 0;
#X connect 40 0 365 0;
#X connect 40 1 365 1;
#X connect 41 0 43 0;
#X connect 42 0 41 0;
#X connect 43 0 370 0;
#X connect 44 0 43 0;
#X connect 44 1 43 1;
#X connect 45 0 366 0;
#X connect 45 0 367 0;
#X connect 45 0 343 0;
#X connect 45 0 333 0;
#X connect 45 0 344 0;
#X connect 45 0 332 0;
#X connect 45 0 354 0;
#X connect 45 0 358 0;
#X connect 46 0 365 0;
#X connect 47 0 48 0;
#X connect 48 0 44 0;
#X connect 49 0 35 0;
#X connect 50 0 10 0;
#X connect 50 0 51 0;
#X connect 51 0 20 0;
#X connect 52 0 39 0;
#X connect 53 0 21 0;
#X connect 54 0 38 0;
#X connect 55 0 127 1;
#X connect 55 0 130 0;
#X connect 56 0 1 0;
#X connect 56 0 7 0;
#X connect 56 0 12 0;
#X connect 56 0 18 0;
#X connect 56 0 23 0;
#X connect 56 0 28 0;
#X connect 57 0 2 0;
#X connect 57 0 8 0;
#X connect 57 0 13 0;
#X connect 57 0 19 0;
#X connect 57 0 37 0;
#X connect 57 0 29 0;
#X connect 58 0 57 1;
#X connect 59 0 56 1;
#X connect 60 0 57 0;
#X connect 61 0 56 0;
#X connect 62 0 47 1;
#X connect 62 0 42 1;
#X connect 62 0 164 1;
#X connect 62 0 166 1;
#X connect 63 0 98 0;
#X connect 64 0 118 0;
#X connect 65 0 74 0;
#X connect 65 0 68 0;
#X connect 66 0 75 0;
#X connect 66 0 69 0;
#X connect 67 0 71 0;
#X connect 67 0 74 1;
#X connect 67 0 75 1;
#X connect 68 0 116 0;
#X connect 69 0 110 0;
#X connect 70 0 67 0;
#X connect 70 0 63 1;
#X connect 70 0 64 1;
#X connect 70 0 65 1;
#X connect 70 0 66 1;
#X connect 71 0 72 0;
#X connect 72 0 73 0;
#X connect 73 0 68 1;
#X connect 73 0 69 1;
#X connect 74 0 108 0;
#X connect 75 0 102 0;
#X connect 76 0 152 0;
#X connect 77 0 78 0;
#X connect 78 0 81 0;
#X connect 78 0 94 0;
#X connect 79 0 124 0;
#X connect 80 0 79 0;
#X connect 81 0 80 1;
#X connect 82 0 83 0;
#X connect 83 0 92 0;
#X connect 83 0 86 0;
#X connect 84 0 100 0;
#X connect 85 0 84 0;
#X connect 86 0 85 1;
#X connect 87 0 88 0;
#X connect 88 0 93 0;
#X connect 88 0 91 0;
#X connect 89 0 101 0;
#X connect 90 0 89 0;
#X connect 91 0 90 1;
#X connect 92 0 85 0;
#X connect 93 0 90 0;
#X connect 94 0 95 0;
#X connect 95 0 80 0;
#X connect 96 0 97 0;
#X connect 97 0 95 1;
#X connect 98 0 2 1;
#X connect 98 0 77 0;
#X connect 98 0 144 0;
#X connect 98 0 168 0;
#X connect 98 0 388 0;
#X connect 99 0 8 1;
#X connect 99 0 176 0;
#X connect 100 0 136 0;
#X connect 100 0 218 0;
#X connect 101 0 137 0;
#X connect 101 0 219 0;
#X connect 102 0 12 1;
#X connect 102 0 82 0;
#X connect 102 0 147 0;
#X connect 102 0 186 0;
#X connect 102 0 389 0;
#X connect 103 0 18 1;
#X connect 103 0 194 0;
#X connect 104 0 11 1;
#X connect 104 0 82 0;
#X connect 104 0 188 0;
#X connect 104 0 237 1;
#X connect 104 0 389 0;
#X connect 105 0 16 1;
#X connect 105 0 196 0;
#X connect 106 0 53 1;
#X connect 106 0 82 0;
#X connect 106 0 190 0;
#X connect 106 0 238 1;
#X connect 106 0 389 0;
#X connect 107 0 17 1;
#X connect 107 0 198 0;
#X connect 108 0 13 1;
#X connect 108 0 82 0;
#X connect 108 0 146 0;
#X connect 108 0 184 0;
#X connect 108 0 389 0;
#X connect 109 0 19 1;
#X connect 109 0 192 0;
#X connect 110 0 23 1;
#X connect 110 0 87 0;
#X connect 110 0 149 0;
#X connect 110 0 200 0;
#X connect 110 0 390 0;
#X connect 111 0 28 1;
#X connect 111 0 208 0;
#X connect 112 0 22 1;
#X connect 112 0 87 0;
#X connect 112 0 202 0;
#X connect 112 0 237 1;
#X connect 112 0 390 0;
#X connect 113 0 26 1;
#X connect 113 0 210 0;
#X connect 114 0 54 1;
#X connect 114 0 204 0;
#X connect 114 0 238 1;
#X connect 114 0 390 0;
#X connect 115 0 27 1;
#X connect 115 0 212 0;
#X connect 116 0 37 1;
#X connect 116 0 87 0;
#X connect 116 0 148 0;
#X connect 116 0 213 0;
#X connect 116 0 390 0;
#X connect 117 0 29 1;
#X connect 117 0 206 0;
#X connect 118 0 1 1;
#X connect 118 0 77 0;
#X connect 118 0 145 0;
#X connect 118 0 170 0;
#X connect 118 0 388 0;
#X connect 119 0 7 1;
#X connect 119 0 178 0;
#X connect 120 0 0 1;
#X connect 120 0 77 0;
#X connect 120 0 172 0;
#X connect 120 0 237 1;
#X connect 120 0 388 0;
#X connect 121 0 5 1;
#X connect 121 0 180 0;
#X connect 122 0 52 1;
#X connect 122 0 77 0;
#X connect 122 0 174 0;
#X connect 122 0 238 1;
#X connect 122 0 388 0;
#X connect 123 0 6 1;
#X connect 123 0 182 0;
#X connect 124 0 135 0;
#X connect 124 0 216 0;
#X connect 125 0 39 0;
#X connect 126 0 36 0;
#X connect 127 0 76 0;
#X connect 128 0 129 0;
#X connect 129 0 127 0;
#X connect 130 0 127 1;
#X connect 131 0 160 0;
#X connect 131 0 159 0;
#X connect 131 0 158 0;
#X connect 131 0 161 0;
#X connect 132 0 63 1;
#X connect 132 0 64 1;
#X connect 132 0 65 1;
#X connect 132 0 66 1;
#X connect 133 0 134 0;
#X connect 134 0 132 0;
#X connect 138 0 81 1;
#X connect 139 0 86 1;
#X connect 140 0 91 1;
#X connect 141 0 131 0;
#X connect 142 0 67 0;
#X connect 143 0 73 0;
#X connect 150 0 128 0;
#X connect 151 0 130 0;
#X connect 155 0 156 0;
#X connect 155 1 157 0;
#X connect 158 0 63 0;
#X connect 159 0 65 0;
#X connect 160 0 66 0;
#X connect 161 0 64 0;
#X connect 163 0 47 1;
#X connect 163 0 42 1;
#X connect 163 0 164 1;
#X connect 163 0 166 1;
#X connect 164 0 49 0;
#X connect 165 0 368 0;
#X connect 166 0 33 0;
#X connect 167 0 98 0;
#X connect 169 0 118 0;
#X connect 171 0 120 0;
#X connect 173 0 122 0;
#X connect 175 0 99 0;
#X connect 177 0 119 0;
#X connect 179 0 121 0;
#X connect 181 0 123 0;
#X connect 183 0 108 0;
#X connect 185 0 102 0;
#X connect 187 0 104 0;
#X connect 189 0 106 0;
#X connect 191 0 109 0;
#X connect 193 0 103 0;
#X connect 195 0 105 0;
#X connect 197 0 107 0;
#X connect 199 0 116 0;
#X connect 201 0 112 0;
#X connect 203 0 114 0;
#X connect 205 0 117 0;
#X connect 207 0 111 0;
#X connect 209 0 113 0;
#X connect 211 0 115 0;
#X connect 214 0 110 0;
#X connect 215 0 222 0;
#X connect 217 0 227 0;
#X connect 220 0 230 0;
#X connect 222 0 224 0;
#X connect 223 0 124 0;
#X connect 224 0 223 0;
#X connect 225 0 226 0;
#X connect 226 0 224 1;
#X connect 226 0 229 1;
#X connect 226 0 232 1;
#X connect 227 0 229 0;
#X connect 228 0 100 0;
#X connect 229 0 228 0;
#X connect 230 0 232 0;
#X connect 231 0 101 0;
#X connect 232 0 231 0;
#X connect 235 0 237 0;
#X connect 236 0 238 0;
#X connect 237 0 239 0;
#X connect 238 0 239 0;
#X connect 240 0 299 0;
#X connect 241 0 269 0;
#X connect 241 0 292 0;
#X connect 241 0 267 0;
#X connect 242 0 299 0;
#X connect 243 0 246 0;
#X connect 244 0 246 0;
#X connect 244 0 243 0;
#X connect 245 0 243 1;
#X connect 245 0 244 0;
#X connect 246 0 299 0;
#X connect 247 0 242 0;
#X connect 247 1 248 0;
#X connect 248 0 240 0;
#X connect 249 0 247 0;
#X connect 250 0 249 0;
#X connect 251 0 270 0;
#X connect 252 0 264 1;
#X connect 253 0 299 0;
#X connect 254 0 297 1;
#X connect 255 0 258 1;
#X connect 255 0 257 1;
#X connect 256 0 257 0;
#X connect 256 1 258 0;
#X connect 257 0 261 0;
#X connect 258 0 260 0;
#X connect 260 0 259 0;
#X connect 261 0 262 0;
#X connect 263 0 264 0;
#X connect 264 0 253 0;
#X connect 265 0 267 0;
#X connect 266 0 297 0;
#X connect 267 0 289 0;
#X connect 268 0 275 1;
#X connect 269 0 265 1;
#X connect 270 0 271 0;
#X connect 270 0 277 0;
#X connect 271 0 270 1;
#X connect 272 0 269 0;
#X connect 273 0 268 0;
#X connect 274 0 276 0;
#X connect 274 1 298 0;
#X connect 275 0 266 0;
#X connect 276 0 265 0;
#X connect 277 0 274 0;
#X connect 278 0 279 0;
#X connect 278 0 281 0;
#X connect 279 0 278 1;
#X connect 280 0 282 0;
#X connect 281 0 280 0;
#X connect 282 0 270 0;
#X connect 283 0 278 0;
#X connect 284 0 285 0;
#X connect 285 0 283 1;
#X connect 286 0 245 0;
#X connect 287 0 317 0;
#X connect 288 0 273 0;
#X connect 288 0 272 0;
#X connect 289 0 290 0;
#X connect 290 0 296 0;
#X connect 291 0 289 1;
#X connect 292 0 293 0;
#X connect 293 0 268 0;
#X connect 294 0 317 1;
#X connect 295 0 254 0;
#X connect 295 0 252 0;
#X connect 296 0 286 0;
#X connect 296 0 39 0;
#X connect 297 0 289 0;
#X connect 298 0 275 0;
#X connect 299 0 287 0;
#X connect 299 1 263 0;
#X connect 300 0 241 0;
#X connect 301 0 300 0;
#X connect 302 0 301 0;
#X connect 303 0 241 0;
#X connect 304 0 303 0;
#X connect 305 0 304 0;
#X connect 306 0 307 0;
#X connect 306 1 308 0;
#X connect 307 0 309 0;
#X connect 308 0 309 0;
#X connect 309 0 165 0;
#X connect 309 1 165 1;
#X connect 310 0 241 0;
#X connect 311 0 310 0;
#X connect 312 0 241 0;
#X connect 313 0 312 0;
#X connect 314 0 311 0;
#X connect 315 0 313 0;
#X connect 316 0 289 0;
#X connect 317 0 316 0;
#X connect 323 0 291 0;
#X connect 324 0 300 1;
#X connect 325 0 303 1;
#X connect 326 0 312 1;
#X connect 327 0 310 1;
#X connect 332 0 335 0;
#X connect 333 0 337 0;
#X connect 334 0 164 0;
#X connect 335 0 166 0;
#X connect 335 0 316 0;
#X connect 336 0 20 0;
#X connect 337 0 21 0;
#X connect 338 0 31 0;
#X connect 339 0 38 0;
#X connect 340 0 339 0;
#X connect 341 0 337 0;
#X connect 342 0 335 0;
#X connect 343 0 336 0;
#X connect 344 0 334 0;
#X connect 345 0 340 0;
#X connect 346 0 341 0;
#X connect 347 0 342 0;
#X connect 348 0 344 0;
#X connect 349 0 343 0;
#X connect 350 0 333 0;
#X connect 351 0 366 0;
#X connect 352 0 367 0;
#X connect 353 0 332 0;
#X connect 354 0 306 0;
#X connect 354 0 162 0;
#X connect 354 0 94 0;
#X connect 354 0 96 0;
#X connect 355 0 78 1;
#X connect 356 0 83 1;
#X connect 357 0 88 1;
#X connect 358 0 153 0;
#X connect 359 0 154 0;
#X connect 362 0 345 0;
#X connect 363 0 346 0;
#X connect 364 0 347 0;
#X connect 365 0 376 0;
#X connect 366 0 338 0;
#X connect 367 0 339 0;
#X connect 368 0 374 0;
#X connect 369 0 383 0;
#X connect 370 0 375 0;
#X connect 371 0 370 1;
#X connect 372 0 371 0;
#X connect 373 0 369 0;
#X connect 374 0 124 0;
#X connect 375 0 100 0;
#X connect 376 0 377 0;
#X connect 377 0 380 0;
#X connect 378 0 377 1;
#X connect 379 0 378 0;
#X connect 380 0 381 0;
#X connect 381 0 101 0;
#X connect 382 0 383 0;
#X connect 382 1 383 1;
#X connect 383 0 368 1;
#X connect 385 0 382 0;
#X connect 386 0 387 0;
#X connect 386 1 387 1;
#X coords 0 -1 1 1 304 166 1 100 100;
