#N canvas 0 23 1280 867 10;
#X obj 216 75 sel 0 1 2;
#X obj 221 147 sel 0 1 2;
#X floatatom 963 27 5 0 0 0 receive_progr_progr_B progr_progr_B -;
#X obj 957 79 f;
#X obj 924 58 bng 15 250 50 0 empty empty write -35 7 0 10 -262144
-1 -1;
#X obj 940 168 f;
#X obj 929 146 bng 15 250 50 0 empty empty send -30 7 0 10 -262144
-1 -1;
#X floatatom 958 107 5 0 0 0 - - -;
#X floatatom 942 194 5 0 0 0 send_progr_progr_B - send_progr_progr_B
;
#X floatatom 1109 27 5 0 0 0 receive_T#stepB progrstepB -;
#X obj 1103 79 f;
#X obj 1080 58 bng 15 250 50 0 empty empty write -35 7 0 10 -262144
-1 -1;
#X obj 1086 168 f;
#X obj 1085 146 bng 15 250 50 0 empty empty send -30 7 0 10 -262144
-1 -1;
#X floatatom 1104 107 5 0 0 0 - - -;
#X floatatom 1088 194 5 0 0 0 send_progstepB - send_progrstepB;
#X floatatom 1253 27 5 0 0 0 receive_prog1B prog1B -;
#X obj 1247 79 f;
#X obj 1224 58 bng 15 250 50 0 empty empty write -35 7 0 10 -262144
-1 -1;
#X obj 1230 168 f;
#X obj 1229 146 bng 15 250 50 0 empty empty send -30 7 0 10 -262144
-1 -1;
#X floatatom 1248 107 5 0 0 0 - - -;
#X floatatom 1232 194 5 0 0 0 send_prog1B - send_prog1B;
#X floatatom 1393 27 5 0 0 0 receive_prog2B prog2B -;
#X obj 1387 79 f;
#X obj 1364 58 bng 15 250 50 0 empty empty write -35 7 0 10 -262144
-1 -1;
#X obj 1370 168 f;
#X obj 1369 146 bng 15 250 50 0 empty empty send -30 7 0 10 -262144
-1 -1;
#X floatatom 1388 107 5 0 0 0 - - -;
#X floatatom 1372 194 5 0 0 0 send_prog2B - send_prog2B;
#X floatatom 1533 27 5 0 0 0 receive_prog3B prog3B -;
#X obj 1527 79 f;
#X obj 1504 58 bng 15 250 50 0 empty empty write -35 7 0 10 -262144
-1 -1;
#X obj 1510 168 f;
#X obj 1509 146 bng 15 250 50 0 empty empty send -30 7 0 10 -262144
-1 -1;
#X floatatom 1528 107 5 0 0 0 - - -;
#X floatatom 1512 194 5 0 0 0 send_prog3B - send_prog3B;
#X floatatom 1913 27 5 0 0 0 receive_prog6B prog6B -;
#X obj 1907 79 f;
#X obj 1884 58 bng 15 250 50 0 empty empty write -35 7 0 10 -262144
-1 -1;
#X obj 1890 168 f;
#X obj 1889 146 bng 15 250 50 0 empty empty send -30 7 0 10 -262144
-1 -1;
#X floatatom 1908 107 5 0 0 0 - - -;
#X floatatom 1892 194 5 0 0 0 send_prog6B - send_prog6B;
#X floatatom 2043 27 5 0 0 0 receive_prog7B prog7B -;
#X obj 2037 79 f;
#X obj 2014 58 bng 15 250 50 0 empty empty write -35 7 0 10 -262144
-1 -1;
#X obj 2020 168 f;
#X obj 2019 146 bng 15 250 50 0 empty empty send -30 7 0 10 -262144
-1 -1;
#X floatatom 2038 107 5 0 0 0 - - -;
#X floatatom 2022 194 5 0 0 0 send_prog7B - send_prog7B;
#X floatatom 2183 27 5 0 0 0 receive_prog8B prog8B -;
#X obj 2177 79 f;
#X obj 2154 58 bng 15 250 50 0 empty empty write -35 7 0 10 -262144
-1 -1;
#X obj 2160 168 f;
#X obj 2159 146 bng 15 250 50 0 empty empty send -30 7 0 10 -262144
-1 -1;
#X floatatom 2178 107 5 0 0 0 - - -;
#X floatatom 2162 194 5 0 0 0 send_prog8B - send_prog8B;
#X floatatom 2324 27 5 0 0 0 receive_prog9B prog9B -;
#X obj 2318 79 f;
#X obj 2295 58 bng 15 250 50 0 empty empty write -35 7 0 10 -262144
-1 -1;
#X obj 2301 168 f;
#X obj 2300 146 bng 15 250 50 0 empty empty send -30 7 0 10 -262144
-1 -1;
#X floatatom 2319 107 5 0 0 0 - - -;
#X floatatom 2303 194 5 0 0 0 send_prog9B - send_prog9B;
#X floatatom 2464 27 5 0 0 0 receive_prog10B prog10B -;
#X obj 2458 79 f;
#X obj 2435 58 bng 15 250 50 0 empty empty write -35 7 0 10 -262144
-1 -1;
#X obj 2441 168 f;
#X obj 2440 146 bng 15 250 50 0 empty empty send -30 7 0 10 -262144
-1 -1;
#X floatatom 2459 107 5 0 0 0 - - -;
#X floatatom 2443 194 5 0 0 0 send_prog10B - send_prog10B;
#X floatatom 2594 27 5 0 0 0 receive_prog11B prog11B -;
#X obj 2588 79 f;
#X obj 2565 58 bng 15 250 50 0 empty empty write -35 7 0 10 -262144
-1 -1;
#X obj 2571 168 f;
#X obj 2570 146 bng 15 250 50 0 empty empty send -30 7 0 10 -262144
-1 -1;
#X floatatom 2589 107 5 0 0 0 - - -;
#X floatatom 2573 194 5 0 0 0 send_prog11B - send_prog11B;
#X floatatom 2734 27 5 0 0 0 receive_prog12B prog12B -;
#X obj 2728 79 f;
#X obj 2705 58 bng 15 250 50 0 empty empty write -35 7 0 10 -262144
-1 -1;
#X obj 2711 168 f;
#X obj 2710 146 bng 15 250 50 0 empty empty send -30 7 0 10 -262144
-1 -1;
#X floatatom 2729 107 5 0 0 0 - - -;
#X floatatom 2713 194 5 0 0 0 send_prog12B - send_prog12B;
#X floatatom 2874 27 5 0 0 0 receive_prog13B prog13B -;
#X obj 2868 79 f;
#X obj 2845 58 bng 15 250 50 0 empty empty write -35 7 0 10 -262144
-1 -1;
#X obj 2851 168 f;
#X obj 2850 146 bng 15 250 50 0 empty empty send -30 7 0 10 -262144
-1 -1;
#X floatatom 2869 107 5 0 0 0 - - -;
#X floatatom 2853 194 5 0 0 0 send_prog13B - send_prog13B;
#X floatatom 3014 27 5 0 0 0 receive_prog14B prog14B -;
#X obj 3008 79 f;
#X obj 2985 58 bng 15 250 50 0 empty empty write -35 7 0 10 -262144
-1 -1;
#X obj 2991 168 f;
#X obj 2990 146 bng 15 250 50 0 empty empty send -30 7 0 10 -262144
-1 -1;
#X floatatom 3009 107 5 0 0 0 - - -;
#X floatatom 2993 194 5 0 0 0 send_prog14B - send_prog14B;
#X floatatom 3144 27 5 0 0 0 receive_prog15B prog15B -;
#X obj 3138 79 f;
#X obj 3115 58 bng 15 250 50 0 empty empty write -35 7 0 10 -262144
-1 -1;
#X obj 3121 168 f;
#X obj 3120 146 bng 15 250 50 0 empty empty send -30 7 0 10 -262144
-1 -1;
#X floatatom 3139 107 5 0 0 0 - - -;
#X floatatom 3123 194 5 0 0 0 send_prog15B - send_prog15B;
#X floatatom 3284 27 5 0 0 0 receive_prog16B prog16B -;
#X obj 3278 79 f;
#X obj 3255 58 bng 15 250 50 0 empty empty write -35 7 0 10 -262144
-1 -1;
#X obj 3261 168 f;
#X obj 3260 146 bng 15 250 50 0 empty empty send -30 7 0 10 -262144
-1 -1;
#X floatatom 3279 107 5 0 0 0 - - -;
#X floatatom 3263 194 5 0 0 0 send_prog16B - send_prog16B;
#X floatatom 373 27 5 0 0 0 receive_progrXTB progrXTB -;
#X obj 367 79 f;
#X obj 344 58 bng 15 250 50 0 empty empty write -35 7 0 10 -262144
-1 -1;
#X obj 350 148 f;
#X obj 349 126 bng 15 250 50 0 empty empty send -30 7 0 10 -262144
-1 -1;
#X floatatom 368 107 5 0 0 0 - - -;
#X floatatom 352 174 5 0 0 0 send_progrXTB - send_progrXTB;
#X floatatom 563 27 5 0 0 0 receive_Trgr-progrB Trgr-progrB -;
#X obj 557 79 f;
#X obj 534 58 bng 15 250 50 0 empty empty write -35 7 0 10 -262144
-1 -1;
#X obj 540 168 f;
#X obj 539 146 bng 15 250 50 0 empty empty send -30 7 0 10 -262144
-1 -1;
#X floatatom 558 107 5 0 0 0 - - -;
#X floatatom 542 194 5 0 0 0 send_Trgr-progrB - send_Trgr-progrB;
#X floatatom 763 27 5 0 0 0 receive_send_progr-tB progr-tB -;
#X obj 757 79 f;
#X obj 734 58 bng 15 250 50 0 empty empty write -35 7 0 10 -262144
-1 -1;
#X obj 740 168 f;
#X obj 739 146 bng 15 250 50 0 empty empty send -30 7 0 10 -262144
-1 -1;
#X floatatom 758 107 5 0 0 0 - - -;
#X floatatom 742 194 5 0 0 0 send_progr-tB - send_progr-tB;
#X obj 108 62 inlet;
#X obj 158 62 inlet;
#X floatatom 1652 27 5 0 0 0 receive_prog4B prog4B -;
#X obj 1646 79 f;
#X obj 1623 58 bng 15 250 50 0 empty empty write -35 7 0 10 -262144
-1 -1;
#X obj 1629 168 f;
#X obj 1628 146 bng 15 250 50 0 empty empty send -30 7 0 10 -262144
-1 -1;
#X floatatom 1647 107 5 0 0 0 - - -;
#X floatatom 1631 194 5 0 0 0 send_prog4B - send_prog4B;
#X floatatom 1792 27 5 0 0 0 receive_prog5B prog5B -;
#X obj 1786 79 f;
#X obj 1763 58 bng 15 250 50 0 empty empty write -35 7 0 10 -262144
-1 -1;
#X obj 1769 168 f;
#X obj 1768 146 bng 15 250 50 0 empty empty send -30 7 0 10 -262144
-1 -1;
#X floatatom 1787 107 5 0 0 0 - - -;
#X floatatom 1771 194 5 0 0 0 send_prog5B - send_prog5B;
#X floatatom 963 267 5 0 0 0 receive_progr_progr_B progr_progr_B -
;
#X obj 957 319 f;
#X obj 924 298 bng 15 250 50 0 empty empty write -35 7 0 10 -262144
-1 -1;
#X obj 940 388 f;
#X obj 929 366 bng 15 250 50 0 empty empty send -30 7 0 10 -262144
-1 -1;
#X floatatom 958 347 5 0 0 0 - - -;
#X floatatom 942 414 5 0 0 0 send_progr_progr_B - send_progr_progr_B
;
#X floatatom 1109 267 5 0 0 0 receive_T#stepB progrstepB -;
#X obj 1103 319 f;
#X obj 1080 298 bng 15 250 50 0 empty empty write -35 7 0 10 -262144
-1 -1;
#X obj 1086 388 f;
#X obj 1085 366 bng 15 250 50 0 empty empty send -30 7 0 10 -262144
-1 -1;
#X floatatom 1104 347 5 0 0 0 - - -;
#X floatatom 1088 414 5 0 0 0 send_progstepB - send_progrstepB;
#X floatatom 1253 267 5 0 0 0 receive_prog1B prog1B -;
#X obj 1247 319 f;
#X obj 1224 298 bng 15 250 50 0 empty empty write -35 7 0 10 -262144
-1 -1;
#X obj 1230 388 f;
#X obj 1229 366 bng 15 250 50 0 empty empty send -30 7 0 10 -262144
-1 -1;
#X floatatom 1248 347 5 0 0 0 - - -;
#X floatatom 1232 414 5 0 0 0 send_prog1B - send_prog1B;
#X floatatom 1393 267 5 0 0 0 receive_prog2B prog2B -;
#X obj 1387 319 f;
#X obj 1364 298 bng 15 250 50 0 empty empty write -35 7 0 10 -262144
-1 -1;
#X obj 1370 388 f;
#X obj 1369 366 bng 15 250 50 0 empty empty send -30 7 0 10 -262144
-1 -1;
#X floatatom 1388 347 5 0 0 0 - - -;
#X floatatom 1372 414 5 0 0 0 send_prog2B - send_prog2B;
#X floatatom 1533 267 5 0 0 0 receive_prog3B prog3B -;
#X obj 1527 319 f;
#X obj 1504 298 bng 15 250 50 0 empty empty write -35 7 0 10 -262144
-1 -1;
#X obj 1510 388 f;
#X obj 1509 366 bng 15 250 50 0 empty empty send -30 7 0 10 -262144
-1 -1;
#X floatatom 1528 347 5 0 0 0 - - -;
#X floatatom 1512 414 5 0 0 0 send_prog3B - send_prog3B;
#X floatatom 1913 267 5 0 0 0 receive_prog6B prog6B -;
#X obj 1907 319 f;
#X obj 1884 298 bng 15 250 50 0 empty empty write -35 7 0 10 -262144
-1 -1;
#X obj 1890 388 f;
#X obj 1889 366 bng 15 250 50 0 empty empty send -30 7 0 10 -262144
-1 -1;
#X floatatom 1908 347 5 0 0 0 - - -;
#X floatatom 1892 414 5 0 0 0 send_prog6B - send_prog6B;
#X floatatom 2043 267 5 0 0 0 receive_prog7B prog7B -;
#X obj 2037 319 f;
#X obj 2014 298 bng 15 250 50 0 empty empty write -35 7 0 10 -262144
-1 -1;
#X obj 2020 388 f;
#X obj 2019 366 bng 15 250 50 0 empty empty send -30 7 0 10 -262144
-1 -1;
#X floatatom 2038 347 5 0 0 0 - - -;
#X floatatom 2022 414 5 0 0 0 send_prog7B - send_prog7B;
#X floatatom 2183 267 5 0 0 0 receive_prog8B prog8B -;
#X obj 2177 319 f;
#X obj 2154 298 bng 15 250 50 0 empty empty write -35 7 0 10 -262144
-1 -1;
#X obj 2160 388 f;
#X obj 2159 366 bng 15 250 50 0 empty empty send -30 7 0 10 -262144
-1 -1;
#X floatatom 2178 347 5 0 0 0 - - -;
#X floatatom 2162 414 5 0 0 0 send_prog8B - send_prog8B;
#X floatatom 2324 267 5 0 0 0 receive_prog9B prog9B -;
#X obj 2318 319 f;
#X obj 2295 298 bng 15 250 50 0 empty empty write -35 7 0 10 -262144
-1 -1;
#X obj 2301 388 f;
#X obj 2300 366 bng 15 250 50 0 empty empty send -30 7 0 10 -262144
-1 -1;
#X floatatom 2319 347 5 0 0 0 - - -;
#X floatatom 2303 414 5 0 0 0 send_prog9B - send_prog9B;
#X floatatom 2464 267 5 0 0 0 receive_prog10B prog10B -;
#X obj 2458 319 f;
#X obj 2435 298 bng 15 250 50 0 empty empty write -35 7 0 10 -262144
-1 -1;
#X obj 2441 388 f;
#X obj 2440 366 bng 15 250 50 0 empty empty send -30 7 0 10 -262144
-1 -1;
#X floatatom 2459 347 5 0 0 0 - - -;
#X floatatom 2443 414 5 0 0 0 send_prog10B - send_prog10B;
#X floatatom 2594 267 5 0 0 0 receive_prog11B prog11B -;
#X obj 2588 319 f;
#X obj 2565 298 bng 15 250 50 0 empty empty write -35 7 0 10 -262144
-1 -1;
#X obj 2571 388 f;
#X obj 2570 366 bng 15 250 50 0 empty empty send -30 7 0 10 -262144
-1 -1;
#X floatatom 2589 347 5 0 0 0 - - -;
#X floatatom 2573 414 5 0 0 0 send_prog11B - send_prog11B;
#X floatatom 2734 267 5 0 0 0 receive_prog12B prog12B -;
#X obj 2728 319 f;
#X obj 2705 298 bng 15 250 50 0 empty empty write -35 7 0 10 -262144
-1 -1;
#X obj 2711 388 f;
#X obj 2710 366 bng 15 250 50 0 empty empty send -30 7 0 10 -262144
-1 -1;
#X floatatom 2729 347 5 0 0 0 - - -;
#X floatatom 2713 414 5 0 0 0 send_prog12B - send_prog12B;
#X floatatom 2874 267 5 0 0 0 receive_prog13B prog13B -;
#X obj 2868 319 f;
#X obj 2845 298 bng 15 250 50 0 empty empty write -35 7 0 10 -262144
-1 -1;
#X obj 2851 388 f;
#X obj 2850 366 bng 15 250 50 0 empty empty send -30 7 0 10 -262144
-1 -1;
#X floatatom 2869 347 5 0 0 0 - - -;
#X floatatom 2853 414 5 0 0 0 send_prog13B - send_prog13B;
#X floatatom 3014 267 5 0 0 0 receive_prog14B prog14B -;
#X obj 3008 319 f;
#X obj 2985 298 bng 15 250 50 0 empty empty write -35 7 0 10 -262144
-1 -1;
#X obj 2991 388 f;
#X obj 2990 366 bng 15 250 50 0 empty empty send -30 7 0 10 -262144
-1 -1;
#X floatatom 3009 347 5 0 0 0 - - -;
#X floatatom 2993 414 5 0 0 0 send_prog14B - send_prog14B;
#X floatatom 3144 267 5 0 0 0 receive_prog15B prog15B -;
#X obj 3138 319 f;
#X obj 3115 298 bng 15 250 50 0 empty empty write -35 7 0 10 -262144
-1 -1;
#X obj 3121 388 f;
#X obj 3120 366 bng 15 250 50 0 empty empty send -30 7 0 10 -262144
-1 -1;
#X floatatom 3139 347 5 0 0 0 - - -;
#X floatatom 3123 414 5 0 0 0 send_prog15B - send_prog15B;
#X floatatom 3284 267 5 0 0 0 receive_prog16B prog16B -;
#X obj 3278 319 f;
#X obj 3255 298 bng 15 250 50 0 empty empty write -35 7 0 10 -262144
-1 -1;
#X obj 3261 388 f;
#X obj 3260 366 bng 15 250 50 0 empty empty send -30 7 0 10 -262144
-1 -1;
#X floatatom 3279 347 5 0 0 0 - - -;
#X floatatom 3263 414 5 0 0 0 send_prog16B - send_prog16B;
#X floatatom 373 267 5 0 0 0 receive_progrXTB progrXTB -;
#X obj 367 319 f;
#X obj 344 298 bng 15 250 50 0 empty empty write -35 7 0 10 -262144
-1 -1;
#X obj 350 388 f;
#X obj 349 366 bng 15 250 50 0 empty empty send -30 7 0 10 -262144
-1 -1;
#X floatatom 368 347 5 0 0 0 - - -;
#X floatatom 352 414 5 0 0 0 send_progrXTB - send_progrXTB;
#X floatatom 563 267 5 0 0 0 receive_Trgr-progrB Trgr-progrB -;
#X obj 557 319 f;
#X obj 534 298 bng 15 250 50 0 empty empty write -35 7 0 10 -262144
-1 -1;
#X obj 540 388 f;
#X obj 539 366 bng 15 250 50 0 empty empty send -30 7 0 10 -262144
-1 -1;
#X floatatom 558 347 5 0 0 0 - - -;
#X floatatom 542 414 5 0 0 0 send_Trgr-progrB - send_Trgr-progrB;
#X floatatom 763 267 5 0 0 0 receive_send_progr-tB progr-tB -;
#X obj 757 319 f;
#X obj 734 298 bng 15 250 50 0 empty empty write -35 7 0 10 -262144
-1 -1;
#X obj 740 388 f;
#X obj 739 366 bng 15 250 50 0 empty empty send -30 7 0 10 -262144
-1 -1;
#X floatatom 758 347 5 0 0 0 - - -;
#X floatatom 742 414 5 0 0 0 send_progr-tB - send_progr-tB;
#X floatatom 1652 267 5 0 0 0 receive_prog4B prog4B -;
#X obj 1646 319 f;
#X obj 1623 298 bng 15 250 50 0 empty empty write -35 7 0 10 -262144
-1 -1;
#X obj 1629 388 f;
#X obj 1628 366 bng 15 250 50 0 empty empty send -30 7 0 10 -262144
-1 -1;
#X floatatom 1647 347 5 0 0 0 - - -;
#X floatatom 1631 414 5 0 0 0 send_prog4B - send_prog4B;
#X floatatom 1792 267 5 0 0 0 receive_prog5B prog5B -;
#X obj 1786 319 f;
#X obj 1763 298 bng 15 250 50 0 empty empty write -35 7 0 10 -262144
-1 -1;
#X obj 1769 388 f;
#X obj 1768 366 bng 15 250 50 0 empty empty send -30 7 0 10 -262144
-1 -1;
#X floatatom 1787 347 5 0 0 0 - - -;
#X floatatom 1771 414 5 0 0 0 send_prog5B - send_prog5B;
#X floatatom 963 457 5 0 0 0 receive_progr_progr_B progr_progr_B -
;
#X obj 957 509 f;
#X obj 924 488 bng 15 250 50 0 empty empty write -35 7 0 10 -262144
-1 -1;
#X obj 940 578 f;
#X obj 929 556 bng 15 250 50 0 empty empty send -30 7 0 10 -262144
-1 -1;
#X floatatom 958 537 5 0 0 0 - - -;
#X floatatom 942 604 5 0 0 0 send_progr_progr_B - send_progr_progr_B
;
#X floatatom 1109 457 5 0 0 0 receive_T#stepB progrstepB -;
#X obj 1103 509 f;
#X obj 1080 488 bng 15 250 50 0 empty empty write -35 7 0 10 -262144
-1 -1;
#X obj 1086 578 f;
#X obj 1085 556 bng 15 250 50 0 empty empty send -30 7 0 10 -262144
-1 -1;
#X floatatom 1104 537 5 0 0 0 - - -;
#X floatatom 1088 604 5 0 0 0 send_progstepB - send_progrstepB;
#X floatatom 1253 457 5 0 0 0 receive_prog1B prog1B -;
#X obj 1247 509 f;
#X obj 1224 488 bng 15 250 50 0 empty empty write -35 7 0 10 -262144
-1 -1;
#X obj 1230 578 f;
#X obj 1229 556 bng 15 250 50 0 empty empty send -30 7 0 10 -262144
-1 -1;
#X floatatom 1248 537 5 0 0 0 - - -;
#X floatatom 1232 604 5 0 0 0 send_prog1B - send_prog1B;
#X floatatom 1393 457 5 0 0 0 receive_prog2B prog2B -;
#X obj 1387 509 f;
#X obj 1364 488 bng 15 250 50 0 empty empty write -35 7 0 10 -262144
-1 -1;
#X obj 1370 578 f;
#X obj 1369 556 bng 15 250 50 0 empty empty send -30 7 0 10 -262144
-1 -1;
#X floatatom 1388 537 5 0 0 0 - - -;
#X floatatom 1372 604 5 0 0 0 send_prog2B - send_prog2B;
#X floatatom 1533 457 5 0 0 0 receive_prog3B prog3B -;
#X obj 1527 509 f;
#X obj 1504 488 bng 15 250 50 0 empty empty write -35 7 0 10 -262144
-1 -1;
#X obj 1510 578 f;
#X obj 1509 556 bng 15 250 50 0 empty empty send -30 7 0 10 -262144
-1 -1;
#X floatatom 1528 537 5 0 0 0 - - -;
#X floatatom 1512 604 5 0 0 0 send_prog3B - send_prog3B;
#X floatatom 1913 457 5 0 0 0 receive_prog6B prog6B -;
#X obj 1907 509 f;
#X obj 1884 488 bng 15 250 50 0 empty empty write -35 7 0 10 -262144
-1 -1;
#X obj 1890 578 f;
#X obj 1889 556 bng 15 250 50 0 empty empty send -30 7 0 10 -262144
-1 -1;
#X floatatom 1908 537 5 0 0 0 - - -;
#X floatatom 1892 604 5 0 0 0 send_prog6B - send_prog6B;
#X floatatom 2043 457 5 0 0 0 receive_prog7B prog7B -;
#X obj 2037 509 f;
#X obj 2014 488 bng 15 250 50 0 empty empty write -35 7 0 10 -262144
-1 -1;
#X obj 2020 578 f;
#X obj 2019 556 bng 15 250 50 0 empty empty send -30 7 0 10 -262144
-1 -1;
#X floatatom 2038 537 5 0 0 0 - - -;
#X floatatom 2022 604 5 0 0 0 send_prog7B - send_prog7B;
#X floatatom 2183 457 5 0 0 0 receive_prog8B prog8B -;
#X obj 2177 509 f;
#X obj 2154 488 bng 15 250 50 0 empty empty write -35 7 0 10 -262144
-1 -1;
#X obj 2160 578 f;
#X obj 2159 556 bng 15 250 50 0 empty empty send -30 7 0 10 -262144
-1 -1;
#X floatatom 2178 537 5 0 0 0 - - -;
#X floatatom 2162 604 5 0 0 0 send_prog8B - send_prog8B;
#X floatatom 2324 457 5 0 0 0 receive_prog9B prog9B -;
#X obj 2318 509 f;
#X obj 2295 488 bng 15 250 50 0 empty empty write -35 7 0 10 -262144
-1 -1;
#X obj 2301 578 f;
#X obj 2300 556 bng 15 250 50 0 empty empty send -30 7 0 10 -262144
-1 -1;
#X floatatom 2319 537 5 0 0 0 - - -;
#X floatatom 2303 604 5 0 0 0 send_prog9B - send_prog9B;
#X floatatom 2464 457 5 0 0 0 receive_prog10B prog10B -;
#X obj 2458 509 f;
#X obj 2435 488 bng 15 250 50 0 empty empty write -35 7 0 10 -262144
-1 -1;
#X obj 2441 578 f;
#X obj 2440 556 bng 15 250 50 0 empty empty send -30 7 0 10 -262144
-1 -1;
#X floatatom 2459 537 5 0 0 0 - - -;
#X floatatom 2443 604 5 0 0 0 send_prog10B - send_prog10B;
#X floatatom 2594 457 5 0 0 0 receive_prog11B prog11B -;
#X obj 2588 509 f;
#X obj 2565 488 bng 15 250 50 0 empty empty write -35 7 0 10 -262144
-1 -1;
#X obj 2571 578 f;
#X obj 2570 556 bng 15 250 50 0 empty empty send -30 7 0 10 -262144
-1 -1;
#X floatatom 2589 537 5 0 0 0 - - -;
#X floatatom 2573 604 5 0 0 0 send_prog11B - send_prog11B;
#X floatatom 2734 457 5 0 0 0 receive_prog12B prog12B -;
#X obj 2728 509 f;
#X obj 2705 488 bng 15 250 50 0 empty empty write -35 7 0 10 -262144
-1 -1;
#X obj 2711 578 f;
#X obj 2710 556 bng 15 250 50 0 empty empty send -30 7 0 10 -262144
-1 -1;
#X floatatom 2729 537 5 0 0 0 - - -;
#X floatatom 2713 604 5 0 0 0 send_prog12B - send_prog12B;
#X floatatom 2874 457 5 0 0 0 receive_prog13B prog13B -;
#X obj 2868 509 f;
#X obj 2845 488 bng 15 250 50 0 empty empty write -35 7 0 10 -262144
-1 -1;
#X obj 2851 578 f;
#X obj 2850 556 bng 15 250 50 0 empty empty send -30 7 0 10 -262144
-1 -1;
#X floatatom 2869 537 5 0 0 0 - - -;
#X floatatom 2853 604 5 0 0 0 send_prog13B - send_prog13B;
#X floatatom 3014 457 5 0 0 0 receive_prog14B prog14B -;
#X obj 3008 509 f;
#X obj 2985 488 bng 15 250 50 0 empty empty write -35 7 0 10 -262144
-1 -1;
#X obj 2991 578 f;
#X obj 2990 556 bng 15 250 50 0 empty empty send -30 7 0 10 -262144
-1 -1;
#X floatatom 3009 537 5 0 0 0 - - -;
#X floatatom 2993 604 5 0 0 0 send_prog14B - send_prog14B;
#X floatatom 3144 457 5 0 0 0 receive_prog15B prog15B -;
#X obj 3138 509 f;
#X obj 3115 488 bng 15 250 50 0 empty empty write -35 7 0 10 -262144
-1 -1;
#X obj 3121 578 f;
#X obj 3120 556 bng 15 250 50 0 empty empty send -30 7 0 10 -262144
-1 -1;
#X floatatom 3139 537 5 0 0 0 - - -;
#X floatatom 3123 604 5 0 0 0 send_prog15B - send_prog15B;
#X floatatom 3284 457 5 0 0 0 receive_prog16B prog16B -;
#X obj 3278 509 f;
#X obj 3255 488 bng 15 250 50 0 empty empty write -35 7 0 10 -262144
-1 -1;
#X obj 3261 578 f;
#X obj 3260 556 bng 15 250 50 0 empty empty send -30 7 0 10 -262144
-1 -1;
#X floatatom 3279 537 5 0 0 0 - - -;
#X floatatom 3263 604 5 0 0 0 send_prog16B - send_prog16B;
#X floatatom 373 457 5 0 0 0 receive_progrXTB progrXTB -;
#X obj 367 509 f;
#X obj 344 488 bng 15 250 50 0 empty empty write -35 7 0 10 -262144
-1 -1;
#X obj 350 578 f;
#X obj 349 556 bng 15 250 50 0 empty empty send -30 7 0 10 -262144
-1 -1;
#X floatatom 368 537 5 0 0 0 - - -;
#X floatatom 352 604 5 0 0 0 send_progrXTB - send_progrXTB;
#X floatatom 563 457 5 0 0 0 receive_Trgr-progrB Trgr-progrB -;
#X obj 557 509 f;
#X obj 534 488 bng 15 250 50 0 empty empty write -35 7 0 10 -262144
-1 -1;
#X obj 540 578 f;
#X obj 539 556 bng 15 250 50 0 empty empty send -30 7 0 10 -262144
-1 -1;
#X floatatom 558 537 5 0 0 0 - - -;
#X floatatom 542 604 5 0 0 0 send_Trgr-progrB - send_Trgr-progrB;
#X floatatom 763 457 5 0 0 0 receive_send_progr-tB progr-tB -;
#X obj 757 509 f;
#X obj 734 488 bng 15 250 50 0 empty empty write -35 7 0 10 -262144
-1 -1;
#X obj 740 578 f;
#X obj 739 556 bng 15 250 50 0 empty empty send -30 7 0 10 -262144
-1 -1;
#X floatatom 758 537 5 0 0 0 - - -;
#X floatatom 742 604 5 0 0 0 send_progr-tB - send_progr-tB;
#X floatatom 1652 457 5 0 0 0 receive_prog4B prog4B -;
#X obj 1646 509 f;
#X obj 1623 488 bng 15 250 50 0 empty empty write -35 7 0 10 -262144
-1 -1;
#X obj 1629 578 f;
#X obj 1628 556 bng 15 250 50 0 empty empty send -30 7 0 10 -262144
-1 -1;
#X floatatom 1647 537 5 0 0 0 - - -;
#X floatatom 1631 604 5 0 0 0 send_prog4B - send_prog4B;
#X floatatom 1792 457 5 0 0 0 receive_prog5B prog5B -;
#X obj 1786 509 f;
#X obj 1763 488 bng 15 250 50 0 empty empty write -35 7 0 10 -262144
-1 -1;
#X obj 1769 578 f;
#X obj 1768 556 bng 15 250 50 0 empty empty send -30 7 0 10 -262144
-1 -1;
#X floatatom 1787 537 5 0 0 0 - - -;
#X floatatom 1771 604 5 0 0 0 send_prog5B - send_prog5B;
#X floatatom 963 657 5 0 0 0 receive_progr_progr_B progr_progr_B -
;
#X obj 957 709 f;
#X obj 924 688 bng 15 250 50 0 empty empty write -35 7 0 10 -262144
-1 -1;
#X obj 940 778 f;
#X obj 929 756 bng 15 250 50 0 empty empty send -30 7 0 10 -262144
-1 -1;
#X floatatom 958 737 5 0 0 0 - - -;
#X floatatom 942 804 5 0 0 0 send_progr_progr_B - send_progr_progr_B
;
#X floatatom 1109 657 5 0 0 0 receive_T#stepB progrstepB -;
#X obj 1103 709 f;
#X obj 1080 688 bng 15 250 50 0 empty empty write -35 7 0 10 -262144
-1 -1;
#X obj 1086 778 f;
#X obj 1085 756 bng 15 250 50 0 empty empty send -30 7 0 10 -262144
-1 -1;
#X floatatom 1104 737 5 0 0 0 - - -;
#X floatatom 1088 804 5 0 0 0 send_progstepB - send_progrstepB;
#X floatatom 1253 657 5 0 0 0 receive_prog1B prog1B -;
#X obj 1247 709 f;
#X obj 1224 688 bng 15 250 50 0 empty empty write -35 7 0 10 -262144
-1 -1;
#X obj 1230 778 f;
#X obj 1229 756 bng 15 250 50 0 empty empty send -30 7 0 10 -262144
-1 -1;
#X floatatom 1248 737 5 0 0 0 - - -;
#X floatatom 1232 804 5 0 0 0 send_prog1B - send_prog1B;
#X floatatom 1393 657 5 0 0 0 receive_prog2B prog2B -;
#X obj 1387 709 f;
#X obj 1364 688 bng 15 250 50 0 empty empty write -35 7 0 10 -262144
-1 -1;
#X obj 1370 778 f;
#X obj 1369 756 bng 15 250 50 0 empty empty send -30 7 0 10 -262144
-1 -1;
#X floatatom 1388 737 5 0 0 0 - - -;
#X floatatom 1372 804 5 0 0 0 send_prog2B - send_prog2B;
#X floatatom 1533 657 5 0 0 0 receive_prog3B prog3B -;
#X obj 1527 709 f;
#X obj 1504 688 bng 15 250 50 0 empty empty write -35 7 0 10 -262144
-1 -1;
#X obj 1510 778 f;
#X obj 1509 756 bng 15 250 50 0 empty empty send -30 7 0 10 -262144
-1 -1;
#X floatatom 1528 737 5 0 0 0 - - -;
#X floatatom 1512 804 5 0 0 0 send_prog3B - send_prog3B;
#X floatatom 1913 657 5 0 0 0 receive_prog6B prog6B -;
#X obj 1907 709 f;
#X obj 1884 688 bng 15 250 50 0 empty empty write -35 7 0 10 -262144
-1 -1;
#X obj 1890 778 f;
#X obj 1889 756 bng 15 250 50 0 empty empty send -30 7 0 10 -262144
-1 -1;
#X floatatom 1908 737 5 0 0 0 - - -;
#X floatatom 1892 804 5 0 0 0 send_prog6B - send_prog6B;
#X floatatom 2043 657 5 0 0 0 receive_prog7B prog7B -;
#X obj 2037 709 f;
#X obj 2014 688 bng 15 250 50 0 empty empty write -35 7 0 10 -262144
-1 -1;
#X obj 2020 778 f;
#X obj 2019 756 bng 15 250 50 0 empty empty send -30 7 0 10 -262144
-1 -1;
#X floatatom 2038 737 5 0 0 0 - - -;
#X floatatom 2022 804 5 0 0 0 send_prog7B - send_prog7B;
#X floatatom 2183 657 5 0 0 0 receive_prog8B prog8B -;
#X obj 2177 709 f;
#X obj 2154 688 bng 15 250 50 0 empty empty write -35 7 0 10 -262144
-1 -1;
#X obj 2160 778 f;
#X obj 2159 756 bng 15 250 50 0 empty empty send -30 7 0 10 -262144
-1 -1;
#X floatatom 2178 737 5 0 0 0 - - -;
#X floatatom 2162 804 5 0 0 0 send_prog8B - send_prog8B;
#X floatatom 2324 657 5 0 0 0 receive_prog9B prog9B -;
#X obj 2318 709 f;
#X obj 2295 688 bng 15 250 50 0 empty empty write -35 7 0 10 -262144
-1 -1;
#X obj 2301 778 f;
#X obj 2300 756 bng 15 250 50 0 empty empty send -30 7 0 10 -262144
-1 -1;
#X floatatom 2319 737 5 0 0 0 - - -;
#X floatatom 2303 804 5 0 0 0 send_prog9B - send_prog9B;
#X floatatom 2464 657 5 0 0 0 receive_prog10B prog10B -;
#X obj 2458 709 f;
#X obj 2435 688 bng 15 250 50 0 empty empty write -35 7 0 10 -262144
-1 -1;
#X obj 2441 778 f;
#X obj 2440 756 bng 15 250 50 0 empty empty send -30 7 0 10 -262144
-1 -1;
#X floatatom 2459 737 5 0 0 0 - - -;
#X floatatom 2443 804 5 0 0 0 send_prog10B - send_prog10B;
#X floatatom 2594 657 5 0 0 0 receive_prog11B prog11B -;
#X obj 2588 709 f;
#X obj 2565 688 bng 15 250 50 0 empty empty write -35 7 0 10 -262144
-1 -1;
#X obj 2571 778 f;
#X obj 2570 756 bng 15 250 50 0 empty empty send -30 7 0 10 -262144
-1 -1;
#X floatatom 2589 737 5 0 0 0 - - -;
#X floatatom 2573 804 5 0 0 0 send_prog11B - send_prog11B;
#X floatatom 2734 657 5 0 0 0 receive_prog12B prog12B -;
#X obj 2728 709 f;
#X obj 2705 688 bng 15 250 50 0 empty empty write -35 7 0 10 -262144
-1 -1;
#X obj 2711 778 f;
#X obj 2710 756 bng 15 250 50 0 empty empty send -30 7 0 10 -262144
-1 -1;
#X floatatom 2729 737 5 0 0 0 - - -;
#X floatatom 2713 804 5 0 0 0 send_prog12B - send_prog12B;
#X floatatom 2874 657 5 0 0 0 receive_prog13B prog13B -;
#X obj 2868 709 f;
#X obj 2845 688 bng 15 250 50 0 empty empty write -35 7 0 10 -262144
-1 -1;
#X obj 2851 778 f;
#X obj 2850 756 bng 15 250 50 0 empty empty send -30 7 0 10 -262144
-1 -1;
#X floatatom 2869 737 5 0 0 0 - - -;
#X floatatom 2853 804 5 0 0 0 send_prog13B - send_prog13B;
#X floatatom 3014 657 5 0 0 0 receive_prog14B prog14B -;
#X obj 3008 709 f;
#X obj 2985 688 bng 15 250 50 0 empty empty write -35 7 0 10 -262144
-1 -1;
#X obj 2991 778 f;
#X obj 2990 756 bng 15 250 50 0 empty empty send -30 7 0 10 -262144
-1 -1;
#X floatatom 3009 737 5 0 0 0 - - -;
#X floatatom 2993 804 5 0 0 0 send_prog14B - send_prog14B;
#X floatatom 3144 657 5 0 0 0 receive_prog15B prog15B -;
#X obj 3138 709 f;
#X obj 3115 688 bng 15 250 50 0 empty empty write -35 7 0 10 -262144
-1 -1;
#X obj 3121 778 f;
#X obj 3120 756 bng 15 250 50 0 empty empty send -30 7 0 10 -262144
-1 -1;
#X floatatom 3139 737 5 0 0 0 - - -;
#X floatatom 3123 804 5 0 0 0 send_prog15B - send_prog15B;
#X floatatom 3284 657 5 0 0 0 receive_prog16B prog16B -;
#X obj 3278 709 f;
#X obj 3255 688 bng 15 250 50 0 empty empty write -35 7 0 10 -262144
-1 -1;
#X obj 3261 778 f;
#X obj 3260 756 bng 15 250 50 0 empty empty send -30 7 0 10 -262144
-1 -1;
#X floatatom 3279 737 5 0 0 0 - - -;
#X floatatom 3263 804 5 0 0 0 send_prog16B - send_prog16B;
#X floatatom 373 657 5 0 0 0 receive_progrXTB progrXTB -;
#X obj 367 709 f;
#X obj 344 688 bng 15 250 50 0 empty empty write -35 7 0 10 -262144
-1 -1;
#X obj 350 778 f;
#X obj 349 756 bng 15 250 50 0 empty empty send -30 7 0 10 -262144
-1 -1;
#X floatatom 368 737 5 0 0 0 - - -;
#X floatatom 352 804 5 0 0 0 send_progrXTB - send_progrXTB;
#X floatatom 563 657 5 0 0 0 receive_Trgr-progrB Trgr-progrB -;
#X obj 557 709 f;
#X obj 534 688 bng 15 250 50 0 empty empty write -35 7 0 10 -262144
-1 -1;
#X obj 540 778 f;
#X obj 539 756 bng 15 250 50 0 empty empty send -30 7 0 10 -262144
-1 -1;
#X floatatom 558 737 5 0 0 0 - - -;
#X floatatom 542 804 5 0 0 0 send_Trgr-progrB - send_Trgr-progrB;
#X floatatom 763 657 5 0 0 0 receive_send_progr-tB progr-tB -;
#X obj 757 709 f;
#X obj 734 688 bng 15 250 50 0 empty empty write -35 7 0 10 -262144
-1 -1;
#X obj 740 778 f;
#X obj 739 756 bng 15 250 50 0 empty empty send -30 7 0 10 -262144
-1 -1;
#X floatatom 758 737 5 0 0 0 - - -;
#X floatatom 742 804 5 0 0 0 send_progr-tB - send_progr-tB;
#X floatatom 1652 657 5 0 0 0 receive_prog4B prog4B -;
#X obj 1646 709 f;
#X obj 1623 688 bng 15 250 50 0 empty empty write -35 7 0 10 -262144
-1 -1;
#X obj 1629 778 f;
#X obj 1628 756 bng 15 250 50 0 empty empty send -30 7 0 10 -262144
-1 -1;
#X floatatom 1647 737 5 0 0 0 - - -;
#X floatatom 1631 804 5 0 0 0 send_prog4B - send_prog4B;
#X floatatom 1792 657 5 0 0 0 receive_prog5B prog5B -;
#X obj 1786 709 f;
#X obj 1763 688 bng 15 250 50 0 empty empty write -35 7 0 10 -262144
-1 -1;
#X obj 1769 778 f;
#X obj 1768 756 bng 15 250 50 0 empty empty send -30 7 0 10 -262144
-1 -1;
#X floatatom 1787 737 5 0 0 0 - - -;
#X floatatom 1771 804 5 0 0 0 send_prog5B - send_prog5B;
#X obj 210 293 sel 0;
#X obj 213 345 sel 1;
#X obj 218 394 sel 2;
#X obj 223 444 sel 3;
#X obj 102 102 hradio 15 1 0 4 empty empty empty 8 -10 0 10 -99865
-262144 -262144 1;
#X obj 163 102 hradio 15 1 0 4 empty empty empty 1 -10 0 10 -128992
-1 -262144 1;
#X floatatom 448 93 5 0 0 0 W.progrXT_B W.progrXT_B -;
#X floatatom 449 121 5 0 0 0 S.progrXT_B - S.progrXT_B;
#X floatatom 646 93 5 0 0 0 W.Trgr-progr_B W.Trgr-progr_B -;
#X floatatom 645 121 5 0 0 0 S.Trgr-progr_B - S.Trgr-progr_B;
#X floatatom 827 93 5 0 0 0 W.progprogrtB W.progprogrtB -;
#X floatatom 826 121 5 0 0 0 S.progprogrtB - S.progprogrtB;
#X floatatom 1025 93 5 0 0 0 W.progr_progr_B W.progr_progr_B -;
#X floatatom 1024 121 5 0 0 0 S.progr_progr_B - S.progr_progr_B;
#X floatatom 1181 93 5 0 0 0 W.progrstepB W.progrstepB -;
#X floatatom 1180 121 5 0 0 0 S.progrstepB - S.progrstepB;
#X floatatom 1321 93 5 0 0 0 W.progB1 W.progB1 -;
#X floatatom 1320 121 5 0 0 0 S.progB1 - S.progB1;
#X floatatom 1461 93 5 0 0 0 W.progB2 W.progB2 -;
#X floatatom 1460 121 5 0 0 0 S.progB2 - S.progB2;
#X floatatom 1592 93 5 0 0 0 W.progB3 W.progB3 -;
#X floatatom 1591 121 5 0 0 0 S.progB3 - S.progB3;
#X floatatom 1690 93 5 0 0 0 W.progB4 W.progB4 -;
#X floatatom 1689 121 5 0 0 0 S.progB4 - S.progB4;
#X floatatom 1851 93 5 0 0 0 W.progB5 W.progB5 -;
#X floatatom 1850 121 5 0 0 0 S.progB5 - S.progB5;
#X floatatom 1980 93 5 0 0 0 W.progB6 W.progB6 -;
#X floatatom 1979 121 5 0 0 0 S.progB6 - S.progB6;
#X floatatom 2110 93 5 0 0 0 W.progB7 W.progB7 -;
#X floatatom 2109 121 5 0 0 0 S.progB7 - S.progB7;
#X floatatom 2239 93 5 0 0 0 W.progB8 W.progB8 -;
#X floatatom 2238 121 5 0 0 0 S.progB8 - S.progB8;
#X floatatom 2397 93 5 0 0 0 W.progB9 W.progB9 -;
#X floatatom 2396 122 5 0 0 0 S.progB9 - S.progB9;
#X floatatom 2535 93 5 0 0 0 W.progB10 W.progB10 -;
#X floatatom 2534 121 5 0 0 0 S.progB10 - S.progB10;
#X floatatom 2650 93 5 0 0 0 W.progB11 W.progB11 -;
#X floatatom 2649 121 5 0 0 0 S.progB11 - S.progB11;
#X floatatom 2800 93 5 0 0 0 W.progB12 W.progB12 -;
#X floatatom 2800 121 5 0 0 0 S.progB12 - S.progB12;
#X floatatom 2934 93 5 0 0 0 W.progB13 W.progB13 -;
#X floatatom 2933 121 5 0 0 0 S.progB13 - S.progB13;
#X floatatom 3074 93 5 0 0 0 W.progB14 W.progB14 -;
#X floatatom 3073 121 5 0 0 0 S.progB14 - S.progB14;
#X floatatom 3205 93 5 0 0 0 W.progB15 W.progB15 -;
#X floatatom 3204 121 5 0 0 0 S.progB15 - S.progB15;
#X floatatom 3354 93 5 0 0 0 W.progB16 W.progB16 -;
#X floatatom 3353 121 5 0 0 0 S.progB16 - S.progB16;
#X connect 0 0 116 0;
#X connect 0 1 265 0;
#X connect 0 2 412 0;
#X connect 0 3 559 0;
#X connect 1 0 118 0;
#X connect 1 1 267 0;
#X connect 1 2 414 0;
#X connect 1 3 561 0;
#X connect 2 0 3 1;
#X connect 3 0 7 0;
#X connect 4 0 3 0;
#X connect 4 0 11 0;
#X connect 5 0 8 0;
#X connect 6 0 5 0;
#X connect 6 0 13 0;
#X connect 7 0 5 1;
#X connect 7 0 605 0;
#X connect 9 0 10 1;
#X connect 10 0 14 0;
#X connect 11 0 10 0;
#X connect 11 0 18 0;
#X connect 12 0 15 0;
#X connect 13 0 12 0;
#X connect 13 0 20 0;
#X connect 14 0 12 1;
#X connect 14 0 607 0;
#X connect 16 0 17 1;
#X connect 17 0 21 0;
#X connect 18 0 17 0;
#X connect 18 0 25 0;
#X connect 19 0 22 0;
#X connect 20 0 19 0;
#X connect 20 0 27 0;
#X connect 21 0 19 1;
#X connect 21 0 609 0;
#X connect 23 0 24 1;
#X connect 24 0 28 0;
#X connect 25 0 24 0;
#X connect 25 0 32 0;
#X connect 26 0 29 0;
#X connect 27 0 26 0;
#X connect 27 0 34 0;
#X connect 28 0 26 1;
#X connect 28 0 611 0;
#X connect 30 0 31 1;
#X connect 31 0 35 0;
#X connect 32 0 31 0;
#X connect 32 0 139 0;
#X connect 33 0 36 0;
#X connect 34 0 33 0;
#X connect 34 0 141 0;
#X connect 35 0 33 1;
#X connect 35 0 613 0;
#X connect 37 0 38 1;
#X connect 38 0 42 0;
#X connect 39 0 38 0;
#X connect 39 0 46 0;
#X connect 40 0 43 0;
#X connect 41 0 40 0;
#X connect 41 0 48 0;
#X connect 42 0 40 1;
#X connect 42 0 619 0;
#X connect 44 0 45 1;
#X connect 45 0 49 0;
#X connect 46 0 45 0;
#X connect 46 0 53 0;
#X connect 47 0 50 0;
#X connect 48 0 47 0;
#X connect 48 0 55 0;
#X connect 49 0 47 1;
#X connect 49 0 621 0;
#X connect 51 0 52 1;
#X connect 52 0 56 0;
#X connect 53 0 52 0;
#X connect 53 0 60 0;
#X connect 54 0 57 0;
#X connect 55 0 54 0;
#X connect 55 0 62 0;
#X connect 56 0 54 1;
#X connect 56 0 623 0;
#X connect 58 0 59 1;
#X connect 59 0 63 0;
#X connect 60 0 59 0;
#X connect 60 0 67 0;
#X connect 61 0 64 0;
#X connect 62 0 61 0;
#X connect 62 0 69 0;
#X connect 63 0 61 1;
#X connect 63 0 625 0;
#X connect 65 0 66 1;
#X connect 66 0 70 0;
#X connect 67 0 66 0;
#X connect 67 0 74 0;
#X connect 68 0 71 0;
#X connect 69 0 68 0;
#X connect 69 0 76 0;
#X connect 70 0 68 1;
#X connect 70 0 627 0;
#X connect 72 0 73 1;
#X connect 73 0 77 0;
#X connect 74 0 73 0;
#X connect 74 0 81 0;
#X connect 75 0 78 0;
#X connect 76 0 75 0;
#X connect 76 0 83 0;
#X connect 77 0 75 1;
#X connect 77 0 629 0;
#X connect 79 0 80 1;
#X connect 80 0 84 0;
#X connect 81 0 80 0;
#X connect 81 0 88 0;
#X connect 82 0 85 0;
#X connect 83 0 82 0;
#X connect 83 0 90 0;
#X connect 84 0 82 1;
#X connect 84 0 631 0;
#X connect 86 0 87 1;
#X connect 87 0 91 0;
#X connect 88 0 87 0;
#X connect 88 0 95 0;
#X connect 89 0 92 0;
#X connect 90 0 89 0;
#X connect 90 0 97 0;
#X connect 91 0 89 1;
#X connect 91 0 633 0;
#X connect 93 0 94 1;
#X connect 94 0 98 0;
#X connect 95 0 94 0;
#X connect 95 0 102 0;
#X connect 96 0 99 0;
#X connect 97 0 96 0;
#X connect 97 0 104 0;
#X connect 98 0 96 1;
#X connect 98 0 635 0;
#X connect 100 0 101 1;
#X connect 101 0 105 0;
#X connect 102 0 101 0;
#X connect 102 0 109 0;
#X connect 103 0 106 0;
#X connect 104 0 103 0;
#X connect 104 0 111 0;
#X connect 105 0 103 1;
#X connect 105 0 637 0;
#X connect 107 0 108 1;
#X connect 108 0 112 0;
#X connect 109 0 108 0;
#X connect 110 0 113 0;
#X connect 111 0 110 0;
#X connect 112 0 110 1;
#X connect 114 0 115 1;
#X connect 115 0 119 0;
#X connect 116 0 115 0;
#X connect 116 0 123 0;
#X connect 117 0 120 0;
#X connect 118 0 117 0;
#X connect 118 0 125 0;
#X connect 119 0 117 1;
#X connect 119 0 599 0;
#X connect 121 0 122 1;
#X connect 122 0 126 0;
#X connect 123 0 122 0;
#X connect 123 0 130 0;
#X connect 124 0 127 0;
#X connect 125 0 124 0;
#X connect 125 0 132 0;
#X connect 126 0 124 1;
#X connect 126 0 601 0;
#X connect 128 0 129 1;
#X connect 129 0 133 0;
#X connect 130 0 129 0;
#X connect 130 0 4 0;
#X connect 131 0 134 0;
#X connect 132 0 131 0;
#X connect 132 0 6 0;
#X connect 133 0 131 1;
#X connect 133 0 603 0;
#X connect 135 0 596 0;
#X connect 136 0 597 0;
#X connect 137 0 138 1;
#X connect 138 0 142 0;
#X connect 139 0 138 0;
#X connect 139 0 146 0;
#X connect 140 0 143 0;
#X connect 141 0 140 0;
#X connect 141 0 148 0;
#X connect 142 0 140 1;
#X connect 142 0 615 0;
#X connect 144 0 145 1;
#X connect 145 0 149 0;
#X connect 146 0 145 0;
#X connect 146 0 39 0;
#X connect 147 0 150 0;
#X connect 148 0 147 0;
#X connect 148 0 41 0;
#X connect 149 0 147 1;
#X connect 149 0 617 0;
#X connect 151 0 152 1;
#X connect 152 0 156 0;
#X connect 153 0 152 0;
#X connect 153 0 160 0;
#X connect 154 0 157 0;
#X connect 155 0 154 0;
#X connect 155 0 162 0;
#X connect 156 0 154 1;
#X connect 158 0 159 1;
#X connect 159 0 163 0;
#X connect 160 0 159 0;
#X connect 160 0 167 0;
#X connect 161 0 164 0;
#X connect 162 0 161 0;
#X connect 162 0 169 0;
#X connect 163 0 161 1;
#X connect 165 0 166 1;
#X connect 166 0 170 0;
#X connect 167 0 166 0;
#X connect 167 0 174 0;
#X connect 168 0 171 0;
#X connect 169 0 168 0;
#X connect 169 0 176 0;
#X connect 170 0 168 1;
#X connect 172 0 173 1;
#X connect 173 0 177 0;
#X connect 174 0 173 0;
#X connect 174 0 181 0;
#X connect 175 0 178 0;
#X connect 176 0 175 0;
#X connect 176 0 183 0;
#X connect 177 0 175 1;
#X connect 179 0 180 1;
#X connect 180 0 184 0;
#X connect 181 0 180 0;
#X connect 181 0 286 0;
#X connect 182 0 185 0;
#X connect 183 0 182 0;
#X connect 183 0 288 0;
#X connect 184 0 182 1;
#X connect 186 0 187 1;
#X connect 187 0 191 0;
#X connect 188 0 187 0;
#X connect 188 0 195 0;
#X connect 189 0 192 0;
#X connect 190 0 189 0;
#X connect 190 0 197 0;
#X connect 191 0 189 1;
#X connect 193 0 194 1;
#X connect 194 0 198 0;
#X connect 195 0 194 0;
#X connect 195 0 202 0;
#X connect 196 0 199 0;
#X connect 197 0 196 0;
#X connect 197 0 204 0;
#X connect 198 0 196 1;
#X connect 200 0 201 1;
#X connect 201 0 205 0;
#X connect 202 0 201 0;
#X connect 202 0 209 0;
#X connect 203 0 206 0;
#X connect 204 0 203 0;
#X connect 204 0 211 0;
#X connect 205 0 203 1;
#X connect 207 0 208 1;
#X connect 208 0 212 0;
#X connect 209 0 208 0;
#X connect 209 0 216 0;
#X connect 210 0 213 0;
#X connect 211 0 210 0;
#X connect 211 0 218 0;
#X connect 212 0 210 1;
#X connect 214 0 215 1;
#X connect 215 0 219 0;
#X connect 216 0 215 0;
#X connect 216 0 223 0;
#X connect 217 0 220 0;
#X connect 218 0 217 0;
#X connect 218 0 225 0;
#X connect 219 0 217 1;
#X connect 221 0 222 1;
#X connect 222 0 226 0;
#X connect 223 0 222 0;
#X connect 223 0 230 0;
#X connect 224 0 227 0;
#X connect 225 0 224 0;
#X connect 225 0 232 0;
#X connect 226 0 224 1;
#X connect 228 0 229 1;
#X connect 229 0 233 0;
#X connect 230 0 229 0;
#X connect 230 0 237 0;
#X connect 231 0 234 0;
#X connect 232 0 231 0;
#X connect 232 0 239 0;
#X connect 233 0 231 1;
#X connect 235 0 236 1;
#X connect 236 0 240 0;
#X connect 237 0 236 0;
#X connect 237 0 244 0;
#X connect 238 0 241 0;
#X connect 239 0 238 0;
#X connect 239 0 246 0;
#X connect 240 0 238 1;
#X connect 242 0 243 1;
#X connect 243 0 247 0;
#X connect 244 0 243 0;
#X connect 244 0 251 0;
#X connect 245 0 248 0;
#X connect 246 0 245 0;
#X connect 246 0 253 0;
#X connect 247 0 245 1;
#X connect 249 0 250 1;
#X connect 250 0 254 0;
#X connect 251 0 250 0;
#X connect 251 0 258 0;
#X connect 252 0 255 0;
#X connect 253 0 252 0;
#X connect 253 0 260 0;
#X connect 254 0 252 1;
#X connect 256 0 257 1;
#X connect 257 0 261 0;
#X connect 258 0 257 0;
#X connect 259 0 262 0;
#X connect 260 0 259 0;
#X connect 261 0 259 1;
#X connect 263 0 264 1;
#X connect 264 0 268 0;
#X connect 265 0 264 0;
#X connect 265 0 272 0;
#X connect 266 0 269 0;
#X connect 267 0 266 0;
#X connect 267 0 274 0;
#X connect 268 0 266 1;
#X connect 270 0 271 1;
#X connect 271 0 275 0;
#X connect 272 0 271 0;
#X connect 272 0 279 0;
#X connect 273 0 276 0;
#X connect 274 0 273 0;
#X connect 274 0 281 0;
#X connect 275 0 273 1;
#X connect 277 0 278 1;
#X connect 278 0 282 0;
#X connect 279 0 278 0;
#X connect 279 0 153 0;
#X connect 280 0 283 0;
#X connect 281 0 280 0;
#X connect 281 0 155 0;
#X connect 282 0 280 1;
#X connect 284 0 285 1;
#X connect 285 0 289 0;
#X connect 286 0 285 0;
#X connect 286 0 293 0;
#X connect 287 0 290 0;
#X connect 288 0 287 0;
#X connect 288 0 295 0;
#X connect 289 0 287 1;
#X connect 291 0 292 1;
#X connect 292 0 296 0;
#X connect 293 0 292 0;
#X connect 293 0 188 0;
#X connect 294 0 297 0;
#X connect 295 0 294 0;
#X connect 295 0 190 0;
#X connect 296 0 294 1;
#X connect 298 0 299 1;
#X connect 299 0 303 0;
#X connect 300 0 299 0;
#X connect 300 0 307 0;
#X connect 301 0 304 0;
#X connect 302 0 301 0;
#X connect 302 0 309 0;
#X connect 303 0 301 1;
#X connect 305 0 306 1;
#X connect 306 0 310 0;
#X connect 307 0 306 0;
#X connect 307 0 314 0;
#X connect 308 0 311 0;
#X connect 309 0 308 0;
#X connect 309 0 316 0;
#X connect 310 0 308 1;
#X connect 312 0 313 1;
#X connect 313 0 317 0;
#X connect 314 0 313 0;
#X connect 314 0 321 0;
#X connect 315 0 318 0;
#X connect 316 0 315 0;
#X connect 316 0 323 0;
#X connect 317 0 315 1;
#X connect 319 0 320 1;
#X connect 320 0 324 0;
#X connect 321 0 320 0;
#X connect 321 0 328 0;
#X connect 322 0 325 0;
#X connect 323 0 322 0;
#X connect 323 0 330 0;
#X connect 324 0 322 1;
#X connect 326 0 327 1;
#X connect 327 0 331 0;
#X connect 328 0 327 0;
#X connect 328 0 433 0;
#X connect 329 0 332 0;
#X connect 330 0 329 0;
#X connect 330 0 435 0;
#X connect 331 0 329 1;
#X connect 333 0 334 1;
#X connect 334 0 338 0;
#X connect 335 0 334 0;
#X connect 335 0 342 0;
#X connect 336 0 339 0;
#X connect 337 0 336 0;
#X connect 337 0 344 0;
#X connect 338 0 336 1;
#X connect 340 0 341 1;
#X connect 341 0 345 0;
#X connect 342 0 341 0;
#X connect 342 0 349 0;
#X connect 343 0 346 0;
#X connect 344 0 343 0;
#X connect 344 0 351 0;
#X connect 345 0 343 1;
#X connect 347 0 348 1;
#X connect 348 0 352 0;
#X connect 349 0 348 0;
#X connect 349 0 356 0;
#X connect 350 0 353 0;
#X connect 351 0 350 0;
#X connect 351 0 358 0;
#X connect 352 0 350 1;
#X connect 354 0 355 1;
#X connect 355 0 359 0;
#X connect 356 0 355 0;
#X connect 356 0 363 0;
#X connect 357 0 360 0;
#X connect 358 0 357 0;
#X connect 358 0 365 0;
#X connect 359 0 357 1;
#X connect 361 0 362 1;
#X connect 362 0 366 0;
#X connect 363 0 362 0;
#X connect 363 0 370 0;
#X connect 364 0 367 0;
#X connect 365 0 364 0;
#X connect 365 0 372 0;
#X connect 366 0 364 1;
#X connect 368 0 369 1;
#X connect 369 0 373 0;
#X connect 370 0 369 0;
#X connect 370 0 377 0;
#X connect 371 0 374 0;
#X connect 372 0 371 0;
#X connect 372 0 379 0;
#X connect 373 0 371 1;
#X connect 375 0 376 1;
#X connect 376 0 380 0;
#X connect 377 0 376 0;
#X connect 377 0 384 0;
#X connect 378 0 381 0;
#X connect 379 0 378 0;
#X connect 379 0 386 0;
#X connect 380 0 378 1;
#X connect 382 0 383 1;
#X connect 383 0 387 0;
#X connect 384 0 383 0;
#X connect 384 0 391 0;
#X connect 385 0 388 0;
#X connect 386 0 385 0;
#X connect 386 0 393 0;
#X connect 387 0 385 1;
#X connect 389 0 390 1;
#X connect 390 0 394 0;
#X connect 391 0 390 0;
#X connect 391 0 398 0;
#X connect 392 0 395 0;
#X connect 393 0 392 0;
#X connect 393 0 400 0;
#X connect 394 0 392 1;
#X connect 396 0 397 1;
#X connect 397 0 401 0;
#X connect 398 0 397 0;
#X connect 398 0 405 0;
#X connect 399 0 402 0;
#X connect 400 0 399 0;
#X connect 400 0 407 0;
#X connect 401 0 399 1;
#X connect 403 0 404 1;
#X connect 404 0 408 0;
#X connect 405 0 404 0;
#X connect 406 0 409 0;
#X connect 407 0 406 0;
#X connect 408 0 406 1;
#X connect 410 0 411 1;
#X connect 411 0 415 0;
#X connect 412 0 411 0;
#X connect 412 0 419 0;
#X connect 413 0 416 0;
#X connect 414 0 413 0;
#X connect 414 0 421 0;
#X connect 415 0 413 1;
#X connect 417 0 418 1;
#X connect 418 0 422 0;
#X connect 419 0 418 0;
#X connect 419 0 426 0;
#X connect 420 0 423 0;
#X connect 421 0 420 0;
#X connect 421 0 428 0;
#X connect 422 0 420 1;
#X connect 424 0 425 1;
#X connect 425 0 429 0;
#X connect 426 0 425 0;
#X connect 426 0 300 0;
#X connect 427 0 430 0;
#X connect 428 0 427 0;
#X connect 428 0 302 0;
#X connect 429 0 427 1;
#X connect 431 0 432 1;
#X connect 432 0 436 0;
#X connect 433 0 432 0;
#X connect 433 0 440 0;
#X connect 434 0 437 0;
#X connect 435 0 434 0;
#X connect 435 0 442 0;
#X connect 436 0 434 1;
#X connect 438 0 439 1;
#X connect 439 0 443 0;
#X connect 440 0 439 0;
#X connect 440 0 335 0;
#X connect 441 0 444 0;
#X connect 442 0 441 0;
#X connect 442 0 337 0;
#X connect 443 0 441 1;
#X connect 445 0 446 1;
#X connect 446 0 450 0;
#X connect 447 0 446 0;
#X connect 447 0 454 0;
#X connect 448 0 451 0;
#X connect 449 0 448 0;
#X connect 449 0 456 0;
#X connect 450 0 448 1;
#X connect 452 0 453 1;
#X connect 453 0 457 0;
#X connect 454 0 453 0;
#X connect 454 0 461 0;
#X connect 455 0 458 0;
#X connect 456 0 455 0;
#X connect 456 0 463 0;
#X connect 457 0 455 1;
#X connect 459 0 460 1;
#X connect 460 0 464 0;
#X connect 461 0 460 0;
#X connect 461 0 468 0;
#X connect 462 0 465 0;
#X connect 463 0 462 0;
#X connect 463 0 470 0;
#X connect 464 0 462 1;
#X connect 466 0 467 1;
#X connect 467 0 471 0;
#X connect 468 0 467 0;
#X connect 468 0 475 0;
#X connect 469 0 472 0;
#X connect 470 0 469 0;
#X connect 470 0 477 0;
#X connect 471 0 469 1;
#X connect 473 0 474 1;
#X connect 474 0 478 0;
#X connect 475 0 474 0;
#X connect 475 0 580 0;
#X connect 476 0 479 0;
#X connect 477 0 476 0;
#X connect 477 0 582 0;
#X connect 478 0 476 1;
#X connect 480 0 481 1;
#X connect 481 0 485 0;
#X connect 482 0 481 0;
#X connect 482 0 489 0;
#X connect 483 0 486 0;
#X connect 484 0 483 0;
#X connect 484 0 491 0;
#X connect 485 0 483 1;
#X connect 487 0 488 1;
#X connect 488 0 492 0;
#X connect 489 0 488 0;
#X connect 489 0 496 0;
#X connect 490 0 493 0;
#X connect 491 0 490 0;
#X connect 491 0 498 0;
#X connect 492 0 490 1;
#X connect 494 0 495 1;
#X connect 495 0 499 0;
#X connect 496 0 495 0;
#X connect 496 0 503 0;
#X connect 497 0 500 0;
#X connect 498 0 497 0;
#X connect 498 0 505 0;
#X connect 499 0 497 1;
#X connect 501 0 502 1;
#X connect 502 0 506 0;
#X connect 503 0 502 0;
#X connect 503 0 510 0;
#X connect 504 0 507 0;
#X connect 505 0 504 0;
#X connect 505 0 512 0;
#X connect 506 0 504 1;
#X connect 508 0 509 1;
#X connect 509 0 513 0;
#X connect 510 0 509 0;
#X connect 510 0 517 0;
#X connect 511 0 514 0;
#X connect 512 0 511 0;
#X connect 512 0 519 0;
#X connect 513 0 511 1;
#X connect 515 0 516 1;
#X connect 516 0 520 0;
#X connect 517 0 516 0;
#X connect 517 0 524 0;
#X connect 518 0 521 0;
#X connect 519 0 518 0;
#X connect 519 0 526 0;
#X connect 520 0 518 1;
#X connect 522 0 523 1;
#X connect 523 0 527 0;
#X connect 524 0 523 0;
#X connect 524 0 531 0;
#X connect 525 0 528 0;
#X connect 526 0 525 0;
#X connect 526 0 533 0;
#X connect 527 0 525 1;
#X connect 529 0 530 1;
#X connect 530 0 534 0;
#X connect 531 0 530 0;
#X connect 531 0 538 0;
#X connect 532 0 535 0;
#X connect 533 0 532 0;
#X connect 533 0 540 0;
#X connect 534 0 532 1;
#X connect 536 0 537 1;
#X connect 537 0 541 0;
#X connect 538 0 537 0;
#X connect 538 0 545 0;
#X connect 539 0 542 0;
#X connect 540 0 539 0;
#X connect 540 0 547 0;
#X connect 541 0 539 1;
#X connect 543 0 544 1;
#X connect 544 0 548 0;
#X connect 545 0 544 0;
#X connect 545 0 552 0;
#X connect 546 0 549 0;
#X connect 547 0 546 0;
#X connect 547 0 554 0;
#X connect 548 0 546 1;
#X connect 550 0 551 1;
#X connect 551 0 555 0;
#X connect 552 0 551 0;
#X connect 553 0 556 0;
#X connect 554 0 553 0;
#X connect 555 0 553 1;
#X connect 557 0 558 1;
#X connect 558 0 562 0;
#X connect 559 0 558 0;
#X connect 559 0 566 0;
#X connect 560 0 563 0;
#X connect 561 0 560 0;
#X connect 561 0 568 0;
#X connect 562 0 560 1;
#X connect 564 0 565 1;
#X connect 565 0 569 0;
#X connect 566 0 565 0;
#X connect 566 0 573 0;
#X connect 567 0 570 0;
#X connect 568 0 567 0;
#X connect 568 0 575 0;
#X connect 569 0 567 1;
#X connect 571 0 572 1;
#X connect 572 0 576 0;
#X connect 573 0 572 0;
#X connect 573 0 447 0;
#X connect 574 0 577 0;
#X connect 575 0 574 0;
#X connect 575 0 449 0;
#X connect 576 0 574 1;
#X connect 578 0 579 1;
#X connect 579 0 583 0;
#X connect 580 0 579 0;
#X connect 580 0 587 0;
#X connect 581 0 584 0;
#X connect 582 0 581 0;
#X connect 582 0 589 0;
#X connect 583 0 581 1;
#X connect 585 0 586 1;
#X connect 586 0 590 0;
#X connect 587 0 586 0;
#X connect 587 0 482 0;
#X connect 588 0 591 0;
#X connect 589 0 588 0;
#X connect 589 0 484 0;
#X connect 590 0 588 1;
#X connect 592 0 118 0;
#X connect 593 0 267 0;
#X connect 594 0 414 0;
#X connect 595 0 561 0;
#X connect 596 0 0 0;
#X connect 597 0 1 0;
#X connect 598 0 119 0;
#X connect 600 0 126 0;
#X connect 602 0 133 0;
#X connect 604 0 7 0;
#X connect 606 0 14 0;
#X connect 608 0 21 0;
#X connect 610 0 28 0;
#X connect 612 0 35 0;
#X connect 614 0 142 0;
#X connect 616 0 149 0;
#X connect 618 0 42 0;
#X connect 620 0 49 0;
#X connect 622 0 56 0;
#X connect 624 0 63 0;
#X connect 626 0 70 0;
#X connect 628 0 77 0;
#X connect 630 0 84 0;
#X connect 632 0 91 0;
#X connect 634 0 98 0;
#X connect 636 0 105 0;
#X connect 638 0 112 0;
#X coords 0 -1 1 1 125 20 2 100 100;
