#N canvas 230 94 1430 934 10;
#X obj 99 -151 r lo;
#X obj -47 717 s env0;
#X obj -43 643 env~;
#X obj 17 225 s fll0;
#X floatatom 68 43 4 0 0 2 - - -;
#X msg 133 -127 0;
#X obj 15 204 * 0.01;
#X msg 163 -127 1;
#X floatatom 68 58 4 0 0 2 - - -;
#X floatatom 68 73 4 0 0 3 - - -;
#X floatatom 68 89 4 0 0 1 - - -;
#X floatatom 68 105 4 0 0 1 - - -;
#X obj 857 100 *~;
#X obj 197 23 tgl 20 0 empty empty BCK 2 12 1 8 -1 -260097 -262144
0 1;
#X obj 525 154 sel;
#X msg 525 176 75;
#X floatatom -46 665 5 0 0 0 - - -;
#X obj -46 684 spigot-toggle_jaune;
#X obj 616 185 *~;
#X obj 611 155 r~ C;
#X msg 102 -127 1;
#X obj 545 316 r lo;
#X floatatom 68 316 4 0 0 2 - - -;
#X obj 897 437 * 0.01;
#X msg 549 361 1;
#X floatatom 68 331 4 0 0 2 - - -;
#X floatatom 68 346 4 0 0 3 - - -;
#X floatatom 68 362 4 0 0 1 - - -;
#X floatatom 68 376 4 0 0 1 - - -;
#X floatatom 202 690 3 0 0 0 - - -;
#X obj 691 449 *~;
#X obj 819 374 sel;
#X msg 819 396 75;
#X obj 697 395 *~;
#X msg 548 340 1;
#X obj 900 464 s fll1;
#X obj 692 421 r~ A1;
#X obj 10 718 s env1;
#X obj 6 650 env~;
#X floatatom 7 673 5 0 0 0 - - -;
#X obj 11 692 spigot-toggle_jaune;
#X msg 97 -57 75;
#X msg 97 -38 25;
#X msg 99 -84 5;
#X obj 99 -106 r lo;
#X msg 101 688 75;
#X msg 102 707 25;
#X msg 101 669 5;
#X obj 101 648 r lo;
#X obj 861 63 r~ A0;
#X msg 189 -79 2;
#X floatatom 68 120 4 0 0 1 - - -;
#X obj 117 44 hsl 85 15 0 300 0 0 empty empty empty -2 -8 0 10 -1 -260097
-1 0 0;
#X floatatom 68 136 4 0 0 1 - - -;
#X floatatom 68 151 4 0 0 1 - - -;
#X floatatom 68 166 4 0 0 1 - - -;
#X floatatom 68 392 4 0 0 1 - - -;
#X floatatom 68 407 4 0 0 1 - - -;
#X floatatom 68 424 4 0 0 1 - - -;
#X floatatom 68 439 4 0 0 1 - - -;
#X obj 197 296 tgl 20 0 empty empty BCK 2 12 1 8 -1 -262144 -262144
0 1;
#X msg 579 340 8;
#X obj 700 362 r~ D;
#X obj 176 23 tgl 20 0 empty empty empty 6 8 1 15 -260097 -1 -262144
0 1;
#X obj 135 181 cnv 15 82 70 empty empty empty 20 12 0 14 -99865 -66577
0;
#X floatatom 135 203 3 0 0 1 snslbt - -;
#X floatatom 197 203 3 0 0 1 - - -;
#X floatatom 135 219 3 0 0 1 glide - -;
#X floatatom 197 219 3 0 0 1 - - -;
#X floatatom 197 235 3 0 0 0 nmbr/stps - -;
#X obj 197 181 tgl 20 0 empty empty stp 4 9 1 12 -260097 -1 -1 0 1
;
#X obj 135 182 tgl 20 0 empty empty >< 2 9 1 14 -260097 -1 -1 0 1;
#X obj 132 454 cnv 15 85 68 empty empty empty 20 12 0 14 -99865 -66577
0;
#X floatatom 136 475 3 0 0 1 snslbt - -;
#X floatatom 197 476 3 0 0 1 - - -;
#X floatatom 136 491 3 0 0 1 glide - -;
#X floatatom 197 492 3 0 0 1 - - -;
#X floatatom 197 508 3 0 0 0 nmbr/stps - -;
#X obj 197 455 tgl 20 0 empty empty stp 4 9 1 12 -260097 -1 -1 0 1
;
#X obj 136 455 tgl 20 0 empty empty >< 2 9 1 14 -260097 -1 -1 0 1;
#X obj 176 296 tgl 20 0 empty empty empty 35 14 1 12 -260097 -1 -262144
0 1;
#X obj 100 453 cnv 10 35 70 empty empty << 10 60 1 14 -1 -260097 0
;
#X obj 100 181 cnv 10 35 70 empty empty >> 10 60 1 14 -1 -260097 0
;
#X obj 100 22 cnv 15 75 22 empty empty envlp_>_B 35 14 1 12 -1 -262144
0;
#X obj 100 522 cnv 6 118 37 empty empty empty 20 16 1 12 -1 -258113
0;
#X obj 117 60 hsl 85 15 0 300 0 0 empty empty empty -2 -8 0 10 -1 -260097
-1 0 0;
#X obj 117 74 hsl 85 15 0 300 0 0 empty empty empty -2 -8 0 10 -1 -260097
-1 0 0;
#X obj 117 90 hsl 85 15 0 300 0 0 empty empty empty -2 -8 0 10 -1 -260097
-1 0 0;
#X obj 117 104 hsl 85 15 0 300 0 0 empty empty empty -2 -8 0 10 -1
-260097 -1 0 0;
#X obj 117 120 hsl 85 15 0 300 0 0 empty empty empty -2 -8 0 10 -1
-260097 -1 0 0;
#X obj 117 134 hsl 85 15 0 300 0 0 empty empty empty -2 -8 0 10 -1
-260097 -1 0 0;
#X obj 117 150 hsl 85 15 0 300 0 0 empty empty empty -2 -8 0 10 -1
-260097 -1 0 0;
#X obj 117 166 hsl 85 15 0 300 0 0 empty empty empty -2 -8 0 10 -1
-260097 -1 0 0;
#X obj 102 184 cnv 15 28 33 empty empty a'= 2 8 1 14 -260097 -1 0;
#X floatatom 102 203 5 0 0 3 - - -;
#X obj 100 251 cnv 15 118 44 empty empty empty 6 35 1 10 -1 -228856
0;
#X obj 103 458 cnv 15 28 33 empty empty b'= 2 8 1 14 -260097 -1 0;
#X floatatom 102 476 5 0 0 3 - - -;
#X obj 156 182 cnv 15 40 20 empty empty empty 20 12 0 14 -1 -66577
0;
#X obj 157 455 cnv 15 40 20 empty empty empty 20 12 0 14 -1 -66577
0;
#X obj 117 317 hsl 85 15 0 300 0 0 empty empty empty -2 -8 0 10 -1
-260097 -1 0 0;
#X obj 117 333 hsl 85 15 0 300 0 0 empty empty empty -2 -8 0 10 -1
-260097 -1 0 0;
#X obj 117 347 hsl 85 15 0 300 0 0 empty empty empty -2 -8 0 10 -1
-260097 -1 0 0;
#X obj 117 363 hsl 85 15 0 300 0 0 empty empty empty -2 -8 0 10 -1
-260097 -1 0 0;
#X obj 117 377 hsl 85 15 0 300 0 0 empty empty empty -2 -8 0 10 -1
-260097 -1 0 0;
#X obj 117 393 hsl 85 15 0 300 0 0 empty empty empty -2 -8 0 10 -1
-260097 -1 0 0;
#X obj 117 407 hsl 85 15 0 300 0 0 empty empty empty -2 -8 0 10 -1
-260097 -1 0 0;
#X obj 117 423 hsl 85 15 0 300 0 0 empty empty empty -2 -8 0 10 -1
-260097 -1 0 0;
#X obj 117 439 hsl 85 15 0 300 0 0 empty empty empty -2 -8 0 10 -1
-260097 -1 0 0;
#X obj 179 454 tgl 20 0 empty empty D 6 11 1 12 -1 -262144 -262144
0 1;
#X obj 158 454 tgl 20 0 empty empty B 6 11 1 12 -1 -262144 -262144
0 1;
#X obj 178 182 tgl 20 0 empty empty C 6 11 1 12 -1 -262144 -262144
0 1;
#X obj 157 182 tgl 20 0 empty empty A 6 11 1 12 -1 -262144 -262144
0 1;
#X obj 100 3 cnv 15 117 22 empty empty Attack-detection 18 11 1 12
-1 -262144 0;
#X obj 100 294 cnv 15 75 22 empty empty envlp_>_A 35 14 1 12 -1 -262144
0;
#X obj 36 2 cnv 15 2 538 empty empty empty 20 12 0 14 -1 -66577 0;
#X obj 851 312 BONKtoBBonktoB;
#X obj 228 772 BONKtoABonktoA;
#X obj 100 316 cnv 10 13 138 empty empty empty -1 148 0 15 -1 -1 0
;
#X obj 204 316 cnv 10 13 138 empty empty empty -1 148 0 15 -1 -1 0
;
#X obj 100 43 cnv 10 13 138 empty empty empty -1 148 0 15 -1 -1 0;
#X obj 204 43 cnv 10 13 138 empty empty empty -1 148 0 15 -1 -1 0;
#X obj 537 -56 spigot-toggle_jaune;
#X obj 463 701 spigot-toggle_jaune;
#X obj 459 729 s bonktoenvA;
#X obj 534 -27 s bonktoenvB;
#X connect 0 0 5 0;
#X connect 0 0 20 0;
#X connect 0 0 7 0;
#X connect 2 0 16 0;
#X connect 4 0 116 7;
#X connect 6 0 3 0;
#X connect 7 0 65 0;
#X connect 7 0 66 0;
#X connect 8 0 116 9;
#X connect 9 0 116 10;
#X connect 10 0 116 11;
#X connect 11 0 116 12;
#X connect 12 0 116 0;
#X connect 13 0 14 0;
#X connect 14 1 15 0;
#X connect 15 0 94 0;
#X connect 16 0 17 0;
#X connect 17 0 1 0;
#X connect 18 0 116 0;
#X connect 19 0 18 0;
#X connect 21 0 61 0;
#X connect 21 0 34 0;
#X connect 21 0 24 0;
#X connect 22 0 117 7;
#X connect 23 0 35 0;
#X connect 24 0 74 0;
#X connect 25 0 117 9;
#X connect 26 0 117 10;
#X connect 27 0 117 11;
#X connect 28 0 117 12;
#X connect 29 0 117 1;
#X connect 30 0 117 0;
#X connect 31 1 32 0;
#X connect 32 0 97 0;
#X connect 33 0 117 0;
#X connect 36 0 30 0;
#X connect 38 0 39 0;
#X connect 39 0 40 0;
#X connect 40 0 37 0;
#X connect 41 0 4 0;
#X connect 41 0 9 0;
#X connect 41 0 42 0;
#X connect 41 0 11 0;
#X connect 41 0 53 0;
#X connect 41 0 55 0;
#X connect 42 0 8 0;
#X connect 42 0 10 0;
#X connect 42 0 54 0;
#X connect 42 0 51 0;
#X connect 43 0 41 0;
#X connect 43 0 69 0;
#X connect 44 0 43 0;
#X connect 44 0 50 0;
#X connect 45 0 46 0;
#X connect 45 0 22 0;
#X connect 45 0 26 0;
#X connect 45 0 28 0;
#X connect 45 0 57 0;
#X connect 45 0 59 0;
#X connect 46 0 25 0;
#X connect 46 0 27 0;
#X connect 46 0 56 0;
#X connect 46 0 58 0;
#X connect 47 0 45 0;
#X connect 48 0 47 0;
#X connect 49 0 12 0;
#X connect 50 0 65 0;
#X connect 51 0 116 13;
#X connect 52 0 4 0;
#X connect 53 0 116 14;
#X connect 54 0 116 14;
#X connect 54 0 116 15;
#X connect 55 0 116 16;
#X connect 56 0 117 13;
#X connect 57 0 117 14;
#X connect 58 0 117 15;
#X connect 59 0 117 16;
#X connect 60 0 31 0;
#X connect 61 0 77 0;
#X connect 62 0 33 0;
#X connect 63 0 122 1;
#X connect 65 0 116 5;
#X connect 66 0 116 8;
#X connect 67 0 116 3;
#X connect 68 0 116 6;
#X connect 69 0 116 4;
#X connect 70 0 116 2;
#X connect 71 0 116 1;
#X connect 73 0 117 5;
#X connect 74 0 117 8;
#X connect 75 0 117 3;
#X connect 76 0 117 6;
#X connect 77 0 117 4;
#X connect 78 0 117 2;
#X connect 79 0 29 0;
#X connect 80 0 123 1;
#X connect 85 0 8 0;
#X connect 86 0 9 0;
#X connect 87 0 10 0;
#X connect 88 0 11 0;
#X connect 89 0 51 0;
#X connect 90 0 53 0;
#X connect 91 0 54 0;
#X connect 92 0 55 0;
#X connect 94 0 6 0;
#X connect 97 0 23 0;
#X connect 100 0 22 0;
#X connect 101 0 25 0;
#X connect 102 0 26 0;
#X connect 103 0 27 0;
#X connect 104 0 28 0;
#X connect 105 0 56 0;
#X connect 106 0 57 0;
#X connect 107 0 58 0;
#X connect 108 0 59 0;
#X connect 109 0 33 1;
#X connect 110 0 30 1;
#X connect 111 0 18 1;
#X connect 112 0 12 1;
#X connect 116 0 94 0;
#X connect 116 1 122 0;
#X connect 117 0 97 0;
#X connect 117 1 123 0;
#X connect 122 0 125 0;
#X connect 123 0 124 0;
#X coords 0 -1 1 1 118 558 1 100 2;
