#N canvas 153 115 1440 631 10;
#X obj -16550 -1010 select 0 1 2 3 4 5 6 7 8 9 10 11 12 13 14 15;
#X obj -16716 -1327 f;
#X obj -16658 -1327 f;
#X obj -16601 -1327 f;
#X obj -16543 -1327 f;
#X obj -16495 -1327 f;
#X obj -16328 -1326 f;
#X obj -16271 -1326 f;
#X obj -16213 -1326 f;
#X obj -16156 -1326 f;
#X obj -16098 -1326 f;
#X obj -16042 -1326 f;
#X obj -15999 -1327 f;
#X obj -15935 -1322 f;
#X obj -15866 -1325 f;
#X obj -16717 -1350 nbx 5 14 -1e+37 1e+37 0 0 empty empty empty 0 -8
0 10 -262144 -1 -1 6 256;
#X obj -16659 -1349 nbx 5 14 -1e+37 1e+37 0 0 empty empty empty 0 -8
0 10 -262144 -1 -1 17 256;
#X obj -16602 -1349 nbx 5 14 -1e+37 1e+37 0 0 empty empty empty 0 -8
0 10 -262144 -1 -1 23 256;
#X obj -16544 -1349 nbx 5 14 -1e+37 1e+37 0 0 empty empty empty 0 -8
0 10 -262144 -1 -1 6 256;
#X obj -16486 -1352 nbx 5 14 -1e+37 1e+37 0 0 empty empty empty 0 -8
0 10 -262144 -1 -1 6 256;
#X obj -16308 -1352 nbx 5 14 -1e+37 1e+37 0 0 empty empty empty 0 -8
0 10 -262144 -1 -1 6 256;
#X obj -16257 -1353 nbx 5 14 -1e+37 1e+37 0 0 empty empty empty 0 -8
0 10 -262144 -1 -1 6 256;
#X obj -16187 -1353 nbx 5 14 -1e+37 1e+37 0 0 empty empty empty 0 -8
0 10 -262144 -1 -1 6 256;
#X obj -16118 -1347 nbx 5 14 -1e+37 1e+37 0 0 empty empty empty 0 -8
0 10 -262144 -1 -1 6 256;
#X obj -16058 -1350 nbx 5 14 -1e+37 1e+37 0 0 empty empty empty 0 -8
0 10 -262144 -1 -1 6 256;
#X obj -15989 -1353 nbx 5 14 -1e+37 1e+37 0 0 empty empty empty 0 -8
0 10 -262144 -1 -1 6 256;
#X obj -15927 -1355 nbx 5 14 -1e+37 1e+37 0 0 empty empty empty 0 -8
0 10 -262144 -1 -1 6 256;
#X obj -15861 -1356 nbx 5 14 -1e+37 1e+37 0 0 empty empty empty 0 -8
0 10 -262144 -1 -1 6 256;
#X obj -15787 -1351 nbx 5 14 -1e+37 1e+37 0 0 empty empty empty 0 -8
0 10 -262144 -1 -1 6 256;
#X floatatom -15828 -1307 5 0 0 0 - - -;
#X obj -16427 -1400 inlet;
#X obj -16359 -1400 inlet;
#X obj -16299 -1400 inlet;
#X obj -16254 -1396 inlet;
#X obj -16059 -1397 inlet;
#X obj -15990 -1396 inlet;
#X obj -15928 -1392 inlet;
#X obj -15859 -1391 inlet;
#X obj -15795 -1391 inlet;
#X obj -17122 -1342 inlet;
#X obj -17072 -1378 inlet;
#X obj -16719 -1403 inlet;
#X obj -16658 -1403 inlet;
#X obj -16480 -1400 inlet;
#X floatatom -17193 -1131 5 0 0 0 - - -;
#X obj -17261 -1125 mod;
#X obj -17256 -1419 mod;
#X floatatom -17225 -1417 5 0 0 0 - - -;
#X obj -17259 -1233 bng 15 250 50 0 empty empty empty 17 7 0 10 -262144
-1 -1;
#X obj -17261 -1204 f;
#X floatatom -17262 -1177 5 0 0 0 - - -;
#X obj -17261 -1477 inlet;
#X obj -15819 -1054 outlet;
#X obj -17185 -1160 inlet;
#X obj -17151 -1452 inlet;
#X obj -17157 -1249 metro 100;
#X obj -17156 -1277 tgl 15 0 empty empty empty 17 7 0 10 -262144 -1
-1 1 1;
#X floatatom -17094 -1271 5 0 0 0 - - -;
#X floatatom -15820 -1079 5 0 0 0 - - -;
#X floatatom -15769 -1227 5 0 0 0 - - -;
#X obj -15816 -1148 pack \$1 \$2;
#X floatatom -15782 -1281 5 0 0 0 - - -;
#X obj -16537 -1400 inlet;
#X obj -15723 -1403 inlet;
#X obj -16386 -1326 f;
#X obj -16375 -1351 nbx 5 14 -1e+37 1e+37 0 0 empty empty empty 0 -8
0 10 -262144 -1 -1 6 256;
#X obj -16138 -1400 inlet;
#X obj -16445 -1325 f;
#X obj -16429 -1353 nbx 5 14 -1e+37 1e+37 0 0 empty empty empty 0 -8
0 10 -262144 -1 -1 6 256;
#X obj -16185 -1400 inlet;
#X obj -16594 -1402 inlet;
#X obj -17226 -1233 outlet;
#X obj -15821 -1102 line;
#X obj -15783 -1259 * 0;
#X obj -17260 -1154 - 0;
#X obj -17224 -1204 + 1;
#X obj -17256 -1396 sel;
#X obj -17256 -1444 f;
#X obj -17218 -1453 + 1;
#X obj -17160 -1205 bng 15 250 50 0 empty empty empty 17 7 0 10 -262144
-1 -1;
#X floatatom -17192 -1474 5 0 0 0 - - -;
#X connect 0 0 1 0;
#X connect 0 1 2 0;
#X connect 0 2 3 0;
#X connect 0 3 4 0;
#X connect 0 4 5 0;
#X connect 0 5 67 0;
#X connect 0 6 64 0;
#X connect 0 7 6 0;
#X connect 0 8 7 0;
#X connect 0 9 8 0;
#X connect 0 10 9 0;
#X connect 0 11 10 0;
#X connect 0 12 11 0;
#X connect 0 13 12 0;
#X connect 0 14 13 0;
#X connect 0 15 14 0;
#X connect 1 0 29 0;
#X connect 2 0 29 0;
#X connect 3 0 29 0;
#X connect 4 0 29 0;
#X connect 5 0 29 0;
#X connect 6 0 29 0;
#X connect 7 0 29 0;
#X connect 8 0 29 0;
#X connect 9 0 29 0;
#X connect 10 0 29 0;
#X connect 11 0 29 0;
#X connect 12 0 29 0;
#X connect 13 0 29 0;
#X connect 14 0 29 0;
#X connect 15 0 1 1;
#X connect 16 0 2 1;
#X connect 17 0 3 1;
#X connect 18 0 4 1;
#X connect 19 0 5 1;
#X connect 20 0 6 1;
#X connect 21 0 7 1;
#X connect 22 0 8 1;
#X connect 23 0 9 1;
#X connect 24 0 10 1;
#X connect 25 0 11 1;
#X connect 26 0 12 1;
#X connect 27 0 13 1;
#X connect 28 0 14 1;
#X connect 29 0 60 0;
#X connect 30 0 68 0;
#X connect 31 0 65 0;
#X connect 32 0 20 0;
#X connect 33 0 21 0;
#X connect 34 0 24 0;
#X connect 35 0 25 0;
#X connect 36 0 26 0;
#X connect 37 0 27 0;
#X connect 38 0 28 0;
#X connect 39 0 56 0;
#X connect 40 0 57 0;
#X connect 41 0 15 0;
#X connect 42 0 16 0;
#X connect 43 0 19 0;
#X connect 44 0 45 1;
#X connect 45 0 0 0;
#X connect 46 0 76 0;
#X connect 47 0 46 1;
#X connect 48 0 49 0;
#X connect 48 0 71 0;
#X connect 49 0 50 0;
#X connect 49 0 75 0;
#X connect 50 0 74 0;
#X connect 51 0 77 0;
#X connect 51 0 80 0;
#X connect 53 0 44 0;
#X connect 54 0 47 0;
#X connect 55 0 79 0;
#X connect 56 0 55 0;
#X connect 57 0 55 1;
#X connect 57 0 73 1;
#X connect 58 0 52 0;
#X connect 59 0 60 1;
#X connect 60 0 72 0;
#X connect 61 0 73 0;
#X connect 62 0 18 0;
#X connect 63 0 61 0;
#X connect 64 0 29 0;
#X connect 65 0 64 1;
#X connect 66 0 23 0;
#X connect 67 0 29 0;
#X connect 68 0 67 1;
#X connect 69 0 22 0;
#X connect 70 0 17 0;
#X connect 72 0 58 0;
#X connect 73 0 59 0;
#X connect 74 0 45 0;
#X connect 75 0 49 1;
#X connect 76 0 48 0;
#X connect 77 0 78 0;
#X connect 77 0 46 0;
#X connect 78 0 77 1;
#X connect 79 0 49 0;
