#N canvas 692 75 1680 1028 12;
#X floatatom 149 437 5 0 0 0 - - -;
#X obj 147 389 pack \$1 \$2;
#X obj 148 414 line;
#X obj 116 237 metro 100;
#X floatatom 256 423 12 0 0 0 - - -;
#X floatatom 221 631 12 0 0 0 - - -;
#X obj -57 247 /;
#X floatatom -57 270 5 0 0 0 - - -;
#X obj 222 568 r looplenghtA;
#X obj -52 218 t b f;
#X obj -118 263 mod;
#X obj -118 171 f;
#X floatatom -118 241 5 0 0 0 - - -;
#X obj -86 169 + 1;
#X obj -115 149 spigot-toggle_red;
#X obj -10 330 bng 15 250 50 0 empty empty empty 17 7 0 10 -262144
-1 -1;
#X obj -118 287 sel;
#X obj -57 293 * 0.5;
#X obj 247 304 t b f;
#X floatatom 245 119 8 0 0 0 - - -;
#X obj 226 119 bng 18 250 50 0 empty empty ø 3 7 1 20 -260097 -1 -1
;
#X obj -49 172 r T$mod;
#X floatatom -52 196 12 0 0 0 - - -;
#X obj -114 123 r BBmod;
#X obj 104 101 hsl 510 17 1 40 0 0 empty empty TimeStretch 140 9 1
10 -1 -260097 -260097 900 1;
#X obj 192 5 r lo;
#X obj 152 510 s line_pause;
#X obj 198 248 sel;
#X obj 198 279 bng 15 250 50 0 empty empty empty 17 7 0 10 -262144
-1 -1;
#X obj 226 178 bng 15 250 50 0 empty empty empty 17 7 0 10 -262144
-1 -1;
#X obj 150 464 * 0.01;
#X floatatom 152 487 5 0 0 0 - - -;
#X obj 3 21 r reposetoinoffA;
#X obj 296 118 tgl 18 0 empty empty A 6 9 1 10 -1 -260097 -260097 0
1;
#X obj 313 118 tgl 18 0 empty empty B 6 9 1 10 -1 -260097 -260097 0
1;
#X obj 359 -108 r B;
#X obj 353 -39 spigot-toggle_violet;
#X obj 304 -39 spigot-toggle_violet;
#X obj 311 -108 r A;
#X obj 303 -14 + 1;
#X obj 351 -14 + 1;
#X floatatom 190 -132 5 0 0 0 - - -;
#X obj 145 -134 / 127;
#X floatatom 148 2 12 0 0 2 - - -;
#X obj 147 -110 - 1;
#X obj 151 -81 * -1;
#X obj 150 -155 ctlin 48;
#X obj 104 147 hsl 509 9 0 100 0 0 empty empty OUT 480 5 1 9 -1 -260097
-260097 50800 1;
#X obj 144 346 f;
#X obj 48 363 f;
#X msg 58 88 100;
#X obj 100 118 cnv 15 125 20 empty empty empty 20 12 0 11 -1 -1 0;
#X obj 176 119 tgl 18 0 empty empty Auto 21 10 1 9 -1 -260097 -260097
1 1;
#X obj 102 119 tgl 18 0 empty empty Clock@A 21 10 1 9 -1 -260097 -260097
0 1;
#X obj 332 119 cnv 15 284 17 empty empty empty 20 12 0 14 -1 -66577
0;
#X floatatom 77 533 5 0 0 0 - - -;
#X floatatom 76 561 5 0 0 0 - - -;
#X obj 126 550 t b f;
#X floatatom 136 604 5 0 0 0 - - -;
#X obj 225 674 t b f;
#X obj 230 699 * 1;
#X floatatom 232 725 12 0 0 0 - - -;
#X obj 135 627 * 0.01;
#X floatatom 137 653 5 0 0 0 - - -;
#X obj 150 -24 + 1;
#X obj 104 137 hsl 509 9 0 100 0 0 empty empty IN 12 5 1 9 -1 -260097
-260097 0 1;
#X obj 131 577 - 0;
#X obj 152 -58 * 20;
#X obj 303 -66 * 20;
#X obj 355 -66 * 20;
#X obj 221 602 * 1;
#X obj 261 384 * 1;
#X obj 419 279 f;
#X floatatom 424 374 12 0 0 0 - - -;
#X obj 429 345 + 1;
#X obj 398 674 t b f;
#X obj 403 699 * 1;
#X floatatom 405 725 12 0 0 0 - - -;
#X obj 424 404 - 1;
#X floatatom 424 466 12 0 0 0 - - -;
#X obj 425 433 * -1;
#X obj 413 238 r posvisu;
#X obj 35 310 t b b;
#X connect 0 0 30 0;
#X connect 1 0 2 0;
#X connect 2 0 0 0;
#X connect 3 0 15 0;
#X connect 4 0 3 1;
#X connect 4 0 1 1;
#X connect 5 0 60 0;
#X connect 5 0 71 0;
#X connect 5 0 75 0;
#X connect 6 0 7 0;
#X connect 7 0 17 0;
#X connect 8 0 70 0;
#X connect 9 0 6 0;
#X connect 9 1 6 1;
#X connect 10 0 16 0;
#X connect 11 0 12 0;
#X connect 11 0 13 0;
#X connect 12 0 10 0;
#X connect 13 0 11 1;
#X connect 14 0 11 0;
#X connect 15 0 82 0;
#X connect 16 0 15 0;
#X connect 17 0 10 1;
#X connect 18 0 71 0;
#X connect 18 1 71 1;
#X connect 19 0 18 0;
#X connect 19 0 29 0;
#X connect 20 0 15 0;
#X connect 21 0 22 0;
#X connect 22 0 9 0;
#X connect 23 0 14 0;
#X connect 24 0 19 0;
#X connect 25 0 24 0;
#X connect 25 0 50 0;
#X connect 27 0 28 0;
#X connect 28 0 49 0;
#X connect 29 0 82 0;
#X connect 30 0 31 0;
#X connect 31 0 26 0;
#X connect 32 0 52 0;
#X connect 33 0 37 1;
#X connect 34 0 36 1;
#X connect 35 0 69 0;
#X connect 36 0 40 0;
#X connect 37 0 39 0;
#X connect 38 0 68 0;
#X connect 39 0 43 0;
#X connect 40 0 43 0;
#X connect 42 0 44 0;
#X connect 43 0 24 0;
#X connect 44 0 45 0;
#X connect 45 0 67 0;
#X connect 46 0 42 0;
#X connect 46 1 41 0;
#X connect 47 0 48 1;
#X connect 47 0 56 0;
#X connect 48 0 1 0;
#X connect 49 0 2 0;
#X connect 50 0 47 0;
#X connect 50 0 24 0;
#X connect 52 0 27 0;
#X connect 52 0 3 0;
#X connect 53 0 27 0;
#X connect 53 0 14 1;
#X connect 55 0 57 0;
#X connect 56 0 66 0;
#X connect 57 0 66 0;
#X connect 57 1 66 1;
#X connect 58 0 62 0;
#X connect 59 0 60 0;
#X connect 59 1 60 1;
#X connect 60 0 61 0;
#X connect 61 0 6 0;
#X connect 62 0 63 0;
#X connect 63 0 59 0;
#X connect 64 0 43 0;
#X connect 65 0 49 1;
#X connect 65 0 55 0;
#X connect 66 0 58 0;
#X connect 67 0 64 0;
#X connect 68 0 37 0;
#X connect 69 0 36 0;
#X connect 70 0 5 0;
#X connect 71 0 4 0;
#X connect 72 0 74 0;
#X connect 73 0 78 0;
#X connect 74 0 73 0;
#X connect 75 0 76 0;
#X connect 75 1 76 1;
#X connect 76 0 77 0;
#X connect 78 0 80 0;
#X connect 79 0 76 0;
#X connect 80 0 79 0;
#X connect 81 0 72 1;
#X connect 82 0 48 0;
#X connect 82 1 49 0;
#X coords 0 -1 1 1 516 56 2 100 100;
