#N canvas 35 0 1680 1028 12;
#X floatatom 752 503 12 0 0 0 - - -;
#X obj 741 429 r looplenghtA;
#X floatatom 156 101 5 0 0 0 - - -;
#X obj 158 71 bng 18 250 50 0 empty empty empty 3 7 1 20 -260097 -1
-1;
#X obj 193 101 hsl 412 18 1 100 0 0 empty empty TimeStretch 5 11 1
10 -16662 -260097 -260097 18306 1;
#X obj 190 -12 r lo;
#X obj 238 208 bng 15 250 50 0 empty empty empty 17 7 0 10 -262144
-1 -1;
#X obj 1 4 r reposetoinoffA;
#X obj 120 101 tgl 18 0 empty empty A 6 9 1 10 -1 -260097 -260097 0
1;
#X obj 137 101 tgl 18 0 empty empty B 6 9 1 10 -1 -260097 -260097 0
1;
#X obj 357 -125 r B;
#X obj 351 -56 spigot-toggle_violet;
#X obj 302 -56 spigot-toggle_violet;
#X obj 309 -125 r A;
#X obj 301 -31 + 1;
#X obj 349 -31 + 1;
#X floatatom 199 -125 5 0 0 0 - - -;
#X obj 154 -127 / 127;
#X floatatom 146 -29 12 0 0 2 - - -;
#X obj 104 139 hsl 502 9 0 1 0 0 empty empty OUT 478 5 1 9 -1 -260097
-260097 50100 1;
#X obj 101 101 tgl 18 0 empty empty ☞ 2 9 0 25 -260097 -1 -1 0 1
;
#X floatatom 983 377 5 0 0 0 - - -;
#X floatatom 954 441 5 0 0 0 - - -;
#X obj 1017 409 t b f;
#X floatatom 1015 459 5 0 0 0 - - -;
#X obj 850 536 t b f;
#X floatatom 860 594 12 0 0 0 - - -;
#X floatatom 1016 508 5 0 0 0 - - -;
#X obj 148 -51 + 1;
#X obj 104 120 hsl 502 9 0 1 0 0 empty empty IN 6 5 1 9 -1 -260097
-260097 0 1;
#X obj 301 -83 * 20;
#X obj 353 -83 * 20;
#X obj 750 472 * 1;
#X obj 1021 436 - 0;
#X obj 104 130 hsl 502 8 0 1 0 0 empty empty empty 3 -22 1 84 -260097
-1 -1 0 1;
#X obj -84 552 bng 15 250 50 0 empty empty empty 17 7 0 10 -262144
-1 -1;
#X obj -107 555 bng 15 250 50 0 empty empty empty 17 7 0 10 -262144
-1 -1;
#X obj 855 561 * 1;
#X obj -67 403 pack \$1 \$2;
#X obj -66 428 line;
#X floatatom 641 758 12 0 0 0 - - -;
#X floatatom -108 456 12 0 0 0 - - -;
#X obj -58 347 bng 15 250 50 0 empty empty empty 17 7 0 10 -262144
-1 -1;
#X obj -59 371 f;
#X obj 633 792 t b f;
#X obj 631 834 * 1;
#X floatatom 633 864 12 0 0 0 - - -;
#X obj 1014 482 * 1;
#X obj -38 600 delay 10;
#X obj -104 342 bng 15 250 50 0 empty empty empty 17 7 0 10 -262144
-1 -1;
#X obj -99 378 f;
#X obj -109 528 sel 0;
#X obj 959 467 + 0.01;
#X obj -18 562 spigot-toggle_red;
#X obj 13 650 f;
#X obj 43 605 bng 15 250 50 0 empty empty empty 17 7 0 10 -262144 -1
-1;
#X floatatom 13 675 12 0 0 0 - - -;
#X obj 750 698 t b f;
#X floatatom 753 753 12 0 0 0 - - -;
#X obj 12 699 * -1;
#X floatatom 12 751 12 0 0 0 - - -;
#X obj 12 722 + 1;
#X msg 56 71 1;
#X obj 755 723 * 1;
#X obj -106 486 == 1;
#X obj -36 811 s stretchA;
#X obj 159 -148 ctlin 52;
#X obj 101 -120 - 1;
#X obj 100 -84 * -1;
#X obj 150 -75 * 100;
#X obj 501 -78 notein;
#X floatatom 516 -42 5 0 0 0 - - -;
#X floatatom 468 -42 5 0 0 0 - - -;
#X floatatom 561 -47 5 0 0 0 - - -;
#X obj 468 -17 == 52;
#X obj 461 49 spigot-toggle_red;
#X obj 540 4 bng 15 250 50 0 empty empty empty 17 7 0 10 -262144 -1
-1;
#X obj 517 6 bng 15 250 50 0 empty empty empty 17 7 0 10 -262144 -1
-1;
#X obj 516 -23 sel;
#X obj 518 26 f;
#X obj 549 28 + 1;
#X floatatom 462 25 5 0 0 0 - - -;
#X obj 519 50 mod 2;
#X connect 0 0 37 0;
#X connect 1 0 32 0;
#X connect 2 0 6 0;
#X connect 3 0 6 0;
#X connect 4 0 2 0;
#X connect 4 0 40 0;
#X connect 5 0 4 0;
#X connect 5 0 62 0;
#X connect 6 0 42 0;
#X connect 6 0 55 0;
#X connect 7 0 20 0;
#X connect 8 0 12 1;
#X connect 9 0 11 1;
#X connect 10 0 31 0;
#X connect 11 0 15 0;
#X connect 12 0 14 0;
#X connect 13 0 30 0;
#X connect 14 0 18 0;
#X connect 15 0 18 0;
#X connect 17 0 67 0;
#X connect 18 0 4 0;
#X connect 19 0 22 0;
#X connect 19 0 43 1;
#X connect 19 0 64 1;
#X connect 20 0 53 1;
#X connect 20 0 35 0;
#X connect 21 0 23 0;
#X connect 22 0 52 0;
#X connect 23 0 33 0;
#X connect 23 1 33 1;
#X connect 24 0 47 0;
#X connect 25 0 37 0;
#X connect 25 1 37 1;
#X connect 26 0 63 0;
#X connect 27 0 25 0;
#X connect 27 0 42 0;
#X connect 27 0 55 0;
#X connect 28 0 18 0;
#X connect 29 0 50 1;
#X connect 29 0 21 0;
#X connect 30 0 12 0;
#X connect 31 0 11 0;
#X connect 32 0 0 0;
#X connect 33 0 24 0;
#X connect 34 0 65 0;
#X connect 35 0 49 0;
#X connect 35 0 53 0;
#X connect 35 0 55 0;
#X connect 37 0 26 0;
#X connect 38 0 39 0;
#X connect 39 0 41 0;
#X connect 40 0 44 0;
#X connect 41 0 34 0;
#X connect 41 0 54 1;
#X connect 41 0 64 0;
#X connect 42 0 43 0;
#X connect 43 0 38 0;
#X connect 44 0 45 0;
#X connect 44 1 45 1;
#X connect 45 0 46 0;
#X connect 46 0 38 1;
#X connect 48 0 42 0;
#X connect 49 0 50 0;
#X connect 50 0 39 0;
#X connect 51 0 36 0;
#X connect 51 1 35 0;
#X connect 52 0 33 0;
#X connect 53 0 48 0;
#X connect 54 0 56 0;
#X connect 55 0 54 0;
#X connect 56 0 59 0;
#X connect 57 0 63 0;
#X connect 57 1 63 1;
#X connect 58 0 45 0;
#X connect 59 0 61 0;
#X connect 60 0 57 0;
#X connect 61 0 60 0;
#X connect 62 0 19 0;
#X connect 62 0 4 0;
#X connect 63 0 58 0;
#X connect 64 0 51 0;
#X connect 66 0 17 0;
#X connect 66 1 16 0;
#X connect 67 0 68 0;
#X connect 68 0 69 0;
#X connect 69 0 28 0;
#X connect 70 0 72 0;
#X connect 70 1 71 0;
#X connect 70 2 73 0;
#X connect 71 0 78 0;
#X connect 72 0 74 0;
#X connect 74 0 75 1;
#X connect 75 0 20 0;
#X connect 77 0 79 0;
#X connect 78 0 77 0;
#X connect 78 1 76 0;
#X connect 79 0 80 0;
#X connect 79 0 82 0;
#X connect 80 0 79 1;
#X connect 81 0 75 0;
#X connect 82 0 81 0;
#X coords 0 -1 1 1 508 48 2 100 100;
