#N canvas 702 82 1615 895 12;
#X obj 246 468 f;
#X obj 288 477 f;
#X obj 243 690 bng 15 250 50 0 empty empty empty 17 7 0 10 -262144
-1 -1;
#X obj 281 22 t b b;
#X obj 289 377 bng 15 250 50 0 empty empty empty 17 7 0 10 -262144
-1 -1;
#X obj 246 381 bng 15 250 50 0 empty empty empty 17 7 0 10 -262144
-1 -1;
#X obj 106 235 f;
#X obj 103 177 bng 15 250 50 0 empty empty empty 17 7 0 10 -262144
-1 -1;
#X obj 370 779 loadbang;
#X msg 502 793 1000;
#X obj 245 576 hsl 512 8 0 1000 0 0 empty empty empty -2 -8 0 10 -1
-258113 -1 0 1;
#X obj 241 620 delay 10;
#X obj 245 652 delay 10;
#X msg 311 444 1e+12;
#X floatatom 845 262 5 0 0 0 - - -;
#X floatatom 851 431 12 0 0 0 - - -;
#X obj 836 460 * 1;
#X floatatom 837 501 12 0 0 0 - - -;
#X obj 243 528 line;
#X obj 283 1 delay 2;
#X obj 289 -29 bng 15 250 50 0 empty empty empty 17 7 0 10 -262144
-1 -1;
#X msg 542 794 9999;
#X floatatom 853 334 5 0 0 0 - - -;
#X floatatom 852 377 5 0 0 0 - - -;
#X obj 778 731 t b f;
#X obj 780 753 * 1;
#X obj 791 497 f;
#X obj 851 310 - 0;
#X obj 147 823 f;
#X obj 147 803 bng 15 250 50 0 empty empty empty 17 7 0 10 -262144
-1 -1;
#X obj 440 794 delay 100;
#X obj -84 39 r B;
#X obj -94 106 spigot-toggle_violet;
#X obj 776 703 spigot-toggle_violet;
#X floatatom 903 334 5 0 0 0 - - -;
#X obj 244 497 pack f f;
#X obj 846 286 t b f;
#X obj 853 352 * 0.001;
#X obj 618 313 s line_pause;
#X obj -92 81 * 100;
#X obj -50 110 spigot-toggle_violet;
#X obj -51 83 * 100;
#X obj -43 41 r A;
#X obj 708 21 delay 300;
#X obj 717 791 f;
#X obj 718 761 bng 15 250 50 0 empty empty empty 17 7 0 10 -262144
-1 -1;
#X obj 779 812 spigot-toggle_violet;
#X obj 837 526 + 1;
#X obj -51 135 + 1;
#X obj -96 132 + 1;
#X obj 629 593 inlet;
#X floatatom 647 690 12 0 0 0 - - -;
#X obj 601 610 bng 15 250 50 0 empty empty empty 17 7 0 10 -262144
-1 -1;
#X obj 644 631 sel;
#X msg 651 656 1e+11;
#X obj 120 -177 r lo;
#X obj 147 740 t b b b b;
#X obj 199 769 delay 100;
#X floatatom 103 141 8 0 0 0 IN - -;
#X floatatom 570 100 7 0 0 0 OUT - -;
#X floatatom 717 853 8 0 0 1 free_lenght - -;
#X obj 194 100 bng 15 250 50 0 empty empty resum 18 6 1 11 -128992
-260097 -191407;
#X floatatom 290 100 8 0 0 1 - - -;
#X obj 354 100 tgl 15 0 empty empty B 5 8 0 11 -66577 -260097 -260097
0 1;
#X floatatom 778 775 12 0 0 1 - - -;
#X obj 243 100 bng 15 250 50 0 empty empty * 80 16 1 33 -128992 -260097
-1;
#X floatatom 616 176 12 0 0 0 - - -;
#X obj 781 666 tgl 15 0 empty empty << 2 7 0 10 -262144 -1 -1 0 1;
#X obj 338 100 tgl 15 0 empty empty A 5 8 0 11 -66577 -260097 -260097
0 1;
#X obj 807 647 r lo;
#X obj 31 -15 inlet;
#X obj 108 20 sel;
#X obj 88 277 outlet;
#X msg 119 -156 1000;
#X floatatom 304 -61 5 0 0 0 reposetoiX#A - reposetoiX#A;
#X floatatom 304 -77 5 0 0 0 reçoit_de_reposetoiX#A send_reposetoiX#A
-;
#X obj 94 -52 r send_reposetoinoffA;
#X obj 102 196 spigot-toggle_violet;
#X obj 245 426 spigot-toggle_violet;
#X obj -25 410 tgl 15 0 empty empty empty 17 7 0 10 -262144 -1 -1 0
1;
#X obj 123 164 r lo;
#X floatatom 673 593 12 0 0 0 - - -;
#X obj 241 548 spigot-toggle_violet;
#X msg 119 -106 3;
#X obj 66 579 / 1000;
#X floatatom 768 639 5 0 0 1 - - -;
#X floatatom -127 -24 5 0 0 0 - - -;
#X obj -172 -26 / 127;
#X floatatom -173 121 12 0 0 2 - - -;
#X obj -170 -2 - 1;
#X obj -166 27 * -1;
#X obj -167 -47 ctlin 48;
#X msg 242 138 0;
#X obj 768 609 r looplenghtA;
#X obj 443 100 cnv 15 38 16 empty empty IN 25 10 1 9 -66577 -262144
0;
#X obj 533 100 cnv 15 36 16 empty empty OUT 14 10 1 9 -66577 -262144
0;
#X obj 258 100 cnv 13 33 16 empty empty pause 1 8 1 11 -66577 -262144
0;
#X obj 209 100 cnv 15 33 15 empty empty resum 1 8 1 11 -66577 -262144
0;
#X obj 104 116 hsl 508 8 0 1000 0 0 empty empty empty 1 5 1 11 -66577
-260097 -262144 0 1;
#X obj 104 125 hsl 508 9 0 1000 0 0 empty empty empty 1 5 1 11 -66577
-260097 -262144 0 1;
#X obj 100 100 cnv 15 93 16 empty empty ->-TIME_STRECH->- 1 7 1 9 -66577
-262144 0;
#X obj -165 50 * 40;
#X obj -167 84 + 0;
#X obj 795 703 + 1;
#X floatatom 837 548 12 0 0 0 - - -;
#X obj 758 -14 loadbang;
#X obj 796 50 r ABselectA;
#X obj 807 154 sel;
#X obj 826 188 bng 15 250 50 0 empty empty empty 17 7 0 10 -262144
-1 -1;
#X obj 805 188 bng 15 250 50 0 empty empty empty 17 7 0 10 -262144
-1 -1;
#X msg 804 218 0;
#X obj 616 245 t b f;
#X obj 621 268 * 1;
#X floatatom 616 292 12 0 0 0 - - -;
#X obj 383 146 / 40;
#X floatatom 644 218 12 0 0 0 - - -;
#X obj 7 482 - 1;
#X obj 11 511 * -1;
#X obj 627 354 spigot-toggle_violet;
#X obj 242 587 select 1000;
#X connect 0 0 35 0;
#X connect 1 0 35 1;
#X connect 2 0 3 0;
#X connect 3 0 5 0;
#X connect 3 1 4 0;
#X connect 4 0 1 0;
#X connect 5 0 78 0;
#X connect 6 0 18 0;
#X connect 7 0 77 0;
#X connect 8 0 9 0;
#X connect 8 0 30 0;
#X connect 8 0 21 0;
#X connect 9 0 59 0;
#X connect 9 0 60 0;
#X connect 10 0 14 0;
#X connect 10 0 84 0;
#X connect 10 0 119 0;
#X connect 11 0 7 0;
#X connect 11 0 12 0;
#X connect 11 0 29 0;
#X connect 12 0 2 0;
#X connect 13 0 1 1;
#X connect 13 0 3 0;
#X connect 14 0 36 0;
#X connect 15 0 16 1;
#X connect 16 0 17 0;
#X connect 17 0 20 0;
#X connect 17 0 26 1;
#X connect 17 0 47 0;
#X connect 18 0 82 0;
#X connect 19 0 3 0;
#X connect 20 0 19 0;
#X connect 21 0 60 0;
#X connect 22 0 37 0;
#X connect 24 0 25 0;
#X connect 24 1 25 1;
#X connect 25 0 64 0;
#X connect 26 0 17 0;
#X connect 27 0 22 0;
#X connect 28 0 16 0;
#X connect 29 0 28 0;
#X connect 30 0 45 0;
#X connect 30 0 9 0;
#X connect 30 0 13 0;
#X connect 31 0 39 0;
#X connect 32 0 49 0;
#X connect 33 0 24 0;
#X connect 35 0 18 0;
#X connect 36 0 27 0;
#X connect 36 1 27 1;
#X connect 37 0 23 0;
#X connect 37 0 15 0;
#X connect 39 0 32 0;
#X connect 40 0 48 0;
#X connect 41 0 40 0;
#X connect 42 0 41 0;
#X connect 43 0 45 0;
#X connect 43 0 65 0;
#X connect 44 0 60 0;
#X connect 45 0 44 0;
#X connect 46 0 60 0;
#X connect 47 0 104 0;
#X connect 48 0 62 0;
#X connect 49 0 62 0;
#X connect 50 0 52 0;
#X connect 50 0 53 0;
#X connect 50 0 81 0;
#X connect 52 0 20 0;
#X connect 53 0 54 0;
#X connect 54 0 51 0;
#X connect 54 0 60 0;
#X connect 55 0 73 0;
#X connect 55 0 83 0;
#X connect 56 0 29 0;
#X connect 56 1 29 0;
#X connect 56 2 29 0;
#X connect 56 3 29 0;
#X connect 56 3 57 0;
#X connect 57 0 29 0;
#X connect 58 0 6 1;
#X connect 58 0 29 0;
#X connect 59 0 0 1;
#X connect 59 0 3 0;
#X connect 59 0 27 0;
#X connect 59 0 29 0;
#X connect 59 0 119 1;
#X connect 60 0 28 1;
#X connect 61 0 26 0;
#X connect 62 0 29 0;
#X connect 62 0 56 0;
#X connect 62 0 72 0;
#X connect 62 0 74 0;
#X connect 62 0 103 0;
#X connect 62 0 114 0;
#X connect 63 0 32 1;
#X connect 64 0 46 0;
#X connect 64 0 44 1;
#X connect 64 0 60 0;
#X connect 65 0 92 0;
#X connect 65 0 13 0;
#X connect 66 0 111 0;
#X connect 66 0 113 0;
#X connect 67 0 33 1;
#X connect 67 0 46 1;
#X connect 68 0 40 1;
#X connect 69 0 67 0;
#X connect 70 0 71 0;
#X connect 70 0 79 0;
#X connect 71 0 65 0;
#X connect 71 1 61 0;
#X connect 73 0 99 0;
#X connect 75 0 62 0;
#X connect 76 0 71 0;
#X connect 77 0 12 0;
#X connect 77 0 6 0;
#X connect 78 0 0 0;
#X connect 79 0 78 1;
#X connect 79 0 77 1;
#X connect 79 0 82 1;
#X connect 79 0 116 0;
#X connect 82 0 10 0;
#X connect 83 0 62 0;
#X connect 84 0 66 0;
#X connect 85 0 33 0;
#X connect 87 0 89 0;
#X connect 88 0 62 0;
#X connect 89 0 90 0;
#X connect 90 0 101 0;
#X connect 91 0 87 0;
#X connect 91 1 86 0;
#X connect 92 0 84 0;
#X connect 93 0 85 0;
#X connect 98 0 58 0;
#X connect 99 0 59 0;
#X connect 101 0 102 0;
#X connect 102 0 88 0;
#X connect 103 0 25 0;
#X connect 104 0 1 1;
#X connect 105 0 43 0;
#X connect 106 0 107 0;
#X connect 107 0 109 0;
#X connect 107 1 108 0;
#X connect 108 0 110 0;
#X connect 110 0 118 0;
#X connect 111 0 112 0;
#X connect 111 1 112 1;
#X connect 113 0 38 0;
#X connect 114 0 115 0;
#X connect 115 0 112 0;
#X connect 116 0 117 0;
#X connect 117 0 118 1;
#X connect 118 0 1 1;
#X connect 118 0 119 0;
#X connect 119 0 11 0;
