#N canvas 0 22 450 300 12;
#X obj 189 156 pack f f;
#X obj 187 111 makenote 127 500;
#X msg 180 56 80;
#X obj 181 194 midiformat;
#X obj 178 222 seq;
#X floatatom 178 246 5 0 0 0 - - -;
#X msg 338 145 record;
#X msg 333 190 stop record;
#X msg 291 245 write test.mid;
#X connect 0 0 3 0;
#X connect 1 0 0 0;
#X connect 1 1 0 1;
#X connect 2 0 1 0;
#X connect 3 0 4 0;
#X connect 4 0 5 0;
#X connect 6 0 4 0;
#X connect 7 0 4 0;
#X connect 8 0 4 0;
