#N canvas 705 19 1392 1028 10;
#X obj 226 64 cnv 15 170 340 empty empty empty 20 12 0 14 -228992 -66577
0;
#X obj 228 504 cnv 15 100 60 empty empty empty 20 12 0 14 -195568 -66577
0;
#N canvas 0 22 450 300 gemwin 0;
#X obj 132 136 gemwin;
#X obj 67 89 outlet;
#X obj 67 10 inlet;
#X obj 67 41 route create;
#X msg 67 70 set destroy;
#X msg 142 68 set create;
#X msg 132 112 create \, 1;
#X msg 198 112 destroy;
#X connect 2 0 3 0;
#X connect 3 0 4 0;
#X connect 3 0 6 0;
#X connect 3 1 5 0;
#X connect 3 1 7 0;
#X connect 4 0 1 0;
#X connect 5 0 1 0;
#X connect 6 0 0 0;
#X connect 7 0 0 0;
#X restore 234 543 pd gemwin;
#X msg 234 524 create;
#X text 230 503 Create window:;
#X obj 228 235 cnv 15 160 60 empty empty empty 20 12 0 14 -24198 -66577
0;
#X floatatom 289 239 5 0 0 0 - - -;
#X msg 362 324 0 1 1;
#X floatatom 239 379 5 0 0 0 - - -;
#X obj 228 400 translateXYZ;
#X floatatom 298 41 5 0 0 0 - - -;
#X floatatom 332 39 5 0 0 0 - - -;
#X obj 252 95 translateXYZ;
#X obj 250 236 line;
#X obj 295 140 bng 15 250 50 0 empty empty empty 17 7 0 10 -262144
-1 -1;
#X obj 248 194 pack \$1 \$2;
#X obj 295 158 f;
#X obj 325 159 + 1;
#X obj 634 64 cnv 15 170 340 empty empty empty 20 12 0 14 -228992 -66577
0;
#X obj 369 177 r T$;
#X floatatom 249 137 5 0 0 0 - - -;
#X floatatom 343 448 5 0 0 0 - - -;
#X obj 236 423 color;
#X floatatom 303 450 5 0 0 0 - - -;
#X obj 434 64 cnv 15 170 340 empty empty empty 20 12 0 14 -228992 -66577
0;
#X obj 436 235 cnv 15 160 60 empty empty empty 20 12 0 14 -24198 -66577
0;
#X floatatom 496 243 5 0 0 0 - - -;
#X msg 550 255 1 0 0;
#X msg 550 276 0 1 1;
#X obj 464 428 color;
#X obj 502 138 bng 15 250 50 0 empty empty empty 17 7 0 10 -262144
-1 -1;
#X obj 456 199 pack \$1 \$2;
#X obj 500 156 f;
#X obj 529 158 + 1;
#X obj 568 189 r T$;
#X floatatom 454 136 5 0 0 0 - - -;
#X obj 560 130 r ITA;
#X obj 454 178 * 360;
#X obj 455 242 line;
#X obj 747 178 r STPA;
#X obj 513 580 r lo;
#X obj 248 154 * -1;
#X obj 247 173 * 360;
#X obj 454 157 * -1;
#X floatatom 537 452 5 0 0 0 - - -;
#X floatatom 592 451 5 0 0 0 - - -;
#X obj 370 122 r BB;
#X obj 2094 466 cnv 15 170 340 empty empty empty 20 12 0 14 -228992
-66577 0;
#X msg 2165 607 draw line;
#X msg 2165 628 draw fill;
#X msg 2165 650 draw point;
#X floatatom 2216 732 5 0 0 2 size - -;
#X obj 1892 96 cnv 15 170 340 empty empty empty 20 12 0 14 -228992
-66577 0;
#X obj 1040 64 cnv 15 170 340 empty empty empty 20 12 0 14 -228992
-66577 0;
#X msg 1926 146 draw line;
#X msg 1927 175 draw fill;
#X msg 1925 201 draw point;
#X obj 1929 311 color;
#X msg 2105 160 draw line;
#X msg 2106 189 draw fill;
#X msg 2102 213 draw point;
#X obj 2125 324 color;
#X msg 2163 292 1 1 1;
#X floatatom 1178 310 5 0 0 0 - - -;
#X floatatom 2015 400 5 0 0 0 - - -;
#X floatatom 2009 358 5 0 0 0 - - -;
#X floatatom 1927 340 5 0 0 0 - - -;
#X floatatom 1972 339 5 0 0 0 - - -;
#X floatatom 2013 339 5 0 0 0 - - -;
#X floatatom 1927 340 5 0 0 0 - - -;
#X floatatom 1972 339 5 0 0 0 - - -;
#X floatatom 2225 346 5 0 0 0 - - -;
#X floatatom 2139 347 5 0 0 0 - - -;
#X floatatom 2184 346 5 0 0 0 - - -;
#X obj 2121 375 translateXYZ;
#X floatatom 2225 346 5 0 0 0 - - -;
#X floatatom 2139 347 5 0 0 0 - - -;
#X floatatom 2184 346 5 0 0 0 - - -;
#X obj 2121 375 translateXYZ;
#X floatatom 2217 682 5 0 0 0 - - -;
#X floatatom 2131 683 5 0 0 0 - - -;
#X floatatom 2176 682 5 0 0 0 - - -;
#X obj 2113 711 translateXYZ;
#X floatatom 2217 682 5 0 0 0 - - -;
#X floatatom 2131 683 5 0 0 0 - - -;
#X floatatom 2176 682 5 0 0 0 - - -;
#X obj 2113 711 translateXYZ;
#X obj 1046 210 cnv 15 160 60 empty empty empty 20 12 0 14 -24198 -66577
0;
#X obj 1066 306 color;
#X obj 1144 61 r posvisu;
#X obj 799 451 cnv 15 480 700 empty empty empty 20 12 0 14 -228992
-66577 0;
#X floatatom 406 443 5 0 0 0 - - -;
#X floatatom 467 377 5 0 0 0 - - -;
#X obj 444 404 translateXYZ;
#X floatatom 2225 366 5 0 0 0 - - -;
#X obj 1917 391 circle 1.44;
#X obj 2101 396 circle 1.82;
#X obj 2126 470 gemhead 3;
#X obj 2126 774 circle 2.2;
#X obj 915 614 r looplenghtA;
#X obj 907 731 t b f;
#X obj 1022 987 color;
#X obj 404 219 bng 15 250 50 0 empty empty empty 17 7 0 10 -262144
-1 -1;
#X floatatom 901 875 5 0 0 0 - - -;
#X floatatom 914 644 7 0 0 0 - - -;
#X floatatom 1105 340 5 0 0 0 - - -;
#X obj 1023 622 spigot-toggle_red;
#X floatatom 1140 87 5 0 0 0 - - -;
#X obj 932 417 r 44/88_A;
#X floatatom 405 516 5 0 0 0 - - -;
#X floatatom 404 579 5 0 0 0 - - -;
#X floatatom 2235 396 5 0 0 0 - - -;
#X floatatom 1182 176 5 0 0 0 - - -;
#X floatatom 1062 656 5 0 0 0 - - -;
#X obj 1072 679 > 1;
#X floatatom 235 644 5 0 0 0 - - -;
#X msg 1954 277 0 0 0;
#X obj 233 33 gemhead 3;
#X obj 1929 367 translateXYZ;
#X obj 445 30 gemhead 3;
#X floatatom 936 584 9 0 0 0 - - -;
#X obj 932 677 t b f;
#X obj 909 706 * 1;
#X obj 1061 619 r Amod;
#X obj 1073 703 t b f;
#X obj 938 538 + 1;
#X floatatom 908 785 7 0 0 0 - - -;
#X obj 1057 549 r lo;
#X obj 1936 34 r wdthA;
#X obj 1061 729 - 0;
#X floatatom 1060 758 5 0 0 0 - - -;
#X obj 1185 121 * 8;
#X obj 229 263 rotate 45 0 0 1;
#X obj 443 270 rotate 45 0 0 1;
#X msg 901 453 1;
#X obj 990 816 bng 15 250 50 0 empty empty empty 17 7 0 10 -262144
-1 -1;
#X floatatom 1047 936 5 0 0 0 - - -;
#X obj 1062 637 - 0;
#X obj 1030 523 gemhead 2;
#X obj 991 869 f;
#X obj 1110 984 r lo;
#X obj -129 684 cnv 15 400 340 empty empty empty 20 12 0 14 -228992
-66577 0;
#X obj -122 803 cnv 15 380 95 empty empty empty 20 12 0 14 -24198 -66577
0;
#X obj -139 939 r looplenghtA;
#X obj -127 1049 t b f;
#X obj 94 1217 color;
#X obj -108 795 spigot-toggle_red;
#X floatatom -129 1150 5 0 0 0 - - -;
#X floatatom -145 969 7 0 0 0 - - -;
#X floatatom 39 1065 5 0 0 0 - - -;
#X obj 90 768 spigot-toggle_red;
#X obj -125 1074 /;
#X obj -40 921 r 44/88_A;
#X floatatom 202 741 5 0 0 0 - - -;
#X floatatom 202 836 5 0 0 0 - - -;
#X obj 212 764 > 1;
#X obj 95 1244 rectangle 0.01 8;
#X floatatom -44 996 9 0 0 0 - - -;
#X obj -102 995 t b f;
#X obj -125 1024 * 1;
#X obj 201 704 r Amod;
#X obj -114 748 spigot-toggle_red;
#X obj -84 758 spigot-toggle_red;
#X obj 39 1045 r T$;
#X obj 213 788 t b f;
#X obj -42 950 + 1;
#X floatatom -126 1103 7 0 0 0 - - -;
#X obj 111 731 r lo;
#X obj 201 814 - 0;
#X floatatom 111 1008 5 0 0 0 - - -;
#X obj -126 1123 * 8;
#X obj -84 795 t b f;
#X obj -81 818 + 1;
#X obj -81 841 > 1;
#X msg 136 1215 0 1 0;
#X obj -80 1140 r speedA;
#X obj -43 974 * 1;
#X obj -78 1202 t b f;
#X obj -76 1227 * 1;
#X msg 11 946 1;
#X floatatom 140 1268 5 0 0 0 - - -;
#X obj -70 1160 r pitchNspeedA;
#X floatatom -129 1186 7 0 0 0 - - -;
#X obj 197 878 spigot-toggle_red;
#X obj 229 867 r lo;
#X obj 184 952 bng 15 250 50 0 empty empty empty 17 7 0 10 -262144
-1 -1;
#X obj -49 1227 * 1;
#X floatatom 112 1125 5 0 0 0 - - -;
#X obj 202 722 - 0;
#X obj 84 705 gemhead 2;
#X obj 87 1151 translateXYZ;
#X obj 111 1055 - 4;
#X obj 89 1185 translateXYZ;
#X obj 180 994 f;
#X obj 112 1035 * 8;
#X floatatom 212 974 5 0 0 0 - - -;
#X obj 214 946 r pitchNspeedA;
#X obj 182 1214 r lo;
#X obj -28 660 r onoffAe;
#X obj -29 1064 spigot-toggle_red;
#X obj 3 1053 r lo;
#X obj -29 1084 spigot-toggle_red;
#X floatatom 39 1105 5 0 0 0 - - -;
#X obj 39 1085 r T1;
#X obj -62 1024 r lyrAposA;
#X obj -61 1043 r lyrAposB;
#X floatatom 942 856 5 0 0 0 - - -;
#X obj 1019 1086 rectangle 0.01 8;
#X obj 814 729 spigot-toggle_red;
#X floatatom 669 817 5 0 0 0 - - -;
#X obj 670 792 r T$;
#X obj 669 738 spigot-toggle_red;
#X obj 751 732 spigot-toggle_red;
#X floatatom 740 841 5 0 0 0 - - -;
#X obj 742 819 r T1;
#X obj 741 588 spigot-toggle_red;
#X obj 905 824 * 8;
#X obj 941 875 t b f;
#X obj 667 591 spigot-toggle_red;
#X floatatom 906 931 0 0 0 0 - - -;
#X obj 910 901 * 1;
#X msg 514 426 0 1 1;
#X obj 811 414 r lyrAposB;
#X obj 673 444 r s@pAA;
#X obj 674 499 * 1;
#X obj 742 469 r spAB;
#X obj 742 496 * 1;
#X obj 742 439 r s@pAB;
#X obj 672 474 r spAA;
#X obj -103 723 gemhea d f4;
#X obj -112 694 gemhea d f4;
#X obj 667 412 r lyrAposA;
#X obj 1054 366 rectangle 0.009 8;
#X obj 815 636 spigot-toggle_red;
#X msg 991 564 2;
#X obj 1133 469 r øAtiTS1;
#X obj 909 756 / 1;
#X floatatom 1074 1060 12 0 0 0 - - -;
#X floatatom 1487 903 5 0 0 0 - - -;
#X obj 1763 616 color;
#X obj 1852 617 r lo;
#X obj 1761 504 spigot-toggle_red;
#X floatatom 341 374 5 0 0 0 - - -;
#X floatatom 728 270 5 0 0 0 - - -;
#X floatatom 319 192 5 0 0 0 - - -;
#X obj 476 481 rectangle 0.04 0.08;
#X obj 236 471 rectangle 0.04 0.08;
#X msg 364 343 1 1 1;
#X msg 403 553 0.08;
#X floatatom 723 218 5 0 0 0 - - -;
#X obj 712 199 * 0.0625;
#X obj 723 241 * 8;
#X floatatom 662 312 5 0 0 0 - - -;
#X obj 728 350 * 0.05;
#X msg 342 234 0 0 0;
#X msg 550 234 0 0 0;
#X msg 282 423 1 0 0;
#X msg 362 303 0 0 0;
#X msg 407 492 0.04;
#X obj 522 627 * -1;
#X obj 237 -3 r lo;
#X obj 206 -1 bng 15 250 50 0 empty empty empty 17 7 0 10 -262144 -1
-1;
#X obj 750 252 + 1;
#X msg 406 466 0.25;
#X msg 523 608 2.11;
#X obj 663 291 * 2;
#X obj 668 269 + 0.98;
#X floatatom 405 409 5 0 0 0 - - -;
#X obj 448 98 translateXYZ;
#X floatatom 468 69 5 0 0 0 - - -;
#X floatatom 375 59 5 0 0 0 - - -;
#X floatatom 363 97 5 0 0 0 - - -;
#X obj 366 79 + 0.01;
#X floatatom 715 181 5 0 0 0 - - -;
#X msg 438 -43 0.4;
#X msg 366 2 -0.01;
#X msg 1806 615 0 1 1;
#X obj 676 560 r trgrmodA;
#X obj 1836 1202 spigot-toggle_red;
#X obj 1839 1351 rectangle 0.01 8;
#X floatatom 1971 1333 5 0 0 0 - - -;
#X obj 1839 1259 color;
#X obj 1928 1260 r lo;
#X obj 1864 1280 + 1;
#X floatatom 1871 1233 5 0 0 0 - - -;
#X floatatom 1933 1282 5 0 0 0 - - -;
#X obj 1842 1301 translateXYZ;
#X msg 1882 1258 0 1 1;
#X floatatom 1464 822 5 0 0 0 - - -;
#X obj 1759 480 gemhead 12;
#X floatatom 1338 621 5 0 0 0 - - -;
#X obj 1853 1176 < -4;
#X obj 1875 1083 gemhead 12;
#X obj 1958 1200 +;
#X obj 1972 1153 t b f;
#X floatatom 2000 1127 5 0 0 0 - - -;
#X obj 1007 733 spigot-toggle_red;
#X obj 893 555 * 1;
#X obj 2077 1052 r lo;
#X msg 2011 1067 3;
#X obj 821 667 r lo;
#X msg 789 671 1;
#X floatatom 1353 672 5 0 0 0 - - -;
#X obj 2107 1143 +;
#X floatatom 2105 1166 5 0 0 0 - - -;
#X obj 2111 1084 * 2;
#X obj 2110 1115 t b f;
#X obj 2190 1177 spigot-toggle_red;
#X floatatom 2186 1230 5 0 0 0 - - -;
#X obj 2185 1252 t b f;
#X obj 2186 1209 - 4;
#X obj 2187 1281 - 0;
#X floatatom 2185 1302 12 0 0 0 - - -;
#X obj 2188 1323 * 0.5;
#X floatatom 2264 1274 5 0 0 0 - - -;
#X obj 2108 1202 spigot-toggle_red;
#X obj 2136 1187 < -4;
#X obj 2110 1230 + 4;
#X obj 2116 1313 * -1;
#X obj 2259 1354 spigot-toggle_red;
#X floatatom 2171 1362 12 0 0 0 - - -;
#X obj 2118 1339 * -1;
#X obj 2342 1362 spigot-toggle_red;
#X obj 2202 1121 + 1;
#X obj 2168 1101 < -4;
#X obj 2266 1136 > -4;
#X obj 2270 1323 >;
#X obj 1353 648 + 0;
#X obj 1347 796 spigot-toggle_red;
#X floatatom 1344 844 5 0 0 0 - - -;
#X obj 1344 824 + 4;
#X obj 916 1028 spigot-toggle_red;
#X obj 1249 718 < -4;
#X obj 1249 740 - 1;
#X obj 1248 763 * -1;
#X obj 1456 728 spigot-toggle_red;
#X obj 1457 653 gemhead 2;
#X obj 1442 874 color;
#X obj 1530 871 r lo;
#X msg 1484 872 0 1 0;
#X obj 1464 800 + 4;
#X msg 1157 282 0 0 1;
#X obj 1464 771 * 1;
#X obj 1344 865 * 0.5;
#X obj 866 1485 rectangle 0.01 8;
#X floatatom 912 1465 5 0 0 0 - - -;
#X floatatom 886 1375 5 0 0 0 - - -;
#X obj 864 1427 color;
#X obj 952 1424 r lo;
#X obj 1284 718 > 4;
#X obj 1285 741 - 1;
#X obj 1284 764 * -1;
#X floatatom 924 1348 0 0 0 0 - - -;
#X obj 1373 619 * 2;
#X obj 852 1243 gemhead 2;
#X obj 1267 154 r lo;
#X text 972 1465 POS seul IN fin OUT debut;
#X obj 852 1269 spigot-toggle_red;
#X floatatom 762 896 5 0 0 0 - - -;
#X obj 353 967 + 0;
#X obj 761 985 + 0;
#X floatatom 761 1015 5 0 0 0 - - -;
#X obj 369 947 * 1;
#X obj 349 1160 * 0.5;
#X obj 905 976 - 1;
#X obj 904 999 * -1;
#X obj 1444 932 rectangle 0.01 8;
#X obj 1065 71 gemhead 20;
#X text 1310 1280 POS seul IN fin OUT debut largeur de debiut de bande
diminué restituée au debut (T - x);
#X obj 1021 962 translateXYZ;
#X obj 1063 271 translateXYZ;
#X obj 1021 1016 translateXYZ;
#X obj 1447 850 translateXYZ;
#X obj 1186 143 - 4;
#X obj 760 1097 - 4;
#X floatatom 759 1125 5 0 0 0 - - -;
#X obj 889 1351 - 4;
#X obj 869 1403 translateXYZ;
#X text 578 758 POS + p&s;
#X floatatom 353 988 5 0 0 0 - - -;
#X floatatom 352 1027 5 0 0 0 - - -;
#X obj 353 1007 + 4;
#X obj 434 1107 < -4;
#X obj 349 1128 spigot-toggle_red;
#X obj 468 1108 - 1;
#X obj 467 1131 * -1;
#X obj 349 1079 - 0;
#X floatatom 350 1103 12 0 0 0 - - -;
#X obj 347 1052 t b f;
#X obj 626 341 * 2;
#X msg 309 2 -2.5;
#X floatatom 1232 219 5 0 0 0 - - -;
#X obj 973 793 r pitchNspeedA;
#X obj 967 771 r speedA;
#X obj 935 453 - 1;
#X obj 934 476 * -1;
#X obj 677 540 r onoffA;
#X obj 1169 499 spigot-toggle_red;
#X obj 750 557 r trgrmodB;
#X obj 736 538 r onoffB;
#X obj 1302 -51 cnv 15 170 340 empty empty empty 20 12 0 14 -228992
-66577 0;
#X obj 1304 389 cnv 15 100 60 empty empty empty 20 12 0 14 -195568
-66577 0;
#N canvas 0 22 450 300 gemwin 0;
#X obj 132 136 gemwin;
#X obj 67 89 outlet;
#X obj 67 10 inlet;
#X obj 67 41 route create;
#X msg 67 70 set destroy;
#X msg 142 68 set create;
#X msg 132 112 create \, 1;
#X msg 198 112 destroy;
#X connect 2 0 3 0;
#X connect 3 0 4 0;
#X connect 3 0 6 0;
#X connect 3 1 5 0;
#X connect 3 1 7 0;
#X connect 4 0 1 0;
#X connect 5 0 1 0;
#X connect 6 0 0 0;
#X connect 7 0 0 0;
#X restore 1310 428 pd gemwin;
#X msg 1310 409 create;
#X text 1306 388 Create window:;
#X obj 1304 120 cnv 15 160 60 empty empty empty 20 12 0 14 -24198 -66577
0;
#X floatatom 1365 124 5 0 0 0 - - -;
#X msg 1438 209 0 1 1;
#X floatatom 1315 264 5 0 0 0 - - -;
#X obj 1304 285 translateXYZ;
#X floatatom 1374 -74 5 0 0 0 - - -;
#X floatatom 1408 -76 5 0 0 0 - - -;
#X obj 1328 -20 translateXYZ;
#X obj 1326 121 line;
#X obj 1371 25 bng 15 250 50 0 empty empty empty 17 7 0 10 -262144
-1 -1;
#X obj 1324 79 pack \$1 \$2;
#X obj 1371 43 f;
#X obj 1401 44 + 1;
#X obj 1710 -51 cnv 15 170 340 empty empty empty 20 12 0 14 -228992
-66577 0;
#X floatatom 1325 22 5 0 0 0 - - -;
#X floatatom 1419 333 5 0 0 0 - - -;
#X obj 1312 308 color;
#X floatatom 1379 335 5 0 0 0 - - -;
#X obj 1510 -51 cnv 15 170 340 empty empty empty 20 12 0 14 -228992
-66577 0;
#X obj 1512 120 cnv 15 160 60 empty empty empty 20 12 0 14 -24198 -66577
0;
#X floatatom 1572 128 5 0 0 0 - - -;
#X msg 1626 140 1 0 0;
#X msg 1626 161 0 1 1;
#X obj 1540 313 color;
#X obj 1582 23 bng 15 250 50 0 empty empty empty 17 7 0 10 -262144
-1 -1;
#X obj 1532 84 pack \$1 \$2;
#X obj 1578 42 f;
#X obj 1605 43 + 1;
#X floatatom 1530 21 5 0 0 0 - - -;
#X obj 1531 127 line;
#X obj 1589 465 r lo;
#X obj 1324 39 * -1;
#X obj 1530 42 * -1;
#X floatatom 1613 337 5 0 0 0 - - -;
#X floatatom 1668 336 5 0 0 0 - - -;
#X floatatom 1482 328 5 0 0 0 - - -;
#X floatatom 1543 262 5 0 0 0 - - -;
#X obj 1520 289 translateXYZ;
#X obj 1480 104 bng 15 250 50 0 empty empty empty 17 7 0 10 -262144
-1 -1;
#X floatatom 1481 401 5 0 0 0 - - -;
#X floatatom 1480 464 5 0 0 0 - - -;
#X floatatom 1311 529 5 0 0 0 - - -;
#X obj 1305 148 rotate 45 0 0 1;
#X obj 1519 155 rotate 45 0 0 1;
#X floatatom 1417 259 5 0 0 0 - - -;
#X floatatom 1804 155 5 0 0 0 - - -;
#X floatatom 1395 77 5 0 0 0 - - -;
#X obj 1312 356 rectangle 0.04 0.08;
#X msg 1440 228 1 1 1;
#X msg 1479 438 0.08;
#X floatatom 1799 103 5 0 0 0 - - -;
#X obj 1788 84 * 0.0625;
#X obj 1799 126 * 8;
#X floatatom 1738 197 5 0 0 0 - - -;
#X obj 1804 235 * 0.05;
#X msg 1418 119 0 0 0;
#X msg 1626 119 0 0 0;
#X msg 1438 188 0 0 0;
#X msg 1483 377 0.04;
#X obj 1598 512 * -1;
#X obj 1313 -118 r lo;
#X obj 1282 -116 bng 15 250 50 0 empty empty empty 17 7 0 10 -262144
-1 -1;
#X obj 1826 137 + 1;
#X msg 1482 351 0.25;
#X msg 1599 493 2.11;
#X obj 1739 176 * 2;
#X obj 1744 154 + 0.98;
#X floatatom 1481 294 5 0 0 0 - - -;
#X obj 1524 -17 translateXYZ;
#X floatatom 1544 -46 5 0 0 0 - - -;
#X floatatom 1465 -70 5 0 0 0 - - -;
#X floatatom 1439 -18 5 0 0 0 - - -;
#X obj 1442 -36 + 0.01;
#X floatatom 1791 66 5 0 0 0 - - -;
#X msg 1514 -158 0.4;
#X msg 1442 -113 -0.01;
#X obj 1702 226 * 2;
#X obj 1309 -82 gemhead 4;
#X obj 1522 -85 gemhead 4;
#X obj 1446 7 r BB1;
#X obj 1445 62 r T1;
#X obj 1644 74 r T1;
#X obj 1823 63 r STPB;
#X obj 1552 366 rectangle 0.04 0.08;
#X msg 1358 308 0 1 1;
#X msg 1590 311 1 0 0;
#X floatatom 137 401 5 0 0 0 - - -;
#X floatatom 1410 496 5 0 0 0 - - -;
#X obj 1421 458 r B;
#X obj 152 353 r A;
#X obj 930 1269 spigot-toggle_red;
#X text 1271 1179 si recul du debut à la fin pos + time < -4 ( ex
pos 1 P&S 25 ) redim des rubans : de droite;
#X text 367 1250 si recul du debut à la fin pos + time < -4 ( ex pos
1 P&S 25 ) redim des rubans : de gauche;
#X floatatom 800 582 9 0 0 0 - - -;
#X floatatom 1195 452 9 0 0 0 - - -;
#X obj 1002 1261 spigot-toggle_red;
#X obj 1276 654 > 0;
#X obj 1152 988 color;
#X floatatom 1262 849 12 0 0 0 - - -;
#X obj 1240 985 r lo;
#X floatatom 1301 1119 12 0 0 0 - - -;
#X obj 1151 963 translateXYZ;
#X obj 1253 1059 translateXYZ;
#X obj 1172 904 spigot-toggle_red;
#X obj 1194 859 < 0;
#X obj 1168 881 + 8;
#X obj 1000 1197 t b f;
#X obj 1142 535 gemhead 4;
#X floatatom 1327 911 12 0 0 0 - - -;
#X obj 1272 945 + 0;
#X obj 1274 890 t b f;
#X obj 1274 917 + 0;
#X obj 1302 1094 * 0.5;
#X obj 1181 643 spigot-toggle_red;
#X obj 1264 685 spigot-toggle_red;
#X obj 763 753 - 1;
#X obj 762 774 * -1;
#X obj 754 795 spigot-toggle_red;
#X obj 990 840 spigot-toggle_red;
#X msg 1205 296 0 0 0;
#X msg 468 8 -0.53;
#X obj 1323 58 * -360;
#X obj 1530 63 * -360;
#X msg 1484 -113 2;
#X msg 408 2 2;
#X msg 1195 986 1 1 1;
#X msg 1544 -107 -0.53;
#X msg 1385 -100 -2.5;
#X obj 904 1118 > 4;
#X obj 1632 -71 r itB;
#X obj 610 613 sel;
#X obj 611 634 bng 15 250 50 0 empty empty empty 17 7 0 10 -262144
-1 -1;
#X msg 603 660 0;
#X msg 905 1425 1 1 0.1;
#X msg 1064 985 0.1 1 1;
#X obj 1061 804 - 4;
#X obj 1061 782 * 8;
#X obj 619 859 * 1;
#X obj 759 1173 spigot-toggle_red;
#X obj 769 957 t b f;
#X obj 984 1122 * 0.5;
#X obj 983 1097 spigot-toggle_red;
#X obj 1000 1223 - 0;
#X obj 759 1199 * 0.5;
#X obj 921 1326 * 1;
#X obj 1005 1291 * 0.5;
#X obj 1248 1123 l;
#X floatatom 1041 1263 12 0 0 0 - - -;
#X floatatom 664 1166 5 0 0 0 - - -;
#X obj 703 1104 + 4;
#X obj 711 1151 < -4;
#X obj 782 1157 > 4;
#X obj 834 1073 - 1;
#X obj 833 1096 * -1;
#X obj 780 1305 spigot-toggle_red;
#X obj 752 1357 spigot-toggle_red;
#X floatatom 749 1480 5 0 0 0 - - -;
#X floatatom 752 1408 0 0 0 0 - - -;
#X obj 751 1434 * 1;
#X obj 751 1456 + 4;
#X obj 1089 1193 t b f;
#X obj 1089 1219 - 0;
#X floatatom 1093 1238 12 0 0 0 - - -;
#X obj 1101 1283 * 0.5;
#X obj 913 1446 * 0.5;
#X obj 888 1329 + 0;
#X obj 752 1383 + 0;
#X obj 962 1374 -;
#X obj 986 1355 * 2;
#X obj 670 1208 * 0.5;
#X obj 826 1455 * 1;
#X obj 903 849 - 0;
#X obj 839 1020 -;
#X floatatom 536 878 5 0 0 0 - - -;
#X obj 544 820 t b f;
#X obj 536 848 * 1;
#X obj 693 756 - 1;
#X obj 692 777 * -1;
#X connect 2 0 3 0;
#X connect 3 0 2 0;
#X connect 6 0 132 1;
#X connect 7 0 132 2;
#X connect 8 0 9 1;
#X connect 9 0 22 0;
#X connect 10 0 12 1;
#X connect 11 0 12 2;
#X connect 11 0 268 2;
#X connect 12 0 132 0;
#X connect 13 0 6 0;
#X connect 14 0 16 0;
#X connect 15 0 13 0;
#X connect 16 0 17 0;
#X connect 16 0 20 0;
#X connect 17 0 16 1;
#X connect 19 0 244 0;
#X connect 20 0 41 0;
#X connect 21 0 246 2;
#X connect 22 0 246 0;
#X connect 23 0 246 1;
#X connect 26 0 133 1;
#X connect 27 0 133 2;
#X connect 28 0 133 2;
#X connect 29 0 245 0;
#X connect 30 0 32 0;
#X connect 31 0 38 0;
#X connect 32 0 33 0;
#X connect 32 0 35 0;
#X connect 33 0 32 1;
#X connect 34 0 31 1;
#X connect 35 0 43 0;
#X connect 36 0 30 0;
#X connect 37 0 31 0;
#X connect 38 0 26 0;
#X connect 39 0 273 0;
#X connect 40 0 102 0;
#X connect 41 0 42 0;
#X connect 42 0 15 0;
#X connect 43 0 37 0;
#X connect 44 0 245 1;
#X connect 45 0 245 2;
#X connect 46 0 14 0;
#X connect 48 0 98 0;
#X connect 49 0 98 0;
#X connect 50 0 98 0;
#X connect 51 0 98 1;
#X connect 54 0 95 0;
#X connect 54 0 58 0;
#X connect 55 0 95 0;
#X connect 56 0 95 0;
#X connect 57 0 118 0;
#X connect 58 0 96 0;
#X connect 58 0 48 0;
#X connect 59 0 96 0;
#X connect 60 0 96 0;
#X connect 61 0 74 0;
#X connect 62 0 61 1;
#X connect 63 0 232 2;
#X connect 64 0 95 1;
#X connect 65 0 118 3;
#X connect 65 0 64 0;
#X connect 66 0 118 1;
#X connect 67 0 118 2;
#X connect 71 0 74 3;
#X connect 72 0 74 1;
#X connect 73 0 74 2;
#X connect 74 0 96 0;
#X connect 75 0 78 3;
#X connect 76 0 78 1;
#X connect 77 0 78 2;
#X connect 79 0 82 3;
#X connect 80 0 82 1;
#X connect 81 0 82 2;
#X connect 82 0 98 0;
#X connect 83 0 86 3;
#X connect 84 0 86 1;
#X connect 85 0 86 2;
#X connect 88 0 232 0;
#X connect 89 0 107 0;
#X connect 91 0 93 3;
#X connect 92 0 93 1;
#X connect 93 0 29 0;
#X connect 94 0 96 1;
#X connect 99 0 104 0;
#X connect 100 0 236 0;
#X connect 100 1 236 1;
#X connect 101 0 371 0;
#X connect 102 0 248 0;
#X connect 102 0 264 0;
#X connect 102 0 221 0;
#X connect 102 0 256 0;
#X connect 102 0 258 0;
#X connect 102 0 255 0;
#X connect 102 0 254 0;
#X connect 102 0 263 0;
#X connect 103 0 220 0;
#X connect 104 0 122 0;
#X connect 105 0 232 1;
#X connect 106 0 369 0;
#X connect 107 0 139 1;
#X connect 107 0 131 0;
#X connect 108 0 394 0;
#X connect 109 0 23 0;
#X connect 109 0 44 0;
#X connect 110 0 21 0;
#X connect 110 0 45 0;
#X connect 111 0 94 0;
#X connect 111 0 64 0;
#X connect 111 0 51 0;
#X connect 112 0 370 1;
#X connect 113 0 129 0;
#X connect 113 0 114 0;
#X connect 114 0 124 0;
#X connect 115 0 92 0;
#X connect 115 0 8 0;
#X connect 116 0 57 1;
#X connect 117 0 12 0;
#X connect 118 0 95 0;
#X connect 119 0 268 0;
#X connect 120 0 121 0;
#X connect 121 0 122 0;
#X connect 121 1 122 1;
#X connect 122 0 100 0;
#X connect 123 0 137 0;
#X connect 124 0 129 0;
#X connect 124 1 129 1;
#X connect 125 0 120 0;
#X connect 126 0 216 0;
#X connect 126 0 579 0;
#X connect 127 0 134 0;
#X connect 127 0 106 1;
#X connect 127 0 234 0;
#X connect 129 0 130 0;
#X connect 130 0 541 0;
#X connect 131 0 373 0;
#X connect 132 0 9 0;
#X connect 133 0 93 0;
#X connect 134 0 125 0;
#X connect 134 0 233 1;
#X connect 134 0 208 1;
#X connect 135 0 523 0;
#X connect 136 0 290 0;
#X connect 136 0 358 0;
#X connect 136 0 369 1;
#X connect 136 0 577 0;
#X connect 137 0 113 0;
#X connect 138 0 106 0;
#X connect 139 0 296 0;
#X connect 140 0 539 0;
#X connect 143 0 148 0;
#X connect 144 0 151 0;
#X connect 144 1 151 1;
#X connect 145 0 156 0;
#X connect 147 0 171 0;
#X connect 147 0 182 0;
#X connect 148 0 159 0;
#X connect 149 0 199 0;
#X connect 150 0 190 0;
#X connect 151 0 166 0;
#X connect 152 0 165 0;
#X connect 153 0 168 0;
#X connect 153 0 155 0;
#X connect 154 0 172 0;
#X connect 154 0 183 0;
#X connect 155 0 164 0;
#X connect 157 0 158 0;
#X connect 158 0 159 0;
#X connect 158 1 159 1;
#X connect 159 0 144 0;
#X connect 160 0 188 0;
#X connect 161 0 146 0;
#X connect 162 0 150 0;
#X connect 163 0 149 0;
#X connect 164 0 168 0;
#X connect 164 1 168 1;
#X connect 165 0 176 0;
#X connect 166 0 170 0;
#X connect 167 0 150 1;
#X connect 167 0 179 0;
#X connect 168 0 154 0;
#X connect 169 0 194 0;
#X connect 170 0 147 0;
#X connect 171 0 172 0;
#X connect 171 1 172 1;
#X connect 172 0 173 0;
#X connect 173 0 146 1;
#X connect 174 0 145 1;
#X connect 175 0 177 0;
#X connect 176 0 157 0;
#X connect 177 0 178 0;
#X connect 177 1 178 1;
#X connect 178 0 186 0;
#X connect 179 0 165 0;
#X connect 180 0 156 1;
#X connect 180 0 192 1;
#X connect 181 0 177 0;
#X connect 182 0 178 0;
#X connect 183 0 169 0;
#X connect 184 0 183 1;
#X connect 185 0 193 0;
#X connect 186 0 180 0;
#X connect 187 0 190 1;
#X connect 188 0 153 0;
#X connect 190 0 192 0;
#X connect 190 0 145 0;
#X connect 191 0 187 0;
#X connect 193 0 194 0;
#X connect 194 0 191 0;
#X connect 195 0 185 0;
#X connect 196 0 195 0;
#X connect 197 0 174 0;
#X connect 198 0 161 1;
#X connect 198 0 162 1;
#X connect 198 0 150 1;
#X connect 199 0 151 0;
#X connect 200 0 199 1;
#X connect 201 0 151 0;
#X connect 202 0 201 0;
#X connect 203 0 202 0;
#X connect 204 0 199 1;
#X connect 205 0 201 1;
#X connect 206 0 217 0;
#X connect 206 0 580 0;
#X connect 208 0 236 0;
#X connect 209 0 211 0;
#X connect 210 0 209 0;
#X connect 211 0 208 0;
#X connect 212 0 208 0;
#X connect 213 0 522 0;
#X connect 214 0 213 0;
#X connect 215 0 233 0;
#X connect 216 0 576 0;
#X connect 217 0 220 0;
#X connect 217 1 220 1;
#X connect 218 0 233 0;
#X connect 219 0 362 0;
#X connect 219 0 386 0;
#X connect 219 0 353 0;
#X connect 219 0 331 0;
#X connect 219 0 546 0;
#X connect 219 0 547 0;
#X connect 219 0 566 0;
#X connect 219 0 544 0;
#X connect 220 0 219 0;
#X connect 221 0 29 1;
#X connect 222 0 226 0;
#X connect 223 0 224 0;
#X connect 223 0 297 0;
#X connect 224 0 218 1;
#X connect 224 0 211 1;
#X connect 224 0 520 0;
#X connect 224 0 535 0;
#X connect 225 0 226 0;
#X connect 225 0 297 0;
#X connect 226 0 215 1;
#X connect 226 0 212 1;
#X connect 226 0 535 0;
#X connect 227 0 226 0;
#X connect 227 0 297 0;
#X connect 228 0 224 0;
#X connect 228 0 297 0;
#X connect 229 0 162 0;
#X connect 230 0 161 0;
#X connect 231 0 224 0;
#X connect 233 0 106 1;
#X connect 234 0 120 0;
#X connect 235 0 397 0;
#X connect 236 0 126 0;
#X connect 237 0 371 1;
#X connect 237 0 207 1;
#X connect 237 0 565 0;
#X connect 237 0 573 0;
#X connect 238 0 342 0;
#X connect 238 0 366 1;
#X connect 240 0 276 0;
#X connect 241 0 239 0;
#X connect 242 0 9 3;
#X connect 243 0 253 0;
#X connect 244 0 15 1;
#X connect 247 0 132 2;
#X connect 248 0 110 0;
#X connect 249 0 251 0;
#X connect 250 0 249 0;
#X connect 251 0 262 0;
#X connect 252 0 8 0;
#X connect 253 0 44 0;
#X connect 253 0 266 0;
#X connect 253 0 92 0;
#X connect 254 0 132 2;
#X connect 255 0 133 2;
#X connect 256 0 22 1;
#X connect 257 0 132 2;
#X connect 258 0 109 0;
#X connect 259 0 115 0;
#X connect 260 0 261 0;
#X connect 261 0 529 0;
#X connect 261 0 390 0;
#X connect 261 0 525 0;
#X connect 261 0 275 0;
#X connect 262 0 243 0;
#X connect 263 0 267 0;
#X connect 264 0 259 0;
#X connect 265 0 252 0;
#X connect 266 0 265 0;
#X connect 267 0 242 0;
#X connect 267 0 91 0;
#X connect 268 0 133 0;
#X connect 269 0 268 1;
#X connect 270 0 268 3;
#X connect 270 0 272 0;
#X connect 271 0 12 3;
#X connect 272 0 271 0;
#X connect 273 0 250 0;
#X connect 275 0 11 0;
#X connect 276 0 239 1;
#X connect 277 0 218 0;
#X connect 278 0 281 0;
#X connect 280 0 279 1;
#X connect 280 0 293 0;
#X connect 281 0 286 0;
#X connect 282 0 287 0;
#X connect 283 0 286 1;
#X connect 284 0 283 0;
#X connect 285 0 286 3;
#X connect 286 0 279 0;
#X connect 287 0 281 1;
#X connect 288 0 372 1;
#X connect 289 0 241 0;
#X connect 290 0 327 0;
#X connect 291 0 278 1;
#X connect 292 0 278 0;
#X connect 293 0 284 0;
#X connect 294 0 293 0;
#X connect 294 1 293 1;
#X connect 295 0 294 0;
#X connect 296 0 130 0;
#X connect 297 0 296 1;
#X connect 298 0 299 0;
#X connect 299 0 295 0;
#X connect 300 0 301 0;
#X connect 301 0 211 1;
#X connect 302 0 332 0;
#X connect 302 0 328 0;
#X connect 302 0 349 0;
#X connect 303 0 304 0;
#X connect 304 0 307 0;
#X connect 304 0 316 0;
#X connect 304 0 315 0;
#X connect 304 0 324 0;
#X connect 304 0 325 0;
#X connect 305 0 306 0;
#X connect 305 0 311 0;
#X connect 306 0 303 0;
#X connect 306 1 303 1;
#X connect 307 0 310 0;
#X connect 308 0 309 0;
#X connect 309 0 311 0;
#X connect 309 1 311 1;
#X connect 310 0 308 0;
#X connect 311 0 312 0;
#X connect 312 0 313 0;
#X connect 313 0 319 0;
#X connect 313 0 320 0;
#X connect 315 0 317 0;
#X connect 316 0 315 1;
#X connect 317 0 318 0;
#X connect 320 0 322 0;
#X connect 324 0 322 1;
#X connect 324 0 323 0;
#X connect 325 0 307 1;
#X connect 327 0 302 0;
#X connect 328 0 330 0;
#X connect 329 0 343 0;
#X connect 330 0 329 0;
#X connect 332 0 333 0;
#X connect 332 0 335 1;
#X connect 332 0 328 1;
#X connect 332 0 519 1;
#X connect 333 0 334 0;
#X connect 334 0 331 1;
#X connect 335 0 372 0;
#X connect 336 0 335 0;
#X connect 338 0 339 0;
#X connect 339 0 337 1;
#X connect 340 0 288 0;
#X connect 341 0 88 1;
#X connect 342 0 340 0;
#X connect 343 0 238 0;
#X connect 345 0 344 1;
#X connect 346 0 572 0;
#X connect 346 0 377 1;
#X connect 347 0 344 0;
#X connect 348 0 538 0;
#X connect 349 0 350 0;
#X connect 350 0 351 0;
#X connect 351 0 331 1;
#X connect 352 0 495 0;
#X connect 352 0 570 0;
#X connect 352 0 569 0;
#X connect 353 0 327 1;
#X connect 354 0 357 0;
#X connect 354 0 559 0;
#X connect 355 0 524 0;
#X connect 357 0 377 0;
#X connect 358 0 359 0;
#X connect 358 0 360 0;
#X connect 359 0 379 0;
#X connect 360 0 361 0;
#X connect 361 0 374 0;
#X connect 361 0 382 0;
#X connect 361 0 533 0;
#X connect 361 0 554 0;
#X connect 361 0 555 0;
#X connect 361 0 556 0;
#X connect 362 0 359 1;
#X connect 363 0 237 0;
#X connect 364 0 365 0;
#X connect 365 0 331 1;
#X connect 367 0 370 0;
#X connect 369 0 101 0;
#X connect 370 0 88 0;
#X connect 371 0 207 0;
#X connect 372 0 337 0;
#X connect 373 0 112 0;
#X connect 374 0 375 0;
#X connect 375 0 543 0;
#X connect 375 0 511 0;
#X connect 376 0 346 0;
#X connect 377 0 347 0;
#X connect 379 0 381 0;
#X connect 380 0 388 0;
#X connect 381 0 380 0;
#X connect 382 0 384 0;
#X connect 382 0 518 1;
#X connect 382 0 383 1;
#X connect 383 0 363 0;
#X connect 384 0 385 0;
#X connect 385 0 331 1;
#X connect 386 0 387 0;
#X connect 387 0 383 0;
#X connect 388 0 386 0;
#X connect 388 1 386 1;
#X connect 390 0 10 0;
#X connect 391 0 370 3;
#X connect 392 0 206 0;
#X connect 392 0 135 0;
#X connect 393 0 135 0;
#X connect 393 0 206 0;
#X connect 394 0 395 0;
#X connect 395 0 125 0;
#X connect 396 0 218 0;
#X connect 398 0 215 0;
#X connect 398 0 498 0;
#X connect 399 0 215 0;
#X connect 402 0 403 0;
#X connect 403 0 402 0;
#X connect 406 0 447 1;
#X connect 407 0 447 2;
#X connect 408 0 409 1;
#X connect 409 0 421 0;
#X connect 410 0 412 1;
#X connect 411 0 412 2;
#X connect 411 0 473 2;
#X connect 412 0 447 0;
#X connect 413 0 406 0;
#X connect 414 0 416 0;
#X connect 415 0 413 0;
#X connect 416 0 417 0;
#X connect 416 0 419 0;
#X connect 417 0 416 1;
#X connect 419 0 436 0;
#X connect 420 0 452 2;
#X connect 421 0 452 0;
#X connect 422 0 452 1;
#X connect 425 0 448 1;
#X connect 426 0 448 2;
#X connect 427 0 448 2;
#X connect 428 0 488 0;
#X connect 429 0 431 0;
#X connect 430 0 434 0;
#X connect 431 0 432 0;
#X connect 431 0 433 0;
#X connect 432 0 431 1;
#X connect 433 0 437 0;
#X connect 434 0 425 0;
#X connect 435 0 443 0;
#X connect 436 0 526 0;
#X connect 437 0 527 0;
#X connect 438 0 488 1;
#X connect 439 0 488 2;
#X connect 440 0 442 3;
#X connect 441 0 442 1;
#X connect 442 0 428 0;
#X connect 443 0 454 0;
#X connect 443 0 469 0;
#X connect 443 0 490 0;
#X connect 443 0 489 0;
#X connect 443 0 463 0;
#X connect 443 0 461 0;
#X connect 443 0 460 0;
#X connect 443 0 468 0;
#X connect 444 0 422 0;
#X connect 444 0 438 0;
#X connect 445 0 420 0;
#X connect 445 0 439 0;
#X connect 446 0 441 0;
#X connect 446 0 408 0;
#X connect 447 0 409 0;
#X connect 448 0 442 0;
#X connect 449 0 409 3;
#X connect 450 0 459 0;
#X connect 451 0 415 1;
#X connect 453 0 447 2;
#X connect 454 0 445 0;
#X connect 455 0 457 0;
#X connect 456 0 455 0;
#X connect 457 0 467 0;
#X connect 458 0 408 0;
#X connect 459 0 438 0;
#X connect 459 0 471 0;
#X connect 459 0 441 0;
#X connect 460 0 447 2;
#X connect 461 0 448 2;
#X connect 462 0 447 2;
#X connect 463 0 444 0;
#X connect 464 0 446 0;
#X connect 465 0 466 0;
#X connect 466 0 528 0;
#X connect 466 0 480 0;
#X connect 466 0 531 0;
#X connect 466 0 532 0;
#X connect 467 0 450 0;
#X connect 468 0 472 0;
#X connect 469 0 464 0;
#X connect 470 0 458 0;
#X connect 471 0 470 0;
#X connect 472 0 449 0;
#X connect 472 0 440 0;
#X connect 473 0 448 0;
#X connect 474 0 473 1;
#X connect 475 0 473 3;
#X connect 475 0 477 0;
#X connect 476 0 412 3;
#X connect 477 0 476 0;
#X connect 478 0 456 0;
#X connect 480 0 411 0;
#X connect 482 0 412 0;
#X connect 483 0 473 0;
#X connect 484 0 414 0;
#X connect 485 0 451 0;
#X connect 486 0 430 1;
#X connect 487 0 478 0;
#X connect 489 0 421 1;
#X connect 490 0 428 1;
#X connect 491 0 22 1;
#X connect 492 0 421 1;
#X connect 493 0 492 0;
#X connect 494 0 491 0;
#X connect 500 0 550 0;
#X connect 501 0 519 0;
#X connect 502 0 507 0;
#X connect 503 0 516 0;
#X connect 504 0 530 0;
#X connect 505 0 507 1;
#X connect 505 0 513 0;
#X connect 505 0 551 1;
#X connect 506 0 502 0;
#X connect 507 0 551 0;
#X connect 508 0 503 0;
#X connect 509 0 508 1;
#X connect 510 0 508 0;
#X connect 511 0 547 0;
#X connect 511 1 547 1;
#X connect 513 0 515 0;
#X connect 514 0 506 1;
#X connect 515 0 516 0;
#X connect 515 1 516 1;
#X connect 516 0 514 0;
#X connect 517 0 505 0;
#X connect 518 0 506 0;
#X connect 520 0 521 0;
#X connect 521 0 522 1;
#X connect 521 0 523 1;
#X connect 522 0 212 0;
#X connect 523 0 139 0;
#X connect 524 0 88 1;
#X connect 525 0 269 0;
#X connect 526 0 415 0;
#X connect 527 0 430 0;
#X connect 528 0 475 0;
#X connect 529 0 270 0;
#X connect 530 0 502 1;
#X connect 531 0 474 0;
#X connect 532 0 410 0;
#X connect 533 0 357 1;
#X connect 533 0 364 0;
#X connect 533 0 495 1;
#X connect 533 0 500 1;
#X connect 534 0 429 0;
#X connect 535 0 536 0;
#X connect 536 0 537 0;
#X connect 537 0 106 1;
#X connect 538 0 347 1;
#X connect 539 0 101 1;
#X connect 540 0 501 0;
#X connect 540 0 509 0;
#X connect 540 0 510 0;
#X connect 540 0 332 0;
#X connect 540 0 136 0;
#X connect 541 0 540 0;
#X connect 543 0 548 0;
#X connect 544 0 360 0;
#X connect 544 1 360 1;
#X connect 545 0 237 0;
#X connect 546 0 545 0;
#X connect 547 0 500 0;
#X connect 547 0 552 0;
#X connect 548 0 549 0;
#X connect 549 0 352 0;
#X connect 550 0 237 0;
#X connect 553 0 574 0;
#X connect 554 0 553 0;
#X connect 555 0 557 0;
#X connect 555 0 559 1;
#X connect 555 0 560 1;
#X connect 556 0 543 1;
#X connect 557 0 558 0;
#X connect 558 0 546 1;
#X connect 559 0 377 0;
#X connect 560 0 571 0;
#X connect 561 0 346 0;
#X connect 562 0 563 0;
#X connect 562 0 575 0;
#X connect 563 0 564 0;
#X connect 564 0 561 0;
#X connect 565 0 566 0;
#X connect 565 1 566 1;
#X connect 566 0 567 0;
#X connect 567 0 568 0;
#X connect 569 0 345 0;
#X connect 570 0 376 0;
#X connect 571 0 562 0;
#X connect 573 0 572 1;
#X connect 574 0 560 0;
#X connect 575 0 345 0;
#X connect 576 0 103 0;
#X connect 579 0 580 0;
#X connect 579 1 580 1;
#X connect 580 0 578 0;
#X connect 581 0 582 0;
