#N struct 1026-rectangle float x float c;
#N struct 1026-draw float x0 float y0 float c;
#N struct 1026-pixel float x0 float y0 float x1 float y1;
#N canvas 331 230 1349 798 10;
#X obj 530 458 t b f;
#X obj 530 480 del;
#X obj 570 480 s \$0-y;
#X obj 625 480 s \$0-x;
#N canvas 775 335 470 178 \$0-rectangle 0;
#X obj 44 92 s \$0-rectangle;
#X obj 44 114 filledpolygon c 0 0 0 0 1 0 1 1 0 1;
#X obj 44 70 struct \$0-rectangle float x float c;
#X text 42 34 This is a one pixel polygon that will be stretched to
the size of the area;
#X connect 2 0 0 0;
#X restore 480 84 pd \$0-rectangle;
#N canvas 551 159 470 155 \$0-pixel 0;
#X obj 44 50 struct \$0-pixel float x0 float y0 float x1 float y1;
#X obj 44 72 s \$0-pixel;
#X obj 44 94 drawpolygon 0 0 x0 y0 x1 y1;
#X connect 0 0 1 0;
#X restore 480 62 pd \$0-pixel;
#X obj 562 524 set \$0-pixel y1 x1;
#X obj 685 502 r \$0-pixelPointer;
#X obj 480 370 r \$0-rectangle;
#X obj 480 392 t b b;
#X obj 562 502 + 2;
#X obj 623 502 + 2;
#X obj 100 106 s pd-\$0-pixelSubpatch;
#X obj 100 128 s pd-\$0-rectangleSubpatch;
#X obj 101 42 bng 15 250 50 0 empty \$0-reset reset 17 7 0 10 -262144
-1 -1;
#X msg 512 700 const 0;
#X obj 512 436 sel;
#X obj 512 634 del;
#X obj 552 634 s \$0-y;
#X obj 608 634 s \$0-x;
#X obj 544 678 set \$0-pixel y1 x1;
#X obj 667 656 r \$0-pixelPointer;
#X obj 544 656 + 2;
#X obj 605 656 + 2;
#X obj 512 612 t b f;
#X msg 512 590 0;
#X obj 480 40 namecanvas \$0-this;
#X obj 86 1406 s \$0-this;
#X obj 66 1142 pack;
#X obj 86 1186 s pd-\$0-pixelSubpatch;
#X obj 86 1230 s pd-\$0-rectangleSubpatch;
#X obj 635 150 r \$0-rectanglePointer;
#X obj 34 812 t b b;
#X obj 34 1692 s \$0-this;
#X msg 34 1670 dirty 0;
#X obj 66 834 \$0;
#X obj 100 150 s pd-\$0-tablesSubpatch;
#X msg 66 1560 const 0;
#X msg 86 1164 donecanvasdialog 1 -1 2 0 \$2 \$1 0 \$1 \$2 0 0;
#X msg 86 1296 donecanvasdialog 1 -1 2 0 \$2 \$1 0 \$1 \$2 0 0;
#X msg 86 1340 donecanvasdialog 1 -1 2 0 0 \$1 \$2 \$1 \$2 0 0;
#X obj 66 900 s pd-\$0-tablesSubpatch;
#X obj 66 856 t f f;
#X msg 86 1252 donecanvasdialog 1 -1 2 0 \$2 \$1 0 \$1 \$2 100 20;
#X obj 86 1274 s pd-\$0-tablesSubpatch;
#X msg 86 1208 donecanvasdialog 1 -1 2 0 0 1 1 \$1 \$2 0 0;
#X obj 512 172 set \$0-rectangle c;
#X obj 34 40 loadbang;
#X obj 88 524 append \$0-pixel x0 y0 x1 y1;
#X msg 88 502 0 0 0 1;
#X obj 88 546 s \$0-pixelPointer;
#X msg 274 480 traverse \$1 \, bang;
#X obj 274 502 pointer;
#X obj 274 458 symbol pd-\$0-pixelSubpatch;
#X msg 215 724 traverse \$1 \, bang;
#X obj 215 746 pointer;
#X obj 215 702 symbol pd-\$0-rectangleSubpatch;
#X obj 57 768 append \$0-rectangle x c;
#X obj 57 790 s \$0-rectanglePointer;
#X obj 84 1428 r \$0-width;
#X obj 34 922 t b b;
#X obj 34 1538 t b b;
#X obj 34 1428 t b b;
#X obj 66 1450 f;
#X obj 57 238 \$1;
#X obj 138 238 \$2;
#X obj 57 260 s \$0-width;
#X obj 138 260 s \$0-height;
#X obj 66 1120 f;
#X obj 84 1098 r \$0-width;
#X obj 100 1120 r \$0-height;
#X obj 34 1098 t b b;
#X obj 34 216 t b b b;
#X obj 34 326 spigot;
#X obj 73 282 >;
#X obj 103 282 >;
#X obj 73 304 *;
#X msg 66 370 1;
#X msg 206 370 2;
#X obj 34 348 t b b;
#X obj 66 414 s \$0-arrayName1;
#X obj 206 414 s \$0-arrayName2;
#X obj 572 392 r \$0-arrayName1;
#X obj 572 546 r \$0-arrayName2;
#X msg 66 878 graph \$1-graph1;
#X msg 186 878 graph \$1-graph2;
#X obj 86 988 s pd-\$0-graph1;
#X obj 86 1076 s pd-\$0-graph2;
#X obj 512 414 array max;
#X obj 512 568 array max;
#X obj 550 722 r \$0-arrayName1;
#X obj 550 766 r \$0-arrayName2;
#X obj 532 744 s;
#X obj 532 788 s;
#X obj 125 922 r \$0-arrayName1;
#X obj 125 1010 r \$0-arrayName2;
#X obj 86 1604 s;
#X obj 86 1648 s;
#X obj 104 1582 r \$0-arrayName1;
#X obj 104 1626 r \$0-arrayName2;
#X obj 153 1450 r \$0-arrayName1;
#X obj 153 1494 r \$0-arrayName2;
#X obj 86 1472 array size;
#X obj 86 1516 array size;
#X obj 33 680 t b b b;
#X msg 86 966 pop \, array \$1 0 float 1;
#X msg 86 1054 pop \, array \$1 0 float 1;
#X obj 86 1032 symbol;
#X obj 86 944 symbol;
#X obj 86 1318 s pd-\$0-graph1;
#X obj 86 1362 s pd-\$0-graph2;
#X msg 530 502 1 0;
#X msg 512 656 1 0;
#X obj 480 942 sel change;
#X obj 480 964 pointer;
#X obj 512 1030 - 2;
#X obj 635 1030 - 2;
#X obj 480 920 unpack s p f, f 13;
#X obj 512 1008 get \$0-pixel y1 x1;
#X obj 480 898 r \$0-pixel;
#X obj 512 1162 set \$0-pixel y1 x1;
#X obj 635 1140 r \$0-pixelPointer;
#X obj 480 986 t b p;
#X msg 512 1140 1 0;
#X obj 512 1052 sel -1;
#X obj 512 1074 f;
#X obj 519 1492 r \$0-height;
#X obj 702 1492 r \$0-width;
#X obj 635 1074 f;
#X obj 635 1052 sel -2;
#X obj 841 951 r \$0-y;
#X obj 840 986 r \$0-x;
#X obj 447 226 inlet;
#X obj 512 282 unpack f f f;
#X obj 511 305 s \$0-setWidth;
#X obj 612 304 s \$0-setHeight;
#X obj 480 260 t b l;
#X obj 480 326 s \$0-reset;
#X obj 480 150 t f f;
#X obj 480 194 s \$0-color;
#X obj 124 724 r \$0-color;
#X obj 57 746 pack 0 999;
#N canvas 3 51 459 435 uniqueInvisible 0;
#X obj 109 195 t b f;
#X obj 109 239 list split;
#X obj 109 283 list;
#X obj 109 261 list split 1;
#X obj 51 195 sel;
#X obj 109 305 t l;
#X obj 51 327 list;
#X obj 51 151 t f f;
#X obj 51 129 t f b;
#X obj 51 173 div 2;
#X obj 109 173 mod 2;
#X msg 109 217 32 160;
#X obj 51 349 list tosymbol;
#X obj 51 371 outlet;
#X obj 51 85 inlet;
#X obj 51 107 expr \$0 * 1000 + $f1;
#X text 47 45 Generate a unique invisible name from a number;
#X connect 0 0 11 0;
#X connect 0 1 1 1;
#X connect 1 1 3 0;
#X connect 2 0 5 0;
#X connect 3 0 2 0;
#X connect 4 0 6 0;
#X connect 4 1 7 0;
#X connect 5 0 2 1;
#X connect 5 0 6 1;
#X connect 6 0 12 0;
#X connect 7 0 9 0;
#X connect 7 1 10 0;
#X connect 8 0 7 0;
#X connect 8 1 2 1;
#X connect 9 0 4 0;
#X connect 10 0 0 0;
#X connect 11 0 1 0;
#X connect 12 0 13 0;
#X connect 14 0 15 0;
#X connect 15 0 8 0;
#X restore 66 392 pd uniqueInvisible;
#N canvas 3 51 459 435 uniqueInvisible 0;
#X obj 109 195 t b f;
#X obj 109 239 list split;
#X obj 109 283 list;
#X obj 109 261 list split 1;
#X obj 51 195 sel;
#X obj 109 305 t l;
#X obj 51 327 list;
#X obj 51 151 t f f;
#X obj 51 129 t f b;
#X obj 51 173 div 2;
#X obj 109 173 mod 2;
#X msg 109 217 32 160;
#X obj 51 349 list tosymbol;
#X obj 51 371 outlet;
#X obj 51 85 inlet;
#X obj 51 107 expr \$0 * 1000 + $f1;
#X text 47 45 Generate a unique invisible name from a number;
#X connect 0 0 11 0;
#X connect 0 1 1 1;
#X connect 1 1 3 0;
#X connect 2 0 5 0;
#X connect 3 0 2 0;
#X connect 4 0 6 0;
#X connect 4 1 7 0;
#X connect 5 0 2 1;
#X connect 5 0 6 1;
#X connect 6 0 12 0;
#X connect 7 0 9 0;
#X connect 7 1 10 0;
#X connect 8 0 7 0;
#X connect 8 1 2 1;
#X connect 9 0 4 0;
#X connect 10 0 0 0;
#X connect 11 0 1 0;
#X connect 12 0 13 0;
#X connect 14 0 15 0;
#X connect 15 0 8 0;
#X restore 206 392 pd uniqueInvisible;
#X msg 601 238 300 200 1;
#X msg 676 238 300 200 2;
#X msg 526 238 300 200 0;
#X obj 575 1250 r \$0-mode;
#X obj 758 1250 r \$0-mode;
#X obj 480 1294 route 0 1 2;
#X obj 663 1294 route 0 1 2;
#X obj 687 1338 t f f;
#X obj 504 1382 t f f;
#X obj 785 1382 r \$0-height;
#X obj 968 1338 r \$0-width;
#X obj 536 1426 *;
#X obj 536 1404 expr if($f1 >= 0 && $f1 < $f2 \, 1 \, 0);
#X obj 719 1360 expr if($f1 >= 0 && $f1 < $f2 \, 1 \, 0);
#X obj 512 1096 s \$0-y;
#X obj 635 1096 s \$0-x;
#X obj 480 1250 r \$0-y;
#X obj 663 1250 r \$0-x;
#X obj 529 1316 s \$0-yOut;
#X obj 712 1316 s \$0-xOut;
#X obj 687 1382 s \$0-xOut;
#X obj 504 1470 s \$0-yOut;
#X obj 480 1558 s \$0-yOut;
#X obj 663 1558 s \$0-xOut;
#X obj 635 1602 r \$0-yOut;
#X obj 561 1602 r \$0-xOut;
#X obj 480 1118 t b b;
#X obj 480 1206 s \$0-event;
#X obj 480 678 t b b;
#X obj 480 854 s \$0-event;
#X obj 480 1602 r \$0-event;
#X msg 480 832 click;
#X msg 480 1184 motion;
#X obj 480 1624 pack s f f;
#X obj 480 1646 list trim;
#X obj 480 1536 clip 0;
#X obj 663 1536 clip 0;
#X obj 519 1514 - 1;
#X obj 702 1514 - 1;
#X obj 536 1448 s \$0-gate;
#X obj 480 810 t b b;
#X msg 564 832 1;
#X obj 564 854 s \$0-gate;
#X obj 480 1690 s \$0-out;
#X obj 480 1668 spigot;
#X obj 555 1646 r \$0-gate;
#X obj 57 194 s \$0-this;
#X msg 80 84 clear \, donecanvasdialog 1 -1 0 0 0 0 0 0 0 0 0;
#X msg 57 172 donecanvasdialog 1 -1 0 0 0 0 0 0 0 0 0 \, dirty 0;
#X obj 480 1272 list prepend 0;
#X obj 663 1272 list prepend 0;
#X obj 34 62 t b b b;
#X text 98 63 Clear everything and disable GOP for now;
#X text 86 348 Generate unique invisible names for the arrays;
#X text 129 438 Create pixel;
#X text 105 680 Create rectangle;
#X text 87 813 Create graphs;
#X text 174 1099 Activate GOP on everything;
#X text 169 1429 Set array sizes;
#X text 89 1540 Set array values to zero;
#X text 102 1670 Protect from save dialog;
#X text 590 370 Get click from rectangle;
#X text 587 415 Get x and y from array 1;
#X text 588 569 If y is zero get x from array 2;
#X text 682 679 Set pixel;
#X text 576 701 Reset arrays to zero;
#X text 677 480 Send x and y;
#X text 659 635 Send x and y;
#X text 563 943 Get change event from pixel;
#X text 649 1008 Get x and y from pixel;
#X text 669 1031 Undo shift;
#X text 698 524 Set pixel two pixels away to get the grab;
#X text 684 550 and reset afterwards to corner;
#X text 688 1096 Send x and y;
#X text 654 1162 Reset pixel to corner;
#X text 538 1185 Send motion event;
#X text 528 810 Open gate and send click event;
#X text 773 1272 Prepend mode;
#X text 750 1295 Route mode;
#X text 787 1316 Mode 2: Direct output;
#X text 609 1449 Mode 1: Only when inside the area \, otherwise close
gate;
#X text 716 1536 Mode 0: Clip values to zero/max;
#X text 89 327 Only proceed if area size is at least one square;
#X text 272 961 so nothing to draw;
#X text 136 944 Insert arrays into the graphs with zero size \,;
#X msg 86 1384 donecanvasdialog 1 -1 2 0 \$2 \$1 0 \$1 \$2 900 150
;
#X text 899 127 pixelSubpatch \, rectangleSubpatch \, tablesSubpatch
;
#X obj 194 216 r \$0-setHeight;
#X obj 107 213 r \$0-setWidth;
#X msg 751 238 0 0;
#X obj 226 260 s \$0-mode;
#X obj 226 238 \$3;
#X text 149 195 Get mode and dimensions;
#N canvas 80 95 1192 433 \$0-tablesSubpatch 0;
#N canvas 0 22 450 278 (subpatch) 0;
#X array                      1000 float 1;
#A 0 0 0 0 0 0 0 0 0 0 0 0 0 0 0 0 0 0 0 0 0 0 0 0 0 0 0 0 0 0 0 0
0 0 0 0 0 0 0 0 0 0 0 0 0 0 0 0 0 0 0 0 0 0 0 0 0 0 0 0 0 0 0 0 0 0
0 0 0 0 0 0 0 0 0 0 0 0 0 0 0 0 0 0 0 0 0 0 0 0 0 0 0 0 0 0 0 0 0 0
0 0 0 0 0 0 0 0 0 0 0 0 0 0 0 0 0 0 0 0 0 0 0 0 0 0 0 0 0 0 0 0 0 0
0 0 0 0 0 0 0 0 0 0 0 0 0 0 0 0 0 0 0 0 0 0 0 0 0 0 0 0 0 0 0 0 0 0
0 0 0 0 0 0 0 0 0 0 0 0 0 0 0 0 0 0 0 0 0 0 0 0 0 0 0 0 0 0 0 0 0 0
0 0 0 0 0 0 0 0 0 0 0 0 0 0 0 0 0 0 0 0 0 0 0 0 0 0 0 0 0 0 0 0 0 0
0 0 0 0 0 0 0 0 0 0 0 0 0 0 0 0 0 0 0 0 0 0 0 0 0 0 0 0 0 0 0 0 0 0
0 0 0 0 0 0 0 0 0 0 0 0 0 0 0 0 0 0 0 0 0 0 0 0 0 0 0 0 0 0 0 0 0 0
0 0 0 0 0 0 0 0 0 0 0 0 0 0 0 0 0 0 0 0 0 0 0 0 0 0 0 0 0 0 0 0 0 0
0 0 0 0 0 0 0 0 0 0 0 0 0 0 0 0 0 0 0 0 0 0 0 0 0 0 0 0 0 0 0 0 0 0
0 0 0 0 0 0 0 0 0 0 0 0 0 0 0 0 0 0 0 0 0 0 0 0 0 0 0 0 0 0 0 0 0 0
0 0 0 0 0 0 0 0 0 0 0 0 0 0 0 0 0 0 0 0 0 0 0 0 0 0 0 0 0 0 0 0 0 0
0 0 0 0 0 0 0 0 0 0 0 0 0 0 0 0 0 0 0 0 0 0 0 0 0 0 0 0 0 0 0 0 0 0
0 0 0 0 0 0 0 0 0 0 0 0 0 0 0 0 0 0 0 0 0 0 0 0 0 0 0 0 0 0 0 0 0 0
0 0 0 0 0 0 0 0 0 0 0 0 0 0 0 0 0 0 0 0 0 0 0 0 0 0 0 0 0 0 0 0 0 0
0 0 0 0 0 0 0 0 0 0 0 0 0 0 0 0 0 0 0 0 0 0 0 0 0 0 0 0 0 0 0 0 0 0
0 0 0 0 0 0 0 0 0 0 0 0 0 0 0 0 0 0 0 0 0 0 0 0 0 0 0 0 0 0 0 0 0 0
0 0 0 0 0 0 0 0 0 0 0 0 0 0 0 0 0 0 0 0 0 0 0 0 0 0 0 0 0 0 0 0 0 0
0 0 0 0 0 0 0 0 0 0 0 0 0 0 0 0 0 0 0 0 0 0 0 0 0 0 0 0 0 0 0 0 0 0
0 0 0 0 0 0 0 0 0 0 0 0 0 0 0 0 0 0 0 0 0 0 0 0 0 0 0 0 0 0 0 0 0 0
0 0 0 0 0 0 0 0 0 0 0 0 0 0 0 0 0 0 0 0 0 0 0 0 0 0 0 0 0 0 0 0 0 0
0 0 0 0 0 0 0 0 0 0 0 0 0 0 0 0 0 0 0 0 0 0 0 0 0 0 0 0 0 0 0 0 0 0
0 0 0 0 0 0 0 0 0 0 0 0 0 0 0 0 0 0 0 0 0 0 0 0 0 0 0 0 0 0 0 0 0 0
0 0 0 0 0 0 0 0 0 0 0 0 0 0 0 0 0 0 0 0 0 0 0 0 0 0 0 0 0 0 0 0 0 0
0 0 0 0 0 0 0 0 0 0 0 0 0 0 0 0 0 0 0 0 0 0 0 0 0 0 0 0 0 0 0 0 0 0
0 0 0 0 0 0 0 0 0 0 0 0 0 0 0 0 0 0 0 0 0 0 0 0 0 0 0 0 0 0 0 0 0 0
0 0 0 0 0 0 0 0 0 0 0 0 0 0 0 0 0 0 0 0 0 0 0 0 0 0 0 0 0 0 0 0 0 0
0 0 0 0 0 0 0 0 0 0 0 0 0 0 0 0 0 0 0 0 0 0 0 0 0 0 0 0 0 0 0 0 0 0
0 0 0 0 0 0 0 0 0 0 0 0 0 0 0 0 0;
#X coords 0 0 999 600 1000 600 2 0 0;
#X restore 100 20 graph;
#N canvas 0 22 450 278 (subpatch) 0;
#X array                      1000 float 1;
#A 0 0 0 0 0 0 0 0 0 0 0 0 0 0 0 0 0 0 0 0 0 0 0 0 0 0 0 0 0 0 0 0
0 0 0 0 0 0 0 0 0 0 0 0 0 0 0 0 0 0 0 0 0 0 0 0 0 0 0 0 0 0 0 0 0 0
0 0 0 0 0 0 0 0 0 0 0 0 0 0 0 0 0 0 0 0 0 0 0 0 0 0 0 0 0 0 0 0 0 0
0 0 0 0 0 0 0 0 0 0 0 0 0 0 0 0 0 0 0 0 0 0 0 0 0 0 0 0 0 0 0 0 0 0
0 0 0 0 0 0 0 0 0 0 0 0 0 0 0 0 0 0 0 0 0 0 0 0 0 0 0 0 0 0 0 0 0 0
0 0 0 0 0 0 0 0 0 0 0 0 0 0 0 0 0 0 0 0 0 0 0 0 0 0 0 0 0 0 0 0 0 0
0 0 0 0 0 0 0 0 0 0 0 0 0 0 0 0 0 0 0 0 0 0 0 0 0 0 0 0 0 0 0 0 0 0
0 0 0 0 0 0 0 0 0 0 0 0 0 0 0 0 0 0 0 0 0 0 0 0 0 0 0 0 0 0 0 0 0 0
0 0 0 0 0 0 0 0 0 0 0 0 0 0 0 0 0 0 0 0 0 0 0 0 0 0 0 0 0 0 0 0 0 0
0 0 0 0 0 0 0 0 0 0 0 0 0 0 0 0 0 0 0 0 0 0 0 0 0 0 0 0 0 0 0 0 0 0
0 0 0 0 0 0 0 0 0 0 0 0 0 0 0 0 0 0 0 0 0 0 0 0 0 0 0 0 0 0 0 0 0 0
0 0 0 0 0 0 0 0 0 0 0 0 0 0 0 0 0 0 0 0 0 0 0 0 0 0 0 0 0 0 0 0 0 0
0 0 0 0 0 0 0 0 0 0 0 0 0 0 0 0 0 0 0 0 0 0 0 0 0 0 0 0 0 0 0 0 0 0
0 0 0 0 0 0 0 0 0 0 0 0 0 0 0 0 0 0 0 0 0 0 0 0 0 0 0 0 0 0 0 0 0 0
0 0 0 0 0 0 0 0 0 0 0 0 0 0 0 0 0 0 0 0 0 0 0 0 0 0 0 0 0 0 0 0 0 0
0 0 0 0 0 0 0 0 0 0 0 0 0 0 0 0 0 0 0 0 0 0 0 0 0 0 0 0 0 0 0 0 0 0
0 0 0 0 0 0 0 0 0 0 0 0 0 0 0 0 0 0 0 0 0 0 0 0 0 0 0 0 0 0 0 0 0 0
0 0 0 0 0 0 0 0 0 0 0 0 0 0 0 0 0 0 0 0 0 0 0 0 0 0 0 0 0 0 0 0 0 0
0 0 0 0 0 0 0 0 0 0 0 0 0 0 0 0 0 0 0 0 0 0 0 0 0 0 0 0 0 0 0 0 0 0
0 0 0 0 0 0 0 0 0 0 0 0 0 0 0 0 0 0 0 0 0 0 0 0 0 0 0 0 0 0 0 0 0 0
0 0 0 0 0 0 0 0 0 0 0 0 0 0 0 0 0 0 0 0 0 0 0 0 0 0 0 0 0 0 0 0 0 0
0 0 0 0 0 0 0 0 0 0 0 0 0 0 0 0 0 0 0 0 0 0 0 0 0 0 0 0 0 0 0 0 0 0
0 0 0 0 0 0 0 0 0 0 0 0 0 0 0 0 0 0 0 0 0 0 0 0 0 0 0 0 0 0 0 0 0 0
0 0 0 0 0 0 0 0 0 0 0 0 0 0 0 0 0 0 0 0 0 0 0 0 0 0 0 0 0 0 0 0 0 0
0 0 0 0 0 0 0 0 0 0 0 0 0 0 0 0 0 0 0 0 0 0 0 0 0 0 0 0 0 0 0 0 0 0
0 0 0 0 0 0 0 0 0 0 0 0 0 0 0 0 0 0 0 0 0 0 0 0 0 0 0 0 0 0 0 0 0 0
0 0 0 0 0 0 0 0 0 0 0 0 0 0 0 0 0 0 0 0 0 0 0 0 0 0 0 0 0 0 0 0 0 0
0 0 0 0 0 0 0 0 0 0 0 0 0 0 0 0 0 0 0 0 0 0 0 0 0 0 0 0 0 0 0 0 0 0
0 0 0 0 0 0 0 0 0 0 0 0 0 0 0 0 0 0 0 0 0 0 0 0 0 0 0 0 0 0 0 0 0 0
0 0 0 0 0 0 0 0 0 0 0 0 0 0 0 0 0;
#X coords 0 600 999 0 1000 600 2 0 0;
#X restore 100 20 graph;
#X coords 0 600 1000 0 1000 600 2 100 20;
#X restore 901 151 pd \$0-tablesSubpatch;
#N canvas 3 51 450 300 \$0-rectangleSubpatch 0;
#X scalar 1026-rectangle 0 481 \;;
#X coords 0 0 1 1 1000 600 2 0 0;
#X restore 901 151 pd \$0-rectangleSubpatch;
#N canvas 3 51 450 300 \$0-pixelSubpatch 0;
#X scalar 1026-draw 425 383 0 \;;
#X scalar 1026-draw 563 369 1 \;;
#X scalar 1026-draw 647 372 2 \;;
#X scalar 1026-draw 649 372 3 \;;
#X scalar 1026-draw 651 372 4 \;;
#X scalar 1026-draw 654 372 5 \;;
#X scalar 1026-draw 657 372 6 \;;
#X scalar 1026-draw 734 369 7 \;;
#X scalar 1026-draw 735 369 8 \;;
#X scalar 1026-draw 736 369 9 \;;
#X scalar 1026-draw 811 370 10 \;;
#X scalar 1026-draw 812 369 11 \;;
#X scalar 1026-draw 813 369 12 \;;
#X scalar 1026-draw 814 369 13 \;;
#X scalar 1026-draw 876 361 14 \;;
#X scalar 1026-draw 914 352 15 \;;
#X scalar 1026-draw 915 352 16 \;;
#X scalar 1026-draw 991 350 17 \;;
#X scalar 1026-draw 991 351 18 \;;
#X scalar 1026-draw 113 348 19 \;;
#X scalar 1026-draw 637 475 20 \;;
#X scalar 1026-draw 640 475 21 \;;
#X scalar 1026-draw 891 353 22 \;;
#X scalar 1026-draw 891 352 23 \;;
#X scalar 1026-draw 840 447 24 \;;
#X scalar 1026-draw 637 300 25 \;;
#X scalar 1026-draw 638 300 26 \;;
#X scalar 1026-draw 789 437 27 \;;
#X scalar 1026-draw 790 438 28 \;;
#X scalar 1026-draw 791 438 29 \;;
#X scalar 1026-draw 822 297 30 \;;
#X scalar 1026-draw 589 446 31 \;;
#X scalar 1026-draw 589 447 32 \;;
#X scalar 1026-draw 657 317 33 \;;
#X scalar 1026-draw 480 317 34 \;;
#X scalar 1026-draw 601 418 35 \;;
#X scalar 1026-draw 603 418 36 \;;
#X scalar 1026-draw 605 418 37 \;;
#X scalar 1026-draw 606 418 38 \;;
#X scalar 1026-draw 759 373 39 \;;
#X scalar 1026-draw 760 352 40 \;;
#X scalar 1026-draw 504 397 41 \;;
#X scalar 1026-draw 503 397 42 \;;
#X scalar 1026-draw 502 397 43 \;;
#X scalar 1026-draw 500 396 44 \;;
#X scalar 1026-draw 495 395 45 \;;
#X scalar 1026-draw 493 395 46 \;;
#X scalar 1026-draw 486 394 47 \;;
#X scalar 1026-draw 451 391 48 \;;
#X scalar 1026-draw 452 391 49 \;;
#X scalar 1026-draw 457 390 50 \;;
#X scalar 1026-draw 474 390 51 \;;
#X scalar 1026-draw 485 390 52 \;;
#X scalar 1026-draw 590 392 53 \;;
#X scalar 1026-draw 601 392 54 \;;
#X scalar 1026-draw 607 392 55 \;;
#X scalar 1026-draw 610 393 56 \;;
#X scalar 1026-draw 612 393 57 \;;
#X scalar 1026-draw 613 393 58 \;;
#X scalar 1026-draw 615 393 59 \;;
#X scalar 1026-draw 688 396 60 \;;
#X scalar 1026-draw 689 396 61 \;;
#X scalar 1026-draw 690 395 62 \;;
#X scalar 1026-draw 691 395 63 \;;
#X scalar 1026-draw 692 395 64 \;;
#X scalar 1026-draw 693 395 65 \;;
#X scalar 1026-draw 693 396 66 \;;
#X scalar 1026-draw 695 396 67 \;;
#X scalar 1026-draw 710 398 68 \;;
#X scalar 1026-draw 711 398 69 \;;
#X scalar 1026-draw 713 399 70 \;;
#X scalar 1026-draw 714 399 71 \;;
#X scalar 1026-draw 716 399 72 \;;
#X scalar 1026-draw 816 447 73 \;;
#X scalar 1026-draw 817 447 74 \;;
#X scalar 1026-draw 817 444 75 \;;
#X scalar 1026-draw 817 441 76 \;;
#X scalar 1026-draw 815 435 77 \;;
#X scalar 1026-draw 815 434 78 \;;
#X scalar 1026-draw 814 430 79 \;;
#X scalar 1026-draw 814 427 80 \;;
#X scalar 1026-draw 813 424 81 \;;
#X scalar 1026-draw 812 421 82 \;;
#X scalar 1026-draw 811 418 83 \;;
#X scalar 1026-draw 811 416 84 \;;
#X scalar 1026-draw 810 415 85 \;;
#X scalar 1026-draw 810 414 86 \;;
#X scalar 1026-draw 810 412 87 \;;
#X scalar 1026-draw 809 411 88 \;;
#X scalar 1026-draw 809 410 89 \;;
#X scalar 1026-draw 809 409 90 \;;
#X scalar 1026-draw 809 408 91 \;;
#X scalar 1026-draw 809 407 92 \;;
#X scalar 1026-draw 809 406 93 \;;
#X scalar 1026-draw 809 404 94 \;;
#X scalar 1026-draw 809 403 95 \;;
#X scalar 1026-draw 809 400 96 \;;
#X scalar 1026-draw 809 397 97 \;;
#X scalar 1026-draw 808 395 98 \;;
#X scalar 1026-draw 808 391 99 \;;
#X scalar 1026-draw 807 386 100 \;;
#X scalar 1026-draw 807 384 101 \;;
#X scalar 1026-draw 806 379 102 \;;
#X scalar 1026-draw 805 377 103 \;;
#X scalar 1026-draw 805 374 104 \;;
#X scalar 1026-draw 804 371 105 \;;
#X scalar 1026-draw 803 369 106 \;;
#X scalar 1026-draw 802 367 107 \;;
#X scalar 1026-draw 802 366 108 \;;
#X scalar 1026-draw 801 365 109 \;;
#X scalar 1026-draw 801 363 110 \;;
#X scalar 1026-draw 800 361 111 \;;
#X scalar 1026-draw 800 359 112 \;;
#X scalar 1026-draw 800 358 113 \;;
#X scalar 1026-draw 799 357 114 \;;
#X scalar 1026-draw 799 356 115 \;;
#X scalar 1026-draw 798 355 116 \;;
#X scalar 1026-draw 798 353 117 \;;
#X scalar 1026-draw 798 351 118 \;;
#X scalar 1026-draw 797 350 119 \;;
#X scalar 1026-draw 797 349 120 \;;
#X scalar 1026-draw 797 348 121 \;;
#X scalar 1026-draw 796 346 122 \;;
#X scalar 1026-draw 795 344 123 \;;
#X scalar 1026-draw 795 342 124 \;;
#X scalar 1026-draw 795 341 125 \;;
#X scalar 1026-draw 794 340 126 \;;
#X scalar 1026-draw 794 339 127 \;;
#X scalar 1026-draw 794 338 128 \;;
#X scalar 1026-draw 793 336 129 \;;
#X scalar 1026-draw 793 335 130 \;;
#X scalar 1026-draw 792 333 131 \;;
#X scalar 1026-draw 791 331 132 \;;
#X scalar 1026-draw 790 329 133 \;;
#X scalar 1026-draw 790 328 134 \;;
#X scalar 1026-draw 789 326 135 \;;
#X scalar 1026-draw 788 325 136 \;;
#X scalar 1026-draw 788 324 137 \;;
#X scalar 1026-draw 787 322 138 \;;
#X scalar 1026-draw 786 320 139 \;;
#X scalar 1026-draw 784 317 140 \;;
#X scalar 1026-draw 783 316 141 \;;
#X scalar 1026-draw 782 314 142 \;;
#X scalar 1026-draw 780 313 143 \;;
#X scalar 1026-draw 778 311 144 \;;
#X scalar 1026-draw 776 309 145 \;;
#X scalar 1026-draw 772 306 146 \;;
#X scalar 1026-draw 769 304 147 \;;
#X scalar 1026-draw 767 302 148 \;;
#X scalar 1026-draw 765 301 149 \;;
#X scalar 1026-draw 763 300 150 \;;
#X scalar 1026-draw 761 299 151 \;;
#X scalar 1026-draw 759 298 152 \;;
#X scalar 1026-draw 756 297 153 \;;
#X scalar 1026-draw 754 297 154 \;;
#X scalar 1026-draw 753 296 155 \;;
#X scalar 1026-draw 752 296 156 \;;
#X scalar 1026-draw 751 296 157 \;;
#X scalar 1026-draw 751 297 158 \;;
#X scalar 1026-draw 750 300 159 \;;
#X scalar 1026-draw 748 303 160 \;;
#X scalar 1026-draw 745 307 161 \;;
#X scalar 1026-draw 742 312 162 \;;
#X scalar 1026-draw 739 322 163 \;;
#X scalar 1026-draw 736 329 164 \;;
#X scalar 1026-draw 735 332 165 \;;
#X scalar 1026-draw 734 333 166 \;;
#X scalar 1026-draw 733 335 167 \;;
#X scalar 1026-draw 732 337 168 \;;
#X scalar 1026-draw 732 338 169 \;;
#X scalar 1026-draw 731 338 170 \;;
#X scalar 1026-draw 731 339 171 \;;
#X scalar 1026-draw 731 340 172 \;;
#X scalar 1026-draw 731 341 173 \;;
#X scalar 1026-draw 732 342 174 \;;
#X scalar 1026-draw 732 343 175 \;;
#X scalar 1026-draw 732 344 176 \;;
#X scalar 1026-draw 733 345 177 \;;
#X scalar 1026-draw 639 348 178 \;;
#X scalar 1026-draw 543 333 179 \;;
#X scalar 1026-draw 542 333 180 \;;
#X scalar 1026-draw 486 329 181 \;;
#X scalar 1026-draw 434 332 182 \;;
#X scalar 1026-draw 436 334 183 \;;
#X scalar 1026-draw 439 338 184 \;;
#X scalar 1026-draw 447 347 185 \;;
#X scalar 1026-draw 457 353 186 \;;
#X scalar 1026-draw 461 354 187 \;;
#X scalar 1026-draw 469 357 188 \;;
#X scalar 1026-draw 481 358 189 \;;
#X scalar 1026-draw 491 358 190 \;;
#X scalar 1026-draw 502 354 191 \;;
#X scalar 1026-draw 516 345 192 \;;
#X scalar 1026-draw 527 336 193 \;;
#X scalar 1026-draw 536 327 194 \;;
#X scalar 1026-draw 541 319 195 \;;
#X scalar 1026-draw 542 315 196 \;;
#X scalar 1026-draw 542 311 197 \;;
#X scalar 1026-draw 542 309 198 \;;
#X scalar 1026-draw 539 306 199 \;;
#X scalar 1026-draw 535 305 200 \;;
#X scalar 1026-draw 527 305 201 \;;
#X scalar 1026-draw 514 310 202 \;;
#X scalar 1026-draw 504 317 203 \;;
#X scalar 1026-draw 499 326 204 \;;
#X scalar 1026-draw 498 338 205 \;;
#X scalar 1026-draw 504 355 206 \;;
#X scalar 1026-draw 512 363 207 \;;
#X scalar 1026-draw 527 372 208 \;;
#X scalar 1026-draw 542 376 209 \;;
#X scalar 1026-draw 554 374 210 \;;
#X scalar 1026-draw 569 367 211 \;;
#X scalar 1026-draw 589 344 212 \;;
#X scalar 1026-draw 596 329 213 \;;
#X scalar 1026-draw 598 319 214 \;;
#X scalar 1026-draw 598 313 215 \;;
#X scalar 1026-draw 591 303 216 \;;
#X scalar 1026-draw 588 301 217 \;;
#X scalar 1026-draw 569 298 218 \;;
#X scalar 1026-draw 554 299 219 \;;
#X scalar 1026-draw 537 309 220 \;;
#X scalar 1026-draw 530 320 221 \;;
#X scalar 1026-draw 528 328 222 \;;
#X scalar 1026-draw 531 347 223 \;;
#X scalar 1026-draw 539 356 224 \;;
#X scalar 1026-draw 565 366 225 \;;
#X scalar 1026-draw 628 358 226 \;;
#X scalar 1026-draw 652 345 227 \;;
#X scalar 1026-draw 684 320 228 \;;
#X scalar 1026-draw 704 294 229 \;;
#X scalar 1026-draw 703 274 230 \;;
#X scalar 1026-draw 690 265 231 \;;
#X scalar 1026-draw 667 261 232 \;;
#X scalar 1026-draw 635 265 233 \;;
#X scalar 1026-draw 612 272 234 \;;
#X scalar 1026-draw 593 282 235 \;;
#X scalar 1026-draw 575 303 236 \;;
#X scalar 1026-draw 566 326 237 \;;
#X scalar 1026-draw 563 345 238 \;;
#X scalar 1026-draw 572 378 239 \;;
#X scalar 1026-draw 608 405 240 \;;
#X scalar 1026-draw 644 409 241 \;;
#X scalar 1026-draw 678 400 242 \;;
#X scalar 1026-draw 709 377 243 \;;
#X scalar 1026-draw 726 346 244 \;;
#X scalar 1026-draw 731 295 245 \;;
#X scalar 1026-draw 721 270 246 \;;
#X scalar 1026-draw 706 265 247 \;;
#X scalar 1026-draw 689 265 248 \;;
#X scalar 1026-draw 667 271 249 \;;
#X scalar 1026-draw 645 282 250 \;;
#X scalar 1026-draw 631 303 251 \;;
#X scalar 1026-draw 626 329 252 \;;
#X scalar 1026-draw 628 362 253 \;;
#X scalar 1026-draw 639 379 254 \;;
#X scalar 1026-draw 674 387 255 \;;
#X scalar 1026-draw 688 383 256 \;;
#X scalar 1026-draw 717 367 257 \;;
#X scalar 1026-draw 736 337 258 \;;
#X scalar 1026-draw 733 324 259 \;;
#X scalar 1026-draw 719 308 260 \;;
#X scalar 1026-draw 700 298 261 \;;
#X scalar 1026-draw 675 298 262 \;;
#X scalar 1026-draw 665 302 263 \;;
#X scalar 1026-draw 658 312 264 \;;
#X scalar 1026-draw 657 320 265 \;;
#X scalar 1026-draw 660 339 266 \;;
#X scalar 1026-draw 662 344 267 \;;
#X scalar 1026-draw 664 346 268 \;;
#X scalar 1026-draw 665 345 269 \;;
#X scalar 1026-draw 667 343 270 \;;
#X scalar 1026-draw 668 343 271 \;;
#X scalar 1026-draw 540 354 272 \;;
#X scalar 1026-draw 539 354 273 \;;
#X scalar 1026-draw 538 355 274 \;;
#X scalar 1026-draw 537 355 275 \;;
#X scalar 1026-draw 536 355 276 \;;
#X scalar 1026-draw 535 355 277 \;;
#X scalar 1026-draw 534 355 278 \;;
#X scalar 1026-draw 532 355 279 \;;
#X scalar 1026-draw 530 353 280 \;;
#X scalar 1026-draw 528 351 281 \;;
#X scalar 1026-draw 527 350 282 \;;
#X scalar 1026-draw 525 346 283 \;;
#X scalar 1026-draw 525 342 284 \;;
#X scalar 1026-draw 525 336 285 \;;
#X scalar 1026-draw 527 332 286 \;;
#X scalar 1026-draw 529 329 287 \;;
#X scalar 1026-draw 533 326 288 \;;
#X scalar 1026-draw 535 325 289 \;;
#X scalar 1026-draw 540 324 290 \;;
#X scalar 1026-draw 544 323 291 \;;
#X scalar 1026-draw 549 323 292 \;;
#X scalar 1026-draw 557 323 293 \;;
#X scalar 1026-draw 565 325 294 \;;
#X scalar 1026-draw 567 326 295 \;;
#X scalar 1026-draw 571 331 296 \;;
#X scalar 1026-draw 573 338 297 \;;
#X scalar 1026-draw 573 343 298 \;;
#X scalar 1026-draw 573 348 299 \;;
#X scalar 1026-draw 571 352 300 \;;
#X scalar 1026-draw 567 358 301 \;;
#X scalar 1026-draw 561 363 302 \;;
#X scalar 1026-draw 551 369 303 \;;
#X scalar 1026-draw 539 373 304 \;;
#X scalar 1026-draw 531 374 305 \;;
#X scalar 1026-draw 528 375 306 \;;
#X scalar 1026-draw 526 375 307 \;;
#X scalar 1026-draw 523 373 308 \;;
#X scalar 1026-draw 521 371 309 \;;
#X scalar 1026-draw 519 364 310 \;;
#X scalar 1026-draw 518 356 311 \;;
#X scalar 1026-draw 518 352 312 \;;
#X scalar 1026-draw 522 337 313 \;;
#X scalar 1026-draw 526 329 314 \;;
#X scalar 1026-draw 529 325 315 \;;
#X scalar 1026-draw 533 320 316 \;;
#X scalar 1026-draw 536 317 317 \;;
#X scalar 1026-draw 538 316 318 \;;
#X scalar 1026-draw 541 315 319 \;;
#X scalar 1026-draw 542 315 320 \;;
#X scalar 1026-draw 546 316 321 \;;
#X scalar 1026-draw 547 318 322 \;;
#X scalar 1026-draw 554 326 323 \;;
#X scalar 1026-draw 557 333 324 \;;
#X scalar 1026-draw 558 339 325 \;;
#X scalar 1026-draw 558 344 326 \;;
#X scalar 1026-draw 558 349 327 \;;
#X scalar 1026-draw 558 351 328 \;;
#X scalar 1026-draw 557 354 329 \;;
#X scalar 1026-draw 557 356 330 \;;
#X scalar 1026-draw 555 358 331 \;;
#X scalar 1026-draw 554 359 332 \;;
#X scalar 1026-draw 552 359 333 \;;
#X scalar 1026-draw 549 360 334 \;;
#X scalar 1026-draw 547 360 335 \;;
#X scalar 1026-draw 544 360 336 \;;
#X scalar 1026-draw 542 359 337 \;;
#X scalar 1026-draw 541 359 338 \;;
#X scalar 1026-draw 539 357 339 \;;
#X scalar 1026-draw 536 355 340 \;;
#X scalar 1026-draw 534 353 341 \;;
#X scalar 1026-draw 533 352 342 \;;
#X scalar 1026-draw 533 351 343 \;;
#X scalar 1026-draw 533 347 344 \;;
#X scalar 1026-draw 535 342 345 \;;
#X scalar 1026-draw 538 339 346 \;;
#X scalar 1026-draw 542 336 347 \;;
#X scalar 1026-draw 546 334 348 \;;
#X scalar 1026-draw 551 331 349 \;;
#X scalar 1026-draw 558 330 350 \;;
#X scalar 1026-draw 560 330 351 \;;
#X scalar 1026-draw 565 330 352 \;;
#X scalar 1026-draw 570 332 353 \;;
#X scalar 1026-draw 573 333 354 \;;
#X scalar 1026-draw 575 335 355 \;;
#X scalar 1026-draw 578 340 356 \;;
#X scalar 1026-draw 578 344 357 \;;
#X scalar 1026-draw 578 350 358 \;;
#X scalar 1026-draw 577 357 359 \;;
#X scalar 1026-draw 575 363 360 \;;
#X scalar 1026-draw 573 366 361 \;;
#X scalar 1026-draw 572 368 362 \;;
#X scalar 1026-draw 570 370 363 \;;
#X scalar 1026-draw 568 371 364 \;;
#X scalar 1026-draw 567 371 365 \;;
#X scalar 1026-draw 565 372 366 \;;
#X scalar 1026-draw 563 372 367 \;;
#X scalar 1026-draw 559 372 368 \;;
#X scalar 1026-draw 557 371 369 \;;
#X scalar 1026-draw 552 370 370 \;;
#X scalar 1026-draw 547 369 371 \;;
#X scalar 1026-draw 545 369 372 \;;
#X scalar 1026-draw 543 368 373 \;;
#X scalar 1026-draw 542 368 374 \;;
#X scalar 1026-draw 540 368 375 \;;
#X scalar 1026-draw 538 367 376 \;;
#X scalar 1026-draw 536 366 377 \;;
#X scalar 1026-draw 535 366 378 \;;
#X scalar 1026-draw 534 365 379 \;;
#X scalar 1026-draw 533 364 380 \;;
#X scalar 1026-draw 532 362 381 \;;
#X scalar 1026-draw 532 361 382 \;;
#X scalar 1026-draw 531 358 383 \;;
#X scalar 1026-draw 531 353 384 \;;
#X scalar 1026-draw 531 352 385 \;;
#X scalar 1026-draw 533 348 386 \;;
#X scalar 1026-draw 535 344 387 \;;
#X scalar 1026-draw 538 341 388 \;;
#X scalar 1026-draw 539 341 389 \;;
#X scalar 1026-draw 541 339 390 \;;
#X scalar 1026-draw 544 338 391 \;;
#X scalar 1026-draw 546 337 392 \;;
#X scalar 1026-draw 548 336 393 \;;
#X scalar 1026-draw 551 336 394 \;;
#X scalar 1026-draw 554 335 395 \;;
#X scalar 1026-draw 558 335 396 \;;
#X scalar 1026-draw 561 335 397 \;;
#X scalar 1026-draw 568 337 398 \;;
#X scalar 1026-draw 569 338 399 \;;
#X scalar 1026-draw 571 339 400 \;;
#X scalar 1026-draw 572 341 401 \;;
#X scalar 1026-draw 574 343 402 \;;
#X scalar 1026-draw 576 348 403 \;;
#X scalar 1026-draw 576 350 404 \;;
#X scalar 1026-draw 575 356 405 \;;
#X scalar 1026-draw 572 363 406 \;;
#X scalar 1026-draw 568 370 407 \;;
#X scalar 1026-draw 567 372 408 \;;
#X scalar 1026-draw 564 373 409 \;;
#X scalar 1026-draw 563 374 410 \;;
#X scalar 1026-draw 556 376 411 \;;
#X scalar 1026-draw 551 377 412 \;;
#X scalar 1026-draw 547 377 413 \;;
#X scalar 1026-draw 541 376 414 \;;
#X scalar 1026-draw 537 375 415 \;;
#X scalar 1026-draw 535 374 416 \;;
#X scalar 1026-draw 533 372 417 \;;
#X scalar 1026-draw 529 369 418 \;;
#X scalar 1026-draw 528 367 419 \;;
#X scalar 1026-draw 523 360 420 \;;
#X scalar 1026-draw 520 356 421 \;;
#X scalar 1026-draw 520 354 422 \;;
#X scalar 1026-draw 518 345 423 \;;
#X scalar 1026-draw 518 341 424 \;;
#X scalar 1026-draw 520 335 425 \;;
#X scalar 1026-draw 522 331 426 \;;
#X scalar 1026-draw 525 328 427 \;;
#X scalar 1026-draw 528 326 428 \;;
#X scalar 1026-draw 532 323 429 \;;
#X scalar 1026-draw 536 321 430 \;;
#X scalar 1026-draw 537 321 431 \;;
#X scalar 1026-draw 540 321 432 \;;
#X scalar 1026-draw 543 321 433 \;;
#X scalar 1026-draw 546 321 434 \;;
#X scalar 1026-draw 552 322 435 \;;
#X scalar 1026-draw 557 324 436 \;;
#X scalar 1026-draw 559 326 437 \;;
#X scalar 1026-draw 561 327 438 \;;
#X scalar 1026-draw 563 330 439 \;;
#X scalar 1026-draw 564 332 440 \;;
#X scalar 1026-draw 566 334 441 \;;
#X scalar 1026-draw 566 339 442 \;;
#X scalar 1026-draw 566 341 443 \;;
#X scalar 1026-draw 566 345 444 \;;
#X scalar 1026-draw 566 348 445 \;;
#X scalar 1026-draw 564 351 446 \;;
#X scalar 1026-draw 561 355 447 \;;
#X scalar 1026-draw 558 359 448 \;;
#X scalar 1026-draw 556 360 449 \;;
#X scalar 1026-draw 555 361 450 \;;
#X scalar 1026-draw 553 361 451 \;;
#X scalar 1026-draw 548 361 452 \;;
#X scalar 1026-draw 545 361 453 \;;
#X scalar 1026-draw 541 361 454 \;;
#X scalar 1026-draw 538 360 455 \;;
#X scalar 1026-draw 535 359 456 \;;
#X scalar 1026-draw 532 358 457 \;;
#X scalar 1026-draw 529 356 458 \;;
#X scalar 1026-draw 526 355 459 \;;
#X scalar 1026-draw 520 351 460 \;;
#X scalar 1026-draw 516 347 461 \;;
#X scalar 1026-draw 514 345 462 \;;
#X scalar 1026-draw 510 340 463 \;;
#X scalar 1026-draw 508 336 464 \;;
#X scalar 1026-draw 507 330 465 \;;
#X scalar 1026-draw 507 329 466 \;;
#X scalar 1026-draw 510 320 467 \;;
#X scalar 1026-draw 514 316 468 \;;
#X scalar 1026-draw 518 314 469 \;;
#X scalar 1026-draw 523 312 470 \;;
#X scalar 1026-draw 528 310 471 \;;
#X scalar 1026-draw 539 308 472 \;;
#X scalar 1026-draw 544 307 473 \;;
#X scalar 1026-draw 560 306 474 \;;
#X scalar 1026-draw 565 306 475 \;;
#X scalar 1026-draw 580 307 476 \;;
#X scalar 1026-draw 585 307 477 \;;
#X scalar 1026-draw 593 309 478 \;;
#X scalar 1026-draw 597 312 479 \;;
#X scalar 1026-draw 603 315 480 \;;
#X scalar 1026-draw 608 319 481 \;;
#X scalar 1026-draw 611 323 482 \;;
#X scalar 1026-draw 613 326 483 \;;
#X scalar 1026-draw 614 330 484 \;;
#X scalar 1026-draw 614 334 485 \;;
#X scalar 1026-draw 613 340 486 \;;
#X scalar 1026-draw 610 347 487 \;;
#X scalar 1026-draw 603 357 488 \;;
#X scalar 1026-draw 599 360 489 \;;
#X scalar 1026-draw 595 362 490 \;;
#X scalar 1026-draw 594 363 491 \;;
#X scalar 1026-draw 586 365 492 \;;
#X scalar 1026-draw 582 365 493 \;;
#X scalar 1026-draw 578 366 494 \;;
#X scalar 1026-draw 576 366 495 \;;
#X scalar 1026-draw 572 366 496 \;;
#X scalar 1026-draw 566 365 497 \;;
#X scalar 1026-draw 560 364 498 \;;
#X scalar 1026-draw 554 364 499 \;;
#X scalar 1026-draw 547 363 500 \;;
#X scalar 1026-draw 542 362 501 \;;
#X scalar 1026-draw 537 361 502 \;;
#X scalar 1026-draw 532 360 503 \;;
#X scalar 1026-draw 529 358 504 \;;
#X scalar 1026-draw 525 356 505 \;;
#X scalar 1026-draw 523 353 506 \;;
#X scalar 1026-draw 521 350 507 \;;
#X scalar 1026-draw 520 345 508 \;;
#X scalar 1026-draw 519 340 509 \;;
#X scalar 1026-draw 520 334 510 \;;
#X scalar 1026-draw 523 328 511 \;;
#X scalar 1026-draw 525 325 512 \;;
#X scalar 1026-draw 531 317 513 \;;
#X scalar 1026-draw 535 315 514 \;;
#X scalar 1026-draw 538 313 515 \;;
#X scalar 1026-draw 541 312 516 \;;
#X scalar 1026-draw 545 310 517 \;;
#X scalar 1026-draw 549 310 518 \;;
#X scalar 1026-draw 553 309 519 \;;
#X scalar 1026-draw 557 309 520 \;;
#X scalar 1026-draw 566 310 521 \;;
#X scalar 1026-draw 572 311 522 \;;
#X scalar 1026-draw 577 313 523 \;;
#X scalar 1026-draw 581 316 524 \;;
#X scalar 1026-draw 584 318 525 \;;
#X scalar 1026-draw 587 322 526 \;;
#X scalar 1026-draw 589 324 527 \;;
#X scalar 1026-draw 590 328 528 \;;
#X scalar 1026-draw 592 336 529 \;;
#X scalar 1026-draw 592 338 530 \;;
#X scalar 1026-draw 592 342 531 \;;
#X scalar 1026-draw 591 346 532 \;;
#X scalar 1026-draw 590 348 533 \;;
#X scalar 1026-draw 589 349 534 \;;
#X scalar 1026-draw 586 351 535 \;;
#X scalar 1026-draw 581 354 536 \;;
#X scalar 1026-draw 578 355 537 \;;
#X scalar 1026-draw 573 356 538 \;;
#X scalar 1026-draw 569 356 539 \;;
#X scalar 1026-draw 564 356 540 \;;
#X scalar 1026-draw 559 356 541 \;;
#X scalar 1026-draw 555 356 542 \;;
#X scalar 1026-draw 550 356 543 \;;
#X scalar 1026-draw 542 355 544 \;;
#X scalar 1026-draw 532 353 545 \;;
#X scalar 1026-draw 529 352 546 \;;
#X scalar 1026-draw 522 350 547 \;;
#X scalar 1026-draw 515 347 548 \;;
#X scalar 1026-draw 511 345 549 \;;
#X scalar 1026-draw 506 341 550 \;;
#X scalar 1026-draw 502 338 551 \;;
#X scalar 1026-draw 500 335 552 \;;
#X scalar 1026-draw 499 330 553 \;;
#X scalar 1026-draw 498 325 554 \;;
#X scalar 1026-draw 498 322 555 \;;
#X scalar 1026-draw 501 316 556 \;;
#X scalar 1026-draw 505 311 557 \;;
#X scalar 1026-draw 509 308 558 \;;
#X scalar 1026-draw 513 306 559 \;;
#X scalar 1026-draw 519 304 560 \;;
#X scalar 1026-draw 532 302 561 \;;
#X scalar 1026-draw 539 302 562 \;;
#X scalar 1026-draw 550 302 563 \;;
#X scalar 1026-draw 557 303 564 \;;
#X scalar 1026-draw 564 306 565 \;;
#X scalar 1026-draw 566 307 566 \;;
#X scalar 1026-draw 572 311 567 \;;
#X scalar 1026-draw 575 314 568 \;;
#X scalar 1026-draw 576 318 569 \;;
#X scalar 1026-draw 579 327 570 \;;
#X scalar 1026-draw 581 338 571 \;;
#X scalar 1026-draw 583 349 572 \;;
#X scalar 1026-draw 584 354 573 \;;
#X scalar 1026-draw 585 360 574 \;;
#X scalar 1026-draw 585 362 575 \;;
#X scalar 1026-draw 585 366 576 \;;
#X scalar 1026-draw 584 376 577 \;;
#X scalar 1026-draw 582 380 578 \;;
#X scalar 1026-draw 581 382 579 \;;
#X scalar 1026-draw 576 388 580 \;;
#X scalar 1026-draw 571 392 581 \;;
#X scalar 1026-draw 566 395 582 \;;
#X scalar 1026-draw 562 396 583 \;;
#X scalar 1026-draw 557 397 584 \;;
#X scalar 1026-draw 551 397 585 \;;
#X scalar 1026-draw 544 397 586 \;;
#X scalar 1026-draw 534 397 587 \;;
#X scalar 1026-draw 528 395 588 \;;
#X scalar 1026-draw 521 393 589 \;;
#X scalar 1026-draw 511 389 590 \;;
#X scalar 1026-draw 502 385 591 \;;
#X scalar 1026-draw 494 380 592 \;;
#X scalar 1026-draw 480 370 593 \;;
#X scalar 1026-draw 471 363 594 \;;
#X scalar 1026-draw 467 358 595 \;;
#X scalar 1026-draw 462 350 596 \;;
#X scalar 1026-draw 460 342 597 \;;
#X scalar 1026-draw 459 335 598 \;;
#X scalar 1026-draw 460 324 599 \;;
#X scalar 1026-draw 465 314 600 \;;
#X scalar 1026-draw 470 308 601 \;;
#X scalar 1026-draw 478 301 602 \;;
#X scalar 1026-draw 484 298 603 \;;
#X scalar 1026-draw 493 294 604 \;;
#X scalar 1026-draw 499 292 605 \;;
#X scalar 1026-draw 503 291 606 \;;
#X scalar 1026-draw 518 287 607 \;;
#X scalar 1026-draw 529 287 608 \;;
#X scalar 1026-draw 541 287 609 \;;
#X scalar 1026-draw 575 288 610 \;;
#X scalar 1026-draw 589 291 611 \;;
#X scalar 1026-draw 593 293 612 \;;
#X scalar 1026-draw 597 295 613 \;;
#X scalar 1026-draw 605 303 614 \;;
#X scalar 1026-draw 609 308 615 \;;
#X scalar 1026-draw 616 317 616 \;;
#X scalar 1026-draw 621 324 617 \;;
#X scalar 1026-draw 624 331 618 \;;
#X scalar 1026-draw 627 338 619 \;;
#X scalar 1026-draw 632 349 620 \;;
#X scalar 1026-draw 635 360 621 \;;
#X scalar 1026-draw 636 364 622 \;;
#X scalar 1026-draw 636 377 623 \;;
#X scalar 1026-draw 635 383 624 \;;
#X scalar 1026-draw 634 386 625 \;;
#X scalar 1026-draw 631 390 626 \;;
#X scalar 1026-draw 627 394 627 \;;
#X scalar 1026-draw 625 396 628 \;;
#X scalar 1026-draw 618 399 629 \;;
#X scalar 1026-draw 612 402 630 \;;
#X scalar 1026-draw 608 403 631 \;;
#X scalar 1026-draw 602 405 632 \;;
#X scalar 1026-draw 595 406 633 \;;
#X scalar 1026-draw 589 406 634 \;;
#X scalar 1026-draw 576 407 635 \;;
#X scalar 1026-draw 566 408 636 \;;
#X scalar 1026-draw 554 408 637 \;;
#X scalar 1026-draw 552 408 638 \;;
#X scalar 1026-draw 542 407 639 \;;
#X scalar 1026-draw 536 405 640 \;;
#X scalar 1026-draw 525 403 641 \;;
#X scalar 1026-draw 514 400 642 \;;
#X scalar 1026-draw 505 397 643 \;;
#X scalar 1026-draw 496 392 644 \;;
#X scalar 1026-draw 490 388 645 \;;
#X scalar 1026-draw 483 382 646 \;;
#X scalar 1026-draw 479 377 647 \;;
#X scalar 1026-draw 474 372 648 \;;
#X scalar 1026-draw 471 367 649 \;;
#X scalar 1026-draw 466 358 650 \;;
#X scalar 1026-draw 464 349 651 \;;
#X scalar 1026-draw 462 341 652 \;;
#X scalar 1026-draw 461 330 653 \;;
#X scalar 1026-draw 461 324 654 \;;
#X scalar 1026-draw 463 319 655 \;;
#X scalar 1026-draw 466 313 656 \;;
#X scalar 1026-draw 469 310 657 \;;
#X scalar 1026-draw 478 303 658 \;;
#X scalar 1026-draw 488 297 659 \;;
#X scalar 1026-draw 494 295 660 \;;
#X scalar 1026-draw 501 291 661 \;;
#X scalar 1026-draw 512 287 662 \;;
#X scalar 1026-draw 529 281 663 \;;
#X scalar 1026-draw 551 274 664 \;;
#X scalar 1026-draw 566 270 665 \;;
#X scalar 1026-draw 580 267 666 \;;
#X scalar 1026-draw 588 266 667 \;;
#X scalar 1026-draw 591 266 668 \;;
#X scalar 1026-draw 596 268 669 \;;
#X scalar 1026-draw 603 273 670 \;;
#X scalar 1026-draw 607 276 671 \;;
#X scalar 1026-draw 610 281 672 \;;
#X scalar 1026-draw 613 287 673 \;;
#X scalar 1026-draw 616 292 674 \;;
#X scalar 1026-draw 618 299 675 \;;
#X scalar 1026-draw 620 308 676 \;;
#X scalar 1026-draw 622 318 677 \;;
#X scalar 1026-draw 625 329 678 \;;
#X scalar 1026-draw 625 333 679 \;;
#X scalar 1026-draw 625 341 680 \;;
#X scalar 1026-draw 624 344 681 \;;
#X scalar 1026-draw 623 346 682 \;;
#X scalar 1026-draw 621 349 683 \;;
#X scalar 1026-draw 618 351 684 \;;
#X scalar 1026-draw 357 174 685 \;;
#X scalar 1026-draw 354 174 686 \;;
#X scalar 1026-draw 353 174 687 \;;
#X scalar 1026-draw 351 173 688 \;;
#X scalar 1026-draw 350 172 689 \;;
#X scalar 1026-draw 350 170 690 \;;
#X scalar 1026-draw 354 166 691 \;;
#X scalar 1026-draw 361 164 692 \;;
#X scalar 1026-draw 370 163 693 \;;
#X scalar 1026-draw 376 164 694 \;;
#X scalar 1026-draw 378 169 695 \;;
#X scalar 1026-draw 381 173 696 \;;
#X scalar 1026-draw 382 179 697 \;;
#X scalar 1026-draw 382 181 698 \;;
#X scalar 1026-draw 381 182 699 \;;
#X scalar 1026-draw 380 183 700 \;;
#X scalar 1026-draw 379 184 701 \;;
#X scalar 1026-draw 374 185 702 \;;
#X scalar 1026-draw 367 185 703 \;;
#X scalar 1026-draw 364 175 704 \;;
#X scalar 1026-draw 368 170 705 \;;
#X scalar 1026-draw 370 169 706 \;;
#X scalar 1026-draw 372 168 707 \;;
#X scalar 1026-draw 382 165 708 \;;
#X scalar 1026-draw 390 180 709 \;;
#X scalar 1026-draw 389 185 710 \;;
#X scalar 1026-draw 388 187 711 \;;
#X scalar 1026-draw 386 189 712 \;;
#X scalar 1026-draw 374 198 713 \;;
#X scalar 1026-draw 371 199 714 \;;
#X scalar 1026-draw 365 200 715 \;;
#X scalar 1026-draw 361 200 716 \;;
#X scalar 1026-draw 357 187 717 \;;
#X scalar 1026-draw 357 186 718 \;;
#X scalar 1026-draw 358 184 719 \;;
#X scalar 1026-draw 359 183 720 \;;
#X scalar 1026-draw 359 182 721 \;;
#X scalar 1026-draw 361 180 722 \;;
#X scalar 1026-draw 365 180 723 \;;
#X scalar 1026-draw 366 181 724 \;;
#X scalar 1026-draw 367 181 725 \;;
#X scalar 1026-draw 370 186 726 \;;
#X scalar 1026-draw 368 202 727 \;;
#X scalar 1026-draw 361 208 728 \;;
#X scalar 1026-draw 358 209 729 \;;
#X scalar 1026-draw 351 209 730 \;;
#X scalar 1026-draw 347 208 731 \;;
#X scalar 1026-draw 346 207 732 \;;
#X scalar 1026-draw 344 205 733 \;;
#X scalar 1026-draw 343 196 734 \;;
#X scalar 1026-draw 344 193 735 \;;
#X scalar 1026-draw 353 179 736 \;;
#X scalar 1026-draw 440 203 737 \;;
#X scalar 1026-draw 440 202 738 \;;
#X scalar 1026-draw 441 200 739 \;;
#X scalar 1026-draw 441 199 740 \;;
#X scalar 1026-draw 441 197 741 \;;
#X scalar 1026-draw 440 196 742 \;;
#X scalar 1026-draw 439 194 743 \;;
#X scalar 1026-draw 428 191 744 \;;
#X scalar 1026-draw 424 191 745 \;;
#X scalar 1026-draw 417 195 746 \;;
#X scalar 1026-draw 415 198 747 \;;
#X scalar 1026-draw 415 208 748 \;;
#X scalar 1026-draw 417 212 749 \;;
#X scalar 1026-draw 418 213 750 \;;
#X scalar 1026-draw 423 216 751 \;;
#X scalar 1026-draw 425 216 752 \;;
#X scalar 1026-draw 430 217 753 \;;
#X scalar 1026-draw 436 216 754 \;;
#X scalar 1026-draw 438 216 755 \;;
#X scalar 1026-draw 443 214 756 \;;
#X scalar 1026-draw 444 205 757 \;;
#X scalar 1026-draw 438 199 758 \;;
#X scalar 1026-draw 435 198 759 \;;
#X scalar 1026-draw 432 197 760 \;;
#X scalar 1026-draw 417 196 761 \;;
#X scalar 1026-draw 413 197 762 \;;
#X scalar 1026-draw 408 198 763 \;;
#X scalar 1026-draw 403 200 764 \;;
#X scalar 1026-draw 395 206 765 \;;
#X scalar 1026-draw 392 210 766 \;;
#X scalar 1026-draw 391 211 767 \;;
#X scalar 1026-draw 390 216 768 \;;
#X scalar 1026-draw 390 221 769 \;;
#X scalar 1026-draw 350 225 770 \;;
#X scalar 1026-draw 348 224 771 \;;
#X scalar 1026-draw 347 224 772 \;;
#X scalar 1026-draw 346 217 773 \;;
#X scalar 1026-draw 359 200 774 \;;
#X scalar 1026-draw 362 199 775 \;;
#X scalar 1026-draw 368 197 776 \;;
#X scalar 1026-draw 371 196 777 \;;
#X scalar 1026-draw 390 195 778 \;;
#X scalar 1026-draw 415 206 779 \;;
#X scalar 1026-draw 417 216 780 \;;
#X scalar 1026-draw 416 220 781 \;;
#X scalar 1026-draw 413 225 782 \;;
#X scalar 1026-draw 379 233 783 \;;
#X scalar 1026-draw 372 233 784 \;;
#X scalar 1026-draw 365 231 785 \;;
#X scalar 1026-draw 362 228 786 \;;
#X scalar 1026-draw 364 221 787 \;;
#X scalar 1026-draw 834 175 788 \;;
#X scalar 1026-draw 439 208 789 \;;
#X scalar 1026-draw 448 209 790 \;;
#X scalar 1026-draw 450 210 791 \;;
#X scalar 1026-draw 452 211 792 \;;
#X scalar 1026-draw 456 214 793 \;;
#X scalar 1026-draw 458 216 794 \;;
#X scalar 1026-draw 459 218 795 \;;
#X scalar 1026-draw 464 222 796 \;;
#X scalar 1026-draw 465 225 797 \;;
#X scalar 1026-draw 467 227 798 \;;
#X scalar 1026-draw 468 228 799 \;;
#X scalar 1026-draw 469 230 800 \;;
#X scalar 1026-draw 471 233 801 \;;
#X scalar 1026-draw 471 234 802 \;;
#X scalar 1026-draw 472 236 803 \;;
#X scalar 1026-draw 473 238 804 \;;
#X scalar 1026-draw 473 239 805 \;;
#X scalar 1026-draw 474 241 806 \;;
#X scalar 1026-draw 474 244 807 \;;
#X scalar 1026-draw 473 246 808 \;;
#X scalar 1026-draw 472 246 809 \;;
#X scalar 1026-draw 472 247 810 \;;
#X scalar 1026-draw 463 249 811 \;;
#X scalar 1026-draw 445 250 812 \;;
#X scalar 1026-draw 437 249 813 \;;
#X scalar 1026-draw 410 246 814 \;;
#X scalar 1026-draw 402 245 815 \;;
#X scalar 1026-draw 397 244 816 \;;
#X scalar 1026-draw 394 242 817 \;;
#X scalar 1026-draw 393 241 818 \;;
#X scalar 1026-draw 386 230 819 \;;
#X scalar 1026-draw 386 217 820 \;;
#X scalar 1026-draw 390 199 821 \;;
#X scalar 1026-draw 391 197 822 \;;
#X scalar 1026-draw 392 194 823 \;;
#X scalar 1026-draw 394 188 824 \;;
#X scalar 1026-draw 397 183 825 \;;
#X scalar 1026-draw 405 174 826 \;;
#X scalar 1026-draw 411 169 827 \;;
#X scalar 1026-draw 418 165 828 \;;
#X scalar 1026-draw 420 164 829 \;;
#X scalar 1026-draw 425 163 830 \;;
#X scalar 1026-draw 431 164 831 \;;
#X scalar 1026-draw 441 168 832 \;;
#X scalar 1026-draw 446 171 833 \;;
#X scalar 1026-draw 454 176 834 \;;
#X scalar 1026-draw 462 182 835 \;;
#X scalar 1026-draw 473 208 836 \;;
#X scalar 1026-draw 473 210 837 \;;
#X scalar 1026-draw 471 220 838 \;;
#X scalar 1026-draw 466 229 839 \;;
#X scalar 1026-draw 465 231 840 \;;
#X scalar 1026-draw 461 236 841 \;;
#X scalar 1026-draw 448 249 842 \;;
#X scalar 1026-draw 446 250 843 \;;
#X scalar 1026-draw 435 256 844 \;;
#X scalar 1026-draw 424 259 845 \;;
#X scalar 1026-draw 421 259 846 \;;
#X scalar 1026-draw 401 260 847 \;;
#X scalar 1026-draw 386 258 848 \;;
#X scalar 1026-draw 384 257 849 \;;
#X scalar 1026-draw 382 256 850 \;;
#X scalar 1026-draw 378 254 851 \;;
#X scalar 1026-draw 376 252 852 \;;
#X scalar 1026-draw 374 248 853 \;;
#X scalar 1026-draw 373 247 854 \;;
#X scalar 1026-draw 367 230 855 \;;
#X scalar 1026-draw 367 226 856 \;;
#X scalar 1026-draw 367 223 857 \;;
#X scalar 1026-draw 367 220 858 \;;
#X scalar 1026-draw 368 213 859 \;;
#X scalar 1026-draw 373 205 860 \;;
#X scalar 1026-draw 378 199 861 \;;
#X scalar 1026-draw 384 196 862 \;;
#X scalar 1026-draw 413 201 863 \;;
#X scalar 1026-draw 425 205 864 \;;
#X scalar 1026-draw 431 208 865 \;;
#X scalar 1026-draw 443 224 866 \;;
#X scalar 1026-draw 444 228 867 \;;
#X scalar 1026-draw 444 230 868 \;;
#X scalar 1026-draw 445 238 869 \;;
#X scalar 1026-draw 443 249 870 \;;
#X scalar 1026-draw 441 256 871 \;;
#X scalar 1026-draw 436 266 872 \;;
#X scalar 1026-draw 434 270 873 \;;
#X scalar 1026-draw 432 274 874 \;;
#X scalar 1026-draw 431 276 875 \;;
#X scalar 1026-draw 430 279 876 \;;
#X scalar 1026-draw 430 280 877 \;;
#X scalar 1026-draw 429 293 878 \;;
#X scalar 1026-draw 429 295 879 \;;
#X scalar 1026-draw 428 300 880 \;;
#X scalar 1026-draw 428 302 881 \;;
#X scalar 1026-draw 428 308 882 \;;
#X scalar 1026-draw 428 313 883 \;;
#X scalar 1026-draw 428 323 884 \;;
#X scalar 1026-draw 428 333 885 \;;
#X scalar 1026-draw 428 336 886 \;;
#X scalar 1026-draw 428 337 887 \;;
#X scalar 1026-draw 428 340 888 \;;
#X scalar 1026-draw 428 341 889 \;;
#X scalar 1026-draw 400 416 890 \;;
#X scalar 1026-draw 398 411 891 \;;
#X scalar 1026-draw 398 411 892 \;;
#X scalar 1026-draw 413 547 893 \;;
#X scalar 1026-draw 413 548 894 \;;
#X scalar 1026-draw 413 551 895 \;;
#X scalar 1026-draw 413 554 896 \;;
#X scalar 1026-draw 413 562 897 \;;
#X scalar 1026-draw 413 563 898 \;;
#X scalar 1026-draw 413 564 899 \;;
#X scalar 1026-draw 413 566 900 \;;
#X scalar 1026-draw 414 567 901 \;;
#X scalar 1026-draw 416 575 902 \;;
#X scalar 1026-draw 417 586 903 \;;
#X scalar 1026-draw 417 587 904 \;;
#X scalar 1026-draw 417 588 905 \;;
#X scalar 1026-draw 417 592 906 \;;
#X scalar 1026-draw 418 595 907 \;;
#X scalar 1026-draw 418 598 908 \;;
#X scalar 1026-draw 418 599 909 \;;
#X scalar 1026-draw 418 599 910 \;;
#X scalar 1026-draw 418 599 911 \;;
#X scalar 1026-draw 418 599 912 \;;
#X scalar 1026-draw 418 599 913 \;;
#X scalar 1026-draw 419 599 914 \;;
#X scalar 1026-draw 419 599 915 \;;
#X scalar 1026-draw 419 599 916 \;;
#X scalar 1026-draw 419 599 917 \;;
#X scalar 1026-draw 419 599 918 \;;
#X scalar 1026-draw 419 599 919 \;;
#X scalar 1026-draw 419 599 920 \;;
#X scalar 1026-draw 419 599 921 \;;
#X scalar 1026-draw 419 599 922 \;;
#X scalar 1026-draw 418 599 923 \;;
#X scalar 1026-draw 418 599 924 \;;
#X scalar 1026-draw 418 599 925 \;;
#X scalar 1026-draw 417 599 926 \;;
#X scalar 1026-draw 417 599 927 \;;
#X scalar 1026-draw 417 599 928 \;;
#X scalar 1026-draw 416 599 929 \;;
#X scalar 1026-draw 416 599 930 \;;
#X scalar 1026-draw 417 574 931 \;;
#X scalar 1026-draw 418 561 932 \;;
#X scalar 1026-draw 419 483 933 \;;
#X scalar 1026-draw 419 444 934 \;;
#X scalar 1026-draw 419 438 935 \;;
#X scalar 1026-draw 419 431 936 \;;
#X scalar 1026-draw 419 427 937 \;;
#X scalar 1026-draw 419 421 938 \;;
#X scalar 1026-draw 421 405 939 \;;
#X scalar 1026-draw 423 385 940 \;;
#X scalar 1026-draw 424 375 941 \;;
#X scalar 1026-draw 426 353 942 \;;
#X scalar 1026-draw 429 328 943 \;;
#X scalar 1026-draw 432 309 944 \;;
#X scalar 1026-draw 433 303 945 \;;
#X scalar 1026-draw 434 300 946 \;;
#X scalar 1026-draw 435 286 947 \;;
#X scalar 1026-draw 436 278 948 \;;
#X scalar 1026-draw 438 260 949 \;;
#X scalar 1026-draw 439 255 950 \;;
#X scalar 1026-draw 441 238 951 \;;
#X scalar 1026-draw 442 229 952 \;;
#X scalar 1026-draw 442 226 953 \;;
#X scalar 1026-draw 442 225 954 \;;
#X scalar 1026-draw 443 222 955 \;;
#X scalar 1026-draw 443 220 956 \;;
#X scalar 1026-draw 440 256 957 \;;
#X scalar 1026-draw 440 315 958 \;;
#X scalar 1026-draw 442 327 959 \;;
#X scalar 1026-draw 441 416 960 \;;
#X scalar 1026-draw 441 429 961 \;;
#X scalar 1026-draw 441 447 962 \;;
#X scalar 1026-draw 441 452 963 \;;
#X scalar 1026-draw 441 457 964 \;;
#X scalar 1026-draw 439 475 965 \;;
#X scalar 1026-draw 434 494 966 \;;
#X scalar 1026-draw 425 523 967 \;;
#X scalar 1026-draw 424 527 968 \;;
#X scalar 1026-draw 421 538 969 \;;
#X scalar 1026-draw 418 544 970 \;;
#X scalar 1026-draw 416 460 971 \;;
#X scalar 1026-draw 418 444 972 \;;
#X scalar 1026-draw 418 436 973 \;;
#X scalar 1026-draw 420 424 974 \;;
#X scalar 1026-draw 422 396 975 \;;
#X scalar 1026-draw 423 390 976 \;;
#X scalar 1026-draw 424 378 977 \;;
#X scalar 1026-draw 425 367 978 \;;
#X scalar 1026-draw 425 365 979 \;;
#X scalar 1026-draw 425 355 980 \;;
#X scalar 1026-draw 424 355 981 \;;
#X scalar 1026-draw 422 355 982 \;;
#X scalar 1026-draw 408 350 983 \;;
#X scalar 1026-draw 403 348 984 \;;
#X scalar 1026-draw 368 342 985 \;;
#X scalar 1026-draw 360 341 986 \;;
#X scalar 1026-draw 349 341 987 \;;
#X scalar 1026-draw 327 342 988 \;;
#X scalar 1026-draw 289 352 989 \;;
#X scalar 1026-draw 280 358 990 \;;
#X scalar 1026-draw 259 381 991 \;;
#X scalar 1026-draw 256 386 992 \;;
#X scalar 1026-draw 248 405 993 \;;
#X scalar 1026-draw 246 410 994 \;;
#X scalar 1026-draw 245 419 995 \;;
#X scalar 1026-draw 244 426 996 \;;
#X scalar 1026-draw 242 438 997 \;;
#X scalar 1026-draw 239 479 998 \;;
#X scalar 1026-draw 251 523 0 \;;
#X scalar 1026-draw 259 531 1 \;;
#X scalar 1026-draw 270 540 2 \;;
#X scalar 1026-draw 292 552 3 \;;
#X scalar 1026-draw 303 557 4 \;;
#X scalar 1026-draw 313 562 5 \;;
#X scalar 1026-draw 320 563 6 \;;
#X scalar 1026-draw 471 575 7 \;;
#X scalar 1026-draw 482 573 8 \;;
#X scalar 1026-draw 510 570 9 \;;
#X scalar 1026-draw 520 566 10 \;;
#X scalar 1026-draw 524 565 11 \;;
#X scalar 1026-draw 557 539 12 \;;
#X scalar 1026-draw 561 536 13 \;;
#X scalar 1026-draw 566 529 14 \;;
#X scalar 1026-draw 578 513 15 \;;
#X scalar 1026-draw 581 509 16 \;;
#X scalar 1026-draw 583 506 17 \;;
#X scalar 1026-draw 587 496 18 \;;
#X scalar 1026-draw 590 469 19 \;;
#X scalar 1026-draw 587 435 20 \;;
#X scalar 1026-draw 573 402 21 \;;
#X scalar 1026-draw 568 395 22 \;;
#X scalar 1026-draw 564 390 23 \;;
#X scalar 1026-draw 540 369 24 \;;
#X scalar 1026-draw 465 329 25 \;;
#X scalar 1026-draw 430 321 26 \;;
#X scalar 1026-draw 397 318 27 \;;
#X scalar 1026-draw 380 318 28 \;;
#X scalar 1026-draw 368 318 29 \;;
#X scalar 1026-draw 282 325 30 \;;
#X scalar 1026-draw 271 328 31 \;;
#X scalar 1026-draw 260 332 32 \;;
#X scalar 1026-draw 246 340 33 \;;
#X scalar 1026-draw 232 353 34 \;;
#X scalar 1026-draw 221 378 35 \;;
#X scalar 1026-draw 235 441 36 \;;
#X scalar 1026-draw 244 449 37 \;;
#X scalar 1026-draw 276 470 38 \;;
#X scalar 1026-draw 309 486 39 \;;
#X scalar 1026-draw 319 490 40 \;;
#X scalar 1026-draw 333 494 41 \;;
#X scalar 1026-draw 345 498 42 \;;
#X scalar 1026-draw 394 510 43 \;;
#X scalar 1026-draw 423 516 44 \;;
#X scalar 1026-draw 445 520 45 \;;
#X scalar 1026-draw 456 521 46 \;;
#X scalar 1026-draw 501 525 47 \;;
#X scalar 1026-draw 523 527 48 \;;
#X scalar 1026-draw 579 529 49 \;;
#X scalar 1026-draw 613 530 50 \;;
#X scalar 1026-draw 669 530 51 \;;
#X scalar 1026-draw 758 531 52 \;;
#X scalar 1026-draw 777 529 53 \;;
#X scalar 1026-draw 789 528 54 \;;
#X scalar 1026-draw 799 525 55 \;;
#X scalar 1026-draw 814 520 56 \;;
#X scalar 1026-draw 817 518 57 \;;
#X scalar 1026-draw 819 516 58 \;;
#X scalar 1026-draw 821 514 59 \;;
#X scalar 1026-draw 828 500 60 \;;
#X scalar 1026-draw 838 480 61 \;;
#X scalar 1026-draw 843 450 62 \;;
#X scalar 1026-draw 843 443 63 \;;
#X scalar 1026-draw 841 426 64 \;;
#X scalar 1026-draw 831 406 65 \;;
#X scalar 1026-draw 828 402 66 \;;
#X scalar 1026-draw 825 398 67 \;;
#X scalar 1026-draw 815 389 68 \;;
#X scalar 1026-draw 798 377 69 \;;
#X scalar 1026-draw 791 373 70 \;;
#X scalar 1026-draw 787 371 71 \;;
#X scalar 1026-draw 780 369 72 \;;
#X scalar 1026-draw 769 364 73 \;;
#X scalar 1026-draw 732 353 74 \;;
#X scalar 1026-draw 619 325 75 \;;
#X scalar 1026-draw 597 322 76 \;;
#X scalar 1026-draw 526 314 77 \;;
#X scalar 1026-draw 481 311 78 \;;
#X scalar 1026-draw 469 311 79 \;;
#X scalar 1026-draw 421 313 80 \;;
#X scalar 1026-draw 393 318 81 \;;
#X scalar 1026-draw 367 327 82 \;;
#X scalar 1026-draw 359 331 83 \;;
#X scalar 1026-draw 354 335 84 \;;
#X scalar 1026-draw 338 355 85 \;;
#X scalar 1026-draw 333 378 86 \;;
#X scalar 1026-draw 332 409 87 \;;
#X scalar 1026-draw 337 463 88 \;;
#X scalar 1026-draw 348 482 89 \;;
#X scalar 1026-draw 361 496 90 \;;
#X scalar 1026-draw 378 507 91 \;;
#X scalar 1026-draw 385 511 92 \;;
#X scalar 1026-draw 453 527 93 \;;
#X scalar 1026-draw 502 527 94 \;;
#X scalar 1026-draw 510 526 95 \;;
#X scalar 1026-draw 528 524 96 \;;
#X scalar 1026-draw 548 521 97 \;;
#X scalar 1026-draw 560 519 98 \;;
#X scalar 1026-draw 588 513 99 \;;
#X scalar 1026-draw 614 505 100 \;;
#X scalar 1026-draw 665 468 101 \;;
#X scalar 1026-draw 670 461 102 \;;
#X scalar 1026-draw 680 448 103 \;;
#X scalar 1026-draw 694 425 104 \;;
#X scalar 1026-draw 697 415 105 \;;
#X scalar 1026-draw 696 389 106 \;;
#X scalar 1026-draw 690 375 107 \;;
#X scalar 1026-draw 685 365 108 \;;
#X scalar 1026-draw 674 349 109 \;;
#X scalar 1026-draw 666 340 110 \;;
#X scalar 1026-draw 657 333 111 \;;
#X scalar 1026-draw 649 328 112 \;;
#X scalar 1026-draw 630 318 113 \;;
#X scalar 1026-draw 606 310 114 \;;
#X scalar 1026-draw 599 309 115 \;;
#X scalar 1026-draw 587 307 116 \;;
#X scalar 1026-draw 563 305 117 \;;
#X scalar 1026-draw 521 303 118 \;;
#X scalar 1026-draw 484 304 119 \;;
#X scalar 1026-draw 451 308 120 \;;
#X scalar 1026-draw 418 315 121 \;;
#X scalar 1026-draw 384 323 122 \;;
#X scalar 1026-draw 357 332 123 \;;
#X scalar 1026-draw 333 341 124 \;;
#X scalar 1026-draw 320 346 125 \;;
#X scalar 1026-draw 303 354 126 \;;
#X scalar 1026-draw 299 359 127 \;;
#X scalar 1026-draw 293 380 128 \;;
#X scalar 1026-draw 294 414 129 \;;
#X scalar 1026-draw 303 443 130 \;;
#X scalar 1026-draw 325 470 131 \;;
#X scalar 1026-draw 348 487 132 \;;
#X scalar 1026-draw 396 508 133 \;;
#X scalar 1026-draw 412 512 134 \;;
#X scalar 1026-draw 464 522 135 \;;
#X scalar 1026-draw 505 525 136 \;;
#X scalar 1026-draw 562 525 137 \;;
#X scalar 1026-draw 598 520 138 \;;
#X scalar 1026-draw 653 503 139 \;;
#X scalar 1026-draw 686 489 140 \;;
#X scalar 1026-draw 702 480 141 \;;
#X scalar 1026-draw 703 479 142 \;;
#X scalar 1026-draw 704 473 143 \;;
#X scalar 1026-draw 705 464 144 \;;
#X scalar 1026-draw 705 452 145 \;;
#X scalar 1026-pixel 0 0 0 1 \;;
#X coords 0 600 1000 0 1000 600 2 0 0;
#X restore 901 151 pd \$0-pixelSubpatch;
#X obj 723 304 s \$0-setMode;
#X obj 302 216 r \$0-setMode;
#X obj 545 126 nbx 5 14 -1e+37 1e+37 0 1 empty empty color 0 -8 0 10
-262144 -1 -1 481 256;
#X obj 42 577 cnv 15 200 100 empty empty empty 20 12 0 14 -261682 -66577
0;
#X obj 51 625 append \$0-point x0 y0;
#X obj 50 647 s \$0-pointPointer;
#X msg 51 603 200 200;
#X obj 936 1011 cnv 15 400 200 empty empty empty 20 12 0 14 -261682
-66577 0;
#X obj 997 1018 r \$0-out;
#X obj 33 435 t b b b b b;
#X obj 1069 1106 append \$0-draw x0 y0;
#N canvas 0 50 564 300 \$0-draw 0;
#X obj 154 150 tgl 15 0 empty empty empty 17 7 0 10 -262144 -1 -1 0
1;
#X obj 164 49 struct \$0-draw float x0 float y0 float c;
#X obj 146 190 filledcurve 53 c 0 x0 y0 x0 y0;
#X connect 0 0 2 0;
#X restore 1096 1019 pd \$0-draw;
#X obj 101 20 inlet;
#X obj 1106 1057 loadbang;
#X msg 1106 1079 500 500;
#X obj 988 1083 inlet;
#X obj 988 1137 set \$0-draw c;
#X obj 934 1095 nbx 5 14 -1e+37 1e+37 0 0 empty empty color 0 -8 0
10 -262144 -1 -1 145 256;
#X obj 961 1159 f;
#X obj 991 1159 + 1;
#X obj 1021 1159 mod 999;
#X obj 1037 1084 t b l;
#X obj 997 1040 unpack s f f;
#X obj 1037 1062 pack f f;
#X floatatom 1270 1107 5 0 0 0 - - -;
#X floatatom 1323 1107 5 0 0 0 - - -;
#X obj 1270 1148 outlet;
#X obj 1270 1126 pack f f;
#X obj 1270 1082 get \$0-point x0 y0;
#X obj 1230 1060 unpack s p f;
#X obj 1230 1041 r \$0-point;
#X floatatom 960 988 5 0 0 0 - - -;
#X floatatom 1063 987 5 0 0 0 - - -;
#X obj 1114 989 outlet;
#X obj 1013 987 outlet;
#X obj 638 61 inlet;
#X obj 342 126 nbx 5 14 -1e+37 1e+37 0 1 empty empty x_size 0 -8 0
10 -262144 -1 -1 233.97 256;
#X obj 765 181 nbx 5 14 -1e+37 1e+37 0 1 empty empty setWidth 0 -8
0 10 -262144 -1 -1 1100 256;
#X obj 772 211 nbx 5 14 -1e+37 1e+37 0 1 empty empty setHeight 0 -8
0 10 -262144 -1 -1 600 256;
#X obj 777 77 inlet;
#X obj 816 122 inlet;
#X connect 0 0 1 0;
#X connect 0 1 10 0;
#X connect 0 1 2 0;
#X connect 1 0 111 0;
#X connect 7 0 6 2;
#X connect 8 0 9 0;
#X connect 9 0 172 0;
#X connect 9 1 88 0;
#X connect 10 0 6 0;
#X connect 11 0 6 1;
#X connect 14 0 195 0;
#X connect 15 0 92 0;
#X connect 15 0 93 0;
#X connect 16 0 89 0;
#X connect 16 1 0 0;
#X connect 17 0 112 0;
#X connect 21 0 20 2;
#X connect 22 0 20 0;
#X connect 23 0 20 1;
#X connect 24 0 17 0;
#X connect 24 1 22 0;
#X connect 24 1 18 0;
#X connect 25 0 24 0;
#X connect 28 0 38 0;
#X connect 28 0 43 0;
#X connect 28 0 45 0;
#X connect 28 0 39 0;
#X connect 28 0 40 0;
#X connect 28 0 229 0;
#X connect 31 0 46 1;
#X connect 32 0 60 0;
#X connect 32 1 35 0;
#X connect 34 0 33 0;
#X connect 35 0 42 0;
#X connect 37 0 96 0;
#X connect 37 0 97 0;
#X connect 38 0 29 0;
#X connect 39 0 109 0;
#X connect 40 0 110 0;
#X connect 42 0 84 0;
#X connect 42 1 85 0;
#X connect 43 0 44 0;
#X connect 45 0 30 0;
#X connect 47 0 195 0;
#X connect 48 0 50 0;
#X connect 49 0 48 0;
#X connect 51 0 52 0;
#X connect 52 0 48 4;
#X connect 52 0 244 2;
#X connect 52 0 250 2;
#X connect 53 0 51 0;
#X connect 54 0 55 0;
#X connect 55 0 57 2;
#X connect 56 0 54 0;
#X connect 57 0 58 0;
#X connect 59 0 63 1;
#X connect 60 0 71 0;
#X connect 60 1 108 0;
#X connect 60 1 107 0;
#X connect 61 0 34 0;
#X connect 61 1 37 0;
#X connect 62 0 61 0;
#X connect 62 1 63 0;
#X connect 63 0 102 0;
#X connect 63 0 103 0;
#X connect 64 0 66 0;
#X connect 64 0 74 0;
#X connect 65 0 67 0;
#X connect 65 0 75 0;
#X connect 68 0 28 0;
#X connect 69 0 68 1;
#X connect 70 0 28 1;
#X connect 71 0 62 0;
#X connect 71 1 68 0;
#X connect 72 0 73 0;
#X connect 72 1 64 0;
#X connect 72 2 65 0;
#X connect 72 2 235 0;
#X connect 73 0 79 0;
#X connect 74 0 76 0;
#X connect 75 0 76 1;
#X connect 76 0 73 1;
#X connect 77 0 142 0;
#X connect 78 0 143 0;
#X connect 79 0 249 0;
#X connect 79 1 78 0;
#X connect 79 1 77 0;
#X connect 82 0 88 2;
#X connect 83 0 89 2;
#X connect 84 0 41 0;
#X connect 85 0 41 0;
#X connect 88 0 16 0;
#X connect 88 1 11 0;
#X connect 88 1 3 0;
#X connect 89 0 25 0;
#X connect 89 1 23 0;
#X connect 89 1 19 0;
#X connect 90 0 92 1;
#X connect 91 0 93 1;
#X connect 94 0 108 1;
#X connect 95 0 107 1;
#X connect 98 0 96 1;
#X connect 99 0 97 1;
#X connect 100 0 102 1;
#X connect 101 0 103 1;
#X connect 104 0 32 0;
#X connect 104 1 141 0;
#X connect 104 2 56 0;
#X connect 105 0 86 0;
#X connect 106 0 87 0;
#X connect 107 0 106 0;
#X connect 108 0 105 0;
#X connect 111 0 6 0;
#X connect 112 0 20 0;
#X connect 113 0 114 0;
#X connect 114 0 122 0;
#X connect 115 0 124 0;
#X connect 116 0 129 0;
#X connect 117 0 113 0;
#X connect 117 1 114 1;
#X connect 118 0 115 0;
#X connect 118 1 116 0;
#X connect 119 0 117 0;
#X connect 121 0 120 2;
#X connect 122 0 170 0;
#X connect 122 1 118 0;
#X connect 123 0 120 0;
#X connect 124 0 125 0;
#X connect 124 1 158 0;
#X connect 125 0 158 0;
#X connect 126 0 181 0;
#X connect 127 0 182 0;
#X connect 128 0 159 0;
#X connect 129 0 128 0;
#X connect 129 1 159 0;
#X connect 130 0 125 1;
#X connect 130 0 271 0;
#X connect 131 0 128 1;
#X connect 131 0 272 0;
#X connect 132 0 136 0;
#X connect 133 0 134 0;
#X connect 133 1 135 0;
#X connect 133 2 240 0;
#X connect 136 0 137 0;
#X connect 136 1 133 0;
#X connect 138 0 139 0;
#X connect 138 1 46 0;
#X connect 140 0 141 1;
#X connect 141 0 57 0;
#X connect 142 0 80 0;
#X connect 143 0 81 0;
#X connect 144 0 136 0;
#X connect 145 0 136 0;
#X connect 146 0 136 0;
#X connect 147 0 193 1;
#X connect 148 0 194 1;
#X connect 149 0 179 0;
#X connect 149 1 152 0;
#X connect 149 2 162 0;
#X connect 150 0 180 0;
#X connect 150 1 151 0;
#X connect 150 2 163 0;
#X connect 151 0 164 0;
#X connect 151 1 157 0;
#X connect 152 0 165 0;
#X connect 152 1 156 0;
#X connect 153 0 156 1;
#X connect 154 0 157 1;
#X connect 155 0 183 0;
#X connect 156 0 155 0;
#X connect 157 0 155 1;
#X connect 160 0 193 0;
#X connect 161 0 194 0;
#X connect 168 0 177 2;
#X connect 169 0 177 1;
#X connect 170 0 176 0;
#X connect 170 1 123 0;
#X connect 172 0 184 0;
#X connect 172 1 15 0;
#X connect 174 0 177 0;
#X connect 175 0 173 0;
#X connect 176 0 171 0;
#X connect 177 0 178 0;
#X connect 178 0 188 0;
#X connect 179 0 166 0;
#X connect 180 0 167 0;
#X connect 181 0 179 2;
#X connect 182 0 180 2;
#X connect 184 0 175 0;
#X connect 184 1 185 0;
#X connect 185 0 186 0;
#X connect 188 0 187 0;
#X connect 189 0 188 1;
#X connect 191 0 12 0;
#X connect 191 0 13 0;
#X connect 191 0 36 0;
#X connect 192 0 190 0;
#X connect 193 0 149 0;
#X connect 194 0 150 0;
#X connect 195 0 72 0;
#X connect 195 1 192 0;
#X connect 195 2 191 0;
#X connect 229 0 27 0;
#X connect 231 0 65 1;
#X connect 232 0 64 1;
#X connect 233 0 136 0;
#X connect 235 0 234 0;
#X connect 241 0 235 1;
#X connect 242 0 138 0;
#X connect 244 0 245 0;
#X connect 246 0 244 0;
#X connect 248 0 262 0;
#X connect 249 0 104 0;
#X connect 249 1 49 0;
#X connect 249 2 246 0;
#X connect 249 4 53 0;
#X connect 250 0 256 1;
#X connect 252 0 14 0;
#X connect 253 0 254 0;
#X connect 254 0 250 0;
#X connect 255 0 257 0;
#X connect 257 0 256 0;
#X connect 258 0 259 0;
#X connect 258 0 257 0;
#X connect 259 0 260 0;
#X connect 260 0 258 1;
#X connect 261 0 258 0;
#X connect 261 1 250 0;
#X connect 262 1 263 0;
#X connect 262 2 263 1;
#X connect 263 0 261 0;
#X connect 264 0 267 0;
#X connect 265 0 267 1;
#X connect 267 0 266 0;
#X connect 268 0 264 0;
#X connect 268 1 265 0;
#X connect 269 1 268 0;
#X connect 270 0 269 0;
#X connect 271 0 274 0;
#X connect 272 0 273 0;
#X connect 275 0 242 0;
#X connect 276 0 134 0;
#X connect 277 0 134 0;
#X connect 277 0 14 0;
#X connect 278 0 135 0;
#X connect 278 0 14 0;
#X connect 279 0 277 0;
#X connect 280 0 278 0;
#X coords 0 600 1000 0 1100 610 2 900 150;
