#N canvas 463 112 977 682 12;
#X obj 95 479 line~;
#X msg 93 414 \$1 \, \$2 \$3;
#X floatatom 98 137 10 0 0 0 - - -;
#X obj 93 370 pack f f f;
#X text 166 134 start point in samples;
#X obj 127 342 +;
#X floatatom 187 206 5 0 0 0 - - -;
#X text 230 206 grain dur ms;
#X obj 185 268 * 44.1;
#X obj 359 198 loadbang;
#X obj 359 222 samplerate~;
#X obj 359 246 / 1000;
#X obj 187 167 r grain_dur;
#X obj 104 53 inlet;
#X obj 77 638 outlet~;
#X text 188 37 comment;
#X obj 101 89 t f b, f 66;
#X obj 452 237 t b b;
#X obj 441 270 del 50;
#X msg 480 312 1;
#X msg 443 314 0;
#X obj 77 591 *~, f 69;
#X obj 702 155 - 50;
#X obj 206 294 r grain_transpose;
#X obj 206 354 t b f;
#X obj 200 379 / 1;
#X obj 267 474 line;
#X obj 405 162 bng 15 250 50 0 empty empty empty 17 7 0 10 -262144
-1 -1;
#X obj 294 499 s tstlinegr;
#X obj 98 159 t f f;
#X obj 442 448 line~;
#X obj 529 353 nbx 12 14 -1e+37 1e+37 0 0 empty empty empty 0 -8 0
10 -262144 -1 -1 1844.09 256;
#X obj 455 213 bng 15 250 50 0 empty empty empty 17 7 0 10 -262144
-1 -1;
#X obj 790 508 tabwrite~ sound;
#X obj 452 495 pow~ 0.1;
#X obj 509 468 nbx 5 14 -1e+37 1e+37 0 0 empty empty empty 0 -8 0 10
-262144 -1 -1 0 256;
#X obj 531 301 t b f;
#X obj 77 561 tabread4~ array17;
#X floatatom 223 318 12 0 0 0 - - -;
#X obj 441 400 pack f f;
#X obj 529 326 * 1;
#X obj 513 442 r grainenvsizepow;
#X floatatom 269 528 12 0 0 0 - - -;
#X obj 786 474 bng 15 250 50 0 empty empty empty 17 7 0 10 -262144
-1 -1;
#X obj 440 294 bng 15 250 50 0 empty empty empty 17 7 0 10 -262144
-1 -1;
#X obj 482 293 bng 15 250 50 0 empty empty empty 17 7 0 10 -262144
-1 -1;
#X obj 507 260 nbx 12 14 -1e+37 1e+37 0 0 empty empty empty 0 -8 0
10 -262144 -1 -1 0 256;
#X obj 702 106 r grain_dur;
#X obj 703 130 nbx 12 14 -1e+37 1e+37 0 0 empty empty empty 0 -8 0
10 -262144 -1 -1 1844.09 256;
#X obj 740 156 nbx 12 14 -1e+37 1e+37 0 0 empty empty empty 0 -8 0
10 -262144 -1 -1 0 256;
#X obj 677 196 t b f;
#X obj 677 222 * 1;
#X obj 676 248 nbx 12 14 -1e+37 1e+37 0 0 empty empty empty 0 -8 0
10 -262144 -1 -1 0 256;
#X obj 685 272 hsl 128 15 0 127 0 0 empty empty empty -2 -8 0 10 -262144
-1 -1 0 1;
#X obj 786 197 t b f;
#X obj 825 250 nbx 12 14 -1e+37 1e+37 0 0 empty empty empty 0 -8 0
10 -262144 -1 -1 1844.09 256;
#X obj 832 272 hsl 128 15 0 127 0 0 empty empty empty -2 -8 0 10 -262144
-1 -1 12700 1;
#X obj 786 222 - 1;
#X obj 806 467 s granubangarraysound;
#X obj 576 294 r grain_in;
#X obj 877 118 r grain_out;
#X msg 442 424 \$1 \$2;
#X obj 145 478 r~ modstograinu;
#X obj 130 527 *~;
#X connect 0 0 37 0;
#X connect 1 0 0 0;
#X connect 1 0 26 0;
#X connect 2 0 29 0;
#X connect 3 0 1 0;
#X connect 5 0 3 1;
#X connect 6 0 25 0;
#X connect 6 0 8 0;
#X connect 8 0 5 1;
#X connect 9 0 10 0;
#X connect 10 0 11 0;
#X connect 11 0 8 1;
#X connect 12 0 6 0;
#X connect 13 0 16 0;
#X connect 16 0 2 0;
#X connect 16 1 32 0;
#X connect 17 0 43 0;
#X connect 17 1 45 0;
#X connect 17 1 18 0;
#X connect 18 0 44 0;
#X connect 19 0 39 0;
#X connect 20 0 39 0;
#X connect 21 0 14 0;
#X connect 23 0 24 0;
#X connect 24 0 25 0;
#X connect 24 1 25 1;
#X connect 25 0 3 2;
#X connect 26 0 28 0;
#X connect 26 0 42 0;
#X connect 27 0 10 0;
#X connect 29 0 3 0;
#X connect 29 1 5 0;
#X connect 30 0 34 0;
#X connect 31 0 39 1;
#X connect 32 0 17 0;
#X connect 34 0 21 1;
#X connect 34 0 33 0;
#X connect 35 0 34 1;
#X connect 36 0 40 0;
#X connect 36 1 40 1;
#X connect 37 0 21 0;
#X connect 38 0 24 0;
#X connect 39 0 61 0;
#X connect 40 0 31 0;
#X connect 41 0 35 0;
#X connect 43 0 33 0;
#X connect 44 0 20 0;
#X connect 45 0 19 0;
#X connect 46 0 18 1;
#X connect 47 0 48 0;
#X connect 48 0 22 0;
#X connect 48 0 50 0;
#X connect 48 0 57 0;
#X connect 49 0 22 1;
#X connect 49 0 51 0;
#X connect 50 0 51 0;
#X connect 50 1 51 1;
#X connect 51 0 52 0;
#X connect 52 0 53 0;
#X connect 52 0 54 0;
#X connect 53 0 46 0;
#X connect 54 0 57 0;
#X connect 54 1 57 1;
#X connect 55 0 56 0;
#X connect 56 0 40 0;
#X connect 57 0 55 0;
#X connect 59 0 36 0;
#X connect 60 0 49 0;
#X connect 61 0 30 0;
#X connect 62 0 63 1;
#X connect 63 0 37 0;
