#N canvas 326 0 783 837 12;
#N canvas 0 0 450 300 (subpatch) 0;
#X array array17 1.21146e+06 float 2;
#X coords 0 1 1.21146e+06 -1 200 140 1 0 0;
#X restore 368 349 graph;
#X obj 28 172 soundfiler;
#X floatatom 31 197 12 0 0 0 - - -;
#X obj 27 372 *~;
#X obj 30 300 phasor~;
#X floatatom -101 375 5 0 0 0 - - -;
#X obj 16 991 dac~;
#X obj 33 796 *~;
#X obj 16 959 *~ 0.6;
#X text 31 29 3.7.1.1. Granular Theory 4;
#X text 49 87 load sound file;
#X text 43 219 size of sound file;
#X text -174 352 playback speed you want;
#X text 138 690 window \, here 256;
#X text 137 707 samples in size;
#X text 183 240 phase shift;
#X floatatom 128 362 5 0 0 0 - - -;
#X obj 25 88 bng 15 250 50 0 empty empty empty 17 7 0 10 -262144 -1
-1;
#X obj 24 116 openpanel;
#N canvas 0 0 450 300 (subpatch) 0;
#X array array98 256 float 1;
#A 0 0 0.000247091 0.000988156 0.00222242 0.00394872 0.0061653 0.00886998
0.0120601 0.0157325 0.0198835 0.0245091 0.0296046 0.0351651 0.0411851
0.0476585 0.054579 0.0619398 0.0697336 0.0779526 0.0865887 0.0956335
0.105078 0.114913 0.125128 0.135714 0.14666 0.157955 0.169589 0.181549
0.193823 0.206401 0.219268 0.232413 0.245822 0.259483 0.273382 0.287504
0.301836 0.316365 0.331074 0.345951 0.36098 0.376146 0.391435 0.406831
0.42232 0.437885 0.453511 0.469183 0.484886 0.500604 0.516321 0.532022
0.547691 0.563314 0.578873 0.594355 0.609743 0.625023 0.64018 0.655198
0.670062 0.684758 0.699272 0.713589 0.727695 0.741575 0.755217 0.768607
0.781731 0.794576 0.807131 0.819382 0.831317 0.842925 0.854193 0.865112
0.87567 0.885857 0.895662 0.905076 0.914089 0.922694 0.930881 0.938641
0.945968 0.952855 0.959294 0.965279 0.970803 0.975863 0.980452 0.984567
0.988202 0.991355 0.994022 0.996201 0.99789 0.999086 0.999789 0.999999
0.999881 0.999557 0.999029 0.998296 0.997358 0.996216 0.99487 0.993322
0.991571 0.989618 0.987464 0.98511 0.982557 0.979806 0.976858 0.973715
0.970377 0.966846 0.963124 0.959211 0.95511 0.950822 0.946349 0.941693
0.936856 0.931839 0.926646 0.921277 0.915735 0.910023 0.904142 0.898095
0.891886 0.885515 0.878986 0.872302 0.865464 0.858477 0.851343 0.844064
0.836645 0.829087 0.821394 0.813569 0.805616 0.797537 0.789336 0.781016
0.772581 0.764034 0.755379 0.746619 0.737758 0.728799 0.719746 0.710603
0.701374 0.692062 0.682671 0.673205 0.663668 0.654064 0.644397 0.634671
0.624889 0.615056 0.605175 0.595252 0.58529 0.575292 0.565264 0.555209
0.545131 0.535034 0.524924 0.514803 0.504676 0.494547 0.48442 0.4743
0.46419 0.454095 0.444018 0.433965 0.423939 0.413944 0.403984 0.394064
0.384187 0.374358 0.364581 0.354858 0.345196 0.335597 0.326065 0.316605
0.30722 0.297915 0.288692 0.279555 0.27051 0.261558 0.252705 0.243953
0.235305 0.226767 0.218341 0.21003 0.201838 0.193769 0.185825 0.17801
0.170328 0.16278 0.155372 0.148104 0.140981 0.134005 0.12718 0.120507
0.11399 0.107632 0.101434 0.0954006 0.0895327 0.0838334 0.0783049 0.0729493
0.0677691 0.0627662 0.0579428 0.0533008 0.0488421 0.0445685 0.0404819
0.0365838 0.0328759 0.0293598 0.0260367 0.0229082 0.0199754 0.0172396
0.014702 0.0123636 0.0102252 0.00828779 0.00655222 0.00501913 0.00368917
0.00256288 0.0016408 0.000923157 0.000410438 0.000102639 0.994414;
#X coords 0 1 255 0 40 30 1 0 0;
#X restore 410 715 graph;
#N canvas 0 240 560 555 envelope 0;
#N canvas 284 50 661 699 hann 0;
#X obj 102 334 until;
#X obj 102 355 f;
#X obj 129 361 + 1;
#X msg 167 330 0;
#X obj 154 205 t b b;
#X obj 103 382 t f f;
#X obj 99 499 expr -cos($f1*3.14159)*.5+.5;
#X obj 322 526 expr -cos($f1*3.14159)*.5+.5;
#X obj 322 551 * -1;
#X obj 323 573 + 1;
#X obj 181 421 moses;
#X obj 169 612 pow 1;
#X obj 445 120 exp;
#X obj 445 8 inlet shape;
#X obj 444 77 / 100;
#X obj 291 8 inlet x;
#X obj 101 468 /;
#X obj 102 292 f 1024;
#X obj 444 143 t b f;
#X obj 290 135 t b f;
#X floatatom 321 298 5 0 0 0 - - -;
#X obj 322 497 expr ($f1-$f2)/(256-$f2-1);
#X obj 207 658 tabwrite array98;
#X connect 0 0 1 0;
#X connect 1 0 2 0;
#X connect 1 0 5 0;
#X connect 2 0 1 1;
#X connect 3 0 1 1;
#X connect 4 0 17 0;
#X connect 4 1 3 0;
#X connect 5 0 10 0;
#X connect 5 1 22 1;
#X connect 6 0 11 0;
#X connect 7 0 8 0;
#X connect 8 0 9 0;
#X connect 9 0 11 0;
#X connect 10 0 16 0;
#X connect 10 1 21 0;
#X connect 11 0 22 0;
#X connect 12 0 18 0;
#X connect 13 0 14 0;
#X connect 14 0 12 0;
#X connect 15 0 19 0;
#X connect 16 0 6 0;
#X connect 17 0 0 0;
#X connect 18 0 4 0;
#X connect 18 1 11 1;
#X connect 19 0 4 0;
#X connect 19 1 10 1;
#X connect 19 1 16 1;
#X connect 19 1 21 1;
#X connect 20 0 17 1;
#X connect 21 0 7 0;
#X restore 87 503 pd hann;
#N canvas 65 19 631 726 trapez 0;
#X obj 43 374 until;
#X obj 43 395 f;
#X obj 70 401 + 1;
#X msg 161 344 0;
#X obj 120 480 moses;
#X obj 134 280 t b b;
#X obj 119 439 t f f;
#X obj 118 608 clip 0 1;
#X obj 120 583 *;
#X obj 238 12 inlet x;
#X obj 435 15 inlet shape;
#X obj 435 82 / 100;
#X obj 435 107 + 1;
#X obj 435 173 max 1;
#X obj 43 347 f 1024;
#X obj 435 195 t b f;
#X obj 238 164 t b f f f;
#X obj 120 531 / 1024;
#X obj 435 58 + 200;
#X obj 435 151 -;
#X msg 435 129 6 \$1;
#X floatatom 321 298 5 0 0 0 - - -;
#X obj 272 345;
#X obj 261 374 bng 15 250 50 0 empty empty empty 17 7 0 10 -262144
-1 -1;
#X obj 92 271 bng 15 250 50 0 empty empty empty 17 7 0 10 -262144 -1
-1;
#X obj 213 505 expr -($f1-$f2)/(256-$f2-1)+1;
#X obj 148 640 tabwrite array98;
#X connect 0 0 1 0;
#X connect 1 0 2 0;
#X connect 1 0 6 0;
#X connect 2 0 1 1;
#X connect 3 0 1 1;
#X connect 4 0 17 0;
#X connect 4 1 25 0;
#X connect 5 0 14 0;
#X connect 5 0 24 0;
#X connect 5 1 3 0;
#X connect 6 0 4 0;
#X connect 6 1 26 1;
#X connect 7 0 26 0;
#X connect 8 0 7 0;
#X connect 9 0 16 0;
#X connect 10 0 18 0;
#X connect 11 0 12 0;
#X connect 12 0 20 0;
#X connect 13 0 15 0;
#X connect 14 0 0 0;
#X connect 15 0 5 0;
#X connect 15 1 8 1;
#X connect 16 0 5 0;
#X connect 16 1 4 1;
#X connect 16 2 17 1;
#X connect 16 3 25 1;
#X connect 17 0 8 0;
#X connect 18 0 11 0;
#X connect 19 0 13 0;
#X connect 20 0 19 0;
#X connect 21 0 14 1;
#X connect 25 0 8 0;
#X restore 296 501 pd trapez;
#X obj 125 175 f;
#X obj 241 117 t b f;
#X obj 401 114 t b f;
#N canvas 222 179 680 699 curved2 0;
#X obj 64 415 until;
#X obj 64 436 f;
#X obj 91 442 + 1;
#X msg 139 412 0;
#X obj 113 328 t b b;
#X obj 63 472 t f f;
#X obj 53 586 expr if($f2<=0 \, -pow((1-$f1) \, (-$f2+1))+1 \, pow($f1
\, $f2+1));
#X obj 127 631 expr if($f2<=0 \, -pow((1-$f1) \, (-$f2+1))+1 \, pow($f1
\, $f2+1));
#X obj 128 654 * -1;
#X obj 129 676 + 1;
#X obj 63 509 moses;
#X obj 576 171 exp;
#X obj 478 86 moses 0;
#X obj 478 168 * -1;
#X obj 479 209 exp;
#X obj 480 230 * -1;
#X obj 478 123 + 1;
#X obj 478 146 moses -1;
#X obj 479 190 - 1;
#X obj 479 62 - 1;
#X obj 63 551 /;
#X obj 302 21 inlet x;
#X obj 479 18 inlet shape;
#X obj 479 38 / 100;
#X obj 493 265 t b b f f;
#X obj 478 608 * -1;
#X obj 64 381 f 1024;
#X obj 189 546 expr ($f1-$f2)/(1024-$f2-1);
#X obj 302 211 t b f f f;
#X obj 141 729 tabwrite array98;
#X connect 0 0 1 0;
#X connect 1 0 2 0;
#X connect 1 0 5 0;
#X connect 2 0 1 1;
#X connect 3 0 1 1;
#X connect 4 0 26 0;
#X connect 4 1 3 0;
#X connect 5 0 10 0;
#X connect 5 1 29 1;
#X connect 6 0 29 0;
#X connect 7 0 8 0;
#X connect 8 0 9 0;
#X connect 9 0 29 0;
#X connect 10 0 20 0;
#X connect 10 1 27 0;
#X connect 11 0 24 0;
#X connect 12 0 16 0;
#X connect 12 1 11 0;
#X connect 13 0 18 0;
#X connect 14 0 15 0;
#X connect 15 0 24 0;
#X connect 16 0 17 0;
#X connect 17 0 13 0;
#X connect 17 1 24 0;
#X connect 18 0 14 0;
#X connect 19 0 12 0;
#X connect 20 0 6 0;
#X connect 21 0 28 0;
#X connect 22 0 23 0;
#X connect 23 0 19 0;
#X connect 24 0 4 0;
#X connect 24 2 6 1;
#X connect 24 3 25 0;
#X connect 25 0 7 1;
#X connect 26 0 0 0;
#X connect 27 0 7 0;
#X connect 28 0 4 0;
#X connect 28 1 10 1;
#X connect 28 2 20 1;
#X connect 28 3 27 1;
#X restore 219 501 pd curved2;
#N canvas 633 50 680 699 curved 0;
#X obj 66 424 until;
#X obj 66 445 f;
#X obj 93 451 + 1;
#X msg 141 421 0;
#X obj 115 337 t b b;
#X obj 65 481 t f f;
#X obj 55 595 expr if($f2<=0 \, -pow((1-$f1) \, (-$f2+1))+1 \, pow($f1
\, $f2+1));
#X obj 129 640 expr if($f2<=0 \, -pow((1-$f1) \, (-$f2+1))+1 \, pow($f1
\, $f2+1));
#X obj 130 663 * -1;
#X obj 131 685 + 1;
#X obj 65 518 moses;
#X obj 578 180 exp;
#X obj 480 95 moses 0;
#X obj 480 177 * -1;
#X obj 481 218 exp;
#X obj 482 239 * -1;
#X obj 480 132 + 1;
#X obj 480 155 moses -1;
#X obj 481 199 - 1;
#X obj 481 71 - 1;
#X obj 65 560 /;
#X obj 304 30 inlet x;
#X obj 481 27 inlet shape;
#X obj 481 47 / 100;
#X obj 495 274 t b b f f;
#X obj 66 397 f 1024;
#X obj 191 555 expr ($f1-$f2)/(1024-$f2-1);
#X obj 304 220 t b f f f;
#X obj 143 741 tabwrite array98;
#X connect 0 0 1 0;
#X connect 1 0 2 0;
#X connect 1 0 5 0;
#X connect 2 0 1 1;
#X connect 3 0 1 1;
#X connect 4 0 25 0;
#X connect 4 1 3 0;
#X connect 5 0 10 0;
#X connect 5 1 28 1;
#X connect 6 0 28 0;
#X connect 7 0 8 0;
#X connect 8 0 9 0;
#X connect 9 0 28 0;
#X connect 10 0 20 0;
#X connect 10 1 26 0;
#X connect 11 0 24 0;
#X connect 12 0 16 0;
#X connect 12 1 11 0;
#X connect 13 0 18 0;
#X connect 14 0 15 0;
#X connect 15 0 24 0;
#X connect 16 0 17 0;
#X connect 17 0 13 0;
#X connect 17 1 24 0;
#X connect 18 0 14 0;
#X connect 19 0 12 0;
#X connect 20 0 6 0;
#X connect 21 0 27 0;
#X connect 22 0 23 0;
#X connect 23 0 19 0;
#X connect 24 0 4 0;
#X connect 24 2 6 1;
#X connect 24 3 7 1;
#X connect 25 0 0 0;
#X connect 26 0 7 0;
#X connect 27 0 4 0;
#X connect 27 1 10 1;
#X connect 27 2 20 1;
#X connect 27 3 26 1;
#X restore 148 501 pd curved;
#X obj 124 375 pack 0 512;
#X obj 248 375 pack 0 0;
#X obj 124 200 t f f;
#N canvas 227 104 947 699 complex 0;
#X obj 190 316 until;
#X obj 190 337 f;
#X obj 217 343 + 1;
#X msg 265 302 0;
#X obj 211 240 t b b;
#X obj 460 630 expr -cos($f1*3.14159)*.5+.5;
#X obj 282 512 moses;
#X obj 235 741 pow 1;
#X obj 680 199 t b f;
#X obj 254 674 expr -cos($f1*3.14159)*.5+.5;
#X obj 324 774 *;
#X obj 460 653 * -1;
#X obj 461 675 + 1;
#X obj 190 612 expr -cos($f1*18.8496)*.5+.5;
#X obj 679 36 inlet vsl;
#X obj 399 28 inlet hsl;
#X obj 399 143 t b f f f;
#X obj 190 482 t float float;
#X obj 190 367 t float float;
#X obj 189 291 f 1024;
#X obj 190 588 / 1024;
#X obj 254 651 / 512;
#X obj 680 71 + 200;
#X obj 680 93 / 400;
#X obj 680 137 + 0.2;
#X obj 680 115 * 2.5;
#X obj 460 602 expr ($f1-$f2)/(256-$f2-1);
#X obj 324 797 tabwrite array98;
#X connect 0 0 1 0;
#X connect 1 0 2 0;
#X connect 1 0 18 0;
#X connect 2 0 1 1;
#X connect 3 0 1 1;
#X connect 4 0 19 0;
#X connect 4 1 3 0;
#X connect 5 0 11 0;
#X connect 6 0 21 0;
#X connect 6 1 26 0;
#X connect 7 0 10 0;
#X connect 8 0 4 0;
#X connect 8 1 7 1;
#X connect 9 0 10 1;
#X connect 10 0 27 0;
#X connect 11 0 12 0;
#X connect 12 0 10 1;
#X connect 13 0 7 0;
#X connect 14 0 22 0;
#X connect 15 0 16 0;
#X connect 16 0 4 0;
#X connect 16 1 6 1;
#X connect 16 2 21 1;
#X connect 16 3 26 1;
#X connect 17 0 20 0;
#X connect 17 1 6 0;
#X connect 18 0 17 0;
#X connect 18 1 27 1;
#X connect 19 0 0 0;
#X connect 20 0 13 0;
#X connect 21 0 9 0;
#X connect 22 0 23 0;
#X connect 23 0 25 0;
#X connect 24 0 8 0;
#X connect 25 0 24 0;
#X connect 26 0 5 0;
#X restore 373 501 pd complex;
#X obj 124 401 route 0 1 2 3 4;
#X obj 246 400 route 0 1 2 3 4;
#X obj 241 50 r \$0-env-bias;
#X obj 401 44 r \$0-env-shape;
#X text 78 520 well \, i think some of the math in this subpatches
is redundant;
#X obj 401 68 * 400;
#X obj 401 90 - 200;
#X obj 241 71 * 974;
#X obj 241 93 + 25;
#X obj 125 60 r \$0-env-type;
#X floatatom 497 127 5 0 0 0 - - -;
#X floatatom 321 298 5 0 0 0 - - -;
#X connect 2 0 9 0;
#X connect 3 0 2 0;
#X connect 3 1 7 1;
#X connect 4 0 2 0;
#X connect 4 1 8 1;
#X connect 7 0 11 0;
#X connect 8 0 12 0;
#X connect 9 0 7 0;
#X connect 9 1 8 0;
#X connect 11 0 0 0;
#X connect 11 1 6 0;
#X connect 11 2 5 0;
#X connect 11 3 1 0;
#X connect 11 4 10 0;
#X connect 12 0 0 1;
#X connect 12 1 6 1;
#X connect 12 2 5 1;
#X connect 12 3 1 1;
#X connect 12 4 10 1;
#X connect 13 0 18 0;
#X connect 14 0 16 0;
#X connect 16 0 17 0;
#X connect 17 0 4 0;
#X connect 18 0 19 0;
#X connect 19 0 3 0;
#X connect 20 0 2 0;
#X connect 21 0 16 0;
#X restore 391 751 pd envelope;
#X obj 483 757 hradio 10 1 0 5 \$0-env-type \$0-env-typer Type 0 -7
2 10 -262144 -1 -1 3;
#X obj 484 711 hsl 92 10 0 1 0 0 \$0-env-bias \$0-env-biasr Bias -2
-7 2 10 -262144 -1 -1 0 1;
#X obj 486 734 hsl 92 10 0 1 0 0 \$0-env-shape \$0-env-shaper Shape
-2 -7 2 10 -262144 -1 -1 0 1;
#X obj 30 247 expr 88200 / $f1;
#X floatatom 117 632 4 0 0 0 - - -;
#X obj 132 337 * 0.01;
#X obj 117 661 phasor~;
#X obj 319 508 threshold~ 0.99 0 1 0;
#X obj 321 534 bng 15 250 50 0 empty empty empty 17 7 0 10 -262144
-1 -1;
#X floatatom 191 283 5 0 0 0 - - -;
#X obj 361 533 f;
#X obj 390 533 + 1;
#X obj 359 558 mod;
#X obj 341 606 bng 25 250 50 0 empty empty empty 17 7 0 10 -1 -262144
-262144;
#X floatatom 395 558 5 0 0 0 - - -;
#X obj 74 277 +;
#X floatatom 190 260 5 0 0 0 - - -;
#X obj 32 498 snapshot~;
#X floatatom 71 526 5 0 0 0 - - -;
#X obj 371 428 hsl 195 15 0 1 0 0 empty empty empty -2 -8 0 10 -262144
-1 -1 3670 1;
#X obj 374 606 bng 25 250 50 0 empty empty empty 17 7 0 10 -1 -262144
-262144;
#X obj 359 579 sel 0 1 2 3;
#X obj 118 732 *~ 254;
#X obj 98 922 vline~;
#X obj 68 923 *~;
#X obj 66 848 vline~;
#X obj 23 844 *~;
#X obj 318 645 expr (1/$f1)*1000;
#X floatatom 314 785 9 0 0 0 - - -;
#X msg 154 905 1 \, 0 \$1 \, 0;
#X msg 242 906 0 \, 1 \$1;
#X obj 149 800 pack f f;
#X obj 236 801 pack f f;
#X msg 147 831 1 \, 0 \$1 \, 0;
#X msg 234 832 0 \, 1 \$1;
#X obj -101 400 t b f;
#X obj -105 431 * 1;
#X text 408 608 clock env multipl;
#X text 82 416 fps/send play back to film;
#X obj 131 462 metro 40;
#X obj 130 440 tgl 15 0 empty empty empty 17 7 0 10 -262144 -1 -1 1
1;
#X floatatom 185 441 5 0 0 0 - - -;
#X obj 156 440 > 1;
#X obj 133 484 bng 15 250 50 0 empty empty empty 17 7 0 10 -262144
-1 -1;
#X obj 30 412 *~;
#X text -171 324 runs at original speed = 1;
#X text 232 258 +;
#X text 229 283 random;
#X obj 120 762 tabread~ array98;
#X obj 20 584 tabread4~ array17;
#X msg 27 146 read -resize \$1 array17;
#X obj 326 859 s extCLK;
#X obj 424 816 r extT;
#X floatatom 423 842 9 0 0 0 - - -;
#X obj 424 865 expr (1/$f1)*1000;
#X floatatom 424 891 9 0 0 0 - - -;
#X obj 130 310 random 1;
#X obj 299 268 r A;
#X obj 477 573;
#X connect 1 0 2 0;
#X connect 2 0 24 0;
#X connect 2 0 57 0;
#X connect 3 0 70 0;
#X connect 4 0 3 0;
#X connect 4 0 65 0;
#X connect 5 0 56 0;
#X connect 5 0 65 1;
#X connect 7 0 47 0;
#X connect 8 0 6 0;
#X connect 8 0 6 1;
#X connect 16 0 36 0;
#X connect 17 0 18 0;
#X connect 18 0 71 0;
#X connect 24 0 4 0;
#X connect 25 0 27 0;
#X connect 25 0 48 0;
#X connect 26 0 16 0;
#X connect 27 0 28 0;
#X connect 27 0 43 0;
#X connect 28 0 29 0;
#X connect 29 0 31 0;
#X connect 30 0 77 1;
#X connect 31 0 32 0;
#X connect 31 0 33 0;
#X connect 32 0 31 1;
#X connect 33 0 42 0;
#X connect 34 0 52 0;
#X connect 34 0 72 0;
#X connect 35 0 33 1;
#X connect 36 0 4 1;
#X connect 37 0 4 1;
#X connect 38 0 39 0;
#X connect 39 0 40 0;
#X connect 41 0 53 0;
#X connect 42 0 34 0;
#X connect 42 1 41 0;
#X connect 43 0 69 0;
#X connect 44 0 45 1;
#X connect 45 0 8 0;
#X connect 46 0 47 1;
#X connect 47 0 8 0;
#X connect 48 0 49 0;
#X connect 49 0 52 1;
#X connect 49 0 53 1;
#X connect 50 0 44 0;
#X connect 51 0 44 0;
#X connect 52 0 50 0;
#X connect 52 0 55 0;
#X connect 53 0 51 0;
#X connect 53 0 54 0;
#X connect 54 0 46 0;
#X connect 55 0 46 0;
#X connect 56 0 57 0;
#X connect 56 1 57 1;
#X connect 57 0 3 1;
#X connect 60 0 64 0;
#X connect 61 0 60 0;
#X connect 62 0 63 0;
#X connect 62 0 60 1;
#X connect 63 0 61 0;
#X connect 64 0 38 0;
#X connect 65 0 38 0;
#X connect 69 0 7 1;
#X connect 70 0 7 0;
#X connect 70 0 45 0;
#X connect 71 0 1 0;
#X connect 73 0 74 0;
#X connect 74 0 75 0;
#X connect 75 0 76 0;
#X connect 76 0 25 0;
#X connect 77 0 26 0;
#X connect 78 0 37 0;
