#N canvas 552 632 1231 1003 12;
#X obj 274 -4 cnv 15 56 88 empty empty empty 20 12 0 14 -260097 -66577
0;
#X msg -348 321 record;
#X obj -368 298 bng 15 250 50 0 empty empty empty 17 7 0 10 -262144
-1 -1;
#X obj -312 600 pack;
#X obj -368 275 sel;
#X obj -349 298 bng 15 250 50 0 empty empty empty 17 7 0 10 -262144
-1 -1;
#X floatatom -371 250 5 0 0 0 - - -;
#X obj 101 158 tgl 28 0 empty empty ↺ 7 11 1 28 -1 -262144 -262144
0 1;
#X obj 130 101 bng 28 250 50 0 empty empty ► 9 15 1 14 -1 -262144
-262144;
#X obj 48 170 tgl 28 0 empty empty midi 6 15 1 8 -1 -260097 -260097
1 1;
#X obj 188 177 notein;
#X obj 184 211 spigot-toggle_violet;
#X obj -186 598 bng 15 250 50 0 empty empty empty 17 7 0 10 -262144
-1 -1;
#X obj -175 619 spigot-toggle_violet;
#X obj 33 37 r lo;
#X floatatom -324 728 7 0 0 0 - - -;
#X obj 101 130 tgl 28 0 empty empty rec 3 14 0 12 -260097 -1 -1 0 1
;
#X obj -148 621 sel;
#X obj 240 125 sel;
#X floatatom 180 242 5 0 0 0 - - -;
#X obj 345 868 bng 15 250 50 0 empty empty empty 17 7 0 10 -262144
-1 -1;
#X obj -319 630 cyclone/midiformat;
#X obj -320 663 cyclone/seq seq3.mid;
#X obj 241 103 s trgrmidirecmodulB;
#X obj 361 769 spigot-toggle_violet;
#X obj 395 770 spigot-toggle_violet;
#X obj 423 746 r trgrmidirecmodulB;
#X obj 342 895 s recmodulstepTB;
#X obj 477 897 s recmodulenvB;
#X obj 178 364 bng 15 250 50 0 empty empty empty 17 7 0 10 -262144
-1 -1;
#X obj 224 349 bng 15 250 50 0 empty empty empty 17 7 0 10 -262144
-1 -1;
#X obj 178 327 sel 47;
#X floatatom 309 460 5 0 0 0 - - -;
#X msg 174 386 0;
#X obj -322 697 * 1;
#X obj -383 729 sel 64;
#X obj -348 758 bng 15 250 50 0 empty empty empty 17 7 0 10 -262144
-1 -1;
#X obj -384 755 bng 15 250 50 0 empty empty empty 17 7 0 10 -262144
-1 -1;
#X obj 307 490 / 64;
#X obj 582 616 r ABonoff;
#X obj 651 617 r BBonoff;
#X obj 716 642 - 1;
#X obj 717 671 * -1;
#X obj 317 235 == 47;
#X obj 207 210 spigot-toggle_violet;
#X obj 130 130 tgl 28 0 empty empty ■ 4 13 1 36 -1 -262144 -262144
0 1;
#X floatatom 477 869 7 0 0 0 - - -;
#X obj 360 794 spigot-toggle_violet;
#X obj 396 798 spigot-toggle_violet;
#X obj 686 177 - 1;
#X obj 687 206 * -1;
#X msg 67 37 0;
#X obj 483 17 tgl 22 0 empty empty empty 1 11 0 11 -1 -1 -1 0 1;
#X obj 311 301 spigot-toggle_violet;
#X floatatom 309 265 5 0 0 0 - - -;
#X obj 251 150 s stoprecmodulB;
#X obj 251 308 tgl 28 0 empty empty ○ 6 13 1 26 -1 -262144 -262144
1 1;
#X obj 68 232 * 64;
#X msg 224 393 64;
#X obj 67 274 * 47;
#X obj 101 101 tgl 28 0 empty empty raw 4 12 1 14 -1 -260097 -260097
0 1;
#X obj 621 1 tgl 28 0 empty empty midi 6 15 1 8 -1 -260097 -260097
0 1;
#X obj 234 359 bng 15 250 50 0 empty empty empty 17 7 0 10 -262144
-1 -1;
#X obj 130 158 bng 28 250 50 0 empty empty ○ 7 13 1 26 -1 -262144
-262144;
#X connect 1 0 22 0;
#X connect 2 0 22 0;
#X connect 3 0 21 0;
#X connect 4 0 2 0;
#X connect 4 1 5 0;
#X connect 5 0 1 0;
#X connect 6 0 4 0;
#X connect 7 0 13 1;
#X connect 7 0 17 0;
#X connect 8 0 22 0;
#X connect 9 0 11 1;
#X connect 9 0 44 1;
#X connect 10 0 11 0;
#X connect 10 1 44 0;
#X connect 11 0 19 0;
#X connect 12 0 13 0;
#X connect 13 0 8 0;
#X connect 14 0 7 0;
#X connect 14 0 9 0;
#X connect 14 0 51 0;
#X connect 15 0 35 0;
#X connect 15 0 25 0;
#X connect 16 0 6 0;
#X connect 16 0 18 0;
#X connect 17 1 12 0;
#X connect 18 0 8 0;
#X connect 19 0 43 0;
#X connect 19 0 31 0;
#X connect 20 0 27 0;
#X connect 21 0 22 0;
#X connect 22 0 34 0;
#X connect 22 1 12 0;
#X connect 24 0 47 0;
#X connect 25 0 48 0;
#X connect 26 0 25 1;
#X connect 26 0 24 1;
#X connect 29 0 20 0;
#X connect 29 0 33 0;
#X connect 31 0 29 0;
#X connect 31 1 30 0;
#X connect 32 0 3 1;
#X connect 32 0 38 0;
#X connect 32 0 35 0;
#X connect 33 0 3 0;
#X connect 34 0 15 0;
#X connect 35 0 37 0;
#X connect 35 1 36 0;
#X connect 37 0 24 0;
#X connect 37 0 20 0;
#X connect 38 0 46 0;
#X connect 38 0 25 0;
#X connect 39 0 41 0;
#X connect 40 0 41 0;
#X connect 41 0 42 0;
#X connect 42 0 25 1;
#X connect 42 0 24 1;
#X connect 43 0 53 1;
#X connect 44 0 54 0;
#X connect 45 0 49 0;
#X connect 45 0 55 0;
#X connect 45 0 7 0;
#X connect 46 0 28 0;
#X connect 47 0 20 0;
#X connect 48 0 46 0;
#X connect 49 0 50 0;
#X connect 50 0 48 1;
#X connect 50 0 47 1;
#X connect 50 0 7 0;
#X connect 51 0 45 0;
#X connect 53 0 32 0;
#X connect 54 0 53 0;
#X connect 56 0 57 0;
#X connect 56 0 59 0;
#X connect 57 0 54 0;
#X connect 58 0 32 0;
#X connect 59 0 31 0;
#X connect 60 0 23 0;
#X connect 62 0 56 0;
#X connect 63 0 56 0;
#X coords 0 -1 1 1 60 88 2 100 100;
