#N canvas 245 972 1476 726 12;
#X obj 102 102 cnv 15 26 138 empty empty empty 20 12 0 14 -260097 -66577
0;
#X msg -264 587 record;
#X obj -284 564 bng 15 250 50 0 empty empty empty 17 7 0 10 -262144
-1 -1;
#X obj -325 596 pack;
#X floatatom -335 564 5 0 0 0 - - -;
#X floatatom -331 539 5 0 0 0 - - -;
#X obj -284 541 sel;
#X obj -265 564 bng 15 250 50 0 empty empty empty 17 7 0 10 -262144
-1 -1;
#X floatatom -287 516 5 0 0 0 - - -;
#X obj 104 170 tgl 22 0 empty empty ↺ 4 9 2 22 -1 -262144 -262144
0 1;
#X obj 104 147 bng 22 250 50 0 empty empty ► 6 13 1 14 -1 -262144
-262144;
#X obj 104 216 tgl 22 0 empty empty MIDI 3 11 1 8 -1 -260097 -260097
0 1;
#X obj 215 259 notein;
#X obj 208 292 spigot-toggle_violet;
#X obj -193 683 bng 15 250 50 0 empty empty empty 17 7 0 10 -262144
-1 -1;
#X obj 146 489 spigot-toggle_violet;
#X obj -361 311 f;
#X floatatom -310 341 5 0 0 0 - - -;
#X floatatom -364 341 5 0 0 0 - - -;
#X floatatom -285 284 5 0 0 0 - - -;
#X floatatom -344 285 5 0 0 0 - - -;
#X obj -331 160 f;
#X obj -301 160 + 1;
#X obj -333 202 sel;
#X obj -303 312 f;
#X obj -371 223 bng 15 250 50 0 empty empty empty 17 7 0 10 -262144
-1 -1;
#X obj -332 182 mod 2;
#X obj -331 517 * 100;
#X obj -339 732 / 100;
#X obj -415 252 r lo;
#X obj -328 420 pack \$1 \$2;
#X obj -329 443 line;
#X floatatom -256 400 5 0 0 0 - - -;
#X obj 144 382 tgl 22 0 empty empty ■ 1 9 1 36 -1 -262144 -262144
0 1;
#X obj -12 307 r lo;
#X floatatom -317 470 5 0 0 0 - - -;
#X floatatom -344 760 7 0 0 0 - - -;
#X obj -291 219 bng 15 250 50 0 empty empty empty 17 7 0 10 -262144
-1 -1;
#X obj 104 125 tgl 22 0 empty empty REC 2 11 0 10 -260097 -1 -1 0 1
;
#X obj 104 193 bng 22 250 50 0 empty empty ○ 4 9 1 25 -1 -260097
-260097;
#X obj 118 410 - 1;
#X obj 118 431 * -1;
#X obj 50 498 sel;
#X obj 425 183 sel;
#X msg 426 155 0;
#X floatatom 204 323 5 0 0 0 - - -;
#X obj 201 404 bng 15 250 50 0 empty empty empty 17 7 0 10 -262144
-1 -1;
#X obj 239 408 bng 15 250 50 0 empty empty empty 17 7 0 10 -262144
-1 -1;
#X obj 202 346 == 47;
#X obj -629 627 bng 15 250 50 0 empty empty empty 17 7 0 10 -262144
-1 -1;
#X obj -330 622 cyclone/midiformat;
#X obj -342 682 cyclone/seq seq3.mid;
#X obj 144 111 s trgrmidirecmodulB;
#X obj -642 419 spigot-toggle_violet;
#X obj -525 589 spigot-toggle_violet;
#X obj -515 504 spigot-toggle_violet;
#X obj -503 353 r trgrmidirecmodulB;
#X obj 202 373 sel 1;
#X obj -625 774 s recmodulstepTB;
#X obj -482 557 s recmodulenvB;
#X obj 103 103 tgl 22 0 empty empty RAW 1 11 0 11 -1 -260097 -260097
0 1;
#X obj 282 452 s modulBpress;
#X obj 221 423 tgl 15 0 empty empty empty 17 7 0 10 -262144 -1 -1 1
1;
#X obj 357 406 tgl 15 0 empty empty empty 17 7 0 10 -262144 -1 -1 1
1;
#X obj 265 380 mod 2;
#X obj 166 181 s stopseqforanal;
#X obj -332 67 f;
#X obj -302 67 + 1;
#X obj -334 109 sel;
#X obj -331 137 bng 15 250 50 0 empty empty empty 17 7 0 10 -262144
-1 -1;
#X obj -333 89 mod 2;
#X obj -292 126 bng 15 250 50 0 empty empty empty 17 7 0 10 -262144
-1 -1;
#X msg -342 265 1;
#X msg -282 263 0;
#X obj -485 781 s recmodulenvBB;
#X obj -448 628 == 1;
#X obj -426 689 bng 15 250 50 0 empty empty empty 17 7 0 10 -262144
-1 -1;
#X obj -449 684 bng 15 250 50 0 empty empty empty 17 7 0 10 -262144
-1 -1;
#X obj -632 675 f;
#X obj -602 675 + 1;
#X obj -634 717 sel;
#X obj -631 745 bng 15 250 50 0 empty empty empty 17 7 0 10 -262144
-1 -1;
#X obj -633 697 mod 2;
#X obj -592 734 bng 15 250 50 0 empty empty empty 17 7 0 10 -262144
-1 -1;
#X obj -446 652 sel 0 1;
#X obj -524 675 sel;
#X obj -521 703 bng 15 250 50 0 empty empty empty 17 7 0 10 -262144
-1 -1;
#X obj -523 655 mod 2;
#X obj -482 692 bng 15 250 50 0 empty empty empty 17 7 0 10 -262144
-1 -1;
#X obj -193 607 makenote 127 500;
#X obj -193 634 pack;
#X obj -193 581 nbx 4 14 -1e+37 1e+37 0 0 empty empty empty 0 -8 0
10 -228856 -1 -1 0 256;
#X connect 1 0 51 0;
#X connect 2 0 51 0;
#X connect 3 0 50 0;
#X connect 4 0 50 0;
#X connect 4 0 3 0;
#X connect 5 0 4 0;
#X connect 5 0 3 1;
#X connect 6 0 2 0;
#X connect 6 1 7 0;
#X connect 7 0 1 0;
#X connect 8 0 6 0;
#X connect 9 0 15 1;
#X connect 9 0 42 0;
#X connect 10 0 51 0;
#X connect 11 0 13 1;
#X connect 12 0 13 0;
#X connect 13 0 45 0;
#X connect 14 0 15 0;
#X connect 15 0 10 0;
#X connect 16 0 18 0;
#X connect 17 0 30 0;
#X connect 18 0 30 0;
#X connect 19 0 24 1;
#X connect 20 0 16 1;
#X connect 21 0 22 0;
#X connect 21 0 26 0;
#X connect 22 0 21 1;
#X connect 23 0 25 0;
#X connect 23 1 37 0;
#X connect 24 0 17 0;
#X connect 25 0 16 0;
#X connect 25 0 53 0;
#X connect 26 0 23 0;
#X connect 27 0 5 0;
#X connect 28 0 36 0;
#X connect 29 0 73 0;
#X connect 29 0 72 0;
#X connect 30 0 31 0;
#X connect 31 0 35 0;
#X connect 32 0 30 1;
#X connect 33 0 40 0;
#X connect 33 0 65 0;
#X connect 34 0 9 0;
#X connect 34 0 11 0;
#X connect 35 0 27 0;
#X connect 35 0 55 0;
#X connect 36 0 30 0;
#X connect 36 0 74 0;
#X connect 37 0 24 0;
#X connect 38 0 8 0;
#X connect 38 0 43 0;
#X connect 38 0 65 0;
#X connect 39 0 21 0;
#X connect 40 0 41 0;
#X connect 41 0 42 0;
#X connect 41 0 15 1;
#X connect 42 1 14 0;
#X connect 43 0 44 0;
#X connect 43 0 10 0;
#X connect 45 0 48 0;
#X connect 46 0 39 0;
#X connect 48 0 57 0;
#X connect 48 0 64 0;
#X connect 49 0 78 0;
#X connect 50 0 51 0;
#X connect 51 0 28 0;
#X connect 51 1 14 0;
#X connect 53 0 49 0;
#X connect 54 0 49 0;
#X connect 55 0 59 0;
#X connect 55 0 75 0;
#X connect 55 0 87 0;
#X connect 56 0 53 1;
#X connect 56 0 55 1;
#X connect 56 0 54 1;
#X connect 57 0 46 0;
#X connect 57 1 47 0;
#X connect 60 0 52 0;
#X connect 60 0 11 0;
#X connect 60 0 65 0;
#X connect 64 0 61 0;
#X connect 64 0 63 0;
#X connect 66 0 67 0;
#X connect 66 0 70 0;
#X connect 67 0 66 1;
#X connect 68 0 69 0;
#X connect 68 1 71 0;
#X connect 70 0 68 0;
#X connect 72 0 20 0;
#X connect 73 0 19 0;
#X connect 75 0 84 0;
#X connect 78 0 79 0;
#X connect 78 0 82 0;
#X connect 79 0 78 1;
#X connect 80 0 81 0;
#X connect 80 1 83 0;
#X connect 81 0 58 0;
#X connect 82 0 80 0;
#X connect 84 0 77 0;
#X connect 84 1 76 0;
#X connect 85 0 86 0;
#X connect 85 1 88 0;
#X connect 86 0 54 0;
#X connect 87 0 85 0;
#X connect 89 0 90 0;
#X connect 89 1 90 1;
#X connect 91 0 89 0;
#X coords 0 -1 1 1 30 140 2 100 100;
