#N canvas -168 32 1440 844 10;
#X obj 431 111 vsl 20 70 0 1 0 0 empty empty L 8 6 0 7 -16662 -260097
-260097 0 0;
#X obj 471 111 vsl 20 69 0 1 0 0 empty empty H 6 6 0 7 -16662 -260097
-260097 0 0;
#X obj 452 111 vsl 20 70 0 1 0 0 empty empty M 8 6 0 7 -16662 -260097
-260097 0 0;
#X obj -112 62 inlet;
#X obj -72 62 inlet;
#X obj -12 48 inlet;
#X obj -152 62 inlet;
#X obj 734 161 dj-eq;
#X obj 524 -47 s V1A;
#X obj -53 23 r lo;
#X obj 577 416 s~ A0;
#X floatatom 135 1 5 0 0 0 - - -;
#X floatatom 190 2 5 0 0 0 - - -;
#X msg 403 42 0;
#X msg 53 1 color \$1;
#X floatatom 86 -23 5 0 0 0 - - -;
#X obj 53 -47 bng 15 250 50 0 empty empty empty 17 7 0 10 -262144 -1
-1;
#X msg 53 -22 44;
#X obj 135 -41 / 127;
#X obj 193 -41 / 127;
#X obj 135 -66 ctlin 3;
#X obj 193 -66 ctlin 7;
#X obj 426 109 cnv 3 10 75 empty empty empty 12 12 0 14 -1 -66577 0
;
#X obj 1097 42 ctlin 8;
#X obj 1238 42 ctlin 12;
#X obj 957 42 ctlin 4;
#X obj 1322 62 ctlin 16;
#X obj 1238 67 / 127;
#X obj 1097 67 / 127;
#X obj 938 88 / 127;
#X obj -12 23 r lo;
#X msg -18 167 1;
#X msg -18 142 0;
#X obj 340 147 hsl 84 16 0 6 0 0 empty empty shape_out 35 8 1 10 -16662
-260097 -260097 1383 1;
#X obj 218 147 hsl 84 16 0 6 0 0 empty empty shape_in 5 8 1 10 -16662
-260097 -260097 1383 1;
#X obj 218 104 hsl 100 22 0 1 0 0 empty empty fade_in 4 12 1 12 -16662
-260097 -260097 990 1;
#X obj 324 104 hsl 100 22 1 0 0 0 empty empty fade_out 50 12 1 12 -16662
-260097 -260097 8910 1;
#X floatatom 248 291 5 0 0 0 in - -;
#X floatatom 307 291 5 0 0 0 out - -;
#X floatatom 54 253 5 0 0 0 pow_in - -;
#X floatatom 177 291 5 0 0 0 pow_out - -;
#X obj 304 147 bng 16 250 50 0 empty empty empty 4 8 1 13 -12306 -260097
-1;
#X obj 321 147 bng 16 250 50 0 empty empty empty 4 8 1 13 -12306 -260097
-1;
#X obj 218 126 hsl 206 20 0 1 0 0 empty empty sustain 85 9 1 12 -16662
-260097 -260097 19475 1;
#X obj 250 580 env_inout0Z;
#X msg -72 112 0.1;
#X floatatom 381 562 5 0 0 0 - - -;
#X obj 491 109 cnv 12 115 75 empty empty empty 12 12 0 14 -1 -66577
0;
#X floatatom 300 -7 5 0 0 0 - - -;
#X obj 270 -41 / 127;
#X obj 270 -66 ctlin 11;
#X obj 270 8 - 1;
#X obj 270 33 * -1;
#X msg -12 73 0.1;
#X obj 1322 87 / 127;
#X obj 518 111 vsl 20 70 0 1 0 0 empty empty db 2 9 0 13 -16662 -260097
-260097 0 0;
#X msg -183 161 1;
#X msg -119 161 1;
#X obj 307 -872 r pitchA;
#X obj 214 651 *~;
#X obj 105 194 hsl 499 61 0 1 0 0 empty empty empty -2 -8 0 10 -260097
-1 -1 28379 1;
#X msg 36 62 250;
#N canvas 0 22 450 278 (subpatch) 0;
#X array table23 2.91395e+06 float 2;
#X coords 0 1 2.91395e+06 -1 506 61 2 0 0;
#X restore 101 194 graph;
#X obj 32 117 cnv 15 32 16 empty empty empty 20 12 0 14 -260097 -66577
0;
#X obj 192 133 tgl 23 0 empty empty empty 8 11 0 10 -1 -260097 -260097
0 1;
#X floatatom 26 117 5 0 0 0 - - -;
#X obj 211 163 cnv 12 220 19 empty empty empty 22 10 1 8 -1 -260097
0;
#X obj 100 101 cnv 18 506 7 empty empty empty 22 10 1 8 -1 -260097
0;
#X floatatom 285 -1125 4 0 100 0 - - -;
#X floatatom 274 -955 0 0 200 0 - - -;
#X obj 24 -501 +~;
#X obj 25 -591 samphold~;
#X obj 24 -567 *~;
#X obj 234 -482 r~ phase;
#X obj 246 -1259 s~ phase;
#X obj 119 -596 r~ phase;
#X obj 59 -545 r~ phase;
#X obj 256 -1075 s chunk-size;
#X floatatom 274 -871 0 0 0 0 - - -;
#X text 294 -1433 chunk size;
#X text 294 -1414 in seconds;
#X obj 258 -1389 r chunk-size;
#X obj 258 -1364 t b f;
#X obj 234 -457 -~ 0.5;
#X obj 234 -432 *~ 0.5;
#X obj 234 -407 cos~;
#X obj 246 -1284 phasor~;
#X obj 0 -633 s~ read-pt;
#X obj 59 -520 r~ read-pt;
#X obj 328 -1260 +~ 0.5;
#X obj 328 -1235 wrap~;
#X obj 326 -1211 s~ phase2;
#X obj 26 -370 +~;
#X obj 256 -1100 * 0.001;
#X obj 24 -476 *~ 44100;
#X obj 24 -426 tabread4~ table23;
#X obj 24 -451 +~ 1;
#X floatatom 328 -1284 5 0 0 0 - - -;
#X obj 47 -932 s precession;
#X obj 371 -1364 t b f;
#X obj 406 -1389 r precession;
#X obj 47 -953 * 0.01;
#X obj 339 -492 +~;
#X obj 339 -542 samphold~;
#X obj 339 -517 *~;
#X obj 454 -405 -~ 0.5;
#X obj 454 -380 *~ 0.5;
#X obj 454 -355 cos~;
#X obj 374 -491 r~ read-pt;
#X obj 339 -467 *~ 44100;
#X obj 329 -361 tabread4~ table23;
#X obj 339 -567 r chunk-size;
#X obj 329 -386 +~ 1;
#X obj 427 -545 r~ phase2;
#X obj 374 -516 r~ phase2;
#X obj 454 -430 r~ phase2;
#X msg 280 -1053 25;
#X obj 14 -1067 * 0.001;
#X text 329 -1118 <-- chunk size (msec);
#X obj 258 -1339 expr (pow(2 \, $f1/120)-$f3)/$f2;
#X obj -1 -890 t b f;
#X text 120 -1182 (msec);
#X obj -3 -869 /;
#X floatatom 22 -1191 12 0 0 0 - - -;
#X floatatom 22 -1240 12 0 0 0 - - -;
#X floatatom 22 -1152 12 0 0 0 - - -;
#X obj 23 -1172 * 1000;
#X floatatom 274 -840 4 0 900 0 - - -;
#X text 101 -1207 <-- loop length;
#X text 371 -978 <-- speed \, percent;
#X obj 80 -638 s~ sample.pos1;
#X text 348 -835 <-- position \, 0-1;
#X obj -5 -744 *~ 1;
#X floatatom 274 -899 0 0 0 0 - - -;
#X obj 84 -885 t b f;
#X obj 47 -882 * 1;
#X floatatom 392 -596 0 0 0 0 - - -;
#X floatatom 235 -538 0 0 0 0 - - -;
#X obj 235 -588 loadbang;
#X obj 314 -1028 loadbang;
#X msg 270 -1005 0.5;
#X msg 276 -1028 100;
#X obj 23 -619 r chunk-size;
#X text 324 -938 <-- trgr on/off;
#X obj 663 -1127 soundfiler;
#X msg 664 -1157 read -resize \$1 table23;
#X obj 830 -1249 receive~ sample.pos1;
#X floatatom 829 -1134 12 0 0 0 - - -;
#X floatatom 829 -1085 12 0 0 0 - - -;
#X obj 868 -1201 tgl 15 0 empty empty empty 17 7 0 10 -262144 -1 -1
0 1;
#X floatatom 667 -1096 12 0 0 0 - - -;
#X obj 829 -1061 /;
#X text 346 -901 <-- pitch & speed \, norm= 1;
#X obj 860 -1059 outlet;
#X obj 25 -392 *~;
#X obj 329 -336 *~;
#X obj 813 -717 s posvisu;
#X msg 235 -563 44100;
#X floatatom 811 -678 12 0 0 2 pos - -;
#X floatatom 979 -1261 4 0 0 0 f.r - -;
#X obj 664 -1182 r soundfileA;
#X obj 314 -978 r speedA;
#X obj 351 -919 r pitchNspeedA;
#X obj 487 -860 r posA;
#X obj 107 -1163 s looplenghtA;
#X obj 313 -954 * 100;
#X obj 534 -860 * 0.01;
#X obj 534 -885 r directinA;
#X msg 235 -513 0;
#X floatatom 370 -1414 12 0 900 0 - - -;
#X obj 829 -1110 * 44100;
#X obj 811 -654 s playbackA;
#X obj 524 -22 s opa;
#X obj 101 109 cnv 13 82 74 empty empty empty 22 10 1 8 -260097 -260097
0;
#X obj 183 108 cnv 3 8 75 empty empty empty 12 12 0 14 -1 -66577 0
;
#X obj 190 -22 * 1;
#X obj 267 -22 * 1;
#X obj 358 23 * 0.3;
#X obj 134 -22 * 0.3;
#N canvas 560 382 1588 855 (subpatch) 0;
#X array array1 8000 float 0;
#X coords 0 10 7999 -1 83 80 2 0 0;
#X restore 100 109 graph;
#X msg -72 87 0.95;
#X obj 551 396 *~ 1;
#X obj 192 109 tgl 23 0 empty empty a+b 3 11 0 10 -260097 -1 -1 1 1
;
#X msg 476 62 0;
#X obj 909 -1348 spigot-toggle_orange;
#X obj 939 -1327 sel;
#X msg 967 -1327 1;
#X obj 914 -1374 r trgrmodenvA;
#X obj 939 -1350 r sl_trgA;
#X obj 921 -1399 r sl_trgB;
#X obj -7 -778 phasor~;
#X obj 22 -1216 / 44100;
#X obj 103 266 hsl 502 10 0 1 0 1 empty empty ↻_RAW-OUT 4 5 1 10
-260097 -1 -1 25400 0;
#X obj 103 255 hsl 502 10 0 100 0 1 empty empty ↻_RAW-IN 4 5 1 10
-16662 -260097 -260097 28900 0;
#X obj -245 249 bng 15 250 50 0 empty empty empty 17 7 0 10 -262144
-1 -1;
#X obj -245 273 s timeseqtrgrrawinA;
#X floatatom 800 422 5 0 0 0 - - -;
#X floatatom 882 376 12 0 0 0 - - -;
#X obj 889 352 - 0;
#X obj 884 249 * 0.01;
#X obj 885 294 t b f;
#X floatatom 1048 477 5 0 0 0 - - -;
#X floatatom 884 270 5 0 0 0 - - -;
#X floatatom 904 422 12 0 0 0 - - -;
#X floatatom 876 472 12 0 0 0 - - -;
#X obj 876 447 * 1;
#X floatatom 894 617 12 0 0 0 - - -;
#X obj 902 524 t b f;
#X floatatom 1045 377 5 0 0 0 - - -;
#X obj 1226 376 > 0.12;
#X obj 892 549 / 1;
#X floatatom 895 572 5 0 0 0 - - -;
#X obj 1226 401 sel;
#X obj 1045 401 * 1;
#X msg 1226 426 -1;
#X msg 1256 422 1;
#X obj 876 422 * 1;
#X obj 917 457 t b f;
#X obj 895 595 * 1;
#X obj 1045 352 r pitchNspeedA;
#X obj 905 395 r looplenghtA;
#X obj 897 694 s TloopA;
#X obj 1056 688 s pitchrawA;
#X msg 614 -1128 99999;
#X obj 614 -1153 r lo;
#X obj 1048 501 r rawA;
#X msg -53 117 0.1;
#X obj 1056 660 spigot-toggle_red;
#X obj 894 660 spigot-toggle_red;
#X obj 546 109 pp.revAA;
#A saved empty_slot \; empty_slot \; empty_slot \; empty_slot \; empty_slot
\; empty_slot \; empty_slot \; empty_slot \; empty_slot \; empty_slot
\; empty_slot \; empty_slot \; empty_slot \; empty_slot \; empty_slot
\; empty_slot \; empty_slot \; empty_slot \; empty_slot \; empty_slot
\; empty_slot \;;
#X obj 1076 660 r rawloopA;
#X obj 313 -925 t b f;
#X obj 319 -902 * 1;
#X obj 902 -1199 metro 12;
#X obj 829 -1159 snapshot~;
#X obj 902 -1177 bng 15 250 50 0 empty empty empty 17 7 0 10 -262144
-1 -1;
#X obj 103 183 hsl 502 10 0 100 0 1 empty empty direct_IN 4 5 1 10
-16662 -260097 -260097 47100 0;
#X obj -245 298 s directinA;
#X obj 902 -1153 s snap;
#X obj 867 -1201 spigot-toggle_orange;
#X obj 903 -1219 tgl 15 0 empty empty empty 17 7 0 10 -262144 -1 -1
0 1;
#X obj 905 -1299 r snapABtrgr;
#X obj 1045 426 * 0.5;
#X obj 875 -1316 r øAtiTS1;
#X floatatom 997 -977 12 0 100 0 - - -;
#X obj 38 -768 tgl 15 0 empty empty empty 17 7 0 10 -262144 -1 -1 0
1;
#X obj -3 -715 spigot~;
#X obj 979 -1281 r FR;
#X obj 979 -1218 / 1000;
#X msg 979 -1243 1000;
#X floatatom 979 -1193 4 0 0 0 f.r - -;
#X msg 117 -1236 44100;
#X obj 0 -658 +~;
#X msg -100 211 1 0 \, 0 1 1;
#X obj -100 236 vline~;
#X obj 668 -1070 s fileDuration;
#X floatatom 813 -742 12 0 0 0 - - -;
#X floatatom 996 -884 19 0 100 0 - - -;
#X obj 996 -909 / 1e-06;
#X obj 997 -1002 r tstlinegr;
#X obj 731 -4 *~ 0.5;
#X obj 897 -744 spigot~;
#X obj 838 -772 spigot-toggle_orange;
#X obj 752 -742 spigot~;
#X obj 813 -772 spigot-toggle_orange;
#X obj 840 -887 tgl 15 0 empty empty granu_ou_pas 17 7 0 10 -4034 -1
-1 1 1;
#X obj 1002 -846 * -1;
#X obj 1003 -866 - 1;
#X obj 684 -739 tgl 15 0 empty empty empty 17 7 0 10 -260097 -1 -1
1 1;
#X obj 648 -764 r~ ext1;
#X obj 645 -718 spigot~;
#X text 144 312 -2;
#X text 282 313 2;
#X text 153 271 playback speed;
#X obj 936 -765 tgl 15 0 empty empty empty 17 7 0 10 -260097 -1 -1
0 1;
#X obj 792 -770 tgl 15 0 empty empty empty 17 7 0 10 -260097 -1 -1
1 1;
#X obj 1034 -955 receive fileDuration;
#X floatatom 1033 -930 10 0 0 0 - - -;
#X obj 18 -1315 receive fileDuration;
#X obj 192 159 tgl 23 0 empty empty empty 8 11 0 10 -1 -1 -1 0 1;
#X obj 191 147 tgl 23 0 empty empty empty 8 11 0 10 -1 -260097 -260097
0 1;
#X obj 646 -745 *~ 1;
#X floatatom 668 -781 10 0 0 0 - - -;
#X floatatom 29 -846 12 0 0 0 - - -;
#X floatatom 611 -859 12 0 0 0 - - -;
#X obj 163 -748 s~ phasorA;
#X obj 846 -963 r lo;
#X obj 896 -789 r~ granu;
#X obj -35 -1292 t b f;
#X obj -29 -1269 * 1;
#X floatatom -122 -1350 12 0 900 0 - - -;
#X obj 612 -889 r granuRDMoffsetadd;
#X obj 624 -830 +;
#X obj -134 -858 r plybckgrtgranu;
#X obj -140 -821 t b f;
#X obj -138 -794 * 1;
#X obj 286 661 s~ envAA;
#X floatatom -55 -827 12 0 0 0 - - -;
#X obj 909 -978 tgl 15 0 empty empty granu_ou_pas 17 7 0 10 -4034 -1
-1 0 1;
#X obj 824 -992 r granupas;
#X obj 941 -1044 r granu;
#X obj 673 291 r opagranu;
#X obj 497 364 *~ 1;
#X obj 423 498 *~;
#X floatatom 634 460 5 0 0 0 - - -;
#X obj 493 545 r lo;
#X obj 547 434 dadc~;
#X connect 0 0 7 1;
#X connect 1 0 7 3;
#X connect 2 0 7 2;
#X connect 3 0 2 0;
#X connect 4 0 1 0;
#X connect 6 0 0 0;
#X connect 7 0 229 0;
#X connect 7 0 229 1;
#X connect 7 0 229 2;
#X connect 9 0 180 0;
#X connect 9 0 16 0;
#X connect 9 0 45 0;
#X connect 9 0 13 0;
#X connect 11 0 35 0;
#X connect 12 0 43 0;
#X connect 13 0 1 0;
#X connect 13 0 2 0;
#X connect 13 0 0 0;
#X connect 13 0 183 0;
#X connect 15 0 14 0;
#X connect 16 0 17 0;
#X connect 17 0 15 0;
#X connect 18 0 178 0;
#X connect 19 0 175 0;
#X connect 20 0 18 0;
#X connect 21 0 19 0;
#X connect 23 0 28 0;
#X connect 24 0 27 0;
#X connect 25 0 29 0;
#X connect 26 0 54 0;
#X connect 27 0 1 0;
#X connect 28 0 2 0;
#X connect 29 0 0 0;
#X connect 30 0 53 0;
#X connect 30 0 32 0;
#X connect 30 0 31 0;
#X connect 30 0 61 0;
#X connect 30 0 182 0;
#X connect 31 0 34 0;
#X connect 31 0 33 0;
#X connect 33 0 40 0;
#X connect 34 0 39 0;
#X connect 35 0 37 0;
#X connect 36 0 38 0;
#X connect 36 0 42 0;
#X connect 37 0 44 3;
#X connect 38 0 44 6;
#X connect 39 0 44 2;
#X connect 40 0 44 4;
#X connect 41 0 56 0;
#X connect 42 0 57 0;
#X connect 43 0 44 5;
#X connect 44 0 59 1;
#X connect 44 0 296 0;
#X connect 45 0 35 0;
#X connect 46 0 44 6;
#X connect 48 0 51 0;
#X connect 49 0 176 0;
#X connect 50 0 49 0;
#X connect 51 0 52 0;
#X connect 52 0 177 0;
#X connect 53 0 36 0;
#X connect 54 0 55 0;
#X connect 55 0 8 0;
#X connect 55 0 172 0;
#X connect 55 0 181 1;
#X connect 56 0 34 0;
#X connect 57 0 33 0;
#X connect 58 0 78 0;
#X connect 59 0 303 0;
#X connect 61 0 65 0;
#X connect 64 0 44 1;
#X connect 68 0 93 0;
#X connect 69 0 101 0;
#X connect 70 0 94 0;
#X connect 71 0 72 0;
#X connect 72 0 70 0;
#X connect 73 0 83 0;
#X connect 75 0 71 1;
#X connect 76 0 72 1;
#X connect 78 0 119 0;
#X connect 81 0 82 0;
#X connect 82 0 119 0;
#X connect 82 1 119 1;
#X connect 83 0 84 0;
#X connect 84 0 85 0;
#X connect 85 0 154 1;
#X connect 86 0 74 0;
#X connect 86 0 89 0;
#X connect 88 0 70 1;
#X connect 89 0 90 0;
#X connect 90 0 91 0;
#X connect 92 0 263 0;
#X connect 93 0 77 0;
#X connect 94 0 96 0;
#X connect 95 0 154 0;
#X connect 96 0 95 0;
#X connect 99 0 119 0;
#X connect 99 1 119 2;
#X connect 100 0 169 0;
#X connect 101 0 98 0;
#X connect 101 0 135 0;
#X connect 102 0 109 0;
#X connect 103 0 104 0;
#X connect 104 0 102 0;
#X connect 105 0 106 0;
#X connect 106 0 107 0;
#X connect 107 0 155 1;
#X connect 108 0 102 1;
#X connect 109 0 112 0;
#X connect 110 0 155 0;
#X connect 111 0 103 0;
#X connect 112 0 110 0;
#X connect 113 0 103 1;
#X connect 114 0 104 1;
#X connect 115 0 105 0;
#X connect 116 0 68 0;
#X connect 117 0 132 1;
#X connect 117 0 120 0;
#X connect 119 0 86 0;
#X connect 119 0 97 0;
#X connect 120 0 122 0;
#X connect 120 1 122 1;
#X connect 122 0 283 0;
#X connect 122 0 295 0;
#X connect 123 0 126 0;
#X connect 124 0 191 0;
#X connect 125 0 164 0;
#X connect 125 0 117 0;
#X connect 126 0 125 0;
#X connect 127 0 190 1;
#X connect 132 0 246 0;
#X connect 133 0 134 0;
#X connect 134 0 135 0;
#X connect 134 1 135 1;
#X connect 135 0 122 0;
#X connect 136 0 109 1;
#X connect 137 0 94 1;
#X connect 138 0 157 0;
#X connect 139 0 140 0;
#X connect 139 0 141 0;
#X connect 139 0 116 0;
#X connect 139 0 245 0;
#X connect 140 0 133 0;
#X connect 141 0 69 0;
#X connect 142 0 71 0;
#X connect 144 0 150 0;
#X connect 145 0 144 0;
#X connect 147 0 170 0;
#X connect 148 0 151 0;
#X connect 149 0 231 0;
#X connect 149 0 239 1;
#X connect 150 0 151 1;
#X connect 150 0 255 0;
#X connect 151 0 153 0;
#X connect 151 0 264 0;
#X connect 154 0 92 0;
#X connect 155 0 92 1;
#X connect 157 0 136 0;
#X connect 157 0 137 0;
#X connect 158 0 171 0;
#X connect 158 0 60 0;
#X connect 159 0 249 0;
#X connect 159 0 248 1;
#X connect 159 0 250 0;
#X connect 160 0 145 0;
#X connect 161 0 165 0;
#X connect 162 0 232 0;
#X connect 163 0 127 0;
#X connect 165 0 69 0;
#X connect 166 0 127 0;
#X connect 167 0 166 0;
#X connect 168 0 137 0;
#X connect 168 0 136 0;
#X connect 169 0 99 0;
#X connect 170 0 148 0;
#X connect 175 0 12 0;
#X connect 176 0 48 0;
#X connect 177 0 36 0;
#X connect 178 0 11 0;
#X connect 180 0 43 0;
#X connect 181 0 10 0;
#X connect 181 0 306 0;
#X connect 181 0 306 1;
#X connect 182 0 44 0;
#X connect 183 0 55 0;
#X connect 184 0 149 0;
#X connect 185 0 186 0;
#X connect 186 0 149 0;
#X connect 187 0 184 0;
#X connect 188 0 184 1;
#X connect 188 0 185 0;
#X connect 189 0 184 1;
#X connect 189 0 185 0;
#X connect 190 0 132 0;
#X connect 190 0 285 0;
#X connect 191 0 123 0;
#X connect 192 0 194 0;
#X connect 192 0 196 0;
#X connect 193 0 194 0;
#X connect 193 0 199 0;
#X connect 193 0 222 0;
#X connect 194 0 195 0;
#X connect 196 0 198 0;
#X connect 197 0 216 0;
#X connect 198 0 197 0;
#X connect 199 0 202 0;
#X connect 200 0 198 0;
#X connect 200 1 198 1;
#X connect 201 0 207 0;
#X connect 201 0 227 0;
#X connect 202 0 200 0;
#X connect 203 0 217 0;
#X connect 204 0 210 0;
#X connect 205 0 204 0;
#X connect 206 0 228 0;
#X connect 207 0 210 0;
#X connect 207 1 210 1;
#X connect 208 0 242 0;
#X connect 209 0 212 0;
#X connect 210 0 211 0;
#X connect 211 0 218 0;
#X connect 212 0 214 0;
#X connect 212 1 215 0;
#X connect 213 0 201 0;
#X connect 214 0 213 1;
#X connect 214 0 216 1;
#X connect 215 0 213 1;
#X connect 215 0 216 1;
#X connect 216 0 205 0;
#X connect 217 0 205 0;
#X connect 217 1 205 1;
#X connect 218 0 206 0;
#X connect 219 0 209 0;
#X connect 219 0 208 0;
#X connect 220 0 203 0;
#X connect 223 0 150 0;
#X connect 224 0 223 0;
#X connect 227 0 222 0;
#X connect 228 0 221 0;
#X connect 229 0 181 0;
#X connect 230 0 227 1;
#X connect 230 0 228 1;
#X connect 231 0 232 0;
#X connect 231 1 232 1;
#X connect 232 0 133 0;
#X connect 233 0 235 0;
#X connect 234 0 147 0;
#X connect 235 0 238 0;
#X connect 235 0 239 0;
#X connect 236 0 237 0;
#X connect 239 0 234 0;
#X connect 240 0 233 0;
#X connect 241 0 240 0;
#X connect 242 0 213 0;
#X connect 243 0 149 0;
#X connect 244 0 258 0;
#X connect 245 0 246 2;
#X connect 246 0 252 0;
#X connect 247 0 159 0;
#X connect 249 0 248 0;
#X connect 250 0 233 1;
#X connect 251 0 191 1;
#X connect 252 0 87 0;
#X connect 252 0 130 0;
#X connect 253 0 254 0;
#X connect 256 0 156 0;
#X connect 256 0 158 0;
#X connect 257 0 262 0;
#X connect 258 0 257 0;
#X connect 259 0 244 0;
#X connect 260 0 7 0;
#X connect 261 0 260 0;
#X connect 262 0 256 0;
#X connect 263 0 59 0;
#X connect 264 0 256 0;
#X connect 265 0 264 1;
#X connect 265 0 268 0;
#X connect 265 0 275 0;
#X connect 265 0 240 0;
#X connect 266 0 274 0;
#X connect 266 0 262 1;
#X connect 267 0 266 0;
#X connect 268 0 270 2;
#X connect 269 0 281 0;
#X connect 270 0 252 1;
#X connect 274 0 261 2;
#X connect 275 0 263 2;
#X connect 276 0 277 0;
#X connect 277 0 258 1;
#X connect 278 0 124 0;
#X connect 281 0 270 0;
#X connect 282 0 281 1;
#X connect 283 0 282 0;
#X connect 284 0 292 0;
#X connect 284 0 190 1;
#X connect 286 0 265 0;
#X connect 287 0 261 0;
#X connect 288 0 289 0;
#X connect 288 1 289 1;
#X connect 289 0 120 0;
#X connect 290 0 289 0;
#X connect 291 0 284 0;
#X connect 293 0 294 0;
#X connect 293 0 297 0;
#X connect 294 0 295 0;
#X connect 294 1 295 1;
#X connect 295 0 190 0;
#X connect 298 0 262 1;
#X connect 298 0 274 0;
#X connect 299 0 265 0;
#X connect 300 0 298 0;
#X connect 301 0 304 0;
#X connect 303 0 7 0;
#X connect 304 0 303 1;
#X connect 305 0 303 1;
#X coords 0 -1 1 1 507 178 1 100 100;
