#N canvas -110 130 1680 917 16;
#X floatatom -332 -316 0 0 0 0 - - -;
#X obj -332 -351 *;
#X obj -339 -391 t b f;
#X floatatom -3 -316 0 0 0 0 - - -;
#X obj -6 -391 t b f;
#X obj -4 -351 *;
#X obj -4063 161 r lo;
#X msg -4038 187 0;
#X msg -4006 187 0.5;
#X obj -237 -352 bng 22 250 50 0 empty empty empty 17 7 0 10 -262144
-1 -1;
#X obj -79 -46 delay;
#X obj -74 13 pack f f;
#X obj -447 7 pack f f;
#X obj -60 -351 * 1;
#X obj -72 -391 t b f;
#X obj -361 417 dac~;
#X obj -449 -53 delay;
#X floatatom -422 -316 0 0 0 0 - - -;
#X obj -422 -351 *;
#X obj -429 -391 t b f;
#X msg 940 34 1, f 2;
#X obj 883 80 /;
#X floatatom 883 148 0 0 0 0 F - -;
#X floatatom -171 -461 0 0 0 1 - - -;
#X floatatom 973 150 0 0 0 0 T - -;
#X obj 974 82 /;
#X obj 973 114 * 1000;
#X obj 974 184 spigot-toggle_vert;
#X obj -3 -463 - 1;
#X obj -3 -435 * -1;
#X floatatom -60 -316 0 0 0 0 - - -;
#X obj -225 -110 bng 15 250 50 0 empty empty empty 17 7 0 10 -262144
-1 -1;
#X obj 883 112 * 1000;
#X obj -236 -393 metro 44;
#X obj -4040 115 r fll1;
#X text -3983 68 "a;
#X obj -4127 114 r fll0;
#X obj -4128 74 r fll0;
#X obj -4041 75 r fll1;
#X obj 964 545 spigot-toggle_orange;
#X obj 964 521 spigot-toggle_vert;
#X obj 964 497 spigot-toggle_red;
#X obj 964 590 * 1;
#X obj 924 545 spigot-toggle_orange;
#X obj 924 521 spigot-toggle_vert;
#X obj 923 497 spigot-toggle_red;
#X obj 924 590 * 1;
#X obj 805 47 t b f;
#X floatatom -468 195 0 0 0 0 - - -;
#X obj 807 82 * 1;
#X obj 795 161 t b f;
#X obj 797 193 * 1;
#X obj -259 475 r lo;
#X obj 883 183 spigot-toggle_vert;
#X obj -325 323 dj-eq;
#X obj 218 -289 r T$;
#X obj 199 -284 spigot-toggle_red;
#X obj 199 -255 spigot-toggle_red;
#X obj 218 -258 r T1;
#X obj 1008 545 spigot-toggle_orange;
#X obj 1008 521 spigot-toggle_vert;
#X obj 1008 497 spigot-toggle_red;
#X obj 1004 590 * 1;
#X obj 1049 545 spigot-toggle_orange;
#X obj 1049 521 spigot-toggle_vert;
#X obj 1049 497 spigot-toggle_red;
#X obj 1046 590 * 1;
#X obj -492 174 spigot-toggle_red;
#X obj 1008 567 spigot-toggle_orange;
#X obj 964 567 spigot-toggle_orange;
#X obj 1049 567 spigot-toggle_orange;
#X obj 925 567 spigot-toggle_orange;
#X obj 302 -87 r lo;
#X obj 779 545 spigot-toggle_orange;
#X obj 779 521 spigot-toggle_vert;
#X obj 779 497 spigot-toggle_red;
#X obj 827 545 spigot-toggle_orange;
#X obj 827 521 spigot-toggle_vert;
#X obj 827 497 spigot-toggle_red;
#X obj 698 545 spigot-toggle_orange;
#X obj 698 521 spigot-toggle_vert;
#X obj 698 497 spigot-toggle_red;
#X obj 695 590 * 1;
#X obj 827 567 spigot-toggle_orange;
#X obj 779 567 spigot-toggle_orange;
#X obj 551 546 r fll1;
#X obj 549 520 r fll0;
#X obj 699 567 spigot-toggle_orange;
#X obj 659 545 spigot-toggle_orange;
#X obj 659 521 spigot-toggle_vert;
#X obj 659 497 spigot-toggle_red;
#X obj 659 567 spigot-toggle_orange;
#X obj 873 545 spigot-toggle_orange;
#X obj 874 521 spigot-toggle_vert;
#X obj 874 498 spigot-toggle_red;
#X obj 874 590 * 1;
#X obj 873 567 spigot-toggle_orange;
#X obj 1289 -148 vsl 25 108 0 1.25 0 0 empty empty GAIN 5 6 1 6 -260097
-1 -1 0 1;
#X obj 1241 -148 vsl 15 108 0 1.25 0 0 empty empty empty 12 12 0 10
-260097 -1 -1 0 1;
#X obj 1273 -148 vsl 15 108 0 1.25 0 0 empty empty empty 12 12 0 10
-260097 -1 -1 0 1;
#X obj 1257 -148 vsl 15 108 0 1.25 0 0 empty empty empty 12 12 0 10
-260097 -1 -1 0 1;
#X obj 135 208 tgl 22 0 empty empty AUTO 1 11 1 8 -1 -260097 -260097
0 1;
#X obj -314 365 s~ C;
#X msg -76 -16 0;
#X obj -314 128 vline~;
#X obj -4063 1161 r lo;
#X msg -4038 1187 0;
#X msg -4006 1187 0.5;
#X obj -4040 1115 r fll1;
#X text -3983 1068 "a;
#X obj -4127 1114 r fll0;
#X obj -4128 1074 r fll0;
#X obj -4041 1075 r fll1;
#X obj -330 215 vfreeverb~;
#X obj 286 100 hsl 80 15 0 1 0 1 empty empty roomsize' 3 8 0 10 -260097
-1 -1 0 0;
#X obj 286 116 hsl 80 15 0 2 0 1 empty empty damp 3 8 0 10 -1 -260097
-260097 4500 0;
#X obj 286 132 hsl 80 15 0 1 0 1 empty empty wet 3 8 0 10 -1 -260097
-260097 0 0;
#X obj 286 148 hsl 80 15 0 1 0 1 empty empty dry 3 8 0 10 -1 -260097
-260097 7600 0;
#X msg 297 -58 0;
#X obj 240 325 cnv 15 62 165 empty empty empty 20 12 1 12 -262144 -228856
0;
#X floatatom 202 231 6 0 0 0 - - -;
#X floatatom 202 208 3 0 0 1 xt - -;
#X floatatom 202 185 6 0 0 2 - - -;
#X floatatom 201 348 6 0 0 0 - - -;
#X floatatom 201 325 3 0 0 1 xf - -;
#X floatatom 201 301 6 0 0 2 - - -;
#X obj 549 495 r B;
#X obj 963 624 - 1;
#X obj 962 655 * -1;
#X obj 1045 624 - 1;
#X obj 1043 655 * -1;
#X floatatom 653 632 0 0 0 2 phase2 - -;
#X obj 738 545 spigot-toggle_orange;
#X obj 738 521 spigot-toggle_vert;
#X obj 738 497 spigot-toggle_red;
#X obj 739 595 * 1;
#X obj 739 567 spigot-toggle_orange;
#X obj 369 100 tgl 15 0 empty empty A 4 8 1 10 -260097 -1 -1 0 1;
#X obj 1259 -31 tgl 15 0 empty empty A 4 7 1 10 -260097 -1 -1 0 1;
#X obj 1220 15 tgl 22 0 empty empty B 7 10 1 10 -260097 -1 -1 0 1;
#X obj 1220 -8 tgl 22 0 empty empty A 7 10 1 10 -260097 -1 -1 0 1;
#X obj 1220 61 tgl 22 0 empty empty b' 7 9 1 10 -260097 -1 -1 0 1;
#X obj 1220 38 tgl 22 0 empty empty a' 7 9 0 10 -260097 -1 -1 0 1;
#X msg -202 474 1, f 2;
#X obj 1079 727 r A;
#X obj 1079 757 r T$;
#X obj 1079 790 r gateinA;
#X obj 1078 818 r gateoutA;
#X obj 1079 848 r trigA;
#X obj 654 590 * 1;
#X obj -573 166 r trgrA;
#X obj 784 590 * 1;
#X obj 827 590 * 1;
#X obj 548 471 r A;
#X obj -224 -134 bng 15 250 50 0 empty empty empty 17 7 0 10 -262144
-1 -1;
#X obj -491 198 spigot-toggle_red;
#X obj -573 193 r trgrB;
#X obj -492 -169 spigot-toggle_red;
#X obj -492 -145 spigot-toggle_red;
#X obj -672 -147 r bonkAouBtoenvB;
#X obj -669 -179 r bonkAouBtoenvA;
#X msg -170 475 20, f 2;
#X obj -329 755 s~ D;
#X obj -229 437 * -2;
#X obj -278 436 + 1;
#X obj -446 47 s envinC;
#X obj -75 54 s envoutC;
#X obj 841 240 s timeC;
#X obj 918 240 s freqC;
#X obj 123 -463 tgl 15 0 empty empty empty 17 7 0 10 -262144 -1 -1
0 1;
#X obj -211 -353 s BBsynthC;
#N canvas 955 118 500 413 multi_oscillator 0;
#N canvas 158 237 1116 633 sine 0;
#X floatatom 603 58 5 0 0 0 - - -;
#X obj 603 80 sel 0;
#X obj 79 269 osc~;
#X obj 81 32 r \$0-freq1;
#X floatatom 81 54 5 0 0 0 - - -;
#X obj 318 276 osc~;
#X obj 79 418 *~;
#X obj 332 437 *~;
#X obj 510 190 f;
#X msg 945 214 0;
#X obj 945 192 t b;
#X obj 362 360 pack f 50;
#X obj 358 395 line~;
#X obj 98 371 pack f 50;
#X obj 122 400 line~;
#X obj 81 135 pack f f;
#X floatatom 142 100 5 0 0 0 - - -;
#X obj 81 157 line~;
#X obj 80 235 +~;
#X floatatom 320 54 5 0 0 0 - - -;
#X obj 320 136 pack f f;
#X floatatom 373 117 5 0 0 0 - - -;
#X obj 320 158 line~;
#X obj 319 236 +~;
#X obj 621 137 r \$0-balance-send;
#X obj 322 23 r \$0-freq2;
#X obj 81 535 +~;
#X obj 83 607 outlet~;
#X floatatom 621 159 5 0 0 0 - - -;
#X obj 621 178 t b f;
#X obj 141 308 swap 1;
#X obj 141 336 -;
#X obj 603 104 t b b b;
#X obj 363 329 spigot;
#X msg 716 208 1;
#X obj 141 285 spigot;
#X msg 794 209 0;
#X obj 794 184 r \$0-reset-send;
#X obj 142 78 r \$0-glide;
#X obj 373 95 r \$0-glide;
#X obj 110 206 r~ \$0-fm;
#X obj 345 201 r~ \$0-fm;
#X obj 253 607 s~ wave0;
#X obj 603 36 r \$0-wave-send;
#X obj 162 501 *~ 1;
#X obj 205 439 tgl 15 0 empty empty empty 17 7 0 10 -262144 -1 -1 0
1;
#X obj 205 409 r 2mfreqadd;
#X obj 105 503 dj-eq;
#X obj 116 458 r M2;
#X obj 178 458 r H2;
#X obj 54 456 r L2;
#X obj 83 566 *~;
#X obj 137 566 r pase2;
#X connect 0 0 1 0;
#X connect 1 0 32 0;
#X connect 1 1 10 0;
#X connect 2 0 6 0;
#X connect 3 0 4 0;
#X connect 4 0 15 0;
#X connect 5 0 7 0;
#X connect 6 0 26 0;
#X connect 7 0 44 0;
#X connect 8 0 33 0;
#X connect 8 0 35 0;
#X connect 9 0 11 0;
#X connect 9 0 33 1;
#X connect 9 0 35 1;
#X connect 9 0 13 0;
#X connect 10 0 9 0;
#X connect 11 0 12 0;
#X connect 12 0 7 1;
#X connect 13 0 14 0;
#X connect 14 0 6 1;
#X connect 15 0 17 0;
#X connect 16 0 15 1;
#X connect 17 0 18 0;
#X connect 18 0 2 0;
#X connect 19 0 20 0;
#X connect 20 0 22 0;
#X connect 21 0 20 1;
#X connect 22 0 23 0;
#X connect 23 0 5 0;
#X connect 24 0 28 0;
#X connect 25 0 19 0;
#X connect 26 0 51 0;
#X connect 28 0 29 0;
#X connect 29 0 8 0;
#X connect 29 1 8 1;
#X connect 30 0 31 0;
#X connect 30 1 31 1;
#X connect 31 0 13 0;
#X connect 32 0 8 0;
#X connect 32 1 34 0;
#X connect 32 2 36 0;
#X connect 33 0 11 0;
#X connect 34 0 33 1;
#X connect 34 0 35 1;
#X connect 35 0 30 0;
#X connect 36 0 5 1;
#X connect 36 0 2 1;
#X connect 37 0 36 0;
#X connect 38 0 16 0;
#X connect 39 0 21 0;
#X connect 40 0 18 1;
#X connect 41 0 23 1;
#X connect 43 0 0 0;
#X connect 44 0 47 0;
#X connect 45 0 44 1;
#X connect 46 0 45 0;
#X connect 47 0 26 1;
#X connect 48 0 47 2;
#X connect 49 0 47 3;
#X connect 50 0 47 1;
#X connect 51 0 42 0;
#X connect 51 0 27 0;
#X connect 52 0 51 1;
#X restore 70 37 pd sine;
#X obj 85 118 +~;
#N canvas 537 124 1116 554 triangle 0;
#X floatatom 603 58 5 0 0 0 - - -;
#X obj 81 32 r \$0-freq1;
#X obj 603 36 r \$0-wave-send;
#X floatatom 81 80 5 0 0 0 - - -;
#X obj 79 434 *~;
#X obj 319 434 *~;
#X obj 601 218 f;
#X msg 789 136 0;
#X obj 98 344 swap 1;
#X obj 98 366 -;
#X msg 984 134 0;
#X obj 984 112 t b;
#X obj 342 375 pack f 50;
#X obj 341 402 line~;
#X obj 98 387 pack f 50;
#X obj 98 409 line~;
#X obj 81 135 pack f f;
#X floatatom 134 116 5 0 0 0 - - -;
#X obj 81 157 line~;
#X obj 80 235 +~;
#X floatatom 320 55 5 0 0 0 - - -;
#X obj 320 136 pack f f;
#X floatatom 401 99 5 0 0 0 - - -;
#X obj 320 158 line~;
#X obj 319 236 +~;
#X obj 621 135 r \$0-balance-send;
#X obj 320 33 r \$0-freq2;
#X obj 78 513 +~;
#X obj 603 80 sel 1;
#N canvas 406 87 501 366 make-triangle 0;
#X obj 52 20 inlet~;
#X obj 341 42 inlet phase;
#X obj 51 126 phasor~;
#X obj 295 125 phasor~;
#X obj 49 174 -~ 1;
#X obj 49 201 clip~ -1 0;
#X obj 50 148 *~ 2;
#X obj 295 147 *~ -2;
#X obj 294 170 +~ 1;
#X obj 294 195 clip~ -1 0;
#X obj 48 225 *~ 2;
#X obj 294 218 *~ 2;
#X obj 181 307 +~;
#X obj 181 329 outlet~;
#X obj 294 240 +~ 0.5;
#X obj 48 247 +~ 0.5;
#X connect 0 0 2 0;
#X connect 0 0 3 0;
#X connect 1 0 3 1;
#X connect 1 0 2 1;
#X connect 2 0 6 0;
#X connect 3 0 7 0;
#X connect 4 0 5 0;
#X connect 5 0 10 0;
#X connect 6 0 4 0;
#X connect 7 0 8 0;
#X connect 8 0 9 0;
#X connect 9 0 11 0;
#X connect 10 0 15 0;
#X connect 11 0 14 0;
#X connect 12 0 13 0;
#X connect 14 0 12 1;
#X connect 15 0 12 0;
#X restore 81 265 pd make-triangle;
#N canvas 270 393 444 366 make-triangle 0;
#X obj 52 20 inlet~;
#X obj 341 34 inlet phase;
#X obj 51 126 phasor~;
#X obj 295 125 phasor~;
#X obj 49 174 -~ 1;
#X obj 49 201 clip~ -1 0;
#X obj 50 148 *~ 2;
#X obj 295 147 *~ -2;
#X obj 294 170 +~ 1;
#X obj 294 195 clip~ -1 0;
#X obj 48 225 *~ 2;
#X obj 294 218 *~ 2;
#X obj 181 307 +~;
#X obj 181 329 outlet~;
#X obj 294 240 +~ 0.5;
#X obj 48 247 +~ 0.5;
#X connect 0 0 2 0;
#X connect 0 0 3 0;
#X connect 1 0 3 1;
#X connect 1 0 2 1;
#X connect 2 0 6 0;
#X connect 3 0 7 0;
#X connect 4 0 5 0;
#X connect 5 0 10 0;
#X connect 6 0 4 0;
#X connect 7 0 8 0;
#X connect 8 0 9 0;
#X connect 9 0 11 0;
#X connect 10 0 15 0;
#X connect 11 0 14 0;
#X connect 12 0 13 0;
#X connect 14 0 12 1;
#X connect 15 0 12 0;
#X restore 318 262 pd make-triangle;
#X obj 401 77 r \$0-glide;
#X obj 134 93 r \$0-glide;
#X floatatom 621 159 5 0 0 0 - - -;
#X obj 621 178 t b f;
#X obj 603 104 t b b b;
#X obj 98 322 spigot;
#X msg 912 134 1;
#X obj 343 346 spigot;
#X obj 789 108 r \$0-reset-send;
#X obj 111 201 r~ \$0-fm;
#X obj 338 209 r~ \$0-fm;
#X floatatom -320 403 5 0 0 0 - - -;
#X text -665 518 The binary signal operators can be configured to combine
two signals as above \, or \, if you give a numeric argument \, audio
signals are combined with scalars:;
#X obj 180 497 *~ 1;
#X obj 205 439 tgl 15 0 empty empty empty 17 7 0 10 -262144 -1 -1 0
1;
#X obj 205 409 r 2mfreqadd;
#X obj 123 499 dj-eq;
#X obj 116 458 r M2;
#X obj 178 458 r H2;
#X obj 54 456 r L2;
#X obj 83 607 outlet~;
#X obj 253 607 s~ wave0;
#X obj 83 566 *~;
#X obj 137 566 r pase2;
#X connect 0 0 28 0;
#X connect 1 0 3 0;
#X connect 2 0 0 0;
#X connect 3 0 16 0;
#X connect 4 0 27 0;
#X connect 5 0 47 0;
#X connect 6 0 38 0;
#X connect 6 0 36 0;
#X connect 7 0 29 1;
#X connect 7 0 30 1;
#X connect 8 0 9 0;
#X connect 8 1 9 1;
#X connect 9 0 14 0;
#X connect 10 0 12 0;
#X connect 10 0 36 1;
#X connect 10 0 38 1;
#X connect 10 0 14 0;
#X connect 11 0 10 0;
#X connect 12 0 13 0;
#X connect 13 0 5 1;
#X connect 14 0 15 0;
#X connect 15 0 4 1;
#X connect 16 0 18 0;
#X connect 17 0 16 1;
#X connect 18 0 19 0;
#X connect 19 0 29 0;
#X connect 20 0 21 0;
#X connect 21 0 23 0;
#X connect 22 0 21 1;
#X connect 23 0 24 0;
#X connect 24 0 30 0;
#X connect 25 0 33 0;
#X connect 26 0 20 0;
#X connect 27 0 53 0;
#X connect 28 0 35 0;
#X connect 28 1 11 0;
#X connect 29 0 4 0;
#X connect 30 0 5 0;
#X connect 31 0 22 0;
#X connect 32 0 17 0;
#X connect 33 0 34 0;
#X connect 34 0 6 0;
#X connect 34 1 6 1;
#X connect 35 0 6 0;
#X connect 35 1 7 0;
#X connect 35 2 37 0;
#X connect 36 0 8 0;
#X connect 37 0 38 1;
#X connect 37 0 36 1;
#X connect 38 0 12 0;
#X connect 39 0 7 0;
#X connect 40 0 19 1;
#X connect 41 0 24 1;
#X connect 42 0 27 1;
#X connect 44 0 47 0;
#X connect 45 0 44 1;
#X connect 46 0 45 0;
#X connect 47 0 27 1;
#X connect 48 0 47 2;
#X connect 49 0 47 3;
#X connect 50 0 47 1;
#X connect 53 0 52 0;
#X connect 53 0 51 0;
#X connect 54 0 53 1;
#X restore 150 37 pd triangle;
#X obj 133 337 tabwrite~ \$0-waveform;
#X obj 133 310 metro 100;
#X obj 133 289 tgl 15 0 empty empty empty 17 7 0 10 -262144 -1 -1 1
1;
#X obj 133 259 loadbang;
#X obj 150 100 +~;
#N canvas 564 302 1116 726 pulse 0;
#X floatatom 603 58 5 0 0 0 - - -;
#X obj 81 32 r \$0-freq1;
#X obj 603 36 r \$0-wave-send;
#X floatatom 81 65 5 0 0 0 - - -;
#X obj 78 588 *~;
#X obj 339 589 *~;
#X obj 604 205 f;
#X msg 922 209 0;
#X obj 922 187 t b;
#X obj 355 537 pack f 50;
#X obj 356 564 line~;
#X obj 97 541 pack f 50;
#X obj 97 563 line~;
#X obj 81 135 pack f f;
#X floatatom 134 116 5 0 0 0 - - -;
#X obj 81 157 line~;
#X obj 80 235 +~;
#X floatatom 345 55 5 0 0 0 - - -;
#X obj 345 137 pack f f;
#X floatatom 398 118 5 0 0 0 - - -;
#X obj 345 159 line~;
#X obj 344 237 +~;
#X obj 621 137 r \$0-balance-send;
#X obj 345 34 r \$0-freq2;
#X obj 78 610 +~;
#X floatatom 621 159 5 0 0 0 - - -;
#X obj 621 178 t b f;
#X obj 97 497 swap 1;
#X obj 97 519 -;
#X obj 603 104 t b b b;
#X obj 356 508 spigot;
#X msg 716 208 1;
#X obj 97 474 spigot;
#X msg 794 209 0;
#X obj 603 80 sel 2;
#X obj 79 290 phasor~;
#X obj 342 289 phasor~;
#X obj 78 374 expr~ $v1 > $v2;
#X obj 190 313 pack f 50;
#X obj 190 335 line~;
#X floatatom 190 294 5 0 0 0 - - -;
#X obj 341 376 expr~ $v1 > $v2;
#X obj 456 309 pack f 50;
#X obj 456 331 line~;
#X floatatom 456 290 5 0 0 0 - - -;
#X obj 77 399 *~ 2;
#X obj 77 421 -~ 1;
#X obj 340 399 *~ 2;
#X obj 340 421 -~ 1;
#X obj 794 184 r \$0-reset-send;
#X obj 134 94 r \$0-glide;
#X obj 398 96 r \$0-glide;
#X obj 99 210 r~ \$0-fm;
#X obj 361 212 r~ \$0-fm;
#X obj 456 268 r \$0-pwm;
#X obj 190 272 r \$0-pwm;
#X obj 232 637 *~ 1;
#X obj 238 560 tgl 15 0 empty empty empty 17 7 0 10 -262144 -1 -1 0
1;
#X obj 238 530 r 2mfreqadd;
#X obj 175 639 dj-eq;
#X obj 214 587 r M2;
#X obj 276 587 r H2;
#X obj 152 585 r L2;
#X obj 80 715 outlet~;
#X obj 250 715 s~ wave0;
#X obj 80 674 *~;
#X obj 134 674 r pase2;
#X connect 0 0 34 0;
#X connect 1 0 3 0;
#X connect 2 0 0 0;
#X connect 3 0 13 0;
#X connect 4 0 24 0;
#X connect 5 0 56 0;
#X connect 6 0 30 0;
#X connect 6 0 32 0;
#X connect 7 0 9 0;
#X connect 7 0 11 0;
#X connect 7 0 30 1;
#X connect 7 0 32 1;
#X connect 8 0 7 0;
#X connect 9 0 10 0;
#X connect 10 0 5 1;
#X connect 11 0 12 0;
#X connect 12 0 4 1;
#X connect 13 0 15 0;
#X connect 14 0 13 1;
#X connect 15 0 16 0;
#X connect 16 0 35 0;
#X connect 17 0 18 0;
#X connect 18 0 20 0;
#X connect 19 0 18 1;
#X connect 20 0 21 0;
#X connect 21 0 36 0;
#X connect 22 0 25 0;
#X connect 23 0 17 0;
#X connect 24 0 65 0;
#X connect 25 0 26 0;
#X connect 26 0 6 0;
#X connect 26 1 6 1;
#X connect 27 0 28 0;
#X connect 27 1 28 1;
#X connect 28 0 11 0;
#X connect 29 0 6 0;
#X connect 29 1 31 0;
#X connect 29 2 33 0;
#X connect 30 0 9 0;
#X connect 31 0 30 1;
#X connect 31 0 32 1;
#X connect 32 0 27 0;
#X connect 33 0 35 1;
#X connect 33 0 36 1;
#X connect 34 0 29 0;
#X connect 34 1 8 0;
#X connect 35 0 37 0;
#X connect 36 0 41 0;
#X connect 37 0 45 0;
#X connect 38 0 39 0;
#X connect 39 0 37 1;
#X connect 40 0 38 0;
#X connect 41 0 47 0;
#X connect 42 0 43 0;
#X connect 43 0 41 1;
#X connect 44 0 42 0;
#X connect 45 0 46 0;
#X connect 46 0 4 0;
#X connect 47 0 48 0;
#X connect 48 0 5 0;
#X connect 49 0 33 0;
#X connect 50 0 14 0;
#X connect 51 0 19 0;
#X connect 52 0 16 1;
#X connect 53 0 21 1;
#X connect 54 0 44 0;
#X connect 55 0 40 0;
#X connect 56 0 59 0;
#X connect 57 0 56 1;
#X connect 58 0 57 0;
#X connect 59 0 24 1;
#X connect 60 0 59 2;
#X connect 61 0 59 3;
#X connect 62 0 59 1;
#X connect 65 0 64 0;
#X connect 65 0 63 0;
#X connect 66 0 65 1;
#X restore 267 37 pd pulse;
#X obj 242 82 +~;
#N canvas 469 121 1116 726 saw 0;
#X floatatom 603 58 5 0 0 0 - - -;
#X obj 81 32 r \$0-freq1;
#X obj 603 36 r \$0-wave-send;
#X floatatom 81 54 5 0 0 0 - - -;
#X obj 81 513 *~;
#X obj 410 505 *~;
#X obj 604 205 f;
#X msg 922 209 0;
#X obj 922 187 t b;
#X obj 427 458 pack f 50;
#X obj 427 480 line~;
#X obj 100 466 pack f 50;
#X obj 100 488 line~;
#X obj 81 135 pack f f;
#X floatatom 134 116 5 0 0 0 - - -;
#X obj 81 157 line~;
#X obj 80 235 +~;
#X floatatom 413 46 5 0 0 0 - - -;
#X obj 413 128 pack f f;
#X floatatom 466 109 5 0 0 0 - - -;
#X obj 413 150 line~;
#X obj 412 228 +~;
#X obj 621 137 r \$0-balance-send;
#X obj 413 25 r \$0-freq2;
#X obj 81 535 +~;
#X floatatom 621 159 5 0 0 0 - - -;
#X obj 621 178 t b f;
#X obj 100 422 swap 1;
#X obj 100 444 -;
#X obj 603 104 t b b b;
#X obj 427 432 spigot;
#X msg 716 208 1;
#X obj 100 399 spigot;
#X msg 794 209 0;
#X obj 79 290 phasor~;
#X obj 410 280 phasor~;
#X obj 80 324 *~ 2;
#X obj 80 346 -~ 1;
#X obj 411 315 *~ 2;
#X obj 411 337 -~ 1;
#X obj 603 80 sel 3;
#X obj 794 184 r \$0-reset-send;
#X obj 466 87 r \$0-glide;
#X obj 134 94 r \$0-glide;
#X obj 98 212 r~ \$0-fm;
#X obj 430 203 r~ \$0-fm;
#X obj 262 548 *~ 1;
#X obj 305 486 tgl 15 0 empty empty empty 17 7 0 10 -262144 -1 -1 0
1;
#X obj 305 456 r 2mfreqadd;
#X obj 205 550 dj-eq;
#X obj 217 509 r M2;
#X obj 279 509 r H2;
#X obj 155 507 r L2;
#X obj 72 657 outlet~;
#X obj 242 657 s~ wave0;
#X obj 72 616 *~;
#X obj 126 616 r pase2;
#X connect 0 0 40 0;
#X connect 1 0 3 0;
#X connect 2 0 0 0;
#X connect 3 0 13 0;
#X connect 4 0 24 0;
#X connect 5 0 49 0;
#X connect 6 0 30 0;
#X connect 6 0 32 0;
#X connect 7 0 9 0;
#X connect 7 0 11 0;
#X connect 7 0 30 1;
#X connect 7 0 32 1;
#X connect 8 0 7 0;
#X connect 9 0 10 0;
#X connect 10 0 5 1;
#X connect 11 0 12 0;
#X connect 12 0 4 1;
#X connect 13 0 15 0;
#X connect 14 0 13 1;
#X connect 15 0 16 0;
#X connect 16 0 34 0;
#X connect 17 0 18 0;
#X connect 18 0 20 0;
#X connect 19 0 18 1;
#X connect 20 0 21 0;
#X connect 21 0 35 0;
#X connect 22 0 25 0;
#X connect 23 0 17 0;
#X connect 24 0 55 0;
#X connect 25 0 26 0;
#X connect 26 0 6 0;
#X connect 26 1 6 1;
#X connect 27 0 28 0;
#X connect 27 1 28 1;
#X connect 28 0 11 0;
#X connect 29 0 6 0;
#X connect 29 1 31 0;
#X connect 29 2 33 0;
#X connect 30 0 9 0;
#X connect 31 0 30 1;
#X connect 31 0 32 1;
#X connect 32 0 27 0;
#X connect 33 0 34 1;
#X connect 33 0 35 1;
#X connect 34 0 36 0;
#X connect 35 0 38 0;
#X connect 36 0 37 0;
#X connect 37 0 4 0;
#X connect 38 0 39 0;
#X connect 39 0 5 0;
#X connect 40 0 29 0;
#X connect 40 1 8 0;
#X connect 41 0 33 0;
#X connect 42 0 19 0;
#X connect 43 0 14 0;
#X connect 44 0 16 1;
#X connect 45 0 21 1;
#X connect 46 0 49 0;
#X connect 47 0 46 1;
#X connect 48 0 47 0;
#X connect 49 0 24 1;
#X connect 50 0 49 2;
#X connect 51 0 49 3;
#X connect 52 0 49 1;
#X connect 55 0 54 0;
#X connect 55 0 53 0;
#X connect 56 0 55 1;
#X restore 359 37 pd saw;
#X obj 396 68 +~;
#N canvas 564 60 1116 554 noise 0;
#X floatatom 603 58 5 0 0 0 - - -;
#X obj 93 31 r \$0-freq1;
#X obj 603 36 r \$0-wave-send;
#X floatatom 93 53 5 0 0 0 - - -;
#X obj 79 454 *~;
#X obj 319 434 *~;
#X obj 604 205 f;
#X msg 945 214 0;
#X obj 945 192 t b;
#X obj 336 387 pack f 50;
#X obj 336 409 line~;
#X obj 98 387 pack f 50;
#X obj 98 409 line~;
#X obj 93 134 pack f f;
#X floatatom 146 115 5 0 0 0 - - -;
#X obj 93 156 line~;
#X obj 92 234 +~;
#X floatatom 332 53 5 0 0 0 - - -;
#X obj 332 135 pack f f;
#X floatatom 385 116 5 0 0 0 - - -;
#X obj 332 157 line~;
#X obj 331 235 +~;
#X obj 621 137 r \$0-balance-send;
#X obj 332 32 r \$0-freq2;
#X obj 78 490 +~;
#X floatatom 621 159 5 0 0 0 - - -;
#X obj 621 178 t b f;
#X obj 98 343 swap 1;
#X obj 98 365 -;
#X obj 336 361 spigot;
#X msg 716 208 1;
#X obj 98 320 spigot;
#X obj 603 80 sel 4;
#X obj 42 233 noise~;
#X obj 80 283 vcf~;
#X floatatom 121 258 5 0 0 0 - - -;
#X obj 280 234 noise~;
#X obj 318 278 vcf~;
#X floatatom 362 259 5 0 0 0 - - -;
#X obj 603 104 t b b;
#X obj 146 93 r \$0-glide;
#X obj 385 94 r \$0-glide;
#X obj 121 236 r \$0-nf;
#X obj 362 237 r \$0-nf;
#X obj 349 212 r~ \$0-fm;
#X obj 110 211 r~ \$0-fm;
#X obj 239 484 *~ 1;
#X obj 208 419 tgl 15 0 empty empty empty 17 7 0 10 -262144 -1 -1 0
1;
#X obj 208 389 r 2mfreqadd;
#X obj 177 484 dj-eq;
#X obj 189 430 r M2;
#X obj 251 430 r H2;
#X obj 127 428 r L2;
#X obj 83 607 outlet~;
#X obj 253 607 s~ wave0;
#X obj 83 566 *~;
#X obj 137 566 r pase2;
#X connect 0 0 32 0;
#X connect 1 0 3 0;
#X connect 2 0 0 0;
#X connect 3 0 13 0;
#X connect 4 0 24 0;
#X connect 5 0 49 0;
#X connect 6 0 29 0;
#X connect 6 0 31 0;
#X connect 7 0 9 0;
#X connect 7 0 11 0;
#X connect 7 0 29 1;
#X connect 7 0 31 1;
#X connect 8 0 7 0;
#X connect 9 0 10 0;
#X connect 10 0 5 1;
#X connect 11 0 12 0;
#X connect 12 0 4 1;
#X connect 13 0 15 0;
#X connect 14 0 13 1;
#X connect 15 0 16 0;
#X connect 16 0 34 1;
#X connect 17 0 18 0;
#X connect 18 0 20 0;
#X connect 19 0 18 1;
#X connect 20 0 21 0;
#X connect 21 0 37 1;
#X connect 22 0 25 0;
#X connect 23 0 17 0;
#X connect 24 0 55 0;
#X connect 25 0 26 0;
#X connect 26 0 6 0;
#X connect 26 1 6 1;
#X connect 27 0 28 0;
#X connect 27 1 28 1;
#X connect 28 0 11 0;
#X connect 29 0 9 0;
#X connect 30 0 29 1;
#X connect 30 0 31 1;
#X connect 31 0 27 0;
#X connect 32 0 39 0;
#X connect 32 1 8 0;
#X connect 33 0 34 0;
#X connect 34 0 4 0;
#X connect 35 0 34 2;
#X connect 36 0 37 0;
#X connect 37 0 5 0;
#X connect 38 0 37 2;
#X connect 39 0 6 0;
#X connect 39 1 30 0;
#X connect 40 0 14 0;
#X connect 41 0 19 0;
#X connect 42 0 35 0;
#X connect 43 0 38 0;
#X connect 44 0 21 1;
#X connect 45 0 16 1;
#X connect 46 0 49 0;
#X connect 47 0 46 1;
#X connect 48 0 47 0;
#X connect 49 0 24 1;
#X connect 50 0 49 2;
#X connect 51 0 49 3;
#X connect 52 0 49 1;
#X connect 55 0 54 0;
#X connect 55 0 53 0;
#X connect 56 0 55 1;
#X restore 436 37 pd noise;
#X obj 86 365 s~ \$0-sig;
#X obj -1 315 s~ soundwaves;
#X obj 401 212 r BBsynthC;
#X obj 208 239 inlet;
#X connect 0 0 1 0;
#X connect 1 0 13 0;
#X connect 1 0 14 0;
#X connect 1 0 3 0;
#X connect 2 0 7 0;
#X connect 4 0 3 0;
#X connect 5 0 4 0;
#X connect 6 0 5 0;
#X connect 7 0 1 1;
#X connect 8 0 9 0;
#X connect 9 0 7 1;
#X connect 10 0 11 0;
#X connect 11 0 9 1;
#X connect 12 0 11 1;
#X connect 15 0 3 0;
#X connect 16 0 5 0;
#X restore -98 385 pd multi_oscillator;
#X obj 105 164 vradio 30 1 0 5 \$0-wave-send \$0-wave-recv empty 2
-8 0 10 -260097 -1 -45076 0;
#X obj 180 99 cnv 15 102 63 empty empty empty 20 12 0 14 -260097 -66577
0;
#N canvas 0 50 450 250 (subpatch) 0;
#X array \$0-waveform 100 float 4;
#X coords 0 1.2 99 -1.2 102 64 2 0 0;
#X restore 180 99 graph;
#X obj 1195 -148 vsl 22 86 0 15000 0 0 \$0-freq1 empty Frq1 0 6 0 9
-260097 -1 -1 0 1;
#X obj -177 195 inlet~ fm1;
#X obj -179 313 outlet~ sig;
#X obj 107 99 hsl 70 32 0 1000 0 0 \$0-glide \$0-glide-recv Glide 6
12 1 10 -1 -260097 -260097 0 1;
#X obj -177 270 r~ \$0-sig;
#X obj -176 230 s~ \$0-fm;
#X obj 107 131 hsl 70 32 0 1 0 0 \$0-balance-send \$0-balance-recv
Balance 6 12 1 10 -1 -260097 -260097 0 1;
#X msg -631 213 0.5;
#X obj 1259 33 bng 15 250 50 0 empty empty = 4 7 0 11 -260097 -1 -1
;
#X obj -241 548 * 1;
#X msg -241 516 1;
#X obj 560 382 spigot-toggle_bleu;
#X obj 1259 65 tgl 17 0 empty empty % 3 8 1 11 -260097 -1 -1 0 1;
#X obj 1243 -29 vsl 15 108 0.001 50 0 0 empty empty % 2 102 1 12 -260097
-1 -1 0 1;
#X msg 503 285 1, f 1;
#X obj 515 334 t b f;
#X obj 518 376 * 1;
#X obj 1195 -58 tgl 22 0 empty empty ø 5 10 1 16 -260097 -1 -1 0 1
;
#X obj 1259 49 bng 15 250 50 0 empty empty x1 5 7 1 7 -260097 -1 -1
;
#X obj -331 179 *~;
#X obj -322 290 *~;
#X msg -317 86 1;
#X obj 135 231 tgl 22 0 empty empty FREE 1 11 1 8 -1 -260097 -260097
0 1;
#X obj -631 184 r lo;
#X obj -324 250 *~;
#X obj -354 803 cnv 12 82 23 empty empty T_______F 5 12 1 12 -1 -260097
0;
#X msg -447 -24 1;
#X obj 1220 -31 tgl 22 0 empty empty phs 2 10 1 12 -260097 -1 -1 0
1;
#X obj 181 187 tgl 22 0 empty empty B 7 10 1 10 -1 -260097 -260097
0 1;
#X obj 181 164 tgl 22 0 empty empty A 7 10 1 10 -1 -260097 -260097
0 1;
#X obj 181 232 tgl 22 0 empty empty b' 7 9 1 10 -1 -260097 -260097
0 1;
#X obj 181 210 tgl 22 0 empty empty a' 7 9 0 10 -1 -260097 -260097
0 1;
#X obj -356 663 cnv 12 22 23 empty empty empty 2 4 1 11 -260097 -1
0;
#X floatatom -284 474 2 0 0 0 - - -;
#X obj 179 277 cnv 12 102 23 empty empty __FREQ__ 19 18 1 12 -1 -260097
0;
#X obj 1259 -15 tgl 15 0 empty empty B 4 7 1 10 -260097 -1 -1 0 1;
#X obj 1259 1 tgl 15 0 empty empty a' 4 7 1 10 -260097 -1 -1 0 1;
#X obj 1259 17 tgl 15 0 empty empty b' 4 7 1 10 -260097 -1 -1 0 1;
#X obj 1088 545 spigot-toggle_orange;
#X obj 1088 521 spigot-toggle_vert;
#X obj 1088 497 spigot-toggle_red;
#X obj 1088 567 spigot-toggle_orange;
#X obj 179 305 tgl 22 0 empty empty B 7 10 1 10 -1 -260097 -260097
0 1;
#X obj 180 282 tgl 22 0 empty empty A 7 10 1 10 -1 -260097 -260097
0 1;
#X obj 179 351 tgl 22 0 empty empty b' 7 9 1 10 -1 -260097 -260097
0 1;
#X obj 179 328 tgl 22 0 empty empty a' 7 9 0 10 -1 -260097 -260097
0 1;
#X obj 264 304 tgl 22 0 empty empty B 7 10 1 10 -1 -260097 -260097
0 1;
#X obj 264 281 tgl 22 0 empty empty A 7 10 1 10 -1 -260097 -260097
0 1;
#X obj 264 350 tgl 22 0 empty empty b' 7 9 1 10 -1 -260097 -260097
0 1;
#X obj 264 327 tgl 22 0 empty empty a' 7 9 0 10 -1 -260097 -260097
0 1;
#X obj 369 116 tgl 15 0 empty empty B 4 8 1 10 -260097 -1 -1 0 1;
#X obj 369 132 tgl 15 0 empty empty a' 4 8 1 10 -260097 -1 -1 0 1;
#X obj 369 148 tgl 15 0 empty empty b' 4 8 1 10 -260097 -1 -1 0 1;
#X obj 105 22 cnv 15 280 77 empty empty empty 20 12 0 14 -1 -66577
0;
#X obj 150 25 tgl 20 0 empty empty B 5 10 1 10 -1 -260097 -260097 0
1;
#X obj 120 23 tgl 20 0 empty empty A 5 10 1 10 -1 -260097 -260097 0
1;
#X obj 212 25 tgl 20 0 empty empty b' 5 9 1 10 -1 -260097 -260097 0
1;
#X obj 181 25 tgl 20 0 empty empty a' 5 9 0 10 -1 -260097 -260097 0
1;
#X obj 293 25 tgl 20 0 empty empty B 5 10 1 10 -1 -260097 -260097 0
1;
#X obj 262 25 tgl 20 0 empty empty A 5 10 1 10 -1 -260097 -260097 0
1;
#X obj 355 25 tgl 20 0 empty empty b' 5 9 1 10 -1 -260097 -260097 0
1;
#X obj 324 25 tgl 20 0 empty empty a' 5 9 0 10 -1 -260097 -260097 0
1;
#X obj 113 45 hsl 130 15 0 1 0 0 empty empty cut 12 8 0 10 -260097
-1 -1 0 1;
#X obj 249 45 hsl 130 15 0 1 0 0 empty empty empty -2 8 0 10 -260097
-1 -1 0 1;
#X obj 151 60 tgl 20 0 empty empty B 5 10 1 10 -1 -260097 -260097 0
1;
#X obj 120 61 tgl 20 0 empty empty A 5 10 1 10 -1 -260097 -260097 0
1;
#X obj 213 60 tgl 20 0 empty empty b' 5 9 1 10 -1 -260097 -260097 0
1;
#X obj 182 60 tgl 20 0 empty empty a' 5 9 0 10 -1 -260097 -260097 0
1;
#X obj 293 60 tgl 20 0 empty empty B 5 10 1 10 -1 -260097 -260097 0
1;
#X obj 262 60 tgl 20 0 empty empty A 5 10 1 10 -1 -260097 -260097 0
1;
#X obj 355 60 tgl 20 0 empty empty b' 5 9 1 10 -1 -260097 -260097 0
1;
#X obj 324 60 tgl 20 0 empty empty a' 5 9 0 10 -1 -260097 -260097 0
1;
#X obj 249 79 hsl 130 15 0 1 0 0 empty empty empty 45 11 1 20 -260097
-1 -1 0 1;
#X obj 113 79 hsl 130 15 0 1 0 0 empty empty fade 12 8 0 10 -260097
-1 -1 0 1;
#X obj 263 -196 cnv 5 381 5 empty empty empty 20 12 0 14 -1 -66577
0;
#X obj 201 163 cnv 12 63 22 empty empty __TIME__ 2 18 1 12 -1 -260097
0;
#X obj 263 255 tgl 22 0 empty empty ʌ 5 10 1 30 -260097 -1 -1 0 1
;
#X obj 180 254 tgl 22 0 empty empty v 5 10 1 30 -260097 -1 -1 0 1;
#X obj -363 912 cnv 12 25 23 empty empty empty 5 12 1 12 -1 -260097
0;
#X obj 424 378 + 1;
#X obj 1302 -30 vsl 12 108 0 1.25 0 0 empty empty 2 3 6 1 11 -260097
-1 -1 0 1;
#X msg 359 -89 0.75;
#X obj 1089 592 * 50;
#X obj 158 185 tgl 22 0 empty empty B 7 10 1 10 -260097 -1 -1 0 1;
#X obj 158 164 tgl 22 0 empty empty A 7 10 1 10 -260097 -1 -1 0 1;
#X obj 158 231 tgl 22 0 empty empty b' 7 9 1 10 -260097 -1 -1 0 1;
#X obj 158 208 tgl 22 0 empty empty a' 7 9 0 10 -260097 -1 -1 0 1;
#X obj 135 185 tgl 22 0 empty empty Bø 6 10 1 10 -260097 -1 -1 0 1
;
#X obj 135 163 tgl 22 0 empty empty Aø 4 10 1 10 -260097 -1 -1 0 1
;
#X obj 262 186 tgl 22 0 empty empty B 7 10 1 10 -1 -260097 -260097
0 1;
#X obj 262 163 tgl 22 0 empty empty A 7 10 1 10 -1 -260097 -260097
0 1;
#X obj 262 232 tgl 22 0 empty empty b' 7 9 1 10 -1 -260097 -260097
0 1;
#X obj 262 209 tgl 22 0 empty empty a' 7 9 0 10 -1 -260097 -260097
0 1;
#X obj 622 544 spigot-toggle_orange;
#X obj 622 520 spigot-toggle_vert;
#X obj 622 496 spigot-toggle_red;
#X obj 622 566 spigot-toggle_orange;
#X floatatom 561 623 0 0 0 2 phase1 - -;
#X obj 1218 -104 tgl 22 0 empty empty B 7 10 1 10 -260097 -1 -1 0 1
;
#X obj 1218 -127 tgl 22 0 empty empty A 7 10 1 10 -260097 -1 -1 0 1
;
#X obj 1218 -58 tgl 22 0 empty empty b' 7 9 1 10 -260097 -1 -1 0 1
;
#X obj 1218 -81 tgl 22 0 empty empty a' 7 9 0 10 -260097 -1 -1 0 1
;
#X obj 617 589 * 1;
#X obj 1218 -150 tgl 22 0 empty empty phs 2 10 1 12 -260097 -1 -1 0
1;
#X obj 1293 -29 vsl 8 108 0 1.25 0 0 empty empty empty 3 6 1 11 -260097
-1 -1 0 1;
#X obj 1284 -29 vsl 8 108 0 1.25 0 0 empty empty empty 3 6 1 11 -260097
-1 -1 0 1;
#X obj 1275 -29 vsl 8 108 0 1.25 0 0 empty empty empty 3 6 1 11 -260097
-1 -1 0 1;
#X obj 1197 -29 vsl 22 86 0 15000 0 0 \$0-freq1 empty Frq2 0 6 0 9
-260097 -1 -1 0 1;
#X obj 1197 61 tgl 22 0 empty empty ø 5 10 1 16 -260097 -1 -1 0 1
;
#X obj -131 474 s 2mfreqadd;
#X obj 423 408 s L2;
#X obj 472 408 s M2;
#X obj 523 408 s H2;
#X obj 652 662 s pase2;
#X floatatom -150 1060 0 0 0 0 - - -;
#X obj -150 1025 *;
#X obj -157 985 t b f;
#X floatatom 179 1060 0 0 0 0 - - -;
#X obj 176 985 t b f;
#X obj 178 1025 *;
#X obj -55 1024 bng 22 250 50 0 empty empty empty 17 7 0 10 -262144
-1 -1;
#X obj -34 1399 delay;
#X obj -29 1458 pack f f;
#X obj -265 1383 pack f f;
#X obj 122 1025 * 1;
#X obj 110 985 t b f;
#X obj -179 1793 dac~;
#X obj -267 1323 delay;
#X floatatom -240 1060 0 0 0 0 - - -;
#X obj -240 1025 *;
#X obj -247 985 t b f;
#X msg 1122 1410 1, f 2;
#X obj 1065 1456 /;
#X floatatom 1065 1524 0 0 0 0 F - -;
#X floatatom 11 915 0 0 0 1 - - -;
#X floatatom 1155 1526 0 0 0 0 T - -;
#X obj 1156 1458 /;
#X obj 1155 1490 * 1000;
#X obj 1156 1560 spigot-toggle_vert;
#X obj 179 913 - 1;
#X obj 179 941 * -1;
#X floatatom 122 1060 0 0 0 0 - - -;
#X obj -43 1266 bng 15 250 50 0 empty empty empty 17 7 0 10 -262144
-1 -1;
#X obj 1065 1488 * 1000;
#X obj -54 983 metro 44;
#X obj 1146 1921 spigot-toggle_orange;
#X obj 1146 1897 spigot-toggle_vert;
#X obj 1146 1873 spigot-toggle_red;
#X obj 1146 1966 * 1;
#X obj 1106 1921 spigot-toggle_orange;
#X obj 1106 1897 spigot-toggle_vert;
#X obj 1105 1873 spigot-toggle_red;
#X obj 1106 1966 * 1;
#X obj 987 1423 t b f;
#X floatatom -286 1571 0 0 0 0 - - -;
#X obj 989 1458 * 1;
#X obj 977 1537 t b f;
#X obj 979 1569 * 1;
#X obj -77 1851 r lo;
#X obj 1065 1559 spigot-toggle_vert;
#X obj -143 1699 dj-eq;
#X obj 190 1536 r T$;
#X obj 171 1541 spigot-toggle_red;
#X obj 171 1570 spigot-toggle_red;
#X obj 190 1567 r T1;
#X obj 1190 1921 spigot-toggle_orange;
#X obj 1190 1897 spigot-toggle_vert;
#X obj 1190 1873 spigot-toggle_red;
#X obj 1186 1966 * 1;
#X obj 1231 1921 spigot-toggle_orange;
#X obj 1231 1897 spigot-toggle_vert;
#X obj 1231 1873 spigot-toggle_red;
#X obj 1228 1966 * 1;
#X obj -310 1550 spigot-toggle_red;
#X obj 1190 1943 spigot-toggle_orange;
#X obj 1146 1943 spigot-toggle_orange;
#X obj 1231 1943 spigot-toggle_orange;
#X obj 1107 1943 spigot-toggle_orange;
#X obj 484 1289 r lo;
#X obj 961 1921 spigot-toggle_orange;
#X obj 961 1897 spigot-toggle_vert;
#X obj 961 1873 spigot-toggle_red;
#X obj 1009 1921 spigot-toggle_orange;
#X obj 1009 1897 spigot-toggle_vert;
#X obj 1009 1873 spigot-toggle_red;
#X obj 880 1921 spigot-toggle_orange;
#X obj 880 1897 spigot-toggle_vert;
#X obj 880 1873 spigot-toggle_red;
#X obj 877 1966 * 1;
#X obj 1009 1943 spigot-toggle_orange;
#X obj 961 1943 spigot-toggle_orange;
#X obj 733 1922 r fll1;
#X obj 731 1896 r fll0;
#X obj 881 1943 spigot-toggle_orange;
#X obj 841 1921 spigot-toggle_orange;
#X obj 841 1897 spigot-toggle_vert;
#X obj 841 1873 spigot-toggle_red;
#X obj 841 1943 spigot-toggle_orange;
#X obj 1055 1921 spigot-toggle_orange;
#X obj 1056 1897 spigot-toggle_vert;
#X obj 1056 1874 spigot-toggle_red;
#X obj 1056 1966 * 1;
#X obj 1055 1943 spigot-toggle_orange;
#X obj 317 1584 tgl 22 0 empty empty AUTO 1 11 1 8 -1 -260097 -260097
0 1;
#X obj -132 1741 s~ C;
#X msg -31 1429 0;
#X obj -132 1504 vline~;
#X obj -148 1591 vfreeverb~;
#X obj 468 1476 hsl 80 15 0 1 0 1 empty empty roomsize' 3 8 0 10 -260097
-1 -1 0 0;
#X obj 468 1492 hsl 80 15 0 2 0 1 empty empty damp 3 8 0 10 -1 -260097
-260097 4500 0;
#X obj 468 1508 hsl 80 15 0 1 0 1 empty empty wet 3 8 0 10 -1 -260097
-260097 0 0;
#X obj 468 1524 hsl 80 15 0 1 0 1 empty empty dry 3 8 0 10 -1 -260097
-260097 7600 0;
#X msg 479 1318 0;
#X obj 422 1701 cnv 15 62 165 empty empty empty 20 12 1 12 -262144
-228856 0;
#X floatatom 384 1607 6 0 0 0 - - -;
#X floatatom 384 1584 3 0 0 1 xt - -;
#X floatatom 384 1561 6 0 0 2 - - -;
#X floatatom 383 1724 6 0 0 0 - - -;
#X floatatom 383 1701 3 0 0 1 xf - -;
#X floatatom 383 1677 6 0 0 2 - - -;
#X obj 731 1871 r B;
#X obj 1145 2000 - 1;
#X obj 1144 2031 * -1;
#X obj 1227 2000 - 1;
#X obj 1225 2031 * -1;
#X floatatom 835 2008 0 0 0 2 phase2 - -;
#X obj 920 1921 spigot-toggle_orange;
#X obj 920 1897 spigot-toggle_vert;
#X obj 920 1873 spigot-toggle_red;
#X obj 921 1971 * 1;
#X obj 921 1943 spigot-toggle_orange;
#X obj 551 1476 tgl 15 0 empty empty A 4 8 1 10 -260097 -1 -1 0 1;
#X msg -20 1850 1, f 2;
#X obj 836 1966 * 1;
#X obj -391 1542 r trgrA;
#X obj 966 1966 * 1;
#X obj 1009 1966 * 1;
#X obj 730 1847 r A;
#X obj -42 1242 bng 15 250 50 0 empty empty empty 17 7 0 10 -262144
-1 -1;
#X obj -309 1574 spigot-toggle_red;
#X obj -391 1569 r trgrB;
#X obj -310 1207 spigot-toggle_red;
#X obj -310 1231 spigot-toggle_red;
#X obj -490 1229 r bonkAouBtoenvB;
#X obj -487 1197 r bonkAouBtoenvA;
#X msg 12 1851 20, f 2;
#X obj -147 2131 s~ D;
#X obj -42 2075 * -2;
#X obj -91 2074 + 1;
#X obj -264 1423 s envinC;
#X obj 252 1413 tgl 15 0 empty empty empty 17 7 0 10 -262144 -1 -1
0 1;
#X obj 287 1540 vradio 30 1 0 5 \$0-wave-send \$0-wave-recv empty 2
-8 0 10 -260097 -1 -45076 0;
#X obj 362 1475 cnv 15 102 63 empty empty empty 20 12 0 14 -260097
-66577 0;
#N canvas 0 50 450 250 (subpatch) 0;
#X array \$0-waveform 100 float 4;
#X coords 0 1.2 99 -1.2 102 64 2 0 0;
#X restore 362 1475 graph;
#X obj 289 1475 hsl 70 32 0 1000 0 0 \$0-glide \$0-glide-recv Glide
6 12 1 10 -1 -260097 -260097 0 1;
#X obj 289 1507 hsl 70 32 0 1 0 0 \$0-balance-send \$0-balance-recv
Balance 6 12 1 10 -1 -260097 -260097 0 1;
#X msg -449 1589 0.5;
#X obj -59 1924 * 1;
#X msg -59 1892 1;
#X obj 742 1758 spigot-toggle_bleu;
#X msg 685 1661 1, f 1;
#X obj 697 1710 t b f;
#X obj 700 1752 * 1;
#X obj -149 1555 *~;
#X obj -140 1666 *~;
#X msg -135 1462 1;
#X obj 317 1607 tgl 22 0 empty empty FREE 1 11 1 8 -1 -260097 -260097
0 1;
#X obj -449 1560 r lo;
#X obj -142 1626 *~;
#X msg -265 1352 1;
#X obj 363 1563 tgl 22 0 empty empty B 7 10 1 10 -1 -260097 -260097
0 1;
#X obj 363 1540 tgl 22 0 empty empty A 7 10 1 10 -1 -260097 -260097
0 1;
#X obj 363 1608 tgl 22 0 empty empty b' 7 9 1 10 -1 -260097 -260097
0 1;
#X obj 363 1586 tgl 22 0 empty empty a' 7 9 0 10 -1 -260097 -260097
0 1;
#X obj -174 2039 cnv 12 22 23 empty empty empty 2 4 1 11 -260097 -1
0;
#X floatatom -102 1850 2 0 0 0 - - -;
#X obj 361 1653 cnv 12 102 23 empty empty __FREQ__ 19 18 1 12 -1 -260097
0;
#X obj 361 1681 tgl 22 0 empty empty B 7 10 1 10 -1 -260097 -260097
0 1;
#X obj 362 1658 tgl 22 0 empty empty A 7 10 1 10 -1 -260097 -260097
0 1;
#X obj 361 1727 tgl 22 0 empty empty b' 7 9 1 10 -1 -260097 -260097
0 1;
#X obj 361 1704 tgl 22 0 empty empty a' 7 9 0 10 -1 -260097 -260097
0 1;
#X obj 446 1680 tgl 22 0 empty empty B 7 10 1 10 -1 -260097 -260097
0 1;
#X obj 446 1657 tgl 22 0 empty empty A 7 10 1 10 -1 -260097 -260097
0 1;
#X obj 446 1726 tgl 22 0 empty empty b' 7 9 1 10 -1 -260097 -260097
0 1;
#X obj 446 1703 tgl 22 0 empty empty a' 7 9 0 10 -1 -260097 -260097
0 1;
#X obj 551 1492 tgl 15 0 empty empty B 4 8 1 10 -260097 -1 -1 0 1;
#X obj 551 1508 tgl 15 0 empty empty a' 4 8 1 10 -260097 -1 -1 0 1
;
#X obj 551 1524 tgl 15 0 empty empty b' 4 8 1 10 -260097 -1 -1 0 1
;
#X obj 287 1398 cnv 15 280 77 empty empty empty 20 12 0 14 -1 -66577
0;
#X obj 332 1401 tgl 20 0 empty empty B 5 10 1 10 -1 -260097 -260097
0 1;
#X obj 302 1399 tgl 20 0 empty empty A 5 10 1 10 -1 -260097 -260097
0 1;
#X obj 394 1401 tgl 20 0 empty empty b' 5 9 1 10 -1 -260097 -260097
0 1;
#X obj 363 1401 tgl 20 0 empty empty a' 5 9 0 10 -1 -260097 -260097
0 1;
#X obj 475 1401 tgl 20 0 empty empty B 5 10 1 10 -1 -260097 -260097
0 1;
#X obj 444 1401 tgl 20 0 empty empty A 5 10 1 10 -1 -260097 -260097
0 1;
#X obj 537 1401 tgl 20 0 empty empty b' 5 9 1 10 -1 -260097 -260097
0 1;
#X obj 506 1401 tgl 20 0 empty empty a' 5 9 0 10 -1 -260097 -260097
0 1;
#X obj 295 1421 hsl 130 15 0 1 0 0 empty empty cut 12 8 0 10 -260097
-1 -1 0 1;
#X obj 431 1421 hsl 130 15 0 1 0 0 empty empty empty -2 8 0 10 -260097
-1 -1 0 1;
#X obj 333 1436 tgl 20 0 empty empty B 5 10 1 10 -1 -260097 -260097
0 1;
#X obj 302 1437 tgl 20 0 empty empty A 5 10 1 10 -1 -260097 -260097
0 1;
#X obj 395 1436 tgl 20 0 empty empty b' 5 9 1 10 -1 -260097 -260097
0 1;
#X obj 364 1436 tgl 20 0 empty empty a' 5 9 0 10 -1 -260097 -260097
0 1;
#X obj 475 1436 tgl 20 0 empty empty B 5 10 1 10 -1 -260097 -260097
0 1;
#X obj 444 1436 tgl 20 0 empty empty A 5 10 1 10 -1 -260097 -260097
0 1;
#X obj 537 1436 tgl 20 0 empty empty b' 5 9 1 10 -1 -260097 -260097
0 1;
#X obj 506 1436 tgl 20 0 empty empty a' 5 9 0 10 -1 -260097 -260097
0 1;
#X obj 431 1455 hsl 130 15 0 1 0 0 empty empty empty 45 11 1 20 -260097
-1 -1 0 1;
#X obj 295 1455 hsl 130 15 0 1 0 0 empty empty fade 12 8 0 10 -260097
-1 -1 0 1;
#X obj -527 787 cnv 5 381 5 empty empty empty 20 12 0 14 -1 -66577
0;
#X obj 383 1539 cnv 12 63 22 empty empty __TIME__ 2 18 1 12 -1 -260097
0;
#X obj 445 1631 tgl 22 0 empty empty ʌ 5 10 1 30 -260097 -1 -1 0 1
;
#X obj 362 1630 tgl 22 0 empty empty v 5 10 1 30 -260097 -1 -1 0 1
;
#X obj 606 1754 + 1;
#X msg 541 1287 0.75;
#X obj 340 1561 tgl 22 0 empty empty B 7 10 1 10 -260097 -1 -1 0 1
;
#X obj 340 1540 tgl 22 0 empty empty A 7 10 1 10 -260097 -1 -1 0 1
;
#X obj 340 1607 tgl 22 0 empty empty b' 7 9 1 10 -260097 -1 -1 0 1
;
#X obj 340 1584 tgl 22 0 empty empty a' 7 9 0 10 -260097 -1 -1 0 1
;
#X obj 317 1561 tgl 22 0 empty empty Bø 6 10 1 10 -260097 -1 -1 0
1;
#X obj 317 1539 tgl 22 0 empty empty Aø 4 10 1 10 -260097 -1 -1 0
1;
#X obj 444 1562 tgl 22 0 empty empty B 7 10 1 10 -1 -260097 -260097
0 1;
#X obj 444 1539 tgl 22 0 empty empty A 7 10 1 10 -1 -260097 -260097
0 1;
#X obj 444 1608 tgl 22 0 empty empty b' 7 9 1 10 -1 -260097 -260097
0 1;
#X obj 444 1585 tgl 22 0 empty empty a' 7 9 0 10 -1 -260097 -260097
0 1;
#X obj 804 1920 spigot-toggle_orange;
#X obj 804 1896 spigot-toggle_vert;
#X obj 804 1872 spigot-toggle_red;
#X obj 804 1942 spigot-toggle_orange;
#X floatatom 743 1999 0 0 0 2 phase1 - -;
#X obj 799 1965 * 1;
#X obj -30 1499 s envoutD;
#X obj -29 1023 s BBsynthD;
#X obj 51 1850 s 2mfreqaddB;
#X obj 5 1646 r~ \$0-sigB;
#X obj 3 1689 outlet~ sigB;
#X obj 6 1605 s~ \$0-fmB;
#X obj 5 1571 inlet~ fm1B;
#X obj 834 2038 s pase2B;
#X obj 605 1784 s L2B;
#X obj 654 1784 s M2B;
#X obj 705 1784 s H2B;
#X obj 1023 1616 s timeD;
#X obj 1100 1616 s freqD;
#N canvas 697 132 500 413 multi_oscillator 1;
#N canvas 158 237 1116 633 sine 0;
#X floatatom 603 58 5 0 0 0 - - -;
#X obj 603 80 sel 0;
#X obj 79 269 osc~;
#X obj 81 32 r \$0-freq1;
#X floatatom 81 54 5 0 0 0 - - -;
#X obj 318 276 osc~;
#X obj 79 418 *~;
#X obj 332 437 *~;
#X obj 510 190 f;
#X msg 945 214 0;
#X obj 945 192 t b;
#X obj 362 360 pack f 50;
#X obj 358 395 line~;
#X obj 98 371 pack f 50;
#X obj 122 400 line~;
#X obj 81 135 pack f f;
#X floatatom 142 100 5 0 0 0 - - -;
#X obj 81 157 line~;
#X obj 80 235 +~;
#X floatatom 320 54 5 0 0 0 - - -;
#X obj 320 136 pack f f;
#X floatatom 373 117 5 0 0 0 - - -;
#X obj 320 158 line~;
#X obj 319 236 +~;
#X obj 621 137 r \$0-balance-send;
#X obj 322 23 r \$0-freq2;
#X obj 81 535 +~;
#X obj 83 607 outlet~;
#X floatatom 621 159 5 0 0 0 - - -;
#X obj 621 178 t b f;
#X obj 141 308 swap 1;
#X obj 141 336 -;
#X obj 603 104 t b b b;
#X obj 363 329 spigot;
#X msg 716 208 1;
#X obj 141 285 spigot;
#X msg 794 209 0;
#X obj 794 184 r \$0-reset-send;
#X obj 142 78 r \$0-glide;
#X obj 373 95 r \$0-glide;
#X obj 110 206 r~ \$0-fm;
#X obj 345 201 r~ \$0-fm;
#X obj 253 607 s~ wave0;
#X obj 603 36 r \$0-wave-send;
#X obj 162 501 *~ 1;
#X obj 205 439 tgl 15 0 empty empty empty 17 7 0 10 -262144 -1 -1 0
1;
#X obj 205 409 r 2mfreqadd;
#X obj 105 503 dj-eq;
#X obj 116 458 r M2;
#X obj 178 458 r H2;
#X obj 54 456 r L2;
#X obj 83 566 *~;
#X obj 137 566 r pase2;
#X connect 0 0 1 0;
#X connect 1 0 32 0;
#X connect 1 1 10 0;
#X connect 2 0 6 0;
#X connect 3 0 4 0;
#X connect 4 0 15 0;
#X connect 5 0 7 0;
#X connect 6 0 26 0;
#X connect 7 0 44 0;
#X connect 8 0 33 0;
#X connect 8 0 35 0;
#X connect 9 0 11 0;
#X connect 9 0 33 1;
#X connect 9 0 35 1;
#X connect 9 0 13 0;
#X connect 10 0 9 0;
#X connect 11 0 12 0;
#X connect 12 0 7 1;
#X connect 13 0 14 0;
#X connect 14 0 6 1;
#X connect 15 0 17 0;
#X connect 16 0 15 1;
#X connect 17 0 18 0;
#X connect 18 0 2 0;
#X connect 19 0 20 0;
#X connect 20 0 22 0;
#X connect 21 0 20 1;
#X connect 22 0 23 0;
#X connect 23 0 5 0;
#X connect 24 0 28 0;
#X connect 25 0 19 0;
#X connect 26 0 51 0;
#X connect 28 0 29 0;
#X connect 29 0 8 0;
#X connect 29 1 8 1;
#X connect 30 0 31 0;
#X connect 30 1 31 1;
#X connect 31 0 13 0;
#X connect 32 0 8 0;
#X connect 32 1 34 0;
#X connect 32 2 36 0;
#X connect 33 0 11 0;
#X connect 34 0 33 1;
#X connect 34 0 35 1;
#X connect 35 0 30 0;
#X connect 36 0 5 1;
#X connect 36 0 2 1;
#X connect 37 0 36 0;
#X connect 38 0 16 0;
#X connect 39 0 21 0;
#X connect 40 0 18 1;
#X connect 41 0 23 1;
#X connect 43 0 0 0;
#X connect 44 0 47 0;
#X connect 45 0 44 1;
#X connect 46 0 45 0;
#X connect 47 0 26 1;
#X connect 48 0 47 2;
#X connect 49 0 47 3;
#X connect 50 0 47 1;
#X connect 51 0 42 0;
#X connect 51 0 27 0;
#X connect 52 0 51 1;
#X restore 70 37 pd sine;
#X obj 85 118 +~;
#N canvas 537 124 1116 554 triangle 0;
#X floatatom 603 58 5 0 0 0 - - -;
#X obj 81 32 r \$0-freq1;
#X obj 603 36 r \$0-wave-send;
#X floatatom 81 80 5 0 0 0 - - -;
#X obj 79 434 *~;
#X obj 319 434 *~;
#X obj 601 218 f;
#X msg 789 136 0;
#X obj 98 344 swap 1;
#X obj 98 366 -;
#X msg 984 134 0;
#X obj 984 112 t b;
#X obj 342 375 pack f 50;
#X obj 341 402 line~;
#X obj 98 387 pack f 50;
#X obj 98 409 line~;
#X obj 81 135 pack f f;
#X floatatom 134 116 5 0 0 0 - - -;
#X obj 81 157 line~;
#X obj 80 235 +~;
#X floatatom 320 55 5 0 0 0 - - -;
#X obj 320 136 pack f f;
#X floatatom 401 99 5 0 0 0 - - -;
#X obj 320 158 line~;
#X obj 319 236 +~;
#X obj 621 135 r \$0-balance-send;
#X obj 320 33 r \$0-freq2;
#X obj 78 513 +~;
#X obj 603 80 sel 1;
#N canvas 406 87 501 366 make-triangle 0;
#X obj 52 20 inlet~;
#X obj 341 42 inlet phase;
#X obj 51 126 phasor~;
#X obj 295 125 phasor~;
#X obj 49 174 -~ 1;
#X obj 49 201 clip~ -1 0;
#X obj 50 148 *~ 2;
#X obj 295 147 *~ -2;
#X obj 294 170 +~ 1;
#X obj 294 195 clip~ -1 0;
#X obj 48 225 *~ 2;
#X obj 294 218 *~ 2;
#X obj 181 307 +~;
#X obj 181 329 outlet~;
#X obj 294 240 +~ 0.5;
#X obj 48 247 +~ 0.5;
#X connect 0 0 2 0;
#X connect 0 0 3 0;
#X connect 1 0 3 1;
#X connect 1 0 2 1;
#X connect 2 0 6 0;
#X connect 3 0 7 0;
#X connect 4 0 5 0;
#X connect 5 0 10 0;
#X connect 6 0 4 0;
#X connect 7 0 8 0;
#X connect 8 0 9 0;
#X connect 9 0 11 0;
#X connect 10 0 15 0;
#X connect 11 0 14 0;
#X connect 12 0 13 0;
#X connect 14 0 12 1;
#X connect 15 0 12 0;
#X restore 81 265 pd make-triangle;
#N canvas 270 393 444 366 make-triangle 0;
#X obj 52 20 inlet~;
#X obj 341 34 inlet phase;
#X obj 51 126 phasor~;
#X obj 295 125 phasor~;
#X obj 49 174 -~ 1;
#X obj 49 201 clip~ -1 0;
#X obj 50 148 *~ 2;
#X obj 295 147 *~ -2;
#X obj 294 170 +~ 1;
#X obj 294 195 clip~ -1 0;
#X obj 48 225 *~ 2;
#X obj 294 218 *~ 2;
#X obj 181 307 +~;
#X obj 181 329 outlet~;
#X obj 294 240 +~ 0.5;
#X obj 48 247 +~ 0.5;
#X connect 0 0 2 0;
#X connect 0 0 3 0;
#X connect 1 0 3 1;
#X connect 1 0 2 1;
#X connect 2 0 6 0;
#X connect 3 0 7 0;
#X connect 4 0 5 0;
#X connect 5 0 10 0;
#X connect 6 0 4 0;
#X connect 7 0 8 0;
#X connect 8 0 9 0;
#X connect 9 0 11 0;
#X connect 10 0 15 0;
#X connect 11 0 14 0;
#X connect 12 0 13 0;
#X connect 14 0 12 1;
#X connect 15 0 12 0;
#X restore 318 262 pd make-triangle;
#X obj 401 77 r \$0-glide;
#X obj 134 93 r \$0-glide;
#X floatatom 621 159 5 0 0 0 - - -;
#X obj 621 178 t b f;
#X obj 603 104 t b b b;
#X obj 98 322 spigot;
#X msg 912 134 1;
#X obj 343 346 spigot;
#X obj 789 108 r \$0-reset-send;
#X obj 111 201 r~ \$0-fm;
#X obj 338 209 r~ \$0-fm;
#X floatatom -320 403 5 0 0 0 - - -;
#X text -665 518 The binary signal operators can be configured to combine
two signals as above \, or \, if you give a numeric argument \, audio
signals are combined with scalars:;
#X obj 180 497 *~ 1;
#X obj 205 439 tgl 15 0 empty empty empty 17 7 0 10 -262144 -1 -1 0
1;
#X obj 205 409 r 2mfreqadd;
#X obj 123 499 dj-eq;
#X obj 116 458 r M2;
#X obj 178 458 r H2;
#X obj 54 456 r L2;
#X obj 83 607 outlet~;
#X obj 253 607 s~ wave0;
#X obj 83 566 *~;
#X obj 137 566 r pase2;
#X connect 0 0 28 0;
#X connect 1 0 3 0;
#X connect 2 0 0 0;
#X connect 3 0 16 0;
#X connect 4 0 27 0;
#X connect 5 0 47 0;
#X connect 6 0 38 0;
#X connect 6 0 36 0;
#X connect 7 0 29 1;
#X connect 7 0 30 1;
#X connect 8 0 9 0;
#X connect 8 1 9 1;
#X connect 9 0 14 0;
#X connect 10 0 12 0;
#X connect 10 0 36 1;
#X connect 10 0 38 1;
#X connect 10 0 14 0;
#X connect 11 0 10 0;
#X connect 12 0 13 0;
#X connect 13 0 5 1;
#X connect 14 0 15 0;
#X connect 15 0 4 1;
#X connect 16 0 18 0;
#X connect 17 0 16 1;
#X connect 18 0 19 0;
#X connect 19 0 29 0;
#X connect 20 0 21 0;
#X connect 21 0 23 0;
#X connect 22 0 21 1;
#X connect 23 0 24 0;
#X connect 24 0 30 0;
#X connect 25 0 33 0;
#X connect 26 0 20 0;
#X connect 27 0 53 0;
#X connect 28 0 35 0;
#X connect 28 1 11 0;
#X connect 29 0 4 0;
#X connect 30 0 5 0;
#X connect 31 0 22 0;
#X connect 32 0 17 0;
#X connect 33 0 34 0;
#X connect 34 0 6 0;
#X connect 34 1 6 1;
#X connect 35 0 6 0;
#X connect 35 1 7 0;
#X connect 35 2 37 0;
#X connect 36 0 8 0;
#X connect 37 0 38 1;
#X connect 37 0 36 1;
#X connect 38 0 12 0;
#X connect 39 0 7 0;
#X connect 40 0 19 1;
#X connect 41 0 24 1;
#X connect 42 0 27 1;
#X connect 44 0 47 0;
#X connect 45 0 44 1;
#X connect 46 0 45 0;
#X connect 47 0 27 1;
#X connect 48 0 47 2;
#X connect 49 0 47 3;
#X connect 50 0 47 1;
#X connect 53 0 52 0;
#X connect 53 0 51 0;
#X connect 54 0 53 1;
#X restore 150 37 pd triangle;
#X obj 133 310 metro 100;
#X obj 133 289 tgl 15 0 empty empty empty 17 7 0 10 -262144 -1 -1 1
1;
#X obj 133 259 loadbang;
#X obj 150 100 +~;
#N canvas 564 302 1116 726 pulse 0;
#X floatatom 603 58 5 0 0 0 - - -;
#X obj 81 32 r \$0-freq1;
#X obj 603 36 r \$0-wave-send;
#X floatatom 81 65 5 0 0 0 - - -;
#X obj 78 588 *~;
#X obj 339 589 *~;
#X obj 604 205 f;
#X msg 922 209 0;
#X obj 922 187 t b;
#X obj 355 537 pack f 50;
#X obj 356 564 line~;
#X obj 97 541 pack f 50;
#X obj 97 563 line~;
#X obj 81 135 pack f f;
#X floatatom 134 116 5 0 0 0 - - -;
#X obj 81 157 line~;
#X obj 80 235 +~;
#X floatatom 345 55 5 0 0 0 - - -;
#X obj 345 137 pack f f;
#X floatatom 398 118 5 0 0 0 - - -;
#X obj 345 159 line~;
#X obj 344 237 +~;
#X obj 621 137 r \$0-balance-send;
#X obj 345 34 r \$0-freq2;
#X obj 78 610 +~;
#X floatatom 621 159 5 0 0 0 - - -;
#X obj 621 178 t b f;
#X obj 97 497 swap 1;
#X obj 97 519 -;
#X obj 603 104 t b b b;
#X obj 356 508 spigot;
#X msg 716 208 1;
#X obj 97 474 spigot;
#X msg 794 209 0;
#X obj 603 80 sel 2;
#X obj 79 290 phasor~;
#X obj 342 289 phasor~;
#X obj 78 374 expr~ $v1 > $v2;
#X obj 190 313 pack f 50;
#X obj 190 335 line~;
#X floatatom 190 294 5 0 0 0 - - -;
#X obj 341 376 expr~ $v1 > $v2;
#X obj 456 309 pack f 50;
#X obj 456 331 line~;
#X floatatom 456 290 5 0 0 0 - - -;
#X obj 77 399 *~ 2;
#X obj 77 421 -~ 1;
#X obj 340 399 *~ 2;
#X obj 340 421 -~ 1;
#X obj 794 184 r \$0-reset-send;
#X obj 134 94 r \$0-glide;
#X obj 398 96 r \$0-glide;
#X obj 99 210 r~ \$0-fm;
#X obj 361 212 r~ \$0-fm;
#X obj 456 268 r \$0-pwm;
#X obj 190 272 r \$0-pwm;
#X obj 232 637 *~ 1;
#X obj 238 560 tgl 15 0 empty empty empty 17 7 0 10 -262144 -1 -1 0
1;
#X obj 238 530 r 2mfreqadd;
#X obj 175 639 dj-eq;
#X obj 214 587 r M2;
#X obj 276 587 r H2;
#X obj 152 585 r L2;
#X obj 80 715 outlet~;
#X obj 250 715 s~ wave0;
#X obj 80 674 *~;
#X obj 134 674 r pase2;
#X connect 0 0 34 0;
#X connect 1 0 3 0;
#X connect 2 0 0 0;
#X connect 3 0 13 0;
#X connect 4 0 24 0;
#X connect 5 0 56 0;
#X connect 6 0 30 0;
#X connect 6 0 32 0;
#X connect 7 0 9 0;
#X connect 7 0 11 0;
#X connect 7 0 30 1;
#X connect 7 0 32 1;
#X connect 8 0 7 0;
#X connect 9 0 10 0;
#X connect 10 0 5 1;
#X connect 11 0 12 0;
#X connect 12 0 4 1;
#X connect 13 0 15 0;
#X connect 14 0 13 1;
#X connect 15 0 16 0;
#X connect 16 0 35 0;
#X connect 17 0 18 0;
#X connect 18 0 20 0;
#X connect 19 0 18 1;
#X connect 20 0 21 0;
#X connect 21 0 36 0;
#X connect 22 0 25 0;
#X connect 23 0 17 0;
#X connect 24 0 65 0;
#X connect 25 0 26 0;
#X connect 26 0 6 0;
#X connect 26 1 6 1;
#X connect 27 0 28 0;
#X connect 27 1 28 1;
#X connect 28 0 11 0;
#X connect 29 0 6 0;
#X connect 29 1 31 0;
#X connect 29 2 33 0;
#X connect 30 0 9 0;
#X connect 31 0 30 1;
#X connect 31 0 32 1;
#X connect 32 0 27 0;
#X connect 33 0 35 1;
#X connect 33 0 36 1;
#X connect 34 0 29 0;
#X connect 34 1 8 0;
#X connect 35 0 37 0;
#X connect 36 0 41 0;
#X connect 37 0 45 0;
#X connect 38 0 39 0;
#X connect 39 0 37 1;
#X connect 40 0 38 0;
#X connect 41 0 47 0;
#X connect 42 0 43 0;
#X connect 43 0 41 1;
#X connect 44 0 42 0;
#X connect 45 0 46 0;
#X connect 46 0 4 0;
#X connect 47 0 48 0;
#X connect 48 0 5 0;
#X connect 49 0 33 0;
#X connect 50 0 14 0;
#X connect 51 0 19 0;
#X connect 52 0 16 1;
#X connect 53 0 21 1;
#X connect 54 0 44 0;
#X connect 55 0 40 0;
#X connect 56 0 59 0;
#X connect 57 0 56 1;
#X connect 58 0 57 0;
#X connect 59 0 24 1;
#X connect 60 0 59 2;
#X connect 61 0 59 3;
#X connect 62 0 59 1;
#X connect 65 0 64 0;
#X connect 65 0 63 0;
#X connect 66 0 65 1;
#X restore 267 37 pd pulse;
#X obj 242 82 +~;
#N canvas 469 121 1116 726 saw 0;
#X floatatom 603 58 5 0 0 0 - - -;
#X obj 81 32 r \$0-freq1;
#X obj 603 36 r \$0-wave-send;
#X floatatom 81 54 5 0 0 0 - - -;
#X obj 81 513 *~;
#X obj 410 505 *~;
#X obj 604 205 f;
#X msg 922 209 0;
#X obj 922 187 t b;
#X obj 427 458 pack f 50;
#X obj 427 480 line~;
#X obj 100 466 pack f 50;
#X obj 100 488 line~;
#X obj 81 135 pack f f;
#X floatatom 134 116 5 0 0 0 - - -;
#X obj 81 157 line~;
#X obj 80 235 +~;
#X floatatom 413 46 5 0 0 0 - - -;
#X obj 413 128 pack f f;
#X floatatom 466 109 5 0 0 0 - - -;
#X obj 413 150 line~;
#X obj 412 228 +~;
#X obj 621 137 r \$0-balance-send;
#X obj 413 25 r \$0-freq2;
#X obj 81 535 +~;
#X floatatom 621 159 5 0 0 0 - - -;
#X obj 621 178 t b f;
#X obj 100 422 swap 1;
#X obj 100 444 -;
#X obj 603 104 t b b b;
#X obj 427 432 spigot;
#X msg 716 208 1;
#X obj 100 399 spigot;
#X msg 794 209 0;
#X obj 79 290 phasor~;
#X obj 410 280 phasor~;
#X obj 80 324 *~ 2;
#X obj 80 346 -~ 1;
#X obj 411 315 *~ 2;
#X obj 411 337 -~ 1;
#X obj 603 80 sel 3;
#X obj 794 184 r \$0-reset-send;
#X obj 466 87 r \$0-glide;
#X obj 134 94 r \$0-glide;
#X obj 98 212 r~ \$0-fm;
#X obj 430 203 r~ \$0-fm;
#X obj 262 548 *~ 1;
#X obj 305 486 tgl 15 0 empty empty empty 17 7 0 10 -262144 -1 -1 0
1;
#X obj 305 456 r 2mfreqadd;
#X obj 205 550 dj-eq;
#X obj 217 509 r M2;
#X obj 279 509 r H2;
#X obj 155 507 r L2;
#X obj 72 657 outlet~;
#X obj 242 657 s~ wave0;
#X obj 72 616 *~;
#X obj 126 616 r pase2;
#X connect 0 0 40 0;
#X connect 1 0 3 0;
#X connect 2 0 0 0;
#X connect 3 0 13 0;
#X connect 4 0 24 0;
#X connect 5 0 49 0;
#X connect 6 0 30 0;
#X connect 6 0 32 0;
#X connect 7 0 9 0;
#X connect 7 0 11 0;
#X connect 7 0 30 1;
#X connect 7 0 32 1;
#X connect 8 0 7 0;
#X connect 9 0 10 0;
#X connect 10 0 5 1;
#X connect 11 0 12 0;
#X connect 12 0 4 1;
#X connect 13 0 15 0;
#X connect 14 0 13 1;
#X connect 15 0 16 0;
#X connect 16 0 34 0;
#X connect 17 0 18 0;
#X connect 18 0 20 0;
#X connect 19 0 18 1;
#X connect 20 0 21 0;
#X connect 21 0 35 0;
#X connect 22 0 25 0;
#X connect 23 0 17 0;
#X connect 24 0 55 0;
#X connect 25 0 26 0;
#X connect 26 0 6 0;
#X connect 26 1 6 1;
#X connect 27 0 28 0;
#X connect 27 1 28 1;
#X connect 28 0 11 0;
#X connect 29 0 6 0;
#X connect 29 1 31 0;
#X connect 29 2 33 0;
#X connect 30 0 9 0;
#X connect 31 0 30 1;
#X connect 31 0 32 1;
#X connect 32 0 27 0;
#X connect 33 0 34 1;
#X connect 33 0 35 1;
#X connect 34 0 36 0;
#X connect 35 0 38 0;
#X connect 36 0 37 0;
#X connect 37 0 4 0;
#X connect 38 0 39 0;
#X connect 39 0 5 0;
#X connect 40 0 29 0;
#X connect 40 1 8 0;
#X connect 41 0 33 0;
#X connect 42 0 19 0;
#X connect 43 0 14 0;
#X connect 44 0 16 1;
#X connect 45 0 21 1;
#X connect 46 0 49 0;
#X connect 47 0 46 1;
#X connect 48 0 47 0;
#X connect 49 0 24 1;
#X connect 50 0 49 2;
#X connect 51 0 49 3;
#X connect 52 0 49 1;
#X connect 55 0 54 0;
#X connect 55 0 53 0;
#X connect 56 0 55 1;
#X restore 359 37 pd saw;
#X obj 396 68 +~;
#N canvas 564 60 1116 554 noise 0;
#X floatatom 603 58 5 0 0 0 - - -;
#X obj 93 31 r \$0-freq1;
#X obj 603 36 r \$0-wave-send;
#X floatatom 93 53 5 0 0 0 - - -;
#X obj 79 454 *~;
#X obj 319 434 *~;
#X obj 604 205 f;
#X msg 945 214 0;
#X obj 945 192 t b;
#X obj 336 387 pack f 50;
#X obj 336 409 line~;
#X obj 98 387 pack f 50;
#X obj 98 409 line~;
#X obj 93 134 pack f f;
#X floatatom 146 115 5 0 0 0 - - -;
#X obj 93 156 line~;
#X obj 92 234 +~;
#X floatatom 332 53 5 0 0 0 - - -;
#X obj 332 135 pack f f;
#X floatatom 385 116 5 0 0 0 - - -;
#X obj 332 157 line~;
#X obj 331 235 +~;
#X obj 621 137 r \$0-balance-send;
#X obj 332 32 r \$0-freq2;
#X obj 78 490 +~;
#X floatatom 621 159 5 0 0 0 - - -;
#X obj 621 178 t b f;
#X obj 98 343 swap 1;
#X obj 98 365 -;
#X obj 336 361 spigot;
#X msg 716 208 1;
#X obj 98 320 spigot;
#X obj 603 80 sel 4;
#X obj 42 233 noise~;
#X obj 80 283 vcf~;
#X floatatom 121 258 5 0 0 0 - - -;
#X obj 280 234 noise~;
#X obj 318 278 vcf~;
#X floatatom 362 259 5 0 0 0 - - -;
#X obj 603 104 t b b;
#X obj 146 93 r \$0-glide;
#X obj 385 94 r \$0-glide;
#X obj 121 236 r \$0-nf;
#X obj 362 237 r \$0-nf;
#X obj 349 212 r~ \$0-fm;
#X obj 110 211 r~ \$0-fm;
#X obj 239 484 *~ 1;
#X obj 208 419 tgl 15 0 empty empty empty 17 7 0 10 -262144 -1 -1 0
1;
#X obj 208 389 r 2mfreqadd;
#X obj 177 484 dj-eq;
#X obj 189 430 r M2;
#X obj 251 430 r H2;
#X obj 127 428 r L2;
#X obj 83 607 outlet~;
#X obj 253 607 s~ wave0;
#X obj 83 566 *~;
#X obj 137 566 r pase2;
#X connect 0 0 32 0;
#X connect 1 0 3 0;
#X connect 2 0 0 0;
#X connect 3 0 13 0;
#X connect 4 0 24 0;
#X connect 5 0 49 0;
#X connect 6 0 29 0;
#X connect 6 0 31 0;
#X connect 7 0 9 0;
#X connect 7 0 11 0;
#X connect 7 0 29 1;
#X connect 7 0 31 1;
#X connect 8 0 7 0;
#X connect 9 0 10 0;
#X connect 10 0 5 1;
#X connect 11 0 12 0;
#X connect 12 0 4 1;
#X connect 13 0 15 0;
#X connect 14 0 13 1;
#X connect 15 0 16 0;
#X connect 16 0 34 1;
#X connect 17 0 18 0;
#X connect 18 0 20 0;
#X connect 19 0 18 1;
#X connect 20 0 21 0;
#X connect 21 0 37 1;
#X connect 22 0 25 0;
#X connect 23 0 17 0;
#X connect 24 0 55 0;
#X connect 25 0 26 0;
#X connect 26 0 6 0;
#X connect 26 1 6 1;
#X connect 27 0 28 0;
#X connect 27 1 28 1;
#X connect 28 0 11 0;
#X connect 29 0 9 0;
#X connect 30 0 29 1;
#X connect 30 0 31 1;
#X connect 31 0 27 0;
#X connect 32 0 39 0;
#X connect 32 1 8 0;
#X connect 33 0 34 0;
#X connect 34 0 4 0;
#X connect 35 0 34 2;
#X connect 36 0 37 0;
#X connect 37 0 5 0;
#X connect 38 0 37 2;
#X connect 39 0 6 0;
#X connect 39 1 30 0;
#X connect 40 0 14 0;
#X connect 41 0 19 0;
#X connect 42 0 35 0;
#X connect 43 0 38 0;
#X connect 44 0 21 1;
#X connect 45 0 16 1;
#X connect 46 0 49 0;
#X connect 47 0 46 1;
#X connect 48 0 47 0;
#X connect 49 0 24 1;
#X connect 50 0 49 2;
#X connect 51 0 49 3;
#X connect 52 0 49 1;
#X connect 55 0 54 0;
#X connect 55 0 53 0;
#X connect 56 0 55 1;
#X restore 436 37 pd noise;
#X obj 208 239 inlet;
#X obj -25 315 s~ soundwavesB;
#X obj 86 366 s~ \$0-sigB;
#X obj 401 212 r BBsynthD;
#X obj 133 337 tabwrite~ \$0-waveformB;
#X connect 0 0 1 0;
#X connect 1 0 13 0;
#X connect 1 0 14 0;
#X connect 1 0 16 0;
#X connect 2 0 6 0;
#X connect 3 0 16 0;
#X connect 4 0 3 0;
#X connect 5 0 4 0;
#X connect 6 0 1 1;
#X connect 7 0 8 0;
#X connect 8 0 6 1;
#X connect 9 0 10 0;
#X connect 10 0 8 1;
#X connect 11 0 10 1;
#X connect 12 0 4 0;
#X connect 15 0 16 0;
#X restore 84 1761 pd multi_oscillator;
#X connect 0 0 12 1;
#X connect 1 0 0 0;
#X connect 2 0 1 0;
#X connect 2 1 1 1;
#X connect 3 0 11 1;
#X connect 4 0 5 0;
#X connect 4 1 5 1;
#X connect 5 0 3 0;
#X connect 6 0 7 0;
#X connect 6 0 8 0;
#X connect 9 0 170 0;
#X connect 9 0 154 0;
#X connect 10 0 103 0;
#X connect 11 0 166 0;
#X connect 11 0 104 0;
#X connect 12 0 165 0;
#X connect 12 0 104 0;
#X connect 13 0 30 0;
#X connect 14 0 13 0;
#X connect 14 1 13 1;
#X connect 16 0 201 0;
#X connect 17 0 16 1;
#X connect 18 0 17 0;
#X connect 19 0 18 0;
#X connect 19 1 18 1;
#X connect 20 0 25 0;
#X connect 20 0 21 0;
#X connect 21 0 32 0;
#X connect 22 0 53 0;
#X connect 23 0 33 1;
#X connect 23 0 5 0;
#X connect 23 0 13 0;
#X connect 23 0 1 0;
#X connect 23 0 18 0;
#X connect 24 0 27 0;
#X connect 25 0 26 0;
#X connect 26 0 24 0;
#X connect 27 0 122 0;
#X connect 28 0 29 0;
#X connect 29 0 4 0;
#X connect 30 0 10 1;
#X connect 31 0 10 0;
#X connect 31 0 16 0;
#X connect 31 0 20 0;
#X connect 32 0 22 0;
#X connect 33 0 9 0;
#X connect 39 0 42 0;
#X connect 40 0 42 0;
#X connect 41 0 42 0;
#X connect 42 0 127 0;
#X connect 43 0 46 0;
#X connect 44 0 46 0;
#X connect 45 0 46 0;
#X connect 46 0 237 0;
#X connect 47 0 49 0;
#X connect 47 1 49 1;
#X connect 48 0 192 0;
#X connect 49 0 120 0;
#X connect 50 0 51 0;
#X connect 50 1 51 1;
#X connect 51 0 123 0;
#X connect 52 0 143 0;
#X connect 52 0 161 0;
#X connect 52 0 163 0;
#X connect 52 0 238 0;
#X connect 52 0 202 0;
#X connect 53 0 125 0;
#X connect 54 0 15 0;
#X connect 54 0 15 1;
#X connect 54 0 102 0;
#X connect 55 0 56 0;
#X connect 56 0 122 0;
#X connect 57 0 122 0;
#X connect 58 0 57 0;
#X connect 59 0 62 0;
#X connect 60 0 62 0;
#X connect 61 0 62 0;
#X connect 62 0 248 0;
#X connect 63 0 66 0;
#X connect 64 0 66 0;
#X connect 65 0 66 0;
#X connect 66 0 129 0;
#X connect 67 0 48 0;
#X connect 68 0 62 0;
#X connect 69 0 42 0;
#X connect 70 0 66 0;
#X connect 71 0 46 0;
#X connect 72 0 256 0;
#X connect 72 0 118 0;
#X connect 73 0 151 0;
#X connect 74 0 151 0;
#X connect 75 0 151 0;
#X connect 76 0 152 0;
#X connect 77 0 152 0;
#X connect 78 0 152 0;
#X connect 79 0 82 0;
#X connect 80 0 82 0;
#X connect 81 0 82 0;
#X connect 82 0 114 0;
#X connect 83 0 152 0;
#X connect 84 0 151 0;
#X connect 85 0 84 0;
#X connect 85 0 83 0;
#X connect 85 0 87 0;
#X connect 85 0 96 0;
#X connect 85 0 91 0;
#X connect 85 0 136 0;
#X connect 85 0 68 0;
#X connect 85 0 70 0;
#X connect 85 0 216 0;
#X connect 85 0 271 0;
#X connect 86 0 73 0;
#X connect 86 0 76 0;
#X connect 86 0 79 0;
#X connect 86 0 92 0;
#X connect 86 0 88 0;
#X connect 86 0 132 0;
#X connect 86 0 59 0;
#X connect 86 0 63 0;
#X connect 86 0 213 0;
#X connect 86 0 268 0;
#X connect 87 0 82 0;
#X connect 88 0 149 0;
#X connect 89 0 149 0;
#X connect 90 0 149 0;
#X connect 91 0 149 0;
#X connect 92 0 95 0;
#X connect 93 0 95 0;
#X connect 94 0 95 0;
#X connect 95 0 121 0;
#X connect 96 0 95 0;
#X connect 97 0 195 1;
#X connect 98 0 54 1;
#X connect 99 0 54 3;
#X connect 100 0 54 2;
#X connect 101 0 169 0;
#X connect 103 0 11 0;
#X connect 104 0 194 1;
#X connect 105 0 106 0;
#X connect 105 0 107 0;
#X connect 113 0 199 0;
#X connect 114 0 113 1;
#X connect 115 0 113 2;
#X connect 116 0 113 4;
#X connect 117 0 113 3;
#X connect 118 0 97 0;
#X connect 118 0 114 0;
#X connect 118 0 116 0;
#X connect 120 0 23 0;
#X connect 120 0 21 1;
#X connect 120 0 168 0;
#X connect 121 0 47 0;
#X connect 122 0 49 0;
#X connect 123 0 25 1;
#X connect 123 0 167 0;
#X connect 123 0 175 0;
#X connect 124 0 50 0;
#X connect 125 0 51 0;
#X connect 126 0 74 0;
#X connect 126 0 77 0;
#X connect 126 0 80 0;
#X connect 126 0 93 0;
#X connect 126 0 133 0;
#X connect 126 0 89 0;
#X connect 126 0 44 0;
#X connect 126 0 40 0;
#X connect 126 0 60 0;
#X connect 126 0 64 0;
#X connect 126 0 214 0;
#X connect 126 0 269 0;
#X connect 127 0 128 0;
#X connect 128 0 238 0;
#X connect 129 0 130 0;
#X connect 130 0 247 0;
#X connect 131 0 288 0;
#X connect 132 0 135 0;
#X connect 133 0 135 0;
#X connect 134 0 135 0;
#X connect 135 0 122 0;
#X connect 136 0 135 0;
#X connect 137 0 81 1;
#X connect 138 0 215 1;
#X connect 139 0 89 1;
#X connect 140 0 90 1;
#X connect 141 0 91 1;
#X connect 142 0 88 1;
#X connect 143 0 121 0;
#X connect 143 0 124 0;
#X connect 143 0 247 0;
#X connect 143 0 252 0;
#X connect 149 0 131 0;
#X connect 150 0 67 0;
#X connect 151 0 125 0;
#X connect 152 0 124 0;
#X connect 153 0 75 0;
#X connect 153 0 78 0;
#X connect 153 0 81 0;
#X connect 153 0 94 0;
#X connect 153 0 134 0;
#X connect 153 0 90 0;
#X connect 153 0 45 0;
#X connect 153 0 41 0;
#X connect 153 0 61 0;
#X connect 153 0 65 0;
#X connect 153 0 215 0;
#X connect 153 0 270 0;
#X connect 154 0 31 0;
#X connect 155 0 48 0;
#X connect 156 0 155 0;
#X connect 157 0 154 0;
#X connect 158 0 154 0;
#X connect 159 0 158 0;
#X connect 160 0 157 0;
#X connect 161 0 122 0;
#X connect 163 0 164 0;
#X connect 164 0 208 0;
#X connect 169 0 33 0;
#X connect 175 0 186 0;
#X connect 175 0 184 1;
#X connect 176 0 180 0;
#X connect 179 0 177 0;
#X connect 179 0 194 0;
#X connect 182 0 181 0;
#X connect 183 0 185 0;
#X connect 184 0 282 0;
#X connect 185 0 184 0;
#X connect 186 0 191 0;
#X connect 187 0 186 1;
#X connect 188 0 190 0;
#X connect 188 0 254 0;
#X connect 189 0 190 0;
#X connect 189 0 188 0;
#X connect 190 0 191 0;
#X connect 190 1 191 1;
#X connect 191 0 282 0;
#X connect 192 0 195 1;
#X connect 192 0 171 0;
#X connect 193 0 189 0;
#X connect 194 0 113 0;
#X connect 195 0 54 0;
#X connect 196 0 104 0;
#X connect 197 0 12 0;
#X connect 197 0 171 0;
#X connect 198 0 182 0;
#X connect 199 0 195 0;
#X connect 201 0 12 0;
#X connect 202 0 149 0;
#X connect 203 0 133 1;
#X connect 204 0 134 1;
#X connect 205 0 136 1;
#X connect 206 0 132 1;
#X connect 208 0 199 1;
#X connect 210 0 214 1;
#X connect 211 0 213 1;
#X connect 212 0 216 1;
#X connect 213 0 257 0;
#X connect 214 0 257 0;
#X connect 215 0 257 0;
#X connect 216 0 257 0;
#X connect 217 0 74 1;
#X connect 218 0 75 1;
#X connect 219 0 84 1;
#X connect 220 0 73 1;
#X connect 221 0 77 1;
#X connect 222 0 78 1;
#X connect 223 0 83 1;
#X connect 224 0 76 1;
#X connect 225 0 80 1;
#X connect 226 0 79 1;
#X connect 227 0 87 1;
#X connect 229 0 44 1;
#X connect 230 0 45 1;
#X connect 231 0 71 1;
#X connect 232 0 43 1;
#X connect 233 0 40 1;
#X connect 234 0 41 1;
#X connect 235 0 69 1;
#X connect 236 0 39 1;
#X connect 237 0 19 0;
#X connect 238 0 14 0;
#X connect 239 0 60 1;
#X connect 240 0 61 1;
#X connect 241 0 68 1;
#X connect 242 0 59 1;
#X connect 243 0 64 1;
#X connect 244 0 65 1;
#X connect 245 0 70 1;
#X connect 246 0 63 1;
#X connect 247 0 28 0;
#X connect 248 0 2 0;
#X connect 251 0 27 1;
#X connect 252 0 53 1;
#X connect 254 0 187 0;
#X connect 255 0 284 0;
#X connect 255 0 283 0;
#X connect 256 0 98 0;
#X connect 256 0 100 0;
#X connect 256 0 99 0;
#X connect 256 0 97 0;
#X connect 256 0 255 0;
#X connect 257 0 188 0;
#X connect 258 0 169 0;
#X connect 258 0 57 1;
#X connect 258 0 262 0;
#X connect 259 0 56 1;
#X connect 259 0 169 0;
#X connect 259 0 263 0;
#X connect 260 0 158 1;
#X connect 261 0 157 1;
#X connect 262 0 155 1;
#X connect 263 0 67 0;
#X connect 264 0 93 1;
#X connect 265 0 94 1;
#X connect 266 0 96 1;
#X connect 267 0 92 1;
#X connect 268 0 277 0;
#X connect 269 0 277 0;
#X connect 270 0 277 0;
#X connect 271 0 277 0;
#X connect 272 0 163 0;
#X connect 273 0 269 1;
#X connect 274 0 270 1;
#X connect 275 0 271 1;
#X connect 276 0 268 1;
#X connect 277 0 272 0;
#X connect 278 0 277 0;
#X connect 279 0 287 0;
#X connect 280 0 286 0;
#X connect 281 0 285 0;
#X connect 282 0 283 0;
#X connect 283 0 284 0;
#X connect 289 0 298 1;
#X connect 290 0 289 0;
#X connect 291 0 290 0;
#X connect 291 1 290 1;
#X connect 292 0 297 1;
#X connect 293 0 294 0;
#X connect 293 1 294 1;
#X connect 294 0 292 0;
#X connect 295 0 413 0;
#X connect 295 0 507 0;
#X connect 296 0 380 0;
#X connect 297 0 381 0;
#X connect 297 0 506 0;
#X connect 298 0 424 0;
#X connect 298 0 381 0;
#X connect 299 0 316 0;
#X connect 300 0 299 0;
#X connect 300 1 299 1;
#X connect 302 0 444 0;
#X connect 303 0 302 1;
#X connect 304 0 303 0;
#X connect 305 0 304 0;
#X connect 305 1 304 1;
#X connect 306 0 311 0;
#X connect 306 0 307 0;
#X connect 307 0 318 0;
#X connect 308 0 334 0;
#X connect 309 0 319 1;
#X connect 309 0 294 0;
#X connect 309 0 299 0;
#X connect 309 0 290 0;
#X connect 309 0 304 0;
#X connect 310 0 313 0;
#X connect 311 0 312 0;
#X connect 312 0 310 0;
#X connect 313 0 391 0;
#X connect 314 0 315 0;
#X connect 315 0 293 0;
#X connect 316 0 296 1;
#X connect 317 0 296 0;
#X connect 317 0 302 0;
#X connect 317 0 306 0;
#X connect 318 0 308 0;
#X connect 319 0 295 0;
#X connect 320 0 323 0;
#X connect 321 0 323 0;
#X connect 322 0 323 0;
#X connect 323 0 396 0;
#X connect 324 0 327 0;
#X connect 325 0 327 0;
#X connect 326 0 327 0;
#X connect 327 0 472 0;
#X connect 328 0 330 0;
#X connect 328 1 330 1;
#X connect 330 0 389 0;
#X connect 331 0 332 0;
#X connect 331 1 332 1;
#X connect 332 0 392 0;
#X connect 333 0 407 0;
#X connect 333 0 420 0;
#X connect 333 0 422 0;
#X connect 333 0 473 0;
#X connect 334 0 394 0;
#X connect 335 0 301 0;
#X connect 335 0 301 1;
#X connect 335 0 379 0;
#X connect 336 0 337 0;
#X connect 337 0 391 0;
#X connect 338 0 391 0;
#X connect 339 0 338 0;
#X connect 340 0 343 0;
#X connect 341 0 343 0;
#X connect 342 0 343 0;
#X connect 343 0 483 0;
#X connect 344 0 347 0;
#X connect 345 0 347 0;
#X connect 346 0 347 0;
#X connect 347 0 398 0;
#X connect 348 0 329 0;
#X connect 349 0 343 0;
#X connect 350 0 323 0;
#X connect 351 0 347 0;
#X connect 352 0 327 0;
#X connect 353 0 489 0;
#X connect 353 0 387 0;
#X connect 354 0 410 0;
#X connect 355 0 410 0;
#X connect 356 0 410 0;
#X connect 357 0 411 0;
#X connect 358 0 411 0;
#X connect 359 0 411 0;
#X connect 360 0 363 0;
#X connect 361 0 363 0;
#X connect 362 0 363 0;
#X connect 363 0 383 0;
#X connect 364 0 411 0;
#X connect 365 0 410 0;
#X connect 366 0 365 0;
#X connect 366 0 364 0;
#X connect 366 0 368 0;
#X connect 366 0 377 0;
#X connect 366 0 372 0;
#X connect 366 0 405 0;
#X connect 366 0 349 0;
#X connect 366 0 351 0;
#X connect 366 0 503 0;
#X connect 367 0 354 0;
#X connect 367 0 357 0;
#X connect 367 0 360 0;
#X connect 367 0 373 0;
#X connect 367 0 369 0;
#X connect 367 0 401 0;
#X connect 367 0 340 0;
#X connect 367 0 344 0;
#X connect 367 0 500 0;
#X connect 368 0 363 0;
#X connect 369 0 408 0;
#X connect 370 0 408 0;
#X connect 371 0 408 0;
#X connect 372 0 408 0;
#X connect 373 0 376 0;
#X connect 374 0 376 0;
#X connect 375 0 376 0;
#X connect 376 0 390 0;
#X connect 377 0 376 0;
#X connect 378 0 425 0;
#X connect 380 0 297 0;
#X connect 381 0 438 1;
#X connect 382 0 443 0;
#X connect 383 0 382 1;
#X connect 384 0 382 2;
#X connect 385 0 382 4;
#X connect 386 0 382 3;
#X connect 387 0 383 0;
#X connect 387 0 385 0;
#X connect 389 0 309 0;
#X connect 389 0 307 1;
#X connect 389 0 518 0;
#X connect 390 0 328 0;
#X connect 391 0 330 0;
#X connect 392 0 311 1;
#X connect 392 0 517 0;
#X connect 393 0 331 0;
#X connect 394 0 332 0;
#X connect 395 0 355 0;
#X connect 395 0 358 0;
#X connect 395 0 361 0;
#X connect 395 0 374 0;
#X connect 395 0 402 0;
#X connect 395 0 370 0;
#X connect 395 0 325 0;
#X connect 395 0 321 0;
#X connect 395 0 341 0;
#X connect 395 0 345 0;
#X connect 395 0 501 0;
#X connect 396 0 397 0;
#X connect 397 0 473 0;
#X connect 398 0 399 0;
#X connect 399 0 482 0;
#X connect 400 0 513 0;
#X connect 401 0 404 0;
#X connect 402 0 404 0;
#X connect 403 0 404 0;
#X connect 404 0 391 0;
#X connect 405 0 404 0;
#X connect 406 0 362 1;
#X connect 407 0 390 0;
#X connect 407 0 393 0;
#X connect 407 0 482 0;
#X connect 407 0 487 0;
#X connect 408 0 400 0;
#X connect 409 0 348 0;
#X connect 410 0 394 0;
#X connect 411 0 393 0;
#X connect 412 0 356 0;
#X connect 412 0 359 0;
#X connect 412 0 362 0;
#X connect 412 0 375 0;
#X connect 412 0 403 0;
#X connect 412 0 371 0;
#X connect 412 0 326 0;
#X connect 412 0 322 0;
#X connect 412 0 342 0;
#X connect 412 0 346 0;
#X connect 412 0 502 0;
#X connect 413 0 317 0;
#X connect 414 0 329 0;
#X connect 415 0 414 0;
#X connect 416 0 413 0;
#X connect 417 0 413 0;
#X connect 418 0 417 0;
#X connect 419 0 416 0;
#X connect 420 0 391 0;
#X connect 422 0 423 0;
#X connect 423 0 450 0;
#X connect 425 0 319 0;
#X connect 431 0 430 0;
#X connect 433 0 432 0;
#X connect 434 0 437 0;
#X connect 435 0 436 0;
#X connect 436 0 437 0;
#X connect 436 1 437 1;
#X connect 438 0 382 0;
#X connect 439 0 335 0;
#X connect 440 0 381 0;
#X connect 441 0 298 0;
#X connect 441 0 519 0;
#X connect 442 0 431 0;
#X connect 443 0 439 0;
#X connect 444 0 298 0;
#X connect 445 0 402 1;
#X connect 446 0 403 1;
#X connect 447 0 405 1;
#X connect 448 0 401 1;
#X connect 450 0 443 1;
#X connect 452 0 355 1;
#X connect 453 0 356 1;
#X connect 454 0 365 1;
#X connect 455 0 354 1;
#X connect 456 0 358 1;
#X connect 457 0 359 1;
#X connect 458 0 364 1;
#X connect 459 0 357 1;
#X connect 460 0 361 1;
#X connect 461 0 360 1;
#X connect 462 0 368 1;
#X connect 464 0 325 1;
#X connect 465 0 326 1;
#X connect 466 0 352 1;
#X connect 467 0 324 1;
#X connect 468 0 321 1;
#X connect 469 0 322 1;
#X connect 470 0 350 1;
#X connect 471 0 320 1;
#X connect 472 0 305 0;
#X connect 473 0 300 0;
#X connect 474 0 341 1;
#X connect 475 0 342 1;
#X connect 476 0 349 1;
#X connect 477 0 340 1;
#X connect 478 0 345 1;
#X connect 479 0 346 1;
#X connect 480 0 351 1;
#X connect 481 0 344 1;
#X connect 482 0 314 0;
#X connect 483 0 291 0;
#X connect 486 0 313 1;
#X connect 487 0 334 1;
#X connect 490 0 425 0;
#X connect 490 0 338 1;
#X connect 490 0 494 0;
#X connect 491 0 337 1;
#X connect 491 0 425 0;
#X connect 491 0 495 0;
#X connect 492 0 417 1;
#X connect 493 0 416 1;
#X connect 494 0 414 1;
#X connect 495 0 348 0;
#X connect 496 0 374 1;
#X connect 497 0 375 1;
#X connect 498 0 377 1;
#X connect 499 0 373 1;
#X connect 500 0 505 0;
#X connect 501 0 505 0;
#X connect 502 0 505 0;
#X connect 503 0 505 0;
#X connect 504 0 422 0;
#X connect 505 0 504 0;
#X connect 509 0 438 0;
#X connect 509 0 510 0;
#X connect 512 0 511 0;
#X coords 0 -1 1 1 382 400 2 100 10;
