#N canvas 419 668 1645 916 12;
#X obj 302 -4 cnv 15 56 88 empty empty empty 20 12 0 14 -260097 -66577
0;
#X msg -320 321 record;
#X obj -340 298 bng 15 250 50 0 empty empty empty 17 7 0 10 -262144
-1 -1;
#X obj -284 600 pack;
#X obj -340 275 sel;
#X obj -321 298 bng 15 250 50 0 empty empty empty 17 7 0 10 -262144
-1 -1;
#X floatatom -343 250 5 0 0 0 - - -;
#X obj 603 21 tgl 22 0 empty empty ↺ 4 9 2 22 -1 -262144 -262144
0 1;
#X obj 128 130 bng 28 250 50 0 empty empty ► 9 15 1 14 -1 -262144
-262144;
#X obj 155 101 tgl 28 0 empty empty midi 4 14 0 10 -260097 -1 -1 0
1;
#X obj 216 177 notein;
#X obj 212 211 spigot-toggle_violet;
#X obj -158 598 bng 15 250 50 0 empty empty empty 17 7 0 10 -262144
-1 -1;
#X obj -147 619 spigot-toggle_violet;
#X obj 100 63 r lo;
#X floatatom -296 728 7 0 0 0 - - -;
#X obj 128 101 tgl 28 0 empty empty rec 5 14 0 10 -260097 -1 -1 0 1
;
#X obj 101 130 bng 28 250 50 0 empty empty ○ 7 13 1 25 -1 -262144
-262144;
#X obj -120 621 sel;
#X obj 268 125 sel;
#X floatatom 208 242 5 0 0 0 - - -;
#X obj 373 868 bng 15 250 50 0 empty empty empty 17 7 0 10 -262144
-1 -1;
#X obj -291 630 cyclone/midiformat;
#X obj 389 769 spigot-toggle_violet;
#X obj 423 770 spigot-toggle_violet;
#X obj 101 101 tgl 28 0 empty empty raw 4 14 0 10 -260097 -1 -1 0 1
;
#X obj 206 364 bng 15 250 50 0 empty empty empty 17 7 0 10 -262144
-1 -1;
#X obj 252 349 bng 15 250 50 0 empty empty empty 17 7 0 10 -262144
-1 -1;
#X obj 206 327 sel 47;
#X floatatom 337 460 5 0 0 0 - - -;
#X msg 202 386 0;
#X obj -294 697 * 1;
#X obj -355 729 sel 64;
#X obj -320 758 bng 15 250 50 0 empty empty empty 17 7 0 10 -262144
-1 -1;
#X obj -356 755 bng 15 250 50 0 empty empty empty 17 7 0 10 -262144
-1 -1;
#X msg 185 170 47;
#X obj 335 490 / 64;
#X obj 610 616 r ABonoff;
#X obj 679 617 r BBonoff;
#X obj 744 642 - 1;
#X obj 745 671 * -1;
#X obj 345 235 == 47;
#X obj 235 210 spigot-toggle_violet;
#X obj 155 130 tgl 28 0 empty empty ■ 4 13 1 36 -1 -262144 -262144
0 1;
#X floatatom 505 869 7 0 0 0 - - -;
#X obj 388 794 spigot-toggle_violet;
#X obj 424 798 spigot-toggle_violet;
#X obj 714 177 - 1;
#X obj 715 206 * -1;
#X msg 133 63 0;
#X obj 511 17 tgl 22 0 empty empty empty 1 11 0 11 -1 -1 -1 0 1;
#X obj 339 301 spigot-toggle_violet;
#X floatatom 337 265 5 0 0 0 - - -;
#X obj 269 103 s trgrmidirecmodulSPDB;
#X obj 279 150 s stoprecmodulSPDB;
#X obj 452 746 r trgrmidirecmodulSPDB;
#X obj 505 897 s recmodulenvSPDB;
#X obj 370 895 s recmodulstepSPDB;
#X obj -292 663 cyclone/seq seq8.mid;
#X connect 1 0 58 0;
#X connect 2 0 58 0;
#X connect 3 0 22 0;
#X connect 4 0 2 0;
#X connect 4 1 5 0;
#X connect 5 0 1 0;
#X connect 6 0 4 0;
#X connect 7 0 13 1;
#X connect 7 0 18 0;
#X connect 8 0 58 0;
#X connect 9 0 11 1;
#X connect 9 0 42 1;
#X connect 10 0 11 0;
#X connect 10 1 42 0;
#X connect 11 0 20 0;
#X connect 12 0 13 0;
#X connect 13 0 8 0;
#X connect 14 0 7 0;
#X connect 14 0 9 0;
#X connect 14 0 49 0;
#X connect 15 0 32 0;
#X connect 15 0 24 0;
#X connect 16 0 6 0;
#X connect 16 0 19 0;
#X connect 17 0 35 0;
#X connect 18 1 12 0;
#X connect 19 0 8 0;
#X connect 20 0 41 0;
#X connect 20 0 28 0;
#X connect 21 0 57 0;
#X connect 22 0 58 0;
#X connect 23 0 45 0;
#X connect 24 0 46 0;
#X connect 25 0 9 0;
#X connect 25 0 53 0;
#X connect 26 0 30 0;
#X connect 26 0 21 0;
#X connect 28 0 26 0;
#X connect 28 1 27 0;
#X connect 29 0 3 1;
#X connect 29 0 36 0;
#X connect 29 0 32 0;
#X connect 30 0 3 0;
#X connect 31 0 15 0;
#X connect 32 0 34 0;
#X connect 32 1 33 0;
#X connect 34 0 23 0;
#X connect 34 0 21 0;
#X connect 35 0 20 0;
#X connect 36 0 24 0;
#X connect 36 0 44 0;
#X connect 37 0 39 0;
#X connect 38 0 39 0;
#X connect 39 0 40 0;
#X connect 40 0 24 1;
#X connect 40 0 23 1;
#X connect 41 0 51 1;
#X connect 42 0 52 0;
#X connect 43 0 47 0;
#X connect 43 0 54 0;
#X connect 44 0 56 0;
#X connect 45 0 21 0;
#X connect 46 0 44 0;
#X connect 47 0 48 0;
#X connect 48 0 46 1;
#X connect 48 0 45 1;
#X connect 48 0 7 0;
#X connect 49 0 43 0;
#X connect 51 0 29 0;
#X connect 52 0 51 0;
#X connect 55 0 24 1;
#X connect 55 0 23 1;
#X connect 58 0 31 0;
#X connect 58 1 12 0;
#X coords 0 -1 1 1 83 59 2 100 100;
