#N canvas 75 0 1161 878 12;
#N canvas 0 0 450 300 (subpatch) 0;
#X array array17 5.78886e+06 float 2;
#X coords 0 1 5.78886e+06 -1 200 140 2 0 0;
#X restore 102 158 graph;
#X obj -294 -282 soundfiler;
#X floatatom -293 -257 12 0 0 0 - - -;
#X obj -294 92 *~;
#X obj -295 16 phasor~;
#X floatatom -500 -187 5 0 0 0 - - -;
#X obj -447 757 dac~;
#X obj -299 424 *~;
#X text -275 -358 load sound file;
#X text -201 -259 size of sound file;
#X floatatom -324 -31 5 0 0 0 - - -;
#X obj -293 -354 bng 15 250 50 0 empty empty empty 17 7 0 10 -262144
-1 -1;
#X obj -293 -332 openpanel;
#N canvas 0 0 450 300 (subpatch) 0;
#X array array98 256 float 1;
#A 0 0 0.0769231 0.153846 0.230769 0.307692 0.384615 0.461538 0.538461
0.615385 0.692308 0.769231 0.846154 0.923077 1 1 1 1 1 1 1 1 1 1 1
1 1 1 1 1 1 1 1 1 1 1 1 1 1 1 1 1 1 1 1 1 1 1 1 1 1 1 1 1 1 1 1 1 1
1 1 1 1 1 1 1 1 1 1 1 1 1 1 1 1 1 1 1 1 1 1 1 1 1 1 1 1 1 1 1 1 1 1
1 1 1 1 1 1 1 1 1 1 1 1 1 1 1 1 1 1 1 1 1 1 1 1 1 1 1 1 1 1 1 1 1 1
1 1 1 1 1 1 1 1 1 1 0.994983 0.986622 0.978261 0.969899 0.961538 0.953177
0.944816 0.936455 0.928093 0.919732 0.911371 0.90301 0.894649 0.886287
0.877926 0.869565 0.861204 0.852843 0.844481 0.83612 0.827759 0.819398
0.811037 0.802675 0.794314 0.785953 0.777592 0.769231 0.760869 0.752508
0.744147 0.735786 0.727425 0.719063 0.710702 0.702341 0.69398 0.685619
0.677257 0.668896 0.660535 0.652174 0.643813 0.635451 0.62709 0.618729
0.610368 0.602007 0.593645 0.585284 0.576923 0.568562 0.560201 0.551839
0.543478 0.535117 0.526756 0.518395 0.510033 0.501672 0.493311 0.48495
0.476589 0.468227 0.459866 0.451505 0.443144 0.434783 0.426421 0.41806
0.409699 0.401338 0.392977 0.384615 0.376254 0.367893 0.359532 0.351171
0.342809 0.334448 0.326087 0.317726 0.309364 0.301003 0.292642 0.284281
0.27592 0.267558 0.259197 0.250836 0.242475 0.234114 0.225752 0.217391
0.20903 0.200669 0.192308 0.183946 0.175585 0.167224 0.158863 0.150502
0.14214 0.133779 0.125418 0.117057 0.108696 0.100334 0.0919733 0.083612
0.0752508 0.0668896 0.0585284 0.0501673 0.041806 0.0334448 0.0250836
0.0167224 0.00836116 0;
#X coords 0 1 255 0 80 60 1 0 0;
#X restore 111 311 graph;
#N canvas 0 240 560 555 envelope 0;
#N canvas 284 50 661 699 hann 0;
#X obj 102 334 until;
#X obj 102 355 f;
#X obj 129 361 + 1;
#X msg 167 330 0;
#X obj 154 205 t b b;
#X obj 103 382 t f f;
#X obj 99 499 expr -cos($f1*3.14159)*.5+.5;
#X obj 322 526 expr -cos($f1*3.14159)*.5+.5;
#X obj 322 551 * -1;
#X obj 323 573 + 1;
#X obj 181 421 moses;
#X obj 169 612 pow 1;
#X obj 445 120 exp;
#X obj 445 8 inlet shape;
#X obj 444 77 / 100;
#X obj 291 8 inlet x;
#X obj 101 468 /;
#X obj 102 292 f 1024;
#X obj 444 143 t b f;
#X obj 290 135 t b f;
#X floatatom 321 298 5 0 0 0 - - -;
#X obj 322 497 expr ($f1-$f2)/(256-$f2-1);
#X obj 207 658 tabwrite array98;
#X connect 0 0 1 0;
#X connect 1 0 2 0;
#X connect 1 0 5 0;
#X connect 2 0 1 1;
#X connect 3 0 1 1;
#X connect 4 0 17 0;
#X connect 4 1 3 0;
#X connect 5 0 10 0;
#X connect 5 1 22 1;
#X connect 6 0 11 0;
#X connect 7 0 8 0;
#X connect 8 0 9 0;
#X connect 9 0 11 0;
#X connect 10 0 16 0;
#X connect 10 1 21 0;
#X connect 11 0 22 0;
#X connect 12 0 18 0;
#X connect 13 0 14 0;
#X connect 14 0 12 0;
#X connect 15 0 19 0;
#X connect 16 0 6 0;
#X connect 17 0 0 0;
#X connect 18 0 4 0;
#X connect 18 1 11 1;
#X connect 19 0 4 0;
#X connect 19 1 10 1;
#X connect 19 1 16 1;
#X connect 19 1 21 1;
#X connect 20 0 17 1;
#X connect 21 0 7 0;
#X restore 87 503 pd hann;
#N canvas 65 19 631 726 trapez 0;
#X obj 43 374 until;
#X obj 43 395 f;
#X obj 70 401 + 1;
#X msg 161 344 0;
#X obj 120 480 moses;
#X obj 134 280 t b b;
#X obj 119 439 t f f;
#X obj 118 608 clip 0 1;
#X obj 120 583 *;
#X obj 238 12 inlet x;
#X obj 435 15 inlet shape;
#X obj 435 82 / 100;
#X obj 435 107 + 1;
#X obj 435 173 max 1;
#X obj 43 347 f 1024;
#X obj 435 195 t b f;
#X obj 238 164 t b f f f;
#X obj 120 531 / 1024;
#X obj 435 58 + 200;
#X obj 435 151 -;
#X msg 435 129 6 \$1;
#X floatatom 321 298 5 0 0 0 - - -;
#X obj 272 345;
#X obj 261 374 bng 15 250 50 0 empty empty empty 17 7 0 10 -262144
-1 -1;
#X obj 92 271 bng 15 250 50 0 empty empty empty 17 7 0 10 -262144 -1
-1;
#X obj 213 505 expr -($f1-$f2)/(256-$f2-1)+1;
#X obj 148 640 tabwrite array98;
#X connect 0 0 1 0;
#X connect 1 0 2 0;
#X connect 1 0 6 0;
#X connect 2 0 1 1;
#X connect 3 0 1 1;
#X connect 4 0 17 0;
#X connect 4 1 25 0;
#X connect 5 0 14 0;
#X connect 5 0 24 0;
#X connect 5 1 3 0;
#X connect 6 0 4 0;
#X connect 6 1 26 1;
#X connect 7 0 26 0;
#X connect 8 0 7 0;
#X connect 9 0 16 0;
#X connect 10 0 18 0;
#X connect 11 0 12 0;
#X connect 12 0 20 0;
#X connect 13 0 15 0;
#X connect 14 0 0 0;
#X connect 15 0 5 0;
#X connect 15 1 8 1;
#X connect 16 0 5 0;
#X connect 16 1 4 1;
#X connect 16 2 17 1;
#X connect 16 3 25 1;
#X connect 17 0 8 0;
#X connect 18 0 11 0;
#X connect 19 0 13 0;
#X connect 20 0 19 0;
#X connect 21 0 14 1;
#X connect 25 0 8 0;
#X restore 296 501 pd trapez;
#X obj 125 175 f;
#X obj 241 117 t b f;
#X obj 401 114 t b f;
#N canvas 222 179 680 699 curved2 0;
#X obj 64 415 until;
#X obj 64 436 f;
#X obj 91 442 + 1;
#X msg 139 412 0;
#X obj 113 328 t b b;
#X obj 63 472 t f f;
#X obj 53 586 expr if($f2<=0 \, -pow((1-$f1) \, (-$f2+1))+1 \, pow($f1
\, $f2+1));
#X obj 127 631 expr if($f2<=0 \, -pow((1-$f1) \, (-$f2+1))+1 \, pow($f1
\, $f2+1));
#X obj 128 654 * -1;
#X obj 129 676 + 1;
#X obj 63 509 moses;
#X obj 576 171 exp;
#X obj 478 86 moses 0;
#X obj 478 168 * -1;
#X obj 479 209 exp;
#X obj 480 230 * -1;
#X obj 478 123 + 1;
#X obj 478 146 moses -1;
#X obj 479 190 - 1;
#X obj 479 62 - 1;
#X obj 63 551 /;
#X obj 302 21 inlet x;
#X obj 479 18 inlet shape;
#X obj 479 38 / 100;
#X obj 493 265 t b b f f;
#X obj 478 608 * -1;
#X obj 64 381 f 1024;
#X obj 189 546 expr ($f1-$f2)/(1024-$f2-1);
#X obj 302 211 t b f f f;
#X obj 141 729 tabwrite array98;
#X connect 0 0 1 0;
#X connect 1 0 2 0;
#X connect 1 0 5 0;
#X connect 2 0 1 1;
#X connect 3 0 1 1;
#X connect 4 0 26 0;
#X connect 4 1 3 0;
#X connect 5 0 10 0;
#X connect 5 1 29 1;
#X connect 6 0 29 0;
#X connect 7 0 8 0;
#X connect 8 0 9 0;
#X connect 9 0 29 0;
#X connect 10 0 20 0;
#X connect 10 1 27 0;
#X connect 11 0 24 0;
#X connect 12 0 16 0;
#X connect 12 1 11 0;
#X connect 13 0 18 0;
#X connect 14 0 15 0;
#X connect 15 0 24 0;
#X connect 16 0 17 0;
#X connect 17 0 13 0;
#X connect 17 1 24 0;
#X connect 18 0 14 0;
#X connect 19 0 12 0;
#X connect 20 0 6 0;
#X connect 21 0 28 0;
#X connect 22 0 23 0;
#X connect 23 0 19 0;
#X connect 24 0 4 0;
#X connect 24 2 6 1;
#X connect 24 3 25 0;
#X connect 25 0 7 1;
#X connect 26 0 0 0;
#X connect 27 0 7 0;
#X connect 28 0 4 0;
#X connect 28 1 10 1;
#X connect 28 2 20 1;
#X connect 28 3 27 1;
#X restore 219 501 pd curved2;
#N canvas 633 50 680 699 curved 0;
#X obj 66 424 until;
#X obj 66 445 f;
#X obj 93 451 + 1;
#X msg 141 421 0;
#X obj 115 337 t b b;
#X obj 65 481 t f f;
#X obj 55 595 expr if($f2<=0 \, -pow((1-$f1) \, (-$f2+1))+1 \, pow($f1
\, $f2+1));
#X obj 129 640 expr if($f2<=0 \, -pow((1-$f1) \, (-$f2+1))+1 \, pow($f1
\, $f2+1));
#X obj 130 663 * -1;
#X obj 131 685 + 1;
#X obj 65 518 moses;
#X obj 578 180 exp;
#X obj 480 95 moses 0;
#X obj 480 177 * -1;
#X obj 481 218 exp;
#X obj 482 239 * -1;
#X obj 480 132 + 1;
#X obj 480 155 moses -1;
#X obj 481 199 - 1;
#X obj 481 71 - 1;
#X obj 65 560 /;
#X obj 304 30 inlet x;
#X obj 481 27 inlet shape;
#X obj 481 47 / 100;
#X obj 495 274 t b b f f;
#X obj 66 397 f 1024;
#X obj 191 555 expr ($f1-$f2)/(1024-$f2-1);
#X obj 304 220 t b f f f;
#X obj 143 741 tabwrite array98;
#X connect 0 0 1 0;
#X connect 1 0 2 0;
#X connect 1 0 5 0;
#X connect 2 0 1 1;
#X connect 3 0 1 1;
#X connect 4 0 25 0;
#X connect 4 1 3 0;
#X connect 5 0 10 0;
#X connect 5 1 28 1;
#X connect 6 0 28 0;
#X connect 7 0 8 0;
#X connect 8 0 9 0;
#X connect 9 0 28 0;
#X connect 10 0 20 0;
#X connect 10 1 26 0;
#X connect 11 0 24 0;
#X connect 12 0 16 0;
#X connect 12 1 11 0;
#X connect 13 0 18 0;
#X connect 14 0 15 0;
#X connect 15 0 24 0;
#X connect 16 0 17 0;
#X connect 17 0 13 0;
#X connect 17 1 24 0;
#X connect 18 0 14 0;
#X connect 19 0 12 0;
#X connect 20 0 6 0;
#X connect 21 0 27 0;
#X connect 22 0 23 0;
#X connect 23 0 19 0;
#X connect 24 0 4 0;
#X connect 24 2 6 1;
#X connect 24 3 7 1;
#X connect 25 0 0 0;
#X connect 26 0 7 0;
#X connect 27 0 4 0;
#X connect 27 1 10 1;
#X connect 27 2 20 1;
#X connect 27 3 26 1;
#X restore 148 501 pd curved;
#X obj 124 375 pack 0 512;
#X obj 248 375 pack 0 0;
#X obj 124 200 t f f;
#N canvas 227 104 947 699 complex 0;
#X obj 190 316 until;
#X obj 190 337 f;
#X obj 217 343 + 1;
#X msg 265 302 0;
#X obj 211 240 t b b;
#X obj 460 630 expr -cos($f1*3.14159)*.5+.5;
#X obj 282 512 moses;
#X obj 235 741 pow 1;
#X obj 680 199 t b f;
#X obj 254 674 expr -cos($f1*3.14159)*.5+.5;
#X obj 324 774 *;
#X obj 460 653 * -1;
#X obj 461 675 + 1;
#X obj 190 612 expr -cos($f1*18.8496)*.5+.5;
#X obj 679 36 inlet vsl;
#X obj 399 28 inlet hsl;
#X obj 399 143 t b f f f;
#X obj 190 482 t float float;
#X obj 190 367 t float float;
#X obj 189 291 f 1024;
#X obj 190 588 / 1024;
#X obj 254 651 / 512;
#X obj 680 71 + 200;
#X obj 680 93 / 400;
#X obj 680 137 + 0.2;
#X obj 680 115 * 2.5;
#X obj 460 602 expr ($f1-$f2)/(256-$f2-1);
#X obj 324 797 tabwrite array98;
#X connect 0 0 1 0;
#X connect 1 0 2 0;
#X connect 1 0 18 0;
#X connect 2 0 1 1;
#X connect 3 0 1 1;
#X connect 4 0 19 0;
#X connect 4 1 3 0;
#X connect 5 0 11 0;
#X connect 6 0 21 0;
#X connect 6 1 26 0;
#X connect 7 0 10 0;
#X connect 8 0 4 0;
#X connect 8 1 7 1;
#X connect 9 0 10 1;
#X connect 10 0 27 0;
#X connect 11 0 12 0;
#X connect 12 0 10 1;
#X connect 13 0 7 0;
#X connect 14 0 22 0;
#X connect 15 0 16 0;
#X connect 16 0 4 0;
#X connect 16 1 6 1;
#X connect 16 2 21 1;
#X connect 16 3 26 1;
#X connect 17 0 20 0;
#X connect 17 1 6 0;
#X connect 18 0 17 0;
#X connect 18 1 27 1;
#X connect 19 0 0 0;
#X connect 20 0 13 0;
#X connect 21 0 9 0;
#X connect 22 0 23 0;
#X connect 23 0 25 0;
#X connect 24 0 8 0;
#X connect 25 0 24 0;
#X connect 26 0 5 0;
#X restore 373 501 pd complex;
#X obj 124 401 route 0 1 2 3 4;
#X obj 246 400 route 0 1 2 3 4;
#X obj 241 50 r \$0-env-bias;
#X obj 401 44 r \$0-env-shape;
#X text 78 520 well \, i think some of the math in this subpatches
is redundant;
#X obj 401 68 * 400;
#X obj 401 90 - 200;
#X obj 241 71 * 974;
#X obj 241 93 + 25;
#X obj 125 60 r \$0-env-type;
#X floatatom 497 127 5 0 0 0 - - -;
#X floatatom 321 298 5 0 0 0 - - -;
#X connect 2 0 9 0;
#X connect 3 0 2 0;
#X connect 3 1 7 1;
#X connect 4 0 2 0;
#X connect 4 1 8 1;
#X connect 7 0 11 0;
#X connect 8 0 12 0;
#X connect 9 0 7 0;
#X connect 9 1 8 0;
#X connect 11 0 0 0;
#X connect 11 1 6 0;
#X connect 11 2 5 0;
#X connect 11 3 1 0;
#X connect 11 4 10 0;
#X connect 12 0 0 1;
#X connect 12 1 6 1;
#X connect 12 2 5 1;
#X connect 12 3 1 1;
#X connect 12 4 10 1;
#X connect 13 0 18 0;
#X connect 14 0 16 0;
#X connect 16 0 17 0;
#X connect 17 0 4 0;
#X connect 18 0 19 0;
#X connect 19 0 3 0;
#X connect 20 0 2 0;
#X connect 21 0 16 0;
#X restore 130 391 pd envelope;
#X obj 198 361 hradio 10 1 0 5 \$0-env-type \$0-env-typer Type 0 -7
2 10 -262144 -1 -1 3;
#X obj 201 315 hsl 92 10 0 1 0 0 \$0-env-bias \$0-env-biasr Bias -2
-7 2 10 -262144 -1 -1 0 1;
#X obj 201 338 hsl 92 10 0 1 0 0 \$0-env-shape \$0-env-shaper Shape
-2 -7 2 10 -262144 -1 -1 0 1;
#X obj -323 -56 * 0.01;
#X obj -224 358 phasor~;
#X obj 186 -122 threshold~ 0.99 0 1 0;
#X obj 184 -99 bng 15 250 50 0 empty empty empty 17 7 0 10 -262144
-1 -1;
#X floatatom -236 -131 5 0 0 0 - +rdm -;
#X obj 185 -80 f;
#X obj 214 -80 + 1;
#X obj 183 -55 mod;
#X obj 105 102 bng 20 250 50 0 empty empty empty 17 7 0 10 -262144
-1 -1;
#X floatatom -130 -158 5 0 0 1 clock_multipl clock_multipl -;
#X obj -339 -5 +;
#X floatatom -236 -157 5 0 0 0 - - -;
#X obj -57 192 snapshot~;
#X floatatom -55 215 5 0 0 0 - - -;
#X obj 105 157 hsl 195 140 0 1 0 0 empty empty empty -2 -8 0 10 -262144
-1 -1 0 1;
#X obj 195 -8 bng 25 250 50 0 empty empty empty 17 7 0 10 -1 -262144
-262144;
#X obj 180 -31 sel 0 1 2 3;
#X obj -441 504 *~;
#X obj -268 502 vline~;
#X obj -300 502 *~;
#X obj -419 -50 t b f;
#X obj -418 -23 * 1;
#X text -76 60 fps/send play back to film;
#X obj -59 114 metro 40;
#X obj -60 92 tgl 15 0 empty empty empty 17 7 0 10 -262144 -1 -1 1
1;
#X floatatom 0 85 5 0 0 0 - - -;
#X obj -60 140 bng 15 250 50 0 empty empty empty 17 7 0 10 -262144
-1 -1;
#X text -547 -332 runs at original speed = 1;
#X text -198 -133 +;
#X text -188 -134 random;
#X obj -224 406 tabread~ array98;
#X obj -294 231 tabread4~ array17;
#X msg -295 -308 read -resize \$1 array17;
#X obj 163 25 s extCLK;
#X obj -224 266 r extT;
#X floatatom -224 288 9 0 0 0 - - -;
#X obj -223 309 expr (1/$f1)*1000;
#X floatatom -223 334 9 0 0 0 - - -;
#X obj -322 -83 random 1;
#X obj 172 676 s GRNtofilm;
#X text -195 -158 stpseq A;
#X floatatom -39 508 9 0 0 0 - - -;
#X msg -117 476 \$1 \$2;
#X obj -118 453 pack f f;
#X obj -448 14 phasor~;
#X obj -436 231 tabread4~ array17;
#X obj -435 87 *~;
#X floatatom 12 597 9 0 0 0 - - -;
#X msg -116 554 \$1 \$2;
#X obj -117 531 pack f f;
#X obj -409 504 vline~;
#X obj -488 -49 t b f;
#X obj -487 -20 * 1;
#X floatatom -480 -76 5 0 0 0 - - -;
#X obj -191 -53 bng 15 250 50 0 empty empty empty 17 7 0 10 -262144
-1 -1;
#X obj -189 -35 f;
#X obj -160 -35 + 1;
#X obj -191 -10 mod;
#X floatatom -235 -107 5 0 0 1 %_rdm %_rdm -;
#X obj -192 13 sel 0 1 2 3;
#X obj -315 -124 bng 15 250 50 0 empty empty empty 17 7 0 10 -262144
-1 -1;
#X text -260 -201 phase add rdm dev clock multiplied;
#X obj -332 -224 expr 44100 / $f1;
#X obj -251 174 spigot~;
#X obj -173 156 tgl 15 0 empty empty empty 17 7 0 10 -262144 -1 -1
0 1;
#X obj -412 175 spigot~;
#X obj -352 175 tgl 15 0 empty empty empty 17 7 0 10 -262144 -1 -1
1 1;
#X text -629 -109 playback speed free ply bck;
#X text -543 -316 playback speed granultn;
#X text 207 -189 array is 256;
#X obj -440 467 spigot~;
#X obj -393 438 tgl 15 0 empty empty empty 17 7 0 10 -262144 -1 -1
1 1;
#X text -472 364 SWItCH MOD;
#X obj -333 175 spigot-toggle_red;
#X floatatom -414 -76 5 0 0 0 - - -;
#X obj -66 385 r extT;
#X floatatom -66 408 9 0 0 0 - - -;
#X text -163 264 windowing;
#X text -141 281 ADSR *;
#X obj -334 148 == 0;
#X text -735 -394 Granular Theory;
#X obj -223 609 snapshot~;
#X floatatom -224 694 5 0 0 0 - - -;
#X obj -225 736 s adsrtoenv;
#X obj -224 382 *~ 254;
#X obj -66 430 * 0.2;
#X floatatom -731 63 5 0 0 0 - - -;
#X obj -730 11 * 0.01;
#X floatatom -664 -152 5 0 0 1 dev - -;
#X obj -729 -16 random 1;
#X obj -730 -260 bng 15 250 50 0 empty empty empty 17 7 0 10 -262144
-1 -1;
#X obj -729 -292 r BBmodtograin;
#X obj -728 -241 f;
#X obj -699 -241 + 1;
#X obj -730 -216 mod;
#X floatatom -662 -92 5 0 0 1 %_rdm - -;
#X obj -730 -192 sel 0 1 2 3;
#X obj -730 -36 bng 15 250 50 0 empty empty empty 17 7 0 10 -262144
-1 -1;
#X obj -726 -331 loadbang;
#X obj -248 -181 r Amod;
#X obj -123 168 +;
#X obj -123 139 t b f;
#X obj -57 162 spigot-toggle_red;
#X obj -224 467 spigot~;
#X obj -177 440 tgl 15 0 empty empty empty 17 7 0 10 -262144 -1 -1
0 1;
#X obj -255 590 *~;
#X floatatom -730 135 5 0 0 0 - - -;
#X obj -730 89 * 4;
#X obj -730 112 - 2;
#X obj -729 -65 spigot-toggle_red;
#X obj -731 37 +;
#X floatatom -661 -115 5 0 0 1 + - -;
#X floatatom -661 -64 5 0 0 1 ramp - -;
#X msg -729 184 \$1 \$2;
#X obj -730 157 pack f f;
#X obj -682 49 r extT;
#X floatatom -681 77 9 0 0 0 - - -;
#X obj -726 208 line;
#X floatatom -728 234 9 0 0 0 - - -;
#X obj -680 100 * 1;
#X msg -595 -197 0.75;
#X obj -554 -184 bng 15 250 50 0 empty empty empty 17 7 0 10 -262144
-1 -1;
#X obj -398 314 r sl_trgA;
#X obj -398 341 == 0;
#X obj -39 459 r trgrA;
#X obj -6 484 r sl_bngA;
#X obj -39 484 *;
#X obj -678 125 * 1;
#X msg -535 -188 1;
#X obj -675 -41 * 75;
#X obj -728 -357 s onoffA;
#X obj -1 720 r onoffA;
#X text -707 363 stp off = silence or free plybck/;
#X obj -37 137 s metroG;
#X obj -211 567 r metroG;
#X text 268 -32 env//CV_pos_phase quantifyer;
#X obj -62 -237 s fileDuration;
#X obj 443 242 r tstlinegr;
#X obj 433 399 hsl 195 15 0 1 0 0 empty empty empty -2 -8 0 10 -262144
-1 -1 19 1;
#X obj 443 295 t b f;
#X obj 441 322 / 1;
#X floatatom 438 363 12 0 0 0 - - -;
#X obj 442 196 r fileDuration;
#X obj -445 692 *~ 0.3;
#X obj -275 -19 spigot-toggle_red;
#X obj -264 -50 s rdmstp;
#X obj -331 571 r opagranu;
#X floatatom -425 637 9 0 0 0 - - -;
#X obj -107 343 s phasorenvtime;
#X obj -730 -91 bng 15 250 50 0 empty empty empty 17 7 0 10 -262144
-1 -1;
#X obj 257 1 spigot-toggle_red;
#X obj 257 25 s BBmodtograin;
#X obj -226 631 spigot-toggle_red;
#X obj -173 103 r trgrmodenvA;
#X obj -557 36 r~ modstograin;
#X obj -447 54 +~;
#X obj 279 456 r granu;
#X obj 197 457 r granupas;
#X obj 193 511 spigot-toggle_red;
#X obj 275 507 spigot-toggle_red;
#X obj 194 540 spigot-toggle_red;
#X obj 230 510 == 0;
#X obj -294 54 +~;
#X obj 16 159 r GRNtofilm;
#X obj -523 399 loadbang;
#X obj -525 419 bng 15 250 50 0 empty empty empty 17 7 0 10 -262144
-1 -1;
#X msg -504 418 1;
#X obj -560 -245 loadbang;
#X obj -552 -213 bng 15 250 50 0 empty empty empty 17 7 0 10 -262144
-1 -1;
#X msg -531 -217 1;
#X obj 374 444 loadbang;
#X obj 374 468 bng 15 250 50 0 empty empty empty 17 7 0 10 -262144
-1 -1;
#X msg 374 489 1;
#X obj -612 205 phasor~;
#X obj -611 149 t b f;
#X obj -610 178 * 1;
#X floatatom -610 128 5 0 0 0 - - -;
#X obj -500 -219 r plybckgrtgranupas;
#X obj -607 100 r plybckgrtgranu;
#X text -614 261 EXT GRNLTN;
#X text -483 133 NO ENV;
#X text -328 128 ENV;
#X obj -611 234 s~ phasorA;
#X obj -565 180 spigot-toggle_red;
#X obj -558 148 r phasrtogranu;
#X obj -416 572 r granupas;
#X obj -83 248 loadbang;
#X obj -81 269 bng 15 250 50 0 empty empty empty 17 7 0 10 -262144
-1 -1;
#X msg -56 268 200;
#X floatatom 4 690 9 0 0 0 - - -;
#X obj 9 570 r trgrafterA;
#X obj 173 653 f;
#X obj 172 610 r metroG;
#X floatatom 194 567 5 0 0 0 - - -;
#X obj 172 634 bng 15 250 50 0 empty empty empty 17 7 0 10 -262144
-1 -1;
#X floatatom -329 598 9 0 0 0 - - -;
#X obj -352 -416 r soundfileA;
#X floatatom 107 124 5 0 0 1 +phase_random - +rdm;
#X floatatom 129 103 5 0 0 1 clock_multipl - clock_multipl;
#X floatatom 241 125 5 0 0 1 %_ - %_rdm;
#X obj -191 -79 r extCLK;
#X obj -57 18 loadbang;
#X obj -59 38 bng 15 250 50 0 empty empty empty 17 7 0 10 -262144 -1
-1;
#X msg -38 37 1;
#X obj 40 83 r Flnght;
#X msg -352 -391 read -resize \$1 array17;
#X obj 11 623 == 0;
#X floatatom 1 742 9 0 0 0 - - -;
#X floatatom 73 637 9 0 0 0 - - -;
#X obj 72 608 r AAonoff;
#X obj 70 664 == 0;
#X obj 8 653 spigot-toggle_red;
#X obj -330 676 f;
#X obj -336 656 bng 15 250 50 0 empty empty empty 17 7 0 10 -262144
-1 -1;
#X obj -310 650 r granu;
#X obj -286 -150 * 1;
#X obj -125 728 r TRGnA_@load;
#X obj -98 777 bng 15 250 50 0 empty empty empty 17 7 0 10 -262144
-1 -1;
#X obj -109 827 bng 15 250 50 0 empty empty empty 17 7 0 10 -262144
-1 -1;
#X msg -251 829 \$1 \$2;
#X obj -252 806 pack f f;
#X obj -86 809 del;
#X msg -145 809 0;
#X msg -133 831 1;
#X floatatom -351 840 9 0 0 0 - - -;
#X obj -327 794 vline~;
#X obj -378 728 *~;
#X connect 1 0 2 0;
#X connect 2 0 64 1;
#X connect 2 0 3 1;
#X connect 2 0 80 0;
#X connect 2 0 154 0;
#X connect 3 0 49 0;
#X connect 4 0 180 0;
#X connect 5 0 38 0;
#X connect 5 0 69 0;
#X connect 7 0 37 0;
#X connect 10 0 28 1;
#X connect 10 0 162 0;
#X connect 11 0 12 0;
#X connect 12 0 50 0;
#X connect 18 0 10 0;
#X connect 19 0 20 0;
#X connect 19 0 102 0;
#X connect 20 0 21 0;
#X connect 21 0 23 0;
#X connect 22 0 56 1;
#X connect 23 0 24 0;
#X connect 23 0 25 0;
#X connect 24 0 23 1;
#X connect 25 0 34 0;
#X connect 26 0 51 0;
#X connect 26 0 168 0;
#X connect 27 0 25 1;
#X connect 28 0 62 1;
#X connect 28 0 4 1;
#X connect 28 0 201 0;
#X connect 29 0 28 0;
#X connect 30 0 31 0;
#X connect 31 0 176 0;
#X connect 34 0 26 0;
#X connect 34 1 33 0;
#X connect 35 0 161 0;
#X connect 36 0 37 1;
#X connect 37 0 161 0;
#X connect 38 0 39 0;
#X connect 38 1 39 1;
#X connect 39 0 4 0;
#X connect 41 0 44 0;
#X connect 42 0 41 0;
#X connect 43 0 41 1;
#X connect 44 0 120 0;
#X connect 44 0 151 0;
#X connect 48 0 7 1;
#X connect 48 0 121 0;
#X connect 49 0 7 0;
#X connect 50 0 1 0;
#X connect 52 0 53 0;
#X connect 53 0 54 0;
#X connect 53 0 166 0;
#X connect 54 0 55 0;
#X connect 55 0 19 0;
#X connect 56 0 18 0;
#X connect 59 0 61 0;
#X connect 60 0 36 0;
#X connect 61 0 60 0;
#X connect 62 0 173 0;
#X connect 63 0 88 0;
#X connect 64 0 63 0;
#X connect 65 0 224 0;
#X connect 66 0 68 0;
#X connect 67 0 66 0;
#X connect 68 0 35 1;
#X connect 68 0 123 0;
#X connect 69 0 70 0;
#X connect 69 1 70 1;
#X connect 70 0 62 0;
#X connect 71 0 69 0;
#X connect 72 0 73 0;
#X connect 73 0 74 0;
#X connect 73 0 75 0;
#X connect 74 0 73 1;
#X connect 75 0 77 0;
#X connect 76 0 75 1;
#X connect 77 0 78 0;
#X connect 78 0 56 0;
#X connect 80 0 39 0;
#X connect 80 0 70 0;
#X connect 80 0 193 0;
#X connect 81 0 30 0;
#X connect 82 0 81 2;
#X connect 82 0 118 0;
#X connect 82 0 122 0;
#X connect 83 0 30 0;
#X connect 84 0 83 2;
#X connect 88 0 35 0;
#X connect 89 0 91 1;
#X connect 89 0 84 0;
#X connect 89 0 119 0;
#X connect 89 0 88 2;
#X connect 89 0 123 1;
#X connect 91 0 84 0;
#X connect 92 0 38 0;
#X connect 93 0 94 0;
#X connect 94 0 103 0;
#X connect 97 0 91 0;
#X connect 99 0 170 0;
#X connect 100 0 101 0;
#X connect 102 0 48 0;
#X connect 103 0 61 1;
#X connect 103 0 67 1;
#X connect 103 0 239 1;
#X connect 103 0 238 1;
#X connect 104 0 125 0;
#X connect 105 0 128 0;
#X connect 106 0 147 0;
#X connect 107 0 105 0;
#X connect 108 0 110 0;
#X connect 109 0 108 0;
#X connect 110 0 111 0;
#X connect 110 0 112 0;
#X connect 111 0 110 1;
#X connect 112 0 114 0;
#X connect 113 0 112 1;
#X connect 113 0 145 1;
#X connect 114 0 167 0;
#X connect 115 0 107 0;
#X connect 117 0 233 0;
#X connect 118 0 120 1;
#X connect 119 0 118 0;
#X connect 119 1 118 1;
#X connect 120 0 30 0;
#X connect 121 0 99 0;
#X connect 122 0 121 2;
#X connect 123 0 99 0;
#X connect 124 0 132 0;
#X connect 125 0 126 0;
#X connect 126 0 124 0;
#X connect 127 0 115 0;
#X connect 128 0 104 0;
#X connect 129 0 128 1;
#X connect 130 0 137 1;
#X connect 131 0 135 0;
#X connect 132 0 131 0;
#X connect 133 0 134 0;
#X connect 134 0 137 0;
#X connect 135 0 136 0;
#X connect 136 0 5 0;
#X connect 137 0 145 0;
#X connect 138 0 129 0;
#X connect 139 0 138 0;
#X connect 139 0 146 0;
#X connect 140 0 141 0;
#X connect 141 0 89 0;
#X connect 142 0 144 0;
#X connect 143 0 144 1;
#X connect 144 0 59 0;
#X connect 145 0 132 1;
#X connect 146 0 5 0;
#X connect 147 0 107 1;
#X connect 149 0 225 0;
#X connect 152 0 99 0;
#X connect 155 0 158 0;
#X connect 157 0 158 0;
#X connect 157 1 158 1;
#X connect 158 0 159 0;
#X connect 159 0 156 0;
#X connect 159 0 177 0;
#X connect 160 0 157 0;
#X connect 161 0 6 0;
#X connect 161 0 6 1;
#X connect 162 0 4 1;
#X connect 162 0 163 0;
#X connect 164 0 213 0;
#X connect 165 0 161 1;
#X connect 165 0 170 1;
#X connect 167 0 127 0;
#X connect 168 0 169 0;
#X connect 170 0 100 0;
#X connect 171 0 97 0;
#X connect 171 0 82 0;
#X connect 172 0 173 1;
#X connect 172 0 180 1;
#X connect 173 0 83 0;
#X connect 173 0 64 0;
#X connect 174 0 177 1;
#X connect 174 0 179 0;
#X connect 175 0 176 1;
#X connect 176 0 178 0;
#X connect 177 0 211 0;
#X connect 178 0 211 0;
#X connect 179 0 178 1;
#X connect 180 0 3 0;
#X connect 180 0 81 0;
#X connect 181 0 32 0;
#X connect 182 0 183 0;
#X connect 183 0 184 0;
#X connect 184 0 89 0;
#X connect 185 0 186 0;
#X connect 186 0 187 0;
#X connect 187 0 5 0;
#X connect 188 0 189 0;
#X connect 189 0 190 0;
#X connect 190 0 176 1;
#X connect 190 0 178 1;
#X connect 191 0 200 0;
#X connect 192 0 193 0;
#X connect 192 1 193 1;
#X connect 193 0 191 0;
#X connect 194 0 192 0;
#X connect 195 0 5 0;
#X connect 196 0 194 0;
#X connect 201 0 191 1;
#X connect 202 0 201 1;
#X connect 203 0 231 0;
#X connect 203 0 165 0;
#X connect 204 0 205 0;
#X connect 205 0 206 0;
#X connect 206 0 53 0;
#X connect 207 0 67 0;
#X connect 208 0 65 0;
#X connect 209 0 57 0;
#X connect 210 0 212 0;
#X connect 211 0 209 1;
#X connect 212 0 209 0;
#X connect 213 0 100 0;
#X connect 213 0 165 0;
#X connect 214 0 223 0;
#X connect 218 0 72 0;
#X connect 219 0 220 0;
#X connect 220 0 221 0;
#X connect 221 0 42 0;
#X connect 222 0 43 0;
#X connect 223 0 1 0;
#X connect 224 0 229 0;
#X connect 226 0 228 0;
#X connect 226 0 229 1;
#X connect 227 0 226 0;
#X connect 228 0 207 0;
#X connect 229 0 207 0;
#X connect 230 0 100 0;
#X connect 231 0 230 0;
#X connect 232 0 230 1;
#X connect 233 0 29 0;
#X connect 234 0 235 0;
#X connect 235 0 240 0;
#X connect 235 0 239 0;
#X connect 236 0 241 0;
#X connect 237 0 242 0;
#X connect 238 0 237 0;
#X connect 239 0 236 0;
#X connect 240 0 238 0;
#X connect 241 0 238 0;
#X connect 243 0 244 1;
#X coords 0 -1 1 1 205 275 2 100 100;
