#N canvas 412 295 1440 878 12;
#N canvas 67 224 450 432 :: 0;
#X text 24 16 the format [pix_film] is able to decode depends on the
system you are running Gem.;
#X text 30 101 Win32: [pix_film] should be able to decode AVIs (all
installed codecs). If you are lucky and your version of Gem is compiled
with quicktime-support and you have quicktime installed on your machine
\, you might be able to play back quicktime MOVs.;
#X text 31 63 macOS-X: [pix_film] should be ablte to decode quicktime
MOVs.;
#X text 32 175 linux: that's a bit tricky. Since there is no "native"
video-format for linux it heavily depends on what you have installed
on your machine and how Gem has been compiled. If your system supports
it \, [pix_film] is able to use quicktime4linux/libquicktime to decode
quicktime-MOVs \, libmpeg1/libmpeg3 to decode MPEG2-videos and libaviplay
which opens a wide range of supported formats (with the possibility
to install additional codec-plugins) \, from AVI via MPEG2 to DivX
\, although i have found MPEG support rather unstable. libaviplay does
not support quicktime decoding. There is also some ruddy ffmpeg support
(apart from the one supplied by libaviplay).;
#X text 36 351 although one wouldn't believe it \, but i have found
that under linux i could play most formats...;
#X restore 337 773 pd :: FORMATS;
#X msg 170 596 label \$1;
#X floatatom 431 222 5 0 0 0 - - -;
#X obj 169 618 s \$4-cnv;
#X obj 321 371 outlet;
#X msg 169 706 label \$1;
#X obj 600 389 bng 15 250 50 0 empty empty empty 17 7 0 10 -262144
-1 -1;
#X obj 771 255 spigot-toggle_red;
#X obj 635 389 bng 15 250 50 0 empty empty empty 17 7 0 10 -262144
-1 -1;
#X obj 607 255 spigot-toggle_red;
#X obj 798 255 spigot-toggle_red;
#X obj 169 729 s \$3-cnv;
#X obj 375 230 random;
#X floatatom 377 203 5 0 0 0 - - -;
#X obj 517 275 f;
#X obj 516 326 sel;
#X obj 517 301 mod 10;
#X obj 545 275 + 1;
#X floatatom 409 365 5 0 0 0 - - -;
#X obj 371 403 random;
#X floatatom 371 348 5 0 0 0 - - -;
#X obj -235 80 openpanel;
#X obj -198 525 openpanel;
#X obj 229 328 r lo;
#X obj 714 279 r trgrA;
#X obj 808 279 r trgrB;
#X obj 777 347 * 100;
#X obj 779 202 * 100;
#X obj 568 302 * 1;
#X obj 0 189 folder2;
#X obj 1 363 folder3;
#X floatatom -174 275 5 0 0 2 - - -;
#X obj -119 300 spigot-toggle_red;
#X obj 240 403 outlet;
#X obj 230 368 s soundfileA;
#X msg 205 222 open \$1;
#X obj 82 680 splitfilename;
#X obj 83 570 splitfilename;
#X obj 634 422 bng 15 250 50 0 empty empty empty 17 7 0 10 -262144
-1 -1;
#X obj 266 223 s movieA;
#X obj 207 198 r lo;
#X obj 57 221 cnv 15 122 18 empty empty °_________% 30 11 1 14 -4034
-1 0;
#X obj 137 240 tgl 20 0 empty empty BA 3 10 1 12 -4034 -1 -1 0 1;
#X floatatom 135 222 6 0 0 3 - - -;
#X obj 58 240 tgl 20 0 empty empty A 5 9 1 12 -4034 -1 -1 0 1;
#X obj 75 240 tgl 20 0 empty empty B 6 9 0 12 -4034 -1 -1 0 1;
#X floatatom 58 221 5 0 0 2 - - -;
#X obj 158 240 tgl 20 0 empty empty BB 3 10 1 12 -4034 -1 -1 0 1;
#X obj 58 393 cnv 15 120 20 empty sendV=A °________% 33 13 1 14 -1
-1 0;
#X floatatom 135 394 6 0 0 1 - - -;
#X floatatom 61 394 5 0 0 2 - - -;
#X obj 642 255 spigot-toggle_red;
#X obj 798 303 spigot-toggle_vert;
#X obj 771 303 spigot-toggle_vert;
#X obj 743 303 r A;
#X obj 817 303 r B;
#X obj 769 325 * 1;
#X obj 797 325 * 1;
#X obj -998 239 s save_sNd_A;
#X obj -850 239 s save_sNd_B;
#X obj -714 239 s save_sNd_BB;
#X obj -575 239 s save_sNd_BB1;
#X obj -577 201 r send_save_sNd_BB1;
#X obj -715 201 r send_save_sNd_BB;
#X obj -849 201 r send_save_sNd_B;
#X obj -997 201 r send_save_sNd_A;
#X obj -717 419 s save_sNd_A;
#X obj -840 419 s save_sNd_B;
#X obj -977 419 s save_sNd_BB;
#X obj -566 419 s save_sNd_BB1;
#X obj -568 384 r send_save_sNd_BB1;
#X obj -978 384 r send_save_sNd_BB;
#X obj -841 384 r send_save_sNd_B;
#X obj -718 384 r send_save_sNd_A;
#X obj -435 201 r send_save_every;
#X obj -433 239 s save_sNd_every;
#X obj -429 384 r send_save_every;
#X obj -427 419 s save_every;
#X obj 0 148 cnv 2 200 20 empty empty empty 0 14 1 14 -4034 -1 0;
#X obj 11 -364 s folder2;
#X msg 14 -669 nada_here;
#X msg -100 843 nada_here;
#X obj -120 998 s folder3;
#X obj 0 411 cnv 33 200 146 empty empty empty 6 12 1 14 -1 -66577 0
;
#X obj 0 322 cnv 3 200 18 empty empty empty 0 14 1 14 -4034 -1 0;
#X obj 0 0 cnv 15 200 150 empty empty OPEN_VIDEO__Write/select 5 160
1 12 -1 -4034 0;
#X floatatom -275 356 5 0 0 0 - - -;
#X obj -283 416 s sendV=A;
#X obj -277 299 sel;
#X obj 96 222 bng 40 250 50 0 empty empty RDM 6 20 1 12 -4034 -1 -1
;
#X obj 98 394 bng 38 250 50 0 empty sendV=A RDM 6 20 1 12 -1 -1 -1
;
#X msg -242 330 22;
#X msg 6 759 starter/*.wav;
#X obj -280 263 r lo;
#X symbolatom 3 151 28 0 0 0 - - -;
#X msg 13 -641 starter/*.mov;
#X obj 0 168 cnv 15 200 20 empty \$10-cnv cutsraccords/*.mov 4 10 0
12 -1 -4034 0;
#X obj 81 -365 s \$10-cnv;
#X msg 64 -388 label \$1;
#X obj 12 -388 symbol;
#X obj 6 41 bng 15 500 500 0 empty empty Shorses 18 6 1 10 -260097
-1 -260097;
#X obj 6 57 bng 15 500 500 0 empty empty restez 18 6 1 10 -260097 -1
-260097;
#X obj 6 24 bng 15 500 500 0 empty empty tocata 18 6 1 10 -260097 -1
-260097;
#X obj 6 75 bng 15 500 500 0 empty empty avBO4 18 6 1 10 -260097 -1
-260097;
#X msg 9 -439 avBO4/*.mov;
#X obj 90 76 bng 15 500 500 0 empty empty axe_reboot 18 6 1 10 -260097
-1 -260097;
#X obj 90 24 bng 15 500 500 0 empty empty greenscreen 18 6 1 10 -260097
-1 -260097;
#X obj 90 59 bng 15 500 500 0 empty empty dance 18 6 1 10 -260097 -1
-260097;
#X obj 90 41 bng 15 500 500 0 empty empty vsmpl 18 6 1 10 -260097 -1
-260097;
#X msg 12 -619 axe_reboot/*.mov;
#X obj 6 93 bng 15 500 500 0 empty empty starter 18 6 1 10 -260097
-1 -260097;
#X obj 0 341 cnv 15 200 22 empty \$11-cnv cutsraccords/*.wav 7 12 0
12 -1 -4034 0;
#X symbolatom 3 325 28 0 0 0 - - -;
#X msg 59 994 label \$1;
#X obj 6 993 symbol;
#X obj 9 500 bng 15 500 500 0 empty empty kitchina 18 6 1 10 -260097
-1 -260097;
#X obj 9 517 bng 15 500 500 0 empty empty axe_reboot 18 6 1 10 -260097
-1 -260097;
#X obj 9 483 bng 15 500 500 0 empty empty starter1 18 6 1 10 -260097
-1 -260097;
#X obj 101 465 bng 15 500 500 0 empty empty pub70 18 6 1 10 -260097
-1 -260097;
#X obj 129 994 s \$11-cnv;
#X msg 5 878 starter/*.wav;
#X obj 9 466 bng 15 500 500 0 empty empty starter 18 6 1 10 -260097
-1 -260097;
#X msg 5 922 kitchina/*.wav;
#X msg 5 943 axe_reboot/*.wav;
#X msg 5 964 pub70/*.wav;
#X obj 101 500 bng 15 500 500 0 empty empty asmlp2 18 6 1 10 -260097
-1 -260097;
#X obj 101 516 bng 15 500 500 0 empty empty DrumaBank 18 6 1 10 -260097
-1 -260097;
#X obj 101 484 bng 15 500 500 0 empty empty asmpl 18 6 1 10 -260097
-1 -260097;
#X msg 6 831 DrumaBank/*.wav;
#X msg 6 807 asmlp2/*.wav;
#X msg 12 -577 vsmpl/*.mov;
#X msg 6 782 asmpl/*.wav;
#X msg 5 901 starter1/*.wav;
#X msg 162 -648 starter/*.wav;
#X msg 161 -626 axe_reboot/*.wav;
#X msg 163 -580 vsmpl/*.wav;
#X msg 161 -451 avBO4/*.wav;
#X obj 162 -389 symbol;
#X obj 162 -363 s folder3;
#X msg 211 -389 label \$1;
#X obj 234 -363 s \$11-cnv;
#X msg 161 -606 greenscreen/*.wav;
#X msg 12 -598 greenscreen/*.mov;
#X obj 3 221 cnv 10 36 38 empty empty empty 60 22 1 10 -1 -262144 0
;
#X obj 1 300 cnv 15 181 25 empty empty OPEN_AUDIO__Write/select 5 20
1 12 -1 -4034 0;
#X obj 2 393 cnv 10 40 38 empty empty empty 60 22 1 10 -1 -262144 0
;
#X obj 310 87 cnv 3 3 400 empty empty empty 20 12 0 14 -1 -66577 0
;
#X obj 40 241 bng 18 500 500 0 empty empty load -28 9 1 12 -4034 -1
-4034;
#X obj 39 222 bng 18 500 500 0 empty empty clear -28 9 1 12 -4034 -1
-4034;
#X obj 1 260 cnv 15 200 45 empty empty empty 10 9 1 10 -1 -260097 0
;
#X obj 42 395 bng 18 500 500 0 empty empty clear -28 9 1 12 -4034 -1
-4034;
#X obj 42 413 bng 18 500 500 0 empty empty load -28 9 1 12 -4034 -1
-4034;
#X obj 137 265 tgl 20 0 empty empty V 3 11 1 22 -262144 -1 -4034 1
1;
#X msg -279 329 76;
#X msg -281 385 color \$1 22;
#X msg 10 -530 dance/*.mov;
#X msg 163 -532 dance/*.wav;
#X msg 10 -506 tocata/*.mov;
#X msg 162 -512 tocata/*.wav;
#X obj 632 531 f;
#X obj 631 582 sel;
#X obj 632 557 mod 10;
#X obj 660 531 + 1;
#X obj 683 558 * 1;
#X obj 218 537 s SmplbangA;
#X obj 233 501 s SmplbangA;
#X obj 164 -419 spigot-toggle_vert;
#X msg 10 -553 starter1/*.mov;
#X msg 161 -555 starter1/*.wav;
#X obj 675 431 spigot-toggle_red;
#X obj 692 431 spigot-toggle_red;
#X obj 770 404 spigot-toggle_red;
#X obj 798 404 spigot-toggle_red;
#X obj 0 13 cnv 3 3 508 empty empty empty 20 12 0 14 -1 -66577 0;
#X obj 518 439 s TRGnA_@load;
#X obj 713 431 spigot-toggle_red;
#X obj 731 431 spigot-toggle_red;
#X obj 466 553 r T$;
#X obj 487 577 r T1;
#X obj 487 603 spigot-toggle_red;
#X obj 467 604 spigot-toggle_vert;
#X obj 466 643 s T$mod;
#X obj 539 378 tgl 20 0 empty empty ENV 1 10 0 10 -260097 -1 -1 1 1
;
#X obj 469 404 spigot-toggle_red;
#X obj 487 402 spigot-toggle_red;
#X obj 518 402 spigot-toggle_red;
#X obj 1 125 cnv 15 181 25 empty empty OPEN_VIDEO__Write/select 5 20
1 12 -1 -4034 0;
#X obj 516 346 r envFRMsmplsendA;
#X obj 488 465 s envFRMsmplsendA;
#X obj 470 489 s envFRMsmplsendB;
#X obj -99 302 spigot-toggle_red;
#X obj -82 302 spigot-toggle_red;
#X obj -61 302 spigot-toggle_red;
#X obj -43 302 spigot-toggle_red;
#X obj 486 306 bng 15 250 50 0 empty empty empty 17 7 0 10 -262144
-1 -1;
#X obj 674 165 spigot-toggle_red;
#X floatatom -197 208 5 0 0 2 - - -;
#X floatatom -119 536 5 0 0 2 - - -;
#X obj 278 3 cnv 3 3 508 empty empty empty 20 12 0 14 -1 -66577 0;
#X msg -206 173 symbol open_a_folder;
#X msg 128 909 label \$1;
#X obj 198 909 s \$11-cnv;
#X obj 94 266 cnv 15 40 17 empty empty empty 20 12 0 14 -262144 -66577
0;
#X floatatom 92 266 6 0 0 0 - - -;
#X obj 96 437 cnv 15 40 17 empty empty empty 20 12 0 14 -262144 -66577
0;
#X floatatom 95 437 6 0 0 0 - - -;
#X obj 0 209 cnv 15 200 12 empty empty empty 4 10 0 12 -1 -4034 0;
#X obj 0 382 cnv 15 200 12 empty empty empty 4 10 0 12 -1 -4034 0;
#X obj 178 221 tgl 23 0 empty empty empty 17 7 0 10 -1 -1 -1 0 1;
#X obj 178 244 tgl 23 0 empty empty empty 17 7 0 10 -1 -1 -1 0 1;
#X obj 178 259 tgl 23 0 empty empty empty 17 7 0 10 -1 -1 -1 0 1;
#X obj 178 302 tgl 23 0 empty empty empty 17 7 0 10 -1 -1 -1 0 1;
#X obj 177 394 tgl 23 0 empty empty empty 17 7 0 10 -1 -1 -1 0 1;
#X obj 297 615 tgl 23 0 empty empty empty 17 7 0 10 -1 -1 -1 0 1;
#X obj 137 411 tgl 20 0 empty sendV=A BA 3 9 1 12 -1 -1 -1 0 1;
#X obj 158 411 tgl 20 0 empty sendV=A BB 2 10 1 12 -1 -1 -1 0 1;
#X obj 61 411 tgl 20 0 empty sendV=A A 5 9 0 12 -1 -1 -1 0 1;
#X obj 77 411 tgl 20 0 empty sendV=A B 5 9 1 12 -1 -1 -1 0 1;
#X msg 10 -484 Shorses/*.mov;
#X msg 162 -492 Shorses/*.wav;
#X msg 10 -462 restez/*.mov;
#X msg 162 -470 restez/*.wav;
#X obj 605 314 r BB;
#X obj 290 578 bng 15 250 50 0 empty empty empty 17 7 0 10 -262144
-1 -1;
#X obj 634 367 r B;
#X floatatom 484 89 6 0 0 3 - - -;
#X connect 1 0 3 0;
#X connect 2 0 12 1;
#X connect 5 0 11 0;
#X connect 6 0 9 0;
#X connect 6 0 169 0;
#X connect 6 0 175 0;
#X connect 7 0 27 0;
#X connect 8 0 51 0;
#X connect 8 0 170 0;
#X connect 8 0 176 0;
#X connect 9 0 14 0;
#X connect 10 0 27 0;
#X connect 12 0 13 0;
#X connect 13 0 46 0;
#X connect 14 0 16 0;
#X connect 14 0 17 0;
#X connect 15 0 89 0;
#X connect 15 0 194 0;
#X connect 16 0 15 0;
#X connect 17 0 14 1;
#X connect 18 0 19 1;
#X connect 19 0 20 0;
#X connect 20 0 50 0;
#X connect 21 0 29 0;
#X connect 21 0 29 1;
#X connect 22 0 30 1;
#X connect 22 0 30 0;
#X connect 23 0 49 0;
#X connect 24 0 53 1;
#X connect 25 0 52 1;
#X connect 26 0 50 0;
#X connect 27 0 46 0;
#X connect 28 0 16 1;
#X connect 29 0 196 0;
#X connect 29 1 37 0;
#X connect 29 1 35 0;
#X connect 29 2 2 0;
#X connect 30 0 197 0;
#X connect 30 0 205 0;
#X connect 30 0 223 0;
#X connect 30 1 36 0;
#X connect 30 1 4 0;
#X connect 30 1 34 0;
#X connect 30 2 18 0;
#X connect 31 0 32 0;
#X connect 31 0 203 0;
#X connect 32 0 50 0;
#X connect 35 0 39 0;
#X connect 36 1 5 0;
#X connect 37 1 1 0;
#X connect 38 0 159 0;
#X connect 38 0 185 0;
#X connect 40 0 43 0;
#X connect 42 0 60 0;
#X connect 42 0 9 1;
#X connect 42 0 192 0;
#X connect 43 0 28 0;
#X connect 43 0 75 0;
#X connect 43 0 195 0;
#X connect 44 0 58 0;
#X connect 44 0 7 1;
#X connect 44 0 9 1;
#X connect 44 0 190 0;
#X connect 45 0 59 0;
#X connect 45 0 10 1;
#X connect 45 0 51 1;
#X connect 45 0 191 0;
#X connect 46 0 31 0;
#X connect 46 0 29 0;
#X connect 47 0 61 0;
#X connect 47 0 51 1;
#X connect 47 0 193 0;
#X connect 49 0 77 0;
#X connect 49 0 163 0;
#X connect 50 0 30 0;
#X connect 50 0 33 0;
#X connect 50 0 165 0;
#X connect 51 0 14 0;
#X connect 52 0 57 0;
#X connect 53 0 56 0;
#X connect 54 0 53 0;
#X connect 55 0 52 0;
#X connect 56 0 7 0;
#X connect 56 0 171 0;
#X connect 57 0 10 0;
#X connect 57 0 172 0;
#X connect 62 0 47 0;
#X connect 63 0 42 0;
#X connect 64 0 45 0;
#X connect 65 0 44 0;
#X connect 70 0 215 0;
#X connect 71 0 214 0;
#X connect 72 0 217 0;
#X connect 73 0 216 0;
#X connect 74 0 43 0;
#X connect 76 0 49 0;
#X connect 80 0 99 0;
#X connect 81 0 114 0;
#X connect 86 0 154 0;
#X connect 88 0 153 0;
#X connect 88 1 91 0;
#X connect 89 0 12 0;
#X connect 90 0 19 0;
#X connect 90 0 165 0;
#X connect 91 0 86 0;
#X connect 92 0 82 0;
#X connect 93 0 153 0;
#X connect 94 0 79 0;
#X connect 94 0 99 0;
#X connect 95 0 99 0;
#X connect 95 0 79 0;
#X connect 98 0 97 0;
#X connect 99 0 98 0;
#X connect 100 0 218 0;
#X connect 100 0 219 0;
#X connect 101 0 220 0;
#X connect 101 0 221 0;
#X connect 102 0 157 0;
#X connect 102 0 158 0;
#X connect 103 0 104 0;
#X connect 103 0 136 0;
#X connect 104 0 99 0;
#X connect 104 0 79 0;
#X connect 105 0 109 0;
#X connect 105 0 134 0;
#X connect 106 0 142 0;
#X connect 106 0 141 0;
#X connect 107 0 155 0;
#X connect 107 0 156 0;
#X connect 108 0 130 0;
#X connect 108 0 135 0;
#X connect 109 0 99 0;
#X connect 109 0 79 0;
#X connect 110 0 95 0;
#X connect 110 0 133 0;
#X connect 112 0 82 0;
#X connect 112 0 200 0;
#X connect 113 0 119 0;
#X connect 113 0 11 0;
#X connect 114 0 113 0;
#X connect 115 0 122 0;
#X connect 116 0 123 0;
#X connect 117 0 132 0;
#X connect 118 0 124 0;
#X connect 120 0 114 0;
#X connect 120 0 82 0;
#X connect 121 0 120 0;
#X connect 122 0 114 0;
#X connect 122 0 82 0;
#X connect 123 0 114 0;
#X connect 123 0 82 0;
#X connect 124 0 114 0;
#X connect 124 0 82 0;
#X connect 125 0 129 0;
#X connect 126 0 128 0;
#X connect 127 0 131 0;
#X connect 128 0 114 0;
#X connect 128 0 82 0;
#X connect 129 0 114 0;
#X connect 129 0 82 0;
#X connect 130 0 99 0;
#X connect 130 0 79 0;
#X connect 131 0 114 0;
#X connect 131 0 82 0;
#X connect 132 0 114 0;
#X connect 132 0 82 0;
#X connect 133 0 166 0;
#X connect 134 0 166 0;
#X connect 135 0 166 0;
#X connect 136 0 166 0;
#X connect 137 0 139 0;
#X connect 139 0 140 0;
#X connect 141 0 166 0;
#X connect 142 0 99 0;
#X connect 142 0 79 0;
#X connect 147 0 21 0;
#X connect 148 0 80 0;
#X connect 148 0 29 2;
#X connect 150 0 81 0;
#X connect 150 0 30 2;
#X connect 151 0 22 0;
#X connect 152 0 88 0;
#X connect 152 0 32 1;
#X connect 152 0 166 1;
#X connect 152 0 190 1;
#X connect 152 0 191 1;
#X connect 152 0 192 1;
#X connect 152 0 193 1;
#X connect 152 0 195 1;
#X connect 153 0 86 0;
#X connect 154 0 87 0;
#X connect 155 0 99 0;
#X connect 155 0 79 0;
#X connect 156 0 166 0;
#X connect 157 0 99 0;
#X connect 157 0 79 0;
#X connect 158 0 166 0;
#X connect 159 0 161 0;
#X connect 159 0 162 0;
#X connect 160 0 90 0;
#X connect 161 0 160 0;
#X connect 162 0 159 1;
#X connect 163 0 161 1;
#X connect 166 0 138 0;
#X connect 166 0 137 0;
#X connect 167 0 79 0;
#X connect 168 0 166 0;
#X connect 169 0 38 0;
#X connect 170 0 38 0;
#X connect 171 0 26 0;
#X connect 172 0 26 0;
#X connect 175 0 38 0;
#X connect 176 0 38 0;
#X connect 177 0 180 0;
#X connect 178 0 179 0;
#X connect 179 0 181 0;
#X connect 180 0 181 0;
#X connect 182 0 184 1;
#X connect 182 0 183 1;
#X connect 182 0 185 1;
#X connect 183 0 180 1;
#X connect 183 0 189 0;
#X connect 184 0 179 1;
#X connect 184 0 188 0;
#X connect 185 0 174 0;
#X connect 187 0 182 0;
#X connect 190 0 216 0;
#X connect 191 0 217 0;
#X connect 192 0 214 0;
#X connect 193 0 215 0;
#X connect 195 0 49 0;
#X connect 196 0 31 0;
#X connect 199 0 94 0;
#X connect 199 0 112 0;
#X connect 200 0 201 0;
#X connect 214 0 175 1;
#X connect 214 0 183 0;
#X connect 214 0 68 0;
#X connect 215 0 176 1;
#X connect 215 0 184 0;
#X connect 215 0 69 0;
#X connect 216 0 171 1;
#X connect 216 0 169 1;
#X connect 216 0 183 0;
#X connect 216 0 66 0;
#X connect 217 0 172 1;
#X connect 217 0 170 1;
#X connect 217 0 184 0;
#X connect 217 0 67 0;
#X connect 218 0 99 0;
#X connect 218 0 79 0;
#X connect 219 0 166 0;
#X connect 220 0 99 0;
#X connect 220 0 79 0;
#X connect 221 0 166 0;
#X connect 222 0 6 0;
#X connect 223 0 185 0;
#X connect 224 0 8 0;
#X connect 225 0 28 0;
#X coords 0 -1 1 1 201 558 2 0 0;
