#N canvas 540 166 777 691 12;
#X obj 1507 -868 t b f;
#X obj 1502 -841 + 1, f 6;
#X floatatom 1501 -819 8 0 3 0 - - -;
#X floatatom 1500 -955 8 0 3 0 - - -;
#X obj 1728 -974 spigot-toggle_red;
#X floatatom 1728 -1032 5 0 0 0 - - -;
#X obj 1511 -1133 spigot-toggle_red;
#X obj 1722 -946 * 100;
#X obj 1504 -1064 f;
#X obj 1533 -1064 + 1;
#X obj 1505 -1041 mod;
#X obj 1505 -1021 sel;
#X obj 1503 -997 bng 15 250 50 0 empty empty empty 17 7 0 10 -262144
-1 -1;
#X obj 1522 -998 bng 15 250 50 0 empty empty empty 17 7 0 10 -262144
-1 -1;
#X floatatom 1580 -1051 5 0 0 0 - - -;
#X obj 1501 -771 line;
#X obj 1502 -799 pack f1 f2;
#X floatatom 1501 -742 8 0 3 0 - - -;
#X obj 1626 -872 t b f;
#X obj 1621 -850 * 1, f 6;
#X obj 1507 -933 t b f;
#X obj 1502 -911 * 1, f 6;
#X floatatom 1504 -891 8 0 3 0 - - -;
#X obj 1579 -873 t b f;
#X obj 1574 -851 * 1, f 6;
#X obj 1572 -897 r jitermletroT;
#X obj 1501 -978 random 4000;
#X text 1648 -1079 RDM+A grain rate scaled and targeted;
#X obj 1507 -638 outlet;
#X obj 1423 -1028 inlet;
#X obj 1800 -1031 inlet;
#X obj 1846 -1007 inlet;
#X obj 1875 -962 inlet;
#X obj 1921 -938 inlet;
#X obj 1934 -899 inlet;
#X obj 1529 -1110 inlet;
#X obj 1443 -1087 r jitermletro;
#X obj 1728 -1054 r B;
#X connect 0 0 1 0;
#X connect 0 1 1 1;
#X connect 1 0 2 0;
#X connect 2 0 16 0;
#X connect 3 0 21 0;
#X connect 4 0 7 0;
#X connect 5 0 4 0;
#X connect 6 0 8 0;
#X connect 7 0 0 0;
#X connect 8 0 9 0;
#X connect 8 0 10 0;
#X connect 9 0 8 1;
#X connect 10 0 11 0;
#X connect 11 0 12 0;
#X connect 11 1 13 0;
#X connect 12 0 26 0;
#X connect 14 0 10 1;
#X connect 14 0 23 0;
#X connect 15 0 17 0;
#X connect 16 0 15 0;
#X connect 17 0 28 0;
#X connect 18 0 19 0;
#X connect 18 1 19 1;
#X connect 19 0 16 1;
#X connect 20 0 21 0;
#X connect 20 1 21 1;
#X connect 21 0 22 0;
#X connect 22 0 1 0;
#X connect 23 0 24 0;
#X connect 23 1 24 1;
#X connect 24 0 19 0;
#X connect 25 0 24 0;
#X connect 26 0 3 0;
#X connect 29 0 26 1;
#X connect 30 0 14 0;
#X connect 31 0 20 0;
#X connect 32 0 0 0;
#X connect 33 0 18 0;
#X connect 34 0 4 1;
#X connect 35 0 6 1;
#X connect 36 0 6 0;
#X connect 37 0 5 0;
