#N canvas 224 30 777 691 12;
#X obj 1649 -640 t b f;
#X obj 1499 -791 + 1, f 6;
#X floatatom 1498 -769 8 0 3 0 - - -;
#X floatatom 1500 -953 8 0 3 0 - - -;
#X obj 1657 -922 r A;
#X obj 1658 -874 spigot-toggle_red;
#X floatatom 1657 -900 5 0 0 0 - - -;
#X obj 1511 -1133 spigot-toggle_red;
#X obj 1504 -1064 f;
#X obj 1533 -1064 + 1;
#X obj 1505 -1041 mod;
#X obj 1505 -1021 sel;
#X obj 1503 -997 bng 15 250 50 0 empty empty empty 17 7 0 10 -262144
-1 -1;
#X obj 1522 -999 bng 15 250 50 0 empty empty empty 17 7 0 10 -262144
-1 -1;
#X floatatom 1580 -1051 5 0 0 0 - - -;
#X obj 1515 -891 t b f;
#X floatatom 1498 -844 8 0 3 0 - - -;
#X text 1648 -1079 RDM+A grain rate scaled and targeted;
#X obj 1504 -588 outlet;
#X obj 1591 -1087 inlet;
#X obj 1393 -900 inlet;
#X obj 1768 -705 inlet;
#X obj 1733 -913 inlet;
#X obj 1529 -1110 inlet;
#X floatatom 1322 -898 8 0 3 0 - - -;
#X obj 1330 -954 t b f;
#X obj 1649 -977 spigot-toggle_red;
#X floatatom 1647 -1002 5 0 0 0 - - -;
#X obj 1731 -1008 inlet;
#X obj 1647 -1024 r Amod;
#X obj 1406 -657 outlet;
#X obj 1500 -978 random 1000;
#X obj 1644 -850 * 1000;
#X obj 1643 -949 * 1000;
#X msg 1322 -991 1000;
#X obj 1443 -1087 r jitermletroOFST;
#X obj 1656 -728 spigot-toggle_red;
#X floatatom 1657 -754 5 0 0 0 - - -;
#X obj 1733 -750 inlet;
#X obj 1649 -696 * 1000;
#X obj 1656 -790 r rdmstp;
#X floatatom 1360 -870 8 0 3 0 - - -;
#X floatatom 1771 -671 8 0 3 0 - - -;
#X obj 1772 -639 spigot-toggle_red;
#X obj 1734 -638 == 0;
#X obj 1323 -926 - 1, f 6;
#X obj 1327 -870 *;
#X floatatom 1326 -838 8 0 3 0 - - -;
#X obj 1510 -869 - 1, f 6;
#X obj 1786 -606 loadbang;
#X obj 1787 -572 bng 15 250 50 0 empty empty empty 17 7 0 10 -262144
-1 -1;
#X msg 1814 -569 1;
#X connect 0 0 1 0;
#X connect 0 1 1 1;
#X connect 1 0 2 0;
#X connect 2 0 18 0;
#X connect 3 0 48 0;
#X connect 4 0 6 0;
#X connect 5 0 32 0;
#X connect 6 0 5 0;
#X connect 7 0 8 0;
#X connect 8 0 9 0;
#X connect 8 0 10 0;
#X connect 9 0 8 1;
#X connect 10 0 11 0;
#X connect 11 0 12 0;
#X connect 11 1 13 0;
#X connect 12 0 30 0;
#X connect 12 0 31 0;
#X connect 12 0 34 0;
#X connect 14 0 10 1;
#X connect 15 0 48 0;
#X connect 15 1 48 1;
#X connect 16 0 1 0;
#X connect 19 0 14 0;
#X connect 20 0 41 0;
#X connect 21 0 42 0;
#X connect 22 0 5 1;
#X connect 22 0 44 0;
#X connect 23 0 7 1;
#X connect 24 0 46 0;
#X connect 25 0 45 0;
#X connect 25 1 45 1;
#X connect 26 0 33 0;
#X connect 27 0 26 0;
#X connect 28 0 26 1;
#X connect 28 0 44 0;
#X connect 29 0 27 0;
#X connect 31 0 3 0;
#X connect 32 0 0 0;
#X connect 32 0 25 0;
#X connect 33 0 0 0;
#X connect 33 0 25 0;
#X connect 34 0 45 0;
#X connect 35 0 7 0;
#X connect 36 0 39 0;
#X connect 37 0 36 0;
#X connect 38 0 36 1;
#X connect 38 0 44 0;
#X connect 39 0 0 0;
#X connect 40 0 37 0;
#X connect 41 0 46 1;
#X connect 42 0 43 0;
#X connect 42 0 25 0;
#X connect 43 0 0 0;
#X connect 44 0 43 1;
#X connect 45 0 24 0;
#X connect 46 0 47 0;
#X connect 47 0 31 1;
#X connect 48 0 16 0;
#X connect 49 0 50 0;
#X connect 50 0 51 0;
#X connect 51 0 43 1;
