#N canvas 412 79 517 602 12;
#X obj 468 666 spigot-toggle_orange;
#X obj 468 642 spigot-toggle_vert;
#X obj 468 618 spigot-toggle_red;
#X obj 468 688 spigot-toggle_orange;
#X obj 468 712 * 1;
#X obj 562 716 outlet;
#X obj 480 515 inlet;
#X obj 481 538 inlet;
#X obj 480 560 inlet;
#X obj 481 583 inlet;
#X obj 537 594 r BB;
#X obj 539 641 r silenceC;
#X obj 541 665 r s silenceD;
#X obj 538 618 r BB1;
#X connect 0 0 4 0;
#X connect 1 0 4 0;
#X connect 2 0 4 0;
#X connect 3 0 4 0;
#X connect 4 0 5 0;
#X connect 6 0 2 1;
#X connect 7 0 1 1;
#X connect 8 0 0 1;
#X connect 9 0 3 1;
#X connect 10 0 2 0;
#X connect 11 0 0 0;
#X connect 12 0 3 0;
#X connect 13 0 1 0;
