#N canvas 503 68 842 597 10;
#N canvas 955 118 500 413 multi_oscillator 0;
#N canvas 412 274 1116 633 sine 0;
#X floatatom 603 58 5 0 0 0 - - -;
#X obj 603 80 sel 0;
#X obj 79 269 osc~;
#X obj 81 32 r \$0-freq1;
#X floatatom 81 54 5 0 0 0 - - -;
#X obj 320 263 osc~;
#X obj 79 418 *~;
#X obj 319 418 *~;
#X obj 510 190 f;
#X msg 945 214 0;
#X obj 945 192 t b;
#X obj 336 371 pack f 50;
#X obj 336 393 line~;
#X obj 98 371 pack f 50;
#X obj 98 393 line~;
#X obj 81 135 pack f f;
#X floatatom 134 116 5 0 0 0 - - -;
#X obj 81 157 line~;
#X obj 80 235 +~;
#X floatatom 320 54 5 0 0 0 - - -;
#X obj 320 136 pack f f;
#X floatatom 373 117 5 0 0 0 - - -;
#X obj 320 158 line~;
#X obj 319 236 +~;
#X obj 621 137 r \$0-balance-send;
#X obj 320 33 r \$0-freq2;
#X obj 79 442 +~;
#X obj 83 502 outlet~;
#X floatatom 621 159 5 0 0 0 - - -;
#X obj 621 178 t b f;
#X obj 98 327 swap 1;
#X obj 98 349 -;
#X obj 603 104 t b b b;
#X obj 336 345 spigot;
#X msg 716 208 1;
#X obj 98 304 spigot;
#X msg 794 209 0;
#X obj 794 184 r \$0-reset-send;
#X obj 134 94 r \$0-glide;
#X obj 373 95 r \$0-glide;
#X obj 97 211 r~ \$0-fm;
#X obj 336 213 r~ \$0-fm;
#X obj 304 496 s~ wave0;
#X obj 603 36 r \$0-wave-send;
#X obj 185 448 *~ 1;
#X obj 204 415 tgl 15 0 empty empty empty 17 7 0 10 -262144 -1 -1 0
1;
#X obj 192 392 r 2mfreq;
#X connect 0 0 1 0;
#X connect 1 0 32 0;
#X connect 1 1 10 0;
#X connect 2 0 6 0;
#X connect 3 0 4 0;
#X connect 4 0 15 0;
#X connect 5 0 7 0;
#X connect 6 0 26 0;
#X connect 7 0 44 0;
#X connect 8 0 33 0;
#X connect 8 0 35 0;
#X connect 9 0 11 0;
#X connect 9 0 33 1;
#X connect 9 0 35 1;
#X connect 9 0 13 0;
#X connect 10 0 9 0;
#X connect 11 0 12 0;
#X connect 12 0 7 1;
#X connect 13 0 14 0;
#X connect 14 0 6 1;
#X connect 15 0 17 0;
#X connect 16 0 15 1;
#X connect 17 0 18 0;
#X connect 18 0 2 0;
#X connect 19 0 20 0;
#X connect 20 0 22 0;
#X connect 21 0 20 1;
#X connect 22 0 23 0;
#X connect 23 0 5 0;
#X connect 24 0 28 0;
#X connect 25 0 19 0;
#X connect 26 0 27 0;
#X connect 26 0 42 0;
#X connect 28 0 29 0;
#X connect 29 0 8 0;
#X connect 29 1 8 1;
#X connect 30 0 31 0;
#X connect 30 1 31 1;
#X connect 31 0 13 0;
#X connect 32 0 8 0;
#X connect 32 1 34 0;
#X connect 32 2 36 0;
#X connect 33 0 11 0;
#X connect 34 0 33 1;
#X connect 34 0 35 1;
#X connect 35 0 30 0;
#X connect 36 0 5 1;
#X connect 36 0 2 1;
#X connect 37 0 36 0;
#X connect 38 0 16 0;
#X connect 39 0 21 0;
#X connect 40 0 18 1;
#X connect 41 0 23 1;
#X connect 43 0 0 0;
#X connect 44 0 26 1;
#X connect 45 0 44 1;
#X connect 46 0 45 0;
#X restore 86 23 pd sine;
#X obj 85 118 +~;
#N canvas 0 474 1116 554 triangle 0;
#X floatatom 603 58 5 0 0 0 - - -;
#X obj 81 32 r \$0-freq1;
#X obj 603 36 r \$0-wave-send;
#X floatatom 81 54 5 0 0 0 - - -;
#X obj 79 434 *~;
#X obj 319 434 *~;
#X obj 601 218 f;
#X msg 789 136 0;
#X obj 98 344 swap 1;
#X obj 98 366 -;
#X msg 984 134 0;
#X obj 984 112 t b;
#X obj 336 387 pack f 50;
#X obj 336 409 line~;
#X obj 98 387 pack f 50;
#X obj 98 409 line~;
#X obj 81 135 pack f f;
#X floatatom 134 116 5 0 0 0 - - -;
#X obj 81 157 line~;
#X obj 80 235 +~;
#X floatatom 320 55 5 0 0 0 - - -;
#X obj 320 136 pack f f;
#X floatatom 373 117 5 0 0 0 - - -;
#X obj 320 158 line~;
#X obj 319 236 +~;
#X obj 621 135 r \$0-balance-send;
#X obj 320 33 r \$0-freq2;
#X obj 79 456 +~;
#X obj 78 483 outlet~;
#X obj 603 80 sel 1;
#N canvas 406 87 501 366 make-triangle 0;
#X obj 52 20 inlet~;
#X obj 341 42 inlet phase;
#X obj 51 126 phasor~;
#X obj 295 125 phasor~;
#X obj 49 174 -~ 1;
#X obj 49 201 clip~ -1 0;
#X obj 50 148 *~ 2;
#X obj 295 147 *~ -2;
#X obj 294 170 +~ 1;
#X obj 294 195 clip~ -1 0;
#X obj 48 225 *~ 2;
#X obj 294 218 *~ 2;
#X obj 181 307 +~;
#X obj 181 329 outlet~;
#X obj 294 240 +~ 0.5;
#X obj 48 247 +~ 0.5;
#X connect 0 0 2 0;
#X connect 0 0 3 0;
#X connect 1 0 3 1;
#X connect 1 0 2 1;
#X connect 2 0 6 0;
#X connect 3 0 7 0;
#X connect 4 0 5 0;
#X connect 5 0 10 0;
#X connect 6 0 4 0;
#X connect 7 0 8 0;
#X connect 8 0 9 0;
#X connect 9 0 11 0;
#X connect 10 0 15 0;
#X connect 11 0 14 0;
#X connect 12 0 13 0;
#X connect 14 0 12 1;
#X connect 15 0 12 0;
#X restore 81 265 pd make-triangle;
#N canvas 270 393 444 366 make-triangle 0;
#X obj 52 20 inlet~;
#X obj 341 34 inlet phase;
#X obj 51 126 phasor~;
#X obj 295 125 phasor~;
#X obj 49 174 -~ 1;
#X obj 49 201 clip~ -1 0;
#X obj 50 148 *~ 2;
#X obj 295 147 *~ -2;
#X obj 294 170 +~ 1;
#X obj 294 195 clip~ -1 0;
#X obj 48 225 *~ 2;
#X obj 294 218 *~ 2;
#X obj 181 307 +~;
#X obj 181 329 outlet~;
#X obj 294 240 +~ 0.5;
#X obj 48 247 +~ 0.5;
#X connect 0 0 2 0;
#X connect 0 0 3 0;
#X connect 1 0 3 1;
#X connect 1 0 2 1;
#X connect 2 0 6 0;
#X connect 3 0 7 0;
#X connect 4 0 5 0;
#X connect 5 0 10 0;
#X connect 6 0 4 0;
#X connect 7 0 8 0;
#X connect 8 0 9 0;
#X connect 9 0 11 0;
#X connect 10 0 15 0;
#X connect 11 0 14 0;
#X connect 12 0 13 0;
#X connect 14 0 12 1;
#X connect 15 0 12 0;
#X restore 318 262 pd make-triangle;
#X obj 373 95 r \$0-glide;
#X obj 134 93 r \$0-glide;
#X floatatom 621 159 5 0 0 0 - - -;
#X obj 621 178 t b f;
#X obj 603 104 t b b b;
#X obj 98 322 spigot;
#X msg 912 134 1;
#X obj 336 363 spigot;
#X obj 789 108 r \$0-reset-send;
#X obj 99 211 r~ \$0-fm;
#X obj 338 209 r~ \$0-fm;
#X obj 193 487 s~ wave1;
#X obj 185 448 *~;
#X obj 204 415 tgl 15 0 empty empty empty 17 7 0 10 -262144 -1 -1 0
1;
#X obj 192 392 r 2mfreq;
#X connect 0 0 29 0;
#X connect 1 0 3 0;
#X connect 2 0 0 0;
#X connect 3 0 16 0;
#X connect 4 0 27 0;
#X connect 5 0 44 0;
#X connect 6 0 39 0;
#X connect 6 0 37 0;
#X connect 7 0 30 1;
#X connect 7 0 31 1;
#X connect 8 0 9 0;
#X connect 8 1 9 1;
#X connect 9 0 14 0;
#X connect 10 0 12 0;
#X connect 10 0 37 1;
#X connect 10 0 39 1;
#X connect 10 0 14 0;
#X connect 11 0 10 0;
#X connect 12 0 13 0;
#X connect 13 0 5 1;
#X connect 14 0 15 0;
#X connect 15 0 4 1;
#X connect 16 0 18 0;
#X connect 17 0 16 1;
#X connect 18 0 19 0;
#X connect 19 0 30 0;
#X connect 20 0 21 0;
#X connect 21 0 23 0;
#X connect 22 0 21 1;
#X connect 23 0 24 0;
#X connect 24 0 31 0;
#X connect 25 0 34 0;
#X connect 26 0 20 0;
#X connect 27 0 28 0;
#X connect 27 0 43 0;
#X connect 29 0 36 0;
#X connect 29 1 11 0;
#X connect 30 0 4 0;
#X connect 31 0 5 0;
#X connect 32 0 22 0;
#X connect 33 0 17 0;
#X connect 34 0 35 0;
#X connect 35 0 6 0;
#X connect 35 1 6 1;
#X connect 36 0 6 0;
#X connect 36 1 7 0;
#X connect 36 2 38 0;
#X connect 37 0 8 0;
#X connect 38 0 39 1;
#X connect 38 0 37 1;
#X connect 39 0 12 0;
#X connect 40 0 7 0;
#X connect 41 0 19 1;
#X connect 42 0 24 1;
#X connect 44 0 27 1;
#X connect 45 0 44 1;
#X connect 46 0 45 0;
#X restore 150 24 pd triangle;
#X obj 133 337 tabwrite~ \$0-waveform;
#X obj 133 311 metro 100;
#X obj 133 284 tgl 15 0 empty empty empty 17 7 0 10 -262144 -1 -1 1
1;
#X obj 133 259 loadbang;
#X obj 150 100 +~;
#N canvas 564 50 1116 726 pulse 0;
#X floatatom 603 58 5 0 0 0 - - -;
#X obj 81 32 r \$0-freq1;
#X obj 603 36 r \$0-wave-send;
#X floatatom 81 54 5 0 0 0 - - -;
#X obj 78 588 *~;
#X obj 314 588 *~;
#X obj 604 205 f;
#X msg 922 209 0;
#X obj 922 187 t b;
#X obj 331 541 pack f 50;
#X obj 331 563 line~;
#X obj 97 541 pack f 50;
#X obj 97 563 line~;
#X obj 81 135 pack f f;
#X floatatom 134 116 5 0 0 0 - - -;
#X obj 81 157 line~;
#X obj 80 235 +~;
#X floatatom 320 54 5 0 0 0 - - -;
#X obj 320 136 pack f f;
#X floatatom 373 117 5 0 0 0 - - -;
#X obj 320 158 line~;
#X obj 319 236 +~;
#X obj 621 137 r \$0-balance-send;
#X obj 320 33 r \$0-freq2;
#X obj 78 610 +~;
#X obj 77 637 outlet~;
#X floatatom 621 159 5 0 0 0 - - -;
#X obj 621 178 t b f;
#X obj 97 497 swap 1;
#X obj 97 519 -;
#X obj 603 104 t b b b;
#X obj 331 515 spigot;
#X msg 716 208 1;
#X obj 97 474 spigot;
#X msg 794 209 0;
#X obj 603 80 sel 2;
#X obj 79 290 phasor~;
#X obj 317 288 phasor~;
#X obj 78 374 expr~ $v1 > $v2;
#X obj 181 329 pack f 50;
#X obj 181 351 line~;
#X floatatom 181 310 5 0 0 0 - - -;
#X obj 316 375 expr~ $v1 > $v2;
#X obj 417 331 pack f 50;
#X obj 417 353 line~;
#X floatatom 417 312 5 0 0 0 - - -;
#X obj 77 399 *~ 2;
#X obj 77 421 -~ 1;
#X obj 315 398 *~ 2;
#X obj 315 420 -~ 1;
#X obj 794 184 r \$0-reset-send;
#X obj 134 94 r \$0-glide;
#X obj 373 95 r \$0-glide;
#X obj 99 210 r~ \$0-fm;
#X obj 336 211 r~ \$0-fm;
#X obj 417 290 r \$0-pwm;
#X obj 181 288 r \$0-pwm;
#X obj 201 686 s~ wave2;
#X obj 189 617 *~;
#X obj 207 575 tgl 15 0 empty empty empty 17 7 0 10 -262144 -1 -1 0
1;
#X obj 195 552 r 2mfreq;
#X connect 0 0 35 0;
#X connect 1 0 3 0;
#X connect 2 0 0 0;
#X connect 3 0 13 0;
#X connect 4 0 24 0;
#X connect 5 0 58 0;
#X connect 6 0 31 0;
#X connect 6 0 33 0;
#X connect 7 0 9 0;
#X connect 7 0 11 0;
#X connect 7 0 31 1;
#X connect 7 0 33 1;
#X connect 8 0 7 0;
#X connect 9 0 10 0;
#X connect 10 0 5 1;
#X connect 11 0 12 0;
#X connect 12 0 4 1;
#X connect 13 0 15 0;
#X connect 14 0 13 1;
#X connect 15 0 16 0;
#X connect 16 0 36 0;
#X connect 17 0 18 0;
#X connect 18 0 20 0;
#X connect 19 0 18 1;
#X connect 20 0 21 0;
#X connect 21 0 37 0;
#X connect 22 0 26 0;
#X connect 23 0 17 0;
#X connect 24 0 25 0;
#X connect 24 0 57 0;
#X connect 26 0 27 0;
#X connect 27 0 6 0;
#X connect 27 1 6 1;
#X connect 28 0 29 0;
#X connect 28 1 29 1;
#X connect 29 0 11 0;
#X connect 30 0 6 0;
#X connect 30 1 32 0;
#X connect 30 2 34 0;
#X connect 31 0 9 0;
#X connect 32 0 31 1;
#X connect 32 0 33 1;
#X connect 33 0 28 0;
#X connect 34 0 36 1;
#X connect 34 0 37 1;
#X connect 35 0 30 0;
#X connect 35 1 8 0;
#X connect 36 0 38 0;
#X connect 37 0 42 0;
#X connect 38 0 46 0;
#X connect 39 0 40 0;
#X connect 40 0 38 1;
#X connect 41 0 39 0;
#X connect 42 0 48 0;
#X connect 43 0 44 0;
#X connect 44 0 42 1;
#X connect 45 0 43 0;
#X connect 46 0 47 0;
#X connect 47 0 4 0;
#X connect 48 0 49 0;
#X connect 49 0 5 0;
#X connect 50 0 34 0;
#X connect 51 0 14 0;
#X connect 52 0 19 0;
#X connect 53 0 16 1;
#X connect 54 0 21 1;
#X connect 55 0 45 0;
#X connect 56 0 41 0;
#X connect 58 0 24 1;
#X connect 59 0 58 1;
#X connect 60 0 59 0;
#X restore 241 26 pd pulse;
#X obj 242 82 +~;
#N canvas 469 121 1116 726 saw 0;
#X floatatom 603 58 5 0 0 0 - - -;
#X obj 81 32 r \$0-freq1;
#X obj 603 36 r \$0-wave-send;
#X floatatom 81 54 5 0 0 0 - - -;
#X obj 81 513 *~;
#X obj 317 513 *~;
#X obj 604 205 f;
#X msg 922 209 0;
#X obj 922 187 t b;
#X obj 334 466 pack f 50;
#X obj 334 488 line~;
#X obj 100 466 pack f 50;
#X obj 100 488 line~;
#X obj 81 135 pack f f;
#X floatatom 134 116 5 0 0 0 - - -;
#X obj 81 157 line~;
#X obj 80 235 +~;
#X floatatom 320 54 5 0 0 0 - - -;
#X obj 320 136 pack f f;
#X floatatom 373 117 5 0 0 0 - - -;
#X obj 320 158 line~;
#X obj 319 236 +~;
#X obj 621 137 r \$0-balance-send;
#X obj 320 33 r \$0-freq2;
#X obj 81 535 +~;
#X obj 80 562 outlet~;
#X floatatom 621 159 5 0 0 0 - - -;
#X obj 621 178 t b f;
#X obj 100 422 swap 1;
#X obj 100 444 -;
#X obj 603 104 t b b b;
#X obj 334 440 spigot;
#X msg 716 208 1;
#X obj 100 399 spigot;
#X msg 794 209 0;
#X obj 79 290 phasor~;
#X obj 317 288 phasor~;
#X obj 80 324 *~ 2;
#X obj 80 346 -~ 1;
#X obj 318 323 *~ 2;
#X obj 318 345 -~ 1;
#X obj 603 80 sel 3;
#X obj 794 184 r \$0-reset-send;
#X obj 373 95 r \$0-glide;
#X obj 134 94 r \$0-glide;
#X obj 98 212 r~ \$0-fm;
#X obj 337 211 r~ \$0-fm;
#X obj 252 635 s~ wave3;
#X obj 180 538 *~;
#X obj 204 415 tgl 15 0 empty empty empty 17 7 0 10 -262144 -1 -1 0
1;
#X obj 192 392 r 2mfreq;
#X connect 0 0 41 0;
#X connect 1 0 3 0;
#X connect 2 0 0 0;
#X connect 3 0 13 0;
#X connect 4 0 24 0;
#X connect 5 0 48 0;
#X connect 6 0 31 0;
#X connect 6 0 33 0;
#X connect 7 0 9 0;
#X connect 7 0 11 0;
#X connect 7 0 31 1;
#X connect 7 0 33 1;
#X connect 8 0 7 0;
#X connect 9 0 10 0;
#X connect 10 0 5 1;
#X connect 11 0 12 0;
#X connect 12 0 4 1;
#X connect 13 0 15 0;
#X connect 14 0 13 1;
#X connect 15 0 16 0;
#X connect 16 0 35 0;
#X connect 17 0 18 0;
#X connect 18 0 20 0;
#X connect 19 0 18 1;
#X connect 20 0 21 0;
#X connect 21 0 36 0;
#X connect 22 0 26 0;
#X connect 23 0 17 0;
#X connect 24 0 25 0;
#X connect 24 0 47 0;
#X connect 26 0 27 0;
#X connect 27 0 6 0;
#X connect 27 1 6 1;
#X connect 28 0 29 0;
#X connect 28 1 29 1;
#X connect 29 0 11 0;
#X connect 30 0 6 0;
#X connect 30 1 32 0;
#X connect 30 2 34 0;
#X connect 31 0 9 0;
#X connect 32 0 31 1;
#X connect 32 0 33 1;
#X connect 33 0 28 0;
#X connect 34 0 35 1;
#X connect 34 0 36 1;
#X connect 35 0 37 0;
#X connect 36 0 39 0;
#X connect 37 0 38 0;
#X connect 38 0 4 0;
#X connect 39 0 40 0;
#X connect 40 0 5 0;
#X connect 41 0 30 0;
#X connect 41 1 8 0;
#X connect 42 0 34 0;
#X connect 43 0 19 0;
#X connect 44 0 14 0;
#X connect 45 0 16 1;
#X connect 46 0 21 1;
#X connect 48 0 24 1;
#X connect 49 0 48 1;
#X connect 50 0 49 0;
#X restore 308 27 pd saw;
#X obj 307 64 +~;
#N canvas 564 60 1116 554 noise 0;
#X floatatom 603 58 5 0 0 0 - - -;
#X obj 93 31 r \$0-freq1;
#X obj 603 36 r \$0-wave-send;
#X floatatom 93 53 5 0 0 0 - - -;
#X obj 79 434 *~;
#X obj 319 434 *~;
#X obj 604 205 f;
#X msg 945 214 0;
#X obj 945 192 t b;
#X obj 336 387 pack f 50;
#X obj 336 409 line~;
#X obj 98 387 pack f 50;
#X obj 98 409 line~;
#X obj 93 134 pack f f;
#X floatatom 146 115 5 0 0 0 - - -;
#X obj 93 156 line~;
#X obj 92 234 +~;
#X floatatom 332 53 5 0 0 0 - - -;
#X obj 332 135 pack f f;
#X floatatom 385 116 5 0 0 0 - - -;
#X obj 332 157 line~;
#X obj 331 235 +~;
#X obj 621 137 r \$0-balance-send;
#X obj 332 32 r \$0-freq2;
#X obj 79 456 +~;
#X obj 78 483 outlet~;
#X floatatom 621 159 5 0 0 0 - - -;
#X obj 621 178 t b f;
#X obj 98 343 swap 1;
#X obj 98 365 -;
#X obj 336 361 spigot;
#X msg 716 208 1;
#X obj 98 320 spigot;
#X obj 603 80 sel 4;
#X obj 42 233 noise~;
#X obj 80 283 vcf~;
#X floatatom 121 258 5 0 0 0 - - -;
#X obj 280 234 noise~;
#X obj 318 278 vcf~;
#X floatatom 362 259 5 0 0 0 - - -;
#X obj 603 104 t b b;
#X obj 146 93 r \$0-glide;
#X obj 385 94 r \$0-glide;
#X obj 121 236 r \$0-nf;
#X obj 362 237 r \$0-nf;
#X obj 349 212 r~ \$0-fm;
#X obj 110 211 r~ \$0-fm;
#X obj 205 497 s~ wave4;
#X obj 185 448 *~;
#X obj 204 415 tgl 15 0 empty empty empty 17 7 0 10 -262144 -1 -1 0
1;
#X obj 192 392 r 2mfreq;
#X connect 0 0 33 0;
#X connect 1 0 3 0;
#X connect 2 0 0 0;
#X connect 3 0 13 0;
#X connect 4 0 24 0;
#X connect 5 0 48 0;
#X connect 6 0 30 0;
#X connect 6 0 32 0;
#X connect 7 0 9 0;
#X connect 7 0 11 0;
#X connect 7 0 30 1;
#X connect 7 0 32 1;
#X connect 8 0 7 0;
#X connect 9 0 10 0;
#X connect 10 0 5 1;
#X connect 11 0 12 0;
#X connect 12 0 4 1;
#X connect 13 0 15 0;
#X connect 14 0 13 1;
#X connect 15 0 16 0;
#X connect 16 0 35 1;
#X connect 17 0 18 0;
#X connect 18 0 20 0;
#X connect 19 0 18 1;
#X connect 20 0 21 0;
#X connect 21 0 38 1;
#X connect 22 0 26 0;
#X connect 23 0 17 0;
#X connect 24 0 25 0;
#X connect 24 0 47 0;
#X connect 26 0 27 0;
#X connect 27 0 6 0;
#X connect 27 1 6 1;
#X connect 28 0 29 0;
#X connect 28 1 29 1;
#X connect 29 0 11 0;
#X connect 30 0 9 0;
#X connect 31 0 30 1;
#X connect 31 0 32 1;
#X connect 32 0 28 0;
#X connect 33 0 40 0;
#X connect 33 1 8 0;
#X connect 34 0 35 0;
#X connect 35 0 4 0;
#X connect 36 0 35 2;
#X connect 37 0 38 0;
#X connect 38 0 5 0;
#X connect 39 0 38 2;
#X connect 40 0 6 0;
#X connect 40 1 31 0;
#X connect 41 0 14 0;
#X connect 42 0 19 0;
#X connect 43 0 36 0;
#X connect 44 0 39 0;
#X connect 45 0 21 1;
#X connect 46 0 16 1;
#X connect 48 0 24 1;
#X connect 49 0 48 1;
#X connect 50 0 49 0;
#X restore 360 28 pd noise;
#X obj 86 365 s~ \$0-sig;
#X connect 0 0 1 0;
#X connect 1 0 3 0;
#X connect 1 0 13 0;
#X connect 2 0 7 0;
#X connect 4 0 3 0;
#X connect 5 0 4 0;
#X connect 6 0 5 0;
#X connect 7 0 1 1;
#X connect 8 0 9 0;
#X connect 9 0 7 1;
#X connect 10 0 11 0;
#X connect 11 0 9 1;
#X connect 12 0 11 1;
#X restore 281 314 pd multi_oscillator;
#X obj 101 306 vradio 15 1 0 5 \$0-wave-send \$0-wave-recv empty 2
-8 0 10 -159808 -232576 -45076 1;
#X obj 119 306 cnv 15 98 75 empty empty empty 20 12 0 14 -4034 -66577
0;
#N canvas 0 50 450 250 (subpatch) 0;
#X array \$0-waveform 100 float 4;
#X coords 0 1.2 100 -1.2 100 76 2 0 0;
#X restore 118 306 graph;
#X obj 132 151 vsl 15 101 0 2000 0 0 \$0-freq1 empty Freq 0 -9 0 10
-260097 -261682 -86277 300 1;
#X obj 106 413 inlet~ fm1;
#X obj 106 508 outlet~ sig;
#X obj 126 276 hsl 60 15 0 1000 0 0 \$0-glide \$0-glide-recv Glide
1 8 0 12 -260097 -261682 -86853 0 1;
#X obj 106 462 r~ \$0-sig;
#X obj 106 435 s~ \$0-fm;
#X obj 164 151 vsl 15 101 0 2000 0 0 \$0-freq2 empty 2 6 -9 0 10 -260097
-261682 -1 3040 1;
#X obj 117 384 hsl 86 15 0 1 0 0 \$0-balance-send \$0-balance-recv
Balance(1-2) 2 8 0 12 -260097 -261682 -86853 4250 1;
#X obj 206 384 bng 15 250 50 0 empty empty = 5 7 0 10 -4032 -204800
-13381;
#X msg 228 383 0.5;
#X obj 140 259 bng 15 250 50 0 empty empty = 5 7 0 10 -4032 -204800
-13381;
#X obj 98 -16 * 1;
#X msg 98 -38 1;
#X obj 148 17 spigot-toggle_bleu;
#X obj 156 259 tgl 15 0 empty empty % 4 7 1 10 -4032 -1 -1 1 1;
#X obj 148 162 vsl 15 90 0.001 10 0 0 empty empty empty 0 -9 0 10 -4032
-1 -1 1600 1;
#X msg 97 7 1, f 1;
#X obj 163 -5 t b f;
#X obj 167 20 * 1;
#X obj 282 289 s 2mfreq;
#X obj 122 259 tgl 15 0 empty empty ø 3 6 1 16 -4032 -1 -1 1 1;
#X obj 148 149 bng 15 250 50 0 empty empty empty 1 7 0 12 -4032 -1
-1;
#X obj 92 574 dac~;
#X obj 173 259 tgl 15 0 empty empty ø 3 6 1 16 -4032 -1 -1 0 1;
#X connect 4 0 17 0;
#X connect 4 0 15 1;
#X connect 5 0 9 0;
#X connect 8 0 6 0;
#X connect 8 0 26 0;
#X connect 12 0 13 0;
#X connect 13 0 11 0;
#X connect 14 0 16 0;
#X connect 15 0 10 0;
#X connect 16 0 15 0;
#X connect 17 0 22 0;
#X connect 18 0 17 1;
#X connect 19 0 21 0;
#X connect 20 0 21 0;
#X connect 20 0 19 0;
#X connect 21 0 22 0;
#X connect 21 1 22 1;
#X connect 22 0 10 0;
#X connect 25 0 20 0;
#X connect 27 0 23 0;
#X coords 0 -1 1 1 160 300 2 100 100;
