#N canvas 476 391 1204 637 12;
#X obj 135 84 t b;
#X msg 136 107 relocate 475x205+1+1 1x1+50+60 \, vis 1;
#X obj 4 1 hsl 23 25 0 127 0 0 \$0-SVSTAall empty ≣ 5 10 0 25 -1
-16662 -260097 0 1;
#N canvas 50 60 475 205 \$0-SVSTAall 0;
#X obj -2 -254 savestat$A;
#X obj -2 -231 savestateTA;
#X obj -2 -209 savestateITA;
#X obj -2 -187 savestateprogA;
#X obj -2 -164 savestate+A;
#X obj -1 -291 inlet;
#X obj 116 -290 inlet;
#X connect 5 0 0 0;
#X connect 5 0 1 0;
#X connect 5 0 2 0;
#X connect 5 0 3 0;
#X connect 5 0 4 0;
#X connect 6 0 0 1;
#X connect 6 0 1 1;
#X connect 6 0 2 1;
#X connect 6 0 3 1;
#X connect 6 0 4 1;
#X coords 0 205 1 204 128 113 0;
#X restore 105 250 pd \$0-SVSTAall;
#X obj 135 62 r \$0-SVSTAall;
#X obj 136 128 s pd-\$0-SVSTAall;
#X obj 108 206 r saveselA;
#X obj 224 207 r loadselA;
#X connect 0 0 1 0;
#X connect 1 0 5 0;
#X connect 4 0 0 0;
#X connect 6 0 3 0;
#X connect 7 0 3 1;
#X coords 0 -1 1 1 30 27 2 0 0;
