#N canvas 193 66 167 199 12;
#X obj 2 -436 savestat$A;
#X obj 2 -403 savestateTA;
#X obj 2 -381 savestateITA;
#X obj 2 -359 savestateprogA;
#X obj 2 -336 savestate+A;
#X obj 0 -478 savestate_selector_A;
#X obj -30 -550 r saveselA;
#X obj 86 -549 r loadselA;
#X connect 5 0 0 0;
#X connect 5 0 1 0;
#X connect 5 0 3 0;
#X connect 5 0 4 0;
#X connect 5 0 2 0;
#X connect 5 1 0 1;
#X connect 5 1 1 1;
#X connect 5 1 3 1;
#X connect 5 1 4 1;
#X connect 5 1 2 1;
#X connect 6 0 5 0;
#X connect 7 0 5 1;
#X coords 0 199 1 198 130 122 0;
