#N canvas 416 95 1392 1028 10;
#X obj 226 64 cnv 15 170 340 empty empty empty 20 12 0 14 -228992 -66577
0;
#X obj 228 504 cnv 15 100 60 empty empty empty 20 12 0 14 -195568 -66577
0;
#N canvas 0 22 450 300 gemwin 1;
#X obj 132 136 gemwin;
#X obj 67 89 outlet;
#X obj 67 10 inlet;
#X obj 67 41 route create;
#X msg 67 70 set destroy;
#X msg 142 68 set create;
#X msg 132 112 create \, 1;
#X msg 198 112 destroy;
#X connect 2 0 3 0;
#X connect 3 0 4 0;
#X connect 3 0 6 0;
#X connect 3 1 5 0;
#X connect 3 1 7 0;
#X connect 4 0 1 0;
#X connect 5 0 1 0;
#X connect 6 0 0 0;
#X connect 7 0 0 0;
#X restore 234 543 pd gemwin;
#X msg 234 524 destroy;
#X text 230 503 Create window:;
#X obj 228 235 cnv 15 160 60 empty empty empty 20 12 0 14 -24198 -66577
0;
#X floatatom 289 239 5 0 0 0 - - -;
#X msg 362 324 0 1 1;
#X floatatom 239 379 5 0 0 0 - - -;
#X obj 228 400 translateXYZ;
#X floatatom 298 41 5 0 0 0 - - -;
#X floatatom 332 39 5 0 0 0 - - -;
#X obj 252 95 translateXYZ;
#X obj 250 236 line;
#X obj 295 140 bng 15 250 50 0 empty empty empty 17 7 0 10 -262144
-1 -1;
#X obj 248 194 pack \$1 \$2;
#X obj 295 158 f;
#X obj 325 159 + 1;
#X obj 634 64 cnv 15 170 340 empty empty empty 20 12 0 14 -228992 -66577
0;
#X obj 369 177 r T$;
#X floatatom 249 137 5 0 0 0 - - -;
#X floatatom 343 448 5 0 0 0 - - -;
#X obj 236 423 color;
#X floatatom 303 450 5 0 0 0 - - -;
#X obj 434 64 cnv 15 170 340 empty empty empty 20 12 0 14 -228992 -66577
0;
#X obj 436 235 cnv 15 160 60 empty empty empty 20 12 0 14 -24198 -66577
0;
#X floatatom 496 243 5 0 0 0 - - -;
#X msg 550 255 1 0 0;
#X msg 550 276 0 1 1;
#X obj 464 428 color;
#X obj 502 138 bng 15 250 50 0 empty empty empty 17 7 0 10 -262144
-1 -1;
#X obj 456 199 pack \$1 \$2;
#X obj 500 156 f;
#X obj 529 158 + 1;
#X obj 568 189 r T$;
#X floatatom 454 136 5 0 0 0 - - -;
#X obj 560 130 r ITA;
#X obj 454 178 * 360;
#X obj 455 242 line;
#X obj 713 152 r STPA;
#X obj 405 197 r lo;
#X obj 248 154 * -1;
#X obj 247 173 * 360;
#X obj 454 157 * -1;
#X floatatom 537 452 5 0 0 0 - - -;
#X floatatom 592 451 5 0 0 0 - - -;
#X obj 370 122 r BB;
#X obj 2094 466 cnv 15 170 340 empty empty empty 20 12 0 14 -228992
-66577 0;
#X msg 2165 607 draw line;
#X msg 2165 628 draw fill;
#X msg 2165 650 draw point;
#X floatatom 2216 732 5 0 0 2 size - -;
#X obj 1892 96 cnv 15 170 340 empty empty empty 20 12 0 14 -228992
-66577 0;
#X msg 1926 146 draw line;
#X msg 1927 175 draw fill;
#X msg 1925 201 draw point;
#X obj 1929 311 color;
#X msg 2105 160 draw line;
#X msg 2106 189 draw fill;
#X msg 2102 213 draw point;
#X obj 2125 324 color;
#X msg 2163 292 1 1 1;
#X floatatom 2015 400 5 0 0 0 - - -;
#X floatatom 2009 358 5 0 0 0 - - -;
#X floatatom 1927 340 5 0 0 0 - - -;
#X floatatom 1972 339 5 0 0 0 - - -;
#X floatatom 2013 339 5 0 0 0 - - -;
#X floatatom 1927 340 5 0 0 0 - - -;
#X floatatom 1972 339 5 0 0 0 - - -;
#X floatatom 2225 346 5 0 0 0 - - -;
#X floatatom 2139 347 5 0 0 0 - - -;
#X floatatom 2184 346 5 0 0 0 - - -;
#X obj 2121 375 translateXYZ;
#X floatatom 2225 346 5 0 0 0 - - -;
#X floatatom 2139 347 5 0 0 0 - - -;
#X floatatom 2184 346 5 0 0 0 - - -;
#X obj 2121 375 translateXYZ;
#X floatatom 2217 682 5 0 0 0 - - -;
#X floatatom 2131 683 5 0 0 0 - - -;
#X floatatom 2176 682 5 0 0 0 - - -;
#X obj 2113 711 translateXYZ;
#X floatatom 2217 682 5 0 0 0 - - -;
#X floatatom 2131 683 5 0 0 0 - - -;
#X floatatom 2176 682 5 0 0 0 - - -;
#X obj 2113 711 translateXYZ;
#X floatatom 406 443 5 0 0 0 - - -;
#X floatatom 467 377 5 0 0 0 - - -;
#X obj 444 404 translateXYZ;
#X floatatom 2225 366 5 0 0 0 - - -;
#X obj 1917 391 circle 1.44;
#X obj 2101 396 circle 1.82;
#X obj 2126 470 gemhead 3;
#X obj 2126 774 circle 2.2;
#X obj 404 219 bng 15 250 50 0 empty empty empty 17 7 0 10 -262144
-1 -1;
#X floatatom 405 516 5 0 0 0 - - -;
#X floatatom 404 579 5 0 0 0 - - -;
#X floatatom 2235 396 5 0 0 0 - - -;
#X floatatom 235 644 5 0 0 0 - - -;
#X msg 1954 277 0 0 0;
#X obj 233 33 gemhead 3;
#X obj 1929 367 translateXYZ;
#X obj 445 30 gemhead 3;
#X obj 1936 34 r wdthA;
#X obj 229 263 rotate 45 0 0 1;
#X obj 443 270 rotate 45 0 0 1;
#X msg 514 426 0 1 1;
#X obj 1763 616 color;
#X obj 1852 617 r lo;
#X obj 1761 504 spigot-toggle_red;
#X floatatom 293 373 5 0 0 0 - - -;
#X floatatom 730 326 5 0 0 0 - - -;
#X floatatom 319 192 5 0 0 0 - - -;
#X obj 476 481 rectangle 0.04 0.08;
#X obj 236 471 rectangle 0.04 0.08;
#X msg 364 343 1 1 1;
#X msg 403 553 0.08;
#X floatatom 723 218 5 0 0 0 - - -;
#X obj 712 199 * 0.0625;
#X obj 723 241 * 8;
#X floatatom 662 312 5 0 0 0 - - -;
#X obj 728 350 * 0.05;
#X msg 342 234 0 0 0;
#X msg 550 234 0 0 0;
#X msg 282 423 1 0 0;
#X msg 362 303 0 0 0;
#X msg 407 492 0.04;
#X obj 403 623 * -1;
#X obj 237 -3 r lo;
#X obj 206 -1 bng 15 250 50 0 empty empty empty 17 7 0 10 -262144 -1
-1;
#X obj 726 298 + 1;
#X msg 406 466 0.25;
#X msg 404 604 2.11;
#X obj 663 291 * 2;
#X obj 668 269 + 0.98;
#X floatatom 405 409 5 0 0 0 - - -;
#X obj 448 98 translateXYZ;
#X floatatom 468 69 5 0 0 0 - - -;
#X floatatom 375 59 5 0 0 0 - - -;
#X floatatom 363 97 5 0 0 0 - - -;
#X obj 366 79 + 0.01;
#X floatatom 715 181 5 0 0 0 - - -;
#X msg 438 -43 0.4;
#X msg 366 2 -0.01;
#X msg 1806 615 0 1 1;
#X obj 1836 1202 spigot-toggle_red;
#X obj 1839 1351 rectangle 0.01 8;
#X floatatom 1971 1333 5 0 0 0 - - -;
#X obj 1839 1259 color;
#X obj 1928 1260 r lo;
#X obj 1864 1280 + 1;
#X floatatom 1871 1233 5 0 0 0 - - -;
#X floatatom 1933 1282 5 0 0 0 - - -;
#X obj 1842 1301 translateXYZ;
#X msg 1882 1258 0 1 1;
#X obj 1759 480 gemhead 12;
#X obj 1853 1176 < -4;
#X obj 1875 1083 gemhead 12;
#X obj 1958 1200 +;
#X obj 1972 1153 t b f;
#X floatatom 2000 1127 5 0 0 0 - - -;
#X obj 2077 1052 r lo;
#X msg 2011 1067 3;
#X obj 2107 1143 +;
#X floatatom 2105 1166 5 0 0 0 - - -;
#X obj 2111 1084 * 2;
#X obj 2110 1115 t b f;
#X obj 2190 1177 spigot-toggle_red;
#X floatatom 2186 1230 5 0 0 0 - - -;
#X obj 2185 1252 t b f;
#X obj 2186 1209 - 4;
#X obj 2187 1281 - 0;
#X floatatom 2185 1302 12 0 0 0 - - -;
#X obj 2188 1323 * 0.5;
#X floatatom 2264 1274 5 0 0 0 - - -;
#X obj 2108 1202 spigot-toggle_red;
#X obj 2136 1187 < -4;
#X obj 2110 1230 + 4;
#X obj 2116 1313 * -1;
#X obj 2259 1354 spigot-toggle_red;
#X floatatom 2171 1362 12 0 0 0 - - -;
#X obj 2118 1339 * -1;
#X obj 2342 1362 spigot-toggle_red;
#X obj 2202 1121 + 1;
#X obj 2168 1101 < -4;
#X obj 2266 1136 > -4;
#X obj 2270 1323 >;
#X obj 1267 154 r lo;
#X msg 309 2 -2.5;
#X floatatom 1232 219 5 0 0 0 - - -;
#X obj 1302 -51 cnv 15 170 340 empty empty empty 20 12 0 14 -228992
-66577 0;
#X obj 1304 389 cnv 15 100 60 empty empty empty 20 12 0 14 -195568
-66577 0;
#N canvas 0 22 450 300 gemwin 0;
#X obj 132 136 gemwin;
#X obj 67 89 outlet;
#X obj 67 10 inlet;
#X obj 67 41 route create;
#X msg 67 70 set destroy;
#X msg 142 68 set create;
#X msg 132 112 create \, 1;
#X msg 198 112 destroy;
#X connect 2 0 3 0;
#X connect 3 0 4 0;
#X connect 3 0 6 0;
#X connect 3 1 5 0;
#X connect 3 1 7 0;
#X connect 4 0 1 0;
#X connect 5 0 1 0;
#X connect 6 0 0 0;
#X connect 7 0 0 0;
#X restore 1310 428 pd gemwin;
#X msg 1310 409 create;
#X text 1306 388 Create window:;
#X obj 1304 120 cnv 15 160 60 empty empty empty 20 12 0 14 -24198 -66577
0;
#X floatatom 1365 124 5 0 0 0 - - -;
#X msg 1438 209 0 1 1;
#X floatatom 1315 264 5 0 0 0 - - -;
#X obj 1304 285 translateXYZ;
#X floatatom 1374 -74 5 0 0 0 - - -;
#X floatatom 1408 -76 5 0 0 0 - - -;
#X obj 1328 -20 translateXYZ;
#X obj 1326 121 line;
#X obj 1371 25 bng 15 250 50 0 empty empty empty 17 7 0 10 -262144
-1 -1;
#X obj 1324 79 pack \$1 \$2;
#X obj 1371 43 f;
#X obj 1401 44 + 1;
#X obj 1710 -51 cnv 15 170 340 empty empty empty 20 12 0 14 -228992
-66577 0;
#X floatatom 1325 22 5 0 0 0 - - -;
#X floatatom 1419 333 5 0 0 0 - - -;
#X obj 1312 308 color;
#X floatatom 1379 335 5 0 0 0 - - -;
#X obj 1510 -51 cnv 15 170 340 empty empty empty 20 12 0 14 -228992
-66577 0;
#X obj 1512 120 cnv 15 160 60 empty empty empty 20 12 0 14 -24198 -66577
0;
#X floatatom 1572 128 5 0 0 0 - - -;
#X msg 1626 140 1 0 0;
#X msg 1626 161 0 1 1;
#X obj 1540 313 color;
#X obj 1582 23 bng 15 250 50 0 empty empty empty 17 7 0 10 -262144
-1 -1;
#X obj 1532 84 pack \$1 \$2;
#X obj 1578 42 f;
#X obj 1605 43 + 1;
#X floatatom 1530 21 5 0 0 0 - - -;
#X obj 1531 127 line;
#X obj 1589 465 r lo;
#X obj 1324 39 * -1;
#X obj 1530 42 * -1;
#X floatatom 1613 337 5 0 0 0 - - -;
#X floatatom 1668 336 5 0 0 0 - - -;
#X floatatom 1482 328 5 0 0 0 - - -;
#X floatatom 1543 262 5 0 0 0 - - -;
#X obj 1520 289 translateXYZ;
#X obj 1480 104 bng 15 250 50 0 empty empty empty 17 7 0 10 -262144
-1 -1;
#X floatatom 1481 401 5 0 0 0 - - -;
#X floatatom 1480 464 5 0 0 0 - - -;
#X floatatom 1311 529 5 0 0 0 - - -;
#X obj 1305 148 rotate 45 0 0 1;
#X obj 1519 155 rotate 45 0 0 1;
#X floatatom 1417 259 5 0 0 0 - - -;
#X floatatom 1804 155 5 0 0 0 - - -;
#X floatatom 1395 77 5 0 0 0 - - -;
#X obj 1312 356 rectangle 0.04 0.08;
#X msg 1440 228 1 1 1;
#X msg 1479 438 0.08;
#X floatatom 1799 103 5 0 0 0 - - -;
#X obj 1788 84 * 0.0625;
#X obj 1799 126 * 8;
#X floatatom 1738 197 5 0 0 0 - - -;
#X obj 1804 235 * 0.05;
#X msg 1418 119 0 0 0;
#X msg 1626 119 0 0 0;
#X msg 1438 188 0 0 0;
#X msg 1483 377 0.04;
#X obj 1598 512 * -1;
#X obj 1313 -118 r lo;
#X obj 1282 -116 bng 15 250 50 0 empty empty empty 17 7 0 10 -262144
-1 -1;
#X obj 1826 137 + 1;
#X msg 1482 351 0.25;
#X msg 1599 493 2.11;
#X obj 1739 176 * 2;
#X obj 1744 154 + 0.98;
#X floatatom 1481 294 5 0 0 0 - - -;
#X obj 1524 -17 translateXYZ;
#X floatatom 1544 -46 5 0 0 0 - - -;
#X floatatom 1465 -70 5 0 0 0 - - -;
#X floatatom 1439 -18 5 0 0 0 - - -;
#X obj 1442 -36 + 0.01;
#X floatatom 1791 66 5 0 0 0 - - -;
#X msg 1514 -158 0.4;
#X msg 1442 -113 -0.01;
#X obj 1702 226 * 2;
#X obj 1309 -82 gemhead 4;
#X obj 1522 -85 gemhead 4;
#X obj 1446 7 r BB1;
#X obj 1445 62 r T1;
#X obj 1644 74 r T1;
#X obj 1823 63 r STPB;
#X obj 1552 366 rectangle 0.04 0.08;
#X msg 1358 308 0 1 1;
#X msg 1590 311 1 0 0;
#X floatatom 253 347 5 0 0 0 - - -;
#X floatatom 1410 496 5 0 0 0 - - -;
#X obj 1421 458 r B;
#X obj 256 313 r A;
#X msg 468 8 -0.53;
#X obj 1323 58 * -360;
#X obj 1530 63 * -360;
#X msg 1484 -113 2;
#X msg 408 2 2;
#X msg 1544 -107 -0.53;
#X msg 1385 -100 -2.5;
#X obj 1632 -71 r itB;
#X obj -268 51 cnv 15 170 340 empty empty empty 20 12 0 14 -228992
-66577 0;
#X obj 29 119 cnv 15 160 60 empty empty empty 20 12 0 14 -24198 -66577
0;
#X floatatom -209 30 12 0 0 0 - - -;
#X floatatom -123 5 5 0 0 0 - - -;
#X obj -240 99 translateXYZ;
#X floatatom -139 303 5 0 0 0 - - -;
#X obj -244 129 color;
#X floatatom -186 281 5 0 0 0 - - -;
#X obj -246 326 rectangle 0.04 0.08;
#X obj 155 -107 r T$;
#X floatatom -43 -14 5 0 0 0 - - -;
#X obj -67 98 translateXYZ;
#X floatatom 74 371 5 0 0 0 - - -;
#X obj -52 278 color;
#X floatatom 28 313 5 0 0 0 - - -;
#X obj -33 394 rectangle 0.04 0.08;
#X obj -209 -68 r posvisu;
#X obj -209 9 + 2;
#X floatatom -209 -37 5 0 0 0 - - -;
#X obj -45 31 + 2;
#X floatatom -42 -88 5 0 0 0 - - -;
#X floatatom 135 125 5 0 0 0 - - -;
#X obj -45 242 translateXYZ;
#X floatatom 5 184 5 0 0 0 - - -;
#X obj 136 101 f;
#X obj -209 -14 * 5;
#X obj -41 12 * 5;
#X msg -85 308 0.6;
#X floatatom -118 47 5 0 0 0 - - -;
#X msg -120 -23 1;
#X obj 119 228 r trgrA;
#X obj 113 255 - 1;
#X obj 113 276 * -1;
#X floatatom 38 99 12 0 0 0 - - -;
#X msg -116 -81 14;
#X floatatom -110 -55 5 0 0 0 - - -;
#X floatatom 155 -37 5 0 0 0 - - -;
#X obj -166 213 * 0.001;
#X floatatom -164 186 5 0 0 0 - - -;
#X obj -30 322 spigot-toggle_red;
#X obj 89 -136 r BBmod;
#X obj 88 -101 bng 15 250 50 0 empty empty empty 17 7 0 10 -262144
-1 -1;
#X floatatom 16 33 5 0 0 0 - - -;
#X obj 24 -131 scale;
#X obj 5 -78 > 1;
#X obj 41 -77 sel;
#X obj -2 -54 t b f;
#X obj 70 -10 bng 15 250 50 0 empty empty empty 17 7 0 10 -262144 -1
-1;
#X obj 44 -7 bng 15 250 50 0 empty empty empty 17 7 0 10 -262144 -1
-1;
#X msg 9 -25 1;
#X obj -42 -121 r Amod;
#X msg -198 128 0 1 0;
#X msg -83 -77 5;
#X obj 156 -78 * 0.01;
#X obj 156 -57 * 0.01;
#X obj 133 150 * 0.5;
#X msg -97 243 0.004;
#X msg -116 146 -4.5;
#X msg -118 111 0.15;
#X obj -237 65 gemhead 3;
#X msg -9 277 1 0 1;
#X obj -62 51 gemhead 1;
#X obj 19 368 -;
#X obj 76 59 f;
#X floatatom 284 -166 8 0 0 0 - - -;
#X floatatom 284 -370 5 0 0 0 - - -;
#X text 470 -395 written by <olaf.matthes@gmx.de>;
#X text 294 -137 creation:;
#X text 398 -432 scale :: scale input from a certain input range;
#X text 469 -414 to lie between output boundaries;
#X floatatom 313 -312 5 0 0 0 - - -;
#X floatatom 342 -291 5 0 0 0 - - -;
#X floatatom 372 -270 5 0 0 0 - - -;
#X floatatom 401 -249 5 0 0 0 - - -;
#X text 341 -372 input value;
#X text 363 -165 scaled output value;
#X text 368 -313 in low;
#X text 394 -292 in high;
#X text 428 -271 out low;
#X text 457 -249 out high;
#X text 314 -339 creation arguments can be changed dynamically:;
#X text 310 -120 scale <in low> <in high> <out low> <out high> <log
coeff>;
#X floatatom 431 -223 5 0 0 0 - - -;
#X text 484 -224 log coefficient;
#X text 522 -206 0 = linear 1 = log;
#N canvas 293 158 494 344 META 0;
#X text 12 245 HELP_PATCH_AUTHORS "pd meta" information added by Jonathan
Wilkes for Pd version 0.42.;
#X text 12 25 LICENSE GPL v2;
#X text 12 225 AUTHOR Olaf Matthes <olaf.matthes@gmx.de>;
#X text 12 205 OUTLET_0 float;
#X text 12 105 INLET_1 float;
#X text 12 45 DESCRIPTION scale input from a certain input range to
lie between output boundaries;
#X text 12 5 KEYWORDS control;
#X text 12 85 INLET_0 float;
#X text 12 125 INLET_2 float;
#X text 12 145 INLET_3 float;
#X text 12 165 INLET_4 float;
#X text 12 185 INLET_5 float;
#X restore 730 -86 pd META;
#X obj 284 -194 maxlib/scale 0 9 100 255 0;
#X connect 2 0 3 0;
#X connect 3 0 2 0;
#X connect 6 0 103 1;
#X connect 7 0 103 2;
#X connect 8 0 9 1;
#X connect 9 0 22 0;
#X connect 10 0 12 1;
#X connect 11 0 12 2;
#X connect 11 0 135 2;
#X connect 12 0 103 0;
#X connect 13 0 6 0;
#X connect 14 0 16 0;
#X connect 15 0 13 0;
#X connect 16 0 17 0;
#X connect 16 0 20 0;
#X connect 17 0 16 1;
#X connect 19 0 111 0;
#X connect 20 0 41 0;
#X connect 21 0 113 2;
#X connect 22 0 113 0;
#X connect 23 0 113 1;
#X connect 26 0 104 1;
#X connect 27 0 104 2;
#X connect 28 0 104 2;
#X connect 29 0 112 0;
#X connect 30 0 32 0;
#X connect 31 0 38 0;
#X connect 32 0 33 0;
#X connect 32 0 35 0;
#X connect 33 0 32 1;
#X connect 34 0 31 1;
#X connect 35 0 43 0;
#X connect 36 0 30 0;
#X connect 37 0 31 0;
#X connect 38 0 26 0;
#X connect 39 0 140 0;
#X connect 40 0 93 0;
#X connect 41 0 42 0;
#X connect 42 0 15 0;
#X connect 43 0 37 0;
#X connect 44 0 112 1;
#X connect 45 0 112 2;
#X connect 46 0 14 0;
#X connect 48 0 92 0;
#X connect 49 0 92 0;
#X connect 50 0 92 0;
#X connect 51 0 92 1;
#X connect 53 0 89 0;
#X connect 53 0 57 0;
#X connect 54 0 89 0;
#X connect 55 0 89 0;
#X connect 56 0 100 0;
#X connect 57 0 90 0;
#X connect 57 0 48 0;
#X connect 58 0 90 0;
#X connect 59 0 90 0;
#X connect 60 0 72 0;
#X connect 61 0 60 1;
#X connect 62 0 89 1;
#X connect 63 0 100 3;
#X connect 63 0 62 0;
#X connect 64 0 100 1;
#X connect 65 0 100 2;
#X connect 69 0 72 3;
#X connect 70 0 72 1;
#X connect 71 0 72 2;
#X connect 72 0 90 0;
#X connect 73 0 76 3;
#X connect 74 0 76 1;
#X connect 75 0 76 2;
#X connect 77 0 80 3;
#X connect 78 0 80 1;
#X connect 79 0 80 2;
#X connect 80 0 92 0;
#X connect 81 0 84 3;
#X connect 82 0 84 1;
#X connect 83 0 84 2;
#X connect 85 0 87 3;
#X connect 86 0 87 1;
#X connect 87 0 29 0;
#X connect 88 0 90 1;
#X connect 93 0 115 0;
#X connect 93 0 131 0;
#X connect 93 0 105 0;
#X connect 93 0 123 0;
#X connect 93 0 125 0;
#X connect 93 0 122 0;
#X connect 93 0 121 0;
#X connect 93 0 130 0;
#X connect 94 0 23 0;
#X connect 94 0 44 0;
#X connect 95 0 21 0;
#X connect 95 0 45 0;
#X connect 96 0 88 0;
#X connect 96 0 62 0;
#X connect 96 0 51 0;
#X connect 97 0 86 0;
#X connect 97 0 8 0;
#X connect 98 0 56 1;
#X connect 99 0 12 0;
#X connect 100 0 89 0;
#X connect 101 0 135 0;
#X connect 103 0 9 0;
#X connect 104 0 87 0;
#X connect 105 0 29 1;
#X connect 107 0 143 0;
#X connect 108 0 106 0;
#X connect 109 0 9 3;
#X connect 110 0 120 0;
#X connect 111 0 15 1;
#X connect 114 0 103 2;
#X connect 115 0 95 0;
#X connect 116 0 118 0;
#X connect 117 0 116 0;
#X connect 118 0 129 0;
#X connect 119 0 8 0;
#X connect 120 0 44 0;
#X connect 120 0 133 0;
#X connect 120 0 86 0;
#X connect 121 0 103 2;
#X connect 122 0 104 2;
#X connect 123 0 22 1;
#X connect 124 0 103 2;
#X connect 125 0 94 0;
#X connect 126 0 97 0;
#X connect 127 0 128 0;
#X connect 128 0 288 0;
#X connect 128 0 187 0;
#X connect 128 0 284 0;
#X connect 128 0 142 0;
#X connect 129 0 110 0;
#X connect 130 0 134 0;
#X connect 131 0 126 0;
#X connect 132 0 119 0;
#X connect 133 0 132 0;
#X connect 134 0 109 0;
#X connect 134 0 85 0;
#X connect 135 0 104 0;
#X connect 136 0 135 1;
#X connect 137 0 135 3;
#X connect 137 0 139 0;
#X connect 138 0 12 3;
#X connect 139 0 138 0;
#X connect 140 0 117 0;
#X connect 142 0 11 0;
#X connect 143 0 106 1;
#X connect 144 0 147 0;
#X connect 146 0 145 1;
#X connect 146 0 157 0;
#X connect 147 0 152 0;
#X connect 148 0 153 0;
#X connect 149 0 152 1;
#X connect 150 0 149 0;
#X connect 151 0 152 3;
#X connect 152 0 145 0;
#X connect 153 0 147 1;
#X connect 154 0 108 0;
#X connect 155 0 144 1;
#X connect 156 0 144 0;
#X connect 157 0 150 0;
#X connect 158 0 157 0;
#X connect 158 1 157 1;
#X connect 159 0 158 0;
#X connect 160 0 161 0;
#X connect 161 0 159 0;
#X connect 162 0 163 0;
#X connect 163 0 166 0;
#X connect 163 0 175 0;
#X connect 163 0 174 0;
#X connect 163 0 183 0;
#X connect 163 0 184 0;
#X connect 164 0 165 0;
#X connect 164 0 170 0;
#X connect 165 0 162 0;
#X connect 165 1 162 1;
#X connect 166 0 169 0;
#X connect 167 0 168 0;
#X connect 168 0 170 0;
#X connect 168 1 170 1;
#X connect 169 0 167 0;
#X connect 170 0 171 0;
#X connect 171 0 172 0;
#X connect 172 0 178 0;
#X connect 172 0 179 0;
#X connect 174 0 176 0;
#X connect 175 0 174 1;
#X connect 176 0 177 0;
#X connect 179 0 181 0;
#X connect 183 0 181 1;
#X connect 183 0 182 0;
#X connect 184 0 166 1;
#X connect 187 0 10 0;
#X connect 191 0 192 0;
#X connect 192 0 191 0;
#X connect 195 0 236 1;
#X connect 196 0 236 2;
#X connect 197 0 198 1;
#X connect 198 0 210 0;
#X connect 199 0 201 1;
#X connect 200 0 201 2;
#X connect 200 0 262 2;
#X connect 201 0 236 0;
#X connect 202 0 195 0;
#X connect 203 0 205 0;
#X connect 204 0 202 0;
#X connect 205 0 206 0;
#X connect 205 0 208 0;
#X connect 206 0 205 1;
#X connect 208 0 225 0;
#X connect 209 0 241 2;
#X connect 210 0 241 0;
#X connect 211 0 241 1;
#X connect 214 0 237 1;
#X connect 215 0 237 2;
#X connect 216 0 237 2;
#X connect 217 0 277 0;
#X connect 218 0 220 0;
#X connect 219 0 223 0;
#X connect 220 0 221 0;
#X connect 220 0 222 0;
#X connect 221 0 220 1;
#X connect 222 0 226 0;
#X connect 223 0 214 0;
#X connect 224 0 232 0;
#X connect 225 0 285 0;
#X connect 226 0 286 0;
#X connect 227 0 277 1;
#X connect 228 0 277 2;
#X connect 229 0 231 3;
#X connect 230 0 231 1;
#X connect 231 0 217 0;
#X connect 232 0 243 0;
#X connect 232 0 258 0;
#X connect 232 0 279 0;
#X connect 232 0 278 0;
#X connect 232 0 252 0;
#X connect 232 0 250 0;
#X connect 232 0 249 0;
#X connect 232 0 257 0;
#X connect 233 0 211 0;
#X connect 233 0 227 0;
#X connect 234 0 209 0;
#X connect 234 0 228 0;
#X connect 235 0 230 0;
#X connect 235 0 197 0;
#X connect 236 0 198 0;
#X connect 237 0 231 0;
#X connect 238 0 198 3;
#X connect 239 0 248 0;
#X connect 240 0 204 1;
#X connect 242 0 236 2;
#X connect 243 0 234 0;
#X connect 244 0 246 0;
#X connect 245 0 244 0;
#X connect 246 0 256 0;
#X connect 247 0 197 0;
#X connect 248 0 227 0;
#X connect 248 0 260 0;
#X connect 248 0 230 0;
#X connect 249 0 236 2;
#X connect 250 0 237 2;
#X connect 251 0 236 2;
#X connect 252 0 233 0;
#X connect 253 0 235 0;
#X connect 254 0 255 0;
#X connect 255 0 287 0;
#X connect 255 0 269 0;
#X connect 255 0 289 0;
#X connect 255 0 290 0;
#X connect 256 0 239 0;
#X connect 257 0 261 0;
#X connect 258 0 253 0;
#X connect 259 0 247 0;
#X connect 260 0 259 0;
#X connect 261 0 238 0;
#X connect 261 0 229 0;
#X connect 262 0 237 0;
#X connect 263 0 262 1;
#X connect 264 0 262 3;
#X connect 264 0 266 0;
#X connect 265 0 201 3;
#X connect 266 0 265 0;
#X connect 267 0 245 0;
#X connect 269 0 200 0;
#X connect 271 0 201 0;
#X connect 272 0 262 0;
#X connect 273 0 203 0;
#X connect 274 0 240 0;
#X connect 275 0 219 1;
#X connect 276 0 267 0;
#X connect 278 0 210 1;
#X connect 279 0 217 1;
#X connect 280 0 22 1;
#X connect 281 0 210 1;
#X connect 282 0 281 0;
#X connect 283 0 280 0;
#X connect 284 0 136 0;
#X connect 285 0 204 0;
#X connect 286 0 219 0;
#X connect 287 0 264 0;
#X connect 288 0 137 0;
#X connect 289 0 263 0;
#X connect 290 0 199 0;
#X connect 291 0 218 0;
#X connect 294 0 296 1;
#X connect 294 0 355 1;
#X connect 295 0 296 2;
#X connect 295 0 303 2;
#X connect 296 0 298 0;
#X connect 297 0 300 2;
#X connect 298 0 300 0;
#X connect 299 0 300 1;
#X connect 299 0 354 1;
#X connect 301 0 345 0;
#X connect 302 0 318 0;
#X connect 303 0 314 0;
#X connect 304 0 307 2;
#X connect 305 0 331 0;
#X connect 306 0 314 1;
#X connect 306 0 354 0;
#X connect 308 0 310 0;
#X connect 309 0 294 0;
#X connect 310 0 317 0;
#X connect 311 0 334 0;
#X connect 312 0 336 0;
#X connect 312 0 302 0;
#X connect 313 0 347 0;
#X connect 314 0 305 0;
#X connect 315 0 314 3;
#X connect 316 0 313 0;
#X connect 317 0 309 0;
#X connect 318 0 311 0;
#X connect 319 0 304 0;
#X connect 319 0 348 0;
#X connect 319 0 297 0;
#X connect 320 0 309 1;
#X connect 320 0 311 1;
#X connect 321 0 295 0;
#X connect 322 0 323 0;
#X connect 322 0 331 1;
#X connect 323 0 324 0;
#X connect 325 0 303 3;
#X connect 325 0 296 3;
#X connect 326 0 321 0;
#X connect 326 0 320 0;
#X connect 327 0 318 1;
#X connect 327 0 317 1;
#X connect 328 0 316 1;
#X connect 329 0 299 0;
#X connect 330 0 329 0;
#X connect 331 0 307 0;
#X connect 332 0 333 0;
#X connect 333 0 316 0;
#X connect 333 0 355 0;
#X connect 334 0 303 1;
#X connect 336 0 337 0;
#X connect 337 1 339 0;
#X connect 337 1 341 0;
#X connect 341 0 338 0;
#X connect 342 0 312 0;
#X connect 343 0 298 1;
#X connect 344 0 327 0;
#X connect 345 0 346 0;
#X connect 346 0 328 0;
#X connect 347 0 306 0;
#X connect 348 0 299 0;
#X connect 351 0 296 0;
#X connect 352 0 305 1;
#X connect 353 0 303 0;
#X connect 354 0 307 1;
#X connect 357 0 378 0;
#X connect 362 0 378 1;
#X connect 363 0 378 2;
#X connect 364 0 378 3;
#X connect 365 0 378 4;
#X connect 374 0 378 5;
#X connect 378 0 356 0;
