#N canvas 656 0 1024 1028 12;
#X obj -12 108 inlet;
#X obj 73 441 outlet;
#X obj 903 18 inlet;
#X obj 954 18 inlet;
#X obj 1010 18 inlet;
#X obj 1100 18 inlet;
#X obj 1146 18 inlet;
#X obj 1192 18 inlet;
#X obj 1239 18 inlet;
#X obj 1363 18 inlet;
#X obj 1411 18 inlet;
#X obj 1467 18 inlet;
#X obj 1512 18 inlet;
#X obj 1630 18 inlet;
#X obj 1683 18 inlet;
#X obj 1729 18 inlet;
#X obj 1778 18 inlet;
#X obj 841 18 inlet;
#X obj 106 288 inlet;
#X floatatom 110 313 5 0 0 0 - - -;
#X obj 805 87 f;
#X obj 774 216 nbx 5 14 -1e+37 1e+37 0 0 empty empty empty 0 -8 0 10
-262144 -1 -1 4 256;
#X obj 863 87 f;
#X obj 845 216 nbx 5 14 -1e+37 1e+37 0 0 empty empty empty 0 -8 0 10
-262144 -1 -1 4 256;
#X obj 920 87 f;
#X obj 902 216 nbx 5 14 -1e+37 1e+37 0 0 empty empty empty 0 -8 0 10
-262144 -1 -1 4 256;
#X obj 978 87 f;
#X obj 961 216 nbx 5 14 -1e+37 1e+37 0 0 empty empty empty 0 -8 0 10
-262144 -1 -1 4 256;
#X obj 1054 87 f;
#X obj 1036 216 nbx 5 14 -1e+37 1e+37 0 0 empty empty empty 0 -8 0
10 -262144 -1 -1 0 256;
#X obj 1092 87 f;
#X obj 1094 216 nbx 5 14 -1e+37 1e+37 0 0 empty empty empty 0 -8 0
10 -262144 -1 -1 0 256;
#X obj 1149 87 f;
#X obj 1151 216 nbx 5 14 -1e+37 1e+37 0 0 empty empty empty 0 -8 0
10 -262144 -1 -1 0 256;
#X obj 1207 87 f;
#X obj 1209 216 nbx 5 14 -1e+37 1e+37 0 0 empty empty empty 0 -8 0
10 -262144 -1 -1 0 256;
#X obj 1320 87 f;
#X obj 1302 216 nbx 5 14 -1e+37 1e+37 0 0 empty empty empty 0 -8 0
10 -262144 -1 -1 0 256;
#X obj 1378 87 f;
#X obj 1360 216 nbx 5 14 -1e+37 1e+37 0 0 empty empty empty 0 -8 0
10 -262144 -1 -1 0 256;
#X obj 1435 87 f;
#X obj 1417 216 nbx 5 14 -1e+37 1e+37 0 0 empty empty empty 0 -8 0
10 -262144 -1 -1 0 256;
#X obj 1493 87 f;
#X obj 1475 216 nbx 5 14 -1e+37 1e+37 0 0 empty empty empty 0 -8 0
10 -262144 -1 -1 0 256;
#X obj 1603 87 f;
#X obj 1575 216 nbx 5 14 -1e+37 1e+37 0 0 empty empty empty 0 -8 0
10 -262144 -1 -1 0 256;
#X obj 1646 87 f;
#X obj 1633 216 nbx 5 14 -1e+37 1e+37 0 0 empty empty empty 0 -8 0
10 -262144 -1 -1 0 256;
#X obj 1710 87 f;
#X obj 1690 216 nbx 5 14 -1e+37 1e+37 0 0 empty empty empty 0 -8 0
10 -262144 -1 -1 0 256;
#X obj 1779 87 f;
#X obj 1748 216 nbx 5 14 -1e+37 1e+37 0 0 empty empty empty 0 -8 0
10 -262144 -1 -1 0 256;
#X obj 802 59 nbx 5 14 -1e+37 1e+37 0 0 empty empty empty 0 -8 0 10
-262144 -1 -1 3 256;
#X obj 860 59 nbx 5 14 -1e+37 1e+37 0 0 empty empty empty 0 -8 0 10
-262144 -1 -1 3 256;
#X obj 917 59 nbx 5 14 -1e+37 1e+37 0 0 empty empty empty 0 -8 0 10
-262144 -1 -1 3 256;
#X obj 975 59 nbx 5 14 -1e+37 1e+37 0 0 empty empty empty 0 -8 0 10
-262144 -1 -1 3 256;
#X obj 1071 59 nbx 5 14 -1e+37 1e+37 0 0 empty empty empty 0 -8 0 10
-262144 -1 -1 3 256;
#X obj 1131 59 nbx 5 14 -1e+37 1e+37 0 0 empty empty empty 0 -8 0 10
-262144 -1 -1 3 256;
#X obj 1189 59 nbx 5 14 -1e+37 1e+37 0 0 empty empty empty 0 -8 0 10
-262144 -1 -1 3 256;
#X obj 1246 59 nbx 5 14 -1e+37 1e+37 0 0 empty empty empty 0 -8 0 10
-262144 -1 -1 3 256;
#X obj 1334 59 nbx 5 14 -1e+37 1e+37 0 0 empty empty empty 0 -8 0 10
-262144 -1 -1 3 256;
#X obj 1390 59 nbx 5 14 -1e+37 1e+37 0 0 empty empty empty 0 -8 0 10
-262144 -1 -1 3 256;
#X obj 1449 59 nbx 5 14 -1e+37 1e+37 0 0 empty empty empty 0 -8 0 10
-262144 -1 -1 3 256;
#X obj 1507 59 nbx 5 14 -1e+37 1e+37 0 0 empty empty empty 0 -8 0 10
-262144 -1 -1 3 256;
#X obj 1611 59 nbx 5 14 -1e+37 1e+37 0 0 empty empty empty 0 -8 0 10
-262144 -1 -1 3 256;
#X obj 1672 59 nbx 5 14 -1e+37 1e+37 0 0 empty empty empty 0 -8 0 10
-262144 -1 -1 3 256;
#X obj 1728 59 nbx 5 14 -1e+37 1e+37 0 0 empty empty empty 0 -8 0 10
-262144 -1 -1 3 256;
#X obj 1788 59 nbx 5 14 -1e+37 1e+37 0 0 empty empty empty 0 -8 0 10
-262144 -1 -1 3 256;
#X floatatom 806 146 5 0 0 0 - - -;
#X floatatom 864 146 5 0 0 0 - - -;
#X floatatom 920 146 5 0 0 0 - - -;
#X floatatom 978 146 5 0 0 0 - - -;
#X floatatom 1037 146 5 0 0 0 - - -;
#X floatatom 1095 146 5 0 0 0 - - -;
#X floatatom 1151 146 5 0 0 0 - - -;
#X floatatom 1209 146 5 0 0 0 - - -;
#X floatatom 1302 146 5 0 0 0 - - -;
#X floatatom 1360 146 5 0 0 0 - - -;
#X floatatom 1416 146 5 0 0 0 - - -;
#X floatatom 1474 146 5 0 0 0 - - -;
#X floatatom 1577 146 5 0 0 0 - - -;
#X floatatom 1635 146 5 0 0 0 - - -;
#X floatatom 1691 146 5 0 0 0 - - -;
#X floatatom 1749 146 5 0 0 0 - - -;
#X msg 1874 128 1;
#X obj 1871 96 r lo;
#X floatatom 1833 129 5 0 0 0 - - -;
#X floatatom 730 134 5 0 0 0 - - -;
#X obj 728 106 * 1;
#X floatatom 741 551 5 0 0 0 - - -;
#X floatatom 818 551 5 0 0 0 - - -;
#X floatatom 872 551 5 0 0 0 - - -;
#X floatatom 929 551 5 0 0 0 - - -;
#X floatatom 668 568 5 0 0 0 - - -;
#X floatatom 1005 551 5 0 0 0 - - -;
#X floatatom 1063 551 5 0 0 0 - - -;
#X floatatom 1117 551 5 0 0 0 - - -;
#X floatatom 1180 551 5 0 0 0 - - -;
#X floatatom 1293 551 5 0 0 0 - - -;
#X floatatom 1344 551 5 0 0 0 - - -;
#X floatatom 1400 551 5 0 0 0 - - -;
#X obj 767 517 f;
#X obj 1842 381 r lo;
#X obj 818 517 f;
#X obj 872 517 f;
#X obj 929 517 f;
#X obj 1005 517 f;
#X obj 1063 517 f;
#X obj 1117 517 f;
#X obj 1180 517 f;
#X obj 1306 517 f;
#X obj 1359 517 f;
#X obj 1429 517 f;
#X obj 1496 517 f;
#X obj 1562 517 f;
#X obj 1603 517 f;
#X obj 1652 517 f;
#X obj 1716 517 f;
#X floatatom 1459 551 5 0 0 0 - - -;
#X floatatom 1565 551 5 0 0 0 - - -;
#X floatatom 1618 551 5 0 0 0 - - -;
#X floatatom 1676 551 5 0 0 0 - - -;
#X floatatom 1731 551 5 0 0 0 - - -;
#X obj 760 312 *;
#X obj 826 312 *;
#X obj 889 312 *;
#X obj 948 312 *;
#X obj 1039 312 *;
#X obj 1095 312 *;
#X obj 1150 312 *;
#X obj 1205 312 *;
#X obj 1277 312 *;
#X obj 1343 312 *;
#X obj 1401 312 *;
#X obj 1462 312 *;
#X obj 1584 312 *;
#X obj 1631 312 *;
#X obj 1696 302 *;
#X obj 1752 302 *;
#X obj 150 315 r lo;
#X msg 1818 533 1;
#X obj 1030 467 * 1;
#X obj 1088 467 * 1;
#X obj 1159 467 * 1;
#X obj 1216 467 * 1;
#X obj 1296 467 * 1;
#X obj 1344 467 * 1;
#X obj 1421 467 * 1;
#X obj 1477 467 * 1;
#X obj 1570 467 * 1;
#X obj 1630 467 * 1;
#X obj 1677 467 * 1;
#X obj 1723 467 * 1;
#X obj 907 467 * 1;
#X obj 838 467 * 1;
#X obj 792 467 * 1;
#X obj 756 399 tgl 15 0 empty empty empty 17 7 0 10 -262144 -1 -1 1
1;
#X obj 808 399 tgl 15 0 empty empty empty 17 7 0 10 -262144 -1 -1 1
1;
#X obj 863 399 tgl 15 0 empty empty empty 17 7 0 10 -262144 -1 -1 1
1;
#X obj 922 399 tgl 15 0 empty empty empty 17 7 0 10 -262144 -1 -1 1
1;
#X obj 1029 399 tgl 15 0 empty empty empty 17 7 0 10 -262144 -1 -1
1 1;
#X obj 1085 399 tgl 15 0 empty empty empty 17 7 0 10 -262144 -1 -1
1 1;
#X obj 1151 399 tgl 15 0 empty empty empty 17 7 0 10 -262144 -1 -1
1 1;
#X obj 1210 399 tgl 15 0 empty empty empty 17 7 0 10 -262144 -1 -1
1 1;
#X obj 1282 399 tgl 15 0 empty empty empty 17 7 0 10 -262144 -1 -1
1 1;
#X obj 1353 399 tgl 15 0 empty empty empty 17 7 0 10 -262144 -1 -1
1 1;
#X obj 1425 399 tgl 15 0 empty empty empty 17 7 0 10 -262144 -1 -1
1 1;
#X obj 1480 399 tgl 15 0 empty empty empty 17 7 0 10 -262144 -1 -1
1 1;
#X obj 1567 399 tgl 15 0 empty empty empty 17 7 0 10 -262144 -1 -1
1 1;
#X obj 1627 399 tgl 15 0 empty empty empty 17 7 0 10 -262144 -1 -1
1 1;
#X obj 1683 399 tgl 15 0 empty empty empty 17 7 0 10 -262144 -1 -1
1 1;
#X obj 1741 399 tgl 15 0 empty empty empty 17 7 0 10 -262144 -1 -1
1 1;
#X obj 386 -339 inlet;
#X obj 739 581 s sof32;
#X obj 803 581 s sof33;
#X obj 865 581 s sof34;
#X obj 933 581 s sof35;
#X obj 1012 581 s sof36;
#X obj 1080 581 s sof37;
#X obj 1148 581 s sof38;
#X obj 1214 581 s sof39;
#X obj 1292 581 s sof40;
#X obj 1358 581 s sof41;
#X obj 1416 581 s sof42;
#X obj 1473 581 s sof43;
#X obj 1561 581 s sof44;
#X obj 1622 581 s sof45;
#X obj 1681 581 s sof46;
#X obj 1737 581 s sof47;
#X obj 669 589 s trgrB;
#X obj 754 424 onoff32;
#X obj 817 424 onoff33;
#X obj 877 424 onoff34;
#X obj 937 424 onoff35;
#X obj 1007 424 onoff36;
#X obj 1069 424 onoff37;
#X obj 1130 424 onoff38;
#X obj 1193 424 onoff39;
#X obj 1283 424 onoff40;
#X obj 1349 424 onoff41;
#X obj 1411 424 onoff42;
#X obj 1475 424 onoff43;
#X obj 1549 424 onoff44;
#X obj 1615 424 onoff45;
#X obj 1689 424 onoff46;
#X obj 1752 424 onoff47;
#X obj 757 371 r of32;
#X obj 812 371 r of33;
#X obj 862 371 r of34;
#X obj 921 371 r of35;
#X obj 1026 371 r of36;
#X obj 1081 371 r of37;
#X obj 1139 371 r of38;
#X obj 1195 371 r of39;
#X obj 1280 371 r of40;
#X obj 1347 371 r of41;
#X obj 1411 371 r of42;
#X obj 1476 371 r of43;
#X obj 1565 371 r of44;
#X obj 1629 371 r of45;
#X obj 1687 371 r of46;
#X obj 1748 371 r of47;
#X obj 1039 338 out36;
#X obj 1095 338 out37;
#X obj 1150 338 out38;
#X obj 1205 338 out39;
#X obj 1279 338 out40;
#X obj 1401 338 out42;
#X obj 1341 338 out41;
#X obj 1462 338 out43;
#X obj 1584 338 out44;
#X obj 1631 338 out45;
#X obj 1696 338 out46;
#X obj 1752 338 out47;
#X obj 889 338 out34;
#X obj 829 338 out33;
#X obj 948 338 out35;
#X obj 756 338 out32;
#X obj 1835 100 * 1;
#X obj 788 183 +;
#X obj 846 183 +;
#X obj 903 183 +;
#X obj 960 183 +;
#X obj 1039 183 +;
#X obj 1097 183 +;
#X obj 1153 183 +;
#X obj 1211 183 +;
#X obj 1304 183 +;
#X obj 1362 183 +;
#X obj 1418 183 +;
#X obj 1476 183 +;
#X obj 1579 183 +;
#X obj 1638 183 +;
#X obj 1693 183 +;
#X obj 1751 183 +;
#X obj 767 271 t b f;
#X obj 817 271 t b f;
#X obj 877 271 t b f;
#X obj 937 271 t b f;
#X obj 1017 271 t b f;
#X obj 1076 271 t b f;
#X obj 1128 271 t b f;
#X obj 1190 271 t b f;
#X obj 1293 271 t b f;
#X obj 1352 271 t b f;
#X obj 1412 271 t b f;
#X obj 1472 271 t b f;
#X obj 1567 271 t b f;
#X obj 1617 271 t b f;
#X obj 1670 271 t b f;
#X obj 1743 271 t b f;
#X obj 69 415 s mod111;
#X obj 300 178 - 1;
#X obj 298 201 * -1;
#X obj 356 249 spigot-toggle_red;
#X floatatom 414 252 5 0 0 0 - - -;
#X obj 355 276 random 15;
#X obj 354 212 bng 15 250 50 0 empty empty empty 17 7 0 10 -262144
-1 -1;
#X obj 349 326 f;
#X obj 348 304 spigot-toggle_red;
#X obj 958 467 * 1;
#X obj 149 140 bng 15 250 50 0 empty empty empty 17 7 0 10 -262144
-1 -1;
#X floatatom -29 48 5 0 0 0 - - -;
#X obj 668 103 bng 15 250 50 0 empty empty empty 17 7 0 10 -262144
-1 -1;
#X obj 624 103 bng 15 250 50 0 empty empty empty 17 7 0 10 -262144
-1 -1;
#X obj 532 103 bng 15 250 50 0 empty empty empty 17 7 0 10 -262144
-1 -1;
#X obj 488 103 bng 15 250 50 0 empty empty empty 17 7 0 10 -262144
-1 -1;
#X obj 599 103 bng 15 250 50 0 empty empty empty 17 7 0 10 -262144
-1 -1;
#X obj 554 103 bng 15 250 50 0 empty empty empty 17 7 0 10 -262144
-1 -1;
#X obj 575 103 bng 15 250 50 0 empty empty empty 17 7 0 10 -262144
-1 -1;
#X obj 508 103 bng 15 250 50 0 empty empty empty 17 7 0 10 -262144
-1 -1;
#X obj 645 103 bng 15 250 50 0 empty empty empty 17 7 0 10 -262144
-1 -1;
#X obj 336 103 bng 15 250 50 0 empty empty empty 17 7 0 10 -262144
-1 -1;
#X obj 360 103 bng 15 250 50 0 empty empty empty 17 7 0 10 -262144
-1 -1;
#X obj 380 103 bng 15 250 50 0 empty empty empty 17 7 0 10 -262144
-1 -1;
#X obj 404 103 bng 15 250 50 0 empty empty empty 17 7 0 10 -262144
-1 -1;
#X obj 423 103 bng 15 250 50 0 empty empty empty 17 7 0 10 -262144
-1 -1;
#X obj 445 103 bng 15 250 50 0 empty empty empty 17 7 0 10 -262144
-1 -1;
#X obj 469 103 bng 15 250 50 0 empty empty empty 17 7 0 10 -262144
-1 -1;
#X obj 688 103 bng 15 250 50 0 empty empty empty 17 7 0 10 -262144
-1 -1;
#X floatatom 798 657 5 0 0 0 - - -;
#X floatatom 849 657 5 0 0 0 - - -;
#X floatatom 913 657 5 0 0 0 - - -;
#X floatatom 662 675 5 0 0 0 - - -;
#X floatatom 985 657 5 0 0 0 - - -;
#X floatatom 1040 657 5 0 0 0 - - -;
#X floatatom 1100 657 5 0 0 0 - - -;
#X floatatom 1156 657 5 0 0 0 - - -;
#X floatatom 1282 657 5 0 0 0 - - -;
#X floatatom 1333 657 5 0 0 0 - - -;
#X floatatom 1389 657 5 0 0 0 - - -;
#X obj 793 626 f;
#X obj 847 626 f;
#X obj 900 626 f;
#X obj 980 626 f;
#X obj 1038 626 f;
#X obj 1092 626 f;
#X obj 1155 626 f;
#X obj 1281 626 f;
#X obj 1326 626 f;
#X obj 1404 626 f;
#X obj 1471 626 f;
#X obj 1537 626 f;
#X obj 1578 626 f;
#X obj 1627 626 f;
#X obj 1691 626 f;
#X floatatom 1448 657 5 0 0 0 - - -;
#X floatatom 1534 657 5 0 0 0 - - -;
#X floatatom 1587 657 5 0 0 0 - - -;
#X floatatom 1645 657 5 0 0 0 - - -;
#X floatatom 1691 657 5 0 0 0 - - -;
#X obj 477 612 bng 15 250 50 0 empty empty empty 17 7 0 10 -262144
-1 -1;
#X obj 457 612 bng 15 250 50 0 empty empty empty 17 7 0 10 -262144
-1 -1;
#X obj 419 612 bng 15 250 50 0 empty empty empty 17 7 0 10 -262144
-1 -1;
#X obj 438 612 bng 15 250 50 0 empty empty empty 17 7 0 10 -262144
-1 -1;
#X obj 340 567 select 0 1 2 3 4 5 6 7 8 9 10 11 12 13 14 15;
#X obj 400 612 bng 15 250 50 0 empty empty empty 17 7 0 10 -262144
-1 -1;
#X obj 360 612 bng 15 250 50 0 empty empty empty 17 7 0 10 -262144
-1 -1;
#X obj 340 612 bng 15 250 50 0 empty empty empty 17 7 0 10 -262144
-1 -1;
#X obj 380 612 bng 15 250 50 0 empty empty empty 17 7 0 10 -262144
-1 -1;
#X floatatom 736 657 5 0 0 0 - - -;
#X obj 739 626 f;
#X obj 623 612 bng 15 250 50 0 empty empty empty 17 7 0 10 -262144
-1 -1;
#X obj 539 612 bng 15 250 50 0 empty empty empty 17 7 0 10 -262144
-1 -1;
#X obj 497 612 bng 15 250 50 0 empty empty empty 17 7 0 10 -262144
-1 -1;
#X obj 603 612 bng 15 250 50 0 empty empty empty 17 7 0 10 -262144
-1 -1;
#X obj 560 612 bng 15 250 50 0 empty empty empty 17 7 0 10 -262144
-1 -1;
#X obj 581 612 bng 15 250 50 0 empty empty empty 17 7 0 10 -262144
-1 -1;
#X obj 516 612 bng 15 250 50 0 empty empty empty 17 7 0 10 -262144
-1 -1;
#X obj 645 612 bng 15 250 50 0 empty empty empty 17 7 0 10 -262144
-1 -1;
#X floatatom -21 522 5 0 0 0 - - -;
#X floatatom -64 548 5 0 0 0 - - -;
#X obj -64 522 mod 2;
#X obj -63 454 bng 15 250 50 0 empty empty empty 17 7 0 10 -262144
-1 -1;
#X obj -63 474 f;
#X obj -63 498 + 1;
#X floatatom -5 132 5 0 0 0 - - -;
#X obj -33 16 r ITfloatB;
#X floatatom 74 264 5 0 0 0 - - -;
#X obj 73 240 spigot-toggle_red;
#X obj 306 229 r lo;
#X obj 361 -150 line;
#X floatatom 425 -202 5 0 0 0 - - -;
#X obj 361 -179 pack \$1 \$2;
#X floatatom 363 -207 5 0 0 0 - - -;
#X floatatom 365 -89 5 0 0 0 - - -;
#X obj 428 -308 t b f;
#X floatatom 429 -333 5 0 0 0 - - -;
#X obj 429 -275 * 0;
#X obj 365 -115 + 0;
#X obj 405 -136 r addB;
#X obj 429 -242 s R$B;
#X obj 362 -276 r T$mod1;
#X obj 355 -46 outlet;
#X obj -64 431 r ITBAngB;
#X floatatom 402 -113 5 0 0 0 - - -;
#X obj 641 507 bng 15 250 50 0 empty empty empty 17 7 0 10 -262144
-1 -1;
#X obj 598 507 bng 15 250 50 0 empty empty empty 17 7 0 10 -262144
-1 -1;
#X obj 515 507 bng 15 250 50 0 empty empty empty 17 7 0 10 -262144
-1 -1;
#X obj 477 507 bng 15 250 50 0 empty empty empty 17 7 0 10 -262144
-1 -1;
#X obj 577 507 bng 15 250 50 0 empty empty empty 17 7 0 10 -262144
-1 -1;
#X obj 535 507 bng 15 250 50 0 empty empty empty 17 7 0 10 -262144
-1 -1;
#X obj 556 507 bng 15 250 50 0 empty empty empty 17 7 0 10 -262144
-1 -1;
#X obj 496 507 bng 15 250 50 0 empty empty empty 17 7 0 10 -262144
-1 -1;
#X obj 619 507 bng 15 250 50 0 empty empty empty 17 7 0 10 -262144
-1 -1;
#X obj 341 507 bng 15 250 50 0 empty empty empty 17 7 0 10 -262144
-1 -1;
#X obj 361 507 bng 15 250 50 0 empty empty empty 17 7 0 10 -262144
-1 -1;
#X obj 381 507 bng 15 250 50 0 empty empty empty 17 7 0 10 -262144
-1 -1;
#X obj 400 507 bng 15 250 50 0 empty empty empty 17 7 0 10 -262144
-1 -1;
#X obj 419 507 bng 15 250 50 0 empty empty empty 17 7 0 10 -262144
-1 -1;
#X obj 438 507 bng 15 250 50 0 empty empty empty 17 7 0 10 -262144
-1 -1;
#X obj 458 507 bng 15 250 50 0 empty empty empty 17 7 0 10 -262144
-1 -1;
#X obj 663 507 bng 15 250 50 0 empty empty empty 17 7 0 10 -262144
-1 -1;
#X obj 342 476 select 0 1 2 3 4 5 6 7 8 9 10 11 12 13 14 15;
#X obj 664 696 s trgrBafter;
#X obj 355 184 r ITBAngB;
#X obj 66 311 mod 2;
#X obj 148 164 f;
#X obj 342 69 select 0 1 2 3 4 5 6 7 8 9 10 11 12 13 14 15;
#X floatatom 76 352 5 0 0 0 - - -;
#X obj 373 208 r ctnlstepB;
#X obj 414 230 r rdmnbrB;
#X obj 667 611 bng 15 250 50 0 empty empty empty 17 7 0 10 -262144
-1 -1;
#X obj 131 60 r BAonoff;
#X obj 149 110 r BB1;
#X connect 0 0 356 0;
#X connect 2 0 53 0;
#X connect 3 0 54 0;
#X connect 4 0 55 0;
#X connect 5 0 56 0;
#X connect 6 0 57 0;
#X connect 7 0 58 0;
#X connect 8 0 59 0;
#X connect 9 0 60 0;
#X connect 10 0 61 0;
#X connect 11 0 62 0;
#X connect 12 0 63 0;
#X connect 13 0 64 0;
#X connect 14 0 65 0;
#X connect 15 0 66 0;
#X connect 16 0 67 0;
#X connect 17 0 52 0;
#X connect 18 0 19 0;
#X connect 19 0 350 0;
#X connect 19 0 275 0;
#X connect 19 0 396 1;
#X connect 20 0 88 0;
#X connect 20 0 239 0;
#X connect 21 0 123 0;
#X connect 22 0 88 0;
#X connect 22 0 240 0;
#X connect 23 0 124 0;
#X connect 24 0 88 0;
#X connect 24 0 241 0;
#X connect 25 0 125 0;
#X connect 26 0 88 0;
#X connect 26 0 242 0;
#X connect 27 0 126 0;
#X connect 28 0 88 0;
#X connect 28 0 243 0;
#X connect 29 0 127 0;
#X connect 30 0 88 0;
#X connect 30 0 244 0;
#X connect 31 0 128 0;
#X connect 32 0 88 0;
#X connect 32 0 245 0;
#X connect 33 0 129 0;
#X connect 34 0 88 0;
#X connect 34 0 246 0;
#X connect 35 0 130 0;
#X connect 36 0 88 0;
#X connect 36 0 247 0;
#X connect 37 0 131 0;
#X connect 38 0 88 0;
#X connect 38 0 248 0;
#X connect 39 0 132 0;
#X connect 40 0 88 0;
#X connect 40 0 249 0;
#X connect 41 0 133 0;
#X connect 42 0 88 0;
#X connect 42 0 250 0;
#X connect 43 0 134 0;
#X connect 44 0 88 0;
#X connect 44 0 251 0;
#X connect 45 0 135 0;
#X connect 46 0 88 0;
#X connect 46 0 252 0;
#X connect 47 0 136 0;
#X connect 48 0 88 0;
#X connect 48 0 253 0;
#X connect 49 0 137 0;
#X connect 50 0 88 0;
#X connect 50 0 254 0;
#X connect 51 0 138 0;
#X connect 52 0 20 1;
#X connect 53 0 22 1;
#X connect 54 0 24 1;
#X connect 55 0 26 1;
#X connect 56 0 28 1;
#X connect 57 0 30 1;
#X connect 58 0 32 1;
#X connect 59 0 34 1;
#X connect 60 0 36 1;
#X connect 61 0 38 1;
#X connect 62 0 40 1;
#X connect 63 0 42 1;
#X connect 64 0 44 1;
#X connect 65 0 46 1;
#X connect 66 0 48 1;
#X connect 67 0 50 1;
#X connect 68 0 239 1;
#X connect 69 0 240 1;
#X connect 70 0 241 1;
#X connect 71 0 242 1;
#X connect 72 0 243 1;
#X connect 73 0 244 1;
#X connect 74 0 245 1;
#X connect 75 0 246 1;
#X connect 76 0 247 1;
#X connect 77 0 248 1;
#X connect 78 0 249 1;
#X connect 79 0 250 1;
#X connect 80 0 251 1;
#X connect 81 0 252 1;
#X connect 82 0 253 1;
#X connect 83 0 254 1;
#X connect 84 0 68 0;
#X connect 84 0 69 0;
#X connect 84 0 70 0;
#X connect 84 0 71 0;
#X connect 84 0 72 0;
#X connect 84 0 73 0;
#X connect 84 0 74 0;
#X connect 84 0 75 0;
#X connect 84 0 76 0;
#X connect 84 0 77 0;
#X connect 84 0 78 0;
#X connect 84 0 79 0;
#X connect 84 0 80 0;
#X connect 84 0 81 0;
#X connect 84 0 82 0;
#X connect 84 0 83 0;
#X connect 85 0 84 0;
#X connect 86 0 68 0;
#X connect 86 0 69 0;
#X connect 86 0 70 0;
#X connect 86 0 72 0;
#X connect 86 0 74 0;
#X connect 86 0 76 0;
#X connect 86 0 77 0;
#X connect 86 0 78 0;
#X connect 86 0 79 0;
#X connect 86 0 80 0;
#X connect 86 0 81 0;
#X connect 86 0 82 0;
#X connect 86 0 83 0;
#X connect 86 0 75 0;
#X connect 86 0 73 0;
#X connect 86 0 71 0;
#X connect 87 0 364 0;
#X connect 88 0 87 0;
#X connect 89 0 93 0;
#X connect 89 0 173 0;
#X connect 90 0 93 0;
#X connect 90 0 174 0;
#X connect 91 0 93 0;
#X connect 91 0 175 0;
#X connect 92 0 93 0;
#X connect 92 0 176 0;
#X connect 93 0 189 0;
#X connect 94 0 93 0;
#X connect 94 0 177 0;
#X connect 95 0 93 0;
#X connect 95 0 178 0;
#X connect 96 0 93 0;
#X connect 96 0 179 0;
#X connect 97 0 93 0;
#X connect 97 0 180 0;
#X connect 98 0 93 0;
#X connect 98 0 181 0;
#X connect 99 0 93 0;
#X connect 99 0 182 0;
#X connect 100 0 93 0;
#X connect 100 0 183 0;
#X connect 101 0 89 0;
#X connect 102 0 140 0;
#X connect 102 0 170 0;
#X connect 102 0 169 0;
#X connect 102 0 168 0;
#X connect 102 0 167 0;
#X connect 102 0 166 0;
#X connect 102 0 165 0;
#X connect 102 0 164 0;
#X connect 102 0 163 0;
#X connect 102 0 162 0;
#X connect 102 0 161 0;
#X connect 102 0 160 0;
#X connect 102 0 159 0;
#X connect 102 0 158 0;
#X connect 102 0 157 0;
#X connect 102 0 156 0;
#X connect 102 0 171 0;
#X connect 103 0 90 0;
#X connect 104 0 91 0;
#X connect 105 0 92 0;
#X connect 106 0 94 0;
#X connect 107 0 95 0;
#X connect 108 0 96 0;
#X connect 109 0 97 0;
#X connect 110 0 98 0;
#X connect 111 0 99 0;
#X connect 112 0 100 0;
#X connect 113 0 118 0;
#X connect 114 0 119 0;
#X connect 115 0 120 0;
#X connect 116 0 121 0;
#X connect 117 0 122 0;
#X connect 118 0 93 0;
#X connect 118 0 184 0;
#X connect 119 0 93 0;
#X connect 119 0 185 0;
#X connect 120 0 93 0;
#X connect 120 0 186 0;
#X connect 121 0 93 0;
#X connect 121 0 187 0;
#X connect 122 0 93 0;
#X connect 122 0 188 0;
#X connect 123 0 237 0;
#X connect 124 0 235 0;
#X connect 125 0 234 0;
#X connect 126 0 236 0;
#X connect 127 0 222 0;
#X connect 128 0 223 0;
#X connect 129 0 224 0;
#X connect 130 0 225 0;
#X connect 131 0 226 0;
#X connect 132 0 228 0;
#X connect 133 0 227 0;
#X connect 134 0 229 0;
#X connect 135 0 230 0;
#X connect 136 0 231 0;
#X connect 137 0 232 0;
#X connect 138 0 233 0;
#X connect 139 0 19 0;
#X connect 140 0 89 0;
#X connect 140 0 90 0;
#X connect 140 0 91 0;
#X connect 140 0 94 0;
#X connect 140 0 95 0;
#X connect 140 0 92 0;
#X connect 140 0 96 0;
#X connect 140 0 97 0;
#X connect 140 0 98 0;
#X connect 140 0 99 0;
#X connect 140 0 100 0;
#X connect 140 0 118 0;
#X connect 140 0 119 0;
#X connect 140 0 120 0;
#X connect 140 0 121 0;
#X connect 140 0 122 0;
#X connect 141 0 106 1;
#X connect 141 0 259 0;
#X connect 141 0 314 1;
#X connect 142 0 107 1;
#X connect 142 0 260 0;
#X connect 142 0 315 1;
#X connect 143 0 108 1;
#X connect 143 0 261 0;
#X connect 143 0 316 1;
#X connect 144 0 109 1;
#X connect 144 0 262 0;
#X connect 144 0 317 1;
#X connect 145 0 110 1;
#X connect 145 0 263 0;
#X connect 145 0 318 1;
#X connect 146 0 111 1;
#X connect 146 0 264 0;
#X connect 146 0 319 1;
#X connect 147 0 112 1;
#X connect 147 0 265 0;
#X connect 147 0 320 1;
#X connect 148 0 113 1;
#X connect 148 0 266 0;
#X connect 148 0 321 1;
#X connect 149 0 114 1;
#X connect 149 0 267 0;
#X connect 149 0 322 1;
#X connect 150 0 115 1;
#X connect 150 0 268 0;
#X connect 150 0 323 1;
#X connect 151 0 116 1;
#X connect 151 0 269 0;
#X connect 151 0 324 1;
#X connect 152 0 117 1;
#X connect 152 0 270 0;
#X connect 152 0 325 1;
#X connect 153 0 104 1;
#X connect 153 0 257 0;
#X connect 153 0 312 1;
#X connect 154 0 103 1;
#X connect 154 0 256 0;
#X connect 154 0 311 1;
#X connect 155 0 101 1;
#X connect 155 0 255 0;
#X connect 155 0 341 1;
#X connect 156 0 155 0;
#X connect 157 0 154 0;
#X connect 158 0 153 0;
#X connect 159 0 280 0;
#X connect 160 0 141 0;
#X connect 161 0 142 0;
#X connect 162 0 143 0;
#X connect 163 0 144 0;
#X connect 164 0 145 0;
#X connect 165 0 146 0;
#X connect 166 0 147 0;
#X connect 167 0 148 0;
#X connect 168 0 149 0;
#X connect 169 0 150 0;
#X connect 170 0 151 0;
#X connect 171 0 152 0;
#X connect 172 0 367 0;
#X connect 190 0 156 0;
#X connect 191 0 157 0;
#X connect 192 0 158 0;
#X connect 193 0 159 0;
#X connect 194 0 160 0;
#X connect 195 0 161 0;
#X connect 196 0 162 0;
#X connect 197 0 163 0;
#X connect 198 0 164 0;
#X connect 199 0 165 0;
#X connect 200 0 166 0;
#X connect 201 0 167 0;
#X connect 202 0 168 0;
#X connect 203 0 169 0;
#X connect 204 0 170 0;
#X connect 205 0 171 0;
#X connect 206 0 156 0;
#X connect 207 0 157 0;
#X connect 208 0 158 0;
#X connect 209 0 159 0;
#X connect 210 0 160 0;
#X connect 211 0 161 0;
#X connect 212 0 162 0;
#X connect 213 0 163 0;
#X connect 214 0 164 0;
#X connect 215 0 165 0;
#X connect 216 0 166 0;
#X connect 217 0 167 0;
#X connect 218 0 168 0;
#X connect 219 0 169 0;
#X connect 220 0 170 0;
#X connect 221 0 171 0;
#X connect 238 0 86 0;
#X connect 239 0 21 0;
#X connect 240 0 23 0;
#X connect 241 0 25 0;
#X connect 242 0 27 0;
#X connect 243 0 29 0;
#X connect 244 0 31 0;
#X connect 245 0 33 0;
#X connect 246 0 35 0;
#X connect 247 0 37 0;
#X connect 248 0 39 0;
#X connect 249 0 41 0;
#X connect 250 0 43 0;
#X connect 251 0 45 0;
#X connect 252 0 47 0;
#X connect 253 0 49 0;
#X connect 254 0 51 0;
#X connect 255 0 123 0;
#X connect 255 1 123 1;
#X connect 256 0 124 0;
#X connect 256 1 124 1;
#X connect 257 0 125 0;
#X connect 257 1 125 1;
#X connect 258 0 126 0;
#X connect 258 1 126 1;
#X connect 259 0 127 0;
#X connect 259 1 127 1;
#X connect 260 0 128 0;
#X connect 260 1 128 1;
#X connect 261 0 129 0;
#X connect 261 1 129 1;
#X connect 262 0 130 0;
#X connect 262 1 130 1;
#X connect 263 0 131 0;
#X connect 263 1 131 1;
#X connect 264 0 132 0;
#X connect 264 1 132 1;
#X connect 265 0 133 0;
#X connect 265 1 133 1;
#X connect 266 0 134 0;
#X connect 266 1 134 1;
#X connect 267 0 135 0;
#X connect 267 1 135 1;
#X connect 268 0 136 0;
#X connect 268 1 136 1;
#X connect 269 0 137 0;
#X connect 269 1 137 1;
#X connect 270 0 138 0;
#X connect 270 1 138 1;
#X connect 272 0 273 0;
#X connect 273 0 359 1;
#X connect 274 0 276 0;
#X connect 275 0 276 1;
#X connect 276 0 278 1;
#X connect 277 0 274 0;
#X connect 278 0 399 0;
#X connect 279 0 278 0;
#X connect 280 0 105 1;
#X connect 280 0 258 0;
#X connect 280 0 313 1;
#X connect 281 0 279 0;
#X connect 281 0 397 0;
#X connect 282 0 354 1;
#X connect 282 0 397 1;
#X connect 300 0 303 0;
#X connect 301 0 303 0;
#X connect 302 0 303 0;
#X connect 303 0 394 0;
#X connect 304 0 303 0;
#X connect 305 0 303 0;
#X connect 306 0 303 0;
#X connect 307 0 303 0;
#X connect 308 0 303 0;
#X connect 309 0 303 0;
#X connect 310 0 303 0;
#X connect 311 0 300 0;
#X connect 312 0 301 0;
#X connect 313 0 302 0;
#X connect 314 0 304 0;
#X connect 315 0 305 0;
#X connect 316 0 306 0;
#X connect 317 0 307 0;
#X connect 318 0 308 0;
#X connect 319 0 309 0;
#X connect 320 0 310 0;
#X connect 321 0 326 0;
#X connect 322 0 327 0;
#X connect 323 0 328 0;
#X connect 324 0 329 0;
#X connect 325 0 330 0;
#X connect 326 0 303 0;
#X connect 327 0 303 0;
#X connect 328 0 303 0;
#X connect 329 0 303 0;
#X connect 330 0 303 0;
#X connect 331 0 317 0;
#X connect 332 0 316 0;
#X connect 333 0 314 0;
#X connect 334 0 315 0;
#X connect 335 0 338 0;
#X connect 335 1 337 0;
#X connect 335 2 339 0;
#X connect 335 3 336 0;
#X connect 335 4 333 0;
#X connect 335 5 334 0;
#X connect 335 6 332 0;
#X connect 335 7 331 0;
#X connect 335 8 344 0;
#X connect 335 9 348 0;
#X connect 335 10 343 0;
#X connect 335 11 346 0;
#X connect 335 12 347 0;
#X connect 335 13 345 0;
#X connect 335 14 342 0;
#X connect 335 15 349 0;
#X connect 335 16 402 0;
#X connect 336 0 313 0;
#X connect 337 0 311 0;
#X connect 338 0 341 0;
#X connect 339 0 312 0;
#X connect 340 0 303 0;
#X connect 341 0 340 0;
#X connect 342 0 324 0;
#X connect 343 0 320 0;
#X connect 344 0 318 0;
#X connect 345 0 323 0;
#X connect 346 0 321 0;
#X connect 347 0 322 0;
#X connect 348 0 319 0;
#X connect 349 0 325 0;
#X connect 350 0 352 1;
#X connect 351 0 335 0;
#X connect 352 0 351 0;
#X connect 353 0 354 0;
#X connect 354 0 355 0;
#X connect 355 0 352 0;
#X connect 357 0 282 0;
#X connect 358 0 396 0;
#X connect 359 0 358 0;
#X connect 360 0 359 1;
#X connect 361 0 369 0;
#X connect 362 0 363 1;
#X connect 363 0 361 0;
#X connect 364 0 363 0;
#X connect 365 0 373 0;
#X connect 366 0 368 0;
#X connect 366 1 368 1;
#X connect 367 0 366 0;
#X connect 368 0 362 0;
#X connect 368 0 371 0;
#X connect 369 0 365 0;
#X connect 370 0 375 0;
#X connect 372 0 368 0;
#X connect 374 0 353 0;
#X connect 375 0 369 1;
#X connect 376 0 117 0;
#X connect 377 0 115 0;
#X connect 378 0 111 0;
#X connect 379 0 109 0;
#X connect 380 0 114 0;
#X connect 381 0 112 0;
#X connect 382 0 113 0;
#X connect 383 0 110 0;
#X connect 384 0 116 0;
#X connect 385 0 101 0;
#X connect 386 0 103 0;
#X connect 387 0 104 0;
#X connect 388 0 105 0;
#X connect 389 0 106 0;
#X connect 390 0 107 0;
#X connect 391 0 108 0;
#X connect 393 0 385 0;
#X connect 393 1 386 0;
#X connect 393 2 387 0;
#X connect 393 3 388 0;
#X connect 393 4 389 0;
#X connect 393 5 390 0;
#X connect 393 6 391 0;
#X connect 393 7 379 0;
#X connect 393 8 383 0;
#X connect 393 9 378 0;
#X connect 393 10 381 0;
#X connect 393 11 382 0;
#X connect 393 12 380 0;
#X connect 393 13 377 0;
#X connect 393 14 384 0;
#X connect 393 15 376 0;
#X connect 393 16 392 0;
#X connect 395 0 277 0;
#X connect 396 0 399 0;
#X connect 397 0 359 0;
#X connect 398 0 20 0;
#X connect 398 0 292 0;
#X connect 398 1 22 0;
#X connect 398 1 293 0;
#X connect 398 2 24 0;
#X connect 398 2 294 0;
#X connect 398 3 26 0;
#X connect 398 3 295 0;
#X connect 398 4 28 0;
#X connect 398 4 296 0;
#X connect 398 5 30 0;
#X connect 398 5 297 0;
#X connect 398 6 32 0;
#X connect 398 6 298 0;
#X connect 398 7 34 0;
#X connect 398 7 286 0;
#X connect 398 8 36 0;
#X connect 398 8 290 0;
#X connect 398 9 38 0;
#X connect 398 9 285 0;
#X connect 398 10 40 0;
#X connect 398 10 288 0;
#X connect 398 11 42 0;
#X connect 398 11 289 0;
#X connect 398 12 44 0;
#X connect 398 12 287 0;
#X connect 398 13 46 0;
#X connect 398 13 284 0;
#X connect 398 14 48 0;
#X connect 398 14 291 0;
#X connect 398 15 50 0;
#X connect 398 15 283 0;
#X connect 398 16 299 0;
#X connect 399 0 271 0;
#X connect 399 0 1 0;
#X connect 399 0 398 0;
#X connect 399 0 393 0;
#X connect 400 0 274 1;
#X connect 400 0 279 1;
#X connect 400 0 272 0;
#X connect 401 0 275 0;
#X connect 404 0 281 0;
