#N canvas 738 55 942 973 12;
#X obj 361 -150 line;
#X obj 360 -42 outlet;
#X floatatom 425 -202 5 0 0 0 - - -;
#X obj 361 -179 pack \$1 \$2;
#X obj -55 273 outlet;
#X obj 882 -12 inlet;
#X obj 924 -12 inlet;
#X obj 1006 -13 inlet;
#X obj 1050 -12 inlet;
#X obj 1091 -12 inlet;
#X obj 1135 -12 inlet;
#X obj 1286 -12 inlet;
#X obj 1332 -12 inlet;
#X obj 1375 -12 inlet;
#X obj 1417 -12 inlet;
#X obj 1460 -12 inlet;
#X obj 1537 -12 inlet;
#X obj 1586 -12 inlet;
#X obj 1628 -12 inlet;
#X obj 1681 -12 inlet;
#X obj 838 -12 inlet;
#X obj 725 57 f;
#X obj 714 156 nbx 5 14 -1e+37 1e+37 0 0 empty empty empty 0 -8 0 10
-262144 -1 -1 0 256;
#X obj 783 57 f;
#X obj 785 156 nbx 5 14 -1e+37 1e+37 0 0 empty empty empty 0 -8 0 10
-262144 -1 -1 0.793586 256;
#X obj 840 57 f;
#X obj 842 156 nbx 5 14 -1e+37 1e+37 0 0 empty empty empty 0 -8 0 10
-262144 -1 -1 1.58717 256;
#X obj 898 57 f;
#X obj 901 156 nbx 5 14 -1e+37 1e+37 0 0 empty empty empty 0 -8 0 10
-262144 -1 -1 2.38076 256;
#X obj 994 57 f;
#X obj 996 156 nbx 5 14 -1e+37 1e+37 0 0 empty empty empty 0 -8 0 10
-262144 -1 -1 3.17435 256;
#X obj 1042 57 f;
#X obj 1044 156 nbx 5 14 -1e+37 1e+37 0 0 empty empty empty 0 -8 0
10 -262144 -1 -1 62.5 256;
#X obj 1099 57 f;
#X obj 1101 156 nbx 5 14 -1e+37 1e+37 0 0 empty empty empty 0 -8 0
10 -262144 -1 -1 75 256;
#X obj 1157 57 f;
#X obj 1159 156 nbx 5 14 -1e+37 1e+37 0 0 empty empty empty 0 -8 0
10 -262144 -1 -1 43.75 256;
#X obj 1234 57 f;
#X obj 1236 156 nbx 5 14 -1e+37 1e+37 0 0 empty empty empty 0 -8 0
10 -262144 -1 -1 50 256;
#X obj 1292 57 f;
#X obj 1294 156 nbx 5 14 -1e+37 1e+37 0 0 empty empty empty 0 -8 0
10 -262144 -1 -1 56.25 256;
#X obj 1349 57 f;
#X obj 1351 156 nbx 5 14 -1e+37 1e+37 0 0 empty empty empty 0 -8 0
10 -262144 -1 -1 62.5 256;
#X obj 1407 57 f;
#X obj 1409 156 nbx 5 14 -1e+37 1e+37 0 0 empty empty empty 0 -8 0
10 -262144 -1 -1 68.75 256;
#X obj 1491 57 f;
#X obj 1493 156 nbx 5 14 -1e+37 1e+37 0 0 empty empty empty 0 -8 0
10 -262144 -1 -1 75 256;
#X obj 1534 57 f;
#X obj 1551 156 nbx 5 14 -1e+37 1e+37 0 0 empty empty empty 0 -8 0
10 -262144 -1 -1 81.25 256;
#X obj 1598 57 f;
#X obj 1608 156 nbx 5 14 -1e+37 1e+37 0 0 empty empty empty 0 -8 0
10 -262144 -1 -1 87.5 256;
#X obj 1667 57 f;
#X obj 1666 156 nbx 5 14 -1e+37 1e+37 0 0 empty empty empty 0 -8 0
10 -262144 -1 -1 93.75 256;
#X obj 644 170 * 1;
#X obj 790 29 nbx 5 14 -1e+37 1e+37 0 0 empty empty empty 0 -8 0 10
-262144 -1 -1 0.793586 256;
#X obj 847 29 nbx 5 14 -1e+37 1e+37 0 0 empty empty empty 0 -8 0 10
-262144 -1 -1 1.58717 256;
#X obj 905 29 nbx 5 14 -1e+37 1e+37 0 0 empty empty empty 0 -8 0 10
-262144 -1 -1 2.38076 256;
#X obj 991 29 nbx 5 14 -1e+37 1e+37 0 0 empty empty empty 0 -8 0 10
-262144 -1 -1 3.17435 256;
#X obj 1061 29 nbx 5 14 -1e+37 1e+37 0 0 empty empty empty 0 -8 0 10
-262144 -1 -1 3.96793 256;
#X obj 1119 29 nbx 5 14 -1e+37 1e+37 0 0 empty empty empty 0 -8 0 10
-262144 -1 -1 4.76152 256;
#X obj 1176 29 nbx 5 14 -1e+37 1e+37 0 0 empty empty empty 0 -8 0 10
-262144 -1 -1 5.5551 256;
#X obj 1244 29 nbx 5 14 -1e+37 1e+37 0 0 empty empty empty 0 -8 0 10
-262144 -1 -1 6.34869 256;
#X obj 1300 29 nbx 5 14 -1e+37 1e+37 0 0 empty empty empty 0 -8 0 10
-262144 -1 -1 7.14228 256;
#X obj 1359 29 nbx 5 14 -1e+37 1e+37 0 0 empty empty empty 0 -8 0 10
-262144 -1 -1 7.93586 256;
#X obj 1415 29 nbx 5 14 -1e+37 1e+37 0 0 empty empty empty 0 -8 0 10
-262144 -1 -1 8.72945 256;
#X obj 1522 29 nbx 5 14 -1e+37 1e+37 0 0 empty empty empty 0 -8 0 10
-262144 -1 -1 9.52304 256;
#X obj 1580 29 nbx 5 14 -1e+37 1e+37 0 0 empty empty empty 0 -8 0 10
-262144 -1 -1 10.3166 256;
#X obj 1636 29 nbx 5 14 -1e+37 1e+37 0 0 empty empty empty 0 -8 0 10
-262144 -1 -1 11.1102 256;
#X obj 1692 29 nbx 5 14 -1e+37 1e+37 0 0 empty empty empty 0 -8 0 10
-262144 -1 -1 11.9038 256;
#X floatatom 840 97 5 0 0 0 - - -;
#X floatatom 898 97 5 0 0 0 - - -;
#X floatatom 997 97 5 0 0 0 - - -;
#X floatatom 1045 97 5 0 0 0 - - -;
#X floatatom 1101 97 5 0 0 0 - - -;
#X floatatom 1159 97 5 0 0 0 - - -;
#X floatatom 1236 97 5 0 0 0 - - -;
#X floatatom 1294 97 5 0 0 0 - - -;
#X floatatom 1350 97 5 0 0 0 - - -;
#X floatatom 1408 97 5 0 0 0 - - -;
#X floatatom 1495 97 5 0 0 0 - - -;
#X floatatom 1553 97 5 0 0 0 - - -;
#X floatatom 1609 97 5 0 0 0 - - -;
#X floatatom 1667 97 5 0 0 0 - - -;
#X obj 1761 41 r lo;
#X floatatom 1834 79 5 0 0 0 - - -;
#X floatatom 363 -207 5 0 0 0 - - -;
#X obj 644 76 * 1;
#X floatatom 780 467 5 0 0 0 - - -;
#X floatatom 838 467 5 0 0 0 - - -;
#X floatatom 902 467 5 0 0 0 - - -;
#X floatatom 966 467 5 0 0 0 - - -;
#X floatatom 689 484 5 0 0 0 - - -;
#X floatatom 1028 467 5 0 0 0 - - -;
#X floatatom 1084 467 5 0 0 0 - - -;
#X floatatom 1144 467 5 0 0 0 - - -;
#X floatatom 1200 467 5 0 0 0 - - -;
#X floatatom 1253 467 5 0 0 0 - - -;
#X floatatom 1304 467 5 0 0 0 - - -;
#X floatatom 1360 467 5 0 0 0 - - -;
#X obj 740 433 f;
#X obj 1791 300 r lo;
#X obj 813 433 f;
#X obj 862 433 f;
#X obj 931 433 f;
#X obj 985 433 f;
#X obj 1097 433 f;
#X obj 1160 433 f;
#X obj 1216 433 f;
#X obj 1271 433 f;
#X obj 1329 433 f;
#X obj 1396 433 f;
#X obj 1452 433 f;
#X obj 1513 433 f;
#X obj 1562 433 f;
#X obj 1626 433 f;
#X floatatom 1419 467 5 0 0 0 - - -;
#X floatatom 1475 467 5 0 0 0 - - -;
#X floatatom 1528 467 5 0 0 0 - - -;
#X floatatom 1586 467 5 0 0 0 - - -;
#X floatatom 1642 467 5 0 0 0 - - -;
#X obj 712 226 *;
#X obj 785 226 *;
#X obj 839 226 *;
#X obj 898 226 *;
#X obj 989 226 *;
#X obj 1045 226 *;
#X obj 1100 226 *;
#X obj 1155 226 *;
#X obj 1240 226 *;
#X obj 1297 226 *;
#X obj 1355 226 *;
#X obj 1416 226 *;
#X obj 1488 226 *;
#X obj 1535 226 *;
#X obj 1600 226 *;
#X obj 1663 226 *;
#X msg 1782 449 1;
#X obj 903 386 * 1;
#X obj 990 386 * 1;
#X obj 1105 386 * 1;
#X obj 1163 386 * 1;
#X obj 1240 386 * 1;
#X obj 1298 386 * 1;
#X obj 1355 386 * 1;
#X obj 1419 386 * 1;
#X obj 1475 386 * 1;
#X obj 1540 386 * 1;
#X obj 1587 386 * 1;
#X obj 1653 386 * 1;
#X obj 846 386 * 1;
#X obj 789 386 * 1;
#X obj 734 319 tgl 15 0 empty empty empty 17 7 0 10 -262144 -1 -1 1
1;
#X obj 786 319 tgl 15 0 empty empty empty 17 7 0 10 -262144 -1 -1 1
1;
#X obj 831 319 tgl 15 0 empty empty empty 17 7 0 10 -262144 -1 -1 1
1;
#X obj 880 319 tgl 15 0 empty empty empty 17 7 0 10 -262144 -1 -1 1
1;
#X obj 967 319 tgl 15 0 empty empty empty 17 7 0 10 -262144 -1 -1 1
1;
#X obj 1027 319 tgl 15 0 empty empty empty 17 7 0 10 -262144 -1 -1
1 1;
#X obj 1107 319 tgl 15 0 empty empty empty 17 7 0 10 -262144 -1 -1
1 1;
#X obj 1149 319 tgl 15 0 empty empty empty 17 7 0 10 -262144 -1 -1
1 1;
#X obj 1242 319 tgl 15 0 empty empty empty 17 7 0 10 -262144 -1 -1
1 1;
#X obj 1309 319 tgl 15 0 empty empty empty 17 7 0 10 -262144 -1 -1
1 1;
#X obj 1361 319 tgl 15 0 empty empty empty 17 7 0 10 -262144 -1 -1
1 1;
#X obj 1406 319 tgl 15 0 empty empty empty 17 7 0 10 -262144 -1 -1
1 1;
#X obj 1487 319 tgl 15 0 empty empty empty 17 7 0 10 -262144 -1 -1
1 1;
#X obj 1539 319 tgl 15 0 empty empty empty 17 7 0 10 -262144 -1 -1
1 1;
#X obj 1584 319 tgl 15 0 empty empty empty 17 7 0 10 -262144 -1 -1
1 1;
#X obj 1632 319 tgl 15 0 empty empty empty 17 7 0 10 -262144 -1 -1
1 1;
#X floatatom 362 -66 5 0 0 0 - - -;
#X obj 795 -12 inlet;
#X obj 438 -387 inlet;
#X obj -56 301 s mod11;
#X obj 691 554 s trgrA;
#X obj 429 -242 s R$;
#X obj 781 501 s sof16;
#X obj 850 501 s sof17;
#X obj 920 501 s sof18;
#X obj 989 501 s sof19;
#X obj 1059 501 s sof20;
#X obj 1133 501 s sof21;
#X obj 1201 501 s sof22;
#X obj 1267 501 s sof23;
#X obj 1334 501 s sof24;
#X obj 1400 500 s sof25;
#X obj 1464 501 s sof26;
#X obj 1523 501 s sof27;
#X obj 1585 501 s sof28;
#X obj 1648 501 s sof29;
#X obj 1717 501 s sof30;
#X obj 1787 501 s sof31;
#X obj 1691 344 onoff31;
#X obj 1627 344 onoff30;
#X obj 1567 344 onoff29;
#X obj 1503 344 onoff28;
#X obj 1404 344 onoff27;
#X obj 683 346 onoff16;
#X obj 739 344 onoff17;
#X obj 799 344 onoff18;
#X obj 859 344 onoff19;
#X obj 949 344 onoff20;
#X obj 1011 344 onoff21;
#X obj 1072 343 onoff22;
#X obj 1137 344 onoff23;
#X obj 1219 344 onoff24;
#X obj 1282 342 onoff25;
#X obj 1343 343 onoff26;
#X obj 703 291 r of16;
#X obj 753 291 r of17;
#X obj 804 291 r of18;
#X obj 856 291 r of19;
#X obj 958 287 r of20;
#X obj 1022 289 r of21;
#X obj 1093 291 r of22;
#X obj 1147 291 r of23;
#X obj 1233 291 r of24;
#X obj 1304 291 r of25;
#X obj 1356 291 r of26;
#X obj 1409 291 r of27;
#X obj 1501 291 r of28;
#X obj 1555 291 r of29;
#X obj 1605 291 r of30;
#X obj 1655 291 r of31;
#X obj 711 259 out16;
#X obj 779 258 out17;
#X obj 839 258 out18;
#X obj 898 258 out19;
#X obj 989 258 out20;
#X obj 1045 258 out21;
#X obj 1100 257 out22;
#X obj 1155 258 out23;
#X obj 1240 258 out24;
#X obj 1295 258 out25;
#X obj 1355 258 out26;
#X obj 1417 258 out27;
#X obj 1488 258 out28;
#X obj 1535 258 out29;
#X obj 1600 258 out30;
#X obj 1663 258 out31;
#X msg 531 2443 75;
#X floatatom 13 155 5 0 0 0 - - -;
#X floatatom -51 223 5 0 0 0 - - -;
#X obj 842 124 +;
#X obj 900 124 +;
#X obj 999 125 +;
#X obj 1047 126 +;
#X obj 1103 127 +;
#X obj 1161 127 +;
#X obj 1239 127 +;
#X obj 1296 127 +;
#X obj 1352 128 +;
#X obj 1410 128 +;
#X obj 1497 129 +;
#X obj 1555 130 +;
#X obj 1611 131 +;
#X obj 1669 131 +;
#X obj 1834 53 * 1;
#X obj 786 123 + 0;
#X obj 715 127 + 0;
#X floatatom 730 97 5 0 0 0 - - -;
#X floatatom 788 97 5 0 0 0 - - -;
#X obj 727 383 * 1;
#X obj 1660 189 t b f;
#X obj 690 188 t b f;
#X obj 764 188 t b f;
#X obj 820 188 t b f;
#X obj 870 188 t b f;
#X obj 980 188 t b f;
#X obj 1030 188 t b f;
#X obj 1100 188 t b f;
#X obj 1150 188 t b f;
#X obj 1230 188 t b f;
#X obj 1280 188 t b f;
#X obj 1341 188 t b f;
#X obj 1391 188 t b f;
#X obj 1471 188 t b f;
#X obj 1521 188 t b f;
#X obj 1581 188 t b f;
#X obj 428 -308 t b f;
#X obj 730 29 nbx 5 14 -1e+37 1e+37 0 0 empty empty empty 0 -8 0 10
-262144 -1 -1 0 256;
#X obj 1048 390 * 1;
#X obj 1037 433 f;
#X obj 120 135 spigot-toggle_red;
#X floatatom 186 153 5 0 0 0 - - -;
#X obj 122 177 random 15;
#X floatatom 124 200 5 0 0 0 - - -;
#X obj 126 102 bng 15 250 50 0 empty empty empty 17 7 0 10 -262144
-1 -1;
#X obj 82 37 - 1;
#X obj 80 60 * -1;
#X obj 104 241 f;
#X obj 105 211 spigot-toggle_red;
#X obj -49 177 mod 2;
#X floatatom 812 570 5 0 0 0 - - -;
#X floatatom 876 570 5 0 0 0 - - -;
#X floatatom 940 570 5 0 0 0 - - -;
#X floatatom 694 587 5 0 0 0 - - -;
#X floatatom 1022 571 5 0 0 0 - - -;
#X floatatom 1077 571 5 0 0 0 - - -;
#X floatatom 1137 571 5 0 0 0 - - -;
#X floatatom 1193 571 5 0 0 0 - - -;
#X floatatom 1296 574 5 0 0 0 - - -;
#X floatatom 1347 574 5 0 0 0 - - -;
#X floatatom 1403 574 5 0 0 0 - - -;
#X obj 802 537 f;
#X obj 856 537 f;
#X obj 909 538 f;
#X obj 989 537 f;
#X obj 1047 537 f;
#X obj 1101 537 f;
#X obj 1164 537 f;
#X obj 1290 537 f;
#X obj 1335 537 f;
#X obj 1413 537 f;
#X obj 1480 537 f;
#X obj 1546 537 f;
#X obj 1587 537 f;
#X obj 1636 537 f;
#X obj 1700 537 f;
#X floatatom 1462 574 5 0 0 0 - - -;
#X floatatom 1568 575 5 0 0 0 - - -;
#X floatatom 1621 575 5 0 0 0 - - -;
#X floatatom 1679 575 5 0 0 0 - - -;
#X obj -294 428 select 0 1 2 3 4 5 6 7 8 9 10 11 12 13 14 15;
#X floatatom 1725 575 5 0 0 0 - - -;
#X obj 694 608 s trgrAafter;
#X floatatom 437 -351 5 0 0 0 - - -;
#X floatatom -48 129 5 0 0 0 - - -;
#X obj 470 522 bng 15 250 50 0 empty empty empty 17 7 0 10 -262144
-1 -1;
#X obj 391 441 bng 15 250 50 0 empty empty empty 17 7 0 10 -262144
-1 -1;
#X obj 347 441 bng 15 250 50 0 empty empty empty 17 7 0 10 -262144
-1 -1;
#X obj 325 441 bng 15 250 50 0 empty empty empty 17 7 0 10 -262144
-1 -1;
#X obj 451 522 bng 15 250 50 0 empty empty empty 17 7 0 10 -262144
-1 -1;
#X obj 406 522 bng 15 250 50 0 empty empty empty 17 7 0 10 -262144
-1 -1;
#X obj 429 522 bng 15 250 50 0 empty empty empty 17 7 0 10 -262144
-1 -1;
#X obj 371 441 bng 15 250 50 0 empty empty empty 17 7 0 10 -262144
-1 -1;
#X obj 330 486 select 0 1 2 3 4 5 6 7 8 9 10 11 12 13 14 15;
#X obj 478 441 bng 15 250 50 0 empty empty empty 17 7 0 10 -262144
-1 -1;
#X obj 388 522 bng 15 250 50 0 empty empty empty 17 7 0 10 -262144
-1 -1;
#X obj 344 522 bng 15 250 50 0 empty empty empty 17 7 0 10 -262144
-1 -1;
#X obj 322 522 bng 15 250 50 0 empty empty empty 17 7 0 10 -262144
-1 -1;
#X obj 457 441 bng 15 250 50 0 empty empty empty 17 7 0 10 -262144
-1 -1;
#X obj 413 441 bng 15 250 50 0 empty empty empty 17 7 0 10 -262144
-1 -1;
#X obj 435 441 bng 15 250 50 0 empty empty empty 17 7 0 10 -262144
-1 -1;
#X obj 366 522 bng 15 250 50 0 empty empty empty 17 7 0 10 -262144
-1 -1;
#X obj 654 441 bng 15 250 50 0 empty empty empty 17 7 0 10 -262144
-1 -1;
#X obj 566 441 bng 15 250 50 0 empty empty empty 17 7 0 10 -262144
-1 -1;
#X obj 520 441 bng 15 250 50 0 empty empty empty 17 7 0 10 -262144
-1 -1;
#X obj 498 441 bng 15 250 50 0 empty empty empty 17 7 0 10 -262144
-1 -1;
#X obj 629 441 bng 15 250 50 0 empty empty empty 17 7 0 10 -262144
-1 -1;
#X obj 587 441 bng 15 250 50 0 empty empty empty 17 7 0 10 -262144
-1 -1;
#X obj 607 441 bng 15 250 50 0 empty empty empty 17 7 0 10 -262144
-1 -1;
#X obj 542 441 bng 15 250 50 0 empty empty empty 17 7 0 10 -262144
-1 -1;
#X obj 676 441 bng 15 250 50 0 empty empty empty 17 7 0 10 -262144
-1 -1;
#X obj 651 42 bng 15 250 50 0 empty empty empty 17 7 0 10 -262144 -1
-1;
#X obj 607 42 bng 15 250 50 0 empty empty empty 17 7 0 10 -262144 -1
-1;
#X obj 515 42 bng 15 250 50 0 empty empty empty 17 7 0 10 -262144 -1
-1;
#X obj 471 42 bng 15 250 50 0 empty empty empty 17 7 0 10 -262144 -1
-1;
#X obj 582 42 bng 15 250 50 0 empty empty empty 17 7 0 10 -262144 -1
-1;
#X obj 537 42 bng 15 250 50 0 empty empty empty 17 7 0 10 -262144 -1
-1;
#X obj 558 42 bng 15 250 50 0 empty empty empty 17 7 0 10 -262144 -1
-1;
#X obj 491 42 bng 15 250 50 0 empty empty empty 17 7 0 10 -262144 -1
-1;
#X obj 628 42 bng 15 250 50 0 empty empty empty 17 7 0 10 -262144 -1
-1;
#X floatatom 750 570 5 0 0 0 - - -;
#X obj 305 489 spigot-toggle_red;
#X obj 302 440 spigot-toggle_red;
#X obj 244 443 r IT≠T;
#X obj 245 479 - 1;
#X obj 244 499 * -1;
#X obj 748 538 f;
#X obj 669 522 bng 15 250 50 0 empty empty empty 17 7 0 10 -262144
-1 -1;
#X obj 623 522 bng 15 250 50 0 empty empty empty 17 7 0 10 -262144
-1 -1;
#X obj 533 522 bng 15 250 50 0 empty empty empty 17 7 0 10 -262144
-1 -1;
#X obj 489 522 bng 15 250 50 0 empty empty empty 17 7 0 10 -262144
-1 -1;
#X obj 598 522 bng 15 250 50 0 empty empty empty 17 7 0 10 -262144
-1 -1;
#X obj 555 522 bng 15 250 50 0 empty empty empty 17 7 0 10 -262144
-1 -1;
#X obj 576 522 bng 15 250 50 0 empty empty empty 17 7 0 10 -262144
-1 -1;
#X obj 509 522 bng 15 250 50 0 empty empty empty 17 7 0 10 -262144
-1 -1;
#X obj 644 522 bng 15 250 50 0 empty empty empty 17 7 0 10 -262144
-1 -1;
#X obj 319 42 bng 15 250 50 0 empty empty empty 17 7 0 10 -262144 -1
-1;
#X obj 343 42 bng 15 250 50 0 empty empty empty 17 7 0 10 -262144 -1
-1;
#X msg 1758 78 0;
#X obj 363 42 bng 15 250 50 0 empty empty empty 17 7 0 10 -262144 -1
-1;
#X obj 387 42 bng 15 250 50 0 empty empty empty 17 7 0 10 -262144 -1
-1;
#X obj 406 42 bng 15 250 50 0 empty empty empty 17 7 0 10 -262144 -1
-1;
#X obj 428 42 bng 15 250 50 0 empty empty empty 17 7 0 10 -262144 -1
-1;
#X obj 452 42 bng 15 250 50 0 empty empty empty 17 7 0 10 -262144 -1
-1;
#X obj 324 10 select 0 1 2 3 4 5 6 7 8 9 10 11 12 13 14 15;
#X obj -114 -20 r ITfloat;
#X obj 655 418 bng 15 250 50 0 empty empty empty 17 7 0 10 -262144
-1 -1;
#X obj 611 418 bng 15 250 50 0 empty empty empty 17 7 0 10 -262144
-1 -1;
#X obj 520 418 bng 15 250 50 0 empty empty empty 17 7 0 10 -262144
-1 -1;
#X obj 477 418 bng 15 250 50 0 empty empty empty 17 7 0 10 -262144
-1 -1;
#X obj 586 418 bng 15 250 50 0 empty empty empty 17 7 0 10 -262144
-1 -1;
#X obj 541 418 bng 15 250 50 0 empty empty empty 17 7 0 10 -262144
-1 -1;
#X obj 562 418 bng 15 250 50 0 empty empty empty 17 7 0 10 -262144
-1 -1;
#X obj 496 418 bng 15 250 50 0 empty empty empty 17 7 0 10 -262144
-1 -1;
#X obj 632 418 bng 15 250 50 0 empty empty empty 17 7 0 10 -262144
-1 -1;
#X obj 325 418 bng 15 250 50 0 empty empty empty 17 7 0 10 -262144
-1 -1;
#X obj 349 418 bng 15 250 50 0 empty empty empty 17 7 0 10 -262144
-1 -1;
#X obj 369 418 bng 15 250 50 0 empty empty empty 17 7 0 10 -262144
-1 -1;
#X obj 393 418 bng 15 250 50 0 empty empty empty 17 7 0 10 -262144
-1 -1;
#X obj 412 418 bng 15 250 50 0 empty empty empty 17 7 0 10 -262144
-1 -1;
#X obj 434 418 bng 15 250 50 0 empty empty empty 17 7 0 10 -262144
-1 -1;
#X obj 458 418 bng 15 250 50 0 empty empty empty 17 7 0 10 -262144
-1 -1;
#X floatatom 38 797 5 0 0 0 - - -;
#X floatatom -8 823 5 0 0 0 - - -;
#X obj -5 797 mod 2;
#X floatatom 29 577 5 0 0 0 - - -;
#X obj -13 613 mod 2;
#X obj -19 532 bng 15 250 50 0 empty empty empty 17 7 0 10 -262144
-1 -1;
#X obj 671 42 bng 15 250 50 0 empty empty empty 17 7 0 10 -262144 -1
-1;
#X obj 677 418 bng 15 250 50 0 empty empty empty 17 7 0 10 -262144
-1 -1;
#X obj -19 556 f;
#X floatatom -13 636 5 0 0 0 - - -;
#X obj -160 -136 inlet;
#X obj -44 -191 r IT≠T;
#X obj -45 -154 tgl 15 0 empty empty empty 17 7 0 10 -262144 -1 -1
1 1;
#X obj -25 -128 - 1;
#X obj -24 -98 * -1;
#X obj -38 56 spigot-toggle_red;
#X obj -70 47 spigot-toggle_red;
#X obj -18 2 bng 15 250 50 0 empty empty empty 17 7 0 10 -262144 -1
-1;
#X floatatom -113 14 5 0 0 0 - - -;
#X obj -17 28 f;
#X floatatom -162 36 5 0 0 0 - - -;
#X obj 429 -275 * 0;
#X obj -162 64 + 0;
#X obj 1740 4 nbx 5 14 -1e+37 1e+37 0 0 empty empty empty 0 -8 0 10
-262144 -1 -1 0 256;
#X obj 401 -139 r add;
#X obj 365 -115 + 0;
#X obj -18 -20 r BB;
#X obj -10 731 f;
#X obj -6 768 + 1;
#X obj 70 89 spigot-toggle_red;
#X obj 88 90 r lo;
#X obj 370 -273 r T$mod;
#X obj -17 584 + 1;
#X obj -16 665 r ITBAng;
#X obj -10 697 bng 15 250 50 0 empty empty empty 17 7 0 10 -262144
-1 -1;
#X obj -21 504 r ITBAngafter;
#X obj -112 -70 bng 15 250 50 0 empty empty empty 17 7 0 10 -262144
-1 -1;
#X obj 329 391 select 0 1 2 3 4 5 6 7 8 9 10 11 12 13 14 15;
#X floatatom 398 -112 5 0 0 0 - - -;
#X obj -16492 -911 cyclone/counter 0 15;
#X text 294 555 @ ENV/ ouvre et ferme l'arrivée de BB allume @ step
off;
#X text 397 590 va @ pluck/ open pos$ et @ ENV/ fade out;
#X text 214 264 IT≠T si joue toutes les step T par step G = joue
une fois la stp suivante à l'avant derniere valeur de temps ( de la
serie stp T );
#X text 214 314 IT=T si joue une valeur par step G = joue ce qui se
passe sur la stp suivante à chaques valeurds de temps;
#X obj 127 77 r ITBAng;
#X obj 186 130 r rdmnbrA;
#X obj 180 103 r ctnlstepA;
#X connect 0 0 427 0;
#X connect 2 0 3 1;
#X connect 3 0 0 0;
#X connect 5 0 55 0;
#X connect 6 0 56 0;
#X connect 7 0 57 0;
#X connect 8 0 58 0;
#X connect 9 0 59 0;
#X connect 10 0 60 0;
#X connect 11 0 61 0;
#X connect 12 0 62 0;
#X connect 13 0 63 0;
#X connect 14 0 64 0;
#X connect 15 0 65 0;
#X connect 16 0 66 0;
#X connect 17 0 67 0;
#X connect 18 0 68 0;
#X connect 19 0 425 0;
#X connect 20 0 54 0;
#X connect 21 0 86 0;
#X connect 21 0 256 0;
#X connect 22 0 53 0;
#X connect 22 0 120 0;
#X connect 23 0 86 0;
#X connect 23 0 255 0;
#X connect 24 0 53 0;
#X connect 24 0 121 0;
#X connect 25 0 86 0;
#X connect 25 0 240 0;
#X connect 26 0 53 0;
#X connect 26 0 122 0;
#X connect 27 0 86 0;
#X connect 27 0 241 0;
#X connect 28 0 53 0;
#X connect 28 0 123 0;
#X connect 29 0 86 0;
#X connect 29 0 242 0;
#X connect 30 0 53 0;
#X connect 30 0 124 0;
#X connect 31 0 86 0;
#X connect 31 0 243 0;
#X connect 32 0 53 0;
#X connect 32 0 125 0;
#X connect 33 0 86 0;
#X connect 33 0 244 0;
#X connect 34 0 53 0;
#X connect 34 0 126 0;
#X connect 35 0 86 0;
#X connect 35 0 245 0;
#X connect 36 0 53 0;
#X connect 36 0 127 0;
#X connect 37 0 86 0;
#X connect 37 0 246 0;
#X connect 38 0 53 0;
#X connect 38 0 128 0;
#X connect 39 0 86 0;
#X connect 39 0 247 0;
#X connect 40 0 53 0;
#X connect 40 0 129 0;
#X connect 41 0 86 0;
#X connect 41 0 248 0;
#X connect 42 0 53 0;
#X connect 42 0 130 0;
#X connect 43 0 86 0;
#X connect 43 0 249 0;
#X connect 44 0 53 0;
#X connect 44 0 131 0;
#X connect 45 0 86 0;
#X connect 45 0 250 0;
#X connect 46 0 53 0;
#X connect 46 0 132 0;
#X connect 47 0 86 0;
#X connect 47 0 251 0;
#X connect 48 0 53 0;
#X connect 48 0 133 0;
#X connect 49 0 86 0;
#X connect 49 0 252 0;
#X connect 50 0 53 0;
#X connect 50 0 134 0;
#X connect 51 0 86 0;
#X connect 51 0 253 0;
#X connect 52 0 53 0;
#X connect 52 0 135 0;
#X connect 54 0 23 1;
#X connect 55 0 25 1;
#X connect 56 0 27 1;
#X connect 57 0 29 1;
#X connect 58 0 31 1;
#X connect 59 0 33 1;
#X connect 60 0 35 1;
#X connect 61 0 37 1;
#X connect 62 0 39 1;
#X connect 63 0 41 1;
#X connect 64 0 43 1;
#X connect 65 0 45 1;
#X connect 66 0 47 1;
#X connect 67 0 49 1;
#X connect 68 0 51 1;
#X connect 69 0 240 1;
#X connect 70 0 241 1;
#X connect 71 0 242 1;
#X connect 72 0 243 1;
#X connect 73 0 244 1;
#X connect 74 0 245 1;
#X connect 75 0 246 1;
#X connect 76 0 247 1;
#X connect 77 0 248 1;
#X connect 78 0 249 1;
#X connect 79 0 250 1;
#X connect 80 0 251 1;
#X connect 81 0 252 1;
#X connect 82 0 253 1;
#X connect 84 0 69 0;
#X connect 84 0 71 0;
#X connect 84 0 73 0;
#X connect 84 0 75 0;
#X connect 84 0 76 0;
#X connect 84 0 77 0;
#X connect 84 0 78 0;
#X connect 84 0 79 0;
#X connect 84 0 80 0;
#X connect 84 0 81 0;
#X connect 84 0 82 0;
#X connect 84 0 258 0;
#X connect 84 0 257 0;
#X connect 84 0 74 0;
#X connect 84 0 72 0;
#X connect 84 0 70 0;
#X connect 85 0 3 0;
#X connect 86 0 85 0;
#X connect 87 0 91 0;
#X connect 87 0 173 0;
#X connect 88 0 91 0;
#X connect 88 0 174 0;
#X connect 89 0 91 0;
#X connect 89 0 175 0;
#X connect 90 0 91 0;
#X connect 90 0 176 0;
#X connect 91 0 171 0;
#X connect 92 0 91 0;
#X connect 92 0 177 0;
#X connect 93 0 91 0;
#X connect 93 0 178 0;
#X connect 94 0 91 0;
#X connect 94 0 179 0;
#X connect 95 0 91 0;
#X connect 95 0 180 0;
#X connect 96 0 91 0;
#X connect 96 0 181 0;
#X connect 97 0 91 0;
#X connect 97 0 182 0;
#X connect 98 0 91 0;
#X connect 98 0 183 0;
#X connect 99 0 87 0;
#X connect 100 0 136 0;
#X connect 100 0 166 0;
#X connect 100 0 165 0;
#X connect 100 0 164 0;
#X connect 100 0 163 0;
#X connect 100 0 162 0;
#X connect 100 0 161 0;
#X connect 100 0 160 0;
#X connect 100 0 159 0;
#X connect 100 0 158 0;
#X connect 100 0 157 0;
#X connect 100 0 156 0;
#X connect 100 0 155 0;
#X connect 100 0 154 0;
#X connect 100 0 153 0;
#X connect 100 0 152 0;
#X connect 100 0 151 0;
#X connect 101 0 88 0;
#X connect 102 0 89 0;
#X connect 102 0 263 0;
#X connect 103 0 90 0;
#X connect 103 0 264 0;
#X connect 104 0 92 0;
#X connect 105 0 94 0;
#X connect 106 0 95 0;
#X connect 107 0 96 0;
#X connect 108 0 97 0;
#X connect 109 0 98 0;
#X connect 110 0 115 0;
#X connect 111 0 116 0;
#X connect 112 0 117 0;
#X connect 113 0 118 0;
#X connect 114 0 119 0;
#X connect 115 0 91 0;
#X connect 115 0 184 0;
#X connect 116 0 91 0;
#X connect 116 0 185 0;
#X connect 117 0 91 0;
#X connect 117 0 186 0;
#X connect 118 0 91 0;
#X connect 118 0 187 0;
#X connect 119 0 91 0;
#X connect 119 0 188 0;
#X connect 120 0 221 0;
#X connect 121 0 222 0;
#X connect 122 0 223 0;
#X connect 123 0 224 0;
#X connect 124 0 225 0;
#X connect 125 0 226 0;
#X connect 126 0 227 0;
#X connect 127 0 228 0;
#X connect 128 0 229 0;
#X connect 129 0 230 0;
#X connect 130 0 231 0;
#X connect 131 0 232 0;
#X connect 132 0 233 0;
#X connect 133 0 234 0;
#X connect 134 0 235 0;
#X connect 135 0 236 0;
#X connect 136 0 87 0;
#X connect 136 0 88 0;
#X connect 136 0 89 0;
#X connect 136 0 92 0;
#X connect 136 0 93 0;
#X connect 136 0 90 0;
#X connect 136 0 94 0;
#X connect 136 0 95 0;
#X connect 136 0 96 0;
#X connect 136 0 97 0;
#X connect 136 0 98 0;
#X connect 136 0 115 0;
#X connect 136 0 116 0;
#X connect 136 0 117 0;
#X connect 136 0 118 0;
#X connect 136 0 119 0;
#X connect 137 0 103 1;
#X connect 137 0 303 1;
#X connect 138 0 104 1;
#X connect 138 0 265 0;
#X connect 138 0 304 1;
#X connect 139 0 105 1;
#X connect 139 0 267 0;
#X connect 139 0 306 1;
#X connect 140 0 106 1;
#X connect 140 0 268 0;
#X connect 140 0 307 1;
#X connect 141 0 107 1;
#X connect 141 0 269 0;
#X connect 141 0 308 1;
#X connect 142 0 108 1;
#X connect 142 0 270 0;
#X connect 142 0 309 1;
#X connect 143 0 109 1;
#X connect 143 0 271 0;
#X connect 143 0 310 1;
#X connect 144 0 110 1;
#X connect 144 0 272 0;
#X connect 144 0 311 1;
#X connect 145 0 111 1;
#X connect 145 0 273 0;
#X connect 145 0 312 1;
#X connect 146 0 112 1;
#X connect 146 0 274 0;
#X connect 146 0 313 1;
#X connect 147 0 113 1;
#X connect 147 0 275 0;
#X connect 147 0 314 1;
#X connect 148 0 114 1;
#X connect 148 0 260 0;
#X connect 148 0 315 1;
#X connect 149 0 102 1;
#X connect 149 0 302 1;
#X connect 150 0 101 1;
#X connect 150 0 262 0;
#X connect 150 0 301 1;
#X connect 151 0 259 0;
#X connect 152 0 150 0;
#X connect 153 0 149 0;
#X connect 154 0 137 0;
#X connect 155 0 138 0;
#X connect 156 0 278 0;
#X connect 157 0 139 0;
#X connect 158 0 140 0;
#X connect 159 0 141 0;
#X connect 160 0 142 0;
#X connect 161 0 143 0;
#X connect 162 0 144 0;
#X connect 163 0 145 0;
#X connect 164 0 146 0;
#X connect 165 0 147 0;
#X connect 166 0 148 0;
#X connect 167 0 1 0;
#X connect 168 0 277 0;
#X connect 169 0 323 0;
#X connect 189 0 166 0;
#X connect 190 0 165 0;
#X connect 191 0 164 0;
#X connect 192 0 163 0;
#X connect 193 0 162 0;
#X connect 194 0 151 0;
#X connect 195 0 152 0;
#X connect 196 0 153 0;
#X connect 197 0 154 0;
#X connect 198 0 155 0;
#X connect 199 0 156 0;
#X connect 200 0 157 0;
#X connect 201 0 158 0;
#X connect 202 0 159 0;
#X connect 203 0 160 0;
#X connect 204 0 161 0;
#X connect 205 0 151 0;
#X connect 206 0 152 0;
#X connect 207 0 153 0;
#X connect 208 0 154 0;
#X connect 209 0 155 0;
#X connect 210 0 156 0;
#X connect 211 0 157 0;
#X connect 212 0 158 0;
#X connect 213 0 159 0;
#X connect 214 0 160 0;
#X connect 215 0 161 0;
#X connect 216 0 162 0;
#X connect 217 0 163 0;
#X connect 218 0 164 0;
#X connect 219 0 165 0;
#X connect 220 0 166 0;
#X connect 238 0 289 1;
#X connect 238 0 402 0;
#X connect 238 0 405 0;
#X connect 238 0 281 0;
#X connect 239 0 4 0;
#X connect 239 0 170 0;
#X connect 239 0 384 0;
#X connect 239 0 439 0;
#X connect 240 0 26 0;
#X connect 241 0 28 0;
#X connect 242 0 30 0;
#X connect 243 0 32 0;
#X connect 244 0 34 0;
#X connect 245 0 36 0;
#X connect 246 0 38 0;
#X connect 247 0 40 0;
#X connect 248 0 42 0;
#X connect 249 0 44 0;
#X connect 250 0 46 0;
#X connect 251 0 48 0;
#X connect 252 0 50 0;
#X connect 253 0 52 0;
#X connect 254 0 84 0;
#X connect 255 0 24 0;
#X connect 256 0 22 0;
#X connect 257 0 256 1;
#X connect 258 0 255 1;
#X connect 259 0 99 1;
#X connect 259 0 261 0;
#X connect 259 0 366 1;
#X connect 260 0 135 0;
#X connect 260 1 135 1;
#X connect 261 0 120 0;
#X connect 261 1 120 1;
#X connect 262 0 121 0;
#X connect 262 1 121 1;
#X connect 263 0 122 0;
#X connect 263 1 122 1;
#X connect 264 0 123 0;
#X connect 264 1 123 1;
#X connect 265 0 124 0;
#X connect 265 1 124 1;
#X connect 266 0 125 0;
#X connect 266 1 125 1;
#X connect 267 0 126 0;
#X connect 267 1 126 1;
#X connect 268 0 127 0;
#X connect 268 1 127 1;
#X connect 269 0 128 0;
#X connect 269 1 128 1;
#X connect 270 0 129 0;
#X connect 270 1 129 1;
#X connect 271 0 130 0;
#X connect 271 1 130 1;
#X connect 272 0 131 0;
#X connect 272 1 131 1;
#X connect 273 0 132 0;
#X connect 273 1 132 1;
#X connect 274 0 133 0;
#X connect 274 1 133 1;
#X connect 275 0 134 0;
#X connect 275 1 134 1;
#X connect 276 0 423 0;
#X connect 276 1 423 1;
#X connect 277 0 21 1;
#X connect 278 0 266 0;
#X connect 278 0 279 1;
#X connect 278 0 305 1;
#X connect 279 0 93 0;
#X connect 280 0 282 0;
#X connect 281 0 282 1;
#X connect 282 0 283 0;
#X connect 283 0 287 1;
#X connect 284 0 280 0;
#X connect 285 0 286 0;
#X connect 286 0 431 1;
#X connect 287 0 239 0;
#X connect 288 0 287 0;
#X connect 289 0 239 0;
#X connect 290 0 293 0;
#X connect 291 0 293 0;
#X connect 292 0 293 0;
#X connect 293 0 322 0;
#X connect 294 0 293 0;
#X connect 295 0 293 0;
#X connect 296 0 293 0;
#X connect 297 0 293 0;
#X connect 298 0 293 0;
#X connect 299 0 293 0;
#X connect 300 0 293 0;
#X connect 301 0 290 0;
#X connect 302 0 291 0;
#X connect 303 0 292 0;
#X connect 304 0 294 0;
#X connect 305 0 295 0;
#X connect 306 0 296 0;
#X connect 307 0 297 0;
#X connect 308 0 298 0;
#X connect 309 0 299 0;
#X connect 310 0 300 0;
#X connect 311 0 316 0;
#X connect 312 0 317 0;
#X connect 313 0 318 0;
#X connect 314 0 319 0;
#X connect 315 0 321 0;
#X connect 316 0 293 0;
#X connect 317 0 293 0;
#X connect 318 0 293 0;
#X connect 319 0 293 0;
#X connect 320 0 328 0;
#X connect 320 1 327 0;
#X connect 320 2 332 0;
#X connect 320 3 326 0;
#X connect 320 4 339 0;
#X connect 320 5 340 0;
#X connect 320 6 338 0;
#X connect 320 7 334 0;
#X connect 320 8 345 0;
#X connect 320 9 344 0;
#X connect 320 10 349 0;
#X connect 320 11 343 0;
#X connect 320 12 347 0;
#X connect 320 13 348 0;
#X connect 320 14 346 0;
#X connect 320 15 342 0;
#X connect 320 16 350 0;
#X connect 321 0 293 0;
#X connect 323 0 276 0;
#X connect 324 0 289 0;
#X connect 325 0 307 0;
#X connect 326 0 303 0;
#X connect 327 0 301 0;
#X connect 328 0 366 0;
#X connect 329 0 306 0;
#X connect 330 0 304 0;
#X connect 331 0 305 0;
#X connect 332 0 302 0;
#X connect 333 0 337 0;
#X connect 333 1 336 0;
#X connect 333 2 341 0;
#X connect 333 3 335 0;
#X connect 333 4 330 0;
#X connect 333 5 331 0;
#X connect 333 6 329 0;
#X connect 333 7 325 0;
#X connect 333 8 370 0;
#X connect 333 9 374 0;
#X connect 333 10 369 0;
#X connect 333 11 372 0;
#X connect 333 12 373 0;
#X connect 333 13 371 0;
#X connect 333 14 368 0;
#X connect 333 15 375 0;
#X connect 333 16 367 0;
#X connect 334 0 307 0;
#X connect 335 0 303 0;
#X connect 336 0 301 0;
#X connect 337 0 366 0;
#X connect 338 0 306 0;
#X connect 339 0 304 0;
#X connect 340 0 305 0;
#X connect 341 0 302 0;
#X connect 342 0 315 0;
#X connect 343 0 311 0;
#X connect 344 0 309 0;
#X connect 345 0 308 0;
#X connect 346 0 314 0;
#X connect 347 0 312 0;
#X connect 348 0 313 0;
#X connect 349 0 310 0;
#X connect 351 0 51 0;
#X connect 352 0 47 0;
#X connect 353 0 39 0;
#X connect 354 0 35 0;
#X connect 355 0 45 0;
#X connect 356 0 41 0;
#X connect 357 0 43 0;
#X connect 358 0 37 0;
#X connect 359 0 49 0;
#X connect 360 0 293 0;
#X connect 361 0 333 0;
#X connect 362 0 320 0;
#X connect 363 0 364 0;
#X connect 363 0 361 1;
#X connect 364 0 365 0;
#X connect 365 0 362 1;
#X connect 366 0 360 0;
#X connect 368 0 314 0;
#X connect 369 0 310 0;
#X connect 370 0 308 0;
#X connect 371 0 313 0;
#X connect 372 0 311 0;
#X connect 373 0 312 0;
#X connect 374 0 309 0;
#X connect 375 0 315 0;
#X connect 376 0 21 0;
#X connect 377 0 23 0;
#X connect 378 0 69 0;
#X connect 378 0 70 0;
#X connect 378 0 71 0;
#X connect 378 0 72 0;
#X connect 378 0 73 0;
#X connect 378 0 74 0;
#X connect 378 0 75 0;
#X connect 378 0 76 0;
#X connect 378 0 77 0;
#X connect 378 0 78 0;
#X connect 378 0 79 0;
#X connect 378 0 80 0;
#X connect 378 0 81 0;
#X connect 378 0 82 0;
#X connect 379 0 25 0;
#X connect 380 0 27 0;
#X connect 381 0 29 0;
#X connect 382 0 31 0;
#X connect 383 0 33 0;
#X connect 384 0 376 0;
#X connect 384 1 377 0;
#X connect 384 2 379 0;
#X connect 384 3 380 0;
#X connect 384 4 381 0;
#X connect 384 5 382 0;
#X connect 384 6 383 0;
#X connect 384 7 354 0;
#X connect 384 8 358 0;
#X connect 384 9 353 0;
#X connect 384 10 356 0;
#X connect 384 11 357 0;
#X connect 384 12 355 0;
#X connect 384 13 352 0;
#X connect 384 14 359 0;
#X connect 384 15 351 0;
#X connect 384 16 408 0;
#X connect 385 0 438 0;
#X connect 385 0 420 0;
#X connect 386 0 114 0;
#X connect 387 0 112 0;
#X connect 388 0 108 0;
#X connect 389 0 106 0;
#X connect 390 0 111 0;
#X connect 391 0 109 0;
#X connect 392 0 110 0;
#X connect 393 0 107 0;
#X connect 394 0 113 0;
#X connect 395 0 99 0;
#X connect 396 0 101 0;
#X connect 397 0 102 0;
#X connect 398 0 103 0;
#X connect 399 0 104 0;
#X connect 400 0 279 0;
#X connect 401 0 105 0;
#X connect 402 0 404 1;
#X connect 403 0 361 0;
#X connect 404 0 403 0;
#X connect 405 0 406 1;
#X connect 406 0 411 0;
#X connect 407 0 410 0;
#X connect 410 0 434 0;
#X connect 411 0 362 0;
#X connect 412 0 422 0;
#X connect 413 0 414 0;
#X connect 414 0 415 0;
#X connect 414 0 418 1;
#X connect 415 0 416 0;
#X connect 416 0 417 1;
#X connect 417 0 431 0;
#X connect 418 0 431 0;
#X connect 419 0 421 0;
#X connect 419 0 288 0;
#X connect 420 0 418 0;
#X connect 420 0 421 1;
#X connect 420 0 429 1;
#X connect 421 0 417 0;
#X connect 421 0 410 1;
#X connect 421 0 431 0;
#X connect 422 0 424 0;
#X connect 423 0 2 0;
#X connect 423 0 172 0;
#X connect 424 0 238 0;
#X connect 426 0 440 0;
#X connect 427 0 167 0;
#X connect 428 0 419 0;
#X connect 429 0 430 0;
#X connect 430 0 404 0;
#X connect 431 0 324 0;
#X connect 432 0 431 1;
#X connect 433 0 423 0;
#X connect 434 0 406 0;
#X connect 435 0 436 0;
#X connect 436 0 429 0;
#X connect 437 0 407 0;
#X connect 439 0 395 0;
#X connect 439 1 396 0;
#X connect 439 2 397 0;
#X connect 439 3 398 0;
#X connect 439 4 399 0;
#X connect 439 5 400 0;
#X connect 439 6 401 0;
#X connect 439 7 389 0;
#X connect 439 8 393 0;
#X connect 439 9 388 0;
#X connect 439 10 391 0;
#X connect 439 11 392 0;
#X connect 439 12 390 0;
#X connect 439 13 387 0;
#X connect 439 14 394 0;
#X connect 439 15 386 0;
#X connect 439 16 409 0;
#X connect 440 0 427 1;
#X connect 446 0 284 0;
#X connect 447 0 281 0;
#X connect 448 0 285 0;
#X connect 448 0 288 1;
#X connect 448 0 280 1;
