#N canvas 1457 75 1222 973 10;
#X obj 226 64 cnv 15 170 340 empty empty empty 20 12 0 14 -228992 -66577
0;
#X obj 228 504 cnv 15 100 60 empty empty empty 20 12 0 14 -195568 -66577
0;
#N canvas 0 22 450 300 gemwin 0;
#X obj 132 136 gemwin;
#X obj 67 89 outlet;
#X obj 67 10 inlet;
#X obj 67 41 route create;
#X msg 67 70 set destroy;
#X msg 142 68 set create;
#X msg 132 112 create \, 1;
#X msg 198 112 destroy;
#X connect 2 0 3 0;
#X connect 3 0 4 0;
#X connect 3 0 6 0;
#X connect 3 1 5 0;
#X connect 3 1 7 0;
#X connect 4 0 1 0;
#X connect 5 0 1 0;
#X connect 6 0 0 0;
#X connect 7 0 0 0;
#X restore 234 543 pd gemwin;
#X msg 234 524 create;
#X text 230 503 Create window:;
#X obj 228 235 cnv 15 160 60 empty empty empty 20 12 0 14 -24198 -66577
0;
#X floatatom 289 239 5 0 0 0 - - -;
#X msg 362 324 0 1 1;
#X floatatom 239 379 5 0 0 0 - - -;
#X obj 228 400 translateXYZ;
#X floatatom 298 41 5 0 0 0 - - -;
#X floatatom 332 39 5 0 0 0 - - -;
#X obj 252 95 translateXYZ;
#X obj 250 236 line;
#X obj 295 140 bng 15 250 50 0 empty empty empty 17 7 0 10 -262144
-1 -1;
#X obj 248 194 pack \$1 \$2;
#X obj 295 158 f;
#X obj 325 159 + 1;
#X obj 634 64 cnv 15 170 340 empty empty empty 20 12 0 14 -228992 -66577
0;
#X obj 369 177 r T$;
#X floatatom 249 137 5 0 0 0 - - -;
#X floatatom 343 448 5 0 0 0 - - -;
#X obj 236 423 color;
#X floatatom 303 450 5 0 0 0 - - -;
#X obj 434 64 cnv 15 170 340 empty empty empty 20 12 0 14 -228992 -66577
0;
#X obj 436 235 cnv 15 160 60 empty empty empty 20 12 0 14 -24198 -66577
0;
#X floatatom 496 243 5 0 0 0 - - -;
#X msg 550 255 1 0 0;
#X msg 550 276 0 1 1;
#X obj 464 428 color;
#X obj 502 138 bng 15 250 50 0 empty empty empty 17 7 0 10 -262144
-1 -1;
#X obj 456 199 pack \$1 \$2;
#X obj 500 156 f;
#X obj 529 158 + 1;
#X obj 568 189 r T$;
#X floatatom 454 136 5 0 0 0 - - -;
#X obj 560 130 r ITA;
#X obj 454 178 * 360;
#X obj 455 242 line;
#X obj 747 178 r STPA;
#X obj 513 580 r lo;
#X obj 248 154 * -1;
#X obj 247 173 * 360;
#X obj 454 157 * -1;
#X floatatom 537 452 5 0 0 0 - - -;
#X floatatom 592 451 5 0 0 0 - - -;
#X obj 370 122 r BB;
#X obj 1222 424 r posvisu;
#X obj 799 451 cnv 15 480 700 empty empty empty 20 12 0 14 -228992
-66577 0;
#X floatatom 406 443 5 0 0 0 - - -;
#X floatatom 467 377 5 0 0 0 - - -;
#X obj 444 404 translateXYZ;
#X obj 915 614 r looplenghtA;
#X obj 908 732 t b f;
#X obj 404 219 bng 15 250 50 0 empty empty empty 17 7 0 10 -262144
-1 -1;
#X floatatom 901 875 5 0 0 0 - - -;
#X floatatom 914 644 7 0 0 0 - - -;
#X obj 1175 906 spigot-toggle_red;
#X floatatom 1158 598 5 0 0 0 - - -;
#X obj 935 518 r 44/88_A;
#X floatatom 405 516 5 0 0 0 - - -;
#X floatatom 404 579 5 0 0 0 - - -;
#X floatatom 1049 759 5 0 0 0 - - -;
#X obj 1059 782 > 1;
#X floatatom 235 644 5 0 0 0 - - -;
#X obj 233 33 gemhead 3;
#X obj 445 30 gemhead 3;
#X floatatom 926 662 9 0 0 0 - - -;
#X obj 924 681 t b f;
#X obj 909 706 * 1;
#X obj 1049 702 r Amod;
#X obj 1060 806 t b f;
#X obj 932 586 + 1;
#X floatatom 904 828 7 0 0 0 - - -;
#X obj 1057 549 r lo;
#X obj 1048 832 - 0;
#X floatatom 1047 861 5 0 0 0 - - -;
#X obj 229 263 rotate 45 0 0 1;
#X obj 443 270 rotate 45 0 0 1;
#X msg 887 571 1;
#X obj 1049 740 - 0;
#X obj 991 869 f;
#X floatatom 942 856 5 0 0 0 - - -;
#X obj 814 729 spigot-toggle_red;
#X floatatom 618 708 5 0 0 0 - - -;
#X obj 619 683 r T$;
#X obj 669 738 spigot-toggle_red;
#X obj 751 732 spigot-toggle_red;
#X floatatom 734 702 5 0 0 0 - - -;
#X obj 736 680 r T1;
#X obj 741 588 spigot-toggle_red;
#X obj 941 875 t b f;
#X obj 667 591 spigot-toggle_red;
#X obj 899 899 * 1;
#X msg 514 426 0 1 1;
#X obj 741 413 r lyrAposB;
#X obj 673 444 r s@pAA;
#X obj 674 499 * 1;
#X obj 742 469 r spAB;
#X obj 742 496 * 1;
#X obj 742 439 r s@pAB;
#X obj 672 474 r spAA;
#X obj 667 412 r lyrAposA;
#X obj 785 618 spigot-toggle_red;
#X msg 1058 571 2;
#X obj 910 757 / 1;
#X floatatom 901 923 12 0 0 0 - - -;
#X floatatom 341 374 5 0 0 0 - - -;
#X floatatom 728 270 5 0 0 0 - - -;
#X floatatom 319 192 5 0 0 0 - - -;
#X obj 476 481 rectangle 0.04 0.08;
#X obj 236 471 rectangle 0.04 0.08;
#X msg 364 343 1 1 1;
#X floatatom 723 218 5 0 0 0 - - -;
#X obj 712 199 * 0.0625;
#X obj 723 241 * 8;
#X floatatom 662 312 5 0 0 0 - - -;
#X obj 728 350 * 0.05;
#X msg 342 234 0 0 0;
#X msg 550 234 0 0 0;
#X msg 282 423 1 0 0;
#X msg 362 303 0 0 0;
#X msg 407 492 0.04;
#X obj 522 627 * -1;
#X obj 237 -3 r lo;
#X obj 206 -1 bng 15 250 50 0 empty empty empty 17 7 0 10 -262144 -1
-1;
#X obj 750 252 + 1;
#X msg 406 466 0.25;
#X msg 523 608 2.11;
#X obj 663 291 * 2;
#X obj 668 269 + 0.98;
#X floatatom 405 409 5 0 0 0 - - -;
#X obj 448 98 translateXYZ;
#X floatatom 468 69 5 0 0 0 - - -;
#X floatatom 375 59 5 0 0 0 - - -;
#X floatatom 363 97 5 0 0 0 - - -;
#X obj 366 79 + 0.01;
#X floatatom 715 181 5 0 0 0 - - -;
#X msg 438 -43 0.4;
#X msg 366 2 -0.01;
#X obj 676 560 r trgrmodA;
#X obj 1025 851 spigot-toggle_red;
#X obj 1042 477 * 1;
#X obj 700 682 r lo;
#X msg 696 706 1;
#X text 390 904 POS + p&s;
#X obj 626 341 * 2;
#X msg 309 2 -2.5;
#X obj 944 762 r pitchNspeedA;
#X obj 944 740 r speedA;
#X obj 934 539 - 1;
#X obj 933 562 * -1;
#X obj 677 540 r onoffA;
#X obj 750 557 r trgrmodB;
#X obj 736 538 r onoffB;
#X obj 1302 -51 cnv 15 170 340 empty empty empty 20 12 0 14 -228992
-66577 0;
#X obj 1304 389 cnv 15 100 60 empty empty empty 20 12 0 14 -195568
-66577 0;
#N canvas 0 22 450 300 gemwin 0;
#X obj 132 136 gemwin;
#X obj 67 89 outlet;
#X obj 67 10 inlet;
#X obj 67 41 route create;
#X msg 67 70 set destroy;
#X msg 142 68 set create;
#X msg 132 112 create \, 1;
#X msg 198 112 destroy;
#X connect 2 0 3 0;
#X connect 3 0 4 0;
#X connect 3 0 6 0;
#X connect 3 1 5 0;
#X connect 3 1 7 0;
#X connect 4 0 1 0;
#X connect 5 0 1 0;
#X connect 6 0 0 0;
#X connect 7 0 0 0;
#X restore 1310 428 pd gemwin;
#X msg 1310 409 create;
#X text 1306 388 Create window:;
#X obj 1304 120 cnv 15 160 60 empty empty empty 20 12 0 14 -24198 -66577
0;
#X floatatom 1365 124 5 0 0 0 - - -;
#X msg 1438 209 0 1 1;
#X floatatom 1315 264 5 0 0 0 - - -;
#X obj 1304 285 translateXYZ;
#X floatatom 1374 -74 5 0 0 0 - - -;
#X floatatom 1408 -76 5 0 0 0 - - -;
#X obj 1328 -20 translateXYZ;
#X obj 1326 121 line;
#X obj 1371 25 bng 15 250 50 0 empty empty empty 17 7 0 10 -262144
-1 -1;
#X obj 1324 79 pack \$1 \$2;
#X obj 1371 43 f;
#X obj 1401 44 + 1;
#X obj 1710 -51 cnv 15 170 340 empty empty empty 20 12 0 14 -228992
-66577 0;
#X floatatom 1325 22 5 0 0 0 - - -;
#X floatatom 1419 333 5 0 0 0 - - -;
#X obj 1312 308 color;
#X floatatom 1379 335 5 0 0 0 - - -;
#X obj 1510 -51 cnv 15 170 340 empty empty empty 20 12 0 14 -228992
-66577 0;
#X obj 1512 120 cnv 15 160 60 empty empty empty 20 12 0 14 -24198 -66577
0;
#X floatatom 1572 128 5 0 0 0 - - -;
#X msg 1626 140 1 0 0;
#X msg 1626 161 0 1 1;
#X obj 1540 313 color;
#X obj 1582 23 bng 15 250 50 0 empty empty empty 17 7 0 10 -262144
-1 -1;
#X obj 1532 84 pack \$1 \$2;
#X obj 1578 42 f;
#X obj 1605 43 + 1;
#X floatatom 1530 21 5 0 0 0 - - -;
#X obj 1531 127 line;
#X obj 1589 465 r lo;
#X obj 1324 39 * -1;
#X obj 1530 42 * -1;
#X floatatom 1613 337 5 0 0 0 - - -;
#X floatatom 1668 338 5 0 0 0 - - -;
#X floatatom 1482 328 5 0 0 0 - - -;
#X floatatom 1543 262 5 0 0 0 - - -;
#X obj 1520 289 translateXYZ;
#X obj 1480 104 bng 15 250 50 0 empty empty empty 17 7 0 10 -262144
-1 -1;
#X floatatom 1481 401 5 0 0 0 - - -;
#X floatatom 1480 464 5 0 0 0 - - -;
#X floatatom 1311 529 5 0 0 0 - - -;
#X obj 1305 148 rotate 45 0 0 1;
#X obj 1519 155 rotate 45 0 0 1;
#X floatatom 1417 259 5 0 0 0 - - -;
#X floatatom 1804 155 5 0 0 0 - - -;
#X floatatom 1395 77 5 0 0 0 - - -;
#X obj 1312 356 rectangle 0.04 0.08;
#X msg 1440 228 1 1 1;
#X floatatom 1799 103 5 0 0 0 - - -;
#X obj 1788 84 * 0.0625;
#X obj 1799 126 * 8;
#X floatatom 1738 197 5 0 0 0 - - -;
#X obj 1804 235 * 0.05;
#X msg 1418 119 0 0 0;
#X msg 1626 119 0 0 0;
#X msg 1438 188 0 0 0;
#X msg 1483 377 0.04;
#X obj 1598 512 * -1;
#X obj 1313 -118 r lo;
#X obj 1282 -116 bng 15 250 50 0 empty empty empty 17 7 0 10 -262144
-1 -1;
#X obj 1826 137 + 1;
#X msg 1482 351 0.25;
#X msg 1599 493 2.11;
#X obj 1739 176 * 2;
#X obj 1744 154 + 0.98;
#X floatatom 1481 294 5 0 0 0 - - -;
#X obj 1524 -17 translateXYZ;
#X floatatom 1544 -46 5 0 0 0 - - -;
#X floatatom 1465 -70 5 0 0 0 - - -;
#X floatatom 1439 -18 5 0 0 0 - - -;
#X obj 1442 -36 + 0.01;
#X floatatom 1791 66 5 0 0 0 - - -;
#X msg 1514 -158 0.4;
#X msg 1442 -113 -0.01;
#X obj 1309 -82 gemhead 4;
#X obj 1522 -85 gemhead 4;
#X obj 1446 7 r BB1;
#X obj 1445 62 r T1;
#X obj 1644 74 r T1;
#X obj 1823 63 r STPB;
#X obj 1552 366 rectangle 0.04 0.08;
#X msg 1358 308 0 1 1;
#X msg 1590 311 1 0 0;
#X floatatom 137 401 5 0 0 0 - - -;
#X floatatom 1410 496 5 0 0 0 - - -;
#X obj 1421 458 r B;
#X obj 152 353 r A;
#X floatatom 800 582 9 0 0 0 - - -;
#X msg 468 8 -0.53;
#X obj 1323 58 * -360;
#X obj 1530 63 * -360;
#X msg 1484 -113 2;
#X msg 408 2 2;
#X msg 1544 -107 -0.53;
#X msg 1385 -100 -2.5;
#X obj 1632 -71 r itB;
#X obj 636 572 sel;
#X obj 637 593 bng 15 250 50 0 empty empty empty 17 7 0 10 -262144
-1 -1;
#X msg 641 619 0;
#X obj 1049 720 spigot-toggle_red;
#X obj 659 688 - 1;
#X obj 654 708 * -1;
#X obj 469 892 spigot-toggle_red;
#X obj 457 836 t b f;
#X floatatom 471 944 0 0 0 0 - - -;
#X obj 479 964 - 1;
#X obj 474 984 * -1;
#X obj 452 806 + 9999;
#X obj 468 868 >;
#X obj 582 557 sel;
#X obj 583 578 bng 15 250 50 0 empty empty empty 17 7 0 10 -262144
-1 -1;
#X obj 589 612 f;
#X obj 618 496 sel;
#X obj 619 517 bng 15 250 50 0 empty empty empty 17 7 0 10 -262144
-1 -1;
#X obj 625 551 f;
#X obj 970 810 bng 15 250 50 0 empty empty empty 17 7 0 10 -262144
-1 -1;
#X obj 471 915 spigot-toggle_red;
#X obj 994 827 spigot-toggle_red;
#X obj 835 980 cnv 15 170 340 empty empty empty 20 12 0 14 -228992
-66577 0;
#X floatatom 898 1086 5 0 0 0 - - -;
#X msg 952 1098 1 0 0;
#X msg 952 1119 0 1 1;
#X floatatom 922 1259 5 0 0 0 - - -;
#X floatatom 977 1258 5 0 0 0 - - -;
#X obj 845 1113 rotate 45 0 0 1;
#X msg 952 1077 0 0 0;
#X obj 849 1014 translateXYZ;
#X floatatom 869 985 5 0 0 0 - - -;
#X floatatom 910 986 5 0 0 0 - - -;
#X floatatom 945 984 5 0 0 0 - - -;
#X obj 898 1038 r posvisu;
#X obj 903 853 * 1;
#X floatatom 887 1166 5 0 0 0 - - -;
#X obj 841 1188 translateXYZ;
#X obj 1179 1263 color;
#X floatatom 1226 1311 5 0 0 0 - - -;
#X floatatom 1293 1282 5 0 0 0 - - -;
#X floatatom 1192 1216 5 0 0 0 - - -;
#X msg 1229 1261 1 0 1;
#X obj 1389 1089 * -1;
#X obj 1379 996 pack \$1 \$2;
#X obj 1377 975 * 1;
#X obj 1384 1021 line;
#X floatatom 923 1172 5 0 0 0 - - -;
#X floatatom 1222 1043 5 0 0 0 - - -;
#X msg 1276 1055 1 0 0;
#X msg 1276 1076 0 1 1;
#X obj 1169 1070 rotate 45 0 0 1;
#X msg 1276 1034 0 0 0;
#X obj 1170 948 translateXYZ;
#X floatatom 1190 919 5 0 0 0 - - -;
#X floatatom 1231 920 5 0 0 0 - - -;
#X floatatom 1266 918 5 0 0 0 - - -;
#X obj 1209 997 r posvisu;
#X floatatom 1221 1098 5 0 0 0 - - -;
#X obj 1176 1174 translateXYZ;
#X floatatom 1257 1104 5 0 0 0 - - -;
#X floatatom 1202 1133 5 0 0 0 - - -;
#X obj 1303 1242 * 2;
#X msg 1344 996 0;
#X obj 899 1065 * -360;
#X obj 1223 1022 * -360;
#X obj 1105 1287 * 2;
#X obj 1170 1239 translateXYZ;
#X obj 1171 861 gemhead 5;
#X obj 846 946 gemhead 6;
#X obj 1101 1257 * 1;
#X obj 1165 1340 rectangle 0.01 0.03;
#X obj 861 1288 rectangle 0.01 0.03;
#X msg 1009 1169 -0.5;
#X msg 1019 1203 0.8;
#X obj 1034 967 r lo;
#X obj 1170 704 spigot-toggle_red;
#X obj 601 1141 * 1;
#X msg 1033 1067 1.5;
#X msg 1023 1033 -0.1;
#X msg 403 553 0.03;
#X msg 1479 437 0.03;
#X msg 976 160 \$1 \$2 \$3;
#X floatatom 1015 50 5 0 0 0 - - -;
#X floatatom 1070 51 5 0 0 0 - - -;
#X floatatom 980 60 5 0 0 0 - - -;
#X obj 979 107 pack f f f;
#X connect 2 0 3 0;
#X connect 3 0 2 0;
#X connect 6 0 77 1;
#X connect 7 0 77 2;
#X connect 8 0 9 1;
#X connect 9 0 22 0;
#X connect 10 0 12 1;
#X connect 11 0 12 2;
#X connect 11 0 132 2;
#X connect 12 0 77 0;
#X connect 13 0 6 0;
#X connect 14 0 16 0;
#X connect 15 0 13 0;
#X connect 16 0 17 0;
#X connect 16 0 20 0;
#X connect 17 0 16 1;
#X connect 19 0 109 0;
#X connect 20 0 41 0;
#X connect 21 0 111 2;
#X connect 22 0 111 0;
#X connect 23 0 111 1;
#X connect 26 0 78 1;
#X connect 27 0 78 2;
#X connect 28 0 78 2;
#X connect 29 0 110 0;
#X connect 30 0 32 0;
#X connect 31 0 38 0;
#X connect 32 0 33 0;
#X connect 32 0 35 0;
#X connect 33 0 32 1;
#X connect 34 0 31 1;
#X connect 35 0 43 0;
#X connect 36 0 30 0;
#X connect 37 0 31 0;
#X connect 38 0 26 0;
#X connect 39 0 137 0;
#X connect 40 0 54 0;
#X connect 41 0 42 0;
#X connect 42 0 15 0;
#X connect 43 0 37 0;
#X connect 44 0 110 1;
#X connect 45 0 110 2;
#X connect 46 0 14 0;
#X connect 47 0 58 0;
#X connect 49 0 51 3;
#X connect 50 0 51 1;
#X connect 51 0 29 0;
#X connect 52 0 56 0;
#X connect 53 0 105 0;
#X connect 53 1 105 1;
#X connect 54 0 337 0;
#X connect 54 0 128 0;
#X connect 54 0 94 0;
#X connect 54 0 120 0;
#X connect 54 0 122 0;
#X connect 54 0 119 0;
#X connect 54 0 118 0;
#X connect 54 0 127 0;
#X connect 55 0 93 0;
#X connect 56 0 69 0;
#X connect 57 0 310 0;
#X connect 58 0 81 1;
#X connect 59 0 150 0;
#X connect 60 0 23 0;
#X connect 60 0 44 0;
#X connect 61 0 21 0;
#X connect 61 0 45 0;
#X connect 62 0 75 0;
#X connect 62 0 63 0;
#X connect 63 0 71 0;
#X connect 64 0 50 0;
#X connect 64 0 8 0;
#X connect 65 0 12 0;
#X connect 66 0 132 0;
#X connect 67 0 68 0;
#X connect 68 0 69 0;
#X connect 68 1 69 1;
#X connect 69 0 53 0;
#X connect 70 0 260 0;
#X connect 71 0 75 0;
#X connect 71 1 75 1;
#X connect 72 0 67 0;
#X connect 73 0 292 0;
#X connect 74 0 79 0;
#X connect 74 0 104 0;
#X connect 75 0 76 0;
#X connect 76 0 320 0;
#X connect 77 0 9 0;
#X connect 78 0 51 0;
#X connect 79 0 72 0;
#X connect 79 0 103 1;
#X connect 79 0 83 1;
#X connect 80 0 62 0;
#X connect 81 0 141 0;
#X connect 82 0 91 0;
#X connect 83 0 105 0;
#X connect 83 0 301 1;
#X connect 84 0 269 0;
#X connect 84 0 86 0;
#X connect 85 0 84 0;
#X connect 86 0 83 0;
#X connect 87 0 83 0;
#X connect 88 0 87 0;
#X connect 88 0 264 0;
#X connect 89 0 88 0;
#X connect 90 0 103 0;
#X connect 91 0 93 0;
#X connect 91 1 93 1;
#X connect 92 0 103 0;
#X connect 93 0 106 0;
#X connect 94 0 29 1;
#X connect 95 0 99 0;
#X connect 96 0 97 0;
#X connect 96 0 142 0;
#X connect 97 0 92 1;
#X connect 97 0 86 1;
#X connect 97 0 257 0;
#X connect 97 0 260 1;
#X connect 97 0 270 0;
#X connect 97 0 275 1;
#X connect 97 0 263 1;
#X connect 98 0 99 0;
#X connect 98 0 142 0;
#X connect 99 0 90 1;
#X connect 99 0 87 1;
#X connect 99 0 257 0;
#X connect 99 0 261 0;
#X connect 99 0 268 0;
#X connect 99 0 272 1;
#X connect 99 0 273 0;
#X connect 99 0 277 1;
#X connect 99 0 278 1;
#X connect 99 0 334 0;
#X connect 100 0 99 0;
#X connect 100 0 142 0;
#X connect 101 0 97 0;
#X connect 101 0 142 0;
#X connect 102 0 97 0;
#X connect 103 0 334 0;
#X connect 104 0 67 0;
#X connect 104 0 260 1;
#X connect 105 0 73 0;
#X connect 106 0 323 0;
#X connect 107 0 9 3;
#X connect 108 0 117 0;
#X connect 109 0 15 1;
#X connect 112 0 77 2;
#X connect 113 0 115 0;
#X connect 114 0 113 0;
#X connect 115 0 126 0;
#X connect 116 0 8 0;
#X connect 117 0 44 0;
#X connect 117 0 130 0;
#X connect 117 0 50 0;
#X connect 118 0 77 2;
#X connect 119 0 78 2;
#X connect 120 0 22 1;
#X connect 121 0 77 2;
#X connect 122 0 60 0;
#X connect 123 0 64 0;
#X connect 124 0 125 0;
#X connect 125 0 253 0;
#X connect 125 0 147 0;
#X connect 125 0 249 0;
#X connect 125 0 139 0;
#X connect 126 0 108 0;
#X connect 127 0 131 0;
#X connect 128 0 123 0;
#X connect 129 0 116 0;
#X connect 130 0 129 0;
#X connect 131 0 107 0;
#X connect 131 0 49 0;
#X connect 132 0 78 0;
#X connect 133 0 132 1;
#X connect 134 0 132 3;
#X connect 134 0 136 0;
#X connect 135 0 12 3;
#X connect 136 0 135 0;
#X connect 137 0 114 0;
#X connect 139 0 11 0;
#X connect 140 0 92 0;
#X connect 141 0 76 0;
#X connect 142 0 141 1;
#X connect 143 0 144 0;
#X connect 144 0 86 1;
#X connect 147 0 10 0;
#X connect 148 0 82 0;
#X connect 148 0 276 0;
#X connect 149 0 82 0;
#X connect 149 0 276 0;
#X connect 150 0 151 0;
#X connect 151 0 72 0;
#X connect 152 0 92 0;
#X connect 153 0 90 0;
#X connect 153 0 248 0;
#X connect 154 0 90 0;
#X connect 157 0 158 0;
#X connect 158 0 157 0;
#X connect 161 0 202 1;
#X connect 162 0 202 2;
#X connect 163 0 164 1;
#X connect 164 0 176 0;
#X connect 165 0 167 1;
#X connect 166 0 167 2;
#X connect 166 0 227 2;
#X connect 167 0 202 0;
#X connect 168 0 161 0;
#X connect 169 0 171 0;
#X connect 170 0 168 0;
#X connect 171 0 172 0;
#X connect 171 0 174 0;
#X connect 172 0 171 1;
#X connect 174 0 191 0;
#X connect 175 0 207 2;
#X connect 176 0 207 0;
#X connect 177 0 207 1;
#X connect 180 0 203 1;
#X connect 181 0 203 2;
#X connect 182 0 203 2;
#X connect 183 0 241 0;
#X connect 184 0 186 0;
#X connect 185 0 189 0;
#X connect 186 0 187 0;
#X connect 186 0 188 0;
#X connect 187 0 186 1;
#X connect 188 0 192 0;
#X connect 189 0 180 0;
#X connect 190 0 198 0;
#X connect 191 0 250 0;
#X connect 192 0 251 0;
#X connect 193 0 241 1;
#X connect 194 0 241 2;
#X connect 195 0 197 3;
#X connect 196 0 197 1;
#X connect 197 0 183 0;
#X connect 198 0 338 0;
#X connect 198 0 223 0;
#X connect 198 0 243 0;
#X connect 198 0 242 0;
#X connect 198 0 217 0;
#X connect 198 0 215 0;
#X connect 198 0 214 0;
#X connect 198 0 222 0;
#X connect 199 0 177 0;
#X connect 199 0 193 0;
#X connect 200 0 175 0;
#X connect 200 0 194 0;
#X connect 201 0 196 0;
#X connect 201 0 163 0;
#X connect 202 0 164 0;
#X connect 203 0 197 0;
#X connect 204 0 164 3;
#X connect 205 0 213 0;
#X connect 206 0 170 1;
#X connect 208 0 202 2;
#X connect 209 0 211 0;
#X connect 210 0 209 0;
#X connect 211 0 221 0;
#X connect 212 0 163 0;
#X connect 213 0 193 0;
#X connect 213 0 225 0;
#X connect 213 0 196 0;
#X connect 214 0 202 2;
#X connect 215 0 203 2;
#X connect 216 0 202 2;
#X connect 217 0 199 0;
#X connect 218 0 201 0;
#X connect 219 0 220 0;
#X connect 220 0 252 0;
#X connect 220 0 234 0;
#X connect 220 0 254 0;
#X connect 220 0 255 0;
#X connect 221 0 205 0;
#X connect 222 0 226 0;
#X connect 223 0 218 0;
#X connect 224 0 212 0;
#X connect 225 0 224 0;
#X connect 226 0 204 0;
#X connect 226 0 195 0;
#X connect 227 0 203 0;
#X connect 228 0 227 1;
#X connect 229 0 227 3;
#X connect 229 0 231 0;
#X connect 230 0 167 3;
#X connect 231 0 230 0;
#X connect 232 0 210 0;
#X connect 234 0 166 0;
#X connect 235 0 167 0;
#X connect 236 0 227 0;
#X connect 237 0 169 0;
#X connect 238 0 206 0;
#X connect 239 0 185 1;
#X connect 240 0 232 0;
#X connect 242 0 176 1;
#X connect 243 0 183 1;
#X connect 244 0 22 1;
#X connect 245 0 176 1;
#X connect 246 0 245 0;
#X connect 247 0 244 0;
#X connect 249 0 133 0;
#X connect 250 0 170 0;
#X connect 251 0 185 0;
#X connect 252 0 229 0;
#X connect 253 0 134 0;
#X connect 254 0 228 0;
#X connect 255 0 165 0;
#X connect 256 0 184 0;
#X connect 257 0 258 0;
#X connect 258 0 259 0;
#X connect 259 0 334 0;
#X connect 260 0 80 0;
#X connect 261 0 262 0;
#X connect 263 0 277 0;
#X connect 264 0 269 0;
#X connect 264 1 269 1;
#X connect 265 0 266 0;
#X connect 265 0 87 1;
#X connect 265 0 278 1;
#X connect 266 0 267 0;
#X connect 267 0 86 1;
#X connect 268 0 264 0;
#X connect 269 0 263 0;
#X connect 270 0 271 0;
#X connect 271 0 272 0;
#X connect 272 0 87 1;
#X connect 272 0 278 1;
#X connect 272 0 334 0;
#X connect 273 0 274 0;
#X connect 274 0 275 0;
#X connect 275 0 86 1;
#X connect 275 0 334 0;
#X connect 276 0 278 0;
#X connect 277 0 265 0;
#X connect 278 0 81 0;
#X connect 280 0 285 1;
#X connect 281 0 285 2;
#X connect 282 0 285 2;
#X connect 283 0 329 1;
#X connect 284 0 329 2;
#X connect 285 0 294 0;
#X connect 286 0 285 2;
#X connect 287 0 285 0;
#X connect 288 0 287 1;
#X connect 289 0 287 2;
#X connect 290 0 287 3;
#X connect 291 0 321 0;
#X connect 292 0 55 0;
#X connect 293 0 294 2;
#X connect 294 0 329 0;
#X connect 295 0 328 0;
#X connect 296 0 319 0;
#X connect 296 0 328 1;
#X connect 297 0 328 2;
#X connect 298 0 324 1;
#X connect 299 0 295 1;
#X connect 300 0 318 0;
#X connect 301 0 303 0;
#X connect 302 0 301 0;
#X connect 303 0 300 0;
#X connect 304 0 294 3;
#X connect 305 0 308 1;
#X connect 306 0 308 2;
#X connect 307 0 308 2;
#X connect 308 0 316 0;
#X connect 309 0 308 2;
#X connect 310 0 308 0;
#X connect 311 0 310 1;
#X connect 312 0 310 2;
#X connect 313 0 310 3;
#X connect 314 0 322 0;
#X connect 315 0 316 2;
#X connect 316 0 324 0;
#X connect 317 0 316 3;
#X connect 318 0 316 1;
#X connect 319 0 302 0;
#X connect 320 0 303 0;
#X connect 321 0 280 0;
#X connect 322 0 305 0;
#X connect 323 0 296 0;
#X connect 323 0 327 0;
#X connect 324 0 295 0;
#X connect 325 0 57 0;
#X connect 326 0 287 0;
#X connect 327 0 298 0;
#X connect 330 0 293 0;
#X connect 330 0 315 0;
#X connect 331 0 304 0;
#X connect 331 0 317 0;
#X connect 332 0 336 0;
#X connect 332 0 335 0;
#X connect 332 0 330 0;
#X connect 332 0 331 0;
#X connect 334 0 57 1;
#X connect 335 0 290 0;
#X connect 335 0 313 0;
#X connect 336 0 288 0;
#X connect 336 0 311 0;
#X connect 337 0 61 0;
#X connect 338 0 200 0;
#X connect 339 0 183 1;
#X connect 340 0 343 1;
#X connect 341 0 343 2;
#X connect 342 0 343 0;
#X connect 343 0 339 0;
