#N canvas 1803 64 1539 973 10;
#X obj 226 64 cnv 15 170 340 empty empty empty 20 12 0 14 -228992 -66577
0;
#X obj 228 504 cnv 15 100 60 empty empty empty 20 12 0 14 -195568 -66577
0;
#N canvas 0 22 450 300 gemwin 0;
#X obj 132 136 gemwin;
#X obj 67 89 outlet;
#X obj 67 10 inlet;
#X obj 67 41 route create;
#X msg 67 70 set destroy;
#X msg 142 68 set create;
#X msg 132 112 create \, 1;
#X msg 198 112 destroy;
#X connect 2 0 3 0;
#X connect 3 0 4 0;
#X connect 3 0 6 0;
#X connect 3 1 5 0;
#X connect 3 1 7 0;
#X connect 4 0 1 0;
#X connect 5 0 1 0;
#X connect 6 0 0 0;
#X connect 7 0 0 0;
#X restore 234 543 pd gemwin;
#X msg 234 524 create;
#X text 230 503 Create window:;
#X obj 228 235 cnv 15 160 60 empty empty empty 20 12 0 14 -24198 -66577
0;
#X floatatom 289 239 5 0 0 0 - - -;
#X msg 362 324 0 1 1;
#X floatatom 239 379 5 0 0 0 - - -;
#X obj 228 400 translateXYZ;
#X floatatom 298 41 5 0 0 0 - - -;
#X floatatom 332 39 5 0 0 0 - - -;
#X obj 252 95 translateXYZ;
#X obj 250 236 line;
#X obj 295 140 bng 15 250 50 0 empty empty empty 17 7 0 10 -262144
-1 -1;
#X obj 248 194 pack \$1 \$2;
#X obj 295 158 f;
#X obj 325 159 + 1;
#X obj 869 143 cnv 15 170 340 empty empty empty 20 12 0 14 -228992
-66577 0;
#X obj 369 177 r T$;
#X floatatom 246 130 5 0 0 0 - - -;
#X floatatom 343 448 5 0 0 0 - - -;
#X obj 236 423 color;
#X floatatom 303 450 5 0 0 0 - - -;
#X obj 434 64 cnv 15 170 340 empty empty empty 20 12 0 14 -228992 -66577
0;
#X obj 436 235 cnv 15 160 60 empty empty empty 20 12 0 14 -24198 -66577
0;
#X floatatom 496 243 5 0 0 0 - - -;
#X msg 550 255 1 0 0;
#X msg 550 276 0 1 1;
#X obj 464 428 color;
#X obj 502 138 bng 15 250 50 0 empty empty empty 17 7 0 10 -262144
-1 -1;
#X obj 456 199 pack \$1 \$2;
#X obj 500 156 f;
#X obj 529 158 + 1;
#X obj 568 189 r T$;
#X floatatom 454 136 5 0 0 0 - - -;
#X obj 455 242 line;
#X obj 727 140 r STPA;
#X obj 513 580 r lo;
#X obj 248 154 * -1;
#X obj 454 157 * -1;
#X floatatom 537 452 5 0 0 0 - - -;
#X floatatom 592 451 5 0 0 0 - - -;
#X obj 370 122 r BB;
#X obj 1003 780 r posvisu;
#X floatatom 406 443 5 0 0 0 - - -;
#X floatatom 467 377 5 0 0 0 - - -;
#X obj 444 404 translateXYZ;
#X obj 404 219 bng 15 250 50 0 empty empty empty 17 7 0 10 -262144
-1 -1;
#X floatatom 901 875 5 0 0 0 - - -;
#X obj 1175 906 spigot-toggle_red;
#X floatatom 1004 804 5 0 0 0 - - -;
#X floatatom 405 516 5 0 0 0 - - -;
#X floatatom 396 616 5 0 0 0 - - -;
#X floatatom 1065 754 5 0 0 0 - - -;
#X obj 1075 777 > 1;
#X floatatom 235 644 5 0 0 0 - - -;
#X obj 1065 697 r Amod;
#X obj 1076 801 t b f;
#X floatatom 904 828 7 0 0 0 - - -;
#X obj 912 748 r lo;
#X obj 1066 828 - 0;
#X floatatom 1064 850 5 0 0 0 - - -;
#X msg 911 776 1;
#X obj 1065 735 - 0;
#X obj 991 862 f;
#X floatatom 942 856 5 0 0 0 - - -;
#X obj 903 804 spigot-toggle_red;
#X floatatom 695 760 5 0 0 0 - - -;
#X obj 696 735 r T$;
#X obj 708 793 spigot-toggle_red;
#X obj 763 749 spigot-toggle_red;
#X floatatom 759 720 5 0 0 0 - - -;
#X obj 761 698 r T1;
#X obj 805 651 spigot-toggle_red;
#X obj 941 875 t b f;
#X obj 667 591 spigot-toggle_red;
#X obj 899 899 * 1;
#X msg 514 426 0 1 1;
#X obj 741 413 r lyrAposB;
#X obj 673 444 r s@pAA;
#X obj 674 499 * 1;
#X obj 742 469 r spAB;
#X obj 742 496 * 1;
#X obj 742 439 r s@pAB;
#X obj 672 474 r spAA;
#X obj 667 412 r lyrAposA;
#X obj 763 1005 spigot-toggle_red;
#X floatatom 901 923 12 0 0 0 - - -;
#X floatatom 341 374 5 0 0 0 - - -;
#X floatatom 730 180 5 0 0 0 - - -;
#X floatatom 319 192 5 0 0 0 - - -;
#X msg 364 343 1 1 1;
#X floatatom 726 240 5 0 0 0 - - -;
#X msg 342 234 0 0 0;
#X msg 550 234 0 0 0;
#X msg 362 303 0 0 0;
#X msg 407 492 0.04;
#X obj 522 627 * -1;
#X obj 237 -3 r lo;
#X obj 206 -1 bng 15 250 50 0 empty empty empty 17 7 0 10 -262144 -1
-1;
#X msg 406 466 0.25;
#X msg 523 608 2.11;
#X floatatom 405 409 5 0 0 0 - - -;
#X obj 448 98 translateXYZ;
#X floatatom 467 69 5 0 0 0 - - -;
#X floatatom 375 59 5 0 0 0 - - -;
#X floatatom 363 97 5 0 0 0 - - -;
#X obj 366 79 + 0.01;
#X msg 438 -43 0.4;
#X msg 366 2 -0.01;
#X obj 676 560 r trgrmodA;
#X obj 1025 851 spigot-toggle_red;
#X obj 1042 477 * 1;
#X obj 722 827 r lo;
#X msg 718 851 1;
#X text 403 799 POS + p&s;
#X obj 942 743 r pitchNspeedA;
#X obj 942 721 r speedA;
#X obj 677 540 r onoffA;
#X obj 820 550 r trgrmodB;
#X obj 736 538 r onoffB;
#X obj 1009 83 cnv 15 100 60 empty empty empty 20 12 0 14 -195568 -66577
0;
#N canvas 0 22 450 300 gemwin 0;
#X obj 132 136 gemwin;
#X obj 67 89 outlet;
#X obj 67 10 inlet;
#X obj 67 41 route create;
#X msg 67 70 set destroy;
#X msg 142 68 set create;
#X msg 132 112 create \, 1;
#X msg 198 112 destroy;
#X connect 2 0 3 0;
#X connect 3 0 4 0;
#X connect 3 0 6 0;
#X connect 3 1 5 0;
#X connect 3 1 7 0;
#X connect 4 0 1 0;
#X connect 5 0 1 0;
#X connect 6 0 0 0;
#X connect 7 0 0 0;
#X restore 1015 122 pd gemwin;
#X msg 1015 103 create;
#X text 1011 82 Create window:;
#X floatatom 832 523 9 0 0 0 - - -;
#X msg 408 2 2;
#X obj 620 523 sel;
#X obj 622 549 bng 15 250 50 0 empty empty empty 17 7 0 10 -262144
-1 -1;
#X msg 619 574 0;
#X obj 1065 715 spigot-toggle_red;
#X obj 482 787 spigot-toggle_red;
#X obj 470 731 t b f;
#X floatatom 484 839 0 0 0 0 - - -;
#X obj 485 859 - 1;
#X obj 486 880 * -1;
#X obj 465 701 + 9999;
#X obj 481 763 >;
#X obj 552 524 sel;
#X obj 553 545 bng 15 250 50 0 empty empty empty 17 7 0 10 -262144
-1 -1;
#X obj 559 579 f;
#X obj 586 520 sel;
#X obj 587 541 bng 15 250 50 0 empty empty empty 17 7 0 10 -262144
-1 -1;
#X obj 591 579 f;
#X obj 987 788 bng 15 250 50 0 empty empty empty 17 7 0 10 -262144
-1 -1;
#X obj 484 810 spigot-toggle_red;
#X obj 989 839 spigot-toggle_red;
#X obj 835 980 cnv 15 170 340 empty empty empty 20 12 0 14 -228992
-66577 0;
#X floatatom 898 1086 5 0 0 0 - - -;
#X msg 952 1098 1 0 0;
#X msg 952 1119 0 1 1;
#X floatatom 971 1272 5 0 0 0 - - -;
#X obj 845 1113 rotate 45 0 0 1;
#X msg 952 1077 0 0 0;
#X obj 849 1014 translateXYZ;
#X floatatom 869 985 5 0 0 0 - - -;
#X floatatom 910 986 5 0 0 0 - - -;
#X floatatom 945 984 5 0 0 0 - - -;
#X obj 898 1038 r posvisu;
#X obj 903 853 * 1;
#X obj 851 1238 translateXYZ;
#X obj 1171 1268 color;
#X floatatom 1223 1291 5 0 0 0 - - -;
#X floatatom 1319 1309 5 0 0 0 - - -;
#X floatatom 1192 1216 5 0 0 0 - - -;
#X obj 1430 1107 * -1;
#X obj 1413 823 pack \$1 \$2;
#X obj 1418 848 line;
#X floatatom 923 1216 5 0 0 0 - - -;
#X floatatom 1222 1043 5 0 0 0 - - -;
#X msg 1276 1055 1 0 0;
#X msg 1276 1076 0 1 1;
#X obj 1169 1070 rotate 45 0 0 1;
#X msg 1276 1034 0 0 0;
#X obj 1170 948 translateXYZ;
#X floatatom 1212 904 5 0 0 0 - - -;
#X floatatom 1231 920 5 0 0 0 - - -;
#X floatatom 1266 918 5 0 0 0 - - -;
#X obj 1209 997 r posvisu;
#X obj 1176 1174 translateXYZ;
#X floatatom 1245 1148 5 0 0 0 - - -;
#X floatatom 1201 1149 5 0 0 0 - - -;
#X msg 1386 850 0;
#X obj 899 1065 * -360;
#X obj 1223 1022 * -360;
#X obj 1171 861 gemhead 5;
#X obj 846 946 gemhead 6;
#X obj 1034 967 r lo;
#X obj 728 206 * 0.03;
#X msg 282 423 0 1 1;
#X msg 1019 1203 2.4;
#X obj 1411 32 cnv 15 170 340 empty empty empty 20 12 0 14 -228992
-66577 0;
#X obj 1413 203 cnv 15 160 60 empty empty empty 20 12 0 14 -24198 -66577
0;
#X floatatom 1474 207 5 0 0 0 - - -;
#X msg 1547 292 0 1 1;
#X floatatom 1424 347 5 0 0 0 - - -;
#X obj 1413 368 translateXYZ;
#X floatatom 1483 9 5 0 0 0 - - -;
#X floatatom 1517 7 5 0 0 0 - - -;
#X obj 1437 63 translateXYZ;
#X obj 1435 204 line;
#X obj 1480 108 bng 15 250 50 0 empty empty empty 17 7 0 10 -262144
-1 -1;
#X obj 1433 162 pack \$1 \$2;
#X obj 1480 126 f;
#X obj 1510 127 + 1;
#X floatatom 1434 105 5 0 0 0 - - -;
#X floatatom 1528 416 5 0 0 0 - - -;
#X obj 1421 391 color;
#X floatatom 1488 418 5 0 0 0 - - -;
#X obj 1619 32 cnv 15 170 340 empty empty empty 20 12 0 14 -228992
-66577 0;
#X obj 1621 203 cnv 15 160 60 empty empty empty 20 12 0 14 -24198 -66577
0;
#X floatatom 1681 211 5 0 0 0 - - -;
#X msg 1735 223 1 0 0;
#X msg 1735 244 0 1 1;
#X obj 1649 396 color;
#X obj 1687 106 bng 15 250 50 0 empty empty empty 17 7 0 10 -262144
-1 -1;
#X obj 1641 167 pack \$1 \$2;
#X obj 1685 124 f;
#X obj 1714 126 + 1;
#X floatatom 1639 104 5 0 0 0 - - -;
#X obj 1640 210 line;
#X obj 1698 548 r lo;
#X obj 1433 122 * -1;
#X obj 1639 125 * -1;
#X floatatom 1722 420 5 0 0 0 - - -;
#X floatatom 1591 411 5 0 0 0 - - -;
#X floatatom 1652 345 5 0 0 0 - - -;
#X obj 1629 372 translateXYZ;
#X obj 1589 187 bng 15 250 50 0 empty empty empty 17 7 0 10 -262144
-1 -1;
#X floatatom 1590 484 5 0 0 0 - - -;
#X floatatom 1589 547 5 0 0 0 - - -;
#X floatatom 1420 612 5 0 0 0 - - -;
#X obj 1630 -2 gemhead 3;
#X floatatom 1526 342 5 0 0 0 - - -;
#X floatatom 1848 233 5 0 0 0 - - -;
#X floatatom 1504 160 5 0 0 0 - - -;
#X obj 1421 439 rectangle 0.04 0.08;
#X msg 1549 311 1 1 1;
#X floatatom 1847 280 5 0 0 0 - - -;
#X msg 1547 271 0 0 0;
#X msg 1592 460 0.04;
#X obj 1707 595 * -1;
#X obj 1331 -27 r lo;
#X obj 1391 -33 bng 15 250 50 0 empty empty empty 17 7 0 10 -262144
-1 -1;
#X msg 1591 434 0.25;
#X msg 1708 576 2.11;
#X floatatom 1590 377 5 0 0 0 - - -;
#X obj 1633 66 translateXYZ;
#X floatatom 1653 38 5 0 0 0 - - -;
#X floatatom 1560 27 5 0 0 0 - - -;
#X floatatom 1548 65 5 0 0 0 - - -;
#X obj 1551 47 + 0.01;
#X msg 1551 -30 -0.01;
#X msg 1494 -30 -2.5;
#X msg 1653 -24 -0.53;
#X msg 1593 -30 2;
#X obj 1414 231 rotate 45 0 0 1;
#X obj 1628 238 rotate 45 0 0 1;
#X obj 1846 251 * 0.03;
#X obj 1555 90 r BB1;
#X obj 1554 145 r T1;
#X obj 1418 1 gemhead 8;
#X obj 1740 156 r T1;
#X obj 1850 176 r STPB;
#X obj 1661 449 rectangle 0.04 0.02;
#X msg 1588 521 0.07;
#X msg 1735 202 0 0 1;
#X msg 1698 392 1 0.2 0;
#X msg 1468 391 1 0.2 0;
#X floatatom 896 405 5 0 0 0 - - -;
#X floatatom 882 1140 5 0 0 0 - - -;
#X obj 839 1194 translateXYZ;
#X obj 1089 1106 translateXYZ;
#X obj 1170 1239 translateXYZ;
#X floatatom 951 405 5 0 0 0 - - -;
#X obj 910 449 spigot-toggle_red;
#X obj 953 448 spigot-toggle_red;
#X obj 929 145 t b f;
#X obj 940 177 >;
#X obj 978 155 r STPA;
#X obj 884 160 r STPB;
#X obj 964 202 - 1;
#X obj 959 222 * -1;
#X msg 1527 202 0 0 1;
#X floatatom 1589 600 5 0 0 0 - - -;
#X msg 1588 574 0.02;
#X obj 837 988 spigot-toggle_red;
#X obj 233 33 gemhead 12;
#X floatatom 519 72 5 0 0 0 - - -;
#X floatatom 1707 29 5 0 0 0 - - -;
#X obj 1328 1265 r lo;
#X msg 1218 1263 1 0 0;
#X obj 850 1263 color;
#X msg 894 1262 0 1 1;
#X obj 1639 146 * -360;
#X obj 1432 141 * -360;
#X floatatom 215 303 5 0 0 0 - - -;
#X obj 192 330 translateXYZ;
#X obj 883 1169 + 0;
#X obj 956 376 + 0;
#X obj 897 366 + 0;
#X obj 901 342 t b f;
#X obj 952 341 t b f;
#X obj 601 160 mod 2;
#X obj 602 189 sel;
#X msg 629 66 360;
#X msg 658 71 -360;
#X obj 476 481 rectangle 0.04 0.02;
#X msg 403 553 0.02;
#X obj 443 582 * 2;
#X obj 1434 299 * 2;
#X obj 1851 211 + 4;
#X obj 1547 639 * 2;
#X obj 406 153 + 180;
#X obj 858 1298 rectangle 0.012 0.2;
#X obj 1395 1198 * 0.5;
#X msg 1033 1067 0;
#X obj 987 379 * 1;
#X obj 939 281 * 1;
#X msg 1027 1250 0.1;
#X msg 1329 1288 0.1;
#X obj 1370 776 * 0.0003;
#X obj 1173 1308 rectangle 0.02 0.1;
#X obj 443 270 rotate 45 0 0 1;
#X obj 229 263 rotate 45 0 0 1;
#X obj 445 30 gemhead 13;
#X obj 454 178 * 360;
#X obj 204 154 + 180;
#X msg 468 8 - 0.8;
#X msg 309 2 -0.4;
#X obj 729 162 + 1;
#X obj 720 266 * 1;
#X msg 1023 1033 0;
#X obj 247 173 * 360;
#X obj 236 472 rectangle 0.01 0.04;
#X obj 1803 80 r ITBng;
#X obj 560 130 r ITAng;
#X msg 1082 676 1;
#X obj 733 371 - 1;
#X obj 734 392 * -1;
#X obj 777 382 spigot-toggle_red;
#X floatatom 777 359 9 0 0 0 - - -;
#X obj 775 335 r trgrB;
#X connect 2 0 3 0;
#X connect 3 0 2 0;
#X connect 6 0 325 1;
#X connect 7 0 325 2;
#X connect 8 0 9 1;
#X connect 9 0 22 0;
#X connect 10 0 12 1;
#X connect 11 0 12 2;
#X connect 12 0 325 0;
#X connect 13 0 6 0;
#X connect 14 0 16 0;
#X connect 15 0 13 0;
#X connect 16 0 17 0;
#X connect 16 0 20 0;
#X connect 17 0 16 1;
#X connect 19 0 91 0;
#X connect 20 0 39 0;
#X connect 21 0 335 2;
#X connect 22 0 335 0;
#X connect 23 0 335 1;
#X connect 26 0 324 1;
#X connect 27 0 324 2;
#X connect 28 0 324 2;
#X connect 29 0 308 0;
#X connect 30 0 32 0;
#X connect 31 0 36 0;
#X connect 32 0 33 0;
#X connect 32 0 35 0;
#X connect 33 0 32 1;
#X connect 34 0 31 1;
#X connect 35 0 40 0;
#X connect 36 0 26 0;
#X connect 37 0 331 0;
#X connect 38 0 48 0;
#X connect 39 0 334 0;
#X connect 40 0 327 0;
#X connect 41 0 308 1;
#X connect 42 0 308 2;
#X connect 43 0 14 0;
#X connect 44 0 51 0;
#X connect 45 0 47 3;
#X connect 46 0 47 1;
#X connect 47 0 29 0;
#X connect 48 0 102 0;
#X connect 48 0 78 0;
#X connect 48 0 95 0;
#X connect 48 0 94 0;
#X connect 48 0 101 0;
#X connect 48 0 97 0;
#X connect 48 0 309 0;
#X connect 48 0 190 0;
#X connect 49 0 77 0;
#X connect 50 0 175 0;
#X connect 51 0 65 1;
#X connect 52 0 41 0;
#X connect 53 0 23 0;
#X connect 53 0 310 0;
#X connect 54 0 61 0;
#X connect 54 0 55 0;
#X connect 55 0 58 0;
#X connect 56 0 46 0;
#X connect 56 0 8 0;
#X connect 57 0 131 0;
#X connect 58 0 61 0;
#X connect 58 1 61 1;
#X connect 59 0 160 0;
#X connect 60 0 63 0;
#X connect 61 0 62 0;
#X connect 62 0 183 0;
#X connect 63 0 67 1;
#X connect 63 0 338 0;
#X connect 63 0 87 1;
#X connect 64 0 54 0;
#X connect 65 0 112 0;
#X connect 66 0 75 0;
#X connect 67 0 167 1;
#X connect 67 0 59 0;
#X connect 68 0 70 0;
#X connect 68 0 138 0;
#X connect 69 0 68 0;
#X connect 70 0 67 0;
#X connect 71 0 67 0;
#X connect 72 0 71 0;
#X connect 72 0 133 0;
#X connect 73 0 72 0;
#X connect 74 0 87 0;
#X connect 75 0 77 0;
#X connect 75 1 77 1;
#X connect 76 0 87 0;
#X connect 77 0 88 0;
#X connect 78 0 29 1;
#X connect 79 0 83 0;
#X connect 80 0 81 0;
#X connect 80 0 113 0;
#X connect 81 0 76 1;
#X connect 81 0 70 1;
#X connect 81 0 131 1;
#X connect 81 0 144 1;
#X connect 81 0 132 1;
#X connect 81 0 128 0;
#X connect 81 0 139 0;
#X connect 81 0 339 0;
#X connect 82 0 83 0;
#X connect 82 0 113 0;
#X connect 83 0 74 1;
#X connect 83 0 71 1;
#X connect 83 0 137 0;
#X connect 83 0 142 0;
#X connect 83 0 146 1;
#X connect 83 0 147 1;
#X connect 83 0 141 1;
#X connect 84 0 83 0;
#X connect 84 0 113 0;
#X connect 85 0 81 0;
#X connect 85 0 113 0;
#X connect 86 0 81 0;
#X connect 87 0 50 1;
#X connect 88 0 322 0;
#X connect 89 0 9 3;
#X connect 90 0 189 0;
#X connect 91 0 15 1;
#X connect 92 0 325 2;
#X connect 93 0 332 0;
#X connect 94 0 325 2;
#X connect 95 0 324 2;
#X connect 96 0 325 2;
#X connect 97 0 52 0;
#X connect 98 0 56 0;
#X connect 99 0 100 0;
#X connect 100 0 127 0;
#X connect 100 0 330 0;
#X connect 100 0 329 0;
#X connect 100 0 110 0;
#X connect 101 0 103 0;
#X connect 102 0 98 0;
#X connect 103 0 89 0;
#X connect 103 0 45 0;
#X connect 104 0 324 0;
#X connect 105 0 104 1;
#X connect 106 0 108 0;
#X connect 107 0 12 3;
#X connect 108 0 107 0;
#X connect 110 0 11 0;
#X connect 111 0 76 0;
#X connect 112 0 62 0;
#X connect 113 0 112 1;
#X connect 114 0 115 0;
#X connect 115 0 70 1;
#X connect 117 0 66 0;
#X connect 117 0 145 0;
#X connect 118 0 66 0;
#X connect 118 0 145 0;
#X connect 119 0 76 0;
#X connect 120 0 74 0;
#X connect 120 0 126 0;
#X connect 121 0 74 0;
#X connect 123 0 124 0;
#X connect 124 0 123 0;
#X connect 127 0 106 0;
#X connect 128 0 129 0;
#X connect 129 0 130 0;
#X connect 130 0 279 0;
#X connect 131 0 64 0;
#X connect 132 0 146 0;
#X connect 133 0 138 0;
#X connect 133 1 138 1;
#X connect 134 0 135 0;
#X connect 134 0 71 1;
#X connect 134 0 147 1;
#X connect 135 0 136 0;
#X connect 136 0 70 1;
#X connect 137 0 133 0;
#X connect 138 0 132 0;
#X connect 139 0 140 0;
#X connect 140 0 141 0;
#X connect 141 0 71 1;
#X connect 141 0 147 1;
#X connect 142 0 143 0;
#X connect 143 0 144 0;
#X connect 144 0 70 1;
#X connect 145 0 147 0;
#X connect 146 0 134 0;
#X connect 147 0 65 0;
#X connect 149 0 153 1;
#X connect 150 0 153 2;
#X connect 151 0 153 2;
#X connect 152 0 315 2;
#X connect 152 0 319 0;
#X connect 153 0 272 0;
#X connect 154 0 153 2;
#X connect 155 0 153 0;
#X connect 156 0 155 1;
#X connect 157 0 155 2;
#X connect 158 0 155 3;
#X connect 159 0 184 0;
#X connect 160 0 49 0;
#X connect 161 0 293 0;
#X connect 162 0 323 0;
#X connect 163 0 323 1;
#X connect 164 0 323 2;
#X connect 165 0 274 1;
#X connect 166 0 182 0;
#X connect 167 0 168 0;
#X connect 168 0 166 0;
#X connect 169 0 161 3;
#X connect 170 0 173 1;
#X connect 171 0 173 2;
#X connect 172 0 173 2;
#X connect 173 0 273 0;
#X connect 174 0 173 2;
#X connect 175 0 173 0;
#X connect 176 0 175 1;
#X connect 177 0 175 2;
#X connect 178 0 175 3;
#X connect 179 0 185 0;
#X connect 180 0 274 0;
#X connect 181 0 180 3;
#X connect 182 0 180 1;
#X connect 183 0 168 0;
#X connect 184 0 149 0;
#X connect 185 0 170 0;
#X connect 186 0 50 0;
#X connect 187 0 287 0;
#X connect 187 0 155 0;
#X connect 188 0 333 0;
#X connect 188 0 317 0;
#X connect 188 0 191 0;
#X connect 188 0 320 0;
#X connect 189 0 41 0;
#X connect 189 0 46 0;
#X connect 189 0 93 0;
#X connect 189 0 301 0;
#X connect 190 0 22 1;
#X connect 191 0 169 0;
#X connect 191 0 181 0;
#X connect 194 0 257 1;
#X connect 195 0 257 2;
#X connect 196 0 197 1;
#X connect 197 0 208 0;
#X connect 198 0 200 1;
#X connect 198 0 249 0;
#X connect 199 0 200 2;
#X connect 199 0 248 2;
#X connect 200 0 257 0;
#X connect 201 0 194 0;
#X connect 202 0 204 0;
#X connect 203 0 201 0;
#X connect 204 0 205 0;
#X connect 204 0 206 0;
#X connect 205 0 204 1;
#X connect 206 0 223 0;
#X connect 207 0 237 2;
#X connect 208 0 237 0;
#X connect 209 0 237 1;
#X connect 212 0 258 1;
#X connect 213 0 258 2;
#X connect 214 0 258 2;
#X connect 215 0 265 0;
#X connect 216 0 218 0;
#X connect 217 0 221 0;
#X connect 218 0 219 0;
#X connect 218 0 220 0;
#X connect 219 0 218 1;
#X connect 220 0 224 0;
#X connect 221 0 212 0;
#X connect 222 0 229 0;
#X connect 223 0 296 0;
#X connect 224 0 295 0;
#X connect 225 0 265 1;
#X connect 225 0 318 0;
#X connect 226 0 228 3;
#X connect 227 0 228 1;
#X connect 228 0 215 0;
#X connect 229 0 246 0;
#X connect 229 0 268 0;
#X connect 229 0 267 0;
#X connect 229 0 284 0;
#X connect 229 0 245 0;
#X connect 229 0 241 0;
#X connect 229 0 266 0;
#X connect 229 0 269 0;
#X connect 229 0 286 0;
#X connect 230 0 209 0;
#X connect 230 0 225 0;
#X connect 231 0 207 0;
#X connect 232 0 227 0;
#X connect 232 0 196 0;
#X connect 233 0 248 0;
#X connect 234 0 197 3;
#X connect 235 0 259 0;
#X connect 236 0 203 1;
#X connect 238 0 257 2;
#X connect 239 0 311 0;
#X connect 240 0 257 2;
#X connect 241 0 230 0;
#X connect 242 0 232 0;
#X connect 244 0 256 0;
#X connect 244 0 254 0;
#X connect 244 0 255 0;
#X connect 244 0 253 0;
#X connect 245 0 247 0;
#X connect 246 0 242 0;
#X connect 247 0 234 0;
#X connect 247 0 226 0;
#X connect 248 0 258 0;
#X connect 249 0 248 1;
#X connect 250 0 248 3;
#X connect 250 0 252 0;
#X connect 251 0 200 3;
#X connect 252 0 251 0;
#X connect 253 0 199 0;
#X connect 254 0 198 0;
#X connect 255 0 249 0;
#X connect 256 0 250 0;
#X connect 257 0 197 0;
#X connect 258 0 228 0;
#X connect 259 0 225 0;
#X connect 259 0 227 0;
#X connect 259 0 239 0;
#X connect 260 0 202 0;
#X connect 261 0 236 0;
#X connect 262 0 200 0;
#X connect 263 0 217 1;
#X connect 264 0 312 0;
#X connect 266 0 231 0;
#X connect 267 0 258 2;
#X connect 268 0 215 1;
#X connect 269 0 208 1;
#X connect 270 0 276 0;
#X connect 271 0 299 0;
#X connect 272 0 161 0;
#X connect 273 0 180 0;
#X connect 274 0 162 0;
#X connect 275 0 277 0;
#X connect 276 0 271 0;
#X connect 277 0 271 0;
#X connect 278 0 279 0;
#X connect 278 1 279 1;
#X connect 279 0 276 1;
#X connect 279 0 282 0;
#X connect 280 0 279 0;
#X connect 281 0 278 0;
#X connect 282 0 283 0;
#X connect 283 0 277 1;
#X connect 284 0 257 2;
#X connect 285 0 209 0;
#X connect 285 0 313 0;
#X connect 286 0 285 0;
#X connect 287 0 155 0;
#X connect 288 0 12 0;
#X connect 289 0 104 3;
#X connect 290 0 248 3;
#X connect 291 0 321 0;
#X connect 292 0 162 1;
#X connect 293 0 315 0;
#X connect 294 0 293 1;
#X connect 295 0 217 0;
#X connect 296 0 203 0;
#X connect 297 0 298 1;
#X connect 298 0 9 0;
#X connect 299 0 272 2;
#X connect 299 0 273 2;
#X connect 300 0 275 0;
#X connect 301 0 270 0;
#X connect 302 0 301 0;
#X connect 302 1 301 1;
#X connect 303 0 300 0;
#X connect 303 1 300 1;
#X connect 304 0 305 0;
#X connect 305 0 306 0;
#X connect 305 1 307 0;
#X connect 306 0 327 1;
#X connect 306 0 334 1;
#X connect 307 0 327 1;
#X connect 307 0 334 1;
#X connect 309 0 53 0;
#X connect 311 0 196 0;
#X connect 312 0 235 0;
#X connect 314 0 31 0;
#X connect 316 0 163 0;
#X connect 316 0 165 0;
#X connect 317 0 158 0;
#X connect 317 0 178 0;
#X connect 318 0 300 0;
#X connect 319 0 302 0;
#X connect 319 0 303 0;
#X connect 320 0 152 0;
#X connect 320 0 294 0;
#X connect 320 0 292 0;
#X connect 321 0 164 0;
#X connect 322 0 167 0;
#X connect 322 0 316 0;
#X connect 324 0 47 0;
#X connect 325 0 298 0;
#X connect 326 0 104 0;
#X connect 327 0 314 0;
#X connect 328 0 15 0;
#X connect 329 0 105 0;
#X connect 330 0 10 0;
#X connect 331 0 90 0;
#X connect 332 0 8 0;
#X connect 333 0 156 0;
#X connect 333 0 176 0;
#X connect 334 0 328 0;
#X connect 336 0 216 0;
#X connect 337 0 30 0;
#X connect 338 0 131 1;
#X connect 339 0 340 0;
#X connect 340 0 341 1;
#X connect 341 0 74 0;
#X connect 342 0 341 0;
#X connect 343 0 342 0;
