#N canvas 710 176 970 852 10;
#X obj -482 935 pack 0 0;
#X obj -482 956 line;
#X floatatom -483 977 5 0 0 0 - - -;
#X floatatom -249 499 5 0 0 0 - - -;
#X obj -487 1106 outlet;
#X obj -606 -38 inlet~;
#X obj -258 325 inlet;
#X obj -323 178 inlet;
#X obj -764 679 f;
#X obj -732 677 + 1;
#X floatatom -763 721 0 0 0 0 - - -;
#X floatatom -632 321 0 0 0 0 >_<_back_n_forth - -;
#X obj -628 294 inlet;
#X floatatom -256 579 5 0 0 0 25_norm - -;
#X obj -259 530 r lo;
#X floatatom -764 819 5 0 0 0 - - -;
#X obj -764 767 bng 15 250 50 0 empty empty empty 17 7 0 10 -262144
-1 -1;
#X obj -763 744 sel 0 1;
#X floatatom -490 882 5 0 0 0 - - -;
#X obj -542 208 bng 15 250 50 0 empty empty empty 17 7 0 10 -262144
-1 -1;
#X floatatom -317 206 5 0 0 0 - - -;
#X floatatom -483 1077 5 0 0 0 - - -;
#X floatatom -765 903 5 0 0 0 - - -;
#X floatatom -715 819 5 0 0 0 - - -;
#X obj -715 767 bng 15 250 50 0 empty empty empty 17 7 0 10 -262144
-1 -1;
#X floatatom -716 903 5 0 0 0 - - -;
#X msg -255 551 25;
#X floatatom -158 578 5 0 0 0 25_norm - -;
#X obj -161 529 r lo;
#X msg -157 550 25;
#X obj -422 840 inlet;
#X obj -764 679 f;
#X obj -732 677 + 1;
#X obj -763 700 mod 2;
#X obj -762 574 f;
#X obj -730 572 + 1;
#X floatatom -763 617 0 0 0 0 - - -;
#X obj -761 595 mod 2;
#X obj -765 640 sel;
#X obj -41 442 inlet;
#X floatatom -141 495 5 0 0 0 - - -;
#X floatatom -702 613 5 0 0 0 - - -;
#X floatatom -423 860 5 0 0 0 - - -;
#X obj -465 316 spigot-toggle_jaune;
#X obj -456 279 inlet;
#X obj -763 700 mod 2;
#X obj -793 660 spigot-toggle_jaune;
#X obj -547 633 bng 15 250 50 0 empty empty empty 17 7 0 10 -262144
-1 -1;
#X msg -763 790 25;
#X msg -715 789 75;
#X obj -518 657 s bonkAA;
#X obj -468 215 outlet;
#X floatatom -79 348 5 0 0 0 - - -;
#X obj -78 277 f;
#X obj -46 275 + 1;
#X floatatom -79 320 0 0 0 0 - - -;
#X obj -77 298 mod 2;
#X obj -74 237 bng 15 250 50 0 empty empty empty 17 7 0 10 -262144
-1 -1;
#X obj -79 373 tabread array4;
#X floatatom -25 642 5 0 0 0 - - -;
#X floatatom 83 638 5 0 0 0 - - -;
#X floatatom 76 551 5 0 0 0 - - -;
#X obj 74 505 * 1;
#X obj 80 581 - 50;
#X floatatom -473 1041 0 0 0 0 - - -;
#X obj -472 1017 * 100;
#X obj -764 880 * 0.01;
#X obj -716 880 * 0.01;
#X obj -608 -18 bonk~;
#X obj -562 19 bng 15 250 50 0 empty empty empty 17 7 0 10 -262144
-1 -1;
#X floatatom -614 14 0 0 0 0 - - -;
#X obj 102 103 cnv 15 88 114 empty empty b' 3 82 0 32 -260097 -1 0
;
#N canvas 0 0 450 300 (subpatch) 0;
#X array array4 24 float 3;
#A 0 0.808695 0.965217 0.826087 0.843478 0.808696 0.46087 0.408696
0.356522 0.252175 0.217393 0.00869823 -0.165214 -0.460864 -0.356517
-0.234779 -0.0608666 0.165219 0.304349 0.373914 -0.095649 -0.11304
-0.130431 -0.130431 -0.095649;
#X coords 0 1 24 -1 90 115 1 0 0;
#X restore 101 101 graph;
#X obj 321 155 pack f f;
#X text 409 147 Uses creation arguments to simplify creating parameters
for sliders.;
#X floatatom 322 108 5 0 0 0 - - -;
#X floatatom 314 360 5 0 0 0 - - -;
#X msg 314 382 \; array3 resize \$1;
#X obj 104 210 hsl 85 8 0 8 0 0 empty empty empty -2 -8 0 10 -260097
-1 -1 0 1;
#X msg 321 190 range \$2 \$1;
#X obj 321 130 init \$2 \$1;
#X obj 104 101 hsl 85 8 0 8 0 0 empty empty empty -2 -8 0 10 -260097
-1 -1 0 1;
#X obj 104 202 hsl 85 16 0 24 0 0 empty empty empty -2 -8 0 10 -260097
-1 -1 0 1;
#X floatatom 100 202 15 0 0 0 - - -;
#X obj 102 158 cnv 1 88 1 empty empty empty 2 12 0 14 -1 -66577 0;
#X connect 0 0 1 0;
#X connect 1 0 2 0;
#X connect 2 0 65 0;
#X connect 3 0 13 0;
#X connect 5 0 68 0;
#X connect 6 0 41 0;
#X connect 7 0 20 0;
#X connect 8 0 9 0;
#X connect 8 0 45 0;
#X connect 9 0 8 1;
#X connect 10 0 17 0;
#X connect 11 0 46 1;
#X connect 12 0 11 0;
#X connect 13 0 15 0;
#X connect 14 0 26 0;
#X connect 15 0 66 0;
#X connect 16 0 48 0;
#X connect 17 0 16 0;
#X connect 17 1 24 0;
#X connect 18 0 0 0;
#X connect 19 0 51 0;
#X connect 19 0 34 0;
#X connect 20 0 56 1;
#X connect 20 0 76 0;
#X connect 21 0 4 0;
#X connect 22 0 0 0;
#X connect 23 0 67 0;
#X connect 24 0 49 0;
#X connect 25 0 0 0;
#X connect 26 0 13 0;
#X connect 27 0 23 0;
#X connect 28 0 29 0;
#X connect 29 0 27 0;
#X connect 30 0 42 0;
#X connect 31 0 32 0;
#X connect 31 0 33 0;
#X connect 32 0 31 1;
#X connect 34 0 35 0;
#X connect 34 0 37 0;
#X connect 35 0 34 1;
#X connect 36 0 38 0;
#X connect 37 0 36 0;
#X connect 38 0 47 0;
#X connect 38 0 46 0;
#X connect 38 0 43 0;
#X connect 39 0 62 0;
#X connect 40 0 27 0;
#X connect 41 0 37 1;
#X connect 42 0 0 1;
#X connect 43 0 57 0;
#X connect 44 0 43 1;
#X connect 45 0 10 0;
#X connect 46 0 8 0;
#X connect 47 0 50 0;
#X connect 48 0 15 0;
#X connect 49 0 23 0;
#X connect 52 0 58 0;
#X connect 52 0 78 0;
#X connect 52 0 81 0;
#X connect 53 0 54 0;
#X connect 53 0 56 0;
#X connect 54 0 53 1;
#X connect 55 0 52 0;
#X connect 56 0 55 0;
#X connect 57 0 53 0;
#X connect 58 0 18 0;
#X connect 59 0 3 0;
#X connect 60 0 40 0;
#X connect 61 0 59 0;
#X connect 61 0 63 0;
#X connect 62 0 61 0;
#X connect 63 0 60 0;
#X connect 64 0 21 0;
#X connect 64 0 83 0;
#X connect 65 0 64 0;
#X connect 66 0 22 0;
#X connect 67 0 25 0;
#X connect 68 0 70 0;
#X connect 68 1 69 0;
#X connect 69 0 19 0;
#X connect 73 0 79 0;
#X connect 75 0 80 0;
#X connect 76 0 77 0;
#X connect 76 0 75 0;
#X connect 79 0 78 0;
#X connect 79 0 81 0;
#X connect 80 0 73 0;
#X coords 0 -1 1 1 92 118 1 100 100;
