#N canvas 669 144 970 852 10;
#X obj -481 935 pack 0 0;
#X obj -481 956 line;
#X floatatom -482 977 5 0 0 0 - - -;
#X floatatom -248 499 5 0 0 0 - - -;
#X obj -486 1106 outlet;
#X obj -605 -38 inlet~;
#X obj -257 325 inlet;
#X obj -322 178 inlet;
#X obj -763 679 f;
#X obj -731 677 + 1;
#X floatatom -762 721 0 0 0 0 - - -;
#X floatatom -631 321 0 0 0 0 >_<_back_n_forth - -;
#X obj -627 294 inlet;
#X floatatom -255 579 5 0 0 0 25_norm - -;
#X obj -258 530 r lo;
#X floatatom -763 819 5 0 0 0 - - -;
#X obj -763 767 bng 15 250 50 0 empty empty empty 17 7 0 10 -262144
-1 -1;
#X obj -762 744 sel 0 1;
#X floatatom -489 882 5 0 0 0 - - -;
#X obj -541 208 bng 15 250 50 0 empty empty empty 17 7 0 10 -262144
-1 -1;
#X floatatom -316 206 5 0 0 0 - - -;
#X floatatom -482 1077 5 0 0 0 - - -;
#X floatatom -764 903 5 0 0 0 - - -;
#X floatatom -714 819 5 0 0 0 - - -;
#X obj -714 767 bng 15 250 50 0 empty empty empty 17 7 0 10 -262144
-1 -1;
#X floatatom -715 903 5 0 0 0 - - -;
#X msg -254 551 25;
#X floatatom -157 578 5 0 0 0 25_norm - -;
#X obj -160 529 r lo;
#X msg -156 550 25;
#X obj -421 840 inlet;
#X obj -763 679 f;
#X obj -731 677 + 1;
#X obj -762 700 mod 2;
#X obj -761 574 f;
#X obj -729 572 + 1;
#X floatatom -762 617 0 0 0 0 - - -;
#X obj -760 595 mod 2;
#X obj -764 640 sel;
#X obj -40 442 inlet;
#X floatatom -140 495 5 0 0 0 - - -;
#X floatatom -701 613 5 0 0 0 - - -;
#X floatatom -422 860 5 0 0 0 - - -;
#X obj -464 316 spigot-toggle_jaune;
#X obj -455 279 inlet;
#X obj -762 700 mod 2;
#X obj -792 660 spigot-toggle_jaune;
#X obj -546 633 bng 15 250 50 0 empty empty empty 17 7 0 10 -262144
-1 -1;
#X msg -762 790 25;
#X msg -714 789 75;
#X obj -517 657 s bonkAA;
#X obj -467 215 outlet;
#X floatatom -78 348 5 0 0 0 - - -;
#X obj -77 277 f;
#X obj -45 275 + 1;
#X floatatom -78 320 0 0 0 0 - - -;
#X obj -76 298 mod 2;
#X obj -73 237 bng 15 250 50 0 empty empty empty 17 7 0 10 -262144
-1 -1;
#X obj -78 373 tabread array4;
#X floatatom -24 642 5 0 0 0 - - -;
#X floatatom 84 638 5 0 0 0 - - -;
#X floatatom 77 551 5 0 0 0 - - -;
#X obj 75 505 * 1;
#X obj 81 581 - 50;
#X floatatom -472 1041 0 0 0 0 - - -;
#X obj -471 1017 * 100;
#X obj -763 880 * 0.01;
#X obj -715 880 * 0.01;
#X obj -607 -18 bonk~;
#X obj -561 19 bng 15 250 50 0 empty empty empty 17 7 0 10 -262144
-1 -1;
#X floatatom -613 14 0 0 0 0 - - -;
#X obj 322 155 pack f f;
#X text 410 147 Uses creation arguments to simplify creating parameters
for sliders.;
#X floatatom 323 108 5 0 0 0 - - -;
#X floatatom 315 360 5 0 0 0 - - -;
#X msg 322 190 range \$2 \$1;
#X obj 322 130 init \$2 \$1;
#X obj 191 514 hsl 85 8 0 18 0 0 empty empty empty -2 -8 0 10 -260097
-1 -1 4200 1;
#X obj 101 102 cnv 15 90 165 empty audioanacanva2 empty 3 122 0 32
-241291 -1 0;
#X obj 740 413 pack f f;
#X text 828 405 Uses creation arguments to simplify creating parameters
for sliders.;
#X floatatom 741 366 5 0 0 0 - - -;
#X floatatom 730 605 5 0 0 0 - - -;
#X msg 740 448 range \$2 \$1;
#X obj 740 388 init \$2 \$1;
#X obj 777 828 vsl 15 128 250 0 0 1 empty empty empty 0 -9 0 10 -262144
-1 -1 7500 1;
#X obj 809 825 hsl 128 15 0 250 0 1 empty empty empty -2 -8 0 10 -262144
-1 -1 7417 1;
#N canvas 756 150 450 300 position 0;
#X obj -129 28 inlet x;
#X obj 29 30 inlet y;
#X obj -51 126 f;
#X msg -73 105 bang;
#X floatatom -35 104 3 20 60 0 - - -;
#X floatatom 0 126 3 150 200 0 - - -;
#X obj -51 149 pack 0 0;
#X text -7 104 x-position;
#X text 27 126 y-position;
#X obj -99 61 t b f;
#X obj 31 65 t b f;
#X msg -51 174 \; silence2_r pos \$1 \$2;
#X connect 0 0 9 0;
#X connect 1 0 10 0;
#X connect 2 0 6 0;
#X connect 3 0 2 0;
#X connect 4 0 2 1;
#X connect 5 0 6 1;
#X connect 6 0 11 0;
#X connect 9 0 3 0;
#X connect 9 1 4 0;
#X connect 10 0 3 0;
#X connect 10 1 5 0;
#X restore 808 857 pd position;
#X obj 977 828 vsl 15 128 0 127 0 1 empty empty empty 0 -9 0 10 -262144
-1 -1 12700 1;
#X obj 1009 825 hsl 128 15 0 127 0 1 empty empty empty -2 -8 0 10 -262144
-1 -1 511 1;
#N canvas 197 138 450 300 size 0;
#X obj 187 29 inlet width;
#X obj 61 28 inlet height;
#X obj 97 104 f;
#X msg 75 83 bang;
#X floatatom 113 82 3 -10 10 0 - - -;
#X floatatom 148 104 3 -10 10 0 - - -;
#X obj 97 127 pack 0 0;
#X text 141 82 x-delta;
#X text 175 104 y-delta;
#X obj 81 51 t b f;
#X obj 161 51 t b f;
#X msg 97 152 \; silence2_r vis_size \$1 \$2;
#X connect 0 0 10 0;
#X connect 1 0 9 0;
#X connect 2 0 6 0;
#X connect 3 0 2 0;
#X connect 4 0 2 1;
#X connect 5 0 6 1;
#X connect 6 0 11 0;
#X connect 9 0 3 0;
#X connect 9 1 4 0;
#X connect 10 0 3 0;
#X connect 10 1 5 0;
#X restore 1006 854 pd size;
#N canvas 993 436 450 300 init 0;
#X obj 68 34 lbang;
#X msg 68 73 \; silence1_r color 13;
#X connect 0 0 1 0;
#X restore 1058 932 pd init;
#X obj 1007 656 t b f;
#X obj 1003 756 t b f;
#X floatatom 1003 732 5 0 0 0 - - -;
#X floatatom 1009 630 5 0 0 0 - - -;
#X obj 973 657 bng 15 250 50 0 empty empty empty 17 7 0 10 -262144
-1 -1;
#X obj 1006 782 + 0;
#X floatatom 756 796 5 0 0 0 - - -;
#X floatatom 736 848 5 0 0 0 - - -;
#X floatatom 927 950 5 0 0 0 - - -;
#X obj 817 763 *;
#X obj 812 802 + 100;
#X floatatom 812 783 5 0 0 0 - - -;
#X floatatom 725 968 5 0 0 0 - - -;
#X obj 102 185 cnv 1 90 1 empty empty empty 2 12 0 14 -259521 -66577
0;
#X obj 911 905 r lo;
#X msg 915 926 148;
#X floatatom 1054 855 5 0 0 0 - - -;
#X floatatom 1053 791 5 0 0 0 - - -;
#X obj 1007 677 / 92;
#X msg 973 674 92;
#X msg 733 640 \; array4 resize \$1;
#X floatatom 100 252 15 0 0 0 - - -;
#X msg 315 382 \; array4 resize \$1;
#X obj 146 102 cnv 4 5 148 silence2_s silence2_r empty 3 82 0 32 -259841
-1 0;
#N canvas 0 0 450 300 (subpatch) 0;
#X array array4 18 float 3;
#A 0 -0.296969 0.212121 0.0909085 -0.00606108 -0.151515 -0.224243 -0.29697
-0.284849 -0.357576 -0.333333 -0.236364 0.115151 0.175757 0.224242
0.272727 -0.248485 -0.272727 -0.151515;
#X coords 0 1 18 -1 90 165 1 0 0;
#X restore 101 101 graph;
#X msg -393 1101 color \$1 33;
#X obj -396 1127 s audioanacanva2;
#X obj -390 1074 spigot-toggle_jaune;
#X floatatom -360 1051 5 0 0 0 - - -;
#X obj -359 1006 r lo;
#X msg -359 1028 20;
#X connect 0 0 1 0;
#X connect 1 0 2 0;
#X connect 2 0 65 0;
#X connect 3 0 13 0;
#X connect 5 0 68 0;
#X connect 6 0 41 0;
#X connect 7 0 20 0;
#X connect 8 0 9 0;
#X connect 8 0 45 0;
#X connect 9 0 8 1;
#X connect 10 0 17 0;
#X connect 11 0 46 1;
#X connect 11 0 119 1;
#X connect 11 0 122 0;
#X connect 12 0 11 0;
#X connect 13 0 15 0;
#X connect 14 0 26 0;
#X connect 15 0 66 0;
#X connect 16 0 48 0;
#X connect 17 0 16 0;
#X connect 17 1 24 0;
#X connect 18 0 0 0;
#X connect 19 0 51 0;
#X connect 19 0 34 0;
#X connect 20 0 56 1;
#X connect 20 0 74 0;
#X connect 20 0 82 0;
#X connect 20 0 95 0;
#X connect 21 0 4 0;
#X connect 21 0 119 0;
#X connect 22 0 0 0;
#X connect 23 0 67 0;
#X connect 24 0 49 0;
#X connect 25 0 0 0;
#X connect 26 0 13 0;
#X connect 27 0 23 0;
#X connect 28 0 29 0;
#X connect 29 0 27 0;
#X connect 30 0 42 0;
#X connect 31 0 32 0;
#X connect 31 0 33 0;
#X connect 32 0 31 1;
#X connect 34 0 35 0;
#X connect 34 0 37 0;
#X connect 35 0 34 1;
#X connect 36 0 38 0;
#X connect 37 0 36 0;
#X connect 38 0 47 0;
#X connect 38 0 46 0;
#X connect 38 0 43 0;
#X connect 39 0 57 0;
#X connect 40 0 27 0;
#X connect 41 0 37 1;
#X connect 42 0 0 1;
#X connect 43 0 57 0;
#X connect 44 0 43 1;
#X connect 45 0 10 0;
#X connect 46 0 8 0;
#X connect 47 0 50 0;
#X connect 48 0 15 0;
#X connect 49 0 23 0;
#X connect 52 0 58 0;
#X connect 52 0 77 0;
#X connect 53 0 54 0;
#X connect 53 0 56 0;
#X connect 54 0 53 1;
#X connect 55 0 52 0;
#X connect 56 0 55 0;
#X connect 57 0 53 0;
#X connect 58 0 18 0;
#X connect 59 0 3 0;
#X connect 60 0 40 0;
#X connect 61 0 59 0;
#X connect 61 0 63 0;
#X connect 62 0 61 0;
#X connect 63 0 60 0;
#X connect 64 0 21 0;
#X connect 64 0 113 0;
#X connect 65 0 64 0;
#X connect 66 0 22 0;
#X connect 67 0 25 0;
#X connect 68 0 70 0;
#X connect 68 1 69 0;
#X connect 69 0 19 0;
#X connect 71 0 75 0;
#X connect 73 0 76 0;
#X connect 74 0 114 0;
#X connect 74 0 73 0;
#X connect 75 0 77 0;
#X connect 76 0 71 0;
#X connect 77 0 101 0;
#X connect 79 0 83 0;
#X connect 81 0 84 0;
#X connect 82 0 112 0;
#X connect 82 0 81 0;
#X connect 84 0 79 0;
#X connect 85 0 104 0;
#X connect 86 0 87 0;
#X connect 86 0 98 0;
#X connect 88 0 90 1;
#X connect 89 0 90 0;
#X connect 89 0 100 0;
#X connect 89 0 108 0;
#X connect 92 0 110 0;
#X connect 92 1 110 1;
#X connect 93 0 97 0;
#X connect 93 1 97 1;
#X connect 94 0 93 0;
#X connect 95 0 96 0;
#X connect 95 0 92 0;
#X connect 96 0 111 0;
#X connect 97 0 101 1;
#X connect 97 0 109 0;
#X connect 101 0 103 0;
#X connect 102 0 86 0;
#X connect 103 0 102 0;
#X connect 104 0 87 1;
#X connect 106 0 107 0;
#X connect 107 0 88 0;
#X connect 109 0 89 0;
#X connect 110 0 97 0;
#X connect 111 0 110 0;
#X connect 117 0 118 0;
#X connect 119 0 117 0;
#X connect 120 0 117 0;
#X connect 121 0 122 0;
#X connect 122 0 120 0;
#X coords 0 -1 1 1 92 167 1 100 100;
