#N canvas 200 176 970 852 10;
#X obj -386 930 pack 0 0;
#X obj -386 951 line;
#X floatatom -387 972 5 0 0 0 - - -;
#X floatatom -153 494 5 0 0 0 - - -;
#X obj -391 1101 outlet;
#X obj -510 -43 inlet~;
#X obj -162 320 inlet;
#X obj -227 173 inlet;
#X obj -668 674 f;
#X obj -636 672 + 1;
#X floatatom -667 716 0 0 0 0 - - -;
#X floatatom -536 316 0 0 0 0 >_<_back_n_forth - -;
#X obj -532 289 inlet;
#X floatatom -160 574 5 0 0 0 25_norm - -;
#X obj -163 525 r lo;
#X floatatom -668 814 5 0 0 0 - - -;
#X obj -668 762 bng 15 250 50 0 empty empty empty 17 7 0 10 -262144
-1 -1;
#X obj -667 739 sel 0 1;
#X floatatom -394 877 5 0 0 0 - - -;
#X obj -446 203 bng 15 250 50 0 empty empty empty 17 7 0 10 -262144
-1 -1;
#X floatatom -221 201 5 0 0 0 - - -;
#X floatatom -387 1072 5 0 0 0 - - -;
#X floatatom -669 898 5 0 0 0 - - -;
#X floatatom -619 814 5 0 0 0 - - -;
#X obj -619 762 bng 15 250 50 0 empty empty empty 17 7 0 10 -262144
-1 -1;
#X floatatom -620 898 5 0 0 0 - - -;
#X msg -159 546 25;
#X floatatom -62 573 5 0 0 0 25_norm - -;
#X obj -65 524 r lo;
#X msg -61 545 25;
#X obj -326 835 inlet;
#X obj -668 674 f;
#X obj -636 672 + 1;
#X obj -667 695 mod 2;
#X obj -666 569 f;
#X obj -634 567 + 1;
#X floatatom -667 612 0 0 0 0 - - -;
#X obj -665 590 mod 2;
#X obj -669 635 sel;
#X obj 55 437 inlet;
#X floatatom -45 490 5 0 0 0 - - -;
#X floatatom -606 608 5 0 0 0 - - -;
#X floatatom -327 855 5 0 0 0 - - -;
#X obj -369 311 spigot-toggle_jaune;
#X obj -360 274 inlet;
#X obj -667 695 mod 2;
#X obj -697 655 spigot-toggle_jaune;
#X obj -451 628 bng 15 250 50 0 empty empty empty 17 7 0 10 -262144
-1 -1;
#X msg -667 785 25;
#X msg -619 784 75;
#X obj -422 652 s bonkAA;
#X obj -372 210 outlet;
#X floatatom 17 343 5 0 0 0 - - -;
#X obj 18 272 f;
#X obj 50 270 + 1;
#X floatatom 17 315 0 0 0 0 - - -;
#X obj 19 293 mod 2;
#X obj 22 232 bng 15 250 50 0 empty empty empty 17 7 0 10 -262144 -1
-1;
#X obj 17 368 tabread array4;
#X obj 103 103 cnv 15 98 116 empty empty empty 20 12 0 14 -260097 -66577
0;
#N canvas 0 0 450 300 (subpatch) 0;
#X array array4 10 float 3;
#A 0 0.627118 -0.542373 -0.338983 -0.118644 -0.118644 -0.220339 -0.033898
-0.24 0.254238 0.135594;
#X coords 0 1 10 -1 100 117 1 0 0;
#X restore 102 102 graph;
#X floatatom 71 637 5 0 0 0 - - -;
#X floatatom 179 633 5 0 0 0 - - -;
#X floatatom 172 546 5 0 0 0 - - -;
#X obj 170 500 * 1;
#X obj 176 576 - 50;
#X floatatom -377 1036 0 0 0 0 - - -;
#X obj -376 1012 * 100;
#X obj -668 875 * 0.01;
#X obj -620 875 * 0.01;
#X obj -512 -23 bonk~;
#X obj -466 14 bng 15 250 50 0 empty empty empty 17 7 0 10 -262144
-1 -1;
#X floatatom -518 9 0 0 0 0 - - -;
#X connect 0 0 1 0;
#X connect 1 0 2 0;
#X connect 2 0 67 0;
#X connect 3 0 13 0;
#X connect 5 0 70 0;
#X connect 6 0 41 0;
#X connect 7 0 20 0;
#X connect 8 0 9 0;
#X connect 8 0 45 0;
#X connect 9 0 8 1;
#X connect 10 0 17 0;
#X connect 11 0 46 1;
#X connect 12 0 11 0;
#X connect 13 0 15 0;
#X connect 14 0 26 0;
#X connect 15 0 68 0;
#X connect 16 0 48 0;
#X connect 17 0 16 0;
#X connect 17 1 24 0;
#X connect 18 0 0 0;
#X connect 19 0 51 0;
#X connect 19 0 34 0;
#X connect 20 0 56 1;
#X connect 21 0 4 0;
#X connect 22 0 0 0;
#X connect 23 0 69 0;
#X connect 24 0 49 0;
#X connect 25 0 0 0;
#X connect 26 0 13 0;
#X connect 27 0 23 0;
#X connect 28 0 29 0;
#X connect 29 0 27 0;
#X connect 30 0 42 0;
#X connect 31 0 32 0;
#X connect 31 0 33 0;
#X connect 32 0 31 1;
#X connect 34 0 35 0;
#X connect 34 0 37 0;
#X connect 35 0 34 1;
#X connect 36 0 38 0;
#X connect 37 0 36 0;
#X connect 38 0 47 0;
#X connect 38 0 46 0;
#X connect 38 0 43 0;
#X connect 39 0 64 0;
#X connect 40 0 27 0;
#X connect 41 0 37 1;
#X connect 42 0 0 1;
#X connect 43 0 57 0;
#X connect 44 0 43 1;
#X connect 45 0 10 0;
#X connect 46 0 8 0;
#X connect 47 0 50 0;
#X connect 48 0 15 0;
#X connect 49 0 23 0;
#X connect 52 0 58 0;
#X connect 53 0 54 0;
#X connect 53 0 56 0;
#X connect 54 0 53 1;
#X connect 55 0 52 0;
#X connect 56 0 55 0;
#X connect 57 0 53 0;
#X connect 58 0 18 0;
#X connect 61 0 3 0;
#X connect 62 0 40 0;
#X connect 63 0 61 0;
#X connect 63 0 65 0;
#X connect 64 0 63 0;
#X connect 65 0 62 0;
#X connect 66 0 21 0;
#X connect 67 0 66 0;
#X connect 68 0 22 0;
#X connect 69 0 25 0;
#X connect 70 0 72 0;
#X connect 70 1 71 0;
#X connect 71 0 19 0;
#X coords 0 -1 1 1 104 121 1 100 100;
