#N canvas 192 342 1303 978 10;
#X declare -lib timbreID/timbreIDLib;
#X obj -161 1192 pack 0 0;
#X obj -161 1213 line;
#X floatatom -162 1234 5 0 0 0 - - -;
#X floatatom 72 756 5 0 0 0 - - -;
#X obj -166 1363 outlet;
#X obj -535 426 inlet~;
#X obj -2 435 inlet;
#X obj -443 933 f;
#X obj -411 931 + 1;
#X floatatom -442 972 0 0 0 0 - - -;
#X floatatom -492 607 0 0 0 0 >_<_back_n_forth - -;
#X obj -307 551 inlet;
#X obj 171 588 inlet;
#X floatatom 65 836 5 0 0 0 25_norm - -;
#X obj 62 787 r lo;
#X floatatom -443 1076 5 0 0 0 - - -;
#X obj -443 1011 bng 15 250 50 0 empty empty empty 17 7 0 10 -262144
-1 -1;
#X obj -442 991 sel 0 1;
#X floatatom 0 459 5 0 0 0 - - -;
#X floatatom -163 1299 5 0 0 0 - - -;
#X floatatom -444 1160 5 0 0 0 - - -;
#X floatatom -394 1076 5 0 0 0 - - -;
#X obj -394 1011 bng 15 250 50 0 empty empty empty 17 7 0 10 -262144
-1 -1;
#X floatatom -395 1160 5 0 0 0 - - -;
#X msg 66 808 25;
#X floatatom 163 835 5 0 0 0 25_norm - -;
#X obj 160 786 r lo;
#X msg 164 807 25;
#X obj -101 1097 inlet;
#X obj -443 933 f;
#X obj -411 931 + 1;
#X obj -442 954 mod 2;
#X obj -441 831 f;
#X obj -409 829 + 1;
#X floatatom -442 874 0 0 0 0 - - -;
#X obj -440 852 mod 2;
#X obj -444 897 sel;
#X floatatom 180 752 5 0 0 0 - - -;
#X floatatom -102 1117 5 0 0 0 - - -;
#X obj -144 573 spigot-toggle_jaune;
#X obj -135 536 inlet;
#X obj -442 954 mod 2;
#X obj -473 915 spigot-toggle_jaune;
#X obj -226 890 bng 15 250 50 0 empty empty empty 17 7 0 10 -262144
-1 -1;
#X msg -442 1034 25;
#X msg -394 1033 75;
#X obj -197 914 s bonkBB;
#X obj -240 930 outlet;
#X floatatom 882 1671 10 0 0 1 ms - -;
#X text 1381 1784 Updated for timbreID version 0.7;
#X obj 1357 1726 timbreID;
#X text 1190 1668 This feature can be sent to the timbreID external
in order to identify timbres in real time. For more on using audio
features for classification \, see the timbreID helpfile:;
#X text 1381 1804 July 2017;
#X text 918 1351 When an onset is found \, bang to output attack time
in milliseconds, f 18;
#X text 774 1537 Outlet 1: attack time in milliseconds;
#X text 774 1557 Outlet 2: attack onset starting sample index;
#X text 774 1577 Outlet 3: attack onset peak sample index;
#N canvas 760 58 610 575 synth-burst 0;
#X obj 119 -14 inlet;
#X obj 106 249 outlet~;
#X obj 106 99 *~;
#X obj 106 69 noise~;
#X obj 176 92 vline~;
#X obj 149 185 *~ 0.15;
#X obj 149 207 dac~;
#X obj 176 114 *~;
#X obj 191 39 pack f f;
#X msg 197 -16 5;
#X msg 236 -17 20;
#X msg 163 -16 2;
#X msg 413 48 20;
#X msg 454 49 37;
#X msg 494 49 70;
#X msg 361 -15 100;
#X msg 456 -15 2100;
#X msg 176 70 0 \, 0.6 \$1 \, 0 \$2 \$1;
#X msg 388 -15 200;
#X msg 422 -15 1000;
#X msg 492 -16 8000;
#X obj 78 39 osc~ 200;
#X floatatom 82 15 5 0 0 0 - - -;
#X msg 277 -16 100;
#X msg 317 -16 300;
#X obj 36 -13 r BBmod;
#X obj 35 45 bng 15 250 50 0 empty empty empty 17 7 0 10 -262144 -1
-1;
#X obj 35 14 bng 15 250 50 0 empty empty empty 17 7 0 10 -262144 -1
-1;
#X floatatom 248 227 5 0 0 0 - - -;
#X obj 290 182 * 0.5;
#X obj 303 153 r T$;
#X connect 0 0 17 0;
#X connect 2 0 1 0;
#X connect 2 0 5 0;
#X connect 4 0 7 0;
#X connect 4 0 7 1;
#X connect 5 0 6 0;
#X connect 5 0 6 1;
#X connect 7 0 2 1;
#X connect 8 0 17 0;
#X connect 9 0 8 0;
#X connect 10 0 8 0;
#X connect 11 0 8 0;
#X connect 15 0 8 1;
#X connect 16 0 8 1;
#X connect 17 0 4 0;
#X connect 18 0 8 1;
#X connect 19 0 8 1;
#X connect 20 0 8 1;
#X connect 21 0 2 0;
#X connect 22 0 21 0;
#X connect 23 0 8 0;
#X connect 24 0 8 0;
#X connect 25 0 27 0;
#X connect 28 0 8 0;
#X connect 30 0 29 0;
#X restore 665 1275 pd synth-burst;
#X msg 665 1215 5;
#X msg 704 1214 20;
#X msg 745 1215 37;
#X floatatom 665 1257 5 0 0 1 ms - -;
#X msg 631 1215 2;
#X text 1190 1558 Look inside [pd other-settings] for more information
regarding analysis parameters.;
#X msg 785 1215 70;
#X text 1189 1212 When [attackTime~] receives a bang \, it locates
the peak sample in the current analysis window \, and searches back
through its internal buffer to find the point where sample magnitude
remains near zero for several consecutive samples. The number of samples
between the attack onset and attack peak is used to calculate the attack
time in milliseconds. Attack time is an important timbre feature.;
#X text 1052 1534 Creation argument sets analysis window size in samples
;
#X text 1190 1312 [attackTime~] does not contain an onset detector
\, so you must use either [bonk~] \, [bark~] \, or even [maxSampleDelta~]
to identify onsets. Use onset identification to determine the precise
moment to analyze for attack time. It makes sense to keep the window
size of your onset detection object the same as that of [attackTime~].
Here \, [bark~] is used in a series-connected subpatch so that attack
detection processing is done prior to attack time analysis. When the
attack time algorithm runs successfully (not necessarily accurately!)
\, it returns the attack time in milliseconds \, and the attack onset
and peak locations (in samples) within its buffer. Here \, this information
is used to graph just the attack segment of each new sound event. When
[attackTime~]'s algorithm runs unsuccessfully (perhaps because it never
finds enough consecutive samples below the magnitude threshold) \,
it returns an attack time of -1 to signal failure. This method is only
appropriate for measuring sound events that are separated by near silence.
;
#X text 1190 1598 Audio buffering is taken care of by the external
\, so there is no need for [block~]. You can set the window size with
a creation argument \, or change it with the "window" message. Window
size is not required to be a power of two.;
#X obj 938 1757 declare -lib timbreID/timbreIDLib;
#X obj 833 1214 r A;
#X obj 832 1237 * 100;
#N canvas 0 81 378 323 synth-burst 0;
#X obj 176 19 inlet;
#X obj 106 249 outlet~;
#X obj 106 99 *~;
#X obj 106 69 noise~;
#X msg 176 70 0 \, 0.6 \$1 \, 0 100 \$1;
#X obj 176 92 vline~;
#X obj 149 185 *~ 0.15;
#X obj 149 207 dac~;
#X obj 176 114 *~;
#X connect 0 0 4 0;
#X connect 2 0 1 0;
#X connect 2 0 6 0;
#X connect 3 0 2 0;
#X connect 4 0 5 0;
#X connect 5 0 8 0;
#X connect 5 0 8 1;
#X connect 6 0 7 0;
#X connect 6 0 7 1;
#X connect 8 0 2 1;
#X restore 885 1720 pd synth-burst;
#X floatatom 884 1693 5 0 0 1 ms - -;
#X obj 930 1823 s fll0;
#X floatatom 60 473 5 0 0 0 - - -;
#X floatatom -169 1115 5 0 0 0 - - -;
#X obj 59 501 tabread array3;
#X obj 59 400 f;
#X obj 91 398 + 1;
#X floatatom 58 443 0 0 0 0 - - -;
#X obj 60 421 mod 2;
#X floatatom 104 420 5 0 0 0 - - -;
#X obj 60 378 bng 15 250 50 0 empty empty empty 17 7 0 10 -262144 -1
-1;
#X obj 101 101 cnv 15 90 165 empty audioanacanva empty 3 122 0 32 -241291
-260097 0;
#X floatatom 173 667 5 0 0 0 - - -;
#X obj 171 619 * 1;
#X obj 177 695 - 50;
#X obj -196 723 inlet;
#X floatatom -190 751 5 0 0 0 - - -;
#X obj -161 1267 * 100;
#X obj -444 1136 * 0.01;
#X obj -394 1137 * 0.01;
#X obj -509 459 bonk~;
#X obj -453 501 bng 15 250 50 0 empty empty empty 17 7 0 10 -262144
-1 -1;
#X obj 322 273 pack f f;
#X text 410 265 Uses creation arguments to simplify creating parameters
for sliders.;
#X floatatom 323 226 5 0 0 0 - - -;
#X floatatom 312 465 5 0 0 0 - - -;
#X msg 315 500 \; array3 resize \$1;
#X obj -13 375 metro 200;
#X obj -13 353 tgl 15 0 empty empty empty 17 7 0 10 -262144 -1 -1 0
1;
#X msg 322 308 range \$2 \$1;
#X obj 322 248 init \$2 \$1;
#X obj 59 563 hsl 85 8 0 12 0 0 empty empty empty -2 -8 0 10 -260097
-1 -1 4200 1;
#X floatatom 100 251 15 0 0 0 - - -;
#X obj 359 688 vsl 15 128 250 0 0 1 empty empty empty 0 -9 0 10 -262144
-1 -1 7500 1;
#X obj 391 685 hsl 128 15 0 250 0 1 empty empty empty -2 -8 0 10 -262144
-1 -1 7417 1;
#N canvas 756 150 450 300 position 0;
#X obj -129 28 inlet x;
#X obj 29 30 inlet y;
#X obj -51 126 f;
#X msg -73 105 bang;
#X floatatom -35 104 3 20 60 0 - - -;
#X floatatom 0 126 3 150 200 0 - - -;
#X obj -51 149 pack 0 0;
#X text -7 104 x-position;
#X text 27 126 y-position;
#X obj -99 61 t b f;
#X obj 31 65 t b f;
#X msg -51 174 \; silence1_r pos \$1 \$2;
#X connect 0 0 9 0;
#X connect 1 0 10 0;
#X connect 2 0 6 0;
#X connect 3 0 2 0;
#X connect 4 0 2 1;
#X connect 5 0 6 1;
#X connect 6 0 11 0;
#X connect 9 0 3 0;
#X connect 9 1 4 0;
#X connect 10 0 3 0;
#X connect 10 1 5 0;
#X restore 390 717 pd position;
#X obj 559 688 vsl 15 128 0 127 0 1 empty empty empty 0 -9 0 10 -262144
-1 -1 12700 1;
#X obj 591 685 hsl 128 15 0 127 0 1 empty empty empty -2 -8 0 10 -262144
-1 -1 767 1;
#N canvas 197 138 450 300 size 0;
#X obj 187 29 inlet width;
#X obj 61 28 inlet height;
#X obj 97 104 f;
#X msg 75 83 bang;
#X floatatom 113 82 3 -10 10 0 - - -;
#X floatatom 148 104 3 -10 10 0 - - -;
#X obj 97 127 pack 0 0;
#X text 141 82 x-delta;
#X text 175 104 y-delta;
#X obj 81 51 t b f;
#X obj 161 51 t b f;
#X msg 97 152 \; silence1_r vis_size \$1 \$2;
#X connect 0 0 10 0;
#X connect 1 0 9 0;
#X connect 2 0 6 0;
#X connect 3 0 2 0;
#X connect 4 0 2 1;
#X connect 5 0 6 1;
#X connect 6 0 11 0;
#X connect 9 0 3 0;
#X connect 9 1 4 0;
#X connect 10 0 3 0;
#X connect 10 1 5 0;
#X restore 588 714 pd size;
#N canvas 993 436 450 300 init 0;
#X obj 68 34 lbang;
#X msg 68 73 \; silence1_r color 13;
#X connect 0 0 1 0;
#X restore 640 792 pd init;
#X obj 589 516 t b f;
#X obj 585 616 t b f;
#X floatatom 585 592 5 0 0 0 - - -;
#X floatatom 591 490 5 0 0 0 - - -;
#X obj 555 517 bng 15 250 50 0 empty empty empty 17 7 0 10 -262144
-1 -1;
#X floatatom -242 280 5 0 0 0 - - -;
#X obj -243 308 tabwrite array3;
#X obj 588 642 + 0;
#X floatatom 338 656 5 0 0 0 - - -;
#X floatatom 318 708 5 0 0 0 - - -;
#X floatatom 509 810 5 0 0 0 - - -;
#X obj 399 623 *;
#X obj 394 662 + 100;
#X floatatom 394 643 5 0 0 0 - - -;
#X floatatom 307 828 5 0 0 0 - - -;
#X obj 101 184 cnv 1 90 1 empty empty empty 2 12 0 14 -259585 -66577
0;
#X obj 493 765 r lo;
#X msg 497 786 148;
#X obj 60 357 r lo;
#X floatatom 643 714 5 0 0 0 - - -;
#X floatatom 635 651 5 0 0 0 - - -;
#X obj 589 537 / 92;
#X msg 555 534 92;
#X obj 146 102 cnv 4 7 148 silence1_s silence1_r empty 3 82 0 32 -259841
-1 0;
#N canvas 0 0 450 300 (subpatch) 0;
#X array array3 12 float 3;
#A 0 -0.20606 0.0848489 -0.351514 -0.612121 -0.593939 -0.472727 -0.315151
-0.175757 -0.0545453 0.0666667 0.0969697 0.466666;
#X coords 0 1 12 -1 90 165 1 0 0;
#X restore 101 101 graph;
#X msg -118 1340 color \$1 33;
#X obj -121 1366 s audioanacanva;
#X obj -60 1281 spigot-toggle_jaune;
#X floatatom -30 1258 5 0 0 0 - - -;
#X obj -29 1213 r lo;
#X msg -29 1235 20;
#X connect 0 0 1 0;
#X connect 1 0 2 0;
#X connect 2 0 90 0;
#X connect 3 0 13 0;
#X connect 5 0 93 0;
#X connect 6 0 18 0;
#X connect 7 0 8 0;
#X connect 7 0 41 0;
#X connect 8 0 7 1;
#X connect 9 0 17 0;
#X connect 10 0 42 1;
#X connect 10 0 140 1;
#X connect 11 0 10 0;
#X connect 12 0 83 0;
#X connect 13 0 15 0;
#X connect 14 0 24 0;
#X connect 15 0 91 0;
#X connect 16 0 44 0;
#X connect 17 0 16 0;
#X connect 17 1 22 0;
#X connect 18 0 82 0;
#X connect 18 0 98 0;
#X connect 18 0 116 0;
#X connect 18 0 83 0;
#X connect 19 0 4 0;
#X connect 19 0 140 0;
#X connect 20 0 0 0;
#X connect 21 0 92 0;
#X connect 22 0 45 0;
#X connect 23 0 0 0;
#X connect 24 0 13 0;
#X connect 25 0 21 0;
#X connect 26 0 27 0;
#X connect 27 0 25 0;
#X connect 28 0 38 0;
#X connect 29 0 30 0;
#X connect 29 0 31 0;
#X connect 30 0 29 1;
#X connect 32 0 33 0;
#X connect 32 0 35 0;
#X connect 33 0 32 1;
#X connect 34 0 36 0;
#X connect 35 0 34 0;
#X connect 36 0 43 0;
#X connect 36 0 42 0;
#X connect 36 0 39 0;
#X connect 37 0 25 0;
#X connect 38 0 0 1;
#X connect 39 0 78 0;
#X connect 40 0 39 1;
#X connect 41 0 9 0;
#X connect 42 0 7 0;
#X connect 43 0 46 0;
#X connect 43 0 47 0;
#X connect 44 0 15 0;
#X connect 45 0 21 0;
#X connect 48 0 73 0;
#X connect 58 0 61 0;
#X connect 59 0 61 0;
#X connect 60 0 61 0;
#X connect 61 0 57 0;
#X connect 62 0 61 0;
#X connect 64 0 61 0;
#X connect 70 0 71 0;
#X connect 73 0 72 0;
#X connect 75 0 77 0;
#X connect 75 0 104 0;
#X connect 76 0 0 0;
#X connect 77 0 76 0;
#X connect 78 0 79 0;
#X connect 78 0 81 0;
#X connect 79 0 78 1;
#X connect 80 0 75 0;
#X connect 81 0 80 0;
#X connect 82 0 81 1;
#X connect 83 0 78 0;
#X connect 85 0 3 0;
#X connect 85 0 87 0;
#X connect 86 0 85 0;
#X connect 87 0 37 0;
#X connect 88 0 89 0;
#X connect 89 0 35 1;
#X connect 90 0 19 0;
#X connect 90 0 105 0;
#X connect 91 0 20 0;
#X connect 92 0 23 0;
#X connect 93 1 94 0;
#X connect 94 0 32 0;
#X connect 95 0 102 0;
#X connect 97 0 103 0;
#X connect 98 0 99 0;
#X connect 98 0 97 0;
#X connect 100 0 78 0;
#X connect 101 0 100 0;
#X connect 102 0 104 0;
#X connect 103 0 95 0;
#X connect 104 0 124 0;
#X connect 106 0 127 0;
#X connect 107 0 108 0;
#X connect 107 0 121 0;
#X connect 109 0 111 1;
#X connect 110 0 111 0;
#X connect 110 0 123 0;
#X connect 110 0 132 0;
#X connect 113 0 134 0;
#X connect 113 1 134 1;
#X connect 114 0 120 0;
#X connect 114 1 120 1;
#X connect 115 0 114 0;
#X connect 116 0 117 0;
#X connect 116 0 113 0;
#X connect 117 0 135 0;
#X connect 118 0 119 0;
#X connect 120 0 124 1;
#X connect 120 0 133 0;
#X connect 124 0 126 0;
#X connect 125 0 107 0;
#X connect 126 0 125 0;
#X connect 127 0 108 1;
#X connect 129 0 130 0;
#X connect 130 0 109 0;
#X connect 131 0 83 0;
#X connect 133 0 110 0;
#X connect 134 0 120 0;
#X connect 135 0 134 0;
#X connect 138 0 139 0;
#X connect 140 0 138 0;
#X connect 141 0 138 0;
#X connect 142 0 143 0;
#X connect 143 0 141 0;
#X coords 0 -1 1 1 92 167 1 100 100;
