#N canvas 230 587 970 852 10;
#X declare -lib timbreID/timbreIDLib;
#X obj -162 1073 pack 0 0;
#X obj -162 1094 line;
#X floatatom -163 1115 5 0 0 0 - - -;
#X floatatom 71 637 5 0 0 0 - - -;
#X obj -167 1244 outlet;
#X obj -536 307 inlet~;
#X obj -3 316 inlet;
#X obj -444 814 f;
#X obj -412 812 + 1;
#X floatatom -443 856 0 0 0 0 - - -;
#X floatatom -493 488 0 0 0 0 >_<_back_n_forth - -;
#X obj -308 432 inlet;
#X obj 170 469 inlet;
#X floatatom 64 717 5 0 0 0 25_norm - -;
#X obj 61 668 r lo;
#X floatatom -444 957 5 0 0 0 - - -;
#X obj -444 892 bng 15 250 50 0 empty empty empty 17 7 0 10 -262144
-1 -1;
#X obj -443 869 sel 0 1;
#X floatatom 3 344 5 0 0 0 - - -;
#X floatatom -163 1215 5 0 0 0 - - -;
#X floatatom -445 1041 5 0 0 0 - - -;
#X floatatom -395 957 5 0 0 0 - - -;
#X obj -395 892 bng 15 250 50 0 empty empty empty 17 7 0 10 -262144
-1 -1;
#X floatatom -396 1041 5 0 0 0 - - -;
#X msg 65 689 25;
#X floatatom 162 716 5 0 0 0 25_norm - -;
#X obj 159 667 r lo;
#X msg 163 688 25;
#X obj -102 978 inlet;
#X obj -444 814 f;
#X obj -412 812 + 1;
#X obj -443 835 mod 2;
#X obj -442 712 f;
#X obj -410 710 + 1;
#X floatatom -443 755 0 0 0 0 - - -;
#X obj -441 733 mod 2;
#X obj -445 778 sel;
#X floatatom 179 633 5 0 0 0 - - -;
#X floatatom -282 660 5 0 0 0 - - -;
#X floatatom -103 998 5 0 0 0 - - -;
#X obj -145 454 spigot-toggle_jaune;
#X obj -136 417 inlet;
#X obj -443 835 mod 2;
#X obj -474 796 spigot-toggle_jaune;
#X obj -227 771 bng 15 250 50 0 empty empty empty 17 7 0 10 -262144
-1 -1;
#X msg -443 915 25;
#X msg -395 914 75;
#X obj -198 795 s bonkBB;
#X obj -241 811 outlet;
#X floatatom 881 1552 10 0 0 1 ms - -;
#X text 1380 1665 Updated for timbreID version 0.7;
#X obj 1356 1607 timbreID;
#X text 1189 1549 This feature can be sent to the timbreID external
in order to identify timbres in real time. For more on using audio
features for classification \, see the timbreID helpfile:;
#X text 1380 1685 July 2017;
#X text 917 1232 When an onset is found \, bang to output attack time
in milliseconds, f 18;
#X text 773 1418 Outlet 1: attack time in milliseconds;
#X text 773 1438 Outlet 2: attack onset starting sample index;
#X text 773 1458 Outlet 3: attack onset peak sample index;
#N canvas 760 58 610 575 synth-burst 0;
#X obj 119 -14 inlet;
#X obj 106 249 outlet~;
#X obj 106 99 *~;
#X obj 106 69 noise~;
#X obj 176 92 vline~;
#X obj 149 185 *~ 0.15;
#X obj 149 207 dac~;
#X obj 176 114 *~;
#X obj 191 39 pack f f;
#X msg 197 -16 5;
#X msg 236 -17 20;
#X msg 163 -16 2;
#X msg 413 48 20;
#X msg 454 49 37;
#X msg 494 49 70;
#X msg 361 -15 100;
#X msg 456 -15 2100;
#X msg 176 70 0 \, 0.6 \$1 \, 0 \$2 \$1;
#X msg 388 -15 200;
#X msg 422 -15 1000;
#X msg 492 -16 8000;
#X obj 78 39 osc~ 200;
#X floatatom 82 15 5 0 0 0 - - -;
#X msg 277 -16 100;
#X msg 317 -16 300;
#X obj 36 -13 r BBmod;
#X obj 35 45 bng 15 250 50 0 empty empty empty 17 7 0 10 -262144 -1
-1;
#X obj 35 14 bng 15 250 50 0 empty empty empty 17 7 0 10 -262144 -1
-1;
#X floatatom 248 227 5 0 0 0 - - -;
#X obj 290 182 * 0.5;
#X obj 303 153 r T$;
#X connect 0 0 17 0;
#X connect 2 0 1 0;
#X connect 2 0 5 0;
#X connect 4 0 7 0;
#X connect 4 0 7 1;
#X connect 5 0 6 0;
#X connect 5 0 6 1;
#X connect 7 0 2 1;
#X connect 8 0 17 0;
#X connect 9 0 8 0;
#X connect 10 0 8 0;
#X connect 11 0 8 0;
#X connect 15 0 8 1;
#X connect 16 0 8 1;
#X connect 17 0 4 0;
#X connect 18 0 8 1;
#X connect 19 0 8 1;
#X connect 20 0 8 1;
#X connect 21 0 2 0;
#X connect 22 0 21 0;
#X connect 23 0 8 0;
#X connect 24 0 8 0;
#X connect 25 0 27 0;
#X connect 28 0 8 0;
#X connect 30 0 29 0;
#X restore 664 1156 pd synth-burst;
#X msg 664 1096 5;
#X msg 703 1095 20;
#X msg 744 1096 37;
#X floatatom 664 1138 5 0 0 1 ms - -;
#X msg 630 1096 2;
#X text 1189 1439 Look inside [pd other-settings] for more information
regarding analysis parameters.;
#X msg 784 1096 70;
#X text 1188 1093 When [attackTime~] receives a bang \, it locates
the peak sample in the current analysis window \, and searches back
through its internal buffer to find the point where sample magnitude
remains near zero for several consecutive samples. The number of samples
between the attack onset and attack peak is used to calculate the attack
time in milliseconds. Attack time is an important timbre feature.;
#X text 1051 1415 Creation argument sets analysis window size in samples
;
#X text 1189 1193 [attackTime~] does not contain an onset detector
\, so you must use either [bonk~] \, [bark~] \, or even [maxSampleDelta~]
to identify onsets. Use onset identification to determine the precise
moment to analyze for attack time. It makes sense to keep the window
size of your onset detection object the same as that of [attackTime~].
Here \, [bark~] is used in a series-connected subpatch so that attack
detection processing is done prior to attack time analysis. When the
attack time algorithm runs successfully (not necessarily accurately!)
\, it returns the attack time in milliseconds \, and the attack onset
and peak locations (in samples) within its buffer. Here \, this information
is used to graph just the attack segment of each new sound event. When
[attackTime~]'s algorithm runs unsuccessfully (perhaps because it never
finds enough consecutive samples below the magnitude threshold) \,
it returns an attack time of -1 to signal failure. This method is only
appropriate for measuring sound events that are separated by near silence.
;
#X text 1189 1479 Audio buffering is taken care of by the external
\, so there is no need for [block~]. You can set the window size with
a creation argument \, or change it with the "window" message. Window
size is not required to be a power of two.;
#X obj 937 1638 declare -lib timbreID/timbreIDLib;
#X obj 832 1095 r A;
#X obj 831 1118 * 100;
#N canvas 0 81 378 323 synth-burst 0;
#X obj 176 19 inlet;
#X obj 106 249 outlet~;
#X obj 106 99 *~;
#X obj 106 69 noise~;
#X msg 176 70 0 \, 0.6 \$1 \, 0 100 \$1;
#X obj 176 92 vline~;
#X obj 149 185 *~ 0.15;
#X obj 149 207 dac~;
#X obj 176 114 *~;
#X connect 0 0 4 0;
#X connect 2 0 1 0;
#X connect 2 0 6 0;
#X connect 3 0 2 0;
#X connect 4 0 5 0;
#X connect 5 0 8 0;
#X connect 5 0 8 1;
#X connect 6 0 7 0;
#X connect 6 0 7 1;
#X connect 8 0 2 1;
#X restore 884 1601 pd synth-burst;
#X floatatom 883 1574 5 0 0 1 ms - -;
#X obj 929 1704 s fll0;
#X floatatom 60 343 5 0 0 0 - - -;
#X floatatom -170 996 5 0 0 0 - - -;
#X obj 60 368 tabread array3;
#X obj 58 281 f;
#X obj 90 279 + 1;
#X floatatom 57 324 0 0 0 0 - - -;
#X obj 59 302 mod 2;
#X floatatom 103 300 5 0 0 0 - - -;
#X obj 62 241 bng 15 250 50 0 empty empty empty 17 7 0 10 -262144 -1
-1;
#X obj 102 102 cnv 15 88 114 empty empty empty 20 12 0 14 -260097 -66577
0;
#N canvas 0 0 450 300 (subpatch) 0;
#X array array3 20 float 3;
#A 0 0.808696 0.913043 0.162393 -0.692304 0.555555 0.623924 0.931615
1.2393 1.90597 1.95725 0 0 0 0 0 0 0 0 0 0;
#X coords 0 1 20 -1 90 115 1 0 0;
#X restore 101 102 graph;
#X floatatom 172 546 5 0 0 0 - - -;
#X obj 170 500 * 1;
#X obj 176 576 - 50;
#X obj -197 604 inlet;
#X floatatom -191 632 5 0 0 0 - - -;
#X floatatom -142 1175 0 0 0 0 - - -;
#X obj -141 1151 * 100;
#X obj -445 1017 * 0.01;
#X obj -395 1018 * 0.01;
#X obj -510 340 bonk~;
#X obj -454 382 bng 15 250 50 0 empty empty empty 17 7 0 10 -262144
-1 -1;
#X connect 0 0 1 0;
#X connect 1 0 2 0;
#X connect 2 0 93 0;
#X connect 3 0 13 0;
#X connect 5 0 96 0;
#X connect 6 0 18 0;
#X connect 7 0 8 0;
#X connect 7 0 42 0;
#X connect 8 0 7 1;
#X connect 9 0 17 0;
#X connect 10 0 43 1;
#X connect 11 0 10 0;
#X connect 12 0 88 0;
#X connect 13 0 15 0;
#X connect 14 0 24 0;
#X connect 15 0 94 0;
#X connect 16 0 45 0;
#X connect 17 0 16 0;
#X connect 17 1 22 0;
#X connect 18 0 83 0;
#X connect 19 0 4 0;
#X connect 20 0 0 0;
#X connect 21 0 95 0;
#X connect 22 0 46 0;
#X connect 23 0 0 0;
#X connect 24 0 13 0;
#X connect 25 0 21 0;
#X connect 26 0 27 0;
#X connect 27 0 25 0;
#X connect 28 0 39 0;
#X connect 29 0 30 0;
#X connect 29 0 31 0;
#X connect 30 0 29 1;
#X connect 32 0 33 0;
#X connect 32 0 35 0;
#X connect 33 0 32 1;
#X connect 34 0 36 0;
#X connect 35 0 34 0;
#X connect 36 0 44 0;
#X connect 36 0 43 0;
#X connect 36 0 40 0;
#X connect 37 0 25 0;
#X connect 38 0 35 1;
#X connect 39 0 0 1;
#X connect 40 0 79 0;
#X connect 41 0 40 1;
#X connect 42 0 9 0;
#X connect 43 0 7 0;
#X connect 44 0 47 0;
#X connect 44 0 48 0;
#X connect 45 0 15 0;
#X connect 46 0 21 0;
#X connect 49 0 74 0;
#X connect 59 0 62 0;
#X connect 60 0 62 0;
#X connect 61 0 62 0;
#X connect 62 0 58 0;
#X connect 63 0 62 0;
#X connect 65 0 62 0;
#X connect 71 0 72 0;
#X connect 74 0 73 0;
#X connect 76 0 78 0;
#X connect 77 0 0 0;
#X connect 78 0 77 0;
#X connect 79 0 80 0;
#X connect 79 0 82 0;
#X connect 80 0 79 1;
#X connect 81 0 76 0;
#X connect 82 0 81 0;
#X connect 83 0 82 1;
#X connect 84 0 79 0;
#X connect 87 0 3 0;
#X connect 87 0 89 0;
#X connect 88 0 87 0;
#X connect 89 0 37 0;
#X connect 90 0 91 0;
#X connect 91 0 38 0;
#X connect 92 0 19 0;
#X connect 93 0 92 0;
#X connect 94 0 20 0;
#X connect 95 0 23 0;
#X connect 96 1 97 0;
#X connect 97 0 32 0;
#X coords 0 -1 1 1 92 118 1 100 100;
