#N canvas 208 725 1639 759 10;
#X obj 719 325 inlet;
#X obj 555 963 inlet;
#X obj 378 202 inlet;
#X obj 352 236 spigot-toggle_red;
#X obj 438 211 r bonktoenvB;
#X obj 438 262 r øSbangB;
#X obj 441 479 bng 15 250 50 0 empty empty empty 17 7 0 10 -262144
-1 -1;
#X obj 412 1008 vline~;
#X obj 560 1072 tabwrite~ env5;
#X floatatom 671 318 5 0 0 0 - - -;
#X floatatom 494 645 5 0 0 0 - - -;
#X obj 459 752 f;
#X obj 486 752 f;
#X obj 352 338 pack \$1 \$0;
#X floatatom 422 339 12 0 0 0 - - -;
#X floatatom 352 314 12 0 0 0 - - -;
#X obj 352 264 f;
#X msg 352 363 \; env5 resize \$1, f 15;
#X floatatom 444 988 7 0 0 0 - - -;
#X floatatom 567 988 7 0 0 0 - - -;
#X obj 503 1007 vline~;
#X obj 444 963 inlet;
#X obj 179 461 r trgrtoenvB;
#X obj 512 752 f;
#X obj 208 537 - 1;
#X obj 208 562 * -1;
#X floatatom 534 645 5 0 0 0 - - -;
#X obj 308 660 bng 15 250 50 0 empty empty empty 17 7 0 10 -262144
-1 -1;
#X obj 50 529 r trgrtoenvonoffB;
#X obj 208 510 spigot-toggle_red;
#X floatatom 454 645 5 0 0 0 - - -;
#X obj 2609 -260 t b f;
#X obj 2609 -235 *;
#X obj 465 1072 outlet~;
#X obj 540 752 f;
#X floatatom 575 645 5 0 0 0 - - -;
#X msg 408 963 stop;
#X msg 518 963 stop;
#X obj 272 515 - 1;
#X obj 270 535 * -1;
#X floatatom 685 274 5 0 0 0 - - -;
#X obj 670 294 * 1;
#X obj 510 1030 pow~ 4;
#X obj 420 1042 pow~ 2;
#X obj 587 423 t b f;
#X obj 591 452 * 1;
#X floatatom 618 399 5 0 0 0 - - -;
#X obj 656 423 t b f;
#X obj 655 452 * 1;
#X floatatom 682 399 5 0 0 0 - - -;
#X obj 453 452 r BBBmod;
#X obj 801 322 inlet;
#X obj 687 186 inlet;
#X obj 571 752 f;
#X floatatom 613 645 5 0 0 0 - - -;
#X obj 646 187 inlet;
#X obj 723 423 t b f;
#X obj 731 452 * 1;
#X floatatom 776 399 5 0 0 0 - - -;
#X obj 352 289 * 100;
#X obj 758 323 inlet;
#X obj 456 833 pack f f f f f f;
#X obj 605 752 f;
#X floatatom 679 693 5 0 0 0 - - -;
#X msg 355 894 \$4 \$1 \, \$4 0 \$5 \, 0 0 \$6;
#X msg 513 896 0 0 \$1 \, \$4 0 \$6 \, \$3 \$2 \$6;
#X obj 256 441 r BngslcttoenvBaudiomods;
#X obj 176 657 r Bbutton;
#X obj 684 669 + 0;
#X obj 683 647 t b f;
#X obj 308 688 t b b b b b b;
#X obj 616 860 sel;
#X obj 660 849 r øAtiTS2;
#X obj 442 517 t b b;
#X obj 934 849 f;
#X obj 933 872 pack f;
#X msg 933 895 0 \$1;
#X obj 1041 718 bng 15 250 50 0 empty empty empty 17 7 0 10 -262144
-1 -1;
#X obj 1050 695 bng 15 250 50 0 empty empty empty 17 7 0 10 -262144
-1 -1;
#X obj 1159 712 f;
#X obj 1185 712 + 1;
#X obj 1149 821 bng 15 250 50 0 empty empty empty 17 7 0 10 -262144
-1 -1;
#X obj 1159 758 mod 200;
#X floatatom 1159 732 5 0 0 0 - - -;
#X floatatom 1026 642 5 0 0 0 - - -;
#X obj 956 805 bng 15 250 50 0 empty empty empty 17 7 0 10 -262144
-1 -1;
#X obj 954 782 delay;
#X obj 1180 820 bng 15 250 50 0 empty empty empty 17 7 0 10 -262144
-1 -1;
#X obj 1025 619 spigot-toggle_red;
#X obj 1090 626 r lo;
#X obj 1024 661 sel;
#X floatatom 1050 376 5 0 0 0 - - -;
#X floatatom 1159 383 5 0 0 0 - - -;
#X floatatom 1336 380 5 0 0 0 - - -;
#X floatatom 1411 385 5 0 0 0 - - -;
#X obj 1398 405 t b f;
#X msg 1160 687 -1;
#X obj 1160 785 sel;
#X obj 1400 452 <;
#X obj 1084 459 == 0;
#X obj 1122 463 == 0;
#X floatatom 1046 494 5 0 0 0 - - -;
#X floatatom 1124 495 5 0 0 0 - - -;
#X obj 1050 533 + 0;
#X floatatom 1051 560 5 0 0 0 - - -;
#X obj 1125 528 spigot-toggle_red;
#X floatatom 1117 558 5 0 0 0 - - -;
#X obj 1340 341 r trgrafter_env5;
#X obj 1262 342 r trgrtoenvB;
#X obj 230 812 delay;
#X obj 191 711 - 1;
#X obj 191 736 * -1;
#X obj 232 915 t b b;
#X obj 189 836 spigot-toggle_red;
#X obj 188 869 bng 15 250 50 0 empty empty empty 17 7 0 10 -262144
-1 -1;
#X obj 267 813 * 1;
#X obj 232 785 r BB;
#X obj 173 769 sel;
#X obj 9 859 sel;
#X obj 114 1051 f;
#X msg 119 1108 1 \$1;
#X obj 117 1076 pack f;
#X obj 33 976 f;
#X obj 59 976 + 1;
#X obj 35 1085 bng 15 250 50 0 empty empty empty 17 7 0 10 -262144
-1 -1;
#X obj 60 1086 bng 15 250 50 0 empty empty empty 17 7 0 10 -262144
-1 -1;
#X obj 78 1085 bng 15 250 50 0 empty empty empty 17 7 0 10 -262144
-1 -1;
#X obj 33 1022 mod 200;
#X floatatom 33 996 5 0 0 0 - - -;
#X obj 5 939 bng 15 250 50 0 empty empty empty 17 7 0 10 -262144 -1
-1;
#X obj 33 1049 sel 0 1;
#X msg 39 936 -1;
#X obj 9 812 == 1;
#X connect 0 0 46 0;
#X connect 1 0 19 0;
#X connect 2 0 3 1;
#X connect 3 0 16 0;
#X connect 4 0 3 0;
#X connect 4 0 6 0;
#X connect 5 0 3 0;
#X connect 5 0 6 0;
#X connect 6 0 73 0;
#X connect 6 0 3 0;
#X connect 7 0 43 0;
#X connect 9 0 56 0;
#X connect 9 0 44 0;
#X connect 9 0 47 0;
#X connect 9 0 16 1;
#X connect 10 0 12 1;
#X connect 10 0 74 1;
#X connect 11 0 61 0;
#X connect 12 0 61 1;
#X connect 13 0 17 0;
#X connect 14 0 13 1;
#X connect 15 0 13 0;
#X connect 16 0 59 0;
#X connect 18 0 43 1;
#X connect 19 0 42 1;
#X connect 20 0 42 0;
#X connect 21 0 18 0;
#X connect 22 0 29 0;
#X connect 22 0 118 0;
#X connect 23 0 61 2;
#X connect 24 0 25 0;
#X connect 25 0 26 0;
#X connect 26 0 23 1;
#X connect 27 0 70 0;
#X connect 28 0 29 1;
#X connect 28 0 38 0;
#X connect 28 0 26 0;
#X connect 28 0 88 1;
#X connect 29 0 24 0;
#X connect 29 0 35 0;
#X connect 30 0 11 1;
#X connect 30 0 69 0;
#X connect 31 0 32 0;
#X connect 31 1 32 1;
#X connect 34 0 61 3;
#X connect 35 0 34 1;
#X connect 36 0 7 0;
#X connect 37 0 20 0;
#X connect 38 0 39 0;
#X connect 39 0 35 0;
#X connect 40 0 41 1;
#X connect 41 0 9 0;
#X connect 42 0 33 0;
#X connect 42 0 8 0;
#X connect 43 0 33 0;
#X connect 43 0 8 0;
#X connect 44 0 45 0;
#X connect 44 1 45 1;
#X connect 45 0 30 0;
#X connect 46 0 45 0;
#X connect 47 0 48 0;
#X connect 47 1 48 1;
#X connect 48 0 54 0;
#X connect 49 0 48 0;
#X connect 50 0 6 0;
#X connect 51 0 58 0;
#X connect 52 0 40 0;
#X connect 53 0 61 4;
#X connect 54 0 53 1;
#X connect 54 0 68 0;
#X connect 55 0 41 0;
#X connect 56 0 57 0;
#X connect 56 1 57 1;
#X connect 57 0 10 0;
#X connect 58 0 57 0;
#X connect 59 0 15 0;
#X connect 60 0 49 0;
#X connect 61 0 64 0;
#X connect 61 0 65 0;
#X connect 62 0 61 5;
#X connect 63 0 62 1;
#X connect 63 0 86 1;
#X connect 64 0 7 0;
#X connect 65 0 20 0;
#X connect 66 0 6 0;
#X connect 67 0 110 0;
#X connect 67 0 117 0;
#X connect 68 0 63 0;
#X connect 69 0 68 0;
#X connect 69 1 68 1;
#X connect 70 0 11 0;
#X connect 70 1 12 0;
#X connect 70 2 23 0;
#X connect 70 3 34 0;
#X connect 70 4 53 0;
#X connect 70 5 62 0;
#X connect 71 0 85 0;
#X connect 71 1 114 0;
#X connect 72 0 71 0;
#X connect 73 0 8 0;
#X connect 73 1 27 0;
#X connect 74 0 75 0;
#X connect 75 0 76 0;
#X connect 76 0 20 0;
#X connect 76 0 7 0;
#X connect 77 0 96 0;
#X connect 78 0 79 0;
#X connect 79 0 80 0;
#X connect 79 0 83 0;
#X connect 80 0 79 1;
#X connect 81 0 86 0;
#X connect 81 0 8 0;
#X connect 82 0 97 0;
#X connect 83 0 82 0;
#X connect 84 0 90 0;
#X connect 85 0 74 0;
#X connect 86 0 85 0;
#X connect 88 0 84 0;
#X connect 89 0 88 1;
#X connect 90 0 77 0;
#X connect 90 1 78 0;
#X connect 91 0 99 0;
#X connect 92 0 100 0;
#X connect 93 0 98 0;
#X connect 94 0 95 0;
#X connect 95 0 98 0;
#X connect 95 1 98 1;
#X connect 96 0 79 0;
#X connect 97 0 81 0;
#X connect 97 1 87 0;
#X connect 98 0 105 0;
#X connect 99 0 101 0;
#X connect 100 0 102 0;
#X connect 101 0 103 0;
#X connect 102 0 103 1;
#X connect 102 0 105 1;
#X connect 103 0 104 0;
#X connect 105 0 106 0;
#X connect 106 0 88 0;
#X connect 107 0 94 0;
#X connect 107 0 91 0;
#X connect 108 0 93 0;
#X connect 108 0 92 0;
#X connect 109 0 113 0;
#X connect 110 0 111 0;
#X connect 111 0 113 1;
#X connect 112 0 8 0;
#X connect 113 0 114 0;
#X connect 114 0 112 0;
#X connect 114 0 119 0;
#X connect 115 0 109 1;
#X connect 116 0 109 0;
#X connect 117 0 109 0;
#X connect 118 0 129 0;
#X connect 118 1 131 0;
#X connect 119 0 121 0;
#X connect 120 0 7 0;
#X connect 121 0 120 0;
#X connect 122 0 123 0;
#X connect 122 0 128 0;
#X connect 123 0 122 1;
#X connect 124 0 119 0;
#X connect 124 0 8 0;
#X connect 127 0 130 0;
#X connect 128 0 127 0;
#X connect 129 0 122 0;
#X connect 130 0 124 0;
#X connect 130 1 125 0;
#X connect 131 0 122 0;
