#N canvas 661 8 928 1028 10;
#X obj 214 125 inlet;
#X obj 151 589 inlet;
#X obj 222 667 outlet~;
#X obj 335 585 inlet;
#X obj 388 179 inlet;
#X obj 335 179 inlet;
#X obj 172 125 inlet;
#X floatatom 149 615 7 0 0 0 - - -;
#X floatatom 332 610 7 0 0 0 - - -;
#X obj 224 595 vline~;
#X obj 223 648 pow~ 2;
#X obj 48 242 sel;
#X obj 44 308 bng 15 250 50 0 empty empty empty 17 7 0 10 -262144 -1
-1;
#X obj 68 266 bng 15 250 50 0 empty empty empty 17 7 0 10 -262144 -1
-1;
#X obj 2 418 bng 20 250 50 0 empty empty empty 17 7 0 10 -4034 -1 -1
;
#X obj -8 263 sel;
#X floatatom -7 245 5 0 0 0 - - -;
#X obj 8 196 bng 15 250 50 0 empty empty empty 17 7 0 10 -262144 -1
-1;
#X floatatom 213 159 5 0 0 0 - - -;
#X obj 321 485 bng 20 250 50 0 empty empty empty 17 7 0 10 -260097
-1 -1;
#X obj 139 481 bng 20 250 50 0 empty empty empty 17 7 0 10 -260097
-1 -1;
#X obj 139 545 pack f f;
#X obj 325 549 pack f f;
#X obj 184 519 f;
#X msg 326 523 0;
#X floatatom 199 494 5 0 0 0 - - -;
#X obj 368 523 f;
#X obj 212 248 t b f;
#X obj 212 271 * 1;
#X floatatom 118 255 5 0 0 0 - - -;
#X floatatom 382 498 5 0 0 0 - - -;
#X floatatom 173 159 5 0 0 0 - - -;
#X obj 171 248 t b f;
#X obj 140 431 delay;
#X floatatom 169 408 5 0 0 0 - - -;
#X floatatom 438 332 5 0 0 0 - - -;
#X obj 226 717 line;
#X obj 228 737 hsl 128 15 0 1 0 0 empty empty empty -2 -8 0 10 -262144
-1 -1 0 1;
#X obj 137 633 f;
#X obj 321 635 f;
#X obj 171 271 * 0;
#X obj 328 434 delay 0;
#X obj 233 844 bng 44 250 50 0 empty empty empty 17 7 0 10 -4034 -1
-1;
#X obj 278 844 bng 44 250 50 0 empty empty empty 17 7 0 10 -260097
-1 -1;
#X obj -1168 -294 trgrB;
#X obj 9 173 r TRGnA_@load;
#X obj 225 803 s opaENVA;
#X obj 118 124 r T$mod;
#X floatatom 336 304 5 0 0 0 - - -;
#X floatatom 387 228 5 0 0 0 - - -;
#X obj 385 250 t b f;
#X obj 387 271 * 1;
#X obj 438 206 - 1;
#X obj 439 225 * -1;
#X obj 439 250 t b f;
#X obj 439 271 * 1;
#X floatatom 295 255 5 0 0 0 - - -;
#X obj 253 248 t b f;
#X obj 46 221 r Abutton;
#X obj 438 353 t b f;
#X floatatom 365 407 5 0 0 0 - - -;
#X obj 438 375 *;
#X obj 252 204 - 1;
#X obj 253 223 * -1;
#X obj 278 417 spigot-toggle_vert;
#X text 137 106 env forward;
#X obj 292 330 r Abutton;
#X obj 227 780 pow 2;
#X obj 258 271 * 1;
#X text 213 104 env in;
#X text 300 154 env sustain;
#X text 385 155 env out;
#X obj -7 221 r 0AX;
#X obj 532 472 sel;
#X floatatom 533 456 5 0 0 0 - - -;
#X obj 533 439 r 0AX;
#X obj 283 390 r lo;
#X floatatom 548 506 5 0 0 0 - - -;
#X msg 102 534 1;
#X obj 19 391 r BBmod;
#X obj 618 445 bng 15 250 50 0 empty empty empty 17 7 0 10 -262144
-1 -1;
#X obj 618 486 f;
#X obj 643 490 + 1;
#X obj 634 594 bng 15 250 50 0 empty empty empty 17 7 0 10 -262144
-1 -1;
#X obj 652 594 bng 15 250 50 0 empty empty empty 17 7 0 10 -262144
-1 -1;
#X floatatom 617 510 5 0 0 0 - - -;
#X obj 617 566 sel 0 1;
#X obj 617 594 bng 15 250 50 0 empty empty empty 17 7 0 10 -262144
-1 -1;
#X obj 646 445 bng 15 250 50 0 empty empty empty 17 7 0 10 -262144
-1 -1;
#X obj 622 397 +;
#X msg 637 466 -1;
#X floatatom 635 361 5 0 0 0 - - -;
#X obj 635 340 == 0;
#X obj 622 418 sel 2;
#X obj 619 290 == 1;
#X obj 617 538 mod 200;
#X obj 616 623 delay 0;
#X text 620 243 env out @ fin de serie step off;
#X obj 634 319 r trgrAmodenv;
#X obj 51 342 delay;
#X obj 293 456 spigot-toggle_vert;
#X obj 293 348 r trgrafterAmod1;
#X obj 621 269 r trgrafterAmod1;
#X connect 0 0 18 0;
#X connect 1 0 7 0;
#X connect 3 0 8 0;
#X connect 4 0 49 0;
#X connect 5 0 48 0;
#X connect 6 0 31 0;
#X connect 7 0 38 1;
#X connect 8 0 39 1;
#X connect 9 0 10 0;
#X connect 10 0 2 0;
#X connect 11 0 12 0;
#X connect 11 1 13 0;
#X connect 12 0 99 0;
#X connect 12 0 14 0;
#X connect 14 0 33 0;
#X connect 15 1 12 0;
#X connect 16 0 15 0;
#X connect 17 0 14 0;
#X connect 18 0 27 0;
#X connect 18 0 62 0;
#X connect 19 0 26 0;
#X connect 19 0 39 0;
#X connect 19 0 24 0;
#X connect 19 0 43 0;
#X connect 20 0 38 0;
#X connect 20 0 23 0;
#X connect 20 0 42 0;
#X connect 20 0 78 0;
#X connect 20 0 64 0;
#X connect 21 0 9 0;
#X connect 21 0 36 0;
#X connect 22 0 9 0;
#X connect 22 0 36 0;
#X connect 23 0 21 1;
#X connect 24 0 22 0;
#X connect 25 0 23 1;
#X connect 26 0 22 1;
#X connect 27 0 28 0;
#X connect 27 1 28 1;
#X connect 28 0 25 0;
#X connect 29 0 28 0;
#X connect 29 0 40 0;
#X connect 29 0 55 0;
#X connect 29 0 68 0;
#X connect 29 0 99 1;
#X connect 30 0 26 1;
#X connect 30 0 77 0;
#X connect 31 0 32 0;
#X connect 32 0 40 0;
#X connect 32 1 40 1;
#X connect 33 0 20 0;
#X connect 34 0 33 1;
#X connect 35 0 61 0;
#X connect 36 0 37 0;
#X connect 37 0 67 0;
#X connect 38 0 10 1;
#X connect 38 0 67 1;
#X connect 39 0 10 1;
#X connect 39 0 67 1;
#X connect 40 0 34 0;
#X connect 41 0 100 0;
#X connect 45 0 17 0;
#X connect 47 0 29 0;
#X connect 48 0 59 0;
#X connect 49 0 50 0;
#X connect 49 0 52 0;
#X connect 50 0 51 0;
#X connect 50 1 51 1;
#X connect 51 0 30 0;
#X connect 52 0 53 0;
#X connect 53 0 54 0;
#X connect 54 0 55 0;
#X connect 54 1 55 1;
#X connect 55 0 35 0;
#X connect 56 0 51 0;
#X connect 57 0 68 0;
#X connect 57 1 68 1;
#X connect 58 0 11 0;
#X connect 59 0 61 0;
#X connect 59 1 61 1;
#X connect 60 0 41 1;
#X connect 61 0 60 0;
#X connect 62 0 63 0;
#X connect 63 0 57 0;
#X connect 64 0 41 0;
#X connect 66 0 64 1;
#X connect 66 0 100 1;
#X connect 67 0 46 0;
#X connect 68 0 56 0;
#X connect 72 0 16 0;
#X connect 73 0 19 0;
#X connect 74 0 73 0;
#X connect 75 0 74 0;
#X connect 76 0 64 1;
#X connect 78 0 21 0;
#X connect 79 0 14 0;
#X connect 80 0 81 0;
#X connect 81 0 82 0;
#X connect 81 0 85 0;
#X connect 82 0 81 1;
#X connect 85 0 95 0;
#X connect 86 0 87 0;
#X connect 86 1 83 0;
#X connect 86 2 84 0;
#X connect 87 0 96 0;
#X connect 87 0 19 0;
#X connect 88 0 90 0;
#X connect 89 0 93 0;
#X connect 90 0 81 0;
#X connect 91 0 89 1;
#X connect 92 0 91 0;
#X connect 93 0 80 0;
#X connect 93 1 88 0;
#X connect 94 0 89 0;
#X connect 95 0 86 0;
#X connect 98 0 92 0;
#X connect 100 0 19 0;
#X connect 101 0 64 1;
#X connect 101 0 100 1;
#X connect 102 0 94 0;
