#N canvas 599 80 925 1028 10;
#X obj 159 356 inlet;
#X obj 283 710 inlet;
#X obj 416 348 inlet;
#X obj 242 1169 spigot-toggle_red;
#X obj 80 758 vline~;
#X floatatom 376 409 5 0 0 0 - - -;
#X obj 242 1271 pack \$1 \$0;
#X floatatom 313 1275 12 0 0 0 - - -;
#X floatatom 242 1247 12 0 0 0 - - -;
#X obj 242 1197 f;
#X floatatom 122 735 7 0 0 0 - - -;
#X floatatom 295 735 7 0 0 0 - - -;
#X obj 231 758 vline~;
#X obj 122 710 inlet;
#X obj 100 853 outlet~;
#X msg 86 710 stop;
#X msg 246 710 stop;
#X floatatom 251 1083 5 0 0 0 - - -;
#X obj 238 789 pow~ 4;
#X obj 98 789 pow~ 2;
#X obj 225 360 inlet;
#X obj 248 1052 inlet;
#X obj 242 1222 * 100;
#X obj 286 360 inlet;
#X msg 242 1296 \; env1 resize \$1, f 15;
#X obj 475 1132 r bonktoenvA;
#X obj 163 854 tabwrite~ env1;
#X obj 378 381 * 1;
#X floatatom 415 370 5 0 0 0 - - -;
#X floatatom 379 357 5 0 0 0 - - -;
#X obj 780 702 f;
#X obj 778 722 pack f;
#X obj -21 351 bng 20 250 50 0 empty empty empty 17 7 0 10 -258113
-1 -1;
#X obj 780 650 bng 20 250 50 0 empty empty empty 17 7 0 10 -260097
-1 -1;
#X obj -13 651 f;
#X obj -12 675 pack f;
#X obj 376 460 outlet;
#X obj 494 1210 spigot-toggle_red;
#X obj 607 1169 - 1;
#X obj 607 1194 * -1;
#X obj 517 1214 r lo;
#X obj 606 1142 r ø@S;
#X obj -222 678 delay 11;
#X obj 181 698 bng 15 250 50 0 empty empty empty 17 7 0 10 -262144
-1 -1;
#X obj -18 188 bng 15 250 50 0 empty empty empty 17 7 0 10 -262144
-1 -1;
#X obj -17 164 sel;
#X obj -187 636 r T$mod;
#X obj -318 603 bng 15 250 50 0 empty empty empty 17 7 0 10 -262144
-1 -1;
#X obj 393 965 s ramptooff;
#X obj 775 445 bng 15 250 50 0 empty empty empty 17 7 0 10 -262144
-1 -1;
#X obj 774 490 f;
#X obj 800 490 + 1;
#X obj 791 594 bng 15 250 50 0 empty empty empty 17 7 0 10 -262144
-1 -1;
#X obj 809 594 bng 15 250 50 0 empty empty empty 17 7 0 10 -262144
-1 -1;
#X floatatom 774 510 5 0 0 0 - - -;
#X obj 774 566 sel 0 1;
#X obj 774 538 mod 200;
#X obj 774 594 bng 15 250 50 0 empty empty empty 17 7 0 10 -262144
-1 -1;
#X obj 781 627 delay 0;
#X floatatom 650 631 5 0 0 0 - - -;
#X obj 2 189 bng 15 250 50 0 empty empty empty 17 7 0 10 -262144 -1
-1;
#X msg 777 740 0 \$1;
#X obj -18 237 f;
#X obj 8 237 + 1;
#X obj 0 319 bng 15 250 50 0 empty empty empty 17 7 0 10 -262144 -1
-1;
#X obj 18 319 bng 15 250 50 0 empty empty empty 17 7 0 10 -262144 -1
-1;
#X floatatom -18 257 5 0 0 0 - - -;
#X obj -20 298 sel 0 1;
#X obj -19 277 mod 200;
#X obj -20 319 bng 15 250 50 0 empty empty empty 17 7 0 10 -262144
-1 -1;
#X msg -4 213 -1;
#X obj 803 445 bng 15 250 50 0 empty empty empty 17 7 0 10 -262144
-1 -1;
#X floatatom 783 297 5 0 0 0 - - -;
#X obj 779 397 +;
#X msg 794 466 -1;
#X msg -452 806 \$6 \$1 \, \$6 0 \$3 \, \$5 0 \$4;
#X msg -300 809 \$5 0 \$1 \, \$6 0 \$4 \, \$5 \$2 \$4;
#X msg 89 678 1 \$1 \, 1 0 \$3 \, 0 0 \$4;
#X msg 232 678 0 0 \$1 \, 1 0 \$4 \, 0 \$2 \$4;
#X obj 783 275 == 1;
#X floatatom 792 361 5 0 0 0 - - -;
#X obj 792 340 == 0;
#X obj 498 1183 r SmplbangA;
#X obj 494 1237 bng 20 250 50 0 empty empty empty 17 7 0 10 -4034 -1
-1;
#X obj 779 418 sel 2;
#X msg -11 696 0.5 \$1;
#X obj 1 629 * 1;
#X obj -214 554 sel;
#X obj -214 585 bng 15 250 50 0 empty empty empty 17 7 0 10 -262144
-1 -1;
#X obj -193 588 bng 15 250 50 0 empty empty empty 17 7 0 10 -262144
-1 -1;
#X obj -243 516 r Abutton;
#X obj -181 654 * 2;
#X floatatom 381 811 5 0 0 0 - - -;
#X floatatom 392 914 5 0 0 0 - - -;
#X msg 391 889 1;
#X msg 422 888 0;
#X obj 380 833 sel;
#X obj 392 937 spigot-toggle_red;
#X obj 416 936 r linermpenvAV, f 17;
#X obj -214 703 bng 15 250 50 0 empty empty empty 17 7 0 10 -262144
-1 -1;
#X obj 792 319 r trgrAmod;
#X obj 381 792 r trgrAmod;
#X obj 783 253 r trgrafterAmod;
#X obj 378 330 spigot-toggle_red;
#X obj -79 143 r trgrafterAmod;
#X floatatom 377 306 5 0 0 0 - - -;
#X obj 377 283 r SELtglidelessA;
#X floatatom 138 539 5 0 0 0 - - -;
#X floatatom 98 539 5 0 0 0 - - -;
#X obj 103 499 * 1;
#X obj 167 499 * 1;
#X floatatom 175 539 5 0 0 0 - - -;
#X obj 220 499 * 1;
#X floatatom 149 409 5 0 0 0 - - -;
#X floatatom 211 409 5 0 0 0 - - -;
#X floatatom 274 409 5 0 0 0 - - -;
#X obj 93 631 pack f f f f;
#X obj 297 510 * 1;
#X obj 361 510 * 1;
#X obj 412 510 * 1;
#X floatatom 336 538 5 0 0 0 - - -;
#X floatatom 296 538 5 0 0 0 - - -;
#X floatatom 373 538 5 0 0 0 - - -;
#X obj 429 555 t b f;
#X floatatom 215 541 5 0 0 0 - - -;
#X obj 424 627 - 0;
#X obj 420 601 t b f;
#X obj 430 579 -;
#X obj 444 494 r T$mod;
#X connect 0 0 113 0;
#X connect 1 0 11 0;
#X connect 2 0 28 0;
#X connect 3 0 9 0;
#X connect 3 0 26 0;
#X connect 4 0 19 0;
#X connect 5 0 9 1;
#X connect 5 0 36 0;
#X connect 5 0 109 0;
#X connect 5 0 110 0;
#X connect 5 0 112 0;
#X connect 5 0 117 0;
#X connect 5 0 118 0;
#X connect 5 0 119 0;
#X connect 6 0 24 0;
#X connect 7 0 6 1;
#X connect 8 0 6 0;
#X connect 9 0 22 0;
#X connect 10 0 19 1;
#X connect 11 0 18 1;
#X connect 12 0 18 0;
#X connect 13 0 10 0;
#X connect 15 0 4 0;
#X connect 16 0 12 0;
#X connect 17 0 3 1;
#X connect 18 0 14 0;
#X connect 18 0 26 0;
#X connect 19 0 14 0;
#X connect 19 0 26 0;
#X connect 20 0 114 0;
#X connect 21 0 17 0;
#X connect 22 0 8 0;
#X connect 23 0 115 0;
#X connect 25 0 3 0;
#X connect 27 0 5 0;
#X connect 28 0 27 1;
#X connect 29 0 27 0;
#X connect 30 0 31 0;
#X connect 31 0 61 0;
#X connect 32 0 94 0;
#X connect 32 0 34 0;
#X connect 33 0 3 0;
#X connect 33 0 30 0;
#X connect 34 0 35 0;
#X connect 35 0 85 0;
#X connect 37 0 83 0;
#X connect 38 0 39 0;
#X connect 39 0 37 1;
#X connect 40 0 37 1;
#X connect 41 0 38 0;
#X connect 42 0 99 0;
#X connect 43 0 16 0;
#X connect 43 0 15 0;
#X connect 44 0 62 0;
#X connect 45 0 44 0;
#X connect 45 1 60 0;
#X connect 46 0 91 0;
#X connect 47 0 3 0;
#X connect 47 0 34 0;
#X connect 49 0 50 0;
#X connect 50 0 51 0;
#X connect 50 0 54 0;
#X connect 51 0 50 1;
#X connect 54 0 56 0;
#X connect 55 0 57 0;
#X connect 55 1 52 0;
#X connect 55 2 53 0;
#X connect 56 0 55 0;
#X connect 57 0 58 0;
#X connect 58 0 95 0;
#X connect 58 0 33 0;
#X connect 59 0 58 1;
#X connect 59 0 30 1;
#X connect 60 0 70 0;
#X connect 61 0 12 0;
#X connect 61 0 4 0;
#X connect 62 0 63 0;
#X connect 62 0 66 0;
#X connect 63 0 62 1;
#X connect 66 0 68 0;
#X connect 67 0 69 0;
#X connect 67 1 64 0;
#X connect 67 2 65 0;
#X connect 68 0 67 0;
#X connect 69 0 32 0;
#X connect 70 0 62 0;
#X connect 71 0 74 0;
#X connect 72 0 73 0;
#X connect 73 0 84 0;
#X connect 74 0 50 0;
#X connect 77 0 4 0;
#X connect 78 0 12 0;
#X connect 79 0 72 0;
#X connect 80 0 73 1;
#X connect 81 0 80 0;
#X connect 82 0 3 0;
#X connect 82 0 37 0;
#X connect 84 0 49 0;
#X connect 84 1 71 0;
#X connect 85 0 4 0;
#X connect 85 0 12 0;
#X connect 86 0 34 1;
#X connect 87 0 88 0;
#X connect 87 1 89 0;
#X connect 88 0 34 0;
#X connect 88 0 42 0;
#X connect 90 0 87 0;
#X connect 91 0 42 1;
#X connect 92 0 96 0;
#X connect 93 0 97 0;
#X connect 94 0 93 0;
#X connect 95 0 93 0;
#X connect 96 1 94 0;
#X connect 97 0 48 0;
#X connect 98 0 97 1;
#X connect 99 0 34 0;
#X connect 100 0 81 0;
#X connect 101 0 92 0;
#X connect 102 0 79 0;
#X connect 102 0 103 1;
#X connect 103 0 29 0;
#X connect 104 0 45 0;
#X connect 105 0 103 0;
#X connect 106 0 105 0;
#X connect 107 0 116 1;
#X connect 108 0 116 0;
#X connect 108 0 86 0;
#X connect 109 0 108 0;
#X connect 110 0 111 0;
#X connect 111 0 116 2;
#X connect 112 0 107 0;
#X connect 113 0 109 1;
#X connect 113 0 117 1;
#X connect 114 0 110 1;
#X connect 114 0 118 1;
#X connect 115 0 112 1;
#X connect 115 0 119 1;
#X connect 116 0 78 0;
#X connect 116 0 77 0;
#X connect 117 0 121 0;
#X connect 118 0 122 0;
#X connect 119 0 120 0;
#X connect 120 0 126 0;
#X connect 121 0 123 0;
#X connect 122 0 127 0;
#X connect 123 0 127 0;
#X connect 123 1 127 1;
#X connect 124 0 116 3;
#X connect 125 0 124 0;
#X connect 125 0 59 0;
#X connect 126 0 125 0;
#X connect 126 1 125 1;
#X connect 127 0 125 0;
#X connect 128 0 117 0;
#X connect 128 0 118 0;
#X connect 128 0 119 0;
