#N canvas 785 144 1089 778 10;
#X obj 246 71 inlet;
#X obj 195 696 inlet;
#X obj 223 -163 inlet;
#X obj -155 -19 spigot-toggle_red;
#X obj 84 257 bng 15 250 50 0 empty empty empty 17 7 0 10 -262144 -1
-1;
#X obj 42 744 vline~;
#X floatatom 325 14 5 0 0 0 - - -;
#X floatatom 194 378 5 0 0 0 - - -;
#X obj 99 485 f;
#X obj 126 485 f;
#X obj -155 83 pack \$1 \$0;
#X floatatom -84 87 12 0 0 0 - - -;
#X floatatom -155 59 12 0 0 0 - - -;
#X obj -155 9 f;
#X floatatom 84 721 7 0 0 0 - - -;
#X floatatom 207 721 7 0 0 0 - - -;
#X obj 143 740 vline~;
#X obj 84 696 inlet;
#X obj 152 485 f;
#X floatatom -60 314 5 0 0 0 - - -;
#X obj -99 303 - 1;
#X obj -99 328 * -1;
#X floatatom 228 378 5 0 0 0 - - -;
#X obj 84 426 bng 15 250 50 0 empty empty empty 17 7 0 10 -262144 -1
-1;
#X obj -95 273 spigot-toggle_red;
#X floatatom 154 378 5 0 0 0 - - -;
#X obj 60 828 outlet~;
#X obj 180 485 f;
#X floatatom 269 378 5 0 0 0 - - -;
#X msg 48 696 stop;
#X msg 158 696 stop;
#X obj -23 255 - 1;
#X obj -23 280 * -1;
#X floatatom -146 -105 5 0 0 0 - - -;
#X obj 150 763 pow~ 4;
#X obj 60 775 pow~ 2;
#X obj 227 156 t b f;
#X obj 231 185 * 1;
#X obj 296 156 t b f;
#X obj 295 185 * 1;
#X obj 398 71 inlet;
#X obj 353 -102 inlet;
#X obj 211 485 f;
#X floatatom 313 378 5 0 0 0 - - -;
#X obj -149 -136 inlet;
#X obj 363 156 t b f;
#X obj 371 185 * 1;
#X obj -155 34 * 100;
#X obj 304 69 inlet;
#X floatatom 245 104 5 0 0 0 - - -;
#X floatatom 307 104 5 0 0 0 - - -;
#X floatatom 398 104 5 0 0 0 - - -;
#X obj 96 566 pack f f f f f f;
#X obj 245 485 f;
#X floatatom 375 443 5 0 0 0 - - -;
#X obj 375 423 + 1;
#X msg -4 642 \$4 \$1 \, \$4 0 \$5 \, 0 0 \$6;
#X msg 149 639 0 0 \$1 \, \$4 0 \$6 \, \$3 \$2 \$6;
#X msg -155 108 \; env1 resize \$1, f 15;
#X obj 78 -56 r bonktoenvA;
#X obj 93 -6 r øSbangA;
#X obj 110 165 r BBmod;
#X obj 200 805 tabwrite~ env1;
#X obj 325 -11 * 1;
#X obj -260 340 r trgrtoenvonoff;
#X floatatom 265 -65 5 0 0 0 - - -;
#X floatatom 337 -62 5 0 0 0 - - -;
#X obj -113 200 r trgrtoenv;
#X obj -71 261 r lo;
#X obj 27 136 r BngslcttoenvAaudiomods;
#X obj -87 395 r Abutton;
#X obj 390 631 f;
#X obj 389 654 pack f;
#X msg 389 677 0 \$1;
#X obj 375 398 t b f;
#X obj 497 500 bng 15 250 50 0 empty empty empty 17 7 0 10 -262144
-1 -1;
#X obj 506 477 bng 15 250 50 0 empty empty empty 17 7 0 10 -262144
-1 -1;
#X obj -29 555 delay;
#X obj 84 278 t b b;
#X obj -68 454 - 1;
#X obj -68 479 * -1;
#X obj -79 648 t b b;
#X obj -70 579 spigot-toggle_red;
#X obj -71 612 bng 15 250 50 0 empty empty empty 17 7 0 10 -262144
-1 -1;
#X obj 8 556 * 1;
#X obj -26 528 r BB;
#X obj -86 512 sel;
#X obj 615 494 f;
#X obj 641 494 + 1;
#X obj 605 603 bng 15 250 50 0 empty empty empty 17 7 0 10 -262144
-1 -1;
#X obj 615 540 mod 200;
#X floatatom 615 514 5 0 0 0 - - -;
#X floatatom 482 424 5 0 0 0 - - -;
#X obj 87 451 t b b b b b b;
#X obj 412 587 bng 15 250 50 0 empty empty empty 17 7 0 10 -262144
-1 -1;
#X obj -250 602 sel;
#X obj -145 794 f;
#X msg -140 851 1 \$1;
#X obj 410 564 delay;
#X obj -142 819 pack f;
#X obj -226 719 f;
#X obj -200 719 + 1;
#X obj -224 828 bng 15 250 50 0 empty empty empty 17 7 0 10 -262144
-1 -1;
#X obj -199 829 bng 15 250 50 0 empty empty empty 17 7 0 10 -262144
-1 -1;
#X obj -181 828 bng 15 250 50 0 empty empty empty 17 7 0 10 -262144
-1 -1;
#X obj -226 765 mod 200;
#X floatatom -226 739 5 0 0 0 - - -;
#X obj -254 682 bng 15 250 50 0 empty empty empty 17 7 0 10 -262144
-1 -1;
#X obj 636 602 bng 15 250 50 0 empty empty empty 17 7 0 10 -262144
-1 -1;
#X obj 481 401 spigot-toggle_red;
#X obj 291 552 r øAtiTS1;
#X obj 290 572 sel;
#X obj 546 408 r lo;
#X obj 480 443 sel;
#X floatatom 506 158 5 0 0 0 - - -;
#X floatatom 615 165 5 0 0 0 - - -;
#X floatatom 792 162 5 0 0 0 - - -;
#X floatatom 867 167 5 0 0 0 - - -;
#X obj 718 124 r trgrtoenv;
#X obj 854 187 t b f;
#X obj 615 121 r trgrtoenv;
#X msg 616 469 -1;
#X obj 616 567 sel;
#X obj 856 234 <;
#X obj -226 792 sel 0 1;
#X msg -220 679 -1;
#X obj 540 241 == 0;
#X obj 578 245 == 0;
#X floatatom 502 276 5 0 0 0 - - -;
#X floatatom 580 277 5 0 0 0 - - -;
#X obj 506 315 + 0;
#X floatatom 507 342 5 0 0 0 - - -;
#X obj -250 555 == 1;
#X obj 581 310 spigot-toggle_red;
#X floatatom 573 340 5 0 0 0 - - -;
#X obj 503 120 r trgrafter_env0;
#X obj 796 123 r trgrafter_env0;
#X connect 0 0 49 0;
#X connect 1 0 15 0;
#X connect 2 0 65 0;
#X connect 3 0 13 0;
#X connect 4 0 78 0;
#X connect 4 0 3 0;
#X connect 5 0 35 0;
#X connect 6 0 45 0;
#X connect 6 0 36 0;
#X connect 6 0 38 0;
#X connect 6 0 13 1;
#X connect 6 0 84 0;
#X connect 7 0 9 1;
#X connect 7 0 71 1;
#X connect 8 0 52 0;
#X connect 9 0 52 1;
#X connect 10 0 58 0;
#X connect 11 0 10 1;
#X connect 12 0 10 0;
#X connect 13 0 47 0;
#X connect 14 0 35 1;
#X connect 15 0 34 1;
#X connect 16 0 34 0;
#X connect 17 0 14 0;
#X connect 18 0 52 2;
#X connect 19 0 22 0;
#X connect 20 0 21 0;
#X connect 21 0 19 0;
#X connect 22 0 18 1;
#X connect 23 0 93 0;
#X connect 24 0 20 0;
#X connect 24 0 28 0;
#X connect 25 0 8 1;
#X connect 25 0 74 0;
#X connect 25 0 96 1;
#X connect 27 0 52 3;
#X connect 28 0 27 1;
#X connect 29 0 5 0;
#X connect 30 0 16 0;
#X connect 31 0 32 0;
#X connect 32 0 28 0;
#X connect 33 0 3 1;
#X connect 34 0 26 0;
#X connect 34 0 62 0;
#X connect 35 0 26 0;
#X connect 35 0 62 0;
#X connect 36 0 37 0;
#X connect 36 1 37 1;
#X connect 37 0 25 0;
#X connect 38 0 39 0;
#X connect 38 1 39 1;
#X connect 39 0 43 0;
#X connect 40 0 51 0;
#X connect 41 0 66 0;
#X connect 42 0 52 4;
#X connect 43 0 42 1;
#X connect 43 0 55 0;
#X connect 44 0 33 0;
#X connect 45 0 46 0;
#X connect 45 1 46 1;
#X connect 46 0 7 0;
#X connect 47 0 12 0;
#X connect 48 0 50 0;
#X connect 49 0 37 0;
#X connect 50 0 39 0;
#X connect 51 0 46 0;
#X connect 52 0 57 0;
#X connect 52 0 56 0;
#X connect 53 0 52 5;
#X connect 54 0 53 1;
#X connect 54 0 98 1;
#X connect 55 0 54 0;
#X connect 56 0 5 0;
#X connect 57 0 16 0;
#X connect 59 0 3 0;
#X connect 60 0 3 0;
#X connect 61 0 4 0;
#X connect 63 0 6 0;
#X connect 64 0 24 1;
#X connect 64 0 31 0;
#X connect 64 0 22 0;
#X connect 64 0 109 1;
#X connect 65 0 63 1;
#X connect 66 0 63 0;
#X connect 67 0 24 0;
#X connect 67 0 95 0;
#X connect 68 0 24 1;
#X connect 69 0 4 0;
#X connect 69 0 3 0;
#X connect 70 0 79 0;
#X connect 70 0 86 0;
#X connect 71 0 72 0;
#X connect 72 0 73 0;
#X connect 73 0 16 0;
#X connect 73 0 5 0;
#X connect 74 0 55 0;
#X connect 74 1 55 1;
#X connect 75 0 121 0;
#X connect 76 0 87 0;
#X connect 77 0 82 0;
#X connect 78 0 62 0;
#X connect 78 1 23 0;
#X connect 79 0 80 0;
#X connect 80 0 82 1;
#X connect 81 0 62 0;
#X connect 82 0 83 0;
#X connect 83 0 81 0;
#X connect 83 0 96 0;
#X connect 84 0 77 1;
#X connect 85 0 77 0;
#X connect 86 0 77 0;
#X connect 87 0 88 0;
#X connect 87 0 91 0;
#X connect 88 0 87 1;
#X connect 89 0 98 0;
#X connect 89 0 62 0;
#X connect 90 0 122 0;
#X connect 91 0 90 0;
#X connect 92 0 113 0;
#X connect 93 0 8 0;
#X connect 93 1 9 0;
#X connect 93 2 18 0;
#X connect 93 3 27 0;
#X connect 93 4 42 0;
#X connect 93 5 53 0;
#X connect 94 0 71 0;
#X connect 95 0 107 0;
#X connect 95 1 125 0;
#X connect 96 0 99 0;
#X connect 97 0 5 0;
#X connect 98 0 94 0;
#X connect 99 0 97 0;
#X connect 100 0 101 0;
#X connect 100 0 106 0;
#X connect 101 0 100 1;
#X connect 102 0 96 0;
#X connect 102 0 62 0;
#X connect 105 0 124 0;
#X connect 106 0 105 0;
#X connect 107 0 100 0;
#X connect 109 0 92 0;
#X connect 110 0 111 0;
#X connect 111 0 94 0;
#X connect 111 1 83 0;
#X connect 112 0 109 1;
#X connect 113 0 75 0;
#X connect 113 1 76 0;
#X connect 114 0 126 0;
#X connect 115 0 127 0;
#X connect 116 0 123 0;
#X connect 117 0 119 0;
#X connect 118 0 116 0;
#X connect 119 0 123 0;
#X connect 119 1 123 1;
#X connect 120 0 115 0;
#X connect 121 0 87 0;
#X connect 122 0 89 0;
#X connect 122 1 108 0;
#X connect 123 0 133 0;
#X connect 124 0 102 0;
#X connect 124 1 103 0;
#X connect 125 0 100 0;
#X connect 126 0 128 0;
#X connect 127 0 129 0;
#X connect 128 0 130 0;
#X connect 129 0 130 1;
#X connect 129 0 133 1;
#X connect 130 0 131 0;
#X connect 131 0 132 0;
#X connect 133 0 134 0;
#X connect 134 0 109 0;
#X connect 135 0 114 0;
#X connect 136 0 117 0;
