#N canvas 415 0 925 1028 10;
#X obj 1066 396 inlet;
#X obj 1256 750 inlet;
#X obj 1322 391 inlet;
#X obj 1082 750 inlet;
#X obj 1143 896 outlet~;
#X obj 1128 396 inlet;
#X obj 1179 396 inlet;
#X obj 1316 444 outlet;
#X obj 1257 273 bng 20 250 50 0 empty empty empty 17 7 0 10 -4034 -1
-1;
#X obj 1032 817 vline~;
#X floatatom 1279 446 5 0 0 0 - - -;
#X floatatom 1190 510 5 0 0 0 - - -;
#X obj 1034 664 f;
#X obj 1063 663 f;
#X floatatom 1074 794 7 0 0 0 - - -;
#X floatatom 1247 801 7 0 0 0 - - -;
#X obj 1183 820 vline~;
#X obj 1089 663 f;
#X obj 1045 378 bng 15 250 50 0 empty empty empty 17 7 0 10 -262144
-1 -1;
#X floatatom 1056 510 5 0 0 0 - - -;
#X msg 1038 769 stop;
#X msg 1198 776 stop;
#X obj 1190 843 pow~ 4;
#X obj 1050 848 pow~ 2;
#X obj 1066 453 t b f;
#X obj 1066 482 * 1;
#X obj 1129 450 t b f;
#X obj 1128 482 * 1;
#X floatatom 1125 510 5 0 0 0 - - -;
#X obj 1179 453 t b f;
#X obj 1179 482 * 1;
#X floatatom 1066 425 5 0 0 0 - - -;
#X floatatom 1128 425 5 0 0 0 - - -;
#X floatatom 1179 425 5 0 0 0 - - -;
#X obj 1121 661 f;
#X obj 1281 422 * 1;
#X floatatom 1318 411 5 0 0 0 - - -;
#X floatatom 1280 390 5 0 0 0 - - -;
#X obj 1354 701 f;
#X obj 1353 731 pack f;
#X obj 1151 296 bng 20 250 50 0 empty empty empty 17 7 0 10 -258113
-1 -1;
#X obj 1175 297 bng 20 250 50 0 empty empty empty 17 7 0 10 -260097
-1 -1;
#X msg 1350 754 0 \$1;
#X obj 1280 370 r T$mod;
#X obj 1257 252 r BBmod;
#X obj 1689 461 bng 15 250 50 0 empty empty empty 17 7 0 10 -262144
-1 -1;
#X obj 1688 506 f;
#X obj 1714 506 + 1;
#X obj 1705 610 bng 15 250 50 0 empty empty empty 17 7 0 10 -262144
-1 -1;
#X obj 1723 610 bng 15 250 50 0 empty empty empty 17 7 0 10 -262144
-1 -1;
#X floatatom 1688 526 5 0 0 0 - - -;
#X obj 1688 582 sel 0 1;
#X obj 1688 554 mod 200;
#X obj 1688 610 bng 15 250 50 0 empty empty empty 17 7 0 10 -262144
-1 -1;
#X obj 1695 643 delay 0;
#X obj 1717 461 bng 15 250 50 0 empty empty empty 17 7 0 10 -262144
-1 -1;
#X floatatom 1696 270 5 0 0 0 - - -;
#X obj 1693 413 +;
#X msg 1708 482 -1;
#X obj 1696 248 == 1;
#X floatatom 1706 377 5 0 0 0 - - -;
#X obj 1706 356 == 0;
#X obj 1693 434 sel 2;
#X obj 1706 335 r trgrAmod;
#X obj 1696 226 r trgrafterAmod;
#X obj 859 727 f;
#X obj 860 751 pack f;
#X msg 1033 711 1 \$1 \, 1 0 \$3 \, 0 0 \$4;
#X obj 1303 298 spigot-toggle_red;
#X obj 916 235 delay 11;
#X obj 951 193 r T$mod;
#X obj 910 169 sel;
#X obj 894 200 bng 15 250 50 0 empty empty empty 17 7 0 10 -262144
-1 -1;
#X obj 930 193 bng 15 250 50 0 empty empty empty 17 7 0 10 -262144
-1 -1;
#X obj 908 147 r Abutton;
#X obj 913 262 bng 15 250 50 0 empty empty empty 17 7 0 10 -262144
-1 -1;
#X obj 839 183 bng 15 250 50 0 empty empty empty 17 7 0 10 -262144
-1 -1;
#X obj 817 147 r TRGnA_@load;
#X obj 1040 185 r trgrtoenvonoff;
#X floatatom 1021 253 5 0 0 0 - - -;
#X obj 984 322 spigot-toggle_red;
#X obj 1044 206 - 1;
#X obj 1044 231 * -1;
#X obj 1021 166 r lo;
#X obj 1152 120 bng 15 250 50 0 empty empty empty 17 7 0 10 -262144
-1 -1;
#X obj 1153 96 sel;
#X obj 1172 121 bng 15 250 50 0 empty empty empty 17 7 0 10 -262144
-1 -1;
#X obj 1152 169 f;
#X obj 1178 169 + 1;
#X obj 1170 251 bng 15 250 50 0 empty empty empty 17 7 0 10 -262144
-1 -1;
#X obj 1188 251 bng 15 250 50 0 empty empty empty 17 7 0 10 -262144
-1 -1;
#X floatatom 1152 189 5 0 0 0 - - -;
#X obj 1150 230 sel 0 1;
#X obj 1151 209 mod 200;
#X obj 1150 251 bng 15 250 50 0 empty empty empty 17 7 0 10 -262144
-1 -1;
#X msg 1166 145 -1;
#X obj 1201 298 bng 20 250 50 0 empty empty empty 17 7 0 10 -4034 -1
-1;
#X obj 957 211 * 1;
#X msg 1184 715 0 0 \$1 \, 1 0 \$4 \, 0 \$2 \$4;
#X obj 1038 687 pack f f f f;
#X obj 1041 591 t b b b b;
#X obj 1300 526 t b f;
#X floatatom 1302 570 5 0 0 0 - - -;
#X obj 758 321 delay;
#X obj 758 342 bng 20 250 50 0 empty empty empty 17 7 0 10 -260097
-1 -1;
#X floatatom 786 297 5 0 0 0 - - -;
#X obj 697 320 bng 20 250 50 0 empty empty empty 17 7 0 10 -260097
-1 -1;
#X msg 696 352 1;
#X obj 716 578 pack f f;
#X obj 782 578 pack f f;
#X obj 725 521 f;
#X obj 817 524 f;
#X obj 715 609 line;
#X floatatom 714 704 7 0 0 0 - - -;
#X msg 769 416 0;
#X floatatom 768 660 5 0 0 0 - - -;
#X obj 768 638 == 1;
#X obj 768 616 r trgrafterAmod;
#X obj 770 479 spigot-toggle_red;
#X msg 726 664 0;
#X obj 701 211 spigot-toggle_red;
#X obj 711 165 - 1;
#X obj 711 186 * -1;
#X obj 704 245 delay;
#X obj 1352 526 t b f;
#X floatatom 1354 570 5 0 0 0 - - -;
#X obj 1355 549 +;
#X obj 714 724 s opaENVA;
#X obj 1301 549 -;
#X obj 1124 335 t b f;
#X obj 1128 364 - 1;
#X msg 861 773 0.5 \$1;
#X obj 873 705 * 1;
#X obj 1461 492 t b f;
#X floatatom 1463 536 5 0 0 0 - - -;
#X obj 1318 214 r envfromaudiomodAtoA;
#X obj 1318 188 r envfromaudiomodBtoA;
#X obj 1299 160 bng 20 250 50 0 empty empty empty 17 7 0 10 -4034 -1
-1;
#X obj 1298 185 spigot-toggle_red;
#X obj 1299 138 r BBBmod;
#X obj 1464 515 -;
#X obj 1153 71 r trgrafterAmod;
#X connect 0 0 31 0;
#X connect 1 0 15 0;
#X connect 2 0 36 0;
#X connect 3 0 14 0;
#X connect 5 0 32 0;
#X connect 6 0 33 0;
#X connect 8 0 68 0;
#X connect 9 0 23 0;
#X connect 10 0 24 0;
#X connect 10 0 7 0;
#X connect 10 0 29 0;
#X connect 10 0 130 0;
#X connect 10 0 140 0;
#X connect 11 0 13 1;
#X connect 11 0 38 1;
#X connect 11 0 109 1;
#X connect 11 0 111 1;
#X connect 11 0 124 0;
#X connect 11 0 133 0;
#X connect 12 0 99 0;
#X connect 13 0 99 1;
#X connect 14 0 23 1;
#X connect 15 0 22 1;
#X connect 16 0 22 0;
#X connect 17 0 99 2;
#X connect 18 0 100 0;
#X connect 19 0 12 1;
#X connect 19 0 108 1;
#X connect 19 0 110 1;
#X connect 19 0 101 0;
#X connect 19 0 129 0;
#X connect 19 0 132 0;
#X connect 20 0 9 0;
#X connect 21 0 16 0;
#X connect 22 0 4 0;
#X connect 23 0 4 0;
#X connect 24 0 25 0;
#X connect 24 1 25 1;
#X connect 25 0 19 0;
#X connect 26 0 27 0;
#X connect 26 1 27 1;
#X connect 27 0 28 0;
#X connect 28 0 17 1;
#X connect 28 0 126 0;
#X connect 28 0 128 0;
#X connect 29 0 30 0;
#X connect 29 1 30 1;
#X connect 30 0 11 0;
#X connect 31 0 25 0;
#X connect 32 0 27 0;
#X connect 33 0 30 0;
#X connect 34 0 99 3;
#X connect 35 0 10 0;
#X connect 36 0 35 1;
#X connect 37 0 35 0;
#X connect 38 0 39 0;
#X connect 39 0 42 0;
#X connect 40 0 80 0;
#X connect 41 0 38 0;
#X connect 41 0 104 0;
#X connect 42 0 16 0;
#X connect 42 0 9 0;
#X connect 43 0 37 0;
#X connect 44 0 8 0;
#X connect 45 0 46 0;
#X connect 46 0 47 0;
#X connect 46 0 50 0;
#X connect 47 0 46 1;
#X connect 50 0 52 0;
#X connect 51 0 53 0;
#X connect 51 1 48 0;
#X connect 51 2 49 0;
#X connect 52 0 51 0;
#X connect 53 0 54 0;
#X connect 54 0 41 0;
#X connect 54 0 119 0;
#X connect 55 0 58 0;
#X connect 56 0 57 0;
#X connect 56 0 68 1;
#X connect 57 0 62 0;
#X connect 58 0 46 0;
#X connect 59 0 56 0;
#X connect 60 0 57 1;
#X connect 61 0 60 0;
#X connect 62 0 45 0;
#X connect 62 1 55 0;
#X connect 63 0 61 0;
#X connect 64 0 59 0;
#X connect 65 0 66 0;
#X connect 66 0 131 0;
#X connect 67 0 9 0;
#X connect 68 0 96 0;
#X connect 68 0 103 0;
#X connect 68 0 106 0;
#X connect 69 0 75 0;
#X connect 70 0 97 0;
#X connect 71 0 72 0;
#X connect 71 1 73 0;
#X connect 72 0 69 0;
#X connect 72 0 75 0;
#X connect 74 0 71 0;
#X connect 74 0 121 0;
#X connect 75 0 65 0;
#X connect 75 0 106 0;
#X connect 76 0 69 0;
#X connect 77 0 76 0;
#X connect 78 0 81 0;
#X connect 79 0 80 1;
#X connect 80 0 65 0;
#X connect 81 0 82 0;
#X connect 82 0 79 0;
#X connect 83 0 79 0;
#X connect 84 0 87 0;
#X connect 85 0 84 0;
#X connect 85 1 86 0;
#X connect 86 0 95 0;
#X connect 87 0 88 0;
#X connect 87 0 91 0;
#X connect 88 0 87 1;
#X connect 91 0 93 0;
#X connect 92 0 94 0;
#X connect 92 1 89 0;
#X connect 92 2 90 0;
#X connect 93 0 92 0;
#X connect 94 0 40 0;
#X connect 95 0 87 0;
#X connect 96 0 18 0;
#X connect 97 0 69 1;
#X connect 98 0 16 0;
#X connect 99 0 98 0;
#X connect 99 0 67 0;
#X connect 100 0 12 0;
#X connect 100 1 13 0;
#X connect 100 2 17 0;
#X connect 100 3 34 0;
#X connect 101 0 128 0;
#X connect 101 1 128 1;
#X connect 102 0 34 1;
#X connect 102 0 105 0;
#X connect 103 0 104 0;
#X connect 104 0 111 0;
#X connect 104 0 114 0;
#X connect 104 0 120 0;
#X connect 105 0 103 1;
#X connect 106 0 107 0;
#X connect 107 0 108 0;
#X connect 107 0 110 0;
#X connect 108 0 112 0;
#X connect 109 0 112 0;
#X connect 110 0 108 1;
#X connect 111 0 109 1;
#X connect 112 0 113 0;
#X connect 113 0 127 0;
#X connect 114 0 118 0;
#X connect 115 0 118 1;
#X connect 116 0 115 0;
#X connect 117 0 116 0;
#X connect 118 0 109 0;
#X connect 119 0 108 0;
#X connect 120 0 123 0;
#X connect 121 0 122 0;
#X connect 122 0 120 1;
#X connect 123 0 106 0;
#X connect 124 0 126 0;
#X connect 124 1 126 1;
#X connect 125 0 123 1;
#X connect 126 0 125 0;
#X connect 128 0 102 0;
#X connect 129 0 130 0;
#X connect 129 1 130 1;
#X connect 130 0 26 0;
#X connect 131 0 9 0;
#X connect 131 0 16 0;
#X connect 132 0 65 1;
#X connect 133 0 140 0;
#X connect 133 1 140 1;
#X connect 134 0 54 1;
#X connect 135 0 68 1;
#X connect 136 0 138 1;
#X connect 136 0 68 1;
#X connect 137 0 138 0;
#X connect 138 0 68 0;
#X connect 139 0 137 0;
#X connect 140 0 134 0;
#X connect 141 0 85 0;
