#N canvas 0 162 1322 866 10;
#X floatatom 796 -625 5 0 0 0 - - -;
#X obj 628 -675 inlet;
#X obj 798 -691 inlet;
#X floatatom 881 -621 5 0 0 0 - - -;
#X obj 878 -684 inlet;
#X obj 820 -433 *;
#X obj 817 -459 t b f;
#X obj 1084 -252 delay;
#X floatatom 818 -410 5 0 0 0 - - -;
#X obj 811 -249 delay;
#X obj 902 -272 t b f;
#X floatatom 930 -316 5 0 0 0 - - -;
#X floatatom 904 -226 12 0 0 0 - - -;
#X obj 774 -540 * 1;
#X obj 903 -247 * 1;
#X obj 1082 -714 inlet;
#X obj 868 -541 r lo;
#X obj 862 -102 outlet~;
#X obj 864 -135 vline~;
#X obj 1082 -150 pack f f;
#X obj 812 -186 pack f f;
#X obj 643 -628 bng 15 250 50 0 empty empty empty 17 7 0 10 -262144
-1 -1;
#X obj 833 -863 *;
#X floatatom 831 -840 5 0 0 0 - - -;
#X obj 880 -889 - 1;
#X obj 879 -864 * -1;
#X floatatom 877 -840 5 0 0 0 - - -;
#X obj 833 -889 t b f;
#X msg 863 -494 0;
#X obj 1085 -274 bng 15 250 50 0 empty empty empty 17 7 0 10 -262144
-1 -1;
#X obj 813 -273 bng 15 250 50 0 empty empty empty 17 7 0 10 -262144
-1 -1;
#X obj 643 -574 spigot-toggle_jaunenoir;
#X obj 654 -609 r lo;
#X obj 1136 -466 t b f;
#X floatatom 1138 -424 12 0 0 0 - - -;
#X text 1050 -624 crop;
#X obj 1309 -468 t b f;
#X floatatom 1307 -416 12 0 0 0 - - -;
#X text 1178 -498 T*Bang/inv/T*ramp;
#X obj 2609 -260 t b f;
#X floatatom 1394 -582 12 0 0 0 - - -;
#X obj 2609 -226 *;
#X obj 1139 -444 * 1;
#X obj 1309 -442 * 1;
#X floatatom 744 87 5 0 0 0 - - -;
#X obj 821 -21 line;
#X floatatom 822 1 12 0 0 0 - - -;
#X obj 641 -542 bng 15 250 50 0 empty empty empty 17 7 0 10 -262144
-1 -1;
#X obj 774 -560 f;
#X obj 856 -272 r lo;
#X obj 1086 -172 f;
#X obj 809 -210 f;
#X msg 855 -244 1;
#X obj 597 -173 spigot-toggle_jaunenoir;
#X obj 597 -273 spigot-toggle_jaunenoir;
#X obj 604 -330 - 1;
#X obj 604 -305 * -1;
#X obj 683 -403 spigot-toggle_jaunenoir;
#X obj 674 -427 r lo;
#X obj 736 -317 - 1;
#X obj 732 -294 * -1;
#X obj 389 -453 - 1;
#X obj 389 -430 * -1;
#X obj 645 -268 sel;
#X obj 647 -293 spigot-toggle_jaunenoir;
#X obj 659 -325 r lo;
#X obj 609 -448 r slctdisplayonoff1;
#X obj 596 -481 delay;
#X obj 389 -476 r ø>1;
#X obj 597 -141 s b@B;
#X obj 692 -185 r @B;
#X obj 1139 -282 - 1;
#X obj 1139 -257 * -1;
#X floatatom 1124 -171 5 0 0 0 - - -;
#X obj 812 -226 bng 15 250 50 0 empty empty empty 17 7 0 10 -262144
-1 -1;
#X obj 1196 -238 r ø@S1;
#X obj 1202 -210 sel;
#X msg 1200 -172 0;
#X obj 905 45 hsl 128 15 -2 2 0 0 empty empty empty -2 -8 0 10 -262144
-1 -1 9525 1;
#X obj 1402 -461 inlet;
#X obj 931 -346 inlet;
#X floatatom 1389 -502 12 0 0 0 - - -;
#X obj 1386 -561 - 1;
#X obj 1386 -536 * -1;
#X floatatom 1086 -623 5 0 0 0 - - -;
#X obj 1088 -444 *;
#X obj 1085 -470 t b f;
#X floatatom 1086 -421 5 0 0 0 - - -;
#X obj 1315 -521 *;
#X floatatom 1313 -498 5 0 0 0 - - -;
#X floatatom 1317 -575 5 0 0 0 - - -;
#X obj 1315 -547 t b f;
#X obj 1357 -370 t b f;
#X floatatom 1359 -328 12 0 0 0 - - -;
#X obj 1360 -348 * 1;
#X floatatom 1399 -348 12 0 0 0 - - -;
#X obj 716 -665 t b b b;
#X obj 1081 -206 bng 15 250 50 0 empty empty empty 17 7 0 10 -262144
-1 -1;
#X obj 744 109 s ramptoof1;
#X text 846 -623 crop;
#X text 759 -625 time;
#X floatatom 979 -345 5 0 0 0 - - -;
#X obj 977 -326 t b f;
#X obj 743 66 * 1;
#X obj 976 -301 * 1;
#X obj 980 -367 r envfadreducin1;
#X obj 1398 -401 r envfadreducout1;
#X obj 341 -246 bng 15 250 50 0 empty empty empty 17 7 0 10 -262144
-1 -1;
#X obj 250 -270 spigot-toggle_jaunenoir;
#X obj 245 -235 bng 15 250 50 0 empty empty empty 17 7 0 10 -262144
-1 -1;
#X floatatom 501 -305 5 0 0 0 - - -;
#X obj 447 -152 delay 100;
#X obj 239 -298 r bonkBB;
#X obj 250 -337 r bonkAouBtoenvB;
#X obj 355 -264 r recordlivemidiloopBNGB;
#X obj 357 -227 r env_recmidi_inB;
#X obj 503 -369 r envRNGmidiloopB;
#X obj 1149 -74 s gateinB;
#X obj 530 15 r øSbangB;
#X obj 524 78 bng 15 250 50 0 empty empty empty 17 7 0 10 -262144 -1
-1;
#X obj 924 -474 r øSbangB;
#X connect 0 0 48 1;
#X connect 0 0 67 1;
#X connect 0 0 10 0;
#X connect 0 0 85 0;
#X connect 1 0 21 0;
#X connect 2 0 0 0;
#X connect 3 0 6 0;
#X connect 3 0 24 0;
#X connect 4 0 3 0;
#X connect 5 0 8 0;
#X connect 6 0 5 0;
#X connect 6 1 5 1;
#X connect 7 0 97 0;
#X connect 8 0 9 1;
#X connect 9 0 74 0;
#X connect 10 0 14 0;
#X connect 10 1 14 1;
#X connect 11 0 104 0;
#X connect 12 0 20 1;
#X connect 13 0 5 0;
#X connect 13 0 22 0;
#X connect 13 0 88 0;
#X connect 14 0 12 0;
#X connect 15 0 84 0;
#X connect 16 0 28 0;
#X connect 18 0 17 0;
#X connect 19 0 45 0;
#X connect 19 0 18 0;
#X connect 20 0 45 0;
#X connect 20 0 18 0;
#X connect 21 0 31 0;
#X connect 22 0 23 0;
#X connect 24 0 25 0;
#X connect 25 0 26 0;
#X connect 26 0 27 0;
#X connect 27 0 22 0;
#X connect 27 1 22 1;
#X connect 28 0 24 0;
#X connect 28 0 6 0;
#X connect 29 0 7 0;
#X connect 30 0 9 0;
#X connect 30 0 29 0;
#X connect 31 0 47 0;
#X connect 32 0 31 1;
#X connect 33 0 42 0;
#X connect 33 1 42 1;
#X connect 34 0 7 1;
#X connect 36 0 43 0;
#X connect 36 1 43 1;
#X connect 37 0 19 1;
#X connect 39 0 41 0;
#X connect 39 1 41 1;
#X connect 40 0 82 0;
#X connect 42 0 34 0;
#X connect 43 0 37 0;
#X connect 44 0 98 0;
#X connect 45 0 46 0;
#X connect 46 0 78 0;
#X connect 46 0 103 0;
#X connect 47 0 96 0;
#X connect 47 0 30 0;
#X connect 47 0 67 0;
#X connect 48 0 13 0;
#X connect 49 0 52 0;
#X connect 50 0 19 0;
#X connect 51 0 20 0;
#X connect 52 0 51 1;
#X connect 52 0 46 0;
#X connect 52 0 74 0;
#X connect 53 0 69 0;
#X connect 53 0 9 0;
#X connect 54 0 53 0;
#X connect 55 0 56 0;
#X connect 56 0 54 1;
#X connect 57 0 71 0;
#X connect 58 0 57 1;
#X connect 59 0 60 0;
#X connect 60 0 57 1;
#X connect 60 0 73 0;
#X connect 61 0 62 0;
#X connect 62 0 57 1;
#X connect 62 0 64 1;
#X connect 62 0 73 0;
#X connect 63 0 74 0;
#X connect 64 0 63 0;
#X connect 65 0 64 1;
#X connect 66 0 55 0;
#X connect 66 0 57 0;
#X connect 66 0 64 0;
#X connect 67 0 54 0;
#X connect 68 0 61 0;
#X connect 70 0 53 1;
#X connect 70 0 59 0;
#X connect 71 0 72 0;
#X connect 72 0 73 0;
#X connect 73 0 50 1;
#X connect 74 0 51 0;
#X connect 74 0 117 0;
#X connect 75 0 76 0;
#X connect 76 1 77 0;
#X connect 77 0 73 0;
#X connect 79 0 92 0;
#X connect 80 0 11 0;
#X connect 81 0 42 0;
#X connect 82 0 83 0;
#X connect 83 0 81 0;
#X connect 84 0 86 0;
#X connect 84 0 90 0;
#X connect 85 0 87 0;
#X connect 86 0 85 0;
#X connect 86 1 85 1;
#X connect 87 0 33 0;
#X connect 88 0 89 0;
#X connect 89 0 36 0;
#X connect 90 0 91 0;
#X connect 91 0 88 0;
#X connect 91 1 88 1;
#X connect 92 0 94 0;
#X connect 92 1 94 1;
#X connect 93 0 43 0;
#X connect 93 0 40 0;
#X connect 94 0 93 0;
#X connect 95 0 94 0;
#X connect 96 2 48 0;
#X connect 97 0 50 0;
#X connect 101 0 102 0;
#X connect 102 0 104 0;
#X connect 102 1 104 1;
#X connect 103 0 44 0;
#X connect 104 0 14 0;
#X connect 105 0 101 0;
#X connect 106 0 95 0;
#X connect 107 0 111 0;
#X connect 108 0 109 0;
#X connect 109 0 30 0;
#X connect 110 0 111 1;
#X connect 110 0 0 0;
#X connect 111 0 74 0;
#X connect 112 0 108 0;
#X connect 113 0 108 1;
#X connect 113 0 71 0;
#X connect 114 0 107 0;
#X connect 115 0 74 0;
#X connect 116 0 110 0;
#X connect 118 0 119 0;
#X connect 120 0 30 0;
