#N canvas 2174 0 1855 931 10;
#X obj 972 575 inlet;
#X obj 1067 537 inlet;
#X obj 779 655 inlet;
#X floatatom 1074 606 5 0 0 0 - - -;
#X obj 1197 855 inlet;
#X obj 1284 866 inlet;
#X obj 331 453 inlet;
#X obj 734 1138 outlet~;
#X obj 375 511 spigot-toggle_red;
#X obj 721 842 pack f f;
#X obj 665 687 t b b;
#X obj 664 651 bng 15 250 50 0 empty empty empty 17 7 0 10 -262144
-1 -1;
#X obj 707 1016 vline~;
#X obj 815 1038 pow~ 0.2;
#X obj 707 1038 pow~ 4;
#X floatatom 734 577 5 0 0 0 - - -;
#X obj 932 676 t b f;
#X obj 934 696 * 1;
#X floatatom 890 798 5 0 0 0 - - -;
#X obj 891 752 t b f;
#X obj 891 775 * 1;
#X floatatom 920 775 5 0 0 0 - - -;
#X floatatom 934 717 5 0 0 0 - - -;
#X floatatom 453 545 5 0 0 0 - - -;
#X obj 720 806 f;
#X obj 764 805 f;
#X floatatom 452 572 12 0 0 0 - - -;
#X obj 425 809 pack \$1 \$0;
#X floatatom 507 778 12 0 0 0 - - -;
#X floatatom 426 779 12 0 0 0 - - -;
#X obj 426 737 f;
#X obj 720 771 delay;
#X obj 732 677 t b f;
#X obj 733 698 * 1;
#X floatatom 769 698 5 0 0 0 - - -;
#X floatatom 732 719 5 0 0 0 - - -;
#X msg 707 876 1 \$1 \, 0 0 \$1;
#X msg 812 876 1 0 \$1 \, 0 \$2 \$1;
#X obj 891 676 t b f;
#X floatatom 892 721 5 0 0 0 - - -;
#X obj 891 699 - 0;
#X obj 815 1016 vline~;
#X obj 425 758 * 100;
#X floatatom 983 626 5 0 0 0 - - -;
#X msg 425 835 \; env1 resize \$1, f 15;
#X obj 637 1138 tabwrite~ env1;
#X obj 453 521 r T$mod;
#X obj 748 447 r bonktoenvA;
#X obj 792 490 r øSbangA;
#X obj 379 459 r BngtoenvA;
#X obj 663 629 r BBmod;
#X obj 367 997 spigot-toggle_red;
#X obj 365 1025 sel;
#X msg 504 1048 1 \$1;
#X obj 363 1048 bng 15 250 50 0 empty empty empty 17 7 0 10 -262144
-1 -1;
#X obj 506 986 f;
#X obj 496 1015 pack f;
#X obj 382 963 r trgrtoenvonoff;
#X obj 358 937 r trgrmodAA;
#X obj 412 997 r lo;
#X connect 0 0 43 0;
#X connect 1 0 3 0;
#X connect 2 0 34 0;
#X connect 3 0 21 0;
#X connect 4 0 13 1;
#X connect 5 0 14 1;
#X connect 6 0 8 1;
#X connect 8 0 30 0;
#X connect 9 0 37 0;
#X connect 9 0 36 0;
#X connect 10 0 45 0;
#X connect 10 1 31 0;
#X connect 11 0 10 0;
#X connect 12 0 14 0;
#X connect 13 0 45 0;
#X connect 13 0 7 0;
#X connect 14 0 45 0;
#X connect 14 0 7 0;
#X connect 15 0 16 0;
#X connect 15 0 32 0;
#X connect 15 0 40 0;
#X connect 16 0 17 0;
#X connect 16 1 17 1;
#X connect 17 0 22 0;
#X connect 18 0 25 1;
#X connect 19 0 20 0;
#X connect 19 1 20 1;
#X connect 20 0 18 0;
#X connect 21 0 20 0;
#X connect 22 0 38 0;
#X connect 22 0 24 1;
#X connect 22 0 55 1;
#X connect 23 0 26 0;
#X connect 23 0 15 0;
#X connect 24 0 9 0;
#X connect 25 0 9 1;
#X connect 26 0 30 1;
#X connect 27 0 44 0;
#X connect 28 0 27 1;
#X connect 29 0 27 0;
#X connect 30 0 42 0;
#X connect 31 0 25 0;
#X connect 31 0 24 0;
#X connect 32 0 33 0;
#X connect 32 1 33 1;
#X connect 33 0 35 0;
#X connect 34 0 33 0;
#X connect 35 0 31 1;
#X connect 36 0 12 0;
#X connect 37 0 41 0;
#X connect 38 0 40 0;
#X connect 38 1 40 1;
#X connect 39 0 19 0;
#X connect 40 0 39 0;
#X connect 41 0 13 0;
#X connect 42 0 29 0;
#X connect 43 0 17 0;
#X connect 46 0 23 0;
#X connect 47 0 11 0;
#X connect 47 0 8 0;
#X connect 48 0 11 0;
#X connect 48 0 8 0;
#X connect 49 0 8 0;
#X connect 50 0 11 0;
#X connect 51 0 52 0;
#X connect 52 0 54 0;
#X connect 53 0 12 0;
#X connect 54 0 55 0;
#X connect 55 0 56 0;
#X connect 56 0 53 0;
#X connect 57 0 51 1;
#X connect 58 0 51 0;
#X connect 59 0 51 1;
