#N canvas 78 0 1280 1026 10;
#X obj 965 537 inlet;
#X obj 1047 473 inlet;
#X obj 523 465 inlet;
#X obj 603 954 inlet;
#X obj 102 217 inlet;
#X obj 73 247 spigot-toggle_red;
#X obj 175 235 r bonktoenvB;
#X obj 174 256 r øSbangB;
#X obj 445 514 t b b;
#X obj 442 493 bng 15 250 50 0 empty empty empty 17 7 0 10 -262144
-1 -1;
#X obj 448 978 vline~;
#X obj 560 1069 tabwrite~ env5;
#X floatatom 556 341 5 0 0 0 - - -;
#X obj 930 555 t b f;
#X obj 920 575 * 1;
#X floatatom 554 647 5 0 0 0 - - -;
#X obj 1004 553 t b f;
#X obj 1004 576 * 1;
#X floatatom 1043 552 5 0 0 0 - - -;
#X obj 459 757 f;
#X obj 486 757 f;
#X floatatom 553 294 12 0 0 0 - - -;
#X obj 84 374 pack \$1 \$0;
#X floatatom 155 373 12 0 0 0 - - -;
#X floatatom 85 344 12 0 0 0 - - -;
#X obj 71 298 f;
#X msg 84 400 \; env5 resize \$1, f 15;
#X obj 451 679 delay;
#X obj 487 513 t b f;
#X obj 488 534 * 1;
#X floatatom 527 512 5 0 0 0 - - -;
#X floatatom 487 555 5 0 0 0 - - -;
#X floatatom 494 978 7 0 0 0 - - -;
#X floatatom 604 978 7 0 0 0 - - -;
#X obj 559 978 vline~;
#X obj 492 954 inlet;
#X floatatom 971 555 5 0 0 0 - - -;
#X obj 88 190 r BB1;
#X obj 222 880 r Bbutton;
#X floatatom 220 908 12 0 0 0 - - -;
#X obj 198 677 r trgrtoenvB;
#X msg 1107 847 1 0 \$1 \, 0 \$2 \$1;
#X msg 1045 919 1 \$1 \, \$3 0 \$1;
#X obj 208 938 sel;
#X obj 512 756 f;
#X floatatom 179 802 5 0 0 0 - - -;
#X msg 1154 918 1 \$3 \$1 \, \$3 \$2 \$1;
#X obj 179 750 - 1;
#X obj 180 771 * -1;
#X floatatom 594 647 5 0 0 0 - - -;
#X obj 459 605 bng 15 250 50 0 empty empty empty 17 7 0 10 -262144
-1 -1;
#X msg 1049 963 0 \$1 \, 1 \$1;
#X obj 180 557 r trgrtoenvonoffB;
#X obj 180 709 spigot-toggle_red;
#X msg 1128 969 1 0 \$1 \, 1 \$1;
#X floatatom 514 645 5 0 0 0 - - -;
#X obj 1047 501 - 1;
#X obj 1047 521 * -1;
#X msg 1278 978 1 \$1 \, \$3 0 \$1 \$1;
#X msg 1279 948 1 \$3 \$1 \, \$3 \$2 \$1;
#X obj 2609 -260 t b f;
#X obj 2609 -226 *;
#X obj 465 1072 outlet~;
#X obj 540 757 f;
#X floatatom 631 645 5 0 0 0 - - -;
#X msg 456 954 stop;
#X obj 166 946 bng 15 250 50 0 empty empty empty 17 7 0 10 -262144
-1 -1;
#X obj 1058 1048 spigot-toggle_red;
#X obj 1168 1048 spigot-toggle_red;
#X msg 1048 1019 \$4 \$1 \, \$4 0 \$1;
#X msg 1157 1019 \$4 \$3 \$1 \, \$3 \$2 \$1;
#X msg 566 954 stop;
#X obj 293 528 - 1;
#X obj 293 556 * -1;
#X obj 964 498 - 1;
#X obj 964 518 * -1;
#X obj 621 1023 -~ 1;
#X obj 621 1043 *~ -1;
#X obj 262 964 sel;
#X obj 557 198 r T1;
#X floatatom 600 214 5 0 0 0 - - -;
#X obj 554 241 * 1;
#X text 1143 834 ramp up \, jump down \, ramp up again;
#X msg 1108 823 1 1000 \, 0 0 2000 \, 1 1000 3000;
#X obj 355 1060 bng 15 250 50 0 empty empty empty 17 7 0 10 -262144
-1 -1;
#X text 807 919 strt targ rmp \, targ rmp wait;
#X msg 1087 863 \$3 \$4 \$1 \, \$4 \$2 \$1;
#X obj 570 757 f;
#X obj 227 970 bng 15 250 50 0 empty empty empty 17 7 0 10 -262144
-1 -1;
#X obj 267 1013 bng 15 250 50 0 empty empty empty 17 7 0 10 -262144
-1 -1;
#X obj 1011 653 f;
#X obj 267 1044 f;
#X obj 295 1043 + 1;
#X obj 374 1061 bng 15 250 50 0 empty empty empty 17 7 0 10 -262144
-1 -1;
#X obj 561 998 pow~ 4;
#X floatatom 916 472 5 0 0 0 - - -;
#X obj 917 426 t b f;
#X msg 765 844 0 \$4 \$1 \, \$4 \$2 \$1;
#X obj 917 449 - 1;
#X obj 357 1010 sel 0 1 2;
#X obj 224 1006 bng 15 250 50 0 empty empty empty 17 7 0 10 -262144
-1 -1;
#X msg 223 1031 0;
#X obj 302 1075 mod 100;
#X msg 875 873 \$4 \$1 \, \$3 \$2 \$1;
#X msg 898 768 1 \$1 \, 0 0 \$1;
#X obj 468 1022 pow~ 2;
#X obj 83 323 * 200;
#X obj 470 432 r BBBmod;
#X msg 1122 532 \$4 \$1 \, \$3 \$2 \$1;
#X text 1113 513 work alone mono paw;
#X obj 360 1148 bng 15 250 50 0 empty empty empty 17 7 0 10 -262144
-1 -1;
#X obj 273 1099 bng 15 250 50 0 empty empty empty 17 7 0 10 -262144
-1 -1;
#X obj 273 1130 f;
#X obj 301 1129 + 1;
#X obj 381 1148 bng 15 250 50 0 empty empty empty 17 7 0 10 -262144
-1 -1;
#X obj 363 1096 sel 0 1 2;
#X obj 230 1092 bng 15 250 50 0 empty empty empty 17 7 0 10 -262144
-1 -1;
#X msg 229 1117 0;
#X obj 308 1161 mod 100;
#X obj 553 1032 r BB1;
#X obj 588 458 * 0.5;
#X floatatom 588 478 5 0 0 0 - - -;
#X obj 589 505 t b f;
#X obj 590 529 * 1;
#X floatatom 620 529 5 0 0 0 - - -;
#X floatatom 591 549 5 0 0 0 - - -;
#X obj 657 436 t b f;
#X floatatom 659 480 5 0 0 0 - - -;
#X obj 658 461 - 0;
#X obj 658 502 t b f;
#X obj 659 526 * 1;
#X floatatom 689 526 5 0 0 0 - - -;
#X floatatom 660 546 5 0 0 0 - - -;
#X msg 400 1066 0;
#X obj 399 1044 pack f f;
#X msg 997 770 1 0 \$1 \, 0 \$2 \$1;
#X msg 814 991 \$4 \$3 \$1 \, \$3 \$2 \$1;
#X msg 955 1065 \$4 \$1 \, 0 0 \$1;
#X msg 905 1015 \$4 \$1 \, \$4 \$3 \$2 \$1;
#X msg 844 1047 1 \$3 \$1 \, \$3 \$2 \$1;
#X msg 577 877 \$3 \$4 \$1 \, \$3 \$2 \$1;
#X msg 787 1035 1 \$1 \, 0 0 \$1;
#X msg 811 1063 1 0 \$1 \, 0 \$2 \$1;
#X msg 868 1095 \$4 \$1 \, \$3 \$2 \$1;
#X msg 340 918 \$4 \$1 \, \$3 \$2 \$1;
#X msg 583 852 \$4 \$1 \, \$3 \$2 \$1;
#X msg 450 918 \$4 \$1 \, 0 0 \$1;
#X msg 574 903 0 0 \, \$4 0 \$1 \, \$3 \$2 \$1;
#X msg 720 752 0 0 \, \$4 0 \$1 \, \$3 \$2 \$1;
#X obj 723 639 r trgrBafter;
#X floatatom 715 670 5 0 0 0 - - -;
#X obj 456 845 pack f f f f f f;
#X obj 600 755 f;
#X connect 0 0 74 0;
#X connect 0 0 36 0;
#X connect 1 0 56 0;
#X connect 3 0 33 0;
#X connect 4 0 5 1;
#X connect 5 0 25 0;
#X connect 6 0 5 0;
#X connect 7 0 5 0;
#X connect 7 0 9 0;
#X connect 8 1 50 0;
#X connect 9 0 8 0;
#X connect 10 0 105 0;
#X connect 12 0 28 0;
#X connect 12 0 87 1;
#X connect 12 0 120 0;
#X connect 12 0 128 0;
#X connect 13 0 14 0;
#X connect 13 1 14 1;
#X connect 15 0 20 1;
#X connect 15 0 134 1;
#X connect 16 0 17 0;
#X connect 16 1 17 1;
#X connect 18 0 17 0;
#X connect 19 0 151 0;
#X connect 20 0 151 1;
#X connect 21 0 25 1;
#X connect 21 0 12 0;
#X connect 22 0 26 0;
#X connect 23 0 22 1;
#X connect 24 0 22 0;
#X connect 25 0 106 0;
#X connect 27 0 63 0;
#X connect 27 0 44 0;
#X connect 27 0 19 0;
#X connect 27 0 20 0;
#X connect 27 0 87 0;
#X connect 27 0 152 0;
#X connect 28 0 29 0;
#X connect 28 1 29 1;
#X connect 29 0 31 0;
#X connect 30 0 29 0;
#X connect 31 0 27 1;
#X connect 32 0 105 1;
#X connect 33 0 94 1;
#X connect 34 0 94 0;
#X connect 35 0 32 0;
#X connect 36 0 14 0;
#X connect 37 0 5 0;
#X connect 38 0 39 0;
#X connect 39 0 43 0;
#X connect 39 0 47 0;
#X connect 40 0 53 0;
#X connect 43 0 66 0;
#X connect 43 1 88 0;
#X connect 44 0 151 2;
#X connect 45 0 78 0;
#X connect 45 0 49 0;
#X connect 47 0 48 0;
#X connect 48 0 45 0;
#X connect 49 0 44 1;
#X connect 50 0 27 0;
#X connect 50 0 11 0;
#X connect 52 0 53 1;
#X connect 52 0 72 0;
#X connect 52 0 49 0;
#X connect 53 0 64 0;
#X connect 53 0 47 0;
#X connect 55 0 19 1;
#X connect 56 0 57 0;
#X connect 57 0 18 0;
#X connect 60 0 61 0;
#X connect 60 1 61 1;
#X connect 63 0 151 3;
#X connect 64 0 63 1;
#X connect 65 0 10 0;
#X connect 66 0 89 0;
#X connect 69 0 67 0;
#X connect 70 0 68 0;
#X connect 71 0 34 0;
#X connect 72 0 73 0;
#X connect 73 0 64 0;
#X connect 74 0 75 0;
#X connect 76 0 77 0;
#X connect 78 0 100 0;
#X connect 78 0 111 0;
#X connect 78 1 89 0;
#X connect 78 1 116 0;
#X connect 79 0 81 0;
#X connect 80 0 81 1;
#X connect 81 0 21 0;
#X connect 87 0 151 4;
#X connect 89 0 91 0;
#X connect 91 0 92 0;
#X connect 91 0 102 0;
#X connect 92 0 91 1;
#X connect 93 0 50 0;
#X connect 95 0 13 0;
#X connect 96 0 98 0;
#X connect 96 1 98 1;
#X connect 98 0 95 0;
#X connect 99 0 84 0;
#X connect 99 1 93 0;
#X connect 100 0 101 0;
#X connect 101 0 91 0;
#X connect 102 0 99 0;
#X connect 105 0 11 0;
#X connect 105 0 62 0;
#X connect 106 0 24 0;
#X connect 107 0 9 0;
#X connect 111 0 112 0;
#X connect 112 0 113 0;
#X connect 112 0 118 0;
#X connect 113 0 112 1;
#X connect 114 0 134 0;
#X connect 115 0 110 0;
#X connect 115 1 114 0;
#X connect 116 0 117 0;
#X connect 117 0 112 0;
#X connect 118 0 115 0;
#X connect 120 0 121 0;
#X connect 121 0 122 0;
#X connect 122 0 123 0;
#X connect 122 1 123 1;
#X connect 123 0 125 0;
#X connect 124 0 123 0;
#X connect 125 0 126 0;
#X connect 125 0 55 0;
#X connect 126 0 128 0;
#X connect 126 1 128 1;
#X connect 127 0 129 0;
#X connect 128 0 127 0;
#X connect 129 0 130 0;
#X connect 129 1 130 1;
#X connect 130 0 132 0;
#X connect 131 0 130 0;
#X connect 132 0 15 0;
#X connect 133 0 10 0;
#X connect 134 0 133 0;
#X connect 144 0 10 0;
#X connect 147 0 34 0;
#X connect 149 0 150 0;
#X connect 150 0 152 1;
#X connect 151 0 147 0;
#X connect 151 0 145 0;
#X connect 151 0 144 0;
#X connect 151 0 146 0;
#X connect 152 0 151 5;
