#N canvas 854 0 826 1028 10;
#X obj 1420 160 inlet;
#X obj 1509 774 inlet;
#X obj 1145 -268 t b f;
#X obj 1145 -243 *;
#X obj 1311 971 outlet~;
#X obj 1543 160 inlet;
#X obj 1482 160 inlet;
#X floatatom 1351 797 7 0 0 0 - - -;
#X floatatom 1506 799 7 0 0 0 - - -;
#X floatatom 1420 199 5 0 0 0 - - -;
#X floatatom 1482 199 5 0 0 0 - - -;
#X floatatom 1541 198 5 0 0 0 - - -;
#X obj 1350 774 inlet;
#X obj 1559 295 bng 20 250 50 0 empty empty empty 17 7 0 10 -4034 -1
-1;
#X obj 1278 850 vline~;
#X floatatom 1580 493 5 0 0 0 - - -;
#X floatatom 1476 571 5 0 0 0 - - -;
#X obj 1286 682 f;
#X obj 1315 682 f;
#X floatatom 1320 827 7 0 0 0 - - -;
#X floatatom 1492 834 7 0 0 0 - - -;
#X obj 1429 853 vline~;
#X obj 1341 682 f;
#X obj 1303 466 bng 15 250 50 0 empty empty empty 17 7 0 10 -262144
-1 -1;
#X floatatom 1343 571 5 0 0 0 - - -;
#X msg 1287 783 stop;
#X msg 1448 794 stop;
#X obj 1436 876 pow~ 4;
#X obj 1296 881 pow~ 2;
#X obj 1359 517 t b f;
#X obj 1345 545 * 1;
#X obj 1410 517 t b f;
#X obj 1409 545 * 1;
#X floatatom 1407 571 5 0 0 0 - - -;
#X obj 1477 517 t b f;
#X obj 1485 545 * 1;
#X floatatom 1359 464 5 0 0 0 - - -;
#X floatatom 1421 464 5 0 0 0 - - -;
#X floatatom 1512 464 5 0 0 0 - - -;
#X obj 1373 682 f;
#X obj 1580 471 * 1;
#X floatatom 1617 472 5 0 0 0 - - -;
#X floatatom 1579 451 5 0 0 0 - - -;
#X obj 1600 741 f;
#X obj 1599 764 pack f;
#X obj 1489 372 bng 20 250 50 0 empty empty empty 17 7 0 10 -258113
-1 -1;
#X obj 1512 372 bng 20 250 50 0 empty empty empty 17 7 0 10 -260097
-1 -1;
#X msg 1596 787 0 \$1;
#X obj 1957 507 bng 15 250 50 0 empty empty empty 17 7 0 10 -262144
-1 -1;
#X obj 1956 552 f;
#X obj 1982 552 + 1;
#X obj 1973 656 bng 15 250 50 0 empty empty empty 17 7 0 10 -262144
-1 -1;
#X obj 1991 656 bng 15 250 50 0 empty empty empty 17 7 0 10 -262144
-1 -1;
#X floatatom 1956 572 5 0 0 0 - - -;
#X obj 1956 628 sel 0 1;
#X obj 1956 600 mod 200;
#X obj 1956 656 bng 15 250 50 0 empty empty empty 17 7 0 10 -262144
-1 -1;
#X obj 1958 704 delay 0;
#X obj 1985 507 bng 15 250 50 0 empty empty empty 17 7 0 10 -262144
-1 -1;
#X floatatom 1965 359 5 0 0 0 - - -;
#X obj 1961 459 +;
#X msg 1976 528 -1;
#X obj 1965 337 == 1;
#X floatatom 1974 423 5 0 0 0 - - -;
#X obj 1974 402 == 0;
#X obj 1961 480 sel 2;
#X obj 1203 574 f;
#X obj 1204 598 pack f;
#X obj 1285 660 t b b b b;
#X msg 1279 744 1 \$1 \, 1 0 \$3 \, 0 0 \$4;
#X msg 1426 743 0 0 \$1 \, 1 0 \$4 \, 0 \$2 \$4;
#X obj 1290 706 pack f f f f;
#X obj 1596 374 spigot-toggle_red;
#X obj 1277 286 delay 11;
#X obj 1234 215 sel;
#X obj 1210 237 bng 15 250 50 0 empty empty empty 17 7 0 10 -262144
-1 -1;
#X obj 1254 239 bng 15 250 50 0 empty empty empty 17 7 0 10 -262144
-1 -1;
#X obj 1209 302 bng 15 250 50 0 empty empty empty 17 7 0 10 -262144
-1 -1;
#X obj 1141 193 r TRGnB_@load;
#X obj 1232 194 r Bbutton;
#X obj 1312 238 r T$mod1;
#X obj 1965 315 r trgrafterBmod;
#X obj 1973 381 r trgrBmod;
#X obj 1491 -16 bng 15 250 50 0 empty empty empty 17 7 0 10 -262144
-1 -1;
#X obj 1492 -40 sel;
#X obj 1511 -15 bng 15 250 50 0 empty empty empty 17 7 0 10 -262144
-1 -1;
#X obj 1491 33 f;
#X obj 1517 33 + 1;
#X obj 1509 115 bng 15 250 50 0 empty empty empty 17 7 0 10 -262144
-1 -1;
#X obj 1527 115 bng 15 250 50 0 empty empty empty 17 7 0 10 -262144
-1 -1;
#X floatatom 1491 53 5 0 0 0 - - -;
#X obj 1489 94 sel 0 1;
#X obj 1490 73 mod 200;
#X obj 1489 115 bng 15 250 50 0 empty empty empty 17 7 0 10 -262144
-1 -1;
#X msg 1505 9 -1;
#X floatatom 1228 366 5 0 0 0 - - -;
#X obj 1220 389 spigot-toggle_red;
#X obj 1269 338 - 1;
#X obj 1269 363 * -1;
#X obj 1228 338 r lo;
#X obj 1265 317 r trgrtoenvonoffB;
#X obj 1561 273 r BBBmod;
#X obj 1579 431 r T$mod1;
#X msg 1205 619 0.5 \$1;
#X obj 1318 256 * 1;
#X obj 1217 552 * 2;
#X obj 1605 585 t b f;
#X floatatom 1607 629 5 0 0 0 - - -;
#X obj 1603 870 line;
#X obj 1620 895 pow 1;
#X floatatom 1572 928 7 0 0 0 - - -;
#X floatatom 1536 891 7 0 0 0 - - -;
#X obj 978 391 delay;
#X obj 978 412 bng 20 250 50 0 empty empty empty 17 7 0 10 -260097
-1 -1;
#X floatatom 1004 369 5 0 0 0 - - -;
#X obj 917 390 bng 20 250 50 0 empty empty empty 17 7 0 10 -260097
-1 -1;
#X msg 916 422 1;
#X obj 936 648 pack f f;
#X obj 1002 648 pack f f;
#X obj 942 581 f;
#X obj 1042 581 f;
#X obj 935 679 line;
#X floatatom 934 774 7 0 0 0 - - -;
#X msg 989 486 0;
#X floatatom 988 730 5 0 0 0 - - -;
#X obj 988 708 == 1;
#X obj 990 549 spigot-toggle_red;
#X msg 946 734 0;
#X obj 918 284 spigot-toggle_red;
#X obj 928 238 - 1;
#X obj 928 259 * -1;
#X obj 921 318 delay;
#X obj 934 794 s opaENVB;
#X obj 988 686 r trgrafterBmod;
#X obj 1657 585 t b f;
#X floatatom 1657 629 5 0 0 0 - - -;
#X obj 1658 608 +;
#X obj 1606 608 -;
#X obj 1406 404 t b f;
#X obj 1410 433 - 1;
#X obj 1711 586 t b f;
#X floatatom 1711 630 5 0 0 0 - - -;
#X obj 1536 372 bng 20 250 50 0 empty empty empty 17 7 0 10 -4034 -1
-1;
#X obj 1606 165 bng 20 250 50 0 empty empty empty 17 7 0 10 -4034 -1
-1;
#X obj 1606 143 r BB1mod;
#X obj 1605 190 spigot-toggle_red;
#X obj 1625 193 r envfromaudiomodAtoB;
#X obj 1625 219 r envfromaudiomodBtoB;
#X obj 1712 609 -;
#X obj 1494 -60 r trgrafterBmod;
#X connect 0 0 9 0;
#X connect 1 0 8 0;
#X connect 2 0 3 0;
#X connect 2 1 3 1;
#X connect 5 0 11 0;
#X connect 6 0 10 0;
#X connect 7 0 19 0;
#X connect 8 0 20 0;
#X connect 9 0 36 0;
#X connect 10 0 37 0;
#X connect 11 0 38 0;
#X connect 12 0 7 0;
#X connect 13 0 72 0;
#X connect 14 0 28 0;
#X connect 15 0 34 0;
#X connect 15 0 139 0;
#X connect 15 0 29 0;
#X connect 15 0 148 0;
#X connect 16 0 18 1;
#X connect 16 0 43 1;
#X connect 16 0 134 0;
#X connect 16 0 120 1;
#X connect 16 0 140 0;
#X connect 17 0 71 0;
#X connect 18 0 71 1;
#X connect 19 0 28 1;
#X connect 20 0 27 1;
#X connect 21 0 27 0;
#X connect 22 0 71 2;
#X connect 23 0 68 0;
#X connect 24 0 105 0;
#X connect 24 0 17 1;
#X connect 24 0 106 0;
#X connect 24 0 119 1;
#X connect 24 0 138 0;
#X connect 25 0 14 0;
#X connect 26 0 21 0;
#X connect 27 0 4 0;
#X connect 28 0 4 0;
#X connect 29 0 30 0;
#X connect 29 1 30 1;
#X connect 30 0 24 0;
#X connect 31 0 32 0;
#X connect 31 1 32 1;
#X connect 32 0 33 0;
#X connect 33 0 22 1;
#X connect 33 0 136 0;
#X connect 33 0 137 0;
#X connect 34 0 35 0;
#X connect 34 1 35 1;
#X connect 35 0 16 0;
#X connect 36 0 30 0;
#X connect 37 0 32 0;
#X connect 38 0 35 0;
#X connect 39 0 71 3;
#X connect 40 0 15 0;
#X connect 41 0 40 1;
#X connect 42 0 40 0;
#X connect 43 0 44 0;
#X connect 44 0 47 0;
#X connect 45 0 96 0;
#X connect 46 0 43 0;
#X connect 46 0 113 0;
#X connect 47 0 21 0;
#X connect 47 0 14 0;
#X connect 48 0 49 0;
#X connect 49 0 50 0;
#X connect 49 0 53 0;
#X connect 50 0 49 1;
#X connect 53 0 55 0;
#X connect 54 0 56 0;
#X connect 54 1 51 0;
#X connect 54 2 52 0;
#X connect 55 0 54 0;
#X connect 56 0 57 0;
#X connect 57 0 46 0;
#X connect 57 0 127 0;
#X connect 58 0 61 0;
#X connect 59 0 60 0;
#X connect 59 0 72 1;
#X connect 60 0 65 0;
#X connect 61 0 49 0;
#X connect 62 0 59 0;
#X connect 63 0 60 1;
#X connect 64 0 63 0;
#X connect 65 0 48 0;
#X connect 65 1 58 0;
#X connect 66 0 67 0;
#X connect 67 0 103 0;
#X connect 68 0 17 0;
#X connect 68 1 18 0;
#X connect 68 2 22 0;
#X connect 68 3 39 0;
#X connect 69 0 14 0;
#X connect 69 0 108 0;
#X connect 70 0 21 0;
#X connect 70 0 108 0;
#X connect 71 0 70 0;
#X connect 71 0 69 0;
#X connect 72 0 112 0;
#X connect 72 0 115 0;
#X connect 72 0 142 0;
#X connect 73 0 77 0;
#X connect 74 0 75 0;
#X connect 74 1 76 0;
#X connect 75 0 73 0;
#X connect 75 0 77 0;
#X connect 77 0 66 0;
#X connect 77 0 131 0;
#X connect 78 0 75 0;
#X connect 79 0 74 0;
#X connect 79 0 129 0;
#X connect 80 0 104 0;
#X connect 81 0 62 0;
#X connect 82 0 64 0;
#X connect 83 0 86 0;
#X connect 84 0 83 0;
#X connect 84 1 85 0;
#X connect 85 0 94 0;
#X connect 86 0 87 0;
#X connect 86 0 90 0;
#X connect 87 0 86 1;
#X connect 90 0 92 0;
#X connect 91 0 93 0;
#X connect 91 1 88 0;
#X connect 91 2 89 0;
#X connect 92 0 91 0;
#X connect 93 0 45 0;
#X connect 93 0 66 0;
#X connect 94 0 86 0;
#X connect 95 0 96 1;
#X connect 96 0 66 0;
#X connect 97 0 98 0;
#X connect 98 0 95 0;
#X connect 99 0 95 0;
#X connect 100 0 97 0;
#X connect 101 0 13 0;
#X connect 102 0 42 0;
#X connect 103 0 14 0;
#X connect 103 0 21 0;
#X connect 104 0 73 1;
#X connect 105 0 66 1;
#X connect 106 0 137 0;
#X connect 106 1 137 1;
#X connect 107 0 39 1;
#X connect 107 0 114 0;
#X connect 108 0 109 0;
#X connect 108 0 111 0;
#X connect 109 0 110 0;
#X connect 112 0 113 0;
#X connect 113 0 120 0;
#X connect 113 0 123 0;
#X connect 113 0 128 0;
#X connect 114 0 112 1;
#X connect 115 0 116 0;
#X connect 116 0 117 0;
#X connect 116 0 119 0;
#X connect 117 0 121 0;
#X connect 118 0 121 0;
#X connect 119 0 117 1;
#X connect 120 0 118 1;
#X connect 121 0 122 0;
#X connect 122 0 132 0;
#X connect 123 0 126 0;
#X connect 124 0 126 1;
#X connect 125 0 124 0;
#X connect 126 0 118 0;
#X connect 127 0 117 0;
#X connect 128 0 131 0;
#X connect 129 0 130 0;
#X connect 130 0 128 1;
#X connect 131 0 115 0;
#X connect 133 0 125 0;
#X connect 134 0 136 0;
#X connect 134 1 136 1;
#X connect 135 0 131 1;
#X connect 136 0 135 0;
#X connect 137 0 107 0;
#X connect 138 0 139 0;
#X connect 138 1 139 1;
#X connect 139 0 31 0;
#X connect 140 0 148 0;
#X connect 140 1 148 1;
#X connect 141 0 57 1;
#X connect 142 0 23 0;
#X connect 143 0 145 0;
#X connect 144 0 143 0;
#X connect 145 0 72 0;
#X connect 146 0 145 1;
#X connect 146 0 72 1;
#X connect 147 0 72 1;
#X connect 148 0 141 0;
#X connect 149 0 84 0;
