#N canvas 517 177 1472 878 10;
#X obj 406 567 inlet;
#X obj 275 657 outlet~;
#X obj 447 53 inlet;
#X obj 200 570 inlet;
#X floatatom 200 590 7 0 0 0 - - -;
#X floatatom 407 589 7 0 0 0 - - -;
#X obj 275 635 pow~ 2;
#X obj 191 333 bng 20 250 50 0 empty empty empty 17 7 0 10 -4034 -1
-1;
#X obj 196 243 bng 15 250 50 0 empty empty empty 17 7 0 10 -262144
-1 -1;
#X floatatom 221 101 5 0 0 0 - - -;
#X obj 413 428 bng 20 250 50 0 empty empty empty 17 7 0 10 -260097
-1 -1;
#X obj 187 399 bng 20 250 50 0 empty empty empty 17 7 0 10 -260097
-1 -1;
#X obj 164 539 pack f f;
#X msg 425 514 0;
#X floatatom 209 508 5 0 0 0 - - -;
#X obj 221 123 t b f;
#X obj 226 149 * 1;
#X floatatom 112 132 5 0 0 0 - - -;
#X obj 275 725 line;
#X obj 277 745 hsl 128 15 0 1 0 0 empty empty empty -2 -8 0 10 -262144
-1 -1 12700 1;
#X obj 188 615 f;
#X obj 395 612 f;
#X obj 279 477 bng 44 250 50 0 empty empty empty 17 7 0 10 -4034 -1
-1;
#X obj 325 477 bng 44 250 50 0 empty empty empty 17 7 0 10 -260097
-1 -1;
#X floatatom 448 108 5 0 0 0 - - -;
#X floatatom 541 108 5 0 0 0 - - -;
#X obj 542 172 t b f;
#X obj 546 204 * 1;
#X obj 490 218 - 1;
#X obj 491 238 * -1;
#X obj 452 218 t b f;
#X floatatom 453 322 5 0 0 0 - - -;
#X text 186 13 env forward;
#X obj 273 772 pow 2;
#X text 262 11 env in;
#X text 351 5 env sustain;
#X text 436 6 env out;
#X obj 272 793 s opaENVB;
#X obj 110 44 r T$mod1;
#X obj 198 221 r TRGnB_@load;
#X obj 205 262 r BBBmod;
#X obj 544 57 inlet;
#X obj 224 49 inlet;
#X obj 158 344 r lo;
#X msg 158 492 1;
#X floatatom 787 390 5 0 0 0 - - -;
#X obj 787 370 == 0;
#X obj 692 370 == 1;
#X text 716 58 env out @ fin de serie step off;
#X floatatom 692 394 5 0 0 0 - - -;
#X obj -97 396 sel;
#X obj -99 426 bng 15 250 50 0 empty empty empty 17 7 0 10 -262144
-1 -1;
#X obj -80 479 bng 15 250 50 0 empty empty empty 17 7 0 10 -262144
-1 -1;
#X obj 51 302 sel;
#X obj 46 396 bng 15 250 50 0 empty empty empty 17 7 0 10 -262144 -1
-1;
#X obj 57 320 bng 15 250 50 0 empty empty empty 17 7 0 10 -262144 -1
-1;
#X obj 77 364 delay 0;
#X floatatom 113 339 5 0 0 0 - - -;
#X obj 50 280 r Bbutton;
#X obj -99 373 r øAtiTS2;
#X obj 532 385 r Bbutton;
#X obj -23 649 *~ 7;
#X floatatom -164 578 5 0 0 0 - - -;
#X obj -348 548 bng 15 250 50 0 empty empty empty 17 7 0 10 -262144
-1 -1;
#X obj -175 532 * 44;
#X obj -328 547 spigot-toggle_vert;
#X obj -164 553 spigot-toggle_vert;
#X obj -57 551 tgl 23 0 empty empty empty 17 7 0 10 -1 -260097 -260097
1 1;
#X msg -201 577 8000;
#X obj -348 524 r BBBmod;
#X obj -67 669 tabwrite~ env5;
#X msg -163 604 \; env5 resize \$1;
#X obj -270 533 inlet;
#X obj 452 240 * 1;
#X obj 412 400 delay 0;
#X obj 276 613 vline~;
#X obj 425 538 pack f f;
#X obj -194 555 f;
#X obj 94 389 r >stop1;
#X obj 89 409 spigot-toggle_vert;
#X obj -64 506 r metroenvAetB;
#X obj -64 588 spigot-toggle_vert;
#X obj -56 526 inlet;
#X obj 448 129 t b f;
#X obj 448 151 * 1;
#X obj 189 367 spigot-toggle_vert;
#X obj 1399 -148 r sl_trgAB;
#X obj 1401 -120 r sl_trgBB;
#X floatatom 316 339 5 0 0 0 - - -;
#X obj -230 531 r T$mod1;
#X floatatom 537 452 5 0 0 0 - - -;
#X obj 535 431 r trgrmodenvB;
#X obj 317 359 sel;
#X obj 419 458 spigot-toggle_vert;
#X floatatom 477 366 5 0 0 0 - - -;
#X obj 332 381 bng 15 250 50 0 empty empty empty 17 7 0 10 -262144
-1 -1;
#X obj 313 381 bng 15 250 50 0 empty empty empty 17 7 0 10 -262144
-1 -1;
#X obj 462 513 f;
#X obj 793 441 +;
#X obj 786 348 r trgrmodenvB;
#X obj 446 471 bng 20 250 50 0 empty empty empty 17 7 0 10 -4160 -262144
-1;
#X obj 796 462 == 2;
#X obj 798 503 bng 15 250 50 0 empty empty empty 17 7 0 10 -262144
-1 -1;
#X obj 821 504 bng 15 250 50 0 empty empty empty 17 7 0 10 -262144
-1 -1;
#X obj 797 482 sel 0 1 2;
#X obj 846 503 bng 15 250 50 0 empty empty empty 17 7 0 10 -262144
-1 -1;
#X obj 1418 589 r ITB;
#X floatatom 1409 612 5 0 0 0 - - -;
#X floatatom 1409 684 5 0 0 0 - - -;
#X floatatom 1408 741 5 0 0 0 - - -;
#X obj 1409 717 - 1;
#X obj 1413 663 + 1;
#X floatatom 1383 393 5 0 0 0 - - -;
#X obj 684 500 delay;
#X obj 692 348 r trgraftermodB;
#X obj 318 319 r trgraftermodoffB;
#X obj 255 319 r øAtiTS2;
#X floatatom 254 341 5 0 0 0 - - -;
#X obj -220 55 r bonkTA;
#X obj -222 223 spigot-toggle_vert;
#X obj -223 176 r bonkup;
#X obj -64 630 bng 20 250 50 0 empty empty empty 17 7 0 10 -260097
-1 -1;
#X obj -214 122 r bonkuptoenvB;
#X obj 533 407 r bonkuptoenvB;
#X obj -221 143 spigot-toggle_vert;
#X obj -222 77 * 1;
#X obj -342 228 spigot-toggle_vert;
#X obj -342 148 spigot-toggle_vert;
#X obj -343 82 * 1;
#X obj -344 181 r bonkdown;
#X obj -341 60 r bonkTdown;
#X obj -335 127 r bonkdowntoenvB;
#X connect 0 0 5 0;
#X connect 2 0 24 0;
#X connect 3 0 4 0;
#X connect 4 0 20 1;
#X connect 5 0 21 1;
#X connect 6 0 1 0;
#X connect 6 0 61 0;
#X connect 7 0 85 0;
#X connect 8 0 7 0;
#X connect 9 0 15 0;
#X connect 10 0 23 0;
#X connect 10 0 21 0;
#X connect 10 0 93 0;
#X connect 11 0 20 0;
#X connect 11 0 22 0;
#X connect 11 0 44 0;
#X connect 11 0 74 0;
#X connect 11 0 97 0;
#X connect 12 0 18 0;
#X connect 12 0 75 0;
#X connect 13 0 76 0;
#X connect 14 0 12 1;
#X connect 15 0 16 0;
#X connect 15 1 16 1;
#X connect 16 0 14 0;
#X connect 17 0 57 0;
#X connect 17 0 16 0;
#X connect 17 0 84 0;
#X connect 17 0 27 0;
#X connect 18 0 19 0;
#X connect 19 0 33 0;
#X connect 20 0 6 1;
#X connect 20 0 33 1;
#X connect 21 0 6 1;
#X connect 21 0 33 1;
#X connect 24 0 83 0;
#X connect 25 0 26 0;
#X connect 25 0 28 0;
#X connect 26 0 27 0;
#X connect 26 1 27 1;
#X connect 27 0 94 0;
#X connect 28 0 29 0;
#X connect 29 0 73 0;
#X connect 30 0 73 0;
#X connect 30 1 73 1;
#X connect 31 0 74 1;
#X connect 31 0 113 1;
#X connect 33 0 37 0;
#X connect 38 0 17 0;
#X connect 39 0 8 0;
#X connect 40 0 7 0;
#X connect 41 0 25 0;
#X connect 42 0 9 0;
#X connect 43 0 79 1;
#X connect 43 0 85 1;
#X connect 44 0 12 0;
#X connect 45 0 98 1;
#X connect 46 0 45 0;
#X connect 47 0 49 0;
#X connect 49 0 98 0;
#X connect 50 0 51 0;
#X connect 50 1 52 0;
#X connect 51 0 10 0;
#X connect 52 0 44 0;
#X connect 53 0 54 0;
#X connect 53 1 55 0;
#X connect 54 0 56 0;
#X connect 54 0 79 0;
#X connect 54 0 44 0;
#X connect 55 0 13 0;
#X connect 56 0 79 0;
#X connect 57 0 56 1;
#X connect 58 0 53 0;
#X connect 59 0 50 0;
#X connect 60 0 93 1;
#X connect 61 0 70 0;
#X connect 62 0 71 0;
#X connect 63 0 65 0;
#X connect 63 0 77 0;
#X connect 64 0 77 1;
#X connect 65 0 70 0;
#X connect 66 0 62 0;
#X connect 67 0 68 0;
#X connect 67 0 81 1;
#X connect 68 0 62 0;
#X connect 69 0 63 0;
#X connect 72 0 66 1;
#X connect 72 0 65 1;
#X connect 73 0 31 0;
#X connect 74 0 10 0;
#X connect 75 0 6 0;
#X connect 76 0 18 0;
#X connect 76 0 75 0;
#X connect 77 0 66 0;
#X connect 78 0 79 1;
#X connect 79 0 44 0;
#X connect 80 0 81 0;
#X connect 81 0 121 0;
#X connect 82 0 67 0;
#X connect 83 0 84 0;
#X connect 83 1 84 1;
#X connect 84 0 30 0;
#X connect 85 0 11 0;
#X connect 88 0 92 0;
#X connect 89 0 64 0;
#X connect 90 0 93 1;
#X connect 91 0 90 0;
#X connect 92 0 96 0;
#X connect 92 1 95 0;
#X connect 93 0 13 0;
#X connect 94 0 97 1;
#X connect 96 0 13 0;
#X connect 97 0 76 1;
#X connect 98 0 101 0;
#X connect 99 0 46 0;
#X connect 100 0 13 0;
#X connect 100 0 97 0;
#X connect 101 0 104 0;
#X connect 103 0 113 0;
#X connect 104 0 102 0;
#X connect 104 1 103 0;
#X connect 104 3 105 0;
#X connect 106 0 107 0;
#X connect 107 0 111 0;
#X connect 108 0 110 0;
#X connect 110 0 109 0;
#X connect 111 0 108 0;
#X connect 113 0 100 0;
#X connect 114 0 47 0;
#X connect 115 0 88 0;
#X connect 116 0 117 0;
#X connect 117 0 92 0;
#X connect 117 0 85 1;
#X connect 118 0 125 0;
#X connect 119 0 8 0;
#X connect 120 0 119 0;
#X connect 121 0 70 0;
#X connect 122 0 119 1;
#X connect 122 0 124 1;
#X connect 122 0 53 0;
#X connect 122 0 50 0;
#X connect 123 0 93 1;
#X connect 124 0 17 0;
#X connect 125 0 124 0;
#X connect 126 0 8 0;
#X connect 127 0 17 0;
#X connect 128 0 127 0;
#X connect 128 0 50 0;
#X connect 129 0 126 0;
#X connect 130 0 128 0;
#X connect 131 0 126 1;
#X connect 131 0 127 1;
