#N canvas 1049 436 1280 698 10;
#X obj 2247 245 inlet;
#X obj 1860 981 inlet;
#X obj 1888 122 inlet;
#X obj 1510 266 spigot-toggle_red;
#X obj 1747 535 t b b;
#X obj 1747 511 bng 15 250 50 0 empty empty empty 17 7 0 10 -262144
-1 -1;
#X obj 1713 1006 vline~;
#X floatatom 1990 299 5 0 0 0 - - -;
#X floatatom 1859 663 5 0 0 0 - - -;
#X obj 1764 770 f;
#X obj 1791 770 f;
#X obj 1510 368 pack \$1 \$0;
#X floatatom 1577 400 12 0 0 0 - - -;
#X floatatom 1510 344 12 0 0 0 - - -;
#X obj 1510 294 f;
#X floatatom 1749 1006 7 0 0 0 - - -;
#X floatatom 1872 1006 7 0 0 0 - - -;
#X obj 1808 1025 vline~;
#X obj 1749 981 inlet;
#X floatatom 1503 720 12 0 0 0 - - -;
#X obj 1530 850 sel;
#X obj 1817 770 f;
#X floatatom 1503 794 5 0 0 0 - - -;
#X obj 1503 744 - 1;
#X obj 1503 769 * -1;
#X floatatom 1893 662 5 0 0 0 - - -;
#X obj 1764 623 bng 15 250 50 0 empty empty empty 17 7 0 10 -262144
-1 -1;
#X obj 1468 727 spigot-toggle_red;
#X floatatom 1819 663 5 0 0 0 - - -;
#X obj 3914 -242 t b f;
#X obj 3914 -217 *;
#X obj 1770 1090 outlet~;
#X obj 1845 770 f;
#X floatatom 1934 663 5 0 0 0 - - -;
#X msg 1713 981 stop;
#X obj 1569 936 bng 15 250 50 0 empty empty empty 17 7 0 10 -262144
-1 -1;
#X msg 1823 981 stop;
#X obj 1598 555 - 1;
#X obj 1598 580 * -1;
#X floatatom 1519 180 5 0 0 0 - - -;
#X obj 1530 826 bng 15 250 50 0 empty empty empty 17 7 0 10 -262144
-1 -1;
#X obj 1815 1048 pow~ 4;
#X obj 1725 1060 pow~ 2;
#X obj 1892 441 t b f;
#X obj 1896 470 * 1;
#X floatatom 1924 417 5 0 0 0 - - -;
#X floatatom 1863 598 5 0 0 0 - - -;
#X obj 1961 441 t b f;
#X obj 1960 470 * 1;
#X floatatom 1987 417 5 0 0 0 - - -;
#X floatatom 1928 600 5 0 0 0 - - -;
#X floatatom 2162 587 5 0 0 0 - - -;
#X obj 2152 826 bng 15 250 50 0 empty empty empty 17 7 0 10 -262144
-1 -1;
#X obj 2055 902 f;
#X obj 2161 647 sel;
#X obj 2161 672 bng 15 250 50 0 empty empty empty 17 7 0 10 -262144
-1 -1;
#X obj 2154 749 f;
#X obj 2189 747 + 1;
#X obj 2152 801 sel 0 1 2;
#X obj 2161 696 bng 15 250 50 0 empty empty empty 17 7 0 10 -262144
-1 -1;
#X msg 2145 728 0;
#X obj 2150 774 mod 100;
#X obj 1756 695 delay;
#X obj 2399 245 inlet;
#X obj 2018 183 inlet;
#X obj 2399 273 - 1;
#X obj 2399 298 * -1;
#X obj 1876 770 f;
#X floatatom 1978 666 5 0 0 0 - - -;
#X obj 1516 149 inlet;
#X obj 1181 107 bng 15 250 50 0 empty empty empty 17 7 0 10 -262144
-1 -1;
#X obj 1152 107 r BB1;
#X floatatom 1081 180 5 0 0 0 - - -;
#X obj 1152 132 r B;
#X obj 1905 1040 -~ 1;
#X obj 1901 1060 *~ -1;
#X obj 2028 441 t b f;
#X obj 2036 470 * 1;
#X floatatom 2081 417 5 0 0 0 - - -;
#X obj 1921 348 - 1;
#X obj 1921 373 * -1;
#X obj 1510 319 * 100;
#X obj 2307 219 inlet;
#X obj 1446 851 sel;
#X obj 1446 876 bng 15 250 50 0 empty empty empty 17 7 0 10 -262144
-1 -1;
#X obj 1446 925 f;
#X obj 1471 927 + 1;
#X obj 1446 975 sel 0 1 2;
#X obj 1433 875 bng 15 250 50 0 empty empty empty 17 7 0 10 -262144
-1 -1;
#X msg 1446 900 0;
#X obj 1446 950 mod 100;
#X obj 2055 927 pack f;
#X msg 2055 952 0 \$1;
#X floatatom 2246 337 5 0 0 0 - - -;
#X floatatom 2308 337 5 0 0 0 - - -;
#X floatatom 2399 337 5 0 0 0 - - -;
#X obj 1761 851 pack f f f f f f;
#X obj 1910 770 f;
#X floatatom 2039 685 5 0 0 0 - - -;
#X obj 1590 981 f;
#X obj 1616 979 pack f;
#X msg 1589 1018 1 \$1;
#X obj 1446 1000 bng 15 250 50 0 empty empty empty 17 7 0 10 -262144
-1 -1;
#X obj 2037 618 + 1;
#X msg 2027 1027 1 \$1 \, 0 0 \$1;
#X msg 2180 1026 1 0 \$1 \, 0 \$1 \$2;
#X msg 2024 1047 1 \$1 \, \$4 0 \$5 \, \$3 \$2 \$6;
#X msg 1661 927 \$4 \$1 \, \$4 0 \$5 \, 0 0 \$6;
#X msg 1814 924 0 0 \$1 \, \$4 0 \$6 \, \$3 \$2 \$6;
#X msg 1510 393 \; env1 resize \$1, f 15;
#X obj 1743 229 r bonktoenvA;
#X obj 1758 279 r øSbangA;
#X obj 1775 450 r BBmod;
#X obj 1469 695 r trgrtoenvonoff;
#X obj 1589 695 r Abutton;
#X obj 2159 548 r trgrAafter;
#X obj 1865 1090 tabwrite~ env1;
#X obj 1990 274 * 1;
#X floatatom 1364 780 12 0 0 0 - - -;
#X obj 1485 575 r trgrtoenvonoff;
#X floatatom 1930 220 5 0 0 0 - - -;
#X floatatom 2002 223 5 0 0 0 - - -;
#X obj 1510 216 r BBmod;
#X connect 0 0 93 0;
#X connect 1 0 16 0;
#X connect 2 0 120 0;
#X connect 3 0 14 0;
#X connect 4 1 26 0;
#X connect 5 0 4 0;
#X connect 6 0 42 0;
#X connect 7 0 76 0;
#X connect 7 0 43 0;
#X connect 7 0 47 0;
#X connect 7 0 14 1;
#X connect 8 0 10 1;
#X connect 9 0 96 0;
#X connect 10 0 96 1;
#X connect 11 0 109 0;
#X connect 12 0 11 1;
#X connect 13 0 11 0;
#X connect 14 0 81 0;
#X connect 15 0 42 1;
#X connect 16 0 41 1;
#X connect 17 0 41 0;
#X connect 18 0 15 0;
#X connect 19 0 20 0;
#X connect 19 0 23 0;
#X connect 20 0 35 0;
#X connect 20 1 40 0;
#X connect 21 0 96 2;
#X connect 22 0 25 0;
#X connect 23 0 24 0;
#X connect 24 0 22 0;
#X connect 24 0 83 0;
#X connect 25 0 21 1;
#X connect 26 0 62 0;
#X connect 26 0 97 0;
#X connect 26 0 116 0;
#X connect 27 0 23 0;
#X connect 27 0 33 0;
#X connect 27 0 118 0;
#X connect 28 0 9 1;
#X connect 29 0 30 0;
#X connect 29 1 30 1;
#X connect 32 0 96 3;
#X connect 33 0 32 1;
#X connect 34 0 6 0;
#X connect 35 0 99 0;
#X connect 35 0 26 0;
#X connect 36 0 17 0;
#X connect 37 0 38 0;
#X connect 38 0 33 0;
#X connect 39 0 3 1;
#X connect 40 0 52 0;
#X connect 41 0 31 0;
#X connect 41 0 116 0;
#X connect 42 0 31 0;
#X connect 42 0 116 0;
#X connect 43 0 44 0;
#X connect 43 1 44 1;
#X connect 44 0 46 0;
#X connect 45 0 44 0;
#X connect 46 0 28 0;
#X connect 46 0 99 1;
#X connect 46 0 103 1;
#X connect 47 0 48 0;
#X connect 47 1 48 1;
#X connect 48 0 68 0;
#X connect 49 0 48 0;
#X connect 50 0 8 0;
#X connect 50 0 53 1;
#X connect 51 0 54 0;
#X connect 52 0 53 0;
#X connect 53 0 91 0;
#X connect 54 0 59 0;
#X connect 54 1 55 0;
#X connect 55 0 56 0;
#X connect 56 0 57 0;
#X connect 56 0 61 0;
#X connect 57 0 56 1;
#X connect 58 1 52 0;
#X connect 59 0 60 0;
#X connect 60 0 56 0;
#X connect 61 0 58 0;
#X connect 62 0 32 0;
#X connect 62 0 21 0;
#X connect 62 0 9 0;
#X connect 62 0 10 0;
#X connect 62 0 67 0;
#X connect 63 0 65 0;
#X connect 63 0 95 0;
#X connect 64 0 121 0;
#X connect 65 0 66 0;
#X connect 67 0 96 4;
#X connect 68 0 67 1;
#X connect 68 0 103 0;
#X connect 69 0 39 0;
#X connect 73 0 72 0;
#X connect 74 0 75 0;
#X connect 76 0 77 0;
#X connect 76 1 77 1;
#X connect 77 0 50 0;
#X connect 78 0 77 0;
#X connect 79 0 80 0;
#X connect 80 0 45 0;
#X connect 81 0 13 0;
#X connect 82 0 94 0;
#X connect 83 0 88 0;
#X connect 83 1 84 0;
#X connect 84 0 85 0;
#X connect 85 0 86 0;
#X connect 85 0 90 0;
#X connect 86 0 85 1;
#X connect 87 1 102 0;
#X connect 88 0 89 0;
#X connect 89 0 85 0;
#X connect 90 0 87 0;
#X connect 91 0 92 0;
#X connect 92 0 17 0;
#X connect 92 0 6 0;
#X connect 93 0 45 0;
#X connect 94 0 49 0;
#X connect 95 0 78 0;
#X connect 96 0 107 0;
#X connect 96 0 108 0;
#X connect 97 0 96 5;
#X connect 98 0 97 1;
#X connect 99 0 100 0;
#X connect 100 0 101 0;
#X connect 101 0 17 0;
#X connect 101 0 6 0;
#X connect 102 0 99 0;
#X connect 103 0 98 0;
#X connect 107 0 6 0;
#X connect 108 0 17 0;
#X connect 110 0 3 0;
#X connect 110 0 5 0;
#X connect 111 0 3 0;
#X connect 111 0 52 0;
#X connect 111 0 5 0;
#X connect 112 0 5 0;
#X connect 113 0 27 0;
#X connect 114 0 19 0;
#X connect 115 0 51 0;
#X connect 117 0 7 0;
#X connect 119 0 27 1;
#X connect 119 0 37 0;
#X connect 119 0 25 0;
#X connect 120 0 117 1;
#X connect 121 0 117 0;
#X connect 122 0 3 0;
