#N canvas 287 128 928 1028 10;
#X obj 215 180 inlet;
#X obj 198 662 inlet;
#X obj 303 679 outlet~;
#X obj 446 665 inlet;
#X obj 599 181 inlet;
#X obj 470 179 inlet;
#X floatatom 196 688 7 0 0 0 - - -;
#X floatatom 446 687 7 0 0 0 - - -;
#X obj 300 629 vline~;
#X obj 303 653 pow~ 2;
#X obj -30 598 sel;
#X obj -33 636 bng 15 250 50 0 empty empty empty 17 7 0 10 -262144
-1 -1;
#X obj -14 618 bng 15 250 50 0 empty empty empty 17 7 0 10 -262144
-1 -1;
#X obj 167 412 bng 20 250 50 0 empty empty empty 17 7 0 10 -4034 -1
-1;
#X obj 168 389 bng 15 250 50 0 empty empty empty 17 7 0 10 -262144
-1 -1;
#X floatatom 214 219 5 0 0 0 - - -;
#X obj 434 505 bng 20 250 50 0 empty empty empty 17 7 0 10 -260097
-1 -1;
#X obj 168 466 bng 20 250 50 0 empty empty empty 17 7 0 10 -260097
-1 -1;
#X obj 168 559 pack f f;
#X obj 538 549 pack f f;
#X floatatom 211 537 5 0 0 0 - - -;
#X obj 215 251 t b f;
#X obj 218 281 * 1;
#X floatatom 118 255 5 0 0 0 - - -;
#X floatatom 596 308 5 0 0 0 - - -;
#X obj 333 777 line;
#X obj 334 801 hsl 128 15 0 1 0 0 empty empty empty -2 -8 0 10 -262144
-1 -1 12700 1;
#X obj 195 711 f;
#X obj 430 706 f;
#X obj 436 484 delay 0;
#X obj 275 527 bng 44 250 50 0 empty empty empty 17 7 0 10 -4034 -1
-1;
#X obj 320 528 bng 44 250 50 0 empty empty empty 17 7 0 10 -260097
-1 -1;
#X obj 169 366 r TRGnA_@load;
#X obj 330 844 s opaENVA;
#X obj 117 188 r T$mod;
#X floatatom 478 325 5 0 0 0 - - -;
#X floatatom 597 215 5 0 0 0 - - -;
#X obj 596 252 t b f;
#X obj 596 280 * 1;
#X obj 523 364 - 1;
#X obj 521 383 * -1;
#X obj 478 346 t b f;
#X floatatom 475 462 5 0 0 0 - - -;
#X obj 539 572 spigot-toggle_vert;
#X obj -43 468 r Abutton;
#X obj 330 825 pow 2;
#X text 459 149 env sustain;
#X text 544 150 env out;
#X obj 201 395 r BBmod;
#X floatatom 819 228 5 0 0 0 - - -;
#X obj 819 207 == 0;
#X obj 773 183 == 1;
#X text 706 142 env out @ fin de serie step off;
#X obj 819 186 r trgrAmodenv;
#X obj 775 163 r trgrafterAmod;
#X obj -43 724 *~ 7;
#X floatatom -55 816 5 0 0 0 - - -;
#X obj -96 746 bng 15 250 50 0 empty empty empty 17 7 0 10 -262144
-1 -1;
#X obj -43 752 tabwrite~ array1;
#X obj -95 721 r BBmod;
#X msg -55 838 \; array1 resize \$1;
#X obj 771 341 bng 15 250 50 0 empty empty empty 17 7 0 10 -262144
-1 -1;
#X obj 771 378 f;
#X obj 798 378 + 1;
#X obj 790 462 bng 15 250 50 0 empty empty empty 17 7 0 10 -262144
-1 -1;
#X obj 771 440 sel 0 1;
#X obj 771 462 bng 15 250 50 0 empty empty empty 17 7 0 10 -262144
-1 -1;
#X obj 799 341 bng 15 250 50 0 empty empty empty 17 7 0 10 -262144
-1 -1;
#X obj 772 296 +;
#X msg 798 359 -1;
#X obj 771 319 sel 2;
#X obj 771 420 mod 200;
#X obj -5 729 * 44;
#X obj 478 368 * 1;
#X obj -100 766 spigot-toggle_vert;
#X obj -13 816 spigot-toggle_vert;
#X obj -90 794 inlet;
#X obj -101 936 metro 250;
#X obj -98 890 tgl 23 0 empty empty empty 17 7 0 10 -1 -260097 -260097
1 1;
#X msg -55 913 8000;
#X floatatom 771 208 5 0 0 0 - - -;
#X obj 578 485 f;
#X floatatom 575 514 5 0 0 0 - - -;
#X obj 771 542 pack f f;
#X msg 772 521 0;
#X obj 771 482 delay 0;
#X obj 815 520 f;
#X obj 772 502 bng 15 250 50 0 empty empty empty 17 7 0 10 -262144
-1 -1;
#X obj 597 558 r lo;
#X obj -42 490 sel;
#X obj -40 519 bng 15 250 50 0 empty empty empty 17 7 0 10 -262144
-1 -1;
#X obj -17 489 bng 15 250 50 0 empty empty empty 17 7 0 10 -262144
-1 -1;
#X obj -32 575 r øAtiTS1;
#X obj -37 319 r trgrmodA;
#X obj -35 340 sel;
#X obj -34 363 bng 15 250 50 0 empty empty empty 17 7 0 10 -262144
-1 -1;
#X obj -35 438 bng 15 250 50 0 empty empty empty 17 7 0 10 -262144
-1 -1;
#X obj -30 385 r sl_trgA;
#X obj -36 412 spigot-toggle_vert;
#X obj 10 433 delay 0;
#X floatatom 31 409 5 0 0 0 - - -;
#X obj -19 783 f;
#X obj 475 400 t b f;
#X obj 475 422 * 1;
#X obj 108 513 spigot-toggle_vert;
#X obj 118 442 r lo;
#X obj 104 379 r >stop;
#X obj 119 399 - 1;
#X obj 120 418 * -1;
#X obj -32 934 s metroenvAetB;
#X obj 65 812 inlet;
#X msg 169 532 1;
#X msg 538 523 0;
#X floatatom 225 461 5 0 0 0 - - -;
#X obj 168 436 spigot-toggle_vert;
#X obj 226 438 spigot-toggle_vert;
#X obj 270 440 r SL_trgAB;
#X obj 267 462 == 0;
#X obj 26 727 r T$mod;
#X obj 552 637 r Abutton;
#X obj 549 656 - 1;
#X obj 547 675 * -1;
#X obj 628 556 r trgrmodenvA;
#X obj 223 419 r trgrmodenvA;
#X obj 226 482 sel;
#X obj 226 500 bng 15 250 50 0 empty empty empty 17 7 0 10 -262144
-1 -1;
#X connect 0 0 15 0;
#X connect 1 0 6 0;
#X connect 3 0 7 0;
#X connect 4 0 36 0;
#X connect 5 0 35 0;
#X connect 6 0 27 1;
#X connect 7 0 28 1;
#X connect 8 0 9 0;
#X connect 9 0 2 0;
#X connect 9 0 55 0;
#X connect 10 0 11 0;
#X connect 10 1 12 0;
#X connect 11 0 16 0;
#X connect 12 0 111 0;
#X connect 13 0 114 0;
#X connect 14 0 13 0;
#X connect 15 0 21 0;
#X connect 16 0 31 0;
#X connect 16 0 112 0;
#X connect 16 0 28 0;
#X connect 17 0 30 0;
#X connect 17 0 81 0;
#X connect 17 0 29 0;
#X connect 17 0 111 0;
#X connect 18 0 25 0;
#X connect 18 0 8 0;
#X connect 19 0 43 0;
#X connect 20 0 18 1;
#X connect 21 0 22 0;
#X connect 21 1 22 1;
#X connect 22 0 20 0;
#X connect 23 0 22 0;
#X connect 23 0 100 0;
#X connect 23 0 38 0;
#X connect 23 0 73 0;
#X connect 24 0 81 1;
#X connect 25 0 26 0;
#X connect 26 0 45 0;
#X connect 27 0 45 1;
#X connect 27 0 9 1;
#X connect 28 0 45 1;
#X connect 28 0 9 1;
#X connect 29 0 16 0;
#X connect 32 0 14 0;
#X connect 34 0 23 0;
#X connect 35 0 41 0;
#X connect 36 0 37 0;
#X connect 36 0 39 0;
#X connect 37 0 38 0;
#X connect 37 1 38 1;
#X connect 38 0 24 0;
#X connect 39 0 40 0;
#X connect 40 0 103 0;
#X connect 41 0 73 0;
#X connect 41 1 73 1;
#X connect 42 0 29 1;
#X connect 43 0 8 0;
#X connect 43 0 25 0;
#X connect 44 0 89 0;
#X connect 45 0 33 0;
#X connect 48 0 13 0;
#X connect 49 0 68 1;
#X connect 50 0 49 0;
#X connect 51 0 80 0;
#X connect 53 0 50 0;
#X connect 54 0 51 0;
#X connect 55 0 58 0;
#X connect 56 0 60 0;
#X connect 57 0 74 0;
#X connect 57 0 101 0;
#X connect 59 0 57 0;
#X connect 61 0 62 0;
#X connect 62 0 63 0;
#X connect 63 0 62 1;
#X connect 65 0 66 0;
#X connect 65 1 64 0;
#X connect 66 0 85 0;
#X connect 67 0 69 0;
#X connect 68 0 70 0;
#X connect 69 0 62 0;
#X connect 70 0 61 0;
#X connect 70 1 67 0;
#X connect 71 0 65 0;
#X connect 72 0 101 1;
#X connect 73 0 102 0;
#X connect 74 0 58 0;
#X connect 75 0 56 0;
#X connect 76 0 75 1;
#X connect 76 0 74 1;
#X connect 77 0 58 0;
#X connect 77 0 109 0;
#X connect 78 0 77 0;
#X connect 78 0 79 0;
#X connect 79 0 56 0;
#X connect 80 0 68 0;
#X connect 81 0 82 0;
#X connect 82 0 19 1;
#X connect 84 0 83 0;
#X connect 85 0 87 0;
#X connect 86 0 83 1;
#X connect 87 0 86 0;
#X connect 87 0 84 0;
#X connect 88 0 43 1;
#X connect 89 0 90 0;
#X connect 89 1 91 0;
#X connect 90 0 99 0;
#X connect 90 0 104 0;
#X connect 92 0 10 0;
#X connect 92 0 114 1;
#X connect 93 0 94 0;
#X connect 94 0 95 0;
#X connect 95 0 98 0;
#X connect 96 0 11 0;
#X connect 97 0 98 1;
#X connect 98 0 96 0;
#X connect 99 0 104 0;
#X connect 100 0 99 1;
#X connect 101 0 75 0;
#X connect 102 0 103 0;
#X connect 102 1 103 1;
#X connect 103 0 42 0;
#X connect 104 0 111 0;
#X connect 105 0 104 1;
#X connect 105 0 114 1;
#X connect 106 0 107 0;
#X connect 107 0 108 0;
#X connect 108 0 104 1;
#X connect 110 0 78 0;
#X connect 111 0 18 0;
#X connect 112 0 19 0;
#X connect 113 0 124 0;
#X connect 114 0 17 0;
#X connect 115 0 113 0;
#X connect 116 0 115 1;
#X connect 116 0 117 0;
#X connect 117 0 113 0;
#X connect 118 0 72 0;
#X connect 119 0 120 0;
#X connect 120 0 121 0;
#X connect 121 0 43 1;
#X connect 122 0 43 1;
#X connect 123 0 115 0;
#X connect 124 0 125 0;
#X connect 125 0 16 0;
