#N canvas 128 885 967 1028 10;
#X obj 411 565 inlet;
#X obj 270 578 outlet~;
#X obj 447 53 inlet;
#X obj 200 570 inlet;
#X floatatom 200 590 7 0 0 0 - - -;
#X floatatom 412 587 7 0 0 0 - - -;
#X obj 270 556 pow~ 2;
#X obj 193 289 bng 20 250 50 0 empty empty empty 17 7 0 10 -4034 -1
-1;
#X obj 196 243 bng 15 250 50 0 empty empty empty 17 7 0 10 -262144
-1 -1;
#X floatatom 221 101 5 0 0 0 - - -;
#X obj 394 423 bng 20 250 50 0 empty empty empty 17 7 0 10 -260097
-1 -1;
#X obj 188 395 bng 20 250 50 0 empty empty empty 17 7 0 10 -260097
-1 -1;
#X obj 167 461 pack f f;
#X msg 481 430 0;
#X floatatom 210 436 5 0 0 0 - - -;
#X obj 221 123 t b f;
#X obj 225 174 * 1;
#X floatatom 112 132 5 0 0 0 - - -;
#X obj 275 725 line;
#X obj 277 745 hsl 128 15 0 1 0 0 empty empty empty -2 -8 0 10 -262144
-1 -1 12700 1;
#X obj 188 615 f;
#X obj 395 612 f;
#X obj 280 462 bng 44 250 50 0 empty empty empty 17 7 0 10 -4034 -1
-1;
#X obj 325 461 bng 44 250 50 0 empty empty empty 17 7 0 10 -260097
-1 -1;
#X floatatom 449 175 5 0 0 0 - - -;
#X floatatom 541 108 5 0 0 0 - - -;
#X obj 541 130 t b f;
#X obj 541 153 * 1;
#X obj 493 241 - 1;
#X obj 493 260 * -1;
#X obj 449 262 t b f;
#X floatatom 453 322 5 0 0 0 - - -;
#X text 186 13 env forward;
#X obj 273 772 pow 2;
#X text 262 11 env in;
#X text 351 5 env sustain;
#X text 436 6 env out;
#X obj 272 793 s opaENVB;
#X obj 110 44 r T$mod1;
#X obj 198 221 r TRGnB_@load;
#X obj 204 262 r BBBmod;
#X obj 544 57 inlet;
#X obj 224 49 inlet;
#X obj 114 360 r lo;
#X msg 167 434 1;
#X floatatom 797 192 5 0 0 0 - - -;
#X obj 797 171 == 0;
#X obj 783 99 == 1;
#X text 716 58 env out @ fin de serie step off;
#X obj 781 257 bng 15 250 50 0 empty empty empty 17 7 0 10 -262144
-1 -1;
#X obj 781 296 f;
#X obj 806 296 + 1;
#X obj 800 378 bng 15 250 50 0 empty empty empty 17 7 0 10 -262144
-1 -1;
#X floatatom 781 316 5 0 0 0 - - -;
#X obj 781 356 sel 0 1;
#X obj 781 378 bng 15 250 50 0 empty empty empty 17 7 0 10 -262144
-1 -1;
#X obj 809 257 bng 15 250 50 0 empty empty empty 17 7 0 10 -262144
-1 -1;
#X msg 800 276 -1;
#X obj 781 235 sel 2;
#X obj 781 336 mod 200;
#X floatatom 782 128 5 0 0 0 - - -;
#X obj 780 497 pack f f;
#X msg 781 476 0;
#X obj 781 398 delay 0;
#X obj 824 475 f;
#X obj 783 452 bng 15 250 50 0 empty empty empty 17 7 0 10 -262144
-1 -1;
#X obj 796 150 r trgrBmodenv;
#X obj -15 447 sel;
#X obj -14 492 bng 15 250 50 0 empty empty empty 17 7 0 10 -262144
-1 -1;
#X obj -1 470 bng 15 250 50 0 empty empty empty 17 7 0 10 -262144 -1
-1;
#X obj -11 365 sel;
#X obj -21 388 bng 15 250 50 0 empty empty empty 17 7 0 10 -262144
-1 -1;
#X obj 7 390 bng 15 250 50 0 empty empty empty 17 7 0 10 -262144 -1
-1;
#X obj -13 215 sel;
#X obj -12 238 bng 15 250 50 0 empty empty empty 17 7 0 10 -262144
-1 -1;
#X obj -13 313 bng 15 250 50 0 empty empty empty 17 7 0 10 -262144
-1 -1;
#X obj -14 287 spigot-toggle_vert;
#X obj 74 285 delay 0;
#X floatatom 114 262 5 0 0 0 - - -;
#X obj -15 194 r trgrmodB;
#X obj -8 260 r sl_trgrB;
#X obj -12 343 r Bbutton;
#X obj -17 424 r øAtiTS2;
#X obj 480 481 spigot-toggle_vert;
#X obj 568 467 r lo;
#X obj 504 543 r Bbutton;
#X obj -71 584 *~ 7;
#X floatatom -83 676 5 0 0 0 - - -;
#X obj -166 577 bng 15 250 50 0 empty empty empty 17 7 0 10 -262144
-1 -1;
#X obj -40 633 * 44;
#X obj -170 597 spigot-toggle_vert;
#X obj -17 666 spigot-toggle_vert;
#X obj -126 750 tgl 23 0 empty empty empty 17 7 0 10 -1 -260097 -260097
0 1;
#X msg -83 773 8000;
#X obj -165 552 r BBBmod;
#X obj -71 612 tabwrite~ env5;
#X msg -83 698 \; env5 resize \$1;
#X obj 173 731 inlet;
#X obj 449 284 * 1;
#X obj 412 386 delay 0;
#X obj 271 533 vline~;
#X obj 481 452 pack f f;
#X obj -41 655 f;
#X obj 117 335 r >stop1;
#X obj 108 398 spigot-toggle_vert;
#X obj -60 795 r metroenvAetB;
#X obj -119 779 spigot-toggle_vert;
#X obj 11 773 inlet;
#X obj 449 196 t b f;
#X obj 449 218 * 1;
#X obj 189 358 spigot-toggle_vert;
#X obj 1399 -148 r sl_trgAB;
#X obj 1401 -120 r sl_trgBB;
#X floatatom 235 350 5 0 0 0 - - -;
#X obj 236 327 spigot-toggle_vert;
#X obj 279 353 == 0;
#X obj 280 329 r SL_trgABBB;
#X obj 785 79 r trgraftermodB;
#X obj 773 211;
#X obj -7 633 r T$mod1;
#X obj 505 565 - 1;
#X obj 503 584 * -1;
#X floatatom 619 468 5 0 0 0 - - -;
#X obj 601 446 r trgrmodenvB;
#X obj 233 308 r trgrmodenvB;
#X obj 236 370 sel;
#X obj 236 388 bng 15 250 50 0 empty empty empty 17 7 0 10 -262144
-1 -1;
#X obj 533 421 f;
#X connect 0 0 5 0;
#X connect 2 0 24 0;
#X connect 3 0 4 0;
#X connect 4 0 20 1;
#X connect 5 0 21 1;
#X connect 6 0 1 0;
#X connect 6 0 86 0;
#X connect 7 0 110 0;
#X connect 8 0 7 0;
#X connect 9 0 15 0;
#X connect 10 0 23 0;
#X connect 10 0 13 0;
#X connect 10 0 21 0;
#X connect 11 0 20 0;
#X connect 11 0 22 0;
#X connect 11 0 44 0;
#X connect 11 0 127 0;
#X connect 11 0 99 0;
#X connect 12 0 18 0;
#X connect 12 0 100 0;
#X connect 13 0 101 0;
#X connect 14 0 12 1;
#X connect 15 0 16 0;
#X connect 15 1 16 1;
#X connect 16 0 14 0;
#X connect 17 0 78 0;
#X connect 17 0 16 0;
#X connect 17 0 27 0;
#X connect 17 0 109 0;
#X connect 18 0 19 0;
#X connect 19 0 33 0;
#X connect 20 0 6 1;
#X connect 20 0 33 1;
#X connect 21 0 6 1;
#X connect 21 0 33 1;
#X connect 24 0 108 0;
#X connect 25 0 26 0;
#X connect 25 0 28 0;
#X connect 26 0 27 0;
#X connect 26 1 27 1;
#X connect 27 0 127 1;
#X connect 28 0 29 0;
#X connect 29 0 98 0;
#X connect 30 0 98 0;
#X connect 30 1 98 1;
#X connect 31 0 99 1;
#X connect 33 0 37 0;
#X connect 38 0 17 0;
#X connect 39 0 8 0;
#X connect 40 0 7 0;
#X connect 41 0 25 0;
#X connect 42 0 9 0;
#X connect 43 0 104 1;
#X connect 43 0 110 1;
#X connect 44 0 12 0;
#X connect 45 0 118 1;
#X connect 46 0 45 0;
#X connect 47 0 60 0;
#X connect 49 0 50 0;
#X connect 50 0 51 0;
#X connect 50 0 53 0;
#X connect 51 0 50 1;
#X connect 53 0 59 0;
#X connect 54 0 55 0;
#X connect 54 1 52 0;
#X connect 55 0 63 0;
#X connect 56 0 57 0;
#X connect 57 0 50 0;
#X connect 58 0 49 0;
#X connect 58 1 56 0;
#X connect 59 0 54 0;
#X connect 60 0 118 0;
#X connect 62 0 61 0;
#X connect 64 0 61 1;
#X connect 65 0 64 0;
#X connect 65 0 62 0;
#X connect 66 0 46 0;
#X connect 67 0 68 0;
#X connect 67 1 69 0;
#X connect 68 0 10 0;
#X connect 69 0 11 0;
#X connect 70 0 71 0;
#X connect 70 1 72 0;
#X connect 71 0 77 0;
#X connect 71 0 104 0;
#X connect 71 0 44 0;
#X connect 73 0 74 0;
#X connect 74 0 76 0;
#X connect 75 0 68 0;
#X connect 76 0 75 0;
#X connect 77 0 104 0;
#X connect 78 0 77 1;
#X connect 79 0 73 0;
#X connect 80 0 76 1;
#X connect 81 0 70 0;
#X connect 82 0 67 0;
#X connect 83 0 18 0;
#X connect 83 0 100 0;
#X connect 84 0 83 1;
#X connect 85 0 120 0;
#X connect 86 0 95 0;
#X connect 87 0 96 0;
#X connect 88 0 90 0;
#X connect 88 0 102 0;
#X connect 89 0 102 1;
#X connect 90 0 95 0;
#X connect 91 0 87 0;
#X connect 92 0 93 0;
#X connect 92 0 106 1;
#X connect 93 0 87 0;
#X connect 94 0 88 0;
#X connect 97 0 91 1;
#X connect 97 0 90 1;
#X connect 98 0 31 0;
#X connect 99 0 10 0;
#X connect 100 0 6 0;
#X connect 101 0 83 0;
#X connect 102 0 91 0;
#X connect 103 0 104 1;
#X connect 104 0 44 0;
#X connect 105 0 106 0;
#X connect 106 0 95 0;
#X connect 107 0 92 0;
#X connect 108 0 109 0;
#X connect 108 1 109 1;
#X connect 109 0 30 0;
#X connect 110 0 11 0;
#X connect 113 0 110 1;
#X connect 113 0 125 0;
#X connect 114 0 113 0;
#X connect 115 0 113 0;
#X connect 116 0 114 1;
#X connect 116 0 115 0;
#X connect 117 0 47 0;
#X connect 118 0 58 0;
#X connect 119 0 89 0;
#X connect 120 0 121 0;
#X connect 121 0 83 1;
#X connect 122 0 83 1;
#X connect 123 0 122 0;
#X connect 124 0 114 0;
#X connect 125 0 126 0;
#X connect 126 0 10 0;
#X connect 127 0 101 1;
