#N canvas 1093 116 856 756 10;
#X obj 466 552 inlet;
#X obj 564 906 inlet;
#X obj 133 128 inlet;
#X obj -1112 228 spigot-toggle_red;
#X obj 1145 -268 t b f;
#X obj 1145 -243 *;
#X obj 374 1107 outlet~;
#X obj 548 549 inlet;
#X obj 733 581 inlet;
#X obj 505 550 inlet;
#X obj 118 204 spigot-toggle_red;
#X obj 508 451 bng 20 250 50 0 empty empty empty 17 7 0 10 -4034 -1
-1;
#X obj 353 981 vline~;
#X floatatom 656 640 5 0 0 0 - - -;
#X floatatom 434 724 5 0 0 0 - - -;
#X obj 361 791 f;
#X obj 390 790 f;
#X obj 118 306 pack \$1 \$0;
#X floatatom 189 310 12 0 0 0 - - -;
#X floatatom 118 282 12 0 0 0 - - -;
#X obj 118 232 f;
#X floatatom 395 958 7 0 0 0 - - -;
#X floatatom 568 965 7 0 0 0 - - -;
#X obj 504 984 vline~;
#X obj 416 790 f;
#X floatatom 173 606 5 0 0 0 - - -;
#X obj 174 526 - 1;
#X obj 174 551 * -1;
#X floatatom 468 724 5 0 0 0 - - -;
#X obj 357 726 bng 15 250 50 0 empty empty empty 17 7 0 10 -262144
-1 -1;
#X obj 178 496 spigot-toggle_red;
#X floatatom 394 724 5 0 0 0 - - -;
#X obj 444 790 f;
#X floatatom 509 724 5 0 0 0 - - -;
#X msg 359 933 stop;
#X msg 519 940 stop;
#X obj 250 478 - 1;
#X obj 250 503 * -1;
#X obj 511 1007 pow~ 4;
#X obj 371 1012 pow~ 2;
#X obj 416 647 t b f;
#X obj 420 676 * 1;
#X obj 485 647 t b f;
#X obj 484 676 * 1;
#X obj 475 790 f;
#X floatatom 553 724 5 0 0 0 - - -;
#X obj 552 647 t b f;
#X obj 560 676 * 1;
#X obj 118 257 * 100;
#X floatatom 434 595 5 0 0 0 - - -;
#X floatatom 496 595 5 0 0 0 - - -;
#X floatatom 559 607 5 0 0 0 - - -;
#X obj 509 790 f;
#X floatatom 631 767 5 0 0 0 - - -;
#X obj 655 614 * 1;
#X floatatom 692 603 5 0 0 0 - - -;
#X floatatom 654 582 5 0 0 0 - - -;
#X obj 202 484 r lo;
#X obj 675 872 f;
#X obj 674 895 pack f;
#X obj 626 716 t b f;
#X obj 776 701 bng 15 250 50 0 empty empty empty 17 7 0 10 -262144
-1 -1;
#X obj 500 499 t b b;
#X obj 564 451 bng 20 250 50 0 empty empty empty 17 7 0 10 -258113
-1 -1;
#X obj 888 717 f;
#X obj 914 717 + 1;
#X obj 774 769 bng 15 250 50 0 empty empty empty 17 7 0 10 -262144
-1 -1;
#X obj 888 763 mod 200;
#X floatatom 888 737 5 0 0 0 - - -;
#X floatatom 828 634 5 0 0 0 - - -;
#X obj 362 755 t b b b b b b;
#X obj 595 452 bng 20 250 50 0 empty empty empty 17 7 0 10 -260097
-1 -1;
#X obj 90 806 f;
#X obj 116 806 + 1;
#X obj 117 916 bng 15 250 50 0 empty empty empty 17 7 0 10 -262144
-1 -1;
#X obj 135 915 bng 15 250 50 0 empty empty empty 17 7 0 10 -262144
-1 -1;
#X obj 90 852 mod 200;
#X floatatom 90 826 5 0 0 0 - - -;
#X obj 82 781 bng 15 250 50 0 empty empty empty 17 7 0 10 -262144 -1
-1;
#X obj 775 678 sel;
#X floatatom 854 442 5 0 0 0 - - -;
#X floatatom 753 437 5 0 0 0 - - -;
#X obj 90 879 sel 0 1;
#X obj 776 605 bng 15 250 50 0 empty empty empty 17 7 0 10 -262144
-1 -1;
#X obj 84 754 sel;
#X floatatom 120 486 5 0 0 0 - - -;
#X obj 628 739 + 0;
#X obj 908 816 bng 15 250 50 0 empty empty empty 17 7 0 10 -262144
-1 -1;
#X obj 817 671 bng 15 250 50 0 empty empty empty 17 7 0 10 -262144
-1 -1;
#X msg 104 782 -1;
#X floatatom 800 799 5 0 0 0 - - -;
#X obj 854 461 t b f;
#X obj 888 790 sel 0 1;
#X obj 775 641 f;
#X msg 671 918 0 \$1;
#X obj 791 543 >;
#X obj 775 821 delay;
#X obj 749 415 r trgrafter_env5;
#X obj 854 416 r trgrtoenvB;
#X obj 351 168 r bonktoenvB;
#X obj 708 1132 tabwrite~ env5;
#X msg 118 351 \; env5 resize \$1, f 15;
#X obj 96 418 r trgrtoenvB;
#X obj 186 578 r trgrtoenvonoffB;
#X obj 776 580 r ITBAng_env5;
#X obj 696 641 outlet;
#X obj 441 923 inlet;
#X obj 500 382 r BBBmod;
#X obj 654 562 r T$mod1;
#X obj 358 529 spigot-toggle_red;
#X obj 355 474 - 1;
#X obj 355 499 * -1;
#X obj 354 448 r ø@S1;
#X obj 385 472 r lo;
#X obj 179 127 r SmplbangB;
#X obj 272 218 bng 20 250 50 0 empty empty empty 17 7 0 10 -4034 -1
-1;
#X msg 892 695 -1;
#X obj 891 816 bng 15 250 50 0 empty empty empty 17 7 0 10 -262144
-1 -1;
#X obj 82 925 bng 15 250 50 0 empty empty empty 17 7 0 10 -262144 -1
-1;
#X obj 630 798 * 0.99;
#X obj 195 662 - 1;
#X obj 195 687 * -1;
#X obj 267 893 f;
#X obj 268 916 pack f;
#X obj 282 872 * 1;
#X floatatom 252 722 5 0 0 0 - - -;
#X msg 270 938 1 \$1;
#X obj 263 788 spigot-toggle_red;
#X obj 282 750 delay 11;
#X obj 193 636 r Bbutton;
#X msg 507 874 0 0 \$1 \, \$4 0 \$6 \, \$3 \$2 \$6;
#X msg 354 875 \$4 \$1 \, \$4 0 \$5 \, 0 0 \$6;
#X obj 365 837 pack f f f f f f;
#X connect 0 0 49 0;
#X connect 1 0 22 0;
#X connect 2 0 10 1;
#X connect 4 0 5 0;
#X connect 4 1 5 1;
#X connect 7 0 51 0;
#X connect 8 0 55 0;
#X connect 9 0 50 0;
#X connect 10 0 20 0;
#X connect 10 0 100 0;
#X connect 11 0 62 0;
#X connect 11 0 10 0;
#X connect 12 0 39 0;
#X connect 13 0 46 0;
#X connect 13 0 40 0;
#X connect 13 0 42 0;
#X connect 13 0 20 1;
#X connect 13 0 105 0;
#X connect 13 0 128 1;
#X connect 14 0 16 1;
#X connect 14 0 58 1;
#X connect 15 0 132 0;
#X connect 16 0 132 1;
#X connect 17 0 101 0;
#X connect 18 0 17 1;
#X connect 19 0 17 0;
#X connect 20 0 48 0;
#X connect 21 0 39 1;
#X connect 22 0 38 1;
#X connect 23 0 38 0;
#X connect 24 0 132 2;
#X connect 25 0 28 0;
#X connect 26 0 27 0;
#X connect 27 0 25 0;
#X connect 28 0 24 1;
#X connect 29 0 70 0;
#X connect 29 0 128 0;
#X connect 30 0 26 0;
#X connect 30 0 33 0;
#X connect 31 0 15 1;
#X connect 31 0 60 0;
#X connect 31 0 124 0;
#X connect 32 0 132 3;
#X connect 33 0 32 1;
#X connect 34 0 12 0;
#X connect 35 0 23 0;
#X connect 36 0 37 0;
#X connect 37 0 33 0;
#X connect 38 0 100 0;
#X connect 38 0 6 0;
#X connect 39 0 100 0;
#X connect 39 0 6 0;
#X connect 40 0 41 0;
#X connect 40 1 41 1;
#X connect 41 0 31 0;
#X connect 42 0 43 0;
#X connect 42 1 43 1;
#X connect 43 0 45 0;
#X connect 44 0 132 4;
#X connect 45 0 44 1;
#X connect 45 0 86 0;
#X connect 46 0 47 0;
#X connect 46 1 47 1;
#X connect 47 0 14 0;
#X connect 48 0 19 0;
#X connect 49 0 41 0;
#X connect 50 0 43 0;
#X connect 51 0 47 0;
#X connect 52 0 132 5;
#X connect 53 0 52 1;
#X connect 53 0 119 0;
#X connect 54 0 13 0;
#X connect 55 0 54 1;
#X connect 56 0 54 0;
#X connect 57 0 30 1;
#X connect 58 0 59 0;
#X connect 59 0 94 0;
#X connect 60 0 86 0;
#X connect 60 1 86 1;
#X connect 61 0 116 0;
#X connect 62 1 29 0;
#X connect 63 0 10 0;
#X connect 63 0 109 0;
#X connect 64 0 65 0;
#X connect 64 0 68 0;
#X connect 65 0 64 1;
#X connect 66 0 96 0;
#X connect 67 0 92 0;
#X connect 68 0 67 0;
#X connect 69 0 93 1;
#X connect 70 0 15 0;
#X connect 70 1 16 0;
#X connect 70 2 24 0;
#X connect 70 3 32 0;
#X connect 70 4 44 0;
#X connect 70 5 52 0;
#X connect 71 0 58 0;
#X connect 71 0 10 0;
#X connect 72 0 73 0;
#X connect 72 0 77 0;
#X connect 73 0 72 1;
#X connect 76 0 82 0;
#X connect 77 0 76 0;
#X connect 78 0 72 0;
#X connect 79 0 61 0;
#X connect 79 1 88 0;
#X connect 80 0 91 0;
#X connect 81 0 95 0;
#X connect 82 0 63 0;
#X connect 82 0 118 0;
#X connect 82 1 74 0;
#X connect 82 2 75 0;
#X connect 83 0 93 0;
#X connect 84 0 78 0;
#X connect 84 1 89 0;
#X connect 86 0 53 0;
#X connect 88 0 64 0;
#X connect 89 0 72 0;
#X connect 90 0 96 1;
#X connect 91 0 95 0;
#X connect 91 1 95 1;
#X connect 92 0 117 0;
#X connect 92 1 87 0;
#X connect 93 0 79 0;
#X connect 94 0 12 0;
#X connect 94 0 23 0;
#X connect 95 0 69 0;
#X connect 96 0 71 0;
#X connect 97 0 81 0;
#X connect 98 0 80 0;
#X connect 99 0 10 0;
#X connect 102 0 30 0;
#X connect 102 0 85 0;
#X connect 102 0 84 0;
#X connect 103 0 30 1;
#X connect 103 0 36 0;
#X connect 103 0 28 0;
#X connect 103 0 69 0;
#X connect 104 0 83 0;
#X connect 106 0 21 0;
#X connect 107 0 11 0;
#X connect 108 0 56 0;
#X connect 109 0 122 0;
#X connect 110 0 111 0;
#X connect 111 0 109 1;
#X connect 112 0 110 0;
#X connect 113 0 109 1;
#X connect 114 0 10 0;
#X connect 114 0 115 0;
#X connect 116 0 64 0;
#X connect 117 0 66 0;
#X connect 119 0 90 0;
#X connect 120 0 121 0;
#X connect 121 0 125 0;
#X connect 122 0 123 0;
#X connect 123 0 126 0;
#X connect 124 0 122 1;
#X connect 125 0 127 1;
#X connect 126 0 12 0;
#X connect 127 0 10 0;
#X connect 127 0 122 0;
#X connect 128 0 127 0;
#X connect 129 0 120 0;
#X connect 130 0 23 0;
#X connect 131 0 12 0;
#X connect 132 0 130 0;
#X connect 132 0 131 0;
