#N canvas 1855 29 969 931 10;
#X obj 887 132 outlet~;
#X obj 545 -80 bng 15 250 50 0 empty empty empty 17 7 0 10 -262144
-1 -1;
#X obj 732 -318 inlet;
#X obj 1220 -328 inlet;
#X obj 959 -95 inlet;
#X floatatom 789 -615 5 0 0 0 - - -;
#X floatatom 851 -507 5 0 0 0 - - -;
#X obj 847 -433 *;
#X obj 853 -463 t b f;
#X obj 1084 -252 delay;
#X floatatom 845 -410 5 0 0 0 - - -;
#X obj 811 -249 delay;
#X obj 699 -248 t b f;
#X floatatom 739 -282 5 0 0 0 - - -;
#X floatatom 699 -186 12 0 0 0 - - -;
#X obj 774 -540 * 1;
#X obj 700 -223 * 1;
#X obj 895 -541 r lo;
#X obj 1077 -151 pack f f;
#X obj 816 -148 pack f f;
#X msg 890 -494 0;
#X obj 1085 -274 bng 15 250 50 0 empty empty empty 17 7 0 10 -262144
-1 -1;
#X obj 813 -273 bng 15 250 50 0 empty empty empty 17 7 0 10 -262144
-1 -1;
#X obj 1091 -466 t b f;
#X floatatom 1093 -424 12 0 0 0 - - -;
#X text 821 -510 crop;
#X obj 1151 -246 t b f;
#X floatatom 1154 -192 12 0 0 0 - - -;
#X floatatom 1204 -452 12 0 0 0 - - -;
#X obj 1094 -444 * 1;
#X obj 1151 -220 * 1;
#X obj 624 -627 bng 15 250 50 0 empty empty empty 17 7 0 10 -262144
-1 -1;
#X obj 774 -560 f;
#X obj 1085 -201 f;
#X obj 811 -203 f;
#X floatatom 1114 -228 5 0 0 0 - - -;
#X obj 812 -226 bng 15 250 50 0 empty empty empty 17 7 0 10 -262144
-1 -1;
#X floatatom 1193 -385 12 0 0 0 - - -;
#X obj 1196 -431 - 1;
#X obj 1196 -406 * -1;
#X floatatom 1044 -506 5 0 0 0 - - -;
#X obj 1043 -444 *;
#X obj 1040 -470 t b f;
#X floatatom 1041 -421 5 0 0 0 - - -;
#X obj 1149 -307 *;
#X floatatom 1147 -284 5 0 0 0 - - -;
#X floatatom 1151 -361 5 0 0 0 - - -;
#X obj 1149 -333 t b f;
#X floatatom 1219 -260 12 0 0 0 - - -;
#X obj 710 -562 t b b b;
#X obj 1084 -221 bng 15 250 50 0 empty empty empty 17 7 0 10 -262144
-1 -1;
#X text 1010 -506 crop;
#X text 747 -614 time;
#X floatatom 837 -223 5 0 0 0 - - -;
#X obj 1056 -565 r lo;
#X msg 1053 -538 1;
#X obj 884 -4 vline~;
#X floatatom 945 -34 7 0 0 0 - - -;
#X obj 572 -97 r trgrtoenv;
#X obj 778 -489 * 1;
#X obj 874 -246 r lo;
#X msg 874 -225 1;
#X obj 510 -127 r BBmod;
#X obj 789 -639 r T$mod;
#X obj 951 -293 - 1;
#X obj 951 -272 * -1;
#X obj 1047 -247 r ø>;
#X obj 949 -249 spigot-toggle_red;
#X obj 1016 -247 - 1;
#X obj 979 -247 * -1;
#X obj 988 -272 r lo;
#X obj 1047 -592 inlet;
#X obj 855 -580 inlet;
#X obj 878 59 pow~ 4;
#X obj 868 171 r T$mod;
#X floatatom 871 197 12 0 0 0 - - -;
#X msg 842 365 \; env1 resize \$1;
#X obj 847 326 pack \$1 \$0;
#X floatatom 904 294 12 0 0 0 - - -;
#X floatatom 823 295 12 0 0 0 - - -;
#X msg 824 424 \; env1 bounds 0 1 5 O;
#X obj 743 145 spigot-toggle_red;
#X obj 784 126 inlet;
#X obj 651 194 tabwrite~ env1;
#X obj 644 -76 - 1;
#X obj 674 -75 * -1;
#X obj 828 219 f;
#X obj 773 234 spigot-toggle_red;
#X obj 767 194 bng 15 250 50 0 empty empty empty 17 7 0 10 -262144
-1 -1;
#X floatatom 947 -72 7 0 0 0 - - -;
#X obj 881 -318 delay;
#X obj 880 -356 sel;
#X obj 881 -336 bng 15 250 50 0 empty empty empty 17 7 0 10 -262144
-1 -1;
#X msg 880 -294 0;
#X obj 947 -368 delay;
#X obj 947 -387 bng 15 250 50 0 empty empty empty 17 7 0 10 -262144
-1 -1;
#X floatatom 707 -62 7 0 0 0 - - -;
#X obj 965 -16 t b f;
#X floatatom 955 45 7 0 0 0 - - -;
#X obj 957 23 * 1;
#X obj 650 157 *~ -1;
#X obj 668 136 -~ 1;
#X obj 954 63 nbx 5 14 -1e+37 1e+37 0 0 empty empty empty 0 -8 0 10
-262144 -1 -1 1.69613 256;
#X obj 1077 -177 + 0;
#X obj 823 239 * 100;
#X obj 768 175 r BngtoenvA;
#X floatatom 1082 10 12 0 0 0 - - -;
#X obj 1083 -18 line;
#X obj 1067 79 hsl 128 15 0 1 0 0 empty empty empty -2 -8 0 10 -262144
-1 -1 0 1;
#X obj 1076 57 pow;
#X obj 1127 35 hsl 128 15 0 1 0 0 empty empty empty -2 -8 0 10 -262144
-1 -1 0 1;
#X text 575 -119 trgrtoenv c du 0/1.. so en Bang c pas acurate seguro
;
#X obj 943 -318 r ABselectA;
#X connect 1 0 31 0;
#X connect 1 0 83 0;
#X connect 2 0 13 0;
#X connect 3 0 48 0;
#X connect 4 0 89 0;
#X connect 5 0 32 1;
#X connect 6 0 8 0;
#X connect 7 0 10 0;
#X connect 8 0 7 0;
#X connect 8 1 7 1;
#X connect 9 0 50 0;
#X connect 10 0 11 1;
#X connect 11 0 36 0;
#X connect 12 0 16 0;
#X connect 12 1 16 1;
#X connect 13 0 16 0;
#X connect 14 0 19 1;
#X connect 15 0 59 0;
#X connect 16 0 14 0;
#X connect 17 0 20 0;
#X connect 18 0 56 0;
#X connect 19 0 56 0;
#X connect 20 0 8 0;
#X connect 21 0 9 0;
#X connect 22 0 11 0;
#X connect 22 0 21 0;
#X connect 23 0 29 0;
#X connect 23 1 29 1;
#X connect 24 0 9 1;
#X connect 26 0 30 0;
#X connect 26 1 30 1;
#X connect 27 0 18 1;
#X connect 27 0 90 1;
#X connect 27 0 94 1;
#X connect 28 0 38 0;
#X connect 29 0 24 0;
#X connect 30 0 27 0;
#X connect 31 0 49 0;
#X connect 31 0 22 0;
#X connect 32 0 15 0;
#X connect 33 0 103 0;
#X connect 34 0 19 0;
#X connect 35 0 33 1;
#X connect 36 0 34 0;
#X connect 37 0 29 0;
#X connect 38 0 39 0;
#X connect 39 0 37 0;
#X connect 40 0 42 0;
#X connect 40 0 46 0;
#X connect 41 0 43 0;
#X connect 42 0 41 0;
#X connect 42 1 41 1;
#X connect 43 0 23 0;
#X connect 44 0 45 0;
#X connect 45 0 26 0;
#X connect 46 0 47 0;
#X connect 47 0 44 0;
#X connect 47 1 44 1;
#X connect 48 0 30 0;
#X connect 48 0 28 0;
#X connect 49 2 32 0;
#X connect 50 0 33 0;
#X connect 53 0 34 1;
#X connect 54 0 55 0;
#X connect 55 0 40 0;
#X connect 56 0 73 0;
#X connect 57 0 99 0;
#X connect 58 0 84 0;
#X connect 58 0 1 0;
#X connect 59 0 12 0;
#X connect 59 0 7 0;
#X connect 59 0 41 0;
#X connect 59 0 44 0;
#X connect 60 0 61 0;
#X connect 61 0 53 0;
#X connect 62 0 1 0;
#X connect 63 0 5 0;
#X connect 64 0 65 0;
#X connect 65 0 67 0;
#X connect 66 0 68 0;
#X connect 67 0 35 0;
#X connect 67 0 18 0;
#X connect 68 0 69 0;
#X connect 69 0 67 1;
#X connect 70 0 67 1;
#X connect 71 0 40 0;
#X connect 72 0 6 0;
#X connect 73 0 0 0;
#X connect 73 0 101 0;
#X connect 74 0 75 0;
#X connect 75 0 86 1;
#X connect 77 0 76 0;
#X connect 78 0 77 1;
#X connect 79 0 77 0;
#X connect 81 0 83 0;
#X connect 82 0 81 1;
#X connect 82 0 87 1;
#X connect 84 0 85 0;
#X connect 85 0 96 0;
#X connect 86 0 104 0;
#X connect 87 0 86 0;
#X connect 88 0 87 0;
#X connect 89 0 57 0;
#X connect 90 0 93 0;
#X connect 90 0 36 0;
#X connect 90 0 95 0;
#X connect 91 0 92 0;
#X connect 92 0 90 0;
#X connect 93 0 53 0;
#X connect 94 0 50 0;
#X connect 95 0 94 0;
#X connect 96 0 18 0;
#X connect 97 0 99 0;
#X connect 97 1 99 1;
#X connect 98 0 102 0;
#X connect 99 0 98 0;
#X connect 100 0 83 0;
#X connect 101 0 100 0;
#X connect 102 0 73 1;
#X connect 103 0 18 0;
#X connect 104 0 79 0;
#X connect 105 0 88 0;
#X connect 106 0 109 0;
#X connect 106 0 110 0;
#X connect 107 0 106 0;
#X connect 109 0 108 0;
#X connect 112 0 64 0;
#X connect 112 0 91 0;
#X connect 112 0 97 0;
#X connect 112 0 53 0;
