#N canvas 2898 874 967 1028 10;
#X obj 383 497 inlet;
#X obj 292 596 outlet~;
#X obj 386 104 inlet;
#X obj 203 494 inlet;
#X floatatom 198 522 7 0 0 0 - - -;
#X floatatom 381 517 7 0 0 0 - - -;
#X obj 273 502 vline~;
#X obj 272 555 pow~ 2;
#X obj 65 303 sel;
#X obj 64 329 bng 15 250 50 0 empty empty empty 17 7 0 10 -262144 -1
-1;
#X obj 81 329 bng 15 250 50 0 empty empty empty 17 7 0 10 -262144 -1
-1;
#X obj 191 328 bng 20 250 50 0 empty empty empty 17 7 0 10 -4034 -1
-1;
#X obj 134 304 sel;
#X obj 196 288 bng 15 250 50 0 empty empty empty 17 7 0 10 -262144
-1 -1;
#X floatatom 262 66 5 0 0 0 - - -;
#X obj 371 392 bng 20 250 50 0 empty empty empty 17 7 0 10 -260097
-1 -1;
#X obj 188 395 bng 20 250 50 0 empty empty empty 17 7 0 10 -260097
-1 -1;
#X obj 188 452 pack f f;
#X obj 374 456 pack f f;
#X obj 233 430 f;
#X msg 375 430 0;
#X floatatom 250 402 5 0 0 0 - - -;
#X obj 417 430 f;
#X obj 261 155 t b f;
#X obj 261 178 * 1;
#X floatatom 167 162 5 0 0 0 - - -;
#X floatatom 431 410 5 0 0 0 - - -;
#X floatatom 486 217 5 0 0 0 - - -;
#X obj 275 624 line;
#X obj 277 644 hsl 128 15 0 1 0 0 empty empty empty -2 -8 0 10 -262144
-1 -1 12700 1;
#X obj 186 540 f;
#X obj 370 542 f;
#X obj 377 341 delay 0;
#X obj 282 751 bng 44 250 50 0 empty empty empty 17 7 0 10 -4034 -1
-1;
#X obj 327 751 bng 44 250 50 0 empty empty empty 17 7 0 10 -260097
-1 -1;
#X floatatom 385 211 5 0 0 0 - - -;
#X floatatom 436 135 5 0 0 0 - - -;
#X obj 434 157 t b f;
#X obj 443 180 * 1;
#X obj 487 113 - 1;
#X obj 488 132 * -1;
#X obj 488 157 t b f;
#X obj 485 180 * 1;
#X floatatom 344 162 5 0 0 0 - - -;
#X obj 302 155 t b f;
#X obj 487 260 t b f;
#X floatatom 414 314 5 0 0 0 - - -;
#X obj 487 282 *;
#X obj 301 111 - 1;
#X obj 302 130 * -1;
#X obj 375 370 spigot-toggle_vert;
#X text 186 13 env forward;
#X obj 276 687 pow 2;
#X obj 307 178 * 1;
#X text 262 11 env in;
#X text 349 61 env sustain;
#X text 434 62 env out;
#X obj 338 374 r lo;
#X msg 151 441 1;
#X obj 667 352 bng 15 250 50 0 empty empty empty 17 7 0 10 -262144
-1 -1;
#X obj 667 393 f;
#X obj 692 397 + 1;
#X obj 683 501 bng 15 250 50 0 empty empty empty 17 7 0 10 -262144
-1 -1;
#X obj 701 501 bng 15 250 50 0 empty empty empty 17 7 0 10 -262144
-1 -1;
#X floatatom 666 417 5 0 0 0 - - -;
#X obj 666 473 sel 0 1;
#X obj 666 501 bng 15 250 50 0 empty empty empty 17 7 0 10 -262144
-1 -1;
#X obj 695 352 bng 15 250 50 0 empty empty empty 17 7 0 10 -262144
-1 -1;
#X obj 671 304 +;
#X msg 686 373 -1;
#X floatatom 684 268 5 0 0 0 - - -;
#X obj 684 247 == 0;
#X obj 671 325 sel 2;
#X obj 668 197 == 1;
#X obj 666 445 mod 200;
#X obj 432 342 delay 0;
#X text 669 150 env out @ fin de serie step off;
#X obj 138 383 delay;
#X obj 670 176 r trgrafterBmod;
#X obj 683 226 r trgrBmodenv;
#X obj 274 710 s opaENVB;
#X obj 166 31 r T$mod1;
#X obj 198 266 r TRGnB_@load;
#X obj 133 283 r 12BX;
#X obj 62 282 r Bbutton;
#X obj 194 307 r BBBmod;
#X obj 394 372 r trgrafterBmod;
#X obj 493 372 r Bbutton;
#X obj 440 105 inlet;
#X obj 264 44 inlet;
#X obj 133 332 bng 15 250 50 0 empty empty empty 17 7 0 10 -262144
-1 -1;
#X obj 150 332 bng 15 250 50 0 empty empty empty 17 7 0 10 -262144
-1 -1;
#X obj 115 443 r lo;
#X obj 190 368 spigot-toggle_vert;
#X obj 209 368 r trgrBmodenv;
#X obj 358 280 f;
#X obj 341 247 r BBBmod;
#X floatatom 360 301 5 0 0 0 - - -;
#X obj 582 180 r T1after;
#X connect 0 0 5 0;
#X connect 2 0 35 0;
#X connect 3 0 4 0;
#X connect 4 0 30 1;
#X connect 5 0 31 1;
#X connect 6 0 7 0;
#X connect 7 0 1 0;
#X connect 8 0 9 0;
#X connect 8 1 10 0;
#X connect 9 0 58 0;
#X connect 9 0 77 0;
#X connect 11 0 93 0;
#X connect 12 0 90 0;
#X connect 12 1 91 0;
#X connect 13 0 11 0;
#X connect 14 0 23 0;
#X connect 14 0 48 0;
#X connect 15 0 31 0;
#X connect 15 0 20 0;
#X connect 15 0 34 0;
#X connect 15 0 19 0;
#X connect 16 0 30 0;
#X connect 16 0 33 0;
#X connect 16 0 58 0;
#X connect 16 0 22 0;
#X connect 16 0 32 0;
#X connect 17 0 6 0;
#X connect 17 0 28 0;
#X connect 18 0 6 0;
#X connect 18 0 28 0;
#X connect 19 0 17 1;
#X connect 20 0 18 0;
#X connect 21 0 19 1;
#X connect 22 0 18 1;
#X connect 23 0 24 0;
#X connect 23 1 24 1;
#X connect 24 0 21 0;
#X connect 25 0 24 0;
#X connect 25 0 77 1;
#X connect 25 0 53 0;
#X connect 25 0 42 0;
#X connect 26 0 22 1;
#X connect 27 0 47 0;
#X connect 28 0 29 0;
#X connect 29 0 52 0;
#X connect 30 0 7 1;
#X connect 30 0 52 1;
#X connect 31 0 7 1;
#X connect 31 0 52 1;
#X connect 32 0 50 0;
#X connect 35 0 45 0;
#X connect 36 0 37 0;
#X connect 36 0 39 0;
#X connect 37 0 38 0;
#X connect 37 1 38 1;
#X connect 38 0 26 0;
#X connect 39 0 40 0;
#X connect 40 0 41 0;
#X connect 41 0 42 0;
#X connect 41 1 42 1;
#X connect 42 0 27 0;
#X connect 43 0 38 0;
#X connect 44 0 53 0;
#X connect 44 1 53 1;
#X connect 45 0 47 0;
#X connect 45 1 47 1;
#X connect 46 0 32 1;
#X connect 46 0 75 1;
#X connect 47 0 95 1;
#X connect 47 0 46 0;
#X connect 48 0 49 0;
#X connect 49 0 44 0;
#X connect 50 0 15 0;
#X connect 52 0 80 0;
#X connect 53 0 43 0;
#X connect 57 0 50 1;
#X connect 58 0 17 0;
#X connect 59 0 60 0;
#X connect 60 0 61 0;
#X connect 60 0 64 0;
#X connect 61 0 60 1;
#X connect 64 0 74 0;
#X connect 65 0 66 0;
#X connect 65 1 62 0;
#X connect 65 2 63 0;
#X connect 66 0 75 0;
#X connect 67 0 69 0;
#X connect 68 0 72 0;
#X connect 69 0 60 0;
#X connect 70 0 68 1;
#X connect 71 0 70 0;
#X connect 72 0 59 0;
#X connect 72 1 67 0;
#X connect 73 0 68 0;
#X connect 74 0 65 0;
#X connect 75 0 20 0;
#X connect 77 0 58 0;
#X connect 78 0 73 0;
#X connect 79 0 71 0;
#X connect 81 0 25 0;
#X connect 82 0 13 0;
#X connect 83 0 12 0;
#X connect 84 0 8 0;
#X connect 85 0 11 0;
#X connect 86 0 50 1;
#X connect 87 0 50 1;
#X connect 88 0 36 0;
#X connect 89 0 14 0;
#X connect 91 0 58 0;
#X connect 92 0 58 0;
#X connect 93 0 16 0;
#X connect 94 0 93 1;
#X connect 95 0 97 0;
#X connect 96 0 95 0;
