#N canvas 41 188 1639 759 10;
#X obj 719 325 inlet;
#X obj 555 963 inlet;
#X obj 378 202 inlet;
#X obj 352 236 spigot-toggle_red;
#X obj 438 211 r bonktoenvB;
#X obj 438 262 r øSbangB;
#X obj 442 517 t b b;
#X obj 442 493 bng 15 250 50 0 empty empty empty 17 7 0 10 -262144
-1 -1;
#X obj 412 1008 vline~;
#X obj 560 1072 tabwrite~ env5;
#X floatatom 685 281 5 0 0 0 - - -;
#X floatatom 494 645 5 0 0 0 - - -;
#X obj 459 752 f;
#X obj 486 752 f;
#X obj 352 338 pack \$1 \$0;
#X floatatom 422 339 12 0 0 0 - - -;
#X floatatom 352 314 12 0 0 0 - - -;
#X obj 352 264 f;
#X msg 352 363 \; env5 resize \$1, f 15;
#X floatatom 444 988 7 0 0 0 - - -;
#X floatatom 567 988 7 0 0 0 - - -;
#X obj 503 1007 vline~;
#X obj 444 963 inlet;
#X obj 352 186 r BB1;
#X obj 179 461 r trgrtoenvB;
#X obj 512 752 f;
#X obj 208 537 - 1;
#X obj 208 562 * -1;
#X floatatom 534 645 5 0 0 0 - - -;
#X obj 383 734 bng 15 250 50 0 empty empty empty 17 7 0 10 -262144
-1 -1;
#X obj 50 529 r trgrtoenvonoffB;
#X obj 208 510 spigot-toggle_red;
#X floatatom 454 645 5 0 0 0 - - -;
#X obj 2609 -260 t b f;
#X obj 2609 -235 *;
#X obj 465 1072 outlet~;
#X obj 540 752 f;
#X floatatom 575 645 5 0 0 0 - - -;
#X msg 408 963 stop;
#X obj 283 935 bng 15 250 50 0 empty empty empty 17 7 0 10 -262144
-1 -1;
#X msg 518 963 stop;
#X obj 272 515 - 1;
#X obj 270 535 * -1;
#X floatatom 685 232 5 0 0 0 - - -;
#X obj 685 256 * 1;
#X obj 510 1030 pow~ 4;
#X obj 420 1042 pow~ 2;
#X obj 587 423 t b f;
#X obj 591 452 * 1;
#X floatatom 618 399 5 0 0 0 - - -;
#X obj 656 423 t b f;
#X obj 655 452 * 1;
#X floatatom 682 399 5 0 0 0 - - -;
#X obj 454 462 r BBBmod;
#X obj 801 322 inlet;
#X obj 687 186 inlet;
#X obj 571 752 f;
#X floatatom 613 645 5 0 0 0 - - -;
#X obj 646 187 inlet;
#X obj 723 423 t b f;
#X obj 731 452 * 1;
#X floatatom 776 399 5 0 0 0 - - -;
#X obj 352 289 * 100;
#X obj 758 323 inlet;
#X obj 456 833 pack f f f f f f;
#X obj 605 752 f;
#X floatatom 679 693 5 0 0 0 - - -;
#X obj 279 962 f;
#X obj 311 961 pack f;
#X msg 312 980 1 \$1;
#X msg 355 894 \$4 \$1 \, \$4 0 \$5 \, 0 0 \$6;
#X msg 513 896 0 0 \$1 \, \$4 0 \$6 \, \$3 \$2 \$6;
#X obj 256 441 r BngslcttoenvBaudiomods;
#X obj 290 773 r Bbutton;
#X obj 283 901 delay;
#X obj 238 852 sel;
#X obj 233 901 delay;
#X obj 684 669 + 0;
#X obj 683 647 t b f;
#X obj 234 770 sel;
#X obj 880 907 f;
#X obj 879 930 pack f;
#X msg 879 956 0 \$1;
#X obj 881 882 delay;
#X obj 884 846 bng 15 250 50 0 empty empty empty 17 7 0 10 -262144
-1 -1;
#X floatatom 841 627 5 0 0 0 - - -;
#X floatatom 895 627 5 0 0 0 - - -;
#X floatatom 877 731 5 0 0 0 - - -;
#X obj 873 791 bng 15 250 50 0 empty empty empty 17 7 0 10 -262144
-1 -1;
#X obj 873 767 sel;
#X obj 875 708 + 0;
#X obj 891 792 bng 15 250 50 0 empty empty empty 17 7 0 10 -262144
-1 -1;
#X obj 822 591 r trgrBafter;
#X obj 908 592 r trgrtoenvB;
#X connect 0 0 49 0;
#X connect 1 0 20 0;
#X connect 2 0 3 1;
#X connect 3 0 17 0;
#X connect 3 0 9 0;
#X connect 4 0 3 0;
#X connect 4 0 7 0;
#X connect 5 0 3 0;
#X connect 5 0 7 0;
#X connect 6 1 29 0;
#X connect 7 0 6 0;
#X connect 7 0 3 0;
#X connect 8 0 46 0;
#X connect 10 0 59 0;
#X connect 10 0 47 0;
#X connect 10 0 50 0;
#X connect 10 0 17 1;
#X connect 11 0 13 1;
#X connect 11 0 80 1;
#X connect 12 0 64 0;
#X connect 13 0 64 1;
#X connect 14 0 18 0;
#X connect 15 0 14 1;
#X connect 16 0 14 0;
#X connect 17 0 62 0;
#X connect 19 0 46 1;
#X connect 20 0 45 1;
#X connect 21 0 45 0;
#X connect 22 0 19 0;
#X connect 23 0 3 0;
#X connect 24 0 31 0;
#X connect 24 0 79 0;
#X connect 25 0 64 2;
#X connect 26 0 27 0;
#X connect 27 0 28 0;
#X connect 28 0 25 1;
#X connect 29 0 12 0;
#X connect 29 0 13 0;
#X connect 29 0 25 0;
#X connect 29 0 36 0;
#X connect 29 0 56 0;
#X connect 29 0 65 0;
#X connect 30 0 31 1;
#X connect 30 0 41 0;
#X connect 30 0 28 0;
#X connect 31 0 26 0;
#X connect 31 0 37 0;
#X connect 32 0 12 1;
#X connect 32 0 76 1;
#X connect 32 0 67 1;
#X connect 32 0 78 0;
#X connect 33 0 34 0;
#X connect 33 1 34 1;
#X connect 36 0 64 3;
#X connect 37 0 36 1;
#X connect 38 0 8 0;
#X connect 39 0 67 0;
#X connect 40 0 21 0;
#X connect 41 0 42 0;
#X connect 42 0 37 0;
#X connect 43 0 44 1;
#X connect 44 0 10 0;
#X connect 45 0 35 0;
#X connect 45 0 9 0;
#X connect 46 0 35 0;
#X connect 46 0 9 0;
#X connect 47 0 48 0;
#X connect 47 1 48 1;
#X connect 48 0 32 0;
#X connect 49 0 48 0;
#X connect 50 0 51 0;
#X connect 50 1 51 1;
#X connect 51 0 57 0;
#X connect 52 0 51 0;
#X connect 53 0 7 0;
#X connect 54 0 61 0;
#X connect 55 0 43 0;
#X connect 56 0 64 4;
#X connect 57 0 56 1;
#X connect 57 0 77 0;
#X connect 58 0 44 0;
#X connect 59 0 60 0;
#X connect 59 1 60 1;
#X connect 60 0 11 0;
#X connect 61 0 60 0;
#X connect 62 0 16 0;
#X connect 63 0 52 0;
#X connect 64 0 70 0;
#X connect 64 0 71 0;
#X connect 65 0 64 5;
#X connect 66 0 65 1;
#X connect 66 0 83 1;
#X connect 67 0 68 0;
#X connect 68 0 69 0;
#X connect 69 0 8 0;
#X connect 70 0 8 0;
#X connect 71 0 21 0;
#X connect 72 0 7 0;
#X connect 73 0 75 0;
#X connect 74 0 39 0;
#X connect 75 0 74 0;
#X connect 75 0 76 0;
#X connect 76 0 39 0;
#X connect 77 0 66 0;
#X connect 78 0 77 0;
#X connect 78 1 77 1;
#X connect 79 0 39 0;
#X connect 80 0 81 0;
#X connect 81 0 82 0;
#X connect 82 0 21 0;
#X connect 82 0 8 0;
#X connect 83 0 80 0;
#X connect 84 0 83 0;
#X connect 85 0 90 0;
#X connect 86 0 90 1;
#X connect 87 0 89 0;
#X connect 89 0 88 0;
#X connect 89 1 91 0;
#X connect 90 0 87 0;
#X connect 91 0 84 0;
#X connect 92 0 85 0;
#X connect 93 0 86 0;
