#N canvas 419 97 969 931 10;
#X obj 887 132 outlet~;
#X obj 535 -101 bng 15 250 50 0 empty empty empty 17 7 0 10 -262144
-1 -1;
#X obj 688 -311 inlet;
#X obj 1220 -288 inlet;
#X obj 949 -70 inlet;
#X floatatom 789 -615 5 0 0 0 - - -;
#X floatatom 855 -521 5 0 0 0 - - -;
#X obj 847 -433 *;
#X obj 843 -459 t b f;
#X obj 1084 -252 delay;
#X floatatom 845 -410 5 0 0 0 - - -;
#X obj 811 -249 delay;
#X obj 699 -248 t b f;
#X floatatom 689 -277 5 0 0 0 - - -;
#X floatatom 699 -186 12 0 0 0 - - -;
#X obj 774 -540 * 1;
#X obj 700 -223 * 1;
#X obj 895 -541 r lo;
#X obj 1077 -151 pack f f;
#X obj 816 -148 pack f f;
#X msg 890 -494 0;
#X obj 1085 -274 bng 15 250 50 0 empty empty empty 17 7 0 10 -262144
-1 -1;
#X obj 813 -273 bng 15 250 50 0 empty empty empty 17 7 0 10 -262144
-1 -1;
#X obj 1091 -466 t b f;
#X floatatom 1093 -424 12 0 0 0 - - -;
#X text 825 -524 crop;
#X obj 1151 -246 t b f;
#X floatatom 1154 -192 12 0 0 0 - - -;
#X floatatom 1204 -452 12 0 0 0 - - -;
#X obj 1094 -444 * 1;
#X obj 1151 -220 * 1;
#X obj 624 -627 bng 15 250 50 0 empty empty empty 17 7 0 10 -262144
-1 -1;
#X obj 774 -560 f;
#X obj 1085 -201 f;
#X obj 811 -203 f;
#X floatatom 1114 -228 5 0 0 0 - - -;
#X obj 812 -226 bng 15 250 50 0 empty empty empty 17 7 0 10 -262144
-1 -1;
#X floatatom 1193 -385 12 0 0 0 - - -;
#X obj 1196 -431 - 1;
#X obj 1196 -406 * -1;
#X floatatom 1042 -517 5 0 0 0 - - -;
#X obj 1043 -444 *;
#X obj 1040 -470 t b f;
#X floatatom 1041 -421 5 0 0 0 - - -;
#X obj 1149 -307 *;
#X floatatom 1147 -284 5 0 0 0 - - -;
#X floatatom 1151 -361 5 0 0 0 - - -;
#X obj 1149 -333 t b f;
#X floatatom 1219 -260 12 0 0 0 - - -;
#X obj 710 -562 t b b b;
#X obj 1084 -221 bng 15 250 50 0 empty empty empty 17 7 0 10 -262144
-1 -1;
#X text 1008 -518 crop;
#X text 747 -614 time;
#X floatatom 837 -223 5 0 0 0 - - -;
#X obj 1056 -565 r lo;
#X msg 1053 -538 1;
#X obj 884 -4 vline~;
#X floatatom 945 -34 7 0 0 0 - - -;
#X obj 778 -489 * 1;
#X obj 874 -246 r lo;
#X msg 874 -225 1;
#X obj 951 -293 - 1;
#X obj 951 -272 * -1;
#X obj 949 -249 spigot-toggle_red;
#X obj 1016 -247 - 1;
#X obj 979 -247 * -1;
#X obj 988 -272 r lo;
#X obj 1047 -592 inlet;
#X obj 855 -580 inlet;
#X obj 878 59 pow~ 4;
#X floatatom 871 197 12 0 0 0 - - -;
#X obj 847 326 pack \$1 \$0;
#X floatatom 904 294 12 0 0 0 - - -;
#X floatatom 823 295 12 0 0 0 - - -;
#X msg 824 424 \; env1 bounds 0 1 5 O;
#X obj 743 145 spigot-toggle_red;
#X obj 784 126 inlet;
#X obj 619 -65 - 1;
#X obj 828 219 f;
#X obj 773 234 spigot-toggle_red;
#X obj 791 187 bng 15 250 50 0 empty empty empty 17 7 0 10 -262144
-1 -1;
#X floatatom 992 -72 7 0 0 0 - - -;
#X obj 876 -325 delay;
#X obj 875 -363 sel;
#X obj 875 -343 bng 15 250 50 0 empty empty empty 17 7 0 10 -262144
-1 -1;
#X msg 875 -301 0;
#X obj 943 -370 delay;
#X obj 943 -389 bng 15 250 50 0 empty empty empty 17 7 0 10 -262144
-1 -1;
#X floatatom 654 -34 7 0 0 0 - - -;
#X obj 965 -16 t b f;
#X floatatom 955 45 7 0 0 0 - - -;
#X obj 957 23 * 1;
#X obj 650 157 *~ -1;
#X obj 668 136 -~ 1;
#X obj 973 72 nbx 5 14 -1e+37 1e+37 0 0 empty empty empty 0 -8 0 10
-262144 -1 -1 0 256;
#X obj 1077 -177 + 0;
#X obj 823 239 * 100;
#X obj 510 -127 r BBBmod;
#X obj 789 -639 r T$mod1;
#X obj 953 -329 r Bbutton;
#X obj 651 194 tabwrite~ env2;
#X obj 792 167 r BngtoenvB;
#X obj 868 171 r T$mod1;
#X msg 842 365 \; env2 resize \$1;
#X obj 1047 -247 r ø>1;
#X obj 649 -64 * -1;
#X obj 572 -94 r trgrtoenvB;
#X floatatom 1095 15 12 0 0 0 - - -;
#X obj 1100 -5 line;
#X obj 1101 78 hsl 128 15 0 1 0 0 empty empty empty -2 -8 0 10 -262144
-1 -1 0 1;
#X obj 1097 58 pow;
#X obj 1140 40 hsl 128 15 0 1 0 0 empty empty empty -2 -8 0 10 -262144
-1 -1 0 1;
#X connect 1 0 31 0;
#X connect 1 0 100 0;
#X connect 2 0 13 0;
#X connect 3 0 48 0;
#X connect 4 0 81 0;
#X connect 5 0 32 1;
#X connect 6 0 8 0;
#X connect 7 0 10 0;
#X connect 8 0 7 0;
#X connect 8 1 7 1;
#X connect 9 0 50 0;
#X connect 10 0 11 1;
#X connect 11 0 36 0;
#X connect 12 0 16 0;
#X connect 12 1 16 1;
#X connect 13 0 16 0;
#X connect 14 0 19 1;
#X connect 15 0 58 0;
#X connect 16 0 14 0;
#X connect 17 0 20 0;
#X connect 18 0 56 0;
#X connect 19 0 56 0;
#X connect 20 0 8 0;
#X connect 21 0 9 0;
#X connect 22 0 11 0;
#X connect 22 0 21 0;
#X connect 23 0 29 0;
#X connect 23 1 29 1;
#X connect 24 0 9 1;
#X connect 26 0 30 0;
#X connect 26 1 30 1;
#X connect 27 0 18 1;
#X connect 27 0 82 1;
#X connect 27 0 86 1;
#X connect 28 0 38 0;
#X connect 29 0 24 0;
#X connect 30 0 27 0;
#X connect 31 0 49 0;
#X connect 31 0 22 0;
#X connect 32 0 15 0;
#X connect 33 0 95 0;
#X connect 34 0 19 0;
#X connect 35 0 33 1;
#X connect 36 0 34 0;
#X connect 37 0 29 0;
#X connect 38 0 39 0;
#X connect 39 0 37 0;
#X connect 40 0 42 0;
#X connect 40 0 46 0;
#X connect 41 0 43 0;
#X connect 42 0 41 0;
#X connect 42 1 41 1;
#X connect 43 0 23 0;
#X connect 44 0 45 0;
#X connect 45 0 26 0;
#X connect 46 0 47 0;
#X connect 47 0 44 0;
#X connect 47 1 44 1;
#X connect 48 0 30 0;
#X connect 48 0 28 0;
#X connect 49 2 32 0;
#X connect 50 0 33 0;
#X connect 53 0 34 1;
#X connect 54 0 55 0;
#X connect 55 0 40 0;
#X connect 56 0 69 0;
#X connect 57 0 91 0;
#X connect 58 0 12 0;
#X connect 58 0 7 0;
#X connect 58 0 41 0;
#X connect 58 0 44 0;
#X connect 59 0 60 0;
#X connect 60 0 53 0;
#X connect 61 0 62 0;
#X connect 62 0 63 0;
#X connect 63 0 35 0;
#X connect 63 0 18 0;
#X connect 64 0 65 0;
#X connect 65 0 63 1;
#X connect 66 0 63 1;
#X connect 67 0 40 0;
#X connect 68 0 6 0;
#X connect 69 0 0 0;
#X connect 69 0 93 0;
#X connect 70 0 78 1;
#X connect 71 0 103 0;
#X connect 72 0 71 1;
#X connect 73 0 71 0;
#X connect 75 0 100 0;
#X connect 76 0 75 1;
#X connect 76 0 79 1;
#X connect 77 0 105 0;
#X connect 78 0 96 0;
#X connect 79 0 78 0;
#X connect 80 0 79 0;
#X connect 81 0 57 0;
#X connect 82 0 85 0;
#X connect 82 0 36 0;
#X connect 82 0 87 0;
#X connect 83 0 84 0;
#X connect 84 0 82 0;
#X connect 85 0 53 0;
#X connect 86 0 50 0;
#X connect 87 0 86 0;
#X connect 88 0 18 0;
#X connect 88 0 35 0;
#X connect 89 0 91 0;
#X connect 89 1 91 1;
#X connect 90 0 94 0;
#X connect 91 0 90 0;
#X connect 92 0 100 0;
#X connect 93 0 92 0;
#X connect 94 0 69 1;
#X connect 95 0 18 0;
#X connect 96 0 73 0;
#X connect 97 0 1 0;
#X connect 98 0 5 0;
#X connect 99 0 61 0;
#X connect 99 0 83 0;
#X connect 99 0 89 0;
#X connect 99 0 53 0;
#X connect 101 0 80 0;
#X connect 102 0 70 0;
#X connect 104 0 64 0;
#X connect 105 0 88 0;
#X connect 106 0 77 0;
#X connect 106 0 1 0;
#X connect 107 0 110 0;
#X connect 107 0 111 0;
#X connect 108 0 107 0;
#X connect 110 0 109 0;
