#N canvas 18 783 1280 1026 10;
#X obj 618 389 inlet;
#X obj 603 954 inlet;
#X obj 366 213 inlet;
#X obj 337 243 spigot-toggle_red;
#X obj 439 231 r bonktoenvB;
#X obj 438 252 r øSbangB;
#X obj 445 514 t b b;
#X obj 442 493 bng 15 250 50 0 empty empty empty 17 7 0 10 -262144
-1 -1;
#X obj 448 978 vline~;
#X obj 560 1069 tabwrite~ env5;
#X floatatom 556 341 5 0 0 0 - - -;
#X floatatom 554 647 5 0 0 0 - - -;
#X obj 459 757 f;
#X obj 486 757 f;
#X floatatom 553 294 12 0 0 0 - - -;
#X obj 348 370 pack \$1 \$0;
#X floatatom 419 369 12 0 0 0 - - -;
#X floatatom 349 340 12 0 0 0 - - -;
#X obj 335 294 f;
#X msg 348 396 \; env5 resize \$1, f 15;
#X floatatom 494 978 7 0 0 0 - - -;
#X floatatom 604 978 7 0 0 0 - - -;
#X obj 559 978 vline~;
#X obj 492 954 inlet;
#X obj 352 186 r BB1;
#X obj 284 679 r Bbutton;
#X floatatom 214 708 12 0 0 0 - - -;
#X obj 198 677 r trgrtoenvB;
#X obj 208 938 sel;
#X obj 512 756 f;
#X floatatom 210 783 5 0 0 0 - - -;
#X obj 210 731 - 1;
#X obj 211 752 * -1;
#X floatatom 594 647 5 0 0 0 - - -;
#X obj 459 605 bng 15 250 50 0 empty empty empty 17 7 0 10 -262144
-1 -1;
#X obj 180 557 r trgrtoenvonoffB;
#X obj 180 709 spigot-toggle_red;
#X floatatom 514 645 5 0 0 0 - - -;
#X obj 2609 -260 t b f;
#X obj 2609 -226 *;
#X obj 465 1072 outlet~;
#X obj 540 757 f;
#X floatatom 631 645 5 0 0 0 - - -;
#X msg 456 954 stop;
#X obj 205 970 bng 15 250 50 0 empty empty empty 17 7 0 10 -262144
-1 -1;
#X msg 566 954 stop;
#X obj 293 537 - 1;
#X obj 293 556 * -1;
#X obj 369 885 sel;
#X obj 557 198 r T1;
#X floatatom 600 214 5 0 0 0 - - -;
#X obj 554 241 * 1;
#X obj 355 1034 bng 15 250 50 0 empty empty empty 17 7 0 10 -262144
-1 -1;
#X obj 227 970 bng 15 250 50 0 empty empty empty 17 7 0 10 -262144
-1 -1;
#X obj 380 912 bng 15 250 50 0 empty empty empty 17 7 0 10 -262144
-1 -1;
#X obj 362 961 f;
#X obj 390 960 + 1;
#X obj 561 1009 pow~ 4;
#X obj 357 1010 sel 0 1 2;
#X obj 356 909 bng 15 250 50 0 empty empty empty 17 7 0 10 -262144
-1 -1;
#X msg 361 936 0;
#X obj 359 986 mod 100;
#X obj 468 1022 pow~ 2;
#X obj 588 458 * 0.5;
#X floatatom 588 478 5 0 0 0 - - -;
#X obj 589 505 t b f;
#X obj 590 529 * 1;
#X floatatom 620 529 5 0 0 0 - - -;
#X floatatom 591 549 5 0 0 0 - - -;
#X obj 657 436 t b f;
#X floatatom 659 480 5 0 0 0 - - -;
#X obj 658 461 - 0;
#X obj 658 502 t b f;
#X obj 659 526 * 1;
#X floatatom 689 526 5 0 0 0 - - -;
#X floatatom 660 546 5 0 0 0 - - -;
#X obj 778 559 r trgrBafter;
#X floatatom 778 587 5 0 0 0 - - -;
#X obj 347 319 * 200;
#X obj 806 765 bng 15 250 50 0 empty empty empty 17 7 0 10 -262144
-1 -1;
#X msg 525 925 \$4 \$3 \$1 \, \$3 \$2 \$1;
#X msg 401 929 1 \$1 \, \$3 0 \$1;
#X obj 755 868 pack f f f f f f;
#X obj 470 432 r BBBmod;
#X obj 745 846 f;
#X obj 772 846 f;
#X obj 377 1034 bng 15 250 50 0 empty empty empty 17 7 0 10 -262144
-1 -1;
#X obj 799 616 sel;
#X obj 785 765 bng 15 250 50 0 empty empty empty 17 7 0 10 -262144
-1 -1;
#X obj 810 643 bng 15 250 50 0 empty empty empty 17 7 0 10 -262144
-1 -1;
#X obj 792 692 f;
#X obj 824 691 + 1;
#X obj 787 741 sel 0 1 2;
#X obj 786 640 bng 15 250 50 0 empty empty empty 17 7 0 10 -262144
-1 -1;
#X msg 791 667 0;
#X obj 789 717 mod 100;
#X msg 753 890 0 \$2;
#X obj 456 845 pack f f f f;
#X obj 451 679 delay;
#X obj 693 388 inlet;
#X obj 631 157 inlet;
#X text 658 197 comment;
#X connect 0 0 67 0;
#X connect 1 0 21 0;
#X connect 2 0 3 1;
#X connect 3 0 18 0;
#X connect 4 0 3 0;
#X connect 5 0 3 0;
#X connect 5 0 7 0;
#X connect 6 1 34 0;
#X connect 7 0 6 0;
#X connect 8 0 62 0;
#X connect 10 0 63 0;
#X connect 10 0 71 0;
#X connect 11 0 13 1;
#X connect 12 0 97 0;
#X connect 13 0 97 1;
#X connect 14 0 18 1;
#X connect 14 0 10 0;
#X connect 15 0 19 0;
#X connect 16 0 15 1;
#X connect 17 0 15 0;
#X connect 18 0 78 0;
#X connect 20 0 62 1;
#X connect 21 0 57 1;
#X connect 22 0 57 0;
#X connect 23 0 20 0;
#X connect 24 0 3 0;
#X connect 25 0 26 0;
#X connect 26 0 28 0;
#X connect 26 0 31 0;
#X connect 27 0 36 0;
#X connect 28 0 44 0;
#X connect 28 1 53 0;
#X connect 29 0 97 2;
#X connect 30 0 48 0;
#X connect 30 0 33 0;
#X connect 31 0 32 0;
#X connect 32 0 30 0;
#X connect 33 0 29 1;
#X connect 34 0 9 0;
#X connect 34 0 98 0;
#X connect 35 0 36 1;
#X connect 35 0 46 0;
#X connect 35 0 33 0;
#X connect 36 0 31 0;
#X connect 36 0 42 0;
#X connect 37 0 12 1;
#X connect 38 0 39 0;
#X connect 38 1 39 1;
#X connect 41 0 97 3;
#X connect 42 0 41 1;
#X connect 43 0 8 0;
#X connect 44 0 54 0;
#X connect 45 0 22 0;
#X connect 46 0 47 0;
#X connect 47 0 42 0;
#X connect 48 0 59 0;
#X connect 48 1 54 0;
#X connect 49 0 51 0;
#X connect 50 0 51 1;
#X connect 51 0 14 0;
#X connect 54 0 55 0;
#X connect 55 0 56 0;
#X connect 55 0 61 0;
#X connect 56 0 55 1;
#X connect 57 0 40 0;
#X connect 57 0 9 0;
#X connect 58 0 52 0;
#X connect 58 1 86 0;
#X connect 59 0 60 0;
#X connect 60 0 55 0;
#X connect 61 0 58 0;
#X connect 62 0 9 0;
#X connect 62 0 40 0;
#X connect 63 0 64 0;
#X connect 64 0 65 0;
#X connect 65 0 66 0;
#X connect 65 1 66 1;
#X connect 66 0 68 0;
#X connect 67 0 66 0;
#X connect 68 0 69 0;
#X connect 68 0 37 0;
#X connect 68 0 84 1;
#X connect 69 0 71 0;
#X connect 69 1 71 1;
#X connect 70 0 72 0;
#X connect 71 0 70 0;
#X connect 72 0 73 0;
#X connect 72 1 73 1;
#X connect 73 0 75 0;
#X connect 74 0 73 0;
#X connect 75 0 11 0;
#X connect 75 0 85 1;
#X connect 76 0 77 0;
#X connect 77 0 87 0;
#X connect 78 0 17 0;
#X connect 79 0 84 0;
#X connect 79 0 85 0;
#X connect 80 0 22 0;
#X connect 81 0 8 0;
#X connect 82 0 96 0;
#X connect 83 0 7 0;
#X connect 84 0 82 0;
#X connect 85 0 82 1;
#X connect 86 0 34 0;
#X connect 87 0 93 0;
#X connect 87 1 89 0;
#X connect 89 0 90 0;
#X connect 90 0 91 0;
#X connect 90 0 95 0;
#X connect 91 0 90 1;
#X connect 92 0 88 0;
#X connect 92 1 79 0;
#X connect 93 0 94 0;
#X connect 94 0 90 0;
#X connect 95 0 92 0;
#X connect 96 0 22 0;
#X connect 96 0 8 0;
#X connect 97 0 80 0;
#X connect 97 0 81 0;
#X connect 98 0 41 0;
#X connect 98 0 29 0;
#X connect 98 0 12 0;
#X connect 98 0 13 0;
#X connect 99 0 74 0;
#X connect 100 0 50 0;
