#N canvas -31 0 830 1006 10;
#X obj 162 339 inlet;
#X obj 283 717 inlet;
#X obj 420 358 inlet;
#X obj -155 -19 spigot-toggle_red;
#X obj 226 230 bng 20 250 50 0 empty empty empty 17 7 0 10 -4034 -1
-1;
#X obj 80 758 vline~;
#X floatatom 380 412 5 0 0 0 - - -;
#X floatatom 161 501 5 0 0 0 - - -;
#X obj 88 568 f;
#X obj 117 567 f;
#X obj -155 83 pack \$1 \$0;
#X floatatom -84 87 12 0 0 0 - - -;
#X floatatom -155 59 12 0 0 0 - - -;
#X obj -155 9 f;
#X floatatom 122 735 7 0 0 0 - - -;
#X floatatom 295 742 7 0 0 0 - - -;
#X obj 231 761 vline~;
#X obj 122 710 inlet;
#X obj 143 567 f;
#X floatatom -60 314 5 0 0 0 - - -;
#X obj -99 303 - 1;
#X obj -99 328 * -1;
#X floatatom 195 501 5 0 0 0 - - -;
#X obj 88 490 bng 15 250 50 0 empty empty empty 17 7 0 10 -262144 -1
-1;
#X obj -95 273 spigot-toggle_red;
#X floatatom 121 501 5 0 0 0 - - -;
#X obj 100 853 outlet~;
#X obj 171 567 f;
#X floatatom 236 501 5 0 0 0 - - -;
#X msg 86 710 stop;
#X msg 246 717 stop;
#X obj -23 255 - 1;
#X obj -23 280 * -1;
#X floatatom -146 -105 5 0 0 0 - - -;
#X obj 238 784 pow~ 4;
#X obj 98 789 pow~ 2;
#X obj 143 424 t b f;
#X obj 147 453 * 1;
#X obj 212 424 t b f;
#X obj 211 453 * 1;
#X obj 224 339 inlet;
#X obj 202 567 f;
#X floatatom 280 501 5 0 0 0 - - -;
#X obj -149 -136 inlet;
#X obj 279 424 t b f;
#X obj 287 453 * 1;
#X obj -155 34 * 100;
#X obj 314 339 inlet;
#X floatatom 161 372 5 0 0 0 - - -;
#X floatatom 223 372 5 0 0 0 - - -;
#X floatatom 314 372 5 0 0 0 - - -;
#X obj 92 614 pack f f f f f f;
#X obj 236 567 f;
#X floatatom 358 544 5 0 0 0 - - -;
#X msg 81 652 \$4 \$1 \, \$4 0 \$5 \, 0 0 \$6;
#X msg 234 651 0 0 \$1 \, \$4 0 \$6 \, \$3 \$2 \$6;
#X msg -155 108 \; env1 resize \$1, f 15;
#X obj 78 -56 r bonktoenvA;
#X obj 435 909 tabwrite~ env1;
#X obj 382 391 * 1;
#X obj -87 355 r trgrtoenvonoff;
#X floatatom 419 380 5 0 0 0 - - -;
#X floatatom 381 359 5 0 0 0 - - -;
#X obj -177 195 r trgrtoenv;
#X obj -71 261 r lo;
#X obj 90 22 r BngslcttoenvAaudiomods;
#X obj -87 395 r Abutton;
#X obj 402 649 f;
#X obj 401 672 pack f;
#X obj 353 493 t b f;
#X obj 503 478 bng 15 250 50 0 empty empty empty 17 7 0 10 -262144
-1 -1;
#X obj 227 276 t b b;
#X obj -68 454 - 1;
#X obj -68 479 * -1;
#X obj 282 231 bng 20 250 50 0 empty empty empty 17 7 0 10 -258113
-1 -1;
#X obj -86 512 sel;
#X obj 615 494 f;
#X obj 641 494 + 1;
#X obj 502 524 bng 15 250 50 0 empty empty empty 17 7 0 10 -262144
-1 -1;
#X obj 615 540 mod 200;
#X floatatom 615 514 5 0 0 0 - - -;
#X floatatom 555 411 5 0 0 0 - - -;
#X obj 89 532 t b b b b b b;
#X obj 309 229 bng 20 250 50 0 empty empty empty 17 7 0 10 -260097
-1 -1;
#X obj -13 652 f;
#X obj -12 675 pack f;
#X obj -183 583 f;
#X obj -157 583 + 1;
#X obj -156 693 bng 15 250 50 0 empty empty empty 17 7 0 10 -262144
-1 -1;
#X obj -138 692 bng 15 250 50 0 empty empty empty 17 7 0 10 -262144
-1 -1;
#X obj -183 629 mod 200;
#X floatatom -183 603 5 0 0 0 - - -;
#X obj -191 558 bng 15 250 50 0 empty empty empty 17 7 0 10 -262144
-1 -1;
#X obj 502 455 sel;
#X floatatom 581 219 5 0 0 0 - - -;
#X floatatom 480 214 5 0 0 0 - - -;
#X obj 581 193 r trgrtoenv;
#X obj -177 653 sel 0 1;
#X obj 476 192 r trgrafter_env0;
#X obj 503 382 bng 15 250 50 0 empty empty empty 17 7 0 10 -262144
-1 -1;
#X obj -189 531 sel;
#X obj 503 357 r ITBAng_env0;
#X floatatom -44 236 5 0 0 0 - - -;
#X obj 355 516 + 0;
#X obj 634 593 bng 15 250 50 0 empty empty empty 17 7 0 10 -262144
-1 -1;
#X obj 544 448 bng 15 250 50 0 empty empty empty 17 7 0 10 -262144
-1 -1;
#X floatatom 520 568 5 0 0 0 - - -;
#X obj 581 238 t b f;
#X obj 615 567 sel 0 1;
#X obj 502 418 f;
#X msg 398 695 0 \$1;
#X obj 518 320 >;
#X obj 502 598 delay;
#X obj 390 451 outlet;
#X obj 2 631 * 1;
#X obj 381 339 r T$mod;
#X obj 205 59 r BBmod;
#X obj 129 320 spigot-toggle_red;
#X obj 130 261 - 1;
#X obj 130 286 * -1;
#X obj 179 287 r lo;
#X obj 129 234 r ø@S;
#X obj 93 -6 r SmplbangB;
#X obj -182 693 bng 15 250 50 0 empty empty empty 17 7 0 10 -262144
-1 -1;
#X floatatom -28 481 5 0 0 0 - - -;
#X msg -169 559 -1;
#X obj 608 603 bng 15 250 50 0 empty empty empty 17 7 0 10 -262144
-1 -1;
#X msg 619 472 -1;
#X obj 403 561 + 0;
#X msg -10 697 1 \$1;
#X obj -17 547 spigot-toggle_red;
#X obj 20 525 delay 11;
#X connect 0 0 48 0;
#X connect 1 0 15 0;
#X connect 2 0 61 0;
#X connect 3 0 13 0;
#X connect 3 0 58 0;
#X connect 4 0 71 0;
#X connect 4 0 3 0;
#X connect 5 0 35 0;
#X connect 6 0 44 0;
#X connect 6 0 36 0;
#X connect 6 0 38 0;
#X connect 6 0 13 1;
#X connect 6 0 113 0;
#X connect 6 0 131 1;
#X connect 7 0 9 1;
#X connect 7 0 67 1;
#X connect 8 0 51 0;
#X connect 9 0 51 1;
#X connect 10 0 56 0;
#X connect 11 0 10 1;
#X connect 12 0 10 0;
#X connect 13 0 46 0;
#X connect 14 0 35 1;
#X connect 15 0 34 1;
#X connect 16 0 34 0;
#X connect 17 0 14 0;
#X connect 18 0 51 2;
#X connect 19 0 22 0;
#X connect 20 0 21 0;
#X connect 21 0 19 0;
#X connect 22 0 18 1;
#X connect 23 0 82 0;
#X connect 23 0 131 0;
#X connect 24 0 20 0;
#X connect 24 0 28 0;
#X connect 25 0 8 1;
#X connect 25 0 69 0;
#X connect 25 0 114 0;
#X connect 27 0 51 3;
#X connect 28 0 27 1;
#X connect 29 0 5 0;
#X connect 30 0 16 0;
#X connect 31 0 32 0;
#X connect 32 0 28 0;
#X connect 33 0 3 1;
#X connect 34 0 26 0;
#X connect 34 0 58 0;
#X connect 35 0 26 0;
#X connect 35 0 58 0;
#X connect 36 0 37 0;
#X connect 36 1 37 1;
#X connect 37 0 25 0;
#X connect 38 0 39 0;
#X connect 38 1 39 1;
#X connect 39 0 42 0;
#X connect 40 0 49 0;
#X connect 41 0 51 4;
#X connect 42 0 41 1;
#X connect 42 0 103 0;
#X connect 43 0 33 0;
#X connect 44 0 45 0;
#X connect 44 1 45 1;
#X connect 45 0 7 0;
#X connect 46 0 12 0;
#X connect 47 0 50 0;
#X connect 48 0 37 0;
#X connect 49 0 39 0;
#X connect 50 0 45 0;
#X connect 51 0 54 0;
#X connect 51 0 55 0;
#X connect 52 0 51 5;
#X connect 53 0 52 1;
#X connect 53 0 128 0;
#X connect 54 0 5 0;
#X connect 55 0 16 0;
#X connect 57 0 3 0;
#X connect 59 0 6 0;
#X connect 60 0 24 1;
#X connect 60 0 31 0;
#X connect 60 0 22 0;
#X connect 60 0 81 0;
#X connect 61 0 59 1;
#X connect 62 0 59 0;
#X connect 63 0 24 0;
#X connect 63 0 102 0;
#X connect 63 0 100 0;
#X connect 64 0 24 1;
#X connect 66 0 75 0;
#X connect 66 0 72 0;
#X connect 67 0 68 0;
#X connect 68 0 110 0;
#X connect 69 0 103 0;
#X connect 69 1 103 1;
#X connect 70 0 127 0;
#X connect 71 1 23 0;
#X connect 72 0 73 0;
#X connect 73 0 124 0;
#X connect 74 0 3 0;
#X connect 74 0 117 0;
#X connect 76 0 77 0;
#X connect 76 0 80 0;
#X connect 77 0 76 1;
#X connect 78 0 112 0;
#X connect 79 0 108 0;
#X connect 80 0 79 0;
#X connect 81 0 109 1;
#X connect 82 0 8 0;
#X connect 82 1 9 0;
#X connect 82 2 18 0;
#X connect 82 3 27 0;
#X connect 82 4 41 0;
#X connect 82 5 52 0;
#X connect 83 0 67 0;
#X connect 83 0 3 0;
#X connect 84 0 85 0;
#X connect 85 0 129 0;
#X connect 86 0 87 0;
#X connect 86 0 91 0;
#X connect 87 0 86 1;
#X connect 90 0 97 0;
#X connect 91 0 90 0;
#X connect 92 0 86 0;
#X connect 93 0 70 0;
#X connect 93 1 105 0;
#X connect 94 0 107 0;
#X connect 95 0 111 0;
#X connect 96 0 94 0;
#X connect 97 0 123 0;
#X connect 97 1 88 0;
#X connect 97 2 89 0;
#X connect 98 0 95 0;
#X connect 99 0 109 0;
#X connect 100 0 92 0;
#X connect 100 1 125 0;
#X connect 101 0 99 0;
#X connect 103 0 53 0;
#X connect 105 0 76 0;
#X connect 106 0 112 1;
#X connect 107 0 111 0;
#X connect 107 1 111 1;
#X connect 108 0 126 0;
#X connect 108 1 104 0;
#X connect 109 0 93 0;
#X connect 110 0 16 0;
#X connect 110 0 5 0;
#X connect 111 0 81 0;
#X connect 112 0 83 0;
#X connect 114 0 84 1;
#X connect 115 0 62 0;
#X connect 116 0 4 0;
#X connect 117 0 84 0;
#X connect 118 0 119 0;
#X connect 119 0 117 1;
#X connect 120 0 117 1;
#X connect 121 0 118 0;
#X connect 122 0 3 0;
#X connect 123 0 74 0;
#X connect 124 0 130 1;
#X connect 125 0 86 0;
#X connect 126 0 78 0;
#X connect 127 0 76 0;
#X connect 128 0 106 0;
#X connect 129 0 5 0;
#X connect 130 0 84 0;
#X connect 130 0 3 0;
#X connect 131 0 130 0;
