#N canvas 854 0 826 1028 10;
#X obj 434 556 inlet;
#X obj 561 944 inlet;
#X obj 133 128 inlet;
#X obj -1112 228 spigot-toggle_red;
#X obj 1145 -268 t b f;
#X obj 1145 -243 *;
#X obj 356 1104 outlet~;
#X obj 557 556 inlet;
#X obj 476 407 inlet;
#X obj 496 556 inlet;
#X obj 118 204 spigot-toggle_red;
#X obj 353 981 vline~;
#X floatatom 398 458 5 0 0 0 - - -;
#X floatatom 423 725 5 0 0 0 - - -;
#X obj 118 306 pack \$1 \$0;
#X floatatom 189 310 12 0 0 0 - - -;
#X floatatom 118 282 12 0 0 0 - - -;
#X obj 118 232 f;
#X floatatom 403 967 7 0 0 0 - - -;
#X floatatom 558 969 7 0 0 0 - - -;
#X obj 504 981 vline~;
#X floatatom 383 725 5 0 0 0 - - -;
#X msg 355 940 stop;
#X msg 504 952 stop;
#X obj 511 1007 pow~ 4;
#X obj 353 1009 pow~ 2;
#X obj 388 685 * 1;
#X obj 452 685 * 1;
#X floatatom 460 725 5 0 0 0 - - -;
#X obj 503 685 * 1;
#X obj 118 257 * 100;
#X floatatom 434 595 5 0 0 0 - - -;
#X floatatom 496 595 5 0 0 0 - - -;
#X floatatom 559 595 5 0 0 0 - - -;
#X obj 398 440 * 1;
#X floatatom 435 429 5 0 0 0 - - -;
#X floatatom 397 416 5 0 0 0 - - -;
#X obj 992 916 f;
#X obj 991 935 pack f;
#X obj 288 727 bng 20 250 50 0 empty empty empty 17 7 0 10 -258113
-1 -1;
#X obj 992 887 bng 20 250 50 0 empty empty empty 17 7 0 10 -260097
-1 -1;
#X msg 990 961 0 \$1;
#X obj 351 167 r bonktoenvB;
#X obj 510 1108 tabwrite~ env5;
#X msg 118 351 \; env5 resize \$1, f 15;
#X obj 405 494 outlet;
#X obj 402 944 inlet;
#X obj 179 127 r SmplbangB;
#X obj 301 896 f;
#X obj 302 919 pack f;
#X obj 324 879 * 1;
#X msg 304 941 0.5 \$1;
#X obj 229 782 bng 15 250 50 0 empty empty empty 17 7 0 10 -262144
-1 -1;
#X obj 120 673 sel;
#X obj 88 844 r T$mod1;
#X obj 121 647 r AnB_Benv;
#X msg 354 875 1 \$1 \, 1 0 \$3 \, 0 0 \$4;
#X msg 507 874 0 0 \$1 \, 1 0 \$4 \, 0 \$2 \$4;
#X obj 378 817 pack f f f f;
#X obj 122 761 - 1;
#X obj 122 786 * -1;
#X obj 38 734 r Bbutton;
#X obj 287 598 f;
#X obj 313 598 + 1;
#X obj 307 688 bng 15 250 50 0 empty empty empty 17 7 0 10 -262144
-1 -1;
#X obj 325 688 bng 15 250 50 0 empty empty empty 17 7 0 10 -262144
-1 -1;
#X floatatom 287 618 5 0 0 0 - - -;
#X obj 284 567 bng 15 250 50 0 empty empty empty 17 7 0 10 -262144
-1 -1;
#X obj 287 665 sel 0 1;
#X obj 283 548 sel;
#X msg 301 572 -1;
#X obj 285 688 bng 15 250 50 0 empty empty empty 17 7 0 10 -262144
-1 -1;
#X obj 287 643 mod 200;
#X obj 994 748 f;
#X obj 1020 748 + 1;
#X obj 1015 836 bng 15 250 50 0 empty empty empty 17 7 0 10 -262144
-1 -1;
#X obj 1033 835 bng 15 250 50 0 empty empty empty 17 7 0 10 -262144
-1 -1;
#X floatatom 994 768 5 0 0 0 - - -;
#X obj 957 700 bng 15 250 50 0 empty empty empty 17 7 0 10 -262144
-1 -1;
#X obj 994 812 sel 0 1;
#X obj 994 702 bng 15 250 50 0 empty empty empty 17 7 0 10 -262144
-1 -1;
#X obj 994 790 mod 200;
#X obj 994 836 bng 15 250 50 0 empty empty empty 17 7 0 10 -262144
-1 -1;
#X obj 992 864 delay 0;
#X msg 994 726 -1;
#X obj 959 655 +;
#X obj 957 678 sel 2;
#X obj 958 581 == 1;
#X obj 974 631 == 0;
#X obj 531 221 spigot-toggle_red;
#X obj 528 166 - 1;
#X obj 528 191 * -1;
#X obj 527 140 r ø@S1;
#X obj 558 164 r lo;
#X obj 123 704 bng 15 250 50 0 empty empty empty 17 7 0 10 -262144
-1 -1;
#X obj 52 765 sel;
#X obj 52 796 bng 15 250 50 0 empty empty empty 17 7 0 10 -262144 -1
-1;
#X obj 74 797 bng 15 250 50 0 empty empty empty 17 7 0 10 -262144 -1
-1;
#X obj 113 735 r trgrmodB;
#X obj 45 907 delay 11;
#X obj 723 1158 spigot-toggle_red;
#X obj 614 1169 r linermpenvAVB;
#X obj 736 1174 s ramptooffB;
#X floatatom 718 1039 5 0 0 0 - - -;
#X floatatom 724 1128 5 0 0 0 - - -;
#X msg 722 1103 1;
#X msg 753 1106 0;
#X obj 720 1060 sel;
#X obj 91 874 * 2;
#X obj 974 608 r trgrBmod;
#X obj 957 557 r trgrafterBmod;
#X obj 716 1010 r trgrBmod;
#X obj 729 680 r T$mod1;
#X obj 282 526 r trgrafterBmod;
#X obj 399 391 spigot-toggle_red;
#X floatatom 399 369 5 0 0 0 - - -;
#X floatatom 923 776 5 0 0 0 - - -;
#X obj 399 347 r SELtglidelessB;
#X obj 582 696 * 1;
#X obj 646 696 * 1;
#X obj 697 696 * 1;
#X floatatom 621 724 5 0 0 0 - - -;
#X floatatom 581 724 5 0 0 0 - - -;
#X floatatom 658 724 5 0 0 0 - - -;
#X obj 714 741 t b f;
#X floatatom 500 727 5 0 0 0 - - -;
#X obj 709 813 - 0;
#X obj 705 787 t b f;
#X obj 715 765 -;
#X connect 0 0 31 0;
#X connect 1 0 19 0;
#X connect 2 0 10 1;
#X connect 4 0 5 0;
#X connect 4 1 5 1;
#X connect 7 0 33 0;
#X connect 8 0 35 0;
#X connect 9 0 32 0;
#X connect 10 0 17 0;
#X connect 10 0 43 0;
#X connect 11 0 25 0;
#X connect 12 0 17 1;
#X connect 12 0 45 0;
#X connect 12 0 26 0;
#X connect 12 0 27 0;
#X connect 12 0 29 0;
#X connect 13 0 58 1;
#X connect 14 0 44 0;
#X connect 15 0 14 1;
#X connect 16 0 14 0;
#X connect 17 0 30 0;
#X connect 18 0 25 1;
#X connect 19 0 24 1;
#X connect 20 0 24 0;
#X connect 21 0 50 0;
#X connect 21 0 58 0;
#X connect 22 0 11 0;
#X connect 23 0 20 0;
#X connect 24 0 43 0;
#X connect 24 0 6 0;
#X connect 25 0 43 0;
#X connect 25 0 6 0;
#X connect 26 0 21 0;
#X connect 27 0 28 0;
#X connect 28 0 58 2;
#X connect 29 0 13 0;
#X connect 30 0 16 0;
#X connect 31 0 26 1;
#X connect 31 0 118 1;
#X connect 32 0 27 1;
#X connect 32 0 119 1;
#X connect 33 0 29 1;
#X connect 33 0 120 1;
#X connect 34 0 12 0;
#X connect 35 0 34 1;
#X connect 36 0 34 0;
#X connect 37 0 38 0;
#X connect 38 0 41 0;
#X connect 39 0 48 0;
#X connect 39 0 52 0;
#X connect 39 0 105 0;
#X connect 40 0 37 0;
#X connect 41 0 11 0;
#X connect 41 0 20 0;
#X connect 42 0 10 0;
#X connect 46 0 18 0;
#X connect 47 0 10 0;
#X connect 48 0 49 0;
#X connect 49 0 51 0;
#X connect 50 0 48 1;
#X connect 51 0 11 0;
#X connect 51 0 20 0;
#X connect 52 0 10 0;
#X connect 52 0 48 0;
#X connect 53 0 94 0;
#X connect 54 0 108 0;
#X connect 55 0 53 0;
#X connect 56 0 11 0;
#X connect 57 0 20 0;
#X connect 58 0 57 0;
#X connect 58 0 56 0;
#X connect 59 0 60 0;
#X connect 61 0 95 0;
#X connect 62 0 63 0;
#X connect 62 0 66 0;
#X connect 63 0 62 1;
#X connect 66 0 72 0;
#X connect 67 0 62 0;
#X connect 68 0 71 0;
#X connect 68 1 64 0;
#X connect 68 2 65 0;
#X connect 69 0 67 0;
#X connect 69 1 70 0;
#X connect 70 0 62 0;
#X connect 71 0 39 0;
#X connect 72 0 68 0;
#X connect 73 0 74 0;
#X connect 73 0 77 0;
#X connect 74 0 73 1;
#X connect 77 0 81 0;
#X connect 78 0 73 0;
#X connect 79 0 82 0;
#X connect 79 1 75 0;
#X connect 79 2 76 0;
#X connect 80 0 84 0;
#X connect 81 0 79 0;
#X connect 82 0 83 0;
#X connect 83 0 106 0;
#X connect 83 0 40 0;
#X connect 84 0 73 0;
#X connect 85 0 86 0;
#X connect 86 0 78 0;
#X connect 86 1 80 0;
#X connect 87 0 85 0;
#X connect 88 0 85 1;
#X connect 90 0 91 0;
#X connect 91 0 89 1;
#X connect 92 0 90 0;
#X connect 93 0 89 1;
#X connect 95 0 96 0;
#X connect 95 1 97 0;
#X connect 96 0 99 0;
#X connect 96 0 48 0;
#X connect 98 0 59 0;
#X connect 99 0 48 0;
#X connect 100 0 102 0;
#X connect 101 0 100 1;
#X connect 103 0 107 0;
#X connect 104 0 100 0;
#X connect 105 0 104 0;
#X connect 106 0 104 0;
#X connect 107 1 105 0;
#X connect 108 0 99 1;
#X connect 109 0 88 0;
#X connect 110 0 87 0;
#X connect 110 0 114 1;
#X connect 111 0 103 0;
#X connect 112 0 118 0;
#X connect 112 0 119 0;
#X connect 112 0 120 0;
#X connect 113 0 69 0;
#X connect 114 0 36 0;
#X connect 115 0 114 0;
#X connect 116 0 37 1;
#X connect 116 0 83 1;
#X connect 117 0 115 0;
#X connect 118 0 122 0;
#X connect 119 0 123 0;
#X connect 120 0 121 0;
#X connect 121 0 127 0;
#X connect 122 0 124 0;
#X connect 123 0 128 0;
#X connect 124 0 128 0;
#X connect 124 1 128 1;
#X connect 125 0 58 3;
#X connect 126 0 125 0;
#X connect 126 0 116 0;
#X connect 127 0 126 0;
#X connect 127 1 126 1;
#X connect 128 0 126 0;
