#N canvas 195 702 928 1028 10;
#X obj 215 180 inlet;
#X obj 175 686 inlet;
#X obj 303 679 outlet~;
#X obj 446 665 inlet;
#X obj 599 181 inlet;
#X obj 470 179 inlet;
#X floatatom 173 712 7 0 0 0 - - -;
#X floatatom 446 687 7 0 0 0 - - -;
#X obj 300 629 vline~;
#X obj 303 653 pow~ 2;
#X obj 183 406 bng 20 250 50 0 empty empty empty 17 7 0 10 -4034 -1
-1;
#X obj 142 386 bng 15 250 50 0 empty empty empty 17 7 0 10 -262144
-1 -1;
#X floatatom 214 219 5 0 0 0 - - -;
#X obj 434 506 bng 20 250 50 0 empty empty empty 17 7 0 10 -260097
-1 -1;
#X obj 181 501 bng 20 250 50 0 empty empty empty 17 7 0 10 -260097
-1 -1;
#X obj 163 656 pack f f;
#X obj 447 638 pack f f;
#X floatatom 207 635 5 0 0 0 - - -;
#X obj 215 251 t b f;
#X obj 218 281 * 1;
#X floatatom 75 213 5 0 0 0 - - -;
#X floatatom 596 308 5 0 0 0 - - -;
#X obj 319 781 line;
#X obj 320 805 hsl 128 15 0 1 0 0 empty empty empty -2 -8 0 10 -262144
-1 -1 12700 1;
#X obj 172 735 f;
#X obj 430 706 f;
#X obj 436 476 delay 0;
#X obj 275 521 bng 44 250 50 0 empty empty empty 17 7 0 10 -4034 -1
-1;
#X obj 320 522 bng 44 250 50 0 empty empty empty 17 7 0 10 -260097
-1 -1;
#X obj 141 335 r TRGnA_@load;
#X obj 316 848 s opaENVA;
#X obj 75 183 r T$mod;
#X floatatom 474 238 5 0 0 0 - - -;
#X floatatom 597 215 5 0 0 0 - - -;
#X obj 596 252 t b f;
#X obj 596 280 * 1;
#X obj 521 302 - 1;
#X obj 519 321 * -1;
#X obj 474 259 t b f;
#X floatatom 475 454 5 0 0 0 - - -;
#X obj 441 547 spigot-toggle_vert;
#X obj 316 829 pow 2;
#X text 459 149 env sustain;
#X text 544 150 env out;
#X floatatom 819 228 5 0 0 0 - - -;
#X obj 819 207 == 0;
#X obj 773 183 == 1;
#X text 706 142 env out @ fin de serie step off;
#X obj 224 903 *~ 7;
#X floatatom -12 839 5 0 0 0 - - -;
#X obj -18 733 bng 15 250 50 0 empty empty empty 17 7 0 10 -262144
-1 -1;
#X obj 224 931 tabwrite~ array1;
#X obj -17 703 r BBmod;
#X msg -19 874 \; array1 resize \$1;
#X obj 770 297 +;
#X obj -3 757 * 44;
#X obj 474 281 * 1;
#X obj 10 816 spigot-toggle_vert;
#X obj -13 816 spigot-toggle_vert;
#X obj 4 794 inlet;
#X obj -98 890 tgl 23 0 empty empty empty 17 7 0 10 -1 -260097 -260097
1 1;
#X msg -55 913 8000;
#X floatatom 771 208 5 0 0 0 - - -;
#X obj 490 617 f;
#X obj 465 522 r lo;
#X obj -19 783 f;
#X obj 473 338 t b f;
#X obj 473 360 * 1;
#X obj 205 444 r lo;
#X obj -100 866 inlet;
#X msg 168 575 1;
#X msg 441 582 0;
#X obj 28 755 r T$mod;
#X obj 500 539 r trgrmodenvA;
#X obj 762 484 == 2;
#X obj 764 525 bng 15 250 50 0 empty empty empty 17 7 0 10 -262144
-1 -1;
#X obj 787 526 bng 15 250 50 0 empty empty empty 17 7 0 10 -262144
-1 -1;
#X obj 763 504 sel 0 1 2;
#X obj 812 525 bng 15 250 50 0 empty empty empty 17 7 0 10 -262144
-1 -1;
#X obj 784 575 delay;
#X obj 491 579 bng 20 250 50 0 empty empty empty 17 7 0 10 -4160 -262144
-1;
#X obj 775 163 r trgraftermodA;
#X obj 819 186 r trgrmodenvA;
#X floatatom 357 405 5 0 0 0 - - -;
#X obj 358 425 sel;
#X obj 373 445 bng 15 250 50 0 empty empty empty 17 7 0 10 -262144
-1 -1;
#X obj 356 444 bng 15 250 50 0 empty empty empty 17 7 0 10 -262144
-1 -1;
#X obj 357 383 r trgraftermodoffA;
#X obj 352 300 r øAtiTS1;
#X obj -50 366 spigot-toggle_vert;
#X obj -50 286 spigot-toggle_vert;
#X obj -51 220 * 1;
#X obj -52 319 r bonkdown;
#X obj -49 198 r bonkTdown;
#X obj -161 193 r bonkTA;
#X obj -163 361 spigot-toggle_vert;
#X obj -164 314 r bonkup;
#X obj -162 281 spigot-toggle_vert;
#X obj -163 215 * 1;
#X obj 499 481 r bonkuptoenvA;
#X obj -155 260 r bonkuptoenvA;
#X obj -43 266 r bonkdowntoenvA;
#X obj 500 501 r bonkdowntoenvA;
#X obj 183 365 r BBmod;
#X obj 186 444 spigot-toggle_vert;
#X obj 307 398 - 1;
#X obj 305 417 * -1;
#X obj 306 378 r >stop;
#X obj 297 442 spigot-toggle_vert;
#X obj 76 630 f;
#X obj 74 505 r restartenv;
#X obj 74 557 bng 15 250 50 0 empty empty empty 17 7 0 10 -262144 -1
-1;
#X obj 679 295 s envT;
#X obj 73 533 spigot-toggle_vert;
#X obj -111 959 bng 15 250 50 0 empty empty empty 17 7 0 10 -262144
-1 -1;
#X obj -163 796 bng 15 250 50 0 empty empty empty 17 7 0 10 -262144
-1 -1;
#X obj -112 929 spigot-toggle_vert;
#X obj -162 774 metro 250;
#X obj -162 817 s metroenvAetBenv;
#X obj 395 914 sel;
#X obj 370 945 bng 15 250 50 0 empty empty empty 17 7 0 10 -262144
-1 -1;
#X obj 409 955 bng 15 250 50 0 empty empty empty 17 7 0 10 -262144
-1 -1;
#X obj 387 884 r recmodulenvA;
#X connect 0 0 12 0;
#X connect 1 0 6 0;
#X connect 3 0 7 0;
#X connect 4 0 33 0;
#X connect 5 0 32 0;
#X connect 6 0 24 1;
#X connect 7 0 25 1;
#X connect 8 0 9 0;
#X connect 9 0 2 0;
#X connect 9 0 48 0;
#X connect 10 0 104 0;
#X connect 11 0 10 0;
#X connect 12 0 18 0;
#X connect 13 0 28 0;
#X connect 13 0 25 0;
#X connect 13 0 40 0;
#X connect 14 0 27 0;
#X connect 14 0 63 0;
#X connect 14 0 26 0;
#X connect 14 0 70 0;
#X connect 14 0 24 0;
#X connect 15 0 22 0;
#X connect 15 0 8 0;
#X connect 16 0 8 0;
#X connect 16 0 22 0;
#X connect 17 0 15 1;
#X connect 17 0 109 1;
#X connect 18 0 19 0;
#X connect 18 1 19 1;
#X connect 19 0 17 0;
#X connect 20 0 19 0;
#X connect 20 0 35 0;
#X connect 20 0 56 0;
#X connect 21 0 63 1;
#X connect 22 0 23 0;
#X connect 23 0 41 0;
#X connect 24 0 41 1;
#X connect 24 0 9 1;
#X connect 25 0 41 1;
#X connect 25 0 9 1;
#X connect 26 0 13 0;
#X connect 29 0 11 0;
#X connect 31 0 20 0;
#X connect 32 0 38 0;
#X connect 33 0 34 0;
#X connect 33 0 36 0;
#X connect 34 0 35 0;
#X connect 34 1 35 1;
#X connect 35 0 21 0;
#X connect 36 0 37 0;
#X connect 37 0 67 0;
#X connect 38 0 56 0;
#X connect 38 1 56 1;
#X connect 39 0 26 1;
#X connect 39 0 79 1;
#X connect 40 0 71 0;
#X connect 41 0 30 0;
#X connect 44 0 54 1;
#X connect 45 0 44 0;
#X connect 46 0 62 0;
#X connect 48 0 51 0;
#X connect 49 0 53 0;
#X connect 50 0 57 0;
#X connect 50 0 65 0;
#X connect 52 0 50 0;
#X connect 54 0 74 0;
#X connect 55 0 65 1;
#X connect 56 0 66 0;
#X connect 56 0 112 0;
#X connect 57 0 51 0;
#X connect 58 0 49 0;
#X connect 59 0 58 1;
#X connect 59 0 57 1;
#X connect 60 0 61 0;
#X connect 60 0 116 1;
#X connect 60 0 117 0;
#X connect 61 0 49 0;
#X connect 62 0 54 0;
#X connect 63 0 16 1;
#X connect 64 0 40 1;
#X connect 65 0 58 0;
#X connect 66 0 67 0;
#X connect 66 1 67 1;
#X connect 67 0 39 0;
#X connect 68 0 104 1;
#X connect 69 0 60 0;
#X connect 70 0 15 0;
#X connect 71 0 16 0;
#X connect 72 0 55 0;
#X connect 73 0 40 1;
#X connect 74 0 77 0;
#X connect 76 0 79 0;
#X connect 77 0 75 0;
#X connect 77 1 76 0;
#X connect 77 3 78 0;
#X connect 79 0 80 0;
#X connect 80 0 63 0;
#X connect 80 0 71 0;
#X connect 81 0 46 0;
#X connect 82 0 45 0;
#X connect 83 0 84 0;
#X connect 84 0 86 0;
#X connect 84 1 85 0;
#X connect 85 0 108 0;
#X connect 86 0 71 0;
#X connect 87 0 83 0;
#X connect 88 0 83 0;
#X connect 88 0 104 1;
#X connect 89 0 11 0;
#X connect 90 0 20 0;
#X connect 91 0 90 0;
#X connect 92 0 89 0;
#X connect 93 0 91 0;
#X connect 94 0 98 0;
#X connect 95 0 11 0;
#X connect 96 0 95 0;
#X connect 97 0 20 0;
#X connect 98 0 97 0;
#X connect 99 0 40 1;
#X connect 100 0 95 1;
#X connect 100 0 97 1;
#X connect 101 0 89 1;
#X connect 101 0 90 1;
#X connect 102 0 40 1;
#X connect 103 0 10 0;
#X connect 104 0 14 0;
#X connect 105 0 106 0;
#X connect 106 0 108 1;
#X connect 106 0 113 1;
#X connect 107 0 105 0;
#X connect 108 0 70 0;
#X connect 109 0 15 1;
#X connect 110 0 113 0;
#X connect 111 0 70 0;
#X connect 111 0 109 0;
#X connect 113 0 111 0;
#X connect 114 0 51 0;
#X connect 115 0 116 0;
#X connect 115 0 118 0;
#X connect 116 0 114 0;
#X connect 117 0 115 0;
#X connect 119 0 121 0;
#X connect 119 1 120 0;
#X connect 120 0 24 0;
#X connect 120 0 109 0;
#X connect 120 0 70 0;
#X connect 121 0 25 0;
#X connect 121 0 71 0;
#X connect 121 0 63 0;
#X connect 122 0 119 0;
