#N canvas 405 1 1275 609 10;
#X floatatom -438 -665 5 0 0 0 - - -;
#X obj -590 -578 bng 15 250 50 0 empty empty empty 17 7 0 10 -262144
-1 -1;
#X obj -745 -734 inlet;
#X floatatom -266 -667 5 0 0 0 - - -;
#X obj -261 -717 inlet;
#X obj -366 -473 *;
#X obj -369 -499 t b f;
#X floatatom -366 -451 5 0 0 0 - - -;
#X obj -306 -284 t b f;
#X obj -257 -283 inlet;
#X obj 237 -529 inlet;
#X floatatom -259 -259 5 0 0 0 - - -;
#X floatatom -339 -185 5 0 0 0 - - -;
#X obj -305 -262 * 1;
#X obj -1200 -580 nbx 5 14 -1e+37 1e+37 0 0 empty empty empty 0 -8
0 10 -262144 -1 -1 0 256;
#X obj 53 -704 inlet;
#X obj -1200 -559 spigot-toggle_jaunenoir;
#X obj -304 -556 r lo;
#X obj -334 46 outlet~;
#X obj -330 -19 vline~;
#X obj -1202 -643 r directtuchpad;
#X obj -1153 -706 - 1;
#X obj -1155 -682 * -1;
#X floatatom -1015 -813 5 0 0 0 - - -;
#X obj -1092 -643 r LNR+TUCH;
#X obj -930 -644 r freestepsouts;
#X obj -1013 -645 r steps_lnr;
#X obj -311 -475 *;
#X floatatom -311 -453 5 0 0 0 - - -;
#X obj -264 -501 - 1;
#X obj -265 -476 * -1;
#X floatatom -265 -453 5 0 0 0 - - -;
#X obj -311 -501 t b f;
#X msg -310 -529 0;
#X obj -1096 -560 spigot-toggle_jaunenoir;
#X obj -930 -478 spigot-toggle_jaunenoir;
#X obj -903 -477 r lo;
#X obj -1183 -454 - 1;
#X obj -1183 -424 * -1;
#X obj -1202 -605 r directstopad;
#X obj -977 -719 - 1;
#X obj -978 -696 * -1;
#X obj -1100 -793 r offmetro;
#X obj -1023 -777 - 1;
#X obj -1024 -754 * -1;
#X obj -1174 -393 sel;
#X floatatom -476 55 5 0 0 0 - - -;
#X obj -492 83 s ramptooff;
#X obj 417 -893 r directtuchpad;
#X obj 393 -783 t b f;
#X obj 422 -842 - 1;
#X obj 397 -813 * -1;
#X obj -481 -23 line;
#X floatatom -476 5 5 0 0 0 - - -;
#X obj -1110 -519 r BLNR;
#X obj -1108 -482 spigot-toggle_jaunenoir;
#X obj -1006 -132 t b f;
#X obj -1006 -105 * 1;
#X obj -445 -532 * 1;
#X obj -1024 -477 spigot-toggle_jaunenoir;
#X msg -654 -701 1 0;
#X obj -929 -508 bng 15 250 50 0 empty empty empty 17 7 0 10 -262144
-1 -1;
#X obj -611 -809 ctlin 1;
#X obj -611 -789 * 10;
#X obj -608 -759 spigot-toggle_jaunenoir;
#X obj -447 -558 f;
#X obj -527 -588 t b b b;
#X obj 420 -868 spigot-toggle_red;
#X obj 430 -959 r freestepsouts;
#X obj 394 -758 * 1;
#X obj -154 -280 delay;
#X obj -394 -285 delay;
#X obj -153 -197 pack f f;
#X obj -397 -160 pack f f;
#X obj -155 -341 bng 15 250 50 0 empty empty empty 17 7 0 10 -262144
-1 -1;
#X obj -393 -361 bng 15 250 50 0 empty empty empty 17 7 0 10 -262144
-1 -1;
#X obj -101 -271 * -1;
#X obj -353 -286 r lo;
#X obj -154 -220 f;
#X floatatom -101 -249 5 0 0 0 - - -;
#X obj -394 -185 f;
#X obj -154 -257 bng 15 250 50 0 empty empty empty 17 7 0 10 -262144
-1 -1;
#X obj -392 -243 bng 15 250 50 0 empty empty empty 17 7 0 10 -262144
-1 -1;
#X obj -594 -86 s b@A;
#X obj -582 -393 r slctdisplayonoff;
#X obj -499 -130 r @A;
#X obj -594 -118 spigot-toggle_jaunenoir;
#X obj -594 -218 spigot-toggle_jaunenoir;
#X obj -587 -275 - 1;
#X obj -587 -250 * -1;
#X obj -508 -348 spigot-toggle_jaunenoir;
#X obj -99 -297 - 1;
#X obj -489 -362 r lo;
#X obj -599 -450 delay;
#X obj -495 -239 - 1;
#X obj -499 -216 * -1;
#X obj -662 -209 r ø>;
#X obj -662 -186 - 1;
#X obj -662 -163 * -1;
#X obj -546 -213 sel;
#X obj -543 -242 spigot-toggle_jaunenoir;
#X obj -532 -270 r lo;
#X obj -54 -276 sel;
#X msg -38 -250 0;
#X obj -60 -304 r ø@S;
#X obj -722 -298 r øAtiTS1;
#X obj -55 -498 t b f;
#X floatatom -53 -456 12 0 0 0 - - -;
#X text 16 -668 crop;
#X obj 125 -535 t b f;
#X floatatom 2 -325 12 0 0 0 - - -;
#X text 293 -514 T*Bang/inv/T*ramp;
#X obj -52 -476 * 1;
#X floatatom 184 -419 12 0 0 0 - - -;
#X obj 189 -441 * -1;
#X floatatom 57 -667 5 0 0 0 - - -;
#X obj -103 -476 *;
#X obj -106 -502 t b f;
#X floatatom -105 -453 5 0 0 0 - - -;
#X obj 131 -588 *;
#X floatatom 129 -565 5 0 0 0 - - -;
#X obj 131 -614 t b f;
#X floatatom -54 -416 12 0 0 0 - - -;
#X obj 192 -590 t b f;
#X floatatom 194 -548 12 0 0 0 - - -;
#X obj 195 -568 * 1;
#X floatatom 234 -568 12 0 0 0 - - -;
#X obj 192 -465 - 1;
#X obj 125 -509 * 1;
#X msg -353 -261 1;
#X text -306 -668 crop;
#X obj -53 -436 * 1;
#X text -471 -665 time;
#X floatatom 322 -261 5 0 0 0 - - -;
#X obj -259 -240 * 1;
#X obj 321 -241 t b f;
#X obj 332 -293 r envfadreducin;
#X obj 404 -597 r envfadreducout;
#X floatatom -257 -216 5 0 0 0 - - -;
#X obj -1032 6 r recordlivemidiloopBNG;
#X msg -358 -233 0;
#X obj 116 -321 r env_recmidi_out;
#X obj -1034 -171 r env_recmidi_in;
#X obj 110 -291 r recordlivemidiloopBNG;
#X obj 111 -266 bng 15 250 50 0 empty empty empty 17 7 0 10 -262144
-1 -1;
#X obj -128 -35 r recordlivemidiloopstop;
#X obj -207 -70 delay;
#X msg -205 -26 1;
#X obj -208 -50 spigot-toggle_red;
#X msg -85 138 1;
#X obj -419 -732 r envRNGmidiloop;
#X obj -64 118 delay;
#X obj -117 68 bng 15 250 50 0 empty empty empty 17 7 0 10 -262144
-1 -1;
#X obj -69 19 bng 15 250 50 0 empty empty empty 17 7 0 10 -262144 -1
-1;
#X obj -75 73 spigot-toggle_red;
#X obj -30 17 r recordlivemidiloopstop1;
#X obj -1130 -301 spigot-toggle_jaunenoir;
#X obj 445 -243 * -1;
#X obj 447 -269 - 1;
#X obj -1134 -231 bng 15 250 50 0 empty empty empty 17 7 0 10 -262144
-1 -1;
#X obj 41 -104 s gateinA;
#X obj 156 -121 s gateoutA;
#X obj 156 -65 s trigA;
#X obj -196 -466 r øSbangA;
#X obj -250 -366 bng 15 250 50 0 empty empty empty 17 7 0 10 -262144
-1 -1;
#X obj -253 -166 sel 0;
#X obj -267 -126 bng 15 250 50 0 empty empty empty 17 7 0 10 -262144
-1 -1;
#X obj -224 -111 bng 15 250 50 0 empty empty empty 17 7 0 10 -262144
-1 -1;
#X obj -976 92 bng 15 250 50 0 empty empty empty 17 7 0 10 -262144
-1 -1;
#X obj -711 96 bng 15 250 50 0 empty empty empty 17 7 0 10 -262144
-1 -1;
#X obj -1036 93 bng 15 250 50 0 empty empty empty 17 7 0 10 -262144
-1 -1;
#X obj -724 69 delay 220;
#X obj -31 -374 + 0;
#X obj -1126 -324 r bonkAA;
#X obj -952 -331 r bonkAouBtoenvA;
#X connect 0 0 65 1;
#X connect 0 0 93 1;
#X connect 0 0 116 0;
#X connect 0 0 8 0;
#X connect 1 0 66 0;
#X connect 1 0 93 0;
#X connect 1 0 75 0;
#X connect 2 0 61 0;
#X connect 3 0 6 0;
#X connect 3 0 29 0;
#X connect 4 0 3 0;
#X connect 5 0 7 0;
#X connect 6 0 5 0;
#X connect 6 1 5 1;
#X connect 7 0 71 1;
#X connect 8 0 13 0;
#X connect 8 1 13 1;
#X connect 9 0 11 0;
#X connect 10 0 123 0;
#X connect 11 0 134 0;
#X connect 12 0 73 1;
#X connect 13 0 12 0;
#X connect 14 0 16 0;
#X connect 14 0 34 0;
#X connect 15 0 115 0;
#X connect 16 0 37 0;
#X connect 17 0 33 0;
#X connect 19 0 18 0;
#X connect 20 0 16 1;
#X connect 20 0 21 0;
#X connect 20 0 60 0;
#X connect 21 0 22 0;
#X connect 22 0 34 1;
#X connect 22 0 79 0;
#X connect 23 0 43 0;
#X connect 24 0 34 1;
#X connect 24 0 40 0;
#X connect 25 0 35 1;
#X connect 26 0 40 0;
#X connect 26 0 59 1;
#X connect 27 0 28 0;
#X connect 29 0 30 0;
#X connect 30 0 31 0;
#X connect 31 0 32 0;
#X connect 32 0 27 0;
#X connect 32 1 27 1;
#X connect 33 0 29 0;
#X connect 33 0 6 0;
#X connect 34 0 55 1;
#X connect 34 0 56 0;
#X connect 35 0 1 0;
#X connect 36 0 35 1;
#X connect 37 0 38 0;
#X connect 38 0 45 0;
#X connect 39 0 14 0;
#X connect 39 0 64 1;
#X connect 40 0 41 0;
#X connect 41 0 35 1;
#X connect 42 0 23 0;
#X connect 43 0 44 0;
#X connect 45 0 71 0;
#X connect 45 1 70 0;
#X connect 46 0 47 0;
#X connect 48 0 67 0;
#X connect 49 0 69 0;
#X connect 49 1 69 1;
#X connect 50 0 51 0;
#X connect 51 0 49 0;
#X connect 52 0 53 0;
#X connect 53 0 46 0;
#X connect 54 0 55 0;
#X connect 54 0 59 0;
#X connect 55 0 1 0;
#X connect 56 0 57 0;
#X connect 56 1 57 1;
#X connect 57 0 19 0;
#X connect 57 0 52 0;
#X connect 58 0 5 0;
#X connect 58 0 27 0;
#X connect 58 0 119 0;
#X connect 59 0 1 0;
#X connect 60 0 0 0;
#X connect 61 0 35 0;
#X connect 62 0 63 0;
#X connect 63 0 64 0;
#X connect 64 0 0 0;
#X connect 65 0 58 0;
#X connect 66 2 65 0;
#X connect 67 0 50 0;
#X connect 68 0 67 1;
#X connect 70 0 81 0;
#X connect 71 0 82 0;
#X connect 72 0 19 0;
#X connect 72 0 52 0;
#X connect 73 0 19 0;
#X connect 73 0 52 0;
#X connect 74 0 70 0;
#X connect 75 0 71 0;
#X connect 75 0 74 0;
#X connect 75 0 160 0;
#X connect 76 0 79 0;
#X connect 77 0 129 0;
#X connect 78 0 72 0;
#X connect 79 0 78 1;
#X connect 80 0 73 0;
#X connect 81 0 78 0;
#X connect 81 0 146 0;
#X connect 81 0 161 0;
#X connect 82 0 129 0;
#X connect 82 0 80 0;
#X connect 84 0 88 0;
#X connect 84 0 90 0;
#X connect 84 0 100 0;
#X connect 85 0 86 1;
#X connect 85 0 94 0;
#X connect 86 0 83 0;
#X connect 86 0 71 0;
#X connect 87 0 86 0;
#X connect 88 0 89 0;
#X connect 89 0 87 1;
#X connect 90 0 91 0;
#X connect 91 0 76 0;
#X connect 92 0 90 1;
#X connect 93 0 87 0;
#X connect 94 0 95 0;
#X connect 95 0 90 1;
#X connect 95 0 79 0;
#X connect 96 0 97 0;
#X connect 97 0 98 0;
#X connect 98 0 90 1;
#X connect 98 0 100 1;
#X connect 98 0 79 0;
#X connect 99 0 82 0;
#X connect 100 0 99 0;
#X connect 101 0 100 1;
#X connect 102 1 103 0;
#X connect 103 0 79 0;
#X connect 104 0 102 0;
#X connect 105 0 71 0;
#X connect 106 0 112 0;
#X connect 106 1 112 1;
#X connect 107 0 131 0;
#X connect 109 0 128 0;
#X connect 109 1 128 1;
#X connect 110 0 72 1;
#X connect 110 0 172 1;
#X connect 112 0 107 0;
#X connect 113 0 112 0;
#X connect 114 0 113 0;
#X connect 115 0 117 0;
#X connect 115 0 121 0;
#X connect 116 0 118 0;
#X connect 117 0 116 0;
#X connect 117 1 116 1;
#X connect 118 0 106 0;
#X connect 119 0 120 0;
#X connect 120 0 109 0;
#X connect 121 0 119 0;
#X connect 121 1 119 1;
#X connect 122 0 70 1;
#X connect 122 0 146 1;
#X connect 122 0 151 1;
#X connect 122 0 172 0;
#X connect 123 0 125 0;
#X connect 123 1 125 1;
#X connect 124 0 128 0;
#X connect 124 0 127 0;
#X connect 125 0 124 0;
#X connect 126 0 125 0;
#X connect 127 0 114 0;
#X connect 128 0 110 0;
#X connect 129 0 80 1;
#X connect 131 0 122 0;
#X connect 133 0 135 0;
#X connect 134 0 138 0;
#X connect 135 0 134 0;
#X connect 135 1 134 1;
#X connect 136 0 158 0;
#X connect 137 0 126 0;
#X connect 138 0 13 0;
#X connect 139 0 168 0;
#X connect 140 0 80 1;
#X connect 141 0 103 0;
#X connect 141 0 81 0;
#X connect 143 0 144 0;
#X connect 144 0 103 0;
#X connect 145 0 148 1;
#X connect 145 0 154 1;
#X connect 146 0 148 0;
#X connect 147 0 19 0;
#X connect 148 0 147 0;
#X connect 149 0 19 0;
#X connect 150 0 0 0;
#X connect 151 0 149 0;
#X connect 152 0 154 0;
#X connect 154 0 151 0;
#X connect 155 0 151 0;
#X connect 156 0 159 0;
#X connect 157 0 133 0;
#X connect 158 0 157 0;
#X connect 159 0 168 0;
#X connect 163 0 164 0;
#X connect 164 0 75 0;
#X connect 165 0 166 0;
#X connect 165 1 167 0;
#X connect 167 0 71 0;
#X connect 168 0 171 0;
#X connect 168 0 70 0;
#X connect 169 0 71 0;
#X connect 171 0 169 0;
#X connect 172 0 171 1;
#X connect 173 0 156 0;
#X connect 174 0 156 1;
#X connect 174 0 91 0;
