#N canvas 752 0 928 1028 10;
#X obj 214 125 inlet;
#X obj 151 589 inlet;
#X obj 224 729 outlet~;
#X obj 335 585 inlet;
#X obj 388 179 inlet;
#X floatatom 149 615 7 0 0 0 - - -;
#X floatatom 332 610 7 0 0 0 - - -;
#X obj 224 595 vline~;
#X obj 225 710 pow~ 2;
#X obj 155 410 bng 20 250 50 0 empty empty empty 17 7 0 10 -4034 -1
-1;
#X floatatom 213 159 5 0 0 0 - - -;
#X obj 320 460 bng 20 250 50 0 empty empty empty 17 7 0 10 -260097
-1 -1;
#X obj 156 462 bng 20 250 50 0 empty empty empty 17 7 0 10 -260097
-1 -1;
#X obj 146 551 pack f f;
#X obj 325 549 pack f f;
#X obj 184 519 f;
#X msg 326 523 0;
#X floatatom 198 489 5 0 0 0 - - -;
#X obj 368 523 f;
#X obj 212 248 t b f;
#X obj 212 271 * 1;
#X floatatom 143 9 5 0 0 0 - - -;
#X floatatom 382 498 5 0 0 0 - - -;
#X obj 137 633 f;
#X obj 321 635 f;
#X obj 324 409 delay 0;
#X obj 233 844 bng 44 250 50 0 empty empty empty 17 7 0 10 -4034 -1
-1;
#X obj 278 844 bng 44 250 50 0 empty empty empty 17 7 0 10 -260097
-1 -1;
#X floatatom 387 228 5 0 0 0 - - -;
#X obj 385 250 t b f;
#X obj 387 271 * 1;
#X obj 438 206 - 1;
#X obj 439 225 * -1;
#X obj 439 250 t b f;
#X obj 439 271 * 1;
#X floatatom 263 304 5 0 0 0 - - -;
#X obj 253 248 t b f;
#X floatatom 363 389 5 0 0 0 - - -;
#X obj 254 199 - 1;
#X obj 253 223 * -1;
#X obj 322 438 spigot-toggle_vert;
#X obj 258 271 * 1;
#X text 213 104 env in;
#X text 385 155 env out;
#X obj 288 439 r lo;
#X obj 156 438 spigot-toggle_vert;
#X obj 665 411 inlet;
#X obj 147 -29 inlet;
#X obj 181 78 inlet;
#X msg 146 522 1;
#X floatatom 279 90 0 0 0 0 - - -;
#X obj 292 23 *;
#X obj 285 -17 t b f;
#X obj 373 130 * 1;
#X obj 372 107 t b f;
#X obj 176 104 delay;
#X floatatom 202 58 0 0 0 0 - - -;
#X obj 202 23 *;
#X obj 195 -17 t b f;
#X floatatom 315 169 0 0 0 0 - - -;
#X obj 195 -94 hsl 105 15 0 1 0 0 empty empty cut 12 8 0 10 -260097
-1 -1 2213 1;
#X obj 304 -94 hsl 100 15 0 1 0 0 empty empty empty -2 8 0 10 -260097
-1 -1 7794 1;
#X obj 243 -63 - 1;
#X obj 243 -35 * -1;
#X obj 296 -124 inlet;
#X obj 200 -125 inlet;
#X floatatom 383 -31 0 0 0 0 - - -;
#X obj 382 -6 t b f;
#X obj 383 21 -;
#X floatatom 383 44 0 0 0 0 - - -;
#X connect 0 0 10 0;
#X connect 1 0 5 0;
#X connect 3 0 6 0;
#X connect 4 0 28 0;
#X connect 5 0 8 1;
#X connect 5 0 23 1;
#X connect 6 0 8 1;
#X connect 6 0 24 1;
#X connect 7 0 8 0;
#X connect 8 0 2 0;
#X connect 9 0 45 0;
#X connect 10 0 19 0;
#X connect 10 0 38 0;
#X connect 11 0 16 0;
#X connect 11 0 27 0;
#X connect 11 0 18 0;
#X connect 11 0 15 0;
#X connect 11 0 24 0;
#X connect 12 0 26 0;
#X connect 12 0 49 0;
#X connect 12 0 25 0;
#X connect 12 0 23 0;
#X connect 13 0 7 0;
#X connect 14 0 7 0;
#X connect 15 0 13 1;
#X connect 16 0 14 0;
#X connect 17 0 15 1;
#X connect 18 0 14 1;
#X connect 19 0 20 0;
#X connect 19 1 20 1;
#X connect 20 0 17 0;
#X connect 21 0 57 0;
#X connect 21 0 68 0;
#X connect 21 0 51 0;
#X connect 22 0 18 1;
#X connect 23 0 8 1;
#X connect 24 0 8 1;
#X connect 25 0 40 0;
#X connect 28 0 29 0;
#X connect 28 0 31 0;
#X connect 29 0 30 0;
#X connect 29 1 30 1;
#X connect 30 0 22 0;
#X connect 31 0 32 0;
#X connect 32 0 33 0;
#X connect 33 0 34 0;
#X connect 33 1 34 1;
#X connect 34 0 37 0;
#X connect 36 0 41 0;
#X connect 36 1 41 1;
#X connect 37 0 25 1;
#X connect 38 0 39 0;
#X connect 39 0 36 0;
#X connect 40 0 11 0;
#X connect 41 0 35 0;
#X connect 44 0 40 1;
#X connect 44 0 45 1;
#X connect 45 0 12 0;
#X connect 46 0 40 1;
#X connect 46 0 45 1;
#X connect 47 0 21 0;
#X connect 48 0 55 0;
#X connect 49 0 13 0;
#X connect 50 0 20 0;
#X connect 50 0 41 0;
#X connect 51 0 50 0;
#X connect 52 0 51 0;
#X connect 52 1 51 1;
#X connect 53 0 59 0;
#X connect 54 0 53 0;
#X connect 54 1 53 1;
#X connect 55 0 9 0;
#X connect 56 0 55 1;
#X connect 56 0 66 0;
#X connect 57 0 56 0;
#X connect 58 0 57 0;
#X connect 58 1 57 1;
#X connect 59 0 30 0;
#X connect 59 0 34 0;
#X connect 60 0 58 0;
#X connect 60 0 62 0;
#X connect 61 0 54 0;
#X connect 62 0 63 0;
#X connect 63 0 52 0;
#X connect 64 0 61 0;
#X connect 65 0 60 0;
#X connect 66 0 67 0;
#X connect 67 0 68 0;
#X connect 67 1 68 1;
#X connect 68 0 69 0;
#X connect 69 0 53 0;
