#N canvas 170 65 1510 891 12;
#N canvas 67 224 450 432 :: 0;
#X text 24 16 the format [pix_film] is able to decode depends on the
system you are running Gem.;
#X text 30 101 Win32: [pix_film] should be able to decode AVIs (all
installed codecs). If you are lucky and your version of Gem is compiled
with quicktime-support and you have quicktime installed on your machine
\, you might be able to play back quicktime MOVs.;
#X text 31 63 macOS-X: [pix_film] should be ablte to decode quicktime
MOVs.;
#X text 32 175 linux: that's a bit tricky. Since there is no "native"
video-format for linux it heavily depends on what you have installed
on your machine and how Gem has been compiled. If your system supports
it \, [pix_film] is able to use quicktime4linux/libquicktime to decode
quicktime-MOVs \, libmpeg1/libmpeg3 to decode MPEG2-videos and libaviplay
which opens a wide range of supported formats (with the possibility
to install additional codec-plugins) \, from AVI via MPEG2 to DivX
\, although i have found MPEG support rather unstable. libaviplay does
not support quicktime decoding. There is also some ruddy ffmpeg support
(apart from the one supplied by libaviplay).;
#X text 36 351 although one wouldn't believe it \, but i have found
that under linux i could play most formats...;
#X restore 437 784 pd :: FORMATS;
#X msg 653 927 label \$1;
#X floatatom 276 -317 5 0 0 0 - - -;
#X obj 364 786 outlet;
#X msg 464 981 label \$1;
#X obj 485 149 bng 15 250 50 0 empty empty empty 17 7 0 10 -262144
-1 -1;
#X obj 427 255 outlet;
#X obj 519 317 tgl 15 0 empty empty empty 17 7 0 10 -262144 -1 -1 0
1;
#X obj 522 214 tgl 15 0 empty empty empty 17 7 0 10 -262144 -1 -1 0
1;
#X obj 553 214 spigot-toggle_red;
#X obj 549 317 spigot-toggle_red;
#X obj 499 193 bng 15 250 50 0 empty empty empty 17 7 0 10 -262144
-1 -1;
#X obj 517 343 tgl 15 0 empty empty empty 17 7 0 10 -262144 -1 -1 0
1;
#X obj 521 248 tgl 15 0 empty empty empty 17 7 0 10 -262144 -1 -1 0
1;
#X obj 489 214 spigot-toggle_red;
#X obj 553 248 spigot-toggle_red;
#X obj 549 343 spigot-toggle_red;
#X obj 486 317 spigot-toggle_red;
#X obj 100 -299 random;
#X floatatom 99 -271 5 0 0 0 - - -;
#X obj 234 -12 f;
#X obj 234 58 sel;
#X obj 234 33 mod 10;
#X obj 264 -12 + 1;
#X floatatom 285 905 5 0 0 0 - - -;
#X obj 127 915 random;
#X floatatom 122 956 5 0 0 0 - - -;
#X obj 232 -59 r BB;
#X obj 108 780 f;
#X obj 149 862 sel;
#X obj 141 781 + 1;
#X obj 233 -35 spigot-toggle_red;
#X obj 110 738 spigot-toggle_red;
#X obj 581 317 spigot-toggle_red;
#X obj 125 825 mod 100;
#X obj 164 -182 openpanel;
#X obj 29 593 openpanel;
#X obj 111 -1 r lo;
#X obj 590 214 spigot-toggle_red;
#X obj 589 164 r T$;
#X obj 709 413 outlet;
#X obj 487 111 r BB;
#X obj 638 153 r trgrA;
#X obj 638 176 r trgrB;
#X floatatom 681 287 2 0 0 0 - - -;
#X obj 638 274 spigot-toggle_vert;
#X obj 638 343 outlet;
#X obj 549 386 * 100;
#X obj 111 715 r BB;
#X obj 504 162 r BB1;
#X obj 253 -35 spigot-toggle_red;
#X obj 146 738 spigot-toggle_red;
#X obj 277 -59 r BB1;
#X obj 153 713 r BB1;
#X obj 186 780 * 1;
#X obj 552 280 * 100;
#X floatatom 358 63 5 0 0 0 - - -;
#X obj 581 343 spigot-toggle_red;
#X obj 587 186 r T1;
#X obj 290 33 * 1;
#X floatatom -97 388 5 0 0 2 - - -;
#X obj -98 443 spigot-toggle_red;
#X obj 41 796 outlet;
#X obj 44 774 bng 15 250 50 0 empty empty empty 17 7 0 10 -262144 -1
-1;
#X msg 387 109 open \$1;
#X obj 376 951 splitfilename;
#X obj 585 884 splitfilename;
#X obj 479 441 bng 15 250 50 0 empty empty empty 17 7 0 10 -262144
-1 -1;
#X obj 101 322 cnv 17 180 19 empty empty °_______________% 40 11 1
14 -260097 -1 0;
#X obj 184 323 bng 17 250 50 0 empty empty rdm 1 9 1 9 -33289 -260097
-260097;
#X obj 202 323 tgl 17 0 empty empty BB 2 9 1 10 -1 -260097 -260097
1 1;
#X floatatom 238 323 6 0 0 1 - - -;
#X obj 148 323 tgl 17 0 empty empty A 5 9 1 12 -1 -260097 -260097 0
1;
#X obj 166 323 tgl 17 0 empty empty B 5 9 1 12 -1 -260097 -260097 0
1;
#X floatatom 102 323 7 0 0 2 - - -;
#X obj 220 323 tgl 17 0 empty empty BB1 2 9 1 8 -1 -260097 -260097
0 1;
#X obj 102 571 cnv 15 180 18 empty empty empty 20 12 0 14 -260097 -4034
0;
#X obj 183 571 bng 20 250 50 0 empty empty rdm 1 10 0 10 -33289 -262144
-262144;
#X obj 204 571 tgl 20 0 empty empty BB 5 10 0 10 -1 -262144 -262144
0 1;
#X floatatom 245 572 5 0 0 1 - - -;
#X obj 141 571 tgl 20 0 empty empty A 6 11 0 12 -1 -262144 -262144
0 1;
#X obj 162 571 tgl 20 0 empty empty B 6 11 0 12 -1 -262144 -262144
0 1;
#X floatatom 104 572 5 0 0 2 - - -;
#X obj 225 571 tgl 20 0 empty empty BB1 2 10 0 10 -1 -262144 -262144
0 1;
#X obj 590 248 spigot-toggle_red;
#X obj 638 248 spigot-toggle_vert;
#X obj 486 248 spigot-toggle_red;
#X obj 486 343 spigot-toggle_red;
#X obj 329 717 s soundfileB;
#X obj 386 139 s movieB;
#X obj 464 1009 s \$1-cnv;
#X obj 656 971 s \$0-cnv;
#X obj 556 467 s øSbangB;
#X obj 386 468 s TRGnB_@s B1fromselndB;
#X obj 102 282 folder;
#X obj 102 531 folder1;
#X obj 101 598 cnv 2 2 22 empty empty empty 20 12 0 14 -1 -66577 0
;
#X obj 565 109 spigot-toggle_vert;
#X obj 561 11 spigot-toggle_vert;
#X obj 559 42 * 1;
#X obj 565 137 * 1;
#X obj 562 -17 r A;
#X obj 563 74 r B;
#X obj 714 286 s trgrø@SB;
#X obj 356 329 s TRGnB_@sA1;
#X obj 363 388 s TRGnB_@sB1;
#X obj 100 100 cnv 15 180 22 empty empty Open_video 60 8 1 10 -1 -262144
0;
#X obj 119 154 cnv 15 163 16 empty empty A/V.BO 10 9 1 12 -1 -4034
0;
#X obj 119 170 cnv 15 163 16 empty empty vsmpl 10 9 1 12 -1 -4034 0
;
#X obj 119 186 cnv 15 163 16 empty empty tstfinderfolder 10 9 1 12
-1 -4034 0;
#X obj 119 202 cnv 15 163 16 empty empty axe_reboot 10 9 1 12 -1 -4034
0;
#X obj 119 218 cnv 15 163 16 empty empty ... 10 9 1 12 -1 -4034 0;
#X obj 119 234 cnv 15 163 16 empty empty ... 10 9 1 12 -1 -4034 0;
#X msg -386 253 .../*.mov;
#X msg -388 273 .../*.mov;
#X msg -391 298 .../*.mov;
#X obj 101 134 cnv 3 180 20 folder0lib_slct folder0_cnv axe_reboot/*.mov
8 9 1 14 -4034 -1 0;
#X msg -501 237 label \$1;
#X obj -500 208 symbol;
#X msg -385 172 avBO/*.mov;
#X msg -384 209 tstfinderfolder/*.mov;
#X msg -385 232 axe_reboot/*.mov;
#X obj 104 155 bng 15 250 50 0 empty empty empty 17 7 0 10 -4034 -1
-4034;
#X obj 100 119 cnv 12 180 15 empty empty FOLDER: 8 9 1 12 -1 -4034
0;
#X obj 102 266 cnv 12 180 15 empty empty INTEMS: 8 9 1 12 -1 -260097
0;
#X obj 104 171 bng 15 250 50 0 empty empty empty 17 7 0 10 -4034 -1
-4034;
#X obj 104 187 bng 15 250 50 0 empty empty empty 17 7 0 10 -4034 -1
-4034;
#X obj 104 203 bng 15 250 50 0 empty empty empty 17 7 0 10 -4034 -1
-4034;
#X obj 104 219 bng 15 250 50 0 empty empty empty 17 7 0 10 -4034 -1
-4034;
#X obj 104 235 bng 15 250 50 0 empty empty empty 17 7 0 10 -4034 -1
-4034;
#X obj 104 251 bng 15 250 50 0 empty empty empty 17 7 0 10 -4034 -1
-4034;
#X obj 119 250 cnv 15 163 16 empty empty ... 10 9 1 12 -1 -4034 0;
#X msg -383 189 vsmp/*.mov;
#X msg -505 312 nada_here;
#X obj 100 129 cnv 3 3 505 empty empty empty 20 12 0 14 -1 -66577 0
;
#X obj -390 326 s folder0;
#X obj -499 178 r folder0;
#X obj -502 261 s folder0_cnv;
#X obj 102 302 cnv 15 180 20 empty empty empty 10 9 1 12 -1 -260097
0;
#X obj 263 305 bng 15 500 500 0 empty empty clear_bank -63 6 1 12 -260097
-1 -260097;
#X obj 106 305 bng 15 500 500 0 empty empty open 18 6 1 12 -260097
-1 -260097;
#X obj 102 340 cnv 15 180 23 empty empty video'select____audio'select
15 11 1 12 -1 -262144 0;
#X obj 182 341 tgl 22 0 empty empty = 5 9 1 20 -1 -262144 -262144 1
1;
#X obj 105 427 cnv 2 3 22 empty empty empty 20 12 0 14 -1 -66577 0
;
#X obj 102 363 cnv 15 180 22 empty empty Open_audio 60 8 1 10 -1 -262144
0;
#X obj 119 404 cnv 15 163 16 empty empty A/V.BO 10 9 1 12 -1 -4034
0;
#X obj 119 420 cnv 15 163 16 empty empty vsmpl 10 9 1 12 -1 -4034 0
;
#X obj 119 436 cnv 15 163 16 empty empty tstfinderfolder 10 9 1 12
-1 -4034 0;
#X obj 119 452 cnv 15 163 16 empty empty axe_reboot 10 9 1 12 -1 -4034
0;
#X obj 119 468 cnv 15 163 16 empty empty ... 10 9 1 12 -1 -4034 0;
#X obj 119 484 cnv 15 163 16 empty empty ... 10 9 1 12 -1 -4034 0;
#X obj 102 384 cnv 15 180 20 folder1lib_slct folder1_cnv axe_reboot/*.wav
8 9 1 14 -4034 -1 0;
#X msg -374 728 label \$1;
#X obj -373 699 symbol;
#X obj 104 405 bng 15 250 50 0 empty empty empty 17 7 0 10 -4034 -1
-4034;
#X obj 104 421 bng 15 250 50 0 empty empty empty 17 7 0 10 -4034 -1
-4034;
#X obj 104 437 bng 15 250 50 0 empty empty empty 17 7 0 10 -4034 -1
-4034;
#X obj 104 453 bng 15 250 50 0 empty empty empty 17 7 0 10 -4034 -1
-4034;
#X obj 104 469 bng 15 250 50 0 empty empty empty 17 7 0 10 -4034 -1
-4034;
#X obj 104 485 bng 15 250 50 0 empty empty empty 17 7 0 10 -4034 -1
-4034;
#X obj 104 501 bng 15 250 50 0 empty empty empty 17 7 0 10 -4034 -1
-4034;
#X obj 119 500 cnv 15 163 16 empty empty ... 10 9 1 12 -1 -4034 0;
#X msg -383 859 nada_here;
#X obj 102 516 cnv 12 180 15 empty empty INTEMS: 8 9 1 12 -1 -260097
0;
#X obj 102 551 cnv 15 180 20 empty empty empty 10 9 1 12 -1 -260097
0;
#X obj 266 554 bng 15 500 500 0 empty empty clear_bank -63 6 1 12 -260097
-1 -260097;
#X obj 105 553 bng 15 500 500 0 empty empty open 18 6 1 12 -260097
-1 -260097;
#X obj -368 669 r folder1;
#X obj -375 752 s folder1_cnv;
#X obj -262 828 s folder1;
#X obj -423 1512 s folder3;
#X obj 102 589 cnv 4 180 44 empty empty empty 20 12 0 14 -1 -66577
0;
#X obj 101 101 cnv 3 3 530 empty empty empty 20 12 0 14 -1 -66577 0
;
#X obj 279 100 cnv 3 3 530 empty empty empty 20 12 0 14 -1 -66577 0
;
#X msg -257 674 avBO/*.wav;
#X msg -255 691 vsmp/*.wav;
#X msg -256 711 tstfinderfolder/*.wav;
#X msg -257 734 axe_reboot/*.wav;
#X msg -258 755 .../*.wav;
#X msg -258 774 .../*.wav;
#X msg -258 793 .../*.wav;
#X connect 1 0 91 0;
#X connect 2 0 18 1;
#X connect 4 0 90 0;
#X connect 5 0 14 0;
#X connect 5 0 17 0;
#X connect 7 0 10 1;
#X connect 7 0 17 1;
#X connect 7 0 85 1;
#X connect 8 0 9 1;
#X connect 8 0 38 1;
#X connect 8 0 14 1;
#X connect 9 0 55 0;
#X connect 10 0 33 0;
#X connect 10 0 47 0;
#X connect 11 0 86 0;
#X connect 11 0 87 0;
#X connect 12 0 16 1;
#X connect 12 0 57 1;
#X connect 12 0 87 1;
#X connect 12 0 45 1;
#X connect 13 0 15 1;
#X connect 13 0 84 1;
#X connect 13 0 86 1;
#X connect 14 0 6 0;
#X connect 15 0 55 0;
#X connect 16 0 47 0;
#X connect 17 0 6 0;
#X connect 17 0 67 0;
#X connect 18 0 19 0;
#X connect 19 0 74 0;
#X connect 20 0 22 0;
#X connect 20 0 23 0;
#X connect 21 0 69 0;
#X connect 22 0 21 0;
#X connect 23 0 20 1;
#X connect 24 0 25 1;
#X connect 25 0 26 0;
#X connect 26 0 82 0;
#X connect 27 0 31 0;
#X connect 28 0 30 0;
#X connect 28 0 34 0;
#X connect 29 0 77 0;
#X connect 30 0 28 1;
#X connect 31 0 20 0;
#X connect 32 0 28 0;
#X connect 34 0 29 0;
#X connect 35 0 94 0;
#X connect 36 0 95 0;
#X connect 37 0 79 0;
#X connect 37 0 71 0;
#X connect 38 0 40 0;
#X connect 39 0 38 0;
#X connect 41 0 5 0;
#X connect 42 0 85 0;
#X connect 42 0 98 1;
#X connect 43 0 45 0;
#X connect 43 0 97 1;
#X connect 44 0 46 0;
#X connect 44 0 103 0;
#X connect 45 0 44 0;
#X connect 47 0 82 0;
#X connect 48 0 32 0;
#X connect 49 0 11 0;
#X connect 50 0 20 0;
#X connect 51 0 28 0;
#X connect 52 0 50 0;
#X connect 53 0 51 0;
#X connect 54 0 34 1;
#X connect 55 0 74 0;
#X connect 56 0 89 0;
#X connect 57 0 40 0;
#X connect 58 0 57 0;
#X connect 58 0 84 0;
#X connect 59 0 22 1;
#X connect 60 0 61 0;
#X connect 60 0 63 0;
#X connect 60 0 94 0;
#X connect 61 0 82 0;
#X connect 63 0 62 0;
#X connect 64 0 89 0;
#X connect 65 1 4 0;
#X connect 66 1 1 0;
#X connect 67 0 92 0;
#X connect 67 0 93 0;
#X connect 69 0 18 0;
#X connect 70 0 31 1;
#X connect 71 0 59 0;
#X connect 72 0 8 0;
#X connect 72 0 104 0;
#X connect 73 0 13 0;
#X connect 73 0 105 0;
#X connect 74 0 60 0;
#X connect 75 0 50 1;
#X connect 77 0 25 0;
#X connect 78 0 32 1;
#X connect 79 0 54 0;
#X connect 80 0 7 0;
#X connect 80 0 104 0;
#X connect 81 0 12 0;
#X connect 81 0 105 0;
#X connect 82 0 63 0;
#X connect 82 0 95 0;
#X connect 83 0 51 1;
#X connect 85 0 44 0;
#X connect 86 0 6 0;
#X connect 86 0 67 0;
#X connect 87 0 6 0;
#X connect 87 0 67 0;
#X connect 94 1 64 0;
#X connect 94 1 66 0;
#X connect 94 2 2 0;
#X connect 95 1 3 0;
#X connect 95 1 65 0;
#X connect 95 1 88 0;
#X connect 95 2 24 0;
#X connect 97 0 100 0;
#X connect 98 0 99 0;
#X connect 99 0 9 0;
#X connect 99 0 10 0;
#X connect 100 0 16 0;
#X connect 100 0 15 0;
#X connect 101 0 98 0;
#X connect 102 0 97 0;
#X connect 113 0 135 0;
#X connect 114 0 135 0;
#X connect 115 0 135 0;
#X connect 117 0 137 0;
#X connect 118 0 117 0;
#X connect 119 0 135 0;
#X connect 120 0 135 0;
#X connect 121 0 135 0;
#X connect 122 0 119 0;
#X connect 125 0 132 0;
#X connect 126 0 120 0;
#X connect 127 0 121 0;
#X connect 128 0 113 0;
#X connect 129 0 114 0;
#X connect 130 0 115 0;
#X connect 132 0 135 0;
#X connect 133 0 118 0;
#X connect 136 0 118 0;
#X connect 139 0 94 2;
#X connect 140 0 35 0;
#X connect 142 0 61 1;
#X connect 152 0 168 0;
#X connect 153 0 152 0;
#X connect 154 0 174 0;
#X connect 155 0 175 0;
#X connect 156 0 176 0;
#X connect 157 0 177 0;
#X connect 158 0 178 0;
#X connect 159 0 179 0;
#X connect 160 0 180 0;
#X connect 162 0 153 0;
#X connect 165 0 95 2;
#X connect 166 0 36 0;
#X connect 167 0 153 0;
#X connect 174 0 169 0;
#X connect 175 0 169 0;
#X connect 176 0 169 0;
#X connect 177 0 169 0;
#X connect 178 0 169 0;
#X connect 179 0 169 0;
#X connect 180 0 169 0;
#X coords 0 -1 1 1 182 534 1 100 100;
