#N canvas 170 14 1510 891 12;
#N canvas 67 224 450 432 :: 0;
#X text 24 16 the format [pix_film] is able to decode depends on the
system you are running Gem.;
#X text 30 101 Win32: [pix_film] should be able to decode AVIs (all
installed codecs). If you are lucky and your version of Gem is compiled
with quicktime-support and you have quicktime installed on your machine
\, you might be able to play back quicktime MOVs.;
#X text 31 63 macOS-X: [pix_film] should be ablte to decode quicktime
MOVs.;
#X text 32 175 linux: that's a bit tricky. Since there is no "native"
video-format for linux it heavily depends on what you have installed
on your machine and how Gem has been compiled. If your system supports
it \, [pix_film] is able to use quicktime4linux/libquicktime to decode
quicktime-MOVs \, libmpeg1/libmpeg3 to decode MPEG2-videos and libaviplay
which opens a wide range of supported formats (with the possibility
to install additional codec-plugins) \, from AVI via MPEG2 to DivX
\, although i have found MPEG support rather unstable. libaviplay does
not support quicktime decoding. There is also some ruddy ffmpeg support
(apart from the one supplied by libaviplay).;
#X text 36 351 although one wouldn't believe it \, but i have found
that under linux i could play most formats...;
#X restore 437 784 pd :: FORMATS;
#X msg 653 927 label \$1;
#X floatatom 276 -317 5 0 0 0 - - -;
#X obj 364 786 outlet;
#X msg 464 981 label \$1;
#X obj 491 134 bng 15 250 50 0 empty empty empty 17 7 0 10 -262144
-1 -1;
#X obj 427 255 outlet;
#X obj 519 317 tgl 15 0 empty empty empty 17 7 0 10 -262144 -1 -1 0
1;
#X obj 522 214 tgl 15 0 empty empty empty 17 7 0 10 -262144 -1 -1 0
1;
#X obj 609 229 spigot-toggle_red;
#X obj 608 328 spigot-toggle_red;
#X obj 490 192 bng 15 250 50 0 empty empty empty 17 7 0 10 -262144
-1 -1;
#X obj 517 343 tgl 15 0 empty empty empty 17 7 0 10 -262144 -1 -1 0
1;
#X obj 516 250 tgl 15 0 empty empty empty 17 7 0 10 -262144 -1 -1 0
1;
#X obj 489 229 spigot-toggle_red;
#X obj 609 262 spigot-toggle_red;
#X obj 605 358 spigot-toggle_red;
#X obj 486 332 spigot-toggle_red;
#X obj 100 -299 random;
#X floatatom 99 -271 5 0 0 0 - - -;
#X obj 234 -12 f;
#X obj 234 58 sel;
#X obj 234 33 mod 10;
#X obj 264 -12 + 1;
#X floatatom 285 905 5 0 0 0 - - -;
#X obj 127 915 random;
#X floatatom 122 956 5 0 0 0 - - -;
#X obj 232 -59 r BB;
#X obj 108 780 f;
#X obj 149 862 sel;
#X obj 141 781 + 1;
#X obj 233 -35 spigot-toggle_red;
#X obj 110 738 spigot-toggle_red;
#X obj 555 332 spigot-toggle_red;
#X obj 125 825 mod 100;
#X obj 164 -182 openpanel;
#X obj 6 529 openpanel;
#X obj 111 -1 r lo;
#X obj 563 229 spigot-toggle_red;
#X obj 563 177 r T$;
#X obj 767 414 outlet;
#X obj 493 96 r BB;
#X obj 696 157 r trgrA;
#X obj 697 188 r trgrB;
#X floatatom 734 314 2 0 0 0 - - -;
#X obj 694 259 spigot-toggle_vert;
#X obj 764 341 outlet;
#X obj 605 404 * 100;
#X obj 111 715 r BB;
#X obj 493 163 r BB1;
#X obj 253 -35 spigot-toggle_red;
#X obj 146 738 spigot-toggle_red;
#X obj 277 -59 r BB1;
#X obj 153 713 r BB1;
#X obj 186 780 * 1;
#X obj 608 298 * 100;
#X floatatom 351 161 5 0 0 0 - - -;
#X obj 555 358 spigot-toggle_red;
#X obj 561 199 r T1;
#X obj 290 33 * 1;
#X floatatom -98 413 5 0 0 2 - - -;
#X obj -98 443 spigot-toggle_red;
#X obj 41 796 outlet;
#X obj 44 774 bng 15 250 50 0 empty empty empty 17 7 0 10 -262144 -1
-1;
#X msg 350 207 open \$1;
#X obj 376 951 splitfilename;
#X obj 585 884 splitfilename;
#X obj 479 441 bng 15 250 50 0 empty empty empty 17 7 0 10 -262144
-1 -1;
#X obj 112 314 cnv 17 156 19 empty empty °_____________% 31 13 1 14
-260097 -1 0;
#X obj 228 334 tgl 20 0 empty empty BA 3 11 1 12 -260097 -1 -1 0 1
;
#X floatatom 227 317 6 0 0 1 - - -;
#X obj 112 333 tgl 20 0 empty empty A 6 11 1 12 -260097 -1 -1 0 1;
#X obj 130 333 tgl 20 0 empty empty B 6 11 1 12 -260097 -1 -1 0 1;
#X floatatom 113 315 5 0 0 2 - - -;
#X obj 248 334 tgl 20 0 empty empty BB 3 11 1 12 -260097 -1 -1 0 1
;
#X obj 113 492 cnv 17 156 18 empty sendV1=A1 °_____________% 31 13
0 14 -260818 -1 0;
#X obj 230 508 tgl 20 0 empty sendV1=A1 BA 3 10 0 12 -260818 -261689
-1 0 1;
#X floatatom 231 490 5 0 0 1 - - -;
#X obj 115 508 tgl 20 0 empty sendV1=A1 A 6 11 0 12 -260818 -261689
-1 0 1;
#X obj 136 508 tgl 20 0 empty sendV1=A1 B 6 11 0 12 -260818 -261689
-1 0 1;
#X floatatom 116 492 5 0 0 2 - - -;
#X obj 250 508 tgl 20 0 empty sendV1=A1 BB 3 10 0 12 -260818 -261689
-1 0 1;
#X obj 562 262 spigot-toggle_red;
#X obj 695 226 spigot-toggle_vert;
#X obj 486 263 spigot-toggle_red;
#X obj 486 358 spigot-toggle_red;
#X obj 329 717 s soundfileB;
#X obj 349 237 s movieB;
#X obj 464 1009 s \$1-cnv;
#X obj 656 971 s \$0-cnv;
#X obj 556 467 s øSbangB;
#X obj 386 468 s TRGnB_@s B1fromselndB;
#X obj 102 277 folder;
#X obj 102 452 folder1;
#X obj 614 107 spigot-toggle_vert;
#X obj 619 12 spigot-toggle_vert;
#X obj 617 43 * 1;
#X obj 614 135 * 1;
#X obj 620 -16 r A;
#X obj 629 76 r B;
#X obj 759 313 s trgrø@SB;
#X obj 356 329 s TRGnB_@sA1;
#X obj 363 388 s TRGnB_@sB1;
#X msg -501 237 label \$1;
#X obj -500 208 symbol;
#X msg -505 312 nada_here;
#X obj 22 244 s folder0;
#X obj -499 178 r folder0;
#X obj -502 261 s folder0_cnv;
#X obj 102 298 cnv 15 180 20 empty empty empty 10 9 1 10 -1 -260097
0;
#X obj 255 301 bng 15 500 500 0 empty empty clear_bank -56 6 1 10 -260097
-1 -260097;
#X obj 112 301 bng 15 500 500 0 empty empty open 18 6 1 12 -260097
-1 -260097;
#X msg -374 728 label \$1;
#X obj -373 699 symbol;
#X msg -383 859 nada_here;
#X obj 102 472 cnv 15 180 20 empty empty empty 10 9 1 12 -1 -260097
0;
#X obj 252 475 bng 15 500 500 0 empty empty clear_bank -63 6 1 12 -260097
-1 -260097;
#X obj 114 475 bng 15 500 500 0 empty empty open 18 6 1 12 -260097
-1 -260097;
#X obj -368 669 r folder1;
#X obj -375 752 s folder1_cnv;
#X obj 14 423 s folder1;
#X obj -423 1512 s folder3;
#X obj 100 529 cnv 4 180 105 empty empty empty 20 12 0 14 -1 -66577
0;
#X obj 101 102 cnv 3 3 530 empty empty empty 20 12 0 14 -1 -66577 0
;
#X obj 279 100 cnv 3 3 530 empty empty empty 20 12 0 14 -1 -66577 0
;
#X floatatom 42 299 5 0 0 2 - - -;
#X obj 101 225 cnv 2 180 20 empty empty empty 0 14 1 14 -260097 -1
0;
#X symbolatom 104 229 25 0 0 0 - - -;
#X obj 100 101 cnv 15 182 122 empty empty ---Open_video 0 99 1 10 -1
-260097 0;
#X obj 100 213 cnv 12 180 15 empty empty FOLDER: 1 9 1 8 -1 -260097
0;
#X obj 102 246 cnv 12 180 30 empty empty INTEMS: 1 24 1 8 -1 -260097
0;
#X obj 149 317 tgl 37 0 empty empty V 9 20 1 33 -1 -260097 -260097
0 1;
#X obj 207 334 bng 20 250 50 0 empty empty random -16 -9 1 10 -260097
-1 -1;
#X obj 103 319 cnv 10 10 35 empty empty empty 60 22 1 10 -1 -262144
0;
#X obj 269 318 cnv 10 10 37 empty empty empty 60 22 1 10 -1 -262144
0;
#X obj 187 334 tgl 20 0 empty empty BB 3 9 1 9 -1 -1 -1 0 1;
#X floatatom -110 117 5 0 0 0 - - -;
#X msg -115 146 color \$1 33;
#X obj -93 47 sel;
#X msg -105 80 44;
#X obj -111 -4 r lo;
#X obj -93 204 s sendV1=A1;
#X obj -843 427 s save_sNd_A;
#X obj -695 443 s save_sNd_B;
#X obj -559 442 s save_sNd_BB;
#X obj -420 442 s save_sNd_BB1;
#X obj -422 403 r send_save_sNd_BB1;
#X obj -560 403 r send_save_sNd_BB;
#X obj -694 403 r send_save_sNd_B;
#X obj -842 387 r send_save_sNd_A;
#X obj -685 610 s save_sNd_B;
#X obj -822 598 s save_sNd_BB;
#X obj -411 611 s save_sNd_BB1;
#X obj -413 576 r send_save_sNd_BB1;
#X obj -823 563 r send_save_sNd_BB;
#X obj -686 576 r send_save_sNd_B;
#X obj -280 403 r send_save_every;
#X obj -278 443 s save_sNd_every;
#X obj -274 576 r send_save_every;
#X obj -272 611 s save_every;
#X obj 100 401 cnv 3 180 20 empty empty empty 0 14 1 14 -260097 -1
0;
#X symbolatom 103 402 25 0 0 0 - - -;
#X obj 102 354 cnv 15 180 33 empty empty ---Open_audio 0 22 1 10 -1
-260097 0;
#X obj 102 386 cnv 12 180 15 empty empty FOLDER: 1 9 1 8 -1 -260097
0;
#X obj 209 509 bng 20 250 50 0 empty sendV1=A1 random -16 -9 1 10 -260818
-261689 -1;
#X obj 154 493 cnv 10 37 35 empty empty empty 60 22 1 10 -1 -262144
0;
#X obj 188 508 tgl 20 0 empty empty BB 3 9 1 9 -1 -1 -1 0 1;
#X msg -64 79 22;
#X obj 104 493 cnv 10 10 35 empty empty empty 60 22 1 10 -1 -262144
0;
#X obj 269 492 cnv 10 10 37 empty empty empty 60 22 1 10 -1 -262144
0;
#X obj 102 421 cnv 12 180 30 empty empty INTEMS: 1 24 1 8 -1 -260097
0;
#X obj 100 228 cnv 3 3 408 empty empty empty 20 12 0 14 -1 -66577 0
;
#X connect 1 0 89 0;
#X connect 2 0 18 1;
#X connect 4 0 88 0;
#X connect 5 0 14 0;
#X connect 5 0 17 0;
#X connect 7 0 10 1;
#X connect 7 0 17 1;
#X connect 7 0 83 1;
#X connect 8 0 9 1;
#X connect 8 0 38 1;
#X connect 8 0 14 1;
#X connect 8 0 83 1;
#X connect 9 0 55 0;
#X connect 10 0 47 0;
#X connect 11 0 84 0;
#X connect 11 0 85 0;
#X connect 12 0 16 1;
#X connect 12 0 57 1;
#X connect 12 0 85 1;
#X connect 12 0 45 1;
#X connect 13 0 15 1;
#X connect 13 0 82 1;
#X connect 13 0 84 1;
#X connect 13 0 45 1;
#X connect 14 0 6 0;
#X connect 15 0 55 0;
#X connect 16 0 47 0;
#X connect 17 0 6 0;
#X connect 17 0 67 0;
#X connect 18 0 19 0;
#X connect 19 0 73 0;
#X connect 20 0 22 0;
#X connect 20 0 23 0;
#X connect 21 0 132 0;
#X connect 22 0 21 0;
#X connect 23 0 20 1;
#X connect 24 0 25 1;
#X connect 25 0 26 0;
#X connect 26 0 80 0;
#X connect 27 0 31 0;
#X connect 28 0 30 0;
#X connect 28 0 34 0;
#X connect 29 0 164 0;
#X connect 30 0 28 1;
#X connect 31 0 20 0;
#X connect 32 0 28 0;
#X connect 33 0 40 0;
#X connect 34 0 29 0;
#X connect 35 0 92 0;
#X connect 36 0 93 0;
#X connect 37 0 77 0;
#X connect 37 0 70 0;
#X connect 38 0 40 0;
#X connect 39 0 38 0;
#X connect 41 0 5 0;
#X connect 42 0 83 0;
#X connect 42 0 95 1;
#X connect 43 0 45 0;
#X connect 43 0 94 1;
#X connect 44 0 46 0;
#X connect 44 0 100 0;
#X connect 45 0 44 0;
#X connect 47 0 80 0;
#X connect 48 0 32 0;
#X connect 49 0 11 0;
#X connect 50 0 20 0;
#X connect 51 0 28 0;
#X connect 52 0 50 0;
#X connect 53 0 51 0;
#X connect 54 0 34 1;
#X connect 55 0 73 0;
#X connect 56 0 87 0;
#X connect 57 0 40 0;
#X connect 58 0 57 0;
#X connect 58 0 82 0;
#X connect 59 0 22 1;
#X connect 60 0 61 0;
#X connect 60 0 63 0;
#X connect 60 0 92 0;
#X connect 61 0 80 0;
#X connect 63 0 62 0;
#X connect 64 0 87 0;
#X connect 65 1 4 0;
#X connect 66 1 1 0;
#X connect 67 0 90 0;
#X connect 67 0 91 0;
#X connect 69 0 31 1;
#X connect 70 0 59 0;
#X connect 71 0 8 0;
#X connect 71 0 101 0;
#X connect 72 0 13 0;
#X connect 72 0 102 0;
#X connect 73 0 60 0;
#X connect 74 0 50 1;
#X connect 76 0 32 1;
#X connect 76 0 101 0;
#X connect 77 0 54 0;
#X connect 78 0 7 0;
#X connect 78 0 101 0;
#X connect 79 0 12 0;
#X connect 79 0 102 0;
#X connect 80 0 63 0;
#X connect 80 0 93 0;
#X connect 81 0 51 1;
#X connect 81 0 102 0;
#X connect 82 0 40 0;
#X connect 83 0 44 0;
#X connect 84 0 6 0;
#X connect 84 0 67 0;
#X connect 85 0 6 0;
#X connect 85 0 67 0;
#X connect 92 0 125 0;
#X connect 92 1 64 0;
#X connect 92 1 66 0;
#X connect 92 2 2 0;
#X connect 93 1 3 0;
#X connect 93 1 65 0;
#X connect 93 1 86 0;
#X connect 93 2 24 0;
#X connect 94 0 97 0;
#X connect 95 0 96 0;
#X connect 96 0 9 0;
#X connect 96 0 10 0;
#X connect 97 0 16 0;
#X connect 97 0 15 0;
#X connect 98 0 95 0;
#X connect 99 0 94 0;
#X connect 103 0 108 0;
#X connect 104 0 103 0;
#X connect 105 0 104 0;
#X connect 107 0 104 0;
#X connect 110 0 92 2;
#X connect 111 0 35 0;
#X connect 112 0 119 0;
#X connect 113 0 112 0;
#X connect 114 0 113 0;
#X connect 116 0 93 2;
#X connect 117 0 36 0;
#X connect 118 0 113 0;
#X connect 125 0 73 0;
#X connect 127 0 106 0;
#X connect 131 0 61 1;
#X connect 131 0 138 0;
#X connect 132 0 18 0;
#X connect 136 0 137 0;
#X connect 137 0 141 0;
#X connect 138 0 139 0;
#X connect 138 1 167 0;
#X connect 139 0 136 0;
#X connect 140 0 139 0;
#X connect 161 0 120 0;
#X connect 164 0 25 0;
#X connect 167 0 136 0;
#X coords 0 -1 1 1 182 534 1 100 100;
