#N canvas 2779 51 1155 729 12;
#X obj 34 -160 *~;
#X floatatom 239 -234 5 0 0 2 modulator_Freq - -;
#X obj 304 181 inlet~;
#X obj 320 300 tabwrite~ \$0-scope;
#X obj 323 84 cnv 5 5 5 empty empty OSCILLOSCOPE 0 0 0 12 -262144 -66577
0;
#X obj 305 79 cnv 5 5 5 empty empty IN 0 0 0 8 -262144 -1 0;
#N canvas 0 22 450 278 (subpatch) 0;
#X array \$0-scope 512 float 0;
#X coords 0 1 511 -1 100 60 1 0 0;
#X restore 307 104 graph;
#X obj 349 181 loadbang;
#X obj 349 249 metro 200;
#X msg 349 203 1;
#X floatatom 78 -158 5 0 0 2 Mod_index - -;
#X floatatom 52 -55 5 0 0 2 carrier - -;
#X floatatom 277 413 5 0 0 2 ModAmp - -;
#X obj 1193 608 tgl 15 0 empty empty empty 17 7 0 10 -262144 -1 -1
0 1;
#X obj 81 -193 r ndx;
#X obj 17 241 r amp;
#X obj 53 -97 r freq;
#X obj 1232 572 metro 300;
#X obj 819 626 tgl 15 0 empty empty empty 17 7 0 10 -262144 -1 -1 0
1;
#X obj 1311 891 s amp;
#X obj 37 -191 osc~;
#X obj 235 -266 r Fmod;
#X obj 258 236 r amp;
#X obj 1069 586 tgl 15 0 empty empty empty 17 7 0 10 -262144 -1 -1
0 1;
#X obj 1040 600 metro 2200;
#X obj 1046 752 line;
#X obj 1040 727 pack f f;
#X floatatom 1113 642 5 0 0 0 - - -;
#X floatatom 1088 804 5 0 0 0 - - -;
#X obj 941 890 s Fmod;
#X obj 1108 704 t b f;
#X obj 1114 726 * 1;
#X floatatom 1133 679 5 0 0 0 - - -;
#X obj 1097 676 * 1;
#X obj 1230 735 line;
#X obj 1224 710 pack f f;
#X floatatom 1297 625 5 0 0 0 - - -;
#X obj 1292 687 t b f;
#X obj 1298 709 * 1;
#X floatatom 1317 662 5 0 0 0 - - -;
#X obj 1281 659 * 1;
#X obj 703 599 tgl 15 0 empty empty empty 17 7 0 10 -262144 -1 -1 0
1;
#X obj 696 627 metro 300;
#X obj 694 790 line;
#X obj 688 765 pack f f;
#X floatatom 768 660 5 0 0 0 - - -;
#X obj 756 742 t b f;
#X obj 762 764 * 1;
#X floatatom 781 717 5 0 0 0 - - -;
#X obj 745 714 * 1;
#X obj 687 860 s freq;
#X obj 1093 891 s ndx;
#X obj 900 592 tgl 15 0 empty empty empty 17 7 0 10 -262144 -1 -1 0
1;
#X obj 898 612 metro 2200;
#X obj 904 764 line;
#X obj 898 739 pack f f;
#X floatatom 971 654 5 0 0 0 - - -;
#X obj 966 716 t b f;
#X obj 972 738 * 1;
#X floatatom 991 689 5 0 0 0 - - -;
#X obj 955 688 * 1;
#X obj 277 435 line~;
#X obj 191 487 *~;
#X obj 1084 862 * 1;
#X obj 902 653 random 3;
#X obj 695 812 + 0;
#X obj 691 679 random 5;
#X obj 1043 640 random 3;
#X obj 1082 838 + 4;
#X obj 948 817 + 1;
#X obj 367 463 -~ 0.5;
#X obj 160 534 *~ 1;
#X obj 389 528 *~ 0.1;
#X obj 731 -100 openpanel;
#X obj 731 -126 bng 15 250 50 0 empty empty empty 17 7 0 10 -262144
-1 -1;
#X obj 731 -43 soundfiler;
#X msg 731 -70 read -resize \$1 array1;
#X obj 717 55 random;
#X obj 697 232 tabread4~ array1;
#X obj 729 150 phasor~;
#X obj 755 89 /;
#X obj 731 -8 t b f f;
#X text 834 29 samplerate;
#X obj 626 -7 metro 10;
#X obj 626 -43 t b f;
#X obj 568 -102 hsl 128 15 1000 1 0 1 empty empty grain -2 -8 0 10
-262144 -1 -1 1200 1;
#X obj 635 34 tgl 15 0 empty empty empty 17 7 0 10 -262144 -1 -1 0
1;
#X obj 602 72 spigot;
#X text 586 33 More ??;
#X obj 635 106 sel 0;
#X obj 718 30 bng 15 250 50 0 empty empty empty 17 7 0 10 -262144 -1
-1;
#X obj 730 180 *~;
#X floatatom 764 120 5 0 0 0 - - -;
#X floatatom 58 -220 5 0 0 0 - - -;
#X floatatom 827 153 5 0 0 0 - - -;
#X msg 785 29 88200;
#X floatatom 573 263 5 0 0 0 - - -;
#X obj 572 197 bng 15 250 50 0 empty empty empty 17 7 0 10 -262144
-1 -1;
#X obj 575 218 snapshot~;
#X floatatom 898 205 12 0 0 0 - - -;
#X obj 898 179 snapshot~;
#X obj 898 158 bng 15 250 50 0 empty empty empty 17 7 0 10 -262144
-1 -1;
#X floatatom 875 256 19 0 0 0 - - -;
#X obj 564 153 *~;
#X floatatom 564 116 5 0 0 0 - - -;
#X obj 635 153 * 10;
#X floatatom 31 -247 5 0 0 2 ModAmp - -;
#X floatatom 265 -98 5 0 0 0 - - -;
#X obj 262 -164 bng 15 250 50 0 empty empty empty 17 7 0 10 -262144
-1 -1;
#X obj 265 -143 snapshot~;
#X floatatom 176 -98 5 0 0 0 - - -;
#X obj 173 -164 bng 15 250 50 0 empty empty empty 17 7 0 10 -262144
-1 -1;
#X obj 176 -143 snapshot~;
#X floatatom 819 -9 22 0 0 0 - - -;
#X obj 532 19 /;
#X floatatom 464 -26 22 0 0 0 - - -;
#X obj 117 254 *~;
#X floatatom 156 265 5 0 0 2 Mod_index - -;
#X obj 254 184 r ndx;
#X obj 117 229 osc~;
#X floatatom 144 203 5 0 0 0 - - -;
#X floatatom 118 179 5 0 0 2 ModAmp - -;
#X obj 674 207 +~;
#X obj 615 179 +~ 0;
#X obj 33 -136 +~ 120;
#X obj 431 79 hsl 128 15 0 100 0 1 empty empty lfo -2 -8 0 10 -262144
-1 -1 10300 1;
#X obj 411 -97 hsl 128 15 0 100 0 1 empty empty raw -2 -8 0 10 -262144
-1 -1 8200 1;
#X obj 84 119 *~;
#X floatatom 137 124 5 0 0 2 Mod_index - -;
#X obj 140 89 r ndx;
#X obj 85 94 osc~;
#X floatatom 117 62 5 0 0 0 - - -;
#X floatatom 90 35 5 0 0 2 ModAmp - -;
#X floatatom -49 36 5 0 0 2 Mod_index - -;
#X obj -46 1 r ndx;
#X obj -90 3 osc~;
#X floatatom -69 -26 5 0 0 0 - - -;
#X floatatom -96 -53 5 0 0 2 Mainamp - -;
#X floatatom 225 431 5 0 0 0 phase - -;
#X floatatom -18 544 12 0 0 0 - - -;
#X obj -18 499 snapshot~;
#X obj 6 471 bng 15 250 50 0 empty empty empty 17 7 0 10 -262144 -1
-1;
#X obj 453 298 tabwrite~ \$1-scope;
#N canvas 0 22 450 278 (subpatch) 0;
#X array \$1-scope 512 float 0;
#X coords 0 1 511 -1 100 60 1 0 0;
#X restore 448 191 graph;
#X msg 556 4 88200;
#X floatatom 117 -64 5 0 0 0 - - -;
#X floatatom 246 279 5 0 0 0 - - -;
#X floatatom -197 138 12 0 0 0 - - -;
#X obj -197 93 snapshot~;
#X obj -173 65 bng 15 250 50 0 empty empty empty 17 7 0 10 -262144
-1 -1;
#X obj -93 34 *~;
#X obj 210 35 *~;
#X floatatom 254 37 5 0 0 2 Mod_index - -;
#X obj 257 2 r ndx;
#X obj 213 4 osc~;
#X floatatom 234 -25 5 0 0 0 - - -;
#X floatatom 207 -52 5 0 0 2 ModAmp - -;
#X obj 692 705 + 100;
#X obj 903 680 + 100;
#X obj 1044 667 + 1;
#X obj 11 281 sig~;
#X obj 1207 650 + 0;
#X obj 210 131 * 1;
#X obj 205 66 +~ 0;
#X obj 295 509 /~ 1000;
#X obj 35 35 * 1;
#X obj 1212 625 random 2;
#X obj 1231 756 + 0;
#X obj 279 380 * 1;
#X obj 822 755 tgl 15 0 empty empty empty 17 7 0 10 -262144 -1 -1 0
1;
#X obj 815 783 metro 300;
#X obj 813 946 line;
#X obj 807 921 pack f f;
#X floatatom 887 816 5 0 0 0 - - -;
#X obj 875 898 t b f;
#X obj 881 920 * 1;
#X floatatom 900 873 5 0 0 0 - - -;
#X obj 864 870 * 1;
#X obj 816 1029 s phase;
#X obj -59 290 sig~;
#X obj -53 250 r phase;
#X obj 810 835 random 100;
#X obj 188 461 +~;
#X obj 815 968 * 0.01;
#X obj 810 861 + 0;
#X obj 816 987 * 4;
#X obj 815 1010 - 2;
#X obj 64 679 vsl 15 90 10 1000 0 0 empty empty A 2 -12 0 18 -262144
-1 -1 0 1;
#X obj 84 679 vsl 15 90 10 1000 0 0 empty empty D 2 -12 0 18 -262144
-1 -1 0 1;
#X obj 104 679 vsl 15 90 0.4 1 0 0 empty empty S 2 -12 0 18 -262144
-1 -1 0 1;
#X obj 144 679 vsl 15 90 10 1000 0 0 empty empty R 2 -12 0 18 -262144
-1 -1 0 1;
#X obj 390 732 inlet TrigIN;
#X obj 291 732 inlet~ AudioIN;
#X obj 291 844 *~, f 7;
#X obj 291 863 outlet~ AudioOUT;
#X obj 330 826 line~;
#X obj 179 714 bng 27 250 50 0 empty empty Test 2 -7 0 9 -262144 -1
-1;
#X obj 390 808 pack f f;
#X obj 390 790 f;
#X obj 390 772 delay;
#X obj 450 808 pack f f;
#X obj 450 790 f;
#X obj 450 772 delay;
#X obj 124 679 vsl 15 90 10 1000 0 0 empty empty St 2 -12 0 12 -262144
-1 -1 0 1;
#X floatatom 64 775 5 0 0 0 - - -;
#X floatatom 84 795 5 0 0 0 - - -;
#X floatatom 104 815 5 0 0 0 - - -;
#X floatatom 124 834 5 0 0 0 - - -;
#X floatatom 144 851 5 0 0 0 - - -;
#X obj 510 772 delay;
#X obj 510 808 pack 0 f;
#X obj 330 808 pack 1 f;
#X obj 64 839 bng 27 250 50 0 empty empty Trig 2 -7 0 9 -262144 -1
-1;
#X text 281 637 A = Attack time, f 29;
#X text 281 650 D = Decay time, f 29;
#X text 281 663 S = Sustain Value, f 29;
#X text 281 689 R = Release time, f 29;
#X text 281 676 St = Sustain time, f 29;
#X text 20 889 The Muselectron Studio V1.0 \, December 2020 Developed
by Maurizio Di Berardino www.muselectron.it, f 42;
#X obj 84 144 +~ 0;
#X obj 440 434 *~;
#X floatatom 472 483 5 0 0 2 Mod_index - -;
#X obj 362 412 osc~;
#X floatatom 373 373 5 0 0 0 - - -;
#X floatatom 500 402 5 0 0 2 ModAmp - -;
#X obj -31 337 *~;
#X obj 74 464 osc~;
#X obj 109 393 *~;
#X floatatom 149 393 5 0 0 2 Mod_index - -;
#X obj 110 368 osc~;
#X floatatom 137 342 5 0 0 0 - - -;
#X floatatom 111 318 5 0 0 2 ModAmp - -;
#X obj -14 178 *~;
#X floatatom 25 189 5 0 0 2 Mod_index - -;
#X obj -14 153 osc~;
#X floatatom 13 127 5 0 0 0 - - -;
#X floatatom -13 103 5 0 0 2 ModAmp - -;
#X floatatom 446 -205 5 0 0 0 - - -;
#X floatatom 517 -201 5 0 0 0 - - -;
#X obj 418 -254 ctlin 21;
#X floatatom 369 -224 5 0 0 0 - - -;
#X obj 364 -251 ctlin 17;
#X floatatom 651 -201 5 0 0 0 - - -;
#X floatatom 573 -220 5 0 0 0 - - -;
#X floatatom 609 -210 5 0 0 0 - - -;
#X obj 569 -247 ctlin 18;
#X obj 623 -250 ctlin 22;
#X obj 77 535 s~ ext1;
#X obj 697 262 dsssac~;
#X obj 574 -199 * 0.1;
#X obj 66 223 +~;
#X obj 354 -142 * 3;
#X obj 106 -14 * 200;
#X floatatom 357 -77 5 0 0 0 - - -;
#X obj 355 -42 t b f;
#X obj 657 -173 * 0.01;
#X obj 439 -184 * 0.01;
#X obj 367 -202 * 11;
#X obj 68 402 *~;
#X obj 114 416 +~;
#X floatatom 155 418 5 0 0 0 - - -;
#X obj 381 -166 * 0.01;
#X connect 0 0 124 0;
#X connect 2 0 3 0;
#X connect 7 0 9 0;
#X connect 8 0 3 0;
#X connect 9 0 8 0;
#X connect 10 0 0 1;
#X connect 11 0 165 0;
#X connect 11 0 145 0;
#X connect 12 0 61 0;
#X connect 13 0 17 0;
#X connect 14 0 10 0;
#X connect 15 0 160 0;
#X connect 16 0 11 0;
#X connect 17 0 166 0;
#X connect 18 0 23 0;
#X connect 18 0 13 0;
#X connect 18 0 41 0;
#X connect 18 0 52 0;
#X connect 20 0 0 0;
#X connect 21 0 1 0;
#X connect 23 0 24 0;
#X connect 24 0 67 0;
#X connect 25 0 28 0;
#X connect 26 0 25 0;
#X connect 27 0 24 1;
#X connect 27 0 33 0;
#X connect 28 0 68 0;
#X connect 30 0 31 0;
#X connect 30 1 31 1;
#X connect 31 0 26 1;
#X connect 32 0 30 0;
#X connect 33 0 31 0;
#X connect 34 0 167 0;
#X connect 35 0 34 0;
#X connect 36 0 40 0;
#X connect 36 0 17 1;
#X connect 37 0 38 0;
#X connect 37 1 38 1;
#X connect 38 0 35 1;
#X connect 39 0 37 0;
#X connect 40 0 38 0;
#X connect 41 0 42 0;
#X connect 42 0 66 0;
#X connect 43 0 65 0;
#X connect 44 0 43 0;
#X connect 45 0 49 0;
#X connect 45 0 42 1;
#X connect 46 0 47 0;
#X connect 46 1 47 1;
#X connect 47 0 44 1;
#X connect 48 0 46 0;
#X connect 49 0 47 0;
#X connect 52 0 53 0;
#X connect 53 0 64 0;
#X connect 54 0 69 0;
#X connect 55 0 54 0;
#X connect 56 0 53 1;
#X connect 56 0 60 0;
#X connect 57 0 58 0;
#X connect 57 1 58 1;
#X connect 58 0 55 1;
#X connect 59 0 57 0;
#X connect 60 0 58 0;
#X connect 61 0 62 1;
#X connect 62 0 164 0;
#X connect 62 0 3 0;
#X connect 62 0 247 0;
#X connect 63 0 51 0;
#X connect 64 0 158 0;
#X connect 65 0 50 0;
#X connect 66 0 157 0;
#X connect 67 0 159 0;
#X connect 68 0 63 0;
#X connect 69 0 29 0;
#X connect 70 0 72 0;
#X connect 72 0 71 0;
#X connect 72 0 247 0;
#X connect 73 0 76 0;
#X connect 74 0 73 0;
#X connect 75 0 81 0;
#X connect 75 0 102 0;
#X connect 75 0 115 0;
#X connect 76 0 75 0;
#X connect 77 0 91 1;
#X connect 77 0 87 0;
#X connect 77 0 122 1;
#X connect 78 0 248 0;
#X connect 78 0 248 1;
#X connect 79 0 91 0;
#X connect 80 0 79 0;
#X connect 80 0 92 0;
#X connect 81 0 95 0;
#X connect 81 1 77 1;
#X connect 81 2 80 1;
#X connect 81 2 113 0;
#X connect 84 0 83 0;
#X connect 84 1 83 1;
#X connect 85 0 84 0;
#X connect 86 0 87 1;
#X connect 86 0 89 0;
#X connect 87 0 80 0;
#X connect 89 0 95 0;
#X connect 90 0 77 0;
#X connect 91 0 100 0;
#X connect 92 0 105 0;
#X connect 93 0 20 1;
#X connect 94 0 79 1;
#X connect 95 0 80 0;
#X connect 97 0 98 0;
#X connect 98 0 96 0;
#X connect 100 0 99 0;
#X connect 101 0 100 0;
#X connect 103 0 98 0;
#X connect 103 0 123 0;
#X connect 104 0 103 1;
#X connect 106 0 20 0;
#X connect 108 0 109 0;
#X connect 109 0 107 0;
#X connect 111 0 112 0;
#X connect 112 0 110 0;
#X connect 113 0 104 0;
#X connect 114 0 104 0;
#X connect 115 0 114 0;
#X connect 117 0 116 1;
#X connect 119 0 116 0;
#X connect 120 0 119 1;
#X connect 121 0 119 0;
#X connect 122 0 78 0;
#X connect 122 0 142 0;
#X connect 123 0 122 0;
#X connect 127 0 219 0;
#X connect 128 0 127 1;
#X connect 130 0 127 0;
#X connect 131 0 130 1;
#X connect 132 0 130 0;
#X connect 133 0 150 1;
#X connect 134 0 133 0;
#X connect 135 0 148 0;
#X connect 135 0 150 0;
#X connect 136 0 135 1;
#X connect 137 0 135 0;
#X connect 138 0 182 1;
#X connect 140 0 139 0;
#X connect 141 0 140 0;
#X connect 144 0 114 1;
#X connect 145 0 252 0;
#X connect 148 0 147 0;
#X connect 149 0 148 0;
#X connect 150 0 232 1;
#X connect 151 0 163 0;
#X connect 152 0 151 1;
#X connect 153 0 152 0;
#X connect 154 0 151 0;
#X connect 155 0 154 1;
#X connect 156 0 154 0;
#X connect 157 0 44 0;
#X connect 158 0 55 0;
#X connect 159 0 26 0;
#X connect 161 0 35 0;
#X connect 164 0 103 0;
#X connect 165 0 250 0;
#X connect 166 0 161 0;
#X connect 167 0 19 0;
#X connect 168 0 12 0;
#X connect 169 0 170 0;
#X connect 170 0 181 0;
#X connect 171 0 183 0;
#X connect 172 0 171 0;
#X connect 173 0 177 0;
#X connect 173 0 170 1;
#X connect 174 0 175 0;
#X connect 174 1 175 1;
#X connect 175 0 172 1;
#X connect 176 0 174 0;
#X connect 177 0 175 0;
#X connect 180 0 179 0;
#X connect 181 0 184 0;
#X connect 182 0 62 0;
#X connect 183 0 185 0;
#X connect 184 0 172 0;
#X connect 185 0 186 0;
#X connect 186 0 178 0;
#X connect 187 0 199 1;
#X connect 187 0 211 1;
#X connect 187 0 204 0;
#X connect 188 0 197 1;
#X connect 188 0 202 1;
#X connect 188 0 205 0;
#X connect 189 0 198 1;
#X connect 189 0 201 1;
#X connect 189 0 206 0;
#X connect 190 0 210 1;
#X connect 190 0 208 0;
#X connect 191 0 199 0;
#X connect 191 0 211 0;
#X connect 191 0 212 0;
#X connect 192 0 193 0;
#X connect 193 0 194 0;
#X connect 195 0 193 1;
#X connect 196 0 199 0;
#X connect 196 0 211 0;
#X connect 197 0 195 0;
#X connect 198 0 197 0;
#X connect 199 0 198 0;
#X connect 199 0 202 0;
#X connect 200 0 195 0;
#X connect 201 0 200 0;
#X connect 202 0 201 0;
#X connect 202 0 209 0;
#X connect 203 0 200 1;
#X connect 203 0 209 1;
#X connect 203 0 207 0;
#X connect 209 0 210 0;
#X connect 210 0 195 0;
#X connect 211 0 195 0;
#X connect 219 0 250 1;
#X connect 221 0 220 1;
#X connect 222 0 220 0;
#X connect 223 0 222 1;
#X connect 224 0 222 0;
#X connect 227 0 259 0;
#X connect 228 0 227 1;
#X connect 229 0 227 0;
#X connect 230 0 229 1;
#X connect 231 0 229 0;
#X connect 233 0 232 1;
#X connect 234 0 232 0;
#X connect 235 0 234 1;
#X connect 236 0 234 0;
#X connect 237 0 256 0;
#X connect 239 0 237 0;
#X connect 239 1 238 0;
#X connect 240 0 257 0;
#X connect 240 0 261 0;
#X connect 241 0 240 0;
#X connect 242 0 255 0;
#X connect 243 0 249 0;
#X connect 245 0 243 0;
#X connect 245 1 244 0;
#X connect 246 0 242 0;
#X connect 249 0 231 0;
#X connect 250 0 258 0;
#X connect 252 0 240 0;
#X connect 253 0 254 0;
#X connect 254 0 251 0;
#X connect 254 1 251 1;
#X connect 255 0 228 0;
#X connect 256 0 128 0;
#X connect 257 0 251 0;
#X connect 258 0 140 0;
#X connect 258 0 226 0;
#X connect 258 0 182 0;
#X connect 259 0 258 1;
#X connect 260 0 259 1;
#X connect 261 0 132 0;
