#N canvas 364 47 889 793 12;
#X obj 82 462 line~;
#X msg 81 418 \$1 \, \$2 \$3;
#X floatatom 98 137 10 0 0 0 - - -;
#X obj 98 159 t f f;
#X obj 93 370 pack f f f;
#X text 166 135 start point in samples;
#X obj 127 342 +;
#X floatatom 187 206 5 0 0 0 - - -;
#X text 230 206 grain dur ms;
#X obj 185 268 * 44.1;
#X obj 359 198 loadbang;
#X obj 359 222 samplerate~;
#X obj 359 246 / 1000;
#X obj 187 167 r grain_dur;
#X obj 104 53 inlet;
#X obj 80 611 outlet~;
#X text 188 37 comment;
#X obj 101 89 t f b, f 66;
#X obj 569 158 t b b;
#X obj 569 182 del 50;
#X msg 618 205 1;
#X msg 569 206 0;
#X obj 560 424 line~;
#X obj 78 560 *~, f 69;
#X obj 629 112 r grain_dur;
#X obj 629 136 - 50;
#X obj 566 263 pack f 50;
#X obj 206 294 r grain_transpose;
#X obj 206 354 t b f;
#X obj 200 379 / 1;
#X obj 187 594 line;
#X obj 418 163 bng 15 250 50 0 empty empty empty 17 7 0 10 -262144
-1 -1;
#X obj 405 162 bng 15 250 50 0 empty empty empty 17 7 0 10 -262144
-1 -1;
#X floatatom 162 409 12 0 0 0 - - -;
#X floatatom 165 432 5 0 0 0 - - -;
#X floatatom 281 407 12 0 0 0 - - -;
#X obj 81 521 tabread4~ table23;
#X obj 191 619 s tstlinegr;
#X obj 9 501 +~;
#X obj 633 48 r lo;
#X obj 323 386 bng 15 250 50 0 empty empty empty 17 7 0 10 -262144
-1 -1;
#X obj 668 281 r opaENVA;
#X obj -7 440 r~ modstograin;
#X connect 0 0 38 0;
#X connect 1 0 0 0;
#X connect 1 0 30 0;
#X connect 2 0 3 0;
#X connect 3 0 4 0;
#X connect 3 0 33 0;
#X connect 3 1 6 0;
#X connect 4 0 1 0;
#X connect 6 0 4 1;
#X connect 6 0 35 0;
#X connect 7 0 29 0;
#X connect 7 0 9 0;
#X connect 9 0 6 1;
#X connect 10 0 11 0;
#X connect 11 0 12 0;
#X connect 12 0 9 1;
#X connect 13 0 7 0;
#X connect 14 0 17 0;
#X connect 17 0 2 0;
#X connect 17 1 18 0;
#X connect 18 0 19 0;
#X connect 18 1 20 0;
#X connect 19 0 21 0;
#X connect 20 0 26 0;
#X connect 21 0 26 0;
#X connect 22 0 23 1;
#X connect 23 0 15 0;
#X connect 24 0 25 0;
#X connect 25 0 19 1;
#X connect 26 0 22 0;
#X connect 27 0 28 0;
#X connect 28 0 29 0;
#X connect 28 1 29 1;
#X connect 29 0 4 2;
#X connect 30 0 37 0;
#X connect 32 0 11 0;
#X connect 36 0 23 0;
#X connect 38 0 36 0;
#X connect 42 0 38 1;
