#N canvas 295 157 650 763 12;
#X obj -16721 -492 f;
#X obj -16663 -492 f;
#X obj -16606 -492 f;
#X obj -16548 -492 f;
#X obj -16452 -492 f;
#X obj -16343 -492 f;
#X obj -16285 -492 f;
#X obj -16186 -492 f;
#X obj -16117 -492 f;
#X obj -16050 -492 f;
#X obj -15992 -492 f;
#X obj -15870 -492 f;
#X obj -15800 -492 f;
#X obj -15736 -492 f;
#X obj -15669 -492 f;
#X obj -16710 -516 nbx 5 14 -1e+37 1e+37 0 0 empty empty empty 0 -8
0 10 -262144 -1 -1 12 256;
#X obj -16652 -516 nbx 5 14 -1e+37 1e+37 0 0 empty empty empty 0 -8
0 10 -262144 -1 -1 1 256;
#X obj -16595 -516 nbx 5 14 -1e+37 1e+37 0 0 empty empty empty 0 -8
0 10 -262144 -1 -1 1 256;
#X obj -16537 -516 nbx 5 14 -1e+37 1e+37 0 0 empty empty empty 0 -8
0 10 -262144 -1 -1 1 256;
#X obj -16443 -516 nbx 5 14 -1e+37 1e+37 0 0 empty empty empty 0 -8
0 10 -262144 -1 -1 1 256;
#X obj -16265 -516 nbx 5 14 -1e+37 1e+37 0 0 empty empty empty 0 -8
0 10 -262144 -1 -1 1 256;
#X obj -16172 -516 nbx 5 14 -1e+37 1e+37 0 0 empty empty empty 0 -8
0 10 -262144 -1 -1 1 256;
#X obj -16102 -516 nbx 5 14 -1e+37 1e+37 0 0 empty empty empty 0 -8
0 10 -262144 -1 -1 1 256;
#X obj -16033 -516 nbx 5 14 -1e+37 1e+37 0 0 empty empty empty 0 -8
0 10 -262144 -1 -1 1 256;
#X obj -15973 -516 nbx 5 14 -1e+37 1e+37 0 0 empty empty empty 0 -8
0 10 -262144 -1 -1 1 256;
#X obj -15659 -516 nbx 5 14 -1e+37 1e+37 0 0 empty empty empty 0 -8
0 10 -262144 -1 -1 1 256;
#X obj -15784 -516 nbx 5 14 -1e+37 1e+37 0 0 empty empty empty 0 -8
0 10 -262144 -1 -1 1 256;
#X obj -15718 -516 nbx 5 14 -1e+37 1e+37 0 0 empty empty empty 0 -8
0 10 -262144 -1 -1 1 256;
#X obj -15855 -516 nbx 5 14 -1e+37 1e+37 0 0 empty empty empty 0 -8
0 10 -262144 -1 -1 1 256;
#X floatatom -16931 -472 5 0 0 0 - - -;
#X obj -16727 -558 inlet;
#X obj -16656 -558 inlet;
#X obj -16429 -558 inlet;
#X obj -16383 -558 inlet;
#X obj -16334 -558 inlet;
#X obj -16272 -558 inlet;
#X obj -16187 -558 inlet;
#X obj -16137 -558 inlet;
#X obj -16076 -558 inlet;
#X obj -15733 -558 inlet;
#X obj -15860 -558 inlet;
#X obj -16343 -492 f;
#X obj -16328 -516 nbx 5 14 -1e+37 1e+37 0 0 empty empty empty 0 -8
0 10 -262144 -1 -1 1 256;
#X obj -16534 -558 inlet;
#X obj -16402 -492 f;
#X obj -16386 -516 nbx 5 14 -1e+37 1e+37 0 0 empty empty empty 0 -8
0 10 -262144 -1 -1 1 256;
#X obj -16585 -558 inlet;
#X obj -16801 -1095 tgl 15 0 empty empty empty 17 7 0 10 -262144 -1
-1 0 1;
#X obj -16496 -613 mod;
#X floatatom -16579 -630 5 0 0 0 - - -;
#X floatatom -16496 -591 5 0 0 0 - - -;
#X obj -15791 -558 inlet;
#X obj -15661 -558 inlet;
#X obj -16024 -558 inlet;
#X floatatom -16682 -944 5 0 0 0 - - -;
#X obj -16852 -1103 inlet;
#X obj -16855 -1075 inlet;
#X obj -16578 -657 inlet;
#X obj -16505 -703 outlet;
#X obj -16813 -361 outlet;
#X obj -16453 -592 outlet;
#X obj -16500 -412 select 0 1 2 3 4 5 6 7 8 9 10 11 12 13 14 15;
#X obj -16591 -1067 bng 15 250 50 0 empty empty empty 17 7 0 10 -262144
-1 -1;
#X floatatom -16563 -740 5 0 0 0 - - -;
#X obj -16561 -783 bng 15 250 50 0 empty empty empty 17 7 0 10 -262144
-1 -1;
#X obj -16561 -764 f;
#X obj -16582 -949 bng 15 250 50 0 empty empty empty 17 7 0 10 -262144
-1 -1;
#X obj -16468 -1079 - 1;
#X obj -16467 -1054 * -1;
#X obj -16585 -986 spigot-toggle_red;
#X obj -16553 -985 spigot-toggle_red;
#X obj -16580 -1031 r lo;
#X obj -16559 -831 nbx 2 14 -1e+37 1e+37 0 0 empty empty empty 0 -8
0 10 -228856 -1 -1 1 256;
#X obj -16551 -935 bng 19 250 50 0 empty empty empty 17 7 0 10 -228856
-1 -1;
#X text -16528 -938 <= next value;
#X obj -16552 -902 cyclone/counter 0 15;
#X obj -16503 -727 s ITfloatB;
#X obj -16526 -786 s ITBAngB;
#X floatatom -16388 -1006 5 0 0 0 - - -;
#X obj -16357 -1030 + 1;
#X obj -16388 -1031 f;
#X obj -16555 -868 t f f;
#X floatatom -16866 -1036 5 0 0 0 - - -;
#X obj -16496 -636 + 0;
#X obj -16468 -1105 r IT1≠T1;
#X obj -16526 -764 + 1;
#X obj -16566 -810 sel 0;
#X obj -16669 -603 s nbrstpITB;
#X obj -16394 -674 s ITBAngaftermodB;
#X obj -16681 -922 - 1;
#X obj -16387 -897 bng 15 250 50 0 empty empty empty 17 7 0 10 -262144
-1 -1;
#X obj -16352 -897 bng 15 250 50 0 empty empty empty 17 7 0 10 -262144
-1 -1;
#X obj -16385 -969 mod;
#X floatatom -16384 -943 5 0 0 0 - - -;
#X obj -16340 -1000 r stpTB;
#X text -16283 -1025 avant derniere predict;
#X obj -16345 -971 + 0;
#X obj -16385 -923 sel 0 1 2;
#X obj -16387 -700 bng 15 250 50 0 empty empty empty 17 7 0 10 -262144
-1 -1;
#X floatatom -16387 -749 5 0 0 0 - - -;
#X obj -16387 -774 f, f 5;
#X obj -16387 -804 t f b;
#X obj -16387 -725 sel 0;
#X connect 0 0 29 0;
#X connect 1 0 29 0;
#X connect 2 0 29 0;
#X connect 3 0 29 0;
#X connect 4 0 29 0;
#X connect 5 0 29 0;
#X connect 6 0 29 0;
#X connect 7 0 29 0;
#X connect 8 0 29 0;
#X connect 9 0 29 0;
#X connect 10 0 29 0;
#X connect 11 0 29 0;
#X connect 12 0 29 0;
#X connect 13 0 29 0;
#X connect 14 0 29 0;
#X connect 15 0 0 1;
#X connect 16 0 1 1;
#X connect 17 0 2 1;
#X connect 18 0 3 1;
#X connect 19 0 4 1;
#X connect 20 0 6 1;
#X connect 21 0 7 1;
#X connect 22 0 8 1;
#X connect 23 0 9 1;
#X connect 24 0 10 1;
#X connect 25 0 14 1;
#X connect 26 0 12 1;
#X connect 27 0 13 1;
#X connect 28 0 11 1;
#X connect 29 0 54 0;
#X connect 29 0 59 0;
#X connect 30 0 15 0;
#X connect 31 0 16 0;
#X connect 32 0 19 0;
#X connect 33 0 45 0;
#X connect 34 0 42 0;
#X connect 35 0 20 0;
#X connect 36 0 21 0;
#X connect 37 0 22 0;
#X connect 38 0 23 0;
#X connect 39 0 27 0;
#X connect 40 0 28 0;
#X connect 42 0 5 1;
#X connect 43 0 18 0;
#X connect 44 0 29 0;
#X connect 45 0 44 1;
#X connect 46 0 17 0;
#X connect 48 0 50 0;
#X connect 49 0 48 1;
#X connect 49 0 87 0;
#X connect 50 0 60 0;
#X connect 50 0 61 0;
#X connect 51 0 26 0;
#X connect 52 0 25 0;
#X connect 53 0 24 0;
#X connect 54 0 89 0;
#X connect 55 0 47 0;
#X connect 56 0 62 0;
#X connect 56 0 82 0;
#X connect 57 0 49 0;
#X connect 61 0 0 0;
#X connect 61 1 1 0;
#X connect 61 2 2 0;
#X connect 61 3 3 0;
#X connect 61 4 4 0;
#X connect 61 5 44 0;
#X connect 61 6 5 0;
#X connect 61 7 6 0;
#X connect 61 8 7 0;
#X connect 61 9 8 0;
#X connect 61 10 9 0;
#X connect 61 11 10 0;
#X connect 61 12 11 0;
#X connect 61 13 12 0;
#X connect 61 14 13 0;
#X connect 61 15 14 0;
#X connect 62 0 69 0;
#X connect 62 0 80 0;
#X connect 63 0 58 0;
#X connect 63 0 76 0;
#X connect 63 0 83 0;
#X connect 64 0 65 0;
#X connect 64 0 77 0;
#X connect 65 0 85 0;
#X connect 65 0 63 0;
#X connect 66 0 73 0;
#X connect 67 0 68 0;
#X connect 68 0 70 1;
#X connect 69 0 66 0;
#X connect 70 0 66 0;
#X connect 71 0 69 1;
#X connect 72 0 86 0;
#X connect 73 0 75 0;
#X connect 75 0 81 0;
#X connect 78 0 92 0;
#X connect 79 0 80 1;
#X connect 80 0 78 0;
#X connect 80 0 79 0;
#X connect 81 0 72 0;
#X connect 81 1 101 0;
#X connect 83 0 48 0;
#X connect 84 0 67 0;
#X connect 84 0 69 1;
#X connect 85 0 65 1;
#X connect 86 0 64 0;
#X connect 89 0 75 4;
#X connect 89 0 102 1;
#X connect 90 0 70 0;
#X connect 92 0 93 0;
#X connect 93 0 97 0;
#X connect 94 0 96 0;
#X connect 96 0 92 1;
#X connect 97 0 90 0;
#X connect 97 1 91 0;
#X connect 98 0 88 0;
#X connect 99 0 102 0;
#X connect 100 0 99 0;
#X connect 101 0 100 1;
#X connect 101 1 100 0;
#X connect 102 0 98 0;
