#N canvas 110 251 906 777 10;
#X obj 211 161 hsl 100 15 0 1 0 0 empty empty cut_out 60 8 1 10 -16662
-260097 -260097 19800 1;
#X obj 106 161 hsl 100 15 0 1 0 0 empty empty cut_in 4 8 1 10 -16662
-260097 -260097 0 1;
#X obj 362 103 vsl 20 70 0.02 2 1 0 empty empty L 8 6 0 7 -16662 -260097
-260097 0 1;
#X obj 404 103 vsl 20 70 0.02 2 1 0 empty empty H 9 6 0 7 -16662 -260097
-260097 0 1;
#X obj 383 103 vsl 20 70 0.02 2 1 0 empty empty M 8 6 0 7 -16662 -260097
-260097 0 1;
#X obj 106 144 hsl 100 18 0 1 0 0 empty empty fade_in 4 10 1 12 -260097
-1 -1 0 1;
#X obj 211 144 hsl 100 18 1 0 0 0 empty empty fade_out 50 10 1 12 -260097
-1 -1 19800 1;
#X obj 425 103 vsl 30 70 0 2 0 0 empty empty gain 6 6 0 7 -16662 -260097
-260097 0 1;
#X obj -4 431 vfreeverb~;
#X obj 464 141 hsl 145 17 0 1 0 1 empty empty 'roomsize' 3 8 0 10 -16662
-260097 -260097 0 0;
#X obj 464 159 hsl 145 17 0 2 0 1 empty empty damp 3 8 0 10 -16662
-260097 -260097 2400 0;
#X obj 464 121 hsl 145 19 0 1 0 1 empty empty wet_reverb 3 8 0 10 -16662
-260097 -260097 0 0;
#X obj 464 101 hsl 145 19 0 1 0 1 empty empty dry 3 8 0 10 -16662 -260097
-260097 14400 0;
#X obj -12 57 inlet;
#X obj 28 57 inlet;
#X obj 79 56 inlet;
#X obj -52 57 inlet;
#X obj -46 542 dj-eq;
#X obj -49 505 *~;
#X obj -55 638 dac~;
#X obj -7 350 s V1A;
#X floatatom -423 -508 4 0 100 0 - - -;
#X floatatom -425 -585 0 0 200 0 - - -;
#X obj -723 -131 +~;
#X obj -724 -199 samphold~;
#X obj -723 -165 *~;
#X obj -513 -102 r~ phase;
#X obj -745 -728 s~ phase;
#X obj -628 -202 r~ phase;
#X obj -688 -164 r~ phase;
#X obj -431 -392 s chunk-size;
#X floatatom -425 -618 0 0 0 0 - - -;
#X text -779 -924 chunk size;
#X text -782 -910 in seconds;
#X obj -728 -875 r chunk-size;
#X obj -728 -850 t b f;
#X obj -513 -68 -~ 0.5;
#X obj -513 -34 *~ 0.5;
#X obj -513 -1 cos~;
#X obj -740 -770 phasor~;
#X obj -697 -405 s~ read-pt;
#X obj -685 -132 r~ read-pt;
#X obj -658 -735 +~ 0.5;
#X obj -657 -710 wrap~;
#X obj -657 -685 s~ phase2;
#X obj -686 55 +~;
#X obj -428 -417 * 0.001;
#X obj -723 -97 *~ 44100;
#X obj -723 -27 tabread4~ table23;
#X obj -724 -61 +~ 1;
#X floatatom -658 -786 5 0 0 0 - - -;
#X obj -597 -602 s precession;
#X obj -615 -851 t b f;
#X obj -615 -876 r precession;
#X obj -704 -623 * 0.01;
#X obj -417 -93 +~;
#X obj -408 -151 samphold~;
#X obj -417 -127 *~;
#X obj -239 -7 -~ 0.5;
#X obj -239 27 *~ 0.5;
#X obj -239 59 cos~;
#X obj -369 -93 r~ read-pt;
#X obj -407 -49 *~ 44100;
#X obj -417 21 tabread4~ table23;
#X obj -408 -176 r chunk-size;
#X obj -418 -13 +~ 1;
#X obj -320 -150 r~ phase2;
#X obj -372 -126 r~ phase2;
#X obj -269 -41 r~ phase2;
#X msg -423 -650 25;
#X floatatom -424 -846 12 0 900 0 - - -;
#X obj -424 -816 * 0.001;
#X text -383 -510 <-- chunk size (msec);
#X obj -740 -818 expr (pow(2 \, $f1/120)-$f3)/$f2;
#X obj -424 -766 t b f;
#X text -299 -953 (msec);
#X obj -701 -539 /;
#X floatatom -424 -1010 12 0 0 0 - - -;
#X floatatom -424 -1080 12 0 0 0 - - -;
#X msg -424 -878 900;
#X obj -311 -898 loadbang;
#X floatatom -423 -952 12 0 0 0 - - -;
#X obj -423 -977 * 1000;
#X floatatom -422 -477 4 0 900 0 - - -;
#X text -371 -975 <-- loop length;
#X text -389 -586 <-- speed \, percent;
#X obj -725 -372 s~ sample.pos1;
#X text -383 -478 <-- position \, 0-1;
#X obj -700 -475 *~ 1;
#X floatatom -422 -542 0 0 0 0 - - -;
#X obj -702 -591 t b f;
#X obj -702 -564 * 1;
#X text -385 -623 <-- pitch \, 0= norm \, >0= aigues;
#X floatatom -355 -215 0 0 0 0 - - -;
#X floatatom -410 -215 0 0 0 0 - - -;
#X obj -496 -245 loadbang;
#X obj -385 -711 loadbang;
#X msg -424 -686 0.5;
#X msg -423 -710 100;
#X obj -724 -234 r chunk-size;
#X text -386 -451 <-- trgr on/off;
#X obj -421 -1255 loadbang;
#X obj -422 -1174 soundfiler;
#X text -328 -1248 v-- re-read original table;
#X msg -140 -1216 read -resize \$1 table23;
#X obj 254 -1274 snapshot~;
#X obj 255 -1347 receive~ sample.pos1;
#X floatatom 255 -1251 12 0 0 0 - - -;
#X floatatom 256 -1189 12 0 0 0 - - -;
#X obj 293 -1324 tgl 15 0 empty empty empty 17 7 0 10 -262144 -1 -1
1 1;
#X floatatom -421 -1147 12 0 0 0 - - -;
#X obj 257 -1160 /;
#X text -384 -555 <-- pitch & speed \, norm= 1;
#X obj 294 -1383 loadbang;
#X obj 291 -1112 outlet;
#X obj -686 23 *~;
#X obj -417 55 *~;
#X obj 291 -1091 s posvisu;
#X msg -496 -218 44100;
#X floatatom 233 -1090 5 0 0 2 pos - -;
#X msg -384 -878 47191;
#X msg -314 -878 0;
#X obj -697 -444 *~ 1;
#X floatatom 391 -1308 4 0 0 0 f.r - -;
#X obj 457 -1357 r frA;
#X obj -141 -1254 r soundfileA;
#X obj -34 -577 r pitchA;
#X obj -34 -547 r speedA;
#X obj -34 -517 r pitchNspeedA;
#X obj -33 -487 r posA;
#X obj -643 177 r BangAtoenv;
#X obj -679 350 *~;
#X floatatom -553 330 5 0 4 0 - - -;
#X floatatom -662 226 5 0 0 0 - - -;
#X floatatom -619 226 5 0 0 0 - - -;
#X obj -666 283 env_inout0Z;
#X floatatom -577 226 5 0 0 0 - - -;
#X floatatom -534 226 5 0 0 0 - - -;
#X obj 234 57 inlet;
#X obj 194 57 inlet;
#X obj 368 -1378 r øAtiTS1;
#X obj -204 -941 s looplenghtA;
#X obj -169 -570 * 100;
#X obj 448 -1378 r øAtiTS1>ø;
#X obj 88 26 r lo;
#X obj 235 7 - 1;
#X obj 234 28 * -1;
#X obj -115 593 s~ A0;
#X obj -35 -425 * 0.01;
#X obj -643 198 spigot-toggle_red;
#X obj 15 -195 ctlin 3;
#X obj 13 -123 * 1;
#X obj 14 -157 * 0.00787402;
#X floatatom 14 -93 5 0 0 0 - - -;
#X obj 163 -123 * 1;
#X obj 164 -157 * 0.00787402;
#X floatatom 164 -93 5 0 0 0 - - -;
#X obj 164 -195 ctlin 7;
#X obj 295 4 - 1;
#X obj 294 25 * -1;
#X obj -618 200 r lo;
#X obj -37 -455 r directinA;
#X msg 724 83 0;
#X text -110 219 enveloppe;
#X obj -555 306 r T$mod;
#X obj -703 -504 phasor~;
#X floatatom -552 374 12 0 0 0 - - -;
#X obj -622 373 pack f f;
#X obj -621 399 vline~;
#X obj -634 343 r øAtiTS1;
#X obj -638 427 *~;
#X msg -496 -178 0;
#X obj 169 -595 t b f;
#X msg -125 80 0;
#X msg 98 -6 1;
#X obj 106 119 hsl 205 10 0 1 0 0 empty empty empty 5 5 1 10 -16662
-260097 -260097 8160 1;
#X obj 106 130 hsl 100 13 0 1 0 0 empty empty :::::::::::::::::::::::::::::::
-2 5 1 12 -16662 -260097 -260097 3960 1;
#X obj -187 280 s envfadreducin;
#X obj 211 130 hsl 100 13 0 1 0 0 empty empty shrpnss:::::::::::::::::::::::::::::
-22 5 1 12 -16662 -260097 -260097 3960 1;
#X obj -181 308 s envfadreducout;
#X msg -164 78 0.2;
#X obj 444 233 s envRNGmidiloop;
#X obj 399 19 spigot-toggle_red;
#X obj 168 8 r lo;
#X obj 570 568 spigot-toggle_orange;
#X obj 570 545 spigot-toggle_vert;
#X obj 570 521 spigot-toggle_red;
#X obj 570 624 * 1;
#X obj 536 569 spigot-toggle_orange;
#X obj 536 545 spigot-toggle_vert;
#X obj 535 521 spigot-toggle_red;
#X obj 536 622 * 1;
#X obj 570 592 spigot-toggle_orange;
#X obj 537 591 spigot-toggle_orange;
#X obj 598 612 - 1;
#X obj 599 643 * -1;
#X obj 590 333 tgl 12 0 empty empty A 3 6 0 10 -1 -262144 -260097 0
1;
#X obj 603 333 tgl 12 0 empty empty B 3 6 0 10 -1 -262144 -260097 0
1;
#X obj 616 333 tgl 12 0 empty empty a' 2 6 0 10 -1 -262144 -260097
0 1;
#X obj 629 333 tgl 12 0 empty empty b' 2 6 0 10 -1 -262144 -260097
0 1;
#X obj 698 333 tgl 12 0 empty empty A 3 6 0 10 -1 -262144 -260097 0
1;
#X obj 709 333 tgl 12 0 empty empty B 3 6 0 10 -1 -262144 -260097 0
1;
#X obj 722 333 tgl 12 0 empty empty a' 2 6 0 10 -1 -262144 -260097
0 1;
#X obj 735 333 tgl 12 0 empty empty b' 2 6 0 10 -1 -262144 -260097
0 1;
#X obj 560 390 spigot-toggle_orange;
#X obj 560 367 spigot-toggle_vert;
#X obj 560 343 spigot-toggle_red;
#X obj 557 444 * 1;
#X obj 526 391 spigot-toggle_orange;
#X obj 526 367 spigot-toggle_vert;
#X obj 525 343 spigot-toggle_red;
#X obj 526 444 * 1;
#X obj 561 293 r fll1;
#X obj 559 267 r fll0;
#X obj 560 414 spigot-toggle_orange;
#X obj 527 413 spigot-toggle_orange;
#X obj 560 224 r A;
#X obj 560 248 r B;
#X obj 597 434 - 1;
#X obj 599 458 * -1;
#X obj 642 333 tgl 12 0 empty empty A 3 6 0 10 -1 -262144 -191407 0
1;
#X obj 654 333 tgl 12 0 empty empty B 3 6 0 10 -1 -262144 -191407 0
1;
#X obj 667 333 tgl 12 0 empty empty a' 2 6 0 10 -1 -262144 -191407
0 1;
#X obj 680 333 tgl 12 0 empty empty b' 2 6 0 10 -1 -262144 -191407
0 1;
#X obj 748 333 tgl 12 0 empty empty A 3 6 0 10 -1 -262144 -191407 0
1;
#X obj 761 333 tgl 12 0 empty empty B 3 6 0 10 -1 -262144 -191407 0
1;
#X obj 774 333 tgl 12 0 empty empty a' 2 6 0 10 -1 -262144 -191407
0 1;
#X obj 787 333 tgl 12 0 empty empty b' 2 6 0 10 -1 -262144 -191407
0 1;
#X floatatom -547 -916 12 0 900 0 - - -;
#X floatatom 599 664 5 0 0 0 - - -;
#X floatatom 353 -1231 12 0 0 0 f.r - -;
#X floatatom 30 -867 12 0 0 0 - - -;
#X obj 35 -954 bng 15 250 50 0 empty empty empty 17 7 0 10 -262144
-1 -1;
#X obj 35 -1020 r gateinA;
#X msg 24 -897 1;
#X obj 62 -918 delay;
#X msg 59 -898 0;
#X floatatom 92 -945 12 0 0 0 - - -;
#X obj 34 -990 spigot-toggle_red;
#X obj 171 -542 * 1;
#X obj 257 -1229 * 44103;
#X obj -642 -504 + 0;
#X msg -58 -884 1;
#X obj -113 -910 sel;
#X obj -101 -851 f;
#X obj -116 -886 delay;
#X obj -59 -915 bng 15 250 50 0 empty empty empty 17 7 0 10 -262144
-1 -1;
#X obj -423 -1047 / 44103;
#X msg 99 -23 0.5;
#X floatatom 392 -1255 4 0 0 0 f.r - -;
#X obj 389 -1286 / 0.6;
#X obj 335 -1279 + 2;
#X obj 271 -1297 metro 44;
#X obj 692 333 cnv 7 7 13 empty empty empty 2 10 1 10 -1 -260097 0
;
#X obj 58 -994 r ø@S;
#X obj 30 -848 s øs@Agate;
#X obj 406 -27 r ø@S;
#X obj -190 -988 * 0.5;
#X msg 199 -42 color \$1;
#X floatatom 201 -68 5 0 0 0 - - -;
#X obj 201 -141 bng 15 250 50 0 empty empty empty 17 7 0 10 -262144
-1 -1;
#X msg 201 -108 44;
#X obj 251 101 nbx 4 18 -1e+37 1e+37 0 0 empty empty empty 0 20 0 10
-260818 -1 -262144 200 256;
#X obj 495 -145 r T$mod;
#X obj 294 101 tgl 18 0 empty empty < 4 8 2 23 -260486 -1 -1 1 1;
#X obj 103 100 cnv 13 148 18 empty empty ENVLOP_TIME_RCV 70 10 1 8
-1 -260097 0;
#X obj 398 -103 r Tø@SA;
#X obj 402 -80 sel;
#X msg 411 -60 150;
#X msg -100 80 0.5;
#X obj 318 100 vradio 38 1 0 2 empty empty mute 6 58 0 12 -16662 -260097
-260097 0;
#X obj 312 101 cnv 3 5 75 empty empty empty 12 12 0 14 -1 -66577 0
;
#X obj 455 101 cnv 3 5 75 empty empty empty 12 12 0 14 -1 -66577 0
;
#X obj 481 -33 sel;
#X obj 494 25 f;
#X obj 519 25 f;
#X obj 471 -1 bng 15 250 50 0 empty empty empty 17 7 0 10 -262144 -1
-1;
#X obj 500 -2 bng 15 250 50 0 empty empty empty 17 7 0 10 -262144 -1
-1;
#X msg 546 45 0;
#X obj 547 24 delay 10;
#X obj 449 56 f;
#X obj 474 56 f;
#X obj 498 -121 - 1;
#X obj 497 -100 * -1;
#X obj 497 -74 spigot-toggle_red;
#X obj 584 -103 r lo;
#X obj 356 101 cnv 3 6 75 empty empty empty 12 12 0 14 -1 -66577 0
;
#X connect 0 0 134 0;
#X connect 1 0 133 0;
#X connect 2 0 17 1;
#X connect 3 0 17 3;
#X connect 4 0 17 2;
#X connect 5 0 136 0;
#X connect 6 0 137 0;
#X connect 7 0 18 1;
#X connect 7 0 20 0;
#X connect 8 0 18 0;
#X connect 9 0 8 1;
#X connect 10 0 8 2;
#X connect 11 0 8 4;
#X connect 11 0 275 1;
#X connect 12 0 8 3;
#X connect 12 0 274 1;
#X connect 13 0 4 0;
#X connect 14 0 3 0;
#X connect 15 0 7 0;
#X connect 16 0 2 0;
#X connect 17 0 19 0;
#X connect 17 0 19 1;
#X connect 17 0 147 0;
#X connect 18 0 17 0;
#X connect 21 0 46 0;
#X connect 22 0 54 0;
#X connect 23 0 47 0;
#X connect 24 0 25 0;
#X connect 25 0 23 0;
#X connect 26 0 36 0;
#X connect 28 0 24 1;
#X connect 29 0 25 1;
#X connect 31 0 73 0;
#X connect 34 0 35 0;
#X connect 35 0 73 0;
#X connect 35 1 73 1;
#X connect 36 0 37 0;
#X connect 37 0 38 0;
#X connect 38 0 115 1;
#X connect 39 0 27 0;
#X connect 39 0 42 0;
#X connect 41 0 23 1;
#X connect 42 0 43 0;
#X connect 43 0 44 0;
#X connect 45 0 131 0;
#X connect 46 0 30 0;
#X connect 47 0 49 0;
#X connect 48 0 115 0;
#X connect 49 0 48 0;
#X connect 52 0 73 0;
#X connect 52 1 73 2;
#X connect 53 0 52 0;
#X connect 54 0 51 0;
#X connect 54 0 91 0;
#X connect 55 0 62 0;
#X connect 56 0 57 0;
#X connect 57 0 55 0;
#X connect 58 0 59 0;
#X connect 59 0 60 0;
#X connect 60 0 116 1;
#X connect 61 0 55 1;
#X connect 62 0 65 0;
#X connect 63 0 116 0;
#X connect 64 0 56 0;
#X connect 65 0 63 0;
#X connect 66 0 56 1;
#X connect 67 0 57 1;
#X connect 68 0 58 0;
#X connect 69 0 21 0;
#X connect 70 0 71 0;
#X connect 71 0 74 0;
#X connect 71 0 88 1;
#X connect 73 0 39 0;
#X connect 73 0 50 0;
#X connect 74 0 76 0;
#X connect 74 1 76 1;
#X connect 76 0 165 0;
#X connect 77 0 82 0;
#X connect 78 0 247 0;
#X connect 80 0 79 0;
#X connect 81 0 70 0;
#X connect 81 0 141 0;
#X connect 81 0 257 0;
#X connect 82 0 81 0;
#X connect 83 0 241 0;
#X connect 88 0 122 0;
#X connect 89 0 90 0;
#X connect 90 0 91 0;
#X connect 90 1 91 1;
#X connect 91 0 76 0;
#X connect 93 0 62 1;
#X connect 94 0 47 1;
#X connect 95 0 118 0;
#X connect 96 0 97 0;
#X connect 96 0 98 0;
#X connect 96 0 69 0;
#X connect 97 0 89 0;
#X connect 98 0 22 0;
#X connect 99 0 24 0;
#X connect 102 0 110 0;
#X connect 104 0 102 0;
#X connect 105 0 107 0;
#X connect 106 0 105 0;
#X connect 107 0 240 0;
#X connect 108 0 111 0;
#X connect 109 0 172 0;
#X connect 109 0 252 0;
#X connect 110 0 111 1;
#X connect 110 0 78 0;
#X connect 111 0 114 0;
#X connect 111 0 119 0;
#X connect 111 0 117 0;
#X connect 113 0 109 0;
#X connect 115 0 45 0;
#X connect 116 0 45 1;
#X connect 118 0 93 0;
#X connect 118 0 94 0;
#X connect 120 0 70 0;
#X connect 121 0 70 0;
#X connect 122 0 40 0;
#X connect 122 0 86 0;
#X connect 123 0 250 0;
#X connect 124 0 123 0;
#X connect 125 0 104 0;
#X connect 126 0 31 0;
#X connect 127 0 142 0;
#X connect 128 0 239 0;
#X connect 129 0 83 0;
#X connect 130 0 149 0;
#X connect 131 0 170 0;
#X connect 132 0 166 0;
#X connect 133 0 135 1;
#X connect 134 0 135 3;
#X connect 135 0 131 1;
#X connect 136 0 135 2;
#X connect 137 0 135 4;
#X connect 138 0 145 0;
#X connect 139 0 5 0;
#X connect 140 0 109 0;
#X connect 142 0 22 0;
#X connect 143 0 109 0;
#X connect 144 0 0 0;
#X connect 144 0 145 0;
#X connect 144 0 162 0;
#X connect 144 0 174 0;
#X connect 144 0 180 0;
#X connect 144 0 248 0;
#X connect 144 0 260 0;
#X connect 145 0 146 0;
#X connect 146 0 6 0;
#X connect 148 0 83 0;
#X connect 149 0 135 0;
#X connect 150 0 152 0;
#X connect 151 0 153 0;
#X connect 152 0 151 0;
#X connect 153 0 5 0;
#X connect 154 0 156 0;
#X connect 155 0 154 0;
#X connect 156 0 158 0;
#X connect 157 0 155 0;
#X connect 158 0 159 0;
#X connect 159 0 6 0;
#X connect 160 0 149 1;
#X connect 161 0 148 0;
#X connect 162 0 9 0;
#X connect 162 0 11 0;
#X connect 162 0 7 0;
#X connect 162 0 3 0;
#X connect 162 0 4 0;
#X connect 162 0 2 0;
#X connect 164 0 132 0;
#X connect 165 0 88 0;
#X connect 166 0 167 1;
#X connect 167 0 168 0;
#X connect 168 0 170 1;
#X connect 169 0 167 0;
#X connect 170 0 8 0;
#X connect 171 0 94 0;
#X connect 171 0 93 0;
#X connect 172 0 239 0;
#X connect 172 1 239 1;
#X connect 173 0 11 0;
#X connect 175 0 176 0;
#X connect 175 0 178 0;
#X connect 176 0 177 0;
#X connect 178 0 179 0;
#X connect 180 0 175 0;
#X connect 180 0 176 0;
#X connect 180 0 178 0;
#X connect 182 0 262 0;
#X connect 183 0 264 0;
#X connect 184 0 187 0;
#X connect 185 0 187 0;
#X connect 186 0 187 0;
#X connect 187 0 194 0;
#X connect 187 0 6 0;
#X connect 188 0 191 0;
#X connect 189 0 191 0;
#X connect 190 0 191 0;
#X connect 191 0 5 0;
#X connect 192 0 187 0;
#X connect 193 0 191 0;
#X connect 194 0 195 0;
#X connect 195 0 229 0;
#X connect 196 0 190 1;
#X connect 197 0 189 1;
#X connect 198 0 188 1;
#X connect 199 0 193 1;
#X connect 200 0 186 1;
#X connect 201 0 185 1;
#X connect 202 0 184 1;
#X connect 203 0 192 1;
#X connect 204 0 207 0;
#X connect 205 0 207 0;
#X connect 206 0 207 0;
#X connect 207 0 218 0;
#X connect 207 0 0 0;
#X connect 208 0 211 0;
#X connect 209 0 211 0;
#X connect 210 0 211 0;
#X connect 211 0 1 0;
#X connect 212 0 215 0;
#X connect 212 0 214 0;
#X connect 212 0 193 0;
#X connect 212 0 192 0;
#X connect 213 0 208 0;
#X connect 213 0 204 0;
#X connect 213 0 188 0;
#X connect 213 0 184 0;
#X connect 214 0 207 0;
#X connect 215 0 211 0;
#X connect 216 0 210 0;
#X connect 216 0 206 0;
#X connect 216 0 190 0;
#X connect 216 0 186 0;
#X connect 217 0 209 0;
#X connect 217 0 205 0;
#X connect 217 0 189 0;
#X connect 217 0 185 0;
#X connect 218 0 219 0;
#X connect 220 0 210 1;
#X connect 221 0 209 1;
#X connect 222 0 208 1;
#X connect 223 0 215 1;
#X connect 224 0 206 1;
#X connect 225 0 205 1;
#X connect 226 0 204 1;
#X connect 227 0 214 1;
#X connect 228 0 52 0;
#X connect 230 0 240 1;
#X connect 231 0 255 0;
#X connect 232 0 235 0;
#X connect 232 0 234 0;
#X connect 233 0 238 0;
#X connect 234 0 231 0;
#X connect 235 0 236 0;
#X connect 236 0 231 0;
#X connect 237 0 235 1;
#X connect 237 0 245 1;
#X connect 238 0 232 0;
#X connect 239 0 89 0;
#X connect 240 0 108 0;
#X connect 241 0 165 1;
#X connect 242 0 244 1;
#X connect 243 0 246 0;
#X connect 243 0 245 0;
#X connect 244 0 231 0;
#X connect 245 0 244 0;
#X connect 246 0 242 0;
#X connect 247 0 77 0;
#X connect 248 0 12 0;
#X connect 249 0 251 0;
#X connect 250 0 249 0;
#X connect 251 0 252 1;
#X connect 252 0 105 0;
#X connect 254 0 238 1;
#X connect 254 0 234 0;
#X connect 254 0 243 0;
#X connect 256 0 182 1;
#X connect 256 0 282 0;
#X connect 257 0 237 0;
#X connect 258 0 262 0;
#X connect 259 0 258 0;
#X connect 260 0 261 0;
#X connect 261 0 259 0;
#X connect 262 0 181 0;
#X connect 263 0 284 0;
#X connect 264 0 182 1;
#X connect 264 0 284 1;
#X connect 266 0 267 0;
#X connect 267 1 268 0;
#X connect 268 0 262 0;
#X connect 269 0 2 0;
#X connect 269 0 4 0;
#X connect 269 0 3 0;
#X connect 269 0 7 0;
#X connect 269 0 12 0;
#X connect 270 0 273 0;
#X connect 273 0 276 0;
#X connect 273 1 277 0;
#X connect 274 0 280 1;
#X connect 275 0 281 1;
#X connect 276 0 281 0;
#X connect 276 0 280 0;
#X connect 277 0 275 0;
#X connect 277 0 279 0;
#X connect 277 0 274 0;
#X connect 278 0 12 0;
#X connect 278 0 11 0;
#X connect 279 0 278 0;
#X connect 280 0 12 0;
#X connect 281 0 11 0;
#X connect 282 0 283 0;
#X connect 283 0 284 1;
#X connect 284 0 262 0;
#X connect 285 0 284 1;
#X coords 0 -1 1 1 514 76 2 100 100;
