#N canvas -115 0 1440 878 10;
#X obj 431 111 vsl 20 70 0 1 0 0 empty empty L 8 6 0 7 -16662 -260097
-260097 0 0;
#X obj 471 111 vsl 20 69 0 1 0 0 empty empty H 6 6 0 7 -16662 -260097
-260097 0 0;
#X obj 452 111 vsl 20 70 0 1 0 0 empty empty M 8 6 0 7 -16662 -260097
-260097 0 0;
#X obj -112 62 inlet;
#X obj -72 62 inlet;
#X obj -12 48 inlet;
#X obj -152 62 inlet;
#X obj 734 161 dj-eq;
#X obj 524 -47 s V1A;
#X obj -53 23 r lo;
#X obj 530 311 s~ A0;
#X floatatom 135 1 5 0 0 0 - - -;
#X floatatom 190 2 5 0 0 0 - - -;
#X msg 403 42 0;
#X msg 53 1 color \$1;
#X floatatom 86 -23 5 0 0 0 - - -;
#X obj 53 -47 bng 15 250 50 0 empty empty empty 17 7 0 10 -262144 -1
-1;
#X msg 53 -22 44;
#X obj 135 -41 / 127;
#X obj 193 -41 / 127;
#X obj 135 -66 ctlin 3;
#X obj 193 -66 ctlin 7;
#X obj 426 109 cnv 3 10 75 empty empty empty 12 12 0 14 -1 -66577 0
;
#X obj 1097 42 ctlin 8;
#X obj 1238 42 ctlin 12;
#X obj 957 42 ctlin 4;
#X obj 1322 62 ctlin 16;
#X obj 1238 67 / 127;
#X obj 1097 67 / 127;
#X obj 938 88 / 127;
#X obj -12 23 r lo;
#X msg -18 167 1;
#X msg -18 142 0;
#X obj 340 147 hsl 84 16 0 6 0 0 empty empty shape_out 35 8 1 10 -16662
-260097 -260097 1383 1;
#X obj 218 147 hsl 84 16 0 6 0 0 empty empty shape_in 5 8 1 10 -16662
-260097 -260097 1383 1;
#X obj 218 104 hsl 100 22 0 1 0 0 empty empty fade_in 4 12 1 12 -16662
-260097 -260097 990 1;
#X obj 324 104 hsl 100 22 1 0 0 0 empty empty fade_out 50 12 1 12 -16662
-260097 -260097 8910 1;
#X floatatom 248 291 5 0 0 0 in - -;
#X floatatom 307 291 5 0 0 0 out - -;
#X floatatom 54 253 5 0 0 0 pow_in - -;
#X floatatom 177 291 5 0 0 0 pow_out - -;
#X obj 304 147 bng 16 250 50 0 empty empty empty 4 8 1 13 -12306 -260097
-1;
#X obj 321 147 bng 16 250 50 0 empty empty empty 4 8 1 13 -12306 -260097
-1;
#X obj 218 126 hsl 206 20 0 1 0 0 empty empty sustain 85 9 1 12 -16662
-260097 -260097 19475 1;
#X obj 214 626 env_inout0Z;
#X msg -72 112 0.1;
#X floatatom 381 562 5 0 0 0 - - -;
#X obj 491 109 cnv 12 115 75 empty empty empty 12 12 0 14 -1 -66577
0;
#X floatatom 300 -7 5 0 0 0 - - -;
#X obj 270 -41 / 127;
#X obj 270 -66 ctlin 11;
#X obj 270 8 - 1;
#X obj 270 33 * -1;
#X msg -12 73 0.1;
#X obj 1322 87 / 127;
#X obj 518 111 vsl 20 70 0 1 0 0 empty empty db 2 9 0 13 -16662 -260097
-260097 0 0;
#X msg -183 161 1;
#X msg -119 161 1;
#X obj 647 -575 r pitchA;
#X obj 214 651 *~;
#X obj 105 194 hsl 499 61 0 1 0 0 empty empty empty -2 -8 0 10 -260097
-1 -1 0 1;
#X msg 36 62 250;
#N canvas 0 22 450 278 (subpatch) 0;
#X array table23 1.36563e+06 float 2;
#X coords 0 1 1.36563e+06 -1 506 61 2 0 0;
#X restore 101 194 graph;
#X obj 32 117 cnv 15 32 16 empty empty empty 20 12 0 14 -260097 -66577
0;
#X obj 192 133 tgl 23 0 empty empty empty 8 11 0 10 -1 -260097 -260097
0 1;
#X floatatom 26 117 5 0 0 0 - - -;
#X obj 211 163 cnv 12 220 19 empty empty empty 22 10 1 8 -1 -260097
0;
#X obj 100 101 cnv 18 506 7 empty empty empty 22 10 1 8 -1 -260097
0;
#X floatatom 441 -1059 4 0 100 0 - - -;
#X floatatom 274 -922 0 0 200 0 - - -;
#X obj 24 -501 +~;
#X obj 25 -591 samphold~;
#X obj 24 -567 *~;
#X obj 234 -482 r~ phase;
#X obj 585 -384 s~ phase;
#X obj 119 -596 r~ phase;
#X obj 59 -545 r~ phase;
#X obj 412 -1009 s chunk-size;
#X floatatom 598 -532 0 0 0 0 - - -;
#X text 543 -568 chunk size;
#X text 543 -549 in seconds;
#X obj 597 -514 r chunk-size;
#X obj 597 -489 t b f;
#X obj 234 -457 -~ 0.5;
#X obj 234 -432 *~ 0.5;
#X obj 234 -407 cos~;
#X obj 585 -409 phasor~;
#X obj 4 -670 s~ read-pt;
#X obj 59 -520 r~ read-pt;
#X obj 667 -385 +~ 0.5;
#X obj 667 -360 wrap~;
#X obj 665 -336 s~ phase2;
#X obj 26 -370 +~;
#X obj 412 -1034 * 0.001;
#X obj 24 -476 *~ 44100;
#X obj 24 -426 tabread4~ table23;
#X obj 24 -451 +~ 1;
#X floatatom 667 -409 5 0 0 0 - - -;
#X obj 44 -922 s precession;
#X obj 710 -489 t b f;
#X obj 745 -514 r precession;
#X obj 44 -897 * 0.01;
#X obj 339 -492 +~;
#X obj 339 -542 samphold~;
#X obj 339 -517 *~;
#X obj 454 -405 -~ 0.5;
#X obj 454 -380 *~ 0.5;
#X obj 454 -355 cos~;
#X obj 374 -491 r~ read-pt;
#X obj 339 -467 *~ 44100;
#X obj 329 -361 tabread4~ table23;
#X obj 339 -567 r chunk-size;
#X obj 329 -386 +~ 1;
#X obj 427 -545 r~ phase2;
#X obj 374 -516 r~ phase2;
#X obj 454 -430 r~ phase2;
#X msg 276 -978 25;
#X obj 26 -1116 * 0.001;
#X text 485 -1052 <-- chunk size (msec);
#X obj 597 -464 expr (pow(2 \, $f1/120)-$f3)/$f2;
#X obj -12 -922 t b f;
#X text 120 -1182 (msec);
#X obj -6 -859 /;
#X floatatom 22 -1191 12 0 0 0 - - -;
#X floatatom 22 -1240 12 0 0 0 - - -;
#X floatatom 22 -1152 12 0 0 0 - - -;
#X obj 23 -1172 * 1000;
#X floatatom 275 -874 4 0 900 0 - - -;
#X text 101 -1207 <-- loop length;
#X text 346 -923 <-- speed \, percent;
#X obj 84 -675 s~ sample.pos1;
#X text 352 -875 <-- position \, 0-1;
#X obj -1 -794 *~ 1;
#X floatatom 273 -898 0 0 0 0 - - -;
#X obj 81 -875 t b f;
#X obj 44 -872 * 1;
#X text 346 -945 <-- pitch \, 0= norm \, >0= aigues;
#X floatatom 392 -596 0 0 0 0 - - -;
#X floatatom 235 -538 0 0 0 0 - - -;
#X obj 235 -588 loadbang;
#X obj 314 -1028 loadbang;
#X msg 270 -1005 0.5;
#X msg 276 -1028 100;
#X obj 23 -619 r chunk-size;
#X text 352 -853 <-- trgr on/off;
#X obj 663 -1127 soundfiler;
#X msg 664 -1157 read -resize \$1 table23;
#X obj 830 -1249 receive~ sample.pos1;
#X floatatom 829 -1134 12 0 0 0 - - -;
#X floatatom 829 -1085 12 0 0 0 - - -;
#X obj 868 -1201 tgl 15 0 empty empty empty 17 7 0 10 -262144 -1 -1
0 1;
#X floatatom 667 -1096 12 0 0 0 - - -;
#X obj 829 -1061 /;
#X text 346 -901 <-- pitch & speed \, norm= 1;
#X obj 860 -1059 outlet;
#X obj 25 -392 *~;
#X obj 329 -336 *~;
#X obj 813 -717 s posvisu;
#X msg 235 -563 44100;
#X floatatom 811 -678 12 0 0 2 pos - -;
#X floatatom 979 -1261 4 0 0 0 f.r - -;
#X obj 664 -1182 r soundfileA;
#X obj 539 -941 r speedA;
#X obj 539 -916 r pitchNspeedA;
#X obj 538 -811 r posA;
#X obj 107 -1163 s looplenghtA;
#X obj 529 -872 * 100;
#X obj 536 -832 * 0.01;
#X obj 536 -857 r directinA;
#X msg 235 -513 0;
#X floatatom 709 -548 12 0 900 0 - - -;
#X obj 829 -1110 * 44100;
#X obj 811 -654 s playbackA;
#X obj 524 -22 s opa;
#X obj 101 109 cnv 13 82 74 empty empty empty 22 10 1 8 -260097 -260097
0;
#X obj 183 108 cnv 3 8 75 empty empty empty 12 12 0 14 -1 -66577 0
;
#X obj 190 -22 * 1;
#X obj 267 -22 * 1;
#X obj 358 23 * 0.3;
#X obj 134 -22 * 0.3;
#N canvas 560 382 1588 855 (subpatch) 0;
#X array array1 8000 float 0;
#X coords 0 10 7999 -1 83 80 2 0 0;
#X restore 100 109 graph;
#X msg -72 87 0.95;
#X obj 504 291 *~ 1;
#X obj 192 109 tgl 23 0 empty empty a+b 3 11 0 10 -260097 -1 -1 1 1
;
#X msg 476 62 0;
#X obj 909 -1348 spigot-toggle_orange;
#X obj 939 -1327 sel;
#X msg 967 -1327 1;
#X obj 914 -1374 r trgrmodenvA;
#X obj 939 -1350 r sl_trgA;
#X obj 921 -1399 r sl_trgB;
#X obj -3 -815 phasor~;
#X obj 22 -1216 / 44100;
#X obj 103 266 hsl 502 10 0 1 0 1 empty empty ↻_RAW-OUT 4 5 1 10
-260097 -1 -1 25400 0;
#X obj 103 255 hsl 502 10 0 100 0 1 empty empty ↻_RAW-IN 4 5 1 10
-16662 -260097 -260097 28900 0;
#X obj -245 249 bng 15 250 50 0 empty empty empty 17 7 0 10 -262144
-1 -1;
#X obj -245 273 s timeseqtrgrrawinA;
#X floatatom 800 422 5 0 0 0 - - -;
#X floatatom 882 376 12 0 0 0 - - -;
#X obj 889 352 - 0;
#X obj 884 249 * 0.01;
#X obj 885 294 t b f;
#X floatatom 1048 477 5 0 0 0 - - -;
#X floatatom 884 270 5 0 0 0 - - -;
#X floatatom 904 422 12 0 0 0 - - -;
#X floatatom 876 472 12 0 0 0 - - -;
#X obj 876 447 * 1;
#X floatatom 894 617 12 0 0 0 - - -;
#X obj 902 524 t b f;
#X floatatom 1045 377 5 0 0 0 - - -;
#X obj 1226 376 > 0.12;
#X obj 892 549 / 1;
#X floatatom 895 572 5 0 0 0 - - -;
#X obj 1226 401 sel;
#X obj 1045 401 * 1;
#X msg 1226 426 -1;
#X msg 1256 422 1;
#X obj 876 422 * 1;
#X obj 917 457 t b f;
#X obj 895 595 * 1;
#X obj 1045 352 r pitchNspeedA;
#X obj 905 395 r looplenghtA;
#X obj 897 694 s TloopA;
#X obj 1056 688 s pitchrawA;
#X msg 614 -1128 99999;
#X obj 614 -1153 r lo;
#X obj 1048 501 r rawA;
#X msg -53 117 0.1;
#X obj 1056 660 spigot-toggle_red;
#X obj 894 660 spigot-toggle_red;
#X obj 546 109 pp.revAA;
#A saved empty_slot \; empty_slot \; empty_slot \; empty_slot \; empty_slot
\; empty_slot \; empty_slot \; empty_slot \; empty_slot \; empty_slot
\; empty_slot \; empty_slot \; empty_slot \; empty_slot \; empty_slot
\; empty_slot \; empty_slot \; empty_slot \; empty_slot \; empty_slot
\; empty_slot \;;
#X obj 1076 660 r rawloopA;
#X obj 313 -925 t b f;
#X obj 319 -902 * 1;
#X obj 902 -1199 metro 12;
#X obj 829 -1159 snapshot~;
#X obj 902 -1177 bng 15 250 50 0 empty empty empty 17 7 0 10 -262144
-1 -1;
#X obj 103 183 hsl 502 10 0 100 0 1 empty empty direct_IN 4 5 1 10
-16662 -260097 -260097 47100 0;
#X obj -245 298 s directinA;
#X obj 902 -1153 s snap;
#X obj 867 -1201 spigot-toggle_orange;
#X obj 903 -1219 tgl 15 0 empty empty empty 17 7 0 10 -262144 -1 -1
1 1;
#X obj 905 -1299 r snapABtrgr;
#X obj 1045 426 * 0.5;
#X obj 875 -1316 r øAtiTS1;
#X obj 504 316 dac~;
#X obj 286 661 s~ envA;
#X floatatom 997 -977 12 0 100 0 - - -;
#X obj 42 -805 tgl 15 0 empty empty empty 17 7 0 10 -262144 -1 -1 1
1;
#X obj 1 -752 spigot~;
#X obj 979 -1281 r FR;
#X obj 979 -1218 / 1000;
#X msg 979 -1243 1000;
#X floatatom 979 -1193 4 0 0 0 f.r - -;
#X msg 117 -1236 44100;
#X obj 4 -695 +~;
#X msg -100 211 1 0 \, 0 1 1;
#X obj -100 236 vline~;
#X floatatom 1295 -645 10 0 0 0 - - -;
#X obj 2029 -865 s grain_dur;
#X floatatom 1822 -882 5 0 0 0 - - -;
#X msg 1294 -621 next \$1;
#X obj 1303 -962 phasor~;
#X obj 1302 -927 *~;
#X obj 1172 -987 receive fileDuration;
#X obj 1300 -743 snapshot~;
#X obj 1465 -855 metro 125;
#X floatatom 1306 -1107 5 0 0 0 - - -;
#X obj 1309 -1220 receive fileDuration;
#X obj 1306 -1143 expr $f2 / $f1;
#X obj 1230 -1191 loadbang;
#X obj 1225 -1167 samplerate~;
#X text 1275 -1127 normal speed for this sample!;
#X obj 1305 -1037 * 1, f 6;
#X obj 1308 -1072 t b f;
#X floatatom 1352 -1037 5 0 0 0 - - -;
#X text 1457 -1285 playback rate (1=normal);
#X obj 1402 -891 random 10;
#X floatatom 1605 -847 5 0 0 0 - - -;
#X floatatom 1605 -867 5 0 0 0 - - -;
#X obj 1641 -865 hsl 128 15 10 2000 1 0 empty empty empty -2 -8 0 10
-261682 -1 -1 5519 1;
#X obj 1826 -830 hsl 128 15 20 2000 0 0 empty empty 2000 10 8 0 10
-262130 -1 -1 3720 1;
#X obj 1472 -1160 hsl 128 15 -2 2 0 0 empty empty plbck_rate_(1=normal)
-2 8 0 10 -204786 -1 -1 0 1;
#X obj 1504 -1201 loadbang;
#X msg 1504 -1176 0.25;
#X floatatom 1758 -568 5 0 0 0 - - -;
#X obj 1823 -681 hsl 128 15 0.1 2 0 0 empty empty transpose 3 8 0 10
-204800 -1 -1 6016 1;
#X obj 1759 -548 s grain_transpose;
#X obj 2000 -676 loadbang;
#X msg 1969 -677 1;
#X msg 1967 -846 600;
#X obj 668 -1070 s fileDuration;
#X obj 1223 -1215 bng 15 250 50 0 empty empty empty 17 7 0 10 -262144
-1 -1;
#X floatatom 813 -742 12 0 0 0 - - -;
#X floatatom 1531 -833 5 0 0 0 - - -;
#X floatatom 996 -884 19 0 100 0 - - -;
#X obj 996 -909 / 1e-06;
#X obj 997 -1002 r tstlinegr;
#X msg 1541 -1176 1;
#X obj 148 626 *~ 0.5;
#X obj 1272 -1250 f;
#X floatatom 1382 -1166 5 0 0 0 - - -;
#X obj 1271 -1230 / 1;
#X obj 1212 -353 spigot~;
#X obj 995 -821 spigot-toggle_orange;
#X obj 727 -808 spigot~;
#X obj 817 -821 spigot-toggle_orange;
#X obj 1196 -828 tgl 15 0 empty empty granu_ou_pas 17 7 0 10 -4034
-1 -1 0 1;
#X obj 1002 -846 * -1;
#X obj 975 -846 - 1;
#X obj 1530 -858 r A;
#X obj 1590 -831 r T$;
#X obj 1402 -868 + 1;
#X obj 1212 -407 clone grain 16;
#X msg 1469 -1176 0;
#X obj 1258 -690 * 1;
#X obj 1466 -893 tgl 30 0 empty empty empty 17 7 0 10 -4034 -1 -1 0
1;
#X obj 1257 -667 spigot-toggle_red;
#X obj 1251 -451 tgl 15 0 empty empty empty 17 7 0 10 -260097 -1 -1
0 1;
#X obj 1213 -430 spigot~;
#X obj 1622 -832 spigot-toggle_red;
#X obj 1772 -867 spigot-toggle_red;
#X obj 761 -928 tgl 15 0 empty empty empty 17 7 0 10 -260097 -1 -1
0 1;
#X obj 723 -968 r~ ext1;
#X obj 721 -876 spigot~;
#X text 144 312 -2;
#X text 282 313 2;
#X text 153 271 playback speed;
#X obj 1248 -386 tgl 15 0 empty empty empty 17 7 0 10 -260097 -1 -1
0 1;
#X obj 767 -836 tgl 15 0 empty empty empty 17 7 0 10 -260097 -1 -1
0 1;
#X obj 1530 -809 spigot-toggle_red;
#X obj 1034 -955 receive fileDuration;
#X floatatom 1033 -930 10 0 0 0 - - -;
#X obj 17 -1265 receive fileDuration;
#X obj 192 159 tgl 23 0 empty empty empty 8 11 0 10 -1 -260097 -260097
0 1;
#X obj 191 147 tgl 23 0 empty empty empty 8 11 0 10 -1 -260097 -260097
0 1;
#X obj 721 -949 *~ 1;
#X obj 1530 -879 r Amod;
#X floatatom 1543 -956 5 0 0 0 - - -;
#X obj 1543 -935 t b f;
#X obj 1546 -912 *;
#X obj 1530 -785 spigot-toggle_red;
#X obj 1822 -754 hsl 128 15 0 2 0 1 empty empty %_+2 12 8 0 10 -4032
-1 -1 1200 0;
#X obj 1823 -736 hsl 128 15 0 400 0 0 empty empty + 12 8 0 10 -261234
-1 -1 0 0;
#X floatatom 1594 -755 5 0 0 0 - - -;
#X floatatom 1553 -594 5 0 0 0 - - -;
#X obj 1631 -736 hsl 128 15 0 1 0 0 empty empty +_target 12 8 0 10
-261234 -1 -1 0 0;
#X obj 1627 -644 t b f, f 6;
#X obj 1626 -623 +, f 6;
#X floatatom 1626 -602 5 0 0 0 - - -;
#X obj 1530 -762 spigot-toggle_red;
#X obj 1420 -588 f;
#X obj 1449 -587 + 1;
#X obj 1420 -568 mod;
#X obj 1420 -548 sel;
#X obj 1626 -772 hradio 15 1 0 9 empty empty empty 0 -8 0 10 -262144
-1 -1 8;
#X obj 1548 -639 random 1000;
#X obj 1552 -616 / 1000;
#X obj 1555 -573 * 1;
#X obj 1555 -553 * 1;
#X obj 1826 -847 hsl 128 15 20 10000 0 0 empty empty 10000 10 8 0 10
-262130 -1 -1 0 1;
#X obj 1681 -717 r A;
#X obj 1627 -716 spigot-toggle_red;
#X floatatom 1645 -715 5 0 0 0 - - -;
#X floatatom 1593 -771 5 0 0 0 - - -;
#X obj 1627 -695 spigot-toggle_red;
#X floatatom 1645 -694 5 0 0 0 - - -;
#X obj 1682 -695 r Amod;
#X obj 1626 -582 - 0.5;
#X floatatom 1251 -709 5 0 0 0 - - -;
#X obj 1255 -739 r Amod;
#X text 1705 -883 grain rate;
#X msg 1570 -1176 2;
#X obj 2003 -683 * 1;
#X obj 1641 -847 hsl 128 15 1 2000 1 1 empty empty jitter 3 8 0 10
-261682 -1 -1 0 1;
#X obj 1635 -1085 slowerscaletarget;
#X obj 1643 -953 hsl 128 15 0 1 0 1 empty empty % 12 8 0 10 -4032 -1
-1 10500 0;
#X obj 1643 -936 hsl 128 15 0 4000 0 0 empty empty + 12 8 0 10 -261234
-1 -1 0 0;
#X obj 1624 -953 tgl 15 0 empty empty ø 3 7 0 17 -258113 -1 -1 0 1
;
#X obj 1638 -970 hradio 15 1 0 9 empty empty empty 0 -8 0 10 -262144
-1 -1 8;
#X floatatom 1606 -970 5 0 0 0 - - -;
#X obj 1643 -919 hsl 128 15 0 2 0 0 empty empty glide 8 8 0 10 -204786
-1 -1 0 1;
#X obj 1624 -936 tgl 15 0 empty empty A 4 8 0 13 -258113 -1 -1 0 1
;
#X msg 1656 -1132 4000;
#X obj 1641 -830 hsl 128 15 0 6 0 1 empty empty *T 12 8 0 10 -262130
-1 -1 3700 0;
#X text 1550 -988 RDM+A grain rate scaled and targeted;
#X obj 1643 -902 hsl 128 15 0 2 0 1 empty empty * 12 8 0 10 -262130
-1 -1 700 0;
#X obj 1655 -1151 r lo;
#X obj 1818 -1054 slowerscaletarget;
#X obj 1827 -953 hsl 128 15 0 1 0 1 empty empty % 12 8 0 10 -4032 -1
-1 12700 0;
#X obj 1827 -936 hsl 128 15 0 2000 0 0 empty empty + 12 8 0 10 -261234
-1 -1 0 0;
#X obj 1808 -953 tgl 15 0 empty empty ø 3 7 0 17 -258113 -1 -1 0 1
;
#X obj 1822 -970 hradio 15 1 0 9 empty empty empty 0 -8 0 10 -262144
-1 -1 8;
#X floatatom 1789 -970 5 0 0 0 - - -;
#X obj 1827 -919 hsl 128 15 0 2 0 0 empty empty glide 8 8 0 10 -204786
-1 -1 0 1;
#X obj 1808 -936 tgl 15 0 empty empty A 4 8 0 13 -258113 -1 -1 0 1
;
#X msg 1819 -1129 4000;
#X obj 1827 -902 hsl 128 15 0 6 0 1 empty empty * 12 8 0 10 -262130
-1 -1 3300 0;
#X obj 1818 -1148 r lo;
#X obj 1810 -867 spigot-toggle_red;
#X obj 1755 -625 slowerscaletarget;
#X obj 1803 -754 tgl 15 0 empty empty ø 3 7 0 17 -258113 -1 -1 0 1
;
#X obj 1817 -772 hradio 15 1 0 9 empty empty empty 0 -8 0 10 -262144
-1 -1 17;
#X floatatom 1783 -772 5 0 0 0 - - -;
#X obj 1823 -717 hsl 128 15 0 2 0 0 empty empty glide 8 8 0 10 -204786
-1 -1 0 1;
#X obj 1804 -735 tgl 15 0 empty empty A 4 8 0 13 -258113 -1 -1 0 1
;
#X obj 1823 -699 hsl 128 15 0 2 0 1 empty empty * 12 8 0 10 -262130
-1 -1 6350 0;
#X obj 1720 -648 r lo;
#X obj 1631 -754 hsl 128 15 0 1 0 1 empty empty %_rdm_scale 12 8 0
10 -4032 -1 -1 3100 0;
#X obj 1123 -708 receive fileDuration;
#X obj 1825 -866 hsl 128 15 0 50 0 1 empty empty ratio_/_grain_rate
10 8 0 10 -257985 -1 -1 1700 0;
#X floatatom 1758 -606 5 0 0 0 - - -;
#X msg 1964 -714 1;
#X obj 1758 -587 * 0.01;
#X msg 1777 -918 1;
#X obj 2004 -642 line;
#X obj 2004 -664 pack f1 f2;
#X obj 2049 -796 t b f;
#X obj 2048 -773 * 1, f 6;
#X obj 1826 -811 hsl 128 15 0 8 0 0 empty empty glide 8 8 0 10 -204786
-1 -1 0 1;
#X obj 1968 -871 r lo;
#X obj 2048 -818 r jitermletroT;
#X text 1525 -712 Offset-;
#X text 1429 -712 -Bang Snapshot-;
#X msg 2014 -796 1;
#X obj 2094 -795 t b f;
#X obj 2092 -773 * 1, f 6;
#X obj 2058 -675 r lo;
#X obj 1585 -928 r lo;
#X obj 1584 -908 * 100;
#X obj 1506 -739 bng 15 250 50 0 empty empty empty 17 7 0 10 -4034
-1 -1;
#X obj 1468 -1202 r lo;
#X obj 1377 -800 r BB;
#X obj 1486 -786 bng 15 250 50 0 empty empty empty 17 7 0 10 -262144
-1 -1;
#X obj 1506 -785 spigot-toggle_red;
#X obj 1362 -846 s jitermletroT;
#X obj 1362 -821 s jitermletro;
#X text 1867 -883 grain duration;
#X floatatom 741 -1004 10 0 0 0 - - -;
#X floatatom -37 -839 12 0 0 0 - - -;
#X floatatom 61 -799 12 0 0 0 - - -;
#X obj 1214 -497 r~ ext1;
#X obj 1257 -568 loadbang;
#X obj 1252 -544 samplerate~;
#X obj 1252 -586 bng 15 250 50 0 empty empty empty 17 7 0 10 -262144
-1 -1;
#X obj 1214 -474 *~ 44.1;
#X obj 1253 -519 * 0.01;
#X obj 1377 -777 r BBmodulaire;
#X obj 1486 -763 bng 15 250 50 0 empty empty empty 17 7 0 10 -262144
-1 -1;
#X obj 1421 -608 r jitermletro;
#X msg 1960 -767 1;
#X msg 1721 -629 1000;
#X obj 1506 -809 spigot-toggle_red;
#X obj 1994 -850 t b f;
#X obj 1505 -762 spigot-toggle_red;
#X obj 1455 -453 granulation;
#X text 1830 -988 RDM+A grain duration;
#X text 1882 -789 RDM+A pitch;
#X text 1684 -789 RDM+A offset;
#X obj 1486 -809 bng 15 250 50 0 empty empty empty 17 7 0 10 -262144
-1 -1;
#X obj 1549 -739 bng 15 250 50 0 empty empty empty 17 7 0 10 -4034
-1 -1;
#X obj 1530 -739 spigot-toggle_red;
#X obj 85 -1061 r granuRDMoffset;
#X floatatom 84 -1031 12 0 0 0 - - -;
#X obj 1199 -857 r granuoupas;
#X connect 0 0 7 1;
#X connect 1 0 7 3;
#X connect 2 0 7 2;
#X connect 3 0 2 0;
#X connect 4 0 1 0;
#X connect 6 0 0 0;
#X connect 7 0 230 0;
#X connect 7 0 230 1;
#X connect 7 0 230 2;
#X connect 9 0 181 0;
#X connect 9 0 16 0;
#X connect 9 0 45 0;
#X connect 9 0 13 0;
#X connect 11 0 35 0;
#X connect 12 0 43 0;
#X connect 13 0 1 0;
#X connect 13 0 2 0;
#X connect 13 0 0 0;
#X connect 13 0 184 0;
#X connect 15 0 14 0;
#X connect 16 0 17 0;
#X connect 17 0 15 0;
#X connect 18 0 179 0;
#X connect 19 0 176 0;
#X connect 20 0 18 0;
#X connect 21 0 19 0;
#X connect 23 0 28 0;
#X connect 24 0 27 0;
#X connect 25 0 29 0;
#X connect 26 0 54 0;
#X connect 27 0 1 0;
#X connect 28 0 2 0;
#X connect 29 0 0 0;
#X connect 30 0 53 0;
#X connect 30 0 32 0;
#X connect 30 0 31 0;
#X connect 30 0 61 0;
#X connect 30 0 183 0;
#X connect 31 0 34 0;
#X connect 31 0 33 0;
#X connect 33 0 40 0;
#X connect 34 0 39 0;
#X connect 35 0 37 0;
#X connect 36 0 38 0;
#X connect 36 0 42 0;
#X connect 37 0 44 3;
#X connect 38 0 44 6;
#X connect 39 0 44 2;
#X connect 40 0 44 4;
#X connect 41 0 56 0;
#X connect 42 0 57 0;
#X connect 43 0 44 5;
#X connect 44 0 59 1;
#X connect 44 0 246 0;
#X connect 45 0 35 0;
#X connect 46 0 44 6;
#X connect 48 0 51 0;
#X connect 49 0 177 0;
#X connect 50 0 49 0;
#X connect 51 0 52 0;
#X connect 52 0 178 0;
#X connect 53 0 36 0;
#X connect 54 0 55 0;
#X connect 55 0 8 0;
#X connect 55 0 173 0;
#X connect 55 0 182 1;
#X connect 56 0 34 0;
#X connect 57 0 33 0;
#X connect 58 0 78 0;
#X connect 59 0 7 0;
#X connect 61 0 65 0;
#X connect 64 0 44 1;
#X connect 68 0 93 0;
#X connect 69 0 101 0;
#X connect 70 0 94 0;
#X connect 71 0 72 0;
#X connect 72 0 70 0;
#X connect 73 0 83 0;
#X connect 75 0 71 1;
#X connect 76 0 72 1;
#X connect 78 0 119 0;
#X connect 81 0 82 0;
#X connect 82 0 119 0;
#X connect 82 1 119 1;
#X connect 83 0 84 0;
#X connect 84 0 85 0;
#X connect 85 0 155 1;
#X connect 86 0 74 0;
#X connect 86 0 89 0;
#X connect 88 0 70 1;
#X connect 89 0 90 0;
#X connect 90 0 91 0;
#X connect 92 0 305 0;
#X connect 93 0 77 0;
#X connect 94 0 96 0;
#X connect 95 0 155 0;
#X connect 96 0 95 0;
#X connect 99 0 119 0;
#X connect 99 1 119 2;
#X connect 100 0 170 0;
#X connect 101 0 98 0;
#X connect 101 0 135 0;
#X connect 102 0 109 0;
#X connect 103 0 104 0;
#X connect 104 0 102 0;
#X connect 105 0 106 0;
#X connect 106 0 107 0;
#X connect 107 0 156 1;
#X connect 108 0 102 1;
#X connect 109 0 112 0;
#X connect 110 0 156 0;
#X connect 111 0 103 0;
#X connect 112 0 110 0;
#X connect 113 0 103 1;
#X connect 114 0 104 1;
#X connect 115 0 105 0;
#X connect 116 0 68 0;
#X connect 117 0 120 0;
#X connect 117 0 132 1;
#X connect 119 0 86 0;
#X connect 119 0 97 0;
#X connect 120 0 122 0;
#X connect 120 1 122 1;
#X connect 122 0 191 0;
#X connect 122 0 439 0;
#X connect 123 0 126 0;
#X connect 124 0 192 0;
#X connect 125 0 165 0;
#X connect 125 0 117 0;
#X connect 126 0 125 0;
#X connect 127 0 191 1;
#X connect 132 0 249 0;
#X connect 133 0 134 0;
#X connect 134 0 135 0;
#X connect 134 1 135 1;
#X connect 135 0 122 0;
#X connect 137 0 109 1;
#X connect 138 0 94 1;
#X connect 139 0 158 0;
#X connect 140 0 141 0;
#X connect 140 0 142 0;
#X connect 140 0 116 0;
#X connect 140 0 248 0;
#X connect 141 0 133 0;
#X connect 142 0 69 0;
#X connect 143 0 71 0;
#X connect 145 0 151 0;
#X connect 146 0 145 0;
#X connect 147 0 235 0;
#X connect 148 0 171 0;
#X connect 149 0 152 0;
#X connect 150 0 232 0;
#X connect 150 0 240 1;
#X connect 151 0 152 1;
#X connect 151 0 291 0;
#X connect 152 0 154 0;
#X connect 152 0 306 0;
#X connect 155 0 92 0;
#X connect 156 0 92 1;
#X connect 158 0 137 0;
#X connect 158 0 138 0;
#X connect 159 0 172 0;
#X connect 159 0 60 0;
#X connect 160 0 252 0;
#X connect 160 0 251 1;
#X connect 161 0 146 0;
#X connect 162 0 166 0;
#X connect 163 0 233 0;
#X connect 164 0 127 0;
#X connect 166 0 69 0;
#X connect 167 0 127 0;
#X connect 168 0 167 0;
#X connect 169 0 138 0;
#X connect 169 0 137 0;
#X connect 170 0 99 0;
#X connect 171 0 149 0;
#X connect 176 0 12 0;
#X connect 177 0 48 0;
#X connect 178 0 36 0;
#X connect 179 0 11 0;
#X connect 181 0 43 0;
#X connect 182 0 10 0;
#X connect 182 0 245 0;
#X connect 182 0 245 1;
#X connect 183 0 44 0;
#X connect 184 0 55 0;
#X connect 185 0 150 0;
#X connect 186 0 187 0;
#X connect 187 0 150 0;
#X connect 188 0 185 0;
#X connect 189 0 185 1;
#X connect 189 0 186 0;
#X connect 190 0 185 1;
#X connect 190 0 186 0;
#X connect 191 0 132 0;
#X connect 191 0 263 0;
#X connect 192 0 123 0;
#X connect 193 0 195 0;
#X connect 193 0 197 0;
#X connect 194 0 195 0;
#X connect 194 0 200 0;
#X connect 194 0 223 0;
#X connect 195 0 196 0;
#X connect 197 0 199 0;
#X connect 198 0 217 0;
#X connect 199 0 198 0;
#X connect 200 0 203 0;
#X connect 201 0 199 0;
#X connect 201 1 199 1;
#X connect 202 0 208 0;
#X connect 202 0 228 0;
#X connect 203 0 201 0;
#X connect 204 0 218 0;
#X connect 205 0 211 0;
#X connect 206 0 205 0;
#X connect 207 0 229 0;
#X connect 208 0 211 0;
#X connect 208 1 211 1;
#X connect 209 0 243 0;
#X connect 210 0 213 0;
#X connect 211 0 212 0;
#X connect 212 0 219 0;
#X connect 213 0 215 0;
#X connect 213 1 216 0;
#X connect 214 0 202 0;
#X connect 215 0 214 1;
#X connect 215 0 217 1;
#X connect 216 0 214 1;
#X connect 216 0 217 1;
#X connect 217 0 206 0;
#X connect 218 0 206 0;
#X connect 218 1 206 1;
#X connect 219 0 207 0;
#X connect 220 0 210 0;
#X connect 220 0 209 0;
#X connect 221 0 204 0;
#X connect 224 0 151 0;
#X connect 225 0 224 0;
#X connect 228 0 223 0;
#X connect 229 0 222 0;
#X connect 230 0 182 0;
#X connect 231 0 228 1;
#X connect 231 0 229 1;
#X connect 232 0 233 0;
#X connect 232 1 233 1;
#X connect 233 0 133 0;
#X connect 234 0 236 0;
#X connect 235 0 148 0;
#X connect 236 0 239 0;
#X connect 236 0 240 0;
#X connect 237 0 238 0;
#X connect 240 0 235 0;
#X connect 241 0 234 0;
#X connect 242 0 241 0;
#X connect 243 0 214 0;
#X connect 244 0 150 0;
#X connect 247 0 296 0;
#X connect 248 0 249 2;
#X connect 249 0 255 0;
#X connect 250 0 160 0;
#X connect 251 0 253 0;
#X connect 252 0 251 0;
#X connect 253 0 234 1;
#X connect 254 0 192 1;
#X connect 255 0 87 0;
#X connect 255 0 130 0;
#X connect 256 0 257 0;
#X connect 258 0 261 0;
#X connect 260 0 259 0;
#X connect 261 0 313 1;
#X connect 263 0 265 0;
#X connect 264 0 263 1;
#X connect 265 0 258 0;
#X connect 266 0 459 0;
#X connect 267 0 273 0;
#X connect 268 0 269 0;
#X connect 268 0 300 1;
#X connect 269 0 267 0;
#X connect 270 0 271 0;
#X connect 271 0 269 1;
#X connect 273 0 262 0;
#X connect 274 0 273 0;
#X connect 274 1 273 1;
#X connect 275 0 274 0;
#X connect 277 0 312 0;
#X connect 278 0 277 1;
#X connect 279 0 312 1;
#X connect 280 0 279 0;
#X connect 280 0 321 0;
#X connect 281 0 260 0;
#X connect 282 0 275 0;
#X connect 283 0 284 0;
#X connect 284 0 275 0;
#X connect 285 0 287 0;
#X connect 286 0 285 0;
#X connect 288 0 289 0;
#X connect 289 0 286 0;
#X connect 290 0 281 0;
#X connect 292 0 271 0;
#X connect 292 0 300 0;
#X connect 293 0 157 0;
#X connect 293 0 159 0;
#X connect 294 0 262 1;
#X connect 295 0 304 0;
#X connect 296 0 295 0;
#X connect 297 0 247 0;
#X connect 298 0 275 0;
#X connect 299 0 59 0;
#X connect 300 0 302 0;
#X connect 301 0 269 1;
#X connect 302 0 269 0;
#X connect 303 0 299 0;
#X connect 304 0 293 0;
#X connect 305 0 59 0;
#X connect 306 0 293 0;
#X connect 307 0 306 1;
#X connect 307 0 309 0;
#X connect 307 0 322 0;
#X connect 307 0 329 0;
#X connect 308 0 318 0;
#X connect 308 0 328 0;
#X connect 308 0 304 1;
#X connect 309 0 308 0;
#X connect 310 0 341 0;
#X connect 311 0 320 0;
#X connect 312 0 435 0;
#X connect 312 0 266 1;
#X connect 313 0 303 0;
#X connect 314 0 275 0;
#X connect 315 0 317 0;
#X connect 316 0 266 0;
#X connect 317 0 258 0;
#X connect 318 0 319 2;
#X connect 319 0 313 0;
#X connect 320 0 340 0;
#X connect 321 0 373 0;
#X connect 322 0 324 2;
#X connect 323 0 336 0;
#X connect 324 0 255 1;
#X connect 328 0 303 2;
#X connect 329 0 305 2;
#X connect 330 0 294 0;
#X connect 331 0 332 0;
#X connect 332 0 296 1;
#X connect 333 0 124 0;
#X connect 336 0 324 0;
#X connect 337 0 330 0;
#X connect 338 0 339 0;
#X connect 339 0 340 0;
#X connect 339 1 340 1;
#X connect 340 0 280 0;
#X connect 341 0 294 0;
#X connect 342 0 400 3;
#X connect 343 0 400 4;
#X connect 344 0 358 1;
#X connect 344 0 359 1;
#X connect 345 0 358 0;
#X connect 346 0 347 0;
#X connect 347 0 348 0;
#X connect 347 1 348 1;
#X connect 348 0 349 0;
#X connect 349 0 368 0;
#X connect 350 0 294 0;
#X connect 351 0 352 0;
#X connect 351 0 353 0;
#X connect 352 0 351 1;
#X connect 353 0 354 0;
#X connect 354 0 460 0;
#X connect 355 0 353 1;
#X connect 356 0 357 0;
#X connect 357 0 345 0;
#X connect 358 0 359 0;
#X connect 359 0 348 0;
#X connect 360 0 260 0;
#X connect 361 0 363 0;
#X connect 362 0 346 0;
#X connect 363 0 362 0;
#X connect 364 0 355 0;
#X connect 365 0 346 0;
#X connect 366 0 365 0;
#X connect 367 0 366 0;
#X connect 368 0 350 0;
#X connect 369 0 315 0;
#X connect 370 0 369 0;
#X connect 372 0 275 0;
#X connect 373 0 416 0;
#X connect 374 0 278 0;
#X connect 375 0 280 0;
#X connect 376 0 375 3;
#X connect 377 0 375 4;
#X connect 378 0 375 1;
#X connect 379 0 375 2;
#X connect 379 0 426 0;
#X connect 380 0 379 0;
#X connect 381 0 375 5;
#X connect 382 0 375 6;
#X connect 383 0 375 0;
#X connect 384 0 338 0;
#X connect 386 0 375 7;
#X connect 387 0 383 0;
#X connect 388 0 399 0;
#X connect 389 0 388 3;
#X connect 390 0 388 4;
#X connect 391 0 388 1;
#X connect 392 0 388 2;
#X connect 393 0 392 0;
#X connect 394 0 388 5;
#X connect 395 0 388 6;
#X connect 396 0 388 0;
#X connect 397 0 388 7;
#X connect 398 0 396 0;
#X connect 399 0 373 0;
#X connect 400 0 411 0;
#X connect 401 0 400 1;
#X connect 402 0 400 2;
#X connect 403 0 402 0;
#X connect 404 0 400 5;
#X connect 405 0 400 6;
#X connect 406 0 400 7;
#X connect 407 0 451 0;
#X connect 408 0 344 0;
#X connect 409 0 315 1;
#X connect 410 0 453 0;
#X connect 411 0 413 0;
#X connect 412 0 406 0;
#X connect 413 0 285 0;
#X connect 414 0 386 0;
#X connect 415 0 360 0;
#X connect 416 0 415 0;
#X connect 417 0 418 0;
#X connect 417 1 418 1;
#X connect 418 0 425 0;
#X connect 419 0 417 0;
#X connect 420 0 290 0;
#X connect 421 0 418 0;
#X connect 424 0 373 1;
#X connect 425 0 426 0;
#X connect 425 1 426 1;
#X connect 426 0 416 1;
#X connect 427 0 289 0;
#X connect 428 0 429 0;
#X connect 429 0 280 0;
#X connect 430 0 277 0;
#X connect 430 0 436 0;
#X connect 430 0 265 0;
#X connect 431 0 284 0;
#X connect 432 0 433 0;
#X connect 433 0 434 0;
#X connect 434 0 430 0;
#X connect 438 0 336 1;
#X connect 439 0 438 0;
#X connect 441 0 445 0;
#X connect 442 0 443 0;
#X connect 443 0 446 0;
#X connect 444 0 443 0;
#X connect 445 0 319 0;
#X connect 446 0 445 1;
#X connect 447 0 448 0;
#X connect 448 0 454 0;
#X connect 449 0 351 0;
#X connect 450 0 342 0;
#X connect 451 0 400 0;
#X connect 452 0 430 0;
#X connect 453 0 373 0;
#X connect 453 1 373 1;
#X connect 454 0 430 0;
#X connect 459 0 452 0;
#X connect 460 0 461 0;
#X connect 460 0 356 0;
#X connect 461 0 430 0;
#X connect 462 0 463 0;
#X connect 463 0 191 1;
#X connect 464 0 307 0;
#X coords 0 -1 1 1 507 178 1 100 100;
