#N canvas 142 0 906 623 10;
#X obj -157 113 vfreeverb~;
#X obj 449 -312 inlet;
#X obj 489 -312 inlet;
#X obj 539 -312 inlet;
#X obj 409 -312 inlet;
#X obj -165 183 dj-eq;
#X obj -161 156 *~;
#X obj -165 213 dac~;
#X floatatom -547 -875 4 0 100 0 - - -;
#X floatatom -549 -952 0 0 200 0 - - -;
#X obj -847 -498 +~;
#X obj -848 -566 samphold~;
#X obj -847 -532 *~;
#X floatatom -549 -985 0 0 0 0 - - -;
#X text -903 -1291 chunk size;
#X text -906 -1277 in seconds;
#X obj -852 -1217 t b f;
#X obj -637 -435 -~ 0.5;
#X obj -637 -401 *~ 0.5;
#X obj -637 -368 cos~;
#X obj -864 -1137 phasor~;
#X obj -782 -1102 +~ 0.5;
#X obj -781 -1077 wrap~;
#X obj -810 -312 +~;
#X obj -552 -784 * 0.001;
#X obj -827 -871 phasor~;
#X obj -847 -464 *~ 44100;
#X obj -848 -428 +~ 1;
#X floatatom -782 -1153 5 0 0 0 - - -;
#X obj -739 -1218 t b f;
#X obj -828 -990 * 0.01;
#X obj -541 -460 +~;
#X obj -532 -518 samphold~;
#X obj -541 -494 *~;
#X obj -363 -374 -~ 0.5;
#X obj -363 -340 *~ 0.5;
#X obj -363 -308 cos~;
#X obj -531 -416 *~ 44100;
#X obj -542 -380 +~ 1;
#X msg -547 -1017 25;
#X floatatom -548 -1213 12 0 900 0 - - -;
#X obj -548 -1183 * 0.001;
#X text -507 -877 <-- chunk size (msec);
#X obj -864 -1185 expr (pow(2 \, $f1/120)-$f3)/$f2;
#X obj -548 -1133 t b f;
#X text -423 -1320 (msec);
#X obj -825 -906 /;
#X floatatom -548 -1377 12 0 0 0 - - -;
#X floatatom -548 -1447 12 0 0 0 - - -;
#X msg -548 -1245 900;
#X obj -435 -1265 loadbang;
#X floatatom -547 -1319 12 0 0 0 - - -;
#X obj -547 -1414 / 44103;
#X obj -547 -1344 * 1000;
#X floatatom -546 -844 4 0 900 0 - - -;
#X text -495 -1342 <-- loop length;
#X text -513 -953 <-- speed \, percent;
#X text -507 -845 <-- position \, 0-1;
#X obj -824 -842 *~ 1;
#X floatatom -546 -909 0 0 0 0 - - -;
#X obj -826 -958 t b f;
#X obj -826 -931 * 1;
#X text -509 -990 <-- pitch \, 0= norm \, >0= aigues;
#X floatatom -479 -582 0 0 0 0 - - -;
#X floatatom -534 -582 0 0 0 0 - - -;
#X obj -620 -612 loadbang;
#X obj -509 -1078 loadbang;
#X msg -548 -1053 0.5;
#X msg -547 -1077 100;
#X obj -848 -601 r chunk-size;
#X text -510 -818 <-- trgr on/off;
#X obj -544 -1554 soundfiler;
#X text -452 -1615 v-- re-read original table;
#X obj 131 -1645 snapshot~;
#X floatatom 131 -1618 12 0 0 0 - - -;
#X floatatom 132 -1572 12 0 0 0 - - -;
#X obj 169 -1691 tgl 15 0 empty empty empty 17 7 0 10 -262144 -1 -1
0 1;
#X obj 145 -1672 metro 44;
#X floatatom -545 -1514 12 0 0 0 - - -;
#X obj 133 -1527 /;
#X text -508 -922 <-- pitch & speed \, norm= 1;
#X obj 170 -1750 loadbang;
#X obj 180 -1547 outlet;
#X obj -810 -344 *~;
#X obj -541 -312 *~;
#X obj 132 -1596 * 44100;
#X obj -762 -870 - 0;
#X msg -620 -585 44100;
#X floatatom 131 -1466 5 0 0 2 pos1 - -;
#X msg -508 -1245 47191;
#X msg -438 -1245 0;
#X obj -821 -811 *~ 1;
#X floatatom 333 -1699 4 0 0 0 f.r - -;
#X obj -814 90 *~;
#X floatatom -577 -24 5 0 4 0 - - -;
#X floatatom -544 -24 5 0 0 0 - - -;
#X floatatom -469 -24 5 0 0 0 - - -;
#X floatatom -505 -24 5 0 0 0 - - -;
#X floatatom -429 -24 5 0 0 0 - - -;
#X obj 110 -310 inlet;
#X obj 70 -307 inlet;
#X obj 212 -1672 + 2;
#X obj -293 -937 * 100;
#X obj 128 -258 r lo;
#X obj 116 -231 - 1;
#X obj 115 -210 * -1;
#X obj -34 -774 * 0.01;
#X obj -158 -944 r pitchB;
#X obj -158 -914 r speedB;
#X obj -158 -884 r pitchNspeedB;
#X obj -849 -739 s~ sample.pos11;
#X obj -555 -759 s chunk-size1;
#X obj -781 -1052 s~ phase21;
#X obj -869 -1095 s~ phase1;
#X obj -852 -1242 r chunk-size1;
#X obj -739 -1243 r precession1;
#X obj -770 -988 s precession1;
#X obj -328 -1308 s looplenghtB;
#X obj -821 -772 s~ read-pt1;
#X msg -264 -1583 read -resize \$1 table24;
#X obj 167 -1496 s posvisu1;
#X obj 131 -1714 receive~ sample.pos11;
#X obj 334 -1724 r frB;
#X obj -393 -408 r~ phase21;
#X obj -444 -517 r~ phase21;
#X obj -496 -493 r~ phase21;
#X obj -493 -460 r~ read-pt1;
#X obj -532 -543 r chunk-size1;
#X obj -541 -346 tabread4~ table24;
#X obj -637 -469 r~ phase1;
#X obj -847 -394 tabread4~ table24;
#X obj -809 -498 r~ read-pt1;
#X obj -812 -531 r~ phase1;
#X obj -752 -569 r~ phase1;
#X obj -86 206 s~ A1;
#X obj -540 36 env_inout1;
#X obj 324 -1745 r øAtiTS2;
#X obj 244 -1745 r øAtiTS1>ø;
#X obj -635 79 r øAtiTS2;
#X obj 432 216 s opa1;
#X obj 432 191 s V1B;
#X floatatom 281 50 12 0 0 0 - - -;
#X obj 294 -172 ctlin 23;
#X obj 43 277 * 1;
#X obj 44 243 * 0.00787402;
#X floatatom 44 307 5 0 0 0 - - -;
#X obj 45 205 ctlin 19;
#X floatatom 294 -99 12 0 0 0 - - -;
#X obj 296 -136 - 127;
#X floatatom 290 -52 12 0 0 0 - - -;
#X floatatom 301 -194 12 0 0 0 - - -;
#X obj 290 -75 * 0.00787402;
#X obj 277 25 * -1;
#X floatatom -116 135 5 0 0 0 - - -;
#X obj -36 -804 r directinB;
#X obj -157 -854 r posB;
#X floatatom -574 73 12 0 0 0 - - -;
#X obj -623 109 pack f f;
#X obj -622 135 vline~;
#X obj -812 171 *~;
#X obj 19 -930 t b f;
#X obj 21 -877 * 1;
#X obj -577 -54 r T$mod1;
#X obj -162 136 *~ -1;
#X obj 238 255 s envfadreducout1;
#X obj 129 255 s envfadreducin1;
#X obj 208 148 hsl 100 15 0 1 0 0 empty empty cut_out 3 7 1 10 -1 -262144
-262144 9900 1;
#X obj 103 148 hsl 100 15 0 1 0 0 empty empty cut_in 3 7 1 10 -1 -262144
-262144 0 1;
#X obj 369 103 vsl 20 70 0.02 2 1 0 empty empty empty 12 12 0 10 -1
-262144 -1 5861 1;
#X obj 411 103 vsl 20 70 0.02 2 1 0 empty empty empty 12 12 0 10 -1
-262144 -1 5861 1;
#X obj 390 103 vsl 20 70 0.02 2 1 0 empty empty empty 12 12 0 10 -1
-262144 -1 5861 1;
#X obj 103 129 hsl 100 18 0 1 0 0 empty empty fade_in 3 7 1 10 -260097
-262144 -262144 0 1;
#X obj 208 129 hsl 100 18 1 0 0 0 empty empty fade_out 3 7 1 10 -260097
-262144 -262144 9900 1;
#X obj 432 103 vsl 30 70 0 2 0 0 empty empty gain 6 6 0 7 -1 -260097
-260097 3450 1;
#X obj 466 141 hsl 145 17 0 1 0 1 empty empty 'roomsize' 3 8 0 10 -1
-260097 -262144 0 0;
#X obj 466 159 hsl 145 17 0 2 0 1 empty empty damp 3 8 0 10 -1 -260097
-262144 3400 0;
#X obj 466 121 hsl 145 19 0 1 0 1 empty empty wet_reverb 3 8 0 10 -1
-260097 -262144 0 0;
#X obj 466 101 hsl 145 19 0 1 0 1 empty empty dry 3 8 0 10 -1 -260097
-262144 0 0;
#X obj 338 101 bng 30 250 50 0 empty empty RST 7 15 0 8 -1 -4034 -260097
;
#X obj 103 101 hsl 206 13 0 1 0 0 empty empty O:::::::::::::÷::sharpness::::::::::::::1
0 4 0 8 -1 -258113 -191407 4100 1;
#X obj 103 115 hsl 100 13 0 1 0 0 empty empty ::::::::::::::::::::::
-2 5 0 8 -1 -258113 -191407 1980 1;
#X obj 208 115 hsl 100 13 0 1 0 0 empty empty ::::::::::::::::::::
0 5 0 8 -1 -258113 -191407 1980 1;
#X floatatom 311 132 7 0 0 3 - - -;
#X obj 351 130 tgl 17 0 empty empty empty 18 7 0 10 -1 -262144 -1 1
1;
#X obj 311 101 bng 30 250 50 0 empty empty MUTE 5 15 0 8 -1 -4034 -260097
;
#X obj 310 146 cnv 15 58 30 empty empty <-TIME-<- 2 10 1 10 -1 -262144
0;
#X obj 398 -13 spigot-toggle_red;
#X obj 402 15 s envRNGmidiloopB;
#X msg 316 211 0;
#X msg 345 210 1;
#X msg 659 84 1;
#X obj 658 59 r lo;
#X msg 179 35 0.2;
#X obj 179 15 r lo;
#X obj 399 -44 r T1;
#X obj -679 -51 r BangBtoenvB;
#X obj -274 -1687 r soundfileB;
#X msg 659 122 0.5;
#X msg 659 103 0;
#X obj 569 567 spigot-toggle_orange;
#X obj 569 544 spigot-toggle_vert;
#X obj 569 520 spigot-toggle_red;
#X obj 569 623 * 1;
#X obj 535 568 spigot-toggle_orange;
#X obj 535 544 spigot-toggle_vert;
#X obj 534 520 spigot-toggle_red;
#X obj 535 621 * 1;
#X obj 569 591 spigot-toggle_orange;
#X obj 536 590 spigot-toggle_orange;
#X obj 597 611 - 1;
#X obj 598 642 * -1;
#X obj 101 164 tgl 12 0 empty empty A 3 6 0 10 -1 -262144 -260097 0
1;
#X obj 114 164 tgl 12 0 empty empty B 3 6 0 10 -1 -262144 -260097 0
1;
#X obj 127 164 tgl 12 0 empty empty a' 2 6 0 10 -1 -262144 -260097
0 1;
#X obj 140 164 tgl 12 0 empty empty b' 2 6 0 10 -1 -262144 -260097
0 1;
#X obj 207 164 tgl 12 0 empty empty A 3 6 0 10 -1 -262144 -260097 0
1;
#X obj 220 164 tgl 12 0 empty empty B 3 6 0 10 -1 -262144 -260097 0
1;
#X obj 233 164 tgl 12 0 empty empty a' 2 6 0 10 -1 -262144 -260097
0 1;
#X obj 246 164 tgl 12 0 empty empty b' 2 6 0 10 -1 -262144 -260097
0 1;
#X obj 559 389 spigot-toggle_orange;
#X obj 559 366 spigot-toggle_vert;
#X obj 559 342 spigot-toggle_red;
#X obj 556 443 * 1;
#X obj 525 390 spigot-toggle_orange;
#X obj 525 366 spigot-toggle_vert;
#X obj 524 342 spigot-toggle_red;
#X obj 525 443 * 1;
#X obj 560 292 r fll1;
#X obj 558 266 r fll0;
#X obj 559 413 spigot-toggle_orange;
#X obj 526 412 spigot-toggle_orange;
#X obj 559 223 r A;
#X obj 559 247 r B;
#X obj 153 164 tgl 12 0 empty empty A 3 6 0 10 -1 -262144 -191407 0
1;
#X obj 165 164 tgl 12 0 empty empty B 3 6 0 10 -1 -262144 -191407 0
1;
#X obj 178 164 tgl 12 0 empty empty a' 2 6 0 10 -1 -262144 -191407
0 1;
#X obj 191 164 tgl 12 0 empty empty b' 2 6 0 10 -1 -262144 -191407
0 1;
#X obj 259 164 tgl 12 0 empty empty A 3 6 0 10 -1 -262144 -191407 0
1;
#X obj 272 164 tgl 12 0 empty empty B 3 6 0 10 -1 -262144 -191407 0
1;
#X obj 285 164 tgl 12 0 empty empty a' 2 6 0 10 -1 -262144 -191407
0 1;
#X obj 298 164 tgl 12 0 empty empty b' 2 6 0 10 -1 -262144 -191407
0 1;
#X floatatom 598 663 5 0 0 0 - - -;
#X floatatom -52 -1301 12 0 0 0 - - -;
#X obj -57 -1413 bng 15 250 50 0 empty empty empty 17 7 0 10 -262144
-1 -1;
#X msg -58 -1355 1;
#X obj -2 -1378 delay;
#X msg -3 -1355 0;
#X floatatom 28 -1405 12 0 0 0 - - -;
#X obj -53 -1449 spigot-toggle_red;
#X msg -140 -1342 1;
#X obj -195 -1368 sel;
#X obj -183 -1309 f;
#X obj -198 -1344 delay;
#X obj -141 -1373 bng 15 250 50 0 empty empty empty 17 7 0 10 -262144
-1 -1;
#X obj -52 -1268 s øs@Bgate;
#X msg -693 198 1;
#X floatatom 327 -1655 4 0 0 0 f.r - -;
#X obj -8 -1415 bng 15 250 50 0 empty empty empty 17 7 0 10 -262144
-1 -1;
#X obj -24 -1452 r ø@S1;
#X obj 328 -1678 / 0.6;
#X obj -52 -1478 r øSbangB;
#X obj -272 -1446 * 0.5;
#X obj -10 -1325 spigot-toggle_red;
#X connect 0 0 163 0;
#X connect 1 0 170 0;
#X connect 2 0 169 0;
#X connect 3 0 173 0;
#X connect 4 0 168 0;
#X connect 5 0 7 0;
#X connect 5 0 7 1;
#X connect 5 0 134 0;
#X connect 6 0 5 0;
#X connect 8 0 24 0;
#X connect 9 0 30 0;
#X connect 10 0 26 0;
#X connect 11 0 12 0;
#X connect 12 0 10 0;
#X connect 13 0 43 0;
#X connect 16 0 43 0;
#X connect 16 1 43 1;
#X connect 17 0 18 0;
#X connect 18 0 19 0;
#X connect 19 0 83 1;
#X connect 20 0 21 0;
#X connect 20 0 113 0;
#X connect 21 0 22 0;
#X connect 22 0 112 0;
#X connect 23 0 93 0;
#X connect 24 0 111 0;
#X connect 25 0 58 0;
#X connect 26 0 27 0;
#X connect 27 0 130 0;
#X connect 29 0 43 0;
#X connect 29 1 43 2;
#X connect 30 0 61 0;
#X connect 30 0 116 0;
#X connect 31 0 37 0;
#X connect 32 0 33 0;
#X connect 33 0 31 0;
#X connect 34 0 35 0;
#X connect 35 0 36 0;
#X connect 36 0 84 1;
#X connect 37 0 38 0;
#X connect 38 0 128 0;
#X connect 39 0 8 0;
#X connect 40 0 41 0;
#X connect 41 0 44 0;
#X connect 41 0 58 1;
#X connect 43 0 20 0;
#X connect 43 0 28 0;
#X connect 44 0 46 0;
#X connect 44 1 46 1;
#X connect 46 0 25 0;
#X connect 47 0 53 0;
#X connect 48 0 52 0;
#X connect 50 0 49 0;
#X connect 51 0 40 0;
#X connect 51 0 117 0;
#X connect 51 0 261 0;
#X connect 52 0 47 0;
#X connect 53 0 51 0;
#X connect 54 0 86 0;
#X connect 58 0 91 0;
#X connect 59 0 60 0;
#X connect 60 0 61 0;
#X connect 60 1 61 1;
#X connect 61 0 46 0;
#X connect 63 0 37 1;
#X connect 64 0 26 1;
#X connect 65 0 87 0;
#X connect 66 0 67 0;
#X connect 66 0 68 0;
#X connect 66 0 39 0;
#X connect 67 0 59 0;
#X connect 68 0 9 0;
#X connect 69 0 11 0;
#X connect 71 0 78 0;
#X connect 73 0 74 0;
#X connect 74 0 85 0;
#X connect 75 0 79 0;
#X connect 76 0 77 0;
#X connect 76 0 160 0;
#X connect 77 0 73 0;
#X connect 78 0 79 1;
#X connect 78 0 48 0;
#X connect 79 0 82 0;
#X connect 79 0 88 0;
#X connect 79 0 120 0;
#X connect 81 0 76 0;
#X connect 83 0 23 0;
#X connect 84 0 23 1;
#X connect 85 0 75 0;
#X connect 86 0 25 1;
#X connect 87 0 63 0;
#X connect 87 0 64 0;
#X connect 89 0 40 0;
#X connect 90 0 40 0;
#X connect 91 0 110 0;
#X connect 91 0 118 0;
#X connect 92 0 259 0;
#X connect 93 0 159 0;
#X connect 94 0 135 1;
#X connect 94 0 156 0;
#X connect 95 0 135 2;
#X connect 96 0 135 4;
#X connect 97 0 135 3;
#X connect 98 0 135 5;
#X connect 99 0 104 0;
#X connect 100 0 171 0;
#X connect 101 0 77 1;
#X connect 102 0 9 0;
#X connect 103 0 104 0;
#X connect 104 0 105 0;
#X connect 105 0 172 0;
#X connect 106 0 54 0;
#X connect 107 0 13 0;
#X connect 108 0 102 0;
#X connect 109 0 161 0;
#X connect 114 0 16 0;
#X connect 115 0 29 0;
#X connect 119 0 71 0;
#X connect 121 0 73 0;
#X connect 122 0 92 0;
#X connect 123 0 34 0;
#X connect 124 0 32 1;
#X connect 125 0 33 1;
#X connect 126 0 31 1;
#X connect 127 0 32 0;
#X connect 128 0 84 0;
#X connect 129 0 17 0;
#X connect 130 0 83 0;
#X connect 131 0 10 1;
#X connect 132 0 12 1;
#X connect 133 0 11 1;
#X connect 135 0 93 1;
#X connect 136 0 76 0;
#X connect 137 0 76 0;
#X connect 138 0 157 0;
#X connect 141 0 172 0;
#X connect 142 0 148 0;
#X connect 143 0 145 0;
#X connect 144 0 143 0;
#X connect 145 0 171 0;
#X connect 146 0 144 0;
#X connect 147 0 151 0;
#X connect 148 0 147 0;
#X connect 149 0 152 0;
#X connect 150 0 148 0;
#X connect 151 0 149 0;
#X connect 152 0 141 0;
#X connect 153 0 163 1;
#X connect 154 0 106 0;
#X connect 155 0 54 0;
#X connect 156 0 157 1;
#X connect 157 0 158 0;
#X connect 158 0 159 1;
#X connect 159 0 0 0;
#X connect 160 0 161 0;
#X connect 160 1 161 1;
#X connect 161 0 59 0;
#X connect 162 0 94 0;
#X connect 163 0 6 0;
#X connect 166 0 96 0;
#X connect 167 0 95 0;
#X connect 168 0 5 1;
#X connect 169 0 5 3;
#X connect 170 0 5 2;
#X connect 171 0 97 0;
#X connect 172 0 98 0;
#X connect 173 0 6 1;
#X connect 173 0 140 0;
#X connect 173 0 139 0;
#X connect 174 0 0 1;
#X connect 175 0 0 2;
#X connect 176 0 0 4;
#X connect 177 0 0 3;
#X connect 178 0 189 0;
#X connect 178 0 198 0;
#X connect 179 0 180 0;
#X connect 179 0 181 0;
#X connect 180 0 165 0;
#X connect 181 0 164 0;
#X connect 182 0 187 0;
#X connect 183 0 186 1;
#X connect 184 0 188 0;
#X connect 186 0 182 0;
#X connect 188 0 177 0;
#X connect 188 0 176 0;
#X connect 188 0 173 0;
#X connect 189 0 176 0;
#X connect 190 0 168 0;
#X connect 190 0 170 0;
#X connect 190 0 169 0;
#X connect 190 0 173 0;
#X connect 191 0 190 0;
#X connect 191 0 197 0;
#X connect 191 0 198 0;
#X connect 192 0 179 0;
#X connect 193 0 192 0;
#X connect 193 0 183 0;
#X connect 193 0 166 0;
#X connect 194 0 186 0;
#X connect 195 0 135 0;
#X connect 196 0 119 0;
#X connect 197 0 177 0;
#X connect 198 0 176 0;
#X connect 198 0 174 0;
#X connect 199 0 202 0;
#X connect 200 0 202 0;
#X connect 201 0 202 0;
#X connect 202 0 209 0;
#X connect 202 0 172 0;
#X connect 203 0 206 0;
#X connect 204 0 206 0;
#X connect 205 0 206 0;
#X connect 206 0 171 0;
#X connect 207 0 202 0;
#X connect 208 0 206 0;
#X connect 209 0 210 0;
#X connect 210 0 241 0;
#X connect 211 0 205 1;
#X connect 212 0 204 1;
#X connect 213 0 203 1;
#X connect 214 0 208 1;
#X connect 215 0 201 1;
#X connect 216 0 200 1;
#X connect 217 0 199 1;
#X connect 218 0 207 1;
#X connect 219 0 222 0;
#X connect 220 0 222 0;
#X connect 221 0 222 0;
#X connect 222 0 166 0;
#X connect 223 0 226 0;
#X connect 224 0 226 0;
#X connect 225 0 226 0;
#X connect 226 0 167 0;
#X connect 227 0 230 0;
#X connect 227 0 229 0;
#X connect 227 0 208 0;
#X connect 227 0 207 0;
#X connect 228 0 223 0;
#X connect 228 0 219 0;
#X connect 228 0 203 0;
#X connect 228 0 199 0;
#X connect 229 0 222 0;
#X connect 230 0 226 0;
#X connect 231 0 225 0;
#X connect 231 0 221 0;
#X connect 231 0 205 0;
#X connect 231 0 201 0;
#X connect 232 0 224 0;
#X connect 232 0 220 0;
#X connect 232 0 204 0;
#X connect 232 0 200 0;
#X connect 233 0 225 1;
#X connect 234 0 224 1;
#X connect 235 0 223 1;
#X connect 236 0 230 1;
#X connect 237 0 221 1;
#X connect 238 0 220 1;
#X connect 239 0 219 1;
#X connect 240 0 229 1;
#X connect 242 0 254 0;
#X connect 243 0 244 0;
#X connect 243 0 257 0;
#X connect 244 0 242 0;
#X connect 245 0 246 0;
#X connect 246 0 242 0;
#X connect 247 0 245 1;
#X connect 247 0 252 1;
#X connect 248 0 243 0;
#X connect 249 0 251 1;
#X connect 250 0 253 0;
#X connect 250 0 252 0;
#X connect 251 0 242 0;
#X connect 252 0 251 0;
#X connect 253 0 249 0;
#X connect 255 0 157 0;
#X connect 256 0 101 0;
#X connect 257 0 245 0;
#X connect 258 0 248 1;
#X connect 258 0 244 0;
#X connect 258 0 250 0;
#X connect 259 0 256 0;
#X connect 260 0 248 0;
#X connect 261 0 247 0;
#X coords 0 -1 1 1 514 77 1 100 100;
