#N canvas 741 72 906 777 10;
#X obj 182 240 hsl 70 20 0 1 0 0 empty empty cut_out 3 7 0 10 -1 -262144
-262144 6900 1;
#X obj 105 240 hsl 70 20 0 1 0 0 empty empty cut_in 3 7 0 10 -1 -262144
-262144 0 1;
#X obj 103 104 vsl 15 90 0.02 2 1 0 empty empty empty 12 12 0 10 -1
-262144 -1 7560 1;
#X obj 137 104 vsl 15 90 0.02 2 1 0 empty empty empty 12 12 0 10 -1
-262144 -1 6667 1;
#X obj 120 104 vsl 15 90 0.02 2 1 0 empty empty empty 12 12 0 10 -1
-262144 -1 7560 1;
#X obj 105 219 hsl 70 20 0 1 0 0 empty empty fade_in 3 7 0 10 -228856
-1 -1 652 1;
#X obj 182 219 hsl 70 20 1 0 0 0 empty empty fadeNcut_out -1 7 0 10
-228856 -1 -1 6411 1;
#X obj 156 104 vsl 20 72 0 2 0 0 empty empty VL 3 6 0 10 -1 -262144
-1 0 1;
#X obj 94 435 vfreeverb~;
#X obj 183 138 hsl 70 15 0 1 0 1 empty empty 'roomsize' 3 8 0 10 -262144
-260097 -1 0 0;
#X obj 183 155 hsl 70 15 0 2 0 1 empty empty damp 3 8 0 10 -262144
-260097 -1 1600 0;
#X obj 183 120 hsl 70 15 0 1 0 1 empty empty wet_reverb 3 8 0 10 -262144
-260097 -1 0 0;
#X obj 183 102 hsl 70 15 0 1 0 1 empty empty dry 3 8 0 10 -262144 -260097
-1 900 0;
#X obj 86 61 inlet;
#X obj 126 61 inlet;
#X obj 176 61 inlet;
#X obj 46 61 inlet;
#X obj 52 546 dj-eq;
#X obj 49 509 *~;
#X obj 119 494 dac~;
#X obj 91 354 s V1A;
#X floatatom -325 -504 4 0 100 0 - - -;
#X floatatom -327 -581 0 0 200 0 - - -;
#X obj -625 -127 +~;
#X obj -626 -195 samphold~;
#X obj -625 -161 *~;
#X obj -415 -98 r~ phase;
#X obj -647 -724 s~ phase;
#X obj -530 -198 r~ phase;
#X obj -590 -160 r~ phase;
#X obj -333 -388 s chunk-size;
#X floatatom -327 -614 0 0 0 0 - - -;
#X text -681 -920 chunk size;
#X text -684 -906 in seconds;
#X obj -630 -871 r chunk-size;
#X obj -630 -846 t b f;
#X obj -415 -64 -~ 0.5;
#X obj -415 -30 *~ 0.5;
#X obj -415 3 cos~;
#X obj -642 -766 phasor~;
#X obj -599 -401 s~ read-pt;
#X obj -587 -127 r~ read-pt;
#X obj -560 -731 +~ 0.5;
#X obj -559 -706 wrap~;
#X obj -559 -681 s~ phase2;
#X obj -588 59 +~;
#X obj -330 -413 * 0.001;
#X obj -625 -93 *~ 44100;
#X obj -625 -23 tabread4~ table23;
#X obj -626 -57 +~ 1;
#X floatatom -560 -782 5 0 0 0 - - -;
#X obj -548 -617 s precession;
#X obj -517 -847 t b f;
#X obj -517 -872 r precession;
#X obj -606 -619 * 0.01;
#X obj -319 -89 +~;
#X obj -310 -147 samphold~;
#X obj -319 -123 *~;
#X obj -141 -3 -~ 0.5;
#X obj -141 31 *~ 0.5;
#X obj -141 63 cos~;
#X obj -271 -89 r~ read-pt;
#X obj -309 -45 *~ 44100;
#X obj -319 25 tabread4~ table23;
#X obj -310 -172 r chunk-size;
#X obj -320 -9 +~ 1;
#X obj -222 -146 r~ phase2;
#X obj -274 -122 r~ phase2;
#X obj -171 -37 r~ phase2;
#X msg -325 -646 25;
#X floatatom -326 -842 12 0 900 0 - - -;
#X obj -326 -812 * 0.001;
#X text -285 -506 <-- chunk size (msec);
#X obj -642 -814 expr (pow(2 \, $f1/120)-$f3)/$f2;
#X obj -326 -762 t b f;
#X text -201 -949 (msec);
#X obj -603 -535 /;
#X floatatom -326 -1006 12 0 0 0 - - -;
#X floatatom -326 -1076 12 0 0 0 - - -;
#X msg -326 -874 900;
#X obj -213 -894 loadbang;
#X floatatom -325 -948 12 0 0 0 - - -;
#X obj -325 -1043 / 44103;
#X obj -325 -973 * 1000;
#X floatatom -324 -473 4 0 900 0 - - -;
#X text -273 -971 <-- loop length;
#X text -291 -582 <-- speed \, percent;
#X obj -627 -368 s~ sample.pos1;
#X text -285 -474 <-- position \, 0-1;
#X obj -602 -471 *~ 1;
#X floatatom -324 -538 0 0 0 0 - - -;
#X obj -604 -587 t b f;
#X obj -604 -560 * 1;
#X text -287 -619 <-- pitch \, 0= norm \, >0= aigues;
#X floatatom -257 -211 0 0 0 0 - - -;
#X floatatom -312 -211 0 0 0 0 - - -;
#X obj -398 -241 loadbang;
#X obj -287 -707 loadbang;
#X msg -326 -682 0.5;
#X msg -325 -706 100;
#X obj -626 -230 r chunk-size;
#X text -288 -447 <-- trgr on/off;
#X obj -323 -1251 loadbang;
#X obj -322 -1183 soundfiler;
#X text -230 -1244 v-- re-read original table;
#X msg -323 -1214 read ../sound/voice.wav table23;
#X msg -42 -1212 read -resize \$1 table23;
#X obj 353 -1274 snapshot~;
#X obj 353 -1343 receive~ sample.pos1;
#X floatatom 353 -1247 12 0 0 0 - - -;
#X floatatom 354 -1201 12 0 0 0 - - -;
#X obj 391 -1320 tgl 15 0 empty empty empty 17 7 0 10 -262144 -1 -1
1 1;
#X obj 367 -1301 metro 44;
#X floatatom -323 -1143 12 0 0 0 - - -;
#X obj 355 -1156 /;
#X text -286 -551 <-- pitch & speed \, norm= 1;
#X obj 392 -1379 loadbang;
#X obj 402 -1176 outlet;
#X obj -588 27 *~;
#X obj -319 59 *~;
#X obj 354 -1225 * 44100;
#X obj -544 -500 - 0;
#X obj 389 -1125 s posvisu;
#X msg -398 -214 44100;
#X floatatom 342 -1112 5 0 0 2 pos - -;
#X msg -286 -874 47191;
#X msg -216 -874 0;
#X obj -599 -440 *~ 1;
#X floatatom 555 -1328 4 0 0 0 f.r - -;
#X obj 556 -1353 r frA;
#X obj -52 -1316 r soundfileA;
#X obj 64 -573 r pitchA;
#X obj 64 -543 r speedA;
#X obj 64 -513 r pitchNspeedA;
#X obj 65 -483 r posA;
#X obj -545 181 r BangAtoenv;
#X obj -581 354 *~;
#X floatatom -563 153 5 0 4 0 - - -;
#X floatatom -564 230 5 0 0 0 - - -;
#X floatatom -521 230 5 0 0 0 - - -;
#X obj -568 287 env_inout0Z;
#X floatatom -479 230 5 0 0 0 - - -;
#X floatatom -436 230 5 0 0 0 - - -;
#X obj 332 61 inlet;
#X obj 292 61 inlet;
#X obj 466 -1374 r øAtiTS1;
#X obj 434 -1301 + 2;
#X obj -106 -937 s looplenghtA;
#X obj -71 -566 * 100;
#X obj 546 -1374 r øAtiTS1>ø;
#X obj 186 31 r lo;
#X obj 319 148 - 1;
#X obj 318 169 * -1;
#X obj 198 487 s~ A0;
#X obj 63 -421 * 0.01;
#X obj -672 192 * -1;
#X obj -673 171 - 1;
#X obj -545 202 spigot-toggle_red;
#X obj -677 218 r IT≠T;
#X obj 113 -191 ctlin 3;
#X obj 111 -119 * 1;
#X obj 112 -153 * 0.00787402;
#X floatatom 112 -89 5 0 0 0 - - -;
#X obj 261 -119 * 1;
#X obj 262 -153 * 0.00787402;
#X floatatom 262 -89 5 0 0 0 - - -;
#X obj 262 -191 ctlin 7;
#X obj 369 148 - 1;
#X obj 368 169 * -1;
#X obj -520 204 r lo;
#X obj 61 -451 r directinA;
#X msg 131 18 0;
#X obj 369 198 - 1;
#X obj 368 219 * -1;
#X text -12 223 enveloppe;
#X obj -613 181 r T$mod;
#X obj -605 -500 phasor~;
#X floatatom -454 378 12 0 0 0 - - -;
#X obj -524 377 pack f f;
#X obj -523 403 vline~;
#X obj -536 347 r øAtiTS1;
#X obj -547 472 *~;
#X msg -398 -174 0;
#X obj 267 -591 t b f;
#X obj 269 -538 * 1;
#X msg -27 84 0;
#X msg 3 84 1;
#X msg 196 -2 1;
#X obj 156 177 bng 20 250 50 0 empty empty empty 17 7 0 10 -262144
-1 -1;
#X obj -14 176 bng 15 250 50 0 empty empty empty 17 7 0 10 -262144
-1 -1;
#X obj 106 199 hsl 147 8 0 1 0 0 empty empty O:::::::::sharpness:::::::::1
4 4 0 8 -262144 -258113 -1 2920 1;
#X obj 105 209 hsl 70 10 0 1 0 0 empty empty O:::::::::::1 4 5 0 8
-262144 -258113 -1 1380 1;
#X obj -89 284 s envfadreducin;
#X obj 182 208 hsl 70 10 0 1 0 0 empty empty O:::::::::::1 4 5 0 8
-262144 -258113 -1 1380 1;
#X obj -83 312 s envfadreducout;
#X msg -17 134 0.2;
#X obj -404 198 bng 15 250 50 0 empty empty empty 17 7 0 10 -262144
-1 -1;
#X floatatom 220 176 5 0 0 0 time:: - -;
#X obj 324 234 s envRNGmidiloop;
#X obj 274 157 r T$;
#X obj 273 260 spigot-toggle_red;
#X obj 298 262 r lo;
#X obj 379 273;
#X obj 382 276 tgl 15 0 empty empty empty 17 7 0 10 -262144 -1 -1 0
1;
#X obj 209 177 tgl 12 0 empty empty empty 17 7 0 10 -260097 -1 -1 0
1;
#X connect 0 0 139 0;
#X connect 0 0 172 0;
#X connect 1 0 138 0;
#X connect 2 0 17 1;
#X connect 3 0 17 3;
#X connect 4 0 17 2;
#X connect 5 0 141 0;
#X connect 6 0 142 0;
#X connect 7 0 18 1;
#X connect 7 0 20 0;
#X connect 8 0 18 0;
#X connect 9 0 8 1;
#X connect 10 0 8 2;
#X connect 11 0 8 4;
#X connect 12 0 8 3;
#X connect 13 0 4 0;
#X connect 14 0 3 0;
#X connect 15 0 7 0;
#X connect 16 0 2 0;
#X connect 17 0 19 0;
#X connect 17 0 19 1;
#X connect 17 0 153 0;
#X connect 18 0 17 0;
#X connect 21 0 46 0;
#X connect 22 0 54 0;
#X connect 23 0 47 0;
#X connect 24 0 25 0;
#X connect 25 0 23 0;
#X connect 26 0 36 0;
#X connect 28 0 24 1;
#X connect 29 0 25 1;
#X connect 31 0 73 0;
#X connect 34 0 35 0;
#X connect 35 0 73 0;
#X connect 35 1 73 1;
#X connect 36 0 37 0;
#X connect 37 0 38 0;
#X connect 38 0 118 1;
#X connect 39 0 27 0;
#X connect 39 0 42 0;
#X connect 41 0 23 1;
#X connect 42 0 43 0;
#X connect 43 0 44 0;
#X connect 45 0 136 0;
#X connect 46 0 30 0;
#X connect 47 0 49 0;
#X connect 48 0 118 0;
#X connect 49 0 48 0;
#X connect 52 0 73 0;
#X connect 52 1 73 2;
#X connect 53 0 52 0;
#X connect 54 0 51 0;
#X connect 54 0 92 0;
#X connect 55 0 62 0;
#X connect 56 0 57 0;
#X connect 57 0 55 0;
#X connect 58 0 59 0;
#X connect 59 0 60 0;
#X connect 60 0 119 1;
#X connect 61 0 55 1;
#X connect 62 0 65 0;
#X connect 63 0 119 0;
#X connect 64 0 56 0;
#X connect 65 0 63 0;
#X connect 66 0 56 1;
#X connect 67 0 57 1;
#X connect 68 0 58 0;
#X connect 69 0 21 0;
#X connect 70 0 71 0;
#X connect 71 0 74 0;
#X connect 71 0 89 1;
#X connect 73 0 39 0;
#X connect 73 0 50 0;
#X connect 74 0 76 0;
#X connect 74 1 76 1;
#X connect 76 0 176 0;
#X connect 77 0 83 0;
#X connect 78 0 82 0;
#X connect 80 0 79 0;
#X connect 81 0 70 0;
#X connect 81 0 147 0;
#X connect 82 0 77 0;
#X connect 83 0 81 0;
#X connect 84 0 121 0;
#X connect 89 0 127 0;
#X connect 90 0 91 0;
#X connect 91 0 92 0;
#X connect 91 1 92 1;
#X connect 92 0 76 0;
#X connect 94 0 62 1;
#X connect 95 0 47 1;
#X connect 96 0 123 0;
#X connect 97 0 98 0;
#X connect 97 0 99 0;
#X connect 97 0 69 0;
#X connect 98 0 90 0;
#X connect 99 0 22 0;
#X connect 100 0 24 0;
#X connect 102 0 105 0;
#X connect 103 0 113 0;
#X connect 105 0 103 0;
#X connect 106 0 103 0;
#X connect 107 0 109 0;
#X connect 108 0 107 0;
#X connect 109 0 120 0;
#X connect 110 0 114 0;
#X connect 111 0 112 0;
#X connect 111 0 183 0;
#X connect 112 0 107 0;
#X connect 113 0 114 1;
#X connect 113 0 78 0;
#X connect 114 0 117 0;
#X connect 114 0 124 0;
#X connect 114 0 122 0;
#X connect 116 0 111 0;
#X connect 118 0 45 0;
#X connect 119 0 45 1;
#X connect 120 0 110 0;
#X connect 121 0 176 1;
#X connect 123 0 94 0;
#X connect 123 0 95 0;
#X connect 125 0 70 0;
#X connect 126 0 70 0;
#X connect 127 0 40 0;
#X connect 127 0 87 0;
#X connect 128 0 146 0;
#X connect 129 0 128 0;
#X connect 130 0 106 0;
#X connect 131 0 31 0;
#X connect 132 0 148 0;
#X connect 133 0 184 0;
#X connect 134 0 84 0;
#X connect 135 0 157 0;
#X connect 136 0 181 0;
#X connect 137 0 140 1;
#X connect 137 0 177 0;
#X connect 138 0 140 2;
#X connect 139 0 140 4;
#X connect 140 0 136 1;
#X connect 141 0 140 3;
#X connect 142 0 140 5;
#X connect 143 0 151 0;
#X connect 144 0 5 0;
#X connect 145 0 111 0;
#X connect 146 0 112 1;
#X connect 148 0 22 0;
#X connect 149 0 111 0;
#X connect 150 0 0 0;
#X connect 150 0 151 0;
#X connect 150 0 171 0;
#X connect 150 0 187 0;
#X connect 150 0 195 0;
#X connect 151 0 152 0;
#X connect 152 0 6 0;
#X connect 154 0 84 0;
#X connect 156 0 155 0;
#X connect 157 0 140 0;
#X connect 158 0 156 0;
#X connect 159 0 161 0;
#X connect 160 0 162 0;
#X connect 161 0 160 0;
#X connect 162 0 5 0;
#X connect 163 0 165 0;
#X connect 164 0 163 0;
#X connect 165 0 167 0;
#X connect 166 0 164 0;
#X connect 167 0 168 0;
#X connect 168 0 6 0;
#X connect 169 0 157 1;
#X connect 170 0 154 0;
#X connect 171 0 9 0;
#X connect 171 0 11 0;
#X connect 171 0 7 0;
#X connect 171 0 3 0;
#X connect 171 0 4 0;
#X connect 171 0 2 0;
#X connect 172 0 173 0;
#X connect 175 0 137 0;
#X connect 176 0 89 0;
#X connect 177 0 178 1;
#X connect 178 0 179 0;
#X connect 179 0 181 1;
#X connect 180 0 178 0;
#X connect 181 0 8 0;
#X connect 182 0 95 0;
#X connect 182 0 94 0;
#X connect 183 0 184 0;
#X connect 183 1 184 1;
#X connect 184 0 90 0;
#X connect 185 0 11 0;
#X connect 186 0 2 0;
#X connect 186 0 4 0;
#X connect 186 0 3 0;
#X connect 186 0 7 0;
#X connect 186 0 12 0;
#X connect 187 0 12 0;
#X connect 188 0 186 0;
#X connect 188 0 185 0;
#X connect 190 0 191 0;
#X connect 190 0 193 0;
#X connect 191 0 192 0;
#X connect 193 0 194 0;
#X connect 195 0 190 0;
#X connect 195 0 191 0;
#X connect 195 0 193 0;
#X connect 196 0 140 0;
#X connect 197 0 198 0;
#X connect 199 0 200 0;
#X connect 200 0 197 0;
#X connect 201 0 204 0;
#X connect 204 0 200 1;
#X coords 0 -1 1 1 158 165 2 100 100;
