#N canvas 400 330 1280 698 10;
#X floatatom -547 -875 4 0 100 0 - - -;
#X floatatom -549 -952 0 0 200 0 - - -;
#X obj -847 -498 +~;
#X obj -848 -566 samphold~;
#X obj -847 -532 *~;
#X floatatom -549 -985 0 0 0 0 - - -;
#X text -903 -1291 chunk size;
#X text -906 -1277 in seconds;
#X obj -852 -1217 t b f;
#X obj -637 -435 -~ 0.5;
#X obj -637 -401 *~ 0.5;
#X obj -637 -368 cos~;
#X obj -864 -1137 phasor~;
#X obj -782 -1102 +~ 0.5;
#X obj -781 -1077 wrap~;
#X obj -810 -312 +~;
#X obj -552 -784 * 0.001;
#X obj -827 -871 phasor~;
#X obj -847 -464 *~ 44100;
#X obj -848 -428 +~ 1;
#X floatatom -782 -1153 5 0 0 0 - - -;
#X obj -739 -1218 t b f;
#X obj -828 -990 * 0.01;
#X obj -541 -460 +~;
#X obj -532 -518 samphold~;
#X obj -541 -494 *~;
#X obj -363 -374 -~ 0.5;
#X obj -363 -340 *~ 0.5;
#X obj -363 -308 cos~;
#X obj -531 -416 *~ 44100;
#X obj -542 -380 +~ 1;
#X msg -547 -1017 25;
#X floatatom -548 -1213 12 0 900 0 - - -;
#X obj -548 -1183 * 0.001;
#X text -507 -877 <-- chunk size (msec);
#X obj -864 -1185 expr (pow(2 \, $f1/120)-$f3)/$f2;
#X obj -548 -1133 t b f;
#X text -423 -1320 (msec);
#X obj -825 -906 /;
#X floatatom -548 -1377 12 0 0 0 - - -;
#X floatatom -548 -1447 12 0 0 0 - - -;
#X msg -548 -1245 900;
#X obj -435 -1265 loadbang;
#X floatatom -547 -1319 12 0 0 0 - - -;
#X obj -547 -1414 / 44103;
#X obj -547 -1344 * 1000;
#X floatatom -546 -844 4 0 900 0 - - -;
#X text -495 -1342 <-- loop length;
#X text -513 -953 <-- speed \, percent;
#X text -507 -845 <-- position \, 0-1;
#X obj -824 -842 *~ 1;
#X floatatom -546 -909 0 0 0 0 - - -;
#X obj -826 -958 t b f;
#X obj -826 -931 * 1;
#X text -509 -990 <-- pitch \, 0= norm \, >0= aigues;
#X floatatom -479 -582 0 0 0 0 - - -;
#X floatatom -534 -582 0 0 0 0 - - -;
#X obj -620 -612 loadbang;
#X obj -509 -1078 loadbang;
#X msg -548 -1053 0.5;
#X msg -547 -1077 100;
#X obj -848 -601 r chunk-size;
#X text -510 -818 <-- trgr on/off;
#X obj -544 -1554 soundfiler;
#X text -452 -1615 v-- re-read original table;
#X obj 131 -1645 snapshot~;
#X floatatom 131 -1618 12 0 0 0 - - -;
#X floatatom 132 -1572 12 0 0 0 - - -;
#X obj 169 -1691 tgl 15 0 empty empty empty 17 7 0 10 -262144 -1 -1
1 1;
#X obj 145 -1672 metro 44;
#X floatatom -545 -1514 12 0 0 0 - - -;
#X obj 133 -1527 /;
#X text -508 -922 <-- pitch & speed \, norm= 1;
#X obj 170 -1750 loadbang;
#X obj 180 -1547 outlet;
#X obj -810 -344 *~;
#X obj -541 -312 *~;
#X obj 132 -1596 * 44100;
#X obj -762 -870 - 0;
#X msg -620 -585 44100;
#X floatatom 131 -1466 5 0 0 2 pos1 - -;
#X msg -508 -1245 47191;
#X msg -438 -1245 0;
#X obj -821 -811 *~ 1;
#X floatatom 333 -1699 4 0 0 0 f.r - -;
#X obj 212 -1672 + 2;
#X obj -293 -937 * 100;
#X obj -34 -774 * 0.01;
#X obj -158 -944 r pitchB;
#X obj -158 -914 r speedB;
#X obj -158 -884 r pitchNspeedB;
#X obj -849 -739 s~ sample.pos11;
#X obj -555 -759 s chunk-size1;
#X obj -781 -1052 s~ phase21;
#X obj -869 -1095 s~ phase1;
#X obj -852 -1242 r chunk-size1;
#X obj -739 -1243 r precession1;
#X obj -770 -988 s precession1;
#X obj -328 -1308 s looplenghtB;
#X obj -821 -772 s~ read-pt1;
#X msg -264 -1583 read -resize \$1 table24;
#X obj 167 -1496 s posvisu1;
#X obj 131 -1714 receive~ sample.pos11;
#X obj 334 -1724 r frB;
#X obj -393 -408 r~ phase21;
#X obj -444 -517 r~ phase21;
#X obj -496 -493 r~ phase21;
#X obj -493 -460 r~ read-pt1;
#X obj -532 -543 r chunk-size1;
#X obj -541 -346 tabread4~ table24;
#X obj -637 -469 r~ phase1;
#X obj -847 -394 tabread4~ table24;
#X obj -809 -498 r~ read-pt1;
#X obj -812 -531 r~ phase1;
#X obj -752 -569 r~ phase1;
#X obj 324 -1745 r øAtiTS2;
#X obj -36 -804 r directinB;
#X obj -157 -854 r posB;
#X obj 19 -930 t b f;
#X obj 21 -877 * 1;
#X obj -274 -1687 r soundfileB;
#X floatatom -52 -1301 12 0 0 0 - - -;
#X obj -57 -1413 bng 15 250 50 0 empty empty empty 17 7 0 10 -262144
-1 -1;
#X msg -58 -1355 1;
#X obj -2 -1378 delay;
#X msg -3 -1355 0;
#X floatatom 28 -1405 12 0 0 0 - - -;
#X obj -53 -1449 spigot-toggle_red;
#X msg -140 -1342 1;
#X obj -195 -1368 sel;
#X obj -183 -1309 f;
#X obj -198 -1344 delay;
#X obj -141 -1373 bng 15 250 50 0 empty empty empty 17 7 0 10 -262144
-1 -1;
#X obj -52 -1268 s øs@Bgate;
#X floatatom 327 -1655 4 0 0 0 f.r - -;
#X obj -8 -1415 bng 15 250 50 0 empty empty empty 17 7 0 10 -262144
-1 -1;
#X obj -24 -1452 r ø@S1;
#X obj 328 -1678 / 0.6;
#X obj -272 -1446 * 0.5;
#X obj -52 -1478 r gateinB;
#X obj 244 -1745 r øAtiTS2>ø;
#X obj 225 160 hsl 84 16 0 6 0 0 empty empty shape_out 32 8 1 10 -16662
-260097 -260097 1383 1;
#X obj 104 159 hsl 84 16 0 6 0 0 empty empty shape_in 5 8 1 10 -16662
-260097 -260097 1383 1;
#X obj 319 102 vsl 20 70 0.02 2 1 0 empty empty L 8 6 0 7 -16662 -260097
-260097 3800 1;
#X obj 359 103 vsl 20 70 0.02 2 1 0 empty empty H 9 6 0 7 -16662 -260097
-260097 4300 1;
#X obj 339 103 vsl 20 70 0.02 2 1 0 empty empty M 8 6 0 7 -16662 -260097
-260097 4200 1;
#X obj 104 119 hsl 100 24 0 1 0 0 empty empty fade_in 4 12 1 12 -16662
-260097 -260097 990 1;
#X obj 210 119 hsl 100 24 1 0 0 0 empty empty fade_out 50 12 1 12 -16662
-260097 -260097 8910 1;
#X obj 378 103 vsl 22 70 0 2 0 0 empty empty gain 3 6 0 7 -16662 -260097
-260097 4400 1;
#X obj -103 431 vfreeverb~;
#X obj 413 141 hsl 103 17 0 1 0 1 empty empty 'roomsize' 3 8 0 10 -16662
-260097 -260097 0 0;
#X obj 413 159 hsl 103 17 0 2 0 1 empty empty damp 3 8 0 10 -16662
-260097 -260097 6300 0;
#X obj 413 121 hsl 103 19 0 1 0 1 empty empty wet_reverb 3 8 0 10 -16662
-260097 -260097 0 0;
#X obj 413 101 hsl 103 19 0 1 0 1 empty empty dry 3 8 0 10 -16662 -260097
-260097 5100 0;
#X obj 391 -9 inlet;
#X obj -145 542 dj-eq;
#X obj -148 505 *~;
#X obj -154 638 dac~;
#X obj -778 350 *~;
#X floatatom -295 225 5 0 0 0 in - -;
#X floatatom -233 225 5 0 0 0 out - -;
#X obj 136 -16 inlet;
#X obj 102 48 inlet;
#X obj -11 26 r lo;
#X obj 136 7 - 1;
#X obj 149 48 * -1;
#X obj 98 -156 * 1;
#X floatatom 99 -126 5 0 0 0 - - -;
#X obj 186 -69 * 1;
#X floatatom 187 -39 5 0 0 0 - - -;
#X msg 356 32 0;
#X floatatom -651 374 12 0 0 0 - - -;
#X obj -721 373 pack f f;
#X obj -720 399 vline~;
#X obj -737 427 *~;
#X obj 267 -65 spigot-toggle_red;
#X obj 471 568 spigot-toggle_orange;
#X obj 471 545 spigot-toggle_vert;
#X obj 471 521 spigot-toggle_red;
#X obj 471 624 * 1;
#X obj 437 569 spigot-toggle_orange;
#X obj 437 545 spigot-toggle_vert;
#X obj 436 521 spigot-toggle_red;
#X obj 437 622 * 1;
#X obj 471 592 spigot-toggle_orange;
#X obj 438 591 spigot-toggle_orange;
#X obj 499 612 - 1;
#X obj 500 643 * -1;
#X obj 491 333 tgl 12 0 empty empty A 3 6 0 10 -1 -262144 -260097 0
1;
#X obj 504 333 tgl 12 0 empty empty B 3 6 0 10 -1 -262144 -260097 0
1;
#X obj 517 333 tgl 12 0 empty empty a' 2 6 0 10 -1 -262144 -260097
0 1;
#X obj 530 333 tgl 12 0 empty empty b' 2 6 0 10 -1 -262144 -260097
0 1;
#X obj 599 333 tgl 12 0 empty empty A 3 6 0 10 -1 -262144 -260097 0
1;
#X obj 610 333 tgl 12 0 empty empty B 3 6 0 10 -1 -262144 -260097 0
1;
#X obj 623 333 tgl 12 0 empty empty a' 2 6 0 10 -1 -262144 -260097
0 1;
#X obj 636 333 tgl 12 0 empty empty b' 2 6 0 10 -1 -262144 -260097
0 1;
#X obj 461 390 spigot-toggle_orange;
#X obj 461 367 spigot-toggle_vert;
#X obj 461 343 spigot-toggle_red;
#X obj 458 444 * 1;
#X obj 427 391 spigot-toggle_orange;
#X obj 427 367 spigot-toggle_vert;
#X obj 426 343 spigot-toggle_red;
#X obj 427 444 * 1;
#X obj 462 293 r fll1;
#X obj 460 267 r fll0;
#X obj 461 414 spigot-toggle_orange;
#X obj 428 413 spigot-toggle_orange;
#X obj 461 224 r A;
#X obj 461 248 r B;
#X obj 498 434 - 1;
#X obj 500 458 * -1;
#X obj 543 333 tgl 12 0 empty empty A 3 6 0 10 -1 -262144 -191407 0
1;
#X obj 555 333 tgl 12 0 empty empty B 3 6 0 10 -1 -262144 -191407 0
1;
#X obj 568 333 tgl 12 0 empty empty a' 2 6 0 10 -1 -262144 -191407
0 1;
#X obj 581 333 tgl 12 0 empty empty b' 2 6 0 10 -1 -262144 -191407
0 1;
#X obj 649 333 tgl 12 0 empty empty A 3 6 0 10 -1 -262144 -191407 0
1;
#X obj 662 333 tgl 12 0 empty empty B 3 6 0 10 -1 -262144 -191407 0
1;
#X obj 675 333 tgl 12 0 empty empty a' 2 6 0 10 -1 -262144 -191407
0 1;
#X obj 688 333 tgl 12 0 empty empty b' 2 6 0 10 -1 -262144 -191407
0 1;
#X floatatom 500 664 5 0 0 0 - - -;
#X msg -11 85 0.5;
#X obj 593 333 cnv 7 7 13 empty empty empty 2 10 1 10 -1 -260097 0
;
#X obj 268 101 nbx 4 17 -1e+37 1e+37 0 0 empty empty empty 0 20 0 10
-260097 -1 -262144 40 256;
#X obj 250 101 tgl 17 0 empty empty < 2 8 2 23 -260097 -1 -1 1 1;
#X obj 303 -80 sel;
#X msg 312 -60 150;
#X obj 400 101 cnv 3 10 75 empty empty empty 12 12 0 14 -1 -66577 0
;
#X obj 399 -121 - 1;
#X obj 398 -100 * -1;
#X obj 398 -74 spigot-toggle_red;
#X obj 485 -103 r lo;
#X obj 683 -36 * 1;
#X obj 684 -70 * 0.00787402;
#X floatatom 684 -6 5 0 0 0 - - -;
#X obj 711 -135 ctlin;
#X floatatom 754 -99 5 0 0 0 - - -;
#X obj -654 306 r envRNGmidiloop;
#X obj 99 -190 / 127;
#X obj 187 -103 / 127;
#X floatatom -522 224 5 0 0 0 pow_in - -;
#X floatatom -420 224 5 0 0 0 pow_out - -;
#X floatatom -733 333 12 0 0 0 - - -;
#X obj 311 100 cnv 3 7 75 empty empty empty 12 12 0 14 -1 -66577 0
;
#X obj 191 160 bng 15 250 50 0 empty empty empty 4 8 1 13 -260097 -16662
-1;
#X obj 101 102 tgl 16 0 empty empty empty 1 6 0 23 -260097 -1 -1 1
1;
#X msg -16 167 1;
#X obj -746 299 r øAtiTS2;
#X obj -214 593 s~ A1;
#X obj 396 -145 r T$mod1;
#X obj 298 -102 r Tø@SB;
#X obj 307 -27 r ø@S1;
#X obj 380 205 s V1B;
#X obj 380 227 s s opa1;
#X obj 748 23 ctlin 20;
#X obj 888 24 ctlin 24;
#X obj 1029 24 ctlin 28;
#X obj 1159 26 ctlin 32;
#X floatatom 1129 65 5 0 0 0 - - -;
#X obj 1035 65 / 127;
#X obj 885 65 / 127;
#X obj 735 64 / 127;
#X obj 192 -140 ctlin 31;
#X obj 100 -228 ctlin 27;
#X msg -15 137 0;
#X text -27 206 crop 0.1 au laudbang?;
#X msg -252 163 1;
#X obj 207 160 bng 15 250 50 0 empty empty empty 4 8 1 13 -260097 -16662
-1;
#X msg -224 163 1;
#X obj -357 406 env_inoutOZ1;
#X obj 120 102 hsl 127 16 0.001 1 0 0 empty empty %_ENV_TIME___RCV
5 8 1 12 -16662 -260097 -260097 12600 1;
#X floatatom -366 227 5 0 0 0 - - -;
#X msg 2 113 0.1;
#X obj 103 143 hsl 206 16 0.001 1 0 0 empty empty sustain 85 9 1 12
-16662 -260097 -260097 10240 1;
#X obj 1165 64 / 63;
#X connect 0 0 16 0;
#X connect 1 0 22 0;
#X connect 2 0 18 0;
#X connect 3 0 4 0;
#X connect 4 0 2 0;
#X connect 5 0 35 0;
#X connect 8 0 35 0;
#X connect 8 1 35 1;
#X connect 9 0 10 0;
#X connect 10 0 11 0;
#X connect 11 0 75 1;
#X connect 12 0 13 0;
#X connect 12 0 94 0;
#X connect 13 0 14 0;
#X connect 14 0 93 0;
#X connect 15 0 158 0;
#X connect 16 0 92 0;
#X connect 17 0 50 0;
#X connect 18 0 19 0;
#X connect 19 0 111 0;
#X connect 21 0 35 0;
#X connect 21 1 35 2;
#X connect 22 0 53 0;
#X connect 22 0 97 0;
#X connect 23 0 29 0;
#X connect 24 0 25 0;
#X connect 25 0 23 0;
#X connect 26 0 27 0;
#X connect 27 0 28 0;
#X connect 28 0 76 1;
#X connect 29 0 30 0;
#X connect 30 0 109 0;
#X connect 31 0 0 0;
#X connect 32 0 33 0;
#X connect 33 0 36 0;
#X connect 33 0 50 1;
#X connect 35 0 12 0;
#X connect 35 0 20 0;
#X connect 36 0 38 0;
#X connect 36 1 38 1;
#X connect 38 0 17 0;
#X connect 39 0 45 0;
#X connect 40 0 44 0;
#X connect 42 0 41 0;
#X connect 43 0 32 0;
#X connect 43 0 98 0;
#X connect 43 0 138 0;
#X connect 44 0 39 0;
#X connect 45 0 43 0;
#X connect 46 0 78 0;
#X connect 50 0 83 0;
#X connect 51 0 52 0;
#X connect 52 0 53 0;
#X connect 52 1 53 1;
#X connect 53 0 38 0;
#X connect 55 0 29 1;
#X connect 56 0 18 1;
#X connect 57 0 79 0;
#X connect 58 0 59 0;
#X connect 58 0 60 0;
#X connect 58 0 31 0;
#X connect 59 0 51 0;
#X connect 60 0 1 0;
#X connect 61 0 3 0;
#X connect 63 0 70 0;
#X connect 65 0 66 0;
#X connect 66 0 77 0;
#X connect 67 0 71 0;
#X connect 68 0 69 0;
#X connect 68 0 118 0;
#X connect 69 0 65 0;
#X connect 70 0 71 1;
#X connect 70 0 40 0;
#X connect 71 0 74 0;
#X connect 71 0 80 0;
#X connect 71 0 101 0;
#X connect 73 0 68 0;
#X connect 75 0 15 0;
#X connect 76 0 15 1;
#X connect 77 0 67 0;
#X connect 78 0 17 1;
#X connect 79 0 55 0;
#X connect 79 0 56 0;
#X connect 81 0 32 0;
#X connect 82 0 32 0;
#X connect 83 0 91 0;
#X connect 83 0 99 0;
#X connect 84 0 137 0;
#X connect 85 0 69 1;
#X connect 86 0 1 0;
#X connect 87 0 46 0;
#X connect 88 0 5 0;
#X connect 89 0 86 0;
#X connect 90 0 119 0;
#X connect 95 0 8 0;
#X connect 96 0 21 0;
#X connect 100 0 63 0;
#X connect 102 0 65 0;
#X connect 103 0 84 0;
#X connect 104 0 26 0;
#X connect 105 0 24 1;
#X connect 106 0 25 1;
#X connect 107 0 23 1;
#X connect 108 0 24 0;
#X connect 109 0 76 0;
#X connect 110 0 9 0;
#X connect 111 0 75 0;
#X connect 112 0 2 1;
#X connect 113 0 4 1;
#X connect 114 0 3 1;
#X connect 115 0 68 0;
#X connect 116 0 87 0;
#X connect 117 0 46 0;
#X connect 118 0 119 0;
#X connect 118 1 119 1;
#X connect 119 0 51 0;
#X connect 120 0 100 0;
#X connect 121 0 133 0;
#X connect 122 0 123 0;
#X connect 122 0 135 0;
#X connect 123 0 121 0;
#X connect 124 0 125 0;
#X connect 125 0 121 0;
#X connect 126 0 124 1;
#X connect 126 0 131 1;
#X connect 127 0 122 0;
#X connect 128 0 130 1;
#X connect 129 0 132 0;
#X connect 129 0 131 0;
#X connect 130 0 121 0;
#X connect 131 0 130 0;
#X connect 132 0 128 0;
#X connect 134 0 85 0;
#X connect 135 0 124 0;
#X connect 136 0 127 1;
#X connect 136 0 123 0;
#X connect 136 0 129 0;
#X connect 137 0 134 0;
#X connect 138 0 126 0;
#X connect 139 0 127 0;
#X connect 140 0 68 0;
#X connect 141 0 241 0;
#X connect 142 0 240 0;
#X connect 143 0 155 1;
#X connect 144 0 155 3;
#X connect 145 0 155 2;
#X connect 146 0 159 0;
#X connect 147 0 160 0;
#X connect 148 0 156 1;
#X connect 148 0 252 0;
#X connect 148 0 253 0;
#X connect 149 0 156 0;
#X connect 150 0 149 1;
#X connect 151 0 149 2;
#X connect 152 0 149 4;
#X connect 153 0 149 3;
#X connect 154 0 148 0;
#X connect 155 0 157 0;
#X connect 155 0 157 1;
#X connect 155 0 248 0;
#X connect 156 0 155 0;
#X connect 158 0 174 0;
#X connect 159 0 269 5;
#X connect 160 0 269 7;
#X connect 161 0 164 0;
#X connect 162 0 146 0;
#X connect 163 0 164 0;
#X connect 163 0 170 0;
#X connect 163 0 221 0;
#X connect 163 0 141 0;
#X connect 163 0 264 0;
#X connect 163 0 246 0;
#X connect 163 0 224 0;
#X connect 163 0 268 0;
#X connect 163 0 272 0;
#X connect 164 0 165 0;
#X connect 165 0 147 0;
#X connect 166 0 167 0;
#X connect 167 0 146 0;
#X connect 168 0 169 0;
#X connect 169 0 273 0;
#X connect 170 0 150 0;
#X connect 170 0 152 0;
#X connect 170 0 148 0;
#X connect 170 0 144 0;
#X connect 170 0 145 0;
#X connect 170 0 143 0;
#X connect 171 0 172 1;
#X connect 172 0 173 0;
#X connect 173 0 174 1;
#X connect 174 0 149 0;
#X connect 175 0 223 0;
#X connect 176 0 179 0;
#X connect 177 0 179 0;
#X connect 178 0 179 0;
#X connect 179 0 186 0;
#X connect 179 0 147 0;
#X connect 180 0 183 0;
#X connect 181 0 183 0;
#X connect 182 0 183 0;
#X connect 183 0 146 0;
#X connect 184 0 179 0;
#X connect 185 0 183 0;
#X connect 186 0 187 0;
#X connect 187 0 220 0;
#X connect 188 0 182 1;
#X connect 189 0 181 1;
#X connect 190 0 180 1;
#X connect 191 0 185 1;
#X connect 192 0 178 1;
#X connect 193 0 177 1;
#X connect 194 0 176 1;
#X connect 195 0 184 1;
#X connect 196 0 199 0;
#X connect 197 0 199 0;
#X connect 198 0 199 0;
#X connect 199 0 210 0;
#X connect 199 0 141 0;
#X connect 200 0 203 0;
#X connect 201 0 203 0;
#X connect 202 0 203 0;
#X connect 203 0 142 0;
#X connect 204 0 207 0;
#X connect 204 0 206 0;
#X connect 204 0 185 0;
#X connect 204 0 184 0;
#X connect 205 0 200 0;
#X connect 205 0 196 0;
#X connect 205 0 180 0;
#X connect 205 0 176 0;
#X connect 206 0 199 0;
#X connect 207 0 203 0;
#X connect 208 0 202 0;
#X connect 208 0 198 0;
#X connect 208 0 182 0;
#X connect 208 0 178 0;
#X connect 209 0 201 0;
#X connect 209 0 197 0;
#X connect 209 0 181 0;
#X connect 209 0 177 0;
#X connect 210 0 211 0;
#X connect 212 0 202 1;
#X connect 213 0 201 1;
#X connect 214 0 200 1;
#X connect 215 0 207 1;
#X connect 216 0 198 1;
#X connect 217 0 197 1;
#X connect 218 0 196 1;
#X connect 219 0 206 1;
#X connect 221 0 153 0;
#X connect 221 0 273 0;
#X connect 223 0 269 3;
#X connect 224 0 175 1;
#X connect 224 0 230 1;
#X connect 225 1 226 0;
#X connect 226 0 223 0;
#X connect 228 0 229 0;
#X connect 229 0 230 1;
#X connect 230 0 223 0;
#X connect 231 0 230 1;
#X connect 232 0 234 0;
#X connect 233 0 232 0;
#X connect 235 0 233 0;
#X connect 235 1 236 0;
#X connect 237 0 171 0;
#X connect 238 0 166 0;
#X connect 239 0 168 0;
#X connect 240 0 269 1;
#X connect 241 0 269 2;
#X connect 242 0 172 0;
#X connect 244 0 266 0;
#X connect 245 0 269 0;
#X connect 246 0 141 0;
#X connect 246 0 142 0;
#X connect 246 0 270 0;
#X connect 246 0 245 0;
#X connect 247 0 242 0;
#X connect 249 0 230 0;
#X connect 250 0 225 0;
#X connect 251 0 175 1;
#X connect 251 0 228 0;
#X connect 254 0 261 0;
#X connect 255 0 260 0;
#X connect 256 0 259 0;
#X connect 257 0 274 0;
#X connect 258 0 148 0;
#X connect 259 0 144 0;
#X connect 260 0 145 0;
#X connect 261 0 143 0;
#X connect 262 0 239 0;
#X connect 263 0 238 0;
#X connect 266 0 142 0;
#X connect 267 0 268 0;
#X connect 268 0 141 0;
#X connect 269 0 158 1;
#X connect 270 0 271 0;
#X connect 271 0 269 4;
#X connect 272 0 146 0;
#X connect 272 0 147 0;
#X connect 273 0 269 6;
#X connect 274 0 258 0;
#X coords 0 -1 1 1 419 76 1 100 100;
