#N canvas 2 366 1280 918 10;
#X obj 319 102 vsl 20 70 0 1 0 0 empty empty L 8 6 0 7 -16662 -260097
-260097 4292 0;
#X obj 357 102 vsl 20 70 0 1 0 0 empty empty H 5 6 0 7 -16662 -260097
-260097 4564 0;
#X obj 336 102 vsl 20 70 0 1 0 0 empty empty M 8 6 0 7 -16662 -260097
-260097 3586 0;
#X obj 25 464 vfreeverb~;
#X obj 415 141 hsl 100 17 0 1 0 1 empty empty 'roomsize' 3 8 0 10 -16662
-260097 -260097 0 0;
#X obj 415 159 hsl 100 17 0 2 0 1 empty empty damp 3 8 0 10 -16662
-260097 -260097 2000 0;
#X obj 415 121 hsl 100 19 0 1 0 1 empty empty wet_reverb 3 8 0 10 -16662
-260097 -260097 0 0;
#X obj 415 101 hsl 100 19 0 1 0 1 empty empty dry 3 8 0 10 -16662 -260097
-260097 4950 0;
#X obj -111 57 inlet;
#X obj -71 57 inlet;
#X obj -20 56 inlet;
#X obj -151 57 inlet;
#X obj 25 495 dj-eq;
#X obj 13 597 dac~;
#X obj 369 205 s V1A;
#X floatatom -226 -564 4 0 100 0 - - -;
#X floatatom -228 -641 0 0 200 0 - - -;
#X obj -478 -249 +~;
#X obj -479 -317 samphold~;
#X obj -478 -283 *~;
#X obj -268 -220 r~ phase;
#X obj -548 -784 s~ phase;
#X obj -383 -320 r~ phase;
#X obj -443 -282 r~ phase;
#X obj -234 -448 s chunk-size;
#X floatatom -228 -674 0 0 0 0 - - -;
#X text -582 -980 chunk size;
#X text -585 -966 in seconds;
#X obj -531 -931 r chunk-size;
#X obj -531 -906 t b f;
#X obj -268 -186 -~ 0.5;
#X obj -268 -152 *~ 0.5;
#X obj -268 -119 cos~;
#X obj -543 -826 phasor~;
#X obj -500 -461 s~ read-pt;
#X obj -440 -250 r~ read-pt;
#X obj -461 -791 +~ 0.5;
#X obj -460 -766 wrap~;
#X obj -460 -741 s~ phase2;
#X obj -441 -63 +~;
#X obj -231 -473 * 0.001;
#X obj -478 -215 *~ 44100;
#X obj -478 -145 tabread4~ table23;
#X obj -479 -179 +~ 1;
#X floatatom -461 -842 5 0 0 0 - - -;
#X obj -400 -658 s precession;
#X obj -418 -907 t b f;
#X obj -418 -932 r precession;
#X obj -507 -679 * 0.01;
#X obj -172 -211 +~;
#X obj -163 -269 samphold~;
#X obj -172 -245 *~;
#X obj 6 -125 -~ 0.5;
#X obj 6 -91 *~ 0.5;
#X obj 6 -59 cos~;
#X obj -124 -211 r~ read-pt;
#X obj -162 -167 *~ 44100;
#X obj -172 -97 tabread4~ table23;
#X obj -163 -294 r chunk-size;
#X obj -173 -131 +~ 1;
#X obj -75 -268 r~ phase2;
#X obj -127 -244 r~ phase2;
#X obj -24 -159 r~ phase2;
#X msg -226 -706 25;
#X floatatom -227 -902 12 0 900 0 - - -;
#X obj -227 -872 * 0.001;
#X text -186 -566 <-- chunk size (msec);
#X obj -543 -874 expr (pow(2 \, $f1/120)-$f3)/$f2;
#X obj -227 -822 t b f;
#X text -129 -999 (msec);
#X obj -504 -595 /;
#X floatatom -227 -1066 12 0 0 0 - - -;
#X floatatom -227 -1136 12 0 0 0 - - -;
#X msg -227 -934 900;
#X obj -114 -954 loadbang;
#X floatatom -226 -1008 12 0 0 0 - - -;
#X obj -226 -1033 * 1000;
#X floatatom -225 -533 4 0 900 0 - - -;
#X text -148 -1013 <-- loop length;
#X text -192 -642 <-- speed \, percent;
#X obj -528 -428 s~ sample.pos1;
#X text -186 -534 <-- position \, 0-1;
#X obj -503 -531 *~ 1;
#X floatatom -225 -598 0 0 0 0 - - -;
#X obj -505 -647 t b f;
#X obj -505 -620 * 1;
#X text -188 -679 <-- pitch \, 0= norm \, >0= aigues;
#X floatatom -110 -333 0 0 0 0 - - -;
#X floatatom -61 -402 0 0 0 0 - - -;
#X obj -62 -448 loadbang;
#X obj -188 -767 loadbang;
#X msg -227 -742 0.5;
#X msg -226 -766 100;
#X obj -479 -352 r chunk-size;
#X text -189 -507 <-- trgr on/off;
#X obj 190 -1054 soundfiler;
#X msg 191 -1093 read -resize \$1 table23;
#X obj 327 -901 snapshot~;
#X obj 328 -974 receive~ sample.pos1;
#X floatatom 328 -878 12 0 0 0 - - -;
#X floatatom 329 -816 12 0 0 0 - - -;
#X obj 366 -950 tgl 15 0 empty empty empty 17 7 0 10 -262144 -1 -1
0 1;
#X floatatom 191 -1027 12 0 0 0 - - -;
#X obj 330 -787 /;
#X text -187 -611 <-- pitch & speed \, norm= 1;
#X obj 367 -1010 loadbang;
#X obj 364 -739 outlet;
#X obj -441 -95 *~;
#X obj -172 -63 *~;
#X obj 364 -718 s posvisu;
#X msg -62 -421 44100;
#X floatatom 306 -717 5 0 0 2 pos - -;
#X msg -187 -934 47191;
#X msg -117 -934 0;
#X obj -500 -500 *~ 1;
#X floatatom 464 -935 4 0 0 0 f.r - -;
#X obj 530 -984 r frA;
#X obj 190 -1131 r soundfileA;
#X obj 163 -633 r pitchA;
#X obj 163 -603 r speedA;
#X obj 163 -573 r pitchNspeedA;
#X obj 164 -543 r posA;
#X obj 32 426 *~;
#X obj 135 57 inlet;
#X obj 102 48 inlet;
#X obj 441 -1005 r øAtiTS1;
#X obj -7 -997 s looplenghtA;
#X obj 28 -626 * 100;
#X obj 521 -1005 r øAtiTS1>ø;
#X obj -52 18 r lo;
#X obj -46 544 s~ A0;
#X obj 162 -481 * 0.01;
#X obj 141 -93 * 1;
#X floatatom 142 -63 5 0 0 0 - - -;
#X obj 193 -75 * 1;
#X floatatom 194 -45 5 0 0 0 - - -;
#X obj 160 -511 r directinA;
#X msg 391 58 0;
#X obj -506 -560 phasor~;
#X msg -62 -381 0;
#X obj 366 -651 t b f;
#X obj 641 568 spigot-toggle_orange;
#X obj 641 545 spigot-toggle_vert;
#X obj 641 521 spigot-toggle_red;
#X obj 641 624 * 1;
#X obj 607 569 spigot-toggle_orange;
#X obj 607 545 spigot-toggle_vert;
#X obj 606 521 spigot-toggle_red;
#X obj 607 622 * 1;
#X obj 641 592 spigot-toggle_orange;
#X obj 608 591 spigot-toggle_orange;
#X obj 669 612 - 1;
#X obj 670 643 * -1;
#X obj 661 333 tgl 12 0 empty empty A 3 6 0 10 -1 -262144 -260097 0
1;
#X obj 674 333 tgl 12 0 empty empty B 3 6 0 10 -1 -262144 -260097 0
1;
#X obj 687 333 tgl 12 0 empty empty a' 2 6 0 10 -1 -262144 -260097
0 1;
#X obj 700 333 tgl 12 0 empty empty b' 2 6 0 10 -1 -262144 -260097
0 1;
#X obj 769 333 tgl 12 0 empty empty A 3 6 0 10 -1 -262144 -260097 0
1;
#X obj 780 333 tgl 12 0 empty empty B 3 6 0 10 -1 -262144 -260097 0
1;
#X obj 793 333 tgl 12 0 empty empty a' 2 6 0 10 -1 -262144 -260097
0 1;
#X obj 806 333 tgl 12 0 empty empty b' 2 6 0 10 -1 -262144 -260097
0 1;
#X obj 631 390 spigot-toggle_orange;
#X obj 631 367 spigot-toggle_vert;
#X obj 631 343 spigot-toggle_red;
#X obj 628 444 * 1;
#X obj 597 391 spigot-toggle_orange;
#X obj 597 367 spigot-toggle_vert;
#X obj 596 343 spigot-toggle_red;
#X obj 597 444 * 1;
#X obj 632 293 r fll1;
#X obj 630 267 r fll0;
#X obj 631 414 spigot-toggle_orange;
#X obj 598 413 spigot-toggle_orange;
#X obj 631 224 r A;
#X obj 631 248 r B;
#X obj 668 434 - 1;
#X obj 670 458 * -1;
#X obj 713 333 tgl 12 0 empty empty A 3 6 0 10 -1 -262144 -191407 0
1;
#X obj 725 333 tgl 12 0 empty empty B 3 6 0 10 -1 -262144 -191407 0
1;
#X obj 738 333 tgl 12 0 empty empty a' 2 6 0 10 -1 -262144 -191407
0 1;
#X obj 751 333 tgl 12 0 empty empty b' 2 6 0 10 -1 -262144 -191407
0 1;
#X obj 819 333 tgl 12 0 empty empty A 3 6 0 10 -1 -262144 -191407 0
1;
#X obj 832 333 tgl 12 0 empty empty B 3 6 0 10 -1 -262144 -191407 0
1;
#X obj 845 333 tgl 12 0 empty empty a' 2 6 0 10 -1 -262144 -191407
0 1;
#X obj 858 333 tgl 12 0 empty empty b' 2 6 0 10 -1 -262144 -191407
0 1;
#X floatatom -419 -969 12 0 900 0 - - -;
#X floatatom 670 664 5 0 0 0 - - -;
#X floatatom 426 -858 12 0 0 0 f.r - -;
#X obj 368 -598 * 1;
#X obj -445 -560 + 0;
#X obj -226 -1103 / 44103;
#X floatatom 466 -890 4 0 0 0 f.r - -;
#X obj 462 -913 / 0.6;
#X obj 411 -951 + 2;
#X obj 364 -929 metro 44;
#X obj 763 333 cnv 7 7 13 empty empty empty 2 10 1 10 -1 -260097 0
;
#X msg 50 23 color \$1;
#X floatatom 52 -3 5 0 0 0 - - -;
#X obj 54 -52 bng 15 250 50 0 empty empty empty 17 7 0 10 -262144 -1
-1;
#X msg 54 -27 44;
#X obj 259 75 nbx 6 17 -1e+37 1e+37 0 0 empty empty empty 0 20 0 10
-260818 -1 -262144 40 256;
#X obj 114 101 cnv 13 198 18 empty empty empty 22 10 1 8 -1 -260097
0;
#X obj 403 100 cnv 3 8 75 empty empty empty 12 12 0 14 -1 -66577 0
;
#X floatatom 711 -92 5 0 0 0 - - -;
#X obj 711 -135 ctlin;
#X floatatom 754 -99 5 0 0 0 - - -;
#X obj 142 -127 / 127;
#X obj 194 -109 / 127;
#X obj 143 -165 ctlin 3;
#X obj 197 -136 ctlin 7;
#X obj 311 100 cnv 3 10 75 empty empty empty 12 12 0 14 -1 -66577 0
;
#X obj 100 102 tgl 15 0 empty empty empty 1 6 0 23 -260097 -1 -1 0
1;
#X obj 1098 39 ctlin 8;
#X obj 1239 39 ctlin 12;
#X obj 958 38 ctlin 4;
#X obj 1323 42 ctlin 16;
#X obj 1239 79 / 127;
#X obj 1090 79 / 127;
#X obj 939 79 / 127;
#X obj -11 26 r lo;
#X msg -16 166 1;
#X msg -17 137 0;
#X obj 225 159 hsl 84 16 0 6 0 0 empty empty shape_out 35 8 1 10 -16662
-260097 -260097 1383 1;
#X obj 104 159 hsl 84 16 0 6 0 0 empty empty shape_in 5 8 1 10 -16662
-260097 -260097 1383 1;
#X obj 104 117 hsl 100 24 0 1 0 0 empty empty fade_in 4 12 1 12 -16662
-260097 -260097 2183 1;
#X obj 210 117 hsl 100 24 1 0 0 0 empty empty fade_out 50 12 1 12 -16662
-260097 -260097 8341 1;
#X floatatom 332 280 5 0 0 0 in - -;
#X floatatom 391 283 5 0 0 0 out - -;
#X floatatom 105 279 5 0 0 0 pow_in - -;
#X floatatom 205 281 5 0 0 0 pow_out - -;
#X obj 191 159 bng 16 250 50 0 empty empty empty 4 8 1 13 -12306 -260097
-1;
#X obj 207 159 bng 16 250 50 0 empty empty empty 4 8 1 13 -12306 -260097
-1;
#X obj 103 142 hsl 206 16 0.001 1 0 0 empty empty sustain 85 9 1 12
-16662 -260097 -260097 14522 1;
#X obj 72 391 env_inout0Z;
#X msg -62 112 0.1;
#X floatatom 24 276 5 0 0 0 - - -;
#X obj 517 100 cnv 3 5 75 empty empty empty 12 12 0 14 -1 -66577 0
;
#X obj 270 -72 * 1;
#X floatatom 271 -42 5 0 0 0 - - -;
#X obj 271 -106 / 127;
#X obj 274 -133 ctlin 11;
#X obj 269 -18 - 1;
#X obj 268 3 * -1;
#X msg -14 85 0.1;
#X floatatom 388 333 5 0 0 0 out - -;
#X obj 1323 80 / 127;
#X obj 385 253 s opa1;
#X obj 35 527 *~;
#X obj 383 102 vsl 20 70 0 1 0 0 empty empty db 2 9 0 13 -16662 -260097
-260097 4509 0;
#X msg -60 83 0.7;
#X msg 435 58 0.5;
#X obj 374 100 cnv 3 8 75 empty empty empty 12 12 0 14 -1 -66577 0
;
#X obj 330 -856 * 44100;
#X msg 171 189 1;
#X msg 235 190 1;
#X connect 0 0 12 1;
#X connect 1 0 12 3;
#X connect 2 0 12 2;
#X connect 3 0 12 0;
#X connect 4 0 3 1;
#X connect 5 0 3 2;
#X connect 6 0 3 4;
#X connect 6 0 246 0;
#X connect 7 0 3 3;
#X connect 7 0 246 0;
#X connect 8 0 2 0;
#X connect 9 0 1 0;
#X connect 10 0 7 0;
#X connect 11 0 0 0;
#X connect 12 0 247 0;
#X connect 15 0 40 0;
#X connect 16 0 48 0;
#X connect 17 0 41 0;
#X connect 18 0 19 0;
#X connect 19 0 17 0;
#X connect 20 0 30 0;
#X connect 22 0 18 1;
#X connect 23 0 19 1;
#X connect 25 0 67 0;
#X connect 28 0 29 0;
#X connect 29 0 67 0;
#X connect 29 1 67 1;
#X connect 30 0 31 0;
#X connect 31 0 32 0;
#X connect 32 0 107 1;
#X connect 33 0 21 0;
#X connect 33 0 36 0;
#X connect 35 0 17 1;
#X connect 36 0 37 0;
#X connect 37 0 38 0;
#X connect 39 0 122 0;
#X connect 40 0 24 0;
#X connect 41 0 43 0;
#X connect 42 0 107 0;
#X connect 43 0 42 0;
#X connect 46 0 67 0;
#X connect 46 1 67 2;
#X connect 47 0 46 0;
#X connect 48 0 45 0;
#X connect 48 0 85 0;
#X connect 49 0 56 0;
#X connect 50 0 51 0;
#X connect 51 0 49 0;
#X connect 52 0 53 0;
#X connect 53 0 54 0;
#X connect 54 0 108 1;
#X connect 55 0 49 1;
#X connect 56 0 59 0;
#X connect 57 0 108 0;
#X connect 58 0 50 0;
#X connect 59 0 57 0;
#X connect 60 0 50 1;
#X connect 61 0 51 1;
#X connect 62 0 52 0;
#X connect 63 0 15 0;
#X connect 64 0 65 0;
#X connect 65 0 68 0;
#X connect 65 0 82 1;
#X connect 67 0 33 0;
#X connect 67 0 44 0;
#X connect 68 0 70 0;
#X connect 68 1 70 1;
#X connect 70 0 138 0;
#X connect 71 0 76 0;
#X connect 72 0 190 0;
#X connect 74 0 73 0;
#X connect 75 0 64 0;
#X connect 75 0 126 0;
#X connect 76 0 75 0;
#X connect 77 0 189 0;
#X connect 82 0 114 0;
#X connect 83 0 84 0;
#X connect 84 0 85 0;
#X connect 84 1 85 1;
#X connect 85 0 70 0;
#X connect 87 0 56 1;
#X connect 88 0 41 1;
#X connect 89 0 110 0;
#X connect 90 0 91 0;
#X connect 90 0 92 0;
#X connect 90 0 63 0;
#X connect 91 0 83 0;
#X connect 92 0 16 0;
#X connect 93 0 18 0;
#X connect 95 0 102 0;
#X connect 96 0 95 0;
#X connect 97 0 99 0;
#X connect 98 0 97 0;
#X connect 99 0 252 0;
#X connect 100 0 103 0;
#X connect 101 0 140 0;
#X connect 101 0 194 0;
#X connect 102 0 103 1;
#X connect 102 0 72 0;
#X connect 103 0 106 0;
#X connect 103 0 111 0;
#X connect 103 0 109 0;
#X connect 105 0 101 0;
#X connect 107 0 39 0;
#X connect 108 0 39 1;
#X connect 110 0 87 0;
#X connect 110 0 88 0;
#X connect 112 0 64 0;
#X connect 113 0 64 0;
#X connect 114 0 34 0;
#X connect 114 0 80 0;
#X connect 115 0 192 0;
#X connect 116 0 115 0;
#X connect 117 0 96 0;
#X connect 118 0 25 0;
#X connect 119 0 127 0;
#X connect 120 0 188 0;
#X connect 121 0 77 0;
#X connect 122 0 3 0;
#X connect 125 0 101 0;
#X connect 127 0 16 0;
#X connect 128 0 101 0;
#X connect 129 0 249 0;
#X connect 129 0 198 0;
#X connect 129 0 234 0;
#X connect 129 0 137 0;
#X connect 131 0 77 0;
#X connect 132 0 133 0;
#X connect 133 0 224 0;
#X connect 134 0 135 0;
#X connect 135 0 232 0;
#X connect 136 0 131 0;
#X connect 137 0 4 0;
#X connect 137 0 6 0;
#X connect 137 0 1 0;
#X connect 137 0 2 0;
#X connect 137 0 0 0;
#X connect 137 0 250 0;
#X connect 138 0 82 0;
#X connect 139 0 88 0;
#X connect 139 0 87 0;
#X connect 140 0 188 0;
#X connect 140 1 188 1;
#X connect 141 0 144 0;
#X connect 142 0 144 0;
#X connect 143 0 144 0;
#X connect 144 0 151 0;
#X connect 145 0 148 0;
#X connect 146 0 148 0;
#X connect 147 0 148 0;
#X connect 149 0 144 0;
#X connect 150 0 148 0;
#X connect 151 0 152 0;
#X connect 152 0 186 0;
#X connect 153 0 147 1;
#X connect 154 0 146 1;
#X connect 155 0 145 1;
#X connect 156 0 150 1;
#X connect 157 0 143 1;
#X connect 158 0 142 1;
#X connect 159 0 141 1;
#X connect 160 0 149 1;
#X connect 161 0 164 0;
#X connect 162 0 164 0;
#X connect 163 0 164 0;
#X connect 164 0 175 0;
#X connect 165 0 168 0;
#X connect 166 0 168 0;
#X connect 167 0 168 0;
#X connect 169 0 172 0;
#X connect 169 0 171 0;
#X connect 169 0 150 0;
#X connect 169 0 149 0;
#X connect 170 0 165 0;
#X connect 170 0 161 0;
#X connect 170 0 145 0;
#X connect 170 0 141 0;
#X connect 171 0 164 0;
#X connect 172 0 168 0;
#X connect 173 0 167 0;
#X connect 173 0 163 0;
#X connect 173 0 147 0;
#X connect 173 0 143 0;
#X connect 174 0 166 0;
#X connect 174 0 162 0;
#X connect 174 0 146 0;
#X connect 174 0 142 0;
#X connect 175 0 176 0;
#X connect 177 0 167 1;
#X connect 178 0 166 1;
#X connect 179 0 165 1;
#X connect 180 0 172 1;
#X connect 181 0 163 1;
#X connect 182 0 162 1;
#X connect 183 0 161 1;
#X connect 184 0 171 1;
#X connect 185 0 46 0;
#X connect 187 0 252 1;
#X connect 188 0 83 0;
#X connect 189 0 138 1;
#X connect 190 0 71 0;
#X connect 191 0 193 0;
#X connect 192 0 191 0;
#X connect 193 0 194 1;
#X connect 194 0 97 0;
#X connect 196 0 200 0;
#X connect 197 0 196 0;
#X connect 198 0 199 0;
#X connect 199 0 197 0;
#X connect 204 0 203 0;
#X connect 204 1 205 0;
#X connect 206 0 132 0;
#X connect 207 0 134 0;
#X connect 208 0 206 0;
#X connect 209 0 207 0;
#X connect 211 0 235 0;
#X connect 212 0 217 0;
#X connect 213 0 216 0;
#X connect 214 0 218 0;
#X connect 215 0 245 0;
#X connect 216 0 1 0;
#X connect 217 0 2 0;
#X connect 218 0 0 0;
#X connect 219 0 243 0;
#X connect 219 0 221 0;
#X connect 219 0 220 0;
#X connect 220 0 211 0;
#X connect 220 0 223 0;
#X connect 220 0 222 0;
#X connect 222 0 229 0;
#X connect 223 0 228 0;
#X connect 224 0 226 0;
#X connect 225 0 227 0;
#X connect 226 0 233 1;
#X connect 227 0 233 5;
#X connect 228 0 233 0;
#X connect 229 0 233 4;
#X connect 230 0 253 0;
#X connect 231 0 254 0;
#X connect 232 0 233 2;
#X connect 233 0 122 1;
#X connect 233 1 200 0;
#X connect 234 0 224 0;
#X connect 235 0 233 3;
#X connect 237 0 238 0;
#X connect 238 0 241 0;
#X connect 239 0 237 0;
#X connect 240 0 239 0;
#X connect 241 0 242 0;
#X connect 242 0 225 0;
#X connect 243 0 225 0;
#X connect 244 0 233 6;
#X connect 245 0 248 0;
#X connect 247 0 13 1;
#X connect 247 0 13 0;
#X connect 247 0 130 0;
#X connect 248 0 247 1;
#X connect 248 0 14 0;
#X connect 249 0 232 0;
#X connect 250 0 7 0;
#X connect 252 0 100 0;
#X connect 253 0 223 0;
#X connect 254 0 222 0;
#X coords 0 -1 1 1 423 76 1 100 100;
