#N canvas 317 180 906 777 10;
#X obj 209 148 hsl 100 15 0 1 0 0 empty empty cut_out 3 7 1 10 -1 -262144
-262144 2600 1;
#X obj 104 148 hsl 100 15 0 1 0 0 empty empty cut_in 3 7 1 10 -1 -262144
-262144 900 1;
#X obj 370 103 vsl 20 70 0.02 2 1 0 empty empty empty 12 12 0 10 -1
-262144 -1 5861 1;
#X obj 412 103 vsl 20 70 0.02 2 1 0 empty empty empty 12 12 0 10 -1
-262144 -1 5861 1;
#X obj 391 103 vsl 20 70 0.02 2 1 0 empty empty empty 12 12 0 10 -1
-262144 -1 5861 1;
#X obj 104 129 hsl 100 18 0 1 0 0 empty empty fade_in 3 7 1 10 -260097
-262144 -262144 2000 1;
#X obj 209 129 hsl 100 18 1 0 0 0 empty empty fade_out 3 7 1 10 -260097
-262144 -262144 5100 1;
#X obj 433 103 vsl 30 70 0 2 0 0 empty empty gain 6 6 0 7 -1 -260097
-260097 3450 1;
#X obj -5 430 vfreeverb~;
#X obj 467 141 hsl 145 17 0 1 0 1 empty empty 'roomsize' 3 8 0 10 -1
-260097 -262144 0 0;
#X obj 467 159 hsl 145 17 0 2 0 1 empty empty damp 3 8 0 10 -1 -260097
-262144 11600 0;
#X obj 467 121 hsl 145 19 0 1 0 1 empty empty wet_reverb 3 8 0 10 -1
-260097 -262144 0 0;
#X obj 467 101 hsl 145 19 0 1 0 1 empty empty dry 3 8 0 10 -1 -260097
-262144 14400 0;
#X obj -13 56 inlet;
#X obj 27 56 inlet;
#X obj 78 55 inlet;
#X obj -53 56 inlet;
#X obj -47 541 dj-eq;
#X obj -50 504 *~;
#X obj -56 637 dac~;
#X obj -8 349 s V1A;
#X floatatom -424 -509 4 0 100 0 - - -;
#X floatatom -426 -586 0 0 200 0 - - -;
#X obj -724 -132 +~;
#X obj -725 -200 samphold~;
#X obj -724 -166 *~;
#X obj -514 -103 r~ phase;
#X obj -746 -729 s~ phase;
#X obj -629 -203 r~ phase;
#X obj -689 -165 r~ phase;
#X obj -432 -393 s chunk-size;
#X floatatom -426 -619 0 0 0 0 - - -;
#X text -780 -925 chunk size;
#X text -783 -911 in seconds;
#X obj -729 -876 r chunk-size;
#X obj -729 -851 t b f;
#X obj -514 -69 -~ 0.5;
#X obj -514 -35 *~ 0.5;
#X obj -514 -2 cos~;
#X obj -741 -771 phasor~;
#X obj -698 -406 s~ read-pt;
#X obj -686 -133 r~ read-pt;
#X obj -659 -736 +~ 0.5;
#X obj -658 -711 wrap~;
#X obj -658 -686 s~ phase2;
#X obj -687 54 +~;
#X obj -429 -418 * 0.001;
#X obj -724 -98 *~ 44100;
#X obj -724 -28 tabread4~ table23;
#X obj -725 -62 +~ 1;
#X floatatom -659 -787 5 0 0 0 - - -;
#X obj -598 -603 s precession;
#X obj -616 -852 t b f;
#X obj -616 -877 r precession;
#X obj -705 -624 * 0.01;
#X obj -418 -94 +~;
#X obj -409 -152 samphold~;
#X obj -418 -128 *~;
#X obj -240 -8 -~ 0.5;
#X obj -240 26 *~ 0.5;
#X obj -240 58 cos~;
#X obj -370 -94 r~ read-pt;
#X obj -408 -50 *~ 44100;
#X obj -418 20 tabread4~ table23;
#X obj -409 -177 r chunk-size;
#X obj -419 -14 +~ 1;
#X obj -321 -151 r~ phase2;
#X obj -373 -127 r~ phase2;
#X obj -270 -42 r~ phase2;
#X msg -424 -651 25;
#X floatatom -425 -847 12 0 900 0 - - -;
#X obj -425 -817 * 0.001;
#X text -384 -511 <-- chunk size (msec);
#X obj -741 -819 expr (pow(2 \, $f1/120)-$f3)/$f2;
#X obj -425 -767 t b f;
#X text -300 -954 (msec);
#X obj -702 -540 /;
#X floatatom -425 -1011 12 0 0 0 - - -;
#X floatatom -425 -1081 12 0 0 0 - - -;
#X msg -425 -879 900;
#X obj -312 -899 loadbang;
#X floatatom -424 -953 12 0 0 0 - - -;
#X obj -424 -978 * 1000;
#X floatatom -423 -478 4 0 900 0 - - -;
#X text -372 -976 <-- loop length;
#X text -390 -587 <-- speed \, percent;
#X obj -726 -373 s~ sample.pos1;
#X text -384 -479 <-- position \, 0-1;
#X obj -701 -476 *~ 1;
#X floatatom -423 -543 0 0 0 0 - - -;
#X obj -703 -592 t b f;
#X obj -703 -565 * 1;
#X text -386 -624 <-- pitch \, 0= norm \, >0= aigues;
#X floatatom -356 -216 0 0 0 0 - - -;
#X floatatom -411 -216 0 0 0 0 - - -;
#X obj -497 -246 loadbang;
#X obj -386 -712 loadbang;
#X msg -425 -687 0.5;
#X msg -424 -711 100;
#X obj -725 -235 r chunk-size;
#X text -387 -452 <-- trgr on/off;
#X obj -422 -1256 loadbang;
#X obj -421 -1188 soundfiler;
#X text -329 -1249 v-- re-read original table;
#X msg -141 -1217 read -resize \$1 table23;
#X obj 253 -1275 snapshot~;
#X obj 254 -1348 receive~ sample.pos1;
#X floatatom 254 -1252 12 0 0 0 - - -;
#X floatatom 255 -1190 12 0 0 0 - - -;
#X obj 292 -1325 tgl 15 0 empty empty empty 17 7 0 10 -262144 -1 -1
1 1;
#X obj 270 -1298 metro 44;
#X floatatom -422 -1148 12 0 0 0 - - -;
#X obj 256 -1161 /;
#X text -385 -556 <-- pitch & speed \, norm= 1;
#X obj 293 -1384 loadbang;
#X obj 290 -1113 outlet;
#X obj -687 22 *~;
#X obj -418 54 *~;
#X obj 290 -1092 s posvisu;
#X msg -497 -219 44100;
#X floatatom 243 -1117 5 0 0 2 pos - -;
#X msg -385 -879 47191;
#X msg -315 -879 0;
#X obj -698 -445 *~ 1;
#X floatatom 456 -1333 4 0 0 0 f.r - -;
#X obj 457 -1358 r frA;
#X obj -142 -1255 r soundfileA;
#X obj -35 -578 r pitchA;
#X obj -35 -548 r speedA;
#X obj -35 -518 r pitchNspeedA;
#X obj -34 -488 r posA;
#X obj -644 176 r BangAtoenv;
#X obj -680 349 *~;
#X floatatom -662 148 5 0 4 0 - - -;
#X floatatom -663 225 5 0 0 0 - - -;
#X floatatom -620 225 5 0 0 0 - - -;
#X obj -667 282 env_inout0Z;
#X floatatom -578 225 5 0 0 0 - - -;
#X floatatom -535 225 5 0 0 0 - - -;
#X obj 233 56 inlet;
#X obj 193 56 inlet;
#X obj 367 -1379 r øAtiTS1;
#X obj 356 -1303 + 2;
#X obj -205 -942 s looplenghtA;
#X obj -170 -571 * 100;
#X obj 447 -1379 r øAtiTS1>ø;
#X obj 87 25 r lo;
#X obj 234 6 - 1;
#X obj 233 27 * -1;
#X obj -116 592 s~ A0;
#X obj -36 -426 * 0.01;
#X obj -771 187 * -1;
#X obj -772 166 - 1;
#X obj -644 197 spigot-toggle_red;
#X obj -776 213 r IT≠T;
#X obj 14 -196 ctlin 3;
#X obj 12 -124 * 1;
#X obj 13 -158 * 0.00787402;
#X floatatom 13 -94 5 0 0 0 - - -;
#X obj 162 -124 * 1;
#X obj 163 -158 * 0.00787402;
#X floatatom 163 -94 5 0 0 0 - - -;
#X obj 163 -196 ctlin 7;
#X obj 294 3 - 1;
#X obj 293 24 * -1;
#X obj -619 199 r lo;
#X obj -38 -456 r directinA;
#X msg 723 82 0;
#X text -111 218 enveloppe;
#X obj -712 176 r T$mod;
#X obj -704 -505 phasor~;
#X floatatom -553 373 12 0 0 0 - - -;
#X obj -623 372 pack f f;
#X obj -622 398 vline~;
#X obj -635 342 r øAtiTS1;
#X obj -639 426 *~;
#X msg -497 -179 0;
#X obj 168 -596 t b f;
#X msg -126 79 0;
#X msg -96 79 1;
#X msg 97 -7 1;
#X obj 339 101 bng 30 250 50 0 empty empty RST 7 15 0 8 -1 -4034 -260097
;
#X obj 104 101 hsl 206 13 0 1 0 0 empty empty O:::::::::::::÷::sharpness::::::::::::::1
0 4 0 8 -1 -258113 -191407 4100 1;
#X obj 104 115 hsl 100 13 0 1 0 0 empty empty ::::::::::::::::::::::
-2 5 0 8 -1 -258113 -191407 1980 1;
#X obj -188 279 s envfadreducin;
#X obj 209 115 hsl 100 13 0 1 0 0 empty empty ::::::::::::::::::::
0 5 0 8 -1 -258113 -191407 1980 1;
#X obj -182 307 s envfadreducout;
#X msg -165 77 0.2;
#X floatatom 310 132 7 0 0 3 - - -;
#X obj 402 -28 s envRNGmidiloop;
#X obj 384 -107 r T$;
#X obj 384 -76 spigot-toggle_red;
#X obj 167 7 r lo;
#X obj 352 130 tgl 17 0 empty empty empty 18 7 0 10 -1 -262144 -1 1
1;
#X obj 569 567 spigot-toggle_orange;
#X obj 569 544 spigot-toggle_vert;
#X obj 569 520 spigot-toggle_red;
#X obj 569 623 * 1;
#X obj 535 568 spigot-toggle_orange;
#X obj 535 544 spigot-toggle_vert;
#X obj 534 520 spigot-toggle_red;
#X obj 535 621 * 1;
#X obj 569 591 spigot-toggle_orange;
#X obj 536 590 spigot-toggle_orange;
#X obj 597 611 - 1;
#X obj 598 642 * -1;
#X obj 101 164 tgl 12 0 empty empty A 3 6 0 10 -1 -262144 -260097 0
1;
#X obj 114 164 tgl 12 0 empty empty B 3 6 0 10 -1 -262144 -260097 0
1;
#X obj 127 164 tgl 12 0 empty empty a' 2 6 0 10 -1 -262144 -260097
0 1;
#X obj 140 164 tgl 12 0 empty empty b' 2 6 0 10 -1 -262144 -260097
0 1;
#X obj 207 164 tgl 12 0 empty empty A 3 6 0 10 -1 -262144 -260097 0
1;
#X obj 220 164 tgl 12 0 empty empty B 3 6 0 10 -1 -262144 -260097 0
1;
#X obj 233 164 tgl 12 0 empty empty a' 2 6 0 10 -1 -262144 -260097
0 1;
#X obj 246 164 tgl 12 0 empty empty b' 2 6 0 10 -1 -262144 -260097
0 1;
#X obj 312 101 bng 30 250 50 0 empty empty MUTE 5 15 0 8 -1 -4034 -260097
;
#X obj 559 389 spigot-toggle_orange;
#X obj 559 366 spigot-toggle_vert;
#X obj 559 342 spigot-toggle_red;
#X obj 556 443 * 1;
#X obj 525 390 spigot-toggle_orange;
#X obj 525 366 spigot-toggle_vert;
#X obj 524 342 spigot-toggle_red;
#X obj 525 443 * 1;
#X obj 560 292 r fll1;
#X obj 558 266 r fll0;
#X obj 559 413 spigot-toggle_orange;
#X obj 526 412 spigot-toggle_orange;
#X obj 559 223 r A;
#X obj 559 247 r B;
#X obj 596 433 - 1;
#X obj 598 457 * -1;
#X obj 153 164 tgl 12 0 empty empty A 3 6 0 10 -1 -262144 -191407 0
1;
#X obj 165 164 tgl 12 0 empty empty B 3 6 0 10 -1 -262144 -191407 0
1;
#X obj 178 164 tgl 12 0 empty empty a' 2 6 0 10 -1 -262144 -191407
0 1;
#X obj 191 164 tgl 12 0 empty empty b' 2 6 0 10 -1 -262144 -191407
0 1;
#X obj 259 164 tgl 12 0 empty empty A 3 6 0 10 -1 -262144 -191407 0
1;
#X obj 272 164 tgl 12 0 empty empty B 3 6 0 10 -1 -262144 -191407 0
1;
#X obj 285 164 tgl 12 0 empty empty a' 2 6 0 10 -1 -262144 -191407
0 1;
#X obj 298 164 tgl 12 0 empty empty b' 2 6 0 10 -1 -262144 -191407
0 1;
#X obj 311 146 cnv 15 58 30 empty empty <-TIME-<- 2 10 1 10 -1 -262144
0;
#X floatatom -548 -917 12 0 900 0 - - -;
#X obj 157 417 tgl 15 0 empty empty empty 17 7 0 10 -262144 -1 -1 0
1;
#X floatatom 598 663 5 0 0 0 - - -;
#X floatatom 481 678 5 0 0 0 - - -;
#X floatatom 352 -1232 4 0 0 0 f.r - -;
#X floatatom 29 -868 12 0 0 0 - - -;
#X obj 34 -955 bng 15 250 50 0 empty empty empty 17 7 0 10 -262144
-1 -1;
#X obj 34 -1021 r gateinA;
#X msg 23 -898 1;
#X obj 61 -919 delay;
#X msg 58 -899 0;
#X floatatom 91 -946 12 0 0 0 - - -;
#X obj -191 -989 * 0.5;
#X obj 33 -991 spigot-toggle_red;
#X obj 57 -995 r øs@Aloopnotnstartat0;
#X obj 170 -543 * 1;
#X obj 256 -1230 * 44103;
#X obj -643 -505 + 0;
#X obj 29 -849 s øs@Agate;
#X msg -59 -885 1;
#X obj -114 -911 sel;
#X obj -102 -852 f;
#X obj -117 -887 delay;
#X obj -60 -916 bng 15 250 50 0 empty empty empty 17 7 0 10 -262144
-1 -1;
#X obj -424 -1048 / 44103;
#X connect 0 0 135 0;
#X connect 1 0 134 0;
#X connect 2 0 17 1;
#X connect 3 0 17 3;
#X connect 4 0 17 2;
#X connect 5 0 137 0;
#X connect 6 0 138 0;
#X connect 7 0 18 1;
#X connect 7 0 20 0;
#X connect 8 0 18 0;
#X connect 9 0 8 1;
#X connect 10 0 8 2;
#X connect 11 0 8 4;
#X connect 12 0 8 3;
#X connect 13 0 4 0;
#X connect 14 0 3 0;
#X connect 15 0 7 0;
#X connect 16 0 2 0;
#X connect 17 0 19 0;
#X connect 17 0 19 1;
#X connect 17 0 149 0;
#X connect 18 0 17 0;
#X connect 21 0 46 0;
#X connect 22 0 54 0;
#X connect 23 0 47 0;
#X connect 24 0 25 0;
#X connect 25 0 23 0;
#X connect 26 0 36 0;
#X connect 28 0 24 1;
#X connect 29 0 25 1;
#X connect 31 0 73 0;
#X connect 34 0 35 0;
#X connect 35 0 73 0;
#X connect 35 1 73 1;
#X connect 36 0 37 0;
#X connect 37 0 38 0;
#X connect 38 0 116 1;
#X connect 39 0 27 0;
#X connect 39 0 42 0;
#X connect 41 0 23 1;
#X connect 42 0 43 0;
#X connect 43 0 44 0;
#X connect 45 0 132 0;
#X connect 46 0 30 0;
#X connect 47 0 49 0;
#X connect 48 0 116 0;
#X connect 49 0 48 0;
#X connect 52 0 73 0;
#X connect 52 1 73 2;
#X connect 53 0 52 0;
#X connect 54 0 51 0;
#X connect 54 0 91 0;
#X connect 55 0 62 0;
#X connect 56 0 57 0;
#X connect 57 0 55 0;
#X connect 58 0 59 0;
#X connect 59 0 60 0;
#X connect 60 0 117 1;
#X connect 61 0 55 1;
#X connect 62 0 65 0;
#X connect 63 0 117 0;
#X connect 64 0 56 0;
#X connect 65 0 63 0;
#X connect 66 0 56 1;
#X connect 67 0 57 1;
#X connect 68 0 58 0;
#X connect 69 0 21 0;
#X connect 70 0 71 0;
#X connect 71 0 74 0;
#X connect 71 0 88 1;
#X connect 73 0 39 0;
#X connect 73 0 50 0;
#X connect 74 0 76 0;
#X connect 74 1 76 1;
#X connect 76 0 170 0;
#X connect 77 0 82 0;
#X connect 78 0 264 0;
#X connect 80 0 79 0;
#X connect 81 0 70 0;
#X connect 81 0 143 0;
#X connect 81 0 252 0;
#X connect 82 0 81 0;
#X connect 83 0 257 0;
#X connect 88 0 123 0;
#X connect 89 0 90 0;
#X connect 90 0 91 0;
#X connect 90 1 91 1;
#X connect 91 0 76 0;
#X connect 93 0 62 1;
#X connect 94 0 47 1;
#X connect 95 0 119 0;
#X connect 96 0 97 0;
#X connect 96 0 98 0;
#X connect 96 0 69 0;
#X connect 97 0 89 0;
#X connect 98 0 22 0;
#X connect 99 0 24 0;
#X connect 102 0 111 0;
#X connect 104 0 102 0;
#X connect 105 0 107 0;
#X connect 106 0 105 0;
#X connect 107 0 256 0;
#X connect 108 0 112 0;
#X connect 109 0 110 0;
#X connect 109 0 177 0;
#X connect 110 0 105 0;
#X connect 111 0 112 1;
#X connect 111 0 78 0;
#X connect 112 0 115 0;
#X connect 112 0 120 0;
#X connect 112 0 118 0;
#X connect 114 0 109 0;
#X connect 116 0 45 0;
#X connect 117 0 45 1;
#X connect 119 0 93 0;
#X connect 119 0 94 0;
#X connect 121 0 70 0;
#X connect 122 0 70 0;
#X connect 123 0 40 0;
#X connect 123 0 86 0;
#X connect 124 0 142 0;
#X connect 125 0 124 0;
#X connect 126 0 104 0;
#X connect 127 0 31 0;
#X connect 128 0 144 0;
#X connect 129 0 255 0;
#X connect 130 0 83 0;
#X connect 131 0 153 0;
#X connect 132 0 175 0;
#X connect 133 0 171 0;
#X connect 133 0 136 1;
#X connect 134 0 136 2;
#X connect 135 0 136 4;
#X connect 136 0 132 1;
#X connect 137 0 136 3;
#X connect 138 0 136 5;
#X connect 139 0 147 0;
#X connect 140 0 5 0;
#X connect 141 0 109 0;
#X connect 142 0 110 1;
#X connect 144 0 22 0;
#X connect 145 0 109 0;
#X connect 146 0 0 0;
#X connect 146 0 147 0;
#X connect 146 0 167 0;
#X connect 146 0 180 0;
#X connect 146 0 187 0;
#X connect 147 0 148 0;
#X connect 148 0 6 0;
#X connect 150 0 83 0;
#X connect 152 0 151 0;
#X connect 153 0 136 0;
#X connect 154 0 152 0;
#X connect 155 0 157 0;
#X connect 156 0 158 0;
#X connect 157 0 156 0;
#X connect 158 0 5 0;
#X connect 159 0 161 0;
#X connect 160 0 159 0;
#X connect 161 0 163 0;
#X connect 162 0 160 0;
#X connect 163 0 164 0;
#X connect 164 0 6 0;
#X connect 165 0 153 1;
#X connect 166 0 150 0;
#X connect 167 0 9 0;
#X connect 167 0 11 0;
#X connect 167 0 7 0;
#X connect 167 0 3 0;
#X connect 167 0 4 0;
#X connect 167 0 2 0;
#X connect 169 0 133 0;
#X connect 170 0 88 0;
#X connect 171 0 172 1;
#X connect 172 0 173 0;
#X connect 173 0 175 1;
#X connect 174 0 172 0;
#X connect 175 0 8 0;
#X connect 176 0 94 0;
#X connect 176 0 93 0;
#X connect 177 0 255 0;
#X connect 177 1 255 1;
#X connect 178 0 11 0;
#X connect 179 0 2 0;
#X connect 179 0 4 0;
#X connect 179 0 3 0;
#X connect 179 0 7 0;
#X connect 179 0 12 0;
#X connect 180 0 12 0;
#X connect 180 0 181 0;
#X connect 181 0 179 0;
#X connect 181 0 178 0;
#X connect 182 0 183 0;
#X connect 182 0 185 0;
#X connect 183 0 184 0;
#X connect 185 0 186 0;
#X connect 187 0 182 0;
#X connect 187 0 183 0;
#X connect 187 0 185 0;
#X connect 188 0 189 0;
#X connect 190 0 191 0;
#X connect 191 0 188 0;
#X connect 192 0 193 0;
#X connect 193 0 191 1;
#X connect 194 0 197 0;
#X connect 195 0 197 0;
#X connect 196 0 197 0;
#X connect 197 0 204 0;
#X connect 197 0 6 0;
#X connect 198 0 201 0;
#X connect 199 0 201 0;
#X connect 200 0 201 0;
#X connect 201 0 5 0;
#X connect 202 0 197 0;
#X connect 203 0 201 0;
#X connect 204 0 205 0;
#X connect 205 0 242 0;
#X connect 206 0 200 1;
#X connect 207 0 199 1;
#X connect 208 0 198 1;
#X connect 209 0 203 1;
#X connect 210 0 196 1;
#X connect 211 0 195 1;
#X connect 212 0 194 1;
#X connect 213 0 202 1;
#X connect 214 0 167 0;
#X connect 215 0 218 0;
#X connect 216 0 218 0;
#X connect 217 0 218 0;
#X connect 218 0 229 0;
#X connect 218 0 0 0;
#X connect 219 0 222 0;
#X connect 220 0 222 0;
#X connect 221 0 222 0;
#X connect 222 0 1 0;
#X connect 223 0 226 0;
#X connect 223 0 225 0;
#X connect 223 0 203 0;
#X connect 223 0 202 0;
#X connect 224 0 219 0;
#X connect 224 0 215 0;
#X connect 224 0 198 0;
#X connect 224 0 194 0;
#X connect 225 0 218 0;
#X connect 226 0 222 0;
#X connect 227 0 221 0;
#X connect 227 0 217 0;
#X connect 227 0 200 0;
#X connect 227 0 196 0;
#X connect 228 0 220 0;
#X connect 228 0 216 0;
#X connect 228 0 199 0;
#X connect 228 0 195 0;
#X connect 229 0 230 0;
#X connect 231 0 221 1;
#X connect 232 0 220 1;
#X connect 233 0 219 1;
#X connect 234 0 226 1;
#X connect 235 0 217 1;
#X connect 236 0 216 1;
#X connect 237 0 215 1;
#X connect 238 0 225 1;
#X connect 240 0 52 0;
#X connect 243 0 6 0;
#X connect 244 0 256 1;
#X connect 245 0 258 0;
#X connect 246 0 249 0;
#X connect 246 0 248 0;
#X connect 247 0 253 0;
#X connect 248 0 245 0;
#X connect 249 0 250 0;
#X connect 250 0 245 0;
#X connect 251 0 249 1;
#X connect 251 0 262 1;
#X connect 252 0 251 0;
#X connect 253 0 246 0;
#X connect 254 0 253 1;
#X connect 254 0 248 0;
#X connect 254 0 260 0;
#X connect 255 0 89 0;
#X connect 256 0 108 0;
#X connect 257 0 170 1;
#X connect 259 0 261 1;
#X connect 260 0 263 0;
#X connect 260 0 262 0;
#X connect 261 0 245 0;
#X connect 262 0 261 0;
#X connect 263 0 259 0;
#X connect 264 0 77 0;
#X coords 0 -1 1 1 514 77 2 100 100;
