#N canvas -177 536 1280 698 10;
#X obj 319 102 vsl 20 70 0.02 2 1 0 empty empty L 8 6 0 7 -16662 -260097
-260097 2500 1;
#X obj 359 103 vsl 20 70 0.02 2 1 0 empty empty H 9 6 0 7 -16662 -260097
-260097 2600 1;
#X obj 339 103 vsl 20 70 0.02 2 1 0 empty empty M 8 6 0 7 -16662 -260097
-260097 3300 1;
#X obj 378 103 vsl 22 70 0 2 0 0 empty empty gain 3 6 0 7 -16662 -260097
-260097 3300 1;
#X obj -145 476 vfreeverb~;
#X obj 407 141 hsl 103 17 0 1 0 1 empty empty 'roomsize' 3 8 0 10 -16662
-260097 -260097 0 0;
#X obj 407 159 hsl 103 17 0 2 0 1 empty empty damp 3 8 0 10 -16662
-260097 -260097 2400 0;
#X obj 407 121 hsl 103 19 0 1 0 1 empty empty wet_reverb 3 8 0 10 -16662
-260097 -260097 0 0;
#X obj 407 101 hsl 103 19 0 1 0 1 empty empty dry 3 8 0 10 -16662 -260097
-260097 5100 0;
#X obj -111 57 inlet;
#X obj -71 57 inlet;
#X obj -20 56 inlet;
#X obj -151 57 inlet;
#X obj -145 542 dj-eq;
#X obj -148 505 *~;
#X obj -154 638 dac~;
#X obj 380 201 s V1A;
#X floatatom -522 -508 4 0 100 0 - - -;
#X floatatom -524 -585 0 0 200 0 - - -;
#X obj -822 -131 +~;
#X obj -823 -199 samphold~;
#X obj -822 -165 *~;
#X obj -612 -102 r~ phase;
#X obj -844 -728 s~ phase;
#X obj -727 -202 r~ phase;
#X obj -787 -164 r~ phase;
#X obj -530 -392 s chunk-size;
#X floatatom -524 -618 0 0 0 0 - - -;
#X text -878 -924 chunk size;
#X text -881 -910 in seconds;
#X obj -827 -875 r chunk-size;
#X obj -827 -850 t b f;
#X obj -612 -68 -~ 0.5;
#X obj -612 -34 *~ 0.5;
#X obj -612 -1 cos~;
#X obj -839 -770 phasor~;
#X obj -796 -405 s~ read-pt;
#X obj -784 -132 r~ read-pt;
#X obj -757 -735 +~ 0.5;
#X obj -756 -710 wrap~;
#X obj -756 -685 s~ phase2;
#X obj -785 55 +~;
#X obj -527 -417 * 0.001;
#X obj -822 -97 *~ 44100;
#X obj -822 -27 tabread4~ table23;
#X obj -823 -61 +~ 1;
#X floatatom -757 -786 5 0 0 0 - - -;
#X obj -696 -602 s precession;
#X obj -714 -851 t b f;
#X obj -714 -876 r precession;
#X obj -803 -623 * 0.01;
#X obj -516 -93 +~;
#X obj -507 -151 samphold~;
#X obj -516 -127 *~;
#X obj -338 -7 -~ 0.5;
#X obj -338 27 *~ 0.5;
#X obj -338 59 cos~;
#X obj -468 -93 r~ read-pt;
#X obj -506 -49 *~ 44100;
#X obj -516 21 tabread4~ table23;
#X obj -507 -176 r chunk-size;
#X obj -517 -13 +~ 1;
#X obj -419 -150 r~ phase2;
#X obj -471 -126 r~ phase2;
#X obj -368 -41 r~ phase2;
#X msg -522 -650 25;
#X floatatom -523 -846 12 0 900 0 - - -;
#X obj -523 -816 * 0.001;
#X text -482 -510 <-- chunk size (msec);
#X obj -839 -818 expr (pow(2 \, $f1/120)-$f3)/$f2;
#X obj -523 -766 t b f;
#X text -398 -953 (msec);
#X obj -800 -539 /;
#X floatatom -523 -1010 12 0 0 0 - - -;
#X floatatom -523 -1080 12 0 0 0 - - -;
#X msg -523 -878 900;
#X obj -410 -898 loadbang;
#X floatatom -522 -952 12 0 0 0 - - -;
#X obj -522 -977 * 1000;
#X floatatom -521 -477 4 0 900 0 - - -;
#X text -470 -975 <-- loop length;
#X text -488 -586 <-- speed \, percent;
#X obj -824 -372 s~ sample.pos1;
#X text -482 -478 <-- position \, 0-1;
#X obj -799 -475 *~ 1;
#X floatatom -521 -542 0 0 0 0 - - -;
#X obj -801 -591 t b f;
#X obj -801 -564 * 1;
#X text -484 -623 <-- pitch \, 0= norm \, >0= aigues;
#X floatatom -454 -215 0 0 0 0 - - -;
#X floatatom -509 -215 0 0 0 0 - - -;
#X obj -595 -245 loadbang;
#X obj -484 -711 loadbang;
#X msg -523 -686 0.5;
#X msg -522 -710 100;
#X obj -823 -234 r chunk-size;
#X text -485 -451 <-- trgr on/off;
#X obj -520 -1255 loadbang;
#X obj -521 -1174 soundfiler;
#X text -427 -1248 v-- re-read original table;
#X msg -239 -1216 read -resize \$1 table23;
#X obj 155 -1274 snapshot~;
#X obj 156 -1347 receive~ sample.pos1;
#X floatatom 156 -1251 12 0 0 0 - - -;
#X floatatom 157 -1189 12 0 0 0 - - -;
#X obj 194 -1324 tgl 15 0 empty empty empty 17 7 0 10 -262144 -1 -1
1 1;
#X floatatom -520 -1147 12 0 0 0 - - -;
#X obj 158 -1160 /;
#X text -483 -555 <-- pitch & speed \, norm= 1;
#X obj 195 -1383 loadbang;
#X obj 192 -1112 outlet;
#X obj -785 23 *~;
#X obj -516 55 *~;
#X obj 192 -1091 s posvisu;
#X msg -595 -218 44100;
#X floatatom 134 -1090 5 0 0 2 pos - -;
#X msg -483 -878 47191;
#X msg -413 -878 0;
#X obj -796 -444 *~ 1;
#X floatatom 292 -1308 4 0 0 0 f.r - -;
#X obj 358 -1357 r frA;
#X obj -240 -1254 r soundfileA;
#X obj -133 -577 r pitchA;
#X obj -133 -547 r speedA;
#X obj -133 -517 r pitchNspeedA;
#X obj -132 -487 r posA;
#X obj -778 350 *~;
#X obj 135 57 inlet;
#X obj 102 48 inlet;
#X obj 269 -1378 r øAtiTS1;
#X obj -303 -941 s looplenghtA;
#X obj -268 -570 * 100;
#X obj 349 -1378 r øAtiTS1>ø;
#X obj -52 18 r lo;
#X obj 136 7 - 1;
#X obj 135 28 * -1;
#X obj -214 593 s~ A0;
#X obj -134 -425 * 0.01;
#X obj -86 -123 * 1;
#X floatatom -85 -93 5 0 0 0 - - -;
#X obj 193 -75 * 1;
#X floatatom 194 -45 5 0 0 0 - - -;
#X obj 190 -12 - 1;
#X obj 189 9 * -1;
#X obj -136 -455 r directinA;
#X msg 388 53 0;
#X obj -802 -504 phasor~;
#X floatatom -651 374 12 0 0 0 - - -;
#X obj -721 373 pack f f;
#X obj -720 399 vline~;
#X obj -746 299 r øAtiTS1;
#X obj -737 427 *~;
#X msg -595 -178 0;
#X obj 70 -595 t b f;
#X obj 300 19 spigot-toggle_red;
#X obj 471 568 spigot-toggle_orange;
#X obj 471 545 spigot-toggle_vert;
#X obj 471 521 spigot-toggle_red;
#X obj 471 624 * 1;
#X obj 437 569 spigot-toggle_orange;
#X obj 437 545 spigot-toggle_vert;
#X obj 436 521 spigot-toggle_red;
#X obj 437 622 * 1;
#X obj 471 592 spigot-toggle_orange;
#X obj 438 591 spigot-toggle_orange;
#X obj 499 612 - 1;
#X obj 500 643 * -1;
#X obj 491 333 tgl 12 0 empty empty A 3 6 0 10 -1 -262144 -260097 0
1;
#X obj 504 333 tgl 12 0 empty empty B 3 6 0 10 -1 -262144 -260097 0
1;
#X obj 517 333 tgl 12 0 empty empty a' 2 6 0 10 -1 -262144 -260097
0 1;
#X obj 530 333 tgl 12 0 empty empty b' 2 6 0 10 -1 -262144 -260097
0 1;
#X obj 599 333 tgl 12 0 empty empty A 3 6 0 10 -1 -262144 -260097 0
1;
#X obj 610 333 tgl 12 0 empty empty B 3 6 0 10 -1 -262144 -260097 0
1;
#X obj 623 333 tgl 12 0 empty empty a' 2 6 0 10 -1 -262144 -260097
0 1;
#X obj 636 333 tgl 12 0 empty empty b' 2 6 0 10 -1 -262144 -260097
0 1;
#X obj 461 390 spigot-toggle_orange;
#X obj 461 367 spigot-toggle_vert;
#X obj 461 343 spigot-toggle_red;
#X obj 458 444 * 1;
#X obj 427 391 spigot-toggle_orange;
#X obj 427 367 spigot-toggle_vert;
#X obj 426 343 spigot-toggle_red;
#X obj 427 444 * 1;
#X obj 462 293 r fll1;
#X obj 460 267 r fll0;
#X obj 461 414 spigot-toggle_orange;
#X obj 428 413 spigot-toggle_orange;
#X obj 461 224 r A;
#X obj 461 248 r B;
#X obj 498 434 - 1;
#X obj 500 458 * -1;
#X obj 543 333 tgl 12 0 empty empty A 3 6 0 10 -1 -262144 -191407 0
1;
#X obj 555 333 tgl 12 0 empty empty B 3 6 0 10 -1 -262144 -191407 0
1;
#X obj 568 333 tgl 12 0 empty empty a' 2 6 0 10 -1 -262144 -191407
0 1;
#X obj 581 333 tgl 12 0 empty empty b' 2 6 0 10 -1 -262144 -191407
0 1;
#X obj 649 333 tgl 12 0 empty empty A 3 6 0 10 -1 -262144 -191407 0
1;
#X obj 662 333 tgl 12 0 empty empty B 3 6 0 10 -1 -262144 -191407 0
1;
#X obj 675 333 tgl 12 0 empty empty a' 2 6 0 10 -1 -262144 -191407
0 1;
#X obj 688 333 tgl 12 0 empty empty b' 2 6 0 10 -1 -262144 -191407
0 1;
#X floatatom -646 -916 12 0 900 0 - - -;
#X floatatom 500 664 5 0 0 0 - - -;
#X floatatom 254 -1231 12 0 0 0 f.r - -;
#X floatatom -69 -867 12 0 0 0 - - -;
#X obj -64 -954 bng 15 250 50 0 empty empty empty 17 7 0 10 -262144
-1 -1;
#X obj -64 -1020 r gateinA;
#X msg -75 -897 1;
#X obj -37 -918 delay;
#X msg -40 -898 0;
#X floatatom -7 -945 12 0 0 0 - - -;
#X obj -65 -990 spigot-toggle_red;
#X obj 72 -542 * 1;
#X obj 158 -1229 * 44103;
#X obj -741 -504 + 0;
#X msg -157 -884 1;
#X obj -212 -910 sel;
#X obj -214 -866 f;
#X obj -215 -886 delay;
#X obj -158 -915 bng 15 250 50 0 empty empty empty 17 7 0 10 -262144
-1 -1;
#X obj -522 -1047 / 44103;
#X msg -43 84 0.5;
#X floatatom 293 -1255 4 0 0 0 f.r - -;
#X obj 290 -1286 / 0.6;
#X obj 236 -1279 + 2;
#X obj 172 -1297 metro 44;
#X obj 593 333 cnv 7 7 13 empty empty empty 2 10 1 10 -1 -260097 0
;
#X obj -41 -994 r ø@S;
#X obj -69 -848 s øs@Agate;
#X obj 307 -27 r ø@S;
#X obj -289 -988 * 0.5;
#X msg 50 23 color \$1;
#X floatatom 52 -3 5 0 0 0 - - -;
#X obj 54 -52 bng 15 250 50 0 empty empty empty 17 7 0 10 -262144 -1
-1;
#X msg 54 -27 44;
#X obj 257 102 nbx 4 17 -1e+37 1e+37 0 0 empty empty empty 0 20 0 10
-260818 -1 -262144 200 256;
#X obj 396 -145 r T$mod;
#X obj 294 101 tgl 17 0 empty empty < 2 8 2 23 -260097 -1 -1 1 1;
#X obj 108 102 cnv 13 148 18 empty empty ENVLOP_TIME________RCV 22
10 1 8 -1 -260097 0;
#X obj 299 -103 r Tø@SA;
#X obj 303 -80 sel;
#X msg 312 -60 150;
#X obj 400 101 cnv 3 5 75 empty empty empty 12 12 0 14 -1 -66577 0
;
#X obj 399 -121 - 1;
#X obj 398 -100 * -1;
#X obj 398 -74 spigot-toggle_red;
#X obj 485 -103 r lo;
#X obj 683 -36 * 1;
#X obj 684 -70 * 0.00787402;
#X floatatom 684 -6 5 0 0 0 - - -;
#X obj 711 -135 ctlin;
#X floatatom 754 -99 5 0 0 0 - - -;
#X obj -654 306 r envRNGmidiloop;
#X obj -85 -157 / 127;
#X obj 194 -109 / 127;
#X obj -84 -195 ctlin 3;
#X obj 197 -136 ctlin 7;
#X floatatom -733 333 12 0 0 0 - - -;
#X obj 311 100 cnv 3 7 75 empty empty empty 12 12 0 14 -1 -66577 0
;
#X obj 100 102 tgl 15 0 empty empty empty 1 6 0 23 -260097 -1 -1 1
1;
#X obj 1098 39 ctlin 8;
#X obj 1239 39 ctlin 12;
#X obj 958 38 ctlin 4;
#X obj 1323 42 ctlin 16;
#X obj 1239 79 / 127;
#X obj 1090 79 / 127;
#X obj 939 79 / 127;
#X obj -11 26 r lo;
#X msg -11 85 0.5;
#X msg -39 167 1;
#X msg -39 137 0;
#X msg -224 163 1;
#X obj 225 160 hsl 84 16 0 6 0 0 empty empty shape_out 35 8 1 10 -16662
-260097 -260097 5983 1;
#X obj 104 159 hsl 84 16 0 6 0 0 empty empty shape_in 5 8 1 10 -16662
-260097 -260097 497 1;
#X obj 104 118 hsl 100 24 0 1 0 0 empty empty fade_in 4 12 1 12 -16662
-260097 -260097 790 1;
#X obj 210 119 hsl 100 24 1 0 0 0 empty empty fade_out 50 12 1 12 -16662
-260097 -260097 8600 1;
#X floatatom -295 225 5 0 0 0 in - -;
#X floatatom -233 225 5 0 0 0 out - -;
#X floatatom -522 224 5 0 0 0 pow_in - -;
#X floatatom -420 224 5 0 0 0 pow_out - -;
#X obj 191 160 bng 15 250 50 0 empty empty empty 4 8 1 13 -260097 -16662
-1;
#X obj 207 160 bng 15 250 50 0 empty empty empty 4 8 1 13 -260097 -16662
-1;
#X floatatom -356 228 5 0 0 0 - - -;
#X obj 103 143 hsl 206 16 0.001 1 0 0 empty empty sustain 85 9 1 12
-16662 -260097 -260097 14140 1;
#X obj -357 406 env_inout0Z;
#X msg -62 112 0.1;
#X obj 1323 80 / 63;
#X floatatom -603 221 5 0 0 0 - - -;
#X connect 0 0 13 1;
#X connect 1 0 13 3;
#X connect 2 0 13 2;
#X connect 3 0 14 1;
#X connect 3 0 16 0;
#X connect 4 0 14 0;
#X connect 5 0 4 1;
#X connect 6 0 4 2;
#X connect 7 0 4 4;
#X connect 8 0 4 3;
#X connect 9 0 2 0;
#X connect 10 0 1 0;
#X connect 11 0 3 0;
#X connect 12 0 0 0;
#X connect 13 0 15 0;
#X connect 13 0 15 1;
#X connect 13 0 136 0;
#X connect 14 0 13 0;
#X connect 17 0 42 0;
#X connect 18 0 50 0;
#X connect 19 0 43 0;
#X connect 20 0 21 0;
#X connect 21 0 19 0;
#X connect 22 0 32 0;
#X connect 24 0 20 1;
#X connect 25 0 21 1;
#X connect 27 0 69 0;
#X connect 30 0 31 0;
#X connect 31 0 69 0;
#X connect 31 1 69 1;
#X connect 32 0 33 0;
#X connect 33 0 34 0;
#X connect 34 0 111 1;
#X connect 35 0 23 0;
#X connect 35 0 38 0;
#X connect 37 0 19 1;
#X connect 38 0 39 0;
#X connect 39 0 40 0;
#X connect 41 0 126 0;
#X connect 42 0 26 0;
#X connect 43 0 45 0;
#X connect 44 0 111 0;
#X connect 45 0 44 0;
#X connect 48 0 69 0;
#X connect 48 1 69 2;
#X connect 49 0 48 0;
#X connect 50 0 47 0;
#X connect 50 0 87 0;
#X connect 51 0 58 0;
#X connect 52 0 53 0;
#X connect 53 0 51 0;
#X connect 54 0 55 0;
#X connect 55 0 56 0;
#X connect 56 0 112 1;
#X connect 57 0 51 1;
#X connect 58 0 61 0;
#X connect 59 0 112 0;
#X connect 60 0 52 0;
#X connect 61 0 59 0;
#X connect 62 0 52 1;
#X connect 63 0 53 1;
#X connect 64 0 54 0;
#X connect 65 0 17 0;
#X connect 66 0 67 0;
#X connect 67 0 70 0;
#X connect 67 0 84 1;
#X connect 69 0 35 0;
#X connect 69 0 46 0;
#X connect 70 0 72 0;
#X connect 70 1 72 1;
#X connect 72 0 146 0;
#X connect 73 0 78 0;
#X connect 74 0 218 0;
#X connect 76 0 75 0;
#X connect 77 0 66 0;
#X connect 77 0 130 0;
#X connect 77 0 228 0;
#X connect 78 0 77 0;
#X connect 79 0 212 0;
#X connect 84 0 118 0;
#X connect 85 0 86 0;
#X connect 86 0 87 0;
#X connect 86 1 87 1;
#X connect 87 0 72 0;
#X connect 89 0 58 1;
#X connect 90 0 43 1;
#X connect 91 0 114 0;
#X connect 92 0 93 0;
#X connect 92 0 94 0;
#X connect 92 0 65 0;
#X connect 93 0 85 0;
#X connect 94 0 18 0;
#X connect 95 0 20 0;
#X connect 98 0 106 0;
#X connect 100 0 98 0;
#X connect 101 0 103 0;
#X connect 102 0 101 0;
#X connect 103 0 211 0;
#X connect 104 0 107 0;
#X connect 105 0 153 0;
#X connect 105 0 223 0;
#X connect 106 0 107 1;
#X connect 106 0 74 0;
#X connect 107 0 110 0;
#X connect 107 0 115 0;
#X connect 107 0 113 0;
#X connect 109 0 105 0;
#X connect 111 0 41 0;
#X connect 112 0 41 1;
#X connect 114 0 89 0;
#X connect 114 0 90 0;
#X connect 116 0 66 0;
#X connect 117 0 66 0;
#X connect 118 0 36 0;
#X connect 118 0 82 0;
#X connect 119 0 221 0;
#X connect 120 0 119 0;
#X connect 121 0 100 0;
#X connect 122 0 27 0;
#X connect 123 0 131 0;
#X connect 124 0 210 0;
#X connect 125 0 79 0;
#X connect 126 0 151 0;
#X connect 127 0 134 0;
#X connect 129 0 105 0;
#X connect 131 0 18 0;
#X connect 132 0 105 0;
#X connect 133 0 134 0;
#X connect 133 0 145 0;
#X connect 133 0 219 0;
#X connect 133 0 231 0;
#X connect 133 0 235 0;
#X connect 133 0 283 0;
#X connect 134 0 135 0;
#X connect 137 0 79 0;
#X connect 138 0 139 0;
#X connect 140 0 141 0;
#X connect 141 0 142 0;
#X connect 142 0 143 0;
#X connect 144 0 137 0;
#X connect 145 0 5 0;
#X connect 145 0 7 0;
#X connect 145 0 3 0;
#X connect 145 0 1 0;
#X connect 145 0 2 0;
#X connect 145 0 0 0;
#X connect 146 0 84 0;
#X connect 147 0 148 1;
#X connect 148 0 149 0;
#X connect 149 0 151 1;
#X connect 150 0 255 0;
#X connect 151 0 4 0;
#X connect 152 0 90 0;
#X connect 152 0 89 0;
#X connect 153 0 210 0;
#X connect 153 1 210 1;
#X connect 154 0 233 0;
#X connect 155 0 158 0;
#X connect 156 0 158 0;
#X connect 157 0 158 0;
#X connect 158 0 165 0;
#X connect 159 0 162 0;
#X connect 160 0 162 0;
#X connect 161 0 162 0;
#X connect 163 0 158 0;
#X connect 164 0 162 0;
#X connect 165 0 166 0;
#X connect 166 0 200 0;
#X connect 167 0 161 1;
#X connect 168 0 160 1;
#X connect 169 0 159 1;
#X connect 170 0 164 1;
#X connect 171 0 157 1;
#X connect 172 0 156 1;
#X connect 173 0 155 1;
#X connect 174 0 163 1;
#X connect 175 0 178 0;
#X connect 176 0 178 0;
#X connect 177 0 178 0;
#X connect 178 0 189 0;
#X connect 179 0 182 0;
#X connect 180 0 182 0;
#X connect 181 0 182 0;
#X connect 183 0 186 0;
#X connect 183 0 185 0;
#X connect 183 0 164 0;
#X connect 183 0 163 0;
#X connect 184 0 179 0;
#X connect 184 0 175 0;
#X connect 184 0 159 0;
#X connect 184 0 155 0;
#X connect 185 0 178 0;
#X connect 186 0 182 0;
#X connect 187 0 181 0;
#X connect 187 0 177 0;
#X connect 187 0 161 0;
#X connect 187 0 157 0;
#X connect 188 0 180 0;
#X connect 188 0 176 0;
#X connect 188 0 160 0;
#X connect 188 0 156 0;
#X connect 189 0 190 0;
#X connect 191 0 181 1;
#X connect 192 0 180 1;
#X connect 193 0 179 1;
#X connect 194 0 186 1;
#X connect 195 0 177 1;
#X connect 196 0 176 1;
#X connect 197 0 175 1;
#X connect 198 0 185 1;
#X connect 199 0 48 0;
#X connect 201 0 211 1;
#X connect 202 0 226 0;
#X connect 203 0 206 0;
#X connect 203 0 205 0;
#X connect 204 0 209 0;
#X connect 205 0 202 0;
#X connect 206 0 207 0;
#X connect 207 0 202 0;
#X connect 208 0 206 1;
#X connect 208 0 216 1;
#X connect 209 0 203 0;
#X connect 210 0 85 0;
#X connect 211 0 104 0;
#X connect 212 0 146 1;
#X connect 213 0 215 1;
#X connect 214 0 217 0;
#X connect 214 0 216 0;
#X connect 215 0 202 0;
#X connect 216 0 215 0;
#X connect 217 0 213 0;
#X connect 218 0 73 0;
#X connect 219 0 8 0;
#X connect 219 0 281 0;
#X connect 220 0 222 0;
#X connect 221 0 220 0;
#X connect 222 0 223 1;
#X connect 223 0 101 0;
#X connect 225 0 209 1;
#X connect 225 0 205 0;
#X connect 225 0 214 0;
#X connect 227 0 154 1;
#X connect 227 0 241 0;
#X connect 228 0 208 0;
#X connect 229 0 233 0;
#X connect 230 0 229 0;
#X connect 231 0 232 0;
#X connect 232 0 230 0;
#X connect 233 0 280 0;
#X connect 234 0 243 0;
#X connect 235 0 154 1;
#X connect 235 0 243 1;
#X connect 237 0 238 0;
#X connect 238 1 239 0;
#X connect 239 0 233 0;
#X connect 241 0 242 0;
#X connect 242 0 243 1;
#X connect 243 0 233 0;
#X connect 244 0 243 1;
#X connect 245 0 247 0;
#X connect 246 0 245 0;
#X connect 248 0 246 0;
#X connect 248 1 249 0;
#X connect 250 0 147 0;
#X connect 251 0 138 0;
#X connect 252 0 140 0;
#X connect 253 0 251 0;
#X connect 254 0 252 0;
#X connect 255 0 148 0;
#X connect 257 0 285 0;
#X connect 258 0 263 0;
#X connect 259 0 262 0;
#X connect 260 0 264 0;
#X connect 261 0 284 0;
#X connect 262 0 1 0;
#X connect 263 0 2 0;
#X connect 264 0 0 0;
#X connect 265 0 266 0;
#X connect 265 0 268 0;
#X connect 265 0 267 0;
#X connect 265 0 269 0;
#X connect 267 0 257 0;
#X connect 267 0 271 0;
#X connect 267 0 270 0;
#X connect 270 0 277 0;
#X connect 271 0 276 0;
#X connect 272 0 274 0;
#X connect 273 0 275 0;
#X connect 274 0 282 5;
#X connect 275 0 282 7;
#X connect 276 0 282 1;
#X connect 277 0 282 2;
#X connect 280 0 282 4;
#X connect 281 0 282 6;
#X connect 282 0 126 1;
#X connect 283 0 272 0;
#X connect 284 0 3 0;
#X connect 285 0 282 0;
#X coords 0 -1 1 1 412 76 1 100 100;
