#N canvas 537 141 906 777 10;
#X obj 181 140 hsl 72 15 0 1 0 0 empty empty cut_out 3 7 1 10 -1 -262144
-262144 7100 1;
#X obj 103 140 hsl 72 15 0 1 0 0 empty empty cut_in 3 7 1 10 -1 -262144
-262144 0 1;
#X obj 337 102 vsl 12 78 0.02 2 1 0 empty empty empty 12 12 0 10 -1
-262144 -1 6541 1;
#X obj 365 102 vsl 12 78 0.02 2 1 0 empty empty empty 12 12 0 10 -1
-262144 -1 6541 1;
#X obj 351 102 vsl 12 78 0.02 2 1 0 empty empty empty 12 12 0 10 -1
-262144 -1 6541 1;
#X obj 103 124 hsl 72 15 0 1 0 0 empty empty fade_in 3 7 1 10 -260097
-262144 -262144 0 1;
#X obj 181 124 hsl 72 15 1 0 0 0 empty empty fadeNcut_out 3 7 1 10
-260097 -262144 -262144 5400 1;
#X obj 379 102 vsl 15 60 0 2 0 0 empty empty VL 3 6 0 10 -1 -262144
-1 2950 1;
#X obj 89 430 vfreeverb~;
#X obj 261 133 hsl 70 15 0 1 0 1 empty empty 'roomsize' 3 8 0 10 -1
-260097 -262144 0 0;
#X obj 261 149 hsl 70 15 0 2 0 1 empty empty damp 3 8 0 10 -1 -260097
-262144 6900 0;
#X obj 261 117 hsl 70 15 0 1 0 1 empty empty wet_reverb 3 8 0 10 -1
-260097 -262144 3100 0;
#X obj 261 101 hsl 70 15 0 1 0 1 empty empty dry 3 8 0 10 -1 -260097
-262144 6900 0;
#X obj 81 56 inlet;
#X obj 121 56 inlet;
#X obj 171 55 inlet;
#X obj 41 56 inlet;
#X obj 47 541 dj-eq;
#X obj 44 504 *~;
#X obj 114 489 dac~;
#X obj 86 349 s V1A;
#X floatatom -330 -509 4 0 100 0 - - -;
#X floatatom -332 -586 0 0 200 0 - - -;
#X obj -630 -132 +~;
#X obj -631 -200 samphold~;
#X obj -630 -166 *~;
#X obj -420 -103 r~ phase;
#X obj -652 -729 s~ phase;
#X obj -535 -203 r~ phase;
#X obj -595 -165 r~ phase;
#X obj -338 -393 s chunk-size;
#X floatatom -332 -619 0 0 0 0 - - -;
#X text -686 -925 chunk size;
#X text -689 -911 in seconds;
#X obj -635 -876 r chunk-size;
#X obj -635 -851 t b f;
#X obj -420 -69 -~ 0.5;
#X obj -420 -35 *~ 0.5;
#X obj -420 -2 cos~;
#X obj -647 -771 phasor~;
#X obj -604 -406 s~ read-pt;
#X obj -592 -132 r~ read-pt;
#X obj -565 -736 +~ 0.5;
#X obj -564 -711 wrap~;
#X obj -564 -686 s~ phase2;
#X obj -593 54 +~;
#X obj -335 -418 * 0.001;
#X obj -630 -98 *~ 44100;
#X obj -630 -28 tabread4~ table23;
#X obj -631 -62 +~ 1;
#X floatatom -565 -787 5 0 0 0 - - -;
#X obj -553 -622 s precession;
#X obj -522 -852 t b f;
#X obj -522 -877 r precession;
#X obj -611 -624 * 0.01;
#X obj -324 -94 +~;
#X obj -315 -152 samphold~;
#X obj -324 -128 *~;
#X obj -146 -8 -~ 0.5;
#X obj -146 26 *~ 0.5;
#X obj -146 58 cos~;
#X obj -276 -94 r~ read-pt;
#X obj -314 -50 *~ 44100;
#X obj -324 20 tabread4~ table23;
#X obj -315 -177 r chunk-size;
#X obj -325 -14 +~ 1;
#X obj -227 -151 r~ phase2;
#X obj -279 -127 r~ phase2;
#X obj -176 -42 r~ phase2;
#X msg -330 -651 25;
#X floatatom -331 -847 12 0 900 0 - - -;
#X obj -331 -817 * 0.001;
#X text -290 -511 <-- chunk size (msec);
#X obj -647 -819 expr (pow(2 \, $f1/120)-$f3)/$f2;
#X obj -331 -767 t b f;
#X text -206 -954 (msec);
#X obj -608 -540 /;
#X floatatom -331 -1011 12 0 0 0 - - -;
#X floatatom -331 -1081 12 0 0 0 - - -;
#X msg -331 -879 900;
#X obj -218 -899 loadbang;
#X floatatom -330 -953 12 0 0 0 - - -;
#X obj -330 -1048 / 44103;
#X obj -330 -978 * 1000;
#X floatatom -329 -478 4 0 900 0 - - -;
#X text -278 -976 <-- loop length;
#X text -296 -587 <-- speed \, percent;
#X obj -632 -373 s~ sample.pos1;
#X text -290 -479 <-- position \, 0-1;
#X obj -607 -476 *~ 1;
#X floatatom -329 -543 0 0 0 0 - - -;
#X obj -609 -592 t b f;
#X obj -609 -565 * 1;
#X text -292 -624 <-- pitch \, 0= norm \, >0= aigues;
#X floatatom -262 -216 0 0 0 0 - - -;
#X floatatom -317 -216 0 0 0 0 - - -;
#X obj -403 -246 loadbang;
#X obj -292 -712 loadbang;
#X msg -331 -687 0.5;
#X msg -330 -711 100;
#X obj -631 -235 r chunk-size;
#X text -293 -452 <-- trgr on/off;
#X obj -328 -1256 loadbang;
#X obj -327 -1188 soundfiler;
#X text -235 -1249 v-- re-read original table;
#X msg -328 -1219 read ../sound/voice.wav table23;
#X msg -47 -1217 read -resize \$1 table23;
#X obj 348 -1279 snapshot~;
#X obj 348 -1348 receive~ sample.pos1;
#X floatatom 348 -1252 12 0 0 0 - - -;
#X floatatom 349 -1206 12 0 0 0 - - -;
#X obj 386 -1325 tgl 15 0 empty empty empty 17 7 0 10 -262144 -1 -1
0 1;
#X obj 362 -1306 metro 44;
#X floatatom -328 -1148 12 0 0 0 - - -;
#X obj 350 -1161 /;
#X text -291 -556 <-- pitch & speed \, norm= 1;
#X obj 387 -1384 loadbang;
#X obj 397 -1181 outlet;
#X obj -593 22 *~;
#X obj -324 54 *~;
#X obj 349 -1230 * 44100;
#X obj -549 -505 - 0;
#X obj 384 -1130 s posvisu;
#X msg -403 -219 44100;
#X floatatom 337 -1117 5 0 0 2 pos - -;
#X msg -291 -879 47191;
#X msg -221 -879 0;
#X obj -604 -445 *~ 1;
#X floatatom 550 -1333 4 0 0 0 f.r - -;
#X obj 551 -1358 r frA;
#X obj -57 -1321 r soundfileA;
#X obj 59 -578 r pitchA;
#X obj 59 -548 r speedA;
#X obj 59 -518 r pitchNspeedA;
#X obj 60 -488 r posA;
#X obj -550 176 r BangAtoenv;
#X obj -586 349 *~;
#X floatatom -568 148 5 0 4 0 - - -;
#X floatatom -569 225 5 0 0 0 - - -;
#X floatatom -526 225 5 0 0 0 - - -;
#X obj -573 282 env_inout0Z;
#X floatatom -484 225 5 0 0 0 - - -;
#X floatatom -441 225 5 0 0 0 - - -;
#X obj 327 56 inlet;
#X obj 287 56 inlet;
#X obj 461 -1379 r øAtiTS1;
#X obj 429 -1306 + 2;
#X obj -111 -942 s looplenghtA;
#X obj -76 -571 * 100;
#X obj 541 -1379 r øAtiTS1>ø;
#X obj 181 25 r lo;
#X obj 328 6 - 1;
#X obj 327 27 * -1;
#X obj 193 482 s~ A0;
#X obj 58 -426 * 0.01;
#X obj -677 187 * -1;
#X obj -678 166 - 1;
#X obj -550 197 spigot-toggle_red;
#X obj -682 213 r IT≠T;
#X obj 108 -196 ctlin 3;
#X obj 106 -124 * 1;
#X obj 107 -158 * 0.00787402;
#X floatatom 107 -94 5 0 0 0 - - -;
#X obj 256 -124 * 1;
#X obj 257 -158 * 0.00787402;
#X floatatom 257 -94 5 0 0 0 - - -;
#X obj 257 -196 ctlin 7;
#X obj 388 3 - 1;
#X obj 387 24 * -1;
#X obj -525 199 r lo;
#X obj 56 -456 r directinA;
#X msg 126 13 0;
#X text -17 218 enveloppe;
#X obj -618 176 r T$mod;
#X obj -610 -505 phasor~;
#X floatatom -459 373 12 0 0 0 - - -;
#X obj -529 372 pack f f;
#X obj -528 398 vline~;
#X obj -541 342 r øAtiTS1;
#X obj -552 467 *~;
#X msg -403 -179 0;
#X obj 262 -596 t b f;
#X obj 264 -543 * 1;
#X msg -32 79 0;
#X msg -2 79 1;
#X msg 191 -7 1;
#X obj 379 168 bng 15 250 50 0 empty empty empty 17 7 0 10 -262144
-1 -1;
#X obj 103 101 hsl 150 11 0 1 0 0 empty empty O::::::::::sharpness:::::::::1
0 4 0 8 -1 -258113 -191407 3580 1;
#X obj 103 113 hsl 72 10 0 1 0 0 empty empty :::::::::::::::: -2 5
0 8 -1 -258113 -191407 1668 1;
#X obj -94 279 s envfadreducin;
#X obj 181 113 hsl 72 10 0 1 0 0 empty empty ::::::::::::::: 0 5 0
8 -1 -258113 -191407 1668 1;
#X obj -88 307 s envfadreducout;
#X msg -22 129 0.2;
#X obj -409 193 bng 15 250 50 0 empty empty empty 17 7 0 10 -262144
-1 -1;
#X floatatom 301 166 5 0 0 0 time - -;
#X obj 234 -279 s envRNGmidiloop;
#X obj 240 -91 r T$;
#X obj 236 5 spigot-toggle_red;
#X obj 261 7 r lo;
#X obj 259 166 tgl 15 0 empty empty empty 17 7 0 10 -260097 -1 -1 1
1;
#X obj 538 497 spigot-toggle_orange;
#X obj 538 474 spigot-toggle_vert;
#X obj 538 450 spigot-toggle_red;
#X obj 538 553 * 1;
#X obj 504 498 spigot-toggle_orange;
#X obj 504 474 spigot-toggle_vert;
#X obj 503 450 spigot-toggle_red;
#X obj 504 551 * 1;
#X obj 547 291 r fll1;
#X obj 545 265 r fll0;
#X obj 538 521 spigot-toggle_orange;
#X obj 505 520 spigot-toggle_orange;
#X obj 546 222 r A;
#X obj 546 246 r B;
#X obj 566 541 - 1;
#X obj 568 565 * -1;
#X obj 100 154 cnv 10 155 30 empty empty empty 20 12 0 14 -1 -66577
0;
#X obj 102 161 tgl 12 0 empty empty A 3 6 0 10 -1 -262144 -191407 0
1;
#X obj 119 162 tgl 12 0 empty empty B 3 6 0 10 -1 -262144 -191407 0
1;
#X obj 139 162 tgl 12 0 empty empty a' 2 6 0 10 -1 -262144 -191407
0 1;
#X obj 161 162 tgl 12 0 empty empty b' 2 6 0 10 -1 -262144 -191407
0 1;
#X obj 183 162 tgl 12 0 empty empty A 3 6 0 10 -1 -262144 -191407 0
1;
#X obj 201 161 tgl 12 0 empty empty B 3 6 0 10 -1 -262144 -191407 0
1;
#X obj 222 161 tgl 12 0 empty empty a' 2 6 0 10 -1 -262144 -191407
0 1;
#X obj 243 159 tgl 12 0 empty empty b' 2 6 0 10 -1 -262144 -191407
0 1;
#X connect 0 0 139 0;
#X connect 1 0 138 0;
#X connect 2 0 17 1;
#X connect 3 0 17 3;
#X connect 4 0 17 2;
#X connect 5 0 141 0;
#X connect 6 0 142 0;
#X connect 7 0 18 1;
#X connect 7 0 20 0;
#X connect 8 0 18 0;
#X connect 9 0 8 1;
#X connect 10 0 8 2;
#X connect 11 0 8 4;
#X connect 12 0 8 3;
#X connect 13 0 4 0;
#X connect 14 0 3 0;
#X connect 15 0 7 0;
#X connect 16 0 2 0;
#X connect 17 0 19 0;
#X connect 17 0 19 1;
#X connect 17 0 153 0;
#X connect 18 0 17 0;
#X connect 21 0 46 0;
#X connect 22 0 54 0;
#X connect 23 0 47 0;
#X connect 24 0 25 0;
#X connect 25 0 23 0;
#X connect 26 0 36 0;
#X connect 28 0 24 1;
#X connect 29 0 25 1;
#X connect 31 0 73 0;
#X connect 34 0 35 0;
#X connect 35 0 73 0;
#X connect 35 1 73 1;
#X connect 36 0 37 0;
#X connect 37 0 38 0;
#X connect 38 0 118 1;
#X connect 39 0 27 0;
#X connect 39 0 42 0;
#X connect 41 0 23 1;
#X connect 42 0 43 0;
#X connect 43 0 44 0;
#X connect 45 0 136 0;
#X connect 46 0 30 0;
#X connect 47 0 49 0;
#X connect 48 0 118 0;
#X connect 49 0 48 0;
#X connect 52 0 73 0;
#X connect 52 1 73 2;
#X connect 53 0 52 0;
#X connect 54 0 51 0;
#X connect 54 0 92 0;
#X connect 55 0 62 0;
#X connect 56 0 57 0;
#X connect 57 0 55 0;
#X connect 58 0 59 0;
#X connect 59 0 60 0;
#X connect 60 0 119 1;
#X connect 61 0 55 1;
#X connect 62 0 65 0;
#X connect 63 0 119 0;
#X connect 64 0 56 0;
#X connect 65 0 63 0;
#X connect 66 0 56 1;
#X connect 67 0 57 1;
#X connect 68 0 58 0;
#X connect 69 0 21 0;
#X connect 70 0 71 0;
#X connect 71 0 74 0;
#X connect 71 0 89 1;
#X connect 73 0 39 0;
#X connect 73 0 50 0;
#X connect 74 0 76 0;
#X connect 74 1 76 1;
#X connect 76 0 174 0;
#X connect 77 0 83 0;
#X connect 78 0 82 0;
#X connect 80 0 79 0;
#X connect 81 0 70 0;
#X connect 81 0 147 0;
#X connect 82 0 77 0;
#X connect 83 0 81 0;
#X connect 84 0 121 0;
#X connect 89 0 127 0;
#X connect 90 0 91 0;
#X connect 91 0 92 0;
#X connect 91 1 92 1;
#X connect 92 0 76 0;
#X connect 94 0 62 1;
#X connect 95 0 47 1;
#X connect 96 0 123 0;
#X connect 97 0 98 0;
#X connect 97 0 99 0;
#X connect 97 0 69 0;
#X connect 98 0 90 0;
#X connect 99 0 22 0;
#X connect 100 0 24 0;
#X connect 102 0 105 0;
#X connect 103 0 113 0;
#X connect 105 0 103 0;
#X connect 106 0 103 0;
#X connect 107 0 109 0;
#X connect 108 0 107 0;
#X connect 109 0 120 0;
#X connect 110 0 114 0;
#X connect 111 0 112 0;
#X connect 111 0 181 0;
#X connect 112 0 107 0;
#X connect 113 0 114 1;
#X connect 113 0 78 0;
#X connect 114 0 117 0;
#X connect 114 0 124 0;
#X connect 114 0 122 0;
#X connect 116 0 111 0;
#X connect 118 0 45 0;
#X connect 119 0 45 1;
#X connect 120 0 110 0;
#X connect 121 0 174 1;
#X connect 123 0 94 0;
#X connect 123 0 95 0;
#X connect 125 0 70 0;
#X connect 126 0 70 0;
#X connect 127 0 40 0;
#X connect 127 0 87 0;
#X connect 128 0 146 0;
#X connect 129 0 128 0;
#X connect 130 0 106 0;
#X connect 131 0 31 0;
#X connect 132 0 148 0;
#X connect 133 0 182 0;
#X connect 134 0 84 0;
#X connect 135 0 157 0;
#X connect 136 0 179 0;
#X connect 137 0 140 1;
#X connect 137 0 175 0;
#X connect 138 0 140 2;
#X connect 139 0 140 4;
#X connect 140 0 136 1;
#X connect 141 0 140 3;
#X connect 142 0 140 5;
#X connect 143 0 151 0;
#X connect 144 0 5 0;
#X connect 145 0 111 0;
#X connect 146 0 112 1;
#X connect 148 0 22 0;
#X connect 149 0 111 0;
#X connect 150 0 0 0;
#X connect 150 0 151 0;
#X connect 150 0 171 0;
#X connect 150 0 185 0;
#X connect 150 0 192 0;
#X connect 151 0 152 0;
#X connect 152 0 6 0;
#X connect 154 0 84 0;
#X connect 156 0 155 0;
#X connect 157 0 140 0;
#X connect 158 0 156 0;
#X connect 159 0 161 0;
#X connect 160 0 162 0;
#X connect 161 0 160 0;
#X connect 162 0 5 0;
#X connect 163 0 165 0;
#X connect 164 0 163 0;
#X connect 165 0 167 0;
#X connect 166 0 164 0;
#X connect 167 0 168 0;
#X connect 168 0 6 0;
#X connect 169 0 157 1;
#X connect 170 0 154 0;
#X connect 171 0 9 0;
#X connect 171 0 11 0;
#X connect 171 0 7 0;
#X connect 171 0 3 0;
#X connect 171 0 4 0;
#X connect 171 0 2 0;
#X connect 173 0 137 0;
#X connect 174 0 89 0;
#X connect 175 0 176 1;
#X connect 176 0 177 0;
#X connect 177 0 179 1;
#X connect 178 0 176 0;
#X connect 179 0 8 0;
#X connect 180 0 95 0;
#X connect 180 0 94 0;
#X connect 181 0 182 0;
#X connect 181 1 182 1;
#X connect 182 0 90 0;
#X connect 183 0 11 0;
#X connect 184 0 2 0;
#X connect 184 0 4 0;
#X connect 184 0 3 0;
#X connect 184 0 7 0;
#X connect 184 0 12 0;
#X connect 185 0 12 0;
#X connect 186 0 184 0;
#X connect 186 0 183 0;
#X connect 187 0 188 0;
#X connect 187 0 190 0;
#X connect 188 0 189 0;
#X connect 190 0 191 0;
#X connect 192 0 187 0;
#X connect 192 0 188 0;
#X connect 192 0 190 0;
#X connect 193 0 140 0;
#X connect 194 0 195 0;
#X connect 196 0 197 0;
#X connect 197 0 194 0;
#X connect 198 0 199 0;
#X connect 199 0 197 1;
#X connect 200 0 203 0;
#X connect 201 0 203 0;
#X connect 202 0 203 0;
#X connect 203 0 214 0;
#X connect 204 0 207 0;
#X connect 205 0 207 0;
#X connect 206 0 207 0;
#X connect 207 0 1 0;
#X connect 208 0 211 0;
#X connect 208 0 210 0;
#X connect 209 0 204 0;
#X connect 209 0 200 0;
#X connect 210 0 203 0;
#X connect 211 0 207 0;
#X connect 212 0 206 0;
#X connect 212 0 202 0;
#X connect 213 0 205 0;
#X connect 213 0 201 0;
#X connect 214 0 215 0;
#X connect 215 0 0 0;
#X connect 217 0 206 1;
#X connect 218 0 205 1;
#X connect 219 0 204 1;
#X connect 220 0 211 1;
#X connect 221 0 202 1;
#X connect 222 0 201 1;
#X connect 223 0 200 1;
#X connect 224 0 210 1;
#X coords 0 -1 1 1 295 85 2 100 100;
