#N canvas 774 75 906 623 10;
#X obj 183 243 hsl 70 20 0 1 0 0 empty empty cut_out 3 7 0 10 -1 -262144
-262144 6900 1;
#X obj 106 243 hsl 70 20 0 1 0 0 empty empty cut_in 3 7 0 10 -1 -262144
-262144 500 1;
#X obj 104 104 vsl 15 90 0.02 2 1 0 empty empty empty 12 12 0 10 -1
-262144 -1 7560 1;
#X obj 138 104 vsl 15 90 0.02 2 1 0 empty empty empty 12 12 0 10 -1
-262144 -1 8760 1;
#X obj 121 104 vsl 15 90 0.02 2 1 0 empty empty empty 12 12 0 10 -1
-262144 -1 8460 1;
#X obj 106 222 hsl 70 20 0 1 0 0 empty empty fade_in 3 7 0 10 -228856
-1 -1 500 1;
#X obj 183 222 hsl 70 20 1 0 0 0 empty empty fadeNcut_out -1 7 0 10
-228856 -1 -1 5270 1;
#X obj 157 104 vsl 20 72 0 2 0 0 empty empty VL 3 6 0 10 -1 -262144
-1 0 1;
#X obj 97 576 vfreeverb~;
#X obj 183 154 hsl 70 20 0 1 0 1 empty empty 'roomsize' 3 8 0 10 -262144
-260097 -1 2600 0;
#X obj 183 177 hsl 70 20 0 2 0 1 empty empty damp 3 8 0 10 -262144
-260097 -1 3700 0;
#X obj 183 131 hsl 70 20 0 1 0 1 empty empty wet_reverb 3 8 0 10 -262144
-260097 -1 1300 0;
#X obj 183 103 hsl 70 20 0 1 0 1 empty empty dry 3 8 0 10 -262144 -260097
-1 6900 0;
#X obj 86 62 inlet;
#X obj 126 62 inlet;
#X obj 176 62 inlet;
#X obj 46 62 inlet;
#X obj 97 603 dj-eq;
#X obj 236 595 *~;
#X obj 122 635 dac~;
#X floatatom -325 -503 4 0 100 0 - - -;
#X floatatom -327 -580 0 0 200 0 - - -;
#X obj -625 -126 +~;
#X obj -626 -194 samphold~;
#X obj -625 -160 *~;
#X floatatom -327 -613 0 0 0 0 - - -;
#X text -681 -919 chunk size;
#X text -684 -905 in seconds;
#X obj -630 -845 t b f;
#X obj -415 -63 -~ 0.5;
#X obj -415 -29 *~ 0.5;
#X obj -415 4 cos~;
#X obj -642 -765 phasor~;
#X obj -560 -730 +~ 0.5;
#X obj -559 -705 wrap~;
#X obj -588 60 +~;
#X obj -330 -412 * 0.001;
#X obj -605 -499 phasor~;
#X obj -625 -92 *~ 44100;
#X obj -626 -56 +~ 1;
#X floatatom -560 -781 5 0 0 0 - - -;
#X obj -517 -846 t b f;
#X obj -606 -618 * 0.01;
#X obj -319 -88 +~;
#X obj -310 -146 samphold~;
#X obj -319 -122 *~;
#X obj -141 -2 -~ 0.5;
#X obj -141 32 *~ 0.5;
#X obj -141 64 cos~;
#X obj -309 -44 *~ 44100;
#X obj -320 -8 +~ 1;
#X msg -325 -645 25;
#X floatatom -326 -841 12 0 900 0 - - -;
#X obj -326 -811 * 0.001;
#X text -285 -505 <-- chunk size (msec);
#X obj -642 -813 expr (pow(2 \, $f1/120)-$f3)/$f2;
#X obj -326 -761 t b f;
#X text -201 -948 (msec);
#X obj -603 -534 /;
#X floatatom -326 -1005 12 0 0 0 - - -;
#X floatatom -326 -1075 12 0 0 0 - - -;
#X msg -326 -873 900;
#X obj -213 -893 loadbang;
#X floatatom -325 -947 12 0 0 0 - - -;
#X obj -325 -1042 / 44103;
#X obj -325 -972 * 1000;
#X floatatom -324 -472 4 0 900 0 - - -;
#X text -273 -970 <-- loop length;
#X text -291 -581 <-- speed \, percent;
#X text -285 -473 <-- position \, 0-1;
#X obj -602 -470 *~ 1;
#X floatatom -324 -537 0 0 0 0 - - -;
#X obj -604 -586 t b f;
#X obj -604 -559 * 1;
#X text -287 -618 <-- pitch \, 0= norm \, >0= aigues;
#X floatatom -257 -210 0 0 0 0 - - -;
#X floatatom -312 -210 0 0 0 0 - - -;
#X obj -398 -240 loadbang;
#X obj -287 -706 loadbang;
#X msg -326 -681 0.5;
#X msg -325 -705 100;
#X obj -626 -229 r chunk-size;
#X text -288 -446 <-- trgr on/off;
#X obj -323 -1250 loadbang;
#X obj -322 -1182 soundfiler;
#X text -230 -1243 v-- re-read original table;
#X msg -323 -1213 read ../sound/voice.wav table23;
#X obj 353 -1273 snapshot~;
#X floatatom 353 -1246 12 0 0 0 - - -;
#X floatatom 354 -1200 12 0 0 0 - - -;
#X obj 391 -1319 tgl 15 0 empty empty empty 17 7 0 10 -262144 -1 -1
1 1;
#X obj 367 -1300 metro 44;
#X floatatom -323 -1142 12 0 0 0 - - -;
#X obj 355 -1155 /;
#X text -286 -550 <-- pitch & speed \, norm= 1;
#X obj 392 -1378 loadbang;
#X obj 402 -1175 outlet;
#X obj -588 28 *~;
#X obj -319 60 *~;
#X obj 354 -1224 * 44100;
#X obj -540 -498 - 0;
#X msg -398 -213 44100;
#X floatatom 353 -1094 5 0 0 2 pos1 - -;
#X msg -286 -873 47191;
#X msg -216 -873 0;
#X obj -599 -439 *~ 1;
#X floatatom 555 -1327 4 0 0 0 f.r - -;
#X obj -437 367 *~;
#X floatatom -415 258 5 0 4 0 - - -;
#X floatatom -374 261 5 0 0 0 - - -;
#X floatatom -331 261 5 0 0 0 - - -;
#X floatatom 101 276 5 0 0 0 - - -;
#X floatatom 178 276 5 0 0 0 - - -;
#X obj 332 62 inlet;
#X obj 292 62 inlet;
#X obj 434 -1300 + 2;
#X obj -71 -565 * 100;
#X obj 397 -44 r lo;
#X obj 319 149 - 1;
#X obj 318 170 * -1;
#X obj 188 -402 * 0.01;
#X obj 64 -572 r pitchB;
#X obj 64 -542 r speedB;
#X obj 64 -512 r pitchNspeedB;
#X obj -627 -367 s~ sample.pos11;
#X obj -333 -387 s chunk-size1;
#X obj -559 -680 s~ phase21;
#X obj -647 -723 s~ phase1;
#X obj -630 -870 r chunk-size1;
#X obj -517 -871 r precession1;
#X obj -548 -616 s precession1;
#X obj -106 -936 s looplenghtB;
#X obj -599 -400 s~ read-pt1;
#X msg -42 -1211 read -resize \$1 table24;
#X obj 389 -1124 s posvisu1;
#X obj 353 -1342 receive~ sample.pos11;
#X obj 556 -1352 r frB;
#X obj -171 -36 r~ phase21;
#X obj -222 -145 r~ phase21;
#X obj -274 -121 r~ phase21;
#X obj -271 -88 r~ read-pt1;
#X obj -310 -171 r chunk-size1;
#X obj -319 26 tabread4~ table24;
#X obj -415 -97 r~ phase1;
#X obj -625 -22 tabread4~ table24;
#X obj -587 -126 r~ read-pt1;
#X obj -590 -159 r~ phase1;
#X obj -530 -197 r~ phase1;
#X obj 201 628 s~ A1;
#X obj -419 303 env_inout1;
#X obj 546 -1373 r øAtiTS2;
#X obj 466 -1373 r øAtiTS1>ø;
#X obj -52 -1315 r audiofileB;
#X obj -422 406 r øAtiTS2;
#X obj 315 267 s opa1;
#X obj 148 351 s V1B;
#X obj -474 186 r IT≠T1;
#X floatatom 495 423 12 0 0 0 - - -;
#X obj 502 256 ctlin 23;
#X obj 472 110 * 1;
#X obj 473 76 * 0.00787402;
#X floatatom 473 140 5 0 0 0 - - -;
#X obj 474 38 ctlin 19;
#X floatatom 502 329 12 0 0 0 - - -;
#X obj 504 292 - 127;
#X floatatom 498 376 12 0 0 0 - - -;
#X floatatom 523 178 12 0 0 0 - - -;
#X obj 498 353 * 0.00787402;
#X obj 499 397 * -1;
#X floatatom 260 457 5 0 0 0 - - -;
#X floatatom 259 527 5 0 0 0 - - -;
#X obj 186 -432 r directinB;
#X text 21 243 enveloppe;
#X obj -473 211 - 1;
#X obj -473 241 * -1;
#X obj -435 214 r BangBtoenv;
#X obj 65 -482 r posB;
#X floatatom -340 437 12 0 0 0 - - -;
#X obj -410 436 pack f f;
#X obj -409 462 vline~;
#X obj -433 531 *~;
#X obj 241 -558 t b f;
#X obj 243 -505 * 1;
#X floatatom -324 348 5 0 4 0 - - -;
#X obj -328 327 r T$mod;
#X obj -313 397 r øAtiTS1;
#X obj -350 186 r T$mod1;
#X obj 234 572 *~ -1;
#X msg 128 -44 0;
#X msg 160 -44 1;
#X msg -7 162 1;
#X msg 25 162 0;
#X obj 157 177 bng 20 250 50 0 empty empty empty 17 7 0 10 -262144
-1 -1;
#X obj 6 221 bng 15 250 50 0 empty empty empty 17 7 0 10 -262144 -1
-1;
#X obj 106 202 hsl 147 8 0 1 0 0 empty empty O:::::::::sharpness:::::::::1
4 4 0 8 -262144 -258113 -1 2920 1;
#X obj 106 211 hsl 70 10 0 1 0 0 empty empty O:::::::::::1 4 5 0 8
-262144 -258113 -1 1380 1;
#X obj 183 211 hsl 70 10 0 1 0 0 empty empty O:::::::::::1 4 5 0 8
-262144 -258113 -1 1380 1;
#X obj -83 312 s envfadreducout1;
#X obj -89 284 s envfadreducin1;
#X msg -17 134 0.2;
#X obj -42 181 r lo;
#X connect 0 0 110 0;
#X connect 1 0 109 0;
#X connect 2 0 17 1;
#X connect 3 0 17 3;
#X connect 4 0 17 2;
#X connect 5 0 111 0;
#X connect 6 0 112 0;
#X connect 7 0 18 1;
#X connect 7 0 154 0;
#X connect 7 0 155 0;
#X connect 8 0 187 0;
#X connect 9 0 8 1;
#X connect 10 0 8 2;
#X connect 11 0 8 4;
#X connect 12 0 8 3;
#X connect 13 0 4 0;
#X connect 14 0 3 0;
#X connect 15 0 7 0;
#X connect 16 0 2 0;
#X connect 17 0 19 0;
#X connect 17 0 19 1;
#X connect 17 0 148 0;
#X connect 18 0 17 0;
#X connect 20 0 36 0;
#X connect 21 0 42 0;
#X connect 22 0 38 0;
#X connect 23 0 24 0;
#X connect 24 0 22 0;
#X connect 25 0 55 0;
#X connect 28 0 55 0;
#X connect 28 1 55 1;
#X connect 29 0 30 0;
#X connect 30 0 31 0;
#X connect 31 0 97 1;
#X connect 32 0 33 0;
#X connect 32 0 127 0;
#X connect 33 0 34 0;
#X connect 34 0 126 0;
#X connect 35 0 107 0;
#X connect 36 0 125 0;
#X connect 37 0 70 0;
#X connect 38 0 39 0;
#X connect 39 0 144 0;
#X connect 41 0 55 0;
#X connect 41 1 55 2;
#X connect 42 0 73 0;
#X connect 42 0 130 0;
#X connect 43 0 49 0;
#X connect 44 0 45 0;
#X connect 45 0 43 0;
#X connect 46 0 47 0;
#X connect 47 0 48 0;
#X connect 48 0 98 1;
#X connect 49 0 50 0;
#X connect 50 0 142 0;
#X connect 51 0 20 0;
#X connect 52 0 53 0;
#X connect 53 0 56 0;
#X connect 53 0 70 1;
#X connect 55 0 32 0;
#X connect 55 0 40 0;
#X connect 56 0 58 0;
#X connect 56 1 58 1;
#X connect 58 0 37 0;
#X connect 59 0 65 0;
#X connect 60 0 64 0;
#X connect 62 0 61 0;
#X connect 63 0 52 0;
#X connect 63 0 131 0;
#X connect 64 0 59 0;
#X connect 65 0 63 0;
#X connect 66 0 100 0;
#X connect 70 0 105 0;
#X connect 71 0 72 0;
#X connect 72 0 73 0;
#X connect 72 1 73 1;
#X connect 73 0 58 0;
#X connect 75 0 49 1;
#X connect 76 0 38 1;
#X connect 77 0 101 0;
#X connect 78 0 79 0;
#X connect 78 0 80 0;
#X connect 78 0 51 0;
#X connect 79 0 71 0;
#X connect 80 0 21 0;
#X connect 81 0 23 0;
#X connect 83 0 86 0;
#X connect 84 0 92 0;
#X connect 86 0 84 0;
#X connect 87 0 88 0;
#X connect 88 0 99 0;
#X connect 89 0 93 0;
#X connect 90 0 91 0;
#X connect 90 0 181 0;
#X connect 91 0 87 0;
#X connect 92 0 93 1;
#X connect 92 0 60 0;
#X connect 93 0 96 0;
#X connect 93 0 102 0;
#X connect 93 0 134 0;
#X connect 95 0 90 0;
#X connect 97 0 35 0;
#X connect 98 0 35 1;
#X connect 99 0 89 0;
#X connect 100 0 37 1;
#X connect 101 0 75 0;
#X connect 101 0 76 0;
#X connect 103 0 52 0;
#X connect 104 0 52 0;
#X connect 105 0 124 0;
#X connect 105 0 132 0;
#X connect 106 0 115 0;
#X connect 107 0 180 0;
#X connect 108 0 149 1;
#X connect 108 0 177 0;
#X connect 109 0 149 2;
#X connect 110 0 149 4;
#X connect 111 0 149 3;
#X connect 112 0 149 5;
#X connect 113 0 118 0;
#X connect 114 0 5 0;
#X connect 115 0 91 1;
#X connect 116 0 21 0;
#X connect 117 0 188 0;
#X connect 117 0 0 0;
#X connect 117 0 118 0;
#X connect 117 0 189 0;
#X connect 118 0 119 0;
#X connect 119 0 6 0;
#X connect 120 0 66 0;
#X connect 121 0 25 0;
#X connect 122 0 116 0;
#X connect 123 0 182 0;
#X connect 128 0 28 0;
#X connect 129 0 41 0;
#X connect 133 0 84 0;
#X connect 135 0 87 0;
#X connect 136 0 106 0;
#X connect 137 0 46 0;
#X connect 138 0 44 1;
#X connect 139 0 45 1;
#X connect 140 0 43 1;
#X connect 141 0 44 0;
#X connect 142 0 98 0;
#X connect 143 0 29 0;
#X connect 144 0 97 0;
#X connect 145 0 22 1;
#X connect 146 0 24 1;
#X connect 147 0 23 1;
#X connect 149 0 107 1;
#X connect 150 0 90 0;
#X connect 151 0 90 0;
#X connect 152 0 133 0;
#X connect 153 0 178 0;
#X connect 156 0 173 0;
#X connect 157 0 6 0;
#X connect 158 0 164 0;
#X connect 159 0 161 0;
#X connect 160 0 159 0;
#X connect 161 0 5 0;
#X connect 162 0 160 0;
#X connect 163 0 167 0;
#X connect 164 0 163 0;
#X connect 165 0 168 0;
#X connect 166 0 164 0;
#X connect 167 0 165 0;
#X connect 168 0 157 0;
#X connect 170 0 187 1;
#X connect 171 0 120 0;
#X connect 173 0 174 0;
#X connect 175 0 149 0;
#X connect 176 0 66 0;
#X connect 177 0 178 1;
#X connect 178 0 179 0;
#X connect 179 0 180 1;
#X connect 180 0 8 0;
#X connect 181 0 182 0;
#X connect 181 1 182 1;
#X connect 182 0 71 0;
#X connect 184 0 183 0;
#X connect 186 0 108 0;
#X connect 187 0 18 0;
#X connect 188 0 9 0;
#X connect 188 0 11 0;
#X connect 188 0 7 0;
#X connect 188 0 3 0;
#X connect 188 0 4 0;
#X connect 188 0 2 0;
#X connect 189 0 12 0;
#X connect 190 0 2 0;
#X connect 190 0 4 0;
#X connect 190 0 3 0;
#X connect 190 0 7 0;
#X connect 190 0 12 0;
#X connect 191 0 11 0;
#X connect 192 0 190 0;
#X connect 192 0 191 0;
#X connect 194 0 195 0;
#X connect 194 0 196 0;
#X connect 195 0 198 0;
#X connect 196 0 197 0;
#X connect 199 0 194 0;
#X connect 200 0 199 0;
#X coords 0 -1 1 1 158 165 1 100 100;
