#N canvas 28 0 849 730 12;
#X obj 14 434 line~;
#X obj 14 513 mtof~;
#X obj 166 113 hsl 128 15 0 127 0 1 \$0-basic-lfo-freq-s \$0-basic-lfo-freq-r
FREQ 12 7 0 10 -203904 -1 -1 6400 1;
#X obj 14 537 +~;
#X obj 14 411 pack 0 50;
#X obj 402 47 hsl 128 15 0 1 0 1 empty empty P-WIDTH 135 7 0 10 -262144
-1 -1 12700 1;
#X obj 462 177 cnv 5 5 5 empty empty TRIG 0 0 0 8 -262144 -226533 0
;
#N canvas 0 22 602 346 sinewave 0;
#X obj 231 28 r \$0-basic-lfo-sync!;
#X obj 209 58 inlet~;
#X obj 209 136 osc~;
#X obj 450 235 switch~;
#X obj 209 241 *~;
#X obj 450 62 t f f;
#X obj 477 136 line~;
#X obj 477 114 pack 0 100;
#X obj 450 158 sel 0;
#X obj 450 180 del 100;
#X msg 450 202 0;
#X obj 450 40 r \$0-basic-lfo-sine-on/off;
#X obj 377 220 *~ 0.5;
#X obj 379 245 +~ 0.5;
#X obj 209 286 outlet~ BI;
#X obj 376 278 outlet~ UNI;
#X connect 0 0 2 1;
#X connect 1 0 2 0;
#X connect 2 0 4 0;
#X connect 2 0 12 0;
#X connect 4 0 14 0;
#X connect 5 0 8 0;
#X connect 5 1 7 0;
#X connect 6 0 4 1;
#X connect 7 0 6 0;
#X connect 8 0 9 0;
#X connect 8 1 3 0;
#X connect 9 0 10 0;
#X connect 10 0 3 0;
#X connect 11 0 5 0;
#X connect 12 0 13 0;
#X connect 13 0 15 0;
#X restore 14 566 pd sinewave;
#N canvas 0 22 732 465 triangle 0;
#X obj 428 75 r \$0-basic-lfo-sync!;
#X obj 340 53 inlet~;
#X obj 388 335 switch~;
#X obj 340 326 *~;
#X obj 388 74 t f f;
#X obj 415 309 line~;
#X obj 340 125 phasor~;
#X obj 340 213 min~;
#X obj 361 167 *~ -1;
#X obj 361 189 +~ 1;
#X obj 340 235 *~ 4;
#X obj 340 257 -~ 1;
#X obj 415 287 pack 0 100;
#X obj 388 225 sel 0;
#X obj 388 247 del 100;
#X msg 388 269 0;
#X obj 388 52 r \$0-basic-lfo-triangle-on/off;
#X obj 547 231 *~ 2;
#X obj 547 360 outlet~ UNI;
#X obj 340 371 outlet~ BI;
#X connect 0 0 6 1;
#X connect 1 0 6 0;
#X connect 3 0 19 0;
#X connect 4 0 13 0;
#X connect 4 1 12 0;
#X connect 5 0 3 1;
#X connect 6 0 7 0;
#X connect 6 0 8 0;
#X connect 7 0 10 0;
#X connect 7 0 17 0;
#X connect 8 0 9 0;
#X connect 9 0 7 1;
#X connect 10 0 11 0;
#X connect 11 0 3 0;
#X connect 12 0 5 0;
#X connect 13 0 14 0;
#X connect 13 1 2 0;
#X connect 14 0 15 0;
#X connect 15 0 2 0;
#X connect 16 0 4 0;
#X connect 17 0 18 0;
#X restore 116 555 pd triangle;
#N canvas 0 22 652 481 saw 0;
#X obj 404 116 r \$0-basic-lfo-sync!;
#X obj 365 68 inlet~;
#X obj 413 350 switch~;
#X obj 365 341 *~;
#X obj 413 89 t f f;
#X obj 440 324 line~;
#X obj 365 140 phasor~;
#X obj 365 272 -~ 1;
#X obj 365 215 *~ 2;
#X obj 440 302 pack 0 100;
#X obj 413 177 sel 0;
#X obj 413 199 del 100;
#X msg 413 221 0;
#X obj 413 67 r \$0-basic-lfo-saw-on/off;
#X obj 535 385 outlet~ UNI;
#X obj 365 386 outlet~ BI;
#X connect 0 0 6 1;
#X connect 1 0 6 0;
#X connect 3 0 15 0;
#X connect 4 0 10 0;
#X connect 4 1 9 0;
#X connect 5 0 3 1;
#X connect 6 0 8 0;
#X connect 6 0 14 0;
#X connect 7 0 3 0;
#X connect 8 0 7 0;
#X connect 9 0 5 0;
#X connect 10 0 11 0;
#X connect 10 1 2 0;
#X connect 11 0 12 0;
#X connect 12 0 2 0;
#X connect 13 0 4 0;
#X restore 215 554 pd saw;
#N canvas 0 22 813 603 pulse 0;
#X obj 129 108 r \$0-basic-lfo-sync!;
#X obj 324 53 inlet~;
#X obj 324 501 outlet~;
#X obj 324 125 phasor~;
#X obj 324 425 -~ 1;
#X obj 324 323 cos~;
#X obj 324 350 expr~ $v1 < $v2;
#X obj 411 275 pack 0 50;
#X obj 411 297 line~;
#X obj 411 321 +~;
#X obj 411 200 * 0.00787402;
#X obj 324 404 *~ 2;
#X obj 411 178 r \$0-basic-lfo-pwidth-s;
#X obj 411 244 + 0.01;
#X obj 411 222 * 0.98;
#X connect 0 0 3 1;
#X connect 1 0 3 0;
#X connect 3 0 5 0;
#X connect 4 0 2 0;
#X connect 5 0 6 0;
#X connect 6 0 11 0;
#X connect 7 0 8 0;
#X connect 8 0 9 0;
#X connect 9 0 6 1;
#X connect 10 0 14 0;
#X connect 11 0 4 0;
#X connect 12 0 10 0;
#X connect 13 0 7 0;
#X connect 14 0 13 0;
#X restore 287 554 pd pulse;
#X obj 166 129 hsl 128 15 0 127 0 1 \$0-basic-lfo-depth-s \$0-basic-lfo-depth-r
DEPTH 12 7 0 10 -137270 -1 -1 6100 1;
#X obj 458 267 cnv 5 5 5 empty empty FREQ 0 0 0 8 -262144 -66577 0
;
#X obj 25 384 t f f;
#X obj 13 721 *~;
#X obj 261 399 * 0.00787402;
#X obj 261 432 pack 0 50;
#X obj 261 468 line~;
#X obj 267 138 cnv 5 5 5 empty empty BI-P 0 0 0 8 -262144 -66577 0
;
#X obj 334 177 cnv 5 5 5 empty empty UNI-P 0 0 0 8 -262144 -66577 0
;
#X obj 377 177 cnv 5 5 5 empty empty PULSE 0 0 0 8 -262144 -1 0;
#X obj 25 326 * 1.5;
#X obj 25 348 - 127;
#X obj 482 573 threshold~ 0.9 0 0.9 0;
#X obj 14 747 outlet~ BI-POLAR;
#X obj 145 748 outlet~ UNI-POLAR;
#X obj 279 723 vline~;
#X obj 279 748 outlet~ TRIG;
#X obj 427 177 cnv 5 5 5 empty empty S&H 0 0 0 8 -262144 -66577 0;
#X msg 279 701 1 0 \, 0 10 1;
#X obj 101 402 mtof;
#X obj 106 136 hradio 15 1 1 2 \$0-basic-lfo-wform-s \$0-basic-lfo-wform-r
empty 55 7 0 10 -262144 -1 -1 1;
#X obj 108 159 cnv 5 5 5 empty \$0-lfo-waveform-gui-r TRIANGLE 0 0
0 10 -262144 -66577 0;
#X obj 144 697 *~;
#X floatatom -129 66 5 0 0 0 - - -;
#X floatatom -71 72 5 0 0 0 - - -;
#X obj -140 -40 r A;
#X floatatom -135 -8 5 0 0 0 - - -;
#X floatatom -73 3 5 0 0 0 - - -;
#X obj -75 -27 r B;
#X obj 14 485 +~ 100;
#X obj 413 310 s \$0-basic-lfo-sync!;
#X msg 413 286 0;
#X obj 410 244 loadbang;
#N canvas 0 22 1132 690 choose-wform 0;
#X obj 80 498 t b b;
#X obj 339 541 makefilename %s;
#X msg 339 565 label \$1;
#X msg 339 515 symbol SINE;
#X obj 95 329 t b b;
#X msg 339 493 symbol TRIANGLE;
#X obj 111 161 t b b;
#X msg 340 471 symbol SAW;
#X obj 80 14 r \$0-basic-lfo-wform-s;
#X obj 80 35 sel 0 1 2;
#X msg 111 183 0 0 1;
#X msg 95 351 0 1 0;
#X msg 80 522 1 0 0;
#X obj 80 544 unpack f f f;
#X obj 95 374 unpack f f f;
#X obj 111 206 unpack f f f;
#X obj 339 588 s \$0-lfo-waveform-gui-r;
#X obj 80 643 s \$0-basic-lfo-sine-on/off;
#X obj 107 618 s \$0-basic-lfo-triangle-on/off;
#X obj 134 592 s \$0-basic-lfo-saw-on/off;
#X obj 95 473 s \$0-basic-lfo-sine-on/off;
#X obj 122 448 s \$0-basic-lfo-triangle-on/off;
#X obj 149 422 s \$0-basic-lfo-saw-on/off;
#X obj 111 305 s \$0-basic-lfo-sine-on/off;
#X obj 138 280 s \$0-basic-lfo-triangle-on/off;
#X obj 165 254 s \$0-basic-lfo-saw-on/off;
#X connect 0 0 12 0;
#X connect 0 1 3 0;
#X connect 1 0 2 0;
#X connect 2 0 16 0;
#X connect 3 0 1 0;
#X connect 4 0 11 0;
#X connect 4 1 5 0;
#X connect 5 0 1 0;
#X connect 6 0 10 0;
#X connect 6 1 7 0;
#X connect 7 0 1 0;
#X connect 8 0 9 0;
#X connect 9 0 0 0;
#X connect 9 1 4 0;
#X connect 9 2 6 0;
#X connect 10 0 15 0;
#X connect 11 0 14 0;
#X connect 12 0 13 0;
#X connect 13 0 17 0;
#X connect 13 1 18 0;
#X connect 13 2 19 0;
#X connect 14 0 20 0;
#X connect 14 1 21 0;
#X connect 14 2 22 0;
#X connect 15 0 23 0;
#X connect 15 1 24 0;
#X connect 15 2 25 0;
#X restore 646 167 pd choose-wform;
#N canvas 297 27 539 173 parameter-nudging-system 0;
#X obj 324 66 clip 0 127;
#X obj 23 67 clip 0 127;
#X obj 168 69 clip 0 127;
#X obj 23 22 r \$0-basic-lfo-freq-s;
#X obj 23 95 s \$0-basic-lfo-freq-r;
#X obj 168 22 r \$0-basic-lfo-pwidth-s;
#X obj 168 95 s \$0-basic-lfo-pwidth-r;
#X obj 324 21 r \$0-basic-lfo-depth-s;
#X obj 324 93 s \$0-basic-lfo-depth-r;
#N canvas 0 22 484 497 nudge-freq 0;
#X obj 124 234 random;
#X obj 232 335 f;
#X obj 232 368 +;
#X obj 257 166 random 2;
#X obj 124 275 t f f;
#X obj 124 351 t b f;
#X obj 124 297 *;
#X obj 257 188 sel 0 1;
#X msg 257 280 -1;
#X msg 335 280 1;
#X obj 124 149 t b b b;
#X obj 124 51 r NUDGE!;
#X obj 157 193 r NUDGE-RANGE;
#X obj 247 308 inlet;
#X obj 232 397 outlet;
#X obj 124 73 spigot;
#X obj 185 56 r frequencies2-s;
#X connect 0 0 4 0;
#X connect 1 0 2 0;
#X connect 2 0 14 0;
#X connect 3 0 7 0;
#X connect 4 0 6 0;
#X connect 5 0 2 0;
#X connect 5 1 2 1;
#X connect 6 0 5 0;
#X connect 7 0 8 0;
#X connect 7 1 9 0;
#X connect 8 0 6 1;
#X connect 9 0 6 1;
#X connect 10 0 0 0;
#X connect 10 1 1 0;
#X connect 10 2 3 0;
#X connect 11 0 15 0;
#X connect 12 0 0 1;
#X connect 13 0 1 1;
#X connect 15 0 10 0;
#X connect 16 0 15 1;
#X restore 23 44 pd nudge-freq;
#N canvas 0 22 484 497 nudge-parameters 0;
#X obj 124 234 random;
#X obj 232 335 f;
#X obj 232 368 +;
#X obj 257 166 random 2;
#X obj 124 275 t f f;
#X obj 124 351 t b f;
#X obj 124 297 *;
#X obj 257 188 sel 0 1;
#X msg 257 280 -1;
#X msg 335 280 1;
#X obj 124 149 t b b b;
#X obj 124 74 r NUDGE!;
#X obj 157 193 r NUDGE-RANGE;
#X obj 247 308 inlet;
#X obj 232 397 outlet;
#X obj 124 96 spigot;
#X obj 185 79 r parameters2-s;
#X connect 0 0 4 0;
#X connect 1 0 2 0;
#X connect 2 0 14 0;
#X connect 3 0 7 0;
#X connect 4 0 6 0;
#X connect 5 0 2 0;
#X connect 5 1 2 1;
#X connect 6 0 5 0;
#X connect 7 0 8 0;
#X connect 7 1 9 0;
#X connect 8 0 6 1;
#X connect 9 0 6 1;
#X connect 10 0 0 0;
#X connect 10 1 1 0;
#X connect 10 2 3 0;
#X connect 11 0 15 0;
#X connect 12 0 0 1;
#X connect 13 0 1 1;
#X connect 15 0 10 0;
#X connect 16 0 15 1;
#X restore 171 44 pd nudge-parameters;
#N canvas 0 22 484 497 nudge-attenuators 0;
#X obj 124 234 random;
#X obj 232 335 f;
#X obj 232 368 +;
#X obj 257 166 random 2;
#X obj 124 275 t f f;
#X obj 124 351 t b f;
#X obj 124 297 *;
#X obj 257 188 sel 0 1;
#X msg 257 280 -1;
#X msg 335 280 1;
#X obj 124 149 t b b b;
#X obj 124 71 r NUDGE!;
#X obj 157 193 r NUDGE-RANGE;
#X obj 247 308 inlet;
#X obj 232 397 outlet;
#X obj 124 93 spigot;
#X obj 201 76 r attenuators2-s;
#X connect 0 0 4 0;
#X connect 1 0 2 0;
#X connect 2 0 14 0;
#X connect 3 0 7 0;
#X connect 4 0 6 0;
#X connect 5 0 2 0;
#X connect 5 1 2 1;
#X connect 6 0 5 0;
#X connect 7 0 8 0;
#X connect 7 1 9 0;
#X connect 8 0 6 1;
#X connect 9 0 6 1;
#X connect 10 0 0 0;
#X connect 10 1 1 0;
#X connect 10 2 3 0;
#X connect 11 0 15 0;
#X connect 12 0 0 1;
#X connect 13 0 1 1;
#X connect 15 0 10 0;
#X connect 16 0 15 1;
#X restore 324 43 pd nudge-attenuators;
#X connect 0 0 8 0;
#X connect 1 0 4 0;
#X connect 2 0 6 0;
#X connect 3 0 9 0;
#X connect 5 0 10 0;
#X connect 7 0 11 0;
#X connect 9 0 1 0;
#X connect 10 0 2 0;
#X connect 11 0 0 0;
#X restore 253 82 pd parameter-nudging-system;
#N canvas 632 73 751 781 external-messages 0;
#X floatatom 186 706 5 0 0 0 - - -;
#X obj 185 328 spigot;
#X obj 218 288 tgl 15 0 empty empty empty 17 7 0 10 -262144 -1 -1 0
1;
#X obj 254 272 ==;
#X obj 269 248 f \$1;
#X obj 269 224 loadbang;
#X msg 185 202 \$1 \$2;
#X msg 185 156 symbol \$1;
#X obj 185 180 pack s f;
#X obj 186 685 f;
#X obj 186 633 t b f;
#X obj 186 656 spigot;
#X obj 185 62 unpack s f f;
#X symbolatom 185 94 10 0 0 0 - - -;
#X obj 218 308 t f f;
#X obj 245 332 s \$0-msg-spigot;
#X obj 234 640 r \$0-msg-spigot;
#X floatatom 223 594 5 0 0 0 - - -;
#X obj 223 573 f;
#X obj 223 521 t b f;
#X obj 223 544 spigot;
#X obj 271 528 r \$0-msg-spigot;
#X floatatom 387 639 5 0 0 0 - - -;
#X obj 387 618 f;
#X obj 387 566 t b f;
#X obj 387 589 spigot;
#X obj 435 573 r \$0-msg-spigot;
#X floatatom 424 527 5 0 0 0 - - -;
#X obj 424 506 f;
#X obj 424 454 t b f;
#X obj 424 477 spigot;
#X obj 472 461 r \$0-msg-spigot;
#X obj 185 14 r basic-lfo;
#X obj 186 726 s \$0-basic-lfo-freq-r;
#X obj 223 614 s \$0-basic-lfo-pwidth-r;
#X obj 387 659 s \$0-basic-lfo-depth-r;
#X obj 424 547 s \$0-basic-lfo-wform-r;
#X obj 185 380 route FREQ P-WIDTH DEPTH RADIO;
#X connect 0 0 33 0;
#X connect 1 0 37 0;
#X connect 2 0 14 0;
#X connect 3 0 2 0;
#X connect 4 0 3 1;
#X connect 5 0 4 0;
#X connect 6 0 1 0;
#X connect 7 0 8 0;
#X connect 8 0 6 0;
#X connect 9 0 0 0;
#X connect 10 0 11 0;
#X connect 10 1 9 1;
#X connect 11 0 9 0;
#X connect 12 0 13 0;
#X connect 12 1 8 1;
#X connect 12 2 3 0;
#X connect 13 0 7 0;
#X connect 14 0 1 1;
#X connect 14 1 15 0;
#X connect 16 0 11 1;
#X connect 17 0 34 0;
#X connect 18 0 17 0;
#X connect 19 0 20 0;
#X connect 19 1 18 1;
#X connect 20 0 18 0;
#X connect 21 0 20 1;
#X connect 22 0 35 0;
#X connect 23 0 22 0;
#X connect 24 0 25 0;
#X connect 24 1 23 1;
#X connect 25 0 23 0;
#X connect 26 0 25 1;
#X connect 27 0 36 0;
#X connect 28 0 27 0;
#X connect 29 0 30 0;
#X connect 29 1 28 1;
#X connect 30 0 28 0;
#X connect 31 0 30 1;
#X connect 32 0 12 0;
#X connect 37 0 10 0;
#X connect 37 1 19 0;
#X connect 37 2 24 0;
#X connect 37 3 29 0;
#X restore 253 58 pd external-messages;
#X obj 326 325 cnv 5 5 5 empty empty MIXER4 0 0 0 12 -262144 -66577
0;
#X obj -46 142 tgl 15 0 empty empty empty 17 7 0 10 -262144 -1 -1 1
1;
#X obj 103 102 tgl 28 0 empty empty LFO 2 15 0 14 -1 -260097 -260097
0 1;
#X msg -339 224 relocate 475x205+1+1 1x1+50+60 \, vis 1;
#X obj -339 246 s pd-\$0-miditocv;
#X msg 414 270 1;
#X obj 82 873 spigot~;
#X obj -72 27 * 127;
#X obj -133 19 * 127;
#X obj -69 48 spigot-toggle_orange;
#X obj -137 45 spigot-toggle_orange;
#X obj 105 166 tgl 28 0 empty empty A/B 5 14 0 10 -203904 -1 -1 0 1
;
#X obj -20 8 > 0;
#X obj -62 497 dac~;
#X obj -133 892 s~ modstograin;
#X obj -72 852 s~ ext1;
#X obj 17 871 spigot~;
#X obj 123 -12 inlet;
#X obj 132 102 tgl 28 0 empty empty LFO 2 15 0 14 -260097 -1 -1 0 1
;
#X obj 71 -13 inlet;
#X obj 175 460 osc~;
#X obj 173 494 *~;
#X floatatom 211 491 5 0 0 0 - - -;
#X obj 166 163 hsl 128 15 0 127 0 1 \$0-basic-lfo-freq-s \$0-basic-lfo-freq-r
FREQ 12 7 0 10 -203904 -1 -1 7680 1;
#X obj 166 179 hsl 128 15 0 1 0 1 \$0-basic-lfo-depth-s \$0-basic-lfo-depth-r
DEPTH 12 7 0 10 -137270 -1 -1 2200 1;
#X obj 162 145 spigot-toggle_orange;
#X obj 218 145 hsl 76 18 0 10 0 1 intmod empty ratio_10 12 7 0 10 -260097
-1 -1 928 1;
#X floatatom 178 145 5 0 0 0 - - -;
#X obj -134 856 *~ 100;
#X obj 19 827 +~;
#X obj 340 117 t b f;
#X obj 251 845;
#X obj 763 533 r~ automtograin;
#X obj 656 741 *~;
#X obj 166 195 hsl 128 15 0 127 0 1 empty empty CH1 100 7 0 10 -262144
-1 -1 1900 1;
#X obj 671 675 / 127;
#X obj 671 697 pack 0 50;
#X obj 671 719 line~;
#X obj 752 737 *~;
#X obj 767 671 / 127;
#X obj 767 693 pack 0 50;
#X obj 767 715 line~;
#X obj 166 210 hsl 128 15 0 127 0 1 empty empty CH2 100 7 0 10 -262144
-1 -1 11100 1;
#X obj 114 426 mtof;
#X obj 341 143 * 1;
#X connect 0 0 40 0;
#X connect 1 0 3 0;
#X connect 2 0 21 0;
#X connect 2 0 91 0;
#X connect 3 0 10 0;
#X connect 3 0 7 0;
#X connect 3 0 8 0;
#X connect 3 0 9 0;
#X connect 4 0 0 0;
#X connect 7 0 14 0;
#X connect 7 1 33 0;
#X connect 8 0 14 0;
#X connect 8 1 33 0;
#X connect 9 0 14 0;
#X connect 9 1 33 0;
#X connect 10 0 23 0;
#X connect 11 0 15 0;
#X connect 13 0 4 0;
#X connect 13 1 30 0;
#X connect 14 0 24 0;
#X connect 14 0 76 0;
#X connect 15 0 16 0;
#X connect 16 0 17 0;
#X connect 17 0 14 1;
#X connect 17 0 33 1;
#X connect 21 0 22 0;
#X connect 22 0 13 0;
#X connect 23 0 29 0;
#X connect 26 0 27 0;
#X connect 29 0 26 0;
#X connect 33 0 25 0;
#X connect 34 0 2 0;
#X connect 35 0 11 0;
#X connect 36 0 37 0;
#X connect 37 0 55 0;
#X connect 38 0 54 0;
#X connect 39 0 38 0;
#X connect 40 0 1 0;
#X connect 42 0 41 0;
#X connect 42 0 2 0;
#X connect 42 0 11 0;
#X connect 43 0 42 0;
#X connect 43 0 52 0;
#X connect 48 0 50 0;
#X connect 49 0 53 2;
#X connect 50 0 51 0;
#X connect 52 0 81 0;
#X connect 53 0 62 0;
#X connect 54 0 56 0;
#X connect 55 0 57 0;
#X connect 56 0 35 0;
#X connect 57 0 34 0;
#X connect 58 0 56 1;
#X connect 58 0 57 1;
#X connect 59 0 56 1;
#X connect 63 0 75 0;
#X connect 64 0 65 0;
#X connect 65 0 63 2;
#X connect 66 0 49 0;
#X connect 67 0 68 0;
#X connect 68 0 76 1;
#X connect 69 0 68 1;
#X connect 70 0 67 0;
#X connect 71 0 69 0;
#X connect 72 0 70 0;
#X connect 73 0 74 0;
#X connect 74 0 77 0;
#X connect 75 0 61 0;
#X connect 76 0 80 0;
#X connect 77 0 91 0;
#X connect 77 1 91 1;
#X connect 79 0 85 0;
#X connect 80 0 53 0;
#X connect 80 0 63 0;
#X connect 81 0 82 0;
#X connect 82 0 83 0;
#X connect 83 0 84 0;
#X connect 84 0 80 1;
#X connect 85 0 53 0;
#X connect 85 0 63 0;
#X connect 86 0 87 0;
#X connect 87 0 88 0;
#X connect 88 0 85 1;
#X connect 89 0 86 0;
#X connect 91 0 72 0;
#X coords 0 -1 1 1 200 130 2 100 100;
