#N struct 1026-rectangle float x float c;
#N struct 1026-draw float x0 float y0 float c;
#N struct 1026-pixel float x0 float y0 float x1 float y1;
#N canvas 142 303 1446 893 12;
#X obj 774 321 notein;
#X obj 771 391 cyclone/midiformat;
#X obj 771 365 pack;
#X obj 771 471 cyclone/seq;
#X msg 914 481 record;
#X floatatom 864 316 12 0 0 0 - - -;
#X floatatom 769 580 5 0 0 0 - - -;
#X obj 943 510 bng 15 250 50 0 empty empty PLAY -28 7 0 10 -262144
-1 -1;
#X obj 899 283 hsl 128 15 0 127 0 0 empty empty empty -2 -8 0 10 -262144
-1 -1 0 1;
#X obj 774 606 hsl 128 15 0 127 0 0 empty empty empty -2 -8 0 10 -262144
-1 -1 3500 1;
#X obj 1079 321 notein;
#X obj 1074 395 cyclone/midiformat;
#X obj 1074 369 pack;
#X obj 1074 475 cyclone/seq;
#X floatatom 964 316 12 0 0 0 - - -;
#X floatatom 1075 585 5 0 0 0 - - -;
#X obj 1074 607 hsl 128 15 0 127 0 0 empty empty empty -2 -8 0 10 -262144
-1 -1 6100 1;
#X obj 845 502 bng 15 250 50 0 empty empty empty 17 7 0 10 -262144
-1 -1;
#X obj 1148 504 bng 15 250 50 0 empty empty empty 17 7 0 10 -262144
-1 -1;
#X floatatom 967 261 8 0 0 0 - - -;
#X msg 992 86 39;
#X msg 968 41 1 1000;
#X msg 1003 111 stop;
#X obj 967 235 line 0 100;
#X msg 1012 141 set 5;
#X floatatom 1034 198 0 0 0 0 - - -;
#X floatatom 1030 171 0 0 0 0 - - -;
#X obj 976 -75 metro 800;
#X obj 971 3 sel;
#X obj 976 -47 f;
#X obj 1005 -47 + 1;
#X obj 979 -96 tgl 15 0 empty empty empty 17 7 0 10 -262144 -1 -1 0
1;
#X floatatom 861 260 8 0 0 0 - - -;
#X msg 886 85 39;
#X msg 897 110 stop;
#X obj 861 234 line 0 100;
#X msg 906 140 set 5;
#X floatatom 928 197 0 0 0 0 - - -;
#X floatatom 924 170 0 0 0 0 - - -;
#X obj 870 -76 metro 800;
#X obj 868 1 sel;
#X obj 870 -48 f;
#X obj 899 -48 + 1;
#X obj 873 -97 tgl 15 0 empty empty empty 17 7 0 10 -262144 -1 -1 0
1;
#X msg 862 40 12 2000;
#X msg 871 63 33 1000;
#X obj 871 -20 mod 2;
#X obj 973 -21 mod 2;
#X text 1044 48 send a pair to ramp to a new value;
#X text 1047 83 send a single number to jump;
#X text 1053 108 "stop" message to stop output;
#X text 1070 236 creation arguments:;
#X text 854 347 1 initial value;
#X text 1070 136 "set" to change value (and stop) without output;
#X text 853 363 2 time grain in milliseconds (20 by default);
#X text 1067 166 middle inlet sets next ramp time (cleared when ramp
starts!);
#X text 1075 194 right inlet sets grain (not cleared \, acts as normal
inlet);
#X msg 977 64 9 1000;
#X floatatom 1504 792 5 0 0 0 X - -;
#X obj 1505 745 * 1, f 4;
#X floatatom 981 761 5 0 0 0 X - -;
#X floatatom 915 548 4 0 0 0 smoth_signal - -;
#X obj 871 833 pipe;
#X obj 903 832 f;
#X obj 870 813 t f b b;
#X floatatom 871 852 10 0 0 0 - - -;
#X floatatom 1001 548 10 0 0 0 DELAY_ - -;
#X obj 1000 831 pipe;
#X obj 1035 832 f;
#X obj 999 811 t f b b;
#X floatatom 1000 850 10 0 0 0 - - -;
#X obj 738 854 hsl 128 15 0 500 0 0 empty empty empty -2 -8 0 10 -262144
-1 -1 889 1;
#X obj 1070 850 hsl 128 15 0 500 0 0 empty empty empty -2 -8 0 10 -262144
-1 -1 1549 1;
#X obj 872 893 pipe;
#X obj 904 892 f;
#X obj 871 873 t f b b;
#X floatatom 872 912 10 0 0 0 - - -;
#X floatatom 1119 879 10 0 0 0 delay - -;
#X obj 1001 891 pipe;
#X obj 1036 890 f;
#X obj 1000 871 t f b b;
#X floatatom 1001 910 10 0 0 0 - - -;
#X obj 739 914 hsl 128 15 0 500 0 0 empty empty empty -2 -8 0 10 -262144
-1 -1 889 1;
#X obj 1071 910 hsl 128 15 0 500 0 0 empty empty empty -2 -8 0 10 -262144
-1 -1 1549 1;
#X obj 872 954 pipe;
#X obj 904 953 f;
#X obj 871 934 t f b b;
#X floatatom 872 973 10 0 0 0 - - -;
#X floatatom 1119 940 10 0 0 0 delay - -;
#X obj 1001 952 pipe;
#X obj 1034 953 f;
#X obj 1000 932 t f b b;
#X floatatom 1001 971 10 0 0 0 - - -;
#X obj 739 975 hsl 128 15 0 500 0 0 empty empty empty -2 -8 0 10 -262144
-1 -1 889 1;
#X obj 1071 971 hsl 128 15 0 500 0 0 empty empty empty -2 -8 0 10 -262144
-1 -1 1549 1;
#X obj 873 1014 pipe;
#X obj 905 1013 f;
#X obj 872 994 t f b b;
#X floatatom 873 1033 10 0 0 0 - - -;
#X floatatom 1120 1000 10 0 0 0 delay - -;
#X obj 1002 1012 pipe;
#X obj 1035 1013 f;
#X obj 1001 992 t f b b;
#X floatatom 1002 1031 10 0 0 0 - - -;
#X obj 740 1035 hsl 128 15 0 500 0 0 empty empty empty -2 -8 0 10 -262144
-1 -1 889 1;
#X obj 1072 1031 hsl 128 15 0 500 0 0 empty empty empty -2 -8 0 10
-262144 -1 -1 1549 1;
#X obj 876 1074 pipe;
#X obj 908 1073 f;
#X obj 875 1054 t f b b;
#X floatatom 876 1093 10 0 0 0 - - -;
#X floatatom 1123 1060 10 0 0 0 delay - -;
#X obj 1005 1072 pipe;
#X obj 1038 1073 f;
#X obj 1004 1052 t f b b;
#X floatatom 1005 1091 10 0 0 0 - - -;
#X obj 743 1095 hsl 128 15 0 500 0 0 empty empty empty -2 -8 0 10 -262144
-1 -1 889 1;
#X obj 1075 1091 hsl 128 15 0 500 0 0 empty empty empty -2 -8 0 10
-262144 -1 -1 1549 1;
#X obj 877 1134 pipe;
#X obj 909 1133 f;
#X obj 876 1114 t f b b;
#X floatatom 877 1153 10 0 0 0 - - -;
#X floatatom 1124 1120 10 0 0 0 delay - -;
#X obj 1006 1132 pipe;
#X obj 1039 1133 f;
#X obj 1005 1112 t f b b;
#X floatatom 1006 1151 10 0 0 0 - - -;
#X obj 744 1155 hsl 128 15 0 500 0 0 empty empty empty -2 -8 0 10 -262144
-1 -1 889 1;
#X obj 1076 1151 hsl 128 15 0 500 0 0 empty empty empty -2 -8 0 10
-262144 -1 -1 1549 1;
#X obj 877 1195 pipe;
#X obj 909 1194 f;
#X obj 876 1175 t f b b;
#X floatatom 877 1214 10 0 0 0 - - -;
#X floatatom 1124 1181 10 0 0 0 delay - -;
#X obj 1006 1193 pipe;
#X obj 1039 1194 f;
#X obj 1005 1173 t f b b;
#X floatatom 1006 1212 10 0 0 0 - - -;
#X obj 744 1216 hsl 128 15 0 500 0 0 empty empty empty -2 -8 0 10 -262144
-1 -1 889 1;
#X obj 1076 1212 hsl 128 15 0 500 0 0 empty empty empty -2 -8 0 10
-262144 -1 -1 1549 1;
#X obj 878 1255 pipe;
#X obj 910 1254 f;
#X obj 877 1235 t f b b;
#X floatatom 878 1274 10 0 0 0 - - -;
#X floatatom 1125 1241 10 0 0 0 delay - -;
#X obj 1007 1253 pipe;
#X obj 1040 1254 f;
#X obj 1006 1233 t f b b;
#X floatatom 1007 1272 10 0 0 0 - - -;
#X obj 745 1276 hsl 128 15 0 500 0 0 empty empty empty -2 -8 0 10 -262144
-1 -1 889 1;
#X obj 1077 1272 hsl 128 15 0 500 0 0 empty empty empty -2 -8 0 10
-262144 -1 -1 1549 1;
#X obj 879 1315 pipe;
#X obj 911 1314 f;
#X obj 878 1295 t f b b;
#X floatatom 879 1334 10 0 0 0 - - -;
#X floatatom 1126 1301 10 0 0 0 delay - -;
#X obj 1008 1313 pipe;
#X obj 1041 1314 f;
#X obj 1007 1293 t f b b;
#X floatatom 1008 1332 10 0 0 0 - - -;
#X obj 746 1336 hsl 128 15 0 500 0 0 empty empty empty -2 -8 0 10 -262144
-1 -1 889 1;
#X obj 1078 1332 hsl 128 15 0 500 0 0 empty empty empty -2 -8 0 10
-262144 -1 -1 1549 1;
#X obj 880 1375 pipe;
#X obj 912 1374 f;
#X obj 879 1355 t f b b;
#X floatatom 880 1394 10 0 0 0 - - -;
#X floatatom 1127 1361 10 0 0 0 delay - -;
#X obj 1009 1373 pipe;
#X obj 1042 1374 f;
#X obj 1008 1353 t f b b;
#X floatatom 1009 1392 10 0 0 0 - - -;
#X obj 747 1396 hsl 128 15 0 500 0 0 empty empty empty -2 -8 0 10 -262144
-1 -1 889 1;
#X obj 1079 1392 hsl 128 15 0 500 0 0 empty empty empty -2 -8 0 10
-262144 -1 -1 1549 1;
#X obj 883 1435 pipe;
#X obj 915 1434 f;
#X obj 882 1415 t f b b;
#X floatatom 883 1454 10 0 0 0 - - -;
#X floatatom 1130 1421 10 0 0 0 delay - -;
#X obj 1012 1433 pipe;
#X obj 1045 1434 f;
#X obj 1011 1413 t f b b;
#X floatatom 1012 1452 10 0 0 0 - - -;
#X obj 750 1456 hsl 128 15 0 500 0 0 empty empty empty -2 -8 0 10 -262144
-1 -1 889 1;
#X obj 1082 1452 hsl 128 15 0 500 0 0 empty empty empty -2 -8 0 10
-262144 -1 -1 1549 1;
#X obj 884 1495 pipe;
#X obj 916 1494 f;
#X obj 883 1475 t f b b;
#X floatatom 884 1514 10 0 0 0 - - -;
#X floatatom 1131 1481 10 0 0 0 delay - -;
#X obj 1013 1493 pipe;
#X obj 1046 1494 f;
#X obj 1012 1473 t f b b;
#X floatatom 1013 1512 10 0 0 0 - - -;
#X obj 751 1516 hsl 128 15 0 500 0 0 empty empty empty -2 -8 0 10 -262144
-1 -1 889 1;
#X obj 1083 1512 hsl 128 15 0 500 0 0 empty empty empty -2 -8 0 10
-262144 -1 -1 1549 1;
#X obj 884 1556 pipe;
#X obj 916 1555 f;
#X obj 883 1536 t f b b;
#X floatatom 884 1575 10 0 0 0 - - -;
#X floatatom 1131 1542 10 0 0 0 delay - -;
#X obj 1013 1554 pipe;
#X obj 1046 1555 f;
#X obj 1012 1534 t f b b;
#X floatatom 1013 1573 10 0 0 0 - - -;
#X obj 751 1577 hsl 128 15 0 500 0 0 empty empty empty -2 -8 0 10 -262144
-1 -1 889 1;
#X obj 1083 1573 hsl 128 15 0 500 0 0 empty empty empty -2 -8 0 10
-262144 -1 -1 1549 1;
#X obj 885 1616 pipe;
#X obj 917 1615 f;
#X obj 884 1596 t f b b;
#X floatatom 885 1635 10 0 0 0 - - -;
#X floatatom 1132 1602 10 0 0 0 delay - -;
#X obj 1014 1614 pipe;
#X obj 1047 1615 f;
#X obj 1013 1594 t f b b;
#X floatatom 1014 1633 10 0 0 0 - - -;
#X obj 752 1637 hsl 128 15 0 500 0 0 empty empty empty -2 -8 0 10 -262144
-1 -1 889 1;
#X obj 1084 1633 hsl 128 15 0 500 0 0 empty empty empty -2 -8 0 10
-262144 -1 -1 1549 1;
#X obj 976 735 line 20;
#X obj 1504 767 line 20;
#X obj 976 710 * 1, f 4;
#X obj 981 675 + 0, f 4;
#X obj 980 645 * 1, f 4;
#X obj 852 651 * 1, f 4;
#X obj 854 681 + 0;
#X text 1297 848 <-- COMMAND;
#X obj 1306 827 nbx 3 14 -1e+37 1e+37 0 0 empty empty pin_No. 40 6
0 10 -228856 -1 -1 0 256;
#X msg 1206 847 analog 0 61;
#N canvas 101 162 296 179 analog____ 0;
#X obj 32 22 inlet;
#X obj 32 121 outlet;
#X obj 162 25 inlet;
#X obj 32 69 pack f f;
#X msg 32 98 set analog \$2 \$1 \, bang;
#X connect 0 0 3 0;
#X connect 2 0 3 1;
#X connect 3 0 4 0;
#X connect 4 0 1 0;
#X restore 1206 824 pd analog____;
#X obj 1218 1659 cnv 15 98 21 empty empty empty 20 12 0 14 -261234
-66577 0;
#X obj 1220 1661 send \$0-arduino;
#X text 1297 909 <-- COMMAND;
#X obj 1306 888 nbx 3 14 -1e+37 1e+37 0 0 empty empty pin_No. 40 6
0 10 -228856 -1 -1 0 256;
#X msg 1206 908 analog 0 61;
#N canvas 101 162 296 179 analog____ 0;
#X obj 32 22 inlet;
#X obj 32 121 outlet;
#X obj 162 25 inlet;
#X obj 32 69 pack f f;
#X msg 32 98 set analog \$2 \$1 \, bang;
#X connect 0 0 3 0;
#X connect 2 0 3 1;
#X connect 3 0 4 0;
#X connect 4 0 1 0;
#X restore 1206 885 pd analog____;
#X text 1301 966 <-- COMMAND;
#X obj 1310 945 nbx 3 14 -1e+37 1e+37 0 0 empty empty pin_No. 40 6
0 10 -228856 -1 -1 0 256;
#X msg 1210 965 analog 0 61;
#N canvas 101 162 296 179 analog____ 0;
#X obj 32 22 inlet;
#X obj 32 121 outlet;
#X obj 162 25 inlet;
#X obj 32 69 pack f f;
#X msg 32 98 set analog \$2 \$1 \, bang;
#X connect 0 0 3 0;
#X connect 2 0 3 1;
#X connect 3 0 4 0;
#X connect 4 0 1 0;
#X restore 1210 942 pd analog____;
#X text 1301 1027 <-- COMMAND;
#X obj 1310 1006 nbx 3 14 -1e+37 1e+37 0 0 empty empty pin_No. 40 6
0 10 -228856 -1 -1 0 256;
#X msg 1210 1026 analog 0 61;
#N canvas 101 162 296 179 analog____ 0;
#X obj 32 22 inlet;
#X obj 32 121 outlet;
#X obj 162 25 inlet;
#X obj 32 69 pack f f;
#X msg 32 98 set analog \$2 \$1 \, bang;
#X connect 0 0 3 0;
#X connect 2 0 3 1;
#X connect 3 0 4 0;
#X connect 4 0 1 0;
#X restore 1210 1003 pd analog____;
#X text 1304 1090 <-- COMMAND;
#X obj 1313 1069 nbx 3 14 -1e+37 1e+37 0 0 empty empty pin_No. 40 6
0 10 -228856 -1 -1 0 256;
#X msg 1213 1089 analog 0 61;
#N canvas 101 162 296 179 analog____ 0;
#X obj 32 22 inlet;
#X obj 32 121 outlet;
#X obj 162 25 inlet;
#X obj 32 69 pack f f;
#X msg 32 98 set analog \$2 \$1 \, bang;
#X connect 0 0 3 0;
#X connect 2 0 3 1;
#X connect 3 0 4 0;
#X connect 4 0 1 0;
#X restore 1213 1066 pd analog____;
#X text 1304 1151 <-- COMMAND;
#X obj 1313 1130 nbx 3 14 -1e+37 1e+37 0 0 empty empty pin_No. 40 6
0 10 -228856 -1 -1 0 256;
#X msg 1213 1150 analog 0 61;
#N canvas 101 162 296 179 analog____ 0;
#X obj 32 22 inlet;
#X obj 32 121 outlet;
#X obj 162 25 inlet;
#X obj 32 69 pack f f;
#X msg 32 98 set analog \$2 \$1 \, bang;
#X connect 0 0 3 0;
#X connect 2 0 3 1;
#X connect 3 0 4 0;
#X connect 4 0 1 0;
#X restore 1213 1127 pd analog____;
#X text 1308 1208 <-- COMMAND;
#X obj 1317 1187 nbx 3 14 -1e+37 1e+37 0 0 empty empty pin_No. 40 6
0 10 -228856 -1 -1 0 256;
#X msg 1217 1207 analog 0 61;
#N canvas 101 162 296 179 analog____ 1;
#X obj 32 22 inlet;
#X obj 32 121 outlet;
#X obj 162 25 inlet;
#X obj 32 69 pack f f;
#X msg 32 98 set analog \$2 \$1 \, bang;
#X connect 0 0 3 0;
#X connect 2 0 3 1;
#X connect 3 0 4 0;
#X connect 4 0 1 0;
#X restore 1217 1184 pd analog____;
#X text 1308 1269 <-- COMMAND;
#X obj 1317 1248 nbx 3 14 -1e+37 1e+37 0 0 empty empty pin_No. 40 6
0 10 -228856 -1 -1 0 256;
#X msg 1217 1268 analog 0 61;
#N canvas 101 162 296 179 analog____ 0;
#X obj 32 22 inlet;
#X obj 32 121 outlet;
#X obj 162 25 inlet;
#X obj 32 69 pack f f;
#X msg 32 98 set analog \$2 \$1 \, bang;
#X connect 0 0 3 0;
#X connect 2 0 3 1;
#X connect 3 0 4 0;
#X connect 4 0 1 0;
#X restore 1217 1245 pd analog____;
#X text 1309 1331 <-- COMMAND;
#X obj 1318 1310 nbx 3 14 -1e+37 1e+37 0 0 empty empty pin_No. 40 6
0 10 -228856 -1 -1 0 256;
#X msg 1218 1330 analog 0 61;
#N canvas 101 162 296 179 analog____ 0;
#X obj 32 22 inlet;
#X obj 32 121 outlet;
#X obj 162 25 inlet;
#X obj 32 69 pack f f;
#X msg 32 98 set analog \$2 \$1 \, bang;
#X connect 0 0 3 0;
#X connect 2 0 3 1;
#X connect 3 0 4 0;
#X connect 4 0 1 0;
#X restore 1218 1307 pd analog____;
#X text 1312 1394 <-- COMMAND;
#X obj 1321 1373 nbx 3 14 -1e+37 1e+37 0 0 empty empty pin_No. 40 6
0 10 -228856 -1 -1 0 256;
#X msg 1221 1393 analog 0 61;
#N canvas 101 162 296 179 analog____ 0;
#X obj 32 22 inlet;
#X obj 32 121 outlet;
#X obj 162 25 inlet;
#X obj 32 69 pack f f;
#X msg 32 98 set analog \$2 \$1 \, bang;
#X connect 0 0 3 0;
#X connect 2 0 3 1;
#X connect 3 0 4 0;
#X connect 4 0 1 0;
#X restore 1221 1370 pd analog____;
#X text 1312 1455 <-- COMMAND;
#X obj 1321 1434 nbx 3 14 -1e+37 1e+37 0 0 empty empty pin_No. 40 6
0 10 -228856 -1 -1 0 256;
#X msg 1221 1454 analog 0 61;
#N canvas 101 162 296 179 analog____ 0;
#X obj 32 22 inlet;
#X obj 32 121 outlet;
#X obj 162 25 inlet;
#X obj 32 69 pack f f;
#X msg 32 98 set analog \$2 \$1 \, bang;
#X connect 0 0 3 0;
#X connect 2 0 3 1;
#X connect 3 0 4 0;
#X connect 4 0 1 0;
#X restore 1221 1431 pd analog____;
#X text 1316 1512 <-- COMMAND;
#X obj 1325 1491 nbx 3 14 -1e+37 1e+37 0 0 empty empty pin_No. 40 6
0 10 -228856 -1 -1 0 256;
#X msg 1225 1511 analog 0 61;
#N canvas 101 162 296 179 analog____ 0;
#X obj 32 22 inlet;
#X obj 32 121 outlet;
#X obj 162 25 inlet;
#X obj 32 69 pack f f;
#X msg 32 98 set analog \$2 \$1 \, bang;
#X connect 0 0 3 0;
#X connect 2 0 3 1;
#X connect 3 0 4 0;
#X connect 4 0 1 0;
#X restore 1225 1488 pd analog____;
#X text 1316 1573 <-- COMMAND;
#X obj 1325 1552 nbx 3 14 -1e+37 1e+37 0 0 empty empty pin_No. 40 6
0 10 -228856 -1 -1 0 256;
#X msg 1225 1572 analog 0 61;
#N canvas 101 162 296 179 analog____ 0;
#X obj 32 22 inlet;
#X obj 32 121 outlet;
#X obj 162 25 inlet;
#X obj 32 69 pack f f;
#X msg 32 98 set analog \$2 \$1 \, bang;
#X connect 0 0 3 0;
#X connect 2 0 3 1;
#X connect 3 0 4 0;
#X connect 4 0 1 0;
#X restore 1225 1549 pd analog____;
#X text 1313 1632 <-- COMMAND;
#X obj 1322 1611 nbx 3 14 -1e+37 1e+37 0 0 empty empty pin_No. 40 6
0 10 -228856 -1 -1 0 256;
#X msg 1222 1631 analog 0 61;
#N canvas 101 162 296 179 analog____ 0;
#X obj 32 22 inlet;
#X obj 32 121 outlet;
#X obj 162 25 inlet;
#X obj 32 69 pack f f;
#X msg 32 98 set analog \$2 \$1 \, bang;
#X connect 0 0 3 0;
#X connect 2 0 3 1;
#X connect 3 0 4 0;
#X connect 4 0 1 0;
#X restore 1222 1608 pd analog____;
#X text 647 858 <-- COMMAND;
#X obj 656 837 nbx 3 14 -1e+37 1e+37 0 0 empty empty pin_No. 40 6 0
10 -228856 -1 -1 0 256;
#X msg 556 857 analog 0 35;
#N canvas 101 162 296 179 analog____ 0;
#X obj 32 22 inlet;
#X obj 32 121 outlet;
#X obj 162 25 inlet;
#X obj 32 69 pack f f;
#X msg 32 98 set analog \$2 \$1 \, bang;
#X connect 0 0 3 0;
#X connect 2 0 3 1;
#X connect 3 0 4 0;
#X connect 4 0 1 0;
#X restore 556 834 pd analog____;
#X obj 570 1671 send \$0-arduino;
#X text 647 919 <-- COMMAND;
#X obj 656 898 nbx 3 14 -1e+37 1e+37 0 0 empty empty pin_No. 40 6 0
10 -228856 -1 -1 0 256;
#X msg 556 918 analog 0 35;
#N canvas 101 162 296 179 analog____ 0;
#X obj 32 22 inlet;
#X obj 32 121 outlet;
#X obj 162 25 inlet;
#X obj 32 69 pack f f;
#X msg 32 98 set analog \$2 \$1 \, bang;
#X connect 0 0 3 0;
#X connect 2 0 3 1;
#X connect 3 0 4 0;
#X connect 4 0 1 0;
#X restore 556 895 pd analog____;
#X text 651 976 <-- COMMAND;
#X obj 660 955 nbx 3 14 -1e+37 1e+37 0 0 empty empty pin_No. 40 6 0
10 -228856 -1 -1 0 256;
#X msg 560 975 analog 0 35;
#N canvas 101 162 296 179 analog____ 0;
#X obj 32 22 inlet;
#X obj 32 121 outlet;
#X obj 162 25 inlet;
#X obj 32 69 pack f f;
#X msg 32 98 set analog \$2 \$1 \, bang;
#X connect 0 0 3 0;
#X connect 2 0 3 1;
#X connect 3 0 4 0;
#X connect 4 0 1 0;
#X restore 560 952 pd analog____;
#X text 651 1037 <-- COMMAND;
#X obj 660 1016 nbx 3 14 -1e+37 1e+37 0 0 empty empty pin_No. 40 6
0 10 -228856 -1 -1 0 256;
#X msg 560 1036 analog 0 35;
#N canvas 101 162 296 179 analog____ 0;
#X obj 32 22 inlet;
#X obj 32 121 outlet;
#X obj 162 25 inlet;
#X obj 32 69 pack f f;
#X msg 32 98 set analog \$2 \$1 \, bang;
#X connect 0 0 3 0;
#X connect 2 0 3 1;
#X connect 3 0 4 0;
#X connect 4 0 1 0;
#X restore 560 1013 pd analog____;
#X text 654 1100 <-- COMMAND;
#X obj 663 1079 nbx 3 14 -1e+37 1e+37 0 0 empty empty pin_No. 40 6
0 10 -228856 -1 -1 0 256;
#X msg 563 1099 analog 0 35;
#N canvas 101 162 296 179 analog____ 0;
#X obj 32 22 inlet;
#X obj 32 121 outlet;
#X obj 162 25 inlet;
#X obj 32 69 pack f f;
#X msg 32 98 set analog \$2 \$1 \, bang;
#X connect 0 0 3 0;
#X connect 2 0 3 1;
#X connect 3 0 4 0;
#X connect 4 0 1 0;
#X restore 563 1076 pd analog____;
#X text 654 1161 <-- COMMAND;
#X obj 663 1140 nbx 3 14 -1e+37 1e+37 0 0 empty empty pin_No. 40 6
0 10 -228856 -1 -1 0 256;
#X msg 563 1160 analog 0 35;
#N canvas 101 162 296 179 analog____ 0;
#X obj 32 22 inlet;
#X obj 32 121 outlet;
#X obj 162 25 inlet;
#X obj 32 69 pack f f;
#X msg 32 98 set analog \$2 \$1 \, bang;
#X connect 0 0 3 0;
#X connect 2 0 3 1;
#X connect 3 0 4 0;
#X connect 4 0 1 0;
#X restore 563 1137 pd analog____;
#X text 658 1218 <-- COMMAND;
#X obj 667 1197 nbx 3 14 -1e+37 1e+37 0 0 empty empty pin_No. 40 6
0 10 -228856 -1 -1 0 256;
#X msg 567 1217 analog 0 35;
#N canvas 101 162 296 179 analog____ 0;
#X obj 32 22 inlet;
#X obj 32 121 outlet;
#X obj 162 25 inlet;
#X obj 32 69 pack f f;
#X msg 32 98 set analog \$2 \$1 \, bang;
#X connect 0 0 3 0;
#X connect 2 0 3 1;
#X connect 3 0 4 0;
#X connect 4 0 1 0;
#X restore 567 1194 pd analog____;
#X text 658 1279 <-- COMMAND;
#X obj 667 1258 nbx 3 14 -1e+37 1e+37 0 0 empty empty pin_No. 40 6
0 10 -228856 -1 -1 0 256;
#X msg 567 1278 analog 0 35;
#N canvas 101 162 296 179 analog____ 0;
#X obj 32 22 inlet;
#X obj 32 121 outlet;
#X obj 162 25 inlet;
#X obj 32 69 pack f f;
#X msg 32 98 set analog \$2 \$1 \, bang;
#X connect 0 0 3 0;
#X connect 2 0 3 1;
#X connect 3 0 4 0;
#X connect 4 0 1 0;
#X restore 567 1255 pd analog____;
#X text 659 1341 <-- COMMAND;
#X obj 668 1320 nbx 3 14 -1e+37 1e+37 0 0 empty empty pin_No. 40 6
0 10 -228856 -1 -1 0 256;
#X msg 568 1340 analog 0 35;
#N canvas 101 162 296 179 analog____ 0;
#X obj 32 22 inlet;
#X obj 32 121 outlet;
#X obj 162 25 inlet;
#X obj 32 69 pack f f;
#X msg 32 98 set analog \$2 \$1 \, bang;
#X connect 0 0 3 0;
#X connect 2 0 3 1;
#X connect 3 0 4 0;
#X connect 4 0 1 0;
#X restore 568 1317 pd analog____;
#X text 662 1404 <-- COMMAND;
#X obj 671 1383 nbx 3 14 -1e+37 1e+37 0 0 empty empty pin_No. 40 6
0 10 -228856 -1 -1 0 256;
#X msg 571 1403 analog 0 35;
#N canvas 101 162 296 179 analog____ 0;
#X obj 32 22 inlet;
#X obj 32 121 outlet;
#X obj 162 25 inlet;
#X obj 32 69 pack f f;
#X msg 32 98 set analog \$2 \$1 \, bang;
#X connect 0 0 3 0;
#X connect 2 0 3 1;
#X connect 3 0 4 0;
#X connect 4 0 1 0;
#X restore 571 1380 pd analog____;
#X text 662 1465 <-- COMMAND;
#X obj 671 1444 nbx 3 14 -1e+37 1e+37 0 0 empty empty pin_No. 40 6
0 10 -228856 -1 -1 0 256;
#X msg 571 1464 analog 0 35;
#N canvas 101 162 296 179 analog____ 0;
#X obj 32 22 inlet;
#X obj 32 121 outlet;
#X obj 162 25 inlet;
#X obj 32 69 pack f f;
#X msg 32 98 set analog \$2 \$1 \, bang;
#X connect 0 0 3 0;
#X connect 2 0 3 1;
#X connect 3 0 4 0;
#X connect 4 0 1 0;
#X restore 571 1441 pd analog____;
#X text 666 1522 <-- COMMAND;
#X obj 675 1501 nbx 3 14 -1e+37 1e+37 0 0 empty empty pin_No. 40 6
0 10 -228856 -1 -1 0 256;
#X msg 575 1521 analog 0 35;
#N canvas 101 162 296 179 analog____ 0;
#X obj 32 22 inlet;
#X obj 32 121 outlet;
#X obj 162 25 inlet;
#X obj 32 69 pack f f;
#X msg 32 98 set analog \$2 \$1 \, bang;
#X connect 0 0 3 0;
#X connect 2 0 3 1;
#X connect 3 0 4 0;
#X connect 4 0 1 0;
#X restore 575 1498 pd analog____;
#X text 666 1583 <-- COMMAND;
#X obj 675 1562 nbx 3 14 -1e+37 1e+37 0 0 empty empty pin_No. 40 6
0 10 -228856 -1 -1 0 256;
#X msg 575 1582 analog 0 35;
#N canvas 101 162 296 179 analog____ 0;
#X obj 32 22 inlet;
#X obj 32 121 outlet;
#X obj 162 25 inlet;
#X obj 32 69 pack f f;
#X msg 32 98 set analog \$2 \$1 \, bang;
#X connect 0 0 3 0;
#X connect 2 0 3 1;
#X connect 3 0 4 0;
#X connect 4 0 1 0;
#X restore 575 1559 pd analog____;
#X text 663 1642 <-- COMMAND;
#X obj 672 1621 nbx 3 14 -1e+37 1e+37 0 0 empty empty pin_No. 40 6
0 10 -228856 -1 -1 0 256;
#X msg 572 1641 analog 0 35;
#N canvas 101 162 296 179 analog____ 0;
#X obj 32 22 inlet;
#X obj 32 121 outlet;
#X obj 162 25 inlet;
#X obj 32 69 pack f f;
#X msg 32 98 set analog \$2 \$1 \, bang;
#X connect 0 0 3 0;
#X connect 2 0 3 1;
#X connect 3 0 4 0;
#X connect 4 0 1 0;
#X restore 572 1618 pd analog____;
#X text 211 446 DROITE GAUCHE;
#X text 212 475 RANGE: ..>..;
#X text 1182 739 RANGE: ..>..;
#X text 1181 711 HAUT BAS;
#X floatatom -124 277 5 0 0 0 y - -;
#X floatatom -324 307 5 0 0 0 x - -;
#X obj -649 -329 bng 15 250 50 0 empty empty clear 17 7 0 10 -262144
-1 -1;
#X obj -439 -366 nbx 5 14 -1e+37 1e+37 0 1 empty empty color 0 -8 0
10 -262144 -1 -1 481 256;
#X obj -358 -384 xy-paint 400 400 0;
#X obj -563 -363 nbx 5 14 -1e+37 1e+37 0 1 empty empty x_size 0 -8
0 10 -262144 -1 -1 1000 256;
#X obj -161 386 spigot-toggle_bignoirjaune;
#X obj -129 386 spigot-toggle_bignoirjaune;
#X obj -94 347 tgl 40 0 empty empty empty 17 7 0 10 -262144 -1 -1 1
1;
#X floatatom -80 309 5 0 0 0 - - -;
#X floatatom 1106 650 10 0 0 0 - - -;
#X floatatom -18 306 5 0 0 0 - - -;
#X floatatom -22 435 5 0 0 0 - - -;
#X floatatom -26 509 5 0 0 0 - - -;
#X floatatom -318 389 5 0 0 0 - - -;
#X floatatom -321 517 5 0 0 0 - - -;
#X obj -321 356 / 600;
#X obj -320 491 * 0.4;
#X floatatom -328 583 5 0 0 0 - - -;
#X obj -325 608 s Y;
#X obj -18 279 / 1100;
#X obj -23 411 * 0.6;
#X obj -21 454 + 0.1;
#X obj -22 484 * 1;
#X obj -26 537 s X;
#X obj -315 412 - 1;
#X floatatom -320 467 5 0 0 0 - - -;
#X obj -316 442 * -1;
#X obj -16 331 - 1;
#X floatatom -21 386 5 0 0 0 - - -;
#X obj -17 361 * -1;
#X obj -327 557 + 0.4;
#X obj 123 317 / 10;
#X obj -244 312 / 10;
#X obj -181 526 spigot-toggle_bignoirjaune;
#X obj -149 526 spigot-toggle_bignoirjaune;
#X obj 538 693 * 10;
#X obj 542 724 * 10;
#X floatatom 474 633 5 0 0 0 - - -;
#X floatatom 478 756 5 0 0 0 - - -;
#X floatatom 360 718 5 0 0 0 X - -;
#X obj 361 671 * 1, f 4;
#X floatatom 206 666 5 0 0 0 - - -;
#X floatatom 203 794 5 0 0 0 - - -;
#X obj 203 633 / 600;
#X obj 204 768 * 0.4;
#X floatatom 196 860 5 0 0 0 - - -;
#X obj 209 689 - 1;
#X floatatom 204 744 5 0 0 0 - - -;
#X obj 208 719 * -1;
#X obj 197 834 + 0.4;
#X obj 199 885 s YY;
#X obj 360 693 line 330;
#X connect 0 0 2 0;
#X connect 0 1 2 1;
#X connect 1 0 3 0;
#X connect 2 0 1 0;
#X connect 3 0 6 0;
#X connect 3 1 17 0;
#X connect 4 0 3 0;
#X connect 4 0 13 0;
#X connect 5 0 2 1;
#X connect 5 0 2 0;
#X connect 6 0 9 0;
#X connect 7 0 3 0;
#X connect 7 0 13 0;
#X connect 8 0 5 0;
#X connect 8 0 14 0;
#X connect 9 0 221 0;
#X connect 9 0 378 0;
#X connect 10 0 12 0;
#X connect 10 1 12 1;
#X connect 11 0 13 0;
#X connect 12 0 11 0;
#X connect 13 0 15 0;
#X connect 13 1 18 0;
#X connect 14 0 12 1;
#X connect 14 0 12 0;
#X connect 15 0 16 0;
#X connect 16 0 220 0;
#X connect 16 0 379 0;
#X connect 17 0 3 0;
#X connect 18 0 13 0;
#X connect 19 0 14 0;
#X connect 20 0 23 0;
#X connect 21 0 23 0;
#X connect 22 0 23 0;
#X connect 23 0 19 0;
#X connect 24 0 23 0;
#X connect 25 0 23 2;
#X connect 26 0 23 1;
#X connect 27 0 29 0;
#X connect 28 0 21 0;
#X connect 28 1 57 0;
#X connect 29 0 30 0;
#X connect 29 0 47 0;
#X connect 30 0 29 1;
#X connect 31 0 27 0;
#X connect 32 0 5 0;
#X connect 33 0 35 0;
#X connect 34 0 35 0;
#X connect 35 0 32 0;
#X connect 36 0 35 0;
#X connect 37 0 35 2;
#X connect 38 0 35 1;
#X connect 39 0 41 0;
#X connect 40 0 44 0;
#X connect 40 1 45 0;
#X connect 41 0 42 0;
#X connect 41 0 46 0;
#X connect 42 0 41 1;
#X connect 43 0 39 0;
#X connect 44 0 35 0;
#X connect 45 0 35 0;
#X connect 46 0 40 0;
#X connect 47 0 28 0;
#X connect 57 0 23 0;
#X connect 58 0 64 0;
#X connect 59 0 217 0;
#X connect 60 0 69 0;
#X connect 61 0 216 2;
#X connect 61 0 217 2;
#X connect 62 0 65 0;
#X connect 63 0 62 1;
#X connect 64 0 62 0;
#X connect 64 1 63 0;
#X connect 65 0 71 0;
#X connect 65 0 75 0;
#X connect 66 0 63 1;
#X connect 66 0 68 1;
#X connect 66 0 77 0;
#X connect 67 0 70 0;
#X connect 68 0 67 1;
#X connect 69 0 67 0;
#X connect 69 1 68 0;
#X connect 70 0 72 0;
#X connect 70 0 80 0;
#X connect 71 0 284 0;
#X connect 72 0 226 0;
#X connect 73 0 76 0;
#X connect 74 0 73 1;
#X connect 75 0 73 0;
#X connect 75 1 74 0;
#X connect 76 0 82 0;
#X connect 76 0 86 0;
#X connect 77 0 74 1;
#X connect 77 0 79 1;
#X connect 77 0 88 0;
#X connect 78 0 81 0;
#X connect 79 0 78 1;
#X connect 80 0 78 0;
#X connect 80 1 79 0;
#X connect 81 0 83 0;
#X connect 81 0 91 0;
#X connect 82 0 289 0;
#X connect 83 0 232 0;
#X connect 84 0 87 0;
#X connect 85 0 84 1;
#X connect 86 0 84 0;
#X connect 86 1 85 0;
#X connect 87 0 93 0;
#X connect 87 0 97 0;
#X connect 88 0 85 1;
#X connect 88 0 90 1;
#X connect 88 0 99 0;
#X connect 89 0 92 0;
#X connect 90 0 89 1;
#X connect 91 0 89 0;
#X connect 91 1 90 0;
#X connect 92 0 94 0;
#X connect 92 0 102 0;
#X connect 93 0 293 0;
#X connect 94 0 236 0;
#X connect 95 0 98 0;
#X connect 96 0 95 1;
#X connect 97 0 95 0;
#X connect 97 1 96 0;
#X connect 98 0 104 0;
#X connect 98 0 108 0;
#X connect 99 0 96 1;
#X connect 99 0 101 1;
#X connect 99 0 110 0;
#X connect 100 0 103 0;
#X connect 101 0 100 1;
#X connect 102 0 100 0;
#X connect 102 1 101 0;
#X connect 103 0 105 0;
#X connect 103 0 113 0;
#X connect 104 0 297 0;
#X connect 105 0 240 0;
#X connect 106 0 109 0;
#X connect 107 0 106 1;
#X connect 108 0 106 0;
#X connect 108 1 107 0;
#X connect 109 0 115 0;
#X connect 109 0 119 0;
#X connect 110 0 107 1;
#X connect 110 0 112 1;
#X connect 110 0 121 0;
#X connect 111 0 114 0;
#X connect 112 0 111 1;
#X connect 113 0 111 0;
#X connect 113 1 112 0;
#X connect 114 0 116 0;
#X connect 114 0 124 0;
#X connect 115 0 301 0;
#X connect 116 0 244 0;
#X connect 117 0 120 0;
#X connect 118 0 117 1;
#X connect 119 0 117 0;
#X connect 119 1 118 0;
#X connect 120 0 126 0;
#X connect 120 0 130 0;
#X connect 121 0 118 1;
#X connect 121 0 123 1;
#X connect 121 0 132 0;
#X connect 122 0 125 0;
#X connect 123 0 122 1;
#X connect 124 0 122 0;
#X connect 124 1 123 0;
#X connect 125 0 127 0;
#X connect 125 0 135 0;
#X connect 126 0 305 0;
#X connect 127 0 248 0;
#X connect 128 0 131 0;
#X connect 129 0 128 1;
#X connect 130 0 128 0;
#X connect 130 1 129 0;
#X connect 131 0 137 0;
#X connect 131 0 141 0;
#X connect 132 0 129 1;
#X connect 132 0 134 1;
#X connect 132 0 143 0;
#X connect 133 0 136 0;
#X connect 134 0 133 1;
#X connect 135 0 133 0;
#X connect 135 1 134 0;
#X connect 136 0 138 0;
#X connect 136 0 146 0;
#X connect 137 0 309 0;
#X connect 138 0 252 0;
#X connect 139 0 142 0;
#X connect 140 0 139 1;
#X connect 141 0 139 0;
#X connect 141 1 140 0;
#X connect 142 0 148 0;
#X connect 142 0 152 0;
#X connect 143 0 140 1;
#X connect 143 0 145 1;
#X connect 143 0 154 0;
#X connect 144 0 147 0;
#X connect 145 0 144 1;
#X connect 146 0 144 0;
#X connect 146 1 145 0;
#X connect 147 0 149 0;
#X connect 147 0 157 0;
#X connect 148 0 313 0;
#X connect 149 0 256 0;
#X connect 150 0 153 0;
#X connect 151 0 150 1;
#X connect 152 0 150 0;
#X connect 152 1 151 0;
#X connect 153 0 159 0;
#X connect 153 0 163 0;
#X connect 154 0 151 1;
#X connect 154 0 156 1;
#X connect 154 0 165 0;
#X connect 155 0 158 0;
#X connect 156 0 155 1;
#X connect 157 0 155 0;
#X connect 157 1 156 0;
#X connect 158 0 160 0;
#X connect 158 0 168 0;
#X connect 159 0 317 0;
#X connect 160 0 260 0;
#X connect 161 0 164 0;
#X connect 162 0 161 1;
#X connect 163 0 161 0;
#X connect 163 1 162 0;
#X connect 164 0 170 0;
#X connect 164 0 174 0;
#X connect 165 0 162 1;
#X connect 165 0 167 1;
#X connect 165 0 176 0;
#X connect 166 0 169 0;
#X connect 167 0 166 1;
#X connect 168 0 166 0;
#X connect 168 1 167 0;
#X connect 169 0 171 0;
#X connect 169 0 179 0;
#X connect 170 0 321 0;
#X connect 171 0 264 0;
#X connect 172 0 175 0;
#X connect 173 0 172 1;
#X connect 174 0 172 0;
#X connect 174 1 173 0;
#X connect 175 0 181 0;
#X connect 175 0 185 0;
#X connect 176 0 173 1;
#X connect 176 0 178 1;
#X connect 176 0 187 0;
#X connect 177 0 180 0;
#X connect 178 0 177 1;
#X connect 179 0 177 0;
#X connect 179 1 178 0;
#X connect 180 0 182 0;
#X connect 180 0 190 0;
#X connect 181 0 325 0;
#X connect 182 0 268 0;
#X connect 183 0 186 0;
#X connect 184 0 183 1;
#X connect 185 0 183 0;
#X connect 185 1 184 0;
#X connect 186 0 192 0;
#X connect 186 0 196 0;
#X connect 187 0 184 1;
#X connect 187 0 189 1;
#X connect 187 0 198 0;
#X connect 188 0 191 0;
#X connect 189 0 188 1;
#X connect 190 0 188 0;
#X connect 190 1 189 0;
#X connect 191 0 193 0;
#X connect 191 0 201 0;
#X connect 192 0 329 0;
#X connect 193 0 272 0;
#X connect 194 0 197 0;
#X connect 195 0 194 1;
#X connect 196 0 194 0;
#X connect 196 1 195 0;
#X connect 197 0 203 0;
#X connect 197 0 207 0;
#X connect 198 0 195 1;
#X connect 198 0 200 1;
#X connect 198 0 209 0;
#X connect 199 0 202 0;
#X connect 200 0 199 1;
#X connect 201 0 199 0;
#X connect 201 1 200 0;
#X connect 202 0 204 0;
#X connect 202 0 212 0;
#X connect 203 0 333 0;
#X connect 204 0 276 0;
#X connect 205 0 208 0;
#X connect 206 0 205 1;
#X connect 207 0 205 0;
#X connect 207 1 206 0;
#X connect 208 0 214 0;
#X connect 209 0 206 1;
#X connect 209 0 211 1;
#X connect 210 0 213 0;
#X connect 211 0 210 1;
#X connect 212 0 210 0;
#X connect 212 1 211 0;
#X connect 213 0 215 0;
#X connect 214 0 337 0;
#X connect 215 0 280 0;
#X connect 216 0 60 0;
#X connect 217 0 58 0;
#X connect 218 0 216 0;
#X connect 219 0 218 0;
#X connect 220 0 219 0;
#X connect 221 0 222 0;
#X connect 222 0 59 0;
#X connect 224 0 226 1;
#X connect 225 0 228 0;
#X connect 226 0 225 0;
#X connect 230 0 232 1;
#X connect 231 0 228 0;
#X connect 232 0 231 0;
#X connect 234 0 236 1;
#X connect 235 0 228 0;
#X connect 236 0 235 0;
#X connect 238 0 240 1;
#X connect 239 0 228 0;
#X connect 240 0 239 0;
#X connect 242 0 244 1;
#X connect 243 0 228 0;
#X connect 244 0 243 0;
#X connect 246 0 248 1;
#X connect 247 0 228 0;
#X connect 248 0 247 0;
#X connect 250 0 252 1;
#X connect 251 0 228 0;
#X connect 252 0 251 0;
#X connect 254 0 256 1;
#X connect 255 0 228 0;
#X connect 256 0 255 0;
#X connect 258 0 260 1;
#X connect 259 0 228 0;
#X connect 260 0 259 0;
#X connect 262 0 264 1;
#X connect 263 0 228 0;
#X connect 264 0 263 0;
#X connect 266 0 268 1;
#X connect 267 0 228 0;
#X connect 268 0 267 0;
#X connect 270 0 272 1;
#X connect 271 0 228 0;
#X connect 272 0 271 0;
#X connect 274 0 276 1;
#X connect 275 0 228 0;
#X connect 276 0 275 0;
#X connect 278 0 280 1;
#X connect 279 0 228 0;
#X connect 280 0 279 0;
#X connect 282 0 284 1;
#X connect 283 0 285 0;
#X connect 284 0 283 0;
#X connect 287 0 289 1;
#X connect 288 0 285 0;
#X connect 289 0 288 0;
#X connect 291 0 293 1;
#X connect 292 0 285 0;
#X connect 293 0 292 0;
#X connect 295 0 297 1;
#X connect 296 0 285 0;
#X connect 297 0 296 0;
#X connect 299 0 301 1;
#X connect 300 0 285 0;
#X connect 301 0 300 0;
#X connect 303 0 305 1;
#X connect 304 0 285 0;
#X connect 305 0 304 0;
#X connect 307 0 309 1;
#X connect 308 0 285 0;
#X connect 309 0 308 0;
#X connect 311 0 313 1;
#X connect 312 0 285 0;
#X connect 313 0 312 0;
#X connect 315 0 317 1;
#X connect 316 0 285 0;
#X connect 317 0 316 0;
#X connect 319 0 321 1;
#X connect 320 0 285 0;
#X connect 321 0 320 0;
#X connect 323 0 325 1;
#X connect 324 0 285 0;
#X connect 325 0 324 0;
#X connect 327 0 329 1;
#X connect 328 0 285 0;
#X connect 329 0 328 0;
#X connect 331 0 333 1;
#X connect 332 0 285 0;
#X connect 333 0 332 0;
#X connect 335 0 337 1;
#X connect 336 0 285 0;
#X connect 337 0 336 0;
#X connect 342 0 362 0;
#X connect 342 0 374 0;
#X connect 343 0 358 0;
#X connect 344 0 346 0;
#X connect 345 0 346 2;
#X connect 346 0 343 0;
#X connect 346 1 342 0;
#X connect 347 0 346 1;
#X connect 348 0 5 0;
#X connect 349 0 14 0;
#X connect 350 0 349 1;
#X connect 350 0 348 1;
#X connect 351 0 358 1;
#X connect 352 0 220 1;
#X connect 352 0 221 1;
#X connect 353 0 370 0;
#X connect 354 0 364 0;
#X connect 355 0 366 0;
#X connect 356 0 367 0;
#X connect 357 0 373 0;
#X connect 358 0 356 0;
#X connect 359 0 357 0;
#X connect 360 0 361 0;
#X connect 362 0 353 0;
#X connect 363 0 354 0;
#X connect 364 0 365 0;
#X connect 365 0 355 0;
#X connect 367 0 369 0;
#X connect 368 0 359 0;
#X connect 369 0 368 0;
#X connect 370 0 372 0;
#X connect 371 0 363 0;
#X connect 372 0 371 0;
#X connect 373 0 360 0;
#X connect 374 0 349 0;
#X connect 375 0 348 0;
#X connect 376 0 358 0;
#X connect 377 0 362 0;
#X connect 378 0 380 0;
#X connect 379 0 381 0;
#X connect 380 0 383 0;
#X connect 382 0 386 0;
#X connect 383 0 394 0;
#X connect 384 0 389 0;
#X connect 385 0 392 0;
#X connect 386 0 384 0;
#X connect 387 0 385 0;
#X connect 388 0 393 0;
#X connect 389 0 391 0;
#X connect 390 0 387 0;
#X connect 391 0 390 0;
#X connect 392 0 388 0;
#X connect 394 0 382 0;
