#N canvas 84 123 1440 690 16;
#X floatatom -344 -112 0 0 0 0 - - -;
#X obj -344 -147 *;
#X obj -351 -187 t b f;
#X floatatom -93 -107 0 0 0 0 - - -;
#X obj -96 -182 t b f;
#X obj -94 -142 *;
#X obj -290 -143 bng 22 250 50 0 empty empty empty 17 7 0 10 -262144
-1 -1;
#X obj -267 -48 delay;
#X obj -262 11 pack f f;
#X obj -398 16 pack f f;
#X obj -150 -142 * 1;
#X obj -162 -182 t b f;
#X obj -432 352 dac~;
#X obj -400 -44 delay;
#X floatatom -434 -112 0 0 0 0 - - -;
#X obj -434 -147 *;
#X obj -441 -187 t b f;
#X msg -396 492 1, f 2;
#X obj -453 538 /;
#X floatatom -453 606 0 0 0 0 F - -;
#X floatatom -224 -252 0 0 0 1 - - -;
#X floatatom -363 608 0 0 0 0 T - -;
#X obj -362 540 /;
#X obj -363 572 * 1000;
#X obj -362 642 spigot-toggle_vert;
#X obj -93 -254 - 1;
#X obj -93 -226 * -1;
#X floatatom -150 -107 0 0 0 0 - - -;
#X obj -292 -80 bng 15 250 50 0 empty empty empty 17 7 0 10 -262144
-1 -1;
#X obj -453 570 * 1000;
#X obj -289 -184 metro 44;
#X obj -102 891 spigot-toggle_orange;
#X obj -102 867 spigot-toggle_vert;
#X obj -102 843 spigot-toggle_red;
#X obj -102 936 * 1;
#X obj -349 891 spigot-toggle_orange;
#X obj -349 867 spigot-toggle_vert;
#X obj -350 843 spigot-toggle_red;
#X obj -349 936 * 1;
#X obj 183 -238 t b f;
#X floatatom -521 180 0 0 0 0 - - -;
#X obj 185 -203 * 1;
#X obj 143 -125 t b f;
#X obj 145 -93 * 1;
#X obj 64 -191 r lo;
#X obj -453 641 spigot-toggle_vert;
#X obj -381 293 dj-eq;
#X obj 185 -307 spigot-toggle_red;
#X obj 185 -278 spigot-toggle_red;
#X obj -388 890 spigot-toggle_orange;
#X obj -388 866 spigot-toggle_vert;
#X obj -388 842 spigot-toggle_red;
#X obj -392 935 * 1;
#X obj 31 891 spigot-toggle_orange;
#X obj 31 867 spigot-toggle_vert;
#X obj 31 843 spigot-toggle_red;
#X obj 28 936 * 1;
#X obj -545 159 spigot-toggle_red;
#X obj -388 912 spigot-toggle_orange;
#X obj -102 913 spigot-toggle_orange;
#X obj 31 913 spigot-toggle_orange;
#X obj -348 913 spigot-toggle_orange;
#X obj -189 891 spigot-toggle_orange;
#X obj -189 867 spigot-toggle_vert;
#X obj -189 843 spigot-toggle_red;
#X obj -64 891 spigot-toggle_orange;
#X obj -64 867 spigot-toggle_vert;
#X obj -64 843 spigot-toggle_red;
#X obj -141 891 spigot-toggle_orange;
#X obj -141 867 spigot-toggle_vert;
#X obj -141 843 spigot-toggle_red;
#X obj -144 936 * 1;
#X obj -64 913 spigot-toggle_orange;
#X obj -189 913 spigot-toggle_orange;
#X obj -531 893 r fll1;
#X obj -533 863 r fll0;
#X obj -140 913 spigot-toggle_orange;
#X obj -267 891 spigot-toggle_orange;
#X obj -267 867 spigot-toggle_vert;
#X obj -265 843 spigot-toggle_red;
#X obj -267 913 spigot-toggle_orange;
#X obj -15 891 spigot-toggle_orange;
#X obj -14 867 spigot-toggle_vert;
#X obj -14 843 spigot-toggle_red;
#X obj -15 913 spigot-toggle_orange;
#X obj 84 169 vsl 24 88 0 0.5 0 0 empty empty GAIN 2 6 1 8 -1 -260097
-260097 825 1;
#X obj 51 169 vsl 10 88 0 1.25 0 0 empty empty empty 12 12 0 10 -260097
-1 -1 5220 1;
#X obj 73 169 vsl 10 88 0 1.25 0 0 empty empty empty 12 12 0 10 -260097
-1 -1 5220 1;
#X obj 62 169 vsl 10 88 0 1.25 0 0 empty empty empty 12 12 0 10 -260097
-1 -1 5220 1;
#X obj 132 237 tgl 22 0 empty empty AUTO 1 10 1 8 -1 -260097 -260097
1 1;
#X obj -371 340 s~ C;
#X msg -264 -18 0;
#X obj -357 92 vline~;
#X obj -378 260 vfreeverb~;
#X obj 55 85 hsl 81 15 0 1 0 1 empty empty roomsize' 3 8 0 10 -260097
-1 -1 0 0;
#X obj 54 101 hsl 80 15 0 2 0 1 empty empty damp 3 8 0 10 -1 -260097
-260097 6000 0;
#X obj 54 117 hsl 80 15 0 1 0 1 empty empty wet 3 8 0 10 -1 -260097
-260097 0 0;
#X obj 54 133 hsl 80 15 0 1 0 1 empty empty dry 3 8 0 10 -1 -260097
-260097 3500 0;
#X msg 58 -38 0;
#X obj 214 325 cnv 15 62 165 empty empty empty 20 12 1 12 -262144 -228856
0;
#X floatatom 176 237 6 0 0 0 - - -;
#X floatatom 176 214 3 0 0 1 xt - -;
#X floatatom 177 191 6 0 0 2 - - -;
#X floatatom 176 349 6 0 0 0 - - -;
#X floatatom 177 325 3 0 0 1 xf - -;
#X floatatom 177 301 6 0 0 2 - - -;
#X obj -477 843 r B;
#X obj -108 978 - 1;
#X obj -109 1009 * -1;
#X obj 20 977 - 1;
#X obj 18 1008 * -1;
#X obj -230 891 spigot-toggle_orange;
#X obj -230 867 spigot-toggle_vert;
#X obj -230 843 spigot-toggle_red;
#X obj -228 936 * 1;
#X obj -229 913 spigot-toggle_orange;
#X obj 137 85 tgl 15 0 empty empty A 4 8 1 10 -260097 -1 -1 0 1;
#X obj 105 350 tgl 22 0 empty empty B 7 10 1 10 -260097 -1 -1 0 1;
#X obj 105 327 tgl 22 0 empty empty A 7 10 1 10 -260097 -1 -1 0 1;
#X obj 105 396 tgl 22 0 empty empty b' 7 9 1 10 -260097 -1 -1 0 1;
#X obj 105 373 tgl 22 0 empty empty a' 7 9 0 10 -260097 -1 -1 0 1;
#X msg 183 -168 1, f 2;
#X obj -272 936 * 1;
#X obj -626 151 r trgrA;
#X obj -186 936 * 1;
#X obj -64 936 * 1;
#X obj -478 819 r A;
#X obj -291 -104 bng 15 250 50 0 empty empty empty 17 7 0 10 -262144
-1 -1;
#X obj -544 183 spigot-toggle_red;
#X obj -626 178 r trgrB;
#X obj -548 100 spigot-toggle_red;
#X obj -548 124 spigot-toggle_red;
#X obj -728 122 r bonkAouBtoenvB;
#X obj -725 90 r bonkAouBtoenvA;
#X msg -29 165 20, f 2;
#X obj -397 56 s envinC;
#X obj -263 52 s envoutC;
#X obj -117 376 s timeC;
#X obj -294 -258 tgl 15 0 empty empty empty 17 7 0 10 -262144 -1 -1
1 1;
#X obj -157 -294 s BBsynthC;
#X obj 153 84 cnv 15 132 84 empty wavformod C 3 9 1 16 -260818 -262144
0;
#N canvas 0 50 450 250 (subpatch) 0;
#X array waveformC 1200 float 4;
#X coords 0 1.2 1199 -1.2 132 84 2 0 0;
#X restore 153 85 graph;
#X obj 133 262 vsl 22 108 0 15000 0 0 \$0-freq1 empty f1 5 10 1 17
-1 -260097 -260097 59 1;
#X obj 54 149 hsl 96 20 0 3500 0 0 glideC empty Glide 3 10 1 10 -260097
-1 -1 0 1;
#X obj 131 396 hsl 158 22 0 1 0 0 balanceC \$0-balance-recv Balance
56 10 1 10 -1 -260097 -260097 7850 1;
#X obj 276 325 bng 15 250 50 0 empty empty = 4 7 0 11 -1 -260097 -260097
;
#X obj 156 737 * 1;
#X msg 195 739 1;
#X obj 194 619 spigot-toggle_bleu;
#X obj 274 357 tgl 17 0 empty empty % 3 8 1 11 -260097 -1 -1 0 1;
#X obj 267 262 vsl 8 108 0.001 20 0 0 empty empty % 2 102 1 7 -260097
-1 -1 0 1;
#X msg 142 612 1, f 1;
#X obj 144 649 t b f;
#X obj 164 696 * 1;
#X obj -523 233 tgl 22 0 empty empty ø 5 10 1 16 -260097 -1 -1 1 1
;
#X obj 276 341 bng 15 250 50 0 empty empty x1 5 7 1 7 -1 -260097 -260097
;
#X obj -387 127 *~;
#X obj 132 214 tgl 22 0 empty empty FREE 1 10 1 8 -1 -260097 -260097
0 1;
#X obj -380 198 *~;
#X msg -398 -15 1;
#X obj 155 191 tgl 22 0 empty empty B 7 10 1 10 -1 -260097 -260097
0 1;
#X obj 155 168 tgl 22 0 empty empty A 7 10 1 10 -1 -260097 -260097
0 1;
#X obj 155 237 tgl 22 0 empty empty b' 7 9 1 10 -1 -260097 -260097
0 1;
#X obj 155 214 tgl 22 0 empty empty a' 7 9 0 10 -1 -260097 -260097
0 1;
#X obj 52 395 cnv 3 45 23 empty empty empty 2 4 1 11 -260097 -1 0;
#X floatatom -343 197 2 0 0 0 - - -;
#X obj 175 260 cnv 12 62 15 empty empty no_xt_no_xf 3 10 1 10 -1 -260097
0;
#X obj 276 277 tgl 15 0 empty empty B 4 7 1 10 -1 -260097 -260097 0
1;
#X obj 276 293 tgl 15 0 empty empty a' 4 7 1 10 -1 -260097 -260097
0 1;
#X obj 276 309 tgl 15 0 empty empty b' 4 7 1 10 -1 -260097 -260097
0 1;
#X obj 67 891 spigot-toggle_orange;
#X obj 67 867 spigot-toggle_vert;
#X obj 67 843 spigot-toggle_red;
#X obj 67 913 spigot-toggle_orange;
#X obj 154 305 tgl 22 0 empty empty B 7 10 1 10 -1 -260097 -260097
0 1;
#X obj 154 282 tgl 22 0 empty empty A 7 10 1 10 -1 -260097 -260097
0 1;
#X obj 154 351 tgl 22 0 empty empty b' 7 9 1 10 -1 -260097 -260097
0 1;
#X obj 154 328 tgl 22 0 empty empty a' 7 9 0 10 -1 -260097 -260097
0 1;
#X obj 237 305 tgl 22 0 empty empty B 7 10 1 10 -1 -260097 -260097
0 1;
#X obj 237 282 tgl 22 0 empty empty A 7 10 1 10 -1 -260097 -260097
0 1;
#X obj 237 351 tgl 22 0 empty empty b' 7 9 1 10 -1 -260097 -260097
0 1;
#X obj 237 328 tgl 22 0 empty empty a' 7 9 0 10 -1 -260097 -260097
0 1;
#X obj 137 101 tgl 15 0 empty empty B 4 8 1 10 -260097 -1 -1 0 1;
#X obj 137 117 tgl 15 0 empty empty a' 4 8 1 10 -260097 -1 -1 0 1;
#X obj 137 133 tgl 15 0 empty empty b' 4 8 1 10 -260097 -1 -1 0 1;
#X obj 51 7 cnv 15 240 77 empty empty empty 20 12 0 14 -1 -66577 0
;
#X obj 91 9 tgl 20 0 empty empty B 5 10 1 10 -1 -260097 -260097 0 1
;
#X obj 66 8 tgl 20 0 empty empty A 5 10 1 10 -1 -260097 -260097 0 1
;
#X obj 142 10 tgl 20 0 empty empty b' 5 9 1 10 -1 -260097 -260097 0
1;
#X obj 117 10 tgl 20 0 empty empty a' 5 9 0 10 -1 -260097 -260097 0
1;
#X obj 197 10 tgl 20 0 empty empty B 5 10 1 10 -1 -260097 -260097 0
1;
#X obj 173 10 tgl 20 0 empty empty A 5 10 1 10 -1 -260097 -260097 0
1;
#X obj 261 10 tgl 20 0 empty empty b' 5 9 1 10 -1 -260097 -260097 0
1;
#X obj 227 10 tgl 20 0 empty empty a' 5 9 0 10 -1 -260097 -260097 0
1;
#X obj 57 30 hsl 115 15 0 1 0 0 empty empty cut 12 8 0 10 -260097 -1
-1 4900 1;
#X obj 177 30 hsl 110 15 0 1 0 0 empty empty empty -2 8 0 10 -260097
-1 -1 5800 1;
#X obj 92 45 tgl 20 0 empty empty B 5 10 1 10 -1 -260097 -260097 0
1;
#X obj 66 46 tgl 20 0 empty empty A 5 10 1 10 -1 -260097 -260097 0
1;
#X obj 143 45 tgl 20 0 empty empty b' 5 9 1 10 -1 -260097 -260097 0
1;
#X obj 118 45 tgl 20 0 empty empty a' 5 9 0 10 -1 -260097 -260097 0
1;
#X obj 197 45 tgl 20 0 empty empty B 5 10 1 10 -1 -260097 -260097 0
1;
#X obj 173 45 tgl 20 0 empty empty A 5 10 1 10 -1 -260097 -260097 0
1;
#X obj 261 45 tgl 20 0 empty empty b' 5 9 1 10 -1 -260097 -260097 0
1;
#X obj 227 45 tgl 20 0 empty empty a' 5 9 0 10 -1 -260097 -260097 0
1;
#X obj 176 64 hsl 110 15 0 1 0 0 empty empty empty 45 11 1 20 -260097
-1 -1 5400 1;
#X obj 56 64 hsl 115 15 0 1 0 0 empty empty fade 12 8 0 10 -260097
-1 -1 1500 1;
#X obj 173 168 cnv 12 63 22 empty empty ___TIME__ 2 18 1 12 -1 -260097
0;
#X obj 237 260 tgl 22 0 empty empty ʌ 4 10 1 28 -260097 -1 -1 0 1
;
#X obj 154 259 tgl 22 0 empty empty v 4 10 1 28 -260097 -1 -1 1 1;
#X obj 275 990 + 1;
#X msg -73 143 0.75;
#X obj 109 192 tgl 22 0 empty empty B 8 10 1 12 -260097 -1 -1 0 1;
#X obj 109 169 tgl 22 0 empty empty A 8 10 1 12 -260097 -1 -1 0 1;
#X obj 109 238 tgl 22 0 empty empty b' 4 10 1 12 -260097 -1 -1 0 1
;
#X obj 109 215 tgl 22 0 empty empty a' 4 10 1 12 -260097 -1 -1 0 1
;
#X obj 132 192 tgl 22 0 empty empty Bø 4 10 1 12 -260097 -1 -1 0 1
;
#X obj 132 170 tgl 22 0 empty empty Aø 4 10 1 12 -260097 -1 -1 0 1
;
#X obj 237 191 tgl 22 0 empty empty B 7 10 1 10 -1 -260097 -260097
0 1;
#X obj 237 168 tgl 22 0 empty empty A 7 10 1 10 -1 -260097 -260097
0 1;
#X obj 237 237 tgl 22 0 empty empty b' 7 9 1 10 -1 -260097 -260097
0 1;
#X obj 237 214 tgl 22 0 empty empty a' 7 9 0 10 -1 -260097 -260097
0 1;
#X obj -304 891 spigot-toggle_orange;
#X obj -304 867 spigot-toggle_vert;
#X obj -304 843 spigot-toggle_red;
#X obj -304 913 spigot-toggle_orange;
#X obj 52 301 tgl 22 0 empty empty B 7 10 1 10 -260097 -1 -1 0 1;
#X obj 52 278 tgl 22 0 empty empty A 7 10 1 10 -260097 -1 -1 0 1;
#X obj 52 347 tgl 22 0 empty empty b' 7 9 1 10 -260097 -1 -1 0 1;
#X obj 52 324 tgl 22 0 empty empty a' 7 9 0 10 -260097 -1 -1 0 1;
#X obj -309 936 * 1;
#X obj 275 170 vsl 8 88 0 1.25 0 0 empty empty empty 3 6 1 11 -260097
-1 -1 5220 1;
#X obj 267 170 vsl 8 88 0 1.25 0 0 empty empty empty 3 6 1 11 -260097
-1 -1 5220 1;
#X obj 259 170 vsl 8 88 0 1.25 0 0 empty empty empty 3 6 1 11 -260097
-1 -1 5220 1;
#X obj 258 262 vsl 10 108 0 10000 0 0 freq2 empty f2 1 10 1 10 -1 -260097
-260097 0 1;
#X obj -425 745 tgl 20 0 empty empty ø 6 10 1 16 -260097 -1 -1 1 1
;
#X obj -431 783 s 2mfreqadd;
#X obj 64 784 s L2;
#X obj 113 784 s M2;
#X obj 164 784 s H2;
#X obj 84 394 cnv 4 20 24 empty empty empty 20 12 0 14 -1 -66577 0
;
#X obj -88 30 multiosciA;
#X obj 370 661 *~;
#X obj 360 693 s~ Dadd;
#X obj -191 377 s freq1;
#X obj -305 380 s phase2;
#X obj -456 127 r~ CWF;
#X obj -309 967 * -2;
#X obj -308 996 + 1;
#X obj -263 967 * -2;
#X obj -261 996 + 1;
#X floatatom 400 629 5 0 0 0 - - -;
#X obj 278 87 vsl 13 78 0 1.1 0 0 empty empty << 1 9 1 9 -1 -4034 -4034
0 1;
#X obj -471 85 r lo;
#X obj 52 261 hradio 16 1 0 5 wave-send empty empty 0 -8 0 10 -4034
-260097 -1 1;
#X text 53 256 ~, f 3;
#X text 69 254 ▲;
#X text 118 256 n;
#X text 102 257 N;
#X text 86 255 ■;
#X obj 276 261 tgl 15 0 empty empty A 4 7 1 10 -1 -260097 -260097 0
1;
#X obj 74 277 cnv 12 30 118 empty empty empty 2 4 1 11 -1 -1 0;
#X obj 127 277 cnv 4 5 118 empty empty empty 2 4 1 11 -1 -1 0;
#X obj 52 370 tgl 25 0 empty empty phs1 2 12 1 11 -1 -260097 -260097
0 1;
#X obj 103 301 tgl 25 0 empty empty phs2 2 12 1 11 -1 -260097 -260097
1 1;
#X obj 132 372 cnv 12 159 23 empty empty empty 2 4 1 11 -1 -1 0;
#X obj 284 170 vsl 8 88 0 3 0 0 empty empty 2 0 80 1 13 -1 -260097
-260097 0 1;
#X obj -293 -408 tgl 15 0 empty empty empty 17 7 0 10 -262144 -1 -1
1 1;
#X obj -293 -438 loadbang;
#X floatatom -461 204 0 0 0 0 - - -;
#X msg 68 -96 1;
#X msg -18 369 0.5, f 2;
#X obj 96 278 cnv 15 31 22 empty empty empty 20 12 0 14 -260097 -66577
0;
#X floatatom 52 395 3 0 0 1 - - -;
#X floatatom 96 278 3 0 0 1 - - -;
#X msg 262 -59 0, f 2;
#X obj -380 228 *~;
#X obj -491 232 t b f;
#X obj -492 265 * 1;
#X obj -344 687 r lo;
#X msg -428 708 1;
#X floatatom 1148 -122 0 0 0 0 - - -;
#X obj 1148 -157 *;
#X obj 1141 -197 t b f;
#X floatatom 1399 -117 0 0 0 0 - - -;
#X obj 1396 -192 t b f;
#X obj 1398 -152 *;
#X obj 1202 -153 bng 22 250 50 0 empty empty empty 17 7 0 10 -262144
-1 -1;
#X obj 1225 -58 delay;
#X obj 1230 1 pack f f;
#X obj 1094 6 pack f f;
#X obj 1342 -152 * 1;
#X obj 1330 -192 t b f;
#X obj 1060 342 dac~;
#X obj 1092 -54 delay;
#X floatatom 1058 -122 0 0 0 0 - - -;
#X obj 1058 -157 *;
#X obj 1051 -197 t b f;
#X msg 1092 450 1, f 2;
#X obj 1039 528 /;
#X floatatom 1039 596 0 0 0 0 F - -;
#X floatatom 1268 -262 0 0 0 1 - - -;
#X floatatom 1129 598 0 0 0 0 T - -;
#X obj 1130 530 /;
#X obj 1129 562 * 1000;
#X obj 1130 632 spigot-toggle_vert;
#X obj 1399 -264 - 1;
#X obj 1399 -236 * -1;
#X floatatom 1342 -117 0 0 0 0 - - -;
#X obj 1200 -90 bng 15 250 50 0 empty empty empty 17 7 0 10 -262144
-1 -1;
#X obj 1039 560 * 1000;
#X obj 1203 -194 metro 44;
#X obj 553 907 spigot-toggle_orange;
#X obj 553 883 spigot-toggle_vert;
#X obj 553 859 spigot-toggle_red;
#X obj 553 952 * 1;
#X obj 326 907 spigot-toggle_orange;
#X obj 326 883 spigot-toggle_vert;
#X obj 325 859 spigot-toggle_red;
#X obj 306 952 * 1;
#X obj 425 -229 t b f;
#X floatatom 971 170 0 0 0 0 - - -;
#X obj 427 -194 * 1;
#X obj 429 -125 t b f;
#X obj 431 -93 * 1;
#X obj 350 -191 r lo;
#X obj 1039 631 spigot-toggle_vert;
#X obj 1112 285 dj-eq;
#X obj 427 -298 spigot-toggle_red;
#X obj 427 -269 spigot-toggle_red;
#X obj 267 906 spigot-toggle_orange;
#X obj 267 882 spigot-toggle_vert;
#X obj 267 858 spigot-toggle_red;
#X obj 263 951 * 1;
#X obj 686 907 spigot-toggle_orange;
#X obj 686 883 spigot-toggle_vert;
#X obj 686 859 spigot-toggle_red;
#X obj 683 952 * 1;
#X obj 947 144 spigot-toggle_red;
#X obj 267 928 spigot-toggle_orange;
#X obj 553 929 spigot-toggle_orange;
#X obj 686 929 spigot-toggle_orange;
#X obj 327 929 spigot-toggle_orange;
#X obj 466 907 spigot-toggle_orange;
#X obj 466 883 spigot-toggle_vert;
#X obj 466 859 spigot-toggle_red;
#X obj 591 907 spigot-toggle_orange;
#X obj 591 883 spigot-toggle_vert;
#X obj 591 859 spigot-toggle_red;
#X obj 514 907 spigot-toggle_orange;
#X obj 514 883 spigot-toggle_vert;
#X obj 514 859 spigot-toggle_red;
#X obj 511 952 * 1;
#X obj 591 929 spigot-toggle_orange;
#X obj 466 929 spigot-toggle_orange;
#X obj 138 908 r fll1;
#X obj 140 878 r fll0;
#X obj 515 929 spigot-toggle_orange;
#X obj 388 907 spigot-toggle_orange;
#X obj 388 883 spigot-toggle_vert;
#X obj 390 859 spigot-toggle_red;
#X obj 388 929 spigot-toggle_orange;
#X obj 640 907 spigot-toggle_orange;
#X obj 641 883 spigot-toggle_vert;
#X obj 641 859 spigot-toggle_red;
#X obj 640 929 spigot-toggle_orange;
#X obj 329 169 vsl 24 88 0 0.5 0 0 empty empty GAIN 2 6 1 8 -1 -260097
-260097 800 1;
#X obj 297 169 vsl 10 88 0 1.25 0 0 empty empty empty 12 12 0 10 -260097
-1 -1 5220 1;
#X obj 318 169 vsl 10 88 0 1.25 0 0 empty empty empty 12 12 0 10 -260097
-1 -1 5220 1;
#X obj 307 169 vsl 10 88 0 1.25 0 0 empty empty empty 12 12 0 10 -260097
-1 -1 5220 1;
#X obj 377 237 tgl 22 0 empty empty AUTO 1 10 1 8 -1 -260097 -260097
1 1;
#X msg 1228 -28 0;
#X obj 1135 82 vline~;
#X obj 1112 253 vfreeverb~;
#X obj 437 85 hsl 81 15 0 1 0 1 empty empty roomsize' 3 8 0 10 -260097
-1 -1 0 0;
#X obj 437 101 hsl 81 15 0 2 0 1 empty empty damp 3 8 0 10 -1 -260097
-260097 3300 0;
#X obj 437 117 hsl 81 15 0 1 0 1 empty empty wet 3 8 0 10 -1 -260097
-260097 1900 0;
#X obj 437 133 hsl 81 15 0 1 0 1 empty empty dry 3 8 0 10 -1 -260097
-260097 3900 0;
#X msg 344 -38 0;
#X obj 459 325 cnv 15 62 165 empty empty empty 20 12 1 12 -262144 -228856
0;
#X floatatom 421 237 6 0 0 0 - - -;
#X floatatom 421 214 3 0 0 1 xt - -;
#X floatatom 422 191 6 0 0 2 - - -;
#X floatatom 420 349 6 0 0 0 - - -;
#X floatatom 420 325 3 0 0 1 xf - -;
#X floatatom 420 301 6 0 0 2 - - -;
#X obj 146 856 r B;
#X obj 681 1001 - 1;
#X obj 680 1032 * -1;
#X obj 732 1000 - 1;
#X obj 730 1031 * -1;
#X obj 425 907 spigot-toggle_orange;
#X obj 425 883 spigot-toggle_vert;
#X obj 425 859 spigot-toggle_red;
#X obj 427 952 * 1;
#X obj 426 929 spigot-toggle_orange;
#X obj 350 350 tgl 22 0 empty empty B 7 10 1 10 -260097 -1 -1 0 1;
#X obj 350 327 tgl 22 0 empty empty A 7 10 1 10 -260097 -1 -1 0 1;
#X obj 350 396 tgl 22 0 empty empty b' 7 9 1 10 -260097 -1 -1 0 1;
#X obj 350 373 tgl 22 0 empty empty a' 7 9 0 10 -260097 -1 -1 0 1;
#X msg 425 -159 1, f 2;
#X obj 383 952 * 1;
#X obj 866 141 r trgrA;
#X obj 469 952 * 1;
#X obj 145 832 r A;
#X obj 1201 -114 bng 15 250 50 0 empty empty empty 17 7 0 10 -262144
-1 -1;
#X obj 948 173 spigot-toggle_red;
#X obj 866 168 r trgrB;
#X obj 944 90 spigot-toggle_red;
#X obj 944 114 spigot-toggle_red;
#X obj 764 112 r bonkAouBtoenvB;
#X obj 767 80 r bonkAouBtoenvA;
#X msg 1463 155 20, f 2;
#X obj 1198 -268 tgl 15 0 empty empty empty 17 7 0 10 -262144 -1 -1
1 1;
#X obj 297 84 cnv 15 136 84 empty $D-clr D 3 9 1 16 -24198 -262144
0;
#N canvas 0 50 450 250 (subpatch) 0;
#X array waveformD 2200 float 4;
#X coords 0 1.2 2199 -1.2 136 84 2 0 0;
#X restore 297 85 graph;
#X obj 378 262 vsl 22 108 0 15000 0 0 \$0-freq1 empty f1 5 10 1 17
-1 -260097 -260097 86 1;
#X obj 437 149 hsl 97 20 0 3500 0 0 \$0-glide \$0-glide-recv Glide
3 10 1 10 -260097 -1 -1 0 1;
#X obj 376 396 hsl 158 22 0 1 0 0 balanceD \$0-balance-recv Balance
56 10 1 10 -1 -260097 -260097 7850 1;
#X obj 521 325 bng 15 250 50 0 empty empty = 4 7 0 11 -1 -260097 -260097
;
#X obj 825 619 * 1;
#X msg 801 587 1;
#X obj 872 675 spigot-toggle_bleu;
#X obj 519 357 tgl 17 0 empty empty % 3 8 1 11 -260097 -1 -1 0 1;
#X obj 513 264 vsl 8 108 0.001 20 0 0 empty empty % 2 102 1 7 -260097
-1 -1 0 1;
#X msg 829 656 1, f 1;
#X obj 841 705 t b f;
#X obj 842 743 * 1;
#X obj 971 218 tgl 22 0 empty empty ø 5 10 1 16 -260097 -1 -1 1 1
;
#X obj 521 341 bng 15 250 50 0 empty empty x1 5 7 1 7 -1 -260097 -260097
;
#X obj 1105 117 *~;
#X obj 377 214 tgl 22 0 empty empty FREE 1 10 1 8 -1 -260097 -260097
0 1;
#X obj 1112 188 *~;
#X msg 1094 -25 1;
#X obj 400 191 tgl 22 0 empty empty B 7 10 1 10 -1 -260097 -260097
0 1;
#X obj 400 168 tgl 22 0 empty empty A 7 10 1 10 -1 -260097 -260097
0 1;
#X obj 400 237 tgl 22 0 empty empty b' 7 9 1 10 -1 -260097 -260097
0 1;
#X obj 400 214 tgl 22 0 empty empty a' 7 9 0 10 -1 -260097 -260097
0 1;
#X obj 294 395 cnv 3 45 23 empty empty empty 2 4 1 11 -260097 -1 0
;
#X floatatom 1149 187 2 0 0 0 - - -;
#X obj 521 277 tgl 15 0 empty empty B 4 7 1 10 -1 -260097 -260097 0
1;
#X obj 521 293 tgl 15 0 empty empty a' 4 7 1 10 -1 -260097 -260097
0 1;
#X obj 521 309 tgl 15 0 empty empty b' 4 7 1 10 -1 -260097 -260097
0 1;
#X obj 725 907 spigot-toggle_orange;
#X obj 725 883 spigot-toggle_vert;
#X obj 725 859 spigot-toggle_red;
#X obj 725 929 spigot-toggle_orange;
#X obj 399 305 tgl 22 0 empty empty B 7 10 1 10 -1 -260097 -260097
0 1;
#X obj 399 282 tgl 22 0 empty empty A 7 10 1 10 -1 -260097 -260097
0 1;
#X obj 399 351 tgl 22 0 empty empty b' 7 9 1 10 -1 -260097 -260097
0 1;
#X obj 399 328 tgl 22 0 empty empty a' 7 9 0 10 -1 -260097 -260097
0 1;
#X obj 482 305 tgl 22 0 empty empty B 7 10 1 10 -1 -260097 -260097
0 1;
#X obj 482 282 tgl 22 0 empty empty A 7 10 1 10 -1 -260097 -260097
0 1;
#X obj 482 351 tgl 22 0 empty empty b' 7 9 1 10 -1 -260097 -260097
0 1;
#X obj 482 328 tgl 22 0 empty empty a' 7 9 0 10 -1 -260097 -260097
0 1;
#X obj 521 101 tgl 15 0 empty empty B 4 8 1 10 -260097 -1 -1 0 1;
#X obj 521 117 tgl 15 0 empty empty a' 4 8 1 10 -260097 -1 -1 0 1;
#X obj 521 133 tgl 15 0 empty empty b' 4 8 1 10 -260097 -1 -1 0 1;
#X obj 296 7 cnv 9 240 77 empty empty empty 20 12 0 14 -1 -66577 0
;
#X obj 336 9 tgl 20 0 empty empty B 5 10 1 10 -1 -260097 -260097 0
1;
#X obj 311 8 tgl 20 0 empty empty A 5 10 1 10 -1 -260097 -260097 0
1;
#X obj 387 10 tgl 20 0 empty empty b' 5 9 1 10 -1 -260097 -260097 0
1;
#X obj 362 10 tgl 20 0 empty empty a' 5 9 0 10 -1 -260097 -260097 0
1;
#X obj 442 10 tgl 20 0 empty empty B 5 10 1 10 -1 -260097 -260097 0
1;
#X obj 418 10 tgl 20 0 empty empty A 5 10 1 10 -1 -260097 -260097 0
1;
#X obj 506 10 tgl 20 0 empty empty b' 5 9 1 10 -1 -260097 -260097 0
1;
#X obj 472 10 tgl 20 0 empty empty a' 5 9 0 10 -1 -260097 -260097 0
1;
#X obj 301 31 hsl 115 15 0 1 0 0 empty empty cut 12 8 0 10 -260097
-1 -1 4100 1;
#X obj 421 31 hsl 110 15 0 1 0 0 empty empty empty -2 8 0 10 -260097
-1 -1 10900 1;
#X obj 337 45 tgl 20 0 empty empty B 5 10 1 10 -1 -260097 -260097 0
1;
#X obj 311 46 tgl 20 0 empty empty A 5 10 1 10 -1 -260097 -260097 0
1;
#X obj 388 45 tgl 20 0 empty empty b' 5 9 1 10 -1 -260097 -260097 0
1;
#X obj 363 45 tgl 20 0 empty empty a' 5 9 0 10 -1 -260097 -260097 0
1;
#X obj 442 45 tgl 20 0 empty empty B 5 10 1 10 -1 -260097 -260097 0
1;
#X obj 418 45 tgl 20 0 empty empty A 5 10 1 10 -1 -260097 -260097 0
1;
#X obj 506 45 tgl 20 0 empty empty b' 5 9 1 10 -1 -260097 -260097 0
1;
#X obj 472 45 tgl 20 0 empty empty a' 5 9 0 10 -1 -260097 -260097 0
1;
#X obj 421 64 hsl 110 15 0 1 0 0 empty empty empty 45 11 1 20 -260097
-1 -1 10900 1;
#X obj 301 64 hsl 115 15 0 1 0 0 empty empty fade 12 8 0 10 -260097
-1 -1 0 1;
#X obj 418 168 cnv 12 63 22 empty empty ___TIME__ 2 18 1 12 -1 -260097
0;
#X obj 482 260 tgl 22 0 empty empty ʌ 4 10 1 28 -260097 -1 -1 0 1
;
#X obj 399 259 tgl 22 0 empty empty v 4 10 1 28 -260097 -1 -1 0 1;
#X obj 725 327 + 1;
#X msg 703 149 0.75;
#X obj 354 192 tgl 22 0 empty empty B 8 10 1 12 -260097 -1 -1 0 1;
#X obj 354 169 tgl 22 0 empty empty A 8 10 1 12 -260097 -1 -1 0 1;
#X obj 354 238 tgl 22 0 empty empty b' 4 10 1 12 -260097 -1 -1 0 1
;
#X obj 354 215 tgl 22 0 empty empty a' 4 10 1 12 -260097 -1 -1 0 1
;
#X obj 377 192 tgl 22 0 empty empty Bø 4 10 1 12 -260097 -1 -1 0 1
;
#X obj 377 169 tgl 22 0 empty empty Aø 4 10 1 12 -260097 -1 -1 0 1
;
#X obj 482 191 tgl 22 0 empty empty B 7 10 1 10 -1 -260097 -260097
0 1;
#X obj 482 168 tgl 22 0 empty empty A 7 10 1 10 -1 -260097 -260097
0 1;
#X obj 482 237 tgl 22 0 empty empty b' 7 9 1 10 -1 -260097 -260097
0 1;
#X obj 482 214 tgl 22 0 empty empty a' 7 9 0 10 -1 -260097 -260097
0 1;
#X obj 351 907 spigot-toggle_orange;
#X obj 351 883 spigot-toggle_vert;
#X obj 351 859 spigot-toggle_red;
#X obj 351 929 spigot-toggle_orange;
#X obj 297 301 tgl 22 0 empty empty B 7 10 1 10 -260097 -1 -1 0 1;
#X obj 297 278 tgl 22 0 empty empty A 7 10 1 10 -260097 -1 -1 0 1;
#X obj 297 347 tgl 22 0 empty empty b' 7 9 1 10 -260097 -1 -1 0 1;
#X obj 297 324 tgl 22 0 empty empty a' 7 9 0 10 -260097 -1 -1 0 1;
#X obj 346 952 * 1;
#X obj 519 170 vsl 8 88 0 1.25 0 0 empty empty empty 3 6 1 11 -260097
-1 -1 5220 1;
#X obj 512 170 vsl 8 88 0 1.25 0 0 empty empty empty 3 6 1 11 -260097
-1 -1 5220 1;
#X obj 504 170 vsl 8 88 0 1.25 0 0 empty empty empty 3 6 1 11 -260097
-1 -1 5220 1;
#X obj 504 264 vsl 10 108 0 10000 0 0 freq2B empty f2 2 10 1 10 -1
-260097 -260097 0 1;
#X obj 560 475 tgl 20 0 empty empty ø 6 10 1 16 -260097 -1 -1 1 1
;
#X obj 329 394 cnv 4 20 24 empty empty empty 20 12 0 14 -1 -66577 0
;
#X obj 346 983 * -2;
#X obj 347 1012 + 1;
#X obj 392 983 * -2;
#X obj 394 1012 + 1;
#X obj 981 112 r lo;
#X obj 297 261 hradio 16 1 0 5 wave-sendB empty empty 0 -8 0 10 -4034
-260097 -1 1;
#X text 298 256 ~, f 3;
#X text 314 254 ▲;
#X text 363 256 n;
#X text 347 257 N;
#X text 331 255 ■;
#X obj 521 261 tgl 15 0 empty empty A 4 7 1 10 -1 -260097 -260097 0
1;
#X obj 319 277 cnv 12 30 118 empty empty empty 2 4 1 11 -1 -1 0;
#X obj 372 277 cnv 4 5 118 empty empty empty 2 4 1 11 -1 -1 0;
#X obj 297 370 tgl 25 0 empty empty phs1 2 12 1 11 -1 -260097 -260097
0 1;
#X obj 347 302 tgl 25 0 empty empty phs2 2 12 1 11 -1 -260097 -260097
1 1;
#X obj 377 372 cnv 12 159 23 empty empty empty 2 4 1 11 -1 -1 0;
#X obj 528 170 vsl 8 88 0 3 0 0 empty empty 2 0 80 1 13 -1 -260097
-260097 0 1;
#X obj 1199 -418 tgl 15 0 empty empty empty 17 7 0 10 -262144 -1 -1
1 1;
#X obj 1199 -448 loadbang;
#X floatatom 1003 193 0 0 0 0 - - -;
#X msg 395 -50 1;
#X msg 1474 359 0.5, f 2;
#X obj 341 278 cnv 15 31 22 empty empty empty 20 12 0 14 -260097 -66577
0;
#X floatatom 297 395 3 0 0 1 - - -;
#X floatatom 341 278 3 0 0 1 - - -;
#X msg 557 -36 0, f 2;
#X obj 1112 218 *~;
#X obj 1001 222 t b f;
#X obj 1000 255 * 1;
#X obj 482 472 r lo;
#X msg 457 445 1;
#X obj 1116 339 s~ D;
#X obj 882 410 s phase2B;
#X obj 1301 367 s freq1B;
#X obj 1385 366 s timeD;
#X obj 565 24 multiosciB;
#X obj 1095 46 s envinD;
#X obj 1229 42 s envoutD;
#X obj -479 -298 tabwrite~ waveformC;
#X obj 1112 -333 tabwrite~ waveformD;
#X obj 672 405 s 2mfaddB;
#X obj -135 53 cnv 15 3 411 empty empty empty 20 12 0 14 -4034 -66577
0;
#X obj 1118 -398 r~ D;
#X obj -374 -388 r~ C;
#X obj 1230 -153 s BBsynthD;
#X obj 1048 83 r~ CWFD;
#X obj -576 236 sel;
#X msg -587 305 1;
#X obj 921 204 sel;
#X msg 920 231 1;
#X obj 50 418 cnv 7 486 16 empty empty empty 20 12 0 14 -1 -66577 0
;
#X obj 725 779 s L2B;
#X obj 779 779 s M2B;
#X obj 833 779 s H2B;
#X obj 957 -403 *~;
#X obj 1007 -399 tgl 15 0 empty empty empty 17 7 0 10 -262144 -1 -1
0 1;
#X obj 308 -448 > 0;
#X floatatom 305 -337 5 0 0 0 - - -;
#X obj 307 -373 + 44;
#X obj 307 -413 * 2;
#X msg 300 -296 color \$1 33;
#X obj -149 95 cnv 10 11 250 empty empty empty 33 6 0 11 -1 -1 0;
#X obj 726 952 * 6;
#X obj 68 936 * 6;
#X obj 521 85 tgl 15 0 empty empty A 4 8 1 10 -260097 -1 -1 0 1;
#X obj 300 -268 s wavformod;
#X obj 204 -313 r T$;
#X obj 204 -282 r T1;
#X obj 446 -304 r T$;
#X obj 446 -272 r T1;
#X floatatom -33 1022 5 0 0 0 - - -;
#X obj -20 936 * 100;
#X obj 591 952 * 100;
#X obj 635 952 * 100;
#X obj -360 464 t b f;
#X obj -488 464 t b f;
#X obj 1154 482 t b f;
#X obj 986 481 t b f;
#X obj 175 276 cnv 12 62 25 empty empty ___FREQ__ 1 18 1 12 -1 -260097
0;
#X obj 420 260 cnv 12 62 15 empty empty no_xt_no_xf 3 10 1 10 -1 -260097
0;
#X obj 420 276 cnv 12 62 25 empty empty ___FREQ__ 1 18 1 12 -1 -260097
0;
#X obj 292 7 cnv 6 4 422 empty empty empty 20 12 0 14 -1 -66577 0;
#X obj -33 -415 spigot-toggle_red;
#X obj -33 -313 pack \$1 \$0;
#X floatatom -33 -337 12 0 0 0 - - -;
#X obj -33 -387 f;
#X obj -33 -362 * 100;
#X obj 260 86 tgl 17 0 empty empty empty 4 9 1 14 -260097 -1 -262144
0 1;
#X obj 33 -418 tgl 15 0 empty empty empty 17 7 0 10 -262144 -1 -1 0
1;
#X obj 622 -427 spigot-toggle_red;
#X obj 622 -325 pack \$1 \$0;
#X floatatom 622 -349 12 0 0 0 - - -;
#X obj 622 -399 f;
#X obj 622 -374 * 100;
#X obj 416 85 tgl 17 0 empty empty empty 4 9 1 14 -4034 -1 -262144
0 1;
#X msg 622 -300 \; waveformD resize \$1;
#X msg -33 -288 \; waveformC resize \$1;
#X connect 0 0 9 1;
#X connect 1 0 0 0;
#X connect 2 0 1 0;
#X connect 2 1 1 1;
#X connect 3 0 8 1;
#X connect 4 0 5 0;
#X connect 4 1 5 1;
#X connect 5 0 3 0;
#X connect 6 0 139 0;
#X connect 6 0 127 0;
#X connect 6 0 547 0;
#X connect 7 0 91 0;
#X connect 8 0 136 0;
#X connect 8 0 92 0;
#X connect 9 0 135 0;
#X connect 9 0 92 0;
#X connect 10 0 27 0;
#X connect 11 0 10 0;
#X connect 11 1 10 1;
#X connect 13 0 159 0;
#X connect 14 0 13 1;
#X connect 15 0 14 0;
#X connect 16 0 15 0;
#X connect 16 1 15 1;
#X connect 17 0 22 0;
#X connect 17 0 18 0;
#X connect 18 0 29 0;
#X connect 19 0 45 0;
#X connect 20 0 30 1;
#X connect 20 0 5 0;
#X connect 20 0 10 0;
#X connect 20 0 1 0;
#X connect 20 0 15 0;
#X connect 20 0 594 1;
#X connect 21 0 24 0;
#X connect 22 0 23 0;
#X connect 23 0 21 0;
#X connect 24 0 102 0;
#X connect 25 0 26 0;
#X connect 26 0 4 0;
#X connect 27 0 7 1;
#X connect 28 0 7 0;
#X connect 28 0 13 0;
#X connect 28 0 17 0;
#X connect 29 0 19 0;
#X connect 30 0 6 0;
#X connect 31 0 34 0;
#X connect 32 0 34 0;
#X connect 33 0 34 0;
#X connect 34 0 107 0;
#X connect 35 0 38 0;
#X connect 36 0 38 0;
#X connect 37 0 38 0;
#X connect 38 0 194 0;
#X connect 39 0 41 0;
#X connect 39 1 41 1;
#X connect 40 0 154 0;
#X connect 41 0 100 0;
#X connect 42 0 43 0;
#X connect 42 1 43 1;
#X connect 43 0 103 0;
#X connect 44 0 121 0;
#X connect 44 0 134 0;
#X connect 44 0 195 0;
#X connect 44 0 269 0;
#X connect 44 0 274 0;
#X connect 44 0 98 0;
#X connect 44 0 210 0;
#X connect 44 0 270 0;
#X connect 45 0 105 0;
#X connect 46 0 12 1;
#X connect 46 0 12 0;
#X connect 46 0 90 0;
#X connect 47 0 102 0;
#X connect 48 0 102 0;
#X connect 49 0 52 0;
#X connect 50 0 52 0;
#X connect 51 0 52 0;
#X connect 52 0 205 0;
#X connect 53 0 56 0;
#X connect 54 0 56 0;
#X connect 55 0 56 0;
#X connect 56 0 109 0;
#X connect 57 0 40 0;
#X connect 58 0 52 0;
#X connect 59 0 34 0;
#X connect 60 0 56 0;
#X connect 61 0 38 0;
#X connect 62 0 124 0;
#X connect 63 0 124 0;
#X connect 64 0 124 0;
#X connect 65 0 125 0;
#X connect 66 0 125 0;
#X connect 67 0 125 0;
#X connect 68 0 71 0;
#X connect 69 0 71 0;
#X connect 70 0 71 0;
#X connect 71 0 94 0;
#X connect 72 0 125 0;
#X connect 73 0 124 0;
#X connect 74 0 73 0;
#X connect 74 0 72 0;
#X connect 74 0 76 0;
#X connect 74 0 84 0;
#X connect 74 0 80 0;
#X connect 74 0 115 0;
#X connect 74 0 58 0;
#X connect 74 0 60 0;
#X connect 74 0 173 0;
#X connect 74 0 224 0;
#X connect 74 0 61 0;
#X connect 74 0 59 0;
#X connect 75 0 62 0;
#X connect 75 0 65 0;
#X connect 75 0 68 0;
#X connect 75 0 81 0;
#X connect 75 0 77 0;
#X connect 75 0 111 0;
#X connect 75 0 49 0;
#X connect 75 0 53 0;
#X connect 75 0 170 0;
#X connect 75 0 221 0;
#X connect 75 0 35 0;
#X connect 75 0 31 0;
#X connect 76 0 71 0;
#X connect 77 0 122 0;
#X connect 78 0 122 0;
#X connect 79 0 122 0;
#X connect 80 0 122 0;
#X connect 81 0 580 0;
#X connect 82 0 580 0;
#X connect 83 0 580 0;
#X connect 84 0 580 0;
#X connect 85 0 277 0;
#X connect 86 0 46 1;
#X connect 87 0 46 3;
#X connect 88 0 46 2;
#X connect 89 0 138 0;
#X connect 91 0 8 0;
#X connect 92 0 156 1;
#X connect 93 0 46 0;
#X connect 94 0 93 1;
#X connect 95 0 93 2;
#X connect 96 0 93 4;
#X connect 97 0 93 3;
#X connect 98 0 94 0;
#X connect 98 0 96 0;
#X connect 100 0 20 0;
#X connect 101 0 39 0;
#X connect 102 0 41 0;
#X connect 102 0 584 0;
#X connect 103 0 137 0;
#X connect 103 0 142 0;
#X connect 103 0 243 0;
#X connect 104 0 42 0;
#X connect 105 0 43 0;
#X connect 105 0 583 0;
#X connect 106 0 63 0;
#X connect 106 0 66 0;
#X connect 106 0 69 0;
#X connect 106 0 82 0;
#X connect 106 0 112 0;
#X connect 106 0 78 0;
#X connect 106 0 36 0;
#X connect 106 0 32 0;
#X connect 106 0 50 0;
#X connect 106 0 54 0;
#X connect 106 0 171 0;
#X connect 106 0 222 0;
#X connect 107 0 108 0;
#X connect 108 0 195 0;
#X connect 108 0 579 0;
#X connect 109 0 110 0;
#X connect 110 0 204 0;
#X connect 111 0 114 0;
#X connect 112 0 114 0;
#X connect 113 0 114 0;
#X connect 114 0 102 0;
#X connect 115 0 114 0;
#X connect 116 0 70 1;
#X connect 117 0 78 1;
#X connect 118 0 79 1;
#X connect 119 0 80 1;
#X connect 120 0 77 1;
#X connect 121 0 101 0;
#X connect 121 0 104 0;
#X connect 121 0 204 0;
#X connect 121 0 208 0;
#X connect 121 0 229 0;
#X connect 122 0 248 0;
#X connect 123 0 57 0;
#X connect 124 0 105 0;
#X connect 125 0 104 0;
#X connect 126 0 64 0;
#X connect 126 0 67 0;
#X connect 126 0 70 0;
#X connect 126 0 83 0;
#X connect 126 0 113 0;
#X connect 126 0 79 0;
#X connect 126 0 37 0;
#X connect 126 0 33 0;
#X connect 126 0 51 0;
#X connect 126 0 55 0;
#X connect 126 0 172 0;
#X connect 126 0 223 0;
#X connect 127 0 28 0;
#X connect 127 0 591 0;
#X connect 128 0 40 0;
#X connect 129 0 128 0;
#X connect 130 0 127 0;
#X connect 131 0 127 0;
#X connect 132 0 131 0;
#X connect 133 0 130 0;
#X connect 134 0 102 0;
#X connect 138 0 30 0;
#X connect 142 0 148 0;
#X connect 142 0 146 1;
#X connect 142 0 243 0;
#X connect 145 0 147 0;
#X connect 146 0 233 0;
#X connect 147 0 146 0;
#X connect 148 0 153 0;
#X connect 149 0 148 1;
#X connect 150 0 152 0;
#X connect 150 0 209 0;
#X connect 151 0 152 0;
#X connect 151 0 150 0;
#X connect 152 0 153 0;
#X connect 152 1 153 1;
#X connect 153 0 233 0;
#X connect 154 0 268 0;
#X connect 155 0 151 0;
#X connect 156 0 158 0;
#X connect 157 0 9 0;
#X connect 157 0 266 0;
#X connect 158 0 275 0;
#X connect 159 0 9 0;
#X connect 160 0 112 1;
#X connect 161 0 113 1;
#X connect 162 0 115 1;
#X connect 163 0 111 1;
#X connect 165 0 158 1;
#X connect 167 0 171 1;
#X connect 168 0 170 1;
#X connect 169 0 173 1;
#X connect 170 0 572 0;
#X connect 171 0 572 0;
#X connect 172 0 572 0;
#X connect 173 0 572 0;
#X connect 174 0 63 1;
#X connect 175 0 64 1;
#X connect 176 0 73 1;
#X connect 177 0 62 1;
#X connect 178 0 66 1;
#X connect 179 0 67 1;
#X connect 180 0 72 1;
#X connect 181 0 65 1;
#X connect 182 0 69 1;
#X connect 183 0 68 1;
#X connect 184 0 76 1;
#X connect 186 0 36 1;
#X connect 187 0 37 1;
#X connect 188 0 61 1;
#X connect 189 0 35 1;
#X connect 190 0 32 1;
#X connect 191 0 33 1;
#X connect 192 0 59 1;
#X connect 193 0 31 1;
#X connect 194 0 16 0;
#X connect 195 0 11 0;
#X connect 196 0 50 1;
#X connect 197 0 51 1;
#X connect 198 0 58 1;
#X connect 199 0 49 1;
#X connect 200 0 54 1;
#X connect 201 0 55 1;
#X connect 202 0 60 1;
#X connect 203 0 53 1;
#X connect 204 0 25 0;
#X connect 205 0 2 0;
#X connect 207 0 24 1;
#X connect 208 0 45 1;
#X connect 209 0 149 0;
#X connect 210 0 86 0;
#X connect 210 0 88 0;
#X connect 210 0 87 0;
#X connect 210 0 85 0;
#X connect 210 0 232 0;
#X connect 210 0 231 0;
#X connect 210 0 230 0;
#X connect 211 0 138 0;
#X connect 211 0 48 1;
#X connect 211 0 215 0;
#X connect 211 0 555 0;
#X connect 212 0 47 1;
#X connect 212 0 138 0;
#X connect 212 0 216 0;
#X connect 212 0 555 0;
#X connect 213 0 131 1;
#X connect 214 0 130 1;
#X connect 215 0 128 1;
#X connect 216 0 57 1;
#X connect 217 0 82 1;
#X connect 218 0 83 1;
#X connect 219 0 84 1;
#X connect 220 0 81 1;
#X connect 221 0 229 0;
#X connect 222 0 229 0;
#X connect 223 0 229 0;
#X connect 224 0 229 0;
#X connect 225 0 222 1;
#X connect 226 0 223 1;
#X connect 227 0 224 1;
#X connect 228 0 221 1;
#X connect 229 0 246 0;
#X connect 230 0 238 0;
#X connect 231 0 237 0;
#X connect 232 0 236 0;
#X connect 234 0 235 0;
#X connect 241 0 242 0;
#X connect 245 0 156 0;
#X connect 246 0 247 0;
#X connect 247 0 272 0;
#X connect 248 0 249 0;
#X connect 249 0 273 0;
#X connect 250 0 241 1;
#X connect 251 0 250 0;
#X connect 251 0 563 1;
#X connect 251 0 565 0;
#X connect 252 0 154 0;
#X connect 259 0 172 1;
#X connect 262 0 229 0;
#X connect 263 0 122 0;
#X connect 265 0 235 0;
#X connect 267 0 266 0;
#X connect 268 0 276 0;
#X connect 269 0 263 0;
#X connect 270 0 144 0;
#X connect 272 0 165 0;
#X connect 273 0 244 0;
#X connect 274 0 251 0;
#X connect 275 0 93 0;
#X connect 276 0 277 0;
#X connect 276 1 277 1;
#X connect 277 0 275 1;
#X connect 278 0 279 0;
#X connect 279 0 234 0;
#X connect 280 0 289 1;
#X connect 281 0 280 0;
#X connect 282 0 281 0;
#X connect 282 1 281 1;
#X connect 283 0 288 1;
#X connect 284 0 285 0;
#X connect 284 1 285 1;
#X connect 285 0 283 0;
#X connect 286 0 404 0;
#X connect 286 0 548 0;
#X connect 286 0 553 0;
#X connect 287 0 370 0;
#X connect 288 0 371 0;
#X connect 288 0 546 0;
#X connect 289 0 371 0;
#X connect 289 0 545 0;
#X connect 290 0 307 0;
#X connect 291 0 290 0;
#X connect 291 1 290 1;
#X connect 293 0 432 0;
#X connect 294 0 293 1;
#X connect 295 0 294 0;
#X connect 296 0 295 0;
#X connect 296 1 295 1;
#X connect 297 0 298 0;
#X connect 297 0 302 0;
#X connect 298 0 309 0;
#X connect 299 0 325 0;
#X connect 300 0 310 1;
#X connect 300 0 285 0;
#X connect 300 0 290 0;
#X connect 300 0 281 0;
#X connect 300 0 295 0;
#X connect 300 0 601 1;
#X connect 301 0 304 0;
#X connect 302 0 303 0;
#X connect 303 0 301 0;
#X connect 304 0 381 0;
#X connect 305 0 306 0;
#X connect 306 0 284 0;
#X connect 307 0 287 1;
#X connect 308 0 287 0;
#X connect 308 0 293 0;
#X connect 308 0 297 0;
#X connect 309 0 299 0;
#X connect 310 0 286 0;
#X connect 311 0 314 0;
#X connect 312 0 314 0;
#X connect 313 0 314 0;
#X connect 314 0 386 0;
#X connect 315 0 318 0;
#X connect 316 0 318 0;
#X connect 317 0 318 0;
#X connect 318 0 466 0;
#X connect 319 0 321 0;
#X connect 319 1 321 1;
#X connect 320 0 427 0;
#X connect 321 0 379 0;
#X connect 322 0 323 0;
#X connect 322 1 323 1;
#X connect 323 0 382 0;
#X connect 324 0 399 0;
#X connect 324 0 411 0;
#X connect 324 0 467 0;
#X connect 324 0 529 0;
#X connect 324 0 534 0;
#X connect 324 0 377 0;
#X connect 324 0 482 0;
#X connect 324 0 530 0;
#X connect 325 0 384 0;
#X connect 326 0 292 1;
#X connect 326 0 292 0;
#X connect 326 0 540 0;
#X connect 327 0 381 0;
#X connect 328 0 381 0;
#X connect 329 0 332 0;
#X connect 330 0 332 0;
#X connect 331 0 332 0;
#X connect 332 0 477 0;
#X connect 333 0 336 0;
#X connect 334 0 336 0;
#X connect 335 0 336 0;
#X connect 336 0 388 0;
#X connect 337 0 320 0;
#X connect 338 0 332 0;
#X connect 339 0 314 0;
#X connect 340 0 336 0;
#X connect 341 0 318 0;
#X connect 342 0 402 0;
#X connect 343 0 402 0;
#X connect 344 0 402 0;
#X connect 345 0 581 0;
#X connect 346 0 581 0;
#X connect 347 0 581 0;
#X connect 348 0 351 0;
#X connect 349 0 351 0;
#X connect 350 0 351 0;
#X connect 351 0 373 0;
#X connect 352 0 581 0;
#X connect 353 0 402 0;
#X connect 354 0 353 0;
#X connect 354 0 352 0;
#X connect 354 0 356 0;
#X connect 354 0 364 0;
#X connect 354 0 360 0;
#X connect 354 0 394 0;
#X connect 354 0 338 0;
#X connect 354 0 340 0;
#X connect 354 0 445 0;
#X connect 354 0 496 0;
#X connect 354 0 339 0;
#X connect 354 0 341 0;
#X connect 355 0 342 0;
#X connect 355 0 345 0;
#X connect 355 0 348 0;
#X connect 355 0 361 0;
#X connect 355 0 357 0;
#X connect 355 0 390 0;
#X connect 355 0 329 0;
#X connect 355 0 333 0;
#X connect 355 0 442 0;
#X connect 355 0 493 0;
#X connect 355 0 311 0;
#X connect 355 0 315 0;
#X connect 356 0 351 0;
#X connect 357 0 400 0;
#X connect 358 0 400 0;
#X connect 359 0 400 0;
#X connect 360 0 400 0;
#X connect 361 0 582 0;
#X connect 362 0 582 0;
#X connect 363 0 582 0;
#X connect 364 0 582 0;
#X connect 365 0 537 0;
#X connect 366 0 326 1;
#X connect 367 0 326 3;
#X connect 368 0 326 2;
#X connect 369 0 412 0;
#X connect 370 0 288 0;
#X connect 371 0 429 1;
#X connect 372 0 326 0;
#X connect 373 0 372 1;
#X connect 374 0 372 2;
#X connect 375 0 372 4;
#X connect 376 0 372 3;
#X connect 377 0 373 0;
#X connect 377 0 375 0;
#X connect 379 0 300 0;
#X connect 380 0 319 0;
#X connect 381 0 321 0;
#X connect 381 0 586 0;
#X connect 382 0 415 0;
#X connect 382 0 542 0;
#X connect 382 0 543 0;
#X connect 383 0 322 0;
#X connect 384 0 323 0;
#X connect 384 0 585 0;
#X connect 385 0 343 0;
#X connect 385 0 346 0;
#X connect 385 0 349 0;
#X connect 385 0 362 0;
#X connect 385 0 391 0;
#X connect 385 0 358 0;
#X connect 385 0 316 0;
#X connect 385 0 312 0;
#X connect 385 0 330 0;
#X connect 385 0 334 0;
#X connect 385 0 443 0;
#X connect 385 0 494 0;
#X connect 386 0 387 0;
#X connect 387 0 467 0;
#X connect 388 0 389 0;
#X connect 389 0 476 0;
#X connect 390 0 393 0;
#X connect 391 0 393 0;
#X connect 392 0 393 0;
#X connect 393 0 381 0;
#X connect 394 0 393 0;
#X connect 395 0 358 1;
#X connect 396 0 359 1;
#X connect 397 0 360 1;
#X connect 398 0 357 1;
#X connect 399 0 380 0;
#X connect 399 0 383 0;
#X connect 399 0 476 0;
#X connect 399 0 480 0;
#X connect 399 0 501 0;
#X connect 400 0 510 0;
#X connect 401 0 337 0;
#X connect 402 0 384 0;
#X connect 403 0 344 0;
#X connect 403 0 347 0;
#X connect 403 0 350 0;
#X connect 403 0 363 0;
#X connect 403 0 392 0;
#X connect 403 0 359 0;
#X connect 403 0 317 0;
#X connect 403 0 313 0;
#X connect 403 0 331 0;
#X connect 403 0 335 0;
#X connect 403 0 444 0;
#X connect 403 0 495 0;
#X connect 404 0 308 0;
#X connect 404 0 598 0;
#X connect 405 0 320 0;
#X connect 406 0 405 0;
#X connect 407 0 404 0;
#X connect 408 0 404 0;
#X connect 409 0 408 0;
#X connect 410 0 407 0;
#X connect 411 0 381 0;
#X connect 412 0 310 0;
#X connect 415 0 421 0;
#X connect 415 0 419 1;
#X connect 415 0 542 0;
#X connect 418 0 420 0;
#X connect 419 0 505 0;
#X connect 420 0 419 0;
#X connect 421 0 426 0;
#X connect 422 0 421 1;
#X connect 423 0 425 0;
#X connect 423 0 481 0;
#X connect 424 0 425 0;
#X connect 424 0 423 0;
#X connect 425 0 426 0;
#X connect 425 1 426 1;
#X connect 426 0 505 0;
#X connect 427 0 528 0;
#X connect 428 0 424 0;
#X connect 429 0 431 0;
#X connect 430 0 289 0;
#X connect 430 0 526 0;
#X connect 431 0 535 0;
#X connect 431 0 241 0;
#X connect 431 0 563 0;
#X connect 432 0 289 0;
#X connect 433 0 391 1;
#X connect 434 0 392 1;
#X connect 435 0 394 1;
#X connect 436 0 390 1;
#X connect 438 0 431 1;
#X connect 439 0 443 1;
#X connect 440 0 442 1;
#X connect 441 0 445 1;
#X connect 442 0 571 0;
#X connect 443 0 571 0;
#X connect 444 0 571 0;
#X connect 445 0 571 0;
#X connect 446 0 343 1;
#X connect 447 0 344 1;
#X connect 448 0 353 1;
#X connect 449 0 342 1;
#X connect 450 0 346 1;
#X connect 451 0 347 1;
#X connect 452 0 352 1;
#X connect 453 0 345 1;
#X connect 454 0 349 1;
#X connect 455 0 348 1;
#X connect 456 0 356 1;
#X connect 458 0 316 1;
#X connect 459 0 317 1;
#X connect 460 0 341 1;
#X connect 461 0 315 1;
#X connect 462 0 312 1;
#X connect 463 0 313 1;
#X connect 464 0 339 1;
#X connect 465 0 311 1;
#X connect 466 0 296 0;
#X connect 467 0 291 0;
#X connect 468 0 330 1;
#X connect 469 0 331 1;
#X connect 470 0 338 1;
#X connect 471 0 329 1;
#X connect 472 0 334 1;
#X connect 473 0 335 1;
#X connect 474 0 340 1;
#X connect 475 0 333 1;
#X connect 476 0 305 0;
#X connect 477 0 282 0;
#X connect 479 0 304 1;
#X connect 480 0 325 1;
#X connect 481 0 422 0;
#X connect 482 0 366 0;
#X connect 482 0 368 0;
#X connect 482 0 367 0;
#X connect 482 0 504 0;
#X connect 482 0 503 0;
#X connect 482 0 502 0;
#X connect 483 0 412 0;
#X connect 483 0 328 1;
#X connect 483 0 487 0;
#X connect 484 0 327 1;
#X connect 484 0 412 0;
#X connect 484 0 488 0;
#X connect 484 0 557 0;
#X connect 485 0 408 1;
#X connect 486 0 407 1;
#X connect 487 0 405 1;
#X connect 487 0 557 0;
#X connect 488 0 337 1;
#X connect 489 0 362 1;
#X connect 490 0 363 1;
#X connect 491 0 364 1;
#X connect 492 0 361 1;
#X connect 493 0 501 0;
#X connect 494 0 501 0;
#X connect 495 0 501 0;
#X connect 496 0 501 0;
#X connect 497 0 494 1;
#X connect 498 0 495 1;
#X connect 499 0 496 1;
#X connect 500 0 493 1;
#X connect 501 0 508 0;
#X connect 502 0 562 0;
#X connect 503 0 561 0;
#X connect 504 0 560 0;
#X connect 506 0 549 0;
#X connect 508 0 509 0;
#X connect 509 0 532 0;
#X connect 510 0 511 0;
#X connect 511 0 533 0;
#X connect 512 0 427 0;
#X connect 519 0 444 1;
#X connect 522 0 501 0;
#X connect 523 0 400 0;
#X connect 525 0 549 0;
#X connect 527 0 526 0;
#X connect 528 0 536 0;
#X connect 529 0 523 0;
#X connect 530 0 417 0;
#X connect 532 0 438 0;
#X connect 533 0 541 0;
#X connect 535 0 372 0;
#X connect 536 0 537 0;
#X connect 536 1 537 1;
#X connect 537 0 535 1;
#X connect 538 0 539 0;
#X connect 539 0 506 0;
#X connect 551 0 548 0;
#X connect 552 0 547 0;
#X connect 554 0 429 0;
#X connect 555 0 556 0;
#X connect 556 0 154 0;
#X connect 557 0 558 0;
#X connect 558 0 427 0;
#X connect 563 0 548 0;
#X connect 565 0 568 0;
#X connect 566 0 569 0;
#X connect 567 0 566 0;
#X connect 568 0 567 0;
#X connect 569 0 574 0;
#X connect 571 0 423 0;
#X connect 572 0 150 0;
#X connect 573 0 350 1;
#X connect 575 0 47 0;
#X connect 576 0 48 0;
#X connect 577 0 327 0;
#X connect 578 0 328 0;
#X connect 580 0 101 0;
#X connect 581 0 383 0;
#X connect 582 0 380 0;
#X connect 583 0 22 0;
#X connect 583 1 22 1;
#X connect 584 0 18 0;
#X connect 584 1 18 1;
#X connect 585 0 302 0;
#X connect 585 1 302 1;
#X connect 586 0 298 0;
#X connect 586 1 298 1;
#X connect 591 0 594 0;
#X connect 592 0 605 0;
#X connect 593 0 592 0;
#X connect 594 0 595 0;
#X connect 595 0 593 0;
#X connect 596 0 591 1;
#X connect 598 0 601 0;
#X connect 599 0 604 0;
#X connect 600 0 599 0;
#X connect 601 0 602 0;
#X connect 602 0 600 0;
#X connect 603 0 598 1;
#X coords 0 -1 1 1 487 430 1 50 5;
