#N canvas 310 344 841 684 12;
#X floatatom 1135 79 5 0 0 0 - - -;
#X obj 1135 160 pack f f;
#X floatatom 1188 141 5 0 0 0 - - -;
#X obj 1141 252 line~;
#X obj 1075 254 noise~;
#X obj 1122 309 vcf~;
#X floatatom 1163 284 5 0 0 0 - - -;
#X floatatom 1139 224 5 0 0 0 - - -;
#X obj 1139 195 line;
#X floatatom 947 73 5 0 0 0 - - -;
#X obj 947 154 pack f f;
#X floatatom 1000 135 5 0 0 0 - - -;
#X obj 944 248 line~;
#X obj 945 309 phasor~;
#X floatatom 946 224 5 0 0 0 - - -;
#X obj 946 195 line;
#X floatatom 714 92 5 0 0 0 - - -;
#X obj 716 155 pack f f;
#X floatatom 769 136 5 0 0 0 - - -;
#X obj 710 245 line~;
#X obj 711 398 expr~ $v1 > $v2;
#X obj 825 333 pack f 50;
#X obj 825 355 line~;
#X floatatom 825 314 5 0 0 0 - - -;
#X obj 825 292 r \$0-pwm;
#X floatatom 715 216 5 0 0 0 - - -;
#X obj 715 187 line;
#X floatatom 503 146 5 0 0 0 - - -;
#X obj 503 201 pack f f;
#X floatatom 556 182 5 0 0 0 - - -;
#X obj 503 284 line~;
#N canvas 406 87 501 366 make-triangle 0;
#X obj 52 20 inlet~;
#X obj 341 42 inlet phase;
#X obj 51 126 phasor~;
#X obj 295 125 phasor~;
#X obj 49 174 -~ 1;
#X obj 49 201 clip~ -1 0;
#X obj 50 148 *~ 2;
#X obj 295 147 *~ -2;
#X obj 294 170 +~ 1;
#X obj 294 195 clip~ -1 0;
#X obj 48 225 *~ 2;
#X obj 294 218 *~ 2;
#X obj 181 307 +~;
#X obj 181 329 outlet~;
#X obj 294 240 +~ 0.5;
#X obj 48 247 +~ 0.5;
#X connect 0 0 2 0;
#X connect 0 0 3 0;
#X connect 1 0 3 1;
#X connect 1 0 2 1;
#X connect 2 0 6 0;
#X connect 3 0 7 0;
#X connect 4 0 5 0;
#X connect 5 0 10 0;
#X connect 6 0 4 0;
#X connect 7 0 8 0;
#X connect 8 0 9 0;
#X connect 9 0 11 0;
#X connect 10 0 15 0;
#X connect 11 0 14 0;
#X connect 12 0 13 0;
#X connect 14 0 12 1;
#X connect 15 0 12 0;
#X restore 512 313 pd make-triangle;
#X floatatom 504 255 5 0 0 0 - - -;
#X obj 504 226 line;
#X obj 318 342 osc~;
#X floatatom 320 127 5 0 0 0 - - -;
#X obj 320 208 pack f f;
#X floatatom 381 173 5 0 0 0 - - -;
#X obj 317 304 line~;
#X floatatom 320 273 5 0 0 0 - - -;
#X obj 320 237 line;
#X text 774 67 pulse;
#X text 1020 65 saw;
#X text 1220 62 noise;
#X text 355 68 sine;
#X text 539 60 triangle;
#X floatatom 406 304 5 0 0 0 - - -;
#X floatatom 761 275 5 0 0 0 - - -;
#X obj 713 310 phasor~;
#X obj 860 552 spigot~;
#X obj 921 539 tgl 15 0 empty 5B empty 17 7 0 10 -262144 -1 -1 0 1
;
#X obj 885 495 hsl 64 15 20 3000 0 0 empty empty empty -2 -8 0 10 -262144
-1 -1 0 0;
#X floatatom 882 515 5 0 0 0 - - -;
#X text 949 537 on/off;
#X text 962 493 fade;
#X obj 861 457 spigot~;
#X obj 927 444 tgl 15 0 empty 4B empty 17 7 0 10 -262144 -1 -1 0 1
;
#X text 950 442 on/off;
#X obj 702 465 spigot~;
#X obj 763 452 tgl 15 0 empty 3B empty 17 7 0 10 -262144 -1 -1 0 1
;
#X text 791 450 on/off;
#X obj 570 458 spigot~;
#X obj 631 445 tgl 15 0 empty 2B empty 17 7 0 10 -262144 -1 -1 0 1
;
#X text 659 443 on/off;
#X obj 379 471 spigot~;
#X obj 440 458 tgl 15 0 empty 1B empty 17 7 0 10 -262144 -1 -1 1 1
;
#X text 468 456 on/off;
#X obj 988 278 vcf~;
#X obj 720 279 vcf~;
#X floatatom 761 254 5 0 0 0 - - -;
#X obj 585 285 vcf~;
#X floatatom 626 260 5 0 0 0 - - -;
#X obj 379 280 vcf~;
#X floatatom 420 255 5 0 0 0 - - -;
#X obj 320 105 r freq2;
#X obj 494 102 r freq2;
#X obj 716 52 r freq2;
#X obj 948 49 r freq2;
#X obj 1135 57 r freq2;
#X obj 1188 119 r glideD;
#X obj 1000 113 r glideD;
#X obj 769 114 r glideD;
#X obj 556 159 r glideD;
#X obj 381 151 r glideD;
#X obj 925 589 s~ CWFD;
#X obj 604 613 *~ 1;
#X connect 0 0 1 0;
#X connect 1 0 8 0;
#X connect 2 0 1 1;
#X connect 3 0 5 1;
#X connect 4 0 5 0;
#X connect 5 0 49 0;
#X connect 6 0 5 2;
#X connect 7 0 3 0;
#X connect 8 0 7 0;
#X connect 9 0 10 0;
#X connect 10 0 15 0;
#X connect 11 0 10 1;
#X connect 12 0 13 0;
#X connect 13 0 55 0;
#X connect 14 0 12 0;
#X connect 15 0 14 0;
#X connect 16 0 17 0;
#X connect 17 0 26 0;
#X connect 18 0 17 1;
#X connect 19 0 48 0;
#X connect 20 0 58 0;
#X connect 21 0 22 0;
#X connect 22 0 20 1;
#X connect 23 0 21 0;
#X connect 24 0 23 0;
#X connect 25 0 19 0;
#X connect 26 0 25 0;
#X connect 27 0 28 0;
#X connect 28 0 33 0;
#X connect 29 0 28 1;
#X connect 30 0 31 0;
#X connect 31 0 61 0;
#X connect 32 0 30 0;
#X connect 33 0 32 0;
#X connect 34 0 64 0;
#X connect 35 0 36 0;
#X connect 36 0 40 0;
#X connect 37 0 36 1;
#X connect 38 0 34 0;
#X connect 39 0 38 0;
#X connect 40 0 39 0;
#X connect 46 0 34 1;
#X connect 47 0 48 1;
#X connect 48 0 20 0;
#X connect 49 0 85 0;
#X connect 50 0 49 2;
#X connect 51 0 52 0;
#X connect 52 0 49 1;
#X connect 55 0 85 0;
#X connect 56 0 55 2;
#X connect 58 0 85 0;
#X connect 59 0 58 2;
#X connect 61 0 85 0;
#X connect 62 0 61 2;
#X connect 64 0 85 0;
#X connect 65 0 64 2;
#X connect 69 0 68 2;
#X connect 71 0 70 2;
#X connect 73 0 72 2;
#X connect 74 0 35 0;
#X connect 75 0 27 0;
#X connect 76 0 16 0;
#X connect 77 0 9 0;
#X connect 78 0 0 0;
#X connect 79 0 2 0;
#X connect 80 0 11 0;
#X connect 81 0 18 0;
#X connect 82 0 29 0;
#X connect 83 0 37 0;
#X connect 85 0 84 0;
