#N canvas 588 435 998 593 12;
#N canvas 564 60 1116 633 sine 0;
#X floatatom 603 58 5 0 0 0 - - -;
#X obj 603 80 sel 0;
#X obj 79 269 osc~;
#X floatatom 81 54 5 0 0 0 - - -;
#X obj 318 276 osc~;
#X obj 79 418 *~;
#X obj 332 437 *~;
#X obj 510 190 f;
#X msg 945 214 0;
#X obj 945 192 t b;
#X obj 362 360 pack f 50;
#X obj 358 395 line~;
#X obj 98 371 pack f 50;
#X obj 122 400 line~;
#X obj 81 135 pack f f;
#X floatatom 142 100 5 0 0 0 - - -;
#X obj 78 231 line~;
#X floatatom 320 54 12 0 0 0 - - -;
#X obj 320 136 pack f f;
#X floatatom 373 117 5 0 0 0 - - -;
#X obj 317 232 line~;
#X obj 81 535 +~;
#X obj 83 607 outlet~;
#X floatatom 621 159 5 0 0 0 - - -;
#X obj 621 178 t b f;
#X obj 141 308 swap 1;
#X obj 141 336 -;
#X obj 603 104 t b b b;
#X obj 363 329 spigot;
#X msg 716 208 1;
#X obj 141 285 spigot;
#X msg 794 209 0;
#X obj 794 184 r \$0-reset-send;
#X obj 253 607 s~ wave0;
#X obj 105 503 dj-eq;
#X obj 116 458 r M2;
#X obj 178 458 r H2;
#X obj 54 456 r L2;
#X obj 5 413 r~ Dadd;
#X obj 603 36 r wave-send;
#X obj 81 32 r freq1;
#X floatatom 438 456 5 0 0 0 - - -;
#X obj 323 529 *~;
#X obj 455 532 r phase2;
#X obj 322 23 r freq2;
#X floatatom 443 489 5 0 0 0 - - -;
#X obj 588 530 dac~;
#X obj 621 137 r balanceC;
#X obj 142 78 r glideC;
#X obj 373 95 r \$0-glideC;
#X floatatom 81 200 5 0 0 0 - - -;
#X obj 81 171 line;
#X floatatom 320 190 5 0 0 0 - - -;
#X obj 320 161 line;
#X connect 0 0 1 0;
#X connect 1 0 27 0;
#X connect 1 1 9 0;
#X connect 2 0 5 0;
#X connect 3 0 14 0;
#X connect 4 0 6 0;
#X connect 5 0 21 0;
#X connect 6 0 42 0;
#X connect 7 0 28 0;
#X connect 7 0 30 0;
#X connect 8 0 10 0;
#X connect 8 0 28 1;
#X connect 8 0 30 1;
#X connect 8 0 12 0;
#X connect 9 0 8 0;
#X connect 10 0 11 0;
#X connect 11 0 6 1;
#X connect 12 0 13 0;
#X connect 13 0 5 1;
#X connect 14 0 51 0;
#X connect 15 0 14 1;
#X connect 16 0 2 0;
#X connect 17 0 18 0;
#X connect 18 0 53 0;
#X connect 19 0 18 1;
#X connect 20 0 4 0;
#X connect 21 0 22 0;
#X connect 21 0 33 0;
#X connect 23 0 24 0;
#X connect 24 0 7 0;
#X connect 24 1 7 1;
#X connect 25 0 26 0;
#X connect 25 1 26 1;
#X connect 26 0 12 0;
#X connect 27 0 7 0;
#X connect 27 1 29 0;
#X connect 27 2 31 0;
#X connect 28 0 10 0;
#X connect 29 0 28 1;
#X connect 29 0 30 1;
#X connect 30 0 25 0;
#X connect 31 0 4 1;
#X connect 31 0 2 1;
#X connect 32 0 31 0;
#X connect 34 0 21 1;
#X connect 35 0 34 2;
#X connect 36 0 34 3;
#X connect 37 0 34 1;
#X connect 38 0 34 0;
#X connect 39 0 0 0;
#X connect 40 0 3 0;
#X connect 41 0 34 2;
#X connect 41 0 34 1;
#X connect 42 0 34 0;
#X connect 43 0 42 1;
#X connect 44 0 17 0;
#X connect 45 0 42 1;
#X connect 47 0 23 0;
#X connect 48 0 15 0;
#X connect 49 0 19 0;
#X connect 50 0 16 0;
#X connect 51 0 50 0;
#X connect 52 0 20 0;
#X connect 53 0 52 0;
#X restore 70 37 pd sine;
#X obj 85 118 +~;
#N canvas 129 423 1116 554 triangle 0;
#X floatatom 603 58 5 0 0 0 - - -;
#X floatatom 81 80 5 0 0 0 - - -;
#X obj 79 434 *~;
#X obj 319 434 *~;
#X obj 601 218 f;
#X msg 789 136 0;
#X obj 98 344 swap 1;
#X obj 98 366 -;
#X msg 984 134 0;
#X obj 984 112 t b;
#X obj 342 375 pack f 50;
#X obj 341 402 line~;
#X obj 98 387 pack f 50;
#X obj 98 409 line~;
#X obj 81 135 pack f f;
#X floatatom 134 116 5 0 0 0 - - -;
#X obj 81 218 line~;
#X floatatom 320 55 5 0 0 0 - - -;
#X obj 320 136 pack f f;
#X floatatom 401 99 5 0 0 0 - - -;
#X obj 322 221 line~;
#X obj 78 513 +~;
#X obj 603 80 sel 1;
#N canvas 406 87 501 366 make-triangle 0;
#X obj 52 20 inlet~;
#X obj 341 42 inlet phase;
#X obj 51 126 phasor~;
#X obj 295 125 phasor~;
#X obj 49 174 -~ 1;
#X obj 49 201 clip~ -1 0;
#X obj 50 148 *~ 2;
#X obj 295 147 *~ -2;
#X obj 294 170 +~ 1;
#X obj 294 195 clip~ -1 0;
#X obj 48 225 *~ 2;
#X obj 294 218 *~ 2;
#X obj 181 307 +~;
#X obj 181 329 outlet~;
#X obj 294 240 +~ 0.5;
#X obj 48 247 +~ 0.5;
#X connect 0 0 2 0;
#X connect 0 0 3 0;
#X connect 1 0 3 1;
#X connect 1 0 2 1;
#X connect 2 0 6 0;
#X connect 3 0 7 0;
#X connect 4 0 5 0;
#X connect 5 0 10 0;
#X connect 6 0 4 0;
#X connect 7 0 8 0;
#X connect 8 0 9 0;
#X connect 9 0 11 0;
#X connect 10 0 15 0;
#X connect 11 0 14 0;
#X connect 12 0 13 0;
#X connect 14 0 12 1;
#X connect 15 0 12 0;
#X restore 81 265 pd make-triangle;
#N canvas 270 393 444 366 make-triangle 0;
#X obj 52 20 inlet~;
#X obj 341 34 inlet phase;
#X obj 51 126 phasor~;
#X obj 295 125 phasor~;
#X obj 49 174 -~ 1;
#X obj 49 201 clip~ -1 0;
#X obj 50 148 *~ 2;
#X obj 295 147 *~ -2;
#X obj 294 170 +~ 1;
#X obj 294 195 clip~ -1 0;
#X obj 48 225 *~ 2;
#X obj 294 218 *~ 2;
#X obj 181 307 +~;
#X obj 181 329 outlet~;
#X obj 294 240 +~ 0.5;
#X obj 48 247 +~ 0.5;
#X connect 0 0 2 0;
#X connect 0 0 3 0;
#X connect 1 0 3 1;
#X connect 1 0 2 1;
#X connect 2 0 6 0;
#X connect 3 0 7 0;
#X connect 4 0 5 0;
#X connect 5 0 10 0;
#X connect 6 0 4 0;
#X connect 7 0 8 0;
#X connect 8 0 9 0;
#X connect 9 0 11 0;
#X connect 10 0 15 0;
#X connect 11 0 14 0;
#X connect 12 0 13 0;
#X connect 14 0 12 1;
#X connect 15 0 12 0;
#X restore 318 262 pd make-triangle;
#X floatatom 621 159 5 0 0 0 - - -;
#X obj 621 178 t b f;
#X obj 603 104 t b b b;
#X obj 98 322 spigot;
#X msg 912 134 1;
#X obj 343 346 spigot;
#X obj 789 108 r \$0-reset-send;
#X floatatom -320 403 5 0 0 0 - - -;
#X text -665 518 The binary signal operators can be configured to combine
two signals as above \, or \, if you give a numeric argument \, audio
signals are combined with scalars:;
#X obj 186 492 dj-eq;
#X obj 211 455 r M2;
#X obj 273 455 r H2;
#X obj 149 453 r L2;
#X obj 83 607 outlet~;
#X obj 253 607 s~ wave0;
#X obj 318 479 *~;
#X obj 118 487 r~ Dadd;
#X obj 603 36 r wave-send;
#X obj 74 29 r freq1;
#X obj 320 33 r freq2;
#X obj 356 452 r phase2;
#X obj 622 135 r balanceC;
#X obj 401 77 r glideC;
#X obj 134 93 r glideC;
#X floatatom 82 189 5 0 0 0 - - -;
#X obj 82 160 line;
#X floatatom 321 190 5 0 0 0 - - -;
#X obj 321 161 line;
#X connect 0 0 22 0;
#X connect 1 0 14 0;
#X connect 2 0 21 0;
#X connect 3 0 40 0;
#X connect 4 0 30 0;
#X connect 4 0 28 0;
#X connect 5 0 23 1;
#X connect 5 0 24 1;
#X connect 6 0 7 0;
#X connect 6 1 7 1;
#X connect 7 0 12 0;
#X connect 8 0 10 0;
#X connect 8 0 28 1;
#X connect 8 0 30 1;
#X connect 8 0 12 0;
#X connect 9 0 8 0;
#X connect 10 0 11 0;
#X connect 11 0 3 1;
#X connect 12 0 13 0;
#X connect 13 0 2 1;
#X connect 14 0 50 0;
#X connect 15 0 14 1;
#X connect 16 0 23 0;
#X connect 17 0 18 0;
#X connect 18 0 52 0;
#X connect 19 0 18 1;
#X connect 20 0 24 0;
#X connect 21 0 38 0;
#X connect 21 0 39 0;
#X connect 22 0 27 0;
#X connect 22 1 9 0;
#X connect 23 0 2 0;
#X connect 24 0 3 0;
#X connect 25 0 26 0;
#X connect 26 0 4 0;
#X connect 26 1 4 1;
#X connect 27 0 4 0;
#X connect 27 1 5 0;
#X connect 27 2 29 0;
#X connect 28 0 6 0;
#X connect 29 0 30 1;
#X connect 29 0 28 1;
#X connect 30 0 10 0;
#X connect 31 0 5 0;
#X connect 32 0 21 1;
#X connect 34 0 21 1;
#X connect 35 0 34 2;
#X connect 36 0 34 3;
#X connect 37 0 34 1;
#X connect 40 0 34 0;
#X connect 41 0 34 0;
#X connect 42 0 0 0;
#X connect 43 0 1 0;
#X connect 44 0 17 0;
#X connect 45 0 40 1;
#X connect 46 0 25 0;
#X connect 47 0 19 0;
#X connect 48 0 15 0;
#X connect 49 0 16 0;
#X connect 50 0 49 0;
#X connect 51 0 20 0;
#X connect 52 0 51 0;
#X restore 150 37 pd triangle;
#N canvas 564 302 1116 726 pulse 0;
#X floatatom 603 58 5 0 0 0 - - -;
#X floatatom 81 65 5 0 0 0 - - -;
#X obj 78 588 *~;
#X obj 339 589 *~;
#X obj 604 205 f;
#X msg 922 209 0;
#X obj 922 187 t b;
#X obj 355 537 pack f 50;
#X obj 356 564 line~;
#X obj 97 541 pack f 50;
#X obj 97 563 line~;
#X obj 81 135 pack f f;
#X floatatom 134 116 5 0 0 0 - - -;
#X obj 75 225 line~;
#X floatatom 345 55 5 0 0 0 - - -;
#X obj 345 137 pack f f;
#X floatatom 398 118 5 0 0 0 - - -;
#X obj 342 232 line~;
#X obj 78 610 +~;
#X floatatom 621 159 5 0 0 0 - - -;
#X obj 621 178 t b f;
#X obj 97 497 swap 1;
#X obj 97 519 -;
#X obj 603 104 t b b b;
#X obj 356 508 spigot;
#X msg 716 208 1;
#X obj 97 474 spigot;
#X msg 794 209 0;
#X obj 603 80 sel 2;
#X obj 79 290 phasor~;
#X obj 342 289 phasor~;
#X obj 78 374 expr~ $v1 > $v2;
#X obj 190 313 pack f 50;
#X obj 190 335 line~;
#X floatatom 190 294 5 0 0 0 - - -;
#X obj 341 376 expr~ $v1 > $v2;
#X obj 456 309 pack f 50;
#X obj 456 331 line~;
#X floatatom 456 290 5 0 0 0 - - -;
#X obj 77 399 *~ 2;
#X obj 77 421 -~ 1;
#X obj 340 399 *~ 2;
#X obj 340 421 -~ 1;
#X obj 794 184 r \$0-reset-send;
#X obj 456 268 r \$0-pwm;
#X obj 190 272 r \$0-pwm;
#X obj 175 639 dj-eq;
#X obj 214 587 r M2;
#X obj 276 587 r H2;
#X obj 152 585 r L2;
#X obj 80 715 outlet~;
#X obj 250 715 s~ wave0;
#X obj 126 606 r~ Dadd;
#X obj 81 32 r freq1;
#X obj 345 34 r freq2;
#X obj 603 36 r wave-send;
#X obj 341 625 *~;
#X obj 470 636 r phase2;
#X obj 621 137 r balanceC;
#X obj 134 94 r glideC;
#X obj 398 96 r glideC;
#X floatatom 80 196 5 0 0 0 - - -;
#X obj 80 167 line;
#X floatatom 320 190 5 0 0 0 - - -;
#X obj 320 161 line;
#X connect 0 0 28 0;
#X connect 1 0 11 0;
#X connect 2 0 18 0;
#X connect 3 0 56 0;
#X connect 4 0 24 0;
#X connect 4 0 26 0;
#X connect 5 0 7 0;
#X connect 5 0 9 0;
#X connect 5 0 24 1;
#X connect 5 0 26 1;
#X connect 6 0 5 0;
#X connect 7 0 8 0;
#X connect 8 0 3 1;
#X connect 9 0 10 0;
#X connect 10 0 2 1;
#X connect 11 0 62 0;
#X connect 12 0 11 1;
#X connect 13 0 29 0;
#X connect 14 0 15 0;
#X connect 15 0 64 0;
#X connect 16 0 15 1;
#X connect 17 0 30 0;
#X connect 18 0 50 0;
#X connect 18 0 51 0;
#X connect 19 0 20 0;
#X connect 20 0 4 0;
#X connect 20 1 4 1;
#X connect 21 0 22 0;
#X connect 21 1 22 1;
#X connect 22 0 9 0;
#X connect 23 0 4 0;
#X connect 23 1 25 0;
#X connect 23 2 27 0;
#X connect 24 0 7 0;
#X connect 25 0 24 1;
#X connect 25 0 26 1;
#X connect 26 0 21 0;
#X connect 27 0 29 1;
#X connect 27 0 30 1;
#X connect 28 0 23 0;
#X connect 28 1 6 0;
#X connect 29 0 31 0;
#X connect 30 0 35 0;
#X connect 31 0 39 0;
#X connect 32 0 33 0;
#X connect 33 0 31 1;
#X connect 34 0 32 0;
#X connect 35 0 41 0;
#X connect 36 0 37 0;
#X connect 37 0 35 1;
#X connect 38 0 36 0;
#X connect 39 0 40 0;
#X connect 40 0 2 0;
#X connect 41 0 42 0;
#X connect 42 0 3 0;
#X connect 43 0 27 0;
#X connect 44 0 38 0;
#X connect 45 0 34 0;
#X connect 46 0 18 1;
#X connect 47 0 46 2;
#X connect 48 0 46 3;
#X connect 49 0 46 1;
#X connect 52 0 46 0;
#X connect 53 0 1 0;
#X connect 54 0 14 0;
#X connect 55 0 0 0;
#X connect 56 0 46 0;
#X connect 57 0 56 1;
#X connect 58 0 19 0;
#X connect 59 0 12 0;
#X connect 60 0 16 0;
#X connect 61 0 13 0;
#X connect 62 0 61 0;
#X connect 63 0 17 0;
#X connect 64 0 63 0;
#X restore 267 37 pd pulse;
#X obj 242 82 +~;
#N canvas 472 302 1116 726 saw 0;
#X floatatom 603 58 5 0 0 0 - - -;
#X floatatom 81 54 5 0 0 0 - - -;
#X obj 81 513 *~;
#X obj 410 505 *~;
#X obj 604 205 f;
#X msg 922 209 0;
#X obj 922 187 t b;
#X obj 427 458 pack f 50;
#X obj 427 480 line~;
#X obj 100 466 pack f 50;
#X obj 100 488 line~;
#X obj 81 135 pack f f;
#X floatatom 134 116 5 0 0 0 - - -;
#X obj 78 229 line~;
#X floatatom 413 46 5 0 0 0 - - -;
#X obj 413 128 pack f f;
#X floatatom 466 109 5 0 0 0 - - -;
#X obj 410 214 line~;
#X obj 81 535 +~;
#X floatatom 621 159 5 0 0 0 - - -;
#X obj 621 178 t b f;
#X obj 100 422 swap 1;
#X obj 100 444 -;
#X obj 603 104 t b b b;
#X obj 427 432 spigot;
#X msg 716 208 1;
#X obj 100 399 spigot;
#X msg 794 209 0;
#X obj 79 290 phasor~;
#X obj 410 280 phasor~;
#X obj 80 324 *~ 2;
#X obj 80 346 -~ 1;
#X obj 411 315 *~ 2;
#X obj 411 337 -~ 1;
#X obj 603 80 sel 3;
#X obj 794 184 r \$0-reset-send;
#X obj 466 87 r \$0-glide;
#X obj 134 94 r \$0-glide;
#X obj 205 550 dj-eq;
#X obj 217 509 r M2;
#X obj 279 509 r H2;
#X obj 155 507 r L2;
#X obj 72 657 outlet~;
#X obj 242 657 s~ wave0;
#X obj 194 393 r~ Dadd;
#X obj 356 512 *~;
#X obj 81 31 r freq1;
#X obj 413 25 r freq2;
#X obj 603 36 r wave-send;
#X obj 354 481 r phase2;
#X obj 621 137 r balanceC;
#X floatatom 80 205 5 0 0 0 - - -;
#X obj 80 176 line;
#X floatatom 405 189 5 0 0 0 - - -;
#X obj 411 164 line;
#X connect 0 0 34 0;
#X connect 1 0 11 0;
#X connect 2 0 18 0;
#X connect 3 0 45 0;
#X connect 4 0 24 0;
#X connect 4 0 26 0;
#X connect 5 0 7 0;
#X connect 5 0 9 0;
#X connect 5 0 24 1;
#X connect 5 0 26 1;
#X connect 6 0 5 0;
#X connect 7 0 8 0;
#X connect 8 0 3 1;
#X connect 9 0 10 0;
#X connect 10 0 2 1;
#X connect 11 0 52 0;
#X connect 12 0 11 1;
#X connect 13 0 28 0;
#X connect 14 0 15 0;
#X connect 15 0 54 0;
#X connect 16 0 15 1;
#X connect 17 0 29 0;
#X connect 18 0 42 0;
#X connect 18 0 43 0;
#X connect 19 0 20 0;
#X connect 20 0 4 0;
#X connect 20 1 4 1;
#X connect 21 0 22 0;
#X connect 21 1 22 1;
#X connect 22 0 9 0;
#X connect 23 0 4 0;
#X connect 23 1 25 0;
#X connect 23 2 27 0;
#X connect 24 0 7 0;
#X connect 25 0 24 1;
#X connect 25 0 26 1;
#X connect 26 0 21 0;
#X connect 27 0 28 1;
#X connect 27 0 29 1;
#X connect 28 0 30 0;
#X connect 29 0 32 0;
#X connect 30 0 31 0;
#X connect 31 0 2 0;
#X connect 32 0 33 0;
#X connect 33 0 3 0;
#X connect 34 0 23 0;
#X connect 34 1 6 0;
#X connect 35 0 27 0;
#X connect 36 0 16 0;
#X connect 37 0 12 0;
#X connect 38 0 18 1;
#X connect 39 0 38 2;
#X connect 40 0 38 3;
#X connect 41 0 38 1;
#X connect 44 0 38 0;
#X connect 45 0 38 0;
#X connect 46 0 1 0;
#X connect 47 0 14 0;
#X connect 48 0 0 0;
#X connect 49 0 45 1;
#X connect 50 0 19 0;
#X connect 51 0 13 0;
#X connect 52 0 51 0;
#X connect 53 0 17 0;
#X connect 54 0 53 0;
#X restore 359 37 pd saw;
#X obj 396 68 +~;
#N canvas 564 206 1116 554 noise 0;
#X floatatom 603 58 5 0 0 0 - - -;
#X floatatom 93 53 5 0 0 0 - - -;
#X obj 79 454 *~;
#X obj 319 434 *~;
#X obj 604 205 f;
#X msg 945 214 0;
#X obj 945 192 t b;
#X obj 336 387 pack f 50;
#X obj 336 409 line~;
#X obj 98 387 pack f 50;
#X obj 98 409 line~;
#X obj 93 134 pack f f;
#X floatatom 146 115 5 0 0 0 - - -;
#X obj 99 226 line~;
#X floatatom 332 53 5 0 0 0 - - -;
#X obj 332 135 pack f f;
#X floatatom 385 116 5 0 0 0 - - -;
#X obj 337 236 line~;
#X obj 78 490 +~;
#X floatatom 621 159 5 0 0 0 - - -;
#X obj 621 178 t b f;
#X obj 98 343 swap 1;
#X obj 98 365 -;
#X obj 336 361 spigot;
#X msg 716 208 1;
#X obj 98 320 spigot;
#X obj 603 80 sel 4;
#X obj 42 233 noise~;
#X obj 80 283 vcf~;
#X floatatom 121 258 5 0 0 0 - - -;
#X obj 280 234 noise~;
#X obj 318 278 vcf~;
#X obj 603 104 t b b;
#X obj 181 508 dj-eq;
#X obj 189 430 r M2;
#X obj 251 430 r H2;
#X obj 127 428 r L2;
#X obj 83 607 outlet~;
#X obj 253 607 s~ wave0;
#X obj 417 448 r~ Dadd;
#X obj 343 498 *~;
#X obj 603 36 r wave-send;
#X obj 332 32 r freq2;
#X obj 93 31 r freq1;
#X obj 397 498 r phase2;
#X obj 621 137 r balanceC;
#X obj 146 93 r glideC;
#X obj 385 94 r glideC;
#X floatatom 97 198 5 0 0 0 - - -;
#X obj 97 169 line;
#X floatatom 320 190 5 0 0 0 - - -;
#X obj 320 161 line;
#X connect 0 0 26 0;
#X connect 1 0 11 0;
#X connect 2 0 18 0;
#X connect 3 0 40 0;
#X connect 4 0 23 0;
#X connect 4 0 25 0;
#X connect 5 0 7 0;
#X connect 5 0 9 0;
#X connect 5 0 23 1;
#X connect 5 0 25 1;
#X connect 6 0 5 0;
#X connect 7 0 8 0;
#X connect 8 0 3 1;
#X connect 9 0 10 0;
#X connect 10 0 2 1;
#X connect 11 0 49 0;
#X connect 12 0 11 1;
#X connect 13 0 28 1;
#X connect 14 0 15 0;
#X connect 15 0 51 0;
#X connect 16 0 15 1;
#X connect 17 0 31 1;
#X connect 18 0 37 0;
#X connect 18 0 38 0;
#X connect 19 0 20 0;
#X connect 20 0 4 0;
#X connect 20 1 4 1;
#X connect 21 0 22 0;
#X connect 21 1 22 1;
#X connect 22 0 9 0;
#X connect 23 0 7 0;
#X connect 24 0 23 1;
#X connect 24 0 25 1;
#X connect 25 0 21 0;
#X connect 26 0 32 0;
#X connect 26 1 6 0;
#X connect 27 0 28 0;
#X connect 28 0 2 0;
#X connect 29 0 28 2;
#X connect 30 0 31 0;
#X connect 31 0 3 0;
#X connect 32 0 4 0;
#X connect 32 1 24 0;
#X connect 33 0 18 1;
#X connect 34 0 33 2;
#X connect 35 0 33 3;
#X connect 36 0 33 1;
#X connect 39 0 33 0;
#X connect 40 0 33 0;
#X connect 41 0 0 0;
#X connect 42 0 14 0;
#X connect 43 0 1 0;
#X connect 44 0 40 1;
#X connect 45 0 19 0;
#X connect 46 0 12 0;
#X connect 47 0 16 0;
#X connect 48 0 13 0;
#X connect 49 0 48 0;
#X connect 50 0 17 0;
#X connect 51 0 50 0;
#X restore 436 37 pd noise;
#X obj -25 315 s~ soundwaves;
#X obj 86 366 s~ CWF;
#X obj 150 100 +~;
#X connect 0 0 1 0;
#X connect 1 0 8 0;
#X connect 1 0 9 0;
#X connect 2 0 10 0;
#X connect 3 0 4 0;
#X connect 4 0 10 1;
#X connect 5 0 6 0;
#X connect 6 0 4 1;
#X connect 7 0 6 1;
#X connect 10 0 1 1;
