#N canvas 310 344 841 684 12;
#N canvas 564 89 1116 633 sine 0;
#X floatatom 603 58 5 0 0 0 - - -;
#X obj 603 80 sel 0;
#X obj 79 269 osc~;
#X floatatom 81 54 5 0 0 0 - - -;
#X obj 79 418 *~;
#X obj 510 190 f;
#X msg 945 214 0;
#X obj 945 192 t b;
#X obj 98 371 pack f 50;
#X obj 122 400 line~;
#X obj 81 119 pack f f;
#X floatatom 142 100 5 0 0 0 - - -;
#X obj 82 214 line~;
#X obj 83 607 outlet~;
#X floatatom 621 159 5 0 0 0 - - -;
#X obj 621 178 t b f;
#X obj 141 308 swap 1;
#X obj 141 336 -;
#X obj 603 104 t b b b;
#X msg 716 208 1;
#X obj 141 285 spigot;
#X msg 794 209 0;
#X obj 794 184 r \$0-reset-sendB;
#X obj 253 607 s~ wave0B;
#X obj 603 36 r wave-sendB;
#X obj 621 137 r balanceD;
#X obj 142 78 r glideD;
#X floatatom 82 181 5 0 0 0 - - -;
#X obj 82 152 line;
#X obj 72 32 r freq2;
#X connect 0 0 1 0;
#X connect 1 0 18 0;
#X connect 1 1 7 0;
#X connect 2 0 4 0;
#X connect 3 0 10 0;
#X connect 4 0 13 0;
#X connect 4 0 23 0;
#X connect 5 0 20 0;
#X connect 6 0 20 1;
#X connect 6 0 8 0;
#X connect 7 0 6 0;
#X connect 8 0 9 0;
#X connect 9 0 4 1;
#X connect 10 0 28 0;
#X connect 11 0 10 1;
#X connect 12 0 2 0;
#X connect 14 0 15 0;
#X connect 15 0 5 0;
#X connect 15 1 5 1;
#X connect 16 0 17 0;
#X connect 16 1 17 1;
#X connect 17 0 8 0;
#X connect 18 0 5 0;
#X connect 18 1 19 0;
#X connect 18 2 21 0;
#X connect 19 0 20 1;
#X connect 20 0 16 0;
#X connect 21 0 2 1;
#X connect 22 0 21 0;
#X connect 24 0 0 0;
#X connect 25 0 14 0;
#X connect 26 0 11 0;
#X connect 27 0 12 0;
#X connect 28 0 27 0;
#X connect 29 0 3 0;
#X restore 70 37 pd sine;
#X obj 121 207 +~;
#N canvas 564 227 1116 554 triangle 0;
#X floatatom 603 58 5 0 0 0 - - -;
#X floatatom 81 80 5 0 0 0 - - -;
#X obj 79 434 *~;
#X obj 601 218 f;
#X msg 789 136 0;
#X obj 98 344 swap 1;
#X obj 98 366 -;
#X msg 984 134 0;
#X obj 984 112 t b;
#X obj 98 387 pack f 50;
#X obj 98 409 line~;
#X obj 81 135 pack f f;
#X floatatom 134 116 5 0 0 0 - - -;
#X obj 80 241 line~;
#X obj 603 80 sel 1;
#N canvas 908 53 501 366 make-triangle 0;
#X obj 52 20 inlet~;
#X obj 341 42 inlet phase;
#X obj 51 126 phasor~;
#X obj 295 125 phasor~;
#X obj 49 174 -~ 1;
#X obj 49 201 clip~ -1 0;
#X obj 50 148 *~ 2;
#X obj 295 147 *~ -2;
#X obj 294 170 +~ 1;
#X obj 294 195 clip~ -1 0;
#X obj 48 225 *~ 2;
#X obj 294 218 *~ 2;
#X obj 181 307 +~;
#X obj 181 329 outlet~;
#X obj 294 240 +~ 0.5;
#X obj 48 247 +~ 0.5;
#X connect 0 0 2 0;
#X connect 0 0 3 0;
#X connect 1 0 3 1;
#X connect 1 0 2 1;
#X connect 2 0 6 0;
#X connect 3 0 7 0;
#X connect 4 0 5 0;
#X connect 5 0 10 0;
#X connect 6 0 4 0;
#X connect 7 0 8 0;
#X connect 8 0 9 0;
#X connect 9 0 11 0;
#X connect 10 0 15 0;
#X connect 11 0 14 0;
#X connect 12 0 13 0;
#X connect 14 0 12 1;
#X connect 15 0 12 0;
#X restore 82 265 pd make-triangle;
#X floatatom 621 160 5 0 0 0 - - -;
#X obj 621 178 t b f;
#X obj 603 104 t b b b;
#X obj 98 322 spigot;
#X msg 912 134 1;
#X text -665 518 The binary signal operators can be configured to combine
two signals as above \, or \, if you give a numeric argument \, audio
signals are combined with scalars:;
#X obj 83 607 outlet~;
#X obj 789 108 r \$0-reset-sendB;
#X obj 253 607 s~ wave0B;
#X obj 603 36 r wave-sendB;
#X obj 623 136 r balanceD;
#X obj 134 93 r glideD;
#X floatatom 81 216 5 0 0 0 - - -;
#X obj 81 187 line;
#X obj 81 32 r freq2;
#X connect 0 0 14 0;
#X connect 1 0 11 0;
#X connect 2 0 22 0;
#X connect 2 0 24 0;
#X connect 3 0 19 0;
#X connect 4 0 15 1;
#X connect 5 0 6 0;
#X connect 5 1 6 1;
#X connect 6 0 9 0;
#X connect 7 0 19 1;
#X connect 7 0 9 0;
#X connect 8 0 7 0;
#X connect 9 0 10 0;
#X connect 10 0 2 1;
#X connect 11 0 29 0;
#X connect 12 0 11 1;
#X connect 13 0 15 0;
#X connect 14 0 18 0;
#X connect 14 1 8 0;
#X connect 15 0 2 0;
#X connect 16 0 17 0;
#X connect 17 0 3 0;
#X connect 17 1 3 1;
#X connect 18 0 3 0;
#X connect 18 1 4 0;
#X connect 18 2 20 0;
#X connect 19 0 5 0;
#X connect 20 0 19 1;
#X connect 23 0 4 0;
#X connect 25 0 0 0;
#X connect 26 0 16 0;
#X connect 27 0 12 0;
#X connect 28 0 13 0;
#X connect 29 0 28 0;
#X connect 30 0 1 0;
#X restore 150 37 pd triangle;
#X obj 150 100 +~;
#N canvas 521 93 1116 726 pulse 0;
#X floatatom 603 58 5 0 0 0 - - -;
#X floatatom 81 65 5 0 0 0 - - -;
#X obj 78 588 *~;
#X obj 604 205 f;
#X msg 922 209 0;
#X obj 922 187 t b;
#X obj 97 541 pack f 50;
#X obj 97 563 line~;
#X obj 81 135 pack f f;
#X floatatom 134 116 5 0 0 0 - - -;
#X obj 78 239 line~;
#X floatatom 621 159 5 0 0 0 - - -;
#X obj 621 178 t b f;
#X obj 97 497 swap 1;
#X obj 97 519 -;
#X obj 603 104 t b b b;
#X msg 716 208 1;
#X obj 97 474 spigot;
#X msg 794 209 0;
#X obj 603 80 sel 2;
#X obj 79 290 phasor~;
#X obj 78 374 expr~ $v1 > $v2;
#X obj 190 313 pack f 50;
#X obj 190 335 line~;
#X floatatom 190 294 5 0 0 0 - - -;
#X obj 77 399 *~ 2;
#X obj 77 421 -~ 1;
#X obj 80 715 outlet~;
#X obj 794 184 r \$0-reset-sendB;
#X obj 190 272 r \$0-pwmB;
#X obj 250 715 s~ wave0B;
#X obj 604 36 r wave-sendB;
#X obj 621 137 r balanceD;
#X obj 135 95 r glideD;
#X floatatom 82 209 5 0 0 0 - - -;
#X obj 82 180 line;
#X obj 81 32 r freq2;
#X connect 0 0 19 0;
#X connect 1 0 8 0;
#X connect 2 0 27 0;
#X connect 2 0 30 0;
#X connect 3 0 17 0;
#X connect 4 0 6 0;
#X connect 4 0 17 1;
#X connect 5 0 4 0;
#X connect 6 0 7 0;
#X connect 7 0 2 1;
#X connect 8 0 35 0;
#X connect 9 0 8 1;
#X connect 10 0 20 0;
#X connect 11 0 12 0;
#X connect 12 0 3 0;
#X connect 12 1 3 1;
#X connect 13 0 14 0;
#X connect 13 1 14 1;
#X connect 14 0 6 0;
#X connect 15 0 3 0;
#X connect 15 1 16 0;
#X connect 15 2 18 0;
#X connect 16 0 17 1;
#X connect 17 0 13 0;
#X connect 18 0 20 1;
#X connect 19 0 15 0;
#X connect 19 1 5 0;
#X connect 20 0 21 0;
#X connect 21 0 25 0;
#X connect 22 0 23 0;
#X connect 23 0 21 1;
#X connect 24 0 22 0;
#X connect 25 0 26 0;
#X connect 26 0 2 0;
#X connect 28 0 18 0;
#X connect 29 0 24 0;
#X connect 31 0 0 0;
#X connect 32 0 11 0;
#X connect 33 0 9 0;
#X connect 34 0 10 0;
#X connect 35 0 34 0;
#X connect 36 0 1 0;
#X restore 267 37 pd pulse;
#X obj 242 82 +~;
#N canvas 564 302 1116 726 saw 0;
#X floatatom 603 58 5 0 0 0 - - -;
#X floatatom 81 54 5 0 0 0 - - -;
#X obj 81 513 *~;
#X obj 604 205 f;
#X msg 922 209 0;
#X obj 922 187 t b;
#X obj 100 466 pack f 50;
#X obj 100 488 line~;
#X obj 81 135 pack f f;
#X obj 76 265 line~;
#X floatatom 621 159 5 0 0 0 - - -;
#X obj 621 178 t b f;
#X obj 100 422 swap 1;
#X obj 100 444 -;
#X obj 603 104 t b b b;
#X msg 716 208 1;
#X obj 100 399 spigot;
#X msg 794 209 0;
#X obj 79 290 phasor~;
#X obj 80 324 *~ 2;
#X obj 80 346 -~ 1;
#X obj 603 80 sel 3;
#X obj 72 657 outlet~;
#X obj 794 184 r \$0-reset-sendB;
#X obj 603 36 r wave-sendB;
#X obj 621 137 r balanceD;
#X floatatom 19 152 5 0 0 0 - - -;
#X obj 148 92 f;
#X obj 29 193 line;
#X floatatom 30 221 5 0 0 0 - - -;
#X obj 74 78 t f b;
#X obj 84 111 f;
#X floatatom 86 234 5 0 0 0 - - -;
#X obj 86 205 line;
#X obj 81 31 r freq2;
#X connect 0 0 21 0;
#X connect 1 0 30 0;
#X connect 1 0 31 1;
#X connect 2 0 22 0;
#X connect 3 0 16 0;
#X connect 4 0 6 0;
#X connect 4 0 16 1;
#X connect 5 0 4 0;
#X connect 6 0 7 0;
#X connect 7 0 2 1;
#X connect 8 0 26 0;
#X connect 8 0 33 0;
#X connect 9 0 18 0;
#X connect 10 0 11 0;
#X connect 11 0 3 0;
#X connect 11 1 3 1;
#X connect 12 0 13 0;
#X connect 12 1 13 1;
#X connect 13 0 6 0;
#X connect 14 0 3 0;
#X connect 14 1 15 0;
#X connect 14 2 17 0;
#X connect 15 0 16 1;
#X connect 16 0 12 0;
#X connect 17 0 18 1;
#X connect 18 0 19 0;
#X connect 19 0 20 0;
#X connect 20 0 2 0;
#X connect 21 0 14 0;
#X connect 21 1 5 0;
#X connect 23 0 17 0;
#X connect 24 0 0 0;
#X connect 25 0 10 0;
#X connect 26 0 28 0;
#X connect 27 0 8 1;
#X connect 28 0 29 0;
#X connect 30 1 27 0;
#X connect 30 1 31 0;
#X connect 31 0 8 0;
#X connect 32 0 9 0;
#X connect 33 0 32 0;
#X connect 34 0 1 0;
#X restore 359 37 pd saw;
#X obj 396 68 +~;
#N canvas 564 60 1116 554 noise 0;
#X floatatom 603 58 5 0 0 0 - - -;
#X floatatom 93 53 5 0 0 0 - - -;
#X obj 79 454 *~;
#X obj 604 205 f;
#X msg 945 214 0;
#X obj 945 192 t b;
#X obj 98 387 pack f 50;
#X obj 98 409 line~;
#X obj 93 134 pack f f;
#X floatatom 146 115 5 0 0 0 - - -;
#X obj 96 209 line~;
#X floatatom 621 159 5 0 0 0 - - -;
#X obj 621 178 t b f;
#X obj 98 343 swap 1;
#X obj 98 365 -;
#X msg 716 208 1;
#X obj 98 320 spigot;
#X obj 603 80 sel 4;
#X obj 42 233 noise~;
#X obj 80 283 vcf~;
#X obj 603 104 t b b;
#X obj 83 607 outlet~;
#X obj 253 607 s~ wave0B;
#X obj 603 36 r wave-sendB;
#X obj 620 137 r balanceD;
#X obj 146 93 r glideD;
#X floatatom 94 186 5 0 0 0 - - -;
#X obj 94 157 line;
#X obj 93 31 r freq2;
#X connect 0 0 17 0;
#X connect 1 0 8 0;
#X connect 2 0 21 0;
#X connect 2 0 22 0;
#X connect 3 0 16 0;
#X connect 4 0 6 0;
#X connect 4 0 16 1;
#X connect 5 0 4 0;
#X connect 6 0 7 0;
#X connect 7 0 2 1;
#X connect 8 0 27 0;
#X connect 9 0 8 1;
#X connect 10 0 19 1;
#X connect 11 0 12 0;
#X connect 12 0 3 0;
#X connect 12 1 3 1;
#X connect 13 0 14 0;
#X connect 13 1 14 1;
#X connect 14 0 6 0;
#X connect 15 0 16 1;
#X connect 16 0 13 0;
#X connect 17 0 20 0;
#X connect 17 1 5 0;
#X connect 18 0 19 0;
#X connect 19 0 2 0;
#X connect 20 0 3 0;
#X connect 20 1 15 0;
#X connect 23 0 0 0;
#X connect 24 0 11 0;
#X connect 25 0 9 0;
#X connect 26 0 10 0;
#X connect 27 0 26 0;
#X connect 28 0 1 0;
#X restore 436 37 pd noise;
#X obj -25 315 s~ soundwavesB;
#X obj 148 536 tabwrite~ waveformD;
#X obj 86 366 s~ CWFD;
#X connect 0 0 1 0;
#X connect 1 0 9 0;
#X connect 1 0 10 0;
#X connect 1 0 11 0;
#X connect 2 0 3 0;
#X connect 3 0 1 1;
#X connect 4 0 5 0;
#X connect 5 0 3 1;
#X connect 6 0 7 0;
#X connect 7 0 5 1;
#X connect 8 0 7 1;
