#N canvas 359 62 998 593 12;
#X obj 115 131 vsl 15 90 0 1 0 0 empty empty Amp 0 -9 0 9 -262144 -1
-1 0 1;
#X obj 357 191 inlet FreqIN;
#X obj 356 222 osc~;
#X obj 415 222 phasor~;
#X obj 415 241 *~ 2;
#X obj 415 260 -~ 1;
#X obj 545 222 phasor~;
#X obj 545 260 *~ 2;
#X obj 545 279 -~ 1;
#X obj 545 241 expr~ $v1 > $v2;
#X obj 360 381 == 0;
#X obj 419 381 == 1;
#X obj 486 381 == 2;
#X obj 561 389 == 3;
#X obj 360 423 line~;
#X obj 345 444 *~;
#X obj 404 444 *~;
#X obj 471 444 *~;
#X obj 546 452 *~;
#X obj 419 423 line~;
#X obj 486 423 line~;
#X obj 561 431 line~;
#X obj 357 500 *~;
#X text 160 129 Sine;
#X text 160 144 Saw;
#X text 160 160 Triangle;
#X text 160 174 Square;
#X obj 118 252 hsl 102 15 0.01 0.99 0 0 empty empty empty -2 -8 0 10
-262144 -1 -1 5050 1;
#X floatatom 115 269 5 0 0 0 - - -;
#X msg 115 355 0.5;
#X msg 360 403 \$1 10;
#X msg 419 403 \$1 10;
#X msg 486 403 \$1 10;
#X msg 561 411 \$1 10;
#X obj 189 207 bng 27 250 50 0 empty empty Symm 2 -7 0 9 -262144 -1
-1;
#X obj 144 355 loadbang;
#X floatatom 144 207 5 0 0 2 Freq - -;
#X msg 199 355 440;
#X msg 46 219 0;
#X text 113 237 Sqr Duty Cycle;
#X text 123 289 Pure Waveform Oscillator, f 14;
#X obj 351 544 dac~;
#X obj 472 222 phasor~;
#X obj 498 247 *~ -1;
#X obj 498 266 +~ 1;
#X obj 498 301 min~;
#X obj 499 323 *~ 4;
#X obj 499 342 -~ 1;
#X obj 740 291 line~;
#X obj 664 280 noise~;
#X obj 662 310 vcf~;
#X floatatom 762 323 5 0 0 0 - - -;
#X floatatom 738 263 5 0 0 0 - - -;
#X obj 738 234 line;
#X obj 611 453 *~;
#X obj 626 432 line~;
#X msg 626 412 \$1 10;
#X obj 626 390 == 4;
#X obj 455 518 r~ Dadd;
#X obj 421 551 s~ CWF;
#X connect 1 0 36 0;
#X connect 2 0 15 0;
#X connect 3 0 4 0;
#X connect 4 0 5 0;
#X connect 5 0 16 0;
#X connect 6 0 9 0;
#X connect 7 0 8 0;
#X connect 8 0 18 0;
#X connect 9 0 7 0;
#X connect 10 0 30 0;
#X connect 11 0 31 0;
#X connect 12 0 32 0;
#X connect 13 0 33 0;
#X connect 14 0 15 1;
#X connect 15 0 22 0;
#X connect 16 0 22 0;
#X connect 17 0 22 0;
#X connect 18 0 22 0;
#X connect 19 0 16 1;
#X connect 20 0 17 1;
#X connect 21 0 18 1;
#X connect 22 0 41 0;
#X connect 22 0 41 1;
#X connect 22 0 59 0;
#X connect 27 0 9 1;
#X connect 27 0 28 0;
#X connect 29 0 27 0;
#X connect 30 0 14 0;
#X connect 31 0 19 0;
#X connect 32 0 20 0;
#X connect 33 0 21 0;
#X connect 34 0 29 0;
#X connect 35 0 29 0;
#X connect 35 0 37 0;
#X connect 35 0 38 0;
#X connect 36 0 2 0;
#X connect 36 0 3 0;
#X connect 36 0 6 0;
#X connect 36 0 42 0;
#X connect 36 0 53 0;
#X connect 37 0 36 0;
#X connect 42 0 43 0;
#X connect 42 0 45 0;
#X connect 43 0 44 0;
#X connect 44 0 45 1;
#X connect 45 0 46 0;
#X connect 46 0 47 0;
#X connect 47 0 17 0;
#X connect 48 0 50 1;
#X connect 49 0 50 0;
#X connect 50 0 54 0;
#X connect 51 0 50 2;
#X connect 52 0 48 0;
#X connect 53 0 52 0;
#X connect 54 0 22 0;
#X connect 55 0 54 1;
#X connect 56 0 55 0;
#X connect 57 0 56 0;
#X connect 58 0 22 1;
