#N canvas 0 84 1680 944 12;
#X text -1268 871 TIME COMPRESSION/EXPANSION BY LOOPED SAMPLING;
#X obj 1383 143 r trgrA;
#X obj 1312 142 r BB;
#X obj 1314 169 r BB1;
#X obj 1239 148 r T$;
#X obj 1244 176 r T1;
#X obj 1314 401 outlet;
#X obj 1249 401 outlet;
#X obj 1246 236 spigot-toggle_red;
#X obj 1245 207 spigot-toggle_vert;
#X floatatom 1247 326 5 0 0 0 - - -;
#X floatatom 1386 355 2 0 0 0 - - -;
#X obj 1320 345 bng 15 250 50 0 empty empty empty 17 7 0 10 -262144
-1 -1;
#X obj 1410 401 outlet;
#X floatatom 323 120 12 0 0 0 - - -;
#X msg 214 74 0;
#X obj 1315 210 spigot-toggle_vert;
#X obj 1384 214 spigot-toggle_vert;
#X obj 1316 240 spigot-toggle_red;
#X obj 1384 236 spigot-toggle_red;
#X obj 428 547 tgl 15 0 empty empty empty 17 7 0 10 -262144 -1 -1 0
1;
#X obj 516 603 - 0;
#X obj 499 675 bng 15 250 50 0 empty empty empty 17 7 0 10 -262144
-1 -1;
#X obj 498 699 f;
#X floatatom 516 628 8 0 3 0 - - -;
#X floatatom 451 725 8 0 3 0 - - -;
#X floatatom 428 571 5 0 0 0 - - -;
#X obj 425 598 sel 0;
#X floatatom 566 429 8 0 3 0 - - -;
#X obj 516 548 spigot-toggle_vert;
#X obj 455 625 t b b;
#X obj 452 675 bng 15 250 50 0 empty empty empty 17 7 0 10 -262144
-1 -1;
#X obj 451 699 f;
#X floatatom 465 655 8 0 3 0 - - -;
#X obj 80 870 spigot-toggle_orange;
#X obj 80 895 spigot-toggle_orange;
#X obj 81 918 spigot-toggle_orange;
#X obj 82 997 r lo;
#X obj 80 941 spigot-toggle_orange;
#X obj 50 908 tgl 15 0 empty empty loc 2 7 0 10 -262144 -1 -1 0 1;
#X text -1257 986 >ø = stop at release;
#X text -17 960 @A = reminds the last starting point and hangs on;
#X text -1256 952 ø@ = reminds the last starting point and not hangs
on;
#X text -1262 913 tru = A without modulation;
#X text -1257 966 when one of above is select it can be played as;
#X text -1256 893 ø = ON/OFF \, 1 push: on second push : off;
#X text -1257 1006 loc = reminds what you were doing \; 1st push: scd
push : off;
#X obj 92 -962 - 1;
#X obj 135 -961 * -1;
#X obj 943 227 spigot-toggle_red;
#X obj 943 200 spigot-toggle_vert;
#X obj 968 225 spigot-toggle_red;
#X obj 968 201 spigot-toggle_vert;
#X floatatom 951 356 8 0 3 0 - - -;
#X obj 961 566 r lo;
#X obj 952 659 spigot-toggle_red;
#X obj 1165 194 spigot-toggle_jaunenoir;
#X obj 1165 222 spigot-toggle_jaunenoir;
#X floatatom 1165 266 12 0 0 0 - - -;
#X obj 274 575 spigot-toggle_orange;
#X obj 271 604 spigot-toggle_orange;
#X obj 515 576 t b f;
#X obj 950 696 spigot-toggle_red;
#X obj 707 685 f;
#X floatatom 704 714 8 0 3 0 - - -;
#X obj 706 777 spigot-toggle_vert;
#X floatatom 640 713 8 0 3 0 - - -;
#X obj 652 685 f;
#X obj 701 628 sel;
#X obj 704 661 bng 15 250 50 0 empty empty empty 17 7 0 10 -262144
-1 -1;
#X obj 653 660 bng 15 250 50 0 empty empty empty 17 7 0 10 -262144
-1 -1;
#X obj 947 298 + 0;
#X obj 213 689 sel;
#X msg 229 713 1;
#X obj 575 534 spigot-toggle_red;
#X obj 581 485 - 1;
#X obj 582 506 * -1;
#X obj 600 533 r lo;
#X obj 217 47 r lo;
#X obj 985 150 r B;
#X obj 92 122 tgl 28 0 empty empty A 6 15 1 26 -1 -262144 -262144 0
1;
#X obj 91 151 tgl 28 0 empty empty B 6 15 1 28 -1 -262144 -262144 0
1;
#X obj 146 136 tgl 25 0 empty empty A 6 12 1 22 -1 -262144 -262144
0 1;
#X obj 146 158 tgl 25 0 empty empty B 6 12 1 22 -1 -262144 -262144
0 1;
#X obj 120 120 vsl 25 85 0 33 0 0 empty empty mod 3 73 0 11 -16662
-260097 -260097 0 1;
#X obj 94 233 tgl 25 0 empty empty • 4 13 1 50 -1 -260097 -260097
0 1;
#X obj 65 208 tgl 25 0 empty empty ◐ 6 13 1 14 -1 -260097 -260097
0 1;
#X obj 65 233 tgl 25 0 empty empty ◐ 6 13 1 14 -1 -260097 -260097
0 1;
#X obj 172 132 tgl 25 0 empty empty ☞ 8 12 0 27 -1 -262144 -262144
0 1;
#X obj 63 151 tgl 28 0 empty empty @ 2 14 1 26 -260097 -1 -1 0 1;
#X obj 63 180 tgl 28 0 empty empty ⤷@ -6 14 1 18 -260097 -1 -1 0
1;
#X obj 172 158 tgl 25 0 empty empty ☞ 8 12 0 27 -1 -262144 -262144
0 1;
#X obj 145 183 tgl 25 0 empty empty ⇪ 5 11 1 16 -1 -260097 -260097
0 1;
#X obj 171 183 tgl 25 0 empty empty >๏ 4 11 1 13 -1 -260097 -260097
0 1;
#X obj 63 122 tgl 28 0 empty empty raw 2 12 1 16 -260097 -1 -45076
0 1;
#X obj 146 208 tgl 25 0 empty empty @S 6 12 0 12 -1 -260097 -260097
0 1;
#X floatatom 145 116 9 0 0 0 - - -;
#X obj 92 180 tgl 28 0 empty empty @ 5 14 1 18 -1 -260097 -260097 0
1;
#X obj 120 208 tgl 25 0 empty empty ๏ 6 11 0 22 -1 -260097 -260097
0 1;
#X obj 120 233 tgl 25 0 empty empty ๏ 6 11 0 22 -1 -260097 -260097
0 1;
#X obj 63 93 tgl 28 0 empty empty ๏ -4 10 1 50 -260097 -1 -1 0 1
;
#X msg 976 34 0;
#X obj 104 868 onoff12x;
#X obj 102 917 onoff14x;
#X obj 102 941 onoff15x;
#X obj 276 724 r s&pAb;
#X obj 273 800 r s&pBb;
#X obj 273 825 r speedAb;
#X obj 276 745 r speedBb;
#X obj 276 766 r pitchAb;
#X obj 273 850 r pitchBb;
#X obj 155 491 s locB;
#X obj -21 900 r locB;
#X obj 183 -199 s reposetoinoffB;
#X obj 183 -225 r send_reposetoinoffB;
#X obj 713 743 r @B;
#X obj 217 659 r ø>01;
#X obj 516 495 r B;
#X obj 1226 371 s T$mod1;
#X obj 435 140 s posB;
#X obj 566 399 r posvisu1;
#X obj 174 -961 s øBtiTS1>ø;
#X obj 174 -637 s TmstrchBTR1;
#X obj 296 613 s trgrvolee1;
#X obj 89 513 s @B;
#X obj 103 892 onoff13x;
#X obj 322 147 outlet;
#X obj 237 107 s øAtiTS2;
#X obj 48 -780 s onofdispay1;
#X text -1773 871 "Here \, rather than ask you to push the read pointer
back and forth in the sample \, we use a phasor~. This makes it possible
to avoid the samphold~ on the read pointer (r~ read-pt) \, since \,
knowing the precession \, we can correct for it in computing the frequency
of the original phasor~ at right.;
#X text -1774 969 We've changed the control for "chunk size" to milliseconds
for added convenience \, and delayed multiplying sample location by
the sample rate (44100) until the last moment \, so that calculations
using "read-pt" and "chunk size" can be in the same units (seconds.)"
;
#X obj 94 208 tgl 25 0 empty empty • 4 13 1 50 -1 -260097 -260097
0 1;
#X obj 323 90 * 1;
#X obj 81 -635 r send_BA;
#X obj 81 -612 s BA;
#X obj 51 -531 r send_rawB;
#X obj 51 -509 s rawB;
#X obj 51 -487 r send_B@;
#X obj 51 -465 s B@;
#X obj 51 -443 r send_@reB;
#X obj 51 -421 s @reB;
#X obj 51 -399 r send_@B;
#X obj 51 -377 s @B;
#X obj 140 -461 r send_modBA;
#X obj 140 -432 s modBA;
#X obj 140 -413 r send_modBB;
#X obj 141 -384 s modBB;
#X obj 180 -283 r send_reposetoinoffBB;
#X obj 180 -256 s reposetoinoffBB;
#X obj 180 -337 r send_reposetoinoffBA;
#X obj 180 -310 s reposetoinoffBA;
#X obj 170 -1169 r send_BøB;
#X obj 170 -1141 s BøB;
#X obj 170 -1225 r send_BøA;
#X obj 170 -1197 s BøA;
#X obj 86 -550 s BBbuton;
#X obj 80 -576 r send_BBbuton;
#X obj 184 -99 s save_dataposB;
#X obj 184 -125 r send_save_dataposB;
#X obj 109 -917 r send_save_BngBA;
#X obj 141 -887 s save_BngBA;
#X obj 109 -865 r send_save_BngBB;
#X obj 110 -840 s save_BngBB;
#X obj 112 -1100 r send_save_trgBA;
#X obj 111 -1070 s save_trgBA;
#X obj 142 -1056 r send_save_trgBB;
#X obj 143 -1028 s save_trgBB;
#X obj 296 582 s trgrvolee;
#X obj 1424 364 s trgrmodB;
#X obj 38 299 spigot-toggle_orange;
#X msg -568 -146 record;
#X floatatom -773 80 4 0 0 0 - - -;
#X obj -588 -169 bng 15 250 50 0 empty empty empty 17 7 0 10 -262144
-1 -1;
#X obj -649 -157 pack;
#X floatatom -655 -188 5 0 0 0 - - -;
#X floatatom -638 -221 5 0 0 0 - - -;
#X obj -663 -120 cyclone/midiformat;
#X obj -588 -203 sel;
#X obj -569 -169 bng 15 250 50 0 empty empty empty 17 7 0 10 -262144
-1 -1;
#X floatatom -589 -225 5 0 0 0 - - -;
#X obj 1 118 tgl 25 0 empty empty REC 2 13 1 10 -260097 -1 -1 0 1;
#X obj 1 233 bng 25 250 50 0 empty empty R 9 13 1 9 -1 -260097 -262144
;
#X obj -661 -53 spigot-toggle_violet;
#X obj 27 144 tgl 25 0 empty empty ↻ 3 10 1 30 -1 -262144 -262144
1 1;
#X obj -270 311 r lo;
#X obj 27 118 bng 25 250 50 0 empty empty ► 6 14 1 19 -1 -262144
-262144;
#X obj 32 34 f;
#X obj -654 403 spigot-toggle_violet;
#X obj -267 340 tgl 25 0 empty empty NOTE 3 12 1 8 -66577 -262144 -262144
1 1;
#X obj -534 466 spigot-toggle_violet;
#X floatatom -574 290 5 0 0 0 - - -;
#X floatatom -573 321 5 0 0 0 - - -;
#X obj -654 299 * 0.01;
#X obj -656 258 * 6.25;
#X obj 27 233 tgl 25 0 empty empty MIDI 2 12 1 10 -1 -262144 -262144
1 1;
#X floatatom -276 489 5 0 0 0 - - -;
#X floatatom -258 437 5 0 0 0 - - -;
#X obj -277 466 f;
#X obj -278 437 bng 15 250 50 0 empty empty empty 17 7 0 10 -262144
-1 -1;
#X obj -664 48 notein;
#X obj -660 82 spigot-toggle_violet;
#X obj -638 82 spigot-toggle_violet;
#X obj -605 128 sel;
#X obj -584 155 bng 15 250 50 0 empty empty empty 17 7 0 10 -262144
-1 -1;
#X obj -604 104 == 64;
#X floatatom -659 204 5 0 0 0 - - -;
#X floatatom -659 110 5 0 0 0 - - -;
#X obj -615 159 bng 15 250 50 0 empty empty empty 17 7 0 10 -262144
-1 -1;
#X obj -280 406 sel;
#X obj -295 524 f;
#X obj -295 504 bng 15 250 50 0 empty empty empty 17 7 0 10 -262144
-1 -1;
#X obj 1 144 tgl 25 0 empty empty ■ 2 11 1 41 -1 -262144 -262144
0 1;
#X obj -523 374 * -1;
#X obj -522 351 - 1;
#X obj -293 557 spigot-toggle_violet;
#X obj -668 23 * 1;
#X obj -515 462 r lo;
#X obj 1 92 tgl 25 0 empty empty edit 4 12 1 11 -1 -262144 -262144
0 1;
#X obj 4 188 hsl 46 20 0 1 0 0 empty empty sharp 3 8 1 11 -1 -262144
-262144 9000 1;
#X obj -269 544 r lo;
#X obj -659 134 - 0;
#X obj -658 178 spigot-toggle_violet;
#X obj -523 -55 bng 15 250 50 0 empty empty empty 17 7 0 10 -262144
-1 -1;
#X obj 27 92 tgl 25 0 empty empty mod 2 12 1 12 -1 -262144 -262144
0 1;
#X obj -411 481 f;
#X obj -378 483 + 1;
#X obj -523 304 r lo;
#X msg -523 326 0;
#X msg -506 -136 record slip.mid;
#X obj 943 252 spigot-toggle_jaunenoir;
#X obj 968 249 spigot-toggle_jaunenoir;
#X obj -661 -86 cyclone/seq seq2.mid;
#X obj -583 178 s env_recmidi_inB;
#X obj -613 202 s env_recmidi_outB;
#X obj -634 -31 s recordlivemidiloopstop1B;
#X obj -634 -7 s recordlivemidiloopstopB;
#X obj -635 22 s recordlivemidiloopB;
#X obj -531 595 s recordlivemidiloopBNGB;
#X obj 1 208 tgl 25 0 empty empty A 8 13 1 14 -1 -262144 -262144 0
1;
#X obj -172 -30 spigot-toggle_orange;
#X obj -172 -59 * 100;
#X obj -172 -83 r A;
#X obj 27 208 tgl 25 0 empty empty B 8 13 1 14 -1 -262144 -262144 0
1;
#X obj -124 -34 spigot-toggle_orange;
#X obj -125 -56 * 100;
#X obj -125 -80 r B;
#X obj -4 -28 sel;
#X msg -5 33 0;
#X obj 940 158 r A;
#X obj 227 193 s ø@S1;
#X obj 183 -173 r send_save_ø@S1;
#X obj 182 -149 s save_ø@S1;
#X obj 150 1059 r TRGnB_@sB1;
#X obj 150 1033 r TRGnB_@sA1;
#X obj 1 170 bng 18 250 50 0 empty empty S 5 9 1 14 -1 -260097 -260097
;
#X floatatom 20 170 5 0 0 0 - - -;
#X obj 1162 496 + 0;
#X obj 1120 461 spigot-toggle_vert;
#X msg 1119 484 0;
#X obj 1121 423 bng 15 250 50 0 empty empty empty 17 7 0 10 -262144
-1 -1;
#X floatatom 1163 567 12 0 0 0 - - -;
#X obj 1162 526 spigot-toggle_vert;
#X obj 1152 444 f;
#X obj 1152 467 t b f;
#X obj 1081 439 - 1;
#X obj 1080 462 * -1;
#X obj 950 525 spigot-toggle_vert;
#X obj -529 515 bng 15 250 50 0 empty empty empty 17 7 0 10 -262144
-1 -1;
#X obj 120 92 bng 25 250 50 0 empty empty 0 10 12 1 10 -1 -260097 -260097
;
#X obj 1161 124 r stretchB;
#X obj 1160 101 r stretchA;
#X obj 952 385 + 0;
#X obj 1325 376 s BBBmod;
#X obj 1406 708 spigot-toggle_vert;
#X obj 1406 636 spigot-toggle_vert;
#X obj 1406 662 spigot-toggle_red;
#X obj 1427 260 sel;
#X msg 1384 326 1;
#X obj 1442 627 r lo;
#X obj 1320 317 spigot-toggle_vert;
#X obj 1408 744 spigot-toggle_vert;
#X obj 1409 770 spigot-toggle_red;
#X obj 1385 167 r trgrB;
#X obj 1521 669 spigot-toggle_vert;
#X obj -210 158 s Bbutton;
#X obj 1516 732 s trgrtoenvB;
#X msg 1443 657 0;
#X floatatom 1521 700 5 0 0 0 - - -;
#X obj -144 487 spigot-toggle_orange;
#X obj -145 565 spigot-toggle_orange;
#X obj -144 513 spigot-toggle_orange;
#X obj -145 593 spigot-toggle_orange;
#X obj -145 462 r s@pBA;
#X obj -145 537 r s@pBB;
#X obj -5 531 s ABtch;
#X obj -15 601 s BBtch;
#X obj -121 486 r sl_bngAB;
#X obj -124 567 r sl_bngBB;
#X obj 141 524 s sl_bngAB;
#X obj 141 549 s sl_bngBB;
#X floatatom 1618 594 2 0 0 0 - - -;
#X obj 1690 419 r trgrAafter;
#X obj 1665 442 spigot-toggle_vert;
#X obj 1665 463 spigot-toggle_red;
#X obj 1665 352 spigot-toggle_vert;
#X obj 1665 373 spigot-toggle_red;
#X obj 1619 529 r sl_trgAB;
#X obj 1619 557 r sl_trgBB;
#X obj 1667 195 r ABtch;
#X obj 1667 220 r BBtch;
#X obj 1620 617 s trgrtoenvonoffB;
#X obj 91 409 s ABonoff;
#X obj 290 370 s BBonoff;
#X obj 697 553 r ABonoff;
#X obj 718 588 r BBonoff;
#X obj 1531 585 r ABtch;
#X obj 1530 620 r BBtch;
#X floatatom 949 730 12 0 0 0 - - -;
#X obj 951 757 s Bmod;
#X obj 1383 54 r sl_trgAB;
#X obj 1385 82 r sl_trgBB;
#X obj 122 580 s sl_trgAB;
#X obj 123 606 s sl_trgBB;
#X obj 955 67 r ABonoff;
#X obj 955 92 r BBonoff;
#X obj -202 426 spigot-toggle_orange;
#X obj -174 427 r Abutton;
#X obj 952 328 + 0;
#X obj 213 638 r @reB;
#X obj 578 460 r @reB;
#X obj 524 518 r B@;
#X obj 955 8 sel;
#X obj 1066 35 bng 15 250 50 0 empty empty empty 17 7 0 10 -262144
-1 -1;
#X obj 1131 381 r ø@S1;
#X obj 190 43 spigot-toggle_orange;
#X obj 957 -19 r rawB;
#X obj 204 -8 r trgrmodB;
#X obj 1110 355 r SmplbangB;
#X obj 1222 289 r TSmplbangB;
#X obj 1424 320 r lo;
#X obj 489 -75 notein;
#X floatatom 514 -40 5 0 0 0 - - -;
#X floatatom 466 -40 5 0 0 0 - - -;
#X floatatom 559 -45 5 0 0 0 - - -;
#X obj 464 66 spigot-toggle_red;
#X obj 538 6 bng 15 250 50 0 empty empty empty 17 7 0 10 -262144 -1
-1;
#X obj 515 8 bng 15 250 50 0 empty empty empty 17 7 0 10 -262144 -1
-1;
#X obj 514 -21 sel;
#X obj 516 28 f;
#X obj 547 30 + 1;
#X floatatom 460 27 5 0 0 0 - - -;
#X obj 517 52 mod 2;
#X obj 466 -15 == 55;
#X obj 157 42 spigot-toggle_orange;
#X msg 1069 56 0;
#X floatatom 1273 187 5 0 0 0 - - -;
#X obj 1537 230 spigot-toggle_vert;
#X obj 1537 252 spigot-toggle_red;
#X obj 1533 293 s ITBAngSLCT;
#X obj 1536 159 r ITBAng_env0;
#X obj 1538 183 r ITBAng_env5;
#X obj 1249 -31 r ABonoff;
#X obj 1249 -6 r BBonoff;
#X obj 1562 -48 r ABonoff;
#X obj 1562 -23 r BBonoff;
#X obj 1646 -39 s AnB_Benv;
#X floatatom 1561 482 2 0 0 0 - - -;
#X obj 1690 442 r trgrBafter;
#X obj -67 343 spigot-toggle_orange;
#X obj -67 370 delay;
#X obj -63 319 sel;
#X msg -68 392 1;
#X obj -34 345 r t$mod1;
#X obj 185 -77 s TStrchonoffB;
#X obj 1690 329 r trgrA;
#X obj 1692 352 r trgrB;
#X obj 1698 388 s trgrBmod;
#X obj 1701 470 s trgrafterBmod;
#X obj 1076 747 f;
#X obj 1666 266 spigot-toggle_vert;
#X obj 1666 287 spigot-toggle_red;
#X obj 1693 266 r tglidelessB;
#X obj 1691 242 r tglidelessA;
#X obj 1699 301 s SELtglidelessB;
#X obj 285 207 cnv 3 26 51 empty empty empty 20 12 0 14 -1 -66577 0
;
#X obj 52 92 cnv 3 10 166 empty empty empty 20 12 0 14 -1 -66577 0
;
#X obj 0 90 cnv 2 209 2 empty empty empty 20 12 0 14 -1 -66577 0;
#X obj 196 133 cnv 2 7 128 empty empty empty 20 12 0 14 -1 -66577 0
;
#X obj 58 208 cnv 3 4 49 empty empty empty 20 12 0 14 -1 -66577 0;
#X obj 62 208 cnv 3 4 49 empty empty empty 20 12 0 14 -1 -66577 0;
#X obj 90 208 cnv 3 4 49 empty empty empty 20 12 0 14 -1 -66577 0;
#X obj 203 91 cnv 3 6 166 empty empty empty 20 12 0 14 -1 -66577 0
;
#X obj 144 131 cnv 3 60 5 empty empty empty 4 12 1 10 -1 -262144 0
;
#X obj 92 93 tgl 28 0 empty empty A 6 15 1 26 -1 -1 -1 0 1;
#X obj 172 208 tgl 25 0 empty empty empty 6 12 0 12 -1 -260097 -1 0
1;
#X obj 146 232 tgl 25 0 empty empty empty 6 12 0 12 -1 -260097 -1 0
1;
#X obj 172 232 tgl 25 0 empty empty empty 6 12 0 12 -1 -260097 -1 0
1;
#X obj 143 92 cnv 20 60 20 empty empty ↬------- 5 11 1 25 -1 -260097
0;
#X obj 196 114 cnv 2 7 128 empty empty empty 20 12 0 14 -1 -66577 0
;
#X obj 144 112 cnv 3 60 5 empty empty empty 4 12 1 10 -1 -262144 0
;
#X connect 1 0 17 0;
#X connect 1 0 274 0;
#X connect 2 0 16 0;
#X connect 3 0 18 0;
#X connect 4 0 9 0;
#X connect 5 0 8 0;
#X connect 5 0 355 0;
#X connect 8 0 10 0;
#X connect 9 0 10 0;
#X connect 10 0 118 0;
#X connect 10 0 7 0;
#X connect 11 0 13 0;
#X connect 11 0 279 1;
#X connect 11 0 168 0;
#X connect 12 0 6 0;
#X connect 12 0 272 0;
#X connect 12 0 378 0;
#X connect 14 0 119 0;
#X connect 14 0 196 0;
#X connect 14 0 126 0;
#X connect 15 0 84 0;
#X connect 15 0 100 0;
#X connect 15 0 249 0;
#X connect 16 0 279 0;
#X connect 17 0 11 0;
#X connect 18 0 279 0;
#X connect 19 0 11 0;
#X connect 20 0 26 0;
#X connect 20 0 123 0;
#X connect 21 0 24 0;
#X connect 22 0 23 0;
#X connect 23 0 33 0;
#X connect 24 0 23 1;
#X connect 24 0 67 1;
#X connect 25 0 271 1;
#X connect 26 0 27 0;
#X connect 27 1 30 0;
#X connect 28 0 74 0;
#X connect 29 0 61 0;
#X connect 30 0 31 0;
#X connect 30 1 22 0;
#X connect 31 0 32 0;
#X connect 32 0 25 0;
#X connect 33 0 32 1;
#X connect 34 0 100 0;
#X connect 35 0 94 0;
#X connect 36 0 89 0;
#X connect 37 0 34 1;
#X connect 37 0 35 1;
#X connect 37 0 36 1;
#X connect 37 0 38 1;
#X connect 38 0 90 0;
#X connect 39 0 103 0;
#X connect 39 0 104 0;
#X connect 39 0 125 0;
#X connect 47 0 48 0;
#X connect 48 0 121 0;
#X connect 49 0 71 0;
#X connect 50 0 71 0;
#X connect 51 0 327 1;
#X connect 52 0 327 1;
#X connect 53 0 271 0;
#X connect 54 0 55 1;
#X connect 54 0 266 1;
#X connect 54 0 62 1;
#X connect 55 0 62 0;
#X connect 55 0 378 1;
#X connect 56 0 58 0;
#X connect 57 0 58 0;
#X connect 58 0 84 0;
#X connect 58 0 262 1;
#X connect 59 0 167 0;
#X connect 60 0 123 0;
#X connect 61 0 21 0;
#X connect 61 1 21 1;
#X connect 62 0 317 0;
#X connect 63 0 64 0;
#X connect 64 0 65 0;
#X connect 65 0 317 0;
#X connect 66 0 63 1;
#X connect 67 0 66 0;
#X connect 68 0 69 0;
#X connect 68 1 70 0;
#X connect 69 0 63 0;
#X connect 70 0 67 0;
#X connect 71 0 327 0;
#X connect 72 1 73 0;
#X connect 74 0 21 0;
#X connect 75 0 76 0;
#X connect 76 0 74 1;
#X connect 77 0 74 1;
#X connect 78 0 15 0;
#X connect 79 0 49 0;
#X connect 79 0 51 0;
#X connect 80 0 131 0;
#X connect 80 0 134 0;
#X connect 80 0 325 1;
#X connect 80 0 334 0;
#X connect 80 0 311 0;
#X connect 80 0 294 0;
#X connect 81 0 155 0;
#X connect 81 0 334 0;
#X connect 81 0 353 0;
#X connect 81 0 284 0;
#X connect 81 0 85 0;
#X connect 81 0 295 0;
#X connect 81 0 312 0;
#X connect 81 0 370 0;
#X connect 82 0 52 1;
#X connect 82 0 144 0;
#X connect 83 0 51 1;
#X connect 83 0 146 0;
#X connect 84 0 71 1;
#X connect 84 0 262 1;
#X connect 85 0 166 0;
#X connect 85 0 289 1;
#X connect 85 0 299 0;
#X connect 86 0 164 0;
#X connect 86 0 321 0;
#X connect 86 0 368 1;
#X connect 87 0 162 0;
#X connect 87 0 322 0;
#X connect 87 0 368 1;
#X connect 88 0 56 1;
#X connect 88 0 113 0;
#X connect 88 0 150 0;
#X connect 89 0 81 0;
#X connect 89 0 138 0;
#X connect 90 0 81 0;
#X connect 90 0 140 0;
#X connect 90 0 123 0;
#X connect 91 0 57 1;
#X connect 91 0 122 0;
#X connect 91 0 148 0;
#X connect 91 0 334 1;
#X connect 91 0 373 0;
#X connect 92 0 111 0;
#X connect 93 0 47 0;
#X connect 93 0 353 1;
#X connect 94 0 81 0;
#X connect 94 0 136 0;
#X connect 94 0 85 0;
#X connect 94 0 123 0;
#X connect 95 0 249 0;
#X connect 95 0 251 0;
#X connect 95 0 157 0;
#X connect 96 0 132 0;
#X connect 97 0 124 0;
#X connect 97 0 142 0;
#X connect 98 0 154 0;
#X connect 98 0 131 0;
#X connect 98 0 290 1;
#X connect 98 0 59 1;
#X connect 99 0 152 0;
#X connect 99 0 85 0;
#X connect 99 0 291 1;
#X connect 99 0 60 1;
#X connect 100 0 128 0;
#X connect 100 0 127 0;
#X connect 101 0 71 1;
#X connect 101 0 327 1;
#X connect 101 0 262 1;
#X connect 102 0 34 0;
#X connect 103 0 36 0;
#X connect 104 0 38 0;
#X connect 105 0 59 0;
#X connect 106 0 60 0;
#X connect 107 0 60 0;
#X connect 108 0 59 0;
#X connect 109 0 59 0;
#X connect 110 0 60 0;
#X connect 112 0 39 0;
#X connect 114 0 88 0;
#X connect 115 0 65 1;
#X connect 116 0 72 0;
#X connect 117 0 29 0;
#X connect 120 0 28 0;
#X connect 125 0 35 0;
#X connect 131 0 160 0;
#X connect 131 0 288 1;
#X connect 131 0 298 0;
#X connect 132 0 14 0;
#X connect 133 0 80 0;
#X connect 135 0 94 0;
#X connect 137 0 89 0;
#X connect 139 0 90 0;
#X connect 141 0 97 0;
#X connect 143 0 82 0;
#X connect 143 0 84 0;
#X connect 145 0 83 0;
#X connect 145 0 84 0;
#X connect 147 0 91 0;
#X connect 147 0 84 0;
#X connect 149 0 88 0;
#X connect 149 0 84 0;
#X connect 151 0 99 0;
#X connect 153 0 98 0;
#X connect 156 0 81 0;
#X connect 158 0 95 0;
#X connect 159 0 131 0;
#X connect 161 0 87 0;
#X connect 163 0 86 0;
#X connect 165 0 85 0;
#X connect 169 0 210 0;
#X connect 170 0 231 0;
#X connect 171 0 181 0;
#X connect 171 0 187 0;
#X connect 171 0 236 0;
#X connect 172 0 231 0;
#X connect 173 0 176 0;
#X connect 174 0 193 0;
#X connect 174 0 176 0;
#X connect 174 0 173 0;
#X connect 175 0 173 1;
#X connect 175 0 174 0;
#X connect 176 0 231 0;
#X connect 177 0 172 0;
#X connect 177 1 178 0;
#X connect 178 0 170 0;
#X connect 179 0 177 0;
#X connect 180 0 179 0;
#X connect 180 0 246 0;
#X connect 181 0 189 0;
#X connect 181 0 169 0;
#X connect 182 0 185 0;
#X connect 183 0 182 1;
#X connect 184 0 188 0;
#X connect 184 0 218 0;
#X connect 184 0 183 0;
#X connect 184 0 194 0;
#X connect 185 0 231 0;
#X connect 186 0 255 0;
#X connect 187 0 193 0;
#X connect 188 0 208 0;
#X connect 189 0 267 0;
#X connect 192 0 191 0;
#X connect 192 0 229 0;
#X connect 192 0 230 0;
#X connect 193 0 190 0;
#X connect 193 0 192 0;
#X connect 194 0 201 1;
#X connect 194 0 200 1;
#X connect 195 0 209 1;
#X connect 196 0 197 1;
#X connect 197 0 195 0;
#X connect 198 0 197 0;
#X connect 199 0 200 0;
#X connect 199 1 201 0;
#X connect 200 0 206 0;
#X connect 201 0 204 0;
#X connect 202 0 207 0;
#X connect 202 1 203 0;
#X connect 203 0 232 0;
#X connect 204 0 202 0;
#X connect 204 0 221 1;
#X connect 205 0 215 0;
#X connect 206 0 220 0;
#X connect 207 0 233 0;
#X connect 208 0 198 0;
#X connect 209 0 214 0;
#X connect 210 0 209 0;
#X connect 211 0 213 0;
#X connect 211 0 235 0;
#X connect 212 0 187 1;
#X connect 212 0 194 0;
#X connect 212 0 214 1;
#X connect 212 0 189 1;
#X connect 213 0 212 0;
#X connect 214 0 229 0;
#X connect 215 0 236 0;
#X connect 215 0 255 0;
#X connect 216 0 189 1;
#X connect 217 0 169 1;
#X connect 217 0 189 1;
#X connect 217 0 229 1;
#X connect 218 0 215 1;
#X connect 219 0 214 1;
#X connect 220 0 221 0;
#X connect 221 0 205 0;
#X connect 222 0 232 0;
#X connect 222 0 234 0;
#X connect 223 0 230 1;
#X connect 224 0 225 0;
#X connect 224 0 267 0;
#X connect 225 0 224 1;
#X connect 226 0 227 0;
#X connect 227 0 213 0;
#X connect 228 0 231 0;
#X connect 229 0 71 0;
#X connect 230 0 327 1;
#X connect 231 0 171 0;
#X connect 231 1 182 0;
#X connect 231 1 222 0;
#X connect 238 0 239 1;
#X connect 239 0 255 0;
#X connect 240 0 239 0;
#X connect 241 0 240 0;
#X connect 242 0 243 1;
#X connect 243 0 255 0;
#X connect 244 0 243 0;
#X connect 245 0 244 0;
#X connect 246 0 247 0;
#X connect 247 0 238 0;
#X connect 247 0 242 0;
#X connect 247 0 100 0;
#X connect 248 0 50 0;
#X connect 248 0 52 0;
#X connect 250 0 95 0;
#X connect 252 0 85 0;
#X connect 253 0 131 0;
#X connect 254 0 186 0;
#X connect 254 0 224 0;
#X connect 255 0 186 1;
#X connect 255 0 175 0;
#X connect 256 0 261 0;
#X connect 257 0 258 0;
#X connect 257 0 279 0;
#X connect 258 0 256 0;
#X connect 259 0 257 0;
#X connect 259 0 262 0;
#X connect 260 0 55 0;
#X connect 261 0 260 0;
#X connect 262 0 263 0;
#X connect 263 0 256 0;
#X connect 263 1 256 1;
#X connect 264 0 265 0;
#X connect 265 0 266 1;
#X connect 266 0 55 0;
#X connect 267 0 237 0;
#X connect 268 0 332 0;
#X connect 269 0 57 0;
#X connect 270 0 56 0;
#X connect 271 0 266 0;
#X connect 273 0 281 0;
#X connect 273 0 280 0;
#X connect 273 0 283 0;
#X connect 274 0 273 0;
#X connect 275 0 273 0;
#X connect 276 0 277 0;
#X connect 277 0 11 0;
#X connect 277 0 55 1;
#X connect 278 0 273 1;
#X connect 278 0 286 0;
#X connect 279 0 12 0;
#X connect 280 0 131 0;
#X connect 281 0 85 0;
#X connect 282 0 19 0;
#X connect 282 0 275 0;
#X connect 283 0 287 0;
#X connect 287 0 285 0;
#X connect 288 0 290 0;
#X connect 289 0 291 0;
#X connect 290 0 294 0;
#X connect 291 0 295 0;
#X connect 292 0 288 0;
#X connect 293 0 289 0;
#X connect 296 0 288 1;
#X connect 297 0 289 1;
#X connect 300 0 310 0;
#X connect 301 0 302 0;
#X connect 302 0 366 0;
#X connect 302 0 377 0;
#X connect 303 0 366 0;
#X connect 303 0 377 0;
#X connect 304 0 376 0;
#X connect 305 0 376 0;
#X connect 306 0 300 0;
#X connect 307 0 300 0;
#X connect 308 0 304 1;
#X connect 308 0 302 1;
#X connect 308 0 379 1;
#X connect 309 0 305 1;
#X connect 309 0 303 1;
#X connect 309 0 380 1;
#X connect 313 0 68 0;
#X connect 314 0 68 0;
#X connect 315 0 283 1;
#X connect 315 0 274 1;
#X connect 315 0 280 1;
#X connect 316 0 283 1;
#X connect 316 0 275 1;
#X connect 316 0 281 1;
#X connect 317 0 318 0;
#X connect 317 0 96 0;
#X connect 319 0 17 1;
#X connect 320 0 19 1;
#X connect 320 0 276 0;
#X connect 323 0 50 1;
#X connect 323 0 331 0;
#X connect 324 0 49 1;
#X connect 325 0 284 0;
#X connect 326 0 325 0;
#X connect 327 0 53 0;
#X connect 328 0 72 0;
#X connect 329 0 75 0;
#X connect 330 0 29 1;
#X connect 330 0 20 0;
#X connect 331 1 101 0;
#X connect 332 0 354 0;
#X connect 333 0 257 1;
#X connect 333 0 261 1;
#X connect 334 0 148 0;
#X connect 335 0 331 0;
#X connect 336 0 100 0;
#X connect 337 0 259 0;
#X connect 337 0 264 0;
#X connect 339 0 277 0;
#X connect 339 0 279 1;
#X connect 340 0 342 0;
#X connect 340 1 341 0;
#X connect 340 2 343 0;
#X connect 341 0 347 0;
#X connect 342 0 352 0;
#X connect 344 0 91 0;
#X connect 346 0 348 0;
#X connect 347 0 346 0;
#X connect 347 1 345 0;
#X connect 348 0 349 0;
#X connect 348 0 351 0;
#X connect 349 0 348 1;
#X connect 350 0 344 0;
#X connect 351 0 350 0;
#X connect 352 0 344 1;
#X connect 353 0 100 0;
#X connect 354 0 271 1;
#X connect 354 0 84 0;
#X connect 357 0 358 0;
#X connect 359 0 356 0;
#X connect 360 0 357 0;
#X connect 361 0 9 1;
#X connect 361 0 16 1;
#X connect 362 0 8 1;
#X connect 362 0 18 1;
#X connect 363 0 356 1;
#X connect 363 0 365 0;
#X connect 364 0 357 1;
#X connect 364 0 365 0;
#X connect 366 0 62 1;
#X connect 367 0 303 0;
#X connect 368 0 369 0;
#X connect 369 0 371 0;
#X connect 370 0 368 0;
#X connect 371 0 100 0;
#X connect 372 0 369 1;
#X connect 374 0 304 0;
#X connect 375 0 305 0;
#X connect 379 0 383 0;
#X connect 380 0 383 0;
#X connect 381 0 380 0;
#X connect 382 0 379 0;
#X coords 0 -1 1 1 210 168 2 0 90;
