#N canvas 303 0 1137 878 12;
#X obj 1262 -17 r trgrA;
#X obj 1147 -10 r BB;
#X obj 1147 16 r BB1;
#X obj 1074 -30 r T$;
#X obj 1074 -4 r T1;
#X obj 1155 247 outlet;
#X obj 1079 230 outlet;
#X obj 1075 77 spigot-toggle_red;
#X obj 1075 48 spigot-toggle_vert;
#X floatatom 1076 138 5 0 0 0 - - -;
#X obj 1153 163 bng 15 250 50 0 empty empty empty 17 7 0 10 -262144
-1 -1;
#X floatatom 348 116 12 0 0 0 - - -;
#X msg -16 18 0;
#X obj 1150 48 spigot-toggle_vert;
#X obj 1149 71 spigot-toggle_red;
#X obj 46 939 spigot-toggle_orange;
#X obj 22 980 spigot-toggle_orange;
#X obj 25 1006 spigot-toggle_orange;
#X obj 28 1104 r lo;
#X obj 23 1039 spigot-toggle_orange;
#X obj -34 1016 tgl 22 0 empty empty loc 2 7 0 10 -262144 -1 -1 0 1
;
#X obj 6 -284 - 1;
#X obj 36 -284 * -1;
#X obj 667 189 spigot-toggle_red;
#X obj 666 161 spigot-toggle_vert;
#X obj 686 189 spigot-toggle_red;
#X obj 686 161 spigot-toggle_vert;
#X floatatom 668 306 8 0 3 0 - - -;
#X obj 860 157 spigot-toggle_jaunenoir;
#X obj 860 180 spigot-toggle_jaunenoir;
#X floatatom 862 204 12 0 0 0 - - -;
#X obj 166 616 spigot-toggle_orange;
#X obj 166 645 spigot-toggle_orange;
#X obj 668 223 + 0;
#X obj -16 -7 r lo;
#X obj 622 170 r B;
#X obj 59 132 tgl 28 0 empty empty A 6 15 1 26 -1 -262144 -262144 0
1;
#X obj 59 161 tgl 28 0 empty empty B 6 15 1 28 -1 -262144 -262144 0
1;
#X obj 131 132 tgl 28 0 empty empty A 7 14 1 22 -1 -262144 -262144
0 1;
#X obj 131 160 tgl 28 0 empty empty B 7 14 1 22 -1 -262144 -262144
0 1;
#X obj 159 161 tgl 28 0 empty empty • 5 14 1 50 -1 -260097 -260097
0 1;
#X obj 102 132 tgl 28 0 empty empty ❄ 6 14 0 26 -1 -262144 -262144
0 1;
#X obj 30 132 tgl 28 0 empty empty @ 2 14 1 26 -260097 -1 -1 0 1;
#X obj 30 161 tgl 28 0 empty empty ⤷@ -6 14 1 18 -260097 -1 -1 0
1;
#X obj 102 161 tgl 28 0 empty empty ❄ 6 14 0 26 -1 -262144 -262144
0 1;
#X obj 30 103 tgl 28 0 empty empty raw 4 12 1 14 -260097 -1 -45076
0 1;
#X floatatom 130 107 8 0 0 0 - - -;
#X obj 59 103 tgl 28 0 empty empty ๏ -4 10 1 50 -260097 -1 -1 1 1
;
#X msg 330 419 0;
#X obj 71 739 s trgrvolee1;
#X obj 444 134 outlet;
#X obj 159 132 tgl 28 0 empty empty • 5 14 1 50 -1 -260097 -260097
0 1;
#X obj 348 92 * 1;
#X obj 86 684 s trgrvolee;
#X obj 621 144 r A;
#X obj 667 386 spigot-toggle_vert;
#X obj 102 103 bng 28 250 50 0 empty empty +0 7 14 0 11 -1 -260097
-262144;
#X obj 860 127 r stretchB;
#X obj 859 106 r stretchA;
#X obj 666 356 + 0;
#X obj 1262 9 r trgrB;
#X floatatom 668 509 12 0 0 0 - - -;
#X obj -547 253 spigot-toggle_orange;
#X obj 669 252 + 0;
#X obj 313 392 sel;
#X obj 721 226 bng 15 250 50 0 empty empty empty 17 7 0 10 -262144
-1 -1;
#X obj 178 51 spigot-toggle_orange;
#X obj 381 -113 notein;
#X floatatom 406 -78 5 0 0 0 - - -;
#X floatatom 358 -78 5 0 0 0 - - -;
#X floatatom 451 -83 5 0 0 0 - - -;
#X obj 351 10 spigot-toggle_red;
#X obj 430 -32 bng 15 250 50 0 empty empty empty 17 7 0 10 -262144
-1 -1;
#X obj 407 -30 bng 15 250 50 0 empty empty empty 17 7 0 10 -262144
-1 -1;
#X obj 406 -59 sel;
#X obj 408 -10 f;
#X obj 439 -8 + 1;
#X floatatom 352 -11 5 0 0 0 - - -;
#X obj 409 14 mod 2;
#X obj 177 24 spigot-toggle_orange;
#X msg 708 245 0;
#X obj 113 506 spigot-toggle_orange;
#X obj 113 533 delay;
#X obj 117 482 sel;
#X msg 112 555 1;
#X obj 1 132 tgl 28 0 empty empty ∞ 6 15 2 25 -1 -260097 -260097
0 1;
#X obj 1 103 tgl 28 0 empty empty >๏ 5 13 1 15 -1 -260097 -260097
0 1;
#X obj 188 249 tgl 28 0 empty empty 0 9 15 1 14 -1 -4034 -4034 0 1
;
#X obj 1 161 tgl 28 0 empty empty @ 6 15 1 18 -1 -260097 -260097 0
1;
#X obj 188 132 tgl 28 0 empty empty ◐ 7 14 1 14 -1 -260097 -260097
0 1;
#X obj 188 161 tgl 28 0 empty empty ◐ 7 14 1 14 -1 -260097 -260097
0 1;
#X obj 188 191 tgl 28 0 empty empty Ⓜ 8 15 1 12 -1 -260097 -260097
0 1;
#X obj 188 220 tgl 28 0 empty empty Ⓜ 8 15 1 12 -1 -260097 -260097
0 1;
#X obj 159 220 tgl 28 0 empty empty • 6 14 1 50 -1 -260097 -260097
0 1;
#X obj 159 191 tgl 28 0 empty empty • 6 14 1 50 -1 -260097 -260097
0 1;
#X obj 805 327 spigot-toggle_vert;
#X obj 807 308 bng 15 250 50 0 empty empty empty 17 7 0 10 -262144
-1 -1;
#X obj 755 327 - 1;
#X obj 754 350 * -1;
#X obj 804 350 f;
#X obj 1154 337 spigot-toggle_vert;
#X obj 1154 358 spigot-toggle_red;
#X obj 1076 360 spigot-toggle_red;
#X obj 1076 337 spigot-toggle_vert;
#X obj 86 63 r 0+B;
#X obj 1263 49 spigot-toggle_vert;
#X obj 1265 78 spigot-toggle_red;
#X obj 1265 337 spigot-toggle_vert;
#X obj 1265 358 spigot-toggle_red;
#X obj 188 278 tgl 28 0 empty empty • 4 15 1 50 -1 -4034 -4034 0
1;
#X obj 176 213 cnv 5 1 2 empty empty ω+♪ 1 6 0 13 -1 -260097 0;
#X obj 92 886 spigot-toggle_orange;
#X obj -474 209 s Bbutton;
#X obj -131 9 f;
#X obj -130 36 f;
#X obj -130 -23 sel;
#X msg 63 10 0;
#X obj 217 19 r lo;
#X text -487 -334 raw = data from step sequencer A;
#X text -478 -313 @ = where you are + data from step sequencer A;
#X text -487 -296 ⤷@ = repeat @;
#X text -481 -276 orange on black @ = back where you were before looping
;
#X text -473 -249 ∞ = press to loop and press again stop looping
;
#X text -478 -229 >๏ = stop playing at release;
#X text -477 -134 ◐ = step off = silence;
#X text -479 -116 • = send bang to from A or B;
#X text -507 -375 AB \, AB = ⤷@ \, @ \, raw \, will select A on this
layer;
#X text -571 -95 right column ∗ = lauch the step sequencer according
to audio mod source selection;
#X text -575 -57 right column • = send enveloppe according to audio
mod source selection;
#X text -477 -211 ☞ = time stretching \; data source sliding forward
or backward trought the whole lenght of the sample A/V. Adjuste the
parametres in the module below this one called stretch A2;
#X text -473 -355 ๏ = ON/OFF;
#X text -447 -424 column on the left: source selected A \, B \, column
on the right: modulation of A \, B by A or B and ☞ ( time stretching)
;
#X text 1097 430 send env from audio mod;
#X text 992 452 right column ∗ = lauch the step sequencer according
to audio mod source selection;
#X text 988 490 right column • = send enveloppe according to audio
mod source selection;
#X text 1149 -34 bang;
#X text 1069 -57 speed;
#X text 1320 -99 ◐ = silence or not;
#X text 579 -73 playback position/ENTRY POINT;
#X obj -478 82 r lo;
#X msg -479 113 0;
#X obj 1443 46 spigot-toggle_vert;
#X obj 1445 75 spigot-toggle_red;
#X obj 1445 337 spigot-toggle_vert;
#X obj 1445 358 spigot-toggle_red;
#X obj 1442 6 r trgrafterB;
#X obj 1441 -19 r trgrafterA;
#X obj 1319 -7 spigot-toggle_vert;
#X obj 1321 22 spigot-toggle_red;
#X obj 669 276 + 0;
#X obj 409 521 - 0;
#X floatatom 409 546 8 0 3 0 - - -;
#X floatatom 348 487 5 0 0 0 - - -;
#X floatatom 501 501 8 0 3 0 - - -;
#X obj 409 468 spigot-toggle_vert;
#X obj 408 494 t b f;
#X obj 381 760 f;
#X floatatom 380 785 8 0 3 0 - - -;
#X obj 497 678 spigot-toggle_vert;
#X floatatom 399 737 8 0 0 0 - - -;
#X obj 400 712 f;
#X obj 400 667 sel;
#X obj 381 739 bng 15 250 50 0 empty empty empty 17 7 0 10 -262144
-1 -1;
#X obj 400 694 bng 15 250 50 0 empty empty empty 17 7 0 10 -262144
-1 -1;
#X obj 499 745 f;
#X obj 499 711 delay;
#X obj 499 769 sel;
#X obj 638 745 f;
#X obj 638 769 sel;
#X obj 638 791 bng 15 250 50 0 empty empty empty 17 7 0 10 -262144
-1 -1;
#X obj 638 713 delay;
#X obj 497 618 spigot-toggle_vert;
#X obj 365 537 bng 15 250 50 0 empty empty empty 17 7 0 10 -262144
-1 -1;
#X obj 365 559 f;
#X obj 348 510 sel;
#X text 328 585 record $ when press A@;
#X text 325 603 recall this $ @reA;
#X text 280 808 + go back to time line @A when @reA is released;
#X obj 524 72 f;
#X obj 507 22 sel;
#X obj 524 49 bng 15 250 50 0 empty empty empty 17 7 0 10 -262144 -1
-1;
#X obj 508 -5 spigot-toggle_vert;
#X obj 778 107 sel;
#X obj 795 130 bng 15 250 50 0 empty empty empty 17 7 0 10 -262144
-1 -1;
#X obj 772 130 bng 15 250 50 0 empty empty empty 17 7 0 10 -262144
-1 -1;
#X obj -105 -76 - 1;
#X obj -106 -53 * -1;
#X obj 288 437 f;
#X obj 289 418 bng 15 250 50 0 empty empty empty 17 7 0 10 -262144
-1 -1;
#X floatatom 288 462 8 0 3 0 - - -;
#X obj 767 6 r lo;
#X obj 818 44 spigot-toggle_jaunenoir;
#X obj 837 43 spigot-toggle_jaunenoir;
#X obj 159 278 tgl 28 0 bonkdowntoenvA empty • 6 15 1 50 -1 -260097
-260097 0 1;
#X obj 159 249 tgl 28 0 bonkuptoenvA empty • 6 15 1 50 -1 -260097
-260097 0 1;
#X obj 166 275 cnv 5 1 2 empty empty ∝ 1 2 0 21 -1 -260097 0;
#X obj 1 278 tgl 28 0 empty empty ⥁ 1 12 1 28 -1 -260097 -260097
0 1;
#X obj 158 189 cnv 5 58 6 empty empty empty 20 12 0 14 -1 -66577 0
;
#X obj 346 312 sel 64;
#X obj 376 401 bng 15 250 50 0 empty empty empty 17 7 0 10 -262144
-1 -1;
#X floatatom -262 438 5 0 0 0 - - -;
#X obj -261 380 sel;
#X obj -264 344 r lo;
#X msg -265 466 color \$1 22;
#X msg -263 410 22;
#X msg -226 411 30;
#X obj 188 103 tgl 28 0 empty empty empty 8 15 1 14 -1 -1 -1 0 1;
#X obj 87 105 vsl 14 138 0 100 0 0 empty empty + 5 56 0 12 -1 -262144
-262144 0 1;
#X obj 129 123 cnv 7 58 10 empty empty empty 18 -28 2 25 -1 -260097
0;
#X obj 129 99 cnv 7 58 10 empty empty empty 18 -28 2 25 -1 -260097
0;
#X obj 188 99 tgl 28 0 empty empty empty 8 15 1 14 -1 -1 -1 0 1;
#X obj 0 304 cnv 6 216 12 empty empty empty 20 12 0 22 -1 -66577 0
;
#X obj 0 90 cnv 6 216 12 empty empty playback_point 120 10 0 10 -1
-260097 0;
#X obj 59 249 tgl 28 0 empty empty empty 8 15 1 14 -1 -1 -1 0 1;
#X msg 243 46 100;
#X obj 131 247 tgl 28 0 empty empty empty 8 15 1 14 -1 -1 -1 0 1;
#X obj 131 276 tgl 28 0 empty empty empty 8 15 1 14 -1 -1 -1 0 1;
#X obj 30 278 tgl 28 0 empty empty empty 8 15 1 14 -1 -1 -1 0 1;
#X obj 59 278 tgl 28 0 empty empty empty 8 15 1 14 -1 -1 -1 0 1;
#X obj 1 249 tgl 28 0 empty empty empty 8 15 1 14 -1 -1 -1 0 1;
#X obj 0 193 tgl 28 0 empty empty empty 8 15 1 14 -1 -1 -1 0 1;
#X obj 86 247 tgl 28 0 empty empty empty 8 15 1 14 -1 -1 -1 0 1;
#X obj 115 247 tgl 28 0 empty empty empty 8 15 1 14 -1 -1 -1 0 1;
#X obj -561 230 r Bbutton;
#X obj -267 496 s tmstrtchAvisu;
#X obj -479 175 s Abutton;
#X obj -449 140 s opaonoffA;
#X obj -362 136 s øAtiTS1;
#X obj -346 170 s AAonoff;
#X obj -346 197 s BAonoff;
#X obj -346 224 s sl_trgA;
#X obj -346 250 s sl_trgB;
#X obj -256 224 s sl_bngA;
#X obj -256 250 s sl_bngB;
#X obj -262 196 s ABbuton;
#X obj -275 138 s >stop;
#X obj -215 139 s rawA;
#X obj -154 139 s rawloopA;
#X obj -178 169 s locA;
#X obj -122 167 s A@;
#X obj -78 270 s @A;
#X obj -63 127 s 0+A;
#X obj 84 939 onoff0x;
#X obj 83 962 onoff1x;
#X obj 85 990 onoff6x;
#X obj 84 1015 onoff3x;
#X obj 83 1039 onoff7x;
#X obj -6 927 r locA;
#X obj 175 734 r s&pAa;
#X obj 167 757 r speedAa;
#X obj 167 778 r pitchAa;
#X obj 166 812 r s&pBa;
#X obj 166 837 r speedBa;
#X obj 166 862 r pitchBa;
#X obj 314 343 r BAonoff;
#X obj 258 215 s envAAM;
#X obj 257 239 s envBAM;
#X obj 157 354 r envFRMsmplsendA;
#X obj 156 376 r envFRMsmplsendB;
#X obj 180 399 s envFRMsmplsendA;
#X obj -163 198 s @reA;
#X obj 189 615 r AAonoff;
#X obj 185 647 r BAonoff;
#X obj 502 476 r playbackA;
#X obj 498 559 r BBmod;
#X obj 584 625 r T$mod;
#X obj 638 811 s restartenv;
#X obj 670 533 s Amod;
#X obj 807 286 r SmplbangA;
#X obj 756 286 r ø@S;
#X obj 315 365 r rawA;
#X obj 348 139 s posA;
#X obj 530 -2 r >stop;
#X obj 1078 201 s T$mod;
#X obj 815 7 r trgrmidirecmodulA;
#X obj 1186 202 s BBmod;
#X obj 1264 202 s trgrmodenvA;
#X obj 1444 199 s trgraftermodA;
#X obj 1496 319 r envAAM;
#X obj 1496 342 r envBAM;
#X obj 1584 30 r AAonoff;
#X obj 1584 58 r BAonoff;
#X obj 672 64 r AAonoff;
#X obj 667 99 r BAonoff;
#X obj 344 278 r recmodulenvA;
#X obj 1317 136 s trgraftermodoffA;
#X obj 503 642 r @reA;
#X obj 506 587 r @A;
#X obj 550 726 r AAonoff;
#X obj -162 107 s ø@S;
#X obj 7 -345 s @A;
#X obj 5 -316 r send_@A;
#X obj 30 -253 s øAtiTS1>ø;
#X obj 105 -324 s reposetoinoffA;
#X obj 107 -350 r send_reposetoinoffA;
#X obj 101 -368 s reposetoinoffAB;
#X obj 102 -395 r send_reposetoinoffAB;
#X obj 99 -420 s reposetoinoffAA;
#X obj 99 -447 r send_reposetoinoffAA;
#X obj 75 -474 r send_modAB;
#X obj 75 -495 r send_modAA;
#X obj 21 -519 r send_@reA;
#X obj 19 -561 r send_A@;
#X obj 16 -604 r send_rawA;
#X obj 54 -680 r send_ABbuton;
#X obj 53 -729 r send_AA;
#X obj 183 -546 s AøB;
#X obj 183 -570 r send_AøB;
#X obj 183 -598 s AøA;
#X obj 183 -628 r send_AøA;
#X obj 154 -727 s save_BngAA;
#X obj 182 -859 s save_BngAB;
#X obj 153 -759 r send_save_trgAB;
#X obj 182 -887 r send_save_trgAA;
#X obj 154 -710 r send_save_BngAA;
#X obj 182 -839 r send_save_BngAB;
#X obj 152 -781 s save_trgAB;
#X obj 182 -908 s save_trgAA;
#X obj 193 -246 r send_save_ø@S;
#X obj 193 -222 s save_ø@S;
#X obj 194 -197 r send_save_dataposA;
#X obj 194 -175 s save_dataposA;
#X obj 1156 -84 r sl_bngA;
#X obj 1156 -58 r sl_bngB;
#X obj 1327 -72 r sl_trgA;
#X obj 1329 -44 r sl_trgB;
#X obj 146 508 r T$mod;
#X obj 1 190 manualposloopmidiA;
#X obj -401 344 r reposetoinoffAA;
#X obj 418 441 r A@;
#X obj 410 417 r A;
#X obj 100 188 stretchA;
#X obj 358 -52 == 52;
#X obj 720 200 r 0+A;
#X floatatom 683 -10 5 0 0 0 - - -;
#X obj 659 12 r AAonoff;
#X obj 656 41 + 0;
#X obj 688 43 t b f;
#X obj 682 -36 r send_rawA;
#X obj 86 276 tgl 28 0 empty empty empty 8 15 1 14 -1 -1 -1 0 1;
#X obj 115 276 tgl 28 0 empty empty empty 8 15 1 14 -1 -1 -1 0 1;
#X connect 0 0 105 0;
#X connect 0 0 107 0;
#X connect 0 0 147 0;
#X connect 1 0 13 0;
#X connect 1 0 100 0;
#X connect 2 0 14 0;
#X connect 2 0 101 0;
#X connect 3 0 8 0;
#X connect 3 0 103 0;
#X connect 4 0 7 0;
#X connect 4 0 102 0;
#X connect 4 0 192 0;
#X connect 7 0 9 0;
#X connect 8 0 9 0;
#X connect 9 0 6 0;
#X connect 9 0 273 0;
#X connect 10 0 5 0;
#X connect 10 0 275 0;
#X connect 11 0 50 0;
#X connect 11 0 178 1;
#X connect 11 0 271 0;
#X connect 12 0 86 0;
#X connect 12 0 45 0;
#X connect 12 0 207 0;
#X connect 12 0 289 0;
#X connect 13 0 10 0;
#X connect 14 0 10 0;
#X connect 15 0 45 0;
#X connect 16 0 42 0;
#X connect 17 0 43 0;
#X connect 18 0 15 1;
#X connect 18 0 16 1;
#X connect 18 0 17 1;
#X connect 18 0 19 1;
#X connect 18 0 111 1;
#X connect 19 0 37 0;
#X connect 20 0 244 0;
#X connect 20 0 245 0;
#X connect 20 0 246 0;
#X connect 20 0 243 0;
#X connect 21 0 22 0;
#X connect 22 0 292 0;
#X connect 23 0 33 0;
#X connect 24 0 33 0;
#X connect 25 0 63 1;
#X connect 26 0 63 1;
#X connect 27 0 59 0;
#X connect 28 0 30 0;
#X connect 29 0 30 0;
#X connect 30 0 33 1;
#X connect 31 0 53 0;
#X connect 32 0 49 0;
#X connect 33 0 63 0;
#X connect 34 0 12 0;
#X connect 35 0 23 0;
#X connect 35 0 25 0;
#X connect 36 0 51 0;
#X connect 36 0 66 0;
#X connect 36 0 185 0;
#X connect 36 0 225 0;
#X connect 36 0 228 0;
#X connect 37 0 66 0;
#X connect 37 0 79 0;
#X connect 37 0 40 0;
#X connect 37 0 83 0;
#X connect 37 0 62 1;
#X connect 37 0 225 0;
#X connect 37 0 229 0;
#X connect 37 0 234 0;
#X connect 38 0 26 1;
#X connect 39 0 25 1;
#X connect 40 0 233 0;
#X connect 40 0 316 0;
#X connect 41 0 28 1;
#X connect 41 0 293 0;
#X connect 41 0 297 0;
#X connect 42 0 239 0;
#X connect 42 0 36 0;
#X connect 43 0 260 0;
#X connect 43 0 36 0;
#X connect 44 0 29 1;
#X connect 44 0 66 1;
#X connect 44 0 295 0;
#X connect 45 0 236 0;
#X connect 45 0 36 0;
#X connect 46 0 52 0;
#X connect 47 0 113 1;
#X connect 47 0 226 0;
#X connect 47 0 227 0;
#X connect 48 0 59 1;
#X connect 51 0 232 0;
#X connect 51 0 310 0;
#X connect 52 0 11 0;
#X connect 54 0 24 0;
#X connect 54 0 26 0;
#X connect 54 0 191 0;
#X connect 55 0 61 0;
#X connect 56 0 241 0;
#X connect 57 0 29 0;
#X connect 58 0 28 0;
#X connect 59 0 55 0;
#X connect 60 0 106 0;
#X connect 60 0 108 0;
#X connect 60 0 148 0;
#X connect 61 0 46 0;
#X connect 61 0 267 0;
#X connect 62 0 225 0;
#X connect 63 0 149 0;
#X connect 64 0 188 0;
#X connect 64 1 48 0;
#X connect 65 0 80 0;
#X connect 66 0 295 0;
#X connect 67 0 69 0;
#X connect 67 1 68 0;
#X connect 67 2 70 0;
#X connect 68 0 74 0;
#X connect 69 0 332 0;
#X connect 71 0 41 0;
#X connect 73 0 75 0;
#X connect 74 0 73 0;
#X connect 74 1 72 0;
#X connect 75 0 76 0;
#X connect 75 0 78 0;
#X connect 76 0 75 1;
#X connect 77 0 71 0;
#X connect 78 0 77 0;
#X connect 79 0 47 0;
#X connect 80 0 33 1;
#X connect 80 0 30 0;
#X connect 80 0 149 1;
#X connect 80 0 63 1;
#X connect 81 0 82 0;
#X connect 82 0 84 0;
#X connect 83 0 81 0;
#X connect 84 0 47 0;
#X connect 85 0 238 0;
#X connect 86 0 79 1;
#X connect 86 0 21 0;
#X connect 86 0 115 0;
#X connect 86 0 235 0;
#X connect 87 0 289 0;
#X connect 87 0 319 0;
#X connect 87 0 321 0;
#X connect 88 0 240 0;
#X connect 88 0 290 0;
#X connect 89 0 81 1;
#X connect 89 0 230 0;
#X connect 89 0 317 0;
#X connect 90 0 81 1;
#X connect 90 0 231 0;
#X connect 90 0 311 0;
#X connect 91 0 31 1;
#X connect 91 0 308 0;
#X connect 92 0 32 1;
#X connect 92 0 306 0;
#X connect 93 0 256 0;
#X connect 94 0 112 0;
#X connect 94 0 255 0;
#X connect 95 0 99 0;
#X connect 96 0 95 0;
#X connect 97 0 98 0;
#X connect 98 0 55 1;
#X connect 99 0 61 0;
#X connect 100 0 10 0;
#X connect 101 0 10 0;
#X connect 102 0 6 0;
#X connect 102 0 273 0;
#X connect 103 0 6 0;
#X connect 103 0 273 0;
#X connect 104 0 207 0;
#X connect 105 0 276 0;
#X connect 106 0 276 0;
#X connect 107 0 276 0;
#X connect 108 0 276 0;
#X connect 109 0 259 0;
#X connect 111 0 47 0;
#X connect 113 0 114 1;
#X connect 114 0 47 0;
#X connect 115 0 114 0;
#X connect 115 1 113 0;
#X connect 116 0 90 0;
#X connect 117 0 116 0;
#X connect 117 0 214 0;
#X connect 139 0 140 0;
#X connect 140 0 225 0;
#X connect 141 0 277 0;
#X connect 142 0 277 0;
#X connect 143 0 277 0;
#X connect 144 0 277 0;
#X connect 145 0 142 0;
#X connect 145 0 144 0;
#X connect 146 0 141 0;
#X connect 146 0 143 0;
#X connect 147 0 285 0;
#X connect 148 0 285 0;
#X connect 149 0 27 0;
#X connect 150 0 151 0;
#X connect 151 0 173 1;
#X connect 152 0 174 0;
#X connect 153 0 160 1;
#X connect 153 0 150 0;
#X connect 154 0 155 0;
#X connect 155 0 150 0;
#X connect 155 1 150 1;
#X connect 156 0 157 0;
#X connect 157 0 61 0;
#X connect 158 0 165 0;
#X connect 159 0 156 1;
#X connect 160 0 159 0;
#X connect 161 1 163 0;
#X connect 162 0 156 0;
#X connect 163 0 160 0;
#X connect 164 0 166 0;
#X connect 165 0 164 0;
#X connect 166 0 162 0;
#X connect 167 0 168 0;
#X connect 168 0 169 0;
#X connect 169 0 266 0;
#X connect 170 0 167 0;
#X connect 171 0 158 0;
#X connect 172 0 173 0;
#X connect 173 0 59 1;
#X connect 173 0 187 1;
#X connect 174 1 172 0;
#X connect 178 0 271 0;
#X connect 179 1 180 0;
#X connect 180 0 178 0;
#X connect 181 0 179 0;
#X connect 182 0 184 0;
#X connect 182 1 183 0;
#X connect 183 0 65 0;
#X connect 185 0 186 0;
#X connect 186 0 115 0;
#X connect 187 0 189 0;
#X connect 188 0 187 0;
#X connect 189 0 59 1;
#X connect 191 0 33 0;
#X connect 192 0 9 0;
#X connect 196 0 237 0;
#X connect 198 1 199 0;
#X connect 199 0 48 0;
#X connect 200 0 203 0;
#X connect 201 0 204 0;
#X connect 201 1 205 0;
#X connect 202 0 204 0;
#X connect 203 0 224 0;
#X connect 204 0 200 0;
#X connect 205 0 200 0;
#X connect 207 0 99 1;
#X connect 207 0 149 1;
#X connect 214 0 207 0;
#X connect 223 0 62 0;
#X connect 242 0 111 0;
#X connect 243 0 15 0;
#X connect 244 0 16 0;
#X connect 245 0 17 0;
#X connect 246 0 19 0;
#X connect 247 0 20 0;
#X connect 248 0 31 0;
#X connect 249 0 31 0;
#X connect 250 0 31 0;
#X connect 251 0 32 0;
#X connect 252 0 32 0;
#X connect 253 0 32 0;
#X connect 254 0 64 0;
#X connect 257 0 51 0;
#X connect 258 0 40 0;
#X connect 261 0 31 0;
#X connect 262 0 32 0;
#X connect 263 0 153 0;
#X connect 264 0 171 0;
#X connect 264 0 170 0;
#X connect 265 0 170 1;
#X connect 265 0 165 1;
#X connect 268 0 96 0;
#X connect 269 0 95 1;
#X connect 269 0 97 0;
#X connect 270 0 64 0;
#X connect 272 0 181 1;
#X connect 274 0 191 1;
#X connect 274 0 192 1;
#X connect 278 0 100 1;
#X connect 278 0 103 1;
#X connect 278 0 107 1;
#X connect 278 0 143 1;
#X connect 279 0 101 1;
#X connect 279 0 102 1;
#X connect 279 0 144 1;
#X connect 279 0 108 1;
#X connect 280 0 8 1;
#X connect 280 0 13 1;
#X connect 280 0 105 1;
#X connect 280 0 141 1;
#X connect 281 0 7 1;
#X connect 281 0 14 1;
#X connect 281 0 106 1;
#X connect 281 0 142 1;
#X connect 283 0 23 1;
#X connect 283 0 181 0;
#X connect 283 0 182 0;
#X connect 284 0 198 0;
#X connect 286 0 158 1;
#X connect 286 0 161 0;
#X connect 287 0 171 1;
#X connect 288 0 164 1;
#X connect 288 0 167 1;
#X connect 291 0 88 0;
#X connect 294 0 41 0;
#X connect 296 0 44 0;
#X connect 296 0 207 0;
#X connect 298 0 41 0;
#X connect 298 0 207 0;
#X connect 299 0 39 0;
#X connect 299 0 207 0;
#X connect 300 0 38 0;
#X connect 300 0 207 0;
#X connect 301 0 43 0;
#X connect 302 0 42 0;
#X connect 303 0 45 0;
#X connect 304 0 37 0;
#X connect 305 0 36 0;
#X connect 307 0 92 0;
#X connect 309 0 91 0;
#X connect 312 0 40 0;
#X connect 313 0 89 0;
#X connect 314 0 51 0;
#X connect 315 0 90 0;
#X connect 318 0 87 0;
#X connect 320 0 87 0;
#X connect 322 0 13 1;
#X connect 323 0 14 1;
#X connect 324 0 147 1;
#X connect 325 0 148 1;
#X connect 326 0 82 1;
#X connect 328 0 201 0;
#X connect 329 0 154 1;
#X connect 329 0 152 0;
#X connect 330 0 154 0;
#X connect 332 0 71 1;
#X connect 333 0 65 0;
#X connect 334 0 336 1;
#X connect 334 0 337 0;
#X connect 335 0 336 0;
#X connect 336 0 24 1;
#X connect 337 0 336 0;
#X connect 337 1 336 1;
#X connect 338 0 334 0;
#X coords 0 -1 1 1 217 227 2 0 90;
