#N canvas 214 424 750 439 12;
#X text 596 832 TIME COMPRESSION/EXPANSION BY LOOPED SAMPLING;
#X text -1715 980 We've changed the control for "chunk size" to milliseconds
for added convenience \, and delayed multiplying sample location by
the sample rate (44100) until the last moment \, so that calculations
using "read-pt" and "chunk size" can be in the same units (seconds.)
;
#X obj 1250 204 r trgrB;
#X obj 1193 168 r BB;
#X obj 1196 194 r BB1;
#X obj 1145 175 r T$;
#X obj 1144 197 r T1;
#X obj 1201 321 spigot-toggle_vert;
#X obj 1210 441 outlet;
#X obj 1156 440 outlet;
#X obj 1149 265 spigot-toggle_red;
#X obj 1149 243 spigot-toggle_vert;
#X floatatom 1145 346 5 0 0 0 - - -;
#X floatatom 1272 351 2 0 0 0 - - -;
#X obj 1203 349 bng 15 250 50 0 empty empty empty 17 7 0 10 -262144
-1 -1;
#X obj 1369 410 outlet;
#X floatatom 315 452 12 0 0 0 - - -;
#X obj 245 51 r lo;
#X msg 241 81 0;
#X obj 315 475 outlet;
#X obj 1193 243 spigot-toggle_vert;
#X obj 1266 243 spigot-toggle_vert;
#X obj 1193 265 spigot-toggle_red;
#X obj 1265 265 spigot-toggle_red;
#X obj 380 598 r A;
#X obj 319 625 tgl 15 0 empty empty empty 17 7 0 10 -262144 -1 -1 0
1;
#X obj 439 524 r posvisu;
#X obj 380 681 - 0;
#X obj 363 753 bng 15 250 50 0 empty empty empty 17 7 0 10 -262144
-1 -1;
#X obj 362 777 f;
#X floatatom 380 706 8 0 3 0 - - -;
#X floatatom 316 816 8 0 3 0 - - -;
#X floatatom 317 647 5 0 0 0 - - -;
#X obj 319 675 sel 0;
#X floatatom 440 547 8 0 3 0 - - -;
#X obj 204 819 s trgrvolee;
#X obj 380 628 spigot-toggle_vert;
#X obj 319 703 t b b;
#X obj 316 761 bng 15 250 50 0 empty empty empty 17 7 0 10 -262144
-1 -1;
#X obj 315 789 f;
#X floatatom 329 733 8 0 3 0 - - -;
#X obj 54 940 spigot-toggle_orange;
#X obj 53 964 spigot-toggle_orange;
#X obj 53 988 spigot-toggle_orange;
#X obj 62 893 r lo;
#X obj 53 1010 spigot-toggle_orange;
#X obj 24 976 tgl 15 0 empty empty loc 2 7 0 10 -262144 -1 -1 0 1;
#X obj 78 936 onoff0x;
#X obj 77 984 onoff2x;
#X obj 76 1009 onoff3x;
#X text -1138 930 >ø = stop at release;
#X text 607 927 when one of above is select it can be played as;
#X text 608 854 ø = ON/OFF \, 1 push: on second push : off;
#X text -1138 950 loc = reminds what you were doing \; 1st push: scd
push : off;
#X obj 77 960 onoff1x;
#X obj 1152 412 s T$mod;
#X obj 643 82 r A;
#X obj 648 176 spigot-toggle_red;
#X obj 648 149 spigot-toggle_vert;
#X obj 676 176 spigot-toggle_red;
#X obj 676 149 spigot-toggle_vert;
#X floatatom 649 322 8 0 3 0 - - -;
#X obj 660 520 r lo;
#X obj 652 579 spigot-toggle_red;
#X obj 791 148 spigot-toggle_jaunenoir;
#X obj 791 175 spigot-toggle_jaunenoir;
#X obj 811 177 r line_pause1;
#X floatatom 792 260 12 0 0 0 - - -;
#X obj 177 821 spigot-toggle_orange;
#X obj 178 849 spigot-toggle_orange;
#X obj 379 654 t b f;
#X obj 652 348 + 0;
#X obj 651 610 spigot-toggle_red;
#X obj 552 763 f;
#X floatatom 549 792 8 0 3 0 - - -;
#X obj 550 842 spigot-toggle_vert;
#X floatatom 485 791 8 0 3 0 - - -;
#X obj 497 763 f;
#X obj 502 714 sel;
#X obj 549 734 bng 15 250 50 0 empty empty empty 17 7 0 10 -262144
-1 -1;
#X obj 498 738 bng 15 250 50 0 empty empty empty 17 7 0 10 -262144
-1 -1;
#X obj 653 269 + 0;
#X obj 79 761 sel;
#X msg 80 782 1;
#X obj 199 849 s trgrvolee1;
#X obj 71 324 r lo;
#X obj 438 671 spigot-toggle_red;
#X obj 448 608 - 1;
#X obj 447 631 * -1;
#X obj 559 813 r @A;
#X obj 458 671 r lo;
#X obj 187 658 s TmstrchBTR;
#X obj 138 -580 r TRGnB_@sB;
#X obj 138 -602 r TRGnB_@sA;
#X obj 90 129 tgl 28 0 empty empty A 6 15 1 26 -1 -262144 -262144 0
1;
#X obj 90 158 tgl 28 0 empty empty B 6 15 1 26 -1 -262144 -262144 0
1;
#X obj 141 136 tgl 25 0 empty empty A 6 12 1 22 -1 -262144 -262144
0 1;
#X obj 141 162 tgl 25 0 empty empty B 6 12 1 22 -1 -262144 -262144
0 1;
#X obj 116 127 vsl 25 85 0 1 0 0 empty empty mod 3 72 0 11 -16662 -260097
-260097 0 1;
#X obj 90 240 tgl 25 0 empty empty • 4 13 1 50 -1 -260097 -260097
0 1;
#X obj 63 216 tgl 25 0 empty empty ◐ 6 13 1 14 -1 -260097 -260097
0 1;
#X obj 63 240 tgl 25 0 empty empty ◐ 6 13 1 14 -1 -260097 -260097
0 1;
#X obj 167 136 tgl 25 0 empty empty ☞ 8 12 0 27 -1 -262144 -262144
0 1;
#X obj 61 158 tgl 28 0 empty empty @ 2 14 1 26 -260097 -1 -1 0 1;
#X obj 61 187 tgl 28 0 empty empty ⤷@ -6 14 1 18 -260097 -1 -1 0
1;
#X obj 167 162 tgl 25 0 empty empty ☞ 8 12 0 27 -1 -262144 -262144
0 1;
#X obj 141 188 tgl 25 0 empty empty ⇪ 5 11 2 16 -1 -260097 -260097
0 1;
#X obj 166 188 tgl 28 0 empty empty >๏ 5 13 1 13 -1 -260097 -260097
0 1;
#X obj 61 129 tgl 28 0 empty empty raw 2 12 1 16 -260097 -1 -1 0 1
;
#X obj 141 214 tgl 25 0 empty empty @S 8 12 0 11 -1 -260097 -260097
0 1;
#X floatatom 140 118 8 0 0 0 - - -;
#X obj 89 187 tgl 28 0 empty empty @ 5 14 1 18 -1 -260097 -260097 0
1;
#X obj 116 216 tgl 25 0 empty empty ๏ 5 11 1 22 -1 -260097 -260097
0 1;
#X obj 116 240 tgl 25 0 empty empty ๏ 5 11 1 22 -1 -260097 -260097
0 1;
#X obj 61 100 tgl 28 0 empty empty ๏ -4 10 1 50 -260097 -1 -1 0 1
;
#X obj 61 1141 * -1;
#X obj 61 1114 - 1;
#X obj 182 -141 s reposetoinoffA;
#X obj 183 -166 r send_reposetoinoffA;
#X msg 747 129 0;
#X obj 116 100 bng 25 250 50 0 empty empty 0 10 13 1 10 -1 -260097
-260097;
#X obj 364 475 s posA;
#X obj -47 968 r locA;
#X obj 169 719 s locA;
#X obj 181 874 r s&pAa;
#X obj 181 896 r s&pBa;
#X obj 181 918 r speedAa;
#X obj 181 940 r speedBa;
#X obj 181 962 r pitchAa;
#X obj 180 980 r pitchBa;
#X obj 167 690 -;
#X obj 648 662 s Amod;
#X floatatom 652 634 12 0 0 0 - - -;
#X obj 90 216 tgl 25 0 empty empty • 4 13 1 50 -1 -260097 -260097
0 1;
#X obj 183 -116 s reposetoinoffAB;
#X obj 183 -86 r send_reposetoinoffAB;
#X obj 139 -525 s modAA;
#X obj 139 -503 s modAB;
#X obj 139 -547 r send_modAA;
#X obj 139 -481 r send_modAB;
#X obj 65 -543 r send_rawA;
#X obj 65 -519 r send_A@;
#X obj 66 -443 r send_@re;
#X obj 65 -495 s rawA;
#X obj 66 -419 s @re;
#X obj 66 -393 r send_@A;
#X obj 66 -467 s A@;
#X obj 66 -371 s @A;
#X obj 99 -321 s AB;
#X floatatom 68 291 5 0 0 0 - - -;
#X obj 83 -647 s AAbuton;
#X obj 83 -671 r send_AAbuton;
#X obj 183 -263 r send_save_dataposA;
#X obj 183 -238 s save_dataposA;
#X obj 198 -2011 r send_save_trgAA;
#X obj 198 -1959 s save_trgAA;
#X obj 198 -1907 r send_save_trgAB;
#X obj 198 -1855 s save_trgAB;
#X obj 228 -2249 r send_save_BngAA;
#X obj 228 -2197 s save_BngAA;
#X obj 228 -2145 r send_save_BngAB;
#X obj 228 -2093 s save_BngAB;
#X obj 180 1027 r chngpresetA;
#X msg 148 1028 0;
#X obj 808 292 s line_pauseA;
#X obj -505 361 spigot-toggle_orange;
#X obj 98 -264 s lyrAposA;
#X obj 98 -241 s lyrAposB;
#X msg -672 -116 record;
#X floatatom -429 234 4 0 0 0 - - -;
#X obj -692 -139 bng 15 250 50 0 empty empty empty 17 7 0 10 -262144
-1 -1;
#X obj -753 -127 pack;
#X floatatom -759 -158 5 0 0 0 - - -;
#X floatatom -742 -191 5 0 0 0 - - -;
#X obj -767 -90 cyclone/midiformat;
#X obj -692 -173 sel;
#X obj -673 -139 bng 15 250 50 0 empty empty empty 17 7 0 10 -262144
-1 -1;
#X floatatom -693 -195 5 0 0 0 - - -;
#X obj 0 125 tgl 25 0 empty empty REC 2 13 1 11 -260097 -1 -1 0 1;
#X obj 0 241 bng 25 250 50 0 empty empty R 9 13 1 9 -1 -260097 -262144
;
#X obj -765 -23 spigot-toggle_violet;
#X obj 26 150 tgl 25 0 empty empty ↻ 3 10 1 30 -1 -262144 -262144
1 1;
#X obj -39 43 r lo;
#X obj 26 125 bng 25 250 50 0 empty empty ► 6 14 1 19 -1 -262144
-262144;
#X obj 35 6 f;
#X obj -758 433 spigot-toggle_violet;
#X obj -497 389 tgl 25 0 empty empty NOTE 3 12 1 8 -66577 -262144 -262144
1 1;
#X obj -765 -56 cyclone/seq seq.mid;
#X obj -756 580 spigot-toggle_violet;
#X floatatom -678 320 5 0 0 0 - - -;
#X obj -704 260 * 0.01;
#X obj -760 259 * 6.25;
#X obj 26 241 tgl 25 0 empty empty MIDI 2 12 1 10 -1 -262144 -262144
0 1;
#X floatatom -490 512 5 0 0 0 - - -;
#X floatatom -472 460 5 0 0 0 - - -;
#X obj -491 489 f;
#X obj -492 460 bng 15 250 50 0 empty empty empty 17 7 0 10 -262144
-1 -1;
#X obj -755 650 s recordlivemidiloopBNG;
#X obj -768 78 notein;
#X obj -764 112 spigot-toggle_violet;
#X obj -742 112 spigot-toggle_violet;
#X obj -709 158 sel;
#X obj -687 190 bng 15 250 50 0 empty empty empty 17 7 0 10 -262144
-1 -1;
#X obj -708 134 == 64;
#X floatatom -763 234 5 0 0 0 - - -;
#X floatatom -763 140 5 0 0 0 - - -;
#X obj -719 189 bng 15 250 50 0 empty empty empty 17 7 0 10 -262144
-1 -1;
#X obj -717 233 s env_recmidi_out;
#X obj -644 198 s env_recmidi_in;
#X obj -494 429 sel;
#X obj -509 547 f;
#X obj -509 527 bng 15 250 50 0 empty empty empty 17 7 0 10 -262144
-1 -1;
#X obj 0 150 tgl 25 0 empty empty ■ 2 11 1 41 -1 -262144 -262144
0 1;
#X obj -749 546 * -1;
#X obj -748 523 - 1;
#X obj -509 570 spigot-toggle_violet;
#X obj -772 53 * 1;
#X obj -737 576 r lo;
#X obj 0 100 tgl 25 0 empty empty edit 4 13 1 11 -1 -262144 -262144
0 1;
#X obj 648 203 spigot-toggle_violet;
#X obj -463 542 r lo;
#X obj -744 28 s recordlivemidiloopstop;
#X obj -763 164 - 0;
#X obj -739 52 s recordlivemidiloop;
#X obj -762 208 spigot-toggle_violet;
#X obj -744 4 s recordlivemidiloopstop1;
#X obj -739 -25 bng 15 250 50 0 empty empty empty 17 7 0 10 -262144
-1 -1;
#X obj 26 100 tgl 25 0 empty empty mod 3 13 1 11 -1 -262144 -262144
0 1;
#X obj 676 203 spigot-toggle_violet;
#X obj -683 611 f;
#X obj -656 610 + 1;
#X msg 273 81 0;
#X obj 0 215 tgl 25 0 empty empty A 8 13 1 14 -1 -262144 -262144 0
1;
#X obj -144 53 spigot-toggle_orange;
#X obj -144 24 * 100;
#X obj -749 476 r lo;
#X msg -610 -106 record slip.mid;
#X obj 62 1082 r freestepsouts;
#X obj 192 135 cnv 2 8 131 empty empty empty 20 12 0 14 -1 -66577 0
;
#X obj -144 0 r A;
#X obj 26 215 tgl 25 0 empty empty B 8 13 1 14 -1 -262144 -262144 0
1;
#X obj -99 55 spigot-toggle_orange;
#X obj -99 25 * 100;
#X obj -99 -3 r B;
#X obj 0 -26 sel;
#X msg 0 0 0;
#X obj 284 445 * 1;
#X obj 673 82 r B;
#X obj 155 -884 r send_A<<A;
#X obj 155 -862 s A<<A;
#X obj 154 -838 r send_AøA;
#X obj 154 -816 s AøA;
#X obj 183 -780 r send_A<<B;
#X obj 183 -756 s A<<B;
#X obj 360 -1467 r send_AøB;
#X obj 360 -1417 s AøB;
#X obj 188 629 s ø@S;
#X obj 183 -425 r send_save_ø@S;
#X obj 183 -368 s save_ø@S;
#X obj 0 176 bng 19 250 50 0 empty empty S 6 10 0 13 -1 -260097 -260097
;
#X floatatom 18 176 5 0 0 0 - - -;
#X obj 99 -344 r send_AB;
#X obj 817 516 + 0;
#X obj 780 484 spigot-toggle_vert;
#X msg 783 510 0;
#X obj 780 458 bng 15 250 50 0 empty empty empty 17 7 0 10 -262144
-1 -1;
#X floatatom 815 575 12 0 0 0 - - -;
#X obj 819 545 spigot-toggle_vert;
#X obj 807 464 f;
#X obj 807 487 t b f;
#X obj 652 549 spigot-toggle_vert;
#X obj 743 487 - 1;
#X obj 742 510 * -1;
#X obj 1370 275 sel;
#X msg 1278 322 1;
#X obj -755 626 bng 15 250 50 0 empty empty empty 17 7 0 10 -262144
-1 -1;
#X msg -749 498 0;
#X obj 51 98 cnv 3 9 167 empty empty empty 20 12 0 14 -1 -66577 0;
#X obj 98 -287 s ABselectA;
#X obj 1211 412 s BBmod;
#X obj 3 195 hsl 46 20 0 1 0 0 empty empty sharp 6 9 1 11 -1 -262144
-262144 4500 1;
#X obj 812 148 r stretchA;
#X floatatom 651 374 8 0 3 0 - - -;
#X obj 685 42 sel;
#X obj 700 69 bng 15 250 50 0 empty empty empty 17 7 0 10 -262144 -1
-1;
#X obj 16 191 cnv 3 35 6 empty empty empty 20 12 0 14 -1 -66577 0;
#X obj 221 98 cnv 1 1 165 empty empty empty 10 12 0 14 -262144 -66577
0;
#X obj 1255 627 spigot-toggle_vert;
#X obj 1258 558 spigot-toggle_vert;
#X obj 1258 581 spigot-toggle_red;
#X obj 1150 579 r lo;
#X obj 1257 670 spigot-toggle_vert;
#X obj 1257 694 spigot-toggle_red;
#X obj 78 1032 onoff7x;
#X obj 1297 697 s trgrtoenv;
#X obj 1296 654 spigot-toggle_vert;
#X obj 1485 670 s trgrtoenvonoff;
#X obj 500 427 cnv 3 45 51 empty empty empty 20 12 0 14 -1 -66577 0
;
#X obj -208 481 s Abutton;
#X floatatom 1483 644 2 0 0 0 - - -;
#X floatatom 1296 674 2 0 0 0 - - -;
#X obj 1507 500 r trgrBafter;
#X obj 1502 473 r trgrAafter;
#X obj 1481 476 spigot-toggle_vert;
#X obj 1481 501 spigot-toggle_red;
#X obj 1479 404 spigot-toggle_vert;
#X obj 1479 425 spigot-toggle_red;
#X obj 94 673 s BAtch;
#X obj 1488 319 r AAtch;
#X obj 1488 344 r BAtch;
#X obj 1305 571 r BAtch;
#X obj 1305 546 r AAtch;
#X obj -45 552 spigot-toggle_orange;
#X obj -46 630 spigot-toggle_orange;
#X obj -46 602 r s@pAB;
#X obj -45 526 r s@pAA;
#X obj -45 578 spigot-toggle_orange;
#X obj -46 658 spigot-toggle_orange;
#X obj 96 644 s AAtch;
#X obj 105 459 s sl_trgA;
#X obj 104 487 s sl_trgB;
#X obj 139 541 s sl_bngA;
#X obj 140 568 s sl_bngB;
#X obj 1356 122 r sl_trgA;
#X obj 1270 133 r sl_trgB;
#X obj -22 551 r sl_bngA;
#X obj -25 632 r sl_bngB;
#X obj 791 427 r ø@S;
#X obj 1448 582 r sl_trgA;
#X obj 1528 580 r sl_trgB;
#X obj 653 -12 r AAonoff;
#X obj 654 11 r BAonoff;
#X obj 502 638 r AAonoff;
#X obj 504 665 r BAonoff;
#X obj -65 261 s AAonoff;
#X obj -67 411 s BAonoff;
#X obj -155 834 r BAonoff;
#X obj -204 454 spigot-toggle_orange;
#X obj -202 430 r Bbutton;
#X obj 653 300 + 0;
#X obj 182 23 spigot-toggle_orange;
#X text 602 874 raw = A without modulation;
#X text 608 895 ⤷@ = reminds the last starting point and hangs on
;
#X text 607 913 @ = reminds the last starting point and not hangs on
;
#X obj 390 577 r A@;
#X obj 445 583 r @re;
#X obj 208 785 r AAonoff;
#X obj 781 402 r SbangA;
#X obj 1274 412 s trgrmodA;
#X obj 95 710 r @re;
#X obj 1312 324 r lo;
#X obj 1053 346 r TSmplbangB;
#X obj 377 -134 notein;
#X floatatom 424 -107 5 0 0 0 - - -;
#X floatatom 378 -106 5 0 0 0 - - -;
#X floatatom 470 -108 5 0 0 0 - - -;
#X obj 375 5 spigot-toggle_red;
#X obj 449 -55 bng 15 250 50 0 empty empty empty 17 7 0 10 -262144
-1 -1;
#X obj 426 -53 bng 15 250 50 0 empty empty empty 17 7 0 10 -262144
-1 -1;
#X obj 425 -82 sel;
#X obj 427 -33 f;
#X obj 458 -31 + 1;
#X floatatom 374 -23 5 0 0 0 - - -;
#X obj 428 -9 mod 2;
#X obj 377 -76 == 52;
#X obj 118 739 r ø>;
#X obj 187 403 spigot-toggle_orange;
#X obj 715 44 r rawA;
#X obj 515 27 s rawA;
#X floatatom 1394 208 2 0 0 0 - - -;
#X obj 54 29 r trgrmodA;
#X msg 701 87 0;
#X obj 724 -2 s AnB_Aenv;
#X obj 1154 91 r AAonoff;
#X obj 1155 114 r BAonoff;
#X floatatom 1378 501 2 0 0 0 - - -;
#X obj 1250 179 r trgrA;
#X obj 1042 696 spigot-toggle_red;
#X obj 1149 700 spigot-toggle_red;
#X obj -127 471 spigot-toggle_orange;
#X obj -127 498 delay;
#X obj -94 473 r t$mod;
#X obj -123 447 sel;
#X msg -128 520 1;
#X obj 1361 667 s onooflyrA;
#X obj 388 103 s øAtiTS1;
#X obj 181 -59 s TStrchonoffA;
#X obj 1505 381 r trgrA;
#X obj 1507 404 r trgrB;
#X obj 1513 439 s trgrAmod;
#X obj 1482 545 s trgrafterAmod;
#X obj 1567 336 spigot-toggle_vert;
#X obj 1567 357 spigot-toggle_red;
#X obj 1594 336 r tglidelessB;
#X obj 1592 312 r tglidelessA;
#X obj 1600 370 s SELtglidelessA;
#X obj 88 213 cnv 2 2 52 empty empty empty 20 12 0 14 -1 -66577 0;
#X obj 0 98 cnv 2 198 2 empty empty empty 20 12 0 14 -1 -66577 0;
#X obj 88 214 cnv 3 4 49 empty empty empty 20 12 0 14 -1 -66577 0;
#X obj 60 214 cnv 3 3 51 empty empty empty 20 12 0 14 -1 -66577 0;
#X obj 140 133 cnv 3 60 5 empty empty empty 4 12 1 10 -1 -262144 0
;
#X obj 195 100 cnv 2 5 166 empty empty empty 20 12 0 14 -1 -66577 0
;
#X obj 141 240 tgl 25 0 empty empty empty 6 12 0 12 -1 -260097 -1 0
1;
#X obj 167 240 tgl 25 0 empty empty empty 6 12 0 12 -1 -260097 -1 0
1;
#X obj 167 217 tgl 25 0 empty empty empty 6 12 0 12 -1 -260097 -1 0
1;
#X obj 89 100 tgl 28 0 empty empty empty 6 15 1 26 -1 -1 -1 0 1;
#X obj 140 99 cnv 20 60 20 empty empty ↬------- 5 11 1 25 -1 -260097
0;
#X connect 2 0 23 0;
#X connect 2 0 289 0;
#X connect 3 0 20 0;
#X connect 4 0 22 0;
#X connect 5 0 11 0;
#X connect 6 0 10 0;
#X connect 7 0 14 0;
#X connect 10 0 12 0;
#X connect 11 0 12 0;
#X connect 12 0 9 0;
#X connect 12 0 55 0;
#X connect 13 0 15 0;
#X connect 13 0 348 0;
#X connect 14 0 8 0;
#X connect 14 0 279 0;
#X connect 16 0 121 0;
#X connect 16 0 19 0;
#X connect 17 0 18 0;
#X connect 17 0 231 0;
#X connect 18 0 114 0;
#X connect 18 0 98 0;
#X connect 20 0 7 0;
#X connect 21 0 13 0;
#X connect 22 0 7 0;
#X connect 23 0 13 0;
#X connect 24 0 36 0;
#X connect 25 0 32 0;
#X connect 25 0 35 0;
#X connect 26 0 34 0;
#X connect 27 0 30 0;
#X connect 28 0 29 0;
#X connect 29 0 40 0;
#X connect 30 0 29 1;
#X connect 30 0 77 1;
#X connect 31 0 71 1;
#X connect 32 0 33 0;
#X connect 33 1 37 0;
#X connect 34 0 86 0;
#X connect 36 0 70 0;
#X connect 37 0 38 0;
#X connect 37 1 28 0;
#X connect 38 0 39 0;
#X connect 39 0 31 0;
#X connect 40 0 39 1;
#X connect 41 0 114 0;
#X connect 42 0 108 0;
#X connect 43 0 103 0;
#X connect 44 0 41 1;
#X connect 44 0 42 1;
#X connect 44 0 43 1;
#X connect 44 0 45 1;
#X connect 45 0 104 0;
#X connect 46 0 49 0;
#X connect 46 0 48 0;
#X connect 46 0 54 0;
#X connect 46 0 293 0;
#X connect 47 0 41 0;
#X connect 48 0 43 0;
#X connect 49 0 45 0;
#X connect 54 0 42 0;
#X connect 56 0 58 0;
#X connect 56 0 60 0;
#X connect 57 0 81 0;
#X connect 58 0 81 0;
#X connect 59 0 339 1;
#X connect 60 0 339 1;
#X connect 61 0 71 0;
#X connect 62 0 63 1;
#X connect 62 0 270 1;
#X connect 62 0 72 1;
#X connect 63 0 72 0;
#X connect 64 0 67 0;
#X connect 65 0 67 0;
#X connect 66 0 65 0;
#X connect 67 0 164 0;
#X connect 67 0 268 1;
#X connect 67 0 98 0;
#X connect 68 0 35 0;
#X connect 69 0 84 0;
#X connect 70 0 27 0;
#X connect 70 1 27 1;
#X connect 71 0 282 0;
#X connect 72 0 132 0;
#X connect 73 0 74 0;
#X connect 74 0 75 0;
#X connect 75 0 132 0;
#X connect 76 0 73 1;
#X connect 77 0 76 0;
#X connect 78 0 79 0;
#X connect 78 1 80 0;
#X connect 79 0 73 0;
#X connect 80 0 77 0;
#X connect 81 0 339 0;
#X connect 82 1 83 0;
#X connect 85 0 149 0;
#X connect 86 0 27 0;
#X connect 87 0 88 0;
#X connect 88 0 86 1;
#X connect 89 0 75 1;
#X connect 90 0 86 1;
#X connect 92 0 99 0;
#X connect 93 0 133 0;
#X connect 94 0 278 0;
#X connect 94 0 166 0;
#X connect 94 0 150 0;
#X connect 94 0 133 0;
#X connect 94 0 318 0;
#X connect 94 0 340 0;
#X connect 94 0 334 0;
#X connect 94 0 298 0;
#X connect 94 0 366 0;
#X connect 94 0 382 0;
#X connect 95 0 99 0;
#X connect 95 0 148 0;
#X connect 95 0 149 0;
#X connect 95 0 167 0;
#X connect 95 0 278 0;
#X connect 95 0 307 0;
#X connect 95 0 335 0;
#X connect 95 0 337 1;
#X connect 95 0 340 0;
#X connect 96 0 60 1;
#X connect 96 0 136 0;
#X connect 97 0 59 1;
#X connect 97 0 137 0;
#X connect 98 0 81 1;
#X connect 98 0 268 1;
#X connect 99 0 313 1;
#X connect 99 0 161 0;
#X connect 99 0 322 0;
#X connect 100 0 155 0;
#X connect 100 0 319 0;
#X connect 100 0 379 1;
#X connect 101 0 157 0;
#X connect 101 0 320 0;
#X connect 101 0 379 1;
#X connect 102 0 64 1;
#X connect 102 0 117 0;
#X connect 102 0 340 1;
#X connect 102 0 386 0;
#X connect 103 0 146 0;
#X connect 103 0 149 0;
#X connect 103 0 94 0;
#X connect 104 0 94 0;
#X connect 104 0 144 0;
#X connect 104 0 149 0;
#X connect 105 0 65 1;
#X connect 105 0 91 0;
#X connect 105 0 134 0;
#X connect 106 0 130 0;
#X connect 107 0 366 1;
#X connect 108 0 94 0;
#X connect 108 0 133 0;
#X connect 108 0 143 0;
#X connect 108 0 149 0;
#X connect 108 0 368 0;
#X connect 109 0 256 0;
#X connect 109 0 258 0;
#X connect 109 0 149 0;
#X connect 109 0 153 0;
#X connect 110 0 194 0;
#X connect 110 0 246 0;
#X connect 111 0 147 0;
#X connect 112 0 253 0;
#X connect 112 0 68 1;
#X connect 112 0 316 1;
#X connect 112 0 133 0;
#X connect 113 0 255 0;
#X connect 113 0 69 1;
#X connect 113 0 317 1;
#X connect 113 0 99 0;
#X connect 114 0 385 0;
#X connect 115 0 41 1;
#X connect 115 0 42 1;
#X connect 115 0 43 1;
#X connect 115 0 45 1;
#X connect 116 0 115 0;
#X connect 118 0 102 0;
#X connect 118 0 98 0;
#X connect 119 0 67 0;
#X connect 119 0 81 1;
#X connect 119 0 339 1;
#X connect 119 0 268 1;
#X connect 120 0 119 0;
#X connect 120 0 231 0;
#X connect 122 0 46 0;
#X connect 124 0 68 0;
#X connect 125 0 69 0;
#X connect 126 0 68 0;
#X connect 127 0 69 0;
#X connect 128 0 68 0;
#X connect 129 0 69 0;
#X connect 130 0 123 0;
#X connect 132 0 131 0;
#X connect 132 0 110 0;
#X connect 133 0 312 1;
#X connect 133 0 159 0;
#X connect 133 0 321 0;
#X connect 135 0 105 0;
#X connect 135 0 98 0;
#X connect 138 0 96 0;
#X connect 138 0 98 0;
#X connect 139 0 97 0;
#X connect 139 0 98 0;
#X connect 140 0 108 0;
#X connect 141 0 103 0;
#X connect 142 0 104 0;
#X connect 145 0 111 0;
#X connect 151 0 94 0;
#X connect 152 0 109 0;
#X connect 154 0 100 0;
#X connect 156 0 101 0;
#X connect 158 0 133 0;
#X connect 160 0 99 0;
#X connect 162 0 163 0;
#X connect 163 0 120 0;
#X connect 165 0 211 0;
#X connect 168 0 187 0;
#X connect 169 0 179 0;
#X connect 169 0 185 0;
#X connect 169 0 223 0;
#X connect 170 0 187 0;
#X connect 171 0 174 0;
#X connect 172 0 191 0;
#X connect 172 0 174 0;
#X connect 172 0 171 0;
#X connect 173 0 171 1;
#X connect 173 0 172 0;
#X connect 174 0 187 0;
#X connect 175 0 170 0;
#X connect 175 1 176 0;
#X connect 176 0 168 0;
#X connect 177 0 175 0;
#X connect 178 0 177 0;
#X connect 178 0 244 0;
#X connect 179 0 165 0;
#X connect 179 0 188 0;
#X connect 180 0 183 0;
#X connect 181 0 180 1;
#X connect 182 0 181 0;
#X connect 182 0 280 0;
#X connect 183 0 187 0;
#X connect 184 0 260 0;
#X connect 185 0 191 0;
#X connect 186 0 209 0;
#X connect 187 0 169 0;
#X connect 187 1 180 0;
#X connect 187 1 226 0;
#X connect 188 0 275 0;
#X connect 190 0 228 0;
#X connect 190 0 219 0;
#X connect 191 0 189 0;
#X connect 191 0 190 0;
#X connect 192 0 200 1;
#X connect 192 0 199 1;
#X connect 193 0 210 1;
#X connect 194 0 195 1;
#X connect 195 0 193 0;
#X connect 196 0 195 0;
#X connect 198 0 199 0;
#X connect 198 1 200 0;
#X connect 199 0 205 0;
#X connect 200 0 203 0;
#X connect 201 0 206 0;
#X connect 201 1 202 0;
#X connect 202 0 208 0;
#X connect 203 0 201 0;
#X connect 203 0 224 1;
#X connect 204 0 216 0;
#X connect 205 0 222 0;
#X connect 206 0 207 0;
#X connect 209 0 196 0;
#X connect 210 0 215 0;
#X connect 211 0 210 0;
#X connect 212 0 214 0;
#X connect 212 0 221 0;
#X connect 213 0 185 1;
#X connect 213 0 215 1;
#X connect 213 0 188 1;
#X connect 214 0 213 0;
#X connect 215 0 219 0;
#X connect 216 0 223 0;
#X connect 216 0 260 0;
#X connect 217 0 188 1;
#X connect 217 0 186 0;
#X connect 218 0 219 1;
#X connect 218 0 165 1;
#X connect 218 0 188 1;
#X connect 219 0 81 0;
#X connect 220 0 215 1;
#X connect 222 0 224 0;
#X connect 224 0 204 0;
#X connect 226 0 225 0;
#X connect 226 0 208 0;
#X connect 227 0 228 1;
#X connect 228 0 339 1;
#X connect 229 0 230 0;
#X connect 229 0 275 0;
#X connect 230 0 229 1;
#X connect 231 0 98 0;
#X connect 232 0 233 1;
#X connect 233 0 260 0;
#X connect 234 0 233 0;
#X connect 235 0 276 0;
#X connect 236 0 187 0;
#X connect 237 0 116 0;
#X connect 239 0 234 0;
#X connect 240 0 241 1;
#X connect 241 0 260 0;
#X connect 242 0 241 0;
#X connect 243 0 242 0;
#X connect 244 0 245 0;
#X connect 245 0 232 0;
#X connect 245 0 240 0;
#X connect 246 0 16 0;
#X connect 247 0 57 0;
#X connect 247 0 59 0;
#X connect 250 0 133 0;
#X connect 252 0 112 0;
#X connect 254 0 113 0;
#X connect 254 0 99 0;
#X connect 257 0 109 0;
#X connect 259 0 184 0;
#X connect 259 0 229 0;
#X connect 260 0 184 1;
#X connect 260 0 173 0;
#X connect 261 0 95 0;
#X connect 262 0 267 0;
#X connect 263 0 264 0;
#X connect 263 0 7 0;
#X connect 264 0 262 0;
#X connect 264 0 120 0;
#X connect 265 0 263 0;
#X connect 265 0 268 0;
#X connect 266 0 63 0;
#X connect 267 0 266 0;
#X connect 268 0 269 0;
#X connect 269 0 262 0;
#X connect 269 1 262 1;
#X connect 270 0 63 0;
#X connect 271 0 272 0;
#X connect 272 0 270 1;
#X connect 273 0 274 0;
#X connect 274 0 63 1;
#X connect 274 0 13 0;
#X connect 274 0 7 1;
#X connect 275 0 197 0;
#X connect 276 0 214 0;
#X connect 280 0 216 1;
#X connect 281 0 64 0;
#X connect 282 0 270 0;
#X connect 283 1 284 0;
#X connect 284 0 371 0;
#X connect 287 0 292 0;
#X connect 287 0 291 0;
#X connect 287 0 295 0;
#X connect 288 0 287 0;
#X connect 289 0 287 0;
#X connect 290 0 287 1;
#X connect 290 0 295 1;
#X connect 290 0 377 1;
#X connect 291 0 133 0;
#X connect 292 0 99 0;
#X connect 293 0 95 0;
#X connect 293 0 69 0;
#X connect 295 0 300 0;
#X connect 299 0 296 0;
#X connect 300 0 294 0;
#X connect 300 0 378 0;
#X connect 301 0 304 0;
#X connect 302 0 303 0;
#X connect 303 0 375 0;
#X connect 303 0 390 0;
#X connect 304 0 375 0;
#X connect 304 0 390 0;
#X connect 305 0 389 0;
#X connect 306 0 389 0;
#X connect 308 0 305 1;
#X connect 308 0 303 1;
#X connect 308 0 391 1;
#X connect 309 0 306 1;
#X connect 309 0 304 1;
#X connect 309 0 392 1;
#X connect 310 0 289 1;
#X connect 310 0 295 1;
#X connect 310 0 292 1;
#X connect 311 0 288 1;
#X connect 311 0 295 1;
#X connect 311 0 291 1;
#X connect 312 0 316 0;
#X connect 313 0 317 0;
#X connect 314 0 313 0;
#X connect 315 0 312 0;
#X connect 316 0 318 0;
#X connect 317 0 307 0;
#X connect 323 0 21 1;
#X connect 323 0 273 0;
#X connect 324 0 23 1;
#X connect 324 0 274 0;
#X connect 325 0 312 1;
#X connect 326 0 313 1;
#X connect 327 0 263 1;
#X connect 327 0 267 1;
#X connect 328 0 299 0;
#X connect 329 0 299 0;
#X connect 330 0 58 1;
#X connect 330 0 372 0;
#X connect 331 0 57 1;
#X connect 331 0 283 0;
#X connect 331 0 372 0;
#X connect 332 0 78 0;
#X connect 333 0 78 0;
#X connect 336 0 69 0;
#X connect 337 0 298 0;
#X connect 338 0 337 0;
#X connect 339 0 61 0;
#X connect 340 0 117 0;
#X connect 344 0 36 1;
#X connect 344 0 25 0;
#X connect 345 0 87 0;
#X connect 346 0 35 0;
#X connect 347 0 265 0;
#X connect 347 0 271 0;
#X connect 349 0 82 0;
#X connect 350 0 274 0;
#X connect 351 0 12 0;
#X connect 352 0 354 0;
#X connect 352 1 353 0;
#X connect 352 2 355 0;
#X connect 353 0 359 0;
#X connect 354 0 364 0;
#X connect 356 0 102 0;
#X connect 358 0 360 0;
#X connect 359 0 358 0;
#X connect 359 1 357 0;
#X connect 360 0 361 0;
#X connect 360 0 363 0;
#X connect 361 0 360 1;
#X connect 362 0 356 0;
#X connect 363 0 362 0;
#X connect 364 0 356 1;
#X connect 365 0 82 0;
#X connect 366 0 114 0;
#X connect 367 0 283 0;
#X connect 370 0 114 0;
#X connect 371 0 71 1;
#X connect 373 0 11 1;
#X connect 373 0 20 1;
#X connect 374 0 10 1;
#X connect 374 0 22 1;
#X connect 375 0 377 0;
#X connect 376 0 21 0;
#X connect 376 0 288 0;
#X connect 376 0 369 0;
#X connect 377 0 72 1;
#X connect 378 0 72 1;
#X connect 379 0 380 0;
#X connect 380 0 383 0;
#X connect 381 0 380 1;
#X connect 382 0 379 0;
#X connect 383 0 114 0;
#X connect 387 0 305 0;
#X connect 388 0 306 0;
#X connect 391 0 395 0;
#X connect 392 0 395 0;
#X connect 393 0 392 0;
#X connect 394 0 391 0;
#X coords 0 -1 1 1 200 168 2 0 98;
