#N canvas 0 69 1680 959 12;
#X text 613 830 TIME COMPRESSION/EXPANSION BY LOOPED SAMPLING;
#X text 325 984 Here \, rather than ask you to push the read pointer
back and forth in the sample \, we use a phasor~. This makes it possible
to avoid the samphold~ on the read pointer (r~ read-pt) \, since \,
knowing the precession \, we can correct for it in computing the frequency
of the original phasor~ at right.;
#X text -1698 978 We've changed the control for "chunk size" to milliseconds
for added convenience \, and delayed multiplying sample location by
the sample rate (44100) until the last moment \, so that calculations
using "read-pt" and "chunk size" can be in the same units (seconds.)
;
#X floatatom 1039 104 4 0 900 0 - - -;
#X text 1659 96 <-- position \, 0-1;
#X text 1656 123 <-- trgr on/off;
#X obj 1264 173 r trgrA;
#X obj 1270 196 r trgrB;
#X obj 1207 173 r BB;
#X obj 1209 195 r BB1;
#X obj 1168 173 r T$;
#X obj 1167 195 r T1;
#X obj 1234 280 spigot-toggle_vert;
#X obj 1270 378 outlet;
#X obj 1168 348 outlet;
#X obj 1172 263 spigot-toggle_red;
#X obj 1172 241 spigot-toggle_vert;
#X floatatom 1170 301 5 0 0 0 - - -;
#X floatatom 1292 302 2 0 0 0 - - -;
#X obj 1233 303 bng 15 250 50 0 empty empty empty 17 7 0 10 -262144
-1 -1;
#X obj 1234 347 outlet;
#X floatatom 944 102 12 0 0 0 - - -;
#X obj 116 -11 r lo;
#X msg 106 68 0;
#X obj 943 127 outlet;
#X obj 1186 2 bng 15 250 50 0 empty empty empty 17 7 0 10 -262144 -1
-1;
#X msg 1037 48 0;
#X obj 1039 77 spigot-toggle_orange;
#X obj 109 455 r drcttuch;
#X obj 1203 241 spigot-toggle_vert;
#X obj 1266 241 spigot-toggle_vert;
#X obj 1203 263 spigot-toggle_red;
#X obj 1266 263 spigot-toggle_red;
#X obj 397 596 r A;
#X obj 305 521 tgl 15 0 empty empty empty 17 7 0 10 -262144 -1 -1 0
1;
#X obj 458 623 r posvisu;
#X obj 397 679 - 0;
#X obj 380 751 bng 15 250 50 0 empty empty empty 17 7 0 10 -262144
-1 -1;
#X obj 379 775 f;
#X floatatom 397 704 8 0 3 0 - - -;
#X floatatom 471 740 8 0 3 0 - - -;
#X floatatom 302 546 5 0 0 0 - - -;
#X obj 306 572 sel 0;
#X floatatom 459 646 8 0 3 0 - - -;
#X obj 398 532 s trgrvolee;
#X obj 397 624 spigot-toggle_vert;
#X obj 336 701 t b b;
#X obj 333 751 bng 15 250 50 0 empty empty empty 17 7 0 10 -262144
-1 -1;
#X obj 332 775 f;
#X floatatom 346 731 8 0 3 0 - - -;
#X obj 39 832 spigot-toggle_orange;
#X obj 39 857 spigot-toggle_orange;
#X obj 40 880 spigot-toggle_orange;
#X obj 41 1001 r lo;
#X obj 39 903 spigot-toggle_orange;
#X obj 9 870 tgl 15 0 empty empty loc 2 7 0 10 -262144 -1 -1 0 1;
#X obj 63 830 onoff0x;
#X obj 61 879 onoff2x;
#X obj 61 903 onoff3x;
#X obj 114 646 s slctdisplayonoff;
#X text -1121 928 >ø = stop at release;
#X text 625 893 @A = reminds the last starting point and hangs on;
#X text 625 911 ø@ = reminds the last starting point and not hangs
on;
#X text 619 872 tru = A without modulation;
#X text 624 925 when one of above is select it can be played as;
#X text 625 852 ø = ON/OFF \, 1 push: on second push : off;
#X text -1121 948 loc = reminds what you were doing \; 1st push: scd
push : off;
#X obj 62 854 onoff1x;
#X obj 80 982 - 1;
#X obj 115 983 * -1;
#X obj 1172 385 s T$mod;
#X obj 708 82 r A;
#X obj 714 209 spigot-toggle_red;
#X obj 712 184 spigot-toggle_vert;
#X obj 739 208 spigot-toggle_red;
#X obj 739 184 spigot-toggle_vert;
#X floatatom 713 291 8 0 3 0 - - -;
#X obj 794 492 r lo;
#X obj 718 536 spigot-toggle_red;
#X obj 799 146 r line_pause;
#X obj 800 172 spigot-toggle_jaunenoir;
#X obj 801 232 spigot-toggle_jaunenoir;
#X obj 800 201 r line_pause1;
#X obj 714 348 + 0;
#X floatatom 803 284 12 0 0 0 - - -;
#X obj 103 424 s fiddlecackborm;
#X obj -55 516 spigot-toggle_orange;
#X obj -56 541 spigot-toggle_orange;
#X obj 396 652 t b f;
#X obj 714 315 + 0;
#X obj 719 563 spigot-toggle_red;
#X obj 578 672 f;
#X floatatom 575 701 8 0 3 0 - - -;
#X obj 577 764 spigot-toggle_vert;
#X floatatom 511 700 8 0 3 0 - - -;
#X obj 523 672 f;
#X obj 532 616 sel;
#X obj 575 643 bng 15 250 50 0 empty empty empty 17 7 0 10 -262144
-1 -1;
#X obj 524 647 bng 15 250 50 0 empty empty empty 17 7 0 10 -262144
-1 -1;
#X obj -37 516 spigot-toggle_orange;
#X obj -35 541 spigot-toggle_orange;
#X obj -79 516 spigot-toggle_orange;
#X obj -79 541 spigot-toggle_orange;
#X obj -54 578 r lo;
#X obj 713 262 + 0;
#X obj 379 437 r ø>0;
#X obj 381 466 sel;
#X msg 398 491 1;
#X obj 398 562 s trgrvolee1;
#X obj 939 378 t b f;
#X obj 121 612 spigot-toggle_jaune;
#X obj 129 585 r lo;
#X obj 44 -95 spigot-toggle_orange;
#X obj 70 -119 sel;
#X obj 45 -144 spigot-toggle_orange;
#X msg 70 -89 1;
#X obj 67 -44 - 1;
#X obj 66 -21 * -1;
#X obj 70 -179 sel;
#X msg 70 -149 0;
#X obj 459 670 spigot-toggle_red;
#X obj 474 773 - 1;
#X obj 473 796 * -1;
#X obj 577 616 r b@A;
#X obj 90 522 s ø>;
#X obj 58 522 s @A;
#X obj 584 730 r @A;
#X obj 472 707 r lo;
#X obj 104 -106 r lo;
#X obj 159 842 s TmstrchBTR;
#X obj 121 1065 r TRGnB_@sB;
#X obj 121 1035 r TRGnB_@sA;
#X obj 739 159 r B;
#X obj 140 331 spigot-toggle_orange;
#X obj 98 128 tgl 28 0 empty empty A 8 14 1 17 -1 -262144 -262144 0
1;
#X obj 98 157 tgl 28 0 empty empty B 8 14 1 17 -1 -262144 -262144 0
1;
#X obj 147 128 tgl 28 0 empty empty A 8 14 1 17 -1 -262144 -262144
0 1;
#X obj 147 157 tgl 28 0 empty empty B 8 14 1 17 -1 -262144 -262144
0 1;
#X obj 125 98 cnv 17 79 16 empty empty Entry_point 17 8 1 12 -1 -262144
0;
#X obj 126 131 vsl 20 80 0 0.5 0 0 empty empty mod 2 10 0 9 -1 -262144
-262144 0 1;
#X obj 101 214 cnv 20 25 25 empty empty -A- 4 12 0 10 -1 -262144 0
;
#X obj 101 237 cnv 12 25 26 empty empty -B- 4 12 0 10 -1 -262144 0
;
#X obj 127 237 tgl 25 0 empty empty empty 5 10 0 15 -1 -262144 -260097
0 1;
#X obj 69 215 tgl 25 0 empty empty Trg 1 10 0 10 -1 -262144 -262144
0 1;
#X obj 69 237 tgl 25 0 empty empty empty 5 10 0 15 -1 -262144 -262144
0 1;
#X obj 176 128 tgl 28 0 empty empty ->- 3 12 1 14 -1 -262144 -262144
0 1;
#X obj 69 128 tgl 28 0 empty empty A@ 4 12 1 14 -260097 -262144 -262144
0 1;
#X obj 69 157 tgl 28 0 empty empty @re 2 13 1 12 -260097 -262144 -262144
0 1;
#X obj 176 157 tgl 28 0 empty empty ->- 3 12 1 14 -1 -262144 -262144
0 1;
#X obj 147 186 tgl 28 0 empty empty løc 3 13 0 12 -260097 -262144
-1 0 1;
#X obj 97 186 tgl 28 0 empty empty >ø 3 13 0 15 -260097 -262144 -1
0 1;
#X obj 69 99 tgl 28 0 empty empty raw 4 13 1 13 -260097 -262144 -262144
0 1;
#X obj 176 186 tgl 28 0 empty empty ø@S 3 13 0 12 -260097 -262144
-1 0 1;
#X obj 478 -200 cnv 15 50 15 empty empty empty 20 12 0 14 -262144 -66577
0;
#X floatatom 146 113 8 0 0 0 - - -;
#X obj 69 186 tgl 28 0 empty empty @A 5 15 0 14 -260097 -262144 -1
0 1;
#X obj 179 215 tgl 25 0 empty empty ø 11 11 0 14 -1 -262144 -260097
0 1;
#X obj 179 237 tgl 25 0 empty empty ø 11 10 0 15 -1 -262144 -260097
0 1;
#X obj 153 215 tgl 25 0 empty empty <<<<<< 1 10 0 11 -1 -262144 -260097
0 1;
#X obj 153 237 tgl 25 0 empty empty <<<<<< 1 10 0 11 -1 -262144 -260097
0 1;
#X obj 98 99 tgl 28 0 empty empty ø 8 12 1 22 -1 -262144 -262144 0
1;
#X obj 45 766 * -1;
#X obj 45 739 - 1;
#X obj 175 -143 s reposetoinoffA;
#X obj 174 -168 r send_reposetoinoffA;
#X obj 1183 -97 - 1;
#X obj 1183 -71 * -1;
#X obj 1185 -37 spigot-toggle_orange;
#X obj 1186 -120 tgl 15 0 empty empty empty 17 7 0 10 -262144 -1 -1
0 1;
#X msg 753 264 0;
#X obj 126 111 bng 20 250 50 0 empty empty +0 3 10 0 10 -1 -260097
-262144;
#X obj 85 740 s øAtiTS1;
#X obj 128 353 * 1;
#X obj 130 378 s trgTS1;
#X obj 1040 138 s posA;
#X obj 1175 -186 s BangAtoenv;
#X obj -62 862 r locA;
#X obj 130 550 s locA;
#X obj -55 627 r s&pAa;
#X obj -55 649 r s&pBa;
#X obj -55 689 r speedAa;
#X obj -57 712 r speedBa;
#X obj -58 749 r pitchAa;
#X obj -59 781 r pitchBa;
#X obj 158 983 s øAtiTS1>ø;
#X obj 128 521 -;
#X obj 86 769 s onofdispay0;
#X obj 86 800 s Aonoff;
#X obj 1186 -143 r IT≠T;
#X obj 715 624 s Amod;
#X floatatom 713 599 12 0 0 0 - - -;
#X obj 1787 -281 f;
#X obj 1821 -281 + 1;
#X floatatom 1789 -212 5 0 0 0 - - -;
#X msg 1789 -235 1;
#X msg 1820 -235 0;
#X obj 1788 -259 mod 2;
#X obj 1829 -259 sel;
#X floatatom 1833 -386 5 0 0 0 - - -;
#X obj 1787 -305 t b b;
#X floatatom 1783 -386 5 0 0 0 - - -;
#X obj 1784 -413 notein;
#X floatatom 1873 -386 5 0 0 0 - - -;
#X obj 1786 -357 spigot-toggle_orange;
#X obj 1808 -357 == 64;
#X obj 1787 -330 select 48;
#X obj 1001 357 t b f;
#X obj 1006 389 /;
#X floatatom 1005 414 5 0 0 0 - - -;
#X obj 942 344 -;
#X obj 1056 368 r T$;
#X obj 1002 325 r looplenghtA;
#X obj 967 410 f;
#X obj 958 306 sel;
#X obj 975 331 bng 15 250 50 0 empty empty empty 17 7 0 10 -262144
-1 -1;
#X floatatom 964 435 5 0 0 0 - - -;
#X obj 127 215 tgl 25 0 empty empty Bng 2 10 0 10 -1 -262144 -262144
0 1;
#X obj 945 77 * 1;
#X obj 1174 -220 r TRGnB_@s B1fromselnd;
#X obj 174 -97 s reposetoinoffAB;
#X obj 174 -118 r send_reposetoinoffAB;
#X obj 154 -527 s modAA;
#X obj 153 -481 s modAB;
#X obj 154 -549 r send_modAA;
#X obj 153 -503 r send_modAB;
#X obj 62 -524 r send_rawA;
#X obj 62 -474 r send_A@;
#X obj 63 -423 r send_@re;
#X obj 63 -498 s rawA;
#X obj 63 -399 s @re;
#X obj 63 -374 r send_@A;
#X obj 63 -448 s A@;
#X obj 62 -352 s @A;
#X obj 110 -658 s AB;
#X obj 110 -681 r send_AB;
#X obj 168 -692 r send_A<<A;
#X obj 168 -670 s A<<A;
#X obj 167 -646 r send_AøA;
#X obj 167 -624 s AøA;
#X obj 188 -798 r send_A<<B;
#X obj 188 -776 s A<<B;
#X obj 187 -752 r send_AøB;
#X obj 187 -730 s AøB;
#X floatatom 731 443 5 0 0 0 - - -;
#X obj 109 -704 s AAbuton;
#X obj 109 -728 r send_AAbuton;
#X obj 730 418 r send_save_dataposA;
#X obj 732 466 s save_dataposA;
#X obj 74 -883 r send_save_trgAA;
#X obj 75 -857 s save_trgAA;
#X obj 75 -824 r send_save_trgAB;
#X obj 76 -798 s save_trgAB;
#X obj 132 -996 r send_save_BngAA;
#X obj 133 -970 s save_BngAA;
#X obj 133 -937 r send_save_BngAB;
#X obj 134 -911 s save_BngAB;
#X obj 165 952 r chngpresetA;
#X msg 121 953 0;
#X obj 803 310 s line_pauseA;
#X obj 38 305 spigot-toggle_orange;
#X obj 1812 -139 r AonoffPSPS;
#X obj 103 -258 s lyrAposA;
#X obj 103 -228 s lyrAposB;
#X obj 1293 350 s trgrmodA;
#X msg -655 -118 record;
#X floatatom -412 232 4 0 0 0 - - -;
#X obj -675 -141 bng 15 250 50 0 empty empty empty 17 7 0 10 -262144
-1 -1;
#X obj -736 -129 pack;
#X floatatom -742 -160 5 0 0 0 - - -;
#X floatatom -725 -193 5 0 0 0 - - -;
#X obj -750 -92 cyclone/midiformat;
#X obj -675 -175 sel;
#X obj -656 -141 bng 15 250 50 0 empty empty empty 17 7 0 10 -262144
-1 -1;
#X floatatom -676 -197 5 0 0 0 - - -;
#X obj 1 125 tgl 25 0 empty empty REC 4 12 1 9 -258113 -1 -1 0 1;
#X obj 27 237 bng 25 250 50 0 empty empty R 9 12 1 9 -1 -262144 -262144
;
#X obj 27 125 bng 25 250 50 0 empty empty S 9 13 0 10 -262144 -1 -1
;
#X obj -748 -25 spigot-toggle_violet;
#X obj 1 211 tgl 25 0 empty empty LOOP 1 12 1 8 -1 -262144 -262144
0 1;
#X obj -1 74 r lo;
#X obj 27 185 bng 25 250 50 0 empty empty PLAY 2 12 1 8 -1 -262144
-262144;
#X floatatom 28 153 3 0 0 0 - - -;
#X obj 32 44 f;
#X obj -741 431 spigot-toggle_violet;
#X obj 1 237 tgl 25 0 empty empty NOTE 3 12 1 8 -1 -262144 -262144
0 1;
#X obj -748 -58 cyclone/seq seq.mid;
#X obj -621 494 spigot-toggle_violet;
#X floatatom -661 318 5 0 0 0 - - -;
#X floatatom -660 349 5 0 0 0 - - -;
#X obj -741 327 * 0.01;
#X obj -743 286 * 6.25;
#X obj 1 149 tgl 25 0 empty empty midi 3 12 0 8 -262144 -1 -1 0 1;
#X floatatom -363 517 5 0 0 0 - - -;
#X floatatom -345 465 5 0 0 0 - - -;
#X obj -364 494 f;
#X obj -365 465 bng 15 250 50 0 empty empty empty 17 7 0 10 -262144
-1 -1;
#X obj 1697 70 r recordlivemidiloopBNG;
#X obj -617 608 s recordlivemidiloopBNG;
#X obj -751 76 notein;
#X obj -747 110 spigot-toggle_violet;
#X obj -725 110 spigot-toggle_violet;
#X obj -692 156 sel;
#X obj -670 188 bng 15 250 50 0 empty empty empty 17 7 0 10 -262144
-1 -1;
#X obj -691 132 == 64;
#X floatatom -746 232 5 0 0 0 - - -;
#X floatatom -746 138 5 0 0 0 - - -;
#X obj -702 187 bng 15 250 50 0 empty empty empty 17 7 0 10 -262144
-1 -1;
#X obj -700 231 s env_recmidi_out;
#X obj -664 206 s env_recmidi_in;
#X obj -367 434 sel;
#X obj -382 552 f;
#X obj -382 532 bng 15 250 50 0 empty empty empty 17 7 0 10 -262144
-1 -1;
#X obj 27 211 tgl 25 0 empty empty STOP 1 12 1 8 -1 -262144 -262144
0 1;
#X obj -610 402 * -1;
#X obj -609 379 - 1;
#X obj -382 575 spigot-toggle_violet;
#X obj -755 51 * 1;
#X obj -602 490 r lo;
#X obj 1 99 tgl 25 0 empty empty press 1 12 1 9 -1 -262144 -262144
0 1;
#X obj 713 234 spigot-toggle_violet;
#X obj 5 174 hsl 46 10 0 1 0 0 empty empty %_sharp 1 5 2 11 -262144
-1 -1 0 1;
#X obj -360 578 r lo;
#X obj -727 26 s recordlivemidiloopstop;
#X obj -746 162 - 0;
#X obj -722 50 s recordlivemidiloop;
#X obj -745 206 spigot-toggle_violet;
#X obj -727 2 s recordlivemidiloopstop1;
#X obj -722 -27 bng 15 250 50 0 empty empty empty 17 7 0 10 -262144
-1 -1;
#X obj 27 99 tgl 25 0 empty empty .mod 4 12 1 9 -1 -262144 -262144
0 1;
#X obj 742 234 spigot-toggle_violet;
#X obj -621 517 f;
#X obj -588 519 + 1;
#X obj -619 545 mod 2;
#X obj -616 568 sel;
#X msg 119 25 0;
#X obj 1 185 tgl 25 0 empty empty Amod 1 12 0 9 -262144 -1 -45076 0
1;
#X obj -51 76 spigot-toggle_orange;
#X obj 742 563 spigot-toggle_red;
#X obj -118 215 sel;
#X msg -116 240 0;
#X obj -162 214 - 1;
#X obj -163 237 * -1;
#X obj -51 44 * 100;
#X obj -610 332 r lo;
#X msg -610 354 0;
#X obj -51 20 r A;
#X msg -593 -108 record slip.mid;
#X obj 46 707 r freestepsouts;
#X obj 92 214 cnv 15 8 47 empty empty empty 20 12 0 14 -1 -66577 0
;
#X obj 53 99 cnv 15 15 163 empty empty empty 20 12 0 14 -1 -66577 0
;
#X floatatom 747 -26 8 0 3 0 - - -;
#X obj -189 379 r anafromarduino;
#X obj -197 331 r midifromarduino;
#X obj -234 15 s freestepsouts = press button >>freestepsouts>>A motor
off;
#X obj -224 47 s freestepsouts ?;
#X connect 3 0 174 0;
#X connect 6 0 30 0;
#X connect 7 0 32 0;
#X connect 8 0 29 0;
#X connect 9 0 31 0;
#X connect 10 0 16 0;
#X connect 11 0 15 0;
#X connect 12 0 19 0;
#X connect 15 0 17 0;
#X connect 16 0 17 0;
#X connect 17 0 14 0;
#X connect 17 0 70 0;
#X connect 17 0 167 0;
#X connect 18 0 12 1;
#X connect 18 0 20 0;
#X connect 18 0 160 0;
#X connect 18 0 263 0;
#X connect 19 0 13 0;
#X connect 19 0 25 0;
#X connect 21 0 24 0;
#X connect 21 0 3 0;
#X connect 22 0 23 0;
#X connect 22 0 334 0;
#X connect 23 0 139 0;
#X connect 23 0 160 0;
#X connect 25 0 26 0;
#X connect 25 0 175 0;
#X connect 26 0 27 0;
#X connect 27 0 3 0;
#X connect 28 0 154 0;
#X connect 29 0 12 0;
#X connect 30 0 18 0;
#X connect 31 0 12 0;
#X connect 32 0 18 0;
#X connect 33 0 45 0;
#X connect 34 0 41 0;
#X connect 34 0 44 0;
#X connect 35 0 43 0;
#X connect 36 0 39 0;
#X connect 37 0 38 0;
#X connect 38 0 49 0;
#X connect 39 0 38 1;
#X connect 39 0 95 1;
#X connect 40 0 209 0;
#X connect 41 0 42 0;
#X connect 42 1 46 0;
#X connect 43 0 120 0;
#X connect 45 0 88 0;
#X connect 46 0 47 0;
#X connect 46 1 37 0;
#X connect 47 0 48 0;
#X connect 48 0 40 0;
#X connect 49 0 48 1;
#X connect 50 0 160 0;
#X connect 51 0 151 0;
#X connect 52 0 146 0;
#X connect 53 0 50 1;
#X connect 53 0 51 1;
#X connect 53 0 52 1;
#X connect 53 0 54 1;
#X connect 54 0 147 0;
#X connect 55 0 58 0;
#X connect 55 0 57 0;
#X connect 55 0 67 0;
#X connect 56 0 50 0;
#X connect 57 0 52 0;
#X connect 58 0 54 0;
#X connect 67 0 51 0;
#X connect 68 0 69 0;
#X connect 69 0 184 0;
#X connect 71 0 73 0;
#X connect 71 0 75 0;
#X connect 71 0 350 0;
#X connect 72 0 104 0;
#X connect 73 0 104 0;
#X connect 74 0 104 1;
#X connect 75 0 104 1;
#X connect 76 0 89 0;
#X connect 77 0 78 1;
#X connect 77 0 337 1;
#X connect 78 0 90 0;
#X connect 78 0 337 0;
#X connect 79 0 80 0;
#X connect 80 0 84 0;
#X connect 81 0 84 0;
#X connect 82 0 81 0;
#X connect 83 0 78 0;
#X connect 84 0 83 1;
#X connect 84 0 258 0;
#X connect 86 0 99 0;
#X connect 86 0 101 0;
#X connect 87 0 100 0;
#X connect 87 0 102 0;
#X connect 88 0 36 0;
#X connect 88 1 36 1;
#X connect 89 0 83 0;
#X connect 90 0 154 0;
#X connect 90 0 190 0;
#X connect 91 0 92 0;
#X connect 92 0 93 0;
#X connect 93 0 154 0;
#X connect 94 0 91 1;
#X connect 95 0 94 0;
#X connect 96 1 98 0;
#X connect 97 0 91 0;
#X connect 98 0 95 0;
#X connect 99 0 44 0;
#X connect 100 0 108 0;
#X connect 101 0 216 0;
#X connect 101 0 143 0;
#X connect 102 0 142 0;
#X connect 103 0 86 1;
#X connect 103 0 87 1;
#X connect 104 0 76 0;
#X connect 105 0 106 0;
#X connect 106 1 107 0;
#X connect 107 0 44 0;
#X connect 109 0 89 0;
#X connect 109 1 89 1;
#X connect 110 0 59 0;
#X connect 111 0 110 1;
#X connect 112 0 18 0;
#X connect 113 0 115 0;
#X connect 114 0 18 0;
#X connect 115 0 112 0;
#X connect 116 0 117 0;
#X connect 117 0 112 1;
#X connect 118 0 119 0;
#X connect 119 0 114 0;
#X connect 120 0 36 0;
#X connect 121 0 122 0;
#X connect 122 0 120 1;
#X connect 123 0 97 0;
#X connect 126 0 93 1;
#X connect 127 0 120 1;
#X connect 128 0 112 1;
#X connect 130 0 142 0;
#X connect 131 0 216 0;
#X connect 132 0 72 0;
#X connect 132 0 74 0;
#X connect 133 0 172 0;
#X connect 134 0 133 0;
#X connect 134 0 73 1;
#X connect 134 0 96 0;
#X connect 134 0 187 0;
#X connect 134 0 216 0;
#X connect 134 0 244 0;
#X connect 134 0 143 0;
#X connect 134 0 261 0;
#X connect 135 0 142 0;
#X connect 135 0 133 0;
#X connect 135 0 72 1;
#X connect 135 0 96 0;
#X connect 135 0 125 0;
#X connect 135 0 233 0;
#X connect 135 0 243 0;
#X connect 135 0 262 0;
#X connect 136 0 75 1;
#X connect 136 0 221 0;
#X connect 137 0 74 1;
#X connect 137 0 222 0;
#X connect 139 0 104 1;
#X connect 139 0 83 1;
#X connect 142 0 144 0;
#X connect 142 0 15 1;
#X connect 142 0 31 1;
#X connect 142 0 85 0;
#X connect 142 0 110 0;
#X connect 142 0 255 0;
#X connect 143 0 30 1;
#X connect 143 0 249 0;
#X connect 144 0 32 1;
#X connect 144 0 251 0;
#X connect 145 0 133 1;
#X connect 145 0 80 1;
#X connect 145 0 163 0;
#X connect 145 0 172 0;
#X connect 146 0 134 0;
#X connect 146 0 34 0;
#X connect 146 0 45 1;
#X connect 146 0 113 0;
#X connect 146 0 118 0;
#X connect 146 0 213 0;
#X connect 146 0 231 0;
#X connect 146 0 243 0;
#X connect 147 0 134 0;
#X connect 147 0 106 0;
#X connect 147 0 113 0;
#X connect 147 0 118 0;
#X connect 147 0 44 0;
#X connect 147 0 121 0;
#X connect 147 0 229 0;
#X connect 147 0 243 0;
#X connect 148 0 133 1;
#X connect 148 0 81 1;
#X connect 148 0 129 0;
#X connect 148 0 172 0;
#X connect 148 0 219 0;
#X connect 149 0 185 0;
#X connect 150 0 68 0;
#X connect 150 0 114 1;
#X connect 150 0 116 0;
#X connect 150 0 124 0;
#X connect 151 0 134 0;
#X connect 151 0 113 0;
#X connect 151 0 44 0;
#X connect 151 0 118 0;
#X connect 151 0 216 0;
#X connect 151 0 228 0;
#X connect 151 0 243 0;
#X connect 152 0 27 1;
#X connect 154 0 217 0;
#X connect 154 0 293 0;
#X connect 155 0 125 0;
#X connect 155 0 232 0;
#X connect 156 0 99 1;
#X connect 156 0 240 0;
#X connect 157 0 100 1;
#X connect 157 0 242 0;
#X connect 158 0 101 1;
#X connect 158 0 236 0;
#X connect 159 0 102 1;
#X connect 159 0 238 0;
#X connect 160 0 186 0;
#X connect 160 0 171 0;
#X connect 161 0 50 1;
#X connect 161 0 51 1;
#X connect 161 0 52 1;
#X connect 161 0 54 1;
#X connect 162 0 161 0;
#X connect 164 0 145 0;
#X connect 164 0 139 0;
#X connect 165 0 166 0;
#X connect 166 0 167 1;
#X connect 167 0 25 0;
#X connect 167 0 175 0;
#X connect 168 0 165 0;
#X connect 169 0 84 0;
#X connect 169 0 104 1;
#X connect 169 0 89 1;
#X connect 169 0 83 1;
#X connect 170 0 169 0;
#X connect 170 0 334 0;
#X connect 172 0 173 0;
#X connect 176 0 55 0;
#X connect 178 0 86 0;
#X connect 179 0 87 0;
#X connect 180 0 86 0;
#X connect 181 0 87 0;
#X connect 182 0 86 0;
#X connect 183 0 87 0;
#X connect 185 0 177 0;
#X connect 188 0 168 0;
#X connect 190 0 189 0;
#X connect 191 0 192 0;
#X connect 191 0 196 0;
#X connect 192 0 191 1;
#X connect 194 0 193 0;
#X connect 195 0 193 0;
#X connect 196 0 197 0;
#X connect 197 0 194 0;
#X connect 197 1 195 0;
#X connect 198 0 204 0;
#X connect 199 0 191 0;
#X connect 200 0 203 0;
#X connect 201 0 200 0;
#X connect 201 1 198 0;
#X connect 201 2 202 0;
#X connect 203 0 205 0;
#X connect 204 0 203 1;
#X connect 205 0 199 0;
#X connect 206 0 207 0;
#X connect 206 1 207 1;
#X connect 207 0 208 0;
#X connect 208 0 212 1;
#X connect 209 0 109 0;
#X connect 210 0 207 0;
#X connect 211 0 206 0;
#X connect 212 0 215 0;
#X connect 213 1 214 0;
#X connect 214 0 212 0;
#X connect 215 0 209 1;
#X connect 216 0 16 1;
#X connect 216 0 29 1;
#X connect 216 0 85 0;
#X connect 216 0 110 0;
#X connect 216 0 253 0;
#X connect 217 0 21 0;
#X connect 218 0 175 0;
#X connect 220 0 148 0;
#X connect 220 0 139 0;
#X connect 223 0 136 0;
#X connect 223 0 139 0;
#X connect 224 0 137 0;
#X connect 224 0 139 0;
#X connect 225 0 151 0;
#X connect 226 0 146 0;
#X connect 227 0 147 0;
#X connect 230 0 155 0;
#X connect 234 0 135 0;
#X connect 235 0 158 0;
#X connect 237 0 159 0;
#X connect 239 0 156 0;
#X connect 241 0 157 0;
#X connect 243 0 90 1;
#X connect 243 0 247 0;
#X connect 245 0 134 0;
#X connect 246 0 243 0;
#X connect 248 0 143 0;
#X connect 250 0 144 0;
#X connect 252 0 216 0;
#X connect 254 0 142 0;
#X connect 256 0 257 0;
#X connect 257 0 170 0;
#X connect 259 0 311 0;
#X connect 264 0 285 0;
#X connect 265 0 275 0;
#X connect 265 0 283 0;
#X connect 265 0 324 0;
#X connect 266 0 285 0;
#X connect 267 0 270 0;
#X connect 268 0 290 0;
#X connect 268 0 270 0;
#X connect 268 0 267 0;
#X connect 269 0 267 1;
#X connect 269 0 268 0;
#X connect 270 0 285 0;
#X connect 271 0 266 0;
#X connect 271 1 272 0;
#X connect 272 0 264 0;
#X connect 273 0 271 0;
#X connect 274 0 273 0;
#X connect 275 0 286 0;
#X connect 275 0 259 0;
#X connect 276 0 282 0;
#X connect 276 0 297 0;
#X connect 277 0 280 0;
#X connect 278 0 277 1;
#X connect 279 0 284 0;
#X connect 279 0 320 0;
#X connect 279 0 278 0;
#X connect 279 0 291 0;
#X connect 280 0 285 0;
#X connect 281 0 269 0;
#X connect 281 0 282 1;
#X connect 282 0 281 0;
#X connect 283 0 290 0;
#X connect 284 0 309 0;
#X connect 285 0 265 0;
#X connect 285 1 277 0;
#X connect 285 1 327 0;
#X connect 286 0 330 0;
#X connect 289 0 288 0;
#X connect 289 0 329 0;
#X connect 289 0 319 0;
#X connect 290 0 287 0;
#X connect 290 0 289 0;
#X connect 291 0 300 1;
#X connect 291 0 299 1;
#X connect 292 0 310 1;
#X connect 293 0 294 1;
#X connect 294 0 292 0;
#X connect 295 0 294 0;
#X connect 298 0 299 0;
#X connect 298 1 300 0;
#X connect 299 0 305 0;
#X connect 300 0 303 0;
#X connect 301 0 306 0;
#X connect 301 1 302 0;
#X connect 302 0 308 0;
#X connect 303 0 301 0;
#X connect 303 0 325 1;
#X connect 304 0 316 0;
#X connect 305 0 323 0;
#X connect 306 0 307 0;
#X connect 309 0 295 0;
#X connect 310 0 315 0;
#X connect 311 0 310 0;
#X connect 312 0 314 0;
#X connect 312 0 322 0;
#X connect 313 0 283 1;
#X connect 313 0 291 0;
#X connect 313 0 315 1;
#X connect 313 0 286 1;
#X connect 314 0 313 0;
#X connect 315 0 319 0;
#X connect 316 0 281 0;
#X connect 316 0 324 0;
#X connect 317 0 286 1;
#X connect 318 0 319 1;
#X connect 318 0 337 1;
#X connect 318 0 259 1;
#X connect 318 0 286 1;
#X connect 318 0 354 0;
#X connect 319 0 104 0;
#X connect 320 0 316 1;
#X connect 321 0 315 1;
#X connect 323 0 325 0;
#X connect 325 0 304 0;
#X connect 327 0 326 0;
#X connect 327 0 308 0;
#X connect 328 0 329 1;
#X connect 329 0 104 1;
#X connect 330 0 331 0;
#X connect 330 0 332 0;
#X connect 331 0 330 1;
#X connect 332 0 333 0;
#X connect 333 0 297 0;
#X connect 333 1 297 0;
#X connect 334 0 139 0;
#X connect 335 0 336 1;
#X connect 335 0 338 0;
#X connect 335 0 340 0;
#X connect 336 0 281 0;
#X connect 337 0 154 0;
#X connect 337 0 190 0;
#X connect 338 0 339 0;
#X connect 340 0 341 0;
#X connect 341 0 318 0;
#X connect 342 0 336 0;
#X connect 343 0 344 0;
#X connect 344 0 314 0;
#X connect 345 0 342 0;
#X connect 346 0 285 0;
#X connect 347 0 162 0;
#X connect 351 0 281 0;
#X connect 352 0 281 0;
#X coords 0 -1 1 1 205 165 2 0 98;
