#N canvas 0 188 1280 698 12;
#X text -1266 869 TIME COMPRESSION/EXPANSION BY LOOPED SAMPLING;
#X obj 1619 152 r trgrA;
#X obj 1561 145 r BB;
#X obj 1563 170 r BB1;
#X obj 1522 153 r T$;
#X obj 1520 129 r T1;
#X obj 1589 245 spigot-toggle_vert;
#X obj 1588 305 outlet;
#X obj 1457 303 outlet;
#X obj 1525 243 spigot-toggle_red;
#X obj 1526 221 spigot-toggle_vert;
#X floatatom 1524 276 5 0 0 0 - - -;
#X floatatom 1639 260 2 0 0 0 - - -;
#X obj 1561 372 bng 15 250 50 0 empty empty empty 17 7 0 10 -262144
-1 -1;
#X obj 1651 308 outlet;
#X floatatom 1269 97 12 0 0 0 - - -;
#X msg 180 -36 0;
#X obj 1306 47 bng 15 250 50 0 empty empty empty 17 7 0 10 -262144
-1 -1;
#X msg 1270 19 0;
#X obj 1270 44 spigot-toggle_orange;
#X obj 1557 221 spigot-toggle_vert;
#X obj 1620 221 spigot-toggle_vert;
#X obj 1557 243 spigot-toggle_red;
#X obj 1642 218 spigot-toggle_red;
#X obj 763 572 tgl 15 0 empty empty empty 17 7 0 10 -262144 -1 -1 0
1;
#X obj 854 765 - 0;
#X obj 837 837 bng 15 250 50 0 empty empty empty 17 7 0 10 -262144
-1 -1;
#X obj 836 861 f;
#X floatatom 854 790 8 0 3 0 - - -;
#X floatatom 789 887 8 0 3 0 - - -;
#X floatatom 766 631 5 0 0 0 - - -;
#X obj 763 658 sel 0;
#X floatatom 915 666 8 0 3 0 - - -;
#X obj 854 710 spigot-toggle_vert;
#X obj 793 787 t b b;
#X obj 790 837 bng 15 250 50 0 empty empty empty 17 7 0 10 -262144
-1 -1;
#X obj 789 861 f;
#X floatatom 803 817 8 0 3 0 - - -;
#X obj 82 868 spigot-toggle_orange;
#X obj 82 893 spigot-toggle_orange;
#X obj 83 916 spigot-toggle_orange;
#X obj 84 995 r lo;
#X obj 82 939 spigot-toggle_orange;
#X obj 52 906 tgl 15 0 empty empty loc 2 7 0 10 -262144 -1 -1 1 1;
#X text -1255 984 >ø = stop at release;
#X text -15 958 @A = reminds the last starting point and hangs on;
#X text -1254 950 ø@ = reminds the last starting point and not hangs
on;
#X text -1260 911 tru = A without modulation;
#X text -1255 964 when one of above is select it can be played as;
#X text -1254 891 ø = ON/OFF \, 1 push: on second push : off;
#X text -1255 1004 loc = reminds what you were doing \; 1st push: scd
push : off;
#X obj 94 -964 - 1;
#X obj 137 -963 * -1;
#X obj 1218 246 spigot-toggle_red;
#X obj 1216 220 spigot-toggle_vert;
#X obj 1244 243 spigot-toggle_red;
#X obj 1244 219 spigot-toggle_vert;
#X floatatom 1220 324 8 0 3 0 - - -;
#X obj 1257 483 r lo;
#X obj 1223 601 spigot-toggle_red;
#X obj 1020 295 spigot-toggle_jaunenoir;
#X obj 1041 296 spigot-toggle_jaunenoir;
#X floatatom 1033 339 12 0 0 0 - - -;
#X obj 393 225 spigot-toggle_orange;
#X obj 392 248 spigot-toggle_orange;
#X obj 853 738 t b f;
#X obj 1240 655 spigot-toggle_red;
#X obj 1036 698 f;
#X floatatom 1033 727 8 0 3 0 - - -;
#X obj 1035 790 spigot-toggle_vert;
#X floatatom 969 726 8 0 3 0 - - -;
#X obj 981 698 f;
#X obj 1028 616 sel;
#X obj 1033 674 bng 15 250 50 0 empty empty empty 17 7 0 10 -262144
-1 -1;
#X obj 982 673 bng 15 250 50 0 empty empty empty 17 7 0 10 -262144
-1 -1;
#X obj 413 224 spigot-toggle_orange;
#X obj 414 248 spigot-toggle_orange;
#X obj 371 224 spigot-toggle_orange;
#X obj 371 249 spigot-toggle_orange;
#X obj 399 171 r lo;
#X obj 1216 299 + 0;
#X obj 57 670 sel;
#X msg 190 689 1;
#X obj 1275 401 t b f;
#X obj 132 550 spigot-toggle_jaune;
#X obj 132 606 r lo;
#X obj 49 -106 spigot-toggle_orange;
#X obj 75 -130 sel;
#X obj 45 -155 spigot-toggle_orange;
#X msg 75 -104 1;
#X obj 72 -55 - 1;
#X obj 71 -32 * -1;
#X obj 55 -190 sel;
#X msg 75 -160 0;
#X obj 913 696 spigot-toggle_red;
#X obj 924 771 - 1;
#X obj 925 792 * -1;
#X obj 938 695 r lo;
#X obj 109 -117 r lo;
#X obj 1241 164 r B;
#X obj 177 300 spigot-toggle_orange;
#X obj 94 120 tgl 28 0 empty empty A 6 15 1 26 -1 -262144 -262144 0
1;
#X obj 93 149 tgl 28 0 empty empty B 6 15 1 28 -1 -262144 -262144 0
1;
#X obj 151 120 tgl 28 0 empty empty A 6 15 0 26 -1 -262144 -262144
0 1;
#X obj 151 149 tgl 28 0 empty empty B 6 15 0 26 -1 -262144 -262144
0 1;
#X obj 122 120 vsl 28 84 0 1 0 0 empty empty mod 4 70 0 11 -16662 -260097
-260097 2400 1;
#X obj 136 233 tgl 25 0 empty empty • 0 13 1 70 -1 -260097 -260097
0 1;
#X obj 110 206 tgl 25 0 empty empty ◐ 3 13 1 20 -1 -260097 -260097
0 1;
#X obj 110 232 tgl 25 0 empty empty ◐ 3 13 1 20 -1 -260097 -260097
0 1;
#X obj 180 120 tgl 28 0 empty empty ☞ 8 13 0 32 -1 -262144 -262144
0 1;
#X obj 65 149 tgl 28 0 empty empty @ 2 14 1 26 -260097 -1 -1 0 1;
#X obj 65 178 tgl 28 0 empty empty ⤷@ -6 14 1 18 -260097 -1 -1 0
1;
#X obj 180 149 tgl 28 0 empty empty ☞ 8 13 0 32 -1 -262144 -262144
0 1;
#X obj 151 178 tgl 28 0 empty empty ⇪ 6 13 1 16 -1 -260097 -260097
1 1;
#X obj 94 91 tgl 28 0 empty empty >๏ 4 13 1 13 -1 -260097 -260097
0 1;
#X obj 65 120 tgl 28 0 empty empty raw 2 12 1 16 -260097 -1 -45076
0 1;
#X obj 180 178 tgl 28 0 empty empty •@S 3 14 0 14 -1 -260097 -260097
0 1;
#X floatatom 150 104 8 0 0 0 - - -;
#X obj 94 178 tgl 28 0 empty empty @ 5 14 1 18 -1 -260097 -260097 0
1;
#X obj 183 206 tgl 25 0 empty empty ๏ 2 10 0 32 -1 -260097 -260097
0 1;
#X obj 183 232 tgl 25 0 empty empty ๏ 2 10 0 32 -1 -260097 -260097
0 1;
#X obj 65 91 tgl 28 0 empty empty ๏ -4 10 1 50 -260097 -1 -1 1 1
;
#X obj 50 755 * -1;
#X obj 51 696 r freestepsouts1;
#X obj 50 728 - 1;
#X obj 1609 -50 - 1;
#X obj 1609 -27 * -1;
#X obj 1389 9 spigot-toggle_orange;
#X obj 1608 -75 tgl 15 0 empty empty empty 17 7 0 10 -262144 -1 -1
0 1;
#X msg 1036 397 0;
#X obj 176 324 * 1;
#X obj 106 866 onoff12x;
#X obj 104 915 onoff14x;
#X obj 104 939 onoff15x;
#X obj 397 368 r s&pAb;
#X obj 394 444 r s&pBb;
#X obj 394 469 r speedAb;
#X obj 397 389 r speedBb;
#X obj 397 410 r pitchAb;
#X obj 394 494 r pitchBb;
#X obj 157 489 s locB;
#X obj -19 898 r locB;
#X obj 159 -209 s reposetoinoffB;
#X obj 159 -231 r send_reposetoinoffB;
#X obj 1042 756 r @B;
#X obj 60 627 r ø>01;
#X obj 854 682 r B;
#X obj 1520 305 s T$mod1;
#X obj 1326 124 s posB;
#X obj 165 410 s fiddlecackborm1;
#X obj 114 444 r drcttuch1;
#X obj 915 629 r posvisu1;
#X obj 176 -963 s øBtiTS1>ø;
#X obj 201 346 s trgTS2;
#X obj 161 -637 s TmstrchBTR1;
#X obj 132 803 s Bonoff;
#X obj 423 552 s trgrvolee1;
#X obj 1603 -98 r IT≠T1;
#X obj 119 635 s slctdisplayonoff1;
#X obj -25 432 s @B;
#X obj 108 490 s ø>B;
#X obj 105 890 onoff13x;
#X obj 1268 124 outlet;
#X obj 222 70 s øAtiTS2;
#X obj 91 -772 s onofdispay1;
#X obj 147 19 s Bmod;
#X obj 1278 377 -;
#X text -1771 869 "Here \, rather than ask you to push the read pointer
back and forth in the sample \, we use a phasor~. This makes it possible
to avoid the samphold~ on the read pointer (r~ read-pt) \, since \,
knowing the precession \, we can correct for it in computing the frequency
of the original phasor~ at right.;
#X text -1772 967 We've changed the control for "chunk size" to milliseconds
for added convenience \, and delayed multiplying sample location by
the sample rate (44100) until the last moment \, so that calculations
using "read-pt" and "chunk size" can be in the same units (seconds.)"
;
#X obj 285 -8 f;
#X obj 319 -8 + 1;
#X floatatom 305 66 5 0 0 0 - - -;
#X msg 301 42 1;
#X msg 340 42 0;
#X obj 288 18 mod 2;
#X obj 329 18 sel;
#X floatatom 324 -118 5 0 0 0 - - -;
#X obj 278 -37 t b b;
#X floatatom 274 -118 5 0 0 0 - - -;
#X obj 275 -145 notein;
#X floatatom 364 -118 5 0 0 0 - - -;
#X obj 277 -89 spigot-toggle_orange;
#X obj 299 -89 == 64;
#X obj 278 -62 select 57;
#X floatatom 1308 377 5 0 0 0 - - -;
#X obj 136 207 tgl 25 0 empty empty • 0 13 1 70 -1 -260097 -260097
0 1;
#X obj 1144 109 * 1;
#X obj 83 -637 r send_BA;
#X obj 83 -614 s BA;
#X obj 53 -533 r send_rawB;
#X obj 53 -511 s rawB;
#X obj 53 -489 r send_B@;
#X obj 53 -467 s B@;
#X obj 53 -445 r send_@reB;
#X obj 53 -423 s @reB;
#X obj 53 -401 r send_@B;
#X obj 53 -379 s @B;
#X obj 130 -459 r send_modBA;
#X obj 130 -437 s modBA;
#X obj 131 -415 r send_modBB;
#X obj 129 -391 s modBB;
#X obj 159 -285 r send_reposetoinoffBB;
#X obj 159 -258 s reposetoinoffBB;
#X obj 159 -339 r send_reposetoinoffBA;
#X obj 159 -312 s reposetoinoffBA;
#X obj 172 -1171 r send_BøB;
#X obj 172 -1143 s BøB;
#X obj 172 -1227 r send_BøA;
#X obj 172 -1199 s BøA;
#X obj 88 -552 s BBbuton;
#X obj 82 -578 r send_BBbuton;
#X obj 686 106 s save_dataposB;
#X obj 685 80 r send_save_dataposB;
#X floatatom 1229 694 5 0 0 0 - - -;
#X obj 111 -919 r send_save_BngBA;
#X obj 111 -893 s save_BngBA;
#X obj 111 -867 r send_save_BngBB;
#X obj 111 -841 s save_BngBB;
#X obj 51 -1093 r send_save_trgBA;
#X obj 51 -1067 s save_trgBA;
#X obj 51 -1041 r send_save_trgBB;
#X obj 51 -1015 s save_trgBB;
#X obj 423 521 s trgrvolee;
#X obj 1699 278 s trgrmodB;
#X obj 40 297 spigot-toggle_orange;
#X msg -566 -148 record;
#X floatatom -771 78 4 0 0 0 - - -;
#X obj -586 -171 bng 15 250 50 0 empty empty empty 17 7 0 10 -262144
-1 -1;
#X obj -647 -159 pack;
#X floatatom -653 -190 5 0 0 0 - - -;
#X floatatom -636 -223 5 0 0 0 - - -;
#X obj -661 -122 cyclone/midiformat;
#X obj -586 -205 sel;
#X obj -567 -171 bng 15 250 50 0 empty empty empty 17 7 0 10 -262144
-1 -1;
#X floatatom -587 -227 5 0 0 0 - - -;
#X obj 1 116 tgl 25 0 empty empty REC 2 13 1 10 -260097 -1 -1 0 1;
#X obj 1 233 bng 25 250 50 0 empty empty R 9 13 1 9 -1 -260097 -262144
;
#X obj -659 -55 spigot-toggle_violet;
#X obj 27 142 tgl 25 0 empty empty ↻ 3 10 1 30 -1 -262144 -262144
1 1;
#X obj -268 309 r lo;
#X obj 27 116 bng 25 250 50 0 empty empty ► 6 14 1 19 -1 -262144
-262144;
#X obj 34 32 f;
#X obj -652 401 spigot-toggle_violet;
#X obj -265 338 tgl 25 0 empty empty NOTE 3 12 1 8 -66577 -262144 -262144
1 1;
#X obj -532 464 spigot-toggle_violet;
#X floatatom -572 288 5 0 0 0 - - -;
#X floatatom -571 319 5 0 0 0 - - -;
#X obj -652 297 * 0.01;
#X obj -654 256 * 6.25;
#X obj 27 233 tgl 25 0 empty empty MIDI 2 12 1 10 -1 -262144 -262144
1 1;
#X floatatom -274 487 5 0 0 0 - - -;
#X floatatom -256 435 5 0 0 0 - - -;
#X obj -275 464 f;
#X obj -276 435 bng 15 250 50 0 empty empty empty 17 7 0 10 -262144
-1 -1;
#X obj -662 46 notein;
#X obj -658 80 spigot-toggle_violet;
#X obj -636 80 spigot-toggle_violet;
#X obj -603 126 sel;
#X obj -582 153 bng 15 250 50 0 empty empty empty 17 7 0 10 -262144
-1 -1;
#X obj -602 102 == 64;
#X floatatom -657 202 5 0 0 0 - - -;
#X floatatom -657 108 5 0 0 0 - - -;
#X obj -613 157 bng 15 250 50 0 empty empty empty 17 7 0 10 -262144
-1 -1;
#X obj -278 404 sel;
#X obj -293 522 f;
#X obj -293 502 bng 15 250 50 0 empty empty empty 17 7 0 10 -262144
-1 -1;
#X obj 1 142 tgl 25 0 empty empty ■ 2 11 1 41 -1 -262144 -262144
0 1;
#X obj -521 372 * -1;
#X obj -520 349 - 1;
#X obj -291 555 spigot-toggle_violet;
#X obj -666 21 * 1;
#X obj -513 460 r lo;
#X obj 1 90 tgl 25 0 empty empty edit 4 12 1 11 -1 -262144 -262144
0 1;
#X obj 4 186 hsl 46 20 0 1 0 0 empty empty sharp 3 8 1 11 -1 -262144
-262144 4500 1;
#X obj -267 542 r lo;
#X obj -657 132 - 0;
#X obj -656 176 spigot-toggle_violet;
#X obj -521 -57 bng 15 250 50 0 empty empty empty 17 7 0 10 -262144
-1 -1;
#X obj 27 90 tgl 25 0 empty empty mod 2 12 1 12 -1 -262144 -262144
0 1;
#X obj -409 479 f;
#X obj -376 481 + 1;
#X obj -521 302 r lo;
#X msg -521 324 0;
#X msg -504 -138 record slip.mid;
#X obj 1219 272 spigot-toggle_jaunenoir;
#X obj 1247 271 spigot-toggle_jaunenoir;
#X obj -659 -88 cyclone/seq seq2.mid;
#X obj -581 176 s env_recmidi_inB;
#X obj -611 200 s env_recmidi_outB;
#X obj -632 -33 s recordlivemidiloopstop1B;
#X obj -632 -9 s recordlivemidiloopstopB;
#X obj -633 20 s recordlivemidiloopB;
#X obj -529 593 s recordlivemidiloopBNGB;
#X obj -187 371 r anafromarduinoB;
#X obj -195 322 r midifromarduinoB;
#X obj 1399 83 s BangBtoenvB;
#X obj 1 207 tgl 25 0 empty empty A 8 13 1 14 -1 -262144 -262144 0
1;
#X obj -166 -30 spigot-toggle_orange;
#X obj -166 -59 * 100;
#X obj -166 -83 r A;
#X obj 27 207 tgl 25 0 empty empty B 8 13 1 14 -1 -262144 -262144 0
1;
#X obj -118 -34 spigot-toggle_orange;
#X obj -119 -56 * 100;
#X obj -119 -80 r B;
#X obj -2 -30 sel;
#X msg -3 31 0;
#X obj 1271 72 + 0;
#X obj 154 751 sel;
#X msg 173 776 1;
#X obj 1673 228 * 1;
#X obj 1670 201 t b f;
#X obj 1720 234 r øs@Bgate;
#X obj 1206 165 r A;
#X obj 1762 165 r lo;
#X msg 1764 192 1;
#X obj 434 50 s ø@S1;
#X floatatom 1792 266 2 0 0 0 - - -;
#X obj 1674 256 spigot-toggle_red;
#X obj 1710 154 r trgrø@SB;
#X obj 527 55 r send_save_ø@S1;
#X obj 528 81 s save_ø@S1;
#X obj 105 1057 r TRGnB_@sB1;
#X obj 105 1031 r TRGnB_@sA1;
#X obj 1 168 bng 18 250 50 0 empty empty S 5 9 1 14 -1 -260097 -260097
;
#X floatatom 20 168 5 0 0 0 - - -;
#X floatatom 2024 211 2 0 0 0 - - -;
#X obj -129 574 f;
#X obj -131 544 delay 100;
#X obj -124 518 bng 15 250 50 0 empty empty empty 17 7 0 10 -262144
-1 -1;
#X obj -132 601 s Aonoff;
#X obj -55 573 f;
#X obj -57 543 delay 100;
#X obj -50 517 bng 15 250 50 0 empty empty empty 17 7 0 10 -262144
-1 -1;
#X obj -58 600 s Bonoff;
#X obj -117 493 sel;
#X obj -37 491 sel;
#X obj 1436 473 + 0;
#X obj 1394 438 spigot-toggle_vert;
#X msg 1393 461 0;
#X obj 1395 420 bng 15 250 50 0 empty empty empty 17 7 0 10 -262144
-1 -1;
#X floatatom 1439 523 12 0 0 0 - - -;
#X obj 1436 498 spigot-toggle_vert;
#X obj 1426 421 f;
#X obj 1426 444 t b f;
#X obj 1355 416 - 1;
#X obj 1354 439 * -1;
#X obj 1216 532 spigot-toggle_vert;
#X obj 1385 395 r øSbangB;
#X obj 1447 12 r øSbangB;
#X obj -449 530 bng 15 250 50 0 empty empty empty 17 7 0 10 -262144
-1 -1;
#X obj -527 513 bng 15 250 50 0 empty empty empty 17 7 0 10 -262144
-1 -1;
#X obj 52 90 cnv 7 12 168 empty empty empty 20 12 0 14 -1 -66577 0
;
#X obj 122 90 bng 28 250 50 0 empty empty 0 11 16 1 10 -1 -260097 -260097
;
#X obj 1216 500 + 0;
#X obj 1039 194 r stretchB;
#X obj 1016 169 r stretchA;
#X floatatom 1356 283 12 0 0 0 - - -;
#X obj 1357 307 t b f;
#X obj 1355 335 / 1;
#X floatatom 1354 358 5 0 0 0 - - -;
#X obj 1355 259 r looplenghtB;
#X obj 1177 360 sel;
#X obj 1193 383 bng 15 250 50 0 empty empty empty 17 7 0 10 -262144
-1 -1;
#X msg 1191 403 0;
#X obj 1215 476 + 0;
#X obj 219 3 sel;
#X obj 220 28 bng 15 250 50 0 empty empty empty 17 7 0 10 -262144 -1
-1;
#X obj 1552 407 s BBBmod;
#X floatatom -31 -106 5 0 0 0 - - -;
#X obj -30 -79 spigot-toggle_orange;
#X obj -30 -54 s reposetoi>0B;
#X obj 148 90 cnv 10 60 16 empty empty Entry_point 3 10 1 10 -1 -262144
0;
#X obj 1353 380 * 1;
#X obj -309 719 s Aonoff;
#X obj -324 661 sel;
#X msg -307 691 1;
#X obj 1596 652 spigot-toggle_vert;
#X obj 1608 596 spigot-toggle_vert;
#X obj 1648 597 spigot-toggle_red;
#X obj 1633 689 sel;
#X obj 1632 713 bng 15 250 50 0 empty empty empty 17 7 0 10 -262144
-1 -1;
#X msg 1630 733 1;
#X obj 1651 635 r lo;
#X obj 1589 372 spigot-toggle_vert;
#X obj 1589 353 bng 15 250 50 0 empty empty empty 17 7 0 10 -262144
-1 -1;
#X obj 1561 780 spigot-toggle_vert;
#X obj 1587 779 spigot-toggle_red;
#X obj 1635 176 r trgrB;
#X obj 1232 725 spigot-toggle_red;
#X obj 1724 734 spigot-toggle_vert;
#X obj 1803 605 - 1;
#X obj 1802 628 * -1;
#X obj 109 361 s Bbutton;
#X obj 1724 780 s trgrtoenvB;
#X obj 1815 710 s trgrtoenvonoffB;
#X msg 1684 674 0;
#X obj -11 399 s ABselectB;
#X obj 161 206 cnv 3 22 51 empty empty empty 20 12 0 14 -1 -66577 0
;
#X obj 64 206 cnv 3 45 52 empty empty empty 20 12 0 14 -1 -66577 0
;
#X obj 1693 528 s trgrmodBB;
#X floatatom 1602 825 5 0 0 0 - - -;
#X floatatom 1882 675 5 0 0 0 - - -;
#X obj -245 99 vradio 15 1 0 3 empty empty ertare -22 12 0 22 -13330
-257985 -45076 0;
#X obj -239 -108;
#X msg -305 -96;
#X obj -239 -83 * 1;
#X obj -321 19 vsl 15 128 0 127 0 0 empty empty empty 0 -9 0 10 -262144
-1 -1 0 1;
#X obj 1770 372 spigot-toggle_orange;
#X obj 1770 344 spigot-toggle_orange;
#X obj 1794 390 s BngslcttoenvBaudiomods;
#X obj 1620 406 s BBBmodtoAenv;
#X obj 1811 329 r BB;
#X obj 1813 354 r BB1;
#X connect 1 0 21 0;
#X connect 1 0 377 0;
#X connect 2 0 20 0;
#X connect 3 0 22 0;
#X connect 4 0 10 0;
#X connect 5 0 9 0;
#X connect 6 0 384 0;
#X connect 9 0 11 0;
#X connect 10 0 11 0;
#X connect 11 0 127 0;
#X connect 11 0 147 0;
#X connect 11 0 8 0;
#X connect 11 0 358 0;
#X connect 12 0 6 1;
#X connect 12 0 121 0;
#X connect 12 0 14 0;
#X connect 12 0 223 0;
#X connect 13 0 17 0;
#X connect 13 0 7 0;
#X connect 13 0 367 0;
#X connect 15 0 162 0;
#X connect 15 0 148 0;
#X connect 16 0 105 0;
#X connect 16 0 121 0;
#X connect 16 0 315 0;
#X connect 17 0 295 0;
#X connect 17 0 18 0;
#X connect 18 0 19 0;
#X connect 19 0 306 0;
#X connect 20 0 6 0;
#X connect 21 0 12 0;
#X connect 22 0 6 0;
#X connect 23 0 12 0;
#X connect 24 0 30 0;
#X connect 24 0 156 0;
#X connect 25 0 28 0;
#X connect 26 0 27 0;
#X connect 27 0 37 0;
#X connect 28 0 27 1;
#X connect 28 0 71 1;
#X connect 29 0 166 0;
#X connect 30 0 31 0;
#X connect 31 1 34 0;
#X connect 32 0 94 0;
#X connect 33 0 65 0;
#X connect 34 0 35 0;
#X connect 34 1 26 0;
#X connect 35 0 36 0;
#X connect 36 0 29 0;
#X connect 37 0 36 1;
#X connect 38 0 121 0;
#X connect 39 0 115 0;
#X connect 40 0 110 0;
#X connect 41 0 38 1;
#X connect 41 0 39 1;
#X connect 41 0 40 1;
#X connect 41 0 42 1;
#X connect 42 0 111 0;
#X connect 43 0 132 0;
#X connect 43 0 133 0;
#X connect 43 0 161 0;
#X connect 51 0 52 0;
#X connect 52 0 152 0;
#X connect 53 0 80 0;
#X connect 54 0 80 0;
#X connect 55 0 62 0;
#X connect 56 0 62 0;
#X connect 57 0 364 0;
#X connect 58 0 59 1;
#X connect 58 0 346 1;
#X connect 58 0 66 1;
#X connect 59 0 66 0;
#X connect 60 0 62 0;
#X connect 61 0 62 0;
#X connect 62 0 80 1;
#X connect 63 0 75 0;
#X connect 63 0 77 0;
#X connect 64 0 76 0;
#X connect 64 0 78 0;
#X connect 65 0 25 0;
#X connect 65 1 25 1;
#X connect 66 0 117 0;
#X connect 67 0 68 0;
#X connect 68 0 69 0;
#X connect 69 0 117 0;
#X connect 70 0 67 1;
#X connect 71 0 70 0;
#X connect 72 0 73 0;
#X connect 72 1 74 0;
#X connect 73 0 67 0;
#X connect 74 0 71 0;
#X connect 75 0 222 0;
#X connect 76 0 156 0;
#X connect 77 0 185 0;
#X connect 78 0 106 0;
#X connect 79 0 63 1;
#X connect 79 0 64 1;
#X connect 79 0 77 1;
#X connect 79 0 78 1;
#X connect 80 0 57 0;
#X connect 81 1 82 0;
#X connect 82 0 156 0;
#X connect 83 0 364 0;
#X connect 83 1 364 1;
#X connect 84 0 158 0;
#X connect 85 0 84 1;
#X connect 86 0 12 0;
#X connect 87 0 89 0;
#X connect 88 0 12 0;
#X connect 89 0 86 0;
#X connect 90 0 91 0;
#X connect 91 0 86 1;
#X connect 92 0 93 0;
#X connect 93 0 88 0;
#X connect 94 0 25 0;
#X connect 95 0 96 0;
#X connect 96 0 94 1;
#X connect 97 0 94 1;
#X connect 98 0 86 1;
#X connect 98 0 16 0;
#X connect 99 0 53 0;
#X connect 99 0 55 0;
#X connect 100 0 130 0;
#X connect 101 0 100 0;
#X connect 101 0 54 1;
#X connect 101 0 72 0;
#X connect 101 0 185 0;
#X connect 101 0 159 0;
#X connect 101 0 188 0;
#X connect 101 0 213 0;
#X connect 101 0 334 0;
#X connect 101 0 326 1;
#X connect 101 0 377 1;
#X connect 101 0 385 1;
#X connect 101 0 392 0;
#X connect 101 0 396 0;
#X connect 101 0 361 0;
#X connect 102 0 106 0;
#X connect 102 0 100 0;
#X connect 102 0 53 1;
#X connect 102 0 72 0;
#X connect 102 0 209 0;
#X connect 102 0 155 0;
#X connect 102 0 335 0;
#X connect 102 0 330 1;
#X connect 102 0 378 1;
#X connect 102 0 386 1;
#X connect 102 0 392 0;
#X connect 102 0 396 0;
#X connect 103 0 56 1;
#X connect 103 0 198 0;
#X connect 104 0 55 1;
#X connect 104 0 200 0;
#X connect 105 0 80 1;
#X connect 105 0 306 1;
#X connect 105 0 353 1;
#X connect 106 0 22 1;
#X connect 106 0 84 0;
#X connect 106 0 149 0;
#X connect 106 0 9 1;
#X connect 106 0 221 0;
#X connect 107 0 21 1;
#X connect 107 0 219 0;
#X connect 107 0 379 0;
#X connect 107 0 390 0;
#X connect 108 0 23 1;
#X connect 108 0 217 0;
#X connect 108 0 307 0;
#X connect 108 0 379 0;
#X connect 108 0 390 0;
#X connect 109 0 100 1;
#X connect 109 0 60 1;
#X connect 109 0 130 0;
#X connect 109 0 142 0;
#X connect 109 0 204 0;
#X connect 109 0 365 0;
#X connect 109 0 369 1;
#X connect 110 0 24 0;
#X connect 110 0 33 1;
#X connect 110 0 87 0;
#X connect 110 0 92 0;
#X connect 110 0 102 0;
#X connect 110 0 192 0;
#X connect 110 0 213 0;
#X connect 110 0 368 0;
#X connect 111 0 81 0;
#X connect 111 0 87 0;
#X connect 111 0 92 0;
#X connect 111 0 95 0;
#X connect 111 0 102 0;
#X connect 111 0 156 0;
#X connect 111 0 194 0;
#X connect 111 0 213 0;
#X connect 111 0 368 0;
#X connect 112 0 100 1;
#X connect 112 0 61 1;
#X connect 112 0 130 0;
#X connect 112 0 154 0;
#X connect 112 0 202 0;
#X connect 112 0 365 0;
#X connect 112 0 369 1;
#X connect 113 0 140 0;
#X connect 113 0 106 0;
#X connect 114 0 51 0;
#X connect 114 0 88 1;
#X connect 114 0 90 0;
#X connect 114 0 160 0;
#X connect 114 0 388 1;
#X connect 115 0 87 0;
#X connect 115 0 92 0;
#X connect 115 0 102 0;
#X connect 115 0 156 0;
#X connect 115 0 190 0;
#X connect 115 0 213 0;
#X connect 115 0 361 0;
#X connect 115 0 368 0;
#X connect 116 0 19 1;
#X connect 116 0 315 0;
#X connect 116 0 317 1;
#X connect 116 0 320 0;
#X connect 116 0 337 1;
#X connect 116 0 341 1;
#X connect 116 0 211 0;
#X connect 117 0 165 0;
#X connect 117 0 186 0;
#X connect 118 0 159 0;
#X connect 118 0 196 0;
#X connect 119 0 75 1;
#X connect 119 0 208 0;
#X connect 119 0 408 1;
#X connect 119 0 185 0;
#X connect 119 0 107 0;
#X connect 120 0 76 1;
#X connect 120 0 206 0;
#X connect 120 0 407 1;
#X connect 120 0 106 0;
#X connect 120 0 108 0;
#X connect 121 0 164 0;
#X connect 121 0 163 0;
#X connect 122 0 38 1;
#X connect 122 0 39 1;
#X connect 122 0 40 1;
#X connect 122 0 42 1;
#X connect 123 0 124 0;
#X connect 124 0 122 0;
#X connect 125 0 126 0;
#X connect 126 0 127 1;
#X connect 127 0 17 0;
#X connect 127 0 295 0;
#X connect 128 0 125 0;
#X connect 129 0 80 1;
#X connect 129 0 62 0;
#X connect 129 0 353 1;
#X connect 130 0 153 0;
#X connect 131 0 38 0;
#X connect 132 0 40 0;
#X connect 133 0 42 0;
#X connect 134 0 63 0;
#X connect 135 0 64 0;
#X connect 136 0 64 0;
#X connect 137 0 63 0;
#X connect 138 0 63 0;
#X connect 139 0 64 0;
#X connect 141 0 43 0;
#X connect 143 0 109 0;
#X connect 144 0 69 1;
#X connect 145 0 81 0;
#X connect 146 0 33 0;
#X connect 150 0 117 0;
#X connect 151 0 32 0;
#X connect 157 0 128 0;
#X connect 161 0 39 0;
#X connect 166 0 83 0;
#X connect 169 0 170 0;
#X connect 169 0 174 0;
#X connect 170 0 169 1;
#X connect 171 0 112 0;
#X connect 172 0 171 0;
#X connect 173 0 171 0;
#X connect 174 0 175 0;
#X connect 175 0 172 0;
#X connect 175 1 173 0;
#X connect 176 0 182 0;
#X connect 177 0 169 0;
#X connect 178 0 181 0;
#X connect 179 0 178 0;
#X connect 179 1 176 0;
#X connect 179 2 180 0;
#X connect 181 0 183 0;
#X connect 182 0 181 1;
#X connect 183 0 177 0;
#X connect 184 0 166 1;
#X connect 185 0 10 1;
#X connect 185 0 20 1;
#X connect 185 0 149 0;
#X connect 185 0 215 0;
#X connect 186 0 15 0;
#X connect 187 0 101 0;
#X connect 189 0 115 0;
#X connect 191 0 110 0;
#X connect 193 0 111 0;
#X connect 195 0 118 0;
#X connect 197 0 103 0;
#X connect 197 0 105 0;
#X connect 199 0 104 0;
#X connect 199 0 105 0;
#X connect 201 0 112 0;
#X connect 201 0 105 0;
#X connect 203 0 109 0;
#X connect 203 0 105 0;
#X connect 205 0 120 0;
#X connect 207 0 119 0;
#X connect 210 0 102 0;
#X connect 212 0 116 0;
#X connect 213 0 66 1;
#X connect 213 0 388 0;
#X connect 214 0 185 0;
#X connect 216 0 108 0;
#X connect 218 0 107 0;
#X connect 220 0 106 0;
#X connect 224 0 265 0;
#X connect 225 0 286 0;
#X connect 226 0 236 0;
#X connect 226 0 242 0;
#X connect 226 0 291 0;
#X connect 227 0 286 0;
#X connect 228 0 231 0;
#X connect 229 0 248 0;
#X connect 229 0 231 0;
#X connect 229 0 228 0;
#X connect 230 0 228 1;
#X connect 230 0 229 0;
#X connect 231 0 286 0;
#X connect 232 0 227 0;
#X connect 232 1 233 0;
#X connect 233 0 225 0;
#X connect 234 0 232 0;
#X connect 235 0 234 0;
#X connect 235 0 304 0;
#X connect 236 0 244 0;
#X connect 236 0 224 0;
#X connect 237 0 240 0;
#X connect 238 0 237 1;
#X connect 239 0 243 0;
#X connect 239 0 273 0;
#X connect 239 0 238 0;
#X connect 239 0 249 0;
#X connect 240 0 286 0;
#X connect 241 0 324 0;
#X connect 242 0 248 0;
#X connect 243 0 263 0;
#X connect 244 0 350 0;
#X connect 247 0 246 0;
#X connect 247 0 284 0;
#X connect 247 0 285 0;
#X connect 248 0 245 0;
#X connect 248 0 247 0;
#X connect 249 0 256 1;
#X connect 249 0 255 1;
#X connect 250 0 264 1;
#X connect 251 0 252 1;
#X connect 252 0 250 0;
#X connect 253 0 252 0;
#X connect 254 0 255 0;
#X connect 254 1 256 0;
#X connect 255 0 261 0;
#X connect 256 0 259 0;
#X connect 257 0 262 0;
#X connect 257 1 258 0;
#X connect 258 0 287 0;
#X connect 259 0 257 0;
#X connect 259 0 276 1;
#X connect 260 0 270 0;
#X connect 261 0 275 0;
#X connect 262 0 288 0;
#X connect 263 0 253 0;
#X connect 264 0 269 0;
#X connect 265 0 264 0;
#X connect 266 0 268 0;
#X connect 266 0 290 0;
#X connect 267 0 242 1;
#X connect 267 0 249 0;
#X connect 267 0 269 1;
#X connect 267 0 244 1;
#X connect 268 0 267 0;
#X connect 269 0 284 0;
#X connect 270 0 291 0;
#X connect 270 0 324 0;
#X connect 271 0 244 1;
#X connect 272 0 224 1;
#X connect 272 0 244 1;
#X connect 272 0 284 1;
#X connect 273 0 270 1;
#X connect 274 0 269 1;
#X connect 275 0 276 0;
#X connect 276 0 260 0;
#X connect 277 0 287 0;
#X connect 277 0 289 0;
#X connect 278 0 285 1;
#X connect 279 0 280 0;
#X connect 279 0 350 0;
#X connect 280 0 279 1;
#X connect 281 0 282 0;
#X connect 282 0 268 0;
#X connect 283 0 286 0;
#X connect 284 0 80 0;
#X connect 285 0 62 0;
#X connect 286 0 226 0;
#X connect 286 1 237 0;
#X connect 286 1 277 0;
#X connect 293 0 324 0;
#X connect 294 0 324 0;
#X connect 296 0 297 1;
#X connect 297 0 324 0;
#X connect 298 0 297 0;
#X connect 299 0 298 0;
#X connect 300 0 301 1;
#X connect 301 0 324 0;
#X connect 302 0 301 0;
#X connect 303 0 302 0;
#X connect 304 0 305 0;
#X connect 305 0 296 0;
#X connect 305 0 300 0;
#X connect 305 0 121 0;
#X connect 306 0 15 0;
#X connect 307 1 308 0;
#X connect 308 0 155 0;
#X connect 309 0 317 0;
#X connect 310 0 309 0;
#X connect 310 1 309 1;
#X connect 311 0 309 0;
#X connect 311 0 316 0;
#X connect 312 0 54 0;
#X connect 312 0 56 0;
#X connect 313 0 314 0;
#X connect 314 0 309 0;
#X connect 317 0 12 0;
#X connect 318 0 310 0;
#X connect 318 0 325 0;
#X connect 319 0 116 0;
#X connect 321 0 106 0;
#X connect 322 0 185 0;
#X connect 323 0 241 0;
#X connect 323 0 279 0;
#X connect 324 0 241 1;
#X connect 324 0 230 0;
#X connect 326 0 329 0;
#X connect 327 0 326 0;
#X connect 328 0 327 0;
#X connect 330 0 333 0;
#X connect 331 0 330 0;
#X connect 332 0 331 0;
#X connect 334 1 328 0;
#X connect 335 1 332 0;
#X connect 336 0 341 0;
#X connect 337 0 338 0;
#X connect 338 0 336 0;
#X connect 338 0 117 0;
#X connect 339 0 337 0;
#X connect 339 0 342 0;
#X connect 340 0 59 0;
#X connect 341 0 340 0;
#X connect 342 0 343 0;
#X connect 343 0 336 0;
#X connect 343 1 336 1;
#X connect 344 0 345 0;
#X connect 345 0 346 1;
#X connect 346 0 59 0;
#X connect 347 0 339 0;
#X connect 347 0 344 0;
#X connect 348 0 295 0;
#X connect 350 0 292 0;
#X connect 352 0 129 0;
#X connect 353 0 346 0;
#X connect 354 0 61 0;
#X connect 355 0 60 0;
#X connect 356 0 357 0;
#X connect 357 0 358 0;
#X connect 357 1 358 1;
#X connect 358 0 359 0;
#X connect 359 0 372 0;
#X connect 360 0 356 0;
#X connect 361 1 362 0;
#X connect 362 0 363 0;
#X connect 363 0 364 1;
#X connect 364 0 353 0;
#X connect 365 0 366 0;
#X connect 366 0 352 0;
#X connect 368 0 369 0;
#X connect 369 0 370 0;
#X connect 372 0 184 0;
#X connect 374 1 375 0;
#X connect 375 0 373 0;
#X connect 376 0 383 1;
#X connect 376 0 386 0;
#X connect 376 0 385 0;
#X connect 376 0 389 0;
#X connect 376 0 399 0;
#X connect 376 0 66 1;
#X connect 377 0 376 0;
#X connect 378 0 376 0;
#X connect 379 0 380 0;
#X connect 380 0 381 0;
#X connect 381 0 12 0;
#X connect 381 0 66 1;
#X connect 382 0 376 1;
#X connect 382 0 395 0;
#X connect 383 0 13 0;
#X connect 384 0 383 0;
#X connect 384 0 410 0;
#X connect 385 0 185 0;
#X connect 386 0 106 0;
#X connect 387 0 23 0;
#X connect 387 0 378 0;
#X connect 388 0 12 0;
#X connect 389 0 393 0;
#X connect 389 0 400 0;
#X connect 390 0 391 0;
#X connect 391 0 389 1;
#X connect 391 0 394 0;
#X connect 391 0 401 0;
#X connect 395 0 379 0;
#X connect 395 0 390 0;
#X connect 403 0 405 0;
#X connect 406 0 402 0;
#X connect 407 0 409 0;
#X connect 408 0 409 0;
#X connect 411 0 408 0;
#X connect 412 0 407 0;
#X coords 0 -1 1 1 210 168 2 0 90;
