#N canvas -327 1028 1680 944 12;
#X text -1271 870 TIME COMPRESSION/EXPANSION BY LOOPED SAMPLING;
#X obj 1380 142 r trgrA;
#X obj 1309 141 r BB;
#X obj 1311 168 r BB1;
#X obj 1236 147 r T$;
#X obj 1241 175 r T1;
#X obj 1311 400 outlet;
#X obj 1246 400 outlet;
#X obj 1243 235 spigot-toggle_red;
#X obj 1242 206 spigot-toggle_vert;
#X floatatom 1244 325 5 0 0 0 - - -;
#X floatatom 1364 270 2 0 0 0 - - -;
#X obj 1317 344 bng 15 250 50 0 empty empty empty 17 7 0 10 -262144
-1 -1;
#X obj 1407 400 outlet;
#X floatatom 320 119 12 0 0 0 - - -;
#X msg -75 107 0;
#X obj 1312 209 spigot-toggle_vert;
#X obj 1381 213 spigot-toggle_vert;
#X obj 1313 239 spigot-toggle_red;
#X obj 1381 235 spigot-toggle_red;
#X obj 425 546 tgl 15 0 empty empty empty 17 7 0 10 -262144 -1 -1 1
1;
#X obj 513 602 - 0;
#X obj 496 674 bng 15 250 50 0 empty empty empty 17 7 0 10 -262144
-1 -1;
#X obj 495 698 f;
#X floatatom 513 627 8 0 3 0 - - -;
#X floatatom 448 724 8 0 3 0 - - -;
#X floatatom 425 570 5 0 0 0 - - -;
#X obj 422 597 sel 0;
#X floatatom 563 428 8 0 3 0 - - -;
#X obj 513 547 spigot-toggle_vert;
#X obj 452 624 t b b;
#X obj 449 674 bng 15 250 50 0 empty empty empty 17 7 0 10 -262144
-1 -1;
#X obj 448 698 f;
#X floatatom 462 654 8 0 3 0 - - -;
#X obj 77 869 spigot-toggle_orange;
#X obj 77 894 spigot-toggle_orange;
#X obj 78 917 spigot-toggle_orange;
#X obj 79 996 r lo;
#X obj 77 940 spigot-toggle_orange;
#X obj 47 907 tgl 15 0 empty empty loc 2 7 0 10 -262144 -1 -1 0 1;
#X text -1260 985 >ø = stop at release;
#X text -20 959 @A = reminds the last starting point and hangs on;
#X text -1259 951 ø@ = reminds the last starting point and not hangs
on;
#X text -1265 912 tru = A without modulation;
#X text -1260 965 when one of above is select it can be played as;
#X text -1259 892 ø = ON/OFF \, 1 push: on second push : off;
#X text -1260 1005 loc = reminds what you were doing \; 1st push: scd
push : off;
#X obj 89 -963 - 1;
#X obj 132 -962 * -1;
#X obj 940 226 spigot-toggle_red;
#X obj 940 199 spigot-toggle_vert;
#X obj 965 224 spigot-toggle_red;
#X obj 965 200 spigot-toggle_vert;
#X floatatom 948 355 8 0 3 0 - - -;
#X obj 958 565 r lo;
#X obj 949 658 spigot-toggle_red;
#X obj 1162 193 spigot-toggle_jaunenoir;
#X obj 1162 221 spigot-toggle_jaunenoir;
#X floatatom 1162 265 12 0 0 0 - - -;
#X obj 271 574 spigot-toggle_orange;
#X obj 268 603 spigot-toggle_orange;
#X obj 512 575 t b f;
#X obj 947 695 spigot-toggle_red;
#X obj 704 684 f;
#X floatatom 701 713 8 0 3 0 - - -;
#X obj 703 776 spigot-toggle_vert;
#X floatatom 637 712 8 0 3 0 - - -;
#X obj 649 684 f;
#X obj 698 627 sel;
#X obj 701 660 bng 15 250 50 0 empty empty empty 17 7 0 10 -262144
-1 -1;
#X obj 650 659 bng 15 250 50 0 empty empty empty 17 7 0 10 -262144
-1 -1;
#X obj 944 297 + 0;
#X obj 210 688 sel;
#X msg 226 712 1;
#X obj 572 533 spigot-toggle_red;
#X obj 578 484 - 1;
#X obj 579 505 * -1;
#X obj 597 532 r lo;
#X obj 214 46 r lo;
#X obj 982 149 r B;
#X obj 89 144 tgl 28 0 empty empty A 6 15 1 26 -1 -262144 -262144 0
1;
#X obj 88 173 tgl 28 0 empty empty B 6 15 1 28 -1 -262144 -262144 1
1;
#X obj 175 131 tgl 28 0 empty empty A 6 12 1 22 -1 -262144 -262144
0 1;
#X obj 175 157 tgl 28 0 empty empty B 6 12 1 22 -1 -262144 -262144
0 1;
#X obj 117 146 vsl 28 108 0 33 0 0 empty empty ÷ 8 44 0 22 -16662
-260097 -260097 0 1;
#X obj 88 229 tgl 28 0 empty empty • 6 15 1 50 -1 -260097 -260097
1 1;
#X obj 146 131 tgl 28 0 empty empty ☞ 8 12 0 27 -1 -262144 -262144
0 1;
#X obj 60 144 tgl 28 0 empty empty @ 2 14 1 26 -260097 -1 -1 1 1;
#X obj 60 173 tgl 28 0 empty empty ⤷@ -6 14 1 18 -260097 -1 -1 0
1;
#X obj 146 157 tgl 28 0 empty empty ☞ 8 12 0 27 -1 -262144 -262144
0 1;
#X obj 60 115 tgl 28 0 empty empty raw 2 12 1 16 -260097 -1 -45076
0 1;
#X floatatom 146 115 8 0 0 0 - - -;
#X obj 88 115 tgl 28 0 empty empty ๏ -4 10 1 50 -260097 -1 -1 1 1
;
#X msg 973 33 0;
#X obj 101 867 onoff12x;
#X obj 99 916 onoff14x;
#X obj 99 940 onoff15x;
#X obj 273 723 r s&pAb;
#X obj 270 799 r s&pBb;
#X obj 270 824 r speedAb;
#X obj 273 744 r speedBb;
#X obj 273 765 r pitchAb;
#X obj 270 849 r pitchBb;
#X obj -159 94 s locB;
#X obj -24 899 r locB;
#X obj 180 -200 s reposetoinoffB;
#X obj 180 -226 r send_reposetoinoffB;
#X obj 710 742 r @B;
#X obj 214 658 r ø>01;
#X obj 513 494 r B;
#X obj 1223 370 s T$mod1;
#X obj 432 139 s posB;
#X obj 171 -962 s øBtiTS1>ø;
#X obj 171 -638 s TmstrchBTR1;
#X obj 293 612 s trgrvolee1;
#X obj -151 122 s @B;
#X obj 100 891 onoff13x;
#X obj 319 146 outlet;
#X obj 376 -12 s øAtiTS2;
#X obj 45 -781 s onofdispay1;
#X text -1776 870 "Here \, rather than ask you to push the read pointer
back and forth in the sample \, we use a phasor~. This makes it possible
to avoid the samphold~ on the read pointer (r~ read-pt) \, since \,
knowing the precession \, we can correct for it in computing the frequency
of the original phasor~ at right.;
#X text -1777 968 We've changed the control for "chunk size" to milliseconds
for added convenience \, and delayed multiplying sample location by
the sample rate (44100) until the last moment \, so that calculations
using "read-pt" and "chunk size" can be in the same units (seconds.)"
;
#X obj 88 201 tgl 28 0 empty empty • 6 15 1 50 -1 -260097 -260097
0 1;
#X obj 320 89 * 1;
#X obj 78 -636 r send_BA;
#X obj 78 -613 s BA;
#X obj 48 -532 r send_rawB;
#X obj 48 -510 s rawB;
#X obj 48 -488 r send_B@;
#X obj 48 -466 s B@;
#X obj 48 -444 r send_@reB;
#X obj 48 -422 s @reB;
#X obj 48 -400 r send_@B;
#X obj 48 -378 s @B;
#X obj 137 -462 r send_modBA;
#X obj 137 -433 s modBA;
#X obj 137 -414 r send_modBB;
#X obj 138 -385 s modBB;
#X obj 177 -284 r send_reposetoinoffBB;
#X obj 177 -257 s reposetoinoffBB;
#X obj 177 -338 r send_reposetoinoffBA;
#X obj 177 -311 s reposetoinoffBA;
#X obj 167 -1170 r send_BøB;
#X obj 167 -1142 s BøB;
#X obj 167 -1226 r send_BøA;
#X obj 167 -1198 s BøA;
#X obj 83 -551 s BBbuton;
#X obj 77 -577 r send_BBbuton;
#X obj 181 -100 s save_dataposB;
#X obj 181 -126 r send_save_dataposB;
#X obj 106 -918 r send_save_BngBA;
#X obj 138 -888 s save_BngBA;
#X obj 106 -866 r send_save_BngBB;
#X obj 107 -841 s save_BngBB;
#X obj 109 -1101 r send_save_trgBA;
#X obj 108 -1071 s save_trgBA;
#X obj 139 -1057 r send_save_trgBB;
#X obj 140 -1029 s save_trgBB;
#X obj 293 581 s trgrvolee;
#X obj 1421 363 s trgrmodB;
#X obj -12 -133 spigot-toggle_orange;
#X obj 940 251 spigot-toggle_jaunenoir;
#X obj 965 248 spigot-toggle_jaunenoir;
#X obj 937 157 r A;
#X obj -32 299 s ø@S1;
#X obj 180 -174 r send_save_ø@S1;
#X obj 179 -150 s save_ø@S1;
#X obj 147 1058 r TRGnB_@sB1;
#X obj 147 1032 r TRGnB_@sA1;
#X obj 947 524 spigot-toggle_vert;
#X obj 117 115 bng 28 250 50 0 empty empty +0 7 14 2 11 -1 -260097
-260097;
#X obj 1158 123 r stretchB;
#X obj 1157 100 r stretchA;
#X obj 949 384 + 0;
#X obj 1322 375 s BBBmod;
#X obj 1403 707 spigot-toggle_vert;
#X obj 1403 635 spigot-toggle_vert;
#X obj 1403 661 spigot-toggle_red;
#X obj 1424 259 sel;
#X msg 1381 325 1;
#X obj 1439 626 r lo;
#X obj 1317 316 spigot-toggle_vert;
#X obj 1405 743 spigot-toggle_vert;
#X obj 1406 769 spigot-toggle_red;
#X obj 1382 166 r trgrB;
#X obj 1518 668 spigot-toggle_vert;
#X obj -7 -181 s Bbutton;
#X obj 1513 731 s trgrtoenvB;
#X msg 1440 656 0;
#X floatatom 1518 699 5 0 0 0 - - -;
#X obj -85 480 spigot-toggle_orange;
#X obj -86 558 spigot-toggle_orange;
#X obj -85 506 spigot-toggle_orange;
#X obj -86 586 spigot-toggle_orange;
#X obj -86 455 r s@pBA;
#X obj -86 530 r s@pBB;
#X obj -8 530 s ABtch;
#X obj -18 600 s BBtch;
#X obj -62 479 r sl_bngAB;
#X obj -65 560 r sl_bngBB;
#X obj 138 523 s sl_bngAB;
#X obj 138 548 s sl_bngBB;
#X floatatom 1615 593 2 0 0 0 - - -;
#X obj 1687 418 r trgrAafter;
#X obj 1662 441 spigot-toggle_vert;
#X obj 1662 462 spigot-toggle_red;
#X obj 1662 351 spigot-toggle_vert;
#X obj 1662 372 spigot-toggle_red;
#X obj 1616 528 r sl_trgAB;
#X obj 1616 556 r sl_trgBB;
#X obj 1664 194 r ABtch;
#X obj 1664 219 r BBtch;
#X obj 1617 616 s trgrtoenvonoffB;
#X obj 88 408 s ABonoff;
#X obj 287 369 s BBonoff;
#X obj 694 552 r ABonoff;
#X obj 715 587 r BBonoff;
#X obj 1528 584 r ABtch;
#X obj 1527 619 r BBtch;
#X floatatom 946 729 12 0 0 0 - - -;
#X obj 948 756 s Bmod;
#X obj 1380 53 r sl_trgAB;
#X obj 1382 81 r sl_trgBB;
#X obj 119 579 s sl_trgAB;
#X obj 120 605 s sl_trgBB;
#X obj 952 66 r ABonoff;
#X obj 952 91 r BBonoff;
#X obj -10 -79 spigot-toggle_orange;
#X obj 18 -78 r Abutton;
#X obj 949 327 + 0;
#X obj 210 637 r @reB;
#X obj 575 459 r @reB;
#X obj 521 517 r B@;
#X obj 952 7 sel;
#X obj 1063 34 bng 15 250 50 0 empty empty empty 17 7 0 10 -262144
-1 -1;
#X obj -120 155 spigot-toggle_orange;
#X obj 954 -20 r rawB;
#X obj 201 -9 r trgrmodB;
#X obj 1219 288 r TSmplbangB;
#X obj 1421 319 r lo;
#X obj 486 -76 notein;
#X floatatom 511 -41 5 0 0 0 - - -;
#X floatatom 463 -41 5 0 0 0 - - -;
#X floatatom 556 -46 5 0 0 0 - - -;
#X obj 461 65 spigot-toggle_red;
#X obj 535 5 bng 15 250 50 0 empty empty empty 17 7 0 10 -262144 -1
-1;
#X obj 512 7 bng 15 250 50 0 empty empty empty 17 7 0 10 -262144 -1
-1;
#X obj 511 -22 sel;
#X obj 513 27 f;
#X obj 544 29 + 1;
#X floatatom 457 26 5 0 0 0 - - -;
#X obj 514 51 mod 2;
#X obj 463 -16 == 55;
#X obj -153 154 spigot-toggle_orange;
#X msg 1066 55 0;
#X floatatom 1270 186 5 0 0 0 - - -;
#X obj 1534 229 spigot-toggle_vert;
#X obj 1534 251 spigot-toggle_red;
#X obj 1530 292 s ITBAngSLCT;
#X obj 1533 158 r ITBAng_env0;
#X obj 1535 182 r ITBAng_env5;
#X obj 1246 -32 r ABonoff;
#X obj 1246 -7 r BBonoff;
#X obj 1559 -49 r ABonoff;
#X obj 1559 -24 r BBonoff;
#X obj 1643 -40 s AnB_Benv;
#X floatatom 1558 481 2 0 0 0 - - -;
#X obj 1687 441 r trgrBafter;
#X obj 68 319 spigot-toggle_orange;
#X obj 68 346 delay;
#X obj 72 295 sel;
#X msg 67 368 1;
#X obj 101 321 r t$mod1;
#X obj 182 -78 s TStrchonoffB;
#X obj 1687 328 r trgrA;
#X obj 1689 351 r trgrB;
#X obj 1695 387 s trgrBmod;
#X obj 1698 469 s trgrafterBmod;
#X obj 563 398 r posvisuB;
#X obj 31 144 tgl 28 0 empty empty ∞ 6 15 2 25 -1 -260097 -260097
0 1;
#X obj 31 115 tgl 28 0 empty empty >๏ 5 13 1 15 -1 -260097 -260097
0 1;
#X obj 31 202 tgl 28 0 empty empty @S 7 14 0 11 -1 -260097 -260097
0 1;
#X obj 31 173 tgl 28 0 empty empty @ 6 15 1 18 -1 -260097 -260097 0
1;
#X obj 60 201 tgl 28 0 empty empty ◐ 8 15 1 14 -1 -260097 -260097
0 1;
#X obj 60 229 tgl 28 0 empty empty ◐ 8 15 1 14 -1 -260097 -260097
1 1;
#X obj 146 203 tgl 28 0 empty empty ∗ 8 12 1 24 -1 -262144 -260097
0 1;
#X obj 146 229 tgl 28 0 empty empty ∗ 8 12 1 24 -1 -260097 -260097
0 1;
#X obj 145 181 cnv 15 58 22 empty empty ω+♪ 19 12 0 14 -1 -260097
0;
#X obj -284 155 s Abutton;
#X obj -281 187 s Bbutton;
#X obj 1830 434 spigot-toggle_vert;
#X obj 1830 455 spigot-toggle_red;
#X obj 175 229 tgl 28 0 empty empty • 6 15 1 50 -1 -260097 -260097
0 1;
#X obj 175 202 tgl 28 0 empty empty • 6 15 1 50 -1 -260097 -260097
0 1;
#X obj 30 91 cnv 13 174 24 empty empty ↬ 124 10 0 28 -1 -260097 0
;
#X obj 31 229 tgl 28 0 empty empty @S 7 14 0 11 -1 -1 -1 0 1;
#X obj 1 91 cnv 15 30 166 empty empty empty 20 12 0 14 -1 -66577 0
;
#X obj 204 91 cnv 15 30 166 empty empty empty 20 12 0 14 -1 -66577
0;
#X obj 1913 407 tgl 28 0 empty empty • 6 15 1 50 -1 -260097 -260097
0 1;
#X obj 1913 376 tgl 28 0 empty empty • 6 15 1 50 -1 -260097 -260097
0 1;
#X obj 1832 345 spigot-toggle_vert;
#X obj 1832 366 spigot-toggle_red;
#X obj 1830 287 spigot-toggle_vert;
#X obj 1830 308 spigot-toggle_red;
#X obj 1836 195 r BB;
#X obj 1838 222 r BB1;
#X obj 1861 331 s BBBmod;
#X obj 1058 469 spigot-toggle_vert;
#X obj 1058 448 bng 15 250 50 0 empty empty empty 17 7 0 10 -262144
-1 -1;
#X obj 1008 473 - 1;
#X obj 1007 496 * -1;
#X obj 1057 497 f;
#X obj 1003 426 r ø@S1;
#X obj 1058 420 r SmplbangB;
#X connect 1 0 17 0;
#X connect 1 0 176 0;
#X connect 2 0 16 0;
#X connect 3 0 18 0;
#X connect 4 0 9 0;
#X connect 5 0 8 0;
#X connect 5 0 255 0;
#X connect 8 0 10 0;
#X connect 9 0 10 0;
#X connect 10 0 110 0;
#X connect 10 0 7 0;
#X connect 11 0 13 0;
#X connect 11 0 159 0;
#X connect 12 0 6 0;
#X connect 12 0 174 0;
#X connect 14 0 111 0;
#X connect 14 0 117 0;
#X connect 15 0 84 0;
#X connect 15 0 92 0;
#X connect 15 0 164 0;
#X connect 16 0 181 0;
#X connect 17 0 11 0;
#X connect 18 0 181 0;
#X connect 19 0 11 0;
#X connect 20 0 26 0;
#X connect 20 0 114 0;
#X connect 21 0 24 0;
#X connect 22 0 23 0;
#X connect 23 0 33 0;
#X connect 24 0 23 1;
#X connect 24 0 67 1;
#X connect 25 0 173 1;
#X connect 26 0 27 0;
#X connect 27 1 30 0;
#X connect 28 0 74 0;
#X connect 29 0 61 0;
#X connect 30 0 31 0;
#X connect 30 1 22 0;
#X connect 31 0 32 0;
#X connect 32 0 25 0;
#X connect 33 0 32 1;
#X connect 34 0 92 0;
#X connect 35 0 90 0;
#X connect 36 0 87 0;
#X connect 37 0 34 1;
#X connect 37 0 35 1;
#X connect 37 0 36 1;
#X connect 37 0 38 1;
#X connect 38 0 88 0;
#X connect 39 0 95 0;
#X connect 39 0 96 0;
#X connect 39 0 116 0;
#X connect 47 0 48 0;
#X connect 48 0 112 0;
#X connect 49 0 71 0;
#X connect 50 0 71 0;
#X connect 51 0 229 1;
#X connect 52 0 229 1;
#X connect 53 0 173 0;
#X connect 54 0 55 1;
#X connect 54 0 169 1;
#X connect 54 0 62 1;
#X connect 55 0 62 0;
#X connect 56 0 58 0;
#X connect 57 0 58 0;
#X connect 58 0 84 0;
#X connect 59 0 158 0;
#X connect 60 0 114 0;
#X connect 61 0 21 0;
#X connect 61 1 21 1;
#X connect 62 0 219 0;
#X connect 63 0 64 0;
#X connect 64 0 65 0;
#X connect 65 0 219 0;
#X connect 66 0 63 1;
#X connect 67 0 66 0;
#X connect 68 0 69 0;
#X connect 68 1 70 0;
#X connect 69 0 63 0;
#X connect 70 0 67 0;
#X connect 71 0 229 0;
#X connect 72 1 73 0;
#X connect 74 0 21 0;
#X connect 75 0 76 0;
#X connect 76 0 74 1;
#X connect 77 0 74 1;
#X connect 78 0 15 0;
#X connect 79 0 49 0;
#X connect 79 0 51 0;
#X connect 80 0 122 0;
#X connect 80 0 125 0;
#X connect 80 0 227 1;
#X connect 80 0 235 0;
#X connect 80 0 213 0;
#X connect 80 0 196 0;
#X connect 80 0 288 0;
#X connect 81 0 146 0;
#X connect 81 0 235 0;
#X connect 81 0 253 0;
#X connect 81 0 186 0;
#X connect 81 0 85 0;
#X connect 81 0 197 0;
#X connect 81 0 214 0;
#X connect 81 0 270 0;
#X connect 81 0 289 0;
#X connect 82 0 52 1;
#X connect 82 0 135 0;
#X connect 83 0 51 1;
#X connect 83 0 137 0;
#X connect 84 0 71 1;
#X connect 84 0 311 1;
#X connect 85 0 157 0;
#X connect 85 0 191 1;
#X connect 85 0 201 0;
#X connect 86 0 56 1;
#X connect 86 0 105 0;
#X connect 86 0 141 0;
#X connect 87 0 81 0;
#X connect 87 0 129 0;
#X connect 88 0 81 0;
#X connect 88 0 131 0;
#X connect 88 0 114 0;
#X connect 89 0 57 1;
#X connect 89 0 113 0;
#X connect 89 0 139 0;
#X connect 89 0 235 1;
#X connect 89 0 273 0;
#X connect 90 0 81 0;
#X connect 90 0 127 0;
#X connect 90 0 85 0;
#X connect 90 0 114 0;
#X connect 91 0 123 0;
#X connect 92 0 119 0;
#X connect 92 0 118 0;
#X connect 93 0 71 1;
#X connect 93 0 229 1;
#X connect 94 0 34 0;
#X connect 95 0 36 0;
#X connect 96 0 38 0;
#X connect 97 0 59 0;
#X connect 98 0 60 0;
#X connect 99 0 60 0;
#X connect 100 0 59 0;
#X connect 101 0 59 0;
#X connect 102 0 60 0;
#X connect 104 0 39 0;
#X connect 106 0 86 0;
#X connect 107 0 65 1;
#X connect 108 0 72 0;
#X connect 109 0 29 0;
#X connect 116 0 35 0;
#X connect 122 0 151 0;
#X connect 122 0 190 1;
#X connect 122 0 200 0;
#X connect 123 0 14 0;
#X connect 124 0 80 0;
#X connect 126 0 90 0;
#X connect 128 0 87 0;
#X connect 130 0 88 0;
#X connect 132 0 282 0;
#X connect 134 0 82 0;
#X connect 134 0 84 0;
#X connect 136 0 83 0;
#X connect 136 0 84 0;
#X connect 138 0 89 0;
#X connect 138 0 84 0;
#X connect 140 0 86 0;
#X connect 140 0 84 0;
#X connect 142 0 286 0;
#X connect 144 0 285 0;
#X connect 147 0 81 0;
#X connect 149 0 281 0;
#X connect 150 0 122 0;
#X connect 152 0 284 0;
#X connect 154 0 283 0;
#X connect 156 0 85 0;
#X connect 161 0 71 0;
#X connect 162 0 229 1;
#X connect 163 0 50 0;
#X connect 163 0 52 0;
#X connect 165 0 281 0;
#X connect 167 0 85 0;
#X connect 168 0 122 0;
#X connect 169 0 55 0;
#X connect 170 0 234 0;
#X connect 171 0 57 0;
#X connect 172 0 56 0;
#X connect 173 0 169 0;
#X connect 175 0 183 0;
#X connect 175 0 182 0;
#X connect 175 0 185 0;
#X connect 176 0 175 0;
#X connect 177 0 175 0;
#X connect 178 0 179 0;
#X connect 179 0 11 0;
#X connect 179 0 55 1;
#X connect 180 0 175 1;
#X connect 180 0 188 0;
#X connect 181 0 12 0;
#X connect 182 0 122 0;
#X connect 183 0 85 0;
#X connect 184 0 19 0;
#X connect 184 0 177 0;
#X connect 185 0 189 0;
#X connect 189 0 187 0;
#X connect 190 0 192 0;
#X connect 191 0 193 0;
#X connect 192 0 196 0;
#X connect 193 0 197 0;
#X connect 194 0 190 0;
#X connect 195 0 191 0;
#X connect 198 0 190 1;
#X connect 199 0 191 1;
#X connect 202 0 212 0;
#X connect 203 0 204 0;
#X connect 203 0 290 0;
#X connect 204 0 266 0;
#X connect 204 0 277 0;
#X connect 205 0 266 0;
#X connect 205 0 277 0;
#X connect 206 0 276 0;
#X connect 207 0 276 0;
#X connect 208 0 202 0;
#X connect 209 0 202 0;
#X connect 210 0 206 1;
#X connect 210 0 204 1;
#X connect 211 0 207 1;
#X connect 211 0 205 1;
#X connect 215 0 68 0;
#X connect 216 0 68 0;
#X connect 217 0 185 1;
#X connect 217 0 176 1;
#X connect 217 0 182 1;
#X connect 218 0 185 1;
#X connect 218 0 177 1;
#X connect 218 0 183 1;
#X connect 219 0 220 0;
#X connect 219 0 91 0;
#X connect 221 0 17 1;
#X connect 222 0 19 1;
#X connect 222 0 178 0;
#X connect 225 0 50 1;
#X connect 225 0 233 0;
#X connect 226 0 49 1;
#X connect 227 0 186 0;
#X connect 228 0 227 0;
#X connect 229 0 53 0;
#X connect 230 0 72 0;
#X connect 231 0 75 0;
#X connect 232 0 29 1;
#X connect 232 0 20 0;
#X connect 233 1 93 0;
#X connect 234 0 254 0;
#X connect 235 0 139 0;
#X connect 236 0 233 0;
#X connect 237 0 92 0;
#X connect 239 0 179 0;
#X connect 239 0 181 1;
#X connect 240 0 242 0;
#X connect 240 1 241 0;
#X connect 240 2 243 0;
#X connect 241 0 247 0;
#X connect 242 0 252 0;
#X connect 244 0 89 0;
#X connect 246 0 248 0;
#X connect 247 0 246 0;
#X connect 247 1 245 0;
#X connect 248 0 249 0;
#X connect 248 0 251 0;
#X connect 249 0 248 1;
#X connect 250 0 244 0;
#X connect 251 0 250 0;
#X connect 252 0 244 1;
#X connect 253 0 92 0;
#X connect 254 0 173 1;
#X connect 254 0 84 0;
#X connect 257 0 258 0;
#X connect 259 0 256 0;
#X connect 260 0 257 0;
#X connect 261 0 9 1;
#X connect 261 0 16 1;
#X connect 262 0 8 1;
#X connect 262 0 18 1;
#X connect 263 0 256 1;
#X connect 263 0 265 0;
#X connect 264 0 257 1;
#X connect 264 0 265 0;
#X connect 266 0 62 1;
#X connect 267 0 205 0;
#X connect 267 0 291 0;
#X connect 268 0 269 0;
#X connect 269 0 271 0;
#X connect 270 0 268 0;
#X connect 271 0 92 0;
#X connect 272 0 269 1;
#X connect 274 0 206 0;
#X connect 275 0 207 0;
#X connect 278 0 28 0;
#X connect 279 0 103 0;
#X connect 280 0 253 1;
#X connect 280 0 47 0;
#X connect 281 0 166 0;
#X connect 281 0 148 0;
#X connect 281 0 164 0;
#X connect 282 0 133 0;
#X connect 282 0 115 0;
#X connect 283 0 223 0;
#X connect 283 0 268 1;
#X connect 283 0 155 0;
#X connect 284 0 224 0;
#X connect 284 0 268 1;
#X connect 284 0 153 0;
#X connect 285 0 59 1;
#X connect 285 0 190 1;
#X connect 285 0 145 0;
#X connect 286 0 60 1;
#X connect 286 0 192 1;
#X connect 286 0 143 0;
#X connect 290 0 277 0;
#X connect 291 0 277 0;
#X connect 292 0 298 0;
#X connect 293 0 299 0;
#X connect 298 0 301 1;
#X connect 298 0 291 1;
#X connect 298 0 300 1;
#X connect 299 0 300 1;
#X connect 299 0 290 1;
#X connect 299 0 302 1;
#X connect 300 0 276 0;
#X connect 301 0 276 0;
#X connect 302 0 306 0;
#X connect 303 0 306 0;
#X connect 304 0 302 0;
#X connect 305 0 303 0;
#X connect 307 0 311 0;
#X connect 308 0 307 0;
#X connect 309 0 310 0;
#X connect 310 0 169 1;
#X connect 311 0 219 0;
#X connect 312 0 307 1;
#X connect 312 0 309 0;
#X connect 313 0 308 0;
#X coords 0 -1 1 1 235 168 2 0 90;
