#N canvas 444 180 1294 878 12;
#X text -1193 813 TIME COMPRESSION/EXPANSION BY LOOPED SAMPLING;
#X text -1837 880 Here \, rather than ask you to push the read pointer
back and forth in the sample \, we use a phasor~. This makes it possible
to avoid the samphold~ on the read pointer (r~ read-pt) \, since \,
knowing the precession \, we can correct for it in computing the frequency
of the original phasor~ at right.;
#X text -1759 978 We've changed the control for "chunk size" to milliseconds
for added convenience \, and delayed multiplying sample location by
the sample rate (44100) until the last moment \, so that calculations
using "read-pt" and "chunk size" can be in the same units (seconds.)
;
#X floatatom -1496 260 4 0 900 0 - - -, f 4;
#X text -1457 259 <-- position \, 0-1;
#X text -1460 286 <-- trgr on/off;
#X obj -701 185 r trgrA;
#X obj -712 226 r trgrB;
#X obj -758 180 r BB;
#X obj -756 205 r BB1;
#X obj -797 188 r T$;
#X obj -798 210 r T1;
#X obj -731 295 spigot-toggle_vert;
#X obj -695 393 outlet;
#X obj -797 363 outlet;
#X obj -793 278 spigot-toggle_red;
#X obj -793 256 spigot-toggle_vert;
#X floatatom -793 335 5 0 0 0 - - -, f 5;
#X floatatom -699 317 2 0 0 0 - - -, f 2;
#X obj -732 318 bng 15 250 50 0 empty empty empty 17 7 0 10 -262144
-1 -1;
#X obj -731 362 outlet;
#X floatatom -942 632 12 0 0 0 - - -, f 12;
#X obj 89 56 r lo;
#X msg 37 50 0;
#X msg 1633 148 0.5;
#X msg 1633 148 0.5;
#X msg 1614 129 0.5;
#X obj -943 657 outlet;
#X obj -1007 -93 bng 15 250 50 0 empty empty empty 17 7 0 10 -262144
-1 -1;
#X msg -1151 2 0;
#X obj -1151 88 spigot-toggle_orange;
#X obj 48 455 r drcttuch;
#X obj -762 256 spigot-toggle_vert;
#X obj -699 256 spigot-toggle_vert;
#X obj -762 278 spigot-toggle_red;
#X obj -675 275 spigot-toggle_red;
#X obj -701 638 r A;
#X obj -793 563 tgl 15 0 empty empty empty 17 7 0 10 -262144 -1 -1
0 1;
#X obj -641 645 r posvisu;
#X obj -701 721 - 0;
#X obj -718 793 bng 15 250 50 0 empty empty empty 17 7 0 10 -262144
-1 -1;
#X obj -719 817 f;
#X floatatom -701 746 8 0 3 0 - - -, f 8;
#X floatatom -766 843 8 0 3 0 - - -, f 8;
#X floatatom -796 588 5 0 0 0 - - -, f 5;
#X obj -792 614 sel 0;
#X floatatom -641 682 8 0 3 0 - - -, f 8;
#X obj -700 574 s trgrvolee;
#X obj -701 666 spigot-toggle_vert;
#X obj -762 743 t b b;
#X obj -765 793 bng 15 250 50 0 empty empty empty 17 7 0 10 -262144
-1 -1;
#X obj -766 817 f;
#X floatatom -752 773 8 0 3 0 - - -, f 8;
#X obj -22 832 spigot-toggle_orange;
#X obj -22 857 spigot-toggle_orange;
#X obj -21 880 spigot-toggle_orange;
#X obj -20 1001 r lo;
#X obj -22 903 spigot-toggle_orange;
#X obj -52 870 tgl 15 0 empty empty loc 2 7 0 10 -262144 -1 -1 0 1
;
#X obj 2 830 onoff0x;
#X obj 0 879 onoff2x;
#X obj 0 903 onoff3x;
#X obj 53 646 s slctdisplayonoff;
#X text -1182 928 >ø = stop at release;
#X text -1181 876 @A = reminds the last starting point and hangs on
;
#X text -1181 894 ø@ = reminds the last starting point and not hangs
on;
#X text -1187 855 tru = A without modulation;
#X text -1182 908 when one of above is select it can be played as;
#X text -1181 835 ø = ON/OFF \, 1 push: on second push : off;
#X text -1182 948 loc = reminds what you were doing \; 1st push: scd
push : off;
#X obj 1 854 onoff1x;
#X obj 229 220 - 1;
#X obj 264 221 * -1;
#X obj -793 400 s T$mod;
#X obj -1106 231 r A;
#X obj -1100 281 spigot-toggle_red;
#X obj -1099 256 spigot-toggle_vert;
#X obj -1072 280 spigot-toggle_red;
#X obj -1072 256 spigot-toggle_vert;
#X floatatom -1099 359 8 0 3 0 - - -, f 8;
#X obj -1079 483 r lo;
#X obj -1098 514 spigot-toggle_red;
#X obj -1233 200 r line_pause;
#X obj -1230 326 spigot-toggle_jaunenoir;
#X obj -1155 332 spigot-toggle_jaunenoir;
#X obj -1232 224 r line_pause1;
#X obj -1098 451 + 0;
#X floatatom -1230 373 12 0 0 0 - - -, f 12;
#X obj 99 421 s fiddlecackborm;
#X obj -116 516 spigot-toggle_orange;
#X obj -117 541 spigot-toggle_orange;
#X obj -702 694 t b f;
#X obj -1105 393 + 0;
#X obj -1107 567 spigot-toggle_red;
#X obj -520 714 f;
#X floatatom -523 743 8 0 3 0 - - -, f 8;
#X obj -521 806 spigot-toggle_vert;
#X floatatom -587 742 8 0 3 0 - - -, f 8;
#X obj -575 714 f;
#X obj -530 623 sel;
#X obj -523 685 bng 15 250 50 0 empty empty empty 17 7 0 10 -262144
-1 -1;
#X obj -574 689 bng 15 250 50 0 empty empty empty 17 7 0 10 -262144
-1 -1;
#X obj -98 516 spigot-toggle_orange;
#X obj -96 541 spigot-toggle_orange;
#X obj -140 516 spigot-toggle_orange;
#X obj -140 541 spigot-toggle_orange;
#X obj -115 578 r lo;
#X obj -1103 334 + 0;
#X obj -571 530 r ø>0;
#X obj -569 559 sel;
#X msg -534 591 1;
#X obj -700 604 s trgrvolee1;
#X obj -1121 689 t b f;
#X obj 60 612 spigot-toggle_jaune;
#X obj 68 585 r lo;
#X obj -17 -95 spigot-toggle_orange;
#X obj 9 -119 sel;
#X obj -16 -144 spigot-toggle_orange;
#X msg 9 -89 1;
#X obj 6 -44 - 1;
#X obj 5 -21 * -1;
#X obj 9 -179 sel;
#X msg 9 -149 0;
#X obj -639 712 spigot-toggle_red;
#X obj -624 815 - 1;
#X obj -625 838 * -1;
#X obj -521 658 r b@A;
#X obj 29 522 s ø>;
#X obj -3 522 s @A;
#X obj -514 772 r @A;
#X obj -626 749 r lo;
#X obj -560 658 r lo;
#X obj -551 686 spigot-toggle_vert;
#X obj 43 -106 r lo;
#X obj 486 185 s TmstrchBTR;
#X obj 447 244 r TRGnB_@sB;
#X obj 447 214 r TRGnB_@sA;
#X obj -1072 231 r B;
#X obj 111 311 spigot-toggle_orange;
#X obj 31 128 tgl 25 0 empty empty A 8 14 1 17 -1 -262144 -262144 0
1;
#X obj 31 154 tgl 25 0 empty empty B 8 14 1 17 -1 -262144 -262144 0
1;
#X obj 77 129 tgl 25 0 empty empty A 8 12 0 16 -1 -262144 -262144 0
1;
#X obj 77 154 tgl 25 0 empty empty B 8 12 0 16 -1 -262144 -262144 0
1;
#X obj 76 101 cnv 20 52 14 empty empty gate 10 6 0 11 -1 -262144 0
;
#X obj 57 103 vsl 20 52 0 0.5 0 0 empty empty mod 2 44 0 9 -1 -262144
-262144 0 1;
#X obj 5 214 cnv 20 75 27 empty empty -A- 22 10 0 10 -1 -262144 0;
#X obj 4 240 cnv 12 75 21 empty empty -B- 22 8 0 10 -1 -262144 0;
#X obj 49 235 tgl 25 0 empty empty empty 5 10 0 15 -1 -262144 -260097
0 1;
#X obj 3 215 tgl 25 0 empty empty Trg 1 10 0 10 -1 -262144 -262144
0 1;
#X obj 3 235 tgl 25 0 empty empty empty 5 10 0 15 -1 -262144 -262144
0 1;
#X obj 103 131 tgl 25 0 empty empty ->- 2 12 0 12 -1 -262144 -262144
0 1;
#X obj 2 128 tgl 25 0 empty empty A@ 4 12 0 14 -260097 -262144 -45076
0 1;
#X obj 2 154 tgl 25 0 empty empty @re 2 13 0 12 -260097 -262144 -45076
0 1;
#X obj 103 154 tgl 25 0 empty empty ->- 2 12 0 12 -1 -262144 -262144
0 1;
#X obj 66 181 tgl 30 0 empty empty løc 5 15 0 12 -260097 -1 -1 0 1
;
#X obj 34 181 tgl 30 0 empty empty >ø 5 15 0 15 -260097 -1 -1 0 1
;
#X obj 2 102 tgl 25 0 empty empty raw 1 12 0 12 -260097 -262144 -45076
0 1;
#X obj 98 181 tgl 30 0 empty empty ø@S 5 15 0 12 -260097 -262144 -1
0 1;
#X obj 78 114 cnv 15 50 15 empty empty empty 20 12 0 14 -262144 -66577
0;
#X floatatom 78 114 6 0 0 0 - - -, f 6;
#X obj 2 181 tgl 30 0 empty empty @A 5 15 0 14 -260097 -1 -1 0 1;
#X obj 102 214 tgl 25 0 empty empty ø 6 10 0 14 -1 -262144 -260097
0 1;
#X obj 102 236 tgl 25 0 empty empty ø 6 10 0 15 -1 -262144 -260097
0 1;
#X obj 79 214 tgl 25 0 empty empty <<<<<< 1 10 0 11 -1 -262144 -260097
0 1;
#X obj 79 236 tgl 25 0 empty empty <<<<<< 1 10 0 11 -1 -262144 -260097
0 1;
#X obj 31 101 tgl 26 0 empty empty ø 6 10 0 25 -1 -262144 -228856
0 1;
#X obj -16 766 * -1;
#X obj -15 707 r freestepsouts1;
#X obj -16 739 - 1;
#X obj -171 62 s reposetoinoffA;
#X obj -173 82 r send_reposetoinoffA;
#X obj -931 -48 - 1;
#X obj -1006 22 * -1;
#X obj -1004 56 spigot-toggle_orange;
#X obj -928 -71 tgl 15 0 empty empty empty 17 7 0 10 -262144 -1 -1
1 1;
#X msg -1063 336 0;
#X obj 58 160 bng 17 250 50 0 empty empty +0 3 8 0 8 -1 -262144 -262144
;
#X obj 249 142 s øAtiTS1;
#X obj 104 352 * 1;
#X obj 106 377 s trgTS1;
#X obj -1629 438 s posA;
#X obj -878 20 s BangAtoenv;
#X obj -123 862 r locA;
#X obj 69 550 s locA;
#X obj -116 627 r s&pAa;
#X obj -116 649 r s&pBa;
#X obj -116 689 r speedAa;
#X obj -118 712 r speedBa;
#X obj -119 749 r pitchAa;
#X obj -120 781 r pitchBa;
#X obj 307 221 s øAtiTS1>ø;
#X obj 67 521 -;
#X obj 365 130 s onofdispay0;
#X obj 313 163 s Aonoff;
#X obj -936 -94 r IT≠T;
#X obj 504 140 s Amod;
#X floatatom -1318 635 12 0 0 0 - - -, f 12;
#X obj 219 2 f;
#X obj 253 2 + 1;
#X floatatom 239 76 5 0 0 0 - - -, f 5;
#X msg 235 52 1;
#X msg 274 52 0;
#X obj 222 28 mod 2;
#X obj 263 28 sel;
#X floatatom 258 -108 5 0 0 0 - - -, f 5;
#X obj 212 -27 t b b;
#X floatatom 208 -108 5 0 0 0 - - -, f 5;
#X obj 209 -135 notein;
#X floatatom 298 -108 5 0 0 0 - - -, f 5;
#X obj 211 -79 spigot-toggle_orange;
#X obj 233 -79 == 64;
#X obj 212 -52 select 48;
#X obj -948 742 t b f;
#X obj -943 774 /;
#X floatatom -944 799 5 0 0 0 - - -, f 5;
#X obj -1007 729 -;
#X obj -893 753 r T$;
#X obj -947 710 r looplenghtA;
#X obj -982 795 f;
#X obj -991 691 sel;
#X obj -966 729 bng 15 250 50 0 empty empty empty 17 7 0 10 -262144
-1 -1;
#X floatatom -1044 799 5 0 0 0 - - -, f 5;
#X msg 37 30 1;
#X obj 49 215 tgl 25 0 empty empty Bng 2 10 0 10 -1 -262144 -262144
0 1;
#X obj -941 607 * 1;
#X connect 3 0 180 0;
#X connect 6 0 33 0;
#X connect 7 0 35 0;
#X connect 8 0 32 0;
#X connect 9 0 34 0;
#X connect 10 0 16 0;
#X connect 11 0 15 0;
#X connect 12 0 19 0;
#X connect 15 0 17 0;
#X connect 16 0 17 0;
#X connect 17 0 14 0;
#X connect 17 0 73 0;
#X connect 17 0 173 0;
#X connect 18 0 12 1;
#X connect 18 0 20 0;
#X connect 18 0 81 1;
#X connect 18 0 165 0;
#X connect 19 0 13 0;
#X connect 19 0 28 0;
#X connect 21 0 27 0;
#X connect 21 0 3 0;
#X connect 22 0 23 0;
#X connect 22 0 222 0;
#X connect 23 0 144 0;
#X connect 23 0 165 0;
#X connect 28 0 29 0;
#X connect 28 0 181 0;
#X connect 29 0 30 0;
#X connect 30 0 3 0;
#X connect 31 0 159 0;
#X connect 32 0 12 0;
#X connect 33 0 18 0;
#X connect 34 0 12 0;
#X connect 35 0 18 0;
#X connect 36 0 48 0;
#X connect 37 0 44 0;
#X connect 37 0 47 0;
#X connect 38 0 46 0;
#X connect 39 0 42 0;
#X connect 40 0 41 0;
#X connect 41 0 52 0;
#X connect 42 0 41 1;
#X connect 42 0 98 1;
#X connect 43 0 215 0;
#X connect 44 0 45 0;
#X connect 45 1 49 0;
#X connect 46 0 123 0;
#X connect 48 0 91 0;
#X connect 49 0 50 0;
#X connect 49 1 40 0;
#X connect 50 0 51 0;
#X connect 51 0 43 0;
#X connect 52 0 51 1;
#X connect 53 0 165 0;
#X connect 54 0 156 0;
#X connect 55 0 151 0;
#X connect 56 0 53 1;
#X connect 56 0 54 1;
#X connect 56 0 55 1;
#X connect 56 0 57 1;
#X connect 57 0 152 0;
#X connect 58 0 61 0;
#X connect 58 0 60 0;
#X connect 58 0 70 0;
#X connect 59 0 53 0;
#X connect 60 0 55 0;
#X connect 61 0 57 0;
#X connect 70 0 54 0;
#X connect 71 0 72 0;
#X connect 72 0 190 0;
#X connect 74 0 76 0;
#X connect 74 0 78 0;
#X connect 75 0 107 0;
#X connect 76 0 107 0;
#X connect 77 0 107 1;
#X connect 78 0 107 1;
#X connect 79 0 92 0;
#X connect 80 0 81 1;
#X connect 81 0 93 0;
#X connect 82 0 83 0;
#X connect 83 0 87 0;
#X connect 84 0 87 0;
#X connect 85 0 84 0;
#X connect 86 0 81 0;
#X connect 87 0 86 1;
#X connect 89 0 102 0;
#X connect 89 0 104 0;
#X connect 90 0 103 0;
#X connect 90 0 105 0;
#X connect 91 0 39 0;
#X connect 91 1 39 1;
#X connect 92 0 86 0;
#X connect 93 0 159 0;
#X connect 93 0 196 0;
#X connect 94 0 95 0;
#X connect 95 0 96 0;
#X connect 96 0 159 0;
#X connect 97 0 94 1;
#X connect 98 0 97 0;
#X connect 99 1 132 0;
#X connect 100 0 94 0;
#X connect 101 0 98 0;
#X connect 102 0 47 0;
#X connect 103 0 111 0;
#X connect 104 0 223 0;
#X connect 105 0 147 0;
#X connect 106 0 89 1;
#X connect 106 0 90 1;
#X connect 107 0 79 0;
#X connect 108 0 109 0;
#X connect 109 1 110 0;
#X connect 110 0 47 0;
#X connect 112 0 92 0;
#X connect 112 1 92 1;
#X connect 113 0 62 0;
#X connect 114 0 113 1;
#X connect 115 0 18 0;
#X connect 116 0 118 0;
#X connect 117 0 18 0;
#X connect 118 0 115 0;
#X connect 119 0 120 0;
#X connect 120 0 115 1;
#X connect 121 0 122 0;
#X connect 122 0 117 0;
#X connect 123 0 39 0;
#X connect 124 0 125 0;
#X connect 125 0 123 1;
#X connect 126 0 100 0;
#X connect 129 0 96 1;
#X connect 130 0 123 1;
#X connect 131 0 132 1;
#X connect 132 0 101 0;
#X connect 133 0 115 1;
#X connect 135 0 147 0;
#X connect 136 0 223 0;
#X connect 137 0 75 0;
#X connect 137 0 77 0;
#X connect 138 0 178 0;
#X connect 139 0 138 0;
#X connect 139 0 76 1;
#X connect 139 0 99 0;
#X connect 139 0 193 0;
#X connect 139 0 223 0;
#X connect 140 0 147 0;
#X connect 140 0 138 0;
#X connect 140 0 75 1;
#X connect 140 0 99 0;
#X connect 140 0 93 1;
#X connect 141 0 78 1;
#X connect 142 0 77 1;
#X connect 144 0 107 1;
#X connect 144 0 86 1;
#X connect 147 0 149 0;
#X connect 147 0 15 1;
#X connect 147 0 34 1;
#X connect 147 0 88 0;
#X connect 147 0 113 0;
#X connect 148 0 33 1;
#X connect 149 0 35 1;
#X connect 150 0 138 1;
#X connect 150 0 83 1;
#X connect 150 0 169 0;
#X connect 150 0 178 0;
#X connect 151 0 139 0;
#X connect 151 0 37 0;
#X connect 151 0 48 1;
#X connect 151 0 93 1;
#X connect 151 0 116 0;
#X connect 151 0 121 0;
#X connect 151 0 219 0;
#X connect 152 0 139 0;
#X connect 152 0 109 0;
#X connect 152 0 116 0;
#X connect 152 0 121 0;
#X connect 152 0 47 0;
#X connect 152 0 93 1;
#X connect 152 0 124 0;
#X connect 153 0 138 1;
#X connect 153 0 84 1;
#X connect 153 0 134 0;
#X connect 153 0 178 0;
#X connect 154 0 191 0;
#X connect 155 0 71 0;
#X connect 155 0 117 1;
#X connect 155 0 119 0;
#X connect 155 0 127 0;
#X connect 156 0 139 0;
#X connect 156 0 116 0;
#X connect 156 0 47 0;
#X connect 156 0 121 0;
#X connect 156 0 93 1;
#X connect 156 0 223 0;
#X connect 157 0 30 1;
#X connect 159 0 195 0;
#X connect 159 0 224 0;
#X connect 160 0 128 0;
#X connect 161 0 102 1;
#X connect 162 0 103 1;
#X connect 163 0 104 1;
#X connect 164 0 105 1;
#X connect 165 0 192 0;
#X connect 165 0 177 0;
#X connect 166 0 53 1;
#X connect 166 0 54 1;
#X connect 166 0 55 1;
#X connect 166 0 57 1;
#X connect 167 0 168 0;
#X connect 168 0 166 0;
#X connect 170 0 150 0;
#X connect 171 0 172 0;
#X connect 172 0 173 1;
#X connect 173 0 28 0;
#X connect 173 0 181 0;
#X connect 174 0 171 0;
#X connect 175 0 87 0;
#X connect 175 0 107 1;
#X connect 175 0 92 1;
#X connect 175 0 86 1;
#X connect 176 0 175 0;
#X connect 178 0 179 0;
#X connect 182 0 58 0;
#X connect 184 0 89 0;
#X connect 185 0 90 0;
#X connect 186 0 89 0;
#X connect 187 0 90 0;
#X connect 188 0 89 0;
#X connect 189 0 90 0;
#X connect 191 0 183 0;
#X connect 194 0 174 0;
#X connect 197 0 198 0;
#X connect 197 0 202 0;
#X connect 198 0 197 1;
#X connect 199 0 150 0;
#X connect 200 0 199 0;
#X connect 201 0 199 0;
#X connect 202 0 203 0;
#X connect 203 0 200 0;
#X connect 203 1 201 0;
#X connect 204 0 210 0;
#X connect 205 0 197 0;
#X connect 206 0 209 0;
#X connect 207 0 206 0;
#X connect 207 1 204 0;
#X connect 207 2 208 0;
#X connect 209 0 211 0;
#X connect 210 0 209 1;
#X connect 211 0 205 0;
#X connect 212 0 213 0;
#X connect 212 1 213 1;
#X connect 213 0 214 0;
#X connect 214 0 218 1;
#X connect 215 0 112 0;
#X connect 216 0 213 0;
#X connect 217 0 212 0;
#X connect 218 0 215 1;
#X connect 218 0 221 0;
#X connect 219 1 220 0;
#X connect 220 0 218 0;
#X connect 223 0 148 0;
#X connect 223 0 16 1;
#X connect 223 0 32 1;
#X connect 223 0 88 0;
#X connect 223 0 113 0;
#X connect 224 0 21 0;
#X coords 0 -1 1 1 130 165 2 0 99;
