#N canvas 0 141 1148 887 12;
#X text 566 832 TIME COMPRESSION/EXPANSION BY LOOPED SAMPLING;
#X text -1745 980 We've changed the control for "chunk size" to milliseconds
for added convenience \, and delayed multiplying sample location by
the sample rate (44100) until the last moment \, so that calculations
using "read-pt" and "chunk size" can be in the same units (seconds.)
;
#X obj 1220 204 r trgrB;
#X obj 1163 168 r BB;
#X obj 1166 194 r BB1;
#X obj 1115 175 r T$;
#X obj 1114 197 r T1;
#X obj 1171 321 spigot-toggle_vert;
#X obj 1180 441 outlet;
#X obj 1126 440 outlet;
#X obj 1119 265 spigot-toggle_red;
#X obj 1119 243 spigot-toggle_vert;
#X floatatom 1115 346 5 0 0 0 - - -;
#X floatatom 1242 351 2 0 0 0 - - -;
#X obj 1173 349 bng 15 250 50 0 empty empty empty 17 7 0 10 -262144
-1 -1;
#X obj 1339 410 outlet;
#X floatatom 285 452 12 0 0 0 - - -;
#X obj 215 51 r lo;
#X msg 211 81 0;
#X obj 285 475 outlet;
#X obj 1163 243 spigot-toggle_vert;
#X obj 1236 243 spigot-toggle_vert;
#X obj 1163 265 spigot-toggle_red;
#X obj 1235 265 spigot-toggle_red;
#X obj 335 546 r A;
#X obj 274 619 tgl 15 0 empty empty empty 17 7 0 10 -262144 -1 -1 0
1;
#X obj 335 675 - 0;
#X obj 318 747 bng 15 250 50 0 empty empty empty 17 7 0 10 -262144
-1 -1;
#X obj 317 771 f;
#X floatatom 335 700 8 0 3 0 - - -;
#X floatatom 271 810 8 0 3 0 - - -;
#X floatatom 272 641 5 0 0 0 - - -;
#X obj 274 669 sel 0;
#X floatatom 395 541 8 0 3 0 - - -;
#X obj 174 819 s trgrvolee;
#X obj 335 622 spigot-toggle_vert;
#X obj 274 697 t b b;
#X obj 271 755 bng 15 250 50 0 empty empty empty 17 7 0 10 -262144
-1 -1;
#X obj 270 783 f;
#X floatatom 284 727 8 0 3 0 - - -;
#X obj 24 940 spigot-toggle_orange;
#X obj 23 964 spigot-toggle_orange;
#X obj 23 988 spigot-toggle_orange;
#X obj 32 893 r lo;
#X obj 23 1010 spigot-toggle_orange;
#X obj -6 976 tgl 15 0 empty empty loc 2 7 0 10 -262144 -1 -1 0 1;
#X obj 48 936 onoff0x;
#X obj 47 984 onoff2x;
#X obj 46 1009 onoff3x;
#X text -1168 930 >ø = stop at release;
#X text 577 927 when one of above is select it can be played as;
#X text 578 854 ø = ON/OFF \, 1 push: on second push : off;
#X text -1168 950 loc = reminds what you were doing \; 1st push: scd
push : off;
#X obj 47 960 onoff1x;
#X obj 1122 412 s T$mod;
#X obj 613 82 r A;
#X obj 618 176 spigot-toggle_red;
#X obj 618 149 spigot-toggle_vert;
#X obj 646 176 spigot-toggle_red;
#X obj 646 149 spigot-toggle_vert;
#X floatatom 619 322 8 0 3 0 - - -;
#X obj 630 520 r lo;
#X obj 622 579 spigot-toggle_red;
#X obj 761 148 spigot-toggle_jaunenoir;
#X obj 761 175 spigot-toggle_jaunenoir;
#X obj 781 177 r line_pause1;
#X floatatom 762 260 12 0 0 0 - - -;
#X obj 147 821 spigot-toggle_orange;
#X obj 148 849 spigot-toggle_orange;
#X obj 334 648 t b f;
#X obj 622 348 + 0;
#X obj 621 610 spigot-toggle_red;
#X obj 527 703 f;
#X floatatom 524 732 8 0 3 0 - - -;
#X obj 525 782 spigot-toggle_vert;
#X floatatom 460 731 8 0 3 0 - - -;
#X obj 472 703 f;
#X obj 477 654 sel;
#X obj 524 674 bng 15 250 50 0 empty empty empty 17 7 0 10 -262144
-1 -1;
#X obj 470 680 bng 15 250 50 0 empty empty empty 17 7 0 10 -262144
-1 -1;
#X obj 623 269 + 0;
#X obj -418 437 sel;
#X msg -417 458 1;
#X obj 169 849 s trgrvolee1;
#X obj 41 324 r lo;
#X obj 393 665 spigot-toggle_red;
#X obj 403 602 - 1;
#X obj 402 625 * -1;
#X obj 534 753 r @A;
#X obj 413 665 r lo;
#X obj 166 467 s TmstrchBTR;
#X obj 79 -595 r TRGnB_@sB;
#X obj 79 -617 r TRGnB_@sA;
#X obj 90 150 tgl 28 0 empty empty A 6 15 1 26 -1 -262144 -262144 0
1;
#X obj 90 179 tgl 28 0 empty empty B 6 15 1 26 -1 -262144 -262144 0
1;
#X obj 177 139 tgl 28 0 empty empty A 6 12 1 22 -1 -262144 -262144
0 1;
#X obj 177 166 tgl 28 0 empty empty B 6 12 1 22 -1 -262144 -262144
0 1;
#X obj 119 152 vsl 28 110 0 1 0 0 empty empty ÷ 8 44 0 22 -16662 -260097
-260097 0 1;
#X obj 90 237 tgl 28 0 empty empty • 6 15 1 50 -1 -260097 -260097
0 1;
#X obj 61 208 tgl 28 0 empty empty ◐ 8 15 1 14 -1 -260097 -260097
0 1;
#X obj 61 237 tgl 28 0 empty empty ◐ 8 15 1 14 -1 -260097 -260097
0 1;
#X obj 148 137 tgl 28 0 empty empty ☞ 8 12 0 27 -1 -262144 -262144
0 1;
#X obj 61 150 tgl 28 0 empty empty @ 2 14 1 26 -260097 -1 -1 0 1;
#X obj 61 179 tgl 28 0 empty empty ⤷@ -6 14 1 18 -260097 -1 -1 0
1;
#X obj 148 166 tgl 28 0 empty empty ☞ 8 12 0 27 -1 -262144 -262144
0 1;
#X obj 32 150 tgl 28 0 empty empty ∞ 6 15 2 25 -1 -260097 -260097
0 1;
#X obj 32 121 tgl 28 0 empty empty >๏ 5 13 1 15 -1 -260097 -260097
0 1;
#X obj 61 121 tgl 28 0 empty empty raw 2 12 1 16 -260097 -1 -1 0 1
;
#X obj 32 208 tgl 28 0 empty empty @S 7 14 0 11 -1 -260097 -260097
0 1;
#X floatatom 148 120 8 0 0 0 - - -;
#X obj 32 179 tgl 28 0 empty empty @ 6 15 1 18 -1 -260097 -260097 0
1;
#X obj 148 210 tgl 28 0 empty empty ∗ 8 12 1 24 -1 -262144 -260097
0 1;
#X obj 148 238 tgl 28 0 empty empty ∗ 8 12 1 24 -1 -260097 -260097
0 1;
#X obj 90 121 tgl 28 0 empty empty ๏ -4 10 1 50 -260097 -1 -1 0 1
;
#X obj 31 1141 * -1;
#X obj 31 1114 - 1;
#X obj 160 -398 s reposetoinoffA;
#X obj 160 -445 r send_reposetoinoffA;
#X msg 717 129 0;
#X obj 119 121 bng 28 250 50 0 empty empty +0 9 14 2 10 -1 -260097
-260097;
#X obj 334 475 s posA;
#X obj -77 968 r locA;
#X obj 219 410 s locA;
#X obj 151 874 r s&pAa;
#X obj 151 896 r s&pBa;
#X obj 151 918 r speedAa;
#X obj 151 940 r speedBa;
#X obj 151 962 r pitchAa;
#X obj 150 980 r pitchBa;
#X obj 620 662 s Amod;
#X floatatom 622 634 12 0 0 0 - - -;
#X obj 90 208 tgl 28 0 empty empty • 6 15 1 50 -1 -260097 -260097
1 1;
#X obj 161 -373 s reposetoinoffAB;
#X obj 161 -343 r send_reposetoinoffAB;
#X obj 179 -240 s modAA;
#X obj 183 -214 s modAB;
#X obj 179 -262 r send_modAA;
#X obj 183 -192 r send_modAB;
#X obj 54 -544 r send_rawA;
#X obj 54 -520 r send_A@;
#X obj 56 -437 r send_@re;
#X obj 54 -495 s rawA;
#X obj 56 -413 s @re;
#X obj 26 -393 r send_@A;
#X obj 55 -467 s A@;
#X obj 26 -371 s @A;
#X obj 69 -321 s AB;
#X floatatom 33 288 5 0 0 0 - - -;
#X obj 53 -647 s AAbuton;
#X obj 53 -671 r send_AAbuton;
#X obj 27 -167 r send_save_dataposA;
#X obj 27 -142 s save_dataposA;
#X obj 41 -1095 r send_save_trgAA;
#X obj 41 -1043 s save_trgAA;
#X obj 41 -991 r send_save_trgAB;
#X obj 41 -939 s save_trgAB;
#X obj 71 -1333 r send_save_BngAA;
#X obj 71 -1281 s save_BngAA;
#X obj 71 -1229 r send_save_BngAB;
#X obj 71 -1177 s save_BngAB;
#X obj 150 1027 r chngpresetA;
#X msg 118 1028 0;
#X obj 778 292 s line_pauseA;
#X obj 90 -262 s lyrAposA;
#X obj 90 -239 s lyrAposB;
#X obj -183 125 r lo;
#X obj 618 203 spigot-toggle_violet;
#X obj 646 203 spigot-toggle_violet;
#X msg 243 81 0;
#X obj 32 1082 r freestepsouts;
#X obj 254 445 * 1;
#X obj 643 82 r B;
#X obj 125 -884 r send_A<<A;
#X obj 125 -862 s A<<A;
#X obj 124 -838 r send_AøA;
#X obj 124 -816 s AøA;
#X obj 175 -1179 r send_A<<B;
#X obj 175 -1155 s A<<B;
#X obj 180 -1117 r send_AøB;
#X obj 180 -1067 s AøB;
#X obj 167 438 s ø@S;
#X obj 29 -74 r send_save_ø@S;
#X obj 29 -48 s save_ø@S;
#X obj 69 -344 r send_AB;
#X obj 815 425 spigot-toggle_vert;
#X obj 815 404 bng 15 250 50 0 empty empty empty 17 7 0 10 -262144
-1 -1;
#X obj 622 549 spigot-toggle_vert;
#X obj 765 429 - 1;
#X obj 764 452 * -1;
#X obj 1340 275 sel;
#X msg 1248 322 1;
#X obj 90 -285 s ABselectA;
#X obj 1181 412 s BBmod;
#X obj 782 148 r stretchA;
#X floatatom 621 374 8 0 3 0 - - -;
#X obj 655 42 sel;
#X obj 670 69 bng 15 250 50 0 empty empty empty 17 7 0 10 -262144 -1
-1;
#X obj 1228 626 spigot-toggle_vert;
#X obj 1228 558 spigot-toggle_vert;
#X obj 1228 581 spigot-toggle_red;
#X obj 1287 615 r lo;
#X obj 1227 670 spigot-toggle_vert;
#X obj 1227 694 spigot-toggle_red;
#X obj 48 1032 onoff7x;
#X obj 1266 717 s trgrtoenv;
#X obj 1266 654 spigot-toggle_vert;
#X obj 1455 670 s trgrtoenvonoff;
#X obj -115 472 s Abutton;
#X floatatom 1453 644 2 0 0 0 - - -;
#X floatatom 1266 674 2 0 0 0 - - -;
#X obj 1477 500 r trgrBafter;
#X obj 1472 473 r trgrAafter;
#X obj 1451 476 spigot-toggle_vert;
#X obj 1451 501 spigot-toggle_red;
#X obj 1449 404 spigot-toggle_vert;
#X obj 1449 425 spigot-toggle_red;
#X obj 79 679 s BAtch;
#X obj 1456 176 r AAtch;
#X obj 1456 201 r BAtch;
#X obj 1275 571 r BAtch;
#X obj 1275 546 r AAtch;
#X obj -75 552 spigot-toggle_orange;
#X obj -76 630 spigot-toggle_orange;
#X obj -76 602 r s@pAB;
#X obj -75 526 r s@pAA;
#X obj -75 578 spigot-toggle_orange;
#X obj -76 658 spigot-toggle_orange;
#X obj 76 648 s AAtch;
#X obj 75 459 s sl_trgA;
#X obj 74 487 s sl_trgB;
#X obj 109 541 s sl_bngA;
#X obj 110 568 s sl_bngB;
#X obj 1326 122 r sl_trgA;
#X obj 1240 133 r sl_trgB;
#X obj -52 551 r sl_bngA;
#X obj -55 632 r sl_bngB;
#X obj 760 382 r ø@S;
#X obj 1418 582 r sl_trgA;
#X obj 1498 580 r sl_trgB;
#X obj 623 -12 r AAonoff;
#X obj 624 11 r BAonoff;
#X obj 477 578 r AAonoff;
#X obj 479 605 r BAonoff;
#X obj -133 167 s AAonoff;
#X obj -133 205 s BAonoff;
#X obj -185 834 r BAonoff;
#X obj -110 449 spigot-toggle_orange;
#X obj -109 421 r Bbutton;
#X obj 623 300 + 0;
#X obj 152 23 spigot-toggle_orange;
#X text 572 874 raw = A without modulation;
#X text 578 895 ⤷@ = reminds the last starting point and hangs on
;
#X text 577 913 @ = reminds the last starting point and not hangs on
;
#X obj 345 571 r A@;
#X obj 400 577 r @re;
#X obj 178 785 r AAonoff;
#X obj 1244 412 s trgrmodA;
#X obj -402 386 r @re;
#X obj 1282 324 r lo;
#X obj 347 -134 notein;
#X floatatom 394 -107 5 0 0 0 - - -;
#X floatatom 348 -106 5 0 0 0 - - -;
#X floatatom 440 -108 5 0 0 0 - - -;
#X obj 345 5 spigot-toggle_red;
#X obj 419 -55 bng 15 250 50 0 empty empty empty 17 7 0 10 -262144
-1 -1;
#X obj 396 -53 bng 15 250 50 0 empty empty empty 17 7 0 10 -262144
-1 -1;
#X obj 395 -82 sel;
#X obj 397 -33 f;
#X obj 428 -31 + 1;
#X floatatom 344 -23 5 0 0 0 - - -;
#X obj 398 -9 mod 2;
#X obj 347 -76 == 52;
#X obj -379 415 r ø>;
#X obj 115 21 spigot-toggle_orange;
#X obj 662 -52 r rawA;
#X obj 56 -190 s rawA;
#X floatatom 1364 208 2 0 0 0 - - -;
#X obj 24 29 r trgrmodA;
#X msg 671 87 0;
#X obj 1124 91 r AAonoff;
#X obj 1125 114 r BAonoff;
#X floatatom 1425 538 2 0 0 0 - - -;
#X obj 1220 179 r trgrA;
#X obj -33 431 spigot-toggle_orange;
#X obj -33 458 delay;
#X obj 0 433 r t$mod;
#X obj -29 407 sel;
#X msg -34 480 1;
#X obj 83 -101 s øAtiTS1;
#X obj 159 -316 s TStrchonoffA;
#X obj 1475 381 r trgrA;
#X obj 1477 404 r trgrB;
#X obj 1483 439 s trgrAmod;
#X obj 1449 537 s trgrafterAmod;
#X obj 313 77 s 0+;
#X obj 32 98 cnv 13 174 22 empty empty ↬ 124 10 0 28 -1 -260097 0
;
#X msg -210 637 0;
#X obj 1657 658 s Abutton;
#X obj 1660 694 s Bbutton;
#X obj 1654 492 spigot-toggle_vert;
#X obj 1654 513 spigot-toggle_red;
#X obj 1659 591 tgl 28 0 empty empty • 6 15 1 50 -1 -260097 -260097
0 1;
#X obj 1659 564 tgl 28 0 empty empty • 6 15 1 50 -1 -260097 -260097
0 1;
#X obj 147 194 cnv 15 58 18 empty empty ω+♪ 19 12 0 14 -1 -260097
0;
#X obj 32 237 tgl 28 0 empty empty @S 7 14 0 11 -1 -1 -1 0 1;
#X obj 1 99 cnv 15 30 166 empty empty empty 20 12 0 14 -1 -66577 0
;
#X obj 204 99 cnv 15 30 166 empty empty empty 20 12 0 14 -1 -66577
0;
#X obj 217 381 - 0;
#X obj 1654 397 spigot-toggle_vert;
#X obj 1654 418 spigot-toggle_red;
#X obj 1642 304 spigot-toggle_vert;
#X obj 1642 325 spigot-toggle_red;
#X obj 176 237 tgl 28 0 empty empty • 5 15 1 50 -1 -262144 -260097
0 1;
#X obj 176 210 tgl 28 0 empty empty • 5 15 1 50 -1 -262144 -260097
0 1;
#X text 1578 275 env selct from audio mod module;
#X obj -90 -56 r r TRGnB_@send;
#X obj 1641 210 r BB;
#X obj 1643 237 r BB1;
#X obj 1665 321 s BBmod;
#X obj 394 518 r playbackA;
#X obj 815 376 r SmplbangA;
#X obj 814 453 f;
#X connect 2 0 23 0;
#X connect 2 0 199 0;
#X connect 3 0 20 0;
#X connect 4 0 22 0;
#X connect 5 0 11 0;
#X connect 6 0 10 0;
#X connect 7 0 14 0;
#X connect 10 0 12 0;
#X connect 11 0 12 0;
#X connect 12 0 9 0;
#X connect 12 0 54 0;
#X connect 13 0 15 0;
#X connect 13 0 256 0;
#X connect 14 0 8 0;
#X connect 14 0 192 0;
#X connect 16 0 120 0;
#X connect 16 0 19 0;
#X connect 17 0 18 0;
#X connect 17 0 168 0;
#X connect 18 0 113 0;
#X connect 18 0 97 0;
#X connect 20 0 7 0;
#X connect 21 0 13 0;
#X connect 22 0 7 0;
#X connect 23 0 13 0;
#X connect 24 0 35 0;
#X connect 25 0 31 0;
#X connect 25 0 34 0;
#X connect 26 0 29 0;
#X connect 27 0 28 0;
#X connect 28 0 39 0;
#X connect 29 0 28 1;
#X connect 29 0 76 1;
#X connect 30 0 70 1;
#X connect 31 0 32 0;
#X connect 32 1 36 0;
#X connect 33 0 85 0;
#X connect 35 0 69 0;
#X connect 36 0 37 0;
#X connect 36 1 27 0;
#X connect 37 0 38 0;
#X connect 38 0 30 0;
#X connect 39 0 38 1;
#X connect 40 0 113 0;
#X connect 41 0 107 0;
#X connect 42 0 102 0;
#X connect 43 0 40 1;
#X connect 43 0 41 1;
#X connect 43 0 42 1;
#X connect 43 0 44 1;
#X connect 44 0 103 0;
#X connect 45 0 48 0;
#X connect 45 0 47 0;
#X connect 45 0 53 0;
#X connect 45 0 203 0;
#X connect 46 0 40 0;
#X connect 47 0 42 0;
#X connect 48 0 44 0;
#X connect 53 0 41 0;
#X connect 55 0 57 0;
#X connect 55 0 59 0;
#X connect 56 0 80 0;
#X connect 57 0 80 0;
#X connect 58 0 248 1;
#X connect 59 0 248 1;
#X connect 60 0 70 0;
#X connect 61 0 62 1;
#X connect 61 0 186 1;
#X connect 61 0 71 1;
#X connect 62 0 71 0;
#X connect 63 0 66 0;
#X connect 64 0 66 0;
#X connect 65 0 64 0;
#X connect 66 0 162 0;
#X connect 66 0 97 0;
#X connect 67 0 34 0;
#X connect 68 0 83 0;
#X connect 69 0 26 0;
#X connect 69 1 26 1;
#X connect 70 0 194 0;
#X connect 71 0 130 0;
#X connect 72 0 73 0;
#X connect 73 0 74 0;
#X connect 74 0 130 0;
#X connect 75 0 72 1;
#X connect 76 0 75 0;
#X connect 77 0 78 0;
#X connect 77 1 79 0;
#X connect 78 0 72 0;
#X connect 79 0 76 0;
#X connect 80 0 248 0;
#X connect 81 1 82 0;
#X connect 84 0 147 0;
#X connect 85 0 26 0;
#X connect 86 0 87 0;
#X connect 87 0 85 1;
#X connect 88 0 74 1;
#X connect 89 0 85 1;
#X connect 91 0 98 0;
#X connect 92 0 131 0;
#X connect 93 0 191 0;
#X connect 93 0 163 0;
#X connect 93 0 148 0;
#X connect 93 0 131 0;
#X connect 93 0 249 0;
#X connect 93 0 243 0;
#X connect 93 0 207 0;
#X connect 93 0 273 0;
#X connect 93 0 286 0;
#X connect 93 0 227 0;
#X connect 94 0 98 0;
#X connect 94 0 146 0;
#X connect 94 0 147 0;
#X connect 94 0 164 0;
#X connect 94 0 191 0;
#X connect 94 0 244 0;
#X connect 94 0 246 1;
#X connect 94 0 249 0;
#X connect 94 0 216 0;
#X connect 95 0 59 1;
#X connect 95 0 134 0;
#X connect 96 0 58 1;
#X connect 96 0 135 0;
#X connect 97 0 80 1;
#X connect 97 0 321 1;
#X connect 98 0 222 1;
#X connect 98 0 159 0;
#X connect 98 0 231 0;
#X connect 99 0 153 0;
#X connect 99 0 228 0;
#X connect 99 0 283 1;
#X connect 100 0 155 0;
#X connect 100 0 229 0;
#X connect 100 0 283 1;
#X connect 101 0 63 1;
#X connect 101 0 116 0;
#X connect 101 0 249 1;
#X connect 101 0 289 0;
#X connect 102 0 144 0;
#X connect 102 0 147 0;
#X connect 102 0 93 0;
#X connect 103 0 93 0;
#X connect 103 0 142 0;
#X connect 103 0 147 0;
#X connect 104 0 64 1;
#X connect 104 0 90 0;
#X connect 104 0 132 0;
#X connect 105 0 307 0;
#X connect 106 0 273 1;
#X connect 107 0 93 0;
#X connect 107 0 131 0;
#X connect 107 0 141 0;
#X connect 107 0 147 0;
#X connect 107 0 275 0;
#X connect 108 0 180 0;
#X connect 108 0 182 0;
#X connect 108 0 147 0;
#X connect 108 0 151 0;
#X connect 109 0 170 0;
#X connect 110 0 145 0;
#X connect 111 0 177 0;
#X connect 111 0 67 1;
#X connect 112 0 179 0;
#X connect 112 0 68 1;
#X connect 113 0 288 0;
#X connect 114 0 40 1;
#X connect 114 0 41 1;
#X connect 114 0 42 1;
#X connect 114 0 44 1;
#X connect 115 0 114 0;
#X connect 117 0 101 0;
#X connect 117 0 97 0;
#X connect 118 0 66 0;
#X connect 118 0 80 1;
#X connect 118 0 248 1;
#X connect 119 0 118 0;
#X connect 119 0 168 0;
#X connect 119 0 294 0;
#X connect 121 0 45 0;
#X connect 123 0 67 0;
#X connect 124 0 68 0;
#X connect 125 0 67 0;
#X connect 126 0 68 0;
#X connect 127 0 67 0;
#X connect 128 0 68 0;
#X connect 130 0 129 0;
#X connect 130 0 109 0;
#X connect 131 0 221 1;
#X connect 131 0 157 0;
#X connect 131 0 230 0;
#X connect 133 0 104 0;
#X connect 133 0 97 0;
#X connect 136 0 95 0;
#X connect 136 0 97 0;
#X connect 137 0 96 0;
#X connect 137 0 97 0;
#X connect 138 0 107 0;
#X connect 139 0 102 0;
#X connect 140 0 103 0;
#X connect 143 0 110 0;
#X connect 149 0 93 0;
#X connect 150 0 108 0;
#X connect 152 0 99 0;
#X connect 154 0 100 0;
#X connect 156 0 131 0;
#X connect 158 0 98 0;
#X connect 160 0 161 0;
#X connect 161 0 119 0;
#X connect 166 0 80 0;
#X connect 167 0 248 1;
#X connect 168 0 97 0;
#X connect 169 0 115 0;
#X connect 170 0 16 0;
#X connect 171 0 56 0;
#X connect 171 0 58 0;
#X connect 174 0 131 0;
#X connect 176 0 111 0;
#X connect 178 0 112 0;
#X connect 181 0 108 0;
#X connect 183 0 94 0;
#X connect 184 0 7 0;
#X connect 184 0 321 0;
#X connect 185 0 184 0;
#X connect 186 0 62 0;
#X connect 187 0 188 0;
#X connect 188 0 186 1;
#X connect 189 0 190 0;
#X connect 190 0 62 1;
#X connect 190 0 13 0;
#X connect 190 0 7 1;
#X connect 193 0 63 0;
#X connect 194 0 186 0;
#X connect 195 1 196 0;
#X connect 196 0 278 0;
#X connect 197 0 202 0;
#X connect 197 0 201 0;
#X connect 197 0 205 0;
#X connect 198 0 197 0;
#X connect 199 0 197 0;
#X connect 200 0 197 1;
#X connect 200 0 205 1;
#X connect 201 0 131 0;
#X connect 202 0 98 0;
#X connect 203 0 94 0;
#X connect 203 0 68 0;
#X connect 205 0 209 0;
#X connect 208 0 206 0;
#X connect 209 0 204 0;
#X connect 210 0 213 0;
#X connect 210 0 300 0;
#X connect 211 0 212 0;
#X connect 211 0 299 0;
#X connect 212 0 281 0;
#X connect 212 0 293 0;
#X connect 213 0 281 0;
#X connect 213 0 293 0;
#X connect 214 0 292 0;
#X connect 215 0 292 0;
#X connect 217 0 214 1;
#X connect 217 0 212 1;
#X connect 218 0 215 1;
#X connect 218 0 213 1;
#X connect 219 0 199 1;
#X connect 219 0 205 1;
#X connect 219 0 202 1;
#X connect 220 0 198 1;
#X connect 220 0 205 1;
#X connect 220 0 201 1;
#X connect 221 0 225 0;
#X connect 222 0 226 0;
#X connect 223 0 222 0;
#X connect 224 0 221 0;
#X connect 225 0 227 0;
#X connect 226 0 216 0;
#X connect 232 0 21 1;
#X connect 232 0 189 0;
#X connect 233 0 23 1;
#X connect 233 0 190 0;
#X connect 234 0 221 1;
#X connect 235 0 222 1;
#X connect 236 0 184 1;
#X connect 236 0 187 0;
#X connect 237 0 208 0;
#X connect 238 0 208 0;
#X connect 239 0 57 1;
#X connect 240 0 56 1;
#X connect 240 0 195 0;
#X connect 241 0 77 0;
#X connect 242 0 77 0;
#X connect 245 0 68 0;
#X connect 246 0 207 0;
#X connect 247 0 246 0;
#X connect 248 0 60 0;
#X connect 249 0 116 0;
#X connect 253 0 35 1;
#X connect 253 0 25 0;
#X connect 254 0 86 0;
#X connect 255 0 34 0;
#X connect 257 0 81 0;
#X connect 258 0 190 0;
#X connect 259 0 261 0;
#X connect 259 1 260 0;
#X connect 259 2 262 0;
#X connect 260 0 266 0;
#X connect 261 0 271 0;
#X connect 263 0 101 0;
#X connect 265 0 267 0;
#X connect 266 0 265 0;
#X connect 266 1 264 0;
#X connect 267 0 268 0;
#X connect 267 0 270 0;
#X connect 268 0 267 1;
#X connect 269 0 263 0;
#X connect 270 0 269 0;
#X connect 271 0 263 1;
#X connect 272 0 81 0;
#X connect 273 0 113 0;
#X connect 274 0 195 0;
#X connect 277 0 113 0;
#X connect 278 0 70 1;
#X connect 279 0 11 1;
#X connect 279 0 20 1;
#X connect 280 0 10 1;
#X connect 280 0 22 1;
#X connect 281 0 71 1;
#X connect 282 0 21 0;
#X connect 282 0 198 0;
#X connect 282 0 276 0;
#X connect 283 0 284 0;
#X connect 284 0 287 0;
#X connect 285 0 284 1;
#X connect 286 0 283 0;
#X connect 287 0 113 0;
#X connect 290 0 214 0;
#X connect 290 0 308 0;
#X connect 291 0 215 0;
#X connect 291 0 309 0;
#X connect 296 0 227 0;
#X connect 300 0 293 0;
#X connect 301 0 300 1;
#X connect 301 0 298 0;
#X connect 301 0 309 1;
#X connect 301 0 311 1;
#X connect 302 0 299 1;
#X connect 302 0 297 0;
#X connect 302 0 308 1;
#X connect 302 0 310 1;
#X connect 307 0 122 0;
#X connect 309 0 292 0;
#X connect 310 0 318 0;
#X connect 311 0 318 0;
#X connect 312 0 301 0;
#X connect 313 0 302 0;
#X connect 316 0 310 0;
#X connect 317 0 311 0;
#X connect 319 0 33 0;
#X connect 320 0 185 0;
#X connect 321 0 130 0;
#X coords 0 -1 1 1 235 168 2 0 98;
