#N canvas 156 322 1524 672 12;
#X floatatom 405 133 12 0 0 0 - - -;
#X obj 199 20 r lo;
#X msg 195 50 0;
#X obj 404 161 outlet;
#X obj 369 387 r A;
#X obj 308 460 tgl 15 0 empty empty empty 17 7 0 10 -262144 -1 -1 0
1;
#X obj 369 516 - 0;
#X obj 341 599 bng 15 250 50 0 empty empty empty 17 7 0 10 -262144
-1 -1;
#X obj 340 623 f;
#X floatatom 369 541 8 0 3 0 - - -;
#X floatatom 307 651 8 0 3 0 - - -;
#X floatatom 306 482 5 0 0 0 - - -;
#X obj 308 510 sel 0;
#X floatatom 429 382 8 0 3 0 - - -;
#X obj 172 523 s trgrvolee;
#X obj 369 463 spigot-toggle_vert;
#X obj 308 538 t b b;
#X obj 307 596 bng 15 250 50 0 empty empty empty 17 7 0 10 -262144
-1 -1;
#X obj 306 624 f;
#X floatatom 325 578 8 0 3 0 - - -;
#X obj 73 764 spigot-toggle_orange;
#X obj 72 788 spigot-toggle_orange;
#X obj 72 812 spigot-toggle_orange;
#X obj 81 717 r lo;
#X obj 72 834 spigot-toggle_orange;
#X obj 43 800 tgl 15 0 empty empty loc 2 7 0 10 -262144 -1 -1 0 1;
#X obj 91 760 onoff0x;
#X obj 90 808 onoff2x;
#X obj 89 833 onoff3x;
#X obj 90 784 onoff1x;
#X obj 622 83 r A;
#X obj 624 189 spigot-toggle_red;
#X obj 622 161 spigot-toggle_vert;
#X obj 643 188 spigot-toggle_red;
#X obj 644 161 spigot-toggle_vert;
#X floatatom 624 295 8 0 3 0 - - -;
#X obj 630 369 r lo;
#X obj 807 163 spigot-toggle_jaunenoir;
#X obj 806 190 spigot-toggle_jaunenoir;
#X floatatom 806 232 12 0 0 0 - - -;
#X obj 145 525 spigot-toggle_orange;
#X obj 146 553 spigot-toggle_orange;
#X obj 368 489 t b f;
#X obj 624 316 + 0;
#X obj 626 466 spigot-toggle_red;
#X obj 483 645 f;
#X floatatom 480 674 8 0 3 0 - - -;
#X obj 481 703 spigot-toggle_vert;
#X floatatom 416 673 8 0 3 0 - - -;
#X obj 428 645 f;
#X obj 495 503 sel;
#X obj 485 623 bng 15 250 50 0 empty empty empty 17 7 0 10 -262144
-1 -1;
#X obj 426 622 bng 15 250 50 0 empty empty empty 17 7 0 10 -262144
-1 -1;
#X obj 622 250 + 0;
#X obj 167 553 s trgrvolee1;
#X obj 427 506 spigot-toggle_red;
#X obj 437 443 - 1;
#X obj 436 466 * -1;
#X obj 504 702 r @A;
#X obj 447 506 r lo;
#X obj 149 365 s TmstrchBTR;
#X obj 90 128 tgl 28 0 empty empty A 6 15 1 26 -1 -262144 -262144 0
1;
#X obj 90 157 tgl 28 0 empty empty B 6 15 1 26 -1 -262144 -262144 0
1;
#X obj 177 128 tgl 28 0 empty empty A 6 12 1 22 -1 -262144 -262144
0 1;
#X obj 177 157 tgl 28 0 empty empty B 6 12 1 22 -1 -262144 -262144
0 1;
#X obj 119 130 vsl 28 110 0 1 0 0 empty empty empty 8 44 0 22 -16662
-260097 -260097 0 1;
#X obj 90 215 tgl 28 0 empty empty • 6 15 1 50 -1 -260097 -260097
0 1;
#X obj 61 186 tgl 28 0 empty empty ◐ 8 15 1 14 -1 -260097 -260097
0 1;
#X obj 61 215 tgl 28 0 empty empty ◐ 8 15 1 14 -1 -260097 -260097
0 1;
#X obj 148 128 tgl 28 0 empty empty ☞ 8 12 0 27 -1 -262144 -262144
0 1;
#X obj 61 128 tgl 28 0 empty empty @ 2 14 1 26 -260097 -1 -1 0 1;
#X obj 61 157 tgl 28 0 empty empty ⤷@ -6 14 1 18 -260097 -1 -1 0
1;
#X obj 148 157 tgl 28 0 empty empty ☞ 8 12 0 27 -1 -262144 -262144
0 1;
#X obj 32 128 tgl 28 0 empty empty ∞ 6 15 2 25 -1 -260097 -260097
0 1;
#X obj 32 99 tgl 28 0 empty empty >๏ 5 13 1 15 -1 -260097 -260097
0 1;
#X obj 61 99 tgl 28 0 empty empty raw 2 12 1 16 -260097 -1 -1 0 1;
#X obj 32 186 tgl 28 0 empty empty ø@S 6 15 0 11 -1 -4034 -4034 0
1;
#X floatatom 148 113 8 0 0 0 - - -;
#X obj 32 157 tgl 28 0 empty empty @ 6 15 1 18 -1 -260097 -260097 0
1;
#X obj 148 186 tgl 28 0 empty empty ∗ 8 13 1 24 -1 -260097 -260097
0 1;
#X obj 148 215 tgl 28 0 empty empty ∗ 8 12 1 24 -1 -260097 -260097
0 1;
#X obj 90 99 tgl 28 0 empty empty ๏ -4 10 1 50 -260097 -1 -1 1 1
;
#X obj 80 939 * -1;
#X obj 82 910 - 1;
#X obj 157 -427 s reposetoinoffA;
#X obj 158 -467 r send_reposetoinoffA;
#X msg 745 214 0;
#X obj 119 99 bng 28 250 50 0 empty empty +0 9 14 2 10 -1 -260097 -260097
;
#X obj 453 161 s posA;
#X obj -28 792 r locA;
#X obj -299 155 s locA;
#X obj 149 578 r s&pAa;
#X obj 150 651 r s&pBa;
#X obj 149 602 r speedAa;
#X obj 150 675 r speedBa;
#X obj 149 626 r pitchAa;
#X obj 149 698 r pitchBa;
#X obj 628 561 s Amod;
#X floatatom 627 534 12 0 0 0 - - -;
#X obj 90 186 tgl 28 0 empty empty • 6 15 1 50 -1 -260097 -260097
0 1;
#X obj 158 -402 s reposetoinoffAB;
#X obj 158 -373 r send_reposetoinoffAB;
#X obj 179 -262 s modAA;
#X obj 177 -229 s modAB;
#X obj 179 -284 r send_modAA;
#X obj 181 -200 r send_modAB;
#X obj 64 -566 r send_rawA;
#X obj 64 -542 r send_A@;
#X obj 66 -459 r send_@re;
#X obj 64 -517 s rawA;
#X obj 26 -415 r send_@A;
#X obj 65 -489 s A@;
#X obj -375 184 s @A;
#X obj 89 -340 s AB;
#X obj 78 -669 s AAbuton;
#X obj 78 -693 r send_AAbuton;
#X obj 27 -189 r send_save_dataposA;
#X obj 27 -164 s save_dataposA;
#X obj 69 -1132 r send_save_trgAA;
#X obj 69 -1070 s save_trgAA;
#X obj 69 -1018 r send_save_trgAB;
#X obj 69 -966 s save_trgAB;
#X obj 90 -1347 r send_save_BngAA;
#X obj 90 -1295 s save_BngAA;
#X obj 90 -1243 r send_save_BngAB;
#X obj 90 -1191 s save_BngAB;
#X obj 808 259 s line_pauseA;
#X obj 90 -284 s lyrAposA;
#X obj 90 -261 s lyrAposB;
#X obj -382 106 r lo;
#X msg 227 50 0;
#X obj 82 886 r freestepsouts;
#X obj 374 132 * 1;
#X obj 652 111 r B;
#X obj 216 -956 r send_A<<A;
#X obj 217 -932 s A<<A;
#X obj 91 -864 r send_AøA;
#X obj 218 -901 s AøA;
#X obj 163 -717 r send_A<<B;
#X obj 165 -902 s A<<B;
#X obj 164 -799 r send_AøB;
#X obj 164 -749 s AøB;
#X obj -299 211 s ø@S;
#X obj 29 -96 r send_save_ø@S;
#X obj 29 -70 s save_ø@S;
#X obj 90 -367 r send_AB;
#X obj 806 347 spigot-toggle_vert;
#X obj 804 325 bng 15 250 50 0 empty empty empty 17 7 0 10 -262144
-1 -1;
#X obj 622 394 spigot-toggle_vert;
#X obj 761 356 - 1;
#X obj 760 379 * -1;
#X obj 90 -307 s ABselectA;
#X obj 828 163 r stretchA;
#X floatatom 623 342 8 0 3 0 - - -;
#X obj 653 20 sel;
#X obj 670 47 bng 15 250 50 0 empty empty empty 17 7 0 10 -262144 -1
-1;
#X obj 91 856 onoff7x;
#X obj -384 153 s Abutton;
#X obj -113 212 s sl_trgA;
#X obj -113 239 s sl_trgB;
#X obj -194 212 s sl_bngA;
#X obj -194 239 s sl_bngB;
#X obj 758 301 r ø@S;
#X obj 623 -34 r AAonoff;
#X obj 624 -11 r BAonoff;
#X obj 495 427 r AAonoff;
#X obj 497 454 r BAonoff;
#X obj -114 156 s AAonoff;
#X obj -113 185 s BAonoff;
#X obj 143 458 r BAonoff;
#X obj 623 273 + 0;
#X obj 128 39 spigot-toggle_orange;
#X obj 379 412 r A@;
#X obj 148 483 r AAonoff;
#X obj 182 -161 notein;
#X floatatom 229 -134 5 0 0 0 - - -;
#X floatatom 183 -133 5 0 0 0 - - -;
#X floatatom 275 -135 5 0 0 0 - - -;
#X obj 180 -22 spigot-toggle_red;
#X obj 254 -82 bng 15 250 50 0 empty empty empty 17 7 0 10 -262144
-1 -1;
#X obj 231 -80 bng 15 250 50 0 empty empty empty 17 7 0 10 -262144
-1 -1;
#X obj 230 -109 sel;
#X obj 232 -60 f;
#X obj 263 -58 + 1;
#X floatatom 179 -50 5 0 0 0 - - -;
#X obj 233 -36 mod 2;
#X obj 182 -103 == 52;
#X obj 91 37 spigot-toggle_orange;
#X obj 684 21 r rawA;
#X obj -94 125 s rawA;
#X msg 671 69 0;
#X obj 59 384 spigot-toggle_orange;
#X obj 59 411 delay;
#X obj 92 386 r t$mod;
#X obj 63 360 sel;
#X msg 58 433 1;
#X obj 96 -7 s øAtiTS1;
#X obj 157 -348 s TStrchonoffA;
#X obj -138 125 s 0+;
#X obj 32 215 tgl 28 0 empty empty • 6 15 1 50 -1 -4034 -4034 0 1
;
#X obj 1 98 cnv 15 30 145 empty empty empty 20 12 0 14 -1 -66577 0
;
#X obj 176 214 tgl 28 0 empty empty • 5 15 1 50 -1 -260097 -260097
0 1;
#X obj 177 186 tgl 28 0 empty empty • 5 15 1 50 -1 -260097 -260097
0 1;
#X obj 428 359 r playbackA;
#X obj 803 300 r SmplbangA;
#X obj 802 377 f;
#X obj -485 354 s BAtch;
#X obj -487 144 spigot-toggle_orange;
#X obj -488 222 spigot-toggle_orange;
#X obj -488 194 r s@pAB;
#X obj -487 118 r s@pAA;
#X obj -487 170 spigot-toggle_orange;
#X obj -488 250 spigot-toggle_orange;
#X obj -486 323 s AAtch;
#X obj -464 143 r sl_bngA;
#X obj -467 224 r sl_bngB;
#X msg -473 279 0;
#X obj 434 418 r @reA;
#X obj -299 183 s @reA;
#X obj 745 190 r 0+;
#X obj 326 211 s envAAM;
#X obj 328 244 s envBAM;
#X obj 1486 1 r trgrA;
#X obj 1304 1 r BB;
#X obj 1304 27 r BB1;
#X obj 1244 1 r T$;
#X obj 1244 27 r T1;
#X obj 1309 267 outlet;
#X obj 1246 267 outlet;
#X obj 1246 88 spigot-toggle_red;
#X obj 1245 59 spigot-toggle_vert;
#X floatatom 1246 149 5 0 0 0 - - -;
#X floatatom 1395 141 2 0 0 0 - - -;
#X obj 1312 174 bng 15 250 50 0 empty empty empty 17 7 0 10 -262144
-1 -1;
#X obj 1395 267 outlet;
#X obj 1307 59 spigot-toggle_vert;
#X obj 1389 59 spigot-toggle_vert;
#X obj 1308 88 spigot-toggle_red;
#X obj 1389 88 spigot-toggle_red;
#X obj 1413 95 sel;
#X msg 1412 119 1;
#X obj 1314 153 spigot-toggle_vert;
#X obj 1486 27 r trgrB;
#X obj 1096 2 r trgrAafter;
#X obj 1098 60 spigot-toggle_vert;
#X obj 1098 89 spigot-toggle_red;
#X obj 1322 126 r lo;
#X obj 1096 28 r trgrBafter;
#X obj 1101 349 spigot-toggle_vert;
#X obj 1101 370 spigot-toggle_red;
#X obj 1308 350 spigot-toggle_vert;
#X obj 1309 371 spigot-toggle_red;
#X obj 1246 370 spigot-toggle_red;
#X obj 1246 349 spigot-toggle_vert;
#X obj 1539 328 spigot-toggle_vert;
#X obj 1539 349 spigot-toggle_red;
#X obj 1247 198 s T$mod;
#X obj 1316 218 s BBmod;
#X obj 1392 219 s trgrmodA;
#X obj 1540 277 r AbuttonAM;
#X obj 1540 303 r ABbuttonAM;
#X obj 1558 325 r envAAM;
#X obj 1559 349 r envBAM;
#X obj 1406 -1 r sl_trgA;
#X obj 1408 26 r sl_trgB;
#X obj 1607 39 r AAonoff;
#X obj 1606 68 r BAonoff;
#X text 1312 -28 bang;
#X text 1232 -31 speed;
#X obj 1485 59 spigot-toggle_vert;
#X obj 1486 88 spigot-toggle_red;
#X obj 1483 218 s trgrAmodenv;
#X obj 1483 400 r trgrA;
#X obj 1482 427 r trgrB;
#X obj 1484 349 spigot-toggle_vert;
#X obj 1484 370 spigot-toggle_red;
#X obj 178 202 cnv 5 1 2 empty empty ω+♪ 1 12 0 14 -1 -260097 0
;
#X obj 147 98 cnv 15 58 17 empty empty ↬ 3 8 0 40 -1 -260097 0;
#X obj 92 274 r envFRMsmplsendA;
#X obj 91 296 r envFRMsmplsendB;
#X obj 204 98 cnv 15 30 145 empty empty empty 20 12 0 14 -1 -66577
0;
#X obj 826 192 r stretchB;
#X obj 1103 210 s trgrafterAmod;
#X obj 177 326 s Abutton;
#X obj 87 320 spigot-toggle_red;
#X obj 107 318 r Bbutton;
#X obj 747 63 r reposetoinoffA;
#X obj 747 85 r reposetoinoffAB;
#X obj 744 113 sel;
#X obj 992 9 r ITBAng;
#X obj 991 32 r ITBAngB;
#X obj 990 62 spigot-toggle_vert;
#X obj 990 91 spigot-toggle_red;
#X obj 988 188 s ITBAngAselect;
#X floatatom 626 489 12 0 0 0 - - -;
#X msg -383 130 0;
#X obj 1335 192 r øAtiTS1;
#X obj 1314 193 spigot-toggle_vert;
#X obj 628 433 r trgrAmodenv;
#X text 1404 -26 ◐ = silence or not;
#X text 1066 -31 anticipation;
#X obj 656 457 r lo;
#X text 601 -80 playback position/ENTRY POINT;
#X text -415 -268 raw = data from step sequencer A;
#X text -406 -247 @ = where you are + data from step sequencer A;
#X text -415 -230 ⤷@ = repeat @;
#X text -409 -210 orange on black @ = back where you were before looping
;
#X text -401 -183 ∞ = press to loop and press again stop looping
;
#X text -406 -163 >๏ = stop playing at release;
#X text -405 -68 ◐ = step off = silence;
#X text -407 -50 • = send bang to from A or B;
#X text -435 -309 AB \, AB = ⤷@ \, @ \, raw \, will select A on this
layer;
#X text -499 -29 right column ∗ = lauch the step sequencer according
to audio mod source selection;
#X text -503 9 right column • = send enveloppe according to audio
mod source selection;
#X text -405 -145 ☞ = time stretching \; data source sliding forward
or backward trought the whole lenght of the sample A/V. Adjuste the
parametres in the module below this one called stretch A2;
#X text -401 -289 ๏ = ON/OFF;
#X text -375 -358 column on the left: source selected A \, B \, column
on the right: modulation of A \, B by A or B and ☞ ( time stretching)
;
#X text 984 -31 step state;
#X text 1210 443 send env from audio mod;
#X text 1105 465 right column ∗ = lauch the step sequencer according
to audio mod source selection;
#X text 1101 503 right column • = send enveloppe according to audio
mod source selection;
#X obj 1315 -112 r sl_bngB;
#X obj 1314 -138 r sl_bngA;
#X connect 0 0 88 0;
#X connect 0 0 3 0;
#X connect 1 0 2 0;
#X connect 1 0 130 0;
#X connect 2 0 81 0;
#X connect 2 0 65 0;
#X connect 4 0 15 0;
#X connect 5 0 11 0;
#X connect 5 0 14 0;
#X connect 6 0 9 0;
#X connect 7 0 8 0;
#X connect 8 0 19 0;
#X connect 9 0 8 1;
#X connect 9 0 49 1;
#X connect 10 0 43 1;
#X connect 11 0 12 0;
#X connect 12 1 16 0;
#X connect 13 0 55 0;
#X connect 15 0 42 0;
#X connect 16 0 17 0;
#X connect 16 1 7 0;
#X connect 17 0 18 0;
#X connect 18 0 10 0;
#X connect 19 0 18 1;
#X connect 20 0 81 0;
#X connect 21 0 75 0;
#X connect 22 0 70 0;
#X connect 23 0 20 1;
#X connect 23 0 21 1;
#X connect 23 0 22 1;
#X connect 23 0 24 1;
#X connect 24 0 71 0;
#X connect 25 0 28 0;
#X connect 25 0 27 0;
#X connect 25 0 29 0;
#X connect 25 0 156 0;
#X connect 26 0 20 0;
#X connect 27 0 22 0;
#X connect 28 0 24 0;
#X connect 29 0 21 0;
#X connect 30 0 32 0;
#X connect 30 0 34 0;
#X connect 31 0 53 0;
#X connect 32 0 53 0;
#X connect 33 0 170 1;
#X connect 34 0 170 1;
#X connect 35 0 43 0;
#X connect 36 0 148 1;
#X connect 37 0 39 0;
#X connect 38 0 39 0;
#X connect 39 0 126 0;
#X connect 39 0 53 1;
#X connect 40 0 14 0;
#X connect 41 0 54 0;
#X connect 42 0 6 0;
#X connect 42 1 6 1;
#X connect 43 0 153 0;
#X connect 44 0 294 0;
#X connect 45 0 46 0;
#X connect 46 0 47 0;
#X connect 47 0 98 0;
#X connect 48 0 45 1;
#X connect 49 0 48 0;
#X connect 50 0 51 0;
#X connect 50 1 52 0;
#X connect 51 0 45 0;
#X connect 52 0 49 0;
#X connect 53 0 170 0;
#X connect 55 0 6 0;
#X connect 56 0 57 0;
#X connect 57 0 55 1;
#X connect 58 0 47 1;
#X connect 59 0 55 1;
#X connect 61 0 151 0;
#X connect 61 0 127 0;
#X connect 61 0 114 0;
#X connect 61 0 99 0;
#X connect 61 0 171 0;
#X connect 61 0 167 0;
#X connect 61 0 157 0;
#X connect 61 0 187 0;
#X connect 61 0 194 0;
#X connect 62 0 66 0;
#X connect 62 0 113 0;
#X connect 62 0 128 0;
#X connect 62 0 151 0;
#X connect 62 0 168 0;
#X connect 62 0 171 0;
#X connect 62 0 157 0;
#X connect 62 0 284 1;
#X connect 63 0 34 1;
#X connect 63 0 102 0;
#X connect 64 0 33 1;
#X connect 64 0 103 0;
#X connect 65 0 53 1;
#X connect 65 0 205 1;
#X connect 66 0 125 0;
#X connect 66 0 161 0;
#X connect 67 0 119 0;
#X connect 67 0 158 0;
#X connect 67 0 191 1;
#X connect 68 0 121 0;
#X connect 68 0 191 1;
#X connect 68 0 159 0;
#X connect 69 0 37 1;
#X connect 69 0 84 0;
#X connect 69 0 171 1;
#X connect 69 0 197 0;
#X connect 70 0 111 0;
#X connect 70 0 61 0;
#X connect 71 0 61 0;
#X connect 71 0 218 0;
#X connect 72 0 38 1;
#X connect 72 0 60 0;
#X connect 72 0 100 0;
#X connect 73 0 90 0;
#X connect 74 0 187 1;
#X connect 75 0 61 0;
#X connect 75 0 99 0;
#X connect 75 0 109 0;
#X connect 75 0 189 0;
#X connect 76 0 142 0;
#X connect 76 0 144 0;
#X connect 76 0 117 0;
#X connect 77 0 132 0;
#X connect 78 0 112 0;
#X connect 79 0 139 0;
#X connect 79 0 40 1;
#X connect 80 0 141 0;
#X connect 80 0 41 1;
#X connect 81 0 196 0;
#X connect 82 0 20 1;
#X connect 82 0 21 1;
#X connect 82 0 22 1;
#X connect 82 0 24 1;
#X connect 83 0 82 0;
#X connect 85 0 69 0;
#X connect 85 0 65 0;
#X connect 86 0 39 0;
#X connect 86 0 53 1;
#X connect 86 0 170 1;
#X connect 87 0 130 0;
#X connect 87 0 198 0;
#X connect 89 0 25 0;
#X connect 91 0 40 0;
#X connect 92 0 41 0;
#X connect 93 0 40 0;
#X connect 94 0 41 0;
#X connect 95 0 40 0;
#X connect 96 0 41 0;
#X connect 98 0 97 0;
#X connect 98 0 77 0;
#X connect 99 0 123 0;
#X connect 99 0 160 0;
#X connect 101 0 72 0;
#X connect 101 0 65 0;
#X connect 104 0 63 0;
#X connect 104 0 65 0;
#X connect 105 0 64 0;
#X connect 105 0 65 0;
#X connect 106 0 75 0;
#X connect 107 0 70 0;
#X connect 108 0 71 0;
#X connect 110 0 78 0;
#X connect 115 0 61 0;
#X connect 116 0 76 0;
#X connect 118 0 67 0;
#X connect 120 0 68 0;
#X connect 122 0 99 0;
#X connect 124 0 66 0;
#X connect 129 0 295 0;
#X connect 130 0 65 0;
#X connect 131 0 83 0;
#X connect 132 0 0 0;
#X connect 133 0 31 0;
#X connect 133 0 33 0;
#X connect 136 0 99 0;
#X connect 138 0 79 0;
#X connect 140 0 80 0;
#X connect 143 0 76 0;
#X connect 145 0 62 0;
#X connect 146 0 205 0;
#X connect 147 0 146 0;
#X connect 148 0 44 0;
#X connect 149 0 150 0;
#X connect 150 0 148 1;
#X connect 152 0 37 0;
#X connect 153 0 148 0;
#X connect 154 1 155 0;
#X connect 155 0 190 0;
#X connect 156 0 62 0;
#X connect 156 0 41 0;
#X connect 162 0 146 1;
#X connect 162 0 149 0;
#X connect 163 0 32 1;
#X connect 164 0 31 1;
#X connect 164 0 154 0;
#X connect 165 0 50 0;
#X connect 166 0 50 0;
#X connect 169 0 41 0;
#X connect 170 0 35 0;
#X connect 171 0 84 0;
#X connect 172 0 15 1;
#X connect 172 0 5 0;
#X connect 173 0 40 0;
#X connect 173 0 14 0;
#X connect 174 0 176 0;
#X connect 174 1 175 0;
#X connect 174 2 177 0;
#X connect 175 0 181 0;
#X connect 176 0 186 0;
#X connect 178 0 69 0;
#X connect 180 0 182 0;
#X connect 181 0 180 0;
#X connect 181 1 179 0;
#X connect 182 0 183 0;
#X connect 182 0 185 0;
#X connect 183 0 182 1;
#X connect 184 0 178 0;
#X connect 185 0 184 0;
#X connect 186 0 178 1;
#X connect 187 0 81 0;
#X connect 188 0 154 0;
#X connect 190 0 43 1;
#X connect 191 0 192 0;
#X connect 192 0 195 0;
#X connect 193 0 192 1;
#X connect 194 0 191 0;
#X connect 195 0 81 0;
#X connect 201 0 221 0;
#X connect 201 0 283 0;
#X connect 202 0 220 0;
#X connect 202 0 283 0;
#X connect 203 0 13 0;
#X connect 204 0 147 0;
#X connect 205 0 98 0;
#X connect 207 0 211 0;
#X connect 208 0 212 0;
#X connect 209 0 208 0;
#X connect 210 0 207 0;
#X connect 211 0 213 0;
#X connect 212 0 206 0;
#X connect 214 0 207 1;
#X connect 215 0 208 1;
#X connect 216 0 213 0;
#X connect 217 0 56 0;
#X connect 219 0 86 0;
#X connect 222 0 236 0;
#X connect 222 0 269 0;
#X connect 223 0 235 0;
#X connect 223 0 250 0;
#X connect 224 0 237 0;
#X connect 224 0 251 0;
#X connect 225 0 230 0;
#X connect 225 0 253 0;
#X connect 226 0 229 0;
#X connect 226 0 252 0;
#X connect 229 0 231 0;
#X connect 230 0 231 0;
#X connect 231 0 228 0;
#X connect 231 0 256 0;
#X connect 232 0 234 0;
#X connect 232 0 258 0;
#X connect 232 0 241 1;
#X connect 233 0 227 0;
#X connect 233 0 297 0;
#X connect 235 0 241 0;
#X connect 236 0 232 0;
#X connect 237 0 241 0;
#X connect 238 0 232 0;
#X connect 239 0 240 0;
#X connect 240 0 232 0;
#X connect 241 0 233 0;
#X connect 242 0 238 0;
#X connect 242 0 270 0;
#X connect 243 0 244 0;
#X connect 243 0 248 0;
#X connect 244 0 282 0;
#X connect 245 0 282 0;
#X connect 246 0 240 0;
#X connect 246 0 241 1;
#X connect 247 0 245 0;
#X connect 247 0 249 0;
#X connect 248 0 282 0;
#X connect 249 0 282 0;
#X connect 250 0 233 0;
#X connect 251 0 233 0;
#X connect 252 0 228 0;
#X connect 252 0 256 0;
#X connect 253 0 228 0;
#X connect 253 0 256 0;
#X connect 254 0 248 1;
#X connect 254 0 253 1;
#X connect 254 0 250 1;
#X connect 254 0 274 1;
#X connect 255 0 251 1;
#X connect 255 0 252 1;
#X connect 255 0 249 1;
#X connect 255 0 275 1;
#X connect 259 0 254 0;
#X connect 260 0 255 0;
#X connect 261 0 254 1;
#X connect 261 0 250 1;
#X connect 261 0 248 1;
#X connect 261 0 253 1;
#X connect 262 0 255 1;
#X connect 262 0 251 1;
#X connect 262 0 249 1;
#X connect 262 0 252 1;
#X connect 263 0 236 1;
#X connect 263 0 239 0;
#X connect 264 0 238 1;
#X connect 264 0 239 0;
#X connect 265 0 230 1;
#X connect 265 0 235 1;
#X connect 265 0 244 1;
#X connect 265 0 269 1;
#X connect 265 0 291 1;
#X connect 266 0 229 1;
#X connect 266 0 237 1;
#X connect 266 0 245 1;
#X connect 266 0 270 1;
#X connect 266 0 292 1;
#X connect 269 0 271 0;
#X connect 270 0 271 0;
#X connect 272 0 274 0;
#X connect 273 0 275 0;
#X connect 274 0 271 0;
#X connect 275 0 271 0;
#X connect 278 0 99 0;
#X connect 279 0 66 0;
#X connect 281 0 38 0;
#X connect 284 0 283 0;
#X connect 285 0 284 0;
#X connect 286 0 288 0;
#X connect 287 0 288 0;
#X connect 288 0 86 0;
#X connect 289 0 291 0;
#X connect 290 0 292 0;
#X connect 291 0 293 0;
#X connect 292 0 293 0;
#X connect 294 0 98 0;
#X connect 295 0 157 0;
#X connect 296 0 297 1;
#X connect 297 0 257 0;
#X connect 298 0 44 1;
#X connect 301 0 44 1;
#X connect 321 0 237 1;
#X connect 322 0 235 1;
#X coords 0 -1 1 1 235 145 2 0 98;
