#N canvas 400 253 1280 698 12;
#X text 614 831 TIME COMPRESSION/EXPANSION BY LOOPED SAMPLING;
#X text 326 985 Here \, rather than ask you to push the read pointer
back and forth in the sample \, we use a phasor~. This makes it possible
to avoid the samphold~ on the read pointer (r~ read-pt) \, since \,
knowing the precession \, we can correct for it in computing the frequency
of the original phasor~ at right.;
#X text -1697 979 We've changed the control for "chunk size" to milliseconds
for added convenience \, and delayed multiplying sample location by
the sample rate (44100) until the last moment \, so that calculations
using "read-pt" and "chunk size" can be in the same units (seconds.)
;
#X obj 1268 178 r trgrA;
#X obj 1268 203 r trgrB;
#X obj 1208 174 r BB;
#X obj 1210 196 r BB1;
#X obj 1169 174 r T$;
#X obj 1168 196 r T1;
#X obj 1208 397 spigot-toggle_vert;
#X obj 1263 425 outlet;
#X obj 1169 349 outlet;
#X obj 1173 264 spigot-toggle_red;
#X obj 1173 242 spigot-toggle_vert;
#X floatatom 1170 320 5 0 0 0 - - -;
#X floatatom 1306 289 2 0 0 0 - - -;
#X obj 1206 447 bng 15 250 50 0 empty empty empty 17 7 0 10 -262144
-1 -1;
#X obj 1273 399 outlet;
#X floatatom 1042 243 12 0 0 0 - - -;
#X obj 99 -10 r lo;
#X msg 101 -48 0;
#X obj 992 277 outlet;
#X obj 1055 82 bng 15 250 50 0 empty empty empty 17 7 0 10 -262144
-1 -1;
#X obj 110 456 r drcttuch;
#X obj 1204 242 spigot-toggle_vert;
#X obj 1282 252 spigot-toggle_vert;
#X obj 1204 264 spigot-toggle_red;
#X obj 1279 276 spigot-toggle_red;
#X obj 398 597 r A;
#X obj 306 522 tgl 15 0 empty empty empty 17 7 0 10 -262144 -1 -1 0
1;
#X obj 459 624 r posvisu;
#X obj 398 680 - 0;
#X obj 381 752 bng 15 250 50 0 empty empty empty 17 7 0 10 -262144
-1 -1;
#X obj 380 776 f;
#X floatatom 398 705 8 0 3 0 - - -;
#X floatatom 333 813 8 0 3 0 - - -;
#X floatatom 303 547 5 0 0 0 - - -;
#X obj 307 573 sel 0;
#X floatatom 460 647 8 0 3 0 - - -;
#X obj 399 533 s trgrvolee;
#X obj 410 623 spigot-toggle_vert;
#X obj 337 702 t b b;
#X obj 334 760 bng 15 250 50 0 empty empty empty 17 7 0 10 -262144
-1 -1;
#X obj 333 788 f;
#X floatatom 347 732 8 0 3 0 - - -;
#X obj 178 888 spigot-toggle_orange;
#X obj -194 909 spigot-toggle_orange;
#X obj -193 932 spigot-toggle_orange;
#X obj 42 1002 r lo;
#X obj -194 955 spigot-toggle_orange;
#X obj 10 871 tgl 15 0 empty empty loc 2 7 0 10 -262144 -1 -1 1 1;
#X obj 64 831 onoff0x;
#X obj 62 880 onoff2x;
#X obj 62 904 onoff3x;
#X obj 115 647 s slctdisplayonoff;
#X text -1120 929 >ø = stop at release;
#X text 626 894 @A = reminds the last starting point and hangs on;
#X text 626 912 ø@ = reminds the last starting point and not hangs
on;
#X text 620 873 tru = A without modulation;
#X text 625 926 when one of above is select it can be played as;
#X text 626 853 ø = ON/OFF \, 1 push: on second push : off;
#X text -1120 949 loc = reminds what you were doing \; 1st push: scd
push : off;
#X obj 63 855 onoff1x;
#X obj 81 983 - 1;
#X obj 116 984 * -1;
#X obj 1138 380 s T$mod;
#X obj 709 83 r A;
#X obj 713 210 spigot-toggle_red;
#X obj 713 185 spigot-toggle_vert;
#X obj 741 210 spigot-toggle_red;
#X obj 741 185 spigot-toggle_vert;
#X floatatom 714 292 8 0 3 0 - - -;
#X obj 732 480 r lo;
#X obj 728 642 spigot-toggle_red;
#X obj 845 175 spigot-toggle_jaunenoir;
#X obj 846 235 spigot-toggle_jaunenoir;
#X obj 845 204 r line_pause1;
#X obj 714 358 + 0;
#X floatatom 849 291 12 0 0 0 - - -;
#X obj 104 425 s fiddlecackborm;
#X obj -123 573 spigot-toggle_orange;
#X obj -122 601 spigot-toggle_orange;
#X obj 397 653 t b f;
#X obj 710 323 + 0;
#X obj 739 686 spigot-toggle_red;
#X obj 579 673 f;
#X floatatom 576 702 8 0 3 0 - - -;
#X obj 578 765 spigot-toggle_vert;
#X floatatom 512 701 8 0 3 0 - - -;
#X obj 524 673 f;
#X obj 516 558 sel;
#X obj 576 644 bng 15 250 50 0 empty empty empty 17 7 0 10 -262144
-1 -1;
#X obj 525 648 bng 15 250 50 0 empty empty empty 17 7 0 10 -262144
-1 -1;
#X obj 714 263 + 0;
#X obj 380 438 r ø>0;
#X obj 382 467 sel;
#X msg 399 492 1;
#X obj 399 563 s trgrvolee1;
#X obj 941 371 t b f;
#X obj 117 619 spigot-toggle_jaune;
#X obj 130 586 r lo;
#X obj 45 -94 spigot-toggle_orange;
#X obj 53 -118 sel;
#X obj 46 -143 spigot-toggle_orange;
#X msg 67 -82 1;
#X obj 50 -43 - 1;
#X obj 49 -20 * -1;
#X obj 53 -178 sel;
#X msg 53 -148 0;
#X obj 460 671 spigot-toggle_red;
#X obj 475 774 - 1;
#X obj 474 797 * -1;
#X obj 91 523 s ø>;
#X obj 585 731 r @A;
#X obj 473 708 r lo;
#X obj 87 -105 r lo;
#X obj 160 843 s TmstrchBTR;
#X obj 166 1059 r TRGnB_@sB;
#X obj 164 1039 r TRGnB_@sA;
#X obj 141 332 spigot-toggle_orange;
#X obj 94 128 tgl 28 0 empty empty A 6 15 1 26 -1 -262144 -262144 0
1;
#X obj 94 157 tgl 28 0 empty empty B 6 15 1 26 -1 -262144 -262144 0
1;
#X obj 149 128 tgl 28 0 empty empty A 6 15 1 26 -1 -262144 -262144
0 1;
#X obj 149 157 tgl 28 0 empty empty B 6 15 1 26 -1 -262144 -262144
0 1;
#X obj 148 99 cnv 10 60 16 empty empty Entry_point 3 10 1 10 -1 -262144
0;
#X obj 121 127 vsl 28 84 0 1 0 0 empty empty mod 5 45 0 10 -16662 -260097
-260097 0 1;
#X obj 136 240 tgl 25 0 empty empty • 0 13 1 70 -1 -260097 -260097
0 1;
#X obj 110 214 tgl 25 0 empty empty ◐ 3 13 1 19 -1 -260097 -260097
0 1;
#X obj 110 240 tgl 25 0 empty empty ◐ 3 12 1 19 -1 -260097 -260097
0 1;
#X obj 178 128 tgl 28 0 empty empty ☞ 8 13 0 32 -1 -262144 -262144
0 1;
#X obj 65 157 tgl 28 0 empty empty @ 2 14 1 26 -260097 -1 -1 0 1;
#X obj 65 186 tgl 28 0 empty empty ⤷@ -6 14 1 18 -260097 -1 -1 0
1;
#X obj 178 157 tgl 28 0 empty empty ☞ 8 13 0 32 -1 -262144 -262144
0 1;
#X obj 149 186 tgl 28 0 empty empty ⇪ 7 13 1 16 -1 -260097 -260097
1 1;
#X obj 92 99 tgl 28 0 empty empty >๏ 4 14 1 13 -1 -260097 -260097
0 1;
#X obj 65 128 tgl 28 0 empty empty raw 2 12 1 16 -260097 -1 -1 0 1
;
#X obj 178 186 tgl 28 0 empty empty •@S 3 14 0 14 -1 -260097 -260097
0 1;
#X obj 479 -199 cnv 15 50 15 empty empty empty 20 12 0 14 -262144 -66577
0;
#X floatatom 149 114 8 0 0 0 - - -;
#X obj 93 186 tgl 28 0 empty empty @ 5 14 1 18 -1 -260097 -260097 0
1;
#X obj 181 215 tgl 25 0 empty empty ๏ 1 10 1 32 -1 -260097 -260097
0 1;
#X obj 181 241 tgl 25 0 empty empty ๏ 1 10 1 32 -1 -260097 -260097
0 1;
#X obj 65 99 tgl 28 0 empty empty ๏ -4 10 1 50 -260097 -1 -1 1 1
;
#X obj 46 767 * -1;
#X obj 46 740 - 1;
#X obj 158 -142 s reposetoinoffA;
#X obj 157 -167 r send_reposetoinoffA;
#X obj 1206 -96 - 1;
#X obj 1206 -70 * -1;
#X obj 1199 -35 spigot-toggle_orange;
#X obj 1209 -119 tgl 15 0 empty empty empty 17 7 0 10 -262144 -1 -1
1 1;
#X msg 784 276 0;
#X obj 121 99 bng 28 250 50 0 empty empty 0 11 15 1 10 -1 -260097 -260097
;
#X obj 284 40 s øAtiTS1;
#X obj 129 354 * 1;
#X obj 131 379 s trgTS1;
#X obj 1047 275 s posA;
#X obj 1268 44 s BangAtoenv;
#X obj -61 863 r locA;
#X obj 131 551 s locA;
#X obj -119 650 r s&pAa;
#X obj -119 672 r s&pBa;
#X obj -117 704 r speedAa;
#X obj -119 727 r speedBa;
#X obj -120 764 r pitchAa;
#X obj -121 796 r pitchBa;
#X obj 159 984 s øAtiTS1>ø;
#X obj 129 522 -;
#X obj 287 69 s onofdispay0;
#X obj 1209 -142 r IT≠T;
#X obj 746 743 s Amod;
#X floatatom 746 715 12 0 0 0 - - -;
#X floatatom 1031 547 5 0 0 0 - - -;
#X obj 943 345 -;
#X obj 136 214 tgl 25 0 empty empty • 0 13 1 70 -1 -260097 -260097
0 1;
#X obj 157 -96 s reposetoinoffAB;
#X obj 157 -117 r send_reposetoinoffAB;
#X obj 137 -526 s modAA;
#X obj 136 -480 s modAB;
#X obj 137 -548 r send_modAA;
#X obj 136 -502 r send_modAB;
#X obj 45 -523 r send_rawA;
#X obj 45 -473 r send_A@;
#X obj 46 -422 r send_@re;
#X obj 46 -497 s rawA;
#X obj 46 -398 s @re;
#X obj 46 -373 r send_@A;
#X obj 46 -447 s A@;
#X obj 45 -351 s @A;
#X obj 84 -321 s AB;
#X floatatom 868 777 5 0 0 0 - - -;
#X obj 81 -648 s AAbuton;
#X obj 81 -672 r send_AAbuton;
#X obj 753 553 r send_save_dataposA;
#X obj 773 619 s save_dataposA;
#X obj 57 -1012 r send_save_trgAA;
#X obj 58 -986 s save_trgAA;
#X obj 58 -963 r send_save_trgAB;
#X obj 59 -937 s save_trgAB;
#X obj 115 -1125 r send_save_BngAA;
#X obj 116 -1099 s save_BngAA;
#X obj 116 -1066 r send_save_BngAB;
#X obj 117 -1040 s save_BngAB;
#X obj 166 953 r chngpresetA;
#X msg 134 953 0;
#X obj 848 313 s line_pauseA;
#X obj -394 377 spigot-toggle_orange;
#X obj 83 -267 s lyrAposA;
#X obj 83 -237 s lyrAposB;
#X obj 1455 358 s trgrmodA;
#X msg -654 -117 record;
#X floatatom -411 233 4 0 0 0 - - -;
#X obj -674 -140 bng 15 250 50 0 empty empty empty 17 7 0 10 -262144
-1 -1;
#X obj -735 -128 pack;
#X floatatom -741 -159 5 0 0 0 - - -;
#X floatatom -724 -192 5 0 0 0 - - -;
#X obj -749 -91 cyclone/midiformat;
#X obj -674 -174 sel;
#X obj -655 -140 bng 15 250 50 0 empty empty empty 17 7 0 10 -262144
-1 -1;
#X floatatom -675 -196 5 0 0 0 - - -;
#X obj 4 124 tgl 25 0 empty empty REC 2 13 1 11 -260097 -1 -1 0 1;
#X obj 4 240 bng 25 250 50 0 empty empty R 9 13 1 9 -1 -260097 -262144
;
#X obj -747 -24 spigot-toggle_violet;
#X obj 30 150 tgl 25 0 empty empty ↻ 3 10 1 30 -1 -262144 -262144
1 1;
#X obj 0 34 r lo;
#X obj 30 124 bng 25 250 50 0 empty empty ► 6 14 1 19 -1 -262144
-262144;
#X obj 33 5 f;
#X obj -740 432 spigot-toggle_violet;
#X obj -369 395 tgl 25 0 empty empty NOTE 3 12 1 8 -66577 -262144 -262144
1 1;
#X obj -747 -57 cyclone/seq seq.mid;
#X obj -620 495 spigot-toggle_violet;
#X floatatom -660 319 5 0 0 0 - - -;
#X floatatom -659 350 5 0 0 0 - - -;
#X obj -740 328 * 0.01;
#X obj -742 287 * 6.25;
#X obj 30 240 tgl 25 0 empty empty MIDI 2 12 1 10 -1 -262144 -262144
0 1;
#X floatatom -362 518 5 0 0 0 - - -;
#X floatatom -344 466 5 0 0 0 - - -;
#X obj -363 495 f;
#X obj -364 466 bng 15 250 50 0 empty empty empty 17 7 0 10 -262144
-1 -1;
#X obj -615 739 s recordlivemidiloopBNG;
#X obj -750 77 notein;
#X obj -746 111 spigot-toggle_violet;
#X obj -724 111 spigot-toggle_violet;
#X obj -691 157 sel;
#X obj -669 189 bng 15 250 50 0 empty empty empty 17 7 0 10 -262144
-1 -1;
#X obj -690 133 == 64;
#X floatatom -745 233 5 0 0 0 - - -;
#X floatatom -745 139 5 0 0 0 - - -;
#X obj -701 188 bng 15 250 50 0 empty empty empty 17 7 0 10 -262144
-1 -1;
#X obj -699 232 s env_recmidi_out;
#X obj -626 197 s env_recmidi_in;
#X obj -366 435 sel;
#X obj -381 553 f;
#X obj -381 533 bng 15 250 50 0 empty empty empty 17 7 0 10 -262144
-1 -1;
#X obj 4 150 tgl 25 0 empty empty ■ 2 11 1 41 -1 -262144 -262144
0 1;
#X obj -609 403 * -1;
#X obj -608 380 - 1;
#X obj -381 576 spigot-toggle_violet;
#X obj -754 52 * 1;
#X obj -601 491 r lo;
#X obj 4 99 tgl 25 0 empty empty edit 4 13 1 11 -1 -262144 -262144
0 1;
#X obj 713 235 spigot-toggle_violet;
#X obj -335 548 r lo;
#X obj -726 27 s recordlivemidiloopstop;
#X obj -745 163 - 0;
#X obj -721 51 s recordlivemidiloop;
#X obj -744 207 spigot-toggle_violet;
#X obj -726 3 s recordlivemidiloopstop1;
#X obj -721 -26 bng 15 250 50 0 empty empty empty 17 7 0 10 -262144
-1 -1;
#X obj 30 99 tgl 25 0 empty empty mod 3 13 1 11 -1 -262144 -262144
0 1;
#X obj 741 234 spigot-toggle_violet;
#X obj -547 526 f;
#X obj -520 525 + 1;
#X msg 102 26 0;
#X obj 4 216 tgl 25 0 empty empty A 8 13 1 14 -1 -262144 -262144 0
1;
#X obj -126 52 spigot-toggle_orange;
#X obj -126 23 * 100;
#X obj -609 333 r lo;
#X msg -592 -107 record slip.mid;
#X obj 47 708 r freestepsouts;
#X obj 161 213 cnv 3 20 53 empty empty empty 20 12 0 14 -1 -66577 0
;
#X obj 205 115 cnv 2 3 151 empty empty empty 20 12 0 14 -1 -66577 0
;
#X obj -405 171 r anafromarduino;
#X obj -413 123 r midifromarduino;
#X obj -387 -333 s freestepsouts = press button >>freestepsouts>>A
motor off;
#X obj -377 -301 s freestepsouts ?;
#X obj -126 -1 r A;
#X obj 30 216 tgl 25 0 empty empty B 8 13 1 14 -1 -262144 -262144 0
1;
#X obj -78 48 spigot-toggle_orange;
#X obj -79 26 * 100;
#X obj -79 -2 r B;
#X obj -2 -27 sel;
#X msg -2 -1 0;
#X obj 1002 241 * 1;
#X obj 1051 192 spigot-toggle_orange;
#X msg 1053 126 0;
#X obj 1051 152 + 0;
#X obj 1347 298 * 1;
#X obj 1347 270 t b f;
#X obj 1381 303 r øs@Agate;
#X obj -323 661 sel;
#X msg -306 691 1;
#X obj 723 10 r B;
#X obj 1355 175 r lo;
#X obj 1346 321 spigot-toggle_vert;
#X obj 1353 246 r trgrø@SA;
#X obj 153 -885 r send_A<<A;
#X obj 153 -863 s A<<A;
#X obj 152 -839 r send_AøA;
#X obj 152 -817 s AøA;
#X obj 167 -772 r send_A<<B;
#X obj 167 -750 s A<<B;
#X obj 166 -726 r send_AøB;
#X obj 166 -704 s AøB;
#X obj 173 512 s ø@S;
#X obj 304 128 r send_save_ø@S;
#X obj 307 185 s save_ø@S;
#X obj 4 176 bng 19 250 50 0 empty empty S 6 10 0 13 -1 -260097 -260097
;
#X floatatom 24 173 5 0 0 0 - - -;
#X obj 84 -344 r send_AB;
#X floatatom 376 -364 5 0 0 0 - - -;
#X obj 835 452 + 0;
#X obj 793 419 spigot-toggle_vert;
#X msg 793 440 0;
#X obj 794 399 bng 15 250 50 0 empty empty empty 17 7 0 10 -262144
-1 -1;
#X floatatom 838 502 12 0 0 0 - - -;
#X obj 835 477 spigot-toggle_vert;
#X obj 825 400 f;
#X obj 825 423 t b f;
#X obj 775 359 r øSbangA;
#X obj 725 506 spigot-toggle_vert;
#X obj 754 395 - 1;
#X obj 753 418 * -1;
#X obj 1177 -216 r øSbangA;
#X obj 1033 -121 bng 15 250 50 0 empty empty empty 17 7 0 10 -262144
-1 -1;
#X obj 1283 673 sel;
#X msg 1291 703 1;
#X obj -589 590 bng 15 250 50 0 empty empty empty 17 7 0 10 -262144
-1 -1;
#X msg -609 355 0;
#X obj 53 98 cnv 7 11 167 empty empty empty 20 12 0 14 -1 -66577 0
;
#X floatatom 1371 220 2 0 0 0 - - -;
#X floatatom 1382 327 2 0 0 0 - - -;
#X obj 84 -290 s ABselectA;
#X obj 1205 470 s BBmod;
#X obj 7 195 hsl 46 20 0 1 0 0 empty empty sharp 6 9 1 11 -1 -262144
-262144 4500 1;
#X obj 844 149 r stretchA;
#X obj 992 454 r looplenghtA;
#X floatatom 993 486 5 0 0 0 - - -;
#X obj 994 511 t b f;
#X obj 993 539 / 1;
#X floatatom 968 605 5 0 0 0 - - -;
#X obj 965 637 s lplghtT$mod;
#X floatatom 648 398 8 0 3 0 - - -;
#X obj 643 293 sel;
#X obj 662 325 bng 15 250 50 0 empty empty empty 17 7 0 10 -262144
-1 -1;
#X msg 676 302 0;
#X obj 166 15 sel;
#X obj 166 38 bng 15 250 50 0 empty empty empty 17 7 0 10 -262144 -1
-1;
#X obj 993 566 * 2;
#X floatatom 50 -256 5 0 0 0 - - -;
#X obj 51 -229 spigot-toggle_orange;
#X obj 51 -204 s reposetoi>0A;
#X obj 23 188 cnv 3 40 6 empty empty empty 20 12 0 14 -1 -66577 0;
#X obj 219 97 cnv 1 1 165 empty empty empty 10 12 0 14 -262144 -66577
0;
#X obj 1206 633 spigot-toggle_vert;
#X obj 1221 573 spigot-toggle_vert;
#X obj 1247 572 spigot-toggle_red;
#X obj -150 133 cnv 10 31 11 empty empty empty 20 12 0 14 -1 -66577
0;
#X obj -153 79 cnv 10 31 11 empty empty empty 20 12 0 14 -1 -66577
0;
#X obj -119 92 cnv 15 32 51 empty empty empty 20 12 0 14 -1 -66577
0;
#X obj -158 79 tgl 30 0 empty empty empty 5 13 1 37 -1 -1 -260097 0
1;
#X obj 1232 631 r lo;
#X obj 1160 718 spigot-toggle_vert;
#X obj 1186 717 spigot-toggle_red;
#X obj 868 728 spigot-toggle_red;
#X obj 774 -167 r locA;
#X obj 64 927 onoff7x;
#X obj -9 947 spigot-toggle_orange;
#X floatatom 548 -70 5 0 0 0 - - -;
#X obj 551 -100 notein;
#X obj 583 -4 bng 15 250 50 0 empty empty empty 17 7 0 10 -262144 -1
-1;
#X obj 537 -2 bng 15 250 50 0 empty empty empty 17 7 0 10 -262144 -1
-1;
#X msg 528 91 1;
#X obj 543 -34 sel 48;
#X obj 538 19 f;
#X obj 571 18 + 1;
#X obj 542 43 mod 4;
#X obj 542 68 sel 0 1 2 3;
#X msg 579 94 0;
#X obj 1472 724 s trgrtoenv;
#X obj 1470 677 spigot-toggle_vert;
#X obj 1503 529 - 1;
#X obj 1502 552 * -1;
#X obj 1521 640 s trgrtoenvonoff;
#X obj -196 420 f;
#X obj -198 390 delay 100;
#X obj -185 369 bng 15 250 50 0 empty empty empty 17 7 0 10 -262144
-1 -1;
#X obj -199 447 s Aonoff;
#X obj -122 419 f;
#X obj -124 389 delay 100;
#X obj -117 363 bng 15 250 50 0 empty empty empty 17 7 0 10 -262144
-1 -1;
#X obj -125 446 s Bonoff;
#X obj -184 339 sel;
#X obj -104 337 sel;
#X obj -308 719 s Aonoffc;
#X obj -256 502 bng 15 250 50 0 empty empty empty 17 7 0 10 -262144
-1 -1;
#X obj -280 579 s Aoffbang;
#X obj -239 472 s Abutton;
#X obj 1495 148 s BngtoenvA;
#X obj 64 214 cnv 3 45 51 empty empty empty 20 12 0 14 -1 -66577 0
;
#X obj 1340 726 s trgrmodAA;
#X obj 90 498 s Abutton;
#X floatatom 1619 572 2 0 0 0 - - -;
#X obj 1561 389 spigot-toggle_orange;
#X obj 1560 414 spigot-toggle_orange;
#X obj 1588 467 s BngslcttoenvAaudiomods;
#X obj 1536 277 s BBmodtoBenv;
#X obj 1571 326 r BB;
#X obj 1573 348 r BB1;
#X connect 3 0 25 0;
#X connect 3 0 366 0;
#X connect 4 0 27 0;
#X connect 4 0 367 0;
#X connect 5 0 24 0;
#X connect 6 0 26 0;
#X connect 7 0 13 0;
#X connect 8 0 12 0;
#X connect 9 0 16 0;
#X connect 12 0 14 0;
#X connect 13 0 14 0;
#X connect 14 0 11 0;
#X connect 14 0 65 0;
#X connect 14 0 149 0;
#X connect 14 0 172 0;
#X connect 15 0 209 0;
#X connect 15 0 142 0;
#X connect 15 0 9 1;
#X connect 15 0 17 0;
#X connect 16 0 10 0;
#X connect 16 0 22 0;
#X connect 16 0 344 0;
#X connect 16 0 417 0;
#X connect 16 0 414 0;
#X connect 18 0 156 0;
#X connect 18 0 21 0;
#X connect 19 0 20 0;
#X connect 19 0 274 0;
#X connect 20 0 142 0;
#X connect 20 0 125 0;
#X connect 22 0 296 0;
#X connect 22 0 157 0;
#X connect 23 0 138 0;
#X connect 24 0 9 0;
#X connect 24 0 409 0;
#X connect 25 0 15 0;
#X connect 26 0 9 0;
#X connect 26 0 409 0;
#X connect 27 0 15 0;
#X connect 28 0 40 0;
#X connect 29 0 36 0;
#X connect 29 0 39 0;
#X connect 30 0 38 0;
#X connect 31 0 34 0;
#X connect 32 0 33 0;
#X connect 33 0 44 0;
#X connect 34 0 33 1;
#X connect 34 0 89 1;
#X connect 35 0 173 0;
#X connect 36 0 37 0;
#X connect 37 1 41 0;
#X connect 38 0 109 0;
#X connect 40 0 82 0;
#X connect 41 0 42 0;
#X connect 41 1 32 0;
#X connect 42 0 43 0;
#X connect 43 0 35 0;
#X connect 44 0 43 1;
#X connect 45 0 142 0;
#X connect 46 0 135 0;
#X connect 47 0 130 0;
#X connect 48 0 45 1;
#X connect 48 0 46 1;
#X connect 48 0 47 1;
#X connect 48 0 49 1;
#X connect 49 0 131 0;
#X connect 50 0 53 0;
#X connect 50 0 52 0;
#X connect 50 0 62 0;
#X connect 50 0 377 0;
#X connect 51 0 45 0;
#X connect 52 0 47 0;
#X connect 53 0 49 0;
#X connect 62 0 46 0;
#X connect 63 0 64 0;
#X connect 64 0 166 0;
#X connect 66 0 68 0;
#X connect 66 0 70 0;
#X connect 67 0 93 0;
#X connect 68 0 93 0;
#X connect 69 0 125 0;
#X connect 70 0 125 0;
#X connect 71 0 83 0;
#X connect 72 0 73 1;
#X connect 72 0 331 1;
#X connect 72 0 84 1;
#X connect 72 0 190 0;
#X connect 73 0 84 0;
#X connect 74 0 78 0;
#X connect 75 0 78 0;
#X connect 76 0 75 0;
#X connect 77 0 331 0;
#X connect 78 0 205 0;
#X connect 78 0 297 1;
#X connect 78 0 328 1;
#X connect 78 0 93 1;
#X connect 80 0 39 0;
#X connect 81 0 97 0;
#X connect 82 0 31 0;
#X connect 82 1 31 1;
#X connect 83 0 77 0;
#X connect 83 0 353 0;
#X connect 84 0 138 0;
#X connect 84 0 171 0;
#X connect 85 0 86 0;
#X connect 86 0 87 0;
#X connect 87 0 138 0;
#X connect 88 0 85 1;
#X connect 89 0 88 0;
#X connect 90 0 91 0;
#X connect 90 1 92 0;
#X connect 91 0 85 0;
#X connect 92 0 89 0;
#X connect 93 0 71 0;
#X connect 94 0 95 0;
#X connect 95 1 96 0;
#X connect 96 0 39 0;
#X connect 98 0 83 0;
#X connect 98 1 83 1;
#X connect 99 0 54 0;
#X connect 100 0 99 1;
#X connect 101 0 15 0;
#X connect 102 0 104 0;
#X connect 103 0 15 0;
#X connect 104 0 101 0;
#X connect 105 0 106 0;
#X connect 106 0 101 1;
#X connect 107 0 108 0;
#X connect 108 0 103 0;
#X connect 109 0 31 0;
#X connect 110 0 111 0;
#X connect 111 0 109 1;
#X connect 113 0 87 1;
#X connect 114 0 109 1;
#X connect 115 0 101 1;
#X connect 117 0 126 0;
#X connect 118 0 174 0;
#X connect 119 0 154 0;
#X connect 120 0 119 0;
#X connect 120 0 68 1;
#X connect 120 0 90 0;
#X connect 120 0 174 0;
#X connect 120 0 191 0;
#X connect 120 0 207 0;
#X connect 120 0 343 0;
#X connect 120 0 366 1;
#X connect 120 0 373 1;
#X connect 120 0 403 0;
#X connect 120 0 395 1;
#X connect 120 0 405 0;
#X connect 120 0 408 0;
#X connect 120 0 412 0;
#X connect 121 0 126 0;
#X connect 121 0 119 0;
#X connect 121 0 67 1;
#X connect 121 0 90 0;
#X connect 121 0 189 0;
#X connect 121 0 190 0;
#X connect 121 0 208 0;
#X connect 121 0 343 0;
#X connect 121 0 367 1;
#X connect 121 0 374 1;
#X connect 121 0 399 1;
#X connect 121 0 404 0;
#X connect 121 0 354 0;
#X connect 121 0 412 0;
#X connect 122 0 70 1;
#X connect 122 0 177 0;
#X connect 123 0 69 1;
#X connect 123 0 178 0;
#X connect 125 0 93 1;
#X connect 125 0 77 1;
#X connect 125 0 297 1;
#X connect 126 0 12 1;
#X connect 126 0 26 1;
#X connect 126 0 79 0;
#X connect 126 0 99 0;
#X connect 126 0 202 0;
#X connect 127 0 25 1;
#X connect 127 0 196 0;
#X connect 127 0 336 0;
#X connect 127 0 392 0;
#X connect 128 0 27 1;
#X connect 128 0 198 0;
#X connect 128 0 336 0;
#X connect 128 0 392 0;
#X connect 129 0 119 1;
#X connect 129 0 74 1;
#X connect 129 0 145 0;
#X connect 129 0 154 0;
#X connect 129 0 357 0;
#X connect 129 0 361 1;
#X connect 130 0 120 0;
#X connect 130 0 29 0;
#X connect 130 0 40 1;
#X connect 130 0 102 0;
#X connect 130 0 107 0;
#X connect 130 0 187 0;
#X connect 130 0 190 0;
#X connect 130 0 360 0;
#X connect 131 0 120 0;
#X connect 131 0 95 0;
#X connect 131 0 102 0;
#X connect 131 0 107 0;
#X connect 131 0 39 0;
#X connect 131 0 110 0;
#X connect 131 0 185 0;
#X connect 131 0 190 0;
#X connect 131 0 360 0;
#X connect 132 0 119 1;
#X connect 132 0 75 1;
#X connect 132 0 116 0;
#X connect 132 0 154 0;
#X connect 132 0 175 0;
#X connect 132 0 357 0;
#X connect 132 0 361 1;
#X connect 133 0 167 0;
#X connect 134 0 63 0;
#X connect 134 0 103 1;
#X connect 134 0 105 0;
#X connect 134 0 112 0;
#X connect 134 0 375 1;
#X connect 135 0 120 0;
#X connect 135 0 102 0;
#X connect 135 0 39 0;
#X connect 135 0 107 0;
#X connect 135 0 174 0;
#X connect 135 0 184 0;
#X connect 135 0 190 0;
#X connect 135 0 354 0;
#X connect 135 0 360 0;
#X connect 136 0 295 1;
#X connect 136 0 305 1;
#X connect 136 0 315 0;
#X connect 136 0 317 0;
#X connect 136 0 323 1;
#X connect 136 0 190 0;
#X connect 136 0 194 0;
#X connect 138 0 237 0;
#X connect 138 0 294 0;
#X connect 139 0 188 0;
#X connect 140 0 127 0;
#X connect 140 0 174 0;
#X connect 140 0 312 0;
#X connect 140 0 80 1;
#X connect 140 0 414 1;
#X connect 141 0 314 0;
#X connect 141 0 81 1;
#X connect 141 0 415 1;
#X connect 141 0 126 0;
#X connect 141 0 128 0;
#X connect 142 0 153 0;
#X connect 142 0 168 0;
#X connect 143 0 45 1;
#X connect 143 0 46 1;
#X connect 143 0 47 1;
#X connect 143 0 49 1;
#X connect 144 0 143 0;
#X connect 146 0 129 0;
#X connect 146 0 125 0;
#X connect 147 0 148 0;
#X connect 148 0 149 1;
#X connect 149 0 22 0;
#X connect 149 0 157 0;
#X connect 150 0 147 0;
#X connect 151 0 78 0;
#X connect 151 0 93 1;
#X connect 151 0 83 1;
#X connect 152 0 151 0;
#X connect 152 0 274 0;
#X connect 154 0 155 0;
#X connect 158 0 50 0;
#X connect 160 0 80 0;
#X connect 161 0 81 0;
#X connect 162 0 80 0;
#X connect 163 0 81 0;
#X connect 164 0 80 0;
#X connect 165 0 81 0;
#X connect 167 0 159 0;
#X connect 169 0 150 0;
#X connect 171 0 170 0;
#X connect 172 0 350 0;
#X connect 173 0 98 0;
#X connect 174 0 13 1;
#X connect 174 0 24 1;
#X connect 174 0 79 0;
#X connect 174 0 99 0;
#X connect 174 0 200 0;
#X connect 174 0 301 0;
#X connect 176 0 132 0;
#X connect 176 0 125 0;
#X connect 179 0 122 0;
#X connect 179 0 125 0;
#X connect 180 0 123 0;
#X connect 180 0 125 0;
#X connect 181 0 135 0;
#X connect 182 0 130 0;
#X connect 183 0 131 0;
#X connect 186 0 139 0;
#X connect 190 0 375 0;
#X connect 192 0 120 0;
#X connect 193 0 136 0;
#X connect 195 0 127 0;
#X connect 197 0 128 0;
#X connect 199 0 174 0;
#X connect 201 0 126 0;
#X connect 203 0 204 0;
#X connect 204 0 152 0;
#X connect 206 0 254 0;
#X connect 210 0 229 0;
#X connect 211 0 221 0;
#X connect 211 0 227 0;
#X connect 211 0 266 0;
#X connect 212 0 229 0;
#X connect 213 0 216 0;
#X connect 214 0 234 0;
#X connect 214 0 216 0;
#X connect 214 0 213 0;
#X connect 215 0 213 1;
#X connect 215 0 214 0;
#X connect 216 0 229 0;
#X connect 217 0 212 0;
#X connect 217 1 218 0;
#X connect 218 0 210 0;
#X connect 219 0 217 0;
#X connect 220 0 219 0;
#X connect 220 0 292 0;
#X connect 221 0 206 0;
#X connect 221 0 230 0;
#X connect 222 0 225 0;
#X connect 223 0 222 1;
#X connect 224 0 228 0;
#X connect 224 0 223 0;
#X connect 224 0 345 0;
#X connect 225 0 229 0;
#X connect 226 0 319 0;
#X connect 227 0 234 0;
#X connect 228 0 252 0;
#X connect 229 0 211 0;
#X connect 229 1 222 0;
#X connect 229 1 269 0;
#X connect 230 0 338 0;
#X connect 233 0 232 0;
#X connect 233 0 271 0;
#X connect 233 0 262 0;
#X connect 234 0 231 0;
#X connect 234 0 233 0;
#X connect 235 0 243 1;
#X connect 235 0 242 1;
#X connect 236 0 253 1;
#X connect 237 0 238 1;
#X connect 238 0 236 0;
#X connect 239 0 238 0;
#X connect 241 0 242 0;
#X connect 241 1 243 0;
#X connect 242 0 248 0;
#X connect 243 0 246 0;
#X connect 244 0 249 0;
#X connect 244 1 245 0;
#X connect 245 0 251 0;
#X connect 246 0 244 0;
#X connect 246 0 267 1;
#X connect 247 0 259 0;
#X connect 248 0 265 0;
#X connect 249 0 250 0;
#X connect 252 0 239 0;
#X connect 253 0 258 0;
#X connect 254 0 253 0;
#X connect 255 0 257 0;
#X connect 255 0 264 0;
#X connect 256 0 227 1;
#X connect 256 0 258 1;
#X connect 256 0 230 1;
#X connect 257 0 256 0;
#X connect 258 0 262 0;
#X connect 259 0 266 0;
#X connect 259 0 319 0;
#X connect 260 0 230 1;
#X connect 261 0 262 1;
#X connect 261 0 206 1;
#X connect 261 0 230 1;
#X connect 262 0 93 0;
#X connect 263 0 258 1;
#X connect 265 0 267 0;
#X connect 267 0 247 0;
#X connect 269 0 268 0;
#X connect 269 0 251 0;
#X connect 270 0 271 1;
#X connect 271 0 125 0;
#X connect 272 0 273 0;
#X connect 272 0 338 0;
#X connect 273 0 272 1;
#X connect 274 0 125 0;
#X connect 275 0 276 1;
#X connect 276 0 319 0;
#X connect 277 0 276 0;
#X connect 278 0 339 0;
#X connect 279 0 229 0;
#X connect 280 0 144 0;
#X connect 283 0 319 0;
#X connect 284 0 319 0;
#X connect 287 0 277 0;
#X connect 288 0 289 1;
#X connect 289 0 319 0;
#X connect 290 0 289 0;
#X connect 291 0 290 0;
#X connect 292 0 293 0;
#X connect 293 0 275 0;
#X connect 293 0 288 0;
#X connect 294 0 18 0;
#X connect 295 0 18 0;
#X connect 296 0 297 0;
#X connect 297 0 295 0;
#X connect 298 0 305 0;
#X connect 299 0 298 0;
#X connect 299 1 298 1;
#X connect 300 0 298 0;
#X connect 300 0 342 0;
#X connect 301 1 302 0;
#X connect 302 0 405 0;
#X connect 303 0 67 0;
#X connect 303 0 69 0;
#X connect 304 0 298 0;
#X connect 305 0 15 0;
#X connect 306 0 299 0;
#X connect 306 0 341 0;
#X connect 309 0 174 0;
#X connect 311 0 140 0;
#X connect 313 0 141 0;
#X connect 313 0 126 0;
#X connect 316 0 136 0;
#X connect 318 0 226 0;
#X connect 318 0 272 0;
#X connect 319 0 226 1;
#X connect 319 0 215 0;
#X connect 320 0 121 0;
#X connect 321 0 189 0;
#X connect 322 0 327 0;
#X connect 323 0 324 0;
#X connect 324 0 322 0;
#X connect 324 0 77 0;
#X connect 325 0 323 0;
#X connect 325 0 328 0;
#X connect 326 0 73 0;
#X connect 327 0 326 0;
#X connect 328 0 329 0;
#X connect 329 0 322 0;
#X connect 329 1 322 1;
#X connect 330 0 325 0;
#X connect 330 0 332 0;
#X connect 331 0 73 0;
#X connect 332 0 333 0;
#X connect 333 0 331 1;
#X connect 334 0 157 0;
#X connect 334 0 335 0;
#X connect 336 0 337 0;
#X connect 337 0 15 0;
#X connect 337 0 73 1;
#X connect 338 0 240 0;
#X connect 339 0 257 0;
#X connect 345 0 259 1;
#X connect 346 0 74 0;
#X connect 347 0 348 0;
#X connect 348 0 349 0;
#X connect 349 0 350 0;
#X connect 349 1 350 1;
#X connect 350 0 359 0;
#X connect 351 0 352 0;
#X connect 351 0 173 1;
#X connect 354 1 355 0;
#X connect 355 0 356 0;
#X connect 356 0 83 1;
#X connect 357 0 358 0;
#X connect 358 0 152 0;
#X connect 359 0 351 0;
#X connect 360 0 361 0;
#X connect 361 0 362 0;
#X connect 365 0 84 1;
#X connect 365 0 374 0;
#X connect 365 0 373 0;
#X connect 365 0 391 0;
#X connect 365 0 9 1;
#X connect 365 0 411 0;
#X connect 366 0 365 0;
#X connect 367 0 365 0;
#X connect 372 0 365 1;
#X connect 372 0 391 1;
#X connect 373 0 174 0;
#X connect 374 0 126 0;
#X connect 375 0 15 0;
#X connect 377 0 121 0;
#X connect 377 0 81 0;
#X connect 379 0 384 0;
#X connect 380 0 379 0;
#X connect 382 0 385 0;
#X connect 384 0 382 0;
#X connect 384 1 381 0;
#X connect 385 0 386 0;
#X connect 385 0 387 0;
#X connect 386 0 385 1;
#X connect 387 0 388 0;
#X connect 388 0 383 0;
#X connect 388 2 389 0;
#X connect 391 0 390 0;
#X connect 392 0 393 0;
#X connect 393 0 391 1;
#X connect 393 0 394 0;
#X connect 393 0 413 0;
#X connect 395 0 398 0;
#X connect 396 0 395 0;
#X connect 397 0 396 0;
#X connect 399 0 402 0;
#X connect 400 0 399 0;
#X connect 401 0 400 0;
#X connect 403 1 397 0;
#X connect 404 1 401 0;
#X connect 406 0 407 0;
#X connect 414 0 416 0;
#X connect 415 0 416 0;
#X connect 418 0 414 0;
#X connect 419 0 415 0;
#X coords 0 -1 1 1 210 168 2 0 98;
