#N canvas 0 75 1554 698 12;
#X text 613 831 TIME COMPRESSION/EXPANSION BY LOOPED SAMPLING;
#X text 325 985 Here \, rather than ask you to push the read pointer
back and forth in the sample \, we use a phasor~. This makes it possible
to avoid the samphold~ on the read pointer (r~ read-pt) \, since \,
knowing the precession \, we can correct for it in computing the frequency
of the original phasor~ at right.;
#X text -1698 979 We've changed the control for "chunk size" to milliseconds
for added convenience \, and delayed multiplying sample location by
the sample rate (44100) until the last moment \, so that calculations
using "read-pt" and "chunk size" can be in the same units (seconds.)
;
#X obj 1267 178 r trgrA;
#X obj 1267 203 r trgrB;
#X obj 1207 174 r BB;
#X obj 1209 196 r BB1;
#X obj 1168 174 r T$;
#X obj 1167 196 r T1;
#X obj 1222 295 spigot-toggle_vert;
#X obj 1262 425 outlet;
#X obj 1168 349 outlet;
#X obj 1172 264 spigot-toggle_red;
#X obj 1172 242 spigot-toggle_vert;
#X floatatom 1170 302 5 0 0 0 - - -;
#X floatatom 1305 289 2 0 0 0 - - -;
#X obj 1221 321 bng 15 250 50 0 empty empty empty 17 7 0 10 -262144
-1 -1;
#X obj 1257 374 outlet;
#X floatatom 1041 243 12 0 0 0 - - -;
#X obj 98 -10 r lo;
#X msg 100 -48 0;
#X obj 991 277 outlet;
#X obj 1054 82 bng 15 250 50 0 empty empty empty 17 7 0 10 -262144
-1 -1;
#X obj 109 456 r drcttuch;
#X obj 1203 242 spigot-toggle_vert;
#X obj 1266 242 spigot-toggle_vert;
#X obj 1203 264 spigot-toggle_red;
#X obj 1266 264 spigot-toggle_red;
#X obj 397 597 r A;
#X obj 305 522 tgl 15 0 empty empty empty 17 7 0 10 -262144 -1 -1 0
1;
#X obj 458 624 r posvisu;
#X obj 397 680 - 0;
#X obj 380 752 bng 15 250 50 0 empty empty empty 17 7 0 10 -262144
-1 -1;
#X obj 379 776 f;
#X floatatom 397 705 8 0 3 0 - - -;
#X floatatom 471 741 8 0 3 0 - - -;
#X floatatom 302 547 5 0 0 0 - - -;
#X obj 306 573 sel 0;
#X floatatom 459 647 8 0 3 0 - - -;
#X obj 398 533 s trgrvolee;
#X obj 397 625 spigot-toggle_vert;
#X obj 336 702 t b b;
#X obj 333 752 bng 15 250 50 0 empty empty empty 17 7 0 10 -262144
-1 -1;
#X obj 332 776 f;
#X floatatom 346 732 8 0 3 0 - - -;
#X obj 177 888 spigot-toggle_orange;
#X obj 39 858 spigot-toggle_orange;
#X obj 40 881 spigot-toggle_orange;
#X obj 41 1002 r lo;
#X obj 39 904 spigot-toggle_orange;
#X obj 9 871 tgl 15 0 empty empty loc 2 7 0 10 -262144 -1 -1 0 1;
#X obj 63 831 onoff0x;
#X obj 61 880 onoff2x;
#X obj 61 904 onoff3x;
#X obj 114 647 s slctdisplayonoff;
#X text -1121 929 >ø = stop at release;
#X text 625 894 @A = reminds the last starting point and hangs on;
#X text 625 912 ø@ = reminds the last starting point and not hangs
on;
#X text 619 873 tru = A without modulation;
#X text 624 926 when one of above is select it can be played as;
#X text 625 853 ø = ON/OFF \, 1 push: on second push : off;
#X text -1121 949 loc = reminds what you were doing \; 1st push: scd
push : off;
#X obj 62 855 onoff1x;
#X obj 80 983 - 1;
#X obj 115 984 * -1;
#X obj 1137 380 s T$mod;
#X obj 708 83 r A;
#X obj 712 210 spigot-toggle_red;
#X obj 712 185 spigot-toggle_vert;
#X obj 740 210 spigot-toggle_red;
#X obj 740 185 spigot-toggle_vert;
#X floatatom 713 292 8 0 3 0 - - -;
#X obj 731 480 r lo;
#X obj 727 642 spigot-toggle_red;
#X obj 844 175 spigot-toggle_jaunenoir;
#X obj 845 235 spigot-toggle_jaunenoir;
#X obj 844 204 r line_pause1;
#X obj 713 358 + 0;
#X floatatom 848 291 12 0 0 0 - - -;
#X obj 103 425 s fiddlecackborm;
#X obj -55 517 spigot-toggle_orange;
#X obj -56 542 spigot-toggle_orange;
#X obj 396 653 t b f;
#X obj 714 316 + 0;
#X obj 729 669 spigot-toggle_red;
#X obj 578 673 f;
#X floatatom 575 702 8 0 3 0 - - -;
#X obj 577 765 spigot-toggle_vert;
#X floatatom 511 701 8 0 3 0 - - -;
#X obj 523 673 f;
#X obj 532 617 sel;
#X obj 575 644 bng 15 250 50 0 empty empty empty 17 7 0 10 -262144
-1 -1;
#X obj 524 648 bng 15 250 50 0 empty empty empty 17 7 0 10 -262144
-1 -1;
#X obj -37 517 spigot-toggle_orange;
#X obj -35 542 spigot-toggle_orange;
#X obj -79 517 spigot-toggle_orange;
#X obj -79 541 spigot-toggle_orange;
#X obj -54 579 r lo;
#X obj 713 263 + 0;
#X obj 379 438 r ø>0;
#X obj 381 467 sel;
#X msg 398 492 1;
#X obj 398 563 s trgrvolee1;
#X obj 939 379 t b f;
#X obj 121 613 spigot-toggle_jaune;
#X obj 129 586 r lo;
#X obj 44 -94 spigot-toggle_orange;
#X obj 52 -118 sel;
#X obj 45 -143 spigot-toggle_orange;
#X msg 66 -82 1;
#X obj 49 -43 - 1;
#X obj 48 -20 * -1;
#X obj 52 -178 sel;
#X msg 52 -148 0;
#X obj 459 671 spigot-toggle_red;
#X obj 474 774 - 1;
#X obj 473 797 * -1;
#X obj 577 617 r b@A;
#X obj 90 523 s ø>;
#X obj 58 523 s @A;
#X obj 584 731 r @A;
#X obj 472 708 r lo;
#X obj 86 -105 r lo;
#X obj 159 843 s TmstrchBTR;
#X obj 114 1094 r TRGnB_@sB;
#X obj 112 1074 r TRGnB_@sA;
#X obj 140 332 spigot-toggle_orange;
#X obj 92 128 tgl 28 0 empty empty A 8 14 1 17 -1 -262144 -262144 0
1;
#X obj 92 157 tgl 28 0 empty empty B 8 14 1 17 -1 -262144 -262144 0
1;
#X obj 141 130 tgl 28 0 empty empty A 8 14 1 17 -1 -262144 -262144
0 1;
#X obj 141 159 tgl 28 0 empty empty B 8 14 1 17 -1 -262144 -262144
0 1;
#X obj 119 98 cnv 17 79 16 empty empty Entry_point 21 8 1 10 -1 -262144
0;
#X obj 120 132 vsl 20 80 0 1 0 0 empty empty mod 2 10 0 9 -1 -260097
-262144 0 1;
#X obj 95 214 cnv 20 25 25 empty empty -A- 4 12 0 10 -1 -262144 0;
#X obj 95 239 cnv 12 25 26 empty empty -B- 4 12 0 10 -1 -262144 0;
#X obj 121 241 tgl 25 0 empty empty Bng 2 10 0 10 -1 -262144 -262144
0 1;
#X obj 63 215 tgl 25 0 empty empty empty 2 10 0 10 -1 -262144 -262144
0 1;
#X obj 63 241 tgl 25 0 empty empty Trg 6 10 1 10 -1 -262144 -262144
0 1;
#X obj 170 130 tgl 28 0 empty empty ->- 3 12 1 14 -1 -262144 -262144
0 1;
#X obj 63 128 tgl 28 0 empty empty A@ 4 12 1 14 -260097 -262144 -1
0 1;
#X obj 63 157 tgl 28 0 empty empty @re 2 13 1 12 -260097 -262144 -1
0 1;
#X obj 170 159 tgl 28 0 empty empty ->- 3 12 1 14 -1 -262144 -262144
0 1;
#X obj 141 186 tgl 28 0 empty empty løc 3 13 0 12 -260097 -262144
-1 0 1;
#X obj 91 186 tgl 28 0 empty empty >ø 3 13 0 15 -260097 -262144 -1
0 1;
#X obj 63 99 tgl 28 0 empty empty raw 4 13 1 13 -260097 -262144 -1
0 1;
#X obj 170 186 tgl 28 0 empty empty ø@S 3 13 0 12 -260097 -262144
-1 0 1;
#X obj 478 -199 cnv 15 50 15 empty empty empty 20 12 0 14 -262144 -66577
0;
#X floatatom 140 112 8 0 0 0 - - -;
#X obj 63 186 tgl 28 0 empty empty @A 5 15 0 14 -260097 -262144 -1
0 1;
#X obj 173 215 tgl 25 0 empty empty empty 11 11 0 14 -1 -262144 -260097
0 1;
#X obj 173 241 tgl 25 0 empty empty ø 7 10 0 15 -1 -262144 -262144
0 1;
#X obj 147 215 tgl 25 0 empty empty empty 5 10 1 11 -1 -262144 -260097
0 1;
#X obj 147 241 tgl 25 0 empty empty << 5 10 1 11 -1 -262144 -262144
0 1;
#X obj 91 99 tgl 28 0 empty empty ø 8 12 1 22 -1 -262144 -262144 1
1;
#X obj 45 767 * -1;
#X obj 45 740 - 1;
#X obj 157 -142 s reposetoinoffA;
#X obj 156 -167 r send_reposetoinoffA;
#X obj 1205 -96 - 1;
#X obj 1205 -70 * -1;
#X obj 1198 -35 spigot-toggle_orange;
#X obj 1208 -119 tgl 15 0 empty empty empty 17 7 0 10 -262144 -1 -1
1 1;
#X msg 753 265 0;
#X obj 119 110 bng 20 250 50 0 empty empty +0 3 10 0 10 -1 -260097
-262144;
#X obj 283 40 s øAtiTS1;
#X obj 128 354 * 1;
#X obj 130 379 s trgTS1;
#X obj 1046 275 s posA;
#X obj 1048 1 s BangAtoenv;
#X obj -62 863 r locA;
#X obj 130 551 s locA;
#X obj -55 628 r s&pAa;
#X obj -55 650 r s&pBa;
#X obj -55 690 r speedAa;
#X obj -57 713 r speedBa;
#X obj -58 750 r pitchAa;
#X obj -59 782 r pitchBa;
#X obj 158 984 s øAtiTS1>ø;
#X obj 128 522 -;
#X obj 284 69 s onofdispay0;
#X obj 252 766 s Aonoff;
#X obj 1208 -142 r IT≠T;
#X obj 745 743 s Amod;
#X floatatom 745 715 12 0 0 0 - - -;
#X obj 1001 358 t b f;
#X obj 1006 390 /;
#X floatatom 1005 415 5 0 0 0 - - -;
#X obj 942 345 -;
#X obj 1056 369 r T$;
#X obj 1002 326 r looplenghtA;
#X obj 967 411 f;
#X obj 958 307 sel;
#X obj 975 332 bng 15 250 50 0 empty empty empty 17 7 0 10 -262144
-1 -1;
#X floatatom 964 436 5 0 0 0 - - -;
#X obj 121 215 tgl 25 0 empty empty empty 2 10 0 10 -1 -262144 -262144
0 1;
#X obj 156 -96 s reposetoinoffAB;
#X obj 156 -117 r send_reposetoinoffAB;
#X obj 136 -526 s modAA;
#X obj 135 -480 s modAB;
#X obj 136 -548 r send_modAA;
#X obj 135 -502 r send_modAB;
#X obj 44 -523 r send_rawA;
#X obj 44 -473 r send_A@;
#X obj 45 -422 r send_@re;
#X obj 45 -497 s rawA;
#X obj 45 -398 s @re;
#X obj 45 -373 r send_@A;
#X obj 45 -447 s A@;
#X obj 44 -351 s @A;
#X obj 83 -321 s AB;
#X floatatom 756 572 5 0 0 0 - - -;
#X obj 80 -648 s AAbuton;
#X obj 80 -672 r send_AAbuton;
#X obj 752 553 r send_save_dataposA;
#X obj 754 601 s save_dataposA;
#X obj 56 -1012 r send_save_trgAA;
#X obj 57 -986 s save_trgAA;
#X obj 57 -963 r send_save_trgAB;
#X obj 58 -937 s save_trgAB;
#X obj 114 -1125 r send_save_BngAA;
#X obj 115 -1099 s save_BngAA;
#X obj 115 -1066 r send_save_BngAB;
#X obj 116 -1040 s save_BngAB;
#X obj 165 953 r chngpresetA;
#X msg 121 954 0;
#X obj 847 313 s line_pauseA;
#X obj 6 298 spigot-toggle_orange;
#X obj 82 -267 s lyrAposA;
#X obj 82 -237 s lyrAposB;
#X obj 1316 377 s trgrmodA;
#X msg -655 -117 record;
#X floatatom -412 233 4 0 0 0 - - -;
#X obj -675 -140 bng 15 250 50 0 empty empty empty 17 7 0 10 -262144
-1 -1;
#X obj -736 -128 pack;
#X floatatom -742 -159 5 0 0 0 - - -;
#X floatatom -725 -192 5 0 0 0 - - -;
#X obj -750 -91 cyclone/midiformat;
#X obj -675 -174 sel;
#X obj -656 -140 bng 15 250 50 0 empty empty empty 17 7 0 10 -262144
-1 -1;
#X floatatom -676 -196 5 0 0 0 - - -;
#X obj 1 124 tgl 25 0 empty empty REC 2 13 1 10 -260097 -1 -1 0 1;
#X obj 1 241 bng 25 250 50 0 empty empty R 9 13 1 9 -1 -260097 -262144
;
#X obj -748 -24 spigot-toggle_violet;
#X obj 27 150 tgl 25 0 empty empty LOOP 3 12 1 8 -1 -262144 -262144
1 1;
#X obj -1 34 r lo;
#X obj 27 124 bng 25 250 50 0 empty empty PLAY 5 12 1 8 -1 -262144
-262144;
#X obj 32 5 f;
#X obj -741 432 spigot-toggle_violet;
#X obj -370 395 tgl 25 0 empty empty NOTE 3 12 1 8 -66577 -262144 -262144
1 1;
#X obj -748 -57 cyclone/seq seq.mid;
#X obj -621 495 spigot-toggle_violet;
#X floatatom -661 319 5 0 0 0 - - -;
#X floatatom -660 350 5 0 0 0 - - -;
#X obj -741 328 * 0.01;
#X obj -743 287 * 6.25;
#X obj 27 241 tgl 25 0 empty empty MIDI 2 12 1 10 -1 -262144 -262144
0 1;
#X floatatom -363 518 5 0 0 0 - - -;
#X floatatom -345 466 5 0 0 0 - - -;
#X obj -364 495 f;
#X obj -365 466 bng 15 250 50 0 empty empty empty 17 7 0 10 -262144
-1 -1;
#X obj -616 739 s recordlivemidiloopBNG;
#X obj -751 77 notein;
#X obj -747 111 spigot-toggle_violet;
#X obj -725 111 spigot-toggle_violet;
#X obj -692 157 sel;
#X obj -670 189 bng 15 250 50 0 empty empty empty 17 7 0 10 -262144
-1 -1;
#X obj -691 133 == 64;
#X floatatom -746 233 5 0 0 0 - - -;
#X floatatom -746 139 5 0 0 0 - - -;
#X obj -702 188 bng 15 250 50 0 empty empty empty 17 7 0 10 -262144
-1 -1;
#X obj -700 232 s env_recmidi_out;
#X obj -627 197 s env_recmidi_in;
#X obj -367 435 sel;
#X obj -382 553 f;
#X obj -382 533 bng 15 250 50 0 empty empty empty 17 7 0 10 -262144
-1 -1;
#X obj 1 150 tgl 25 0 empty empty STOP 3 12 1 8 -1 -262144 -262144
0 1;
#X obj -610 403 * -1;
#X obj -609 380 - 1;
#X obj -382 576 spigot-toggle_violet;
#X obj -755 52 * 1;
#X obj -602 491 r lo;
#X obj 1 98 tgl 25 0 empty empty press 0 12 1 10 -1 -262144 -262144
0 1;
#X obj 712 235 spigot-toggle_violet;
#X obj -461 189 hsl 46 14 0 1 0 0 empty empty %sharp 3 7 1 11 -66577
-262144 -262144 4500 1;
#X obj -336 548 r lo;
#X obj -727 27 s recordlivemidiloopstop;
#X obj -746 163 - 0;
#X obj -722 51 s recordlivemidiloop;
#X obj -745 207 spigot-toggle_violet;
#X obj -727 3 s recordlivemidiloopstop1;
#X obj -722 -26 bng 15 250 50 0 empty empty empty 17 7 0 10 -262144
-1 -1;
#X obj 27 98 tgl 25 0 empty empty mod 6 12 1 10 -1 -262144 -262144
0 1;
#X obj 740 234 spigot-toggle_violet;
#X obj -548 526 f;
#X obj -521 525 + 1;
#X msg 101 26 0;
#X obj 1 216 tgl 25 0 empty empty A 8 13 1 14 -1 -262144 -262144 0
1;
#X obj -127 52 spigot-toggle_orange;
#X obj -127 23 * 100;
#X obj -610 333 r lo;
#X msg -593 -107 record slip.mid;
#X obj 46 708 r freestepsouts;
#X obj 86 214 cnv 10 11 51 empty empty empty 20 12 0 14 -1 -66577 0
;
#X obj 197 98 cnv 7 12 167 empty empty empty 20 12 0 14 -1 -66577 0
;
#X obj -406 171 r anafromarduino;
#X obj -414 123 r midifromarduino;
#X obj -388 -333 s freestepsouts = press button >>freestepsouts>>A
motor off;
#X obj -378 -301 s freestepsouts ?;
#X obj -127 -1 r A;
#X obj 27 216 tgl 25 0 empty empty B 8 13 1 14 -1 -262144 -262144 0
1;
#X obj -79 48 spigot-toggle_orange;
#X obj -80 26 * 100;
#X obj -80 2 r B;
#X obj -6 -27 sel;
#X msg -7 -1 0;
#X obj 1001 241 * 1;
#X obj 1050 192 spigot-toggle_orange;
#X msg 1052 126 0;
#X obj 1050 152 + 0;
#X obj 1346 298 * 1;
#X obj 1346 270 t b f;
#X obj 1380 303 r øs@Agate;
#X obj 264 712 sel;
#X msg 281 742 1;
#X obj 293 672 sel;
#X msg 306 716 1;
#X obj 722 10 r B;
#X obj 1599 302 r lo;
#X obj 1345 321 spigot-toggle_vert;
#X obj 1352 246 r trgrø@SA;
#X obj 152 -885 r send_A<<A;
#X obj 152 -863 s A<<A;
#X obj 151 -839 r send_AøA;
#X obj 151 -817 s AøA;
#X obj 166 -772 r send_A<<B;
#X obj 166 -750 s A<<B;
#X obj 165 -726 r send_AøB;
#X obj 165 -704 s AøB;
#X floatatom 547 -70 5 0 0 0 - - -;
#X obj 550 -100 notein;
#X obj 582 -4 bng 15 250 50 0 empty empty empty 17 7 0 10 -262144 -1
-1;
#X obj 536 -2 bng 15 250 50 0 empty empty empty 17 7 0 10 -262144 -1
-1;
#X msg 527 91 1;
#X obj 542 -34 sel 48;
#X obj 537 19 f;
#X obj 570 18 + 1;
#X obj 541 43 mod 4;
#X obj 541 68 sel 0 1 2 3;
#X obj 339 357 s ø@S;
#X obj 303 128 r send_save_ø@S;
#X obj 306 185 s save_ø@S;
#X obj 1 176 bng 19 250 50 0 empty empty S 6 10 0 14 -1 -260097 -260097
;
#X floatatom 20 176 5 0 0 0 - - -;
#X obj 83 -344 r send_AB;
#X floatatom -145 717 5 0 0 0 - - -;
#X floatatom 375 -364 5 0 0 0 - - -;
#X obj -179 484 s Bonoff;
#X obj -176 457 f;
#X obj -178 427 delay 100;
#X obj -185 400 bng 15 250 50 0 empty empty empty 17 7 0 10 -262144
-1 -1;
#X obj -181 370 sel;
#X obj -253 455 f;
#X obj -253 428 delay 100;
#X obj -246 402 bng 15 250 50 0 empty empty empty 17 7 0 10 -262144
-1 -1;
#X obj -254 485 s Aonoff;
#X obj -246 381 sel;
#X obj 834 452 + 0;
#X obj 792 419 spigot-toggle_vert;
#X msg 792 440 0;
#X obj 793 399 bng 15 250 50 0 empty empty empty 17 7 0 10 -262144
-1 -1;
#X floatatom 837 502 12 0 0 0 - - -;
#X obj 834 477 spigot-toggle_vert;
#X obj 824 400 f;
#X obj 824 423 t b f;
#X obj 774 359 r øSbangA;
#X obj 724 506 spigot-toggle_vert;
#X obj 753 395 - 1;
#X obj 752 418 * -1;
#X obj 1176 -216 r øSbangA;
#X obj 1032 -121 bng 15 250 50 0 empty empty empty 17 7 0 10 -262144
-1 -1;
#X obj 600 424 sel;
#X msg 597 468 1;
#X obj -590 590 bng 15 250 50 0 empty empty empty 17 7 0 10 -262144
-1 -1;
#X msg -610 355 0;
#X obj 51 98 cnv 7 11 167 empty empty empty 20 12 0 14 -1 -66577 0
;
#X floatatom 1370 220 2 0 0 0 - - -;
#X floatatom 1391 365 2 0 0 0 - - -;
#X obj 447 63 sel;
#X msg 578 94 0;
#X msg 445 86 0;
#X obj 455 124 f;
#X obj 425 33 sel;
#X obj 237 -3 spigot-toggle_orange;
#X obj 866 71 s ABselectA;
#X obj 1216 372 s BBmod;
#X msg 487 84 1;
#X obj 4 195 hsl 46 20 0 1 0 0 empty empty sharp 6 9 1 11 -1 -262144
-262144 4500 1;
#X obj 843 149 r stretchA;
#X connect 3 0 25 0;
#X connect 4 0 27 0;
#X connect 5 0 24 0;
#X connect 6 0 26 0;
#X connect 7 0 13 0;
#X connect 8 0 12 0;
#X connect 9 0 16 0;
#X connect 12 0 14 0;
#X connect 13 0 14 0;
#X connect 14 0 11 0;
#X connect 14 0 65 0;
#X connect 14 0 160 0;
#X connect 15 0 229 0;
#X connect 15 0 153 0;
#X connect 15 0 9 1;
#X connect 15 0 17 0;
#X connect 16 0 10 0;
#X connect 16 0 22 0;
#X connect 16 0 394 0;
#X connect 18 0 167 0;
#X connect 18 0 21 0;
#X connect 19 0 20 0;
#X connect 19 0 295 0;
#X connect 20 0 153 0;
#X connect 20 0 132 0;
#X connect 22 0 317 0;
#X connect 22 0 168 0;
#X connect 23 0 147 0;
#X connect 24 0 9 0;
#X connect 25 0 15 0;
#X connect 26 0 9 0;
#X connect 27 0 15 0;
#X connect 28 0 40 0;
#X connect 29 0 36 0;
#X connect 29 0 39 0;
#X connect 30 0 38 0;
#X connect 31 0 34 0;
#X connect 32 0 33 0;
#X connect 33 0 44 0;
#X connect 34 0 33 1;
#X connect 34 0 89 1;
#X connect 35 0 187 0;
#X connect 36 0 37 0;
#X connect 37 1 41 0;
#X connect 38 0 114 0;
#X connect 40 0 82 0;
#X connect 41 0 42 0;
#X connect 41 1 32 0;
#X connect 42 0 43 0;
#X connect 43 0 35 0;
#X connect 44 0 43 1;
#X connect 45 0 153 0;
#X connect 46 0 144 0;
#X connect 47 0 139 0;
#X connect 48 0 45 1;
#X connect 48 0 46 1;
#X connect 48 0 47 1;
#X connect 48 0 49 1;
#X connect 49 0 140 0;
#X connect 50 0 53 0;
#X connect 50 0 52 0;
#X connect 50 0 62 0;
#X connect 51 0 45 0;
#X connect 52 0 47 0;
#X connect 53 0 49 0;
#X connect 62 0 46 0;
#X connect 63 0 64 0;
#X connect 64 0 177 0;
#X connect 66 0 68 0;
#X connect 66 0 70 0;
#X connect 67 0 98 0;
#X connect 68 0 98 0;
#X connect 69 0 132 0;
#X connect 70 0 132 0;
#X connect 71 0 83 0;
#X connect 72 0 73 1;
#X connect 72 0 375 1;
#X connect 72 0 84 1;
#X connect 73 0 84 0;
#X connect 74 0 78 0;
#X connect 75 0 78 0;
#X connect 76 0 75 0;
#X connect 77 0 375 0;
#X connect 78 0 225 0;
#X connect 78 0 318 1;
#X connect 78 0 372 1;
#X connect 78 0 132 0;
#X connect 80 0 93 0;
#X connect 80 0 95 0;
#X connect 81 0 94 0;
#X connect 81 0 96 0;
#X connect 82 0 31 0;
#X connect 82 1 31 1;
#X connect 83 0 77 0;
#X connect 84 0 147 0;
#X connect 84 0 183 0;
#X connect 85 0 86 0;
#X connect 86 0 87 0;
#X connect 87 0 147 0;
#X connect 88 0 85 1;
#X connect 89 0 88 0;
#X connect 90 1 92 0;
#X connect 91 0 85 0;
#X connect 92 0 89 0;
#X connect 93 0 39 0;
#X connect 94 0 102 0;
#X connect 95 0 194 0;
#X connect 95 0 136 0;
#X connect 96 0 135 0;
#X connect 97 0 80 1;
#X connect 97 0 81 1;
#X connect 98 0 71 0;
#X connect 99 0 100 0;
#X connect 100 1 101 0;
#X connect 101 0 39 0;
#X connect 103 0 83 0;
#X connect 103 1 83 1;
#X connect 104 0 54 0;
#X connect 105 0 104 1;
#X connect 106 0 15 0;
#X connect 107 0 109 0;
#X connect 108 0 15 0;
#X connect 109 0 106 0;
#X connect 110 0 111 0;
#X connect 111 0 106 1;
#X connect 112 0 113 0;
#X connect 113 0 108 0;
#X connect 114 0 31 0;
#X connect 115 0 116 0;
#X connect 116 0 114 1;
#X connect 117 0 91 0;
#X connect 120 0 87 1;
#X connect 121 0 114 1;
#X connect 122 0 106 1;
#X connect 124 0 135 0;
#X connect 125 0 194 0;
#X connect 126 0 165 0;
#X connect 127 0 126 0;
#X connect 127 0 68 1;
#X connect 127 0 90 0;
#X connect 127 0 180 0;
#X connect 127 0 194 0;
#X connect 127 0 211 0;
#X connect 127 0 136 0;
#X connect 127 0 227 0;
#X connect 127 0 365 0;
#X connect 127 0 361 1;
#X connect 127 0 391 0;
#X connect 127 0 393 0;
#X connect 128 0 135 0;
#X connect 128 0 126 0;
#X connect 128 0 67 1;
#X connect 128 0 90 0;
#X connect 128 0 119 0;
#X connect 128 0 209 0;
#X connect 128 0 210 0;
#X connect 128 0 228 0;
#X connect 128 0 137 0;
#X connect 128 0 357 1;
#X connect 128 0 360 0;
#X connect 128 0 393 0;
#X connect 129 0 70 1;
#X connect 129 0 197 0;
#X connect 130 0 69 1;
#X connect 130 0 198 0;
#X connect 132 0 98 1;
#X connect 132 0 77 1;
#X connect 132 0 318 1;
#X connect 135 0 12 1;
#X connect 135 0 26 1;
#X connect 135 0 79 0;
#X connect 135 0 104 0;
#X connect 135 0 222 0;
#X connect 136 0 25 1;
#X connect 136 0 216 0;
#X connect 136 0 380 0;
#X connect 137 0 27 1;
#X connect 137 0 218 0;
#X connect 137 0 380 0;
#X connect 138 0 126 1;
#X connect 138 0 74 1;
#X connect 138 0 156 0;
#X connect 138 0 165 0;
#X connect 138 0 387 0;
#X connect 139 0 127 0;
#X connect 139 0 29 0;
#X connect 139 0 40 1;
#X connect 139 0 107 0;
#X connect 139 0 112 0;
#X connect 139 0 191 0;
#X connect 139 0 207 0;
#X connect 139 0 210 0;
#X connect 140 0 127 0;
#X connect 140 0 100 0;
#X connect 140 0 107 0;
#X connect 140 0 112 0;
#X connect 140 0 39 0;
#X connect 140 0 115 0;
#X connect 140 0 205 0;
#X connect 140 0 210 0;
#X connect 141 0 126 1;
#X connect 141 0 75 1;
#X connect 141 0 123 0;
#X connect 141 0 165 0;
#X connect 141 0 195 0;
#X connect 141 0 387 0;
#X connect 142 0 178 0;
#X connect 143 0 63 0;
#X connect 143 0 108 1;
#X connect 143 0 110 0;
#X connect 143 0 118 0;
#X connect 144 0 127 0;
#X connect 144 0 107 0;
#X connect 144 0 39 0;
#X connect 144 0 112 0;
#X connect 144 0 194 0;
#X connect 144 0 204 0;
#X connect 144 0 210 0;
#X connect 145 0 316 1;
#X connect 145 0 328 1;
#X connect 145 0 348 0;
#X connect 145 0 350 0;
#X connect 145 0 367 1;
#X connect 145 0 210 0;
#X connect 147 0 257 0;
#X connect 147 0 315 0;
#X connect 148 0 119 0;
#X connect 148 0 208 0;
#X connect 149 0 93 1;
#X connect 149 0 136 0;
#X connect 149 0 194 0;
#X connect 149 0 335 0;
#X connect 150 0 94 1;
#X connect 150 0 337 0;
#X connect 151 0 95 1;
#X connect 151 0 194 0;
#X connect 151 0 136 0;
#X connect 151 0 331 0;
#X connect 152 0 96 1;
#X connect 152 0 135 0;
#X connect 152 0 137 0;
#X connect 152 0 333 0;
#X connect 153 0 164 0;
#X connect 153 0 179 0;
#X connect 154 0 45 1;
#X connect 154 0 46 1;
#X connect 154 0 47 1;
#X connect 154 0 49 1;
#X connect 155 0 154 0;
#X connect 157 0 138 0;
#X connect 157 0 132 0;
#X connect 158 0 159 0;
#X connect 159 0 160 1;
#X connect 160 0 22 0;
#X connect 160 0 168 0;
#X connect 161 0 158 0;
#X connect 162 0 78 0;
#X connect 162 0 98 1;
#X connect 162 0 83 1;
#X connect 162 0 77 1;
#X connect 163 0 162 0;
#X connect 163 0 295 0;
#X connect 165 0 166 0;
#X connect 169 0 50 0;
#X connect 171 0 80 0;
#X connect 172 0 81 0;
#X connect 173 0 80 0;
#X connect 174 0 81 0;
#X connect 175 0 80 0;
#X connect 176 0 81 0;
#X connect 178 0 170 0;
#X connect 181 0 161 0;
#X connect 183 0 182 0;
#X connect 184 0 185 0;
#X connect 184 1 185 1;
#X connect 185 0 186 0;
#X connect 186 0 190 1;
#X connect 187 0 103 0;
#X connect 188 0 185 0;
#X connect 189 0 184 0;
#X connect 190 0 193 0;
#X connect 191 1 192 0;
#X connect 192 0 190 0;
#X connect 193 0 187 1;
#X connect 194 0 13 1;
#X connect 194 0 24 1;
#X connect 194 0 79 0;
#X connect 194 0 104 0;
#X connect 194 0 220 0;
#X connect 194 0 322 0;
#X connect 196 0 141 0;
#X connect 196 0 132 0;
#X connect 199 0 129 0;
#X connect 199 0 132 0;
#X connect 200 0 130 0;
#X connect 200 0 132 0;
#X connect 201 0 144 0;
#X connect 202 0 139 0;
#X connect 203 0 140 0;
#X connect 206 0 148 0;
#X connect 210 0 84 1;
#X connect 210 0 214 0;
#X connect 212 0 127 0;
#X connect 213 0 210 0;
#X connect 215 0 136 0;
#X connect 217 0 137 0;
#X connect 219 0 194 0;
#X connect 221 0 135 0;
#X connect 223 0 224 0;
#X connect 224 0 163 0;
#X connect 226 0 274 0;
#X connect 230 0 249 0;
#X connect 231 0 241 0;
#X connect 231 0 247 0;
#X connect 231 0 287 0;
#X connect 232 0 249 0;
#X connect 233 0 236 0;
#X connect 234 0 254 0;
#X connect 234 0 236 0;
#X connect 234 0 233 0;
#X connect 235 0 233 1;
#X connect 235 0 234 0;
#X connect 236 0 249 0;
#X connect 237 0 232 0;
#X connect 237 1 238 0;
#X connect 238 0 230 0;
#X connect 239 0 237 0;
#X connect 240 0 239 0;
#X connect 240 0 313 0;
#X connect 241 0 226 0;
#X connect 241 0 250 0;
#X connect 242 0 245 0;
#X connect 243 0 242 1;
#X connect 244 0 248 0;
#X connect 244 0 283 0;
#X connect 244 0 243 0;
#X connect 244 0 396 0;
#X connect 245 0 249 0;
#X connect 246 0 352 0;
#X connect 247 0 254 0;
#X connect 248 0 272 0;
#X connect 249 0 231 0;
#X connect 249 1 242 0;
#X connect 249 1 290 0;
#X connect 250 0 382 0;
#X connect 253 0 252 0;
#X connect 253 0 292 0;
#X connect 253 0 282 0;
#X connect 254 0 251 0;
#X connect 254 0 253 0;
#X connect 255 0 263 1;
#X connect 255 0 262 1;
#X connect 256 0 273 1;
#X connect 257 0 258 1;
#X connect 258 0 256 0;
#X connect 259 0 258 0;
#X connect 261 0 262 0;
#X connect 261 1 263 0;
#X connect 262 0 268 0;
#X connect 263 0 266 0;
#X connect 264 0 269 0;
#X connect 264 1 265 0;
#X connect 265 0 271 0;
#X connect 266 0 264 0;
#X connect 266 0 288 1;
#X connect 267 0 279 0;
#X connect 268 0 286 0;
#X connect 269 0 270 0;
#X connect 272 0 259 0;
#X connect 273 0 278 0;
#X connect 274 0 273 0;
#X connect 275 0 277 0;
#X connect 275 0 285 0;
#X connect 276 0 247 1;
#X connect 276 0 278 1;
#X connect 276 0 250 1;
#X connect 277 0 276 0;
#X connect 278 0 282 0;
#X connect 279 0 287 0;
#X connect 279 0 352 0;
#X connect 280 0 250 1;
#X connect 281 0 282 1;
#X connect 281 0 226 1;
#X connect 281 0 250 1;
#X connect 281 0 84 1;
#X connect 282 0 98 0;
#X connect 283 0 279 1;
#X connect 284 0 278 1;
#X connect 286 0 288 0;
#X connect 288 0 267 0;
#X connect 290 0 289 0;
#X connect 290 0 271 0;
#X connect 291 0 292 1;
#X connect 292 0 132 0;
#X connect 293 0 294 0;
#X connect 293 0 382 0;
#X connect 294 0 293 1;
#X connect 295 0 132 0;
#X connect 296 0 297 1;
#X connect 297 0 352 0;
#X connect 298 0 297 0;
#X connect 299 0 383 0;
#X connect 300 0 249 0;
#X connect 301 0 155 0;
#X connect 304 0 352 0;
#X connect 305 0 352 0;
#X connect 308 0 298 0;
#X connect 309 0 310 1;
#X connect 310 0 352 0;
#X connect 311 0 310 0;
#X connect 312 0 311 0;
#X connect 313 0 314 0;
#X connect 314 0 296 0;
#X connect 314 0 309 0;
#X connect 315 0 18 0;
#X connect 316 0 18 0;
#X connect 317 0 318 0;
#X connect 318 0 316 0;
#X connect 319 0 328 0;
#X connect 320 0 319 0;
#X connect 320 1 319 1;
#X connect 321 0 319 0;
#X connect 321 0 386 0;
#X connect 322 1 323 0;
#X connect 323 0 180 0;
#X connect 324 1 325 0;
#X connect 325 0 194 0;
#X connect 325 0 136 0;
#X connect 325 0 180 0;
#X connect 326 0 67 0;
#X connect 326 0 69 0;
#X connect 327 0 319 0;
#X connect 328 0 15 0;
#X connect 329 0 320 0;
#X connect 329 0 385 0;
#X connect 330 0 151 0;
#X connect 332 0 152 0;
#X connect 332 0 194 0;
#X connect 334 0 149 0;
#X connect 336 0 150 0;
#X connect 336 0 135 0;
#X connect 338 0 343 0;
#X connect 339 0 338 0;
#X connect 341 0 344 0;
#X connect 342 0 138 0;
#X connect 343 0 341 0;
#X connect 343 1 340 0;
#X connect 344 0 345 0;
#X connect 344 0 346 0;
#X connect 345 0 344 1;
#X connect 346 0 347 0;
#X connect 347 0 342 0;
#X connect 347 2 388 0;
#X connect 349 0 145 0;
#X connect 351 0 246 0;
#X connect 351 0 293 0;
#X connect 352 0 246 1;
#X connect 352 0 235 0;
#X connect 353 0 128 0;
#X connect 355 0 209 0;
#X connect 357 0 356 0;
#X connect 358 0 357 0;
#X connect 359 0 358 0;
#X connect 360 1 359 0;
#X connect 361 0 364 0;
#X connect 362 0 361 0;
#X connect 363 0 362 0;
#X connect 365 1 363 0;
#X connect 366 0 371 0;
#X connect 367 0 368 0;
#X connect 368 0 366 0;
#X connect 368 0 77 0;
#X connect 369 0 367 0;
#X connect 369 0 372 0;
#X connect 370 0 73 0;
#X connect 371 0 370 0;
#X connect 372 0 373 0;
#X connect 373 0 366 0;
#X connect 373 1 366 1;
#X connect 374 0 369 0;
#X connect 374 0 376 0;
#X connect 375 0 73 0;
#X connect 376 0 377 0;
#X connect 377 0 375 1;
#X connect 378 0 168 0;
#X connect 378 0 379 0;
#X connect 380 0 381 0;
#X connect 381 0 15 0;
#X connect 381 0 73 1;
#X connect 382 0 260 0;
#X connect 383 0 277 0;
#X connect 387 0 389 0;
#X connect 388 0 138 0;
#X connect 396 0 279 1;
#X connect 397 0 74 0;
#X coords 0 -1 1 1 210 168 2 0 98;
