#N canvas 543 0 1137 1028 12;
#X obj 1262 -17 r trgrA;
#X obj 1147 -10 r BB;
#X obj 1147 16 r BB1;
#X obj 1074 -30 r T$;
#X obj 1074 -4 r T1;
#X obj 1155 247 outlet;
#X obj 1079 230 outlet;
#X obj 1075 77 spigot-toggle_red;
#X obj 1075 48 spigot-toggle_vert;
#X floatatom 1076 138 5 0 0 0 - - -;
#X obj 1153 163 bng 15 250 50 0 empty empty empty 17 7 0 10 -262144
-1 -1;
#X floatatom 348 116 12 0 0 0 - - -;
#X msg -16 18 0;
#X obj 1150 48 spigot-toggle_vert;
#X obj 1149 71 spigot-toggle_red;
#X obj 59 964 spigot-toggle_orange;
#X obj 23 993 spigot-toggle_orange;
#X obj 23 1016 spigot-toggle_orange;
#X obj 28 1104 r lo;
#X obj 23 1039 spigot-toggle_orange;
#X obj -7 1006 tgl 15 0 empty empty loc 2 7 0 10 -262144 -1 -1 0 1
;
#X obj 62 -242 - 1;
#X obj 92 -242 * -1;
#X obj 667 189 spigot-toggle_red;
#X obj 666 161 spigot-toggle_vert;
#X obj 686 189 spigot-toggle_red;
#X obj 686 161 spigot-toggle_vert;
#X floatatom 668 306 8 0 3 0 - - -;
#X obj 860 157 spigot-toggle_jaunenoir;
#X obj 860 180 spigot-toggle_jaunenoir;
#X floatatom 862 204 12 0 0 0 - - -;
#X obj 166 616 spigot-toggle_orange;
#X obj 166 645 spigot-toggle_orange;
#X obj 668 223 + 0;
#X obj -14 -7 r lo;
#X obj 622 170 r B;
#X obj 59 132 tgl 28 0 empty empty A 6 15 1 26 -1 -262144 -262144 0
1;
#X obj 59 161 tgl 28 0 empty empty B 6 15 1 28 -1 -262144 -262144 0
1;
#X obj 131 132 tgl 28 0 empty empty A 6 12 1 22 -1 -262144 -262144
0 1;
#X obj 131 161 tgl 28 0 empty empty B 6 12 1 22 -1 -262144 -262144
0 1;
#X obj 620 -435 vsl 28 81 0 100 0 0 empty empty + 10 44 0 12 -1 -262144
-262144 0 1;
#X obj 159 161 tgl 28 0 empty empty • 6 15 1 50 -1 -260097 -260097
0 1;
#X obj 102 132 tgl 28 0 empty empty ☞ 8 12 0 27 -1 -262144 -262144
0 1;
#X obj 30 132 tgl 28 0 empty empty @ 2 14 1 26 -260097 -1 -1 0 1;
#X obj 30 161 tgl 28 0 empty empty ⤷@ -6 14 1 18 -260097 -1 -1 0
1;
#X obj 102 161 tgl 28 0 empty empty ☞ 8 12 0 27 -1 -262144 -262144
0 1;
#X obj 29 103 tgl 28 0 empty empty raw 4 12 1 14 -260097 -1 -45076
0 1;
#X floatatom 130 107 8 0 0 0 - - -;
#X obj 58 103 tgl 28 0 empty empty ๏ -4 10 1 50 -260097 -1 -1 0 1
;
#X msg 330 419 0;
#X obj 83 962 onoff12x;
#X obj 84 1015 onoff14x;
#X obj 84 1039 onoff15x;
#X obj 167 736 r s&pAb;
#X obj 166 812 r s&pBb;
#X obj 166 837 r speedAb;
#X obj 167 757 r speedBb;
#X obj 167 778 r pitchAb;
#X obj 166 862 r pitchBb;
#X obj -178 169 s locB;
#X obj -6 927 r locB;
#X obj 134 -262 s reposetoinoffB;
#X obj 134 -288 r send_reposetoinoffB;
#X obj 1078 201 s T$mod1;
#X obj 348 139 s posB;
#X obj 87 -211 s øBtiTS1>ø;
#X obj 447 -428 s TmstrchBTR1;
#X obj 85 715 s trgrvolee1;
#X obj -68 193 s @B;
#X obj 85 990 onoff13x;
#X obj 444 134 outlet;
#X obj -351 139 s øAtiTS2;
#X obj 159 132 tgl 28 0 empty empty • 6 15 1 50 -1 -260097 -260097
0 1;
#X obj 348 92 * 1;
#X obj 54 -647 r send_BA;
#X obj 28 -535 r send_rawB;
#X obj -215 139 s rawB;
#X obj 31 -492 r send_B@;
#X obj -122 167 s B@;
#X obj 33 -450 r send_@reB;
#X obj 278 591 s @reB;
#X obj 61 -274 r send_@B;
#X obj 63 -303 s @B;
#X obj 104 -433 r send_modBA;
#X obj 104 -412 r send_modBB;
#X obj 131 -333 r send_reposetoinoffBB;
#X obj 130 -306 s reposetoinoffBB;
#X obj 128 -385 r send_reposetoinoffBA;
#X obj 128 -358 s reposetoinoffBA;
#X obj 163 -494 r send_BøB;
#X obj 163 -470 s BøB;
#X obj 163 -550 r send_BøA;
#X obj 163 -522 s BøA;
#X obj -262 196 s BBbuton;
#X obj 55 -598 r send_BBbuton;
#X obj 61 -115 s save_dataposB;
#X obj 61 -137 r send_save_dataposB;
#X obj 172 -751 r send_save_BngBA;
#X obj 172 -665 s save_BngBA;
#X obj 201 -773 r send_save_BngBB;
#X obj 201 -689 s save_BngBB;
#X obj 201 -731 r send_save_trgBA;
#X obj 202 -843 s save_trgBA;
#X obj 172 -708 r send_save_trgBB;
#X obj 172 -794 s save_trgBB;
#X obj 86 684 s trgrvolee;
#X obj 621 144 r A;
#X obj -162 107 s ø@S1;
#X obj 60 -186 r send_save_ø@S1;
#X obj 60 -163 s save_ø@S1;
#X obj 667 386 spigot-toggle_vert;
#X obj 102 103 bng 28 250 50 0 empty empty +0 7 14 0 11 -1 -260097
-262144;
#X obj 860 127 r stretchB;
#X obj 859 106 r stretchA;
#X obj 666 356 + 0;
#X obj 1187 202 s BBBmod;
#X obj 1262 9 r trgrB;
#X obj -256 224 s sl_bngAB;
#X obj -256 250 s sl_bngBB;
#X obj -346 170 s ABonoff;
#X obj -346 197 s BBonoff;
#X floatatom 668 509 12 0 0 0 - - -;
#X obj 670 533 s Bmod;
#X obj 1327 -72 r sl_trgAB;
#X obj 1329 -44 r sl_trgBB;
#X obj -346 224 s sl_trgAB;
#X obj -346 250 s sl_trgBB;
#X obj 667 74 r ABonoff;
#X obj 667 99 r BBonoff;
#X obj -522 168 spigot-toggle_orange;
#X obj -536 145 r Abutton;
#X obj 669 252 + 0;
#X obj 313 392 sel;
#X obj 721 226 bng 15 250 50 0 empty empty empty 17 7 0 10 -262144
-1 -1;
#X obj 178 51 spigot-toggle_orange;
#X obj 315 365 r rawB;
#X obj 381 -113 notein;
#X floatatom 406 -78 5 0 0 0 - - -;
#X floatatom 358 -78 5 0 0 0 - - -;
#X floatatom 451 -83 5 0 0 0 - - -;
#X obj 351 10 spigot-toggle_red;
#X obj 430 -32 bng 15 250 50 0 empty empty empty 17 7 0 10 -262144
-1 -1;
#X obj 407 -30 bng 15 250 50 0 empty empty empty 17 7 0 10 -262144
-1 -1;
#X obj 406 -59 sel;
#X obj 408 -10 f;
#X obj 439 -8 + 1;
#X floatatom 352 -11 5 0 0 0 - - -;
#X obj 409 14 mod 2;
#X obj 358 -53 == 55;
#X obj 177 24 spigot-toggle_orange;
#X msg 708 245 0;
#X obj 1584 30 r ABonoff;
#X obj 1584 58 r BBonoff;
#X obj 113 506 spigot-toggle_orange;
#X obj 113 533 delay;
#X obj 117 482 sel;
#X msg 112 555 1;
#X obj 146 508 r t$mod1;
#X obj 447 -450 s TStrchonoffB;
#X obj 1 132 tgl 28 0 empty empty ∞ 6 15 2 25 -1 -260097 -260097
0 1;
#X obj 1 103 tgl 28 0 empty empty >๏ 5 13 1 15 -1 -260097 -260097
0 1;
#X obj 188 249 tgl 28 0 empty empty 0 9 15 1 14 -1 -4034 -4034 0 1
;
#X obj 1 161 tgl 28 0 empty empty @ 6 15 1 18 -1 -260097 -260097 0
1;
#X obj 188 132 tgl 28 0 empty empty ◐ 8 15 1 14 -1 -260097 -260097
0 1;
#X obj 188 161 tgl 28 0 empty empty ◐ 8 15 1 14 -1 -260097 -260097
0 1;
#X obj 188 191 tgl 28 0 empty empty ∗ 8 12 1 24 -1 -260097 -260097
0 1;
#X obj 188 220 tgl 28 0 empty empty ∗ 8 12 1 24 -1 -260097 -260097
0 1;
#X obj -478 168 s Bbutton;
#X obj 159 220 tgl 28 0 empty empty • 6 15 1 50 -1 -260097 -260097
0 1;
#X obj 159 191 tgl 28 0 empty empty • 6 15 1 50 -1 -260097 -260097
0 1;
#X obj 805 327 spigot-toggle_vert;
#X obj 807 308 bng 15 250 50 0 empty empty empty 17 7 0 10 -262144
-1 -1;
#X obj 755 327 - 1;
#X obj 754 350 * -1;
#X obj 804 350 f;
#X obj 756 286 r ø@S1;
#X obj 807 286 r SmplbangB;
#X obj 1154 337 spigot-toggle_vert;
#X obj 1154 358 spigot-toggle_red;
#X obj 1076 360 spigot-toggle_red;
#X obj 1076 337 spigot-toggle_vert;
#X obj 1496 319 r envBAAM;
#X obj 1496 342 r envBBAM;
#X obj 258 215 s envBAAM;
#X obj 257 239 s envBBAM;
#X obj -63 126 s 0+B;
#X obj 720 200 r 0+B;
#X obj 86 63 r 0+B;
#X obj 1263 49 spigot-toggle_vert;
#X obj 1265 78 spigot-toggle_red;
#X obj 1265 337 spigot-toggle_vert;
#X obj 1265 358 spigot-toggle_red;
#X obj 188 278 tgl 28 0 empty empty • 4 15 1 50 -1 -4034 -4034 0
1;
#X obj 160 345 r envFRMsmplsendAB;
#X obj 159 378 r envFRMsmplsendBB;
#X obj 177 210 cnv 5 1 2 empty empty ω+♪ 1 12 0 14 -1 -260097 0
;
#X obj 158 405 s envFRMsmplsendB;
#X obj -257 167 s Babutton;
#X obj 189 615 r ABonoff;
#X obj 185 647 r ABonoff;
#X obj 60 941 spigot-toggle_orange;
#X obj 84 939 onoff11x;
#X obj 178 459 s Bbutton;
#X obj 1156 -84 r sl_bngAB;
#X obj 1156 -58 r sl_bngBB;
#X obj -131 9 f;
#X obj -130 36 f;
#X obj -130 -23 sel;
#X obj -275 138 s >stop1;
#X msg 213 48 0;
#X obj 217 19 r lo;
#X text -487 -334 raw = data from step sequencer A;
#X text -478 -313 @ = where you are + data from step sequencer A;
#X text -487 -296 ⤷@ = repeat @;
#X text -481 -276 orange on black @ = back where you were before looping
;
#X text -473 -249 ∞ = press to loop and press again stop looping
;
#X text -478 -229 >๏ = stop playing at release;
#X text -477 -134 ◐ = step off = silence;
#X text -479 -116 • = send bang to from A or B;
#X text -507 -375 AB \, AB = ⤷@ \, @ \, raw \, will select A on this
layer;
#X text -571 -95 right column ∗ = lauch the step sequencer according
to audio mod source selection;
#X text -575 -57 right column • = send enveloppe according to audio
mod source selection;
#X text -477 -211 ☞ = time stretching \; data source sliding forward
or backward trought the whole lenght of the sample A/V. Adjuste the
parametres in the module below this one called stretch A2;
#X text -473 -355 ๏ = ON/OFF;
#X text -447 -424 column on the left: source selected A \, B \, column
on the right: modulation of A \, B by A or B and ☞ ( time stretching)
;
#X text 1097 430 send env from audio mod;
#X text 992 452 right column ∗ = lauch the step sequencer according
to audio mod source selection;
#X text 988 490 right column • = send enveloppe according to audio
mod source selection;
#X text 1149 -34 bang;
#X text 1069 -57 speed;
#X text 1320 -99 ◐ = silence or not;
#X text 579 -73 playback position/ENTRY POINT;
#X obj -478 82 r lo;
#X msg -479 113 0;
#X obj 1263 202 s trgrmodenvB;
#X obj 1443 46 spigot-toggle_vert;
#X obj 1445 75 spigot-toggle_red;
#X obj 1445 337 spigot-toggle_vert;
#X obj 1445 358 spigot-toggle_red;
#X obj 1442 6 r trgrafterB;
#X obj 1441 -19 r trgrafterA;
#X obj 1443 199 s trgraftermodB;
#X obj 1317 136 s trgraftermodoffB;
#X obj 1319 -7 spigot-toggle_vert;
#X obj 1321 22 spigot-toggle_red;
#X obj 669 276 + 0;
#X obj 314 344 r ABonoff;
#X obj 409 521 - 0;
#X floatatom 409 546 8 0 3 0 - - -;
#X floatatom 348 487 5 0 0 0 - - -;
#X floatatom 501 501 8 0 3 0 - - -;
#X obj 409 468 spigot-toggle_vert;
#X obj 408 494 t b f;
#X obj 381 760 f;
#X floatatom 380 785 8 0 3 0 - - -;
#X obj 497 678 spigot-toggle_vert;
#X floatatom 399 737 8 0 0 0 - - -;
#X obj 400 712 f;
#X obj 400 667 sel;
#X obj 381 739 bng 15 250 50 0 empty empty empty 17 7 0 10 -262144
-1 -1;
#X obj 400 694 bng 15 250 50 0 empty empty empty 17 7 0 10 -262144
-1 -1;
#X obj 499 745 f;
#X obj 499 711 delay;
#X obj 499 769 sel;
#X obj 638 745 f;
#X obj 638 769 sel;
#X obj 638 791 bng 15 250 50 0 empty empty empty 17 7 0 10 -262144
-1 -1;
#X obj 638 713 delay;
#X obj 497 618 spigot-toggle_vert;
#X obj 365 537 bng 15 250 50 0 empty empty empty 17 7 0 10 -262144
-1 -1;
#X obj 365 559 f;
#X obj 348 510 sel;
#X text 328 585 record $ when press A@;
#X text 325 603 recall this $ @reA;
#X text 280 808 + go back to time line @A when @reA is released;
#X obj 410 417 r B;
#X obj 418 440 r B@;
#X obj 502 476 r posvisuB;
#X obj 498 559 r BBBmod;
#X obj 584 625 r T$mod1;
#X obj 550 726 r BBonoff;
#X obj 638 811 s restartenv1;
#X obj 506 588 r @B;
#X obj 503 642 r @reB;
#X obj 524 72 f;
#X obj 507 22 sel;
#X obj 524 49 bng 15 250 50 0 empty empty empty 17 7 0 10 -262144 -1
-1;
#X obj 508 -5 spigot-toggle_vert;
#X obj 530 -2 r >stop1;
#X obj 778 107 sel;
#X obj 795 130 bng 15 250 50 0 empty empty empty 17 7 0 10 -262144
-1 -1;
#X obj 772 130 bng 15 250 50 0 empty empty empty 17 7 0 10 -262144
-1 -1;
#X obj -105 -76 - 1;
#X obj -106 -53 * -1;
#X obj -154 139 s rawloopB;
#X obj 288 437 f;
#X obj 289 418 bng 15 250 50 0 empty empty empty 17 7 0 10 -262144
-1 -1;
#X floatatom 288 462 8 0 3 0 - - -;
#X obj -448 140 s opaonoffB;
#X obj 767 6 r lo;
#X obj 818 44 spigot-toggle_jaunenoir;
#X obj 815 7 r trgrmidirecmodulB;
#X obj 837 43 spigot-toggle_jaunenoir;
#X obj 1 219 manualposloopmidiB2;
#X obj 102 194 stretchB;
#X obj 159 278 tgl 28 0 bonkdowntoenvB empty • 6 15 1 50 -1 -260097
-260097 0 1;
#X obj 159 249 tgl 28 0 bonkuptoenvB empty • 6 15 1 50 -1 -260097
-260097 0 1;
#X obj 163 266 cnv 5 1 2 empty empty '+' 1 12 0 14 -1 -260097 0;
#X obj 0 275 tgl 28 0 empty empty empty 8 15 1 14 -1 -1 -1 0 1;
#X obj 1 190 tgl 28 0 empty empty ↻ 10 13 1 18 -1 -260097 -260097
0 1;
#X obj 158 189 cnv 5 58 6 empty empty empty 20 12 0 14 -1 -66577 0
;
#X floatatom 652 7 12 0 0 0 - - -;
#X obj 909 -105 r recmodulenvB;
#X obj 907 -63 sel 64;
#X obj 915 -24 tgl 15 0 empty empty empty 17 7 0 10 -262144 -1 -1 0
1;
#X obj 844 -63 == 64;
#X obj 971 28 r recmodulstepTB;
#X obj 863 45 spigot-toggle_jaunenoir;
#X obj -245 50 r recmodulenvB;
#X obj 346 312 sel 64;
#X obj 376 401 bng 15 250 50 0 empty empty empty 17 7 0 10 -262144
-1 -1;
#X obj 344 278 r recmodulenvB;
#X floatatom -262 438 5 0 0 0 - - -;
#X obj -261 380 sel;
#X obj -264 344 r lo;
#X msg -265 466 color \$1 22;
#X msg -263 410 22;
#X msg -226 411 30;
#X obj -401 344 r reposetoinoffBB;
#X obj 188 109 tgl 28 0 empty empty empty 8 15 1 14 -1 -1 -1 0 1;
#X obj 87 105 vsl 14 196 0 100 0 0 empty empty + 5 56 0 12 -1 -262144
-262144 0 1;
#X obj 59 190 tgl 28 0 empty empty empty 8 15 1 14 -1 -1 -1 0 1;
#X obj 30 190 tgl 28 0 empty empty empty 8 15 1 14 -1 -1 -1 0 1;
#X obj 129 123 cnv 7 58 10 empty empty empty 18 -28 2 25 -1 -260097
0;
#X obj 129 99 cnv 7 58 10 empty empty empty 18 -28 2 25 -1 -260097
0;
#X obj 188 99 tgl 28 0 empty empty empty 8 15 1 14 -1 -1 -1 0 1;
#X obj 0 304 cnv 6 216 12 empty empty empty 20 12 0 22 -1 -66577 0
;
#X obj 0 90 cnv 6 216 12 empty empty playback_point 120 10 0 10 -1
-260097 0;
#X obj 29 275 tgl 28 0 empty empty empty 8 15 1 14 -1 -1 -1 0 1;
#X obj 58 275 tgl 28 0 empty empty empty 8 15 1 14 -1 -1 -1 0 1;
#X obj 101 190 cnv 6 58 10 empty empty empty 120 10 0 10 -1 -260097
0;
#X msg 243 46 100;
#X obj 130 257 tgl 28 0 empty empty empty 8 15 1 14 -1 -1 -1 0 1;
#X obj 130 286 tgl 28 0 empty empty empty 8 15 1 14 -1 -1 -1 0 1;
#X obj 130 199 tgl 28 0 empty empty empty 8 15 1 14 -1 -1 -1 0 1;
#X obj 130 228 tgl 28 0 empty empty empty 8 15 1 14 -1 -1 -1 0 1;
#X obj -267 496 s tmstrtchBvisu;
#X connect 0 0 188 0;
#X connect 0 0 190 0;
#X connect 0 0 243 0;
#X connect 1 0 13 0;
#X connect 1 0 177 0;
#X connect 2 0 14 0;
#X connect 2 0 178 0;
#X connect 3 0 8 0;
#X connect 3 0 180 0;
#X connect 4 0 7 0;
#X connect 4 0 179 0;
#X connect 4 0 302 0;
#X connect 7 0 9 0;
#X connect 8 0 9 0;
#X connect 9 0 6 0;
#X connect 9 0 63 0;
#X connect 10 0 5 0;
#X connect 10 0 115 0;
#X connect 11 0 70 0;
#X connect 11 0 64 0;
#X connect 11 0 284 1;
#X connect 12 0 107 0;
#X connect 12 0 160 0;
#X connect 12 0 46 0;
#X connect 12 0 330 0;
#X connect 12 0 40 0;
#X connect 13 0 10 0;
#X connect 14 0 10 0;
#X connect 15 0 48 0;
#X connect 16 0 46 0;
#X connect 17 0 43 0;
#X connect 18 0 15 1;
#X connect 18 0 16 1;
#X connect 18 0 17 1;
#X connect 18 0 19 1;
#X connect 18 0 200 1;
#X connect 19 0 44 0;
#X connect 20 0 51 0;
#X connect 20 0 52 0;
#X connect 20 0 69 0;
#X connect 20 0 201 0;
#X connect 21 0 22 0;
#X connect 22 0 65 0;
#X connect 23 0 33 0;
#X connect 24 0 33 0;
#X connect 25 0 131 1;
#X connect 26 0 131 1;
#X connect 27 0 114 0;
#X connect 28 0 30 0;
#X connect 29 0 30 0;
#X connect 30 0 33 1;
#X connect 31 0 105 0;
#X connect 32 0 67 0;
#X connect 33 0 131 0;
#X connect 34 0 12 0;
#X connect 35 0 23 0;
#X connect 35 0 25 0;
#X connect 35 0 300 0;
#X connect 36 0 72 0;
#X connect 36 0 129 1;
#X connect 36 0 134 0;
#X connect 36 0 119 0;
#X connect 36 0 167 0;
#X connect 36 0 197 0;
#X connect 36 0 71 0;
#X connect 36 0 292 0;
#X connect 37 0 134 0;
#X connect 37 0 149 0;
#X connect 37 0 41 0;
#X connect 37 0 120 0;
#X connect 37 0 155 0;
#X connect 37 0 167 0;
#X connect 37 0 93 0;
#X connect 38 0 26 1;
#X connect 39 0 25 1;
#X connect 40 0 174 1;
#X connect 40 0 245 1;
#X connect 41 0 104 0;
#X connect 41 0 118 0;
#X connect 42 0 28 1;
#X connect 42 0 61 0;
#X connect 42 0 88 0;
#X connect 43 0 37 0;
#X connect 43 0 78 0;
#X connect 44 0 37 0;
#X connect 44 0 80 0;
#X connect 45 0 29 1;
#X connect 45 0 66 0;
#X connect 45 0 86 0;
#X connect 45 0 134 1;
#X connect 45 0 158 0;
#X connect 46 0 37 0;
#X connect 46 0 76 0;
#X connect 46 0 41 0;
#X connect 46 0 67 0;
#X connect 47 0 73 0;
#X connect 48 0 71 0;
#X connect 48 0 205 1;
#X connect 48 0 298 0;
#X connect 49 0 114 1;
#X connect 50 0 15 0;
#X connect 51 0 17 0;
#X connect 52 0 19 0;
#X connect 53 0 31 0;
#X connect 54 0 32 0;
#X connect 55 0 32 0;
#X connect 56 0 31 0;
#X connect 57 0 31 0;
#X connect 58 0 32 0;
#X connect 60 0 20 0;
#X connect 62 0 42 0;
#X connect 69 0 16 0;
#X connect 72 0 98 0;
#X connect 72 0 117 0;
#X connect 73 0 11 0;
#X connect 74 0 36 0;
#X connect 75 0 46 0;
#X connect 77 0 43 0;
#X connect 79 0 44 0;
#X connect 81 0 162 0;
#X connect 83 0 38 0;
#X connect 83 0 330 0;
#X connect 83 0 40 0;
#X connect 84 0 39 0;
#X connect 84 0 330 0;
#X connect 84 0 40 0;
#X connect 85 0 45 0;
#X connect 85 0 330 0;
#X connect 85 0 40 0;
#X connect 87 0 42 0;
#X connect 87 0 330 0;
#X connect 87 0 40 0;
#X connect 89 0 166 0;
#X connect 91 0 165 0;
#X connect 94 0 37 0;
#X connect 96 0 161 0;
#X connect 97 0 72 0;
#X connect 99 0 164 0;
#X connect 101 0 163 0;
#X connect 103 0 41 0;
#X connect 106 0 24 0;
#X connect 106 0 26 0;
#X connect 108 0 161 0;
#X connect 110 0 121 0;
#X connect 111 0 185 0;
#X connect 112 0 29 0;
#X connect 113 0 28 0;
#X connect 114 0 110 0;
#X connect 116 0 189 0;
#X connect 116 0 191 0;
#X connect 116 0 244 0;
#X connect 121 0 122 0;
#X connect 121 0 47 0;
#X connect 123 0 243 1;
#X connect 124 0 244 1;
#X connect 127 0 24 1;
#X connect 127 0 289 0;
#X connect 128 0 23 1;
#X connect 128 0 287 0;
#X connect 129 0 167 0;
#X connect 130 0 129 0;
#X connect 131 0 245 0;
#X connect 132 0 296 0;
#X connect 132 1 49 0;
#X connect 133 0 150 0;
#X connect 134 0 86 0;
#X connect 135 0 132 0;
#X connect 136 0 138 0;
#X connect 136 1 137 0;
#X connect 136 2 139 0;
#X connect 137 0 143 0;
#X connect 138 0 148 0;
#X connect 140 0 45 0;
#X connect 142 0 144 0;
#X connect 143 0 142 0;
#X connect 143 1 141 0;
#X connect 144 0 145 0;
#X connect 144 0 147 0;
#X connect 145 0 144 1;
#X connect 146 0 140 0;
#X connect 147 0 146 0;
#X connect 148 0 140 1;
#X connect 149 0 48 0;
#X connect 150 0 33 1;
#X connect 150 0 30 0;
#X connect 150 0 245 1;
#X connect 150 0 131 1;
#X connect 151 0 8 1;
#X connect 151 0 13 1;
#X connect 151 0 188 1;
#X connect 151 0 235 1;
#X connect 152 0 7 1;
#X connect 152 0 14 1;
#X connect 152 0 189 1;
#X connect 152 0 236 1;
#X connect 153 0 154 0;
#X connect 154 0 156 0;
#X connect 155 0 153 0;
#X connect 156 0 48 0;
#X connect 157 0 154 1;
#X connect 159 0 59 0;
#X connect 160 0 149 1;
#X connect 160 0 21 0;
#X connect 160 0 208 0;
#X connect 160 0 207 0;
#X connect 161 0 109 0;
#X connect 161 0 95 0;
#X connect 161 0 107 0;
#X connect 162 0 82 0;
#X connect 162 0 68 0;
#X connect 163 0 125 0;
#X connect 163 0 153 1;
#X connect 163 0 102 0;
#X connect 164 0 126 0;
#X connect 164 0 153 1;
#X connect 164 0 100 0;
#X connect 165 0 31 1;
#X connect 165 0 92 0;
#X connect 166 0 32 1;
#X connect 166 0 90 0;
#X connect 168 0 184 0;
#X connect 168 0 202 0;
#X connect 169 0 183 0;
#X connect 169 0 202 0;
#X connect 170 0 174 0;
#X connect 171 0 170 0;
#X connect 172 0 173 0;
#X connect 173 0 110 1;
#X connect 174 0 121 0;
#X connect 175 0 170 1;
#X connect 175 0 172 0;
#X connect 176 0 171 0;
#X connect 177 0 10 0;
#X connect 178 0 10 0;
#X connect 179 0 63 0;
#X connect 179 0 6 0;
#X connect 180 0 63 0;
#X connect 180 0 6 0;
#X connect 181 0 177 1;
#X connect 181 0 180 1;
#X connect 181 0 190 1;
#X connect 181 0 237 1;
#X connect 182 0 178 1;
#X connect 182 0 179 1;
#X connect 182 0 238 1;
#X connect 182 0 191 1;
#X connect 186 0 133 0;
#X connect 187 0 330 0;
#X connect 187 0 40 0;
#X connect 188 0 234 0;
#X connect 189 0 234 0;
#X connect 190 0 234 0;
#X connect 191 0 234 0;
#X connect 192 0 196 0;
#X connect 193 0 72 0;
#X connect 194 0 41 0;
#X connect 198 0 31 0;
#X connect 199 0 32 0;
#X connect 200 0 36 0;
#X connect 201 0 200 0;
#X connect 203 0 13 1;
#X connect 204 0 14 1;
#X connect 205 0 206 1;
#X connect 206 0 48 0;
#X connect 207 0 206 0;
#X connect 207 1 205 0;
#X connect 209 0 164 0;
#X connect 210 0 209 0;
#X connect 210 0 341 0;
#X connect 232 0 233 0;
#X connect 233 0 167 0;
#X connect 235 0 241 0;
#X connect 236 0 241 0;
#X connect 237 0 241 0;
#X connect 238 0 241 0;
#X connect 239 0 236 0;
#X connect 239 0 238 0;
#X connect 240 0 235 0;
#X connect 240 0 237 0;
#X connect 243 0 242 0;
#X connect 244 0 242 0;
#X connect 245 0 27 0;
#X connect 246 0 132 0;
#X connect 247 0 248 0;
#X connect 248 0 270 1;
#X connect 249 0 271 0;
#X connect 250 0 257 1;
#X connect 250 0 247 0;
#X connect 251 0 252 0;
#X connect 252 0 247 0;
#X connect 252 1 247 1;
#X connect 253 0 254 0;
#X connect 254 0 121 0;
#X connect 255 0 262 0;
#X connect 256 0 253 1;
#X connect 257 0 256 0;
#X connect 258 1 260 0;
#X connect 259 0 253 0;
#X connect 260 0 257 0;
#X connect 261 0 263 0;
#X connect 262 0 261 0;
#X connect 263 0 259 0;
#X connect 264 0 265 0;
#X connect 265 0 266 0;
#X connect 266 0 281 0;
#X connect 267 0 264 0;
#X connect 268 0 255 0;
#X connect 269 0 270 0;
#X connect 270 0 114 1;
#X connect 270 0 295 1;
#X connect 271 1 269 0;
#X connect 275 0 251 0;
#X connect 276 0 251 1;
#X connect 276 0 249 0;
#X connect 277 0 250 0;
#X connect 278 0 268 0;
#X connect 278 0 267 0;
#X connect 279 0 267 1;
#X connect 279 0 262 1;
#X connect 280 0 261 1;
#X connect 280 0 264 1;
#X connect 282 0 268 1;
#X connect 283 0 255 1;
#X connect 283 0 258 0;
#X connect 284 0 64 0;
#X connect 285 1 286 0;
#X connect 286 0 284 0;
#X connect 287 0 285 0;
#X connect 288 0 287 1;
#X connect 289 0 291 0;
#X connect 289 1 290 0;
#X connect 290 0 133 0;
#X connect 292 0 293 0;
#X connect 293 0 207 0;
#X connect 295 0 297 0;
#X connect 296 0 295 0;
#X connect 297 0 114 1;
#X connect 299 0 300 1;
#X connect 300 0 311 0;
#X connect 300 0 33 0;
#X connect 301 0 300 1;
#X connect 301 0 302 1;
#X connect 302 0 9 0;
#X connect 309 0 294 0;
#X connect 312 0 313 0;
#X connect 312 0 315 0;
#X connect 319 1 320 0;
#X connect 320 0 49 0;
#X connect 321 0 319 0;
#X connect 322 0 325 0;
#X connect 323 0 326 0;
#X connect 323 1 327 0;
#X connect 324 0 326 0;
#X connect 325 0 346 0;
#X connect 326 0 322 0;
#X connect 327 0 322 0;
#X connect 328 0 323 0;
#X connect 330 0 174 1;
#X connect 330 0 245 1;
#X connect 341 0 330 0;
#X coords 0 -1 1 1 217 227 2 0 90;
