#N canvas 0 53 1680 975 16;
#X obj 100 10 cnv 15 387 419 empty empty PUREWAVE-SYNTH____GATE_TRGR_CV___TIME___MOD
63 12 0 12 -1 -260097 0;
#X floatatom 1016 -254 0 0 0 0 - - -;
#X obj 1016 -289 *;
#X obj 1009 -329 t b f;
#X floatatom 1275 -258 0 0 0 0 - - -;
#X obj 1273 -334 t b f;
#X obj 890 192 sig~;
#X obj 1257 155 *~;
#X obj 1275 -293 *;
#X obj 1256 220 *~ 1;
#X obj 988 190 osc~;
#X obj -2653 228 r lo;
#X msg -2628 254 0;
#X msg -2596 254 0.5;
#X obj 1075 -289 bng 22 250 50 0 empty empty empty 17 7 0 10 -262144
-1 -1;
#X obj 1118 -63 delay;
#X obj 1123 -4 pack f f;
#X obj 1012 -4 pack f f;
#X obj 1190 -293 * 1;
#X obj 1178 -331 t b f;
#X obj 1352 254 dac~;
#X obj 1010 -64 delay;
#X floatatom 926 -254 0 0 0 0 - - -;
#X obj 926 -289 *;
#X obj 919 -329 t b f;
#X obj 1079 -237 f;
#X obj 1082 -170 sel;
#X obj 1036 192 *~;
#X msg 712 32 1, f 2;
#X obj 625 70 /;
#X floatatom 625 138 0 0 0 0 F - -;
#X floatatom 1141 -398 0 0 0 1 - - -;
#X floatatom 715 140 0 0 0 0 T - -;
#X obj 716 72 /;
#X obj 715 104 * 1000;
#X obj 716 174 spigot-toggle_vert;
#X obj 1273 -387 - 1;
#X obj 1273 -359 * -1;
#X floatatom 1190 -258 0 0 0 0 - - -;
#X msg 967 -64 1;
#X obj 1081 -106 bng 15 250 50 0 empty empty empty 17 7 0 10 -262144
-1 -1;
#X obj 625 102 * 1000;
#X obj 1076 -330 metro 44;
#X obj -2630 182 r fll1;
#X text -2573 135 "a;
#X obj -2717 181 r fll0;
#X obj -2718 141 r fll0;
#X obj -2631 142 r fll1;
#X obj 142 45 tgl 20 0 empty empty B 5 10 1 10 -1 -260097 -260097 0
1;
#X obj 121 45 tgl 20 0 empty empty A 5 10 1 10 -1 -260097 -260097 0
1;
#X obj 123 67 hsl 80 20 0 1 0 0 empty empty cut 12 12 0 10 -1 -260097
-260097 2000 1;
#X obj -11 -32 spigot-toggle_orange;
#X obj -11 -55 spigot-toggle_vert;
#X obj -11 -79 spigot-toggle_red;
#X obj -11 24 * 1;
#X obj 211 67 hsl 80 20 0 1 0 0 empty empty empty -2 -8 0 10 -1 -260097
-260097 5800 1;
#X obj 124 108 hsl 80 20 0 1 0 0 empty empty fade 12 12 0 10 -1 -260097
-260097 5700 1;
#X obj -45 -31 spigot-toggle_orange;
#X obj -45 -55 spigot-toggle_vert;
#X obj -46 -79 spigot-toggle_red;
#X obj -45 22 * 1;
#X obj 211 108 hsl 80 20 0 1 0 0 empty empty empty 45 11 1 20 -1 -260097
-1 7900 1;
#X obj 528 40 t b f;
#X obj 1010 -35 f;
#X floatatom 965 -27 0 0 0 0 - - -;
#X obj 966 21 r lo;
#X obj 530 75 * 1;
#X obj 518 154 t b f;
#X obj 520 186 * 1;
#X obj 83 -51 r lo;
#X obj 625 173 spigot-toggle_vert;
#X obj 1391 213 dj-eq;
#X obj 333 -554 r T$;
#X obj 336 -517 spigot-toggle_red;
#X obj 335 -460 spigot-toggle_red;
#X obj 335 -495 r T1;
#X obj -51 120 spigot-toggle_orange;
#X obj -51 96 spigot-toggle_vert;
#X obj -51 72 spigot-toggle_red;
#X obj -55 173 * 1;
#X obj -16 120 spigot-toggle_orange;
#X obj -16 96 spigot-toggle_vert;
#X obj -16 72 spigot-toggle_red;
#X obj -19 173 * 1;
#X obj 921 -59 spigot-toggle_red;
#X msg -187 145 0.5;
#X obj 184 45 tgl 20 0 empty empty b' 5 9 1 10 -1 -260097 -260097 0
1;
#X obj 163 45 tgl 20 0 empty empty a' 5 9 0 10 -1 -260097 -260097 0
1;
#X obj -2 -238 r fll1;
#X obj -4 -264 r fll0;
#X obj -51 142 spigot-toggle_orange;
#X obj -11 -8 spigot-toggle_orange;
#X obj -16 142 spigot-toggle_orange;
#X obj -44 -9 spigot-toggle_orange;
#X obj -188 174 r lo;
#X obj 355 -232 spigot-toggle_orange;
#X obj 355 -256 spigot-toggle_vert;
#X obj 355 -280 spigot-toggle_red;
#X obj 433 -231 spigot-toggle_orange;
#X obj 433 -255 spigot-toggle_vert;
#X obj 433 -279 spigot-toggle_red;
#X obj 204 -228 spigot-toggle_orange;
#X obj 204 -252 spigot-toggle_vert;
#X obj 204 -276 spigot-toggle_red;
#X obj 201 -175 * 1;
#X obj 433 -209 spigot-toggle_orange;
#X obj 355 -210 spigot-toggle_orange;
#X obj 94 -229 r fll1;
#X obj 92 -255 r fll0;
#X obj 205 -206 spigot-toggle_orange;
#X obj 360 -386 spigot-toggle_orange;
#X obj 360 -410 spigot-toggle_vert;
#X obj 360 -434 spigot-toggle_red;
#X obj 360 -364 spigot-toggle_orange;
#X obj 435 -90 spigot-toggle_orange;
#X obj 436 -114 spigot-toggle_vert;
#X obj 436 -138 spigot-toggle_red;
#X obj 436 -44 * 1;
#X obj 435 -67 spigot-toggle_orange;
#X obj 185 147 vsl 20 60 0 1 0 0 empty empty GAIN 3 6 1 6 -1 -260097
-260097 3000 1;
#X obj 151 147 vsl 10 60 0 1 0 0 empty empty empty 12 12 0 10 -1 -260097
-1 2950 1;
#X obj 174 147 vsl 10 60 0 1 0 0 empty empty empty 12 12 0 10 -1 -260097
-1 2950 1;
#X obj 163 147 vsl 10 60 0 1 0 0 empty empty empty 12 12 0 10 -1 -260097
-1 2950 1;
#X obj 119 142 tgl 30 0 empty empty osc 4 14 1 14 -260097 -1 -1 0 1
;
#X obj 119 175 tgl 30 0 empty empty sig 6 14 1 14 -260097 -1 -1 0 1
;
#X obj 1402 255 s~ C;
#X msg 1121 -33 0;
#X obj 1277 120 vline~;
#X obj 1118 -237 + 1;
#X obj 1080 -210 mod 1;
#X floatatom 885 948 0 0 0 0 - - -;
#X obj 886 927 *;
#X obj 885 892 t b f;
#X floatatom 1096 1037 0 0 0 0 - - -;
#X obj 1105 944 t b f;
#X obj 1082 634 *~;
#X obj 1096 980 *;
#X obj 1081 695 *~ 1;
#X obj -2653 1228 r lo;
#X msg -2628 1254 0;
#X msg -2596 1254 0.5;
#X obj 937 874 bng 15 250 50 0 empty empty empty 17 7 0 10 -262144
-1 -1;
#X obj 1042 1043 delay;
#X obj 1047 1087 pack f f;
#X obj 785 1077 pack f f;
#X obj 1047 923 * 1;
#X obj 1029 881 t b f;
#X obj 784 1026 delay;
#X floatatom 815 949 0 0 0 0 - - -;
#X obj 816 928 *;
#X obj 780 893 t b f;
#X obj 938 907 f;
#X obj 940 958 sel;
#X floatatom 829 849 0 0 0 1 - - -;
#X obj 1105 891 - 1;
#X obj 1105 919 * -1;
#X obj 1088 578 *~;
#X floatatom 1046 944 0 0 0 0 - - -;
#X msg 788 1129 1;
#X obj 941 982 bng 15 250 50 0 empty empty empty 17 7 0 10 -262144
-1 -1;
#X obj 934 824 metro 44;
#X obj -2630 1182 r fll1;
#X text -2573 1135 "a;
#X obj -2717 1181 r fll0;
#X obj -2718 1141 r fll0;
#X obj -2631 1142 r fll1;
#X obj -277 637 hsl 80 20 0 1 0 0 empty empty cut 12 12 0 10 -262144
-1 -1 0 1;
#X obj -11 292 spigot-toggle_orange;
#X obj -11 269 spigot-toggle_vert;
#X obj -11 245 spigot-toggle_red;
#X obj -14 348 * 1;
#X obj -190 637 hsl 80 20 0 1 0 0 empty empty empty -2 -8 0 10 -262144
-1 -1 7900 1;
#X obj -45 293 spigot-toggle_orange;
#X obj -45 269 spigot-toggle_vert;
#X obj -46 245 spigot-toggle_red;
#X obj -45 346 * 1;
#X obj 782 1051 f;
#X floatatom 750 1074 0 0 0 0 - - -;
#X obj 791 1106 r lo;
#X floatatom 302 1000 0 0 0 2 phase - -;
#X obj 206 477 r lo;
#X obj 1135 761 dj-eq;
#X obj -51 444 spigot-toggle_orange;
#X obj -51 420 spigot-toggle_vert;
#X obj -51 396 spigot-toggle_red;
#X obj -55 497 * 1;
#X obj -16 444 spigot-toggle_orange;
#X obj -16 420 spigot-toggle_vert;
#X obj -16 396 spigot-toggle_red;
#X obj -19 497 * 1;
#X obj 1082 667 *~ 1;
#X msg -192 319 0.5;
#X obj -15 636 r fll1;
#X obj -17 610 r fll0;
#X obj -51 466 spigot-toggle_orange;
#X obj -11 316 spigot-toggle_orange;
#X obj -16 466 spigot-toggle_orange;
#X obj -44 315 spigot-toggle_orange;
#X obj 349 590 spigot-toggle_orange;
#X obj 349 566 spigot-toggle_vert;
#X obj 349 542 spigot-toggle_red;
#X obj 454 916 spigot-toggle_orange;
#X obj 454 892 spigot-toggle_vert;
#X obj 454 868 spigot-toggle_red;
#X obj 305 900 spigot-toggle_orange;
#X obj 305 876 spigot-toggle_vert;
#X obj 305 852 spigot-toggle_red;
#X obj 302 953 * 1;
#X obj 454 938 spigot-toggle_orange;
#X obj 348 612 spigot-toggle_orange;
#X obj 345 928 r fll1;
#X obj 343 902 r fll0;
#X obj 306 922 spigot-toggle_orange;
#X obj 334 727 spigot-toggle_orange;
#X obj 334 703 spigot-toggle_vert;
#X obj 334 679 spigot-toggle_red;
#X obj 333 749 spigot-toggle_orange;
#X obj 458 727 spigot-toggle_orange;
#X obj 458 703 spigot-toggle_vert;
#X obj 459 679 spigot-toggle_red;
#X obj 492 731 * 1;
#X obj 457 749 spigot-toggle_orange;
#X obj 364 1158 tgl 17 0 empty empty ø 5 7 2 15 -262144 -1 -1 0 1
;
#X msg 1046 1064 0;
#X obj 416 1137 mod 1;
#X obj 386 1135 sel;
#X msg 387 1158 1;
#X obj 359 1015 mod 1;
#X obj 359 1043 sel;
#X msg 360 1064 1;
#X obj 1110 1133 vline~;
#X obj 968 908 + 1;
#X obj 938 933 mod 1;
#X obj 938 849 spigot-toggle_red;
#X obj 1257 189 vfreeverb~;
#X obj 212 147 hsl 80 15 0 1 0 1 empty empty roomsize' 3 8 0 10 -1
-260097 -260097 1580 0;
#X obj 213 164 hsl 80 15 0 2 0 1 empty empty damp 3 8 0 10 -1 -260097
-260097 1100 0;
#X obj 213 194 hsl 80 15 0 1 0 1 empty empty wet 3 8 0 10 -1 -260097
-260097 6400 0;
#X obj 213 179 hsl 80 15 0 1 0 1 empty empty dry 3 8 0 10 -1 -260097
-260097 7500 0;
#X floatatom -362 428 5 0 0 0 - - -;
#X floatatom -292 428 5 0 0 0 - - -;
#X floatatom -362 278 5 0 0 0 - - -;
#X floatatom -292 278 5 0 0 0 - - -;
#X obj -352 224 ctlin 51;
#X obj -352 374 ctlin 54;
#X obj -360 335 - 1;
#X obj -310 335 * -1;
#X obj -360 505 - 1;
#X obj -310 505 * -1;
#X obj -354 459 / 1.27;
#X obj -308 307 / 1.27;
#X msg -193 202 0;
#X obj -360 305 * 0.005;
#X obj -361 482 * 0.005;
#X obj -346 -15 s lo;
#X floatatom -344 -63 5 0 0 0 - - -;
#X obj 382 41 cnv 15 62 165 empty empty empty 20 12 1 12 -262144 -228856
0;
#X floatatom 382 89 6 0 0 0 - - -;
#X floatatom 382 65 3 0 0 1 xt - -;
#X floatatom 382 41 6 0 0 2 - - -;
#X floatatom 383 184 6 0 0 0 - - -;
#X floatatom 383 160 4 0 0 1 xf - -;
#X floatatom 383 136 6 0 0 2 - - -;
#X obj 385 239 cnv 15 62 180 empty empty empty 20 12 1 12 -262144 -66577
0;
#X floatatom 385 281 6 0 0 0 - - -;
#X floatatom 384 258 4 0 0 1 xt - -;
#X floatatom 385 236 6 0 0 2 - - -;
#X floatatom 386 398 6 0 0 0 - - -;
#X floatatom 386 375 3 0 0 1 xf - -;
#X floatatom 385 352 6 0 0 2 - - -;
#X obj -3 -307 r A;
#X obj -3 -283 r B;
#X obj 93 -276 r B;
#X obj -16 567 r A;
#X obj -16 591 r B;
#X obj 346 859 r A;
#X obj 344 883 r B;
#X obj 17 12 - 1;
#X obj 19 36 * -1;
#X obj 11 172 - 1;
#X obj 13 196 * -1;
#X obj 17 342 - 1;
#X obj 20 373 * -1;
#X obj 11 502 - 1;
#X obj 13 526 * -1;
#X obj -120 396 spigot-toggle_orange;
#X obj -120 372 spigot-toggle_vert;
#X obj -121 348 spigot-toggle_red;
#X obj -120 449 * 1;
#X obj -119 418 spigot-toggle_orange;
#X obj 119 211 tgl 15 0 empty empty C&D -2 22 0 10 -260097 -1 -260097
0 1;
#X obj 929 226 - 1;
#X obj 159 957 * 2;
#X obj 201 957 - 1;
#X obj 302 74 tgl 22 0 empty empty SOLO 0 11 1 8 -260097 -1 -1 0 1
;
#X obj 447 114 tgl 20 0 empty empty ^ 4 15 0 22 -260097 -1 -1 0 1;
#X obj 362 113 tgl 20 0 empty empty v 6 9 1 16 -260097 -1 -1 0 1;
#X floatatom 282 -226 0 0 0 2 phase - -;
#X obj 285 -326 spigot-toggle_orange;
#X obj 285 -350 spigot-toggle_vert;
#X obj 285 -374 spigot-toggle_red;
#X obj 282 -273 * 1;
#X obj 286 -304 spigot-toggle_orange;
#X obj 428 -376 * 2;
#X obj 470 -376 - 1;
#X obj 325 147 tgl 22 0 empty empty phs 2 11 1 12 -260097 -1 -1 1 1
;
#X obj 384 305 cnv 20 63 25 empty empty D 26 12 0 22 -1 -262144 0;
#X obj 968 225 *~ 1;
#X obj 230 45 tgl 20 0 empty empty B 5 10 1 10 -1 -260097 -260097 0
1;
#X obj 209 45 tgl 20 0 empty empty A 5 10 1 10 -1 -260097 -260097 0
1;
#X obj 272 45 tgl 20 0 empty empty b' 5 9 1 10 -1 -260097 -260097 0
1;
#X obj 251 45 tgl 20 0 empty empty a' 5 9 0 10 -1 -260097 -260097 0
1;
#X obj 144 86 tgl 20 0 empty empty B 5 10 1 10 -1 -260097 -260097 0
1;
#X obj 123 86 tgl 20 0 empty empty A 5 10 1 10 -1 -260097 -260097 0
1;
#X obj 186 86 tgl 20 0 empty empty b' 5 9 1 10 -1 -260097 -260097 0
1;
#X obj 165 86 tgl 20 0 empty empty a' 5 9 0 10 -1 -260097 -260097 0
1;
#X obj 230 85 tgl 20 0 empty empty B 5 10 1 10 -1 -260097 -260097 0
1;
#X obj 209 85 tgl 20 0 empty empty A 5 10 1 10 -1 -260097 -260097 0
1;
#X obj 272 85 tgl 20 0 empty empty b' 5 9 1 10 -1 -260097 -260097 0
1;
#X obj 251 85 tgl 20 0 empty empty a' 5 9 0 10 -1 -260097 -260097 0
1;
#X obj 231 127 tgl 20 0 empty empty B 5 10 1 10 -1 -260097 -260097
0 1;
#X obj 209 127 tgl 20 0 empty empty A 5 10 1 10 -1 -260097 -260097
0 1;
#X obj 275 127 tgl 20 0 empty empty b' 5 9 1 10 -1 -260097 -260097
0 1;
#X obj 253 127 tgl 20 0 empty empty a' 5 9 0 10 -1 -260097 -260097
0 1;
#X obj 140 251 tgl 20 0 empty empty B 5 10 1 10 -1 -260097 -260097
0 1;
#X obj 118 251 tgl 20 0 empty empty A 5 10 1 10 -1 -260097 -260097
0 1;
#X obj 121 272 hsl 82 20 0 1 0 0 empty empty cut 12 12 0 10 -1 -260097
-260097 0 1;
#X obj 209 272 hsl 80 20 0 1 0 0 empty empty empty -2 -8 0 10 -1 -260097
-260097 7900 1;
#X obj 121 313 hsl 82 20 0 1 0 0 empty empty fade 12 12 0 10 -1 -260097
-260097 0 1;
#X obj 209 313 hsl 80 20 0 1 0 0 empty empty empty 45 11 1 20 -1 -260097
-1 7900 1;
#X obj 184 251 tgl 20 0 empty empty b' 5 9 1 10 -1 -260097 -260097
0 1;
#X obj 162 251 tgl 20 0 empty empty a' 5 9 0 10 -1 -260097 -260097
0 1;
#X obj 182 355 vsl 20 60 0 1 0 0 empty empty GAIN 3 6 1 6 -1 -260097
-260097 2950 1;
#X obj 148 355 vsl 10 60 0 1 0 0 empty empty empty 12 12 0 10 -1 -260097
-1 2950 1;
#X obj 171 355 vsl 10 60 0 1 0 0 empty empty empty 12 12 0 10 -1 -260097
-1 2950 1;
#X obj 160 355 vsl 10 60 0 1 0 0 empty empty empty 12 12 0 10 -1 -260097
-1 2950 1;
#X obj 117 354 tgl 30 0 empty empty osc 4 14 1 14 -260097 -1 -1 0 1
;
#X obj 117 385 tgl 30 0 empty empty sig 6 14 1 14 -260097 -1 -1 0 1
;
#X obj 209 355 hsl 80 15 0 1 0 1 empty empty roomsize' 3 8 0 10 -1
-260097 -260097 0 0;
#X obj 209 371 hsl 80 15 0 2 0 1 empty empty damp 3 8 0 10 -1 -260097
-260097 4200 0;
#X obj 209 400 hsl 80 15 0 1 0 1 empty empty wet 3 8 0 10 -1 -260097
-260097 0 0;
#X obj 209 386 hsl 80 15 0 1 0 1 empty empty dry 3 8 0 10 -1 -260097
-260097 3600 0;
#X obj 227 251 tgl 20 0 empty empty B 5 10 1 10 -1 -260097 -260097
0 1;
#X obj 205 251 tgl 20 0 empty empty A 5 10 1 10 -1 -260097 -260097
0 1;
#X obj 271 251 tgl 20 0 empty empty b' 5 9 1 10 -1 -260097 -260097
0 1;
#X obj 249 251 tgl 20 0 empty empty a' 5 9 0 10 -1 -260097 -260097
0 1;
#X obj 140 292 tgl 20 0 empty empty B 5 10 1 10 -1 -260097 -260097
0 1;
#X obj 118 292 tgl 20 0 empty empty A 5 10 1 10 -1 -260097 -260097
0 1;
#X obj 184 292 tgl 20 0 empty empty b' 5 9 1 10 -1 -260097 -260097
0 1;
#X obj 162 292 tgl 20 0 empty empty a' 5 9 0 10 -1 -260097 -260097
0 1;
#X obj 227 292 tgl 20 0 empty empty B 5 10 1 10 -1 -260097 -260097
0 1;
#X obj 205 292 tgl 20 0 empty empty A 5 10 1 10 -1 -260097 -260097
0 1;
#X obj 271 292 tgl 20 0 empty empty b' 5 9 1 10 -1 -260097 -260097
0 1;
#X obj 249 292 tgl 20 0 empty empty a' 5 9 0 10 -1 -260097 -260097
0 1;
#X obj 227 333 tgl 20 0 empty empty B 5 10 1 10 -1 -260097 -260097
0 1;
#X obj 205 333 tgl 20 0 empty empty A 5 10 1 10 -1 -260097 -260097
0 1;
#X obj 271 333 tgl 20 0 empty empty b' 5 9 1 10 -1 -260097 -260097
0 1;
#X obj 249 333 tgl 20 0 empty empty a' 5 9 0 10 -1 -260097 -260097
0 1;
#X obj 447 49 tgl 20 0 empty empty B 5 10 1 10 -1 -260097 -260097 0
1;
#X obj 447 28 tgl 20 0 empty empty A 5 10 1 10 -1 -260097 -260097 0
1;
#X obj 447 91 tgl 20 0 empty empty b' 5 9 1 10 -1 -260097 -260097 0
1;
#X obj 447 70 tgl 20 0 empty empty a' 5 9 0 10 -1 -260097 -260097 0
1;
#X obj 361 51 tgl 20 0 empty empty B 5 10 1 10 -1 -260097 -260097 0
1;
#X obj 361 30 tgl 20 0 empty empty A 5 10 1 10 -1 -260097 -260097 0
1;
#X obj 361 92 tgl 20 0 empty empty b' 5 9 1 10 -1 -260097 -260097 0
1;
#X obj 361 72 tgl 20 0 empty empty a' 5 9 0 10 -1 -260097 -260097 0
1;
#X obj 447 155 tgl 20 0 empty empty B 5 10 1 10 -1 -260097 -260097
0 1;
#X obj 447 134 tgl 20 0 empty empty A 5 10 1 10 -1 -260097 -260097
0 1;
#X obj 447 197 tgl 20 0 empty empty b' 5 9 1 10 -1 -260097 -260097
0 1;
#X obj 447 176 tgl 20 0 empty empty a' 5 9 0 10 -1 -260097 -260097
0 1;
#X obj 362 154 tgl 20 0 empty empty B 5 10 1 10 -1 -260097 -260097
0 1;
#X obj 362 133 tgl 20 0 empty empty A 5 10 1 10 -1 -260097 -260097
0 1;
#X obj 362 196 tgl 20 0 empty empty b' 5 9 1 10 -1 -260097 -260097
0 1;
#X obj 362 175 tgl 20 0 empty empty a' 5 9 0 10 -1 -260097 -260097
0 1;
#X obj 313 279 tgl 20 0 empty empty Dsolo 7 10 1 12 -1 -260097 -260097
0 1;
#X obj 302 152 tgl 20 0 empty empty B 5 10 1 10 -1 -260097 -260097
0 1;
#X obj 302 132 tgl 20 0 empty empty A 5 10 1 10 -1 -260097 -260097
0 1;
#X obj 302 192 tgl 20 0 empty empty b' 5 9 1 10 -1 -260097 -260097
0 1;
#X obj 302 172 tgl 20 0 empty empty a' 5 9 0 10 -1 -260097 -260097
0 1;
#X obj 382 112 cnv 12 63 23 empty empty __FREQ__ 2 12 1 12 -1 -260097
0;
#X obj 217 585 cnv 20 63 45 empty empty D 26 15 0 22 -1 -262144 0;
#X obj 384 326 cnv 20 63 25 empty empty FREQ 14 10 1 12 -1 -260097
0;
#X obj 102 18 cnv 20 33 25 empty empty C 1 12 0 40 -1 -260097 0;
#X obj 397 220 cnv 12 20 12 empty empty TIME 4 10 1 12 -1 -260097 0
;
#X obj 448 308 tgl 20 0 empty empty ^ 4 15 0 22 -260097 -1 -1 0 1;
#X obj 361 308 tgl 20 0 empty empty v 6 9 1 16 -260097 -1 -1 1 1;
#X obj 363 240 tgl 20 0 empty empty B 5 10 1 10 -1 -260097 -260097
0 1;
#X obj 363 219 tgl 20 0 empty empty A 5 10 1 10 -1 -260097 -260097
0 1;
#X obj 363 282 tgl 20 0 empty empty b' 5 9 1 10 -1 -260097 -260097
0 1;
#X obj 363 261 tgl 20 0 empty empty a' 5 9 0 10 -1 -260097 -260097
0 1;
#X obj 366 354 tgl 20 0 empty empty B 5 10 1 10 -1 -260097 -260097
0 1;
#X obj 366 333 tgl 20 0 empty empty A 5 10 1 10 -1 -260097 -260097
0 1;
#X obj 366 396 tgl 20 0 empty empty b' 5 9 1 10 -1 -260097 -260097
0 1;
#X obj 366 375 tgl 20 0 empty empty a' 5 9 0 10 -1 -260097 -260097
0 1;
#X obj 448 353 tgl 20 0 empty empty B 5 10 1 10 -1 -260097 -260097
0 1;
#X obj 448 332 tgl 20 0 empty empty A 5 10 1 10 -1 -260097 -260097
0 1;
#X obj 448 395 tgl 20 0 empty empty b' 5 9 1 10 -1 -260097 -260097
0 1;
#X obj 448 374 tgl 20 0 empty empty a' 5 9 0 10 -1 -260097 -260097
0 1;
#X obj 448 238 tgl 20 0 empty empty B 5 10 1 10 -1 -260097 -260097
0 1;
#X obj 448 217 tgl 20 0 empty empty A 5 10 1 10 -1 -260097 -260097
0 1;
#X obj 448 280 tgl 20 0 empty empty b' 5 9 1 10 -1 -260097 -260097
0 1;
#X obj 448 259 tgl 20 0 empty empty a' 5 9 0 10 -1 -260097 -260097
0 1;
#X obj 106 218 cnv 1 360 1 empty empty empty 20 12 0 14 -260097 -66577
0;
#X obj 311 236 tgl 20 0 empty empty ø 4 8 0 22 -1 -260097 -260097
0 1;
#X obj 311 301 tgl 40 0 empty empty phs 10 18 1 14 -1 -260097 -260097
1 1;
#X obj 332 236 tgl 20 0 empty empty ø 4 8 0 22 -1 -260097 -260097
0 1;
#X obj 332 260 tgl 20 0 empty empty B 6 10 1 12 -1 -260097 -260097
0 1;
#X obj 311 260 tgl 20 0 empty empty A 6 10 1 12 -1 -260097 -260097
0 1;
#X obj 337 385 tgl 20 0 empty empty B 5 10 1 10 -1 -260097 -260097
0 1;
#X obj 304 385 tgl 20 0 empty empty A 5 10 1 10 -1 -260097 -260097
0 1;
#X obj 338 406 tgl 20 0 empty empty b' 5 9 1 10 -1 -260097 -260097
0 1;
#X obj 303 406 tgl 20 0 empty empty a' 5 9 0 10 -1 -260097 -260097
0 1;
#X obj 326 171 cnv 12 20 20 empty empty empty 20 12 1 12 -260097 -66577
0;
#X obj 305 353 cnv 12 50 22 empty empty empty 20 12 1 12 -260097 -66577
0;
#X floatatom 305 352 5 0 0 0 - - -;
#X floatatom 325 170 3 0 0 0 - - -;
#X msg 135 -51 1, f 2;
#X obj 590 219 s timefreq;
#X obj 1376 698 r A;
#X obj 1376 728 r T$;
#X obj 1376 761 r gateinA;
#X obj 1375 789 r gateoutA;
#X obj 1376 819 r trigA;
#X obj 358 -341 * 1;
#X obj 840 -67 r trgrA;
#X obj 360 -177 * 1;
#X obj 433 -181 * 1;
#X obj 388 584 * 1;
#X obj 356 747 * 1;
#X obj 530 885 * 1;
#X obj 91 -302 r A;
#X obj 744 -202 r BB;
#X obj 922 -186 spigot-toggle_red;
#X obj 1082 -130 bng 15 250 50 0 empty empty empty 17 7 0 10 -262144
-1 -1;
#X obj 332 29 tgl 22 0 empty empty A 7 10 1 12 -1 -260097 -260097 0
1;
#X obj 301 29 tgl 22 0 empty empty A 7 10 1 12 -1 -260097 -260097 0
1;
#X obj 922 -35 spigot-toggle_red;
#X obj 922 -162 spigot-toggle_red;
#X obj 332 51 tgl 22 0 empty empty B 7 10 1 12 -1 -260097 -260097 0
1;
#X obj 301 51 tgl 22 0 empty empty B 7 10 1 12 -1 -260097 -260097 0
1;
#X obj 745 -175 r BBB;
#X obj 840 -40 r trgrB;
#X obj 922 -138 spigot-toggle_red;
#X obj 333 73 tgl 22 0 empty empty a' 6 10 1 12 -1 -260097 -260097
0 1;
#X obj 922 -114 spigot-toggle_red;
#X obj 333 95 tgl 22 0 empty empty b' 6 10 1 12 -1 -260097 -260097
0 1;
#X obj 742 -116 r bonkAouBtoenvB;
#X obj 745 -148 r bonkAouBtoenvA;
#X obj 967 -102 sel;
#X obj 330 -47 sel;
#X obj 1094 123 delay;
#X msg 1097 157 1;
#X obj 1141 91 * 1;
#X msg 172 -51 20, f 2;
#X obj 942 192 *~;
#X obj 891 226 * 1;
#X connect 1 0 17 1;
#X connect 2 0 1 0;
#X connect 3 0 2 0;
#X connect 3 1 2 1;
#X connect 4 0 16 1;
#X connect 5 0 8 0;
#X connect 5 1 8 1;
#X connect 6 0 454 0;
#X connect 7 0 234 0;
#X connect 8 0 4 0;
#X connect 9 0 71 0;
#X connect 10 0 27 0;
#X connect 11 0 12 0;
#X connect 11 0 13 0;
#X connect 14 0 25 0;
#X connect 15 0 126 0;
#X connect 16 0 127 0;
#X connect 17 0 127 0;
#X connect 18 0 38 0;
#X connect 19 0 18 0;
#X connect 19 1 18 1;
#X connect 21 0 63 0;
#X connect 22 0 21 1;
#X connect 23 0 22 0;
#X connect 24 0 23 0;
#X connect 24 1 23 1;
#X connect 25 0 128 0;
#X connect 25 0 129 0;
#X connect 26 0 433 0;
#X connect 27 0 307 0;
#X connect 28 0 29 0;
#X connect 28 0 33 0;
#X connect 29 0 41 0;
#X connect 30 0 70 0;
#X connect 31 0 42 1;
#X connect 31 0 8 0;
#X connect 31 0 18 0;
#X connect 31 0 2 0;
#X connect 31 0 23 0;
#X connect 32 0 35 0;
#X connect 33 0 34 0;
#X connect 34 0 32 0;
#X connect 35 0 259 0;
#X connect 36 0 37 0;
#X connect 37 0 5 0;
#X connect 38 0 15 1;
#X connect 39 0 64 0;
#X connect 40 0 15 0;
#X connect 40 0 21 0;
#X connect 40 0 28 0;
#X connect 41 0 30 0;
#X connect 42 0 14 0;
#X connect 48 0 58 1;
#X connect 49 0 59 1;
#X connect 50 0 24 0;
#X connect 51 0 54 0;
#X connect 52 0 54 0;
#X connect 53 0 54 0;
#X connect 54 0 277 0;
#X connect 55 0 19 0;
#X connect 56 0 3 0;
#X connect 57 0 60 0;
#X connect 58 0 60 0;
#X connect 59 0 60 0;
#X connect 60 0 50 0;
#X connect 61 0 36 0;
#X connect 62 0 66 0;
#X connect 62 1 66 1;
#X connect 63 0 17 0;
#X connect 64 0 63 1;
#X connect 65 0 39 0;
#X connect 65 0 126 0;
#X connect 66 0 257 0;
#X connect 67 0 68 0;
#X connect 67 1 68 1;
#X connect 68 0 260 0;
#X connect 69 0 55 0;
#X connect 69 0 61 0;
#X connect 69 0 296 0;
#X connect 69 0 305 0;
#X connect 69 0 404 0;
#X connect 69 0 416 0;
#X connect 69 0 453 0;
#X connect 70 0 262 0;
#X connect 71 0 20 0;
#X connect 71 0 20 1;
#X connect 71 0 125 0;
#X connect 72 0 73 0;
#X connect 73 0 259 0;
#X connect 74 0 259 0;
#X connect 75 0 74 0;
#X connect 76 0 79 0;
#X connect 77 0 79 0;
#X connect 78 0 79 0;
#X connect 79 0 56 0;
#X connect 80 0 83 0;
#X connect 81 0 83 0;
#X connect 82 0 83 0;
#X connect 83 0 279 0;
#X connect 84 0 64 0;
#X connect 85 0 120 0;
#X connect 85 0 122 0;
#X connect 85 0 121 0;
#X connect 86 0 93 1;
#X connect 87 0 57 1;
#X connect 88 0 93 0;
#X connect 88 0 91 0;
#X connect 88 0 90 0;
#X connect 88 0 92 0;
#X connect 89 0 57 0;
#X connect 89 0 51 0;
#X connect 89 0 76 0;
#X connect 89 0 80 0;
#X connect 90 0 79 0;
#X connect 91 0 54 0;
#X connect 92 0 83 0;
#X connect 93 0 60 0;
#X connect 94 0 85 0;
#X connect 94 0 251 0;
#X connect 94 0 191 0;
#X connect 95 0 425 0;
#X connect 96 0 425 0;
#X connect 97 0 425 0;
#X connect 98 0 426 0;
#X connect 99 0 426 0;
#X connect 100 0 426 0;
#X connect 101 0 104 0;
#X connect 102 0 104 0;
#X connect 103 0 104 0;
#X connect 104 0 235 0;
#X connect 105 0 426 0;
#X connect 106 0 425 0;
#X connect 107 0 106 0;
#X connect 107 0 105 0;
#X connect 107 0 109 0;
#X connect 107 0 118 0;
#X connect 107 0 113 0;
#X connect 107 0 302 0;
#X connect 108 0 95 0;
#X connect 108 0 98 0;
#X connect 108 0 101 0;
#X connect 108 0 114 0;
#X connect 108 0 110 0;
#X connect 108 0 298 0;
#X connect 109 0 104 0;
#X connect 110 0 423 0;
#X connect 111 0 423 0;
#X connect 112 0 423 0;
#X connect 113 0 423 0;
#X connect 114 0 117 0;
#X connect 115 0 117 0;
#X connect 116 0 117 0;
#X connect 117 0 258 0;
#X connect 118 0 117 0;
#X connect 119 0 9 1;
#X connect 120 0 71 1;
#X connect 121 0 71 3;
#X connect 122 0 71 2;
#X connect 123 0 27 1;
#X connect 124 0 454 1;
#X connect 126 0 16 0;
#X connect 127 0 7 1;
#X connect 128 0 25 1;
#X connect 129 0 26 0;
#X connect 130 0 144 1;
#X connect 131 0 130 0;
#X connect 132 0 131 0;
#X connect 132 1 131 1;
#X connect 133 0 143 1;
#X connect 134 0 136 0;
#X connect 134 1 136 1;
#X connect 135 0 190 0;
#X connect 136 0 133 0;
#X connect 137 0 181 0;
#X connect 138 0 139 0;
#X connect 138 0 140 0;
#X connect 141 0 151 0;
#X connect 142 0 223 0;
#X connect 143 0 230 0;
#X connect 144 0 230 0;
#X connect 145 0 157 0;
#X connect 146 0 145 0;
#X connect 146 1 145 1;
#X connect 147 0 176 0;
#X connect 148 0 147 1;
#X connect 149 0 148 0;
#X connect 150 0 149 0;
#X connect 150 1 149 1;
#X connect 151 0 231 0;
#X connect 151 0 232 0;
#X connect 152 0 159 0;
#X connect 153 0 160 1;
#X connect 153 0 136 0;
#X connect 153 0 145 0;
#X connect 153 0 131 0;
#X connect 153 0 149 0;
#X connect 154 0 155 0;
#X connect 155 0 134 0;
#X connect 156 0 135 0;
#X connect 157 0 142 1;
#X connect 158 0 177 0;
#X connect 159 0 142 0;
#X connect 159 0 147 0;
#X connect 160 0 233 0;
#X connect 166 0 150 0;
#X connect 167 0 170 0;
#X connect 168 0 170 0;
#X connect 169 0 170 0;
#X connect 170 0 281 0;
#X connect 171 0 146 0;
#X connect 172 0 175 0;
#X connect 173 0 175 0;
#X connect 174 0 175 0;
#X connect 175 0 166 0;
#X connect 175 0 326 0;
#X connect 176 0 144 0;
#X connect 177 0 176 1;
#X connect 178 0 158 0;
#X connect 178 0 223 0;
#X connect 179 0 414 0;
#X connect 180 0 171 0;
#X connect 180 0 327 0;
#X connect 180 0 329 0;
#X connect 180 0 385 0;
#X connect 180 0 404 0;
#X connect 182 0 185 0;
#X connect 183 0 185 0;
#X connect 184 0 185 0;
#X connect 185 0 328 0;
#X connect 186 0 189 0;
#X connect 187 0 189 0;
#X connect 188 0 189 0;
#X connect 189 0 283 0;
#X connect 190 0 137 0;
#X connect 191 0 333 0;
#X connect 191 0 335 0;
#X connect 191 0 334 0;
#X connect 191 0 332 0;
#X connect 192 0 197 0;
#X connect 192 0 195 0;
#X connect 192 0 194 0;
#X connect 192 0 196 0;
#X connect 192 0 289 0;
#X connect 193 0 172 0;
#X connect 193 0 167 0;
#X connect 193 0 182 0;
#X connect 193 0 186 0;
#X connect 193 0 285 0;
#X connect 194 0 185 0;
#X connect 195 0 170 0;
#X connect 196 0 189 0;
#X connect 197 0 175 0;
#X connect 198 0 427 0;
#X connect 199 0 427 0;
#X connect 200 0 427 0;
#X connect 201 0 429 0;
#X connect 202 0 429 0;
#X connect 203 0 429 0;
#X connect 204 0 207 0;
#X connect 205 0 207 0;
#X connect 206 0 207 0;
#X connect 207 0 179 0;
#X connect 208 0 429 0;
#X connect 209 0 427 0;
#X connect 210 0 209 0;
#X connect 210 0 208 0;
#X connect 210 0 212 0;
#X connect 210 0 221 0;
#X connect 210 0 216 0;
#X connect 211 0 198 0;
#X connect 211 0 201 0;
#X connect 211 0 204 0;
#X connect 211 0 217 0;
#X connect 211 0 213 0;
#X connect 212 0 207 0;
#X connect 213 0 428 0;
#X connect 214 0 428 0;
#X connect 215 0 428 0;
#X connect 216 0 428 0;
#X connect 217 0 220 0;
#X connect 218 0 220 0;
#X connect 219 0 220 0;
#X connect 220 0 265 0;
#X connect 221 0 220 0;
#X connect 222 0 227 0;
#X connect 223 0 143 0;
#X connect 224 0 225 0;
#X connect 225 0 226 0;
#X connect 226 0 222 0;
#X connect 226 0 233 1;
#X connect 227 0 228 0;
#X connect 228 0 229 0;
#X connect 229 0 144 0;
#X connect 230 0 135 1;
#X connect 231 0 151 1;
#X connect 232 0 152 0;
#X connect 233 0 141 0;
#X connect 234 0 9 0;
#X connect 235 0 234 1;
#X connect 236 0 234 2;
#X connect 237 0 234 4;
#X connect 238 0 234 3;
#X connect 239 0 249 0;
#X connect 241 0 250 0;
#X connect 243 0 241 0;
#X connect 243 1 242 0;
#X connect 244 0 239 0;
#X connect 244 1 240 0;
#X connect 245 0 246 0;
#X connect 246 0 119 0;
#X connect 247 0 248 0;
#X connect 248 0 332 0;
#X connect 249 0 253 0;
#X connect 250 0 252 0;
#X connect 251 0 119 0;
#X connect 251 0 235 0;
#X connect 251 0 237 0;
#X connect 251 0 338 0;
#X connect 251 0 340 0;
#X connect 252 0 245 0;
#X connect 253 0 247 0;
#X connect 255 0 50 0;
#X connect 257 0 31 0;
#X connect 257 0 29 1;
#X connect 257 0 417 0;
#X connect 258 0 62 0;
#X connect 259 0 66 0;
#X connect 259 0 452 0;
#X connect 260 0 33 1;
#X connect 260 0 10 0;
#X connect 260 0 6 0;
#X connect 261 0 67 0;
#X connect 262 0 68 0;
#X connect 264 0 153 0;
#X connect 270 0 59 0;
#X connect 270 0 53 0;
#X connect 270 0 78 0;
#X connect 270 0 82 0;
#X connect 271 0 58 0;
#X connect 271 0 52 0;
#X connect 271 0 77 0;
#X connect 271 0 81 0;
#X connect 272 0 96 0;
#X connect 272 0 99 0;
#X connect 272 0 102 0;
#X connect 272 0 115 0;
#X connect 272 0 299 0;
#X connect 272 0 111 0;
#X connect 273 0 174 0;
#X connect 273 0 169 0;
#X connect 273 0 184 0;
#X connect 273 0 188 0;
#X connect 273 0 287 0;
#X connect 274 0 173 0;
#X connect 274 0 168 0;
#X connect 274 0 183 0;
#X connect 274 0 187 0;
#X connect 274 0 286 0;
#X connect 275 0 200 0;
#X connect 275 0 203 0;
#X connect 275 0 206 0;
#X connect 275 0 219 0;
#X connect 275 0 215 0;
#X connect 276 0 199 0;
#X connect 276 0 202 0;
#X connect 276 0 205 0;
#X connect 276 0 218 0;
#X connect 276 0 214 0;
#X connect 277 0 278 0;
#X connect 278 0 55 0;
#X connect 279 0 280 0;
#X connect 280 0 61 0;
#X connect 281 0 282 0;
#X connect 282 0 171 0;
#X connect 282 0 327 0;
#X connect 283 0 284 0;
#X connect 284 0 329 0;
#X connect 285 0 288 0;
#X connect 286 0 288 0;
#X connect 287 0 288 0;
#X connect 288 0 338 0;
#X connect 289 0 288 0;
#X connect 290 0 294 0;
#X connect 290 0 374 0;
#X connect 291 0 307 1;
#X connect 292 0 293 0;
#X connect 293 0 414 0;
#X connect 294 0 42 0;
#X connect 294 0 449 0;
#X connect 295 0 35 1;
#X connect 296 0 70 1;
#X connect 297 0 415 0;
#X connect 298 0 301 0;
#X connect 299 0 301 0;
#X connect 300 0 301 0;
#X connect 301 0 297 0;
#X connect 302 0 301 0;
#X connect 303 0 304 0;
#X connect 304 0 415 0;
#X connect 305 0 303 0;
#X connect 305 0 455 0;
#X connect 307 0 7 0;
#X connect 308 0 52 1;
#X connect 309 0 53 1;
#X connect 310 0 91 1;
#X connect 311 0 51 1;
#X connect 312 0 77 1;
#X connect 313 0 78 1;
#X connect 314 0 90 1;
#X connect 315 0 76 1;
#X connect 316 0 81 1;
#X connect 317 0 82 1;
#X connect 318 0 92 1;
#X connect 319 0 80 1;
#X connect 320 0 102 1;
#X connect 321 0 103 1;
#X connect 322 0 109 1;
#X connect 323 0 101 1;
#X connect 324 0 173 1;
#X connect 325 0 174 1;
#X connect 326 0 150 0;
#X connect 327 0 146 0;
#X connect 328 0 132 0;
#X connect 329 0 154 0;
#X connect 330 0 197 1;
#X connect 331 0 172 1;
#X connect 332 0 137 1;
#X connect 333 0 181 1;
#X connect 334 0 181 3;
#X connect 335 0 181 2;
#X connect 342 0 168 1;
#X connect 343 0 169 1;
#X connect 344 0 195 1;
#X connect 345 0 167 1;
#X connect 346 0 183 1;
#X connect 347 0 184 1;
#X connect 348 0 194 1;
#X connect 349 0 182 1;
#X connect 350 0 187 1;
#X connect 351 0 188 1;
#X connect 352 0 196 1;
#X connect 353 0 186 1;
#X connect 354 0 286 1;
#X connect 355 0 287 1;
#X connect 356 0 289 1;
#X connect 357 0 285 1;
#X connect 358 0 115 1;
#X connect 359 0 116 1;
#X connect 360 0 118 1;
#X connect 361 0 114 1;
#X connect 362 0 111 1;
#X connect 363 0 112 1;
#X connect 364 0 113 1;
#X connect 365 0 110 1;
#X connect 366 0 99 1;
#X connect 367 0 100 1;
#X connect 368 0 105 1;
#X connect 369 0 98 1;
#X connect 370 0 96 1;
#X connect 371 0 97 1;
#X connect 372 0 106 1;
#X connect 373 0 95 1;
#X connect 374 0 160 0;
#X connect 374 0 222 0;
#X connect 375 0 299 1;
#X connect 376 0 300 1;
#X connect 377 0 302 1;
#X connect 378 0 298 1;
#X connect 386 0 214 1;
#X connect 387 0 215 1;
#X connect 388 0 216 1;
#X connect 389 0 213 1;
#X connect 390 0 199 1;
#X connect 391 0 200 1;
#X connect 392 0 209 1;
#X connect 393 0 198 1;
#X connect 394 0 202 1;
#X connect 395 0 203 1;
#X connect 396 0 208 1;
#X connect 397 0 201 1;
#X connect 398 0 218 1;
#X connect 399 0 219 1;
#X connect 400 0 221 1;
#X connect 401 0 217 1;
#X connect 403 0 224 0;
#X connect 403 0 233 1;
#X connect 404 0 156 1;
#X connect 404 0 292 0;
#X connect 405 0 224 0;
#X connect 405 0 233 1;
#X connect 406 0 405 0;
#X connect 406 0 224 0;
#X connect 407 0 403 0;
#X connect 407 0 224 0;
#X connect 408 0 205 1;
#X connect 409 0 206 1;
#X connect 410 0 212 1;
#X connect 411 0 204 1;
#X connect 414 0 156 1;
#X connect 415 0 307 1;
#X connect 416 0 258 0;
#X connect 416 0 261 0;
#X connect 416 0 265 0;
#X connect 416 0 268 0;
#X connect 423 0 259 0;
#X connect 424 0 84 0;
#X connect 425 0 262 0;
#X connect 426 0 261 0;
#X connect 427 0 269 0;
#X connect 428 0 266 0;
#X connect 429 0 268 0;
#X connect 430 0 97 0;
#X connect 430 0 100 0;
#X connect 430 0 103 0;
#X connect 430 0 116 0;
#X connect 430 0 300 0;
#X connect 430 0 112 0;
#X connect 431 0 432 0;
#X connect 432 0 433 0;
#X connect 433 0 40 0;
#X connect 434 0 432 1;
#X connect 434 0 73 1;
#X connect 434 0 449 0;
#X connect 435 0 84 1;
#X connect 435 0 448 0;
#X connect 435 0 434 0;
#X connect 435 0 449 0;
#X connect 436 0 64 0;
#X connect 437 0 433 0;
#X connect 438 0 437 1;
#X connect 438 0 74 1;
#X connect 438 0 449 0;
#X connect 439 0 436 1;
#X connect 439 0 448 0;
#X connect 439 0 438 0;
#X connect 439 0 449 0;
#X connect 440 0 437 0;
#X connect 441 0 436 0;
#X connect 442 0 433 0;
#X connect 443 0 442 1;
#X connect 443 0 449 0;
#X connect 444 0 433 0;
#X connect 445 0 444 1;
#X connect 445 0 449 0;
#X connect 446 0 444 0;
#X connect 447 0 442 0;
#X connect 448 0 39 0;
#X connect 449 0 450 0;
#X connect 450 0 451 0;
#X connect 451 0 16 0;
#X connect 452 0 450 1;
#X connect 453 0 259 0;
#X connect 454 0 307 0;
#X connect 455 0 291 0;
#X coords 0 -1 1 1 386 417 2 100 10;
