#N canvas 1920 45 1680 917 16;
#X floatatom -332 -316 0 0 0 0 - - -;
#X obj -332 -351 *;
#X obj -339 -391 t b f;
#X floatatom -3 -316 0 0 0 0 - - -;
#X obj -6 -391 t b f;
#X obj -4 -351 *;
#X obj -4063 161 r lo;
#X msg -4038 187 0;
#X msg -4006 187 0.5;
#X obj -237 -352 bng 22 250 50 0 empty empty empty 17 7 0 10 -262144
-1 -1;
#X obj -79 -46 delay;
#X obj -74 13 pack f f;
#X obj -447 7 pack f f;
#X obj -60 -351 * 1;
#X obj -72 -391 t b f;
#X obj -279 511 dac~;
#X obj -449 -53 delay;
#X floatatom -422 -316 0 0 0 0 - - -;
#X obj -422 -351 *;
#X obj -429 -391 t b f;
#X msg 940 34 1, f 2;
#X obj 883 80 /;
#X floatatom 883 148 0 0 0 0 F - -;
#X floatatom -171 -461 0 0 0 1 - - -;
#X floatatom 973 150 0 0 0 0 T - -;
#X obj 974 82 /;
#X obj 973 114 * 1000;
#X obj 974 184 spigot-toggle_vert;
#X obj -3 -463 - 1;
#X obj -3 -435 * -1;
#X floatatom -60 -316 0 0 0 0 - - -;
#X obj -225 -110 bng 15 250 50 0 empty empty empty 17 7 0 10 -262144
-1 -1;
#X obj 883 112 * 1000;
#X obj -236 -393 metro 44;
#X obj -4040 115 r fll1;
#X text -3983 68 "a;
#X obj -4127 114 r fll0;
#X obj -4128 74 r fll0;
#X obj -4041 75 r fll1;
#X obj 964 545 spigot-toggle_orange;
#X obj 964 521 spigot-toggle_vert;
#X obj 964 497 spigot-toggle_red;
#X obj 964 590 * 1;
#X obj 924 545 spigot-toggle_orange;
#X obj 924 521 spigot-toggle_vert;
#X obj 923 497 spigot-toggle_red;
#X obj 924 590 * 1;
#X obj 805 47 t b f;
#X floatatom -468 195 0 0 0 0 - - -;
#X obj 807 82 * 1;
#X obj 795 161 t b f;
#X obj 797 193 * 1;
#X obj 111 348 r lo;
#X obj 883 183 spigot-toggle_vert;
#X obj -243 417 dj-eq;
#X obj 218 -289 r T$;
#X obj 199 -284 spigot-toggle_red;
#X obj 199 -255 spigot-toggle_red;
#X obj 218 -258 r T1;
#X obj 1008 545 spigot-toggle_orange;
#X obj 1008 521 spigot-toggle_vert;
#X obj 1008 497 spigot-toggle_red;
#X obj 1004 590 * 1;
#X obj 1049 545 spigot-toggle_orange;
#X obj 1049 521 spigot-toggle_vert;
#X obj 1049 497 spigot-toggle_red;
#X obj 1046 590 * 1;
#X obj -492 174 spigot-toggle_red;
#X obj 1008 567 spigot-toggle_orange;
#X obj 964 567 spigot-toggle_orange;
#X obj 1049 567 spigot-toggle_orange;
#X obj 925 567 spigot-toggle_orange;
#X obj 424 -267 r lo;
#X obj 779 545 spigot-toggle_orange;
#X obj 779 521 spigot-toggle_vert;
#X obj 779 497 spigot-toggle_red;
#X obj 827 545 spigot-toggle_orange;
#X obj 827 521 spigot-toggle_vert;
#X obj 827 497 spigot-toggle_red;
#X obj 698 545 spigot-toggle_orange;
#X obj 698 521 spigot-toggle_vert;
#X obj 698 497 spigot-toggle_red;
#X obj 695 590 * 1;
#X obj 827 567 spigot-toggle_orange;
#X obj 779 567 spigot-toggle_orange;
#X obj 551 546 r fll1;
#X obj 549 520 r fll0;
#X obj 699 567 spigot-toggle_orange;
#X obj 659 545 spigot-toggle_orange;
#X obj 659 521 spigot-toggle_vert;
#X obj 659 497 spigot-toggle_red;
#X obj 659 567 spigot-toggle_orange;
#X obj 873 545 spigot-toggle_orange;
#X obj 874 521 spigot-toggle_vert;
#X obj 874 498 spigot-toggle_red;
#X obj 874 590 * 1;
#X obj 873 567 spigot-toggle_orange;
#X obj 443 76 vsl 25 70 0 1.25 0 0 empty empty GAIN 5 6 1 6 -260097
-1 -1 0 1;
#X obj 380 76 vsl 20 70 0 1.25 0 0 empty empty empty 12 12 0 10 -260097
-1 -1 4140 1;
#X obj 422 76 vsl 20 70 0 1.25 0 0 empty empty empty 12 12 0 10 -260097
-1 -1 4140 1;
#X obj 401 76 vsl 20 70 0 1.25 0 0 empty empty empty 12 12 0 10 -260097
-1 -1 4140 1;
#X obj 101 88 tgl 30 0 empty empty A 12 16 1 14 -260097 -1 -1 0 1;
#X obj 132 150 tgl 30 0 empty empty solo 3 14 1 14 -260097 -1 -1 0
1;
#X obj -232 459 s~ C;
#X msg -76 -16 0;
#X obj -212 130 vline~;
#X obj -4063 1161 r lo;
#X msg -4038 1187 0;
#X msg -4006 1187 0.5;
#X obj -4040 1115 r fll1;
#X text -3983 1068 "a;
#X obj -4127 1114 r fll0;
#X obj -4128 1074 r fll0;
#X obj -4041 1075 r fll1;
#X obj -248 309 vfreeverb~;
#X obj 384 11 hsl 80 15 0 1 0 1 empty empty roomsize' 3 8 0 10 -260097
-1 -1 0 0;
#X obj 383 26 hsl 80 15 0 2 0 1 empty empty damp 3 8 0 10 -1 -260097
-260097 4500 0;
#X obj 383 42 hsl 80 15 0 1 0 1 empty empty wet 3 8 0 10 -1 -260097
-260097 0 0;
#X obj 383 58 hsl 80 15 0 1 0 1 empty empty dry 3 8 0 10 -1 -260097
-260097 7600 0;
#X msg 419 -238 0;
#X obj 219 314 cnv 15 62 165 empty empty empty 20 12 1 12 -262144 -228856
0;
#X floatatom 185 220 6 0 0 0 - - -;
#X floatatom 185 196 3 0 0 1 xt - -;
#X floatatom 186 173 6 0 0 2 - - -;
#X floatatom 401 220 6 0 0 0 - - -;
#X floatatom 401 197 3 0 0 1 xf - -;
#X floatatom 401 173 6 0 0 2 - - -;
#X obj 549 495 r B;
#X obj 963 624 - 1;
#X obj 962 655 * -1;
#X obj 1045 624 - 1;
#X obj 1043 655 * -1;
#X floatatom 373 537 0 0 0 2 phase - -;
#X obj 738 545 spigot-toggle_orange;
#X obj 738 521 spigot-toggle_vert;
#X obj 738 497 spigot-toggle_red;
#X obj 739 595 * 1;
#X obj 739 567 spigot-toggle_orange;
#X obj 467 11 tgl 15 0 empty empty A 4 8 1 10 -260097 -1 -1 0 1;
#X obj 341 132 tgl 15 0 empty empty A 4 7 1 10 -260097 -1 -1 0 1;
#X obj 357 176 tgl 22 0 empty empty B 7 10 1 10 -260097 -1 -1 0 1;
#X obj 357 154 tgl 22 0 empty empty A 7 10 1 10 -260097 -1 -1 0 1;
#X obj 357 220 tgl 22 0 empty empty b' 7 9 1 10 -260097 -1 -1 0 1;
#X obj 357 198 tgl 22 0 empty empty a' 7 9 0 10 -260097 -1 -1 0 1;
#X msg 168 347 1, f 2;
#X obj 403 870 r A;
#X obj 403 900 r T$;
#X obj 403 933 r gateinA;
#X obj 402 961 r gateoutA;
#X obj 403 991 r trigA;
#X obj 654 590 * 1;
#X obj -573 166 r trgrA;
#X obj 784 590 * 1;
#X obj 827 590 * 1;
#X obj 548 471 r A;
#X obj -224 -134 bng 15 250 50 0 empty empty empty 17 7 0 10 -262144
-1 -1;
#X obj -491 198 spigot-toggle_red;
#X obj -573 193 r trgrB;
#X obj -492 -169 spigot-toggle_red;
#X obj -492 -145 spigot-toggle_red;
#X obj -672 -147 r bonkAouBtoenvB;
#X obj -669 -179 r bonkAouBtoenvA;
#X msg 200 348 20, f 2;
#X obj -217 512 s~ D;
#X obj 340 570 * -2;
#X obj 291 569 + 1;
#X obj -446 47 s envinC;
#X obj -74 50 s envoutC;
#X obj 841 240 s timeC;
#X obj 918 240 s freqC;
#X obj 123 -463 tgl 15 0 empty empty empty 17 7 0 10 -262144 -1 -1
0 1;
#X obj -211 -353 s BBsynthC;
#X obj 101 119 tgl 30 0 empty empty trigA 1 16 1 14 -260097 -1 -1 0
1;
#N canvas 955 118 500 413 multi_oscillator 0;
#N canvas 412 274 1116 633 sine 0;
#X floatatom 603 58 5 0 0 0 - - -;
#X obj 603 80 sel 0;
#X obj 79 269 osc~;
#X obj 81 32 r \$0-freq1;
#X floatatom 81 54 5 0 0 0 - - -;
#X obj 318 276 osc~;
#X obj 79 418 *~;
#X obj 310 435 *~;
#X obj 510 190 f;
#X msg 945 214 0;
#X obj 945 192 t b;
#X obj 336 363 pack f 50;
#X obj 336 393 line~;
#X obj 98 371 pack f 50;
#X obj 122 400 line~;
#X obj 81 135 pack f f;
#X floatatom 142 100 5 0 0 0 - - -;
#X obj 81 157 line~;
#X obj 80 235 +~;
#X floatatom 320 54 5 0 0 0 - - -;
#X obj 320 136 pack f f;
#X floatatom 373 117 5 0 0 0 - - -;
#X obj 320 158 line~;
#X obj 319 236 +~;
#X obj 621 137 r \$0-balance-send;
#X obj 320 33 r \$0-freq2;
#X obj 79 442 +~;
#X obj 83 502 outlet~;
#X floatatom 621 159 5 0 0 0 - - -;
#X obj 621 178 t b f;
#X obj 141 308 swap 1;
#X obj 141 336 -;
#X obj 603 104 t b b b;
#X obj 337 332 spigot;
#X msg 716 208 1;
#X obj 141 285 spigot;
#X msg 794 209 0;
#X obj 794 184 r \$0-reset-send;
#X obj 142 78 r \$0-glide;
#X obj 373 95 r \$0-glide;
#X obj 110 206 r~ \$0-fm;
#X obj 345 201 r~ \$0-fm;
#X obj 304 496 s~ wave0;
#X obj 603 36 r \$0-wave-send;
#X obj 185 448 *~ 1;
#X obj 204 415 tgl 15 0 empty empty empty 17 7 0 10 -262144 -1 -1 0.75
1;
#X obj 208 378 r 2mfreq;
#X obj 541 538 dac~;
#X connect 0 0 1 0;
#X connect 1 0 32 0;
#X connect 1 1 10 0;
#X connect 2 0 6 0;
#X connect 3 0 4 0;
#X connect 4 0 15 0;
#X connect 5 0 7 0;
#X connect 6 0 26 0;
#X connect 7 0 44 0;
#X connect 8 0 33 0;
#X connect 8 0 35 0;
#X connect 9 0 11 0;
#X connect 9 0 33 1;
#X connect 9 0 35 1;
#X connect 9 0 13 0;
#X connect 10 0 9 0;
#X connect 11 0 12 0;
#X connect 12 0 7 1;
#X connect 13 0 14 0;
#X connect 14 0 6 1;
#X connect 15 0 17 0;
#X connect 16 0 15 1;
#X connect 17 0 18 0;
#X connect 18 0 2 0;
#X connect 19 0 20 0;
#X connect 20 0 22 0;
#X connect 21 0 20 1;
#X connect 22 0 23 0;
#X connect 23 0 5 0;
#X connect 24 0 28 0;
#X connect 25 0 19 0;
#X connect 26 0 42 0;
#X connect 26 0 27 0;
#X connect 28 0 29 0;
#X connect 29 0 8 0;
#X connect 29 1 8 1;
#X connect 30 0 31 0;
#X connect 30 1 31 1;
#X connect 31 0 13 0;
#X connect 32 0 8 0;
#X connect 32 1 34 0;
#X connect 32 2 36 0;
#X connect 33 0 11 0;
#X connect 34 0 33 1;
#X connect 34 0 35 1;
#X connect 35 0 30 0;
#X connect 36 0 5 1;
#X connect 36 0 2 1;
#X connect 37 0 36 0;
#X connect 38 0 16 0;
#X connect 39 0 21 0;
#X connect 40 0 18 1;
#X connect 41 0 23 1;
#X connect 43 0 0 0;
#X connect 44 0 26 1;
#X connect 45 0 44 1;
#X connect 46 0 45 0;
#X restore 86 23 pd sine;
#X obj 85 118 +~;
#N canvas 537 124 1116 554 triangle 0;
#X floatatom 603 58 5 0 0 0 - - -;
#X obj 81 32 r \$0-freq1;
#X obj 603 36 r \$0-wave-send;
#X floatatom 81 80 5 0 0 0 - - -;
#X obj 79 434 *~;
#X obj 319 434 *~;
#X obj 601 218 f;
#X msg 789 136 0;
#X obj 98 344 swap 1;
#X obj 98 366 -;
#X msg 984 134 0;
#X obj 984 112 t b;
#X obj 342 375 pack f 50;
#X obj 341 402 line~;
#X obj 98 387 pack f 50;
#X obj 98 409 line~;
#X obj 81 135 pack f f;
#X floatatom 134 116 5 0 0 0 - - -;
#X obj 81 157 line~;
#X obj 80 235 +~;
#X floatatom 320 55 5 0 0 0 - - -;
#X obj 320 136 pack f f;
#X floatatom 401 99 5 0 0 0 - - -;
#X obj 320 158 line~;
#X obj 319 236 +~;
#X obj 621 135 r \$0-balance-send;
#X obj 320 33 r \$0-freq2;
#X obj 79 465 +~;
#X obj 78 492 outlet~;
#X obj 603 80 sel 1;
#N canvas 406 87 501 366 make-triangle 0;
#X obj 52 20 inlet~;
#X obj 341 42 inlet phase;
#X obj 51 126 phasor~;
#X obj 295 125 phasor~;
#X obj 49 174 -~ 1;
#X obj 49 201 clip~ -1 0;
#X obj 50 148 *~ 2;
#X obj 295 147 *~ -2;
#X obj 294 170 +~ 1;
#X obj 294 195 clip~ -1 0;
#X obj 48 225 *~ 2;
#X obj 294 218 *~ 2;
#X obj 181 307 +~;
#X obj 181 329 outlet~;
#X obj 294 240 +~ 0.5;
#X obj 48 247 +~ 0.5;
#X connect 0 0 2 0;
#X connect 0 0 3 0;
#X connect 1 0 3 1;
#X connect 1 0 2 1;
#X connect 2 0 6 0;
#X connect 3 0 7 0;
#X connect 4 0 5 0;
#X connect 5 0 10 0;
#X connect 6 0 4 0;
#X connect 7 0 8 0;
#X connect 8 0 9 0;
#X connect 9 0 11 0;
#X connect 10 0 15 0;
#X connect 11 0 14 0;
#X connect 12 0 13 0;
#X connect 14 0 12 1;
#X connect 15 0 12 0;
#X restore 81 265 pd make-triangle;
#N canvas 270 393 444 366 make-triangle 0;
#X obj 52 20 inlet~;
#X obj 341 34 inlet phase;
#X obj 51 126 phasor~;
#X obj 295 125 phasor~;
#X obj 49 174 -~ 1;
#X obj 49 201 clip~ -1 0;
#X obj 50 148 *~ 2;
#X obj 295 147 *~ -2;
#X obj 294 170 +~ 1;
#X obj 294 195 clip~ -1 0;
#X obj 48 225 *~ 2;
#X obj 294 218 *~ 2;
#X obj 181 307 +~;
#X obj 181 329 outlet~;
#X obj 294 240 +~ 0.5;
#X obj 48 247 +~ 0.5;
#X connect 0 0 2 0;
#X connect 0 0 3 0;
#X connect 1 0 3 1;
#X connect 1 0 2 1;
#X connect 2 0 6 0;
#X connect 3 0 7 0;
#X connect 4 0 5 0;
#X connect 5 0 10 0;
#X connect 6 0 4 0;
#X connect 7 0 8 0;
#X connect 8 0 9 0;
#X connect 9 0 11 0;
#X connect 10 0 15 0;
#X connect 11 0 14 0;
#X connect 12 0 13 0;
#X connect 14 0 12 1;
#X connect 15 0 12 0;
#X restore 318 262 pd make-triangle;
#X obj 401 77 r \$0-glide;
#X obj 134 93 r \$0-glide;
#X floatatom 621 159 5 0 0 0 - - -;
#X obj 621 178 t b f;
#X obj 603 104 t b b b;
#X obj 98 322 spigot;
#X msg 912 134 1;
#X obj 343 346 spigot;
#X obj 789 108 r \$0-reset-send;
#X obj 111 201 r~ \$0-fm;
#X obj 338 209 r~ \$0-fm;
#X obj 193 487 s~ wave1;
#X obj 185 448 *~;
#X obj 204 415 tgl 15 0 empty empty empty 17 7 0 10 -262144 -1 -1 0.75
1;
#X obj 192 392 r 2mfreq;
#X obj 376 492 dac~;
#X floatatom -320 403 5 0 0 0 - - -;
#X text -468 440 The binary signal operators can be configured to combine
two signals as above \, or \, if you give a numeric argument \, audio
signals are combined with scalars:;
#X connect 0 0 29 0;
#X connect 1 0 3 0;
#X connect 2 0 0 0;
#X connect 3 0 16 0;
#X connect 4 0 27 0;
#X connect 5 0 44 0;
#X connect 5 0 47 1;
#X connect 5 0 47 0;
#X connect 6 0 39 0;
#X connect 6 0 37 0;
#X connect 7 0 30 1;
#X connect 7 0 31 1;
#X connect 8 0 9 0;
#X connect 8 1 9 1;
#X connect 9 0 14 0;
#X connect 10 0 12 0;
#X connect 10 0 37 1;
#X connect 10 0 39 1;
#X connect 10 0 14 0;
#X connect 11 0 10 0;
#X connect 12 0 13 0;
#X connect 13 0 5 1;
#X connect 14 0 15 0;
#X connect 15 0 4 1;
#X connect 16 0 18 0;
#X connect 17 0 16 1;
#X connect 18 0 19 0;
#X connect 19 0 30 0;
#X connect 20 0 21 0;
#X connect 21 0 23 0;
#X connect 22 0 21 1;
#X connect 23 0 24 0;
#X connect 24 0 31 0;
#X connect 25 0 34 0;
#X connect 26 0 20 0;
#X connect 27 0 28 0;
#X connect 27 0 43 0;
#X connect 29 0 36 0;
#X connect 29 1 11 0;
#X connect 30 0 4 0;
#X connect 31 0 5 0;
#X connect 32 0 22 0;
#X connect 33 0 17 0;
#X connect 34 0 35 0;
#X connect 35 0 6 0;
#X connect 35 1 6 1;
#X connect 36 0 6 0;
#X connect 36 1 7 0;
#X connect 36 2 38 0;
#X connect 37 0 8 0;
#X connect 38 0 39 1;
#X connect 38 0 37 1;
#X connect 39 0 12 0;
#X connect 40 0 7 0;
#X connect 41 0 19 1;
#X connect 42 0 24 1;
#X connect 44 0 27 1;
#X connect 45 0 44 1;
#X connect 46 0 45 0;
#X connect 48 0 27 1;
#X restore 150 39 pd triangle;
#X obj 133 337 tabwrite~ \$0-waveform;
#X obj 133 310 metro 100;
#X obj 133 289 tgl 15 0 empty empty empty 17 7 0 10 -262144 -1 -1 1
1;
#X obj 133 259 loadbang;
#X obj 150 100 +~;
#N canvas 564 302 1116 726 pulse 0;
#X floatatom 603 58 5 0 0 0 - - -;
#X obj 81 32 r \$0-freq1;
#X obj 603 36 r \$0-wave-send;
#X floatatom 81 65 5 0 0 0 - - -;
#X obj 78 588 *~;
#X obj 314 588 *~;
#X obj 604 205 f;
#X msg 922 209 0;
#X obj 922 187 t b;
#X obj 330 536 pack f 50;
#X obj 331 563 line~;
#X obj 97 541 pack f 50;
#X obj 97 563 line~;
#X obj 81 135 pack f f;
#X floatatom 134 116 5 0 0 0 - - -;
#X obj 81 157 line~;
#X obj 80 235 +~;
#X floatatom 320 54 5 0 0 0 - - -;
#X obj 320 136 pack f f;
#X floatatom 373 117 5 0 0 0 - - -;
#X obj 320 158 line~;
#X obj 319 236 +~;
#X obj 621 137 r \$0-balance-send;
#X obj 320 33 r \$0-freq2;
#X obj 78 610 +~;
#X obj 77 637 outlet~;
#X floatatom 621 159 5 0 0 0 - - -;
#X obj 621 178 t b f;
#X obj 97 497 swap 1;
#X obj 97 519 -;
#X obj 603 104 t b b b;
#X obj 331 507 spigot;
#X msg 716 208 1;
#X obj 97 474 spigot;
#X msg 794 209 0;
#X obj 603 80 sel 2;
#X obj 79 290 phasor~;
#X obj 317 288 phasor~;
#X obj 78 374 expr~ $v1 > $v2;
#X obj 190 313 pack f 50;
#X obj 190 335 line~;
#X floatatom 190 294 5 0 0 0 - - -;
#X obj 316 375 expr~ $v1 > $v2;
#X obj 431 308 pack f 50;
#X obj 431 330 line~;
#X floatatom 431 289 5 0 0 0 - - -;
#X obj 77 399 *~ 2;
#X obj 77 421 -~ 1;
#X obj 315 398 *~ 2;
#X obj 315 420 -~ 1;
#X obj 794 184 r \$0-reset-send;
#X obj 134 94 r \$0-glide;
#X obj 373 95 r \$0-glide;
#X obj 99 210 r~ \$0-fm;
#X obj 336 211 r~ \$0-fm;
#X obj 431 267 r \$0-pwm;
#X obj 190 272 r \$0-pwm;
#X obj 201 686 s~ wave2;
#X obj 189 617 *~;
#X obj 207 575 tgl 15 0 empty empty empty 17 7 0 10 -262144 -1 -1 0.75
1;
#X obj 195 552 r 2mfreq;
#X connect 0 0 35 0;
#X connect 1 0 3 0;
#X connect 2 0 0 0;
#X connect 3 0 13 0;
#X connect 4 0 24 0;
#X connect 5 0 58 0;
#X connect 6 0 31 0;
#X connect 6 0 33 0;
#X connect 7 0 9 0;
#X connect 7 0 11 0;
#X connect 7 0 31 1;
#X connect 7 0 33 1;
#X connect 8 0 7 0;
#X connect 9 0 10 0;
#X connect 10 0 5 1;
#X connect 11 0 12 0;
#X connect 12 0 4 1;
#X connect 13 0 15 0;
#X connect 14 0 13 1;
#X connect 15 0 16 0;
#X connect 16 0 36 0;
#X connect 17 0 18 0;
#X connect 18 0 20 0;
#X connect 19 0 18 1;
#X connect 20 0 21 0;
#X connect 21 0 37 0;
#X connect 22 0 26 0;
#X connect 23 0 17 0;
#X connect 24 0 25 0;
#X connect 24 0 57 0;
#X connect 26 0 27 0;
#X connect 27 0 6 0;
#X connect 27 1 6 1;
#X connect 28 0 29 0;
#X connect 28 1 29 1;
#X connect 29 0 11 0;
#X connect 30 0 6 0;
#X connect 30 1 32 0;
#X connect 30 2 34 0;
#X connect 31 0 9 0;
#X connect 32 0 31 1;
#X connect 32 0 33 1;
#X connect 33 0 28 0;
#X connect 34 0 36 1;
#X connect 34 0 37 1;
#X connect 35 0 30 0;
#X connect 35 1 8 0;
#X connect 36 0 38 0;
#X connect 37 0 42 0;
#X connect 38 0 46 0;
#X connect 39 0 40 0;
#X connect 40 0 38 1;
#X connect 41 0 39 0;
#X connect 42 0 48 0;
#X connect 43 0 44 0;
#X connect 44 0 42 1;
#X connect 45 0 43 0;
#X connect 46 0 47 0;
#X connect 47 0 4 0;
#X connect 48 0 49 0;
#X connect 49 0 5 0;
#X connect 50 0 34 0;
#X connect 51 0 14 0;
#X connect 52 0 19 0;
#X connect 53 0 16 1;
#X connect 54 0 21 1;
#X connect 55 0 45 0;
#X connect 56 0 41 0;
#X connect 58 0 24 1;
#X connect 59 0 58 1;
#X connect 60 0 59 0;
#X restore 241 26 pd pulse;
#X obj 242 82 +~;
#N canvas 469 121 1116 726 saw 0;
#X floatatom 603 58 5 0 0 0 - - -;
#X obj 81 32 r \$0-freq1;
#X obj 603 36 r \$0-wave-send;
#X floatatom 81 54 5 0 0 0 - - -;
#X obj 81 513 *~;
#X obj 317 513 *~;
#X obj 604 205 f;
#X msg 922 209 0;
#X obj 922 187 t b;
#X obj 334 466 pack f 50;
#X obj 334 488 line~;
#X obj 100 466 pack f 50;
#X obj 100 488 line~;
#X obj 81 135 pack f f;
#X floatatom 134 116 5 0 0 0 - - -;
#X obj 81 157 line~;
#X obj 80 235 +~;
#X floatatom 320 54 5 0 0 0 - - -;
#X obj 320 136 pack f f;
#X floatatom 373 117 5 0 0 0 - - -;
#X obj 320 158 line~;
#X obj 319 236 +~;
#X obj 621 137 r \$0-balance-send;
#X obj 320 33 r \$0-freq2;
#X obj 81 535 +~;
#X obj 80 562 outlet~;
#X floatatom 621 159 5 0 0 0 - - -;
#X obj 621 178 t b f;
#X obj 100 422 swap 1;
#X obj 100 444 -;
#X obj 603 104 t b b b;
#X obj 334 440 spigot;
#X msg 716 208 1;
#X obj 100 399 spigot;
#X msg 794 209 0;
#X obj 79 290 phasor~;
#X obj 317 288 phasor~;
#X obj 80 324 *~ 2;
#X obj 80 346 -~ 1;
#X obj 318 323 *~ 2;
#X obj 318 345 -~ 1;
#X obj 603 80 sel 3;
#X obj 794 184 r \$0-reset-send;
#X obj 373 95 r \$0-glide;
#X obj 134 94 r \$0-glide;
#X obj 98 212 r~ \$0-fm;
#X obj 337 211 r~ \$0-fm;
#X obj 252 635 s~ wave3;
#X obj 180 538 *~;
#X obj 204 415 tgl 15 0 empty empty empty 17 7 0 10 -262144 -1 -1 0.75
1;
#X obj 192 392 r 2mfreq;
#X connect 0 0 41 0;
#X connect 1 0 3 0;
#X connect 2 0 0 0;
#X connect 3 0 13 0;
#X connect 4 0 24 0;
#X connect 5 0 48 0;
#X connect 6 0 31 0;
#X connect 6 0 33 0;
#X connect 7 0 9 0;
#X connect 7 0 11 0;
#X connect 7 0 31 1;
#X connect 7 0 33 1;
#X connect 8 0 7 0;
#X connect 9 0 10 0;
#X connect 10 0 5 1;
#X connect 11 0 12 0;
#X connect 12 0 4 1;
#X connect 13 0 15 0;
#X connect 14 0 13 1;
#X connect 15 0 16 0;
#X connect 16 0 35 0;
#X connect 17 0 18 0;
#X connect 18 0 20 0;
#X connect 19 0 18 1;
#X connect 20 0 21 0;
#X connect 21 0 36 0;
#X connect 22 0 26 0;
#X connect 23 0 17 0;
#X connect 24 0 25 0;
#X connect 24 0 47 0;
#X connect 26 0 27 0;
#X connect 27 0 6 0;
#X connect 27 1 6 1;
#X connect 28 0 29 0;
#X connect 28 1 29 1;
#X connect 29 0 11 0;
#X connect 30 0 6 0;
#X connect 30 1 32 0;
#X connect 30 2 34 0;
#X connect 31 0 9 0;
#X connect 32 0 31 1;
#X connect 32 0 33 1;
#X connect 33 0 28 0;
#X connect 34 0 35 1;
#X connect 34 0 36 1;
#X connect 35 0 37 0;
#X connect 36 0 39 0;
#X connect 37 0 38 0;
#X connect 38 0 4 0;
#X connect 39 0 40 0;
#X connect 40 0 5 0;
#X connect 41 0 30 0;
#X connect 41 1 8 0;
#X connect 42 0 34 0;
#X connect 43 0 19 0;
#X connect 44 0 14 0;
#X connect 45 0 16 1;
#X connect 46 0 21 1;
#X connect 48 0 24 1;
#X connect 49 0 48 1;
#X connect 50 0 49 0;
#X restore 308 27 pd saw;
#X obj 307 64 +~;
#N canvas 564 60 1116 554 noise 0;
#X floatatom 603 58 5 0 0 0 - - -;
#X obj 93 31 r \$0-freq1;
#X obj 603 36 r \$0-wave-send;
#X floatatom 93 53 5 0 0 0 - - -;
#X obj 79 434 *~;
#X obj 319 434 *~;
#X obj 604 205 f;
#X msg 945 214 0;
#X obj 945 192 t b;
#X obj 336 387 pack f 50;
#X obj 336 409 line~;
#X obj 98 387 pack f 50;
#X obj 98 409 line~;
#X obj 93 134 pack f f;
#X floatatom 146 115 5 0 0 0 - - -;
#X obj 93 156 line~;
#X obj 92 234 +~;
#X floatatom 332 53 5 0 0 0 - - -;
#X obj 332 135 pack f f;
#X floatatom 385 116 5 0 0 0 - - -;
#X obj 332 157 line~;
#X obj 331 235 +~;
#X obj 621 137 r \$0-balance-send;
#X obj 332 32 r \$0-freq2;
#X obj 79 456 +~;
#X obj 78 483 outlet~;
#X floatatom 621 159 5 0 0 0 - - -;
#X obj 621 178 t b f;
#X obj 98 343 swap 1;
#X obj 98 365 -;
#X obj 336 361 spigot;
#X msg 716 208 1;
#X obj 98 320 spigot;
#X obj 603 80 sel 4;
#X obj 42 233 noise~;
#X obj 80 283 vcf~;
#X floatatom 121 258 5 0 0 0 - - -;
#X obj 280 234 noise~;
#X obj 318 278 vcf~;
#X floatatom 362 259 5 0 0 0 - - -;
#X obj 603 104 t b b;
#X obj 146 93 r \$0-glide;
#X obj 385 94 r \$0-glide;
#X obj 121 236 r \$0-nf;
#X obj 362 237 r \$0-nf;
#X obj 349 212 r~ \$0-fm;
#X obj 110 211 r~ \$0-fm;
#X obj 205 497 s~ wave4;
#X obj 185 448 *~;
#X obj 204 415 tgl 15 0 empty empty empty 17 7 0 10 -262144 -1 -1 0.75
1;
#X obj 192 392 r 2mfreq;
#X connect 0 0 33 0;
#X connect 1 0 3 0;
#X connect 2 0 0 0;
#X connect 3 0 13 0;
#X connect 4 0 24 0;
#X connect 5 0 48 0;
#X connect 6 0 30 0;
#X connect 6 0 32 0;
#X connect 7 0 9 0;
#X connect 7 0 11 0;
#X connect 7 0 30 1;
#X connect 7 0 32 1;
#X connect 8 0 7 0;
#X connect 9 0 10 0;
#X connect 10 0 5 1;
#X connect 11 0 12 0;
#X connect 12 0 4 1;
#X connect 13 0 15 0;
#X connect 14 0 13 1;
#X connect 15 0 16 0;
#X connect 16 0 35 1;
#X connect 17 0 18 0;
#X connect 18 0 20 0;
#X connect 19 0 18 1;
#X connect 20 0 21 0;
#X connect 21 0 38 1;
#X connect 22 0 26 0;
#X connect 23 0 17 0;
#X connect 24 0 25 0;
#X connect 24 0 47 0;
#X connect 26 0 27 0;
#X connect 27 0 6 0;
#X connect 27 1 6 1;
#X connect 28 0 29 0;
#X connect 28 1 29 1;
#X connect 29 0 11 0;
#X connect 30 0 9 0;
#X connect 31 0 30 1;
#X connect 31 0 32 1;
#X connect 32 0 28 0;
#X connect 33 0 40 0;
#X connect 33 1 8 0;
#X connect 34 0 35 0;
#X connect 35 0 4 0;
#X connect 36 0 35 2;
#X connect 37 0 38 0;
#X connect 38 0 5 0;
#X connect 39 0 38 2;
#X connect 40 0 6 0;
#X connect 40 1 31 0;
#X connect 41 0 14 0;
#X connect 42 0 19 0;
#X connect 43 0 36 0;
#X connect 44 0 39 0;
#X connect 45 0 21 1;
#X connect 46 0 16 1;
#X connect 48 0 24 1;
#X connect 49 0 48 1;
#X connect 50 0 49 0;
#X restore 360 28 pd noise;
#X obj 86 365 s~ \$0-sig;
#X obj -1 315 s~ soundwaves;
#X obj 401 212 r BBsynthC;
#X obj 208 239 inlet;
#X connect 0 0 1 0;
#X connect 1 0 13 0;
#X connect 1 0 14 0;
#X connect 1 0 3 0;
#X connect 2 0 7 0;
#X connect 4 0 3 0;
#X connect 5 0 4 0;
#X connect 6 0 5 0;
#X connect 7 0 1 1;
#X connect 8 0 9 0;
#X connect 9 0 7 1;
#X connect 10 0 11 0;
#X connect 11 0 9 1;
#X connect 12 0 11 1;
#X connect 15 0 3 0;
#X connect 16 0 5 0;
#X restore 124 632 pd multi_oscillator;
#X obj 163 132 vradio 22 1 0 5 \$0-wave-send \$0-wave-recv empty 2
-8 0 10 -260097 -1 -45076 0;
#X obj 163 87 cnv 15 215 44 empty empty empty 20 12 0 14 -4034 -66577
0;
#N canvas 0 50 450 250 (subpatch) 0;
#X array \$0-waveform 100 float 4;
#X coords 0 1.2 99 -1.2 216 44 2 0 0;
#X restore 163 87 graph;
#X obj 268 134 vsl 16 88 0 15000 0 0 \$0-freq1 empty Frq 0 6 0 8 -1
-260097 -260097 0 1;
#X obj -95 289 inlet~ fm1;
#X obj -97 407 outlet~ sig;
#X obj 104 212 hsl 56 15 0 1000 0 0 \$0-glide \$0-glide-recv Glide
1 8 0 12 -260097 -261682 -1 0 1;
#X obj -95 364 r~ \$0-sig;
#X obj -94 324 s~ \$0-fm;
#X obj 324 134 vsl 16 89 0 15000 0 0 \$0-freq2 empty 2 4 6 0 10 -1
-260097 -260097 0 1;
#X obj 104 228 hsl 56 15 0 1 0 0 \$0-balance-send \$0-balance-recv
Balance 1 8 0 12 -260097 -261682 -1 2750 1;
#X msg -631 213 0.5;
#X obj 341 196 bng 15 250 50 0 empty empty = 5 7 0 10 -260097 -1 -1
;
#X obj 192 534 * 1;
#X msg 192 502 1;
#X obj 298 530 spigot-toggle_bleu;
#X obj 341 228 tgl 15 0 empty empty % 4 7 1 10 -260097 -1 -1 0 1;
#X obj 308 134 vsl 15 105 0.001 50 0 0 empty empty % 4 100 1 12 -1
-260097 -260097 0 1;
#X msg 191 565 1, f 1;
#X obj 314 498 t b f;
#X obj 317 540 * 1;
#X obj 239 347 s 2mfreq;
#X obj 268 226 tgl 16 0 empty empty ø 3 6 1 16 -1 -260097 -260097
0 1;
#X obj 341 212 bng 15 250 50 0 empty empty x1 5 7 1 7 -260097 -1 -1
;
#X obj 324 226 tgl 16 0 empty empty ø 3 6 1 16 -1 -260097 -260097
0 1;
#X obj -249 273 *~;
#X obj -240 384 *~;
#X msg -212 33 1;
#X obj 132 181 tgl 30 0 empty empty FREE 2 15 1 10 -260097 -1 -1 0
1;
#X obj 101 150 tgl 30 0 empty empty B 11 16 1 14 -260097 -1 -1 0 1
;
#X obj 101 181 tgl 30 0 empty empty trigB 1 16 1 14 -260097 -1 -1 0
1;
#X obj 132 88 tgl 30 0 empty empty a' 12 16 1 14 -260097 -1 -1 0 1
;
#X obj 132 119 tgl 30 0 empty empty b' 11 16 1 14 -260097 -1 -1 0 1
;
#X obj -631 184 r lo;
#X obj -242 344 *~;
#X obj 185 131 cnv 12 82 23 empty empty T_______F 5 12 1 12 -1 -260097
0;
#X msg -447 -24 1;
#X obj 285 177 tgl 22 0 empty empty B 7 10 1 10 -260097 -1 -1 0 1;
#X obj 285 155 tgl 22 0 empty empty A 7 10 1 10 -260097 -1 -1 0 1;
#X obj 285 221 tgl 22 0 empty empty b' 7 9 1 10 -260097 -1 -1 0 1;
#X obj 285 199 tgl 22 0 empty empty a' 7 9 0 10 -260097 -1 -1 0 1;
#X obj 357 131 tgl 22 0 empty empty phs 2 10 1 12 -260097 -1 -1 1 1
;
#X obj 245 177 tgl 22 0 empty empty B 7 10 1 10 -1 -260097 -260097
0 1;
#X obj 245 155 tgl 22 0 empty empty A 7 10 1 10 -1 -260097 -260097
0 1;
#X obj 245 221 tgl 22 0 empty empty b' 7 9 1 10 -1 -260097 -260097
0 1;
#X obj 245 199 tgl 22 0 empty empty a' 7 9 0 10 -1 -260097 -260097
0 1;
#X obj 111 454 cnv 12 22 23 empty empty empty 2 4 1 11 -260097 -1 0
;
#X floatatom 111 455 2 0 0 0 - - -;
#X obj 379 149 cnv 12 102 23 empty empty __FREQ__ 19 18 1 12 -1 -260097
0;
#X obj 341 148 tgl 15 0 empty empty B 4 7 1 10 -260097 -1 -1 0 1;
#X obj 341 164 tgl 15 0 empty empty a' 4 7 1 10 -260097 -1 -1 0 1;
#X obj 341 180 tgl 15 0 empty empty b' 4 7 1 10 -260097 -1 -1 0 1;
#X obj 1088 545 spigot-toggle_orange;
#X obj 1088 521 spigot-toggle_vert;
#X obj 1088 497 spigot-toggle_red;
#X obj 1088 567 spigot-toggle_orange;
#X obj 380 176 tgl 22 0 empty empty B 7 10 1 10 -1 -260097 -260097
0 1;
#X obj 380 154 tgl 22 0 empty empty A 7 10 1 10 -1 -260097 -260097
0 1;
#X obj 380 220 tgl 22 0 empty empty b' 7 9 1 10 -1 -260097 -260097
0 1;
#X obj 380 198 tgl 22 0 empty empty a' 7 9 0 10 -1 -260097 -260097
0 1;
#X obj 459 176 tgl 22 0 empty empty B 7 10 1 10 -1 -260097 -260097
0 1;
#X obj 459 154 tgl 22 0 empty empty A 7 10 1 10 -1 -260097 -260097
0 1;
#X obj 459 220 tgl 22 0 empty empty b' 7 9 1 10 -1 -260097 -260097
0 1;
#X obj 459 198 tgl 22 0 empty empty a' 7 9 0 10 -1 -260097 -260097
0 1;
#X obj 466 26 tgl 15 0 empty empty B 4 8 1 10 -260097 -1 -1 0 1;
#X obj 466 42 tgl 15 0 empty empty a' 4 8 1 10 -260097 -1 -1 0 1;
#X obj 466 58 tgl 15 0 empty empty b' 4 8 1 10 -260097 -1 -1 0 1;
#X obj 100 10 cnv 15 280 77 empty empty empty 20 12 0 14 -1 -66577
0;
#X obj 145 13 tgl 20 0 empty empty B 5 10 1 10 -1 -260097 -260097 0
1;
#X obj 115 11 tgl 20 0 empty empty A 5 10 1 10 -1 -260097 -260097 0
1;
#X obj 207 13 tgl 20 0 empty empty b' 5 9 1 10 -1 -260097 -260097 0
1;
#X obj 176 13 tgl 20 0 empty empty a' 5 9 0 10 -1 -260097 -260097 0
1;
#X obj 288 13 tgl 20 0 empty empty B 5 10 1 10 -1 -260097 -260097 0
1;
#X obj 257 13 tgl 20 0 empty empty A 5 10 1 10 -1 -260097 -260097 0
1;
#X obj 350 13 tgl 20 0 empty empty b' 5 9 1 10 -1 -260097 -260097 0
1;
#X obj 319 13 tgl 20 0 empty empty a' 5 9 0 10 -1 -260097 -260097 0
1;
#X obj 108 33 hsl 130 15 0 1 0 0 empty empty cut 12 8 0 10 -260097
-1 -1 0 1;
#X obj 244 33 hsl 130 15 0 1 0 0 empty empty empty -2 8 0 10 -260097
-1 -1 12900 1;
#X obj 146 48 tgl 20 0 empty empty B 5 10 1 10 -1 -260097 -260097 0
1;
#X obj 115 49 tgl 20 0 empty empty A 5 10 1 10 -1 -260097 -260097 0
1;
#X obj 208 48 tgl 20 0 empty empty b' 5 9 1 10 -1 -260097 -260097 0
1;
#X obj 177 48 tgl 20 0 empty empty a' 5 9 0 10 -1 -260097 -260097 0
1;
#X obj 288 48 tgl 20 0 empty empty B 5 10 1 10 -1 -260097 -260097 0
1;
#X obj 257 48 tgl 20 0 empty empty A 5 10 1 10 -1 -260097 -260097 0
1;
#X obj 350 48 tgl 20 0 empty empty b' 5 9 1 10 -1 -260097 -260097 0
1;
#X obj 319 48 tgl 20 0 empty empty a' 5 9 0 10 -1 -260097 -260097 0
1;
#X obj 244 67 hsl 130 15 0 1 0 0 empty empty empty 45 11 1 20 -260097
-1 -1 12900 1;
#X obj 108 67 hsl 130 15 0 1 0 0 empty empty fade 12 8 0 10 -260097
-1 -1 0 1;
#X obj 100 243 cnv 5 381 5 empty empty empty 20 12 0 14 -1 -66577 0
;
#X obj 185 152 cnv 12 60 20 empty empty __TIME__ 2 14 1 12 -1 -260097
0;
#X obj 216 132 tgl 22 0 empty empty < 5 10 0 21 -1 -260097 -260097
0 1;
#X obj 200 131 tgl 22 0 empty empty > 5 10 1 21 -1 -260097 -260097
1 1;
#X obj 284 131 cnv 12 25 23 empty empty empty 5 12 1 12 -1 -260097
0;
#X obj 406 448 + 1;
#X obj 469 76 vsl 12 70 0 1.25 0 0 empty empty 2 3 6 1 11 -260097 -1
-1 4140 1;
#X msg 521 -325 0.75;
#X obj 1089 592 * 50;
#X connect 0 0 12 1;
#X connect 1 0 0 0;
#X connect 2 0 1 0;
#X connect 2 1 1 1;
#X connect 3 0 11 1;
#X connect 4 0 5 0;
#X connect 4 1 5 1;
#X connect 5 0 3 0;
#X connect 6 0 7 0;
#X connect 6 0 8 0;
#X connect 9 0 171 0;
#X connect 9 0 155 0;
#X connect 10 0 104 0;
#X connect 11 0 167 0;
#X connect 11 0 105 0;
#X connect 12 0 166 0;
#X connect 12 0 105 0;
#X connect 13 0 30 0;
#X connect 14 0 13 0;
#X connect 14 1 13 1;
#X connect 16 0 210 0;
#X connect 17 0 16 1;
#X connect 18 0 17 0;
#X connect 19 0 18 0;
#X connect 19 1 18 1;
#X connect 20 0 25 0;
#X connect 20 0 21 0;
#X connect 21 0 32 0;
#X connect 22 0 53 0;
#X connect 23 0 33 1;
#X connect 23 0 5 0;
#X connect 23 0 13 0;
#X connect 23 0 1 0;
#X connect 23 0 18 0;
#X connect 24 0 27 0;
#X connect 25 0 26 0;
#X connect 26 0 24 0;
#X connect 27 0 123 0;
#X connect 28 0 29 0;
#X connect 29 0 4 0;
#X connect 30 0 10 1;
#X connect 31 0 10 0;
#X connect 31 0 16 0;
#X connect 31 0 20 0;
#X connect 32 0 22 0;
#X connect 33 0 9 0;
#X connect 39 0 42 0;
#X connect 40 0 42 0;
#X connect 41 0 42 0;
#X connect 42 0 128 0;
#X connect 43 0 46 0;
#X connect 44 0 46 0;
#X connect 45 0 46 0;
#X connect 46 0 250 0;
#X connect 47 0 49 0;
#X connect 47 1 49 1;
#X connect 48 0 196 0;
#X connect 49 0 121 0;
#X connect 50 0 51 0;
#X connect 50 1 51 1;
#X connect 51 0 124 0;
#X connect 52 0 144 0;
#X connect 52 0 162 0;
#X connect 52 0 164 0;
#X connect 52 0 251 0;
#X connect 52 0 215 0;
#X connect 53 0 126 0;
#X connect 54 0 15 0;
#X connect 54 0 15 1;
#X connect 54 0 103 0;
#X connect 55 0 56 0;
#X connect 56 0 123 0;
#X connect 57 0 123 0;
#X connect 58 0 57 0;
#X connect 59 0 62 0;
#X connect 60 0 62 0;
#X connect 61 0 62 0;
#X connect 62 0 261 0;
#X connect 63 0 66 0;
#X connect 64 0 66 0;
#X connect 65 0 66 0;
#X connect 66 0 130 0;
#X connect 67 0 48 0;
#X connect 68 0 62 0;
#X connect 69 0 42 0;
#X connect 70 0 66 0;
#X connect 71 0 46 0;
#X connect 72 0 269 0;
#X connect 72 0 119 0;
#X connect 73 0 152 0;
#X connect 74 0 152 0;
#X connect 75 0 152 0;
#X connect 76 0 153 0;
#X connect 77 0 153 0;
#X connect 78 0 153 0;
#X connect 79 0 82 0;
#X connect 80 0 82 0;
#X connect 81 0 82 0;
#X connect 82 0 115 0;
#X connect 83 0 153 0;
#X connect 84 0 152 0;
#X connect 85 0 84 0;
#X connect 85 0 83 0;
#X connect 85 0 87 0;
#X connect 85 0 96 0;
#X connect 85 0 91 0;
#X connect 85 0 137 0;
#X connect 85 0 68 0;
#X connect 85 0 70 0;
#X connect 85 0 229 0;
#X connect 86 0 73 0;
#X connect 86 0 76 0;
#X connect 86 0 79 0;
#X connect 86 0 92 0;
#X connect 86 0 88 0;
#X connect 86 0 133 0;
#X connect 86 0 59 0;
#X connect 86 0 63 0;
#X connect 86 0 226 0;
#X connect 87 0 82 0;
#X connect 88 0 150 0;
#X connect 89 0 150 0;
#X connect 90 0 150 0;
#X connect 91 0 150 0;
#X connect 92 0 95 0;
#X connect 93 0 95 0;
#X connect 94 0 95 0;
#X connect 95 0 122 0;
#X connect 96 0 95 0;
#X connect 97 0 200 1;
#X connect 98 0 54 1;
#X connect 99 0 54 3;
#X connect 100 0 54 2;
#X connect 101 0 56 1;
#X connect 101 0 172 0;
#X connect 101 0 170 0;
#X connect 102 0 170 0;
#X connect 104 0 11 0;
#X connect 105 0 199 1;
#X connect 106 0 107 0;
#X connect 106 0 108 0;
#X connect 114 0 208 0;
#X connect 115 0 114 1;
#X connect 116 0 114 2;
#X connect 117 0 114 4;
#X connect 118 0 114 3;
#X connect 119 0 97 0;
#X connect 119 0 115 0;
#X connect 119 0 117 0;
#X connect 121 0 23 0;
#X connect 121 0 21 1;
#X connect 121 0 169 0;
#X connect 122 0 47 0;
#X connect 123 0 49 0;
#X connect 124 0 25 1;
#X connect 124 0 168 0;
#X connect 124 0 177 0;
#X connect 125 0 50 0;
#X connect 126 0 51 0;
#X connect 127 0 74 0;
#X connect 127 0 77 0;
#X connect 127 0 80 0;
#X connect 127 0 93 0;
#X connect 127 0 134 0;
#X connect 127 0 89 0;
#X connect 127 0 44 0;
#X connect 127 0 40 0;
#X connect 127 0 60 0;
#X connect 127 0 64 0;
#X connect 127 0 227 0;
#X connect 128 0 129 0;
#X connect 129 0 251 0;
#X connect 130 0 131 0;
#X connect 131 0 260 0;
#X connect 132 0 164 0;
#X connect 133 0 136 0;
#X connect 134 0 136 0;
#X connect 135 0 136 0;
#X connect 136 0 123 0;
#X connect 137 0 136 0;
#X connect 138 0 81 1;
#X connect 139 0 228 1;
#X connect 140 0 89 1;
#X connect 141 0 90 1;
#X connect 142 0 91 1;
#X connect 143 0 88 1;
#X connect 144 0 122 0;
#X connect 144 0 125 0;
#X connect 144 0 260 0;
#X connect 144 0 265 0;
#X connect 150 0 132 0;
#X connect 151 0 67 0;
#X connect 152 0 126 0;
#X connect 153 0 125 0;
#X connect 154 0 75 0;
#X connect 154 0 78 0;
#X connect 154 0 81 0;
#X connect 154 0 94 0;
#X connect 154 0 135 0;
#X connect 154 0 90 0;
#X connect 154 0 45 0;
#X connect 154 0 41 0;
#X connect 154 0 61 0;
#X connect 154 0 65 0;
#X connect 154 0 228 0;
#X connect 155 0 31 0;
#X connect 156 0 48 0;
#X connect 157 0 156 0;
#X connect 158 0 155 0;
#X connect 159 0 155 0;
#X connect 160 0 159 0;
#X connect 161 0 158 0;
#X connect 162 0 123 0;
#X connect 164 0 165 0;
#X connect 165 0 221 0;
#X connect 170 0 33 0;
#X connect 172 0 67 1;
#X connect 177 0 189 0;
#X connect 177 0 187 1;
#X connect 178 0 182 0;
#X connect 181 0 179 0;
#X connect 181 0 199 0;
#X connect 185 0 184 0;
#X connect 186 0 188 0;
#X connect 187 0 183 0;
#X connect 188 0 187 0;
#X connect 189 0 194 0;
#X connect 190 0 189 1;
#X connect 191 0 193 0;
#X connect 191 0 267 0;
#X connect 192 0 193 0;
#X connect 192 0 191 0;
#X connect 193 0 194 0;
#X connect 193 1 194 1;
#X connect 194 0 183 0;
#X connect 196 0 200 1;
#X connect 196 0 173 0;
#X connect 197 0 192 0;
#X connect 198 0 195 0;
#X connect 199 0 114 0;
#X connect 200 0 54 0;
#X connect 201 0 105 0;
#X connect 202 0 12 0;
#X connect 202 0 173 0;
#X connect 203 0 57 1;
#X connect 203 0 204 0;
#X connect 203 0 170 0;
#X connect 204 0 156 1;
#X connect 205 0 158 1;
#X connect 206 0 159 1;
#X connect 207 0 185 0;
#X connect 208 0 200 0;
#X connect 210 0 12 0;
#X connect 211 0 93 1;
#X connect 212 0 94 1;
#X connect 213 0 96 1;
#X connect 214 0 92 1;
#X connect 215 0 164 0;
#X connect 216 0 134 1;
#X connect 217 0 135 1;
#X connect 218 0 137 1;
#X connect 219 0 133 1;
#X connect 221 0 208 1;
#X connect 223 0 227 1;
#X connect 224 0 226 1;
#X connect 225 0 229 1;
#X connect 226 0 270 0;
#X connect 227 0 270 0;
#X connect 228 0 270 0;
#X connect 229 0 270 0;
#X connect 230 0 74 1;
#X connect 231 0 75 1;
#X connect 232 0 84 1;
#X connect 233 0 73 1;
#X connect 234 0 77 1;
#X connect 235 0 78 1;
#X connect 236 0 83 1;
#X connect 237 0 76 1;
#X connect 238 0 80 1;
#X connect 239 0 79 1;
#X connect 240 0 87 1;
#X connect 242 0 44 1;
#X connect 243 0 45 1;
#X connect 244 0 71 1;
#X connect 245 0 43 1;
#X connect 246 0 40 1;
#X connect 247 0 41 1;
#X connect 248 0 69 1;
#X connect 249 0 39 1;
#X connect 250 0 19 0;
#X connect 251 0 14 0;
#X connect 252 0 60 1;
#X connect 253 0 61 1;
#X connect 254 0 68 1;
#X connect 255 0 59 1;
#X connect 256 0 64 1;
#X connect 257 0 65 1;
#X connect 258 0 70 1;
#X connect 259 0 63 1;
#X connect 260 0 28 0;
#X connect 261 0 2 0;
#X connect 264 0 27 1;
#X connect 265 0 53 1;
#X connect 267 0 190 0;
#X connect 268 0 195 0;
#X connect 269 0 98 0;
#X connect 269 0 100 0;
#X connect 269 0 99 0;
#X connect 269 0 97 0;
#X connect 269 0 268 0;
#X connect 270 0 191 0;
#X coords 0 -1 1 1 382 240 2 100 10;
