#N canvas 1680 22 1680 975 16;
#X obj 100 10 cnv 15 385 420 empty empty PUREWAVE-SYNTH 50 18 0 14
-1 -260097 0;
#X floatatom 862 -644 0 0 0 0 - - -;
#X obj 863 -665 *;
#X obj 862 -700 t b f;
#X floatatom 1073 -555 0 0 0 0 - - -;
#X obj 1052 -648 t b f;
#X obj 1120 -418 sig~;
#X obj 1122 -289 *~ -1;
#X obj 1334 64 *~;
#X obj 1073 -612 *;
#X obj 1327 147 *~ 1;
#X obj 1035 -404 osc~;
#X obj -2653 228 r lo;
#X msg -2628 254 0;
#X msg -2596 254 0.5;
#X obj 926 -655 bng 15 250 50 0 empty empty empty 17 7 0 10 -262144
-1 -1;
#X obj 1019 -549 delay;
#X obj 1024 -505 pack f f;
#X obj 762 -515 pack f f;
#X obj 1024 -669 * 1;
#X obj 1012 -702 t b f;
#X obj 1313 210 dac~;
#X obj 761 -587 delay;
#X floatatom 792 -643 0 0 0 0 - - -;
#X obj 793 -664 *;
#X obj 792 -699 t b f;
#X obj 927 -622 f;
#X obj 929 -571 sel;
#X obj 1033 -360 *~;
#X msg 827 6 1, f 2;
#X obj 779 107 /;
#X floatatom 786 173 0 0 0 0 F - -;
#X floatatom 919 -795 0 0 0 1 - - -;
#X floatatom 853 174 0 0 0 0 T - -;
#X obj 846 121 /;
#X obj 843 151 * 1000;
#X obj 821 57 spigot-toggle_vert;
#X obj 1052 -701 - 1;
#X obj 1052 -673 * -1;
#X floatatom 1023 -648 0 0 0 0 - - -;
#X msg 765 -463 1;
#X obj 930 -547 bng 15 250 50 0 empty empty empty 17 7 0 10 -262144
-1 -1;
#X obj 784 150 * 1000;
#X obj 923 -705 metro 44;
#X obj -2630 182 r fll1;
#X text -2573 135 "a;
#X obj -2717 181 r fll0;
#X obj -2718 141 r fll0;
#X obj -2631 142 r fll1;
#X obj 142 45 tgl 20 0 empty empty B 5 10 1 10 -1 -260097 -260097 0
1;
#X obj 121 45 tgl 20 0 empty empty A 5 10 1 10 -1 -260097 -260097 1
1;
#X obj 123 67 hsl 80 20 0 1 0 0 empty empty cut 12 12 0 10 -1 -260097
-260097 494 1;
#X obj -11 -32 spigot-toggle_orange;
#X obj -11 -55 spigot-toggle_vert;
#X obj -11 -79 spigot-toggle_red;
#X obj -11 24 * 1;
#X obj 211 67 hsl 80 20 0 1 0 0 empty empty empty -2 -8 0 10 -1 -260097
-260097 5700 1;
#X obj 124 108 hsl 80 20 0 1 0 0 empty empty fade 12 12 0 10 -1 -260097
-260097 0 1;
#X obj -45 -31 spigot-toggle_orange;
#X obj -45 -55 spigot-toggle_vert;
#X obj -46 -79 spigot-toggle_red;
#X obj -45 22 * 1;
#X obj 211 108 hsl 80 20 0 1 0 0 empty empty empty 45 11 1 20 -1 -260097
-1 7900 1;
#X obj 724 73 t b f;
#X obj 759 -562 f;
#X floatatom 727 -518 0 0 0 0 - - -;
#X obj 768 -486 r lo;
#X obj 726 108 * 1;
#X obj 717 152 t b f;
#X obj 719 184 * 1;
#X obj 589 -93 r lo;
#X obj 820 78 spigot-toggle_vert;
#X obj 1121 -381 *~ 0.01;
#X obj 1352 172 dj-eq;
#X obj 988 17 r T$;
#X obj 985 52 spigot-toggle_red;
#X obj 1054 52 spigot-toggle_red;
#X obj 1078 17 r T1;
#X obj -51 120 spigot-toggle_orange;
#X obj -51 96 spigot-toggle_vert;
#X obj -51 72 spigot-toggle_red;
#X obj -55 173 * 1;
#X obj -16 120 spigot-toggle_orange;
#X obj -16 96 spigot-toggle_vert;
#X obj -16 72 spigot-toggle_red;
#X obj -19 173 * 1;
#X obj 1334 97 *~ 1;
#X obj 1128 -341 *~;
#X obj 1150 56 spigot-toggle_red;
#X obj 1127 54 spigot-toggle_red;
#X msg -187 145 0.5;
#X obj 184 45 tgl 20 0 empty empty b' 5 9 1 10 -1 -260097 -260097 0
1;
#X obj 163 45 tgl 20 0 empty empty a' 5 9 0 10 -1 -260097 -260097 0
1;
#X obj -2 -238 r fll1;
#X obj -4 -264 r fll0;
#X obj -51 142 spigot-toggle_orange;
#X obj -11 -8 spigot-toggle_orange;
#X obj -16 142 spigot-toggle_orange;
#X obj -44 -9 spigot-toggle_orange;
#X obj 1175 60 r trgrA;
#X obj 1250 59 r trgrB;
#X obj -188 174 r lo;
#X obj 349 -235 spigot-toggle_orange;
#X obj 349 -259 spigot-toggle_vert;
#X obj 349 -283 spigot-toggle_red;
#X obj 415 -234 spigot-toggle_orange;
#X obj 415 -258 spigot-toggle_vert;
#X obj 415 -282 spigot-toggle_red;
#X obj 188 -235 spigot-toggle_orange;
#X obj 188 -259 spigot-toggle_vert;
#X obj 188 -283 spigot-toggle_red;
#X obj 185 -182 * 1;
#X obj 415 -212 spigot-toggle_orange;
#X obj 348 -213 spigot-toggle_orange;
#X obj 94 -229 r fll1;
#X obj 92 -255 r fll0;
#X obj 189 -213 spigot-toggle_orange;
#X obj 347 -85 spigot-toggle_orange;
#X obj 347 -109 spigot-toggle_vert;
#X obj 347 -133 spigot-toggle_red;
#X obj 346 -63 spigot-toggle_orange;
#X obj 415 -85 spigot-toggle_orange;
#X obj 415 -109 spigot-toggle_vert;
#X obj 416 -133 spigot-toggle_red;
#X obj 404 -37 * 1;
#X obj 414 -63 spigot-toggle_orange;
#X obj 185 147 vsl 20 60 0 1 0 0 empty empty GAIN 3 6 1 6 -1 -260097
-260097 4400 1;
#X obj 151 147 vsl 10 60 0 1 0 0 empty empty empty 12 12 0 10 -1 -260097
-1 2950 1;
#X obj 174 147 vsl 10 60 0 1 0 0 empty empty empty 12 12 0 10 -1 -260097
-1 2950 1;
#X obj 163 147 vsl 10 60 0 1 0 0 empty empty empty 12 12 0 10 -1 -260097
-1 2950 1;
#X obj 119 142 tgl 30 0 empty empty osc 4 14 1 14 -260097 -1 -1 1 1
;
#X obj 119 175 tgl 30 0 empty empty sig 6 14 1 14 -260097 -1 -1 0 1
;
#X obj 366 -181 * 1000;
#X obj 346 -55 * 1000;
#X obj 1362 197 s~ C;
#X obj 299 -434 tgl 17 0 empty empty ø 5 7 2 15 -262144 -1 -1 1 1
;
#X obj 1165 -59 - 1;
#X obj 1166 -35 * -1;
#X obj 1126 -90 sel;
#X obj 965 -92 bng 15 250 50 0 empty empty empty 17 7 0 10 -262144
-1 -1;
#X msg 1023 -528 0;
#X obj 370 -461 mod 1;
#X obj 321 -457 sel;
#X msg 322 -434 1;
#X obj 296 -577 mod 1;
#X obj 296 -549 sel;
#X msg 297 -528 1;
#X obj 412 -182 * 100;
#X obj 1177 -213 vline~;
#X obj 1165 -10 + 0;
#X obj 1130 -118 mod 2;
#X obj 956 -621 + 1;
#X obj 927 -596 mod 1;
#X obj 930 -677 spigot-toggle_red;
#X floatatom 885 948 0 0 0 0 - - -;
#X obj 886 927 *;
#X obj 885 892 t b f;
#X floatatom 1096 1037 0 0 0 0 - - -;
#X obj 1105 944 t b f;
#X obj 1059 432 sig~;
#X obj 1081 544 *~ -1;
#X obj 1082 634 *~;
#X obj 1096 980 *;
#X obj 1081 695 *~ 1;
#X obj 1016 433 osc~;
#X obj -2653 1228 r lo;
#X msg -2628 1254 0;
#X msg -2596 1254 0.5;
#X obj 937 874 bng 15 250 50 0 empty empty empty 17 7 0 10 -262144
-1 -1;
#X obj 1042 1043 delay;
#X obj 1047 1087 pack f f;
#X obj 785 1077 pack f f;
#X obj 1047 923 * 1;
#X obj 1029 881 t b f;
#X obj 1203 432 dac~;
#X obj 784 1026 delay;
#X floatatom 815 949 0 0 0 0 - - -;
#X obj 816 928 *;
#X obj 780 893 t b f;
#X obj 938 907 f;
#X obj 940 958 sel;
#X obj 1014 477 *~;
#X msg 849 279 1, f 2;
#X obj 783 450 /;
#X floatatom 786 357 0 0 0 0 F - -;
#X floatatom 829 849 0 0 0 1 - - -;
#X floatatom 853 358 0 0 0 0 T - -;
#X obj 846 305 /;
#X obj 843 335 * 1000;
#X obj 821 241 spigot-toggle_vert;
#X obj 1105 891 - 1;
#X obj 1105 919 * -1;
#X obj 1088 578 *~;
#X floatatom 1046 944 0 0 0 0 - - -;
#X msg 788 1129 1;
#X obj 941 982 bng 15 250 50 0 empty empty empty 17 7 0 10 -262144
-1 -1;
#X obj 784 334 * 1000;
#X obj 934 824 metro 44;
#X obj -2630 1182 r fll1;
#X text -2573 1135 "a;
#X obj -2717 1181 r fll0;
#X obj -2718 1141 r fll0;
#X obj -2631 1142 r fll1;
#X obj -277 637 hsl 80 20 0 1 0 0 empty empty cut 12 12 0 10 -262144
-1 -1 0 1;
#X obj -11 292 spigot-toggle_orange;
#X obj -11 269 spigot-toggle_vert;
#X obj -11 245 spigot-toggle_red;
#X obj -14 348 * 1;
#X obj -190 637 hsl 80 20 0 1 0 0 empty empty empty -2 -8 0 10 -262144
-1 -1 7900 1;
#X obj -45 293 spigot-toggle_orange;
#X obj -45 269 spigot-toggle_vert;
#X obj -46 245 spigot-toggle_red;
#X obj -45 346 * 1;
#X obj 782 1051 f;
#X floatatom 750 1074 0 0 0 0 - - -;
#X obj 791 1106 r lo;
#X floatatom 302 1000 0 0 0 2 phase - -;
#X obj 726 302 * 1;
#X obj 717 346 t b f;
#X obj 719 378 * 1;
#X obj 206 477 r lo;
#X obj 820 262 spigot-toggle_vert;
#X obj 1060 469 *~ 0.01;
#X obj 1135 761 dj-eq;
#X obj 1007 241 r T$;
#X obj 985 236 spigot-toggle_red;
#X obj 1054 236 spigot-toggle_red;
#X obj 1097 241 r T1;
#X obj -51 444 spigot-toggle_orange;
#X obj -51 420 spigot-toggle_vert;
#X obj -51 396 spigot-toggle_red;
#X obj -55 497 * 1;
#X obj -16 444 spigot-toggle_orange;
#X obj -16 420 spigot-toggle_vert;
#X obj -16 396 spigot-toggle_red;
#X obj -19 497 * 1;
#X obj 1082 667 *~ 1;
#X obj 1067 509 *~;
#X obj 1328 266 spigot-toggle_red;
#X obj 1329 230 spigot-toggle_red;
#X msg -192 319 0.5;
#X obj -15 636 r fll1;
#X obj -17 610 r fll0;
#X obj -51 466 spigot-toggle_orange;
#X obj -11 316 spigot-toggle_orange;
#X obj -16 466 spigot-toggle_orange;
#X obj -44 315 spigot-toggle_orange;
#X obj 1352 236 r trgrA;
#X obj 1352 276 r trgrB;
#X obj 349 590 spigot-toggle_orange;
#X obj 349 566 spigot-toggle_vert;
#X obj 349 542 spigot-toggle_red;
#X obj 454 916 spigot-toggle_orange;
#X obj 454 892 spigot-toggle_vert;
#X obj 454 868 spigot-toggle_red;
#X obj 305 900 spigot-toggle_orange;
#X obj 305 876 spigot-toggle_vert;
#X obj 305 852 spigot-toggle_red;
#X obj 302 953 * 1;
#X obj 454 938 spigot-toggle_orange;
#X obj 348 612 spigot-toggle_orange;
#X obj 345 928 r fll1;
#X obj 343 902 r fll0;
#X obj 306 922 spigot-toggle_orange;
#X obj 334 727 spigot-toggle_orange;
#X obj 334 703 spigot-toggle_vert;
#X obj 334 679 spigot-toggle_red;
#X obj 333 749 spigot-toggle_orange;
#X obj 458 727 spigot-toggle_orange;
#X obj 458 703 spigot-toggle_vert;
#X obj 459 679 spigot-toggle_red;
#X obj 492 731 * 1;
#X obj 457 749 spigot-toggle_orange;
#X obj 388 584 * 1000;
#X obj 357 748 * 1000;
#X obj 364 1158 tgl 17 0 empty empty ø 5 7 2 15 -262144 -1 -1 0 1
;
#X obj 1427 236 - 1;
#X obj 1428 260 * -1;
#X obj 1424 344 sel;
#X obj 1437 369 bng 15 250 50 0 empty empty empty 17 7 0 10 -262144
-1 -1;
#X msg 1046 1064 0;
#X obj 416 1137 mod 1;
#X obj 386 1135 sel;
#X msg 387 1158 1;
#X obj 359 1015 mod 1;
#X obj 359 1043 sel;
#X msg 360 1064 1;
#X obj 530 885 * 100;
#X obj 1110 1133 vline~;
#X obj 1427 285 + 0;
#X obj 1428 316 mod 2;
#X obj 968 908 + 1;
#X obj 938 933 mod 1;
#X obj 1328 266 spigot-toggle_red;
#X obj 938 849 spigot-toggle_red;
#X obj 1273 440 s~ C1;
#X obj 1489 192 vfreeverb~;
#X obj 213 148 hsl 80 15 0 1 0 1 empty empty roomsize' 3 8 0 10 -1
-260097 -260097 6800 0;
#X obj 213 164 hsl 80 15 0 2 0 1 empty empty damp 3 8 0 10 -1 -260097
-260097 7900 0;
#X obj 213 194 hsl 80 15 0 1 0 1 empty empty wet 3 8 0 10 -1 -260097
-260097 7100 0;
#X obj 213 179 hsl 80 15 0 1 0 1 empty empty dry 3 8 0 10 -1 -260097
-260097 5100 0;
#X obj 1230 375 vfreeverb~;
#X floatatom -362 428 5 0 0 0 - - -;
#X floatatom -292 428 5 0 0 0 - - -;
#X floatatom -362 278 5 0 0 0 - - -;
#X floatatom -292 278 5 0 0 0 - - -;
#X obj -352 224 ctlin 51;
#X obj -352 374 ctlin 54;
#X obj -360 335 - 1;
#X obj -310 335 * -1;
#X obj -360 505 - 1;
#X obj -310 505 * -1;
#X obj -354 459 / 1.27;
#X obj -308 307 / 1.27;
#X msg -193 202 0;
#X obj -360 305 * 0.005;
#X obj -361 482 * 0.005;
#X obj -346 -15 s lo;
#X floatatom -344 -63 5 0 0 0 - - -;
#X obj 1450 -129 r lo;
#X floatatom 1406 -104 0 0 0 0 - - -;
#X obj 383 31 cnv 15 62 180 empty empty empty 20 12 1 12 -262144 -228856
0;
#X floatatom 383 77 6 0 0 0 - - -;
#X floatatom 383 53 3 0 0 1 xt - -;
#X floatatom 383 29 6 0 0 2 _Time - -;
#X floatatom 383 191 6 0 0 0 - - -;
#X floatatom 383 167 4 0 0 1 xf - -;
#X floatatom 383 143 6 0 0 2 _Freq - -;
#X obj 385 239 cnv 15 62 180 empty empty empty 20 12 1 12 -262144 -66577
0;
#X floatatom 385 281 6 0 0 0 - - -;
#X floatatom 384 258 4 0 0 1 xt - -;
#X floatatom 385 236 6 0 0 2 - - -;
#X floatatom 386 398 6 0 0 0 - - -;
#X floatatom 386 375 3 0 0 1 xf - -;
#X floatatom 385 352 6 0 0 2 - - -;
#X obj -3 -307 r A;
#X obj -3 -283 r B;
#X obj 93 -276 r B;
#X obj -16 567 r A;
#X obj -16 591 r B;
#X obj 346 859 r A;
#X obj 344 883 r B;
#X obj 17 12 - 1;
#X obj 19 36 * -1;
#X obj 11 172 - 1;
#X obj 13 196 * -1;
#X obj 17 342 - 1;
#X obj 20 373 * -1;
#X obj 11 502 - 1;
#X obj 13 526 * -1;
#X obj -120 396 spigot-toggle_orange;
#X obj -120 372 spigot-toggle_vert;
#X obj -121 348 spigot-toggle_red;
#X obj -120 449 * 1;
#X obj -119 418 spigot-toggle_orange;
#X obj 724 267 t b f;
#X obj 119 211 tgl 15 0 empty empty C&D -2 22 0 10 -260097 -1 -260097
0 1;
#X obj 93 -302 r A mod;
#X obj 893 -62 * 2;
#X obj 935 -62 - 1;
#X obj 159 957 * 2;
#X obj 201 957 - 1;
#X floatatom 937 581 0 0 0 2 phase - -;
#X obj 309 33 tgl 20 0 empty empty ø 4 8 0 22 -1 -260097 -260097 1
1;
#X obj 309 77 tgl 20 0 empty empty Csolo 7 10 1 12 -1 -260097 -260097
0 1;
#X obj 449 101 tgl 20 0 empty empty ^ 4 15 0 22 -260097 -1 -1 0 1;
#X obj 362 101 tgl 20 0 empty empty v 6 9 1 16 -260097 -1 -1 1 1;
#X floatatom 282 -226 0 0 0 2 phase - -;
#X obj 285 -326 spigot-toggle_orange;
#X obj 285 -350 spigot-toggle_vert;
#X obj 285 -374 spigot-toggle_red;
#X obj 282 -273 * 1;
#X obj 286 -304 spigot-toggle_orange;
#X obj 140 -322 * 2;
#X obj 182 -322 - 1;
#X obj 309 101 tgl 40 0 empty empty phs 10 18 1 14 -1 -260097 -260097
1 1;
#X obj 384 305 cnv 20 63 25 empty empty D 26 12 0 22 -1 -262144 0;
#X obj 1090 -204 *~ 1;
#X obj 230 45 tgl 20 0 empty empty B 5 10 1 10 -1 -260097 -260097 0
1;
#X obj 209 45 tgl 20 0 empty empty A 5 10 1 10 -1 -260097 -260097 0
1;
#X obj 272 45 tgl 20 0 empty empty b' 5 9 1 10 -1 -260097 -260097 0
1;
#X obj 251 45 tgl 20 0 empty empty a' 5 9 0 10 -1 -260097 -260097 0
1;
#X obj 144 86 tgl 20 0 empty empty B 5 10 1 10 -1 -260097 -260097 0
1;
#X obj 123 86 tgl 20 0 empty empty A 5 10 1 10 -1 -260097 -260097 0
1;
#X obj 186 86 tgl 20 0 empty empty b' 5 9 1 10 -1 -260097 -260097 0
1;
#X obj 165 86 tgl 20 0 empty empty a' 5 9 0 10 -1 -260097 -260097 0
1;
#X obj 230 85 tgl 20 0 empty empty B 5 10 1 10 -1 -260097 -260097 0
1;
#X obj 209 85 tgl 20 0 empty empty A 5 10 1 10 -1 -260097 -260097 0
1;
#X obj 272 85 tgl 20 0 empty empty b' 5 9 1 10 -1 -260097 -260097 0
1;
#X obj 251 85 tgl 20 0 empty empty a' 5 9 0 10 -1 -260097 -260097 0
1;
#X obj 233 127 tgl 20 0 empty empty B 5 10 1 10 -1 -260097 -260097
0 1;
#X obj 212 127 tgl 20 0 empty empty A 5 10 1 10 -1 -260097 -260097
0 1;
#X obj 278 127 tgl 20 0 empty empty b' 5 9 1 10 -1 -260097 -260097
0 1;
#X obj 254 127 tgl 20 0 empty empty a' 5 9 0 10 -1 -260097 -260097
0 1;
#X obj 140 251 tgl 20 0 empty empty B 5 10 1 10 -1 -260097 -260097
0 1;
#X obj 118 251 tgl 20 0 empty empty A 5 10 1 10 -1 -260097 -260097
0 1;
#X obj 121 272 hsl 82 20 0 1 0 0 empty empty cut 12 12 0 10 -1 -260097
-260097 0 1;
#X obj 209 272 hsl 80 20 0 1 0 0 empty empty empty -2 -8 0 10 -1 -260097
-260097 7900 1;
#X obj 121 313 hsl 82 20 0 1 0 0 empty empty fade 12 12 0 10 -1 -260097
-260097 0 1;
#X obj 209 313 hsl 80 20 0 1 0 0 empty empty empty 45 11 1 20 -1 -260097
-1 7900 1;
#X obj 184 251 tgl 20 0 empty empty b' 5 9 1 10 -1 -260097 -260097
0 1;
#X obj 162 251 tgl 20 0 empty empty a' 5 9 0 10 -1 -260097 -260097
0 1;
#X obj 182 355 vsl 20 60 0 1 0 0 empty empty GAIN 3 6 1 6 -1 -260097
-260097 2950 1;
#X obj 148 355 vsl 10 60 0 1 0 0 empty empty empty 12 12 0 10 -1 -260097
-1 2950 1;
#X obj 171 355 vsl 10 60 0 1 0 0 empty empty empty 12 12 0 10 -1 -260097
-1 2950 1;
#X obj 160 355 vsl 10 60 0 1 0 0 empty empty empty 12 12 0 10 -1 -260097
-1 2950 1;
#X obj 117 354 tgl 30 0 empty empty osc 4 14 1 14 -260097 -1 -1 0 1
;
#X obj 117 385 tgl 30 0 empty empty sig 6 14 1 14 -260097 -1 -1 0 1
;
#X obj 209 355 hsl 80 15 0 1 0 1 empty empty roomsize' 3 8 0 10 -1
-260097 -260097 0 0;
#X obj 209 371 hsl 80 15 0 2 0 1 empty empty damp 3 8 0 10 -1 -260097
-260097 7900 0;
#X obj 209 400 hsl 80 15 0 1 0 1 empty empty wet 3 8 0 10 -1 -260097
-260097 0 0;
#X obj 209 386 hsl 80 15 0 1 0 1 empty empty dry 3 8 0 10 -1 -260097
-260097 5100 0;
#X obj 227 251 tgl 20 0 empty empty B 5 10 1 10 -1 -260097 -260097
0 1;
#X obj 205 251 tgl 20 0 empty empty A 5 10 1 10 -1 -260097 -260097
0 1;
#X obj 271 251 tgl 20 0 empty empty b' 5 9 1 10 -1 -260097 -260097
0 1;
#X obj 249 251 tgl 20 0 empty empty a' 5 9 0 10 -1 -260097 -260097
0 1;
#X obj 140 292 tgl 20 0 empty empty B 5 10 1 10 -1 -260097 -260097
0 1;
#X obj 118 292 tgl 20 0 empty empty A 5 10 1 10 -1 -260097 -260097
0 1;
#X obj 184 292 tgl 20 0 empty empty b' 5 9 1 10 -1 -260097 -260097
0 1;
#X obj 162 292 tgl 20 0 empty empty a' 5 9 0 10 -1 -260097 -260097
0 1;
#X obj 227 292 tgl 20 0 empty empty B 5 10 1 10 -1 -260097 -260097
0 1;
#X obj 205 292 tgl 20 0 empty empty A 5 10 1 10 -1 -260097 -260097
0 1;
#X obj 271 292 tgl 20 0 empty empty b' 5 9 1 10 -1 -260097 -260097
0 1;
#X obj 249 292 tgl 20 0 empty empty a' 5 9 0 10 -1 -260097 -260097
0 1;
#X obj 227 333 tgl 20 0 empty empty B 5 10 1 10 -1 -260097 -260097
0 1;
#X obj 205 333 tgl 20 0 empty empty A 5 10 1 10 -1 -260097 -260097
0 1;
#X obj 271 333 tgl 20 0 empty empty b' 5 9 1 10 -1 -260097 -260097
0 1;
#X obj 249 333 tgl 20 0 empty empty a' 5 9 0 10 -1 -260097 -260097
0 1;
#X obj 449 37 tgl 20 0 empty empty B 5 10 1 10 -1 -260097 -260097 0
1;
#X obj 449 16 tgl 20 0 empty empty A 5 10 1 10 -1 -260097 -260097 0
1;
#X obj 449 79 tgl 20 0 empty empty b' 5 9 1 10 -1 -260097 -260097 0
1;
#X obj 449 58 tgl 20 0 empty empty a' 5 9 0 10 -1 -260097 -260097 0
1;
#X obj 362 35 tgl 20 0 empty empty B 5 10 1 10 -1 -260097 -260097 0
1;
#X obj 362 14 tgl 20 0 empty empty A 5 10 1 10 -1 -260097 -260097 0
1;
#X obj 362 77 tgl 20 0 empty empty b' 5 9 1 10 -1 -260097 -260097 0
1;
#X obj 362 56 tgl 20 0 empty empty a' 5 9 0 10 -1 -260097 -260097 0
1;
#X obj 449 150 tgl 20 0 empty empty B 5 10 1 10 -1 -260097 -260097
0 1;
#X obj 449 129 tgl 20 0 empty empty A 5 10 1 10 -1 -260097 -260097
0 1;
#X obj 449 192 tgl 20 0 empty empty b' 5 9 1 10 -1 -260097 -260097
0 1;
#X obj 449 171 tgl 20 0 empty empty a' 5 9 0 10 -1 -260097 -260097
0 1;
#X obj 362 149 tgl 20 0 empty empty B 5 10 1 10 -1 -260097 -260097
0 1;
#X obj 362 128 tgl 20 0 empty empty A 5 10 1 10 -1 -260097 -260097
0 1;
#X obj 362 191 tgl 20 0 empty empty b' 5 9 1 10 -1 -260097 -260097
0 1;
#X obj 362 170 tgl 20 0 empty empty a' 5 9 0 10 -1 -260097 -260097
0 1;
#X obj 330 33 tgl 20 0 empty empty ø 4 8 0 22 -1 -260097 -260097 0
1;
#X obj 330 56 tgl 20 0 empty empty B 6 10 1 12 -1 -260097 -260097 0
1;
#X obj 309 56 tgl 20 0 empty empty A 6 10 1 12 -1 -260097 -260097 1
1;
#X obj 311 279 tgl 20 0 empty empty Dsolo 7 10 1 12 -1 -260097 -260097
0 1;
#X obj 337 170 tgl 20 0 empty empty B 5 10 1 10 -1 -260097 -260097
0 1;
#X obj 307 170 tgl 20 0 empty empty A 5 10 1 10 -1 -260097 -260097
0 1;
#X obj 338 191 tgl 20 0 empty empty b' 5 9 1 10 -1 -260097 -260097
0 1;
#X obj 307 191 tgl 20 0 empty empty a' 5 9 0 10 -1 -260097 -260097
0 1;
#X obj 394 13 cnv 12 20 12 empty empty TIME 4 10 1 12 -1 -260097 0
;
#X obj 382 118 cnv 20 63 25 empty empty FREQ 16 10 1 12 -1 -260097
0;
#X obj 217 585 cnv 20 63 45 empty empty D 26 15 0 22 -1 -262144 0;
#X obj 384 326 cnv 20 63 25 empty empty FREQ 14 10 1 12 -1 -260097
0;
#X obj 383 96 cnv 20 63 25 empty empty C 26 12 0 22 -1 -262144 0;
#X obj 397 220 cnv 12 20 12 empty empty TIME 4 10 1 12 -1 -260097 0
;
#X obj 448 308 tgl 20 0 empty empty ^ 4 15 0 22 -260097 -1 -1 0 1;
#X obj 361 308 tgl 20 0 empty empty v 6 9 1 16 -260097 -1 -1 1 1;
#X obj 363 240 tgl 20 0 empty empty B 5 10 1 10 -1 -260097 -260097
0 1;
#X obj 363 219 tgl 20 0 empty empty A 5 10 1 10 -1 -260097 -260097
0 1;
#X obj 363 282 tgl 20 0 empty empty b' 5 9 1 10 -1 -260097 -260097
0 1;
#X obj 363 261 tgl 20 0 empty empty a' 5 9 0 10 -1 -260097 -260097
0 1;
#X obj 366 354 tgl 20 0 empty empty B 5 10 1 10 -1 -260097 -260097
0 1;
#X obj 366 333 tgl 20 0 empty empty A 5 10 1 10 -1 -260097 -260097
0 1;
#X obj 366 396 tgl 20 0 empty empty b' 5 9 1 10 -1 -260097 -260097
0 1;
#X obj 366 375 tgl 20 0 empty empty a' 5 9 0 10 -1 -260097 -260097
0 1;
#X obj 448 353 tgl 20 0 empty empty B 5 10 1 10 -1 -260097 -260097
0 1;
#X obj 448 332 tgl 20 0 empty empty A 5 10 1 10 -1 -260097 -260097
0 1;
#X obj 448 395 tgl 20 0 empty empty b' 5 9 1 10 -1 -260097 -260097
0 1;
#X obj 448 374 tgl 20 0 empty empty a' 5 9 0 10 -1 -260097 -260097
0 1;
#X obj 448 238 tgl 20 0 empty empty B 5 10 1 10 -1 -260097 -260097
0 1;
#X obj 448 217 tgl 20 0 empty empty A 5 10 1 10 -1 -260097 -260097
0 1;
#X obj 448 280 tgl 20 0 empty empty b' 5 9 1 10 -1 -260097 -260097
0 1;
#X obj 448 259 tgl 20 0 empty empty a' 5 9 0 10 -1 -260097 -260097
0 1;
#X obj 106 218 cnv 1 360 1 empty empty empty 20 12 0 14 -260097 -66577
0;
#X obj 311 236 tgl 20 0 empty empty ø 4 8 0 22 -1 -260097 -260097
0 1;
#X obj 311 301 tgl 40 0 empty empty phs 10 18 1 14 -1 -260097 -260097
1 1;
#X obj 332 236 tgl 20 0 empty empty ø 4 8 0 22 -1 -260097 -260097
0 1;
#X obj 332 260 tgl 20 0 empty empty B 6 10 1 12 -1 -260097 -260097
0 1;
#X obj 311 260 tgl 20 0 empty empty A 6 10 1 12 -1 -260097 -260097
0 1;
#X obj 337 385 tgl 20 0 empty empty B 5 10 1 10 -1 -260097 -260097
0 1;
#X obj 304 385 tgl 20 0 empty empty A 5 10 1 10 -1 -260097 -260097
0 1;
#X obj 338 406 tgl 20 0 empty empty b' 5 9 1 10 -1 -260097 -260097
0 1;
#X obj 303 406 tgl 20 0 empty empty a' 5 9 0 10 -1 -260097 -260097
0 1;
#X obj 307 144 cnv 12 50 22 empty empty empty 20 12 1 12 -260097 -66577
0;
#X obj 305 353 cnv 12 50 22 empty empty empty 20 12 1 12 -260097 -66577
0;
#X floatatom 305 352 5 0 0 0 - - -;
#X floatatom 306 143 5 0 0 0 - - -;
#X msg 615 -29 1, f 2;
#X msg 662 -37 200, f 2;
#X connect 1 0 18 1;
#X connect 2 0 1 0;
#X connect 3 0 2 0;
#X connect 3 1 2 1;
#X connect 4 0 17 1;
#X connect 5 0 9 0;
#X connect 5 1 9 1;
#X connect 6 0 72 0;
#X connect 7 0 377 0;
#X connect 8 0 296 0;
#X connect 9 0 4 0;
#X connect 10 0 73 0;
#X connect 11 0 28 0;
#X connect 12 0 13 0;
#X connect 12 0 14 0;
#X connect 15 0 26 0;
#X connect 16 0 140 0;
#X connect 17 0 148 0;
#X connect 18 0 148 0;
#X connect 19 0 39 0;
#X connect 20 0 19 0;
#X connect 20 1 19 1;
#X connect 22 0 64 0;
#X connect 23 0 22 1;
#X connect 24 0 23 0;
#X connect 25 0 24 0;
#X connect 25 1 24 1;
#X connect 26 0 151 0;
#X connect 26 0 152 0;
#X connect 27 0 41 0;
#X connect 28 0 7 0;
#X connect 29 0 30 0;
#X connect 29 0 34 0;
#X connect 30 0 42 0;
#X connect 31 0 71 0;
#X connect 32 0 43 1;
#X connect 32 0 9 0;
#X connect 32 0 19 0;
#X connect 32 0 2 0;
#X connect 32 0 24 0;
#X connect 33 0 36 0;
#X connect 34 0 35 0;
#X connect 35 0 33 0;
#X connect 36 0 324 0;
#X connect 37 0 38 0;
#X connect 38 0 5 0;
#X connect 39 0 16 1;
#X connect 40 0 65 0;
#X connect 41 0 16 0;
#X connect 41 0 22 0;
#X connect 41 0 29 0;
#X connect 42 0 31 0;
#X connect 43 0 153 0;
#X connect 49 0 59 1;
#X connect 50 0 60 1;
#X connect 51 0 25 0;
#X connect 52 0 55 0;
#X connect 53 0 55 0;
#X connect 54 0 55 0;
#X connect 55 0 342 0;
#X connect 56 0 20 0;
#X connect 57 0 3 0;
#X connect 58 0 61 0;
#X connect 59 0 61 0;
#X connect 60 0 61 0;
#X connect 61 0 51 0;
#X connect 62 0 37 0;
#X connect 63 0 67 0;
#X connect 63 1 67 1;
#X connect 64 0 18 0;
#X connect 65 0 64 1;
#X connect 66 0 40 0;
#X connect 66 0 140 0;
#X connect 67 0 322 0;
#X connect 68 0 69 0;
#X connect 68 1 69 1;
#X connect 69 0 325 0;
#X connect 70 0 56 0;
#X connect 70 0 62 0;
#X connect 70 0 366 0;
#X connect 70 0 375 0;
#X connect 70 0 478 0;
#X connect 70 0 490 0;
#X connect 70 0 491 0;
#X connect 71 0 327 0;
#X connect 72 0 87 0;
#X connect 73 0 21 0;
#X connect 73 0 21 1;
#X connect 73 0 134 0;
#X connect 74 0 75 0;
#X connect 75 0 324 0;
#X connect 76 0 324 0;
#X connect 77 0 76 0;
#X connect 78 0 81 0;
#X connect 79 0 81 0;
#X connect 80 0 81 0;
#X connect 81 0 57 0;
#X connect 82 0 85 0;
#X connect 83 0 85 0;
#X connect 84 0 85 0;
#X connect 85 0 344 0;
#X connect 86 0 10 0;
#X connect 87 0 7 0;
#X connect 87 0 8 0;
#X connect 88 0 136 0;
#X connect 88 0 153 1;
#X connect 89 0 136 0;
#X connect 89 0 153 1;
#X connect 90 0 127 0;
#X connect 90 0 129 0;
#X connect 90 0 128 0;
#X connect 91 0 98 1;
#X connect 92 0 58 1;
#X connect 93 0 98 0;
#X connect 93 0 96 0;
#X connect 93 0 95 0;
#X connect 93 0 97 0;
#X connect 94 0 58 0;
#X connect 94 0 52 0;
#X connect 94 0 78 0;
#X connect 94 0 82 0;
#X connect 95 0 81 0;
#X connect 96 0 55 0;
#X connect 97 0 85 0;
#X connect 98 0 61 0;
#X connect 99 0 89 0;
#X connect 100 0 88 0;
#X connect 101 0 90 0;
#X connect 101 0 314 0;
#X connect 101 0 240 0;
#X connect 102 0 132 0;
#X connect 103 0 132 0;
#X connect 104 0 132 0;
#X connect 105 0 147 0;
#X connect 106 0 147 0;
#X connect 107 0 147 0;
#X connect 108 0 111 0;
#X connect 109 0 111 0;
#X connect 110 0 111 0;
#X connect 111 0 297 0;
#X connect 112 0 147 0;
#X connect 113 0 132 0;
#X connect 114 0 113 0;
#X connect 114 0 112 0;
#X connect 114 0 116 0;
#X connect 114 0 125 0;
#X connect 114 0 120 0;
#X connect 114 0 372 0;
#X connect 115 0 102 0;
#X connect 115 0 105 0;
#X connect 115 0 108 0;
#X connect 115 0 121 0;
#X connect 115 0 117 0;
#X connect 115 0 368 0;
#X connect 116 0 111 0;
#X connect 117 0 133 0;
#X connect 118 0 133 0;
#X connect 119 0 133 0;
#X connect 120 0 133 0;
#X connect 121 0 124 0;
#X connect 122 0 124 0;
#X connect 123 0 124 0;
#X connect 124 0 323 0;
#X connect 125 0 124 0;
#X connect 126 0 10 1;
#X connect 127 0 73 1;
#X connect 128 0 73 3;
#X connect 129 0 73 2;
#X connect 130 0 28 1;
#X connect 131 0 87 1;
#X connect 132 0 327 0;
#X connect 133 0 324 0;
#X connect 135 0 144 0;
#X connect 136 0 137 0;
#X connect 137 0 149 0;
#X connect 138 0 139 0;
#X connect 139 0 41 0;
#X connect 140 0 17 0;
#X connect 141 0 142 0;
#X connect 142 0 143 0;
#X connect 143 0 135 0;
#X connect 144 0 145 0;
#X connect 145 0 146 0;
#X connect 146 0 18 0;
#X connect 146 0 153 1;
#X connect 147 0 326 0;
#X connect 148 0 8 1;
#X connect 149 0 150 0;
#X connect 150 0 138 0;
#X connect 151 0 26 1;
#X connect 152 0 27 0;
#X connect 153 0 15 0;
#X connect 154 0 171 1;
#X connect 155 0 154 0;
#X connect 156 0 155 0;
#X connect 156 1 155 1;
#X connect 157 0 170 1;
#X connect 158 0 162 0;
#X connect 158 1 162 1;
#X connect 159 0 222 0;
#X connect 160 0 192 0;
#X connect 161 0 236 0;
#X connect 162 0 157 0;
#X connect 163 0 223 0;
#X connect 164 0 181 0;
#X connect 165 0 166 0;
#X connect 165 0 167 0;
#X connect 168 0 179 0;
#X connect 169 0 280 0;
#X connect 170 0 288 0;
#X connect 171 0 288 0;
#X connect 172 0 193 0;
#X connect 173 0 172 0;
#X connect 173 1 172 1;
#X connect 175 0 213 0;
#X connect 176 0 175 1;
#X connect 177 0 176 0;
#X connect 178 0 177 0;
#X connect 178 1 177 1;
#X connect 179 0 291 0;
#X connect 179 0 292 0;
#X connect 180 0 195 0;
#X connect 181 0 160 0;
#X connect 182 0 183 0;
#X connect 182 0 187 0;
#X connect 183 0 196 0;
#X connect 184 0 221 0;
#X connect 185 0 197 1;
#X connect 185 0 162 0;
#X connect 185 0 172 0;
#X connect 185 0 155 0;
#X connect 185 0 177 0;
#X connect 186 0 189 0;
#X connect 187 0 188 0;
#X connect 188 0 186 0;
#X connect 189 0 331 0;
#X connect 190 0 191 0;
#X connect 191 0 158 0;
#X connect 192 0 161 0;
#X connect 193 0 169 1;
#X connect 194 0 214 0;
#X connect 195 0 169 0;
#X connect 195 0 175 0;
#X connect 195 0 182 0;
#X connect 196 0 184 0;
#X connect 197 0 294 0;
#X connect 203 0 178 0;
#X connect 204 0 207 0;
#X connect 205 0 207 0;
#X connect 206 0 207 0;
#X connect 207 0 346 0;
#X connect 208 0 173 0;
#X connect 209 0 212 0;
#X connect 210 0 212 0;
#X connect 211 0 212 0;
#X connect 212 0 203 0;
#X connect 212 0 396 0;
#X connect 213 0 171 0;
#X connect 214 0 213 1;
#X connect 215 0 194 0;
#X connect 215 0 280 0;
#X connect 216 0 488 0;
#X connect 217 0 329 0;
#X connect 218 0 219 0;
#X connect 218 1 219 1;
#X connect 219 0 332 0;
#X connect 220 0 208 0;
#X connect 220 0 397 0;
#X connect 220 0 399 0;
#X connect 220 0 459 0;
#X connect 220 0 478 0;
#X connect 221 0 334 0;
#X connect 222 0 237 0;
#X connect 223 0 301 0;
#X connect 224 0 225 0;
#X connect 225 0 331 0;
#X connect 226 0 331 0;
#X connect 227 0 226 0;
#X connect 228 0 231 0;
#X connect 229 0 231 0;
#X connect 230 0 231 0;
#X connect 231 0 398 0;
#X connect 232 0 235 0;
#X connect 233 0 235 0;
#X connect 234 0 235 0;
#X connect 235 0 348 0;
#X connect 236 0 163 0;
#X connect 237 0 160 0;
#X connect 238 0 276 0;
#X connect 238 0 294 1;
#X connect 239 0 276 0;
#X connect 239 0 294 1;
#X connect 240 0 403 0;
#X connect 240 0 405 0;
#X connect 240 0 404 0;
#X connect 240 0 402 0;
#X connect 241 0 246 0;
#X connect 241 0 244 0;
#X connect 241 0 243 0;
#X connect 241 0 245 0;
#X connect 241 0 354 0;
#X connect 242 0 209 0;
#X connect 242 0 204 0;
#X connect 242 0 228 0;
#X connect 242 0 232 0;
#X connect 242 0 350 0;
#X connect 243 0 231 0;
#X connect 244 0 207 0;
#X connect 245 0 235 0;
#X connect 246 0 212 0;
#X connect 247 0 239 0;
#X connect 248 0 238 0;
#X connect 249 0 273 0;
#X connect 250 0 273 0;
#X connect 251 0 273 0;
#X connect 252 0 287 0;
#X connect 253 0 287 0;
#X connect 254 0 287 0;
#X connect 255 0 258 0;
#X connect 256 0 258 0;
#X connect 257 0 258 0;
#X connect 258 0 216 0;
#X connect 259 0 287 0;
#X connect 260 0 273 0;
#X connect 261 0 260 0;
#X connect 261 0 259 0;
#X connect 261 0 263 0;
#X connect 261 0 272 0;
#X connect 261 0 267 0;
#X connect 262 0 249 0;
#X connect 262 0 252 0;
#X connect 262 0 255 0;
#X connect 262 0 268 0;
#X connect 262 0 264 0;
#X connect 263 0 258 0;
#X connect 264 0 274 0;
#X connect 265 0 274 0;
#X connect 266 0 274 0;
#X connect 267 0 274 0;
#X connect 268 0 271 0;
#X connect 269 0 271 0;
#X connect 270 0 271 0;
#X connect 271 0 330 0;
#X connect 272 0 271 0;
#X connect 273 0 334 0;
#X connect 274 0 331 0;
#X connect 275 0 284 0;
#X connect 276 0 277 0;
#X connect 277 0 289 0;
#X connect 278 0 279 0;
#X connect 279 0 195 0;
#X connect 280 0 170 0;
#X connect 281 0 282 0;
#X connect 282 0 283 0;
#X connect 283 0 275 0;
#X connect 283 0 294 1;
#X connect 284 0 285 0;
#X connect 285 0 286 0;
#X connect 286 0 171 0;
#X connect 287 0 333 0;
#X connect 288 0 161 1;
#X connect 289 0 290 0;
#X connect 290 0 278 0;
#X connect 291 0 179 1;
#X connect 292 0 180 0;
#X connect 294 0 168 0;
#X connect 296 0 86 0;
#X connect 297 0 296 1;
#X connect 298 0 296 2;
#X connect 299 0 296 4;
#X connect 300 0 296 3;
#X connect 301 0 295 0;
#X connect 301 0 174 1;
#X connect 301 0 174 0;
#X connect 302 0 312 0;
#X connect 304 0 313 0;
#X connect 306 0 304 0;
#X connect 306 1 305 0;
#X connect 307 0 302 0;
#X connect 307 1 303 0;
#X connect 308 0 309 0;
#X connect 309 0 126 0;
#X connect 310 0 311 0;
#X connect 311 0 402 0;
#X connect 312 0 316 0;
#X connect 313 0 315 0;
#X connect 314 0 126 0;
#X connect 314 0 297 0;
#X connect 314 0 299 0;
#X connect 314 0 408 0;
#X connect 314 0 410 0;
#X connect 315 0 308 0;
#X connect 316 0 310 0;
#X connect 318 0 51 0;
#X connect 319 0 320 0;
#X connect 320 0 136 0;
#X connect 320 0 276 1;
#X connect 320 0 294 1;
#X connect 320 0 153 1;
#X connect 322 0 32 0;
#X connect 322 0 30 1;
#X connect 323 0 63 0;
#X connect 324 0 67 0;
#X connect 325 0 34 1;
#X connect 325 0 11 0;
#X connect 325 0 6 0;
#X connect 326 0 68 0;
#X connect 327 0 69 0;
#X connect 329 0 185 0;
#X connect 329 0 183 1;
#X connect 330 0 355 0;
#X connect 331 0 217 0;
#X connect 332 0 187 1;
#X connect 332 0 164 0;
#X connect 332 0 159 0;
#X connect 333 0 218 0;
#X connect 334 0 219 0;
#X connect 335 0 60 0;
#X connect 335 0 54 0;
#X connect 335 0 80 0;
#X connect 335 0 84 0;
#X connect 336 0 59 0;
#X connect 336 0 53 0;
#X connect 336 0 79 0;
#X connect 336 0 83 0;
#X connect 337 0 103 0;
#X connect 337 0 106 0;
#X connect 337 0 109 0;
#X connect 337 0 122 0;
#X connect 337 0 118 0;
#X connect 337 0 369 0;
#X connect 338 0 211 0;
#X connect 338 0 206 0;
#X connect 338 0 230 0;
#X connect 338 0 234 0;
#X connect 338 0 352 0;
#X connect 339 0 210 0;
#X connect 339 0 205 0;
#X connect 339 0 229 0;
#X connect 339 0 233 0;
#X connect 339 0 351 0;
#X connect 340 0 251 0;
#X connect 340 0 254 0;
#X connect 340 0 257 0;
#X connect 340 0 270 0;
#X connect 340 0 266 0;
#X connect 341 0 250 0;
#X connect 341 0 253 0;
#X connect 341 0 256 0;
#X connect 341 0 269 0;
#X connect 341 0 265 0;
#X connect 342 0 343 0;
#X connect 343 0 56 0;
#X connect 344 0 345 0;
#X connect 345 0 62 0;
#X connect 346 0 347 0;
#X connect 347 0 208 0;
#X connect 347 0 397 0;
#X connect 348 0 349 0;
#X connect 349 0 399 0;
#X connect 350 0 353 0;
#X connect 351 0 353 0;
#X connect 352 0 353 0;
#X connect 353 0 408 0;
#X connect 354 0 353 0;
#X connect 355 0 217 0;
#X connect 355 1 217 1;
#X connect 356 0 364 0;
#X connect 356 0 447 0;
#X connect 357 0 104 0;
#X connect 357 0 107 0;
#X connect 357 0 110 0;
#X connect 357 0 123 0;
#X connect 357 0 119 0;
#X connect 357 0 370 0;
#X connect 358 0 359 0;
#X connect 359 0 377 1;
#X connect 360 0 361 0;
#X connect 361 0 488 0;
#X connect 363 0 141 0;
#X connect 363 0 89 1;
#X connect 364 0 43 0;
#X connect 364 0 135 0;
#X connect 365 0 36 1;
#X connect 366 0 71 1;
#X connect 367 0 489 0;
#X connect 368 0 371 0;
#X connect 369 0 371 0;
#X connect 370 0 371 0;
#X connect 371 0 367 0;
#X connect 372 0 371 0;
#X connect 373 0 374 0;
#X connect 374 0 489 0;
#X connect 375 0 373 0;
#X connect 375 0 358 0;
#X connect 377 0 8 0;
#X connect 378 0 53 1;
#X connect 379 0 54 1;
#X connect 380 0 96 1;
#X connect 381 0 52 1;
#X connect 382 0 79 1;
#X connect 383 0 80 1;
#X connect 384 0 95 1;
#X connect 385 0 78 1;
#X connect 386 0 83 1;
#X connect 387 0 84 1;
#X connect 388 0 97 1;
#X connect 389 0 82 1;
#X connect 390 0 109 1;
#X connect 391 0 110 1;
#X connect 392 0 116 1;
#X connect 393 0 108 1;
#X connect 394 0 210 1;
#X connect 395 0 211 1;
#X connect 396 0 178 0;
#X connect 397 0 173 0;
#X connect 398 0 156 0;
#X connect 399 0 190 0;
#X connect 400 0 246 1;
#X connect 401 0 209 1;
#X connect 402 0 163 1;
#X connect 403 0 223 1;
#X connect 404 0 223 3;
#X connect 405 0 223 2;
#X connect 406 0 181 1;
#X connect 407 0 237 1;
#X connect 408 0 301 1;
#X connect 409 0 301 2;
#X connect 410 0 301 4;
#X connect 411 0 301 3;
#X connect 412 0 205 1;
#X connect 413 0 206 1;
#X connect 414 0 244 1;
#X connect 415 0 204 1;
#X connect 416 0 229 1;
#X connect 417 0 230 1;
#X connect 418 0 243 1;
#X connect 419 0 228 1;
#X connect 420 0 233 1;
#X connect 421 0 234 1;
#X connect 422 0 245 1;
#X connect 423 0 232 1;
#X connect 424 0 351 1;
#X connect 425 0 352 1;
#X connect 426 0 354 1;
#X connect 427 0 350 1;
#X connect 428 0 122 1;
#X connect 429 0 123 1;
#X connect 430 0 125 1;
#X connect 431 0 121 1;
#X connect 432 0 118 1;
#X connect 433 0 119 1;
#X connect 434 0 120 1;
#X connect 435 0 117 1;
#X connect 436 0 106 1;
#X connect 437 0 107 1;
#X connect 438 0 112 1;
#X connect 439 0 105 1;
#X connect 440 0 103 1;
#X connect 441 0 104 1;
#X connect 442 0 113 1;
#X connect 443 0 102 1;
#X connect 444 0 88 1;
#X connect 444 0 141 0;
#X connect 445 0 444 0;
#X connect 445 0 76 1;
#X connect 445 0 88 1;
#X connect 446 0 363 0;
#X connect 446 0 75 1;
#X connect 446 0 89 1;
#X connect 447 0 197 0;
#X connect 447 0 275 0;
#X connect 448 0 369 1;
#X connect 449 0 370 1;
#X connect 450 0 372 1;
#X connect 451 0 368 1;
#X connect 458 0 189 1;
#X connect 459 0 221 1;
#X connect 460 0 265 1;
#X connect 461 0 266 1;
#X connect 462 0 267 1;
#X connect 463 0 264 1;
#X connect 464 0 250 1;
#X connect 465 0 251 1;
#X connect 466 0 260 1;
#X connect 467 0 249 1;
#X connect 468 0 253 1;
#X connect 469 0 254 1;
#X connect 470 0 259 1;
#X connect 471 0 252 1;
#X connect 472 0 269 1;
#X connect 473 0 270 1;
#X connect 474 0 272 1;
#X connect 475 0 268 1;
#X connect 477 0 239 1;
#X connect 477 0 281 0;
#X connect 478 0 192 1;
#X connect 478 0 360 0;
#X connect 479 0 238 1;
#X connect 479 0 281 0;
#X connect 480 0 479 0;
#X connect 480 0 238 1;
#X connect 480 0 226 1;
#X connect 480 0 281 0;
#X connect 481 0 477 0;
#X connect 481 0 239 1;
#X connect 481 0 225 1;
#X connect 481 0 281 0;
#X connect 482 0 256 1;
#X connect 483 0 257 1;
#X connect 484 0 263 1;
#X connect 485 0 255 1;
#X connect 488 0 192 1;
#X connect 489 0 377 1;
#X connect 490 0 323 0;
#X connect 490 0 326 0;
#X connect 490 0 330 0;
#X connect 490 0 333 0;
#X connect 491 0 324 0;
#X connect 491 0 331 0;
#X coords 0 -1 1 1 385 420 2 100 10;
