#N canvas 35 54 1645 916 12;
#X msg -324 338 record;
#X obj -344 315 bng 15 250 50 0 empty empty empty 17 7 0 10 -262144
-1 -1;
#X obj -284 600 pack;
#X obj -344 292 sel;
#X obj -325 315 bng 15 250 50 0 empty empty empty 17 7 0 10 -262144
-1 -1;
#X floatatom -347 267 5 0 0 0 - - -;
#X obj 153 102 tgl 28 0 empty empty ↺ 5 12 2 28 -1 -262144 -262144
0 1;
#X obj 128 130 bng 28 250 50 0 empty empty ► 9 15 1 14 -1 -262144
-262144;
#X obj -176 287 bng 15 250 50 0 empty empty empty 17 7 0 10 -262144
-1 -1;
#X obj -165 308 spigot-toggle_violet;
#X obj 217 11 r lo;
#X floatatom -296 723 7 0 0 0 - - -;
#X obj 128 102 tgl 28 0 empty empty rec 6 14 0 10 -260097 -1 -1 0 1
;
#X obj 100 131 bng 28 250 50 0 empty empty ○ 7 13 1 25 -1 -262144
-262144;
#X obj -138 310 sel;
#X obj 268 125 sel;
#X obj -291 630 cyclone/midiformat;
#X obj 145 447 bng 15 250 50 0 empty empty empty 17 7 0 10 -262144
-1 -1;
#X msg 146 474 0;
#X obj -294 697 * 1;
#X obj -295 774 sel 64;
#X obj -260 801 bng 15 250 50 0 empty empty empty 17 7 0 10 -262144
-1 -1;
#X obj -296 800 bng 15 250 50 0 empty empty empty 17 7 0 10 -262144
-1 -1;
#X obj 155 130 tgl 28 0 empty empty ■ 4 13 1 36 -1 -262144 -262144
0 1;
#X msg 136 32 0;
#X obj -292 663 cyclone/seq seq9.mid;
#X floatatom 231 772 5 0 0 0 - - -;
#X floatatom 177 772 5 0 0 0 - - -;
#X floatatom 256 715 5 0 0 0 - - -;
#X floatatom 197 716 5 0 0 0 - - -;
#X obj 210 591 f;
#X obj 240 591 + 1;
#X obj 238 743 f;
#X obj 206 663 bng 15 250 50 0 empty empty empty 17 7 0 10 -262144
-1 -1;
#X obj 311 660 r lo;
#X obj 213 851 pack \$1 \$2;
#X obj 212 874 line;
#X floatatom 285 831 5 0 0 0 - - -;
#X floatatom 209 896 5 0 0 0 - - -;
#X obj 232 663 bng 15 250 50 0 empty empty empty 17 7 0 10 -262144
-1 -1;
#X obj -88 948 outlet;
#X obj 304 793 inlet;
#X obj 549 645 inlet;
#X floatatom 556 687 5 0 0 0 - - -;
#X msg 191 471 64;
#X obj 213 928 hsl 128 15 -1 1 0 0 empty empty empty -2 -8 0 10 -262144
-1 -1 10378 1;
#X msg 199 684 1;
#X msg 259 693 -1;
#X obj 339 696 - 1;
#X obj 339 717 * -1;
#X obj 209 613 mod 2;
#X obj 180 742 f;
#X obj 208 639 sel 0 1;
#X obj -91 897 spigot-toggle_violet;
#X obj -125 370 - 1;
#X obj -124 399 * -1;
#X text 171 547 manual;
#X text 4 519 record;
#X obj -228 711 unpack;
#X floatatom -164 728 7 0 0 0 - - -;
#X floatatom -236 739 7 0 0 0 - - -;
#X connect 0 0 25 0;
#X connect 1 0 25 0;
#X connect 2 0 16 0;
#X connect 3 0 1 0;
#X connect 3 1 4 0;
#X connect 4 0 0 0;
#X connect 5 0 3 0;
#X connect 6 0 9 1;
#X connect 6 0 14 0;
#X connect 7 0 25 0;
#X connect 8 0 9 0;
#X connect 9 0 7 0;
#X connect 10 0 6 0;
#X connect 10 0 24 0;
#X connect 11 0 20 0;
#X connect 12 0 5 0;
#X connect 12 0 15 0;
#X connect 13 0 17 0;
#X connect 14 1 8 0;
#X connect 15 0 7 0;
#X connect 16 0 25 0;
#X connect 17 0 18 0;
#X connect 17 0 44 0;
#X connect 17 0 30 0;
#X connect 18 0 2 0;
#X connect 19 0 11 0;
#X connect 20 0 22 0;
#X connect 20 1 21 0;
#X connect 21 0 30 0;
#X connect 22 0 30 0;
#X connect 23 0 54 0;
#X connect 24 0 23 0;
#X connect 25 0 19 0;
#X connect 25 0 58 0;
#X connect 25 1 8 0;
#X connect 26 0 35 0;
#X connect 27 0 35 0;
#X connect 28 0 32 1;
#X connect 29 0 51 1;
#X connect 30 0 31 0;
#X connect 30 0 50 0;
#X connect 31 0 30 1;
#X connect 32 0 26 0;
#X connect 33 0 51 0;
#X connect 34 0 47 0;
#X connect 34 0 46 0;
#X connect 35 0 36 0;
#X connect 36 0 38 0;
#X connect 37 0 35 1;
#X connect 38 0 45 0;
#X connect 38 0 53 0;
#X connect 39 0 32 0;
#X connect 41 0 37 0;
#X connect 42 0 43 0;
#X connect 42 0 17 0;
#X connect 43 0 48 0;
#X connect 43 0 29 0;
#X connect 44 0 2 1;
#X connect 46 0 29 0;
#X connect 46 0 43 0;
#X connect 47 0 28 0;
#X connect 48 0 49 0;
#X connect 49 0 28 0;
#X connect 50 0 52 0;
#X connect 51 0 27 0;
#X connect 52 0 33 0;
#X connect 52 1 39 0;
#X connect 53 0 40 0;
#X connect 54 0 55 0;
#X connect 55 0 53 1;
#X connect 58 0 60 0;
#X connect 58 1 59 0;
#X coords 0 -1 1 1 83 59 2 100 100;
