#N canvas 0 112 1645 916 12;
#X obj 100 100 cnv 15 83 63 empty empty empty 20 12 0 14 -1 -66577
0;
#X msg -286 13 record;
#X obj -306 -10 bng 15 250 50 0 empty empty empty 17 7 0 10 -262144
-1 -1;
#X obj -579 555 pack;
#X floatatom -567 525 5 0 0 0 - - -;
#X floatatom -564 495 5 0 0 0 - - -;
#X obj -540 578 cyclone/midiformat;
#X obj -306 -33 sel;
#X obj -287 -10 bng 15 250 50 0 empty empty empty 17 7 0 10 -262144
-1 -1;
#X floatatom -309 -58 5 0 0 0 - - -;
#X obj 156 128 tgl 20 0 empty empty ↺ 4 9 2 22 -1 -260097 -260097
0 1;
#X obj 133 119 bng 20 250 50 0 empty empty ► 5 10 1 14 -1 -262144
-262144;
#X obj -267 593 bng 15 250 50 0 empty empty empty 17 7 0 10 -262144
-1 -1;
#X obj -264 614 spigot-toggle_violet;
#X obj -570 267 f;
#X floatatom -519 297 5 0 0 0 - - -;
#X floatatom -573 297 5 0 0 0 - - -;
#X floatatom -494 240 5 0 0 0 - - -;
#X floatatom -553 241 5 0 0 0 - - -;
#X obj -540 116 f;
#X obj -510 116 + 1;
#X obj -542 158 sel;
#X obj -512 268 f;
#X obj -567 178 bng 15 250 50 0 empty empty empty 17 7 0 10 -262144
-1 -1;
#X obj -541 138 mod 2;
#X obj -552 463 * 100;
#X obj -624 208 r lo;
#X obj 220 502 spigot-toggle_violet;
#X obj 156 106 tgl 20 0 empty empty ■ 0 9 1 36 -1 -260097 -260097
1 1;
#X obj 249 479 r lo;
#X floatatom -546 429 5 0 0 0 - - -;
#X floatatom -533 731 7 0 0 0 - - -;
#X obj -500 175 bng 15 250 50 0 empty empty empty 17 7 0 10 -262144
-1 -1;
#X obj 108 106 tgl 20 0 empty empty REC 2 10 0 8 -260097 -1 -1 0 1
;
#X obj 108 128 bng 20 250 50 0 empty empty ○ 3 9 1 25 -1 -262144
-262144;
#X obj 209 557 outlet;
#X obj 236 109 - 1;
#X obj 236 130 * -1;
#X obj -280 566 sel;
#X obj 205 311 inlet;
#X floatatom 206 352 5 0 0 0 - - -;
#X obj 222 71 sel;
#X msg 201 128 0;
#X msg -551 219 0.25;
#X msg -491 217 0.75;
#X obj 185 35 r lo;
#X obj 218 529 * 100;
#X obj -535 693 / 100;
#X obj -551 638 cyclone/seq seq8.mid;
#X obj 139 407 * 1;
#X connect 1 0 48 0;
#X connect 2 0 48 0;
#X connect 3 0 6 0;
#X connect 4 0 6 0;
#X connect 4 0 3 0;
#X connect 5 0 3 1;
#X connect 5 0 4 0;
#X connect 6 0 48 0;
#X connect 7 0 2 0;
#X connect 7 1 8 0;
#X connect 8 0 1 0;
#X connect 9 0 7 0;
#X connect 10 0 13 1;
#X connect 11 0 48 0;
#X connect 12 0 13 0;
#X connect 13 0 11 0;
#X connect 14 0 16 0;
#X connect 15 0 30 0;
#X connect 16 0 30 0;
#X connect 17 0 22 1;
#X connect 18 0 14 1;
#X connect 19 0 20 0;
#X connect 19 0 24 0;
#X connect 20 0 19 1;
#X connect 21 0 23 0;
#X connect 21 1 32 0;
#X connect 22 0 15 0;
#X connect 23 0 14 0;
#X connect 24 0 21 0;
#X connect 25 0 5 0;
#X connect 26 0 44 0;
#X connect 26 0 43 0;
#X connect 27 0 46 0;
#X connect 28 0 36 0;
#X connect 29 0 27 1;
#X connect 30 0 25 0;
#X connect 30 0 35 0;
#X connect 31 0 35 0;
#X connect 32 0 22 0;
#X connect 33 0 9 0;
#X connect 33 0 41 0;
#X connect 34 0 19 0;
#X connect 36 0 37 0;
#X connect 37 0 27 1;
#X connect 37 0 38 0;
#X connect 38 1 12 0;
#X connect 39 0 40 0;
#X connect 40 0 35 0;
#X connect 40 0 49 0;
#X connect 41 0 42 0;
#X connect 41 0 11 0;
#X connect 42 0 28 0;
#X connect 43 0 18 0;
#X connect 44 0 17 0;
#X connect 45 0 10 0;
#X connect 46 0 35 0;
#X connect 47 0 31 0;
#X connect 48 0 47 0;
#X connect 48 1 12 0;
#X connect 49 0 25 0;
#X coords 0 -1 1 1 84 64 2 100 100;
