#N canvas 0 112 1645 916 12;
#X obj 100 100 cnv 15 76 63 empty empty empty 20 12 0 14 -1 -66577
0;
#X msg -473 543 record;
#X floatatom -362 188 5 0 0 0 - - -;
#X obj -493 520 bng 15 250 50 0 empty empty empty 17 7 0 10 -262144
-1 -1;
#X obj -534 552 pack;
#X floatatom -540 521 5 0 0 0 - - -;
#X floatatom -540 495 5 0 0 0 - - -;
#X obj -540 578 cyclone/midiformat;
#X obj -493 497 sel;
#X obj -474 520 bng 15 250 50 0 empty empty empty 17 7 0 10 -262144
-1 -1;
#X floatatom -496 472 5 0 0 0 - - -;
#X obj 150 128 tgl 20 0 empty empty ↺ 4 9 2 22 -1 -262144 -262144
1 1;
#X obj 129 108 bng 20 250 50 0 empty empty ► 4 10 1 14 -1 -262144
-262144;
#X obj 130 128 tgl 20 0 empty empty >< 4 8 1 11 -1 -262144 -262144
1 1;
#X obj 157 151 tgl 12 0 empty empty MIDI -1 5 1 6 -1 -262144 -262144
0 1;
#X obj -762 65 notein;
#X obj -769 98 spigot-toggle_violet;
#X obj -747 98 spigot-toggle_violet;
#X obj -742 144 sel;
#X obj -749 122 == 64;
#X floatatom -786 123 5 0 0 0 - - -;
#X obj -783 144 - 0;
#X obj -413 667 bng 15 250 50 0 empty empty empty 17 7 0 10 -262144
-1 -1;
#X obj -24 575 spigot-toggle_violet;
#X obj -570 267 f;
#X floatatom -519 297 5 0 0 0 - - -;
#X floatatom -573 297 5 0 0 0 - - -;
#X floatatom -494 240 5 0 0 0 - - -;
#X floatatom -553 241 5 0 0 0 - - -;
#X obj -540 116 f;
#X obj -510 116 + 1;
#X obj -542 158 sel;
#X obj -512 268 f;
#X obj -567 178 bng 15 250 50 0 empty empty empty 17 7 0 10 -262144
-1 -1;
#X obj -541 138 mod 2;
#X obj -777 266 f;
#X obj -750 267 + 1;
#X obj -778 306 sel;
#X obj -777 286 mod 2;
#X obj -778 325 bng 15 250 50 0 empty empty empty 17 7 0 10 -262144
-1 -1;
#X obj -776 241 spigot-toggle_violet;
#X obj -766 191 - 1;
#X obj -765 217 * -1;
#X obj -540 473 * 100;
#X obj -535 692 / 100;
#X obj -624 208 r lo;
#X obj -537 376 pack \$1 \$2;
#X obj -538 399 line;
#X floatatom -465 356 5 0 0 0 - - -;
#X obj -102 447 spigot-toggle_violet;
#X obj 150 108 tgl 20 0 empty empty ■ 0 9 1 36 -1 -262144 -262144
0 1;
#X obj 127 6 r lo;
#X floatatom -546 429 5 0 0 0 - - -;
#X obj -516 320 spigot-toggle_violet;
#X floatatom -533 731 7 0 0 0 - - -;
#X obj -500 175 bng 15 250 50 0 empty empty empty 17 7 0 10 -262144
-1 -1;
#X obj 107 150 tgl 12 0 empty empty A 3 6 1 8 -1 -262144 -260097 0
1;
#X obj -370 77 spigot-toggle_orange;
#X obj 119 150 tgl 12 0 empty empty B 3 6 1 8 -1 -262144 -260097 0
1;
#X obj -313 77 spigot-toggle_orange;
#X obj -259 77 spigot-toggle_orange;
#X obj -202 77 spigot-toggle_orange;
#X obj -259 23 r a';
#X obj -202 23 r b';
#X obj 143 150 tgl 12 0 empty empty ''b 1 6 1 8 -1 -262144 -260097
0 1;
#X obj 131 150 tgl 12 0 empty empty ''a 1 6 1 8 -1 -262144 -260097
0 1;
#X obj -370 47 * 1;
#X obj -315 47 * 1;
#X obj -259 47 * 1;
#X obj -202 47 * 1;
#X obj 108 108 tgl 20 0 empty empty REC 2 10 0 8 -260097 -1 -1 0 1
;
#X obj 107 128 bng 20 250 50 0 empty empty ○ 3 9 1 25 -1 -260097
-260097;
#X msg -551 221 0.75;
#X msg -491 219 0.25;
#X obj 33 492 outlet;
#X obj -91 366 - 1;
#X obj -91 387 * -1;
#X obj -384 309 inlet;
#X obj -280 566 sel;
#X obj 131 314 inlet;
#X floatatom 129 340 5 0 0 0 - - -;
#X obj -370 23 r A;
#X obj -314 23 r B;
#X obj 222 71 sel;
#X msg 201 129 0;
#X msg 274 78 0;
#X obj -551 638 cyclone/seq seq4.mid;
#X connect 1 0 86 0;
#X connect 2 0 46 0;
#X connect 3 0 86 0;
#X connect 4 0 7 0;
#X connect 5 0 7 0;
#X connect 5 0 4 0;
#X connect 6 0 4 1;
#X connect 6 0 5 0;
#X connect 7 0 86 0;
#X connect 8 0 3 0;
#X connect 8 1 9 0;
#X connect 9 0 1 0;
#X connect 10 0 8 0;
#X connect 11 0 23 1;
#X connect 12 0 86 0;
#X connect 13 0 53 1;
#X connect 14 0 17 1;
#X connect 14 0 16 1;
#X connect 15 0 16 0;
#X connect 15 1 17 0;
#X connect 16 0 20 0;
#X connect 17 0 19 0;
#X connect 19 0 18 0;
#X connect 20 0 21 0;
#X connect 22 0 23 0;
#X connect 23 0 12 0;
#X connect 24 0 26 0;
#X connect 25 0 53 0;
#X connect 26 0 46 0;
#X connect 27 0 32 1;
#X connect 28 0 24 1;
#X connect 29 0 30 0;
#X connect 29 0 34 0;
#X connect 30 0 29 1;
#X connect 31 0 33 0;
#X connect 31 1 55 0;
#X connect 32 0 25 0;
#X connect 33 0 24 0;
#X connect 34 0 31 0;
#X connect 35 0 36 0;
#X connect 35 0 38 0;
#X connect 36 0 35 1;
#X connect 37 0 39 0;
#X connect 38 0 37 0;
#X connect 39 0 29 0;
#X connect 40 0 35 0;
#X connect 41 0 42 0;
#X connect 42 0 40 1;
#X connect 43 0 6 0;
#X connect 44 0 54 0;
#X connect 45 0 73 0;
#X connect 45 0 72 0;
#X connect 46 0 47 0;
#X connect 47 0 52 0;
#X connect 48 0 46 1;
#X connect 49 0 74 0;
#X connect 50 0 75 0;
#X connect 51 0 13 0;
#X connect 51 0 11 0;
#X connect 51 0 49 1;
#X connect 52 0 43 0;
#X connect 52 0 49 0;
#X connect 53 0 46 0;
#X connect 54 0 46 0;
#X connect 55 0 32 0;
#X connect 56 0 57 1;
#X connect 57 0 2 0;
#X connect 58 0 59 1;
#X connect 59 0 2 0;
#X connect 60 0 2 0;
#X connect 61 0 2 0;
#X connect 62 0 68 0;
#X connect 63 0 69 0;
#X connect 64 0 61 1;
#X connect 66 0 57 0;
#X connect 67 0 59 0;
#X connect 68 0 60 0;
#X connect 69 0 61 0;
#X connect 70 0 10 0;
#X connect 70 0 83 0;
#X connect 71 0 29 0;
#X connect 72 0 28 0;
#X connect 73 0 27 0;
#X connect 75 0 76 0;
#X connect 76 0 49 1;
#X connect 76 0 78 0;
#X connect 76 0 23 1;
#X connect 77 0 48 0;
#X connect 78 1 22 0;
#X connect 79 0 80 0;
#X connect 81 0 66 0;
#X connect 82 0 67 0;
#X connect 83 0 84 0;
#X connect 83 0 12 0;
#X connect 84 0 56 0;
#X connect 84 0 58 0;
#X connect 84 0 65 0;
#X connect 84 0 64 0;
#X connect 84 0 14 0;
#X connect 86 0 44 0;
#X connect 86 1 22 0;
#X coords 0 -1 1 1 77 64 2 100 100;
