#N canvas 640 209 1280 778 10;
#X obj 246 481 f;
#X obj 304 483 f;
#X obj 247 717 bng 15 250 50 0 empty empty empty 17 7 0 10 -262144
-1 -1;
#X obj 281 54 t b b;
#X obj 296 447 bng 15 250 50 0 empty empty empty 17 7 0 10 -262144
-1 -1;
#X obj 247 440 bng 15 250 50 0 empty empty empty 17 7 0 10 -262144
-1 -1;
#X obj 191 483 f;
#X obj 191 442 bng 15 250 50 0 empty empty empty 17 7 0 10 -262144
-1 -1;
#X obj 421 36 loadbang;
#X msg 651 77 1000;
#X obj 246 602 hsl 300 8 0 1000 0 0 empty empty empty -2 -8 0 10 -1
-258113 -1 26328 1;
#X obj 242 619 select 1000;
#X obj 241 652 delay 10;
#X obj 245 684 delay 10;
#X msg 373 449 1e+12;
#X floatatom 782 332 5 0 0 0 - - -, f 5;
#X floatatom 834 464 12 0 0 0 - - -, f 12;
#X obj 836 492 * 1;
#X floatatom 810 624 12 0 0 0 - - -, f 12;
#X obj 243 560 line;
#X obj 283 33 delay 2;
#X obj 289 3 bng 15 250 50 0 empty empty empty 17 7 0 10 -262144 -1
-1;
#X msg 737 190 9999;
#X floatatom 836 306 5 0 0 0 - - -, f 5;
#X floatatom 835 349 5 0 0 0 - - -, f 5;
#X obj -12 112 r nbrdebit;
#X obj -9 241 t b f;
#X obj -6 281 * 1;
#X obj 777 562 f;
#X obj 834 282 - 0;
#X obj 642 504 f;
#X obj 599 490 bng 15 250 50 0 empty empty empty 17 7 0 10 -262144
-1 -1;
#X obj 537 217 delay 100;
#X obj 381 -106 r B;
#X obj 371 -39 spigot-toggle_violet;
#X obj -7 213 spigot-toggle_violet;
#X floatatom 886 306 5 0 0 0 - - -, f 5;
#X obj 244 529 pack f f;
#X obj 829 258 t b f;
#X obj 836 324 * 0.001;
#X obj 834 376 * 1;
#X obj 99 577 s line_pause;
#X obj 373 -64 * 100;
#X obj 415 -35 spigot-toggle_violet;
#X obj 414 -62 * 100;
#X obj 422 -104 r A;
#X obj 502 68 delay 300;
#X obj 4 506 f;
#X obj 7 475 bng 15 250 50 0 empty empty empty 17 7 0 10 -262144 -1
-1;
#X obj 42 173 spigot-toggle_violet;
#X obj 813 656 + 1;
#X obj 414 -10 + 1;
#X obj 369 -13 + 1;
#X obj 627 605 inlet;
#X floatatom 728 715 12 0 0 0 - - -, f 12;
#X obj 601 642 bng 15 250 50 0 empty empty empty 17 7 0 10 -262144
-1 -1;
#X obj 641 642 sel;
#X msg 649 691 1e+11;
#X obj 459 144 r lo;
#X obj 642 421 t b b b b;
#X obj 25 386 * 0.5;
#X obj 685 469 delay 100;
#X floatatom 117 122 5 0 0 1 IN - -, f 5;
#X floatatom 306 122 5 0 0 0 OUT - -, f 5;
#X floatatom 115 175 8 0 0 2 free_lenght - -, f 8;
#X obj 180 205 bng 20 250 50 0 empty empty resume 23 11 0 12 -1 -260097
-1;
#X floatatom 310 194 5 0 0 0 /X - -, f 5;
#X obj 332 213 tgl 15 0 empty empty B 4 9 0 12 -1 -260097 -260097 0
1;
#X floatatom 218 175 8 0 0 2 layerA.lenght - -, f 8;
#X obj 113 205 bng 20 250 50 0 empty empty pause 23 8 0 11 -1 -260097
-1;
#X floatatom 184 122 8 0 0 0 - - -, f 8;
#X obj 194 175 tgl 15 0 empty empty << 2 7 0 10 -262144 -1 -1 0 1;
#X obj 121 137 hsl 220 10 0 1000 0 0 empty empty empty -2 -8 0 10 -262144
-1 -1 0 1;
#X obj 121 148 hsl 220 10 0 1000 0 0 empty empty empty -2 -8 0 10 -262144
-1 -1 21900 1;
#X obj 310 213 tgl 15 0 empty empty A 4 9 0 12 -1 -260097 -260097 0
1;
#X obj 22 150 r lo;
#X obj 103 27 inlet;
#X obj 108 52 sel;
#X msg 725 94 0;
#X obj 368 476 outlet;
#X msg 458 165 1000;
#X floatatom 304 -29 5 0 0 0 reposetoiX#A - reposetoiX#A, f 5;
#X floatatom 304 -45 5 0 0 0 reçoit_de_reposetoiX#A send_reposetoiX#A
-, f 5;
#X obj 2 -21 r send_reposetoinoffA;
#X obj 190 459 spigot-toggle_violet;
#X obj 245 458 spigot-toggle_violet;
#X obj 171 444 tgl 15 0 empty empty empty 17 7 0 10 -262144 -1 -1 1
1;
#X obj 215 411 r lo;
#X floatatom 729 694 12 0 0 0 - - -, f 12;
#X obj 241 580 spigot-toggle_violet;
#X msg 458 215 3;
#X obj 139 619 / 1000;
#X floatatom 47 122 5 0 0 1 IN - -, f 5;
#X floatatom 77 632 5 0 0 0 - - -, f 5;
#X obj -3 630 / 127;
#X floatatom -4 777 12 0 0 2 - - -, f 12;
#X obj -1 654 - 1;
#X obj 3 683 * -1;
#X obj 2 740 + 1;
#X obj 9 597 ctlin 48;
#X msg 98 281 0;
#X obj 4 706 * 25;
#X connect 0 0 37 0;
#X connect 1 0 37 1;
#X connect 2 0 3 0;
#X connect 3 0 5 0;
#X connect 3 1 4 0;
#X connect 4 0 1 0;
#X connect 5 0 85 0;
#X connect 6 0 19 0;
#X connect 7 0 84 0;
#X connect 8 0 9 0;
#X connect 8 0 32 0;
#X connect 8 0 22 0;
#X connect 8 0 46 0;
#X connect 9 0 63 0;
#X connect 9 0 64 0;
#X connect 10 0 11 0;
#X connect 10 0 15 0;
#X connect 10 0 91 0;
#X connect 11 0 12 0;
#X connect 12 0 7 0;
#X connect 12 0 13 0;
#X connect 12 0 31 0;
#X connect 13 0 2 0;
#X connect 14 0 1 1;
#X connect 14 0 3 0;
#X connect 15 0 38 0;
#X connect 16 0 17 1;
#X connect 17 0 18 0;
#X connect 18 0 21 0;
#X connect 18 0 28 1;
#X connect 18 0 50 0;
#X connect 19 0 89 0;
#X connect 20 0 3 0;
#X connect 21 0 20 0;
#X connect 22 0 64 0;
#X connect 23 0 39 0;
#X connect 24 0 40 0;
#X connect 25 0 35 0;
#X connect 25 0 92 0;
#X connect 26 0 27 0;
#X connect 26 1 27 1;
#X connect 27 0 68 0;
#X connect 28 0 18 0;
#X connect 29 0 23 0;
#X connect 30 0 17 0;
#X connect 31 0 30 0;
#X connect 32 0 14 0;
#X connect 32 0 48 0;
#X connect 32 0 9 0;
#X connect 33 0 42 0;
#X connect 34 0 52 0;
#X connect 35 0 26 0;
#X connect 37 0 19 0;
#X connect 38 0 29 0;
#X connect 38 1 29 1;
#X connect 39 0 24 0;
#X connect 40 0 17 1;
#X connect 42 0 34 0;
#X connect 43 0 51 0;
#X connect 44 0 43 0;
#X connect 45 0 44 0;
#X connect 46 0 48 0;
#X connect 46 0 69 0;
#X connect 47 0 64 0;
#X connect 48 0 47 0;
#X connect 49 0 64 0;
#X connect 50 0 1 1;
#X connect 51 0 66 0;
#X connect 52 0 66 0;
#X connect 53 0 55 0;
#X connect 53 0 56 0;
#X connect 53 0 88 0;
#X connect 56 0 57 0;
#X connect 57 0 54 0;
#X connect 57 0 64 0;
#X connect 58 0 80 0;
#X connect 58 0 90 0;
#X connect 59 0 31 0;
#X connect 59 1 31 0;
#X connect 59 2 31 0;
#X connect 59 3 31 0;
#X connect 59 3 61 0;
#X connect 60 0 27 0;
#X connect 61 0 31 0;
#X connect 62 0 6 1;
#X connect 62 0 31 0;
#X connect 63 0 0 1;
#X connect 63 0 11 1;
#X connect 63 0 3 0;
#X connect 63 0 29 0;
#X connect 63 0 31 0;
#X connect 64 0 30 1;
#X connect 65 0 28 0;
#X connect 66 0 31 0;
#X connect 66 0 59 0;
#X connect 66 0 60 0;
#X connect 66 0 79 0;
#X connect 66 0 81 0;
#X connect 67 0 34 1;
#X connect 68 0 49 0;
#X connect 68 0 47 1;
#X connect 69 0 14 0;
#X connect 69 0 100 0;
#X connect 70 0 41 0;
#X connect 71 0 35 1;
#X connect 71 0 49 1;
#X connect 72 0 62 0;
#X connect 73 0 63 0;
#X connect 74 0 43 1;
#X connect 75 0 49 1;
#X connect 75 0 35 1;
#X connect 76 0 77 0;
#X connect 76 0 86 0;
#X connect 77 0 69 0;
#X connect 77 1 65 0;
#X connect 78 0 19 0;
#X connect 80 0 73 0;
#X connect 82 0 66 0;
#X connect 83 0 77 0;
#X connect 84 0 13 0;
#X connect 84 0 6 0;
#X connect 85 0 0 0;
#X connect 86 0 85 1;
#X connect 86 0 84 1;
#X connect 86 0 89 1;
#X connect 89 0 10 0;
#X connect 90 0 66 0;
#X connect 91 0 70 0;
#X connect 94 0 96 0;
#X connect 95 0 66 0;
#X connect 96 0 97 0;
#X connect 97 0 101 0;
#X connect 98 0 95 0;
#X connect 99 0 94 0;
#X connect 99 1 93 0;
#X connect 100 0 91 0;
#X connect 100 0 19 0;
#X connect 101 0 98 0;
#X coords 0 -1 1 1 257 140 1 100 100;
