#N canvas 580 301 1225 778 10;
#X obj 246 481 f;
#X obj 304 483 f;
#X obj 247 717 bng 15 250 50 0 empty empty empty 17 7 0 10 -262144
-1 -1;
#X obj 281 54 t b b;
#X obj 296 447 bng 15 250 50 0 empty empty empty 17 7 0 10 -262144
-1 -1;
#X obj 247 440 bng 15 250 50 0 empty empty empty 17 7 0 10 -262144
-1 -1;
#X obj 191 483 f;
#X obj 191 442 bng 15 250 50 0 empty empty empty 17 7 0 10 -262144
-1 -1;
#X obj 690 22 loadbang;
#X msg 508 751 1000;
#X obj 246 602 hsl 300 8 0 1000 0 0 empty empty empty -2 -8 0 10 -1
-258113 -1 9258 1;
#X obj 242 619 select 1000;
#X obj 241 652 delay 10;
#X obj 245 684 delay 10;
#X msg 373 449 1e+12;
#X floatatom 799 392 5 0 0 0 - - -;
#X floatatom 834 464 12 0 0 0 - - -;
#X obj 836 492 * 1;
#X floatatom 838 525 12 0 0 0 - - -;
#X obj 243 560 line;
#X obj 283 33 delay 2;
#X obj 289 3 bng 15 250 50 0 empty empty empty 17 7 0 10 -262144 -1
-1;
#X msg 553 744 9999;
#X floatatom 853 366 5 0 0 0 - - -;
#X floatatom 852 409 5 0 0 0 - - -;
#X obj 764 854 t b f;
#X obj 766 876 * 1;
#X obj 787 524 f;
#X obj 851 342 - 0;
#X obj 147 855 f;
#X obj 147 835 bng 15 250 50 0 empty empty empty 17 7 0 10 -262144
-1 -1;
#X obj 446 752 delay 100;
#X obj -84 71 r B;
#X obj -94 138 spigot-toggle_violet;
#X obj 766 826 spigot-toggle_violet;
#X floatatom 903 366 5 0 0 0 - - -;
#X obj 244 529 pack f f;
#X obj 846 318 t b f;
#X obj 853 384 * 0.001;
#X obj 851 436 * 1;
#X obj 329 180 s line_pause;
#X obj -92 113 * 100;
#X obj -50 142 spigot-toggle_violet;
#X obj -51 115 * 100;
#X obj -43 73 r A;
#X obj 708 53 delay 300;
#X obj 648 844 f;
#X obj 651 813 bng 15 250 50 0 empty empty empty 17 7 0 10 -262144
-1 -1;
#X obj 694 838 spigot-toggle_violet;
#X obj 837 558 + 1;
#X obj -51 167 + 1;
#X obj -96 164 + 1;
#X obj 627 605 inlet;
#X floatatom 647 722 12 0 0 0 - - -;
#X obj 601 642 bng 15 250 50 0 empty empty empty 17 7 0 10 -262144
-1 -1;
#X obj 641 642 sel;
#X msg 649 691 1e+11;
#X obj 120 -145 r lo;
#X obj 147 772 t b b b b;
#X obj 193 811 delay 100;
#X floatatom 140 140 8 0 0 0 IN - -;
#X floatatom 140 156 8 0 0 0 OUT - -;
#X floatatom 589 886 8 0 0 1 free_lenght - -;
#X obj 257 156 bng 15 250 50 0 empty empty resum 18 6 1 11 -260097
-262144 -191407;
#X floatatom 206 140 8 0 0 1 - - -;
#X obj 190 156 tgl 15 0 empty empty B 5 8 0 11 -1 -260097 -260097 0
1;
#X floatatom 206 156 8 0 0 1 - - -;
#X obj 257 140 bng 15 250 50 0 empty empty * -22 16 1 33 -260097 -262144
-1;
#X floatatom 330 156 8 0 0 0 - - -;
#X obj 573 871 tgl 15 0 empty empty << 2 7 0 10 -262144 -1 -1 0 1;
#X obj 104 101 hsl 198 14 0 1000 0 0 empty empty ------------------------------------------->-TIME
1 7 1 12 -1 -260097 -191407 6000 1;
#X obj 104 116 hsl 198 14 0 1000 0 0 empty empty -------------------------------------->-STRECH
1 6 1 12 -1 -260097 -191407 8100 1;
#X obj 190 140 tgl 15 0 empty empty A 5 8 0 11 -1 -260097 -260097 0
1;
#X obj 767 763 r lo;
#X obj 103 27 inlet;
#X obj 108 52 sel;
#X obj 368 476 outlet;
#X msg 119 -124 1000;
#X floatatom 304 -29 5 0 0 0 reposetoiX#A - reposetoiX#A;
#X floatatom 304 -45 5 0 0 0 reçoit_de_reposetoiX#A send_reposetoiX#A
-;
#X obj 94 -20 r send_reposetoinoffA;
#X obj 190 459 spigot-toggle_violet;
#X obj 245 458 spigot-toggle_violet;
#X obj -25 442 tgl 15 0 empty empty empty 17 7 0 10 -262144 -1 -1 1
1;
#X obj 215 411 r lo;
#X floatatom 665 609 12 0 0 0 - - -;
#X obj 241 580 spigot-toggle_violet;
#X msg 119 -74 3;
#X obj 66 611 / 1000;
#X floatatom 763 789 5 0 0 1 - - -;
#X floatatom -127 8 5 0 0 0 - - -;
#X obj -172 6 / 127;
#X floatatom -173 153 12 0 0 2 - - -;
#X obj -170 30 - 1;
#X obj -166 59 * -1;
#X obj -167 116 + 1;
#X obj -167 -15 ctlin 48;
#X msg 210 262 0;
#X obj -165 82 * 25;
#X obj 761 725 r looplenghtA;
#X obj 104 131 hsl 198 8 0 1000 0 0 empty empty empty -2 -8 0 10 -1
-258113 -1 6100 1;
#X obj 100 139 cnv 15 39 16 empty empty _____IN 1 10 1 9 -1 -191407
0;
#X obj 100 154 cnv 15 39 16 empty empty ___OUT 1 10 1 9 -1 -191407
0;
#X obj 272 139 cnv 13 33 16 empty empty pause 1 8 1 11 -1 -191407 0
;
#X obj 272 155 cnv 15 33 15 empty empty resum 1 8 1 11 -1 -191407 0
;
#X connect 0 0 36 0;
#X connect 1 0 36 1;
#X connect 2 0 3 0;
#X connect 3 0 5 0;
#X connect 3 1 4 0;
#X connect 4 0 1 0;
#X connect 5 0 82 0;
#X connect 6 0 19 0;
#X connect 7 0 81 0;
#X connect 8 0 9 0;
#X connect 8 0 31 0;
#X connect 8 0 22 0;
#X connect 8 0 45 0;
#X connect 9 0 61 0;
#X connect 9 0 62 0;
#X connect 10 0 11 0;
#X connect 10 0 15 0;
#X connect 10 0 88 0;
#X connect 10 0 100 0;
#X connect 11 0 12 0;
#X connect 12 0 7 0;
#X connect 12 0 13 0;
#X connect 12 0 30 0;
#X connect 13 0 2 0;
#X connect 14 0 1 1;
#X connect 14 0 3 0;
#X connect 15 0 37 0;
#X connect 16 0 17 1;
#X connect 17 0 18 0;
#X connect 18 0 21 0;
#X connect 18 0 27 1;
#X connect 18 0 49 0;
#X connect 19 0 86 0;
#X connect 20 0 3 0;
#X connect 21 0 20 0;
#X connect 22 0 62 0;
#X connect 23 0 38 0;
#X connect 24 0 39 0;
#X connect 25 0 26 0;
#X connect 25 1 26 1;
#X connect 26 0 66 0;
#X connect 27 0 18 0;
#X connect 28 0 23 0;
#X connect 29 0 17 0;
#X connect 30 0 29 0;
#X connect 31 0 14 0;
#X connect 31 0 47 0;
#X connect 31 0 9 0;
#X connect 32 0 41 0;
#X connect 33 0 51 0;
#X connect 34 0 25 0;
#X connect 36 0 19 0;
#X connect 37 0 28 0;
#X connect 37 1 28 1;
#X connect 38 0 24 0;
#X connect 39 0 17 1;
#X connect 41 0 33 0;
#X connect 42 0 50 0;
#X connect 43 0 42 0;
#X connect 44 0 43 0;
#X connect 45 0 47 0;
#X connect 45 0 67 0;
#X connect 46 0 62 0;
#X connect 47 0 46 0;
#X connect 48 0 62 0;
#X connect 49 0 1 1;
#X connect 50 0 64 0;
#X connect 51 0 64 0;
#X connect 52 0 54 0;
#X connect 52 0 55 0;
#X connect 52 0 85 0;
#X connect 55 0 56 0;
#X connect 56 0 53 0;
#X connect 56 0 62 0;
#X connect 57 0 77 0;
#X connect 57 0 87 0;
#X connect 58 0 30 0;
#X connect 58 1 30 0;
#X connect 58 2 30 0;
#X connect 58 3 30 0;
#X connect 58 3 59 0;
#X connect 59 0 30 0;
#X connect 60 0 6 1;
#X connect 60 0 30 0;
#X connect 61 0 0 1;
#X connect 61 0 11 1;
#X connect 61 0 3 0;
#X connect 61 0 28 0;
#X connect 61 0 30 0;
#X connect 62 0 29 1;
#X connect 63 0 27 0;
#X connect 64 0 30 0;
#X connect 64 0 58 0;
#X connect 64 0 76 0;
#X connect 64 0 78 0;
#X connect 64 0 26 0;
#X connect 65 0 33 1;
#X connect 66 0 48 0;
#X connect 66 0 46 1;
#X connect 67 0 14 0;
#X connect 67 0 97 0;
#X connect 68 0 40 0;
#X connect 69 0 34 1;
#X connect 69 0 48 1;
#X connect 70 0 60 0;
#X connect 71 0 61 0;
#X connect 72 0 42 1;
#X connect 73 0 48 1;
#X connect 73 0 34 1;
#X connect 74 0 75 0;
#X connect 74 0 83 0;
#X connect 75 0 67 0;
#X connect 75 1 63 0;
#X connect 77 0 71 0;
#X connect 79 0 64 0;
#X connect 80 0 75 0;
#X connect 81 0 13 0;
#X connect 81 0 6 0;
#X connect 82 0 0 0;
#X connect 83 0 82 1;
#X connect 83 0 81 1;
#X connect 83 0 86 1;
#X connect 86 0 10 0;
#X connect 87 0 64 0;
#X connect 88 0 68 0;
#X connect 89 0 34 0;
#X connect 91 0 93 0;
#X connect 92 0 64 0;
#X connect 93 0 94 0;
#X connect 94 0 98 0;
#X connect 95 0 92 0;
#X connect 96 0 91 0;
#X connect 96 1 90 0;
#X connect 97 0 88 0;
#X connect 97 0 19 0;
#X connect 98 0 95 0;
#X connect 99 0 89 0;
#X coords 0 -1 1 1 205 71 1 100 100;
