#N canvas 0 73 1245 955 10;
#X obj 384 589 spigot-toggle_jaunenoir;
#X obj 342 589 spigot-toggle_red;
#X obj 311 590 spigot-toggle_vert;
#X obj 414 565 r fll0;
#X obj 470 565 r fll1;
#X obj 583 591 spigot-toggle_jaunenoir;
#X obj 614 591 spigot-toggle_jaunenoir;
#X obj 528 594 spigot-toggle_red;
#X obj 498 594 spigot-toggle_vert;
#X obj 623 614 r lo;
#X floatatom 572 609 5 0 0 0 - - -;
#X obj 735 594 spigot-toggle_jaunenoir;
#X obj 696 594 spigot-toggle_red;
#X obj 661 594 spigot-toggle_vert;
#X obj 775 563 r fll0;
#X obj 845 565 r fll1;
#X obj 882 594 spigot-toggle_jaunenoir;
#X obj 913 594 spigot-toggle_jaunenoir;
#X obj 849 594 spigot-toggle_red;
#X obj 817 594 spigot-toggle_vert;
#X floatatom 859 614 5 0 0 0 - - -;
#X obj 723 631 * 1;
#X obj 1013 594 spigot-toggle_jaunenoir;
#X obj 983 594 spigot-toggle_red;
#X obj 1036 571 r fll0;
#X obj 1138 571 r fll1;
#X obj 1146 594 spigot-toggle_jaunenoir;
#X obj 1177 594 spigot-toggle_jaunenoir;
#X obj 1116 594 spigot-toggle_red;
#X obj 1085 594 spigot-toggle_vert;
#X obj 1137 626 r lo;
#X floatatom 1074 633 5 0 0 0 - - -;
#X msg 1135 647 1;
#X obj 505 717 - 2;
#X obj 492 677 * 4;
#X obj 501 756 * 4;
#X obj 572 737 t b f;
#X msg 984 40 0.75;
#X obj 857 -111 s opa;
#X floatatom 878 40 5 0 0 0 - - -;
#X msg 893 40 0;
#X floatatom 988 665 5 0 0 0 - - -;
#X obj 954 594 spigot-toggle_vert;
#X obj 998 632 * 1;
#X obj 491 638 * 1;
#X floatatom 1007 820 5 0 0 0 - - -;
#X obj 1007 795 * 4;
#X obj 1057 771 t b f;
#X floatatom 1009 869 5 0 0 0 - - -;
#X obj 728 716 - 2;
#X obj 729 677 * 4;
#X obj 801 765 * 4;
#X obj 855 737 t b f;
#X msg 1178 40 0.75;
#X obj 1460 -6 r lo;
#X obj 992 691 * 4;
#X floatatom 1006 753 5 0 0 0 - - -;
#X obj 1007 840 - 0;
#X obj 1001 727 - 2;
#X msg 1115 40 0.5;
#X floatatom 1170 743 5 0 0 0 - - -;
#X obj 571 671 * 4;
#X obj 1171 774 + 1;
#X msg 1028 40 0.75;
#X obj 856 677 * 4;
#X obj 856 706 - 2;
#X msg 1075 40 0.75;
#X obj 571 699 - 1;
#X obj 1166 667 * 4;
#X obj 1173 639 * 10;
#X obj 1166 693 - 20;
#X msg 937 40 0.5;
#X msg 620 591 0.75;
#X msg 800 620 0.75;
#X obj 414 589 spigot-toggle_jaunenoir;
#X obj 774 595 spigot-toggle_jaunenoir;
#X obj 1043 596 spigot-toggle_jaunenoir;
#X obj 1008 3 r lo;
#X msg 1508 14 0.5;
#X msg 1492 70 0.5;
#X obj 212 567 spigot-toggle_red;
#X obj 177 567 spigot-toggle_vert;
#X obj 110 544 r trgrA;
#X obj 175 544 r trgrB;
#X obj 175 517 r A;
#X obj 220 517 r B;
#X msg 612 644 4;
#X msg 657 640 2;
#X obj 52 698 spigot-toggle_orange;
#X obj 52 721 spigot-toggle_orange;
#X obj 52 748 spigot-toggle_orange;
#X obj 51 774 spigot-toggle_orange;
#X obj 125 836 tgl 15 0 empty empty empty 17 7 0 10 -262144 -1 -1 1
1;
#X obj 89 809 spigot-toggle_red;
#X obj 89 832 spigot-toggle_red;
#X obj 63 891 r lo;
#X obj 127 878 - 1;
#X obj 128 904 * -1;
#X obj 123 812 tgl 15 0 empty empty empty 17 7 0 10 -262144 -1 -1 -0
1;
#X obj 55 810 spigot-toggle_vert;
#X obj 55 835 spigot-toggle_vert;
#X obj 76 699 onoff4x;
#X obj 76 722 onoff5x;
#X obj 78 749 onoff6x;
#X obj 79 774 onoff7x;
#X obj 860 -135 - 0.02;
#X obj 34 202 sel;
#X obj 11 230 spigot-toggle_orange;
#X obj 74 300 line;
#X obj 76 274 pack f f;
#X obj 79 255 f;
#X obj 160 207 sel;
#X obj 123 233 spigot-toggle_orange;
#X obj 178 315 line;
#X obj 176 282 pack f f;
#X obj 221 256 f;
#X obj 261 207 sel;
#X obj 243 233 spigot-toggle_orange;
#X obj 269 315 line;
#X obj 267 282 pack f f;
#X obj 312 256 f;
#X obj 81 211 r T$mod;
#X obj 192 231 r T$mod;
#X obj 282 231 r T$mod;
#X msg 176 257 1;
#X msg 1142 40 0.75;
#X msg 267 257 1;
#X msg -2 272 1;
#X obj -3 296 + 1;
#X obj 40 274 - 1;
#X obj 30 298 * -1;
#X obj 66 40 tgl 25 0 empty empty A 8 14 0 16 -1 -262144 -260097 0
1;
#X obj 93 40 tgl 25 1 empty empty empty 17 7 0 10 -1 -262144 -260097
0 1;
#X obj 170 17 cnv 12 60 130 empty empty empty 20 12 0 14 -262144 -66577
0;
#X floatatom 159 24 6 0 0 0 - - -;
#X floatatom 243 24 6 0 0 0 - - -;
#X obj 152 67 tgl 25 0 empty empty B 8 14 0 16 -1 -262144 -260097 0
1;
#X obj 179 67 tgl 25 0 empty empty empty 17 7 0 10 -1 -262144 -1 0
1;
#X obj 152 94 tgl 25 0 empty empty ''a 8 14 1 16 -1 -262144 -260097
0 1;
#X obj 179 94 tgl 25 0 empty empty empty 17 7 0 10 -1 -262144 -1 0
1;
#X obj 152 121 tgl 25 0 empty empty ''b 8 14 1 16 -1 -262144 -260097
0 1;
#X obj 179 121 tgl 25 0 empty empty empty 17 7 0 10 -1 -262144 -1 0
1;
#X obj 205 43 vsl 10 100 0 1 0 0 empty empty empty 1 17 0 10 -1 -262144
-1 14850 1;
#X obj 141 43 vsl 10 100 0 1 0 0 empty empty ____ 1 15 0 10 -1 -260097
-1 14850 1;
#X obj 152 40 tgl 25 0 empty empty A 8 14 0 16 -1 -262144 -260097 0
1;
#X obj 179 40 tgl 25 0 empty empty empty 17 7 0 10 -1 -262144 -260097
0 1;
#X obj 235 67 tgl 25 0 empty empty B 8 14 0 16 -1 -262144 -260097 0
1;
#X obj 262 67 tgl 25 0 empty empty empty 17 7 0 10 -1 -262144 -1 0
1;
#X obj 235 94 tgl 25 0 empty empty ''a 8 14 1 16 -1 -262144 -260097
0 1;
#X obj 262 94 tgl 25 0 empty empty empty 17 7 0 10 -1 -262144 -1 0
1;
#X obj 235 121 tgl 25 0 empty empty ''b 8 14 1 16 -1 -262144 -260097
0 1;
#X obj 262 121 tgl 25 0 empty empty empty 17 7 0 10 -1 -262144 -1 0
1;
#X obj 288 43 vsl 10 100 -2 2 0 0 empty empty empty 1 17 0 10 -1 -262144
-1 12374 1;
#X obj 224 43 vsl 10 100 -2 2 0 0 empty empty ____ 1 15 0 10 -1 -260097
-1 12374 1;
#X obj 235 40 tgl 25 0 empty empty A 8 14 0 16 -1 -262144 -260097 0
1;
#X obj 262 40 tgl 25 1 empty empty empty 17 7 0 10 -1 -262144 -260097
0 1;
#X obj 66 67 tgl 25 0 empty empty B 8 14 0 16 -1 -262144 -260097 0
1;
#X obj 93 67 tgl 25 0 empty empty empty 17 7 0 10 -1 -262144 -1 0 1
;
#X obj 66 94 tgl 25 0 empty empty ''a 8 14 1 16 -1 -262144 -260097
0 1;
#X obj 93 94 tgl 25 0 empty empty empty 17 7 0 10 -1 -262144 -1 0 1
;
#X obj 66 121 tgl 25 0 empty empty ''b 8 14 1 16 -1 -262144 -260097
0 1;
#X obj 93 121 tgl 25 0 empty empty empty 17 7 0 10 -1 -262144 -1 0
1;
#X obj 119 41 vsl 10 102 0 1 0 0 empty empty empty 1 17 0 10 -1 -262144
-1 15150 1;
#X obj 55 41 vsl 10 102 0 1 0 0 empty empty ____ 1 15 0 10 -1 -260097
-1 15150 1;
#X obj 54 0 cnv 20 75 23 empty empty s&p 32 12 1 11 -1 -262144 0;
#X obj 140 0 cnv 20 75 23 empty empty speed 25 12 1 11 -1 -262144 0
;
#X obj 55 1 tgl 20 0 empty empty bck 2 10 1 10 -1 -262144 -260097 0
1;
#X obj 108 1 tgl 20 0 empty empty 88 5 10 1 10 -1 -262144 -260097 1
1;
#X floatatom 72 24 6 0 0 0 - - -;
#X obj 111 23 bng 17 250 50 0 empty empty empty 17 7 0 10 -66577 -260097
-1;
#X floatatom 474 611 5 0 0 0 - - -;
#X obj 585 -63 inlet;
#X obj 864 -161 spigot-toggle_orange;
#X obj 550 -104 r lo;
#X floatatom 855 -225 6 0 0 0 - - -;
#X obj 858 -188 * 1.3;
#X obj 898 -196 tgl 25 0 empty empty A=V 4 12 0 10 -1 -262144 -262144
1 1;
#X obj 900 -222 r A=V1;
#X obj 855 -246 r V1A;
#X obj 1041 -9 s padspeedA;
#X obj 1151 -9 s padpitchA;
#X obj 163 839 r padspeedA;
#X obj 159 815 r padpitchA;
#X obj 734 48 s s&pAa;
#X obj 734 75 s s&pBa;
#X obj 736 219 s pitchBa;
#X obj 735 191 s pitchAa;
#X obj 735 105 s speedAa;
#X obj 734 136 s speedBa;
#X obj 26 732 tgl 15 0 empty empty loc 2 7 0 10 -262144 -1 -1 0 1;
#X obj 61 663 * -1;
#X obj 62 604 r freestepsouts1;
#X obj 61 636 - 1;
#X obj -70 719 r locA;
#X obj -474 23 s pitchNspeedA;
#X obj -286 23 s pitchA;
#X obj -358 23 s speedA;
#X obj 1011 894 * 2;
#X obj -236 18 s 44/88_A;
#X obj 625 781 sel;
#X obj 527 782 * 1;
#X msg 597 782 0.5;
#X msg 652 782 1;
#X obj 78 -417 r send_s@pAA;
#X obj 77 -369 r send_s@pAB;
#X obj 78 -397 s s@pAA;
#X obj 78 -347 s s@pAB;
#X obj 77 -318 r send_s@pAa;
#X obj 78 -298 s s@pAa;
#X obj 78 -271 r send_s@pAb;
#X obj 78 -249 s s@pAb;
#X obj 161 -416 r send_spAA;
#X obj 161 -396 s spAA;
#X obj 160 -368 r send_spAB;
#X obj 161 -346 s spAB;
#X obj 160 -317 r send_spAa;
#X obj 161 -297 s spAa;
#X obj 161 -273 r send_spAb;
#X obj 161 -251 s spAb;
#X obj 242 -416 r send_pAA;
#X obj 242 -397 s pAA;
#X obj 240 -370 r send_pAB;
#X obj 242 -346 s pAB;
#X obj 242 -317 r send_pAa;
#X obj 243 -297 s pAa;
#X obj 243 -271 r send_pAb;
#X obj 243 -249 s pAb;
#X obj 105 -222 r send_mods@pAA;
#X obj 105 -203 s mods@pAA;
#X obj 104 -174 r send_mods@pAB;
#X obj 105 -153 s mods@pAB;
#X obj 104 -123 r send_mods@pAa;
#X obj 106 -104 s mods@pAa;
#X obj 105 -76 r send_mods@pAb;
#X obj 105 -55 s mods@pAb;
#X obj 189 -226 r send_modspAA;
#X obj 189 -206 s modspAA;
#X obj 188 -178 r send_modspAB;
#X obj 189 -156 s modspAB;
#X obj 188 -127 r send_modspAa;
#X obj 189 -107 s modspAa;
#X obj 189 -83 r send_modspAb;
#X obj 189 -61 s modspAb;
#X obj 270 -59 s modpAb;
#X obj 270 -81 r send_modpAb;
#X obj 270 -107 s modpAa;
#X obj 269 -127 r send_modpAa;
#X obj 269 -156 s modpAB;
#X obj 267 -180 r send_modpAB;
#X obj 269 -207 s modpAA;
#X obj 269 -226 r send_modpAA;
#X obj -793 24 s $s&pA;
#X obj -703 24 s $sA;
#X obj -633 24 s $pA;
#X floatatom -788 -57 5 0 0 0 - - -;
#X obj -788 -6 line;
#X obj -789 -32 pack f f;
#X obj -745 -69 * 1.1;
#X floatatom -678 -57 5 0 0 0 - - -;
#X obj -678 -6 line;
#X obj -679 -32 pack f f;
#X floatatom -578 -57 5 0 0 0 - - -;
#X obj -578 -6 line;
#X obj -579 -32 pack f f;
#X obj -622 -124 r send_$pA;
#X obj -692 -124 r send_$sA;
#X obj -783 -124 r send_$s&pA;
#X obj -746 -93 r T$mod;
#X obj 339 680 s pitchNspeedA01;
#X msg -490 597 record;
#X floatatom -438 174 5 0 0 0 - - -;
#X obj -510 574 bng 15 250 50 0 empty empty empty 17 7 0 10 -262144
-1 -1;
#X obj -551 606 pack;
#X floatatom -557 575 5 0 0 0 - - -;
#X floatatom -557 549 5 0 0 0 - - -;
#X obj -557 632 cyclone/midiformat;
#X obj -510 551 sel;
#X obj -491 574 bng 15 250 50 0 empty empty empty 17 7 0 10 -262144
-1 -1;
#X floatatom -513 526 5 0 0 0 - - -;
#X obj 13 1 tgl 20 0 empty empty REC 1 10 0 10 -258113 -1 -1 0 1;
#X obj 34 1 bng 20 250 50 0 empty empty S 6 10 1 11 -99865 -1 -262144
;
#X obj 13 56 tgl 20 0 empty empty LOOP 1 10 1 6 -66577 -262144 -262144
1 1;
#X obj 34 35 bng 20 250 50 0 empty empty PLAY 2 10 0 7 -66577 -262144
-262144;
#X obj 32 119 tgl 22 0 empty empty >< 5 10 1 12 -66577 -262144 -262144
1 1;
#X obj 34 56 tgl 20 0 empty empty MIDI 2 10 1 8 -66577 -262144 -262144
0 1;
#X obj -779 119 notein;
#X obj -786 152 spigot-toggle_violet;
#X obj -764 152 spigot-toggle_violet;
#X obj -759 198 sel;
#X obj -766 176 == 64;
#X floatatom -803 177 5 0 0 0 - - -;
#X obj -800 198 - 0;
#X obj -448 711 bng 15 250 50 0 empty empty empty 17 7 0 10 -262144
-1 -1;
#X obj -568 692 cyclone/seq seq1.mid;
#X obj -447 735 spigot-toggle_violet;
#X obj -587 321 f;
#X floatatom -536 351 5 0 0 0 - - -;
#X floatatom -590 351 5 0 0 0 - - -;
#X floatatom -511 294 5 0 0 0 - - -;
#X floatatom -570 295 5 0 0 0 - - -;
#X obj -557 170 f;
#X obj -527 170 + 1;
#X msg -568 275 0.75;
#X msg -508 273 0.25;
#X obj -559 212 sel;
#X obj -529 322 f;
#X obj -584 232 bng 15 250 50 0 empty empty empty 17 7 0 10 -262144
-1 -1;
#X obj -558 192 mod 2;
#X obj -794 320 f;
#X obj -767 321 + 1;
#X obj -795 360 sel;
#X obj -794 340 mod 2;
#X obj -795 379 bng 15 250 50 0 empty empty empty 17 7 0 10 -262144
-1 -1;
#X obj -793 295 spigot-toggle_violet;
#X obj -783 245 - 1;
#X obj -782 271 * -1;
#X obj -557 527 * 100;
#X obj -567 751 / 100;
#X obj -641 262 r lo;
#X obj -554 430 pack \$1 \$2;
#X obj -555 453 line;
#X floatatom -497 410 5 0 0 0 - - -;
#X obj 341 634 spigot-toggle_violet;
#X obj -438 202 - 1, f 4;
#X obj -438 224 * -1;
#X obj 13 35 tgl 20 0 empty empty STOP 1 10 1 7 -66577 -262144 -262144
0 1;
#X obj 365 645 * -1;
#X obj 365 625 - 1;
#X obj 13 -28 r lo;
#X floatatom -563 483 5 0 0 0 - - -;
#X floatatom 515 826 5 0 0 0 - - -;
#X obj -533 374 spigot-toggle_violet;
#X obj 335 729 r lo;
#X floatatom -11 -91 7 0 0 0 - - -;
#X obj -517 229 bng 15 250 50 0 empty empty empty 17 7 0 10 -262144
-1 -1;
#X obj 141 1 tgl 20 0 empty empty bck 2 10 1 10 -1 -262144 -260097
0 1;
#X obj 195 1 tgl 20 0 empty empty pad 3 10 1 10 -1 -262144 -260097
1 1;
#X obj 8 656 bng 17 250 50 0 empty empty empty 17 7 0 10 -262144 -1
-1;
#X obj 65 655 bng 17 250 50 0 empty empty empty 17 7 0 10 -262144 -1
-1;
#X obj 198 23 bng 17 250 50 0 empty empty empty 17 7 0 10 -66577 -260097
-1;
#X obj 141 23 bng 17 250 50 0 empty empty empty 17 7 0 10 -66577 -1
-260097;
#X obj 223 0 cnv 20 75 23 empty empty pitch 29 12 1 11 -1 -262144 0
;
#X obj 225 1 tgl 20 0 empty empty bck 2 10 1 10 -1 -262144 -260097
0 1;
#X obj 277 1 tgl 20 0 empty empty pad 3 10 1 10 -1 -262144 -260097
0 1;
#X obj 281 23 bng 17 250 50 0 empty empty empty 17 7 0 10 -66577 -260097
-1;
#X obj 225 23 bng 17 250 50 0 empty empty empty 17 7 0 10 -66577 -260097
-1;
#X obj 13 143 cnv 6 41 19 empty empty empty 10 12 0 14 -1 -66577 0
;
#X obj 814 267 r bonkA;
#X obj 870 268 r bonkB;
#X obj 815 295 spigot-toggle_red;
#X obj 841 296 spigot-toggle_red;
#X obj 814 332 s bonkAA;
#X obj 128 0 cnv 10 12 146 empty empty empty 10 12 0 14 -1 -66577 0
;
#X obj 215 0 cnv 10 12 146 empty empty empty 10 12 0 14 -1 -66577 0
;
#X obj 3 141 cnv 5 300 9 empty empty empty 20 12 0 14 -1 -66577 0;
#X obj 4 149 cnv 5 300 17 empty empty empty 20 12 0 14 -1 -66577 0
;
#X obj 298 0 cnv 3 5 146 empty empty empty 10 12 0 14 -1 -66577 0;
#X obj 0 0 cnv 3 5 165 empty empty empty 20 12 0 14 -1 -66577 0;
#X obj 13 77 tgl 20 0 empty empty A 6 11 1 14 -66577 -262144 -262144
0 1;
#X obj -248 -237 spigot-toggle_orange;
#X obj -248 -266 * 100;
#X obj -248 -290 r A;
#X obj 34 77 tgl 20 0 empty empty B 6 11 1 14 -66577 -262144 -262144
0 1;
#X obj -200 -241 spigot-toggle_orange;
#X obj -201 -263 * 100;
#X obj -201 -287 r B;
#X obj 8 119 tgl 23 0 empty empty empty 3 10 1 12 -1 -1 -262144 0 1
;
#X obj -151 560 pack \$1 \$2;
#X obj -152 583 line;
#X floatatom -94 540 5 0 0 0 - - -;
#X floatatom -151 606 5 0 0 0 - - -;
#X obj 553 782 t b f;
#X obj 360 836 s Amods&p;
#X obj 2 3 vsl 10 140 0 300 0 0 empty empty GLIDE 2 129 1 8 -66577
-262144 -262144 0 1;
#X obj -394 -226 spigot-toggle_orange;
#X obj -394 -255 * 100;
#X obj -346 -230 spigot-toggle_orange;
#X obj -347 -252 * 100;
#X obj -394 -279 r a';
#X obj -347 -276 r b';
#X obj 34 98 tgl 20 0 empty empty b' 6 11 1 14 -66577 -262144 -262144
0 1;
#X obj 13 98 tgl 20 0 empty empty a' 6 11 1 14 -66577 -262144 -262144
0 1;
#X obj 12 20 cnv 15 42 14 empty empty empty 20 12 0 14 -66577 -66577
0;
#X floatatom 12 20 7 0 0 0 - - -;
#X obj 54 22 bng 17 250 50 0 empty empty empty 3 7 0 8 -66577 -260097
-1;
#X connect 0 0 44 0;
#X connect 1 0 44 0;
#X connect 2 0 44 0;
#X connect 3 0 0 0;
#X connect 3 0 5 0;
#X connect 4 0 6 0;
#X connect 4 0 74 0;
#X connect 5 0 10 0;
#X connect 6 0 10 0;
#X connect 7 0 10 0;
#X connect 8 0 10 0;
#X connect 9 0 72 0;
#X connect 10 0 61 0;
#X connect 11 0 21 0;
#X connect 12 0 21 0;
#X connect 13 0 21 0;
#X connect 14 0 11 0;
#X connect 14 0 16 0;
#X connect 15 0 17 0;
#X connect 15 0 75 0;
#X connect 16 0 20 0;
#X connect 17 0 20 0;
#X connect 18 0 20 0;
#X connect 19 0 20 0;
#X connect 20 0 64 0;
#X connect 21 0 50 0;
#X connect 22 0 43 0;
#X connect 23 0 43 0;
#X connect 24 0 22 0;
#X connect 24 0 26 0;
#X connect 25 0 27 0;
#X connect 25 0 76 0;
#X connect 26 0 31 0;
#X connect 27 0 31 0;
#X connect 28 0 31 0;
#X connect 29 0 31 0;
#X connect 30 0 32 0;
#X connect 31 0 69 0;
#X connect 32 0 31 0;
#X connect 33 0 35 0;
#X connect 34 0 33 0;
#X connect 35 0 200 0;
#X connect 36 0 35 0;
#X connect 36 1 35 1;
#X connect 37 0 163 0;
#X connect 41 0 55 0;
#X connect 42 0 43 0;
#X connect 43 0 41 0;
#X connect 44 0 34 0;
#X connect 44 0 268 0;
#X connect 45 0 57 0;
#X connect 46 0 45 0;
#X connect 47 0 46 0;
#X connect 47 1 46 1;
#X connect 48 0 197 0;
#X connect 49 0 51 0;
#X connect 50 0 49 0;
#X connect 51 0 134 0;
#X connect 52 0 51 0;
#X connect 52 1 51 1;
#X connect 54 0 40 0;
#X connect 54 0 53 0;
#X connect 54 0 71 0;
#X connect 54 0 59 0;
#X connect 54 0 37 0;
#X connect 54 0 63 0;
#X connect 54 0 66 0;
#X connect 54 0 169 0;
#X connect 54 0 340 0;
#X connect 54 0 384 0;
#X connect 55 0 58 0;
#X connect 56 0 46 0;
#X connect 57 0 48 0;
#X connect 58 0 56 0;
#X connect 59 0 153 0;
#X connect 60 0 62 0;
#X connect 61 0 67 0;
#X connect 62 0 47 0;
#X connect 63 0 162 0;
#X connect 64 0 65 0;
#X connect 65 0 52 0;
#X connect 66 0 143 0;
#X connect 66 0 142 0;
#X connect 67 0 36 0;
#X connect 68 0 70 0;
#X connect 69 0 68 0;
#X connect 70 0 60 0;
#X connect 71 0 152 0;
#X connect 71 0 153 0;
#X connect 72 0 10 0;
#X connect 72 0 73 0;
#X connect 73 0 20 0;
#X connect 74 0 44 0;
#X connect 75 0 21 0;
#X connect 76 0 43 0;
#X connect 77 0 172 1;
#X connect 77 0 336 0;
#X connect 79 0 162 0;
#X connect 80 0 1 0;
#X connect 80 0 7 0;
#X connect 80 0 12 0;
#X connect 80 0 18 0;
#X connect 80 0 23 0;
#X connect 80 0 28 0;
#X connect 81 0 2 0;
#X connect 81 0 8 0;
#X connect 81 0 13 0;
#X connect 81 0 19 0;
#X connect 81 0 42 0;
#X connect 81 0 29 0;
#X connect 82 0 81 1;
#X connect 83 0 80 1;
#X connect 84 0 81 0;
#X connect 85 0 80 0;
#X connect 86 0 64 1;
#X connect 86 0 50 1;
#X connect 86 0 61 1;
#X connect 86 0 34 1;
#X connect 87 0 64 1;
#X connect 87 0 50 1;
#X connect 87 0 61 1;
#X connect 87 0 34 1;
#X connect 88 0 131 0;
#X connect 89 0 156 0;
#X connect 90 0 99 0;
#X connect 90 0 93 0;
#X connect 91 0 100 0;
#X connect 91 0 94 0;
#X connect 92 0 96 0;
#X connect 92 0 99 1;
#X connect 92 0 100 1;
#X connect 93 0 154 0;
#X connect 94 0 146 0;
#X connect 95 0 92 0;
#X connect 95 0 88 1;
#X connect 95 0 89 1;
#X connect 95 0 90 1;
#X connect 95 0 91 1;
#X connect 96 0 97 0;
#X connect 97 0 98 0;
#X connect 98 0 93 1;
#X connect 98 0 94 1;
#X connect 99 0 144 0;
#X connect 100 0 136 0;
#X connect 101 0 88 0;
#X connect 102 0 89 0;
#X connect 103 0 90 0;
#X connect 104 0 91 0;
#X connect 105 0 38 0;
#X connect 106 0 107 0;
#X connect 107 0 110 0;
#X connect 107 0 127 0;
#X connect 108 0 168 0;
#X connect 109 0 108 0;
#X connect 110 0 109 1;
#X connect 111 0 112 0;
#X connect 112 0 124 0;
#X connect 112 0 115 0;
#X connect 113 0 134 0;
#X connect 114 0 113 0;
#X connect 115 0 114 1;
#X connect 116 0 117 0;
#X connect 117 0 126 0;
#X connect 117 0 120 0;
#X connect 118 0 135 0;
#X connect 119 0 118 0;
#X connect 120 0 119 1;
#X connect 121 0 110 1;
#X connect 122 0 115 1;
#X connect 123 0 120 1;
#X connect 124 0 114 0;
#X connect 125 0 143 0;
#X connect 126 0 119 0;
#X connect 127 0 128 0;
#X connect 128 0 109 0;
#X connect 129 0 130 0;
#X connect 130 0 128 1;
#X connect 131 0 2 1;
#X connect 131 0 106 0;
#X connect 131 0 183 0;
#X connect 131 0 205 0;
#X connect 132 0 8 1;
#X connect 132 0 228 0;
#X connect 134 0 196 0;
#X connect 134 0 252 0;
#X connect 135 0 195 0;
#X connect 135 0 253 0;
#X connect 136 0 12 1;
#X connect 136 0 111 0;
#X connect 136 0 188 0;
#X connect 136 0 214 0;
#X connect 137 0 18 1;
#X connect 137 0 238 0;
#X connect 138 0 11 1;
#X connect 138 0 111 0;
#X connect 138 0 216 0;
#X connect 138 0 349 1;
#X connect 139 0 16 1;
#X connect 139 0 240 0;
#X connect 140 0 75 1;
#X connect 140 0 111 0;
#X connect 140 0 218 0;
#X connect 140 0 350 1;
#X connect 141 0 17 1;
#X connect 141 0 242 0;
#X connect 142 0 20 0;
#X connect 143 0 21 0;
#X connect 144 0 13 1;
#X connect 144 0 111 0;
#X connect 144 0 187 0;
#X connect 144 0 212 0;
#X connect 145 0 19 1;
#X connect 145 0 236 0;
#X connect 146 0 23 1;
#X connect 146 0 116 0;
#X connect 146 0 185 0;
#X connect 146 0 222 0;
#X connect 147 0 28 1;
#X connect 147 0 247 0;
#X connect 148 0 22 1;
#X connect 148 0 116 0;
#X connect 148 0 224 0;
#X connect 148 0 349 1;
#X connect 149 0 26 1;
#X connect 149 0 245 0;
#X connect 150 0 76 1;
#X connect 150 0 226 0;
#X connect 150 0 350 1;
#X connect 151 0 27 1;
#X connect 151 0 243 0;
#X connect 152 0 31 0;
#X connect 153 0 43 0;
#X connect 154 0 42 1;
#X connect 154 0 116 0;
#X connect 154 0 186 0;
#X connect 154 0 220 0;
#X connect 155 0 29 1;
#X connect 155 0 249 0;
#X connect 156 0 1 1;
#X connect 156 0 106 0;
#X connect 156 0 184 0;
#X connect 156 0 206 0;
#X connect 157 0 7 1;
#X connect 157 0 230 0;
#X connect 158 0 0 1;
#X connect 158 0 106 0;
#X connect 158 0 208 0;
#X connect 158 0 349 1;
#X connect 159 0 5 1;
#X connect 159 0 232 0;
#X connect 160 0 74 1;
#X connect 160 0 106 0;
#X connect 160 0 210 0;
#X connect 160 0 350 1;
#X connect 161 0 6 1;
#X connect 161 0 234 0;
#X connect 162 0 10 0;
#X connect 163 0 34 0;
#X connect 166 0 107 1;
#X connect 167 0 129 0;
#X connect 167 0 127 0;
#X connect 167 0 198 0;
#X connect 167 0 199 0;
#X connect 168 0 251 0;
#X connect 168 0 194 0;
#X connect 169 0 63 0;
#X connect 170 0 44 0;
#X connect 171 0 39 0;
#X connect 172 0 105 0;
#X connect 173 0 176 0;
#X connect 173 0 167 0;
#X connect 174 0 175 0;
#X connect 175 0 172 0;
#X connect 176 0 172 1;
#X connect 177 0 176 0;
#X connect 178 0 174 0;
#X connect 181 0 92 0;
#X connect 182 0 98 0;
#X connect 189 0 101 0;
#X connect 189 0 102 0;
#X connect 189 0 103 0;
#X connect 189 0 104 0;
#X connect 190 0 88 1;
#X connect 190 0 89 1;
#X connect 190 0 90 1;
#X connect 190 0 91 1;
#X connect 191 0 192 0;
#X connect 192 0 190 0;
#X connect 193 0 189 0;
#X connect 197 0 135 0;
#X connect 199 0 201 0;
#X connect 199 1 202 0;
#X connect 200 0 168 0;
#X connect 200 0 330 0;
#X connect 201 0 371 0;
#X connect 202 0 371 0;
#X connect 203 0 131 0;
#X connect 204 0 156 0;
#X connect 207 0 158 0;
#X connect 209 0 160 0;
#X connect 211 0 144 0;
#X connect 213 0 136 0;
#X connect 215 0 138 0;
#X connect 217 0 140 0;
#X connect 219 0 154 0;
#X connect 221 0 146 0;
#X connect 223 0 148 0;
#X connect 225 0 150 0;
#X connect 227 0 132 0;
#X connect 229 0 157 0;
#X connect 231 0 159 0;
#X connect 233 0 161 0;
#X connect 235 0 145 0;
#X connect 237 0 137 0;
#X connect 239 0 139 0;
#X connect 241 0 141 0;
#X connect 244 0 151 0;
#X connect 246 0 149 0;
#X connect 248 0 147 0;
#X connect 250 0 155 0;
#X connect 254 0 256 0;
#X connect 255 0 168 0;
#X connect 256 0 255 0;
#X connect 257 0 256 1;
#X connect 257 0 260 1;
#X connect 257 0 263 1;
#X connect 258 0 260 0;
#X connect 259 0 134 0;
#X connect 260 0 259 0;
#X connect 261 0 263 0;
#X connect 262 0 135 0;
#X connect 263 0 262 0;
#X connect 264 0 261 0;
#X connect 265 0 258 0;
#X connect 266 0 254 0;
#X connect 267 0 257 0;
#X connect 269 0 293 0;
#X connect 270 0 299 0;
#X connect 270 0 323 0;
#X connect 270 0 297 0;
#X connect 271 0 293 0;
#X connect 272 0 275 0;
#X connect 273 0 275 0;
#X connect 273 0 272 0;
#X connect 274 0 272 1;
#X connect 274 0 273 0;
#X connect 275 0 293 0;
#X connect 276 0 271 0;
#X connect 276 1 277 0;
#X connect 277 0 269 0;
#X connect 278 0 276 0;
#X connect 279 0 278 0;
#X connect 280 0 300 0;
#X connect 281 0 294 1;
#X connect 282 0 293 0;
#X connect 283 0 331 1;
#X connect 284 0 287 1;
#X connect 284 0 286 1;
#X connect 285 0 286 0;
#X connect 285 1 287 0;
#X connect 286 0 290 0;
#X connect 287 0 289 0;
#X connect 289 0 288 0;
#X connect 290 0 291 0;
#X connect 292 0 294 0;
#X connect 293 0 317 0;
#X connect 293 1 292 0;
#X connect 294 0 282 0;
#X connect 295 0 297 0;
#X connect 296 0 331 0;
#X connect 297 0 319 0;
#X connect 298 0 305 1;
#X connect 299 0 295 1;
#X connect 300 0 301 0;
#X connect 300 0 307 0;
#X connect 301 0 300 1;
#X connect 302 0 299 0;
#X connect 303 0 298 0;
#X connect 304 0 306 0;
#X connect 304 1 334 0;
#X connect 305 0 296 0;
#X connect 306 0 295 0;
#X connect 307 0 304 0;
#X connect 308 0 309 0;
#X connect 308 0 311 0;
#X connect 309 0 308 1;
#X connect 310 0 312 0;
#X connect 311 0 310 0;
#X connect 312 0 300 0;
#X connect 313 0 308 0;
#X connect 314 0 315 0;
#X connect 315 0 313 1;
#X connect 316 0 274 0;
#X connect 317 0 333 0;
#X connect 317 0 383 0;
#X connect 318 0 303 0;
#X connect 318 0 302 0;
#X connect 319 0 320 0;
#X connect 320 0 329 0;
#X connect 321 0 319 1;
#X connect 322 0 170 0;
#X connect 323 0 324 0;
#X connect 324 0 298 0;
#X connect 325 0 327 0;
#X connect 326 0 322 1;
#X connect 327 0 326 0;
#X connect 328 0 283 0;
#X connect 328 0 281 0;
#X connect 329 0 316 0;
#X connect 329 0 44 0;
#X connect 330 0 372 0;
#X connect 331 0 319 0;
#X connect 332 0 322 1;
#X connect 333 0 319 0;
#X connect 334 0 305 0;
#X connect 335 0 112 1;
#X connect 336 0 179 0;
#X connect 339 0 53 0;
#X connect 339 0 125 0;
#X connect 340 0 66 0;
#X connect 342 0 117 1;
#X connect 343 0 180 0;
#X connect 344 0 59 0;
#X connect 345 0 71 0;
#X connect 347 0 349 0;
#X connect 348 0 350 0;
#X connect 349 0 351 0;
#X connect 350 0 351 0;
#X connect 358 0 359 1;
#X connect 359 0 270 0;
#X connect 360 0 359 0;
#X connect 361 0 360 0;
#X connect 362 0 363 1;
#X connect 363 0 270 0;
#X connect 364 0 363 0;
#X connect 365 0 364 0;
#X connect 367 0 368 0;
#X connect 368 0 370 0;
#X connect 369 0 367 1;
#X connect 371 0 200 0;
#X connect 371 1 200 1;
#X connect 373 0 321 0;
#X connect 375 0 374 0;
#X connect 377 0 376 0;
#X connect 378 0 375 0;
#X connect 379 0 377 0;
#X connect 380 0 376 1;
#X connect 383 0 319 0;
#X connect 384 0 37 0;
#X coords 0 -1 1 1 304 166 1 0 0;
