#N canvas 0 0 1280 878 10;
#X obj 249 65 r lo;
#X obj 144 1165 spigot-toggle_orange;
#X obj 144 1188 spigot-toggle_orange;
#X obj 144 1215 spigot-toggle_orange;
#X obj 143 1241 spigot-toggle_orange;
#X obj 263 1291 tgl 15 0 empty empty empty 17 7 0 10 -262144 -1 -1
1 1;
#X obj 181 1276 spigot-toggle_red;
#X obj 181 1299 spigot-toggle_red;
#X obj 155 1358 r lo;
#X obj 265 1333 - 1;
#X obj 266 1359 * -1;
#X obj 321 1232 tgl 15 0 empty empty empty 17 7 0 10 -262144 -1 -1
-0 1;
#X obj 147 1277 spigot-toggle_vert;
#X obj 147 1302 spigot-toggle_vert;
#X obj 136 474 sel;
#X obj 137 496 spigot-toggle_orange;
#X obj 145 564 line;
#X obj 141 543 pack f f;
#X obj 290 474 sel;
#X obj 293 496 spigot-toggle_orange;
#X obj 291 564 line;
#X obj 294 543 pack f f;
#X obj 131 152 tgl 25 0 empty empty A 8 14 0 16 -1 -262144 -262144
0 1;
#X obj 157 152 tgl 25 1 empty empty A 8 14 0 16 -1 -262144 -262144
0 1;
#X floatatom 307 117 7 0 0 0 - - -;
#X obj 302 181 tgl 25 0 empty empty B 8 14 0 16 -1 -262144 -262144
0 1;
#X obj 328 181 tgl 25 0 empty empty B 8 14 0 16 -1 -262144 -262144
0 1;
#X obj 302 155 tgl 25 0 empty empty A 8 14 0 16 -1 -262144 -262144
0 1;
#X obj 328 155 tgl 25 1 empty empty A 8 14 0 16 -1 -262144 -262144
0 1;
#X obj 131 178 tgl 25 0 empty empty B 8 14 0 16 -1 -262144 -262144
0 1;
#X obj 157 178 tgl 25 0 empty empty B 8 14 0 16 -1 -262144 -262144
0 1;
#X obj 131 204 tgl 25 0 empty empty a 8 14 1 16 -1 -262144 -262144
0 1;
#X obj 131 230 tgl 25 0 empty empty b 8 14 1 16 -1 -262144 -262144
0 1;
#X floatatom 136 117 8 0 0 0 - - -;
#X obj 103 1207 tgl 15 0 empty empty loc 2 7 0 10 -262144 -1 -1 0 1
;
#X obj 151 1120 * -1;
#X obj 151 1093 - 1;
#X obj 98 1175 r locB;
#X obj -574 168 s padspeedB;
#X obj -646 702 notein;
#X floatatom -649 734 5 0 0 0 - - -;
#X floatatom -609 734 5 0 0 0 - - -;
#X floatatom 1023 60 5 0 0 0 - - -;
#X obj 1023 103 line;
#X obj 1022 85 pack f f;
#X obj 1064 24 r T$mod1;
#X obj 1066 48 * 1.1;
#X floatatom 1133 61 5 0 0 0 - - -;
#X obj 1133 104 line;
#X obj 1132 86 pack f f;
#X floatatom 1233 61 5 0 0 0 - - -;
#X obj 1233 104 line;
#X obj 1232 86 pack f f;
#X obj 993 238 r bonkA;
#X obj 1049 239 r bonkB;
#X obj 993 267 spigot-toggle_red;
#X obj 1020 267 spigot-toggle_red;
#X floatatom 610 -118 12 0 0 0 - - -;
#X floatatom 508 -115 5 0 0 0 - - -;
#X floatatom 430 -117 5 0 0 0 - - -;
#X obj 608 -158 * 0.0078741;
#X obj 510 -156 * 0.0078741;
#X obj 430 -158 * 0.0078741;
#X obj 178 135 tgl 20 0 empty empty 88 6 9 1 10 -1 -262144 -262144
1 1;
#X obj 115 135 tgl 20 0 empty empty bck 1 9 1 10 -1 -262144 -262144
1 1;
#X obj 286 135 tgl 20 0 empty empty bck 3 9 1 9 -1 -262144 -262144
0 1;
#X obj 350 135 tgl 20 0 empty empty pad 2 9 1 9 -1 -262144 -262144
0 1;
#X obj 310 132 hsl 37 22 0 1200 0 0 empty empty empty 22 14 1 7 -1
-262144 -262144 0 1;
#X obj 138 130 hsl 38 22 0 1200 0 0 empty empty glide 0 14 1 7 -1 -262144
-262144 0 1;
#X obj 117 768 spigot-toggle_jaunenoir;
#X obj 87 769 spigot-toggle_red;
#X obj 56 769 spigot-toggle_vert;
#X obj 384 749 r fll0;
#X obj 440 750 r fll1;
#X obj 328 767 spigot-toggle_jaunenoir;
#X obj 359 767 spigot-toggle_jaunenoir;
#X obj 303 767 spigot-toggle_red;
#X obj 273 767 spigot-toggle_vert;
#X obj 326 687 r lo;
#X floatatom 316 788 5 0 0 0 - - -;
#X obj 1001 764 spigot-toggle_jaunenoir;
#X obj 971 764 spigot-toggle_red;
#X obj 1024 741 r fll0;
#X obj 1126 741 r fll1;
#X obj 1134 764 spigot-toggle_jaunenoir;
#X obj 1165 764 spigot-toggle_jaunenoir;
#X obj 1104 764 spigot-toggle_red;
#X obj 1073 764 spigot-toggle_vert;
#X obj 1127 789 r lo;
#X floatatom 1064 796 5 0 0 0 - - -;
#X msg 1127 809 1;
#X obj 314 807 t b f;
#X obj 942 764 spigot-toggle_vert;
#X obj 58 843 * 1;
#X floatatom 991 928 12 0 0 0 - - -;
#X msg 321 716 0.75;
#X obj 153 769 spigot-toggle_jaunenoir;
#X obj 1031 766 spigot-toggle_jaunenoir;
#X obj -17 749 spigot-toggle_red;
#X obj -135 749 spigot-toggle_vert;
#X obj 369 848 sel;
#X floatatom 58 980 5 0 0 0 - - -;
#X obj 364 896 t b f;
#X obj -616 129 s Amods&p;
#X obj 58 1024 pack \$1 \$2;
#X floatatom 345 944 5 0 0 0 - - -;
#X obj 991 948 pack \$1 \$2;
#X floatatom 1060 949 5 0 0 0 - - -;
#X obj 57 1047 line;
#X obj 991 969 line;
#X msg 633 143 0.75;
#X obj 183 158 vsl 15 94 -2 2 0 1 empty empty empty 2 95 1 8 -1 -262144
-262144 5382 1;
#X obj 115 158 vsl 15 94 -2 2 0 0 empty empty empty 1 90 0 8 -1 -262144
-262144 6394 0;
#X obj 286 158 vsl 15 94 -150 150 0 0 empty empty empty 1 95 0 8 -1
-262144 -262144 4681 0;
#X msg 678 143 0.75;
#X obj 616 764 spigot-toggle_jaunenoir;
#X obj 570 764 spigot-toggle_red;
#X obj 542 764 spigot-toggle_vert;
#X obj 656 733 r fll0;
#X obj 726 735 r fll1;
#X obj 763 764 spigot-toggle_jaunenoir;
#X obj 794 764 spigot-toggle_jaunenoir;
#X obj 730 764 spigot-toggle_red;
#X obj 698 764 spigot-toggle_vert;
#X floatatom 697 786 5 0 0 0 - - -;
#X obj 655 765 spigot-toggle_jaunenoir;
#X floatatom 219 117 7 0 0 1 - - -;
#X obj 216 178 tgl 25 0 empty empty B 8 14 0 16 -1 -262144 -262144
0 1;
#X obj 242 178 tgl 25 0 empty empty B 8 14 1 16 -1 -262144 -262144
0 1;
#X obj 216 152 tgl 25 0 empty empty A 8 14 0 16 -1 -262144 -262144
0 1;
#X obj 242 153 tgl 25 0 empty empty A 8 14 1 16 -1 -262144 -262144
0 1;
#X obj 268 158 vsl 16 94 0 2 0 0 empty empty empty 2 95 1 8 -1 -262144
-262144 4650 0;
#X obj 200 158 vsl 15 94 -2 2 0 0 empty empty empty 3 95 0 8 -1 -262144
-262144 6394 0;
#X obj 621 976 pack \$1 \$2;
#X floatatom 690 976 5 0 0 0 - - -;
#X obj 224 130 hsl 37 22 0 1200 0 0 empty empty empty 4 12 1 7 -1 -262144
-262144 0 1;
#X obj 621 998 line;
#X obj 115 114 bng 20 250 50 0 empty empty ● 0 9 1 33 -1 -262144
-260097;
#X obj 178 114 bng 20 250 50 0 empty empty ● 0 9 1 33 -1 -262144
-260097;
#X obj 200 114 bng 20 250 50 0 empty empty ● 0 9 1 33 -1 -262144
-260097;
#X obj 264 114 bng 20 250 50 0 empty empty ● 0 9 1 33 -1 -262144
-260097;
#X obj 286 114 bng 20 250 50 0 empty empty ● 0 9 1 33 -1 -262144
-260097;
#X obj 350 115 bng 20 250 50 0 empty empty ● 0 9 1 33 -1 -262144
-260097;
#X obj 200 135 tgl 20 0 empty empty bck 3 10 1 9 -1 -262144 -262144
0 1;
#X obj 264 135 tgl 20 0 empty empty pad 2 9 1 9 -1 -262144 -262144
0 1;
#X obj 222 474 sel;
#X obj 225 496 spigot-toggle_orange;
#X obj 223 564 line;
#X obj 226 543 pack f f;
#X msg 223 520 1;
#X obj 410 123 r lo;
#X obj 826 130 delay 100;
#X obj 1064 839 t b f;
#X obj 991 903 * 1;
#X floatatom 619 952 12 0 0 0 - - -;
#X obj 696 815 t b f;
#X floatatom 613 862 5 0 0 0 - - -;
#X msg 779 143 1;
#X msg 140 520 1;
#X msg 291 520 0;
#X obj -16 724 spigot-toggle_red;
#X obj -134 724 spigot-toggle_vert;
#X obj -131 687 r A;
#X obj -14 687 r B;
#X msg 361 874 1;
#X msg 398 876 2;
#X obj 4 750 r lo;
#X obj -113 749 r lo;
#X obj 58 960 * 1;
#X msg 495 141 1;
#X obj 617 912 * 4;
#X obj 619 931 - 2;
#X msg 407 5 0.75;
#X msg 564 141 1;
#X obj 58 913 * 4;
#X obj 58 937 - 2;
#X msg 405 145 0.75;
#X obj 100 100 cnv 5 288 14 empty empty empty -2 13 0 15 -1 -260097
0;
#X obj 135 114 cnv 5 42 6 empty empty empty 0 13 0 15 -1 -260097 0
;
#X obj 372 105 cnv 5 16 220 empty empty empty 0 13 0 15 -1 -260097
0;
#X obj -188 356 cnv 5 241 9 empty empty empty -2 13 0 15 -1 -260097
0;
#X obj 220 113 cnv 5 44 6 empty empty empty 0 13 0 15 -1 -260097 0
;
#X obj 306 112 cnv 5 43 6 empty empty empty 0 13 0 15 -1 -260097 0
;
#X obj 132 106 cnv 5 15 10 empty empty ω+♪ 12 6 0 16 -1 -260097
0;
#X obj 307 104 cnv 5 15 10 empty empty ♪ 12 6 0 16 -1 -260097 0;
#X obj 226 105 cnv 5 15 10 empty empty ω 12 4 0 18 -1 -260097 0;
#X obj 100 313 cnv 5 288 14 empty empty empty -2 13 0 15 -1 -260097
0;
#X obj 100 105 cnv 5 13 220 empty empty empty 0 13 0 15 -1 -260097
0;
#X floatatom 8 866 5 0 0 0 - - -;
#X obj 1064 818 * 1;
#X obj 354 158 vsl 16 94 0.1 4 0 1 empty empty empty 2 95 1 8 -1 -262144
-262144 2146 0;
#X obj -86 272 f;
#X obj -87 321 f;
#X obj -52 258 sel;
#X obj -85 297 bng 15 250 50 0 empty empty empty 17 7 0 10 -262144
-1 -1;
#X obj -85 251 bng 15 250 50 0 empty empty empty 17 7 0 10 -262144
-1 -1;
#X obj 57 891 * 1;
#X obj 612 841 * 1;
#X obj 616 893 * 1;
#X floatatom 994 826 5 0 0 0 - - -;
#X msg 717 142 1;
#X obj 58 1002 * 1;
#X obj 157 204 tgl 25 0 empty empty a 8 14 1 16 -1 -262144 -262144
0 1;
#X obj 157 230 tgl 25 0 empty empty b 8 14 1 16 -1 -262144 -262144
0 1;
#X obj 216 204 tgl 25 0 empty empty a 8 14 1 16 -1 -262144 -262144
0 1;
#X obj 216 230 tgl 25 0 empty empty b 8 14 1 16 -1 -262144 -262144
0 1;
#X obj 242 204 tgl 25 0 empty empty a 8 14 1 16 -1 -262144 -262144
0 1;
#X obj 242 230 tgl 25 0 empty empty b 8 14 1 16 -1 -262144 -262144
0 1;
#X obj 302 207 tgl 25 0 empty empty a 8 14 1 16 -1 -262144 -262144
0 1;
#X obj 302 233 tgl 25 0 empty empty b 8 14 1 16 -1 -262144 -262144
0 1;
#X obj 328 207 tgl 25 0 empty empty a 8 14 1 16 -1 -262144 -262144
0 1;
#X obj 328 233 tgl 25 0 empty empty b 8 14 1 16 -1 -262144 -262144
0 1;
#X obj 432 -180 ctlin 1;
#X obj 510 -178 ctlin 5;
#X obj 608 -179 ctlin 9;
#X obj 1028 -6 r send_$s&pA;
#X obj 1119 -6 r send_$sA;
#X obj 1189 -6 r send_$pA;
#X obj 1040 184 s s&pAa;
#X obj 1040 207 s s&pBa;
#X obj 1090 183 s speedAa;
#X obj 1089 207 s speedBa;
#X obj 1155 183 s pitchAa;
#X obj 1156 207 s pitchBa;
#X obj 993 296 s bonkAA;
#X obj -126 203 s ABbuttonAM;
#X obj -126 177 s AbuttonAM;
#X obj -396 131 s pitchNspeedA;
#X obj -276 130 s speedA;
#X obj -195 130 s pitchA;
#X obj -35 153 s padpitchA;
#X obj -109 152 s 44/88_A;
#X obj 4 204 s Abutton;
#X obj -112 723 r AbuttonAM;
#X obj 5 725 r ABbuttonAM;
#X obj 152 1060 r freestepsouts;
#X obj 169 1165 onoff4x;
#X obj 168 1189 onoff5x;
#X obj 171 1216 onoff6x;
#X obj 171 1241 onoff7x;
#X obj 235 1207 r padspeedA;
#X obj 326 1210 r padpitchA;
#X obj 622 1018 s Amods&p;
#X obj 333 -504 r send_modpAA;
#X obj 333 -478 s modpAA;
#X obj 333 -452 r send_modpAB;
#X obj 333 -426 s modpAB;
#X obj 333 -400 r send_modpAa;
#X obj 332 -374 s modpAa;
#X obj 333 -348 r send_modpAb;
#X obj 333 -322 s modpAb;
#X obj 304 -286 r send_pAA;
#X obj 302 -270 r send_pAB;
#X obj 304 -240 s pAA;
#X obj 303 -212 r send_pAa;
#X obj 305 -178 s pAa;
#X obj 306 -150 s pAB;
#X obj 305 -133 s pAb;
#X obj 304 -102 r send_pAb;
#X obj 156 73 s mods@pAb;
#X obj 156 49 r send_mods@pAb;
#X obj 157 21 s mods@pAa;
#X obj 155 3 r send_mods@pAa;
#X obj 156 -27 s mods@pAB;
#X obj 155 -50 r send_mods@pAB;
#X obj 155 -77 s mods@pAA;
#X obj 156 -97 r send_mods@pAA;
#X obj 128 -124 s s@pAb;
#X obj 127 -145 r send_s@pAb;
#X obj 128 -172 s s@pAa;
#X obj 127 -192 r send_s@pAa;
#X obj 128 -221 s s@pAB;
#X obj 127 -243 r send_s@pAB;
#X obj 128 -271 s s@pAA;
#X obj 128 -291 r send_s@pAA;
#X obj 219 -286 s spAb;
#X obj 219 -308 r send_spAb;
#X obj 219 -332 s spAa;
#X obj 218 -352 r send_spAa;
#X obj 219 -381 s spAB;
#X obj 218 -403 r send_spAB;
#X obj 217 -432 s spAA;
#X obj 217 -451 r send_spAA;
#X obj 247 -498 s modspAb;
#X obj 248 -520 r send_modspAb;
#X obj 247 -544 s modspAa;
#X obj 246 -564 r send_modspAa;
#X obj 247 -593 s modspAB;
#X obj 246 -615 r send_modspAB;
#X obj 247 -643 s modspAA;
#X obj 247 -663 r send_modspAA;
#X obj -454 130 s $pA;
#X obj -495 130 s $sA;
#X obj -549 130 s $s&pA;
#X obj -22 530 r T$mod;
#X obj 286 254 recordpitchA;
#X obj 115 254 recordscratchA;
#X obj 200 254 recordspeedA;
#X floatatom 998 787 5 0 0 0 - - -;
#X obj 991 990 + 0;
#X obj 949 815 * 1;
#X obj 997 806 * 100;
#X obj -22 56 r intmod;
#X connect 0 0 63 0;
#X connect 0 0 64 0;
#X connect 1 0 22 0;
#X connect 2 0 29 0;
#X connect 3 0 12 0;
#X connect 3 0 6 0;
#X connect 4 0 13 0;
#X connect 4 0 7 0;
#X connect 5 0 9 0;
#X connect 5 0 12 1;
#X connect 5 0 13 1;
#X connect 6 0 27 0;
#X connect 7 0 25 0;
#X connect 8 0 5 0;
#X connect 8 0 1 1;
#X connect 8 0 2 1;
#X connect 8 0 3 1;
#X connect 8 0 4 1;
#X connect 9 0 10 0;
#X connect 10 0 11 0;
#X connect 11 0 6 1;
#X connect 11 0 7 1;
#X connect 14 0 15 0;
#X connect 15 0 158 0;
#X connect 16 0 93 0;
#X connect 17 0 16 0;
#X connect 18 0 19 0;
#X connect 19 0 159 0;
#X connect 20 0 300 0;
#X connect 21 0 20 0;
#X connect 22 0 14 0;
#X connect 22 0 71 1;
#X connect 22 0 218 0;
#X connect 22 0 226 0;
#X connect 22 0 232 0;
#X connect 22 0 273 0;
#X connect 23 0 77 1;
#X connect 23 0 265 0;
#X connect 24 0 229 0;
#X connect 24 0 291 0;
#X connect 25 0 18 0;
#X connect 25 0 81 1;
#X connect 25 0 223 0;
#X connect 25 0 225 0;
#X connect 25 0 256 0;
#X connect 26 0 86 1;
#X connect 26 0 246 0;
#X connect 27 0 18 0;
#X connect 27 0 92 1;
#X connect 27 0 222 0;
#X connect 27 0 226 0;
#X connect 27 0 253 0;
#X connect 28 0 87 1;
#X connect 28 0 244 0;
#X connect 29 0 14 0;
#X connect 29 0 70 1;
#X connect 29 0 219 0;
#X connect 29 0 225 0;
#X connect 29 0 232 0;
#X connect 29 0 271 0;
#X connect 30 0 76 1;
#X connect 30 0 263 0;
#X connect 31 0 14 0;
#X connect 31 0 55 1;
#X connect 31 0 69 1;
#X connect 31 0 269 0;
#X connect 32 0 14 0;
#X connect 32 0 56 1;
#X connect 32 0 96 1;
#X connect 32 0 267 0;
#X connect 33 0 103 0;
#X connect 33 0 227 0;
#X connect 33 0 293 0;
#X connect 34 0 236 0;
#X connect 34 0 237 0;
#X connect 34 0 238 0;
#X connect 34 0 239 0;
#X connect 35 0 1 1;
#X connect 35 0 2 1;
#X connect 35 0 3 1;
#X connect 35 0 4 1;
#X connect 36 0 35 0;
#X connect 37 0 34 0;
#X connect 39 0 40 0;
#X connect 39 1 41 0;
#X connect 42 0 44 0;
#X connect 43 0 33 0;
#X connect 44 0 43 0;
#X connect 45 0 46 0;
#X connect 46 0 44 1;
#X connect 46 0 49 1;
#X connect 46 0 52 1;
#X connect 47 0 49 0;
#X connect 49 0 48 0;
#X connect 50 0 52 0;
#X connect 51 0 24 0;
#X connect 52 0 51 0;
#X connect 53 0 55 0;
#X connect 54 0 56 0;
#X connect 55 0 224 0;
#X connect 56 0 224 0;
#X connect 57 0 113 0;
#X connect 58 0 132 0;
#X connect 59 0 112 0;
#X connect 60 0 57 0;
#X connect 61 0 58 0;
#X connect 62 0 59 0;
#X connect 63 0 100 0;
#X connect 63 0 231 0;
#X connect 64 0 15 1;
#X connect 65 0 19 1;
#X connect 66 0 230 0;
#X connect 67 0 107 0;
#X connect 68 0 105 0;
#X connect 69 0 168 0;
#X connect 70 0 93 0;
#X connect 71 0 93 0;
#X connect 72 0 69 0;
#X connect 72 0 74 0;
#X connect 73 0 75 0;
#X connect 73 0 96 0;
#X connect 74 0 79 0;
#X connect 75 0 79 0;
#X connect 76 0 79 0;
#X connect 77 0 79 0;
#X connect 78 0 95 0;
#X connect 79 0 91 0;
#X connect 80 0 298 0;
#X connect 81 0 300 0;
#X connect 82 0 80 0;
#X connect 82 0 84 0;
#X connect 83 0 85 0;
#X connect 83 0 97 0;
#X connect 84 0 89 0;
#X connect 85 0 89 0;
#X connect 86 0 89 0;
#X connect 87 0 89 0;
#X connect 88 0 90 0;
#X connect 89 0 189 0;
#X connect 90 0 89 0;
#X connect 91 0 168 0;
#X connect 91 1 168 1;
#X connect 92 0 300 0;
#X connect 93 0 296 0;
#X connect 94 0 106 0;
#X connect 95 0 79 0;
#X connect 96 0 168 0;
#X connect 97 0 298 0;
#X connect 98 0 70 0;
#X connect 98 0 76 0;
#X connect 98 0 81 0;
#X connect 98 0 86 0;
#X connect 98 0 116 0;
#X connect 98 0 122 0;
#X connect 99 0 71 0;
#X connect 99 0 77 0;
#X connect 99 0 92 0;
#X connect 99 0 87 0;
#X connect 99 0 117 0;
#X connect 99 0 123 0;
#X connect 100 0 164 0;
#X connect 100 1 165 0;
#X connect 101 0 201 0;
#X connect 102 0 201 0;
#X connect 102 1 201 1;
#X connect 104 0 108 0;
#X connect 105 0 104 1;
#X connect 106 0 109 0;
#X connect 107 0 106 1;
#X connect 108 0 33 0;
#X connect 109 0 299 0;
#X connect 111 0 79 0;
#X connect 112 0 93 0;
#X connect 113 0 300 0;
#X connect 115 0 197 0;
#X connect 116 0 197 0;
#X connect 117 0 197 0;
#X connect 118 0 115 0;
#X connect 118 0 120 0;
#X connect 119 0 121 0;
#X connect 119 0 125 0;
#X connect 120 0 124 0;
#X connect 121 0 124 0;
#X connect 122 0 124 0;
#X connect 123 0 124 0;
#X connect 124 0 155 0;
#X connect 125 0 197 0;
#X connect 126 0 228 0;
#X connect 126 0 292 0;
#X connect 127 0 116 1;
#X connect 127 0 145 0;
#X connect 127 0 221 0;
#X connect 127 0 225 0;
#X connect 127 0 279 0;
#X connect 128 0 122 1;
#X connect 128 0 287 0;
#X connect 129 0 117 1;
#X connect 129 0 145 0;
#X connect 129 0 220 0;
#X connect 129 0 226 0;
#X connect 129 0 281 0;
#X connect 130 0 123 1;
#X connect 130 0 289 0;
#X connect 131 0 124 0;
#X connect 132 0 197 0;
#X connect 133 0 136 0;
#X connect 134 0 133 1;
#X connect 135 0 134 0;
#X connect 136 0 126 0;
#X connect 136 0 242 0;
#X connect 137 0 176 0;
#X connect 138 0 169 0;
#X connect 139 0 172 0;
#X connect 140 0 173 0;
#X connect 141 0 200 0;
#X connect 142 0 157 0;
#X connect 143 0 146 1;
#X connect 145 0 146 0;
#X connect 146 0 149 0;
#X connect 147 0 156 0;
#X connect 148 0 147 0;
#X connect 149 0 148 0;
#X connect 150 0 172 0;
#X connect 150 0 173 0;
#X connect 150 0 176 0;
#X connect 150 0 169 0;
#X connect 150 0 110 0;
#X connect 150 0 114 0;
#X connect 150 0 200 0;
#X connect 150 0 157 0;
#X connect 150 0 151 0;
#X connect 151 0 172 0;
#X connect 151 0 173 0;
#X connect 151 0 176 0;
#X connect 151 0 169 0;
#X connect 151 0 110 0;
#X connect 151 0 114 0;
#X connect 151 0 200 0;
#X connect 151 0 157 0;
#X connect 152 0 153 0;
#X connect 152 1 153 1;
#X connect 153 0 94 0;
#X connect 154 0 133 0;
#X connect 155 0 198 0;
#X connect 155 1 198 1;
#X connect 156 0 297 0;
#X connect 157 0 190 0;
#X connect 158 0 17 0;
#X connect 159 0 21 0;
#X connect 160 0 98 0;
#X connect 161 0 99 0;
#X connect 162 0 161 0;
#X connect 163 0 160 0;
#X connect 164 0 102 0;
#X connect 165 0 102 0;
#X connect 166 0 98 1;
#X connect 167 0 99 1;
#X connect 168 0 101 0;
#X connect 169 0 111 0;
#X connect 170 0 171 0;
#X connect 171 0 154 0;
#X connect 172 0 132 0;
#X connect 173 0 131 0;
#X connect 174 0 175 0;
#X connect 175 0 168 0;
#X connect 176 0 112 0;
#X connect 188 0 196 0;
#X connect 189 0 152 0;
#X connect 190 0 89 0;
#X connect 191 0 192 1;
#X connect 193 0 194 0;
#X connect 193 1 195 0;
#X connect 194 0 192 0;
#X connect 195 0 191 0;
#X connect 196 0 174 0;
#X connect 197 0 156 0;
#X connect 198 0 170 0;
#X connect 199 0 300 0;
#X connect 200 0 113 0;
#X connect 201 0 104 0;
#X connect 202 0 74 1;
#X connect 202 0 261 0;
#X connect 203 0 75 1;
#X connect 203 0 259 0;
#X connect 204 0 145 0;
#X connect 204 0 115 1;
#X connect 204 0 55 1;
#X connect 204 0 277 0;
#X connect 205 0 145 0;
#X connect 205 0 125 1;
#X connect 205 0 56 1;
#X connect 205 0 275 0;
#X connect 206 0 120 1;
#X connect 206 0 285 0;
#X connect 207 0 121 1;
#X connect 207 0 283 0;
#X connect 208 0 18 0;
#X connect 208 0 55 1;
#X connect 208 0 255 0;
#X connect 208 0 80 1;
#X connect 209 0 56 1;
#X connect 209 0 97 1;
#X connect 210 0 84 1;
#X connect 210 0 248 0;
#X connect 211 0 85 1;
#X connect 211 0 250 0;
#X connect 212 0 62 0;
#X connect 213 0 61 0;
#X connect 214 0 60 0;
#X connect 215 0 42 0;
#X connect 216 0 47 0;
#X connect 217 0 50 0;
#X connect 233 0 161 1;
#X connect 234 0 160 1;
#X connect 235 0 36 0;
#X connect 236 0 1 0;
#X connect 237 0 2 0;
#X connect 238 0 3 0;
#X connect 239 0 4 0;
#X connect 240 0 5 0;
#X connect 241 0 11 0;
#X connect 243 0 28 0;
#X connect 245 0 26 0;
#X connect 247 0 210 0;
#X connect 249 0 211 0;
#X connect 251 0 27 0;
#X connect 252 0 25 0;
#X connect 254 0 208 0;
#X connect 260 0 203 0;
#X connect 262 0 202 0;
#X connect 264 0 30 0;
#X connect 266 0 23 0;
#X connect 268 0 32 0;
#X connect 270 0 31 0;
#X connect 272 0 29 0;
#X connect 274 0 22 0;
#X connect 276 0 204 0;
#X connect 278 0 204 0;
#X connect 280 0 127 0;
#X connect 282 0 129 0;
#X connect 284 0 207 0;
#X connect 286 0 206 0;
#X connect 288 0 128 0;
#X connect 290 0 130 0;
#X connect 294 0 17 1;
#X connect 294 0 21 1;
#X connect 294 0 148 1;
#X connect 295 0 153 0;
#X connect 296 1 196 0;
#X connect 297 0 198 0;
#X connect 298 0 301 0;
#X connect 299 0 24 0;
#X connect 300 0 295 0;
#X connect 301 0 199 0;
#X connect 302 0 111 0;
#X coords 0 -1 1 1 288 227 1 100 100;
