#N canvas 327 95 1280 873 10;
#X obj 250 65 r lo;
#X obj 145 1165 spigot-toggle_orange;
#X obj 145 1188 spigot-toggle_orange;
#X obj 145 1215 spigot-toggle_orange;
#X obj 144 1241 spigot-toggle_orange;
#X obj 264 1291 tgl 15 0 empty empty empty 17 7 0 10 -262144 -1 -1
1 1;
#X obj 182 1276 spigot-toggle_red;
#X obj 182 1299 spigot-toggle_red;
#X obj 156 1358 r lo;
#X obj 266 1333 - 1;
#X obj 267 1359 * -1;
#X obj 322 1232 tgl 15 0 empty empty empty 17 7 0 10 -262144 -1 -1
-0 1;
#X obj 148 1277 spigot-toggle_vert;
#X obj 148 1302 spigot-toggle_vert;
#X obj 137 474 sel;
#X obj 138 496 spigot-toggle_orange;
#X obj 146 564 line;
#X obj 142 543 pack f f;
#X obj 291 474 sel;
#X obj 294 496 spigot-toggle_orange;
#X obj 292 564 line;
#X obj 295 543 pack f f;
#X obj 132 152 tgl 25 0 empty empty A 8 14 0 16 -1 -262144 -262144
0 1;
#X obj 158 152 tgl 25 1 empty empty A 8 14 0 16 -1 -262144 -262144
0 1;
#X floatatom 308 117 7 0 0 0 - - -;
#X obj 303 181 tgl 25 0 empty empty B 8 14 0 16 -1 -262144 -262144
0 1;
#X obj 329 181 tgl 25 0 empty empty B 8 14 0 16 -1 -262144 -262144
0 1;
#X obj 303 155 tgl 25 0 empty empty A 8 14 0 16 -1 -262144 -262144
0 1;
#X obj 329 155 tgl 25 1 empty empty A 8 14 0 16 -1 -262144 -262144
0 1;
#X obj 132 178 tgl 25 0 empty empty B 8 14 0 16 -1 -262144 -262144
0 1;
#X obj 158 178 tgl 25 0 empty empty B 8 14 0 16 -1 -262144 -262144
0 1;
#X obj 132 204 tgl 25 0 empty empty a 8 14 1 16 -1 -262144 -262144
0 1;
#X obj 132 230 tgl 25 0 empty empty b 8 14 1 16 -1 -262144 -262144
0 1;
#X floatatom 137 117 8 0 0 0 - - -;
#X obj 104 1207 tgl 15 0 empty empty loc 2 7 0 10 -262144 -1 -1 0 1
;
#X obj 152 1120 * -1;
#X obj 153 1061 r freestepsouts1;
#X obj 152 1093 - 1;
#X obj -194 132 s pitchB;
#X obj 99 1175 r locB;
#X obj 236 1207 r padspeedB;
#X obj 327 1210 r padpitchB;
#X obj 1041 183 s s&pAb;
#X obj 1041 207 s s&pBb;
#X obj 1091 183 s speedAb;
#X obj 1090 207 s speedBb;
#X obj 1156 183 s pitchAb;
#X obj 1157 207 s pitchBb;
#X obj -573 158 s padspeedB;
#X obj -310 158 s padpitchB;
#X obj -624 672 notein;
#X floatatom -648 734 5 0 0 0 - - -;
#X floatatom -608 734 5 0 0 0 - - -;
#X obj 169 1166 onoff8x;
#X obj 172 1241 onoff11x;
#X obj 169 1189 onoff9x;
#X obj -460 159 s 44/88_B;
#X obj 129 -291 r send_s@pBA;
#X obj 129 -271 s s@pBA;
#X obj 128 -243 r send_s@pBB;
#X obj 129 -221 s s@pBB;
#X obj 128 -192 r send_s@pBa;
#X obj 129 -172 s s@pBa;
#X obj 128 -145 r send_s@pBb;
#X obj 129 -123 s s@pBb;
#X obj 157 -97 r send_mods@pBA;
#X obj 156 -77 s mods@pBA;
#X obj 156 -49 r send_mods@pBB;
#X obj 157 -27 s mods@pBB;
#X obj 156 2 r send_mods@pBa;
#X obj 158 22 s mods@pBa;
#X obj 157 49 r send_mods@pBb;
#X obj 158 73 s mods@pBb;
#X obj 305 -286 r send_pBA;
#X obj 307 -150 s pBB;
#X obj 304 -212 r send_pBa;
#X obj 306 -178 s pBa;
#X obj 305 -102 r send_pBb;
#X obj 306 -133 s pBb;
#X obj 334 -504 r send_modpBA;
#X obj 334 -478 s modpBA;
#X obj 334 -452 r send_modpBB;
#X obj 334 -426 s modpBB;
#X obj 334 -400 r send_modpBa;
#X obj 334 -374 s modpBa;
#X obj 334 -348 r send_modpBb;
#X obj 335 -322 s modpBb;
#X obj 305 -240 s pBA;
#X obj 303 -270 r send_pBB;
#X obj 1029 2 r send_$s&pB;
#X obj 1103 136 s $s&pB;
#X obj 1120 2 r send_$sB;
#X obj 1025 136 s $sB;
#X obj 1066 136 s $pB;
#X obj 1190 2 r send_$pB;
#X floatatom 1024 69 5 0 0 0 - - -;
#X obj 1024 112 line;
#X obj 1023 94 pack f f;
#X obj 1065 33 r T$mod1;
#X obj 1067 57 * 1.1;
#X floatatom 1134 69 5 0 0 0 - - -;
#X obj 1134 112 line;
#X obj 1133 94 pack f f;
#X floatatom 1234 69 5 0 0 0 - - -;
#X obj 1234 112 line;
#X obj 1233 94 pack f f;
#X obj 994 238 r bonkA;
#X obj 1050 239 r bonkB;
#X obj 994 267 spigot-toggle_red;
#X obj 1021 267 spigot-toggle_red;
#X obj 994 296 s bonkBB;
#X floatatom 611 -118 12 0 0 0 - - -;
#X floatatom 509 -115 5 0 0 0 - - -;
#X floatatom -66 -100 5 0 0 0 - - -;
#X obj 618 -241 * 0.0078741;
#X obj 511 -156 * 0.0078741;
#X obj -66 -141 * 0.0078741;
#X obj 179 135 tgl 20 0 empty empty 88 6 9 1 10 -1 -262144 -262144
1 1;
#X obj 116 135 tgl 20 0 empty empty bck 1 9 1 10 -1 -262144 -262144
1 1;
#X obj 287 135 tgl 20 0 empty empty bck 3 9 1 9 -1 -262144 -262144
0 1;
#X obj 351 135 tgl 20 0 empty empty pad 2 9 1 9 -1 -262144 -262144
0 1;
#X obj 618 -262 ctlin 29;
#X obj 511 -178 ctlin 25;
#X obj -64 -163 ctlin 21;
#X obj 311 132 hsl 37 22 0 1200 0 0 empty empty empty 22 14 1 7 -1
-262144 -262144 0 1;
#X obj 139 130 hsl 38 22 0 1200 0 0 empty empty glide 0 14 1 7 -1 -262144
-262144 0 1;
#X obj 118 768 spigot-toggle_jaunenoir;
#X obj 88 769 spigot-toggle_red;
#X obj 57 769 spigot-toggle_vert;
#X obj 385 749 r fll0;
#X obj 441 750 r fll1;
#X obj 329 767 spigot-toggle_jaunenoir;
#X obj 360 767 spigot-toggle_jaunenoir;
#X obj 304 767 spigot-toggle_red;
#X obj 274 767 spigot-toggle_vert;
#X obj 327 687 r lo;
#X floatatom 317 788 5 0 0 0 - - -;
#X obj 1002 764 spigot-toggle_jaunenoir;
#X obj 972 764 spigot-toggle_red;
#X obj 1025 741 r fll0;
#X obj 1127 741 r fll1;
#X obj 1135 764 spigot-toggle_jaunenoir;
#X obj 1166 764 spigot-toggle_jaunenoir;
#X obj 1105 764 spigot-toggle_red;
#X obj 1074 764 spigot-toggle_vert;
#X obj 1128 789 r lo;
#X floatatom 1065 796 5 0 0 0 - - -;
#X msg 1128 809 1;
#X obj 319 819 t b f;
#X obj 943 764 spigot-toggle_vert;
#X obj 53 842 * 1;
#X floatatom 984 929 12 0 0 0 - - -;
#X msg 322 716 0.75;
#X obj 154 769 spigot-toggle_jaunenoir;
#X obj 1031 765 spigot-toggle_jaunenoir;
#X obj -16 749 spigot-toggle_red;
#X obj -134 749 spigot-toggle_vert;
#X obj 345 865 sel;
#X floatatom 59 980 5 0 0 0 - - -;
#X obj 344 914 t b f;
#X obj 90 1059 s Amods&p;
#X obj 57 1026 pack \$1 \$2;
#X floatatom 125 1025 5 0 0 0 - - -;
#X obj 984 949 pack \$1 \$2;
#X floatatom 1053 950 5 0 0 0 - - -;
#X obj 55 1048 line;
#X obj 984 970 line;
#X obj 172 1215 onoff10x;
#X msg 634 147 0.75;
#X obj 184 158 vsl 15 94 0 2 0 1 empty empty empty 2 95 1 8 -1 -262144
-262144 9300 1;
#X obj 116 158 vsl 15 94 -2 2 0 0 empty empty empty 1 90 0 8 -1 -262144
-262144 12788 0;
#X obj 287 158 vsl 15 94 0 2 0 0 empty empty empty 1 95 0 8 -1 -262144
-262144 9300 0;
#X msg 679 147 0.75;
#X obj 617 764 spigot-toggle_jaunenoir;
#X obj 571 764 spigot-toggle_red;
#X obj 543 764 spigot-toggle_vert;
#X obj 657 733 r fll0;
#X obj 727 735 r fll1;
#X obj 764 764 spigot-toggle_jaunenoir;
#X obj 795 764 spigot-toggle_jaunenoir;
#X obj 731 764 spigot-toggle_red;
#X obj 699 764 spigot-toggle_vert;
#X floatatom 698 786 5 0 0 0 - - -;
#X obj 656 765 spigot-toggle_jaunenoir;
#X floatatom 220 117 7 0 0 1 - - -;
#X obj 217 178 tgl 25 0 empty empty B 8 14 0 16 -1 -262144 -262144
0 1;
#X obj 243 178 tgl 25 0 empty empty B 8 14 1 16 -1 -262144 -262144
0 1;
#X obj 217 152 tgl 25 0 empty empty A 8 14 0 16 -1 -262144 -262144
0 1;
#X obj 243 153 tgl 25 0 empty empty A 8 14 1 16 -1 -262144 -262144
0 1;
#X obj 269 158 vsl 16 94 0 2 0 0 empty empty empty 2 95 1 8 -1 -262144
-262144 9300 0;
#X obj 201 158 vsl 15 94 -2 2 0 0 empty empty empty 3 95 0 8 -1 -262144
-262144 12788 0;
#X obj 623 1019 pack \$1 \$2;
#X floatatom 693 1019 5 0 0 0 - - -;
#X obj 225 130 hsl 37 22 0 1200 0 0 empty empty empty 4 12 1 7 -1 -262144
-262144 0 1;
#X obj 623 1041 line;
#X obj 116 114 bng 20 250 50 0 empty empty ● 0 9 1 33 -1 -262144
-260097;
#X obj 179 114 bng 20 250 50 0 empty empty ● 0 9 1 33 -1 -262144
-260097;
#X obj 201 114 bng 20 250 50 0 empty empty ● 0 9 1 33 -1 -262144
-260097;
#X obj 265 114 bng 20 250 50 0 empty empty ● 0 9 1 33 -1 -262144
-260097;
#X obj 287 114 bng 20 250 50 0 empty empty ● 0 9 1 33 -1 -262144
-260097;
#X obj 351 114 bng 20 250 50 0 empty empty ● 0 9 1 33 -1 -262144
-260097;
#X obj 201 135 tgl 20 0 empty empty bck 3 10 1 9 -1 -262144 -262144
0 1;
#X obj 265 135 tgl 20 0 empty empty pad 2 9 1 9 -1 -262144 -262144
0 1;
#X obj 223 474 sel;
#X obj 226 496 spigot-toggle_orange;
#X obj 224 564 line;
#X obj 227 543 pack f f;
#X msg 224 520 1;
#X obj -395 133 s pitchNspeedB;
#X obj -275 132 s speedB;
#X obj 411 123 r lo;
#X obj 827 130 delay 100;
#X obj 982 878 t b f;
#X obj 983 899 * 1;
#X floatatom 616 999 12 0 0 0 - - -;
#X obj 699 806 t b f;
#X floatatom 614 862 5 0 0 0 - - -;
#X msg 780 147 1;
#X msg 141 520 1;
#X msg 292 520 0;
#X obj -124 207 s BbuttonAM;
#X obj -125 183 s BAbuttonAM;
#X obj -15 724 spigot-toggle_red;
#X obj -133 724 spigot-toggle_vert;
#X obj -130 687 r A;
#X obj -13 687 r B;
#X obj -111 723 r BAbuttonAM;
#X obj 6 725 r BbuttonAM;
#X msg 347 889 1;
#X msg 377 890 2;
#X obj 16 238 s Bbutton;
#X obj 5 750 r lo;
#X obj -112 749 r lo;
#X obj 59 960 * 1;
#X msg 496 145 1;
#X obj 616 955 * 4;
#X obj 615 977 - 2;
#X msg 549 30 0.75;
#X msg 565 145 1;
#X obj 59 913 * 4;
#X obj 59 937 - 2;
#X msg 406 145 0.75;
#X obj 100 100 cnv 5 288 14 empty empty empty -2 13 0 15 -1 -260097
0;
#X obj 136 114 cnv 5 42 6 empty empty empty 0 13 0 15 -1 -260097 0
;
#X obj 373 105 cnv 5 14 220 empty empty empty 0 13 0 15 -1 -260097
0;
#X obj 1083 -183 cnv 5 241 9 empty empty empty -2 13 0 15 -1 -260097
0;
#X obj -21 530 r T$modd1;
#X obj 221 113 cnv 5 44 6 empty empty empty 0 13 0 15 -1 -260097 0
;
#X obj 307 112 cnv 5 43 6 empty empty empty 0 13 0 15 -1 -260097 0
;
#X obj 133 106 cnv 5 15 10 empty empty ω+♪ 12 6 0 16 -1 -260097
0;
#X obj 308 104 cnv 5 15 10 empty empty ♪ 12 6 0 16 -1 -260097 0;
#X obj 227 105 cnv 5 15 10 empty empty ω 12 4 0 18 -1 -260097 0;
#X obj 101 313 cnv 5 286 14 empty empty empty -2 13 0 15 -1 -260097
0;
#X obj 101 105 cnv 5 13 220 empty empty empty 0 13 0 15 -1 -260097
0;
#X obj 116 255 recordscratchB;
#X obj 201 256 recordspeedB;
#X obj 287 255 recordpitchB;
#X floatatom 63 869 5 0 0 0 - - -;
#X obj 967 796 * 1;
#X obj 982 857 * 1;
#X obj 355 158 vsl 16 94 -10 10 0 1 empty empty empty 2 95 1 8 -1 -262144
-262144 10230 0;
#X obj -85 272 f;
#X obj -86 321 f;
#X obj -51 258 sel;
#X obj -84 297 bng 15 250 50 0 empty empty empty 17 7 0 10 -262144
-1 -1;
#X obj -84 251 bng 15 250 50 0 empty empty empty 17 7 0 10 -262144
-1 -1;
#X obj 60 890 * 1;
#X obj 613 841 * 1;
#X obj 616 934 * 1;
#X floatatom 610 908 5 0 0 0 - - -;
#X msg 718 146 1;
#X obj 60 1004 * 1;
#X obj 158 204 tgl 25 0 empty empty a 8 14 1 16 -1 -262144 -262144
0 1;
#X obj 158 230 tgl 25 0 empty empty b 8 14 1 16 -1 -262144 -262144
0 1;
#X obj 217 204 tgl 25 0 empty empty a 8 14 1 16 -1 -262144 -262144
0 1;
#X obj 217 230 tgl 25 0 empty empty b 8 14 1 16 -1 -262144 -262144
0 1;
#X obj 243 204 tgl 25 0 empty empty a 8 14 1 16 -1 -262144 -262144
0 1;
#X obj 243 230 tgl 25 0 empty empty b 8 14 1 16 -1 -262144 -262144
0 1;
#X obj 303 207 tgl 25 0 empty empty a 8 14 1 16 -1 -262144 -262144
0 1;
#X obj 303 233 tgl 25 0 empty empty b 8 14 1 16 -1 -262144 -262144
0 1;
#X obj 329 207 tgl 25 0 empty empty a 8 14 1 16 -1 -262144 -262144
0 1;
#X obj 329 233 tgl 25 0 empty empty b 8 14 1 16 -1 -262144 -262144
0 1;
#X obj 218 -451 r send_spBA;
#X obj 219 -403 r send_spBB;
#X obj 218 -431 s spBA;
#X obj 220 -381 s spBB;
#X obj 219 -352 r send_spBa;
#X obj 220 -332 s spBa;
#X obj 220 -308 r send_spBb;
#X obj 220 -286 s spBb;
#X obj 248 -663 r send_modspBA;
#X obj 248 -643 s modspBA;
#X obj 247 -615 r send_modspBB;
#X obj 248 -593 s modspBB;
#X obj 247 -564 r send_modspBa;
#X obj 248 -544 s modspBa;
#X obj 248 -520 r send_modspBb;
#X obj 248 -498 s modspBb;
#X floatatom 967 817 5 0 0 0 - - -;
#X obj 984 1041 - 2;
#X obj 985 1022 * 2;
#X obj 984 992 - 1;
#X floatatom 1003 829 5 0 0 0 - - -;
#X floatatom 1007 790 5 0 0 0 - - -;
#X obj 1006 809 * 100;
#X connect 0 0 117 0;
#X connect 0 0 118 0;
#X connect 1 0 22 0;
#X connect 2 0 29 0;
#X connect 3 0 12 0;
#X connect 3 0 6 0;
#X connect 4 0 13 0;
#X connect 4 0 7 0;
#X connect 5 0 9 0;
#X connect 5 0 12 1;
#X connect 5 0 13 1;
#X connect 6 0 27 0;
#X connect 7 0 25 0;
#X connect 8 0 5 0;
#X connect 8 0 1 1;
#X connect 8 0 2 1;
#X connect 8 0 3 1;
#X connect 8 0 4 1;
#X connect 9 0 10 0;
#X connect 10 0 11 0;
#X connect 11 0 6 1;
#X connect 11 0 7 1;
#X connect 14 0 15 0;
#X connect 15 0 218 0;
#X connect 16 0 150 0;
#X connect 17 0 16 0;
#X connect 18 0 19 0;
#X connect 19 0 219 0;
#X connect 20 0 258 0;
#X connect 21 0 20 0;
#X connect 22 0 14 0;
#X connect 22 0 42 0;
#X connect 22 0 58 0;
#X connect 22 0 128 1;
#X connect 22 0 221 0;
#X connect 22 0 230 0;
#X connect 23 0 66 0;
#X connect 23 0 134 1;
#X connect 24 0 93 0;
#X connect 24 0 38 0;
#X connect 25 0 18 0;
#X connect 25 0 47 0;
#X connect 25 0 74 0;
#X connect 25 0 138 1;
#X connect 25 0 220 0;
#X connect 26 0 82 0;
#X connect 26 0 143 1;
#X connect 27 0 18 0;
#X connect 27 0 46 0;
#X connect 27 0 87 0;
#X connect 27 0 149 1;
#X connect 27 0 221 0;
#X connect 28 0 80 0;
#X connect 28 0 144 1;
#X connect 29 0 14 0;
#X connect 29 0 43 0;
#X connect 29 0 60 0;
#X connect 29 0 127 1;
#X connect 29 0 220 0;
#X connect 29 0 230 0;
#X connect 30 0 68 0;
#X connect 30 0 133 1;
#X connect 31 0 14 0;
#X connect 31 0 62 0;
#X connect 31 0 108 1;
#X connect 31 0 126 1;
#X connect 32 0 14 0;
#X connect 32 0 64 0;
#X connect 32 0 109 1;
#X connect 32 0 153 1;
#X connect 33 0 90 0;
#X connect 33 0 208 0;
#X connect 33 0 160 0;
#X connect 34 0 54 0;
#X connect 34 0 53 0;
#X connect 34 0 55 0;
#X connect 34 0 167 0;
#X connect 35 0 1 1;
#X connect 35 0 2 1;
#X connect 35 0 3 1;
#X connect 35 0 4 1;
#X connect 36 0 37 0;
#X connect 37 0 35 0;
#X connect 39 0 34 0;
#X connect 40 0 5 0;
#X connect 41 0 11 0;
#X connect 50 0 51 0;
#X connect 50 1 52 0;
#X connect 53 0 1 0;
#X connect 54 0 4 0;
#X connect 55 0 2 0;
#X connect 57 0 22 0;
#X connect 59 0 29 0;
#X connect 61 0 31 0;
#X connect 63 0 32 0;
#X connect 65 0 23 0;
#X connect 67 0 30 0;
#X connect 69 0 272 0;
#X connect 71 0 273 0;
#X connect 73 0 27 0;
#X connect 75 0 278 0;
#X connect 79 0 28 0;
#X connect 81 0 26 0;
#X connect 83 0 280 0;
#X connect 85 0 281 0;
#X connect 88 0 25 0;
#X connect 89 0 95 0;
#X connect 91 0 100 0;
#X connect 94 0 103 0;
#X connect 95 0 97 0;
#X connect 96 0 33 0;
#X connect 97 0 96 0;
#X connect 98 0 99 0;
#X connect 99 0 97 1;
#X connect 99 0 102 1;
#X connect 99 0 105 1;
#X connect 100 0 102 0;
#X connect 102 0 101 0;
#X connect 103 0 105 0;
#X connect 104 0 24 0;
#X connect 105 0 104 0;
#X connect 106 0 108 0;
#X connect 107 0 109 0;
#X connect 108 0 110 0;
#X connect 109 0 110 0;
#X connect 111 0 171 0;
#X connect 112 0 190 0;
#X connect 113 0 170 0;
#X connect 114 0 111 0;
#X connect 115 0 112 0;
#X connect 116 0 113 0;
#X connect 117 0 56 0;
#X connect 117 0 157 0;
#X connect 118 0 15 1;
#X connect 119 0 19 1;
#X connect 120 0 49 0;
#X connect 121 0 114 0;
#X connect 122 0 115 0;
#X connect 123 0 116 0;
#X connect 124 0 164 0;
#X connect 125 0 162 0;
#X connect 126 0 150 0;
#X connect 127 0 150 0;
#X connect 128 0 150 0;
#X connect 129 0 126 0;
#X connect 129 0 131 0;
#X connect 130 0 132 0;
#X connect 130 0 153 0;
#X connect 131 0 136 0;
#X connect 132 0 136 0;
#X connect 133 0 136 0;
#X connect 134 0 136 0;
#X connect 135 0 152 0;
#X connect 136 0 148 0;
#X connect 137 0 303 0;
#X connect 138 0 258 0;
#X connect 139 0 137 0;
#X connect 139 0 141 0;
#X connect 140 0 142 0;
#X connect 140 0 154 0;
#X connect 141 0 146 0;
#X connect 142 0 146 0;
#X connect 143 0 146 0;
#X connect 144 0 146 0;
#X connect 145 0 147 0;
#X connect 146 0 259 0;
#X connect 147 0 146 0;
#X connect 148 0 266 0;
#X connect 148 1 266 1;
#X connect 149 0 258 0;
#X connect 150 0 254 0;
#X connect 151 0 163 0;
#X connect 152 0 136 0;
#X connect 153 0 150 0;
#X connect 154 0 303 0;
#X connect 155 0 127 0;
#X connect 155 0 133 0;
#X connect 155 0 138 0;
#X connect 155 0 143 0;
#X connect 155 0 174 0;
#X connect 155 0 180 0;
#X connect 156 0 128 0;
#X connect 156 0 134 0;
#X connect 156 0 149 0;
#X connect 156 0 144 0;
#X connect 156 0 175 0;
#X connect 156 0 181 0;
#X connect 157 0 228 0;
#X connect 157 1 229 0;
#X connect 158 0 271 0;
#X connect 159 0 271 0;
#X connect 159 1 271 1;
#X connect 161 0 165 0;
#X connect 162 0 161 1;
#X connect 163 0 166 0;
#X connect 164 0 163 1;
#X connect 165 0 33 0;
#X connect 166 0 301 0;
#X connect 167 0 3 0;
#X connect 169 0 136 0;
#X connect 170 0 150 0;
#X connect 171 0 258 0;
#X connect 173 0 267 0;
#X connect 174 0 267 0;
#X connect 175 0 267 0;
#X connect 176 0 173 0;
#X connect 176 0 178 0;
#X connect 177 0 179 0;
#X connect 177 0 183 0;
#X connect 178 0 182 0;
#X connect 179 0 182 0;
#X connect 180 0 182 0;
#X connect 181 0 182 0;
#X connect 182 0 215 0;
#X connect 183 0 267 0;
#X connect 184 0 209 0;
#X connect 184 0 92 0;
#X connect 185 0 174 1;
#X connect 185 0 203 0;
#X connect 185 0 220 0;
#X connect 185 0 45 0;
#X connect 185 0 285 0;
#X connect 186 0 180 1;
#X connect 186 0 293 0;
#X connect 187 0 175 1;
#X connect 187 0 203 0;
#X connect 187 0 221 0;
#X connect 187 0 44 0;
#X connect 187 0 284 0;
#X connect 188 0 181 1;
#X connect 188 0 291 0;
#X connect 189 0 182 0;
#X connect 190 0 267 0;
#X connect 191 0 194 0;
#X connect 192 0 191 1;
#X connect 193 0 192 0;
#X connect 194 0 184 0;
#X connect 195 0 241 0;
#X connect 196 0 234 0;
#X connect 197 0 237 0;
#X connect 198 0 238 0;
#X connect 199 0 270 0;
#X connect 200 0 217 0;
#X connect 201 0 204 1;
#X connect 203 0 204 0;
#X connect 204 0 207 0;
#X connect 205 0 216 0;
#X connect 206 0 205 0;
#X connect 207 0 206 0;
#X connect 210 0 237 0;
#X connect 210 0 238 0;
#X connect 210 0 241 0;
#X connect 210 0 234 0;
#X connect 210 0 168 0;
#X connect 210 0 172 0;
#X connect 210 0 270 0;
#X connect 210 0 217 0;
#X connect 210 0 211 0;
#X connect 211 0 237 0;
#X connect 211 0 238 0;
#X connect 211 0 241 0;
#X connect 211 0 234 0;
#X connect 211 0 168 0;
#X connect 211 0 172 0;
#X connect 211 0 270 0;
#X connect 211 0 217 0;
#X connect 212 0 213 0;
#X connect 212 1 213 1;
#X connect 213 0 151 0;
#X connect 214 0 191 0;
#X connect 215 0 268 0;
#X connect 215 1 268 1;
#X connect 216 0 255 0;
#X connect 217 0 260 0;
#X connect 218 0 17 0;
#X connect 219 0 21 0;
#X connect 222 0 155 0;
#X connect 223 0 156 0;
#X connect 224 0 223 0;
#X connect 225 0 222 0;
#X connect 226 0 223 1;
#X connect 227 0 222 1;
#X connect 228 0 159 0;
#X connect 229 0 159 0;
#X connect 231 0 155 1;
#X connect 232 0 156 1;
#X connect 233 0 158 0;
#X connect 234 0 169 0;
#X connect 235 0 236 0;
#X connect 236 0 214 0;
#X connect 237 0 190 0;
#X connect 238 0 189 0;
#X connect 239 0 240 0;
#X connect 240 0 233 0;
#X connect 241 0 170 0;
#X connect 246 0 17 1;
#X connect 246 0 21 1;
#X connect 246 0 206 1;
#X connect 254 1 257 0;
#X connect 255 0 269 0;
#X connect 256 0 213 0;
#X connect 257 0 266 0;
#X connect 258 0 256 0;
#X connect 258 0 298 0;
#X connect 259 0 212 0;
#X connect 260 0 146 0;
#X connect 261 0 262 1;
#X connect 263 0 264 0;
#X connect 263 1 265 0;
#X connect 264 0 262 0;
#X connect 265 0 261 0;
#X connect 266 0 239 0;
#X connect 267 0 216 0;
#X connect 268 0 235 0;
#X connect 269 0 268 0;
#X connect 270 0 171 0;
#X connect 271 0 161 0;
#X connect 272 0 70 0;
#X connect 272 0 131 1;
#X connect 273 0 72 0;
#X connect 273 0 132 1;
#X connect 274 0 203 0;
#X connect 274 0 173 1;
#X connect 274 0 108 1;
#X connect 274 0 287 0;
#X connect 275 0 203 0;
#X connect 275 0 183 1;
#X connect 275 0 109 1;
#X connect 275 0 289 0;
#X connect 276 0 178 1;
#X connect 276 0 295 0;
#X connect 277 0 179 1;
#X connect 277 0 297 0;
#X connect 278 0 76 0;
#X connect 278 0 18 0;
#X connect 278 0 108 1;
#X connect 278 0 137 1;
#X connect 279 0 109 1;
#X connect 279 0 154 1;
#X connect 280 0 84 0;
#X connect 280 0 141 1;
#X connect 281 0 86 0;
#X connect 281 0 142 1;
#X connect 282 0 187 0;
#X connect 283 0 185 0;
#X connect 286 0 274 0;
#X connect 288 0 274 0;
#X connect 290 0 188 0;
#X connect 292 0 186 0;
#X connect 294 0 276 0;
#X connect 296 0 277 0;
#X connect 300 0 299 0;
#X connect 301 0 24 0;
#X connect 302 0 258 0;
#X connect 303 0 304 0;
#X connect 304 0 302 0;
#X coords 0 -1 1 1 288 227 1 100 100;
