#N canvas 899 443 1280 1006 10;
#X obj -20 713 spigot-toggle_jaunenoir;
#X obj -62 713 spigot-toggle_red;
#X obj -93 714 spigot-toggle_vert;
#X obj 10 689 r fll0;
#X obj 66 689 r fll1;
#X obj 179 715 spigot-toggle_jaunenoir;
#X obj 210 715 spigot-toggle_jaunenoir;
#X obj 124 718 spigot-toggle_red;
#X obj 94 718 spigot-toggle_vert;
#X obj 219 738 r lo;
#X floatatom 168 733 5 0 0 0 - - -;
#X obj 331 718 spigot-toggle_jaunenoir;
#X obj 292 718 spigot-toggle_red;
#X obj 257 718 spigot-toggle_vert;
#X obj 371 687 r fll0;
#X obj 441 689 r fll1;
#X obj 478 718 spigot-toggle_jaunenoir;
#X obj 509 718 spigot-toggle_jaunenoir;
#X obj 445 718 spigot-toggle_red;
#X obj 413 718 spigot-toggle_vert;
#X floatatom 458 755 5 0 0 0 - - -;
#X obj 319 755 * 1;
#X obj 609 718 spigot-toggle_jaunenoir;
#X obj 579 718 spigot-toggle_red;
#X obj 632 695 r fll0;
#X obj 734 695 r fll1;
#X obj 742 718 spigot-toggle_jaunenoir;
#X obj 773 718 spigot-toggle_jaunenoir;
#X obj 712 718 spigot-toggle_red;
#X obj 681 718 spigot-toggle_vert;
#X obj 733 750 r lo;
#X floatatom 670 757 5 0 0 0 - - -;
#X msg 731 771 1;
#X obj 101 841 - 2;
#X obj 109 870 * 4;
#X obj 168 861 t b f;
#X msg 1041 139 0.75;
#X floatatom 1084 139 5 0 0 0 - - -;
#X msg 1099 139 0;
#X floatatom 584 789 5 0 0 0 - - -;
#X obj 550 718 spigot-toggle_vert;
#X obj 594 756 * 1;
#X obj 67 759 * 1;
#X floatatom 603 944 5 0 0 0 - - -;
#X obj 603 919 * 4;
#X obj 653 895 t b f;
#X floatatom 605 993 5 0 0 0 - - -;
#X obj 324 840 - 2;
#X obj 325 801 * 4;
#X obj 397 889 * 4;
#X obj 451 861 t b f;
#X msg 1214 138 0.75;
#X obj 1236 118 r lo;
#X obj 588 815 * 4;
#X floatatom 602 877 5 0 0 0 - - -;
#X obj 603 964 - 0;
#X obj 597 851 - 2;
#X msg 1177 138 0.5;
#X floatatom 766 867 5 0 0 0 - - -;
#X obj 767 898 + 1;
#X msg 1134 138 0.75;
#X obj 452 801 * 4;
#X obj 452 830 - 2;
#X msg 994 139 0.75;
#X obj 167 823 - 1;
#X obj 762 791 * 4;
#X obj 769 763 * 10;
#X obj 762 817 - 20;
#X msg 1254 138 0.5;
#X msg 216 715 0.75;
#X msg 396 744 0.75;
#X obj 10 713 spigot-toggle_jaunenoir;
#X obj 370 719 spigot-toggle_jaunenoir;
#X obj 639 720 spigot-toggle_jaunenoir;
#X obj 773 -26 r lo;
#X msg 1254 138 0.5;
#X obj -192 691 spigot-toggle_red;
#X obj -227 691 spigot-toggle_vert;
#X obj -294 668 r trgrA;
#X obj -229 668 r trgrB;
#X obj -229 641 r A;
#X obj -184 641 r B;
#X msg 208 768 4;
#X obj -352 822 spigot-toggle_orange;
#X obj -352 845 spigot-toggle_orange;
#X obj -352 872 spigot-toggle_orange;
#X obj -353 898 spigot-toggle_orange;
#X obj -140 990 tgl 15 0 empty empty empty 17 7 0 10 -262144 -1 -1
1 1;
#X obj -315 933 spigot-toggle_red;
#X obj -315 956 spigot-toggle_red;
#X obj -341 1015 r lo;
#X obj -138 1032 - 1;
#X obj -137 1058 * -1;
#X obj -82 931 tgl 15 0 empty empty empty 17 7 0 10 -262144 -1 -1 -0
1;
#X obj -349 934 spigot-toggle_vert;
#X obj -349 959 spigot-toggle_vert;
#X obj 805 74 - 0.02;
#X obj 119 274 sel;
#X obj 101 504 spigot-toggle_orange;
#X obj 40 465 line;
#X obj 39 439 pack f f;
#X obj 102 536 f;
#X obj 260 307 sel;
#X obj 224 332 spigot-toggle_orange;
#X obj 269 416 line;
#X obj 267 383 pack f f;
#X obj 312 357 f;
#X obj 381 307 sel;
#X obj 354 332 spigot-toggle_orange;
#X obj 390 416 line;
#X obj 388 383 pack f f;
#X obj 433 357 f;
#X msg 267 358 1;
#X msg 776 142 0.75;
#X msg 388 358 1;
#X msg 39 380 1;
#X obj 38 404 + 1;
#X obj 81 382 - 1;
#X obj 71 406 * -1;
#X obj 869 621 cnv 15 60 130 empty empty empty 20 12 0 14 -262144 -66577
0;
#X obj 166 138 tgl 25 0 empty empty A 8 14 0 16 -1 -262144 -260097
0 1;
#X obj 193 138 tgl 25 1 empty empty empty 17 7 0 10 -1 -262144 -260097
0 1;
#X obj 328 121 bng 17 250 50 0 empty empty empty 17 7 0 10 -66577 -262144
-1;
#X obj 241 120 bng 17 250 50 0 empty empty empty 17 7 0 10 -66577 -260097
-1;
#X floatatom 259 121 6 0 0 0 - - -;
#X floatatom 345 122 6 0 0 0 - - -;
#X obj 252 164 tgl 25 0 empty empty B 8 14 0 16 -1 -262144 -260097
0 1;
#X obj 279 163 tgl 25 0 empty empty empty 17 7 0 10 -1 -262144 -1 0
1;
#X obj 252 191 tgl 25 0 empty empty ''a 8 14 1 16 -1 -262144 -260097
0 1;
#X obj 279 190 tgl 25 0 empty empty empty 17 7 0 10 -1 -262144 -1 0
1;
#X obj 252 218 tgl 25 0 empty empty ''b 8 14 1 16 -1 -262144 -260097
0 1;
#X obj 279 217 tgl 25 0 empty empty empty 17 7 0 10 -1 -262144 -1 0
1;
#X obj 252 137 tgl 25 0 empty empty A 8 14 0 16 -1 -262144 -260097
0 1;
#X obj 279 136 tgl 25 0 empty empty empty 17 7 0 10 -1 -262144 -260097
0 1;
#X obj 339 165 tgl 25 0 empty empty B 8 14 0 16 -1 -262144 -260097
0 1;
#X obj 365 165 tgl 25 0 empty empty empty 19 7 0 10 -1 -262144 -1 0
1;
#X obj 339 192 tgl 25 0 empty empty ''a 8 14 1 16 -1 -262144 -260097
0 1;
#X obj 365 192 tgl 25 0 empty empty empty 17 7 0 10 -1 -262144 -1 0
1;
#X obj 339 219 tgl 25 0 empty empty ''b 8 14 1 16 -1 -262144 -260097
0 1;
#X obj 365 219 tgl 25 0 empty empty empty 17 7 0 10 -1 -262144 -1 0
1;
#X obj 339 138 tgl 25 0 empty empty A 8 14 0 16 -1 -262144 -260097
0 1;
#X obj 365 138 tgl 25 1 empty empty empty 17 8 0 10 -1 -262144 -260097
0 1;
#X obj 166 165 tgl 25 0 empty empty B 8 14 0 16 -1 -262144 -260097
0 1;
#X obj 193 165 tgl 25 0 empty empty empty 17 7 0 10 -1 -262144 -1 0
1;
#X obj 166 192 tgl 25 0 empty empty ''a 8 14 1 16 -1 -262144 -260097
0 1;
#X obj 193 192 tgl 25 0 empty empty empty 17 7 0 10 -1 -262144 -1 0
1;
#X obj 166 219 tgl 25 0 empty empty ''b 8 14 1 16 -1 -262144 -260097
0 1;
#X obj 193 219 tgl 25 0 empty empty empty 17 7 0 10 -1 -262144 -1 0
1;
#X obj 298 120 bng 17 250 50 0 empty empty empty 17 7 0 10 -66577 -260097
-1;
#X obj 384 121 bng 17 250 50 0 empty empty empty 17 7 0 10 -99865 -260097
-1;
#X obj 383 101 tgl 20 0 empty empty pad 3 9 0 9 -1 -260097 -260097
0 1;
#X obj 296 100 tgl 20 0 empty empty pad 3 10 0 9 -1 -260097 -260097
1 1;
#X obj 241 100 tgl 20 0 empty empty bck 3 10 0 8 -1 -260097 -260097
0 1;
#X obj 328 100 tgl 20 0 empty empty bck 3 9 0 8 -1 -260097 -260097
0 1;
#X obj 155 101 tgl 20 0 empty empty bck 3 10 0 8 -1 -260097 -260097
0 1;
#X obj 209 101 tgl 20 0 empty empty 88 4 10 0 10 -1 -260097 -260097
1 1;
#X floatatom 172 122 6 0 0 0 - - -;
#X obj 211 121 bng 17 250 50 0 empty empty empty 17 7 0 10 -66577 -260097
-1;
#X floatatom 115 762 5 0 0 0 - - -;
#X obj 671 61 inlet;
#X obj 772 100 spigot-toggle_orange;
#X floatatom 663 183 6 0 0 0 - - -;
#X obj 666 220 * 1.3;
#X obj 785 46 tgl 25 0 empty empty A=V 4 12 0 10 -1 -262144 -262144
1 1;
#X obj -393 864 tgl 15 0 empty empty loc 2 7 0 10 -262144 -1 -1 0 1
;
#X obj -432 773 * -1;
#X obj -431 714 r freestepsouts1;
#X obj -432 746 - 1;
#X obj 1715 156 s pitchNspeedB;
#X obj 1831 156 s speedB;
#X obj 1903 156 s pitchB;
#X obj 117 442 r T$mod1;
#X obj 283 330 r T$mod1;
#X obj 403 330 r T$mod1;
#X obj -634 843 r locB;
#X obj -168 906 r padspeedB;
#X obj -58 906 r padpitchB;
#X obj 820 172 s s&pAb;
#X obj 820 199 s s&pBb;
#X obj 821 229 s speedAb;
#X obj 820 260 s speedBb;
#X obj 821 315 s pitchAb;
#X obj 822 343 s pitchBb;
#X obj 663 162 r V1B;
#X obj 785 20 r A=V2;
#X obj 804 103 s opa1;
#X obj 1417 132 s padspeedB;
#X obj 1418 155 s padpitchB;
#X obj -552 670 notein;
#X floatatom -576 732 5 0 0 0 - - -;
#X floatatom -536 732 5 0 0 0 - - -;
#X obj -328 823 onoff8x;
#X obj -326 873 onoff10x;
#X obj -325 898 onoff11x;
#X obj -328 846 onoff9x;
#X obj 607 1018 * 2;
#X obj 1798 136 s 44/88_B;
#X msg 253 764 2;
#X obj 167 795 * 4;
#X obj 123 906 * 1;
#X obj 88 801 * 4;
#X obj 161 -293 r send_s@pBA;
#X obj 161 -273 s s@pBA;
#X obj 160 -245 r send_s@pBB;
#X obj 161 -223 s s@pBB;
#X obj 160 -194 r send_s@pBa;
#X obj 161 -174 s s@pBa;
#X obj 160 -147 r send_s@pBb;
#X obj 161 -125 s s@pBb;
#X obj 189 -99 r send_mods@pBA;
#X obj 188 -79 s mods@pBA;
#X obj 188 -51 r send_mods@pBB;
#X obj 189 -29 s mods@pBB;
#X obj 188 0 r send_mods@pBa;
#X obj 190 20 s mods@pBa;
#X obj 189 47 r send_mods@pBb;
#X obj 189 69 s mods@pBb;
#X obj 244 -293 r send_spBA;
#X obj 244 -273 s spBA;
#X obj 242 -245 r send_spBB;
#X obj 244 -223 s spBB;
#X obj 243 -194 r send_spBa;
#X obj 244 -174 s spBa;
#X obj 244 -150 r send_spBb;
#X obj 244 -128 s spBb;
#X obj 269 -103 r send_modspBA;
#X obj 270 -83 s modspBA;
#X obj 269 -56 r send_modspBB;
#X obj 270 -33 s modspBB;
#X obj 269 -4 r send_modspBa;
#X obj 270 15 s modspBa;
#X obj 270 40 r send_modspBb;
#X obj 270 61 s modspBb;
#X obj 335 -294 r send_pBA;
#X obj 335 -225 s pBB;
#X obj 335 -195 r send_pBa;
#X obj 336 -175 s pBa;
#X obj 336 -149 r send_pBb;
#X obj 336 -128 s pBb;
#X obj 361 -95 r send_modpBA;
#X obj 361 -76 s modpBA;
#X obj 359 -51 r send_modpBB;
#X obj 361 -25 s modpBB;
#X obj 359 4 r send_modpBa;
#X obj 361 24 s modpBa;
#X obj 360 50 r send_modpBb;
#X obj 360 72 s modpBb;
#X obj 335 -275 s pBA;
#X obj 333 -248 r send_pBB;
#X obj 1521 0 r send_$s&pB;
#X obj 1512 154 s $s&pB;
#X obj 1612 0 r send_$sB;
#X obj 1602 154 s $sB;
#X obj 1672 155 s $pB;
#X obj 1682 0 r send_$pB;
#X floatatom -614 661 5 0 0 0 - - -;
#X floatatom 1516 67 5 0 0 0 - - -;
#X obj 1516 118 line;
#X obj 1515 92 pack f f;
#X obj 1557 31 r T$mod1;
#X obj 1559 55 * 1.1;
#X floatatom 1626 67 5 0 0 0 - - -;
#X obj 1626 118 line;
#X obj 1625 92 pack f f;
#X floatatom 1726 67 5 0 0 0 - - -;
#X obj 1726 118 line;
#X obj 1725 92 pack f f;
#X obj -585 644 s Aonoff;
#X obj -673 727 s Bonoff;
#X obj 1066 236 r bonkA;
#X obj 1122 237 r bonkB;
#X obj 1067 264 spigot-toggle_red;
#X obj 1093 265 spigot-toggle_red;
#X obj 1066 301 s bonkBB;
#X obj 391 141 vsl 10 100 -2 2 0 0 empty empty empty 1 17 0 10 -1 -262144
-1 6187 1;
#X obj 328 140 vsl 10 100 -2 2 0 0 empty empty ____ 1 15 0 10 -1 -260097
-1 6187 1;
#X obj 174 100 cnv 20 35 21 empty empty s&p 9 12 1 11 -1 -262144 0
;
#X obj 260 100 cnv 20 35 21 empty empty speed 2 12 1 11 -1 -262144
0;
#X obj 348 100 cnv 20 35 21 empty empty pitch 2 12 1 11 -1 -262144
0;
#X obj 401 123 cnv 3 3 140 empty empty empty 10 12 0 14 -1 -66577 0
;
#X obj 315 100 cnv 10 12 146 empty empty empty 10 12 0 14 -1 -66577
0;
#X obj 305 140 vsl 10 100 0 1 0 0 empty empty empty 1 17 0 10 -1 -262144
-1 7425 1;
#X obj 241 140 vsl 10 100 0 1 0 0 empty empty empty 1 15 0 10 -1 -260097
-1 7425 1;
#X obj 219 141 vsl 10 100 0 1 0 0 empty empty empty 1 17 0 10 -1 -262144
-1 7425 1;
#X obj 155 140 vsl 10 100 0 1 0 0 empty empty empty 1 15 0 10 -1 -260097
-1 7425 1;
#X obj 228 100 cnv 10 12 146 empty empty empty 10 12 0 14 -1 -66577
0;
#X msg -462 357 record;
#X floatatom -410 -66 3 0 0 0 - - -;
#X obj -482 334 bng 15 250 50 0 empty empty empty 17 7 0 10 -262144
-1 -1;
#X obj -523 366 pack;
#X floatatom -529 335 5 0 0 0 - - -;
#X floatatom -529 309 5 0 0 0 - - -;
#X obj -529 392 cyclone/midiformat;
#X obj -482 311 sel;
#X obj -463 334 bng 15 250 50 0 empty empty empty 17 7 0 10 -262144
-1 -1;
#X floatatom -485 286 5 0 0 0 - - -;
#X obj 113 116 tgl 20 0 empty empty REC 1 10 0 10 -260097 -1 -1 1 1
;
#X obj 134 116 bng 20 250 50 0 empty empty S 6 10 1 11 -1 -260097 -260097
;
#X obj 113 157 tgl 20 0 empty empty LOOP 1 10 1 7 -1 -262144 -262144
1 1;
#X obj 134 136 bng 20 250 50 0 empty empty PLAY 2 10 0 7 -1 -262144
-262144;
#X obj 131 219 tgl 23 0 empty empty >< 5 10 1 12 -1 -262144 -262144
1 1;
#X obj 134 157 tgl 20 0 empty empty MIDI 2 10 1 8 -1 -262144 -262144
0 1;
#X obj -769 -268 notein;
#X obj -776 -235 spigot-toggle_violet;
#X obj -754 -235 spigot-toggle_violet;
#X obj -749 -189 sel;
#X obj -756 -211 == 64;
#X floatatom -793 -210 5 0 0 0 - - -;
#X obj -790 -189 - 0;
#X obj -420 471 bng 15 250 50 0 empty empty empty 17 7 0 10 -262144
-1 -1;
#X obj -419 495 spigot-toggle_violet;
#X obj -559 81 f;
#X floatatom -508 111 5 0 0 0 - - -;
#X floatatom -562 111 5 0 0 0 - - -;
#X floatatom -483 54 5 0 0 0 - - -;
#X floatatom -542 55 5 0 0 0 - - -;
#X obj -529 -70 f;
#X obj -499 -70 + 1;
#X msg -540 35 0.75;
#X msg -480 33 0.25;
#X obj -531 -28 sel;
#X obj -501 82 f;
#X obj -556 -8 bng 15 250 50 0 empty empty empty 17 7 0 10 -262144
-1 -1;
#X obj -530 -48 mod 2;
#X obj -784 -67 f;
#X obj -757 -66 + 1;
#X obj -785 -27 sel;
#X obj -784 -47 mod 2;
#X obj -785 -8 bng 15 250 50 0 empty empty empty 17 7 0 10 -262144
-1 -1;
#X obj -783 -92 spigot-toggle_violet;
#X obj -773 -142 - 1;
#X obj -772 -116 * -1;
#X obj -529 287 * 100;
#X obj -538 498 / 100;
#X obj -613 22 r lo;
#X obj -535 202 pack \$1 \$2;
#X obj -536 225 line;
#X floatatom -478 182 5 0 0 0 - - -;
#X obj -410 -38 - 1, f 4;
#X obj -410 -16 * -1;
#X obj 113 136 tgl 20 0 empty empty STOP 1 10 1 7 -1 -262144 -262144
0 1;
#X obj 105 73 r lo;
#X floatatom -535 248 5 0 0 0 - - -;
#X obj -505 134 spigot-toggle_violet;
#X obj -489 -11 bng 15 250 50 0 empty empty empty 17 7 0 10 -262144
-1 -1;
#X obj 100 242 cnv 5 304 25 empty empty empty 20 12 0 14 -1 -66577
0;
#X obj 100 100 cnv 3 5 163 empty empty empty 20 12 0 14 -1 -66577 0
;
#X obj -540 452 cyclone/seq seq3.mid;
#X obj 108 218 cnv 6 22 31 empty empty empty 10 12 0 14 -1 -66577 0
;
#X obj 113 177 tgl 20 0 empty empty A 5 11 1 14 -1 -262144 -262144
0 1;
#X obj -247 -235 spigot-toggle_orange;
#X obj -247 -264 * 100;
#X obj -247 -288 r A;
#X obj 134 177 tgl 20 0 empty empty B 6 11 1 14 -1 -262144 -262144
0 1;
#X obj -199 -239 spigot-toggle_orange;
#X obj -200 -261 * 100;
#X obj -200 -285 r B;
#X obj 102 103 vsl 10 139 0 300 0 0 empty empty GLIDE 1 124 1 8 -1
-262144 -262144 0 1;
#X obj 251 889 sel;
#X msg 223 890 0.5;
#X msg 278 890 1;
#X obj 179 890 t b f;
#X obj -127 -225 spigot-toggle_orange;
#X obj -127 -254 * 100;
#X obj -79 -229 spigot-toggle_orange;
#X obj -80 -251 * 100;
#X obj -127 -278 r a';
#X obj -80 -275 r b';
#X obj 113 198 tgl 20 0 empty empty a' 6 11 1 14 -1 -262144 -262144
0 1;
#X obj 134 198 tgl 20 0 empty empty b' 6 11 1 14 -1 -262144 -262144
0 1;
#X obj 112 100 cnv 12 43 15 empty empty empty 20 12 0 14 -1 -66577
0;
#X floatatom -25 171 7 0 0 0 - - -;
#X obj 154 120 bng 17 250 50 0 empty empty empty 3 7 0 8 -66577 -260097
-1;
#X obj -538 522 spigot-toggle_violet;
#X connect 0 0 42 0;
#X connect 1 0 42 0;
#X connect 2 0 42 0;
#X connect 3 0 0 0;
#X connect 3 0 5 0;
#X connect 4 0 6 0;
#X connect 4 0 71 0;
#X connect 5 0 10 0;
#X connect 6 0 10 0;
#X connect 7 0 10 0;
#X connect 8 0 10 0;
#X connect 9 0 69 0;
#X connect 10 0 198 0;
#X connect 11 0 21 0;
#X connect 12 0 21 0;
#X connect 13 0 21 0;
#X connect 14 0 11 0;
#X connect 14 0 16 0;
#X connect 15 0 17 0;
#X connect 15 0 72 0;
#X connect 16 0 20 0;
#X connect 17 0 20 0;
#X connect 18 0 20 0;
#X connect 19 0 20 0;
#X connect 20 0 61 0;
#X connect 21 0 48 0;
#X connect 22 0 41 0;
#X connect 23 0 41 0;
#X connect 24 0 22 0;
#X connect 24 0 26 0;
#X connect 25 0 27 0;
#X connect 25 0 73 0;
#X connect 26 0 31 0;
#X connect 27 0 31 0;
#X connect 28 0 31 0;
#X connect 29 0 31 0;
#X connect 30 0 32 0;
#X connect 31 0 66 0;
#X connect 32 0 31 0;
#X connect 33 0 34 0;
#X connect 34 0 199 0;
#X connect 35 0 34 0;
#X connect 35 1 34 1;
#X connect 36 0 284 0;
#X connect 39 0 53 0;
#X connect 40 0 41 0;
#X connect 41 0 39 0;
#X connect 42 0 200 0;
#X connect 43 0 55 0;
#X connect 44 0 43 0;
#X connect 45 0 44 0;
#X connect 45 1 44 1;
#X connect 46 0 195 0;
#X connect 47 0 49 0;
#X connect 48 0 47 0;
#X connect 49 0 124 0;
#X connect 50 0 49 0;
#X connect 50 1 49 1;
#X connect 52 0 38 0;
#X connect 52 0 51 0;
#X connect 52 0 68 0;
#X connect 52 0 57 0;
#X connect 52 0 36 0;
#X connect 52 0 60 0;
#X connect 52 0 63 0;
#X connect 52 0 148 0;
#X connect 52 0 157 0;
#X connect 52 0 372 0;
#X connect 53 0 56 0;
#X connect 54 0 44 0;
#X connect 55 0 46 0;
#X connect 56 0 54 0;
#X connect 58 0 59 0;
#X connect 59 0 45 0;
#X connect 60 0 283 0;
#X connect 61 0 62 0;
#X connect 62 0 50 0;
#X connect 63 0 282 0;
#X connect 63 0 281 0;
#X connect 64 0 35 0;
#X connect 65 0 67 0;
#X connect 66 0 65 0;
#X connect 67 0 58 0;
#X connect 68 0 274 0;
#X connect 68 0 275 0;
#X connect 69 0 10 0;
#X connect 69 0 70 0;
#X connect 70 0 20 0;
#X connect 71 0 42 0;
#X connect 72 0 21 0;
#X connect 73 0 41 0;
#X connect 74 0 151 0;
#X connect 74 0 160 1;
#X connect 74 0 163 0;
#X connect 74 0 155 0;
#X connect 76 0 1 0;
#X connect 76 0 7 0;
#X connect 76 0 12 0;
#X connect 76 0 18 0;
#X connect 76 0 23 0;
#X connect 76 0 28 0;
#X connect 77 0 2 0;
#X connect 77 0 8 0;
#X connect 77 0 13 0;
#X connect 77 0 19 0;
#X connect 77 0 40 0;
#X connect 77 0 29 0;
#X connect 78 0 77 1;
#X connect 79 0 76 1;
#X connect 80 0 77 0;
#X connect 81 0 76 0;
#X connect 82 0 61 1;
#X connect 82 0 48 1;
#X connect 82 0 198 1;
#X connect 82 0 200 1;
#X connect 83 0 120 0;
#X connect 84 0 142 0;
#X connect 85 0 94 0;
#X connect 85 0 88 0;
#X connect 86 0 95 0;
#X connect 86 0 89 0;
#X connect 87 0 91 0;
#X connect 87 0 94 1;
#X connect 87 0 95 1;
#X connect 88 0 140 0;
#X connect 89 0 134 0;
#X connect 90 0 87 0;
#X connect 90 0 83 1;
#X connect 90 0 84 1;
#X connect 90 0 85 1;
#X connect 90 0 86 1;
#X connect 91 0 92 0;
#X connect 92 0 93 0;
#X connect 93 0 88 1;
#X connect 93 0 89 1;
#X connect 94 0 132 0;
#X connect 95 0 126 0;
#X connect 96 0 185 0;
#X connect 97 0 98 0;
#X connect 98 0 101 0;
#X connect 98 0 115 0;
#X connect 99 0 156 0;
#X connect 100 0 99 0;
#X connect 101 0 100 1;
#X connect 102 0 103 0;
#X connect 103 0 112 0;
#X connect 103 0 106 0;
#X connect 104 0 124 0;
#X connect 105 0 104 0;
#X connect 106 0 105 1;
#X connect 107 0 108 0;
#X connect 108 0 114 0;
#X connect 108 0 111 0;
#X connect 109 0 125 0;
#X connect 110 0 109 0;
#X connect 111 0 110 1;
#X connect 112 0 105 0;
#X connect 113 0 282 0;
#X connect 114 0 110 0;
#X connect 115 0 116 0;
#X connect 116 0 100 0;
#X connect 117 0 118 0;
#X connect 118 0 116 1;
#X connect 120 0 2 1;
#X connect 120 0 97 0;
#X connect 120 0 177 0;
#X connect 120 0 202 0;
#X connect 121 0 8 1;
#X connect 121 0 210 0;
#X connect 122 0 57 0;
#X connect 123 0 51 0;
#X connect 123 0 113 0;
#X connect 124 0 169 0;
#X connect 124 0 252 0;
#X connect 125 0 170 0;
#X connect 125 0 253 0;
#X connect 126 0 12 1;
#X connect 126 0 102 0;
#X connect 126 0 180 0;
#X connect 126 0 220 0;
#X connect 127 0 18 1;
#X connect 127 0 228 0;
#X connect 128 0 11 1;
#X connect 128 0 102 0;
#X connect 128 0 222 0;
#X connect 128 0 271 1;
#X connect 129 0 16 1;
#X connect 129 0 230 0;
#X connect 130 0 72 1;
#X connect 130 0 102 0;
#X connect 130 0 224 0;
#X connect 130 0 272 1;
#X connect 131 0 17 1;
#X connect 131 0 232 0;
#X connect 132 0 13 1;
#X connect 132 0 102 0;
#X connect 132 0 179 0;
#X connect 132 0 218 0;
#X connect 133 0 19 1;
#X connect 133 0 226 0;
#X connect 134 0 23 1;
#X connect 134 0 107 0;
#X connect 134 0 182 0;
#X connect 134 0 234 0;
#X connect 135 0 28 1;
#X connect 135 0 242 0;
#X connect 136 0 22 1;
#X connect 136 0 107 0;
#X connect 136 0 236 0;
#X connect 136 0 271 1;
#X connect 137 0 26 1;
#X connect 137 0 244 0;
#X connect 138 0 73 1;
#X connect 138 0 238 0;
#X connect 138 0 272 1;
#X connect 139 0 27 1;
#X connect 139 0 246 0;
#X connect 140 0 40 1;
#X connect 140 0 107 0;
#X connect 140 0 181 0;
#X connect 140 0 247 0;
#X connect 141 0 29 1;
#X connect 141 0 240 0;
#X connect 142 0 1 1;
#X connect 142 0 97 0;
#X connect 142 0 178 0;
#X connect 142 0 204 0;
#X connect 143 0 7 1;
#X connect 143 0 212 0;
#X connect 144 0 0 1;
#X connect 144 0 97 0;
#X connect 144 0 206 0;
#X connect 144 0 271 1;
#X connect 145 0 5 1;
#X connect 145 0 214 0;
#X connect 146 0 71 1;
#X connect 146 0 97 0;
#X connect 146 0 208 0;
#X connect 146 0 272 1;
#X connect 147 0 6 1;
#X connect 147 0 216 0;
#X connect 148 0 63 0;
#X connect 149 0 68 0;
#X connect 150 0 187 0;
#X connect 151 0 186 0;
#X connect 152 0 103 1;
#X connect 153 0 108 1;
#X connect 154 0 98 1;
#X connect 155 0 117 0;
#X connect 155 0 115 0;
#X connect 155 0 196 0;
#X connect 155 0 358 0;
#X connect 156 0 168 0;
#X connect 156 0 250 0;
#X connect 157 0 60 0;
#X connect 158 0 42 0;
#X connect 159 0 37 0;
#X connect 160 0 96 0;
#X connect 161 0 162 0;
#X connect 162 0 160 0;
#X connect 163 0 160 1;
#X connect 164 0 193 0;
#X connect 164 0 192 0;
#X connect 164 0 191 0;
#X connect 164 0 194 0;
#X connect 165 0 83 1;
#X connect 165 0 84 1;
#X connect 165 0 85 1;
#X connect 165 0 86 1;
#X connect 166 0 167 0;
#X connect 167 0 165 0;
#X connect 171 0 101 1;
#X connect 172 0 106 1;
#X connect 173 0 111 1;
#X connect 174 0 164 0;
#X connect 175 0 87 0;
#X connect 176 0 93 0;
#X connect 183 0 161 0;
#X connect 184 0 163 0;
#X connect 188 0 189 0;
#X connect 188 1 190 0;
#X connect 191 0 83 0;
#X connect 192 0 85 0;
#X connect 193 0 86 0;
#X connect 194 0 84 0;
#X connect 195 0 125 0;
#X connect 197 0 61 1;
#X connect 197 0 48 1;
#X connect 197 0 198 1;
#X connect 197 0 200 1;
#X connect 198 0 64 0;
#X connect 199 0 156 0;
#X connect 200 0 33 0;
#X connect 201 0 120 0;
#X connect 203 0 142 0;
#X connect 205 0 144 0;
#X connect 207 0 146 0;
#X connect 209 0 121 0;
#X connect 211 0 143 0;
#X connect 213 0 145 0;
#X connect 215 0 147 0;
#X connect 217 0 132 0;
#X connect 219 0 126 0;
#X connect 221 0 128 0;
#X connect 223 0 130 0;
#X connect 225 0 133 0;
#X connect 227 0 127 0;
#X connect 229 0 129 0;
#X connect 231 0 131 0;
#X connect 233 0 140 0;
#X connect 235 0 136 0;
#X connect 237 0 138 0;
#X connect 239 0 141 0;
#X connect 241 0 135 0;
#X connect 243 0 137 0;
#X connect 245 0 139 0;
#X connect 248 0 134 0;
#X connect 249 0 256 0;
#X connect 251 0 261 0;
#X connect 254 0 264 0;
#X connect 256 0 258 0;
#X connect 257 0 156 0;
#X connect 258 0 257 0;
#X connect 259 0 260 0;
#X connect 260 0 258 1;
#X connect 260 0 263 1;
#X connect 260 0 266 1;
#X connect 261 0 263 0;
#X connect 262 0 124 0;
#X connect 263 0 262 0;
#X connect 264 0 266 0;
#X connect 265 0 125 0;
#X connect 266 0 265 0;
#X connect 269 0 271 0;
#X connect 270 0 272 0;
#X connect 271 0 273 0;
#X connect 272 0 273 0;
#X connect 274 0 31 0;
#X connect 275 0 41 0;
#X connect 281 0 20 0;
#X connect 282 0 21 0;
#X connect 283 0 198 0;
#X connect 284 0 200 0;
#X connect 284 0 371 0;
#X connect 286 0 347 0;
#X connect 287 0 315 0;
#X connect 287 0 338 0;
#X connect 287 0 313 0;
#X connect 288 0 347 0;
#X connect 289 0 292 0;
#X connect 290 0 292 0;
#X connect 290 0 289 0;
#X connect 291 0 289 1;
#X connect 291 0 290 0;
#X connect 292 0 347 0;
#X connect 293 0 288 0;
#X connect 293 1 294 0;
#X connect 294 0 286 0;
#X connect 295 0 293 0;
#X connect 296 0 295 0;
#X connect 297 0 316 0;
#X connect 298 0 310 1;
#X connect 299 0 347 0;
#X connect 300 0 343 1;
#X connect 301 0 304 1;
#X connect 301 0 303 1;
#X connect 302 0 303 0;
#X connect 302 1 304 0;
#X connect 303 0 307 0;
#X connect 304 0 306 0;
#X connect 306 0 305 0;
#X connect 307 0 308 0;
#X connect 309 0 310 0;
#X connect 310 0 299 0;
#X connect 311 0 313 0;
#X connect 312 0 343 0;
#X connect 313 0 335 0;
#X connect 314 0 321 1;
#X connect 315 0 311 1;
#X connect 316 0 317 0;
#X connect 316 0 323 0;
#X connect 317 0 316 1;
#X connect 318 0 315 0;
#X connect 319 0 314 0;
#X connect 320 0 322 0;
#X connect 320 1 344 0;
#X connect 321 0 312 0;
#X connect 322 0 311 0;
#X connect 323 0 320 0;
#X connect 324 0 325 0;
#X connect 324 0 327 0;
#X connect 325 0 324 1;
#X connect 326 0 328 0;
#X connect 327 0 326 0;
#X connect 328 0 316 0;
#X connect 329 0 324 0;
#X connect 330 0 331 0;
#X connect 331 0 329 1;
#X connect 332 0 291 0;
#X connect 333 0 373 0;
#X connect 334 0 319 0;
#X connect 334 0 318 0;
#X connect 335 0 336 0;
#X connect 336 0 342 0;
#X connect 337 0 335 1;
#X connect 338 0 339 0;
#X connect 339 0 314 0;
#X connect 340 0 373 1;
#X connect 341 0 300 0;
#X connect 341 0 298 0;
#X connect 342 0 332 0;
#X connect 342 0 42 0;
#X connect 343 0 335 0;
#X connect 344 0 321 0;
#X connect 347 0 333 0;
#X connect 347 1 309 0;
#X connect 349 0 350 1;
#X connect 350 0 287 0;
#X connect 351 0 350 0;
#X connect 352 0 351 0;
#X connect 353 0 354 1;
#X connect 354 0 287 0;
#X connect 355 0 354 0;
#X connect 356 0 355 0;
#X connect 357 0 337 0;
#X connect 358 0 359 0;
#X connect 358 1 360 0;
#X connect 359 0 361 0;
#X connect 360 0 361 0;
#X connect 361 0 199 0;
#X connect 361 1 199 1;
#X connect 362 0 287 0;
#X connect 363 0 362 0;
#X connect 364 0 287 0;
#X connect 365 0 364 0;
#X connect 366 0 363 0;
#X connect 367 0 365 0;
#X connect 368 0 362 1;
#X connect 369 0 364 1;
#X connect 371 0 335 0;
#X connect 372 0 36 0;
#X connect 373 0 371 0;
#X coords 0 -1 1 1 304 168 1 100 100;
