#N canvas 400 96 1280 698 10;
#X obj -185 710 spigot-toggle_jaunenoir;
#X obj -227 710 spigot-toggle_red;
#X obj -258 711 spigot-toggle_vert;
#X obj -155 686 r fll0;
#X obj -99 686 r fll1;
#X obj 14 712 spigot-toggle_jaunenoir;
#X obj 45 712 spigot-toggle_jaunenoir;
#X obj -41 715 spigot-toggle_red;
#X obj -71 715 spigot-toggle_vert;
#X obj 54 735 r lo;
#X floatatom 3 730 5 0 0 0 - - -;
#X obj 166 715 spigot-toggle_jaunenoir;
#X obj 127 715 spigot-toggle_red;
#X obj 92 715 spigot-toggle_vert;
#X obj 206 684 r fll0;
#X obj 276 686 r fll1;
#X obj 313 715 spigot-toggle_jaunenoir;
#X obj 344 715 spigot-toggle_jaunenoir;
#X obj 280 715 spigot-toggle_red;
#X obj 248 715 spigot-toggle_vert;
#X floatatom 290 735 5 0 0 0 - - -;
#X obj 154 752 * 1;
#X obj 444 715 spigot-toggle_jaunenoir;
#X obj 414 715 spigot-toggle_red;
#X obj 467 692 r fll0;
#X obj 569 692 r fll1;
#X obj 577 715 spigot-toggle_jaunenoir;
#X obj 608 715 spigot-toggle_jaunenoir;
#X obj 547 715 spigot-toggle_red;
#X obj 516 715 spigot-toggle_vert;
#X obj 568 747 r lo;
#X floatatom 505 754 5 0 0 0 - - -;
#X msg 566 768 1;
#X obj -64 838 - 2;
#X obj -77 798 * 4;
#X obj -68 877 * 4;
#X obj 3 858 t b f;
#X msg 1276 136 0.75;
#X obj 974 159 s opa;
#X floatatom 1319 136 5 0 0 0 - - -;
#X msg 1334 136 0;
#X floatatom 419 786 5 0 0 0 - - -;
#X obj 385 715 spigot-toggle_vert;
#X obj 429 753 * 1;
#X obj -98 756 * 1;
#X floatatom 438 941 5 0 0 0 - - -;
#X obj 438 916 * 4;
#X obj 488 892 t b f;
#X floatatom 440 990 5 0 0 0 - - -;
#X obj 159 837 - 2;
#X obj 160 798 * 4;
#X obj 232 886 * 4;
#X obj 286 858 t b f;
#X msg 1519 135 0.75;
#X obj 1541 115 r lo;
#X obj 423 812 * 4;
#X floatatom 437 874 5 0 0 0 - - -;
#X obj 438 961 - 0;
#X obj 432 848 - 2;
#X msg 1462 135 0.5;
#X floatatom 601 864 5 0 0 0 - - -;
#X obj 2 792 * 4;
#X obj 602 895 + 1;
#X msg 1369 135 0.75;
#X obj 287 798 * 4;
#X obj 287 827 - 2;
#X msg 919 136 0.75;
#X obj 2 820 - 1;
#X obj 597 788 * 4;
#X obj 604 760 * 10;
#X obj 597 814 - 20;
#X msg 1589 135 0.5;
#X msg 51 712 0.75;
#X msg 231 741 0.75;
#X obj -155 710 spigot-toggle_jaunenoir;
#X obj 205 716 spigot-toggle_jaunenoir;
#X obj 474 717 spigot-toggle_jaunenoir;
#X obj 1089 124 r lo;
#X msg 1589 135 0.5;
#X msg 1570 116 0.5;
#X obj -357 688 spigot-toggle_red;
#X obj -392 688 spigot-toggle_vert;
#X obj -459 665 r trgrA;
#X obj -394 665 r trgrB;
#X obj -394 638 r A;
#X obj -349 638 r B;
#X msg 43 765 4;
#X msg 88 761 2;
#X obj -517 819 spigot-toggle_orange;
#X obj -517 842 spigot-toggle_orange;
#X obj -517 869 spigot-toggle_orange;
#X obj -518 895 spigot-toggle_orange;
#X obj -305 987 tgl 15 0 empty empty empty 17 7 0 10 -262144 -1 -1
1 1;
#X obj -480 930 spigot-toggle_red;
#X obj -480 953 spigot-toggle_red;
#X obj -506 1012 r lo;
#X obj -303 1029 - 1;
#X obj -302 1055 * -1;
#X obj -247 928 tgl 15 0 empty empty empty 17 7 0 10 -262144 -1 -1
-0 1;
#X obj -514 931 spigot-toggle_vert;
#X obj -514 956 spigot-toggle_vert;
#X obj -493 820 onoff4x;
#X obj -493 843 onoff5x;
#X obj -491 870 onoff6x;
#X obj -490 895 onoff7x;
#X obj 979 121 - 0.02;
#X obj 125 301 sel;
#X obj 103 329 spigot-toggle_orange;
#X obj 124 405 line;
#X obj 126 379 pack f f;
#X obj 171 354 f;
#X obj 259 303 sel;
#X obj 223 329 spigot-toggle_orange;
#X obj 268 413 line;
#X obj 266 380 pack f f;
#X obj 311 354 f;
#X obj 377 303 sel;
#X obj 350 329 spigot-toggle_orange;
#X obj 386 413 line;
#X obj 384 380 pack f f;
#X obj 429 354 f;
#X obj 172 308 r T$mod;
#X obj 282 327 r T$mod;
#X obj 399 327 r T$mod;
#X msg 266 355 1;
#X msg 771 140 0.75;
#X msg 384 355 1;
#X msg 48 377 1;
#X obj 47 401 + 1;
#X obj 90 379 - 1;
#X obj 80 403 * -1;
#X obj 125 133 cnv 15 60 130 empty empty empty 20 12 0 14 -262144 -66577
0;
#X obj 128 157 tgl 25 0 empty empty A 8 14 0 16 -1 -262144 -260097
0 1;
#X obj 155 157 tgl 25 1 empty empty empty 17 7 0 10 -1 -262144 -260097
0 1;
#X obj 343 132 bng 25 250 50 0 empty empty empty 17 7 0 10 -262144
-1 -1;
#X obj 222 132 bng 25 250 50 0 empty empty empty 17 7 0 10 -262144
-1 -1;
#X obj 249 131 cnv 12 60 130 empty empty empty 20 12 0 14 -262144 -66577
0;
#X floatatom 261 136 5 0 0 0 - - -;
#X obj 368 131 cnv 12 60 130 empty empty empty 20 12 0 14 -262144 -66577
0;
#X floatatom 378 136 5 0 0 0 - - -;
#X obj 249 184 tgl 25 0 empty empty B 8 14 0 16 -1 -262144 -260097
0 1;
#X obj 276 184 tgl 25 0 empty empty empty 17 7 0 10 -1 -262144 -1 0
1;
#X obj 249 211 tgl 25 0 empty empty ''a 8 14 1 16 -1 -262144 -260097
0 1;
#X obj 276 211 tgl 25 0 empty empty empty 17 7 0 10 -1 -262144 -1 0
1;
#X obj 249 238 tgl 25 0 empty empty ''b 8 14 1 16 -1 -262144 -260097
0 1;
#X obj 276 238 tgl 25 0 empty empty empty 17 7 0 10 -1 -262144 -1 0
1;
#X obj 303 160 vsl 25 100 0 1 0 0 empty empty empty 1 17 0 10 -1 -262144
-1 14850 1;
#X obj 222 160 vsl 25 100 0 1 0 0 empty empty ____ 1 15 0 10 -1 -260097
-1 14850 1;
#X obj 249 157 tgl 25 0 empty empty A 8 14 0 16 -1 -262144 -260097
0 1;
#X obj 276 157 tgl 25 0 empty empty empty 17 7 0 10 -1 -262144 -260097
0 1;
#X obj 370 184 tgl 25 0 empty empty B 8 14 0 16 -1 -262144 -260097
0 1;
#X obj 397 184 tgl 25 0 empty empty empty 17 7 0 10 -1 -262144 -1 0
1;
#X obj 370 211 tgl 25 0 empty empty ''a 8 14 1 16 -1 -262144 -260097
0 1;
#X obj 397 211 tgl 25 0 empty empty empty 17 7 0 10 -1 -262144 -1 0
1;
#X obj 370 238 tgl 25 0 empty empty ''b 8 14 1 16 -1 -262144 -260097
0 1;
#X obj 397 238 tgl 25 0 empty empty empty 17 7 0 10 -1 -262144 -1 1
1;
#X obj 424 160 vsl 25 100 0 1 0 0 empty empty empty 1 17 0 10 -1 -262144
-1 9900 1;
#X obj 343 160 vsl 25 100 0 1 0 0 empty empty ____ 1 15 0 10 -1 -260097
-1 9100 1;
#X obj 370 157 tgl 25 0 empty empty A 8 14 0 16 -1 -262144 -260097
0 1;
#X obj 397 157 tgl 25 1 empty empty empty 17 7 0 10 -1 -262144 -260097
0 1;
#X obj 128 184 tgl 25 0 empty empty B 8 14 0 16 -1 -262144 -260097
0 1;
#X obj 155 184 tgl 25 0 empty empty empty 17 7 0 10 -1 -262144 -1 0
1;
#X obj 128 211 tgl 25 0 empty empty ''a 8 14 1 16 -1 -262144 -260097
0 1;
#X obj 155 211 tgl 25 0 empty empty empty 17 7 0 10 -1 -262144 -1 0
1;
#X obj 128 238 tgl 25 0 empty empty ''b 8 14 1 16 -1 -262144 -260097
0 1;
#X obj 155 238 tgl 25 0 empty empty empty 17 7 0 10 -1 -262144 -1 0
1;
#X obj 182 160 vsl 25 100 0 1 0 0 empty empty empty 1 17 0 10 -1 -262144
-1 12450 1;
#X obj 101 160 vsl 25 100 0 1 0 0 empty empty ____ 1 15 0 10 -1 -260097
-1 14850 1;
#X obj 303 132 bng 25 250 50 0 empty empty empty 17 7 0 10 -262144
-1 -1;
#X obj 424 132 bng 25 250 50 0 empty empty empty 17 7 0 10 -262144
-1 -1;
#X obj 100 100 cnv 20 107 34 empty empty s&p 40 15 0 14 -1 -262144
0;
#X obj 342 100 cnv 20 107 34 empty empty pitch 32 15 0 14 -1 -262144
0;
#X obj 221 100 cnv 20 107 34 empty empty speed 33 15 0 14 -1 -262144
0;
#X obj 423 105 tgl 20 0 empty empty pad 3 9 0 9 -262144 -1 -1 0 1;
#X obj 301 105 tgl 20 0 empty empty pad 3 10 0 9 -262144 -1 -1 1 1
;
#X obj 224 105 tgl 20 0 empty empty bck 3 10 0 8 -262144 -1 -1 0 1
;
#X obj 347 105 tgl 20 0 empty empty bck 3 9 0 8 -262144 -1 -1 0 1;
#X obj 104 105 tgl 20 0 empty empty bck 3 10 0 8 -262144 -1 -1 0 1
;
#X obj 180 105 tgl 20 0 empty empty 88 4 10 0 10 -262144 -1 -1 1 1
;
#X floatatom 140 136 5 0 0 0 - - -;
#X obj 101 132 bng 25 250 50 0 empty empty empty 3 7 0 8 -262144 -1
-1;
#X obj 182 132 bng 25 250 50 0 empty empty empty 17 7 0 10 -262144
-1 -1;
#X floatatom -50 759 5 0 0 0 - - -;
#X obj 666 58 inlet;
#X obj 767 97 spigot-toggle_orange;
#X obj 655 17 r lo;
#X floatatom 658 180 6 0 0 0 - - -;
#X obj 661 217 * 1.3;
#X obj 686 -50 tgl 25 0 empty empty A=V 4 12 0 10 -1 -262144 -262144
1 1;
#X msg 684 126 0;
#X obj 709 -79 r A=V1;
#X obj 658 159 r V1A;
#X obj 1122 112 s padspeedA;
#X obj 1232 112 s padpitchA;
#X obj -333 903 r padspeedA;
#X obj -223 903 r padpitchA;
#X obj 815 169 s s&pAa;
#X obj 815 196 s s&pBa;
#X obj 817 340 s pitchBa;
#X obj 816 312 s pitchAa;
#X obj 816 226 s speedAa;
#X obj 815 257 s speedBa;
#X obj -543 853 tgl 15 0 empty empty loc 2 7 0 10 -262144 -1 -1 0 1
;
#X obj -597 770 * -1;
#X obj -596 711 r freestepsouts1;
#X obj -597 743 - 1;
#X obj -639 840 r locA;
#X obj -393 144 s pitchNspeedA;
#X obj -205 144 s pitchA;
#X obj -277 144 s speedA;
#X obj 442 1015 * 2;
#X obj -32 121 s 44/88_A;
#X obj 90 621 sel;
#X obj -42 903 * 1;
#X msg 53 898 0.5;
#X msg 89 897 1;
#X obj 134 -296 r send_s@pAA;
#X obj 133 -248 r send_s@pAB;
#X obj 134 -276 s s@pAA;
#X obj 134 -226 s s@pAB;
#X obj 133 -197 r send_s@pAa;
#X obj 134 -177 s s@pAa;
#X obj 134 -150 r send_s@pAb;
#X obj 134 -128 s s@pAb;
#X obj 257 -296 r send_spAA;
#X obj 257 -276 s spAA;
#X obj 256 -248 r send_spAB;
#X obj 257 -226 s spAB;
#X obj 256 -197 r send_spAa;
#X obj 257 -177 s spAa;
#X obj 257 -153 r send_spAb;
#X obj 257 -131 s spAb;
#X obj 365 -296 r send_pAA;
#X obj 365 -277 s pAA;
#X obj 363 -250 r send_pAB;
#X obj 365 -226 s pAB;
#X obj 365 -197 r send_pAa;
#X obj 366 -177 s pAa;
#X obj 366 -151 r send_pAb;
#X obj 366 -129 s pAb;
#X obj 164 -102 r send_mods@pAA;
#X obj 164 -82 s mods@pAA;
#X obj 163 -54 r send_mods@pAB;
#X obj 164 -32 s mods@pAB;
#X obj 163 -3 r send_mods@pAa;
#X obj 165 17 s mods@pAa;
#X obj 164 44 r send_mods@pAb;
#X obj 164 66 s mods@pAb;
#X obj 287 -106 r send_modspAA;
#X obj 287 -86 s modspAA;
#X obj 286 -58 r send_modspAB;
#X obj 287 -36 s modspAB;
#X obj 286 -7 r send_modspAa;
#X obj 287 13 s modspAa;
#X obj 287 37 r send_modspAb;
#X obj 287 59 s modspAb;
#X obj 396 61 s modpAb;
#X obj 396 39 r send_modpAb;
#X obj 396 13 s modpAa;
#X obj 395 -7 r send_modpAa;
#X obj 395 -36 s modpAB;
#X obj 393 -60 r send_modpAB;
#X obj 395 -87 s modpAA;
#X obj 395 -106 r send_modpAA;
#X obj -712 145 s $s&pA;
#X obj -622 145 s $sA;
#X obj -552 145 s $pA;
#X floatatom -707 64 5 0 0 0 - - -;
#X obj -707 115 line;
#X obj -708 89 pack f f;
#X obj -664 52 * 1.1;
#X floatatom -597 64 5 0 0 0 - - -;
#X obj -597 115 line;
#X obj -598 89 pack f f;
#X floatatom -497 64 5 0 0 0 - - -;
#X obj -497 115 line;
#X obj -498 89 pack f f;
#X obj -541 -3 r send_$pA;
#X obj -611 -3 r send_$sA;
#X obj -702 -3 r send_$s&pA;
#X obj -665 28 r T$mod;
#X obj -230 801 s pitchNspeedA01;
#X obj -88 238 s speedAdrct;
#X connect 0 0 44 0;
#X connect 1 0 44 0;
#X connect 2 0 44 0;
#X connect 3 0 0 0;
#X connect 3 0 5 0;
#X connect 4 0 6 0;
#X connect 4 0 74 0;
#X connect 5 0 10 0;
#X connect 6 0 10 0;
#X connect 7 0 10 0;
#X connect 8 0 10 0;
#X connect 9 0 72 0;
#X connect 10 0 61 0;
#X connect 11 0 21 0;
#X connect 12 0 21 0;
#X connect 13 0 21 0;
#X connect 14 0 11 0;
#X connect 14 0 16 0;
#X connect 15 0 17 0;
#X connect 15 0 75 0;
#X connect 16 0 20 0;
#X connect 17 0 20 0;
#X connect 18 0 20 0;
#X connect 19 0 20 0;
#X connect 20 0 64 0;
#X connect 21 0 50 0;
#X connect 22 0 43 0;
#X connect 23 0 43 0;
#X connect 24 0 22 0;
#X connect 24 0 26 0;
#X connect 25 0 27 0;
#X connect 25 0 76 0;
#X connect 26 0 31 0;
#X connect 27 0 31 0;
#X connect 28 0 31 0;
#X connect 29 0 31 0;
#X connect 30 0 32 0;
#X connect 31 0 69 0;
#X connect 32 0 31 0;
#X connect 33 0 35 0;
#X connect 34 0 33 0;
#X connect 35 0 213 0;
#X connect 36 0 35 0;
#X connect 36 1 35 1;
#X connect 37 0 167 0;
#X connect 41 0 55 0;
#X connect 42 0 43 0;
#X connect 43 0 41 0;
#X connect 44 0 34 0;
#X connect 44 0 281 0;
#X connect 45 0 57 0;
#X connect 46 0 45 0;
#X connect 47 0 46 0;
#X connect 47 1 46 1;
#X connect 48 0 210 0;
#X connect 49 0 51 0;
#X connect 50 0 49 0;
#X connect 51 0 137 0;
#X connect 52 0 51 0;
#X connect 52 1 51 1;
#X connect 54 0 40 0;
#X connect 54 0 53 0;
#X connect 54 0 71 0;
#X connect 54 0 59 0;
#X connect 54 0 37 0;
#X connect 54 0 63 0;
#X connect 54 0 66 0;
#X connect 54 0 168 0;
#X connect 54 0 180 0;
#X connect 54 0 181 0;
#X connect 55 0 58 0;
#X connect 56 0 46 0;
#X connect 57 0 48 0;
#X connect 58 0 56 0;
#X connect 59 0 157 0;
#X connect 60 0 62 0;
#X connect 61 0 67 0;
#X connect 62 0 47 0;
#X connect 63 0 166 0;
#X connect 64 0 65 0;
#X connect 65 0 52 0;
#X connect 66 0 147 0;
#X connect 66 0 146 0;
#X connect 67 0 36 0;
#X connect 68 0 70 0;
#X connect 69 0 68 0;
#X connect 70 0 60 0;
#X connect 71 0 156 0;
#X connect 71 0 157 0;
#X connect 72 0 10 0;
#X connect 72 0 73 0;
#X connect 73 0 20 0;
#X connect 74 0 44 0;
#X connect 75 0 21 0;
#X connect 76 0 43 0;
#X connect 77 0 174 0;
#X connect 77 0 184 1;
#X connect 79 0 166 0;
#X connect 80 0 1 0;
#X connect 80 0 7 0;
#X connect 80 0 12 0;
#X connect 80 0 18 0;
#X connect 80 0 23 0;
#X connect 80 0 28 0;
#X connect 81 0 2 0;
#X connect 81 0 8 0;
#X connect 81 0 13 0;
#X connect 81 0 19 0;
#X connect 81 0 42 0;
#X connect 81 0 29 0;
#X connect 82 0 81 1;
#X connect 83 0 80 1;
#X connect 84 0 81 0;
#X connect 85 0 80 0;
#X connect 86 0 64 1;
#X connect 86 0 50 1;
#X connect 86 0 61 1;
#X connect 86 0 34 1;
#X connect 87 0 64 1;
#X connect 87 0 50 1;
#X connect 87 0 61 1;
#X connect 87 0 34 1;
#X connect 88 0 132 0;
#X connect 89 0 160 0;
#X connect 90 0 99 0;
#X connect 90 0 93 0;
#X connect 91 0 100 0;
#X connect 91 0 94 0;
#X connect 92 0 96 0;
#X connect 92 0 99 1;
#X connect 92 0 100 1;
#X connect 93 0 158 0;
#X connect 94 0 150 0;
#X connect 95 0 92 0;
#X connect 95 0 88 1;
#X connect 95 0 89 1;
#X connect 95 0 90 1;
#X connect 95 0 91 1;
#X connect 96 0 97 0;
#X connect 97 0 98 0;
#X connect 98 0 93 1;
#X connect 98 0 94 1;
#X connect 99 0 148 0;
#X connect 100 0 140 0;
#X connect 101 0 88 0;
#X connect 102 0 89 0;
#X connect 103 0 90 0;
#X connect 104 0 91 0;
#X connect 105 0 38 0;
#X connect 106 0 107 0;
#X connect 107 0 110 0;
#X connect 107 0 127 0;
#X connect 108 0 179 0;
#X connect 109 0 108 0;
#X connect 110 0 109 1;
#X connect 111 0 112 0;
#X connect 112 0 124 0;
#X connect 112 0 115 0;
#X connect 113 0 137 0;
#X connect 114 0 113 0;
#X connect 115 0 114 1;
#X connect 116 0 117 0;
#X connect 117 0 126 0;
#X connect 117 0 120 0;
#X connect 118 0 139 0;
#X connect 119 0 118 0;
#X connect 120 0 119 1;
#X connect 121 0 110 1;
#X connect 122 0 115 1;
#X connect 123 0 120 1;
#X connect 124 0 114 0;
#X connect 125 0 147 0;
#X connect 126 0 119 0;
#X connect 127 0 128 0;
#X connect 128 0 109 0;
#X connect 129 0 130 0;
#X connect 130 0 128 1;
#X connect 132 0 2 1;
#X connect 132 0 106 0;
#X connect 132 0 196 0;
#X connect 132 0 218 0;
#X connect 133 0 8 1;
#X connect 133 0 241 0;
#X connect 134 0 59 0;
#X connect 135 0 53 0;
#X connect 135 0 125 0;
#X connect 137 0 209 0;
#X connect 137 0 265 0;
#X connect 139 0 208 0;
#X connect 139 0 266 0;
#X connect 140 0 12 1;
#X connect 140 0 111 0;
#X connect 140 0 201 0;
#X connect 140 0 227 0;
#X connect 141 0 18 1;
#X connect 141 0 251 0;
#X connect 142 0 11 1;
#X connect 142 0 111 0;
#X connect 142 0 229 0;
#X connect 143 0 16 1;
#X connect 143 0 253 0;
#X connect 144 0 75 1;
#X connect 144 0 111 0;
#X connect 144 0 231 0;
#X connect 145 0 17 1;
#X connect 145 0 255 0;
#X connect 146 0 20 0;
#X connect 147 0 21 0;
#X connect 148 0 13 1;
#X connect 148 0 111 0;
#X connect 148 0 200 0;
#X connect 148 0 225 0;
#X connect 149 0 19 1;
#X connect 149 0 249 0;
#X connect 150 0 23 1;
#X connect 150 0 116 0;
#X connect 150 0 198 0;
#X connect 150 0 235 0;
#X connect 151 0 28 1;
#X connect 151 0 260 0;
#X connect 152 0 22 1;
#X connect 152 0 116 0;
#X connect 152 0 237 0;
#X connect 153 0 26 1;
#X connect 153 0 258 0;
#X connect 154 0 76 1;
#X connect 154 0 239 0;
#X connect 155 0 27 1;
#X connect 155 0 256 0;
#X connect 156 0 31 0;
#X connect 157 0 43 0;
#X connect 158 0 42 1;
#X connect 158 0 116 0;
#X connect 158 0 199 0;
#X connect 158 0 233 0;
#X connect 159 0 29 1;
#X connect 159 0 262 0;
#X connect 160 0 1 1;
#X connect 160 0 106 0;
#X connect 160 0 197 0;
#X connect 160 0 219 0;
#X connect 161 0 7 1;
#X connect 161 0 243 0;
#X connect 162 0 0 1;
#X connect 162 0 106 0;
#X connect 162 0 221 0;
#X connect 163 0 5 1;
#X connect 163 0 245 0;
#X connect 164 0 74 1;
#X connect 164 0 106 0;
#X connect 164 0 223 0;
#X connect 165 0 6 1;
#X connect 165 0 247 0;
#X connect 166 0 10 0;
#X connect 167 0 34 0;
#X connect 168 0 66 0;
#X connect 169 0 71 0;
#X connect 173 0 193 0;
#X connect 174 0 192 0;
#X connect 175 0 112 1;
#X connect 176 0 117 1;
#X connect 177 0 107 1;
#X connect 178 0 129 0;
#X connect 178 0 127 0;
#X connect 178 0 211 0;
#X connect 178 0 212 0;
#X connect 179 0 207 0;
#X connect 179 0 264 0;
#X connect 180 0 37 0;
#X connect 181 0 63 0;
#X connect 182 0 44 0;
#X connect 183 0 39 0;
#X connect 184 0 105 0;
#X connect 185 0 188 0;
#X connect 185 0 189 0;
#X connect 185 0 178 0;
#X connect 186 0 187 0;
#X connect 187 0 184 0;
#X connect 188 0 184 1;
#X connect 190 0 188 0;
#X connect 191 0 186 0;
#X connect 194 0 92 0;
#X connect 195 0 98 0;
#X connect 202 0 101 0;
#X connect 202 0 102 0;
#X connect 202 0 103 0;
#X connect 202 0 104 0;
#X connect 203 0 88 1;
#X connect 203 0 89 1;
#X connect 203 0 90 1;
#X connect 203 0 91 1;
#X connect 204 0 205 0;
#X connect 205 0 203 0;
#X connect 206 0 202 0;
#X connect 210 0 139 0;
#X connect 212 0 215 0;
#X connect 212 1 214 0;
#X connect 213 0 179 0;
#X connect 214 0 213 1;
#X connect 215 0 213 1;
#X connect 216 0 132 0;
#X connect 217 0 160 0;
#X connect 220 0 162 0;
#X connect 222 0 164 0;
#X connect 224 0 148 0;
#X connect 226 0 140 0;
#X connect 228 0 142 0;
#X connect 230 0 144 0;
#X connect 232 0 158 0;
#X connect 234 0 150 0;
#X connect 236 0 152 0;
#X connect 238 0 154 0;
#X connect 240 0 133 0;
#X connect 242 0 161 0;
#X connect 244 0 163 0;
#X connect 246 0 165 0;
#X connect 248 0 149 0;
#X connect 250 0 141 0;
#X connect 252 0 143 0;
#X connect 254 0 145 0;
#X connect 257 0 155 0;
#X connect 259 0 153 0;
#X connect 261 0 151 0;
#X connect 263 0 159 0;
#X connect 267 0 269 0;
#X connect 268 0 179 0;
#X connect 269 0 268 0;
#X connect 270 0 269 1;
#X connect 270 0 273 1;
#X connect 270 0 276 1;
#X connect 271 0 273 0;
#X connect 272 0 137 0;
#X connect 273 0 272 0;
#X connect 274 0 276 0;
#X connect 275 0 139 0;
#X connect 276 0 275 0;
#X connect 277 0 274 0;
#X connect 278 0 271 0;
#X connect 279 0 267 0;
#X connect 280 0 270 0;
#X coords 0 -1 1 1 350 164 1 100 100;
