#N canvas 111 55 1280 698 10;
#X obj -181 713 spigot-toggle_jaunenoir;
#X obj -223 713 spigot-toggle_red;
#X obj -254 714 spigot-toggle_vert;
#X obj -151 689 r fll0;
#X obj -95 689 r fll1;
#X obj 18 715 spigot-toggle_jaunenoir;
#X obj 49 715 spigot-toggle_jaunenoir;
#X obj -37 718 spigot-toggle_red;
#X obj -67 718 spigot-toggle_vert;
#X obj 58 738 r lo;
#X floatatom 7 733 5 0 0 0 - - -, f 5;
#X obj 170 718 spigot-toggle_jaunenoir;
#X obj 131 718 spigot-toggle_red;
#X obj 96 718 spigot-toggle_vert;
#X obj 210 687 r fll0;
#X obj 280 689 r fll1;
#X obj 317 718 spigot-toggle_jaunenoir;
#X obj 348 718 spigot-toggle_jaunenoir;
#X obj 284 718 spigot-toggle_red;
#X obj 252 718 spigot-toggle_vert;
#X floatatom 294 738 5 0 0 0 - - -, f 5;
#X obj 158 755 * 1;
#X obj 448 718 spigot-toggle_jaunenoir;
#X obj 418 718 spigot-toggle_red;
#X obj 471 695 r fll0;
#X obj 573 695 r fll1;
#X obj 581 718 spigot-toggle_jaunenoir;
#X obj 612 718 spigot-toggle_jaunenoir;
#X obj 551 718 spigot-toggle_red;
#X obj 520 718 spigot-toggle_vert;
#X obj 572 750 r lo;
#X floatatom 509 757 5 0 0 0 - - -, f 5;
#X msg 570 771 1;
#X obj -60 841 - 2;
#X obj -73 801 * 4;
#X obj -64 880 * 4;
#X obj 7 861 t b f;
#X msg 1280 139 0.75;
#X obj 978 162 s opa;
#X floatatom 1323 139 5 0 0 0 - - -, f 5;
#X msg 1338 139 0;
#X floatatom 423 789 5 0 0 0 - - -, f 5;
#X obj 389 718 spigot-toggle_vert;
#X obj 433 756 * 1;
#X obj -94 759 * 1;
#X floatatom 442 944 5 0 0 0 - - -, f 5;
#X obj 442 919 * 4;
#X obj 492 895 t b f;
#X floatatom 444 993 5 0 0 0 - - -, f 5;
#X obj 163 840 - 2;
#X obj 164 801 * 4;
#X obj 236 889 * 4;
#X obj 290 861 t b f;
#X msg 1523 138 0.75;
#X obj 1545 118 r lo;
#X obj 427 815 * 4;
#X floatatom 441 877 5 0 0 0 - - -, f 5;
#X obj 442 964 - 0;
#X obj 436 851 - 2;
#X msg 1466 138 0.5;
#X floatatom 605 867 5 0 0 0 - - -, f 5;
#X obj 6 795 * 4;
#X obj 606 898 + 1;
#X msg 1373 138 0.75;
#X obj 291 801 * 4;
#X obj 291 830 - 2;
#X msg 923 139 0.75;
#X obj 6 823 - 1;
#X obj 601 791 * 4;
#X obj 608 763 * 10;
#X obj 601 817 - 20;
#X msg 1593 138 0.5;
#X msg 55 715 0.75;
#X msg 235 744 0.75;
#X obj -151 713 spigot-toggle_jaunenoir;
#X obj 209 719 spigot-toggle_jaunenoir;
#X obj 478 720 spigot-toggle_jaunenoir;
#X obj 1093 127 r lo;
#X msg 1593 138 0.5;
#X msg 1574 119 0.5;
#X obj -353 691 spigot-toggle_red;
#X obj -388 691 spigot-toggle_vert;
#X obj -455 668 r trgrA;
#X obj -390 668 r trgrB;
#X obj -390 641 r A;
#X obj -345 641 r B;
#X msg 47 768 4;
#X msg 92 764 2;
#X obj -513 822 spigot-toggle_orange;
#X obj -513 845 spigot-toggle_orange;
#X obj -513 872 spigot-toggle_orange;
#X obj -514 898 spigot-toggle_orange;
#X obj -301 990 tgl 15 0 empty empty empty 17 7 0 10 -262144 -1 -1
1 1;
#X obj -476 933 spigot-toggle_red;
#X obj -476 956 spigot-toggle_red;
#X obj -502 1015 r lo;
#X obj -299 1032 - 1;
#X obj -298 1058 * -1;
#X obj -243 931 tgl 15 0 empty empty empty 17 7 0 10 -262144 -1 -1
-0 1;
#X obj -510 934 spigot-toggle_vert;
#X obj -510 959 spigot-toggle_vert;
#X obj -489 823 onoff4x;
#X obj -489 846 onoff5x;
#X obj -487 873 onoff6x;
#X obj -486 898 onoff7x;
#X obj 983 124 - 0.02;
#X obj 127 307 sel;
#X obj 103 332 spigot-toggle_orange;
#X obj 124 408 line;
#X obj 126 382 pack f f;
#X obj 171 357 f;
#X obj 268 306 sel;
#X obj 232 332 spigot-toggle_orange;
#X obj 277 416 line;
#X obj 275 383 pack f f;
#X obj 320 357 f;
#X obj 388 306 sel;
#X obj 361 332 spigot-toggle_orange;
#X obj 397 416 line;
#X obj 395 383 pack f f;
#X obj 440 357 f;
#X obj 141 330 r T$mod;
#X obj 291 330 r T$mod;
#X obj 410 330 r T$mod;
#X msg 275 358 1;
#X msg 775 143 0.75;
#X msg 395 358 1;
#X msg 48 380 1;
#X obj 47 404 + 1;
#X obj 90 382 - 1;
#X obj 80 406 * -1;
#X obj 126 129 cnv 15 60 130 empty empty empty 20 12 0 14 -262144 -66577
0;
#X obj 132 154 tgl 25 0 empty empty A 8 14 0 16 -1 -262144 -260097
0 1;
#X obj 161 155 tgl 22 1 empty empty empty 17 7 0 10 -1 -262144 -260097
0 1;
#X obj 366 128 bng 25 250 50 0 empty empty empty 17 7 0 10 -262144
-1 -1;
#X obj 236 128 bng 25 250 50 0 empty empty empty 17 7 0 10 -262144
-1 -1;
#X obj 263 127 cnv 12 60 130 empty empty empty 20 12 0 14 -262144 -66577
0;
#X floatatom 270 132 5 0 0 0 - - -, f 5;
#X obj 392 127 cnv 12 60 130 empty empty empty 20 12 0 14 -262144 -66577
0;
#X floatatom 399 132 5 0 0 0 - - -, f 5;
#X obj 266 180 tgl 25 0 empty empty B 8 14 0 16 -1 -262144 -260097
0 1;
#X obj 295 182 tgl 22 0 empty empty empty 17 7 0 10 -1 -262144 -1 0
1;
#X obj 266 206 tgl 25 0 empty empty ''a 8 14 1 16 -1 -262144 -260097
0 1;
#X obj 295 208 tgl 22 0 empty empty empty 17 7 0 10 -1 -262144 -1 0
1;
#X obj 266 232 tgl 25 0 empty empty ''b 8 14 1 16 -1 -262144 -260097
0 1;
#X obj 295 234 tgl 22 0 empty empty empty 17 7 0 10 -1 -262144 -1 0
1;
#X obj 322 156 vsl 25 100 0 1 0 0 empty empty empty 1 17 0 10 -1 -262144
-1 7425 1;
#X obj 236 156 vsl 25 100 0 1 0 0 empty empty ____ 1 15 0 10 -1 -262144
-1 7425 1;
#X obj 266 154 tgl 25 0 empty empty A 8 14 0 16 -1 -262144 -260097
0 1;
#X obj 295 156 tgl 22 0 empty empty empty 17 7 0 10 -1 -262144 -260097
0 1;
#X obj 396 180 tgl 25 0 empty empty B 8 14 0 16 -1 -262144 -260097
0 1;
#X obj 426 182 tgl 22 0 empty empty empty 17 7 0 10 -1 -262144 -1 0
1;
#X obj 396 206 tgl 25 0 empty empty ''a 8 14 1 16 -1 -262144 -260097
0 1;
#X obj 426 208 tgl 22 0 empty empty empty 17 7 0 10 -1 -262144 -1 0
1;
#X obj 396 232 tgl 25 0 empty empty ''b 8 14 1 16 -1 -262144 -260097
0 1;
#X obj 426 234 tgl 22 0 empty empty empty 17 7 0 10 -1 -262144 -1 0
1;
#X obj 453 156 vsl 25 100 0 1 0 0 empty empty empty 1 17 0 10 -1 -262144
-1 4950 1;
#X obj 367 156 vsl 25 100 0 1 0 0 empty empty ____ 1 15 0 10 -1 -262144
-1 4950 1;
#X obj 396 154 tgl 25 0 empty empty A 8 14 0 16 -1 -262144 -260097
0 1;
#X obj 426 156 tgl 22 1 empty empty empty 17 7 0 10 -1 -262144 -260097
0 1;
#X obj 132 180 tgl 25 0 empty empty B 8 14 0 16 -1 -262144 -260097
0 1;
#X obj 161 181 tgl 22 0 empty empty empty 17 7 0 10 -1 -262144 -1 0
1;
#X obj 132 206 tgl 25 0 empty empty ''a 8 14 1 16 -1 -262144 -260097
0 1;
#X obj 161 207 tgl 22 0 empty empty empty 17 7 0 10 -1 -262144 -1 0
1;
#X obj 132 232 tgl 25 0 empty empty ''b 8 14 1 16 -1 -262144 -260097
0 1;
#X obj 161 233 tgl 22 0 empty empty empty 17 7 0 10 -1 -262144 -1 0
1;
#X obj 189 156 vsl 25 100 0 1 0 0 empty empty empty 1 17 0 10 -1 -262144
-1 7425 1;
#X obj 102 156 vsl 25 100 0 1 0 0 empty empty ____ 1 15 0 10 -1 -262144
-1 7425 1;
#X obj 322 128 bng 25 250 50 0 empty empty empty 17 7 0 10 -262144
-1 -1;
#X obj 453 128 bng 25 250 50 0 empty empty empty 17 7 0 10 -262144
-1 -1;
#X obj 102 102 cnv 20 112 25 empty empty s&p 43 12 0 14 -1 -262144
0;
#X obj 366 102 cnv 20 112 25 empty empty pitch 32 12 0 14 -1 -262144
0;
#X obj 235 102 cnv 20 112 25 empty empty speed 35 12 0 14 -1 -262144
0;
#X obj 455 105 tgl 20 0 empty empty pad 3 9 0 9 -262144 -1 -1 0 1;
#X obj 323 105 tgl 20 0 empty empty pad 3 10 0 9 -262144 -1 -1 1 1
;
#X obj 238 105 tgl 20 0 empty empty bck 3 10 0 8 -262144 -1 -1 1 1
;
#X obj 369 105 tgl 20 0 empty empty bck 3 9 0 8 -262144 -1 -1 1 1;
#X obj 105 105 tgl 20 0 empty empty bck 3 10 0 8 -262144 -1 -1 1 1
;
#X obj 191 105 tgl 20 0 empty empty 44 4 10 0 10 -262144 -1 -1 0 1
;
#X floatatom 135 132 5 0 0 0 - - -, f 5;
#X obj 102 128 bng 25 250 50 0 empty empty empty 3 7 0 8 -262144 -1
-1;
#X obj 189 128 bng 25 250 50 0 empty empty empty 17 7 0 10 -262144
-1 -1;
#X floatatom -46 762 5 0 0 0 - - -, f 5;
#X obj 670 61 inlet;
#X obj 771 100 spigot-toggle_orange;
#X obj 673 87 r lo;
#X floatatom 662 183 6 0 0 0 - - -, f 6;
#X obj 665 220 * 1.3;
#X obj 690 -47 tgl 25 0 empty empty A=V 4 12 0 10 -1 -262144 -262144
1 1;
#X msg 688 129 0;
#X obj 713 -76 r A=V1;
#X obj 662 162 r V1A;
#X obj 1126 115 s padspeedA;
#X obj 1236 115 s padpitchA;
#X obj -329 906 r padspeedA;
#X obj -219 906 r padpitchA;
#X obj 819 172 s s&pAa;
#X obj 819 199 s s&pBa;
#X obj 821 343 s pitchBa;
#X obj 820 315 s pitchAa;
#X obj 820 229 s speedAa;
#X obj 819 260 s speedBa;
#X obj -539 856 tgl 15 0 empty empty loc 2 7 0 10 -262144 -1 -1 0 1
;
#X obj -593 773 * -1;
#X obj -592 714 r freestepsouts1;
#X obj -593 746 - 1;
#X obj -635 843 r locA;
#X obj -389 147 s pitchNspeedA;
#X obj -201 147 s pitchA;
#X obj -273 147 s speedA;
#X obj 446 1018 * 2;
#X connect 0 0 44 0;
#X connect 1 0 44 0;
#X connect 2 0 44 0;
#X connect 3 0 0 0;
#X connect 3 0 5 0;
#X connect 4 0 6 0;
#X connect 4 0 74 0;
#X connect 5 0 10 0;
#X connect 6 0 10 0;
#X connect 7 0 10 0;
#X connect 8 0 10 0;
#X connect 9 0 72 0;
#X connect 10 0 61 0;
#X connect 11 0 21 0;
#X connect 12 0 21 0;
#X connect 13 0 21 0;
#X connect 14 0 11 0;
#X connect 14 0 16 0;
#X connect 15 0 17 0;
#X connect 15 0 75 0;
#X connect 16 0 20 0;
#X connect 17 0 20 0;
#X connect 18 0 20 0;
#X connect 19 0 20 0;
#X connect 20 0 64 0;
#X connect 21 0 50 0;
#X connect 22 0 43 0;
#X connect 23 0 43 0;
#X connect 24 0 22 0;
#X connect 24 0 26 0;
#X connect 25 0 27 0;
#X connect 25 0 76 0;
#X connect 26 0 31 0;
#X connect 27 0 31 0;
#X connect 28 0 31 0;
#X connect 29 0 31 0;
#X connect 30 0 32 0;
#X connect 31 0 69 0;
#X connect 32 0 31 0;
#X connect 33 0 35 0;
#X connect 34 0 33 0;
#X connect 35 0 179 0;
#X connect 36 0 35 0;
#X connect 36 1 35 1;
#X connect 37 0 167 0;
#X connect 41 0 55 0;
#X connect 42 0 43 0;
#X connect 43 0 41 0;
#X connect 44 0 34 0;
#X connect 45 0 57 0;
#X connect 46 0 45 0;
#X connect 47 0 46 0;
#X connect 47 1 46 1;
#X connect 48 0 210 0;
#X connect 49 0 51 0;
#X connect 50 0 49 0;
#X connect 51 0 137 0;
#X connect 52 0 51 0;
#X connect 52 1 51 1;
#X connect 54 0 40 0;
#X connect 54 0 53 0;
#X connect 54 0 71 0;
#X connect 54 0 59 0;
#X connect 54 0 37 0;
#X connect 54 0 63 0;
#X connect 54 0 66 0;
#X connect 54 0 168 0;
#X connect 54 0 180 0;
#X connect 54 0 181 0;
#X connect 55 0 58 0;
#X connect 56 0 46 0;
#X connect 57 0 48 0;
#X connect 58 0 56 0;
#X connect 59 0 157 0;
#X connect 60 0 62 0;
#X connect 61 0 67 0;
#X connect 62 0 47 0;
#X connect 63 0 166 0;
#X connect 64 0 65 0;
#X connect 65 0 52 0;
#X connect 66 0 147 0;
#X connect 66 0 146 0;
#X connect 67 0 36 0;
#X connect 68 0 70 0;
#X connect 69 0 68 0;
#X connect 70 0 60 0;
#X connect 71 0 156 0;
#X connect 71 0 157 0;
#X connect 72 0 10 0;
#X connect 72 0 73 0;
#X connect 73 0 20 0;
#X connect 74 0 44 0;
#X connect 75 0 21 0;
#X connect 76 0 43 0;
#X connect 77 0 174 0;
#X connect 77 0 184 1;
#X connect 79 0 166 0;
#X connect 80 0 1 0;
#X connect 80 0 7 0;
#X connect 80 0 12 0;
#X connect 80 0 18 0;
#X connect 80 0 23 0;
#X connect 80 0 28 0;
#X connect 81 0 2 0;
#X connect 81 0 8 0;
#X connect 81 0 13 0;
#X connect 81 0 19 0;
#X connect 81 0 42 0;
#X connect 81 0 29 0;
#X connect 82 0 81 1;
#X connect 83 0 80 1;
#X connect 84 0 81 0;
#X connect 85 0 80 0;
#X connect 86 0 64 1;
#X connect 86 0 50 1;
#X connect 86 0 61 1;
#X connect 86 0 34 1;
#X connect 87 0 64 1;
#X connect 87 0 50 1;
#X connect 87 0 61 1;
#X connect 87 0 34 1;
#X connect 88 0 132 0;
#X connect 89 0 160 0;
#X connect 90 0 99 0;
#X connect 90 0 93 0;
#X connect 91 0 100 0;
#X connect 91 0 94 0;
#X connect 92 0 96 0;
#X connect 92 0 99 1;
#X connect 92 0 100 1;
#X connect 93 0 158 0;
#X connect 94 0 150 0;
#X connect 95 0 92 0;
#X connect 95 0 88 1;
#X connect 95 0 89 1;
#X connect 95 0 90 1;
#X connect 95 0 91 1;
#X connect 96 0 97 0;
#X connect 97 0 98 0;
#X connect 98 0 93 1;
#X connect 98 0 94 1;
#X connect 99 0 148 0;
#X connect 100 0 140 0;
#X connect 101 0 88 0;
#X connect 102 0 89 0;
#X connect 103 0 90 0;
#X connect 104 0 91 0;
#X connect 105 0 38 0;
#X connect 106 0 107 0;
#X connect 107 0 110 0;
#X connect 107 0 127 0;
#X connect 108 0 179 0;
#X connect 109 0 108 0;
#X connect 110 0 109 1;
#X connect 111 0 112 0;
#X connect 112 0 124 0;
#X connect 112 0 115 0;
#X connect 113 0 137 0;
#X connect 114 0 113 0;
#X connect 115 0 114 1;
#X connect 116 0 117 0;
#X connect 117 0 126 0;
#X connect 117 0 120 0;
#X connect 118 0 139 0;
#X connect 119 0 118 0;
#X connect 120 0 119 1;
#X connect 121 0 110 1;
#X connect 122 0 115 1;
#X connect 123 0 120 1;
#X connect 124 0 114 0;
#X connect 125 0 147 0;
#X connect 126 0 119 0;
#X connect 127 0 128 0;
#X connect 128 0 109 0;
#X connect 129 0 130 0;
#X connect 130 0 128 1;
#X connect 132 0 2 1;
#X connect 132 0 106 0;
#X connect 132 0 196 0;
#X connect 133 0 8 1;
#X connect 134 0 59 0;
#X connect 135 0 53 0;
#X connect 135 0 125 0;
#X connect 137 0 209 0;
#X connect 139 0 208 0;
#X connect 140 0 12 1;
#X connect 140 0 111 0;
#X connect 140 0 201 0;
#X connect 141 0 18 1;
#X connect 142 0 11 1;
#X connect 142 0 111 0;
#X connect 143 0 16 1;
#X connect 144 0 75 1;
#X connect 144 0 111 0;
#X connect 145 0 17 1;
#X connect 146 0 20 0;
#X connect 147 0 21 0;
#X connect 148 0 13 1;
#X connect 148 0 111 0;
#X connect 148 0 200 0;
#X connect 149 0 19 1;
#X connect 150 0 23 1;
#X connect 150 0 116 0;
#X connect 150 0 198 0;
#X connect 151 0 28 1;
#X connect 152 0 22 1;
#X connect 152 0 116 0;
#X connect 153 0 26 1;
#X connect 154 0 76 1;
#X connect 155 0 27 1;
#X connect 156 0 31 0;
#X connect 157 0 43 0;
#X connect 158 0 42 1;
#X connect 158 0 116 0;
#X connect 158 0 199 0;
#X connect 159 0 29 1;
#X connect 160 0 1 1;
#X connect 160 0 106 0;
#X connect 160 0 197 0;
#X connect 161 0 7 1;
#X connect 162 0 0 1;
#X connect 162 0 106 0;
#X connect 163 0 5 1;
#X connect 164 0 74 1;
#X connect 164 0 106 0;
#X connect 165 0 6 1;
#X connect 166 0 10 0;
#X connect 167 0 34 0;
#X connect 168 0 66 0;
#X connect 169 0 71 0;
#X connect 173 0 193 0;
#X connect 174 0 192 0;
#X connect 175 0 112 1;
#X connect 176 0 117 1;
#X connect 177 0 107 1;
#X connect 178 0 129 0;
#X connect 178 0 127 0;
#X connect 179 0 207 0;
#X connect 180 0 37 0;
#X connect 181 0 63 0;
#X connect 182 0 44 0;
#X connect 183 0 39 0;
#X connect 184 0 105 0;
#X connect 185 0 177 0;
#X connect 185 0 175 0;
#X connect 185 0 176 0;
#X connect 185 0 188 0;
#X connect 185 0 189 0;
#X connect 186 0 187 0;
#X connect 187 0 184 0;
#X connect 188 0 184 1;
#X connect 190 0 188 0;
#X connect 191 0 186 0;
#X connect 194 0 92 0;
#X connect 195 0 98 0;
#X connect 202 0 101 0;
#X connect 202 0 102 0;
#X connect 202 0 103 0;
#X connect 202 0 104 0;
#X connect 203 0 88 1;
#X connect 203 0 89 1;
#X connect 203 0 90 1;
#X connect 203 0 91 1;
#X connect 204 0 205 0;
#X connect 205 0 203 0;
#X connect 206 0 202 0;
#X connect 210 0 139 0;
#X coords 0 -1 1 1 380 160 1 100 100;
