#N canvas 460 0 1220 1028 10;
#X obj 341 674 spigot-toggle_jaunenoir;
#X obj 307 674 spigot-toggle_red;
#X obj 276 674 spigot-toggle_vert;
#X obj 604 654 r fll0;
#X obj 660 655 r fll1;
#X obj 548 672 spigot-toggle_jaunenoir;
#X obj 579 672 spigot-toggle_jaunenoir;
#X obj 523 672 spigot-toggle_red;
#X obj 493 672 spigot-toggle_vert;
#X floatatom 536 693 5 0 0 0 - - -;
#X obj 1645 657 spigot-toggle_jaunenoir;
#X obj 1615 657 spigot-toggle_red;
#X obj 1668 634 r fll0;
#X obj 1770 634 r fll1;
#X obj 1778 657 spigot-toggle_jaunenoir;
#X obj 1809 657 spigot-toggle_jaunenoir;
#X obj 1748 657 spigot-toggle_red;
#X obj 1717 657 spigot-toggle_vert;
#X obj 1771 682 r lo;
#X floatatom 1708 689 5 0 0 0 - - -;
#X msg 1740 712 1;
#X obj 537 757 t b f;
#X obj 822 -91 s opa;
#X floatatom 512 -313 5 0 0 0 - - -;
#X obj 1586 657 spigot-toggle_vert;
#X obj 467 697 * 1;
#X obj -51 -258 r lo;
#X msg 1291 56 0.75;
#X obj 379 674 spigot-toggle_jaunenoir;
#X obj 1675 659 spigot-toggle_jaunenoir;
#X obj 1503 40 r lo;
#X obj 230 658 spigot-toggle_red;
#X obj 156 656 spigot-toggle_vert;
#X obj 166 598 r A;
#X obj 153 692 r B;
#X obj 17 718 spigot-toggle_orange;
#X obj 17 741 spigot-toggle_orange;
#X obj 17 768 spigot-toggle_orange;
#X obj 16 794 spigot-toggle_orange;
#X obj 90 856 tgl 15 0 empty empty empty 17 7 0 10 -262144 -1 -1 1
1;
#X obj 54 829 spigot-toggle_red;
#X obj 54 852 spigot-toggle_red;
#X obj 28 911 r lo;
#X obj 92 898 - 1;
#X obj 93 924 * -1;
#X obj 88 832 tgl 15 0 empty empty empty 17 7 0 10 -262144 -1 -1 -0
1;
#X obj 20 830 spigot-toggle_vert;
#X obj 20 855 spigot-toggle_vert;
#X obj 50 716 onoff4x;
#X obj 41 742 onoff5x;
#X obj 825 -115 - 0.02;
#X obj 26 400 sel;
#X obj 27 425 spigot-toggle_orange;
#X obj 197 409 sel;
#X obj 214 429 spigot-toggle_orange;
#X obj 258 487 r T$mod;
#X obj 32 64 tgl 25 0 empty empty A 8 14 0 16 -1 -262144 -262144 1
1;
#X obj 56 64 tgl 25 1 empty empty A 8 14 1 16 -1 -262144 -262144 0
1;
#X floatatom 197 31 6 0 0 0 - - -;
#X obj 189 90 tgl 25 0 empty empty B 8 14 0 16 -1 -262144 -262144 0
1;
#X obj 214 90 tgl 25 0 empty empty B 8 14 0 16 -1 -262144 -262144 0
1;
#X obj 189 115 tgl 25 0 empty empty ''a 6 14 1 16 -1 -262144 -262144
0 1;
#X obj 214 115 tgl 25 0 empty empty "a 4 14 0 16 -1 -262144 -262144
0 1;
#X obj 189 140 tgl 25 0 empty empty ''b 6 14 1 16 -1 -262144 -262144
0 1;
#X obj 214 140 tgl 25 0 empty empty "b 4 14 0 16 -1 -262144 -262144
0 1;
#X obj 189 64 tgl 25 0 empty empty A 8 14 0 16 -1 -262144 -262144 0
1;
#X obj 214 64 tgl 25 1 empty empty A 7 14 0 16 -1 -262144 -262144 0
1;
#X obj 32 90 tgl 25 0 empty empty B 8 14 0 16 -1 -262144 -262144 0
1;
#X obj 56 90 tgl 25 0 empty empty B 8 14 1 16 -1 -262144 -262144 0
1;
#X obj 32 115 tgl 25 0 empty empty ''a 5 14 1 16 -1 -262144 -262144
0 1;
#X obj 56 115 tgl 25 0 empty empty "a 5 14 0 16 -1 -262144 -262144
0 1;
#X obj 33 140 tgl 25 0 empty empty ''b 5 14 1 16 -1 -262144 -262144
0 1;
#X obj 56 140 tgl 25 0 empty empty "b 5 14 0 16 -1 -262144 -262144
0 1;
#X obj 80 69 vsl 15 90 -2 2 0 1 empty empty empty 2 95 1 8 -16662 -262144
-262144 4450 1;
#X obj 18 69 vsl 15 90 -2 2 0 0 empty empty empty 1 95 0 8 -16662 -262144
-262144 5729 1;
#X floatatom 38 31 7 0 0 0 - - -;
#X obj 730 -40 inlet;
#X obj 829 -141 spigot-toggle_orange;
#X floatatom 820 -205 6 0 0 0 - - -;
#X obj 823 -168 * 1.3;
#X obj 922 -184 tgl 25 0 empty empty A=V 4 12 0 10 -1 -262144 -262144
1 1;
#X obj 865 -202 r A=V1;
#X obj 820 -226 r V1A;
#X obj 1006 11 s padspeedA;
#X obj 1116 11 s padpitchA;
#X obj 128 859 r padspeedA;
#X obj 124 835 r padpitchA;
#X obj 865 90 s s&pAa;
#X obj 865 117 s s&pBa;
#X obj 864 194 s pitchBa;
#X obj -9 752 tgl 15 0 empty empty loc 2 7 0 10 -262144 -1 -1 0 1;
#X obj 26 683 * -1;
#X obj 27 624 r freestepsouts1;
#X obj 26 656 - 1;
#X obj -105 739 r locA;
#X obj -509 43 s pitchNspeedA;
#X obj -321 43 s pitchA;
#X obj -393 43 s speedA;
#X obj -259 48 s 44/88_A;
#X obj 605 757 sel;
#X obj 478 824 * 1;
#X obj 41 -398 r send_s@pAA;
#X obj 40 -350 r send_s@pAB;
#X obj 41 -378 s s@pAA;
#X obj 41 -328 s s@pAB;
#X obj 40 -299 r send_s@pAa;
#X obj 41 -279 s s@pAa;
#X obj 41 -252 r send_s@pAb;
#X obj 41 -230 s s@pAb;
#X obj 205 -394 r send_pAA;
#X obj 203 -375 s pAA;
#X obj 202 -348 r send_pAB;
#X obj 204 -324 s pAB;
#X obj 204 -295 r send_pAa;
#X obj 205 -275 s pAa;
#X obj 205 -249 r send_pAb;
#X obj 205 -227 s pAb;
#X obj 66 -203 r send_mods@pAA;
#X obj 66 -184 s mods@pAA;
#X obj 65 -155 r send_mods@pAB;
#X obj 66 -134 s mods@pAB;
#X obj 65 -104 r send_mods@pAa;
#X obj 67 -85 s mods@pAa;
#X obj 66 -57 r send_mods@pAb;
#X obj 66 -36 s mods@pAb;
#X obj 237 -62 r send_modpAb;
#X obj 237 -88 s modpAa;
#X obj 236 -108 r send_modpAa;
#X obj 236 -137 s modpAB;
#X obj 234 -161 r send_modpAB;
#X obj 236 -188 s modpAA;
#X obj 236 -207 r send_modpAA;
#X obj -828 44 s $s&pA;
#X obj -738 44 s $sA;
#X obj -668 44 s $pA;
#X floatatom -823 -37 5 0 0 0 - - -;
#X obj -823 14 line;
#X obj -824 -12 pack f f;
#X obj -780 -49 * 1.1;
#X floatatom -713 -37 5 0 0 0 - - -;
#X obj -713 14 line;
#X obj -714 -12 pack f f;
#X floatatom -613 -37 5 0 0 0 - - -;
#X obj -613 14 line;
#X obj -614 -12 pack f f;
#X obj -657 -104 r send_$pA;
#X obj -727 -104 r send_$sA;
#X obj -818 -104 r send_$s&pA;
#X obj -781 -73 r T$mod;
#X obj -53 -17 r lo;
#X floatatom 480 846 5 0 0 0 - - -;
#X obj -301 135 r bonkA;
#X obj -245 136 r bonkB;
#X obj -300 163 spigot-toggle_red;
#X obj -274 164 spigot-toggle_red;
#X obj -301 200 s bonkAA;
#X obj 587 807 t b f;
#X obj 460 926 s Amods&p;
#X obj 239 68 vsl 15 90 -4 4 0 0 empty empty empty 2 95 1 8 -16662
-262144 -262144 5562 1;
#X obj 176 69 vsl 15 90 -2 2 0 0 empty empty empty 1 95 0 8 -16662
-262144 -262144 4450 1;
#X obj 1 0 cnv 5 269 32 empty empty empty -2 13 0 15 -1 -260097 0;
#X obj 75 46 tgl 20 0 empty empty 88 4 9 1 10 -1 -262144 -262144 0
1;
#X obj 925 -215 r lo;
#X floatatom 566 -236 12 0 0 0 - - -;
#X obj 562 -313 ctlin 9;
#X floatatom 464 -233 5 0 0 0 - - -;
#X obj 466 -296 ctlin 5;
#X floatatom 377 -232 5 0 0 0 - - -;
#X obj 379 -295 ctlin 1;
#X msg 1336 56 0.75;
#X obj 562 -291 * 0.0078741;
#X obj 466 -274 * 0.0078741;
#X obj 378 -273 * 0.0078741;
#X obj 18 46 tgl 20 0 empty empty bck 1 9 1 9 -1 -262144 -262144 1
1;
#X obj 176 47 tgl 20 0 empty empty bck 2 9 1 9 -1 -262144 -262144 0
1;
#X obj 234 45 tgl 20 0 empty empty pad 2 11 1 9 -1 -262144 -262144
0 1;
#X obj 45 796 onoff7x;
#X obj 480 868 pack \$1 \$2;
#X floatatom 537 848 5 0 0 0 - - -;
#X obj 1635 841 pack \$1 \$2;
#X floatatom 1704 842 5 0 0 0 - - -;
#X obj 198 45 hsl 33 20 0 400 0 0 empty empty empty 22 14 1 7 -1 -262144
-262144 0 1;
#X obj 237 -40 s modpAb;
#X obj 40 46 hsl 33 20 0 400 0 0 empty empty glide 4 12 1 7 -1 -262144
-262144 0 1;
#X obj 478 894 line;
#X obj 1635 862 line;
#X obj 33 367 s Abutton;
#X obj 199 375 s Abutton;
#X obj 1148 -62 bng 20 250 50 0 empty empty O 3 11 1 20 -1 -262144
-260097;
#X obj 1635 883 * 1;
#X obj 865 144 * 0.25;
#X obj 865 167 s pitchAa;
#X obj 466 776 * 1;
#X floatatom 393 709 5 0 0 0 - - -;
#X obj 535 738 + 1;
#X msg 1255 56 0;
#X obj 43 769 onoff6x;
#X obj 33 14 cnv 5 15 10 empty empty ω+♪ 12 6 0 16 -1 -260097 0
;
#X obj 197 14 cnv 5 15 10 empty empty ♪ 12 6 0 16 -1 -260097 0;
#X msg 1190 56 0.75;
#X obj 1126 679 r lo;
#X obj 1238 659 spigot-toggle_jaunenoir;
#X obj 1192 659 spigot-toggle_red;
#X obj 1164 659 spigot-toggle_vert;
#X obj 1278 628 r fll0;
#X obj 1348 630 r fll1;
#X obj 1385 659 spigot-toggle_jaunenoir;
#X obj 1416 659 spigot-toggle_jaunenoir;
#X obj 1352 659 spigot-toggle_red;
#X obj 1320 659 spigot-toggle_vert;
#X floatatom 1362 679 5 0 0 0 - - -;
#X msg 1138 623 0.75;
#X msg 1303 685 0.75;
#X obj 1277 660 spigot-toggle_jaunenoir;
#X obj 112 401 sel;
#X obj 124 432 spigot-toggle_orange;
#X floatatom 117 31 7 0 0 1 - - -;
#X obj 111 90 tgl 25 0 empty empty B 8 14 0 16 -1 -262144 -262144 0
1;
#X obj 133 90 tgl 25 0 empty empty B 8 14 1 16 -1 -262144 -262144 0
1;
#X obj 111 115 tgl 25 0 empty empty ''a 6 14 1 16 -1 -262144 -262144
0 1;
#X obj 133 115 tgl 25 0 empty empty "a 5 14 1 16 -1 -262144 -262144
0 1;
#X obj 112 141 tgl 25 0 empty empty ''b 6 14 1 16 -1 -262144 -262144
0 1;
#X obj 134 141 tgl 25 0 empty empty "b 5 14 0 16 -1 -262144 -262144
0 1;
#X obj 111 64 tgl 25 0 empty empty A 8 14 0 16 -1 -262144 -262144 0
1;
#X obj 133 64 tgl 25 0 empty empty A 8 14 1 16 -1 -262144 -262144 0
1;
#X obj 135 -797 r send_spAA;
#X obj 135 -777 s spAA;
#X obj 125 -749 r send_spAB;
#X obj 126 -727 s spAB;
#X obj 125 -698 r send_spAa;
#X obj 126 -678 s spAa;
#X obj 126 -654 r send_spAb;
#X obj 126 -632 s spAb;
#X obj 149 -605 r send_modspAA;
#X obj 149 -585 s modspAA;
#X obj 148 -557 r send_modspAB;
#X obj 149 -535 s modspAB;
#X obj 148 -506 r send_modspAa;
#X obj 149 -486 s modspAa;
#X obj 149 -462 r send_modspAb;
#X obj 149 -440 s modspAb;
#X obj 159 68 vsl 15 90 -2 2 0 0 empty empty empty 2 95 1 8 -16662
-262144 -262144 6675 1;
#X obj 98 69 vsl 15 91 -2 2 0 0 empty empty empty 3 95 0 8 -16662 -262144
-262144 6187 1;
#X obj 98 46 tgl 20 0 empty empty bck 2 9 1 9 -1 -262144 -262144 0
1;
#X obj 154 47 tgl 20 0 empty empty pad 3 9 1 9 -1 -262144 -262144 0
1;
#X obj 1306 859 pack \$1 \$2;
#X floatatom 1363 839 5 0 0 0 - - -;
#X obj 120 44 hsl 33 20 0 400 0 0 empty empty empty 4 12 1 7 -1 -262144
-262144 0 1;
#X obj 1310 887 line;
#X obj 115 373 s Abutton;
#X msg 1150 55 1;
#X obj 121 14 cnv 5 15 10 empty empty ω 12 4 0 18 -1 -260097 0;
#X obj 18 26 bng 20 250 50 0 empty empty ● 0 9 1 33 -1 -262144 -260097
;
#X obj 75 26 bng 20 250 50 0 empty empty ● 0 9 1 33 -1 -262144 -260097
;
#X obj 98 26 bng 20 250 50 0 empty empty ● 0 9 1 33 -1 -262144 -260097
;
#X obj 154 26 bng 20 250 50 0 empty empty ● 0 9 1 33 -1 -262144 -260097
;
#X obj 176 26 bng 20 250 50 0 empty empty ● 0 9 1 33 -1 -262144 -260097
;
#X obj 234 26 bng 20 250 50 0 empty empty ● 0 9 1 33 -1 -262144 -260097
;
#X obj 876 254 s speedA;
#X obj 466 729 * 4;
#X obj 465 750 - 2;
#X obj 1226 696 * 1;
#X obj 0 0 cnv 5 15 227 empty empty empty 0 13 0 15 -1 -260097 0;
#X obj 15 1 cnv 1 2 225 empty empty empty 10 12 0 14 -260097 -66577
0;
#X floatatom 10 241 7 0 0 0 - - -;
#X floatatom 1046 681 5 0 0 0 - - -;
#X floatatom 1501 702 5 0 0 0 - - -;
#X obj 256 0 cnv 5 15 227 empty empty empty 0 13 0 15 -1 -260097 0
;
#X obj 175 1 cnv 1 2 160 empty empty empty 10 12 0 14 -1 -66577 0;
#X obj 174 1 cnv 1 2 225 empty empty empty 10 12 0 14 -260097 -66577
0;
#X obj 95 1 cnv 1 2 225 empty empty empty 10 12 0 14 -260097 -66577
0;
#X obj 254 1 cnv 1 2 225 empty empty empty 10 12 0 14 -260097 -66577
0;
#X obj 409 -99 s pitchNspeedA;
#X obj 504 -99 s speedA;
#X obj 560 -99 s pitchA;
#X obj 17 162 recordMIDIA;
#X obj 97 162 recordMIDIspeedA;
#X obj 177 162 recordMIDIpitchA;
#X obj 572 -263 * 2;
#X obj 534 719 * 1;
#X floatatom 1265 828 12 0 0 0 - - -;
#X obj 1335 766 t b f;
#X obj 1264 785 * 1;
#X floatatom 1260 715 5 0 0 0 - - -;
#X obj 1333 743 + 1;
#X obj 1264 738 * 2;
#X obj 1671 756 t b f;
#X obj 1631 762 * 1;
#X floatatom 1580 735 5 0 0 0 - - -;
#X msg 1437 56 1;
#X msg 1376 55 0;
#X obj 1265 807 * 1;
#X obj 1332 723 * 1;
#X obj 1263 762 - 1;
#X msg 1085 55 0.75;
#X obj 1632 688 * 100;
#X obj 41 523 line;
#X obj 37 502 pack f f;
#X obj 187 527 line;
#X obj 190 502 pack f f;
#X obj 119 529 line;
#X obj 122 504 pack f f;
#X msg 119 483 1;
#X msg 36 479 1;
#X msg 187 481 0;
#X obj 1302 917 s A???mods&p;
#X obj 1633 914 s A???mods&p;
#X msg 621 787 2;
#X msg 585 785 1;
#X obj 160 628 r trgrafterAmod;
#X obj 146 717 r trgrafterBmod;
#X connect 0 0 25 0;
#X connect 1 0 25 0;
#X connect 2 0 25 0;
#X connect 3 0 0 0;
#X connect 3 0 5 0;
#X connect 4 0 6 0;
#X connect 4 0 28 0;
#X connect 5 0 9 0;
#X connect 6 0 9 0;
#X connect 7 0 9 0;
#X connect 8 0 9 0;
#X connect 9 0 279 0;
#X connect 10 0 295 0;
#X connect 11 0 295 0;
#X connect 12 0 10 0;
#X connect 12 0 14 0;
#X connect 13 0 15 0;
#X connect 13 0 29 0;
#X connect 14 0 19 0;
#X connect 15 0 19 0;
#X connect 16 0 19 0;
#X connect 17 0 19 0;
#X connect 18 0 20 0;
#X connect 19 0 286 0;
#X connect 20 0 19 0;
#X connect 21 0 192 0;
#X connect 21 1 192 1;
#X connect 24 0 295 0;
#X connect 25 0 259 0;
#X connect 26 0 173 0;
#X connect 26 0 253 0;
#X connect 28 0 25 0;
#X connect 29 0 295 0;
#X connect 30 0 77 1;
#X connect 30 0 188 0;
#X connect 30 0 250 0;
#X connect 30 0 294 0;
#X connect 30 0 199 0;
#X connect 30 0 195 0;
#X connect 30 0 27 0;
#X connect 30 0 169 0;
#X connect 30 0 290 0;
#X connect 30 0 289 0;
#X connect 31 0 1 0;
#X connect 31 0 7 0;
#X connect 31 0 11 0;
#X connect 31 0 16 0;
#X connect 31 0 208 0;
#X connect 31 0 202 0;
#X connect 32 0 2 0;
#X connect 32 0 8 0;
#X connect 32 0 24 0;
#X connect 32 0 17 0;
#X connect 32 0 203 0;
#X connect 32 0 209 0;
#X connect 33 0 32 0;
#X connect 34 0 31 0;
#X connect 35 0 56 0;
#X connect 36 0 67 0;
#X connect 37 0 46 0;
#X connect 37 0 40 0;
#X connect 38 0 47 0;
#X connect 38 0 41 0;
#X connect 39 0 43 0;
#X connect 39 0 46 1;
#X connect 39 0 47 1;
#X connect 40 0 65 0;
#X connect 41 0 59 0;
#X connect 42 0 39 0;
#X connect 42 0 35 1;
#X connect 42 0 36 1;
#X connect 42 0 37 1;
#X connect 42 0 38 1;
#X connect 43 0 44 0;
#X connect 44 0 45 0;
#X connect 45 0 40 1;
#X connect 45 0 41 1;
#X connect 48 0 35 0;
#X connect 49 0 36 0;
#X connect 50 0 22 0;
#X connect 51 0 52 0;
#X connect 52 0 303 0;
#X connect 53 0 54 0;
#X connect 54 0 304 0;
#X connect 55 0 299 1;
#X connect 55 0 301 1;
#X connect 55 0 297 1;
#X connect 56 0 2 1;
#X connect 56 0 51 0;
#X connect 56 0 87 0;
#X connect 56 0 103 0;
#X connect 56 0 186 0;
#X connect 57 0 8 1;
#X connect 57 0 118 0;
#X connect 58 0 96 0;
#X connect 58 0 134 0;
#X connect 58 0 274 0;
#X connect 58 0 277 1;
#X connect 59 0 11 1;
#X connect 59 0 53 0;
#X connect 59 0 89 0;
#X connect 59 0 112 0;
#X connect 59 0 187 0;
#X connect 60 0 16 1;
#X connect 60 0 128 0;
#X connect 61 0 10 1;
#X connect 61 0 53 0;
#X connect 61 0 114 0;
#X connect 61 0 153 1;
#X connect 61 0 187 0;
#X connect 62 0 14 1;
#X connect 62 0 126 0;
#X connect 63 0 29 1;
#X connect 63 0 116 0;
#X connect 63 0 154 1;
#X connect 63 0 187 0;
#X connect 64 0 15 1;
#X connect 64 0 182 0;
#X connect 65 0 24 1;
#X connect 65 0 53 0;
#X connect 65 0 110 0;
#X connect 65 0 187 0;
#X connect 65 0 190 0;
#X connect 66 0 17 1;
#X connect 66 0 130 0;
#X connect 67 0 1 1;
#X connect 67 0 51 0;
#X connect 67 0 88 0;
#X connect 67 0 104 0;
#X connect 67 0 186 0;
#X connect 68 0 7 1;
#X connect 68 0 120 0;
#X connect 69 0 0 1;
#X connect 69 0 51 0;
#X connect 69 0 106 0;
#X connect 69 0 153 1;
#X connect 69 0 186 0;
#X connect 70 0 5 1;
#X connect 70 0 122 0;
#X connect 71 0 28 1;
#X connect 71 0 51 0;
#X connect 71 0 108 0;
#X connect 71 0 154 1;
#X connect 71 0 186 0;
#X connect 72 0 6 1;
#X connect 72 0 124 0;
#X connect 73 0 9 0;
#X connect 74 0 259 0;
#X connect 75 0 132 0;
#X connect 75 0 95 0;
#X connect 75 0 272 0;
#X connect 75 0 275 1;
#X connect 76 0 23 0;
#X connect 77 0 50 0;
#X connect 78 0 79 0;
#X connect 79 0 77 0;
#X connect 80 0 77 1;
#X connect 81 0 80 0;
#X connect 82 0 78 0;
#X connect 85 0 39 0;
#X connect 86 0 45 0;
#X connect 90 0 48 0;
#X connect 90 0 49 0;
#X connect 90 0 176 0;
#X connect 90 0 196 0;
#X connect 91 0 35 1;
#X connect 91 0 36 1;
#X connect 91 0 37 1;
#X connect 91 0 38 1;
#X connect 92 0 93 0;
#X connect 93 0 91 0;
#X connect 94 0 90 0;
#X connect 99 0 308 0;
#X connect 99 1 307 0;
#X connect 100 0 150 0;
#X connect 101 0 56 0;
#X connect 102 0 67 0;
#X connect 105 0 69 0;
#X connect 107 0 71 0;
#X connect 109 0 65 0;
#X connect 111 0 59 0;
#X connect 113 0 61 0;
#X connect 115 0 63 0;
#X connect 117 0 57 0;
#X connect 119 0 68 0;
#X connect 121 0 70 0;
#X connect 123 0 72 0;
#X connect 125 0 64 0;
#X connect 127 0 62 0;
#X connect 129 0 60 0;
#X connect 131 0 66 0;
#X connect 135 0 137 0;
#X connect 136 0 75 0;
#X connect 137 0 136 0;
#X connect 138 0 137 1;
#X connect 138 0 141 1;
#X connect 138 0 144 1;
#X connect 139 0 141 0;
#X connect 141 0 140 0;
#X connect 142 0 144 0;
#X connect 143 0 58 0;
#X connect 144 0 143 0;
#X connect 145 0 142 0;
#X connect 146 0 139 0;
#X connect 147 0 135 0;
#X connect 148 0 138 0;
#X connect 149 0 188 0;
#X connect 149 0 161 0;
#X connect 150 0 177 0;
#X connect 151 0 153 0;
#X connect 152 0 154 0;
#X connect 153 0 155 0;
#X connect 154 0 155 0;
#X connect 156 0 100 0;
#X connect 156 1 100 1;
#X connect 158 0 19 0;
#X connect 159 0 295 0;
#X connect 161 0 99 0;
#X connect 161 0 98 0;
#X connect 162 0 80 0;
#X connect 163 0 159 0;
#X connect 164 0 170 0;
#X connect 165 0 242 0;
#X connect 166 0 171 0;
#X connect 167 0 74 0;
#X connect 168 0 172 0;
#X connect 170 0 278 0;
#X connect 171 0 165 0;
#X connect 172 0 167 0;
#X connect 173 0 52 1;
#X connect 174 0 54 1;
#X connect 175 0 84 0;
#X connect 176 0 38 0;
#X connect 177 0 184 0;
#X connect 178 0 177 1;
#X connect 179 0 185 0;
#X connect 180 0 179 1;
#X connect 181 0 180 0;
#X connect 181 0 277 0;
#X connect 183 0 178 0;
#X connect 183 0 275 0;
#X connect 184 0 157 0;
#X connect 184 0 75 0;
#X connect 185 0 189 0;
#X connect 188 0 290 0;
#X connect 189 0 58 0;
#X connect 190 0 191 0;
#X connect 192 0 100 0;
#X connect 193 0 259 0;
#X connect 194 0 21 0;
#X connect 195 0 73 0;
#X connect 196 0 37 0;
#X connect 199 0 74 0;
#X connect 200 0 211 0;
#X connect 201 0 261 0;
#X connect 202 0 261 0;
#X connect 203 0 261 0;
#X connect 204 0 201 0;
#X connect 204 0 206 0;
#X connect 205 0 207 0;
#X connect 205 0 213 0;
#X connect 206 0 210 0;
#X connect 207 0 210 0;
#X connect 208 0 210 0;
#X connect 209 0 210 0;
#X connect 210 0 292 0;
#X connect 211 0 212 0;
#X connect 212 0 210 0;
#X connect 213 0 261 0;
#X connect 214 0 215 0;
#X connect 215 0 302 0;
#X connect 216 0 258 0;
#X connect 216 0 273 0;
#X connect 216 0 276 1;
#X connect 217 0 202 1;
#X connect 217 0 214 0;
#X connect 217 0 228 0;
#X connect 217 0 249 0;
#X connect 218 0 208 1;
#X connect 218 0 236 0;
#X connect 219 0 201 1;
#X connect 219 0 214 0;
#X connect 219 0 230 0;
#X connect 219 0 249 0;
#X connect 220 0 206 1;
#X connect 220 0 238 0;
#X connect 221 0 213 1;
#X connect 221 0 214 0;
#X connect 221 0 232 0;
#X connect 221 0 249 0;
#X connect 222 0 207 1;
#X connect 222 0 240 0;
#X connect 223 0 203 1;
#X connect 223 0 214 0;
#X connect 223 0 226 0;
#X connect 223 0 249 0;
#X connect 224 0 209 1;
#X connect 224 0 234 0;
#X connect 225 0 223 0;
#X connect 227 0 217 0;
#X connect 229 0 219 0;
#X connect 231 0 221 0;
#X connect 233 0 224 0;
#X connect 235 0 218 0;
#X connect 237 0 220 0;
#X connect 239 0 222 0;
#X connect 241 0 210 0;
#X connect 242 0 261 0;
#X connect 243 0 215 1;
#X connect 245 0 248 0;
#X connect 246 0 245 1;
#X connect 247 0 246 0;
#X connect 247 0 276 0;
#X connect 248 0 216 0;
#X connect 250 0 241 0;
#X connect 252 0 199 0;
#X connect 253 0 195 0;
#X connect 254 0 294 0;
#X connect 255 0 250 0;
#X connect 256 0 290 0;
#X connect 257 0 289 0;
#X connect 259 0 260 0;
#X connect 260 0 192 0;
#X connect 261 0 283 0;
#X connect 264 0 193 0;
#X connect 265 0 261 0;
#X connect 266 0 295 0;
#X connect 275 0 264 0;
#X connect 276 0 265 0;
#X connect 277 0 266 0;
#X connect 278 0 163 0;
#X connect 279 0 194 0;
#X connect 280 0 245 0;
#X connect 281 0 282 0;
#X connect 281 1 282 1;
#X connect 282 0 291 0;
#X connect 283 0 285 0;
#X connect 284 0 281 0;
#X connect 285 0 293 0;
#X connect 286 0 287 0;
#X connect 286 1 287 1;
#X connect 287 0 179 0;
#X connect 289 0 158 0;
#X connect 290 0 159 0;
#X connect 291 0 280 0;
#X connect 292 0 284 0;
#X connect 293 0 282 0;
#X connect 294 0 242 0;
#X connect 295 0 287 0;
#X connect 295 0 288 0;
#X connect 296 0 100 0;
#X connect 297 0 296 0;
#X connect 298 0 295 0;
#X connect 299 0 298 0;
#X connect 300 0 261 0;
#X connect 301 0 300 0;
#X connect 302 0 301 0;
#X connect 303 0 297 0;
#X connect 304 0 299 0;
#X connect 307 0 156 0;
#X connect 308 0 156 0;
#X connect 309 0 32 1;
#X connect 310 0 31 1;
#X coords 0 -1 1 1 272 227 1 0 0;
