#N canvas 435 45 1245 698 10;
#X obj 377 578 spigot-toggle_jaunenoir;
#X obj 342 597 spigot-toggle_red;
#X obj 311 598 spigot-toggle_vert;
#X obj 414 572 r fll0;
#X obj 470 573 r fll1;
#X obj 583 599 spigot-toggle_jaunenoir;
#X obj 614 599 spigot-toggle_jaunenoir;
#X obj 528 602 spigot-toggle_red;
#X obj 498 602 spigot-toggle_vert;
#X obj 623 622 r lo;
#X floatatom 572 617 5 0 0 0 - - -;
#X obj 735 602 spigot-toggle_jaunenoir;
#X obj 696 602 spigot-toggle_red;
#X obj 661 602 spigot-toggle_vert;
#X obj 775 571 r fll0;
#X obj 845 573 r fll1;
#X obj 882 602 spigot-toggle_jaunenoir;
#X obj 913 602 spigot-toggle_jaunenoir;
#X obj 849 602 spigot-toggle_red;
#X obj 817 602 spigot-toggle_vert;
#X floatatom 859 622 5 0 0 0 - - -;
#X obj 723 639 * 1;
#X obj 1013 602 spigot-toggle_jaunenoir;
#X obj 983 602 spigot-toggle_red;
#X obj 1036 579 r fll0;
#X obj 1138 579 r fll1;
#X obj 1146 602 spigot-toggle_jaunenoir;
#X obj 1177 602 spigot-toggle_jaunenoir;
#X obj 1116 602 spigot-toggle_red;
#X obj 1085 602 spigot-toggle_vert;
#X obj 1137 634 r lo;
#X floatatom 1074 641 5 0 0 0 - - -;
#X msg 1102 681 1;
#X obj 505 725 - 2;
#X obj 503 693 * 4;
#X obj 501 764 * 4;
#X obj 572 745 t b f;
#X msg 1315 40 0.75;
#X obj 857 -103 s opa;
#X floatatom 598 -34 5 0 0 0 - - -;
#X floatatom 1000 711 5 0 0 0 - - -;
#X obj 954 602 spigot-toggle_vert;
#X obj 998 640 * 1;
#X obj 324 636 * 1;
#X obj 1057 779 t b f;
#X floatatom 1009 833 12 0 0 0 - - -;
#X obj 728 724 - 2;
#X obj 729 685 * 4;
#X obj 801 773 * 4;
#X obj 855 745 t b f;
#X obj 1460 2 r lo;
#X floatatom 1059 734 5 0 0 0 - - -;
#X obj 571 679 * 4;
#X obj 856 685 * 4;
#X obj 856 714 - 2;
#X msg 1415 40 0.75;
#X obj 571 707 - 1;
#X msg 635 566 0.75;
#X msg 800 628 0.75;
#X obj 414 597 spigot-toggle_jaunenoir;
#X obj 774 603 spigot-toggle_jaunenoir;
#X obj 1043 604 spigot-toggle_jaunenoir;
#X obj 1008 11 r lo;
#X obj 212 575 spigot-toggle_red;
#X obj 177 575 spigot-toggle_vert;
#X obj 110 552 r trgrA;
#X obj 175 552 r trgrB;
#X obj 175 525 r A;
#X obj 220 525 r B;
#X msg 612 652 4;
#X msg 657 648 2;
#X obj 52 706 spigot-toggle_orange;
#X obj 52 729 spigot-toggle_orange;
#X obj 52 756 spigot-toggle_orange;
#X obj 51 782 spigot-toggle_orange;
#X obj 125 844 tgl 15 0 empty empty empty 17 7 0 10 -262144 -1 -1 1
1;
#X obj 89 817 spigot-toggle_red;
#X obj 89 840 spigot-toggle_red;
#X obj 63 899 r lo;
#X obj 127 886 - 1;
#X obj 128 912 * -1;
#X obj 123 820 tgl 15 0 empty empty empty 17 7 0 10 -262144 -1 -1 -0
1;
#X obj 55 818 spigot-toggle_vert;
#X obj 55 843 spigot-toggle_vert;
#X obj 85 704 onoff4x;
#X obj 76 730 onoff5x;
#X obj 860 -127 - 0.02;
#X obj 34 211 sel;
#X obj 11 238 spigot-toggle_orange;
#X obj 74 308 line;
#X obj 76 282 pack f f;
#X obj 79 263 f;
#X obj 160 215 sel;
#X obj 123 241 spigot-toggle_orange;
#X obj 178 323 line;
#X obj 176 290 pack f f;
#X obj 221 264 f;
#X obj 261 215 sel;
#X obj 243 241 spigot-toggle_orange;
#X obj 269 323 line;
#X obj 267 290 pack f f;
#X obj 312 264 f;
#X obj 81 219 r T$mod;
#X obj 192 239 r T$mod;
#X obj 282 239 r T$mod;
#X msg 176 265 1;
#X msg 267 265 1;
#X msg -2 280 1;
#X obj -3 304 + 1;
#X obj 40 282 - 1;
#X obj 30 306 * -1;
#X obj 64 58 tgl 25 0 empty empty A 8 14 0 16 -1 -262144 -262144 0
1;
#X obj 89 58 tgl 25 1 empty empty A 8 14 1 16 -1 -262144 -262144 0
1;
#X floatatom 157 22 9 0 0 1 - - -;
#X floatatom 242 22 7 0 0 0 - - -;
#X obj 153 85 tgl 25 0 empty empty B 8 14 0 16 -1 -262144 -262144 0
1;
#X obj 178 85 tgl 25 0 empty empty B 8 14 1 16 -1 -262144 -262144 0
1;
#X obj 153 111 tgl 25 0 empty empty ''a 6 14 1 16 -1 -262144 -262144
0 1;
#X obj 178 111 tgl 25 0 empty empty "a 5 14 1 16 -1 -262144 -262144
0 1;
#X obj 153 137 tgl 25 0 empty empty ''b 6 14 1 16 -1 -262144 -262144
0 1;
#X obj 178 137 tgl 25 0 empty empty "b 5 14 0 16 -1 -262144 -262144
0 1;
#X obj 153 59 tgl 25 0 empty empty A 8 14 0 16 -1 -262144 -262144 0
1;
#X obj 178 59 tgl 25 0 empty empty A 8 14 1 16 -1 -262144 -262144 0
1;
#X obj 239 85 tgl 25 0 empty empty B 8 14 0 16 -1 -262144 -262144 0
1;
#X obj 265 85 tgl 25 0 empty empty B 8 14 0 16 -1 -262144 -262144 0
1;
#X obj 239 111 tgl 25 0 empty empty ''a 6 14 1 16 -1 -262144 -262144
0 1;
#X obj 265 111 tgl 25 0 empty empty "a 4 14 0 16 -1 -262144 -262144
0 1;
#X obj 239 137 tgl 25 0 empty empty ''b 6 14 1 16 -1 -262144 -262144
0 1;
#X obj 265 137 tgl 25 0 empty empty "b 4 14 0 16 -1 -262144 -262144
0 1;
#X obj 239 59 tgl 25 0 empty empty A 8 14 0 16 -1 -262144 -262144 0
1;
#X obj 265 59 tgl 25 1 empty empty A 7 14 0 16 -1 -262144 -262144 0
1;
#X obj 64 84 tgl 25 0 empty empty B 8 14 0 16 -1 -262144 -262144 0
1;
#X obj 90 84 tgl 25 0 empty empty B 8 14 1 16 -1 -262144 -262144 0
1;
#X obj 64 110 tgl 25 0 empty empty ''a 5 14 1 16 -1 -262144 -262144
0 1;
#X obj 89 110 tgl 25 0 empty empty "a 5 14 0 16 -1 -262144 -262144
0 1;
#X obj 64 136 tgl 25 0 empty empty ''b 5 14 1 16 -1 -262144 -262144
0 1;
#X obj 89 136 tgl 25 0 empty empty "b 5 14 0 16 -1 -262144 -262144
0 1;
#X obj 115 59 vsl 15 100 -1 2 0 1 empty empty md 2 95 1 8 -16662 -262144
-262144 5775 1;
#X obj 48 58 vsl 15 100 0 1 0 0 empty empty raw 1 95 0 8 -16662 -262144
-262144 7425 1;
#X floatatom 67 22 7 0 0 0 - - -;
#X floatatom 466 612 5 0 0 0 - - -;
#X obj 600 -54 inlet;
#X obj 864 -153 spigot-toggle_orange;
#X floatatom 855 -217 6 0 0 0 - - -;
#X obj 858 -180 * 1.3;
#X obj 957 -196 tgl 25 0 empty empty A=V 4 12 0 10 -1 -262144 -262144
1 1;
#X obj 900 -214 r A=V1;
#X obj 855 -238 r V1A;
#X obj 1041 -1 s padspeedA;
#X obj 1151 -1 s padpitchA;
#X obj 163 847 r padspeedA;
#X obj 159 823 r padpitchA;
#X obj 734 56 s s&pAa;
#X obj 734 83 s s&pBa;
#X obj 736 227 s pitchBa;
#X obj 735 199 s pitchAa;
#X obj 735 113 s speedAa;
#X obj 734 144 s speedBa;
#X obj 26 740 tgl 15 0 empty empty loc 2 7 0 10 -262144 -1 -1 0 1;
#X obj 61 671 * -1;
#X obj 62 612 r freestepsouts1;
#X obj 61 644 - 1;
#X obj -70 727 r locA;
#X obj -474 31 s pitchNspeedA;
#X obj -286 31 s pitchA;
#X obj -358 31 s speedA;
#X obj -224 36 s 44/88_A;
#X obj 625 789 sel;
#X obj 527 790 * 1;
#X msg 597 790 0.5;
#X msg 652 790 1;
#X obj 68 -409 r send_s@pAA;
#X obj 67 -361 r send_s@pAB;
#X obj 68 -389 s s@pAA;
#X obj 68 -339 s s@pAB;
#X obj 67 -310 r send_s@pAa;
#X obj 68 -290 s s@pAa;
#X obj 68 -263 r send_s@pAb;
#X obj 68 -241 s s@pAb;
#X obj 169 -407 r send_spAA;
#X obj 169 -387 s spAA;
#X obj 159 -359 r send_spAB;
#X obj 160 -337 s spAB;
#X obj 159 -308 r send_spAa;
#X obj 160 -288 s spAa;
#X obj 160 -264 r send_spAb;
#X obj 160 -242 s spAb;
#X obj 256 -406 r send_pAA;
#X obj 254 -387 s pAA;
#X obj 245 -360 r send_pAB;
#X obj 247 -336 s pAB;
#X obj 247 -307 r send_pAa;
#X obj 248 -287 s pAa;
#X obj 248 -261 r send_pAb;
#X obj 248 -239 s pAb;
#X obj 83 -212 r send_mods@pAA;
#X obj 83 -193 s mods@pAA;
#X obj 82 -164 r send_mods@pAB;
#X obj 83 -143 s mods@pAB;
#X obj 82 -113 r send_mods@pAa;
#X obj 84 -94 s mods@pAa;
#X obj 83 -66 r send_mods@pAb;
#X obj 83 -45 s mods@pAb;
#X obj 183 -215 r send_modspAA;
#X obj 183 -195 s modspAA;
#X obj 182 -167 r send_modspAB;
#X obj 183 -145 s modspAB;
#X obj 182 -116 r send_modspAa;
#X obj 183 -96 s modspAa;
#X obj 183 -72 r send_modspAb;
#X obj 183 -50 s modspAb;
#X obj 276 -71 r send_modpAb;
#X obj 276 -97 s modpAa;
#X obj 275 -117 r send_modpAa;
#X obj 275 -146 s modpAB;
#X obj 273 -170 r send_modpAB;
#X obj 275 -197 s modpAA;
#X obj 275 -216 r send_modpAA;
#X obj -793 32 s $s&pA;
#X obj -703 32 s $sA;
#X obj -633 32 s $pA;
#X floatatom -788 -49 5 0 0 0 - - -;
#X obj -788 2 line;
#X obj -789 -24 pack f f;
#X obj -745 -61 * 1.1;
#X floatatom -678 -49 5 0 0 0 - - -;
#X obj -678 2 line;
#X obj -679 -24 pack f f;
#X floatatom -578 -49 5 0 0 0 - - -;
#X obj -578 2 line;
#X obj -579 -24 pack f f;
#X obj -622 -116 r send_$pA;
#X obj -692 -116 r send_$sA;
#X obj -783 -116 r send_$s&pA;
#X obj -746 -85 r T$mod;
#X obj 339 688 s pitchNspeedA01;
#X msg -490 605 record;
#X floatatom -437 191 5 0 0 0 - - -;
#X obj -510 582 bng 15 250 50 0 empty empty empty 17 7 0 10 -262144
-1 -1;
#X obj -551 614 pack;
#X floatatom -557 583 5 0 0 0 - - -;
#X floatatom -557 557 5 0 0 0 - - -;
#X obj -557 640 cyclone/midiformat;
#X obj -510 559 sel;
#X obj -491 582 bng 15 250 50 0 empty empty empty 17 7 0 10 -262144
-1 -1;
#X floatatom -513 534 5 0 0 0 - - -;
#X obj -662 355 tgl 20 0 empty empty REC 1 10 0 10 -260097 -1 -1 0
1;
#X obj -641 355 bng 20 250 50 0 empty empty S 6 10 1 11 -1 -260097
-260097;
#X obj 4 71 tgl 20 0 empty empty LOOP 3 10 1 6 -1 -262144 -262144 1
1;
#X obj 25 50 bng 20 250 50 0 empty empty PLAY 2 11 0 7 -1 -262144 -262144
;
#X obj 28 91 tgl 17 0 empty empty >< 2 8 1 11 -1 -262144 -262144 1
1;
#X obj 25 70 tgl 20 0 empty empty MIDI 2 10 1 8 -1 -262144 -262144
0 1;
#X obj -779 127 notein;
#X obj -786 160 spigot-toggle_violet;
#X obj -764 160 spigot-toggle_violet;
#X obj -759 206 sel;
#X obj -766 184 == 64;
#X floatatom -803 185 5 0 0 0 - - -;
#X obj -800 206 - 0;
#X obj -448 719 bng 15 250 50 0 empty empty empty 17 7 0 10 -262144
-1 -1;
#X obj -568 700 cyclone/seq seq1.mid;
#X obj -105 539 spigot-toggle_violet;
#X obj -587 329 f;
#X floatatom -536 359 5 0 0 0 - - -;
#X floatatom -590 359 5 0 0 0 - - -;
#X floatatom -511 302 5 0 0 0 - - -;
#X floatatom -570 303 5 0 0 0 - - -;
#X obj -557 178 f;
#X obj -527 178 + 1;
#X msg -568 283 0.75;
#X msg -508 281 0.25;
#X obj -559 220 sel;
#X obj -529 330 f;
#X obj -584 240 bng 15 250 50 0 empty empty empty 17 7 0 10 -262144
-1 -1;
#X obj -558 200 mod 2;
#X obj -794 328 f;
#X obj -767 329 + 1;
#X obj -795 368 sel;
#X obj -794 348 mod 2;
#X obj -795 387 bng 15 250 50 0 empty empty empty 17 7 0 10 -262144
-1 -1;
#X obj -793 303 spigot-toggle_violet;
#X obj -783 253 - 1;
#X obj -782 279 * -1;
#X obj -557 535 * 100;
#X obj -552 754 / 100;
#X obj -641 270 r lo;
#X obj -554 438 pack \$1 \$2;
#X obj -555 461 line;
#X floatatom -497 418 5 0 0 0 - - -;
#X obj 376 819 spigot-toggle_violet;
#X obj -437 219 - 1, f 4;
#X obj -437 241 * -1;
#X obj 4 51 tgl 20 0 empty empty STOP 1 10 1 7 -1 -262144 -262144 0
1;
#X obj 365 653 * -1;
#X obj 365 633 - 1;
#X obj -80 -202 r lo;
#X floatatom -563 491 5 0 0 0 - - -;
#X floatatom 515 834 5 0 0 0 - - -;
#X obj -533 382 spigot-toggle_violet;
#X obj 335 737 r lo;
#X floatatom -622 810 7 0 0 0 - - -;
#X obj -517 237 bng 15 250 50 0 empty empty empty 17 7 0 10 -262144
-1 -1;
#X obj 814 275 r bonkA;
#X obj 870 276 r bonkB;
#X obj 815 303 spigot-toggle_red;
#X obj 841 304 spigot-toggle_red;
#X obj 814 340 s bonkAA;
#X obj 3 92 cnv 5 6 70 empty empty empty 10 12 0 14 -1 -66577 0;
#X obj 10 109 tgl 17 0 empty empty A 4 8 1 11 -1 -1 -262144 0 1;
#X obj -370 139 spigot-toggle_orange;
#X obj -370 85 r A;
#X obj 28 109 tgl 17 0 empty empty B 4 8 1 11 -1 -262144 -262144 0
1;
#X obj -312 138 spigot-toggle_orange;
#X obj -313 85 r B;
#X obj 553 790 t b f;
#X obj 533 888 s Amods&p;
#X obj -373 223 spigot-toggle_orange;
#X obj -316 223 spigot-toggle_orange;
#X obj -373 169 r a';
#X obj -316 169 r b';
#X obj 28 127 tgl 17 0 empty empty b' 5 8 1 11 -1 -262144 -262144 0
1;
#X obj 10 127 tgl 17 0 empty empty a' 4 8 1 11 -1 -262144 -262144 0
1;
#X floatatom -58 260 7 0 0 0 - - -;
#X obj -370 109 * 1;
#X obj -314 109 * 1;
#X obj -373 193 * 1;
#X obj -316 193 * 1;
#X obj 45 19 cnv 3 2 150 empty empty empty 10 12 0 14 -1 -66577 0;
#X obj 13 145 hsl 30 17 0 400 0 0 empty empty glide 4 11 1 7 -1 -262144
-262144 0 1;
#X obj 204 59 vsl 15 100 0 1 0 0 empty empty empty 2 95 1 8 -16662
-262144 -262144 7425 1;
#X obj 137 59 vsl 15 100 0 1 0 0 empty empty empty 3 95 0 8 -16662
-262144 -262144 7425 1;
#X obj 290 58 vsl 15 100 -2 2 0 0 empty empty empty 2 95 1 8 -16662
-262144 -262144 4950 1;
#X obj 225 58 vsl 15 100 10 100 0 0 empty empty empty 1 95 0 8 -16662
-262144 -262144 0 1;
#X obj 10 91 tgl 17 0 empty empty bck 1 9 1 10 -1 -1 -1 0 1;
#X obj 0 0 cnv 5 220 22 empty empty –––––––––ω&♪–––––––ω––––––
0 13 0 15 -1 -260097 0;
#X obj 130 16 cnv 5 6 150 empty empty empty 10 12 0 14 -1 -66577 0
;
#X obj 219 19 cnv 5 6 150 empty empty empty 10 12 0 14 -1 -66577 0
;
#X obj 112 38 tgl 20 0 empty empty 88 4 9 1 10 -1 -262144 -262144 1
1;
#X obj 960 -227 r lo;
#X obj 704 787 ctlin;
#X obj 705 810 / 1.27;
#X obj 705 860 * -1;
#X obj 704 834 - 100;
#X obj 706 881 * 0.16;
#X floatatom 707 925 5 0 0 0 - - -;
#X obj 707 900 int;
#X floatatom 652 43 12 0 0 0 - - -;
#X obj 654 -20 ctlin 9;
#X floatatom 550 46 5 0 0 0 - - -;
#X obj 552 -17 ctlin 5;
#X floatatom 463 47 5 0 0 0 - - -;
#X obj 465 -16 ctlin 1;
#X msg 1460 40 0.75;
#X msg 1379 40 0.75;
#X obj 1007 803 * 1;
#X obj 654 2 * 0.0078741;
#X obj 552 5 * 0.0078741;
#X obj 464 6 * 0.0078741;
#X obj 1058 754 + 1;
#X msg 1561 40 0;
#X obj 46 38 tgl 20 0 empty empty bck 4 9 1 10 -1 -262144 -262144 0
1;
#X obj 136 38 tgl 20 0 empty empty bck 4 9 1 10 -1 -262144 -262144
0 1;
#X obj 225 38 tgl 20 0 empty empty bck 1 9 1 9 -1 -262144 -262144 0
1;
#X obj 201 38 tgl 20 0 empty empty pad 3 9 1 9 -1 -262144 -262144 1
1;
#X obj 284 38 tgl 20 0 empty empty pad 2 9 1 9 -1 -262144 -262144 0
1;
#X obj 218 0 cnv 5 86 21 empty empty –––––♪––– 0
13 0 15 -1 -260097 0;
#X obj 158 773 onoff7x;
#X obj 1058 713 * 1;
#X msg 1500 39 0;
#X obj 515 856 pack \$1 \$2;
#X floatatom 572 836 5 0 0 0 - - -;
#X obj 812 839 pack \$1 \$2;
#X floatatom 869 819 5 0 0 0 - - -;
#X obj 1012 870 pack \$1 \$2;
#X floatatom 1069 850 5 0 0 0 - - -;
#X obj 245 36 hsl 37 22 0 400 0 0 empty empty empty 22 14 1 7 -1 -262144
-262144 0 1;
#X obj 276 -49 s modpAb;
#X obj 159 36 hsl 39 22 0 400 0 0 empty empty empty 6 12 1 7 -1 -262144
-262144 0 1;
#X obj 70 36 hsl 39 22 0 400 0 0 empty empty glide 4 20 1 7 -1 -262144
-262144 0 1;
#X obj 538 932 line;
#X obj 832 923 line;
#X obj 989 924 line;
#X obj 57 186 s Abutton;
#X obj 150 186 s Abutton;
#X obj 239 186 s Abutton;
#X obj 78 757 onoff6xx;
#X floatatom -291 859 5 0 0 0 - - -;
#X obj -292 831 onoffscratrch2outletA;
#X obj -307 888 sel -1;
#X obj -258 890 sel 1;
#X obj -258 922 bng 15 250 50 0 empty empty empty 17 7 0 10 -262144
-1 -1;
#X obj -297 921 bng 15 250 50 0 empty empty empty 17 7 0 10 -262144
-1 -1;
#X obj -312 509 spigot-toggle_violet;
#X obj 4 161 cnv 3 300 6 empty empty empty 21 12 0 14 -1 -66577 0;
#X obj 0 22 cnv 5 4 146 empty empty empty 20 12 0 14 -1 -66577 0;
#X obj 221 14 cnv 1 1 150 empty empty empty 10 12 0 14 -260097 -66577
0;
#X obj 133 14 cnv 1 1 150 empty empty empty 10 12 0 14 -260097 -66577
0;
#X obj 47 17 bng 20 250 50 0 empty empty O 3 11 1 20 -1 -262144 -260097
;
#X obj 111 17 bng 20 250 50 0 empty empty O 3 11 1 20 -1 -262144 -260097
;
#X obj 136 17 bng 20 250 50 0 empty empty O 3 11 1 20 -1 -262144 -260097
;
#X obj 200 17 bng 20 250 50 0 empty empty O 3 11 1 20 -1 -262144 -260097
;
#X obj 224 17 bng 20 250 50 0 empty empty O 3 11 1 20 -1 -262144 -260097
;
#X obj 284 17 bng 20 250 50 0 empty empty O 3 11 1 20 -1 -262144 -260097
;
#X obj 4 38 cnv 7 41 12 empty empty empty 20 12 0 14 -1 -66577 0;
#X obj 4 18 tgl 20 0 empty empty REC 1 10 0 10 -260097 -1 -1 0 1;
#X obj 25 18 bng 20 250 50 0 empty empty S 6 10 1 11 -1 -260097 -260097
;
#X obj 973 954 * 1;
#X connect 0 0 43 0;
#X connect 1 0 43 0;
#X connect 2 0 43 0;
#X connect 3 0 0 0;
#X connect 3 0 5 0;
#X connect 4 0 6 0;
#X connect 4 0 59 0;
#X connect 5 0 10 0;
#X connect 6 0 10 0;
#X connect 7 0 10 0;
#X connect 8 0 10 0;
#X connect 9 0 57 0;
#X connect 10 0 52 0;
#X connect 11 0 21 0;
#X connect 12 0 21 0;
#X connect 13 0 21 0;
#X connect 14 0 11 0;
#X connect 14 0 16 0;
#X connect 15 0 17 0;
#X connect 15 0 60 0;
#X connect 16 0 20 0;
#X connect 17 0 20 0;
#X connect 18 0 20 0;
#X connect 19 0 20 0;
#X connect 20 0 53 0;
#X connect 21 0 47 0;
#X connect 22 0 42 0;
#X connect 23 0 42 0;
#X connect 24 0 22 0;
#X connect 24 0 26 0;
#X connect 25 0 27 0;
#X connect 25 0 61 0;
#X connect 26 0 31 0;
#X connect 27 0 31 0;
#X connect 28 0 31 0;
#X connect 29 0 31 0;
#X connect 30 0 32 0;
#X connect 31 0 367 0;
#X connect 32 0 31 0;
#X connect 33 0 35 0;
#X connect 34 0 33 0;
#X connect 35 0 168 0;
#X connect 36 0 35 0;
#X connect 36 1 35 1;
#X connect 37 0 138 0;
#X connect 40 0 354 0;
#X connect 41 0 42 0;
#X connect 42 0 40 0;
#X connect 43 0 34 0;
#X connect 43 0 235 0;
#X connect 44 0 354 0;
#X connect 44 1 354 1;
#X connect 45 0 373 0;
#X connect 46 0 48 0;
#X connect 47 0 46 0;
#X connect 48 0 371 0;
#X connect 49 0 48 0;
#X connect 49 1 48 1;
#X connect 51 0 358 0;
#X connect 52 0 56 0;
#X connect 53 0 54 0;
#X connect 54 0 49 0;
#X connect 55 0 330 0;
#X connect 56 0 36 0;
#X connect 57 0 10 0;
#X connect 57 0 58 0;
#X connect 58 0 20 0;
#X connect 59 0 43 0;
#X connect 60 0 21 0;
#X connect 61 0 42 0;
#X connect 62 0 142 1;
#X connect 62 0 363 0;
#X connect 62 0 402 0;
#X connect 62 0 401 0;
#X connect 63 0 1 0;
#X connect 63 0 7 0;
#X connect 63 0 12 0;
#X connect 63 0 18 0;
#X connect 63 0 23 0;
#X connect 63 0 28 0;
#X connect 64 0 2 0;
#X connect 64 0 8 0;
#X connect 64 0 13 0;
#X connect 64 0 19 0;
#X connect 64 0 41 0;
#X connect 64 0 29 0;
#X connect 65 0 64 1;
#X connect 66 0 63 1;
#X connect 67 0 64 0;
#X connect 68 0 63 0;
#X connect 69 0 53 1;
#X connect 69 0 47 1;
#X connect 69 0 52 1;
#X connect 69 0 34 1;
#X connect 70 0 53 1;
#X connect 70 0 47 1;
#X connect 70 0 52 1;
#X connect 70 0 34 1;
#X connect 71 0 111 0;
#X connect 72 0 131 0;
#X connect 73 0 82 0;
#X connect 73 0 76 0;
#X connect 74 0 83 0;
#X connect 74 0 77 0;
#X connect 75 0 79 0;
#X connect 75 0 82 1;
#X connect 75 0 83 1;
#X connect 76 0 129 0;
#X connect 77 0 123 0;
#X connect 78 0 75 0;
#X connect 78 0 71 1;
#X connect 78 0 72 1;
#X connect 78 0 73 1;
#X connect 78 0 74 1;
#X connect 79 0 80 0;
#X connect 80 0 81 0;
#X connect 81 0 76 1;
#X connect 81 0 77 1;
#X connect 82 0 121 0;
#X connect 83 0 115 0;
#X connect 84 0 71 0;
#X connect 85 0 72 0;
#X connect 86 0 38 0;
#X connect 87 0 88 0;
#X connect 88 0 91 0;
#X connect 88 0 107 0;
#X connect 89 0 139 0;
#X connect 90 0 89 0;
#X connect 91 0 90 1;
#X connect 92 0 93 0;
#X connect 93 0 105 0;
#X connect 93 0 96 0;
#X connect 94 0 113 0;
#X connect 95 0 94 0;
#X connect 96 0 95 1;
#X connect 97 0 98 0;
#X connect 98 0 106 0;
#X connect 98 0 101 0;
#X connect 99 0 114 0;
#X connect 100 0 99 0;
#X connect 101 0 100 1;
#X connect 102 0 91 1;
#X connect 103 0 96 1;
#X connect 104 0 101 1;
#X connect 105 0 95 0;
#X connect 106 0 100 0;
#X connect 107 0 108 0;
#X connect 108 0 90 0;
#X connect 109 0 110 0;
#X connect 110 0 108 1;
#X connect 111 0 2 1;
#X connect 111 0 87 0;
#X connect 111 0 152 0;
#X connect 111 0 173 0;
#X connect 111 0 382 0;
#X connect 112 0 8 1;
#X connect 112 0 196 0;
#X connect 113 0 165 0;
#X connect 113 0 219 0;
#X connect 114 0 164 0;
#X connect 114 0 220 0;
#X connect 115 0 12 1;
#X connect 115 0 92 0;
#X connect 115 0 157 0;
#X connect 115 0 182 0;
#X connect 115 0 383 0;
#X connect 116 0 18 1;
#X connect 116 0 206 0;
#X connect 117 0 11 1;
#X connect 117 0 92 0;
#X connect 117 0 184 0;
#X connect 117 0 304 1;
#X connect 117 0 383 0;
#X connect 118 0 16 1;
#X connect 118 0 208 0;
#X connect 119 0 60 1;
#X connect 119 0 92 0;
#X connect 119 0 186 0;
#X connect 119 0 305 1;
#X connect 119 0 383 0;
#X connect 120 0 17 1;
#X connect 120 0 210 0;
#X connect 121 0 13 1;
#X connect 121 0 92 0;
#X connect 121 0 156 0;
#X connect 121 0 180 0;
#X connect 121 0 383 0;
#X connect 122 0 19 1;
#X connect 122 0 204 0;
#X connect 123 0 23 1;
#X connect 123 0 97 0;
#X connect 123 0 154 0;
#X connect 123 0 190 0;
#X connect 123 0 384 0;
#X connect 124 0 28 1;
#X connect 124 0 214 0;
#X connect 125 0 22 1;
#X connect 125 0 97 0;
#X connect 125 0 192 0;
#X connect 125 0 304 1;
#X connect 125 0 384 0;
#X connect 126 0 26 1;
#X connect 126 0 212 0;
#X connect 127 0 61 1;
#X connect 127 0 194 0;
#X connect 127 0 305 1;
#X connect 127 0 384 0;
#X connect 128 0 27 1;
#X connect 128 0 376 0;
#X connect 129 0 41 1;
#X connect 129 0 97 0;
#X connect 129 0 155 0;
#X connect 129 0 188 0;
#X connect 129 0 384 0;
#X connect 130 0 29 1;
#X connect 130 0 216 0;
#X connect 131 0 1 1;
#X connect 131 0 87 0;
#X connect 131 0 153 0;
#X connect 131 0 174 0;
#X connect 131 0 382 0;
#X connect 132 0 7 1;
#X connect 132 0 198 0;
#X connect 133 0 0 1;
#X connect 133 0 87 0;
#X connect 133 0 176 0;
#X connect 133 0 304 1;
#X connect 133 0 382 0;
#X connect 134 0 5 1;
#X connect 134 0 200 0;
#X connect 135 0 59 1;
#X connect 135 0 87 0;
#X connect 135 0 178 0;
#X connect 135 0 305 1;
#X connect 135 0 382 0;
#X connect 136 0 6 1;
#X connect 136 0 202 0;
#X connect 137 0 10 0;
#X connect 138 0 34 0;
#X connect 138 0 322 0;
#X connect 139 0 218 0;
#X connect 139 0 163 0;
#X connect 140 0 43 0;
#X connect 141 0 39 0;
#X connect 142 0 86 0;
#X connect 143 0 144 0;
#X connect 144 0 142 0;
#X connect 145 0 142 1;
#X connect 146 0 145 0;
#X connect 147 0 143 0;
#X connect 150 0 75 0;
#X connect 151 0 81 0;
#X connect 158 0 84 0;
#X connect 158 0 85 0;
#X connect 158 0 366 0;
#X connect 158 0 385 0;
#X connect 159 0 71 1;
#X connect 159 0 72 1;
#X connect 159 0 73 1;
#X connect 159 0 74 1;
#X connect 160 0 161 0;
#X connect 161 0 159 0;
#X connect 162 0 158 0;
#X connect 167 0 169 0;
#X connect 167 1 170 0;
#X connect 168 0 297 0;
#X connect 169 0 314 0;
#X connect 170 0 314 0;
#X connect 171 0 111 0;
#X connect 172 0 131 0;
#X connect 175 0 133 0;
#X connect 177 0 135 0;
#X connect 179 0 121 0;
#X connect 181 0 115 0;
#X connect 183 0 117 0;
#X connect 185 0 119 0;
#X connect 187 0 129 0;
#X connect 189 0 123 0;
#X connect 191 0 125 0;
#X connect 193 0 127 0;
#X connect 195 0 112 0;
#X connect 197 0 132 0;
#X connect 199 0 134 0;
#X connect 201 0 136 0;
#X connect 203 0 122 0;
#X connect 205 0 116 0;
#X connect 207 0 118 0;
#X connect 209 0 120 0;
#X connect 211 0 128 0;
#X connect 213 0 126 0;
#X connect 215 0 124 0;
#X connect 217 0 130 0;
#X connect 221 0 223 0;
#X connect 222 0 139 0;
#X connect 223 0 222 0;
#X connect 224 0 223 1;
#X connect 224 0 227 1;
#X connect 224 0 230 1;
#X connect 225 0 227 0;
#X connect 226 0 113 0;
#X connect 227 0 226 0;
#X connect 228 0 230 0;
#X connect 229 0 114 0;
#X connect 230 0 229 0;
#X connect 231 0 228 0;
#X connect 232 0 225 0;
#X connect 233 0 221 0;
#X connect 234 0 224 0;
#X connect 236 0 260 0;
#X connect 237 0 266 0;
#X connect 237 0 290 0;
#X connect 237 0 264 0;
#X connect 238 0 260 0;
#X connect 239 0 242 0;
#X connect 240 0 242 0;
#X connect 240 0 239 0;
#X connect 241 0 239 1;
#X connect 241 0 240 0;
#X connect 242 0 260 0;
#X connect 243 0 238 0;
#X connect 243 1 244 0;
#X connect 244 0 236 0;
#X connect 245 0 243 0;
#X connect 246 0 245 0;
#X connect 247 0 267 0;
#X connect 248 0 261 1;
#X connect 249 0 260 0;
#X connect 250 0 298 1;
#X connect 251 0 254 1;
#X connect 251 0 253 1;
#X connect 252 0 253 0;
#X connect 252 1 254 0;
#X connect 253 0 257 0;
#X connect 254 0 256 0;
#X connect 256 0 255 0;
#X connect 257 0 258 0;
#X connect 259 0 261 0;
#X connect 260 0 284 0;
#X connect 260 1 259 0;
#X connect 261 0 249 0;
#X connect 262 0 264 0;
#X connect 263 0 298 0;
#X connect 264 0 286 0;
#X connect 265 0 272 1;
#X connect 266 0 262 1;
#X connect 267 0 268 0;
#X connect 267 0 274 0;
#X connect 268 0 267 1;
#X connect 269 0 266 0;
#X connect 270 0 265 0;
#X connect 271 0 273 0;
#X connect 271 1 301 0;
#X connect 272 0 263 0;
#X connect 273 0 262 0;
#X connect 274 0 271 0;
#X connect 275 0 276 0;
#X connect 275 0 278 0;
#X connect 276 0 275 1;
#X connect 277 0 279 0;
#X connect 278 0 277 0;
#X connect 279 0 267 0;
#X connect 280 0 275 0;
#X connect 281 0 282 0;
#X connect 282 0 280 1;
#X connect 283 0 241 0;
#X connect 284 0 300 0;
#X connect 284 0 392 0;
#X connect 285 0 270 0;
#X connect 285 0 269 0;
#X connect 286 0 287 0;
#X connect 287 0 296 0;
#X connect 288 0 286 1;
#X connect 289 0 140 0;
#X connect 289 0 43 0;
#X connect 290 0 291 0;
#X connect 291 0 265 0;
#X connect 292 0 392 1;
#X connect 293 0 289 1;
#X connect 294 0 293 0;
#X connect 295 0 250 0;
#X connect 295 0 248 0;
#X connect 295 0 337 0;
#X connect 295 0 397 0;
#X connect 295 0 398 0;
#X connect 295 0 399 0;
#X connect 295 0 400 0;
#X connect 295 0 401 0;
#X connect 296 0 283 0;
#X connect 296 0 289 0;
#X connect 297 0 369 0;
#X connect 298 0 286 0;
#X connect 299 0 289 1;
#X connect 300 0 286 0;
#X connect 301 0 272 0;
#X connect 302 0 304 0;
#X connect 303 0 305 0;
#X connect 304 0 306 0;
#X connect 305 0 306 0;
#X connect 308 0 309 1;
#X connect 309 0 237 0;
#X connect 310 0 323 0;
#X connect 311 0 312 1;
#X connect 312 0 237 0;
#X connect 313 0 324 0;
#X connect 314 0 168 0;
#X connect 314 1 168 1;
#X connect 316 0 237 0;
#X connect 317 0 237 0;
#X connect 318 0 325 0;
#X connect 319 0 326 0;
#X connect 320 0 317 1;
#X connect 322 0 286 0;
#X connect 323 0 309 0;
#X connect 324 0 312 0;
#X connect 325 0 316 0;
#X connect 326 0 317 0;
#X connect 328 0 288 0;
#X connect 329 0 20 0;
#X connect 330 0 21 0;
#X connect 331 0 31 0;
#X connect 332 0 42 0;
#X connect 337 0 167 0;
#X connect 337 0 109 0;
#X connect 337 0 107 0;
#X connect 337 0 166 0;
#X connect 338 0 145 0;
#X connect 339 0 340 0;
#X connect 340 0 342 0;
#X connect 341 0 343 0;
#X connect 342 0 341 0;
#X connect 343 0 345 0;
#X connect 345 0 344 0;
#X connect 346 0 332 0;
#X connect 347 0 355 0;
#X connect 348 0 330 0;
#X connect 349 0 356 0;
#X connect 350 0 138 0;
#X connect 351 0 357 0;
#X connect 352 0 329 0;
#X connect 353 0 137 0;
#X connect 354 0 45 0;
#X connect 355 0 346 0;
#X connect 356 0 348 0;
#X connect 357 0 350 0;
#X connect 358 0 44 0;
#X connect 359 0 331 0;
#X connect 360 0 88 1;
#X connect 361 0 93 1;
#X connect 362 0 98 1;
#X connect 363 0 148 0;
#X connect 364 0 149 0;
#X connect 367 0 51 0;
#X connect 368 0 332 0;
#X connect 369 0 379 0;
#X connect 370 0 369 1;
#X connect 371 0 380 0;
#X connect 372 0 371 1;
#X connect 373 0 381 0;
#X connect 374 0 373 1;
#X connect 375 0 374 0;
#X connect 377 0 372 0;
#X connect 378 0 370 0;
#X connect 379 0 315 0;
#X connect 379 0 139 0;
#X connect 380 0 113 0;
#X connect 381 0 406 0;
#X connect 385 0 73 0;
#X connect 386 0 35 0;
#X connect 386 0 388 0;
#X connect 386 0 389 0;
#X connect 387 0 386 0;
#X connect 388 0 391 0;
#X connect 389 0 390 0;
#X connect 390 0 262 0;
#X connect 391 0 272 0;
#X connect 392 0 139 0;
#X connect 397 0 37 0;
#X connect 398 0 353 0;
#X connect 399 0 55 0;
#X connect 400 0 352 0;
#X connect 401 0 368 0;
#X connect 402 0 359 0;
#X connect 404 0 245 0;
#X connect 405 0 267 0;
#X connect 406 0 114 0;
#X coords 0 -1 1 1 305 168 1 0 0;
