#N canvas 116 150 1384 878 12;
#X obj -9 50 cnv 15 400 20 \$0-preset.name.s \$0-preset.name.r PRESET_FILE:no_preset_loaded
5 10 0 10 -86853 -261682 0;
#N canvas 373 283 1531 1028 presets 0;
#N canvas 407 351 666 385 read.write 0;
#X msg 92 80 clear;
#X obj 51 24 savepanel;
#X msg 51 141 write \$1;
#X obj 72 109 s \$0-get.values;
#X obj 52 52 t s b b;
#X obj 261 24 openpanel;
#X obj 262 52 t b s s;
#X msg 282 80 read \$1;
#X obj 282 109 s \$0-to.text.define;
#X obj 52 248 text define \$0-preset;
#X obj 51 171 s \$0-to.text.define;
#X obj 51 221 r \$0-to.text.define;
#X msg 261 141 line 0 \, bang;
#X obj 261 161 text sequence \$0-preset;
#X obj 261 241 t a a;
#X obj 261 281 list split 2;
#X obj 261 221 list prepend \$0;
#X msg 346 257 symbol \$1-\$2;
#X obj 441 237 t a a;
#X obj 441 217 list prepend \$0;
#X msg 496 253 symbol \$1-\$2.r;
#X obj 441 277 list split 2;
#X obj 478 308 send;
#X obj 51 281 r \$0-to.text.set;
#X obj 51 310 text set \$0-preset 1e+06;
#X obj 301 311 array set;
#X obj 261 181 list trim;
#X obj 261 201 route @array;
#N canvas 132 151 450 300 write.preset.name 0;
#X msg 234 202 label \$1;
#X obj 234 222 s \$0-preset.name.r;
#X obj 44 146 loadbang;
#X obj 44 166 symbol no_preset_loaded;
#X obj 234 182 makefilename PRESET_FILE:%s;
#X obj 206 56 list fromsymbol;
#X obj 206 132 list split;
#X obj 234 152 list tosymbol;
#X obj 263 112 + 1;
#X obj 206 36 inlet;
#N canvas 583 113 293 386 find 0;
#X obj 102 46 inlet;
#X obj 102 175 list store;
#X obj 102 90 until;
#X obj 102 112 f;
#X obj 132 112 + 1;
#X msg 102 153 get \$1 1;
#X obj 145 91 0;
#X obj 102 68 t b b a;
#X obj 102 133 t f f;
#X obj 102 196 == 47;
#X obj 102 217 sel 1;
#X obj 102 238 f;
#X obj 159 279 f;
#X obj 159 300 outlet;
#X connect 0 0 7 0;
#X connect 1 0 9 0;
#X connect 1 1 2 1;
#X connect 1 1 12 0;
#X connect 2 0 3 0;
#X connect 3 0 4 0;
#X connect 3 0 8 0;
#X connect 4 0 3 1;
#X connect 5 0 1 0;
#X connect 6 0 3 1;
#X connect 7 0 2 0;
#X connect 7 1 6 0;
#X connect 7 2 1 1;
#X connect 8 0 5 0;
#X connect 8 1 11 1;
#X connect 9 0 10 0;
#X connect 10 0 11 0;
#X connect 11 0 12 1;
#X connect 12 0 13 0;
#X restore 263 92 pd find;
#X obj 206 76 t a a;
#X connect 0 0 1 0;
#X connect 2 0 3 0;
#X connect 3 0 4 0;
#X connect 4 0 0 0;
#X connect 5 0 11 0;
#X connect 6 1 7 0;
#X connect 7 0 4 0;
#X connect 8 0 6 1;
#X connect 9 0 5 0;
#X connect 10 0 8 0;
#X connect 11 0 6 0;
#X connect 11 1 10 0;
#X restore 343 76 pd write.preset.name;
#X obj 262 -11 r \$0-loadB.s;
#X obj 52 -11 r \$0-saveB.s;
#X connect 0 0 10 0;
#X connect 1 0 4 0;
#X connect 2 0 10 0;
#X connect 4 0 2 0;
#X connect 4 1 3 0;
#X connect 4 2 0 0;
#X connect 5 0 6 0;
#X connect 6 0 12 0;
#X connect 6 1 7 0;
#X connect 6 2 28 0;
#X connect 7 0 8 0;
#X connect 11 0 9 0;
#X connect 12 0 13 0;
#X connect 13 0 26 0;
#X connect 14 0 15 0;
#X connect 14 1 17 0;
#X connect 15 1 25 0;
#X connect 16 0 14 0;
#X connect 17 0 25 2;
#X connect 18 0 21 0;
#X connect 18 1 20 0;
#X connect 19 0 18 0;
#X connect 20 0 22 1;
#X connect 21 1 22 0;
#X connect 23 0 24 0;
#X connect 26 0 27 0;
#X connect 27 0 16 0;
#X connect 27 1 19 0;
#X connect 29 0 5 0;
#X connect 30 0 1 0;
#X restore 50 32 pd read.write;
#X text 253 129 SEND: \$0-<parameter_name>.s;
#X text 253 157 RECEIVE: \$0-<parameter_name>.r;
#X text 253 31 this is the read/write subpatch which should be left
as-is., f 82;
#X text 253 59 in order for a parameter that is in the parent patch
to be saved in the preset file \, here there needs to be a 'save.param'
abstraction with the name of that parameter as the second argument
(whilst the first argument is always \$0). The send and receive symbols
for each parameter must be formated in this way:, f 82;
#X text 253 185 tables can be saves as well with the [save.table] object.
The first argument is \$0 \, the second is the name of the table without
\$0-. The object on the left will save the content of a table named
"\$0-array1"., f 82;
#X text 253 241 With this method it's still required to create a new
'save.param' (or 'save.table') abstraction for every parameter or table
to be saved in the presets \, but at least there is no need to patch
all the send and receives individually., f 82;
#X floatatom 2385 622 5 0 0 2 W.reposetoinoffAB #0-reposetoinoffAB.r
W.reposetoinoffAB;
#X obj -1114 713 save.param \$0 TXTB;
#X obj -940 713 save.param \$0 Trgr-tB;
#X obj -735 713 save.param \$0 tB;
#X obj -1398 586 save.param \$0 s@pBb;
#X obj -1892 588 save.param \$0 mods@BA;
#X obj -1731 587 save.param \$0 mods@BB;
#X obj -1561 586 save.param \$0 mods@Ba;
#X obj -1243 586 save.param \$0 mods@Bb;
#X obj -1087 586 save.param \$0 spBA;
#X obj -952 586 save.param \$0 spBB;
#X obj -817 586 save.param \$0 spBa;
#X obj -679 586 save.param \$0 spBb;
#X obj -537 586 save.param \$0 spBB;
#X obj -399 587 save.param \$0 modspBa;
#X obj -239 586 save.param \$0 modspBb;
#X obj -63 586 save.param \$0 pBA;
#X obj 86 586 save.param \$0 pBB;
#X obj 221 586 save.param \$0 pBa;
#X obj 364 586 save.param \$0 pBb;
#X obj 500 586 save.param \$0 pBA;
#X obj 627 586 save.param \$0 pBB;
#X obj 763 586 save.param \$0 modpBa;
#X obj 915 586 save.param \$0 modpBb;
#X obj 1064 586 save.param \$0 BBbuton;
#X obj 1239 586 save.param \$0 BA;
#X obj 1380 586 save.param \$0 rawB;
#X obj 1545 586 save.param \$0 B@;
#X obj 1712 586 save.param \$0 @reB;
#X obj 1876 586 save.param \$0 @B;
#X obj 2041 586 save.param \$0 modBA;
#X obj 2202 586 save.param \$0 modBB;
#X obj 2364 586 save.param \$0 reposetoinofffB;
#X obj 2590 586 save.param \$0 B<<B;
#X obj 2744 585 save.param \$0 BøB;
#X obj 2892 586 save.param \$0 B<<B;
#X obj 4150 586 save.param \$0 save_trgBB;
#X obj 3771 586 save.param \$0 save_BngBA;
#X obj 3953 586 save.param \$0 save_BngBB;
#X obj 3571 586 save.param \$0 save_dataposB;
#X obj 3441 586 save.param \$0 $pB;
#X obj 3316 586 save.param \$0 $sB;
#X obj 3174 585 save.param \$0 $s&pB;
#X obj 3045 586 save.param \$0 BøA;
#X obj 1205 651 save.param \$0 stp9B;
#X obj 1362 651 save.param \$0 stp10B;
#X obj 1527 650 save.param \$0 stp11B;
#X obj 2345 651 save.param \$0 stp16B;
#X obj 2184 652 save.param \$0 stp15B;
#X obj 2023 651 save.param \$0 stp14B;
#X obj 1858 651 save.param \$0 stp13B;
#X obj 1695 651 save.param \$0 stp12B;
#X obj 890 651 save.param \$0 stp7B;
#X obj 1049 651 save.param \$0 stp8B;
#X obj 731 651 save.param \$0 stp6B;
#X obj 572 651 save.param \$0 stp5B;
#X obj 407 651 save.param \$0 stp4B;
#X obj 245 651 save.param \$0 stp3B;
#X obj 68 651 save.param \$0 stp2B;
#X obj -81 651 save.param \$0 stp1B;
#X obj -272 653 save.param \$0 stpB;
#X obj -828 650 save.param \$0 reposetoinoffB;
#X obj -614 651 save.param \$0 repostoi$B;
#X obj 2346 682 save.param \$0 stp16øB;
#X obj 2184 682 save.param \$0 stp15øB;
#X obj 2023 682 save.param \$0 stp14øB;
#X obj 1858 682 save.param \$0 stp13øB;
#X obj 1694 682 save.param \$0 stp12øB;
#X obj 1527 682 save.param \$0 stp11øB;
#X obj 1362 682 save.param \$0 stp10øB;
#X obj 1205 682 save.param \$0 stp9øB;
#X obj 1049 682 save.param \$0 stp8øB;
#X obj 1049 713 save.param \$0 T8B;
#X obj 1205 713 save.param \$0 T9B;
#X obj 1362 713 save.param \$0 T10B;
#X obj 1527 713 save.param \$0 T11B;
#X obj 1694 713 save.param \$0 T12B;
#X obj 1858 713 save.param \$0 T13B;
#X obj 2023 713 save.param \$0 T14B;
#X obj 2184 713 save.param \$0 T15B;
#X obj 2345 713 save.param \$0 T16B;
#X obj 2346 744 save.param \$0 it16B;
#X obj 2184 744 save.param \$0 it15B;
#X obj 2023 744 save.param \$0 it14B;
#X obj 1858 744 save.param \$0 it13B;
#X obj 1694 744 save.param \$0 it12B;
#X obj 1527 744 save.param \$0 it11B;
#X obj 1362 744 save.param \$0 it10B;
#X obj 1205 744 save.param \$0 it9B;
#X obj 1049 744 save.param \$0 it8B;
#X obj 1049 775 save.param \$0 progB8;
#X obj 1205 775 save.param \$0 progB9;
#X obj 1362 775 save.param \$0 progB10;
#X obj 1526 775 save.param \$0 progB11;
#X obj 1694 775 save.param \$0 progB12;
#X obj 1858 776 save.param \$0 progB13;
#X obj 2023 776 save.param \$0 progB14;
#X obj 2184 776 save.param \$0 progB15;
#X obj 2345 776 save.param \$0 progB16;
#X obj 2346 808 save.param \$0 +_B16;
#X obj 2183 809 save.param \$0 +_B15;
#X obj 2023 808 save.param \$0 +_B14;
#X obj 1858 808 save.param \$0 +_B13;
#X obj 1694 806 save.param \$0 +_B12;
#X obj 1527 806 save.param \$0 +_B11;
#X obj 1362 806 save.param \$0 +_B10;
#X obj 1205 806 save.param \$0 +_B9;
#X obj 1049 806 save.param \$0 +_B8;
#X obj 887 775 save.param \$0 progB7;
#X obj 890 744 save.param \$0 it7B;
#X obj 890 713 save.param \$0 T7B;
#X obj 890 682 save.param \$0 stp7øB;
#X obj 731 682 save.param \$0 stp6øB;
#X obj 573 681 save.param \$0 stp5øB;
#X obj 407 682 save.param \$0 stp4øB;
#X obj 245 682 save.param \$0 stp3øB;
#X obj 67 681 save.param \$0 stp2øB;
#X obj -81 682 save.param \$0 stp1øB;
#X obj -276 714 save.param \$0 T$stepB;
#X obj -275 745 save.param \$0 stepitB;
#X obj -277 776 save.param \$0 progrstepB;
#X obj -276 807 save.param \$0 +_step_B;
#X obj -81 806 save.param \$0 +_B1;
#X obj 68 806 save.param \$0 +_B2;
#X obj 245 806 save.param \$0 +_B3;
#X obj 407 806 save.param \$0 +_B4;
#X obj 572 806 save.param \$0 +_B5;
#X obj 731 806 save.param \$0 +_B6;
#X obj 890 806 save.param \$0 +_B7;
#X obj 731 775 save.param \$0 progB6;
#X obj 732 744 save.param \$0 it6B;
#X obj 731 713 save.param \$0 T6B;
#X obj 572 713 save.param \$0 T5B;
#X obj 572 744 save.param \$0 it5B;
#X obj 572 775 save.param \$0 progAB5;
#X obj 407 775 save.param \$0 progB4;
#X obj 407 744 save.param \$0 it4B;
#X obj 408 713 save.param \$0 T4B;
#X obj 245 713 save.param \$0 T3B;
#X obj 68 713 save.param \$0 T2B;
#X obj -81 713 save.param \$0 T1B;
#X obj -81 744 save.param \$0 it1B;
#X obj 68 744 save.param \$0 it2B;
#X obj 245 744 save.param \$0 it3B;
#X obj 68 775 save.param \$0 progB1;
#X obj -81 775 save.param \$0 progB1;
#X obj 245 775 save.param \$0 progB3;
#X obj -535 713 save.param \$0 proB;
#X obj -533 770 save.param \$0 progr_progr_B;
#X obj -533 800 save.param \$0 +_progr_B;
#X obj -739 803 save.param \$0 +_t_B;
#X obj -738 771 save.param \$0 progprogrtB;
#X obj -936 770 save.param \$0 Trgr-progr_B;
#X obj -934 804 save.param \$0 Trgr-+_B;
#X obj -1113 770 save.param \$0 progrXT_B;
#X obj -1114 803 save.param \$0 +_XT_B;
#X obj -1567 713 save.param \$0 TB=TA;
#X obj -1739 715 save.param \$0 ITB%ITB;
#X obj 4333 586 save.param \$0 save_trgBB;
#X obj -1264 713 save.param \$0 ITB≠TB;
#X obj -434 653 save.param \$0 ITB≠TB;
#X restore 13 102 pd presets;
#X floatatom 167 303 5 0 0 3 S.stp1B S.stp1B #0-stp1B.s;
#X floatatom 257 303 5 0 0 3 S.stp2B S.stp2B #0-stp2B.s;
#X floatatom 328 304 5 0 0 3 S.stp3B S.stp3B #0-stp3B.s;
#X floatatom 409 304 5 0 0 3 S.stp4B S.stp4B #0-stp4B.s;
#X floatatom 485 304 5 0 0 3 S.stp5B S.stp5B #0-stp5B.s;
#X floatatom 563 303 5 0 0 3 S.stp6B S.stp6B #0-stp6B.s;
#X floatatom 643 305 5 0 0 3 S.stp7B S.stp7B #0-stp7B.s;
#X floatatom 724 305 5 0 0 3 S.stp8B S.stp8B #0-stp8B.s;
#X floatatom 817 307 5 0 0 3 S.stp9B S.stp9B #0-stp9B.s;
#X floatatom 900 306 5 0 0 3 S.stp10B S.stp10B #0-stp10B.s;
#X floatatom 987 307 5 0 0 3 S.stp11B S.stp11B #0-stp11B.s;
#X floatatom 1074 306 5 0 0 3 S.stp12B S.stp12B #0-stp12B.s;
#X floatatom 1162 305 5 0 0 3 S.stp13B S.stp13B #0-stp13B.s;
#X floatatom 1253 305 5 0 0 3 S.stp14B S.stp14B #0-stp14B.s;
#X floatatom 1346 305 5 0 0 3 S.stp15B S.stp15B #0-stp15B.s;
#X floatatom 1437 306 5 0 0 3 S.stp16B S.stp16B #0-stp16B.s;
#X floatatom 167 281 5 0 0 2 R.stp1B #0-stp1B.r R.stp1B;
#X floatatom 257 281 5 0 0 2 R.stp2B #0-stp2B.r R.stp2B;
#X floatatom 328 282 5 0 0 2 R.stp3B #0-stp3B.r R.stp3B;
#X floatatom 409 282 5 0 0 2 R.stp4B #0-stp4B.r R.stp4B;
#X floatatom 485 282 5 0 0 2 R.stp5B #0-stp5B.r R.stp5B;
#X floatatom 563 282 5 0 0 2 R.stp6B #0-stp6B.r R.stp6B;
#X floatatom 643 283 5 0 0 2 R.stp7B #0-stp7B.r R.stp7B;
#X floatatom 724 283 5 0 0 2 R.stp8B #0-stp8B.r R.stp8B;
#X floatatom 817 283 5 0 0 2 R.stp9B #0-stp9B.r R.stp9B;
#X floatatom 900 283 5 0 0 2 R.stp10B #0-stp10B.r R.stp10B;
#X floatatom 987 283 5 0 0 2 R.stp11B #0-stp11B.r R.stp11B;
#X floatatom 1074 283 5 0 0 2 R.stp12B #0-stp12B.r R.stp12B;
#X floatatom 1162 282 5 0 0 2 R.stp13B #0-stp13B.r R.stp13B;
#X floatatom 1253 282 5 0 0 2 R.stp14B #0-stp14B.r R.stp14B;
#X floatatom 1346 282 5 0 0 2 R.stp15B #0-stp15B.r R.stp15B;
#X floatatom 1437 282 5 0 0 2 R.stp16B #0-stp16B.r R.stp16B;
#X floatatom 36 281 5 0 0 2 R.stpB #0-stpB.r R.stpB;
#X floatatom 36 303 5 0 0 3 S.stpB S.stpB #0-stpB.s;
#X floatatom 163 395 5 0 0 3 S.stp1øB S.stp1øB #0-stp1øB.s;
#X floatatom 252 395 5 0 0 3 S.stp2øB S.stp2øB #0-stp2øB.s;
#X floatatom 331 395 5 0 0 3 S.stp3øB S.stp3øB #0-stp3øB.s;
#X floatatom 408 395 5 0 0 3 S.stp4øB S.stp4øB #0-stp4øB.s;
#X floatatom 489 395 5 0 0 3 S.stp5øB S.stp5øB #0-stp5øB.s;
#X floatatom 564 394 5 0 0 3 S.stp6øB S.stp6øB #0-stp6øB.s;
#X floatatom 640 395 5 0 0 3 S.stp7øB S.stp7øB #0-stp7øB.s;
#X floatatom 730 395 5 0 0 3 S.stp8øB S.stp8øB #0-stp8øB.s;
#X floatatom 814 397 5 0 0 3 S.stp9øB S.stp9øB #0-stp9øB.s;
#X floatatom 899 396 5 0 0 3 S.stp10øB S.stp10øB #0-stp10øB.s;
#X floatatom 987 397 5 0 0 3 S.stp11øB S.stp11øB #0-stp11øB.s;
#X floatatom 1076 398 5 0 0 3 S.stp12øB S.stp12øB #0-stp12øB.s;
#X floatatom 1165 398 5 0 0 3 S.stp13øB S.stp13øB #0-stp13øB.s;
#X floatatom 1255 398 5 0 0 3 S.stp14øB S.stp14øB #0-stp14øB.s;
#X floatatom 1347 398 5 0 0 3 S.stp15øB S.stp15øB #0-stp15øB.s;
#X floatatom 1435 399 5 0 0 3 S.stp16øB S.stp16øB #0-stp16øB.s;
#X floatatom 163 373 5 0 0 2 R.stp1øB #0-stp1øB.r R.stp1øB;
#X floatatom 252 373 5 0 0 2 R.stp2øB #0-stp2øB.r R.stp2øB;
#X floatatom 331 373 5 0 0 2 R.stp3øB #0-stp3øB.r R.stp3øB;
#X floatatom 408 373 5 0 0 2 R.stp4øB #0-stp4øB.r R.stp4øB;
#X floatatom 489 373 5 0 0 2 R.stp5øB #0-stp5øB.r R.stp5øB;
#X floatatom 564 373 5 0 0 2 R.stp6øB #0-stp6øB.r R.stp6øB;
#X floatatom 640 373 5 0 0 2 R.stp7øB #0-stp7øB.r R.stp7øB;
#X floatatom 730 373 5 0 0 2 R.stp8øB #0-stp8øB.r R.stp8øB;
#X floatatom 814 373 5 0 0 2 R.stp9øB #0-stp9øB.r R.stp9øB;
#X floatatom 899 373 5 0 0 2 R.stp10øB #0-stp10øB.r R.stp10øB;
#X floatatom 987 373 5 0 0 2 R.stp11øB #0-stp11øB.r R.stp11øB;
#X floatatom 1076 375 5 0 0 2 R.stp12øB #0-stp12øB.r R.stp12øB;
#X floatatom 1165 375 5 0 0 2 R.stp13øB #0-stp13øB.r R.stp13øB;
#X floatatom 1255 375 5 0 0 2 R.stp14øB #0-stp14øB.r R.stp14øB;
#X floatatom 1347 375 5 0 0 2 R.stp15øB #0-stp15øB.r R.stp15øB;
#X floatatom 1435 375 5 0 0 2 R.stp16øB #0-stp16øB.r R.stp16øB;
#X floatatom -704 521 5 0 0 3 S.TB=TA S.TB=TA #0-TB=TA.s;
#X floatatom -704 501 5 0 0 2 W.TB=TA #0-TB=TA.r W.TB=TA;
#X text -394 307 save;
#X text -394 282 load;
#X floatatom -792 521 5 0 0 3 S.ITB%ITB S.ITB%ITB #0-ITB%IT.s;
#X floatatom -792 501 5 0 0 2 W.ITB%ITB #0-ITB%ITB.r W.ITB%ITB;
#X text 131 396 save;
#X text 131 372 load;
#X text -824 521 save;
#X text -824 501 load;
#X floatatom -506 501 5 0 0 2 W.TXTB #0-TXTB.r W.TXTB;
#X floatatom -506 521 5 0 0 3 S.TXTB S.TXTB #0-TXTB.s;
#X floatatom -379 500 5 0 0 2 W.Trgr-tB #0-Trgr-tB.r W.Trgr-tB;
#X floatatom -379 522 5 0 0 3 S.Trgr-tB S.Trgr-tB #0-Trgr-tB.s;
#X floatatom -244 500 5 0 0 2 W.tB #0-tB.r W.tB;
#X floatatom -244 522 5 0 0 3 S.tB S.tB #0-tB.s;
#X floatatom -125 497 5 0 0 2 W.TprogB #0-TprogB.r W.TprogB;
#X floatatom -125 519 5 0 0 3 S.progB S.TprogB #0-TprogB.s;
#X floatatom 22 497 5 0 0 2 W.T#stepB #0-T#stepB.r W.T#stepB;
#X floatatom 22 519 5 0 0 3 S.T#stepB W.T#stepB #0-T#stepB.s;
#X floatatom 162 516 5 0 0 3 S.T1B S.T1B #0-T1B.s;
#X floatatom 162 494 5 0 0 2 W.T1B #0-T1B.r W.T1B;
#X floatatom 254 516 5 0 0 3 S.T2B S.T2B #0-T2B.s;
#X floatatom 253 494 5 0 0 2 W.T2B #0-T2B.r W.T2B;
#X floatatom 334 516 5 0 0 3 S.T3B S.T3B #0-T3B.s;
#X floatatom 334 494 5 0 0 2 W.T3B #0-T3B.r W.T3B;
#X floatatom 408 516 5 0 0 3 S.T4B S.T4B #0-T4B.s;
#X floatatom 408 494 5 0 0 2 W.T4B #0-T4B.r W.T4B;
#X floatatom 484 516 5 0 0 3 S.T5B S.T5B #0-T5B.s;
#X floatatom 484 494 5 0 0 2 W.T5B #0-T5B.r W.T5B;
#X floatatom 562 515 5 0 0 3 S.T6B S.T6B #0-T6B.s;
#X floatatom 562 494 5 0 0 2 W.T6B #0-T6B.r W.T6B;
#X floatatom 639 516 5 0 0 3 S.T7B S.T7B #0-T7B.s;
#X floatatom 639 494 5 0 0 2 W.T7B #0-T7B.r W.T7B;
#X floatatom 731 516 5 0 0 3 S.T8B S.T8B #0-T8B.s;
#X floatatom 731 494 5 0 0 2 W.T8B #0-T8B.r W.T8B;
#X floatatom 816 516 5 0 0 3 S.T9B S.T9B #0-T9B.s;
#X floatatom 816 494 5 0 0 2 W.T9B #0-T9B.r W.T9B;
#X floatatom 901 516 5 0 0 3 S.T10B S.T10B #0-T10B.s;
#X floatatom 901 494 5 0 0 2 W.T10B #0-T10B.r W.T10B;
#X floatatom 990 516 5 0 0 3 S.T11B S.T11B #0-T11B.s;
#X floatatom 990 494 5 0 0 2 W.T11B #0-T11B.r W.T11B;
#X floatatom 1077 516 5 0 0 3 S.T12B S.T12B #0-T1B2.s;
#X floatatom 1077 494 5 0 0 2 W.T12B #0-T12B.r W.T12B;
#X floatatom 1169 516 5 0 0 3 S.T13B S.T13B #0-T13B.s;
#X floatatom 1169 494 5 0 0 2 W.T13B #0-T13B.r W.T13B;
#X floatatom 1256 516 5 0 0 3 S.T14B S.T14B #0-T14B.s;
#X floatatom 1256 494 5 0 0 2 W.T14B #0-T14B.r W.T14B;
#X floatatom 1349 516 5 0 0 3 S.T15B S.T15B #0-T15B.s;
#X floatatom 1349 494 5 0 0 2 W.T15B #0-T15B.r W.T15B;
#X floatatom 1438 516 5 0 0 3 S.T16B S.T16B #0-T6B.s;
#X floatatom 1438 494 5 0 0 2 W.T16B #0-T16B.r W.T16B;
#X floatatom 1438 594 5 0 0 2 W.it16B #0-it16B.r W.it16B;
#X floatatom 1438 616 5 0 0 3 S.it16B S.it16B #0-it16B.s;
#X floatatom 1349 594 5 0 0 2 W.it15B #0-it15B.r W.it15B;
#X floatatom 1349 616 5 0 0 3 S.it16B S.it16B #0-it16B.s;
#X floatatom 1258 594 5 0 0 2 W.it14B #0-it14B.r W.it14B;
#X floatatom 1258 616 5 0 0 3 S.it14B S.it14B #0-it14B.s;
#X floatatom 1169 594 5 0 0 2 W.it13B #0-it13B.r W.it13B;
#X floatatom 1169 616 5 0 0 3 S.it13B S.it13B #0-it13B.s;
#X floatatom 1078 594 5 0 0 2 W.it12B #0-it12B.r W.it12B;
#X floatatom 1078 616 5 0 0 3 S.it12B S.it12B #0-it12B.s;
#X floatatom 989 594 5 0 0 2 W.it11B #0-it11B.r W.it11B;
#X floatatom 989 616 5 0 0 3 S.it11B S.it11B #0-it11B.s;
#X floatatom 898 594 5 0 0 2 W.it10B #0-it10B.r W.it10B;
#X floatatom 898 616 5 0 0 3 S.it10B S.it10B #0-it10B.s;
#X floatatom 819 594 5 0 0 2 W.it9B #0-it9B.r W.it9B;
#X floatatom 819 616 5 0 0 3 S.it9B S.it9B #0-it9B.s;
#X floatatom 731 594 5 0 0 2 W.it8B #0-it8B.r W.it8B;
#X floatatom 731 616 5 0 0 3 S.it8B S.it8B #0-it8B.s;
#X floatatom 642 594 5 0 0 2 W.it7B #0-it7B.r W.it7B;
#X floatatom 642 616 5 0 0 3 S.it7B S.it7B #0-it7B.s;
#X floatatom 561 594 5 0 0 2 W.it6B #0-it6B.r W.it6B;
#X floatatom 561 615 5 0 0 3 S.it6B S.it6B #0-it6B.s;
#X floatatom 482 594 5 0 0 2 W.it5B #0-it5B.r W.it5B;
#X floatatom 482 616 5 0 0 3 S.it5B S.it5B #0-it5B.s;
#X floatatom 407 594 5 0 0 2 W.it4B #0-it4B.r W.it4B;
#X floatatom 407 616 5 0 0 3 S.it4B S.it14B #0-it4B.s;
#X floatatom 332 594 5 0 0 2 W.it3B #0-it3B.r W.it3B;
#X floatatom 332 616 5 0 0 3 S.it3B S.it3B #0-it3B.s;
#X floatatom 251 594 5 0 0 2 W.it2B #0-it2B.r W.it2B;
#X floatatom 251 616 5 0 0 3 S.it2B S.it2B #0-it2B.s;
#X floatatom 162 594 5 0 0 2 W.it1B #0-it1B.r W.it1B;
#X floatatom 162 616 5 0 0 3 S.it1B S.it1B #0-it1B.s;
#X floatatom 21 594 5 0 0 2 W.stepitB #0-stepitB.r W.stepitB;
#X floatatom 21 616 5 0 0 3 S.stepitB S.stepitB #0-stepitB.s;
#X text -11 616 save;
#X text -11 594 load;
#X floatatom 1438 694 5 0 0 2 W.progB16 #0-progB16.r W.progB16;
#X floatatom 1438 716 5 0 0 3 S.progB16 S.progB16 #0-progB16.s;
#X floatatom 1349 694 5 0 0 2 W.progB15 #0-progB15.r W.progB15;
#X floatatom 1349 716 5 0 0 3 S.progB15 S.progB15 #0-progB15.s;
#X floatatom 1258 694 5 0 0 2 W.progB14 #0-progB14.r W.progB14;
#X floatatom 1258 716 5 0 0 3 S.progB14 S.progB14 #0-progB14.s;
#X floatatom 1169 694 5 0 0 2 W.progB13 #0-progB13.r W.progB13;
#X floatatom 1169 716 5 0 0 3 S.progB13 S.progB13 #0-progB13.s;
#X floatatom 1078 694 5 0 0 2 W.progB12 #0-progB12.r W.progB12;
#X floatatom 1078 716 5 0 0 3 S.progB12 S.progB12 #0-progB12.s;
#X floatatom 989 694 5 0 0 2 W.progB11 #0-progB11.r W.progB11;
#X floatatom 989 716 5 0 0 3 S.progB11 S.progB11 #0-progB11.s;
#X floatatom 898 695 5 0 0 2 W.progB10 #0-progB10.r W.progB10;
#X floatatom 898 716 5 0 0 3 S.progB10 S.progB10 #0-progB10.s;
#X floatatom 819 694 5 0 0 2 W.progB9 #0-progB9.r W.progB9;
#X floatatom 819 716 5 0 0 3 S.progB9 S.progB9 #0-progB9.s;
#X floatatom 728 694 5 0 0 2 W.progB8 #0-progB8.r W.progB8;
#X floatatom 728 716 5 0 0 3 S.progB8 S.progB8 #0-progB8.s;
#X floatatom 643 694 5 0 0 2 W.progB7 #0-progB7.r W.progB7;
#X floatatom 643 716 5 0 0 3 S.progB7 S.progAB #0-progB7.s;
#X floatatom 559 694 5 0 0 2 W.progB6 #0-progB6.r W.progB6;
#X floatatom 559 716 5 0 0 3 S.progB6 S.progB6 #0-progB6.s;
#X floatatom 483 694 5 0 0 2 W.progB5 #0-progB5.r W.progB5;
#X floatatom 483 716 5 0 0 3 S.progB5 S.progB5 #0-progB5.s;
#X floatatom 402 694 5 0 0 2 W.progB4 #0-progB4.r W.progB4;
#X floatatom 402 716 5 0 0 3 S.progB4 S.progB4 #0-progB4.s;
#X floatatom 329 694 5 0 0 2 W.progB3 #0-progB3.r W.progB3;
#X floatatom 329 716 5 0 0 3 S.progB3 S.progB3 #0-progB3.s;
#X floatatom 250 694 5 0 0 2 W.progB2 #0-progB2.r W.progB2;
#X floatatom 250 716 5 0 0 3 S.progB2 S.progB2 #0-progB2.s;
#X floatatom 161 694 5 0 0 2 W.progB1 #0-progB1.r W.progB1;
#X floatatom 161 716 5 0 0 3 S.progB1 S.progB1 #0-progB1.s;
#X floatatom 21 694 5 0 0 2 W.progrstepB #0-progrstepB.r W.progrstepB
;
#X floatatom 22 716 5 0 0 3 S.progrstepB S.progrstepB #0-progrstepB.s
;
#X floatatom -122 694 5 0 0 2 W.progr_progr_B #0-progr_progr_B.r W.progr_progr_B
;
#X floatatom -122 716 5 0 0 3 S.progr_progr_B S.progr_progr_B #0-progr_progr_B.s
;
#X floatatom -390 694 5 0 0 2 W.Trgr-progr_B #0-Trgr-progr_B.r W.Trgr-progr_B
;
#X floatatom -390 716 5 0 0 3 S.Trgr-progr_B S.Trgr-progr_B #0-Trgr-progr_B.s
;
#X floatatom -509 694 5 0 0 2 W.progrXT_B #0-progrXT_B.r W.progrXT_B
;
#X floatatom -509 717 5 0 0 3 S.progrXT_B S.progrXT_B #0-progrXT_B.s
;
#X floatatom 1438 794 5 0 0 2 W.+_B16 #0-+_B16.r W.+_B16;
#X floatatom 1438 816 5 0 0 3 S.+_B16 S.+_B16 #0-+_B16.s;
#X floatatom 1350 794 5 0 0 2 W.+_B15 #0-+_B15.r W.+_B15;
#X floatatom 1349 816 5 0 0 3 S.+_B15 S.+_B15 #0-+_B15.s;
#X floatatom 1258 794 5 0 0 2 W.+_B14 #0-+_B14.r W.+_B14;
#X floatatom 1258 816 5 0 0 3 S.+_B14 S.+_B14 #0-+_B14.s;
#X floatatom 1169 794 5 0 0 2 W.+_B13 #0-+_B13.r W.+_B13;
#X floatatom 1169 816 5 0 0 3 S.+_B13 S.+_B13 #0-+_B13.s;
#X floatatom 1078 794 5 0 0 2 W.+_B12 #0-+_B12.r W.+_B12;
#X floatatom 1078 816 5 0 0 3 S.+_B12 S.+_B12 #0-+_B12.s;
#X floatatom 989 794 5 0 0 2 W.+_B11 #0-+_B11.r W.+_B11;
#X floatatom 989 816 5 0 0 3 S.+_B11 S.+_B11 #0-+_B11.s;
#X floatatom 898 794 5 0 0 2 W.+_B10 #0-+_B10.r W.+_B10;
#X floatatom 898 816 5 0 0 3 S.+_B10 S.+_B10 #0-+_B10.s;
#X floatatom 819 794 5 0 0 2 W.+_B9 #0-+_B9.r W.+_B9;
#X floatatom 820 816 5 0 0 3 S.+_B9 S.+_B9 #0-+_B9.s;
#X floatatom 728 794 5 0 0 2 W.+_B8 #0-+_B8.r W.+_B8;
#X floatatom 728 816 5 0 0 3 S.+_B8 S.+_B8 #0-+_B8.s;
#X floatatom 643 794 5 0 0 2 W.+_B7 #0-+_B7.r W.+_B7;
#X floatatom 643 816 5 0 0 3 S.+_B7 S.+_B7 #0-+_B7.s;
#X floatatom 559 794 5 0 0 2 W.+_B6 #0-+_B6.r W.+_B6;
#X floatatom 559 816 5 0 0 3 S.+_B6 S.+_B6 #0-+_B6.s;
#X floatatom 483 794 5 0 0 2 W.+_B5 #0-+_B5.r W+_B5;
#X floatatom 483 816 5 0 0 3 S.+_B5 S.+_B5 #0-+_B5.s;
#X floatatom 402 795 5 0 0 2 W.+_B4 #0-+_B4.r W.+_B4;
#X floatatom 402 816 5 0 0 3 S.+_B4 S.+_B4 #0-+_B4.s;
#X floatatom 329 794 5 0 0 2 W.+_B3 #0-+_B3.r W.+_B3;
#X floatatom 329 816 5 0 0 3 S.+_B3 S.+_B3 #0-+_B3.s;
#X floatatom 250 794 5 0 0 2 W.+_B2 #0-+_B2.r W.+_B2;
#X floatatom 250 816 5 0 0 3 S.+_B2 S.+_B2 #0-+_B2.s;
#X floatatom 161 794 5 0 0 2 W.+_B1 #0-+_B1.r W.+_B1;
#X floatatom 161 816 5 0 0 3 S.+_B1 S.+_B1 #0-+_B1.s;
#X floatatom 20 794 5 0 0 2 W.+_step_B #0-+_step_B.r W.+_step_B;
#X floatatom 21 816 5 0 0 3 S.+_step_B S.+_step_B #0-+_step_B.s;
#X floatatom -123 794 5 0 0 2 W.+_progr_B #0-+_progr_B.r W.+_progr_B
;
#X floatatom -122 816 5 0 0 3 S.+_progr_B S.+_progr_B #0-+_progr_B.s
;
#X floatatom -261 794 5 0 0 2 W.+_t_B #0-+_t_B.r W.+_t_B;
#X floatatom -261 816 5 0 0 3 S.+_t_B S.+_t_B #0-+_t_B.s;
#X floatatom -390 794 5 0 0 2 W.Trgr-+_B #0-Trgr-+_B.r W.Trgr-+_B;
#X floatatom -390 816 5 0 0 3 S.Trgr-+_B S.Trgr-+_B #0-Trgr-+_B.s;
#X floatatom -509 794 5 0 0 2 W.+_XT_B #0-+_XT_B.r W.+_XT_B;
#X floatatom -509 817 5 0 0 3 S.+_XT_B S.+_XT_B #0-+_XT_B.s;
#X floatatom -252 694 5 0 0 2 W.progprogrtB #0-progprogrtB.r W.progprogrtB
;
#X floatatom -252 716 5 0 0 3 S.progprogrtB S.progprogrtB #0-progprogrtB.s
;
#X floatatom -782 186 5 0 0 3 S.s@pBA S.s@pBA #0-s@pBA.s;
#X floatatom -782 165 5 0 0 2 W.s@pBA #0-s@pBA.r W.s@pBA;
#X floatatom -662 186 5 0 0 3 S.s@pBB S.s@pBB #0-s@pBB.s;
#X floatatom -662 166 5 0 0 2 W.s@pBB #0-s@pBB.r W.s@pBB;
#X floatatom -512 185 5 0 0 3 S.s@pBa S.s@pBa #0-s@pBa.s;
#X floatatom -512 166 5 0 0 2 W.s@pBa #0-s@pBa.r W.s@pBa;
#X floatatom -372 186 5 0 0 3 S.s@pBb S.s@pBb #0-s@pBb.s;
#X floatatom -372 166 5 0 0 2 W.s@Bb #0-s@pBb.r W.s@pBb;
#X floatatom -252 186 5 0 0 3 S.mods@BA S.mods@BA #0-smods@BA.s;
#X floatatom -252 166 5 0 0 2 W.mods@BA #0-mods@BA.r W.mods@BA;
#X floatatom -112 185 5 0 0 3 S.mods@BB S.mods@BB #0-smods@BB.s;
#X floatatom -112 166 5 0 0 2 W.mods@BB #0-mods@BB.r W.mods@BB;
#X floatatom 28 186 5 0 0 3 S.mods@Ba S.mods@Ba #0-smods@Ba.s;
#X floatatom 28 166 5 0 0 2 W.mods@Ba #0-mods@Ba.r W.mods@Ba;
#X floatatom 168 186 5 0 0 3 S.mods@Bb S.mods@Bb #0-smods@Bb.s;
#X floatatom 168 166 5 0 0 2 W.mods@Bb #0-mods@Bb.r W.mods@Bb;
#X floatatom 288 186 5 0 0 3 S.spBA S.spBA #0-spBA.s;
#X floatatom 288 166 5 0 0 2 W.spBA #0-spBA.r W.spBA;
#X floatatom 418 186 5 0 0 3 S.spBB S.spBB #0-spBB.s;
#X floatatom 418 166 5 0 0 2 W.spBB #0-spBB.r W.spBB;
#X floatatom 560 186 5 0 0 3 S.spBa S.spBa #0-spBa.s;
#X floatatom 559 166 5 0 0 2 W.spBa #0-spBa.r W.spBa;
#X floatatom 689 186 5 0 0 3 S.spBb S.spBb #0-spBb.s;
#X floatatom 689 166 5 0 0 2 W.spBb #0-spBb.r W.spBb;
#X floatatom 809 186 5 0 0 3 S.modspBA S.modspBA #0-modspBA.s;
#X floatatom 809 166 5 0 0 2 W.modspBA #0-modspBA.r W.modspBA;
#X floatatom 949 186 5 0 0 3 S.modspBB S.modspBB #0-modspBB.s;
#X floatatom 949 166 5 0 0 2 W.modspBB #0-modspBB.r W.modspBB;
#X floatatom 1099 186 5 0 0 3 S.modspBa S.modspBa #0-modspBa.s;
#X floatatom 1099 166 5 0 0 2 W.modspBa #0-modspBa.r W.modspBa;
#X floatatom 1239 186 5 0 0 3 S.modspBb S.modspBb #0-modspBb.s;
#X floatatom 1239 166 5 0 0 2 W.modspBb #0-modspBb.r W.modspBb;
#X floatatom 1379 186 5 0 0 3 S.pBA S.pBA #0-pBA.s;
#X floatatom 1379 166 5 0 0 2 W.pBA #0-pBA.r W.pBA;
#X floatatom 1529 186 5 0 0 3 S.pBB S.pBB #0-pBB.s;
#X floatatom 1529 166 5 0 0 2 W.pBB #0-pBB.r W.pBB;
#X floatatom 1669 186 5 0 0 3 S.pBa S.pBa #0-pBa.s;
#X floatatom 1669 166 5 0 0 2 W.pBa #0-pBa.r W.pBa;
#X floatatom 1789 186 5 0 0 3 S.pBb S.pBb #0-pBb.s;
#X floatatom 1789 166 5 0 0 2 W.pBb #0-pBb.r W.pBb;
#X floatatom 1919 186 5 0 0 3 S.modpBA S.modpBA #0-modpBA.s;
#X floatatom 1919 166 5 0 0 2 W.modpBA #0-modpBA.r W.modpBA;
#X floatatom 2019 186 5 0 0 3 S.modpBB S.modpBB #0-modpBB.s;
#X floatatom 2019 166 5 0 0 2 W.modpBB #0-modpBB.r W.modpBB;
#X floatatom 2129 186 5 0 0 3 S.modpBa S.modpBa #0-modpBa.s;
#X floatatom 2129 166 5 0 0 2 W.modpBa #0-modpBa.r W.modpBa;
#X floatatom 2269 186 5 0 0 3 S.modpBb S.modpBb #0-modpBb.s;
#X floatatom 2269 166 5 0 0 2 W.modpBb #0-modpBb.r W.modpBb;
#X floatatom 2399 186 5 0 0 3 S.BBbuton S.BBbuton #0-BBbuton.s;
#X floatatom 2399 166 5 0 0 2 W.BBbuton #0-BBbuton.r W.BBbuton;
#X floatatom 2539 186 5 0 0 3 S.BA S.BA #0-BA.s;
#X floatatom 2538 166 5 0 0 2 W.BA #0-BAr W.BA;
#X floatatom 2679 186 5 0 0 3 S.rawB S.rawB #0-rawB.s;
#X floatatom 2679 166 5 0 0 2 W.rawB #0-rawB.r W.rawB;
#X floatatom 2809 186 5 0 0 3 S.B@ S.B@ #0-rB@.s;
#X floatatom 2809 166 5 0 0 2 W.B@ #0-B@.r W.B@;
#X floatatom 2979 186 5 0 0 3 S.@reB S.@reB #0-@reB.s;
#X floatatom 2979 166 5 0 0 2 W.@reB #0-@reB.r W.@reB;
#X floatatom 3119 186 5 0 0 3 S.@B S.@B #0-@B.s;
#X floatatom 3119 166 5 0 0 2 W.@B #0-@B.r W.@B;
#X floatatom 3330 184 5 0 0 3 S.modBB S.modBB #0-modBB.s;
#X floatatom 3330 164 5 0 0 2 W.modBB #0-modBB.r W.modBB;
#X floatatom 3246 186 5 0 0 3 S.modAB S.modAB #0-modAB.s;
#X floatatom 3246 166 5 0 0 2 W.modBA #0-modBA.r W.modBA;
#X floatatom 3689 186 5 0 0 3 S.reposetoinoffBB S.reposetoinoffBB #0-reposetoinoffBB.s
;
#X floatatom 3689 166 5 0 0 2 W.reposetoinoffBB #0-reposetoinoffBB.r
W.reposetoinoffBB;
#X floatatom 3471 186 5 0 0 3 S.reposetoinoffBA S.reposetoinoffBA #0-reposetoinoffBA.s
;
#X floatatom 3471 166 5 0 0 2 W.reposetoinoffBA #0-reposetoinoffBA.r
W.reposetoinoffBA;
#X floatatom 3969 186 5 0 0 3 S.B<<B S.B<<B #0-B<<B.s;
#X floatatom 3969 166 5 0 0 2 W.B<<B #0-B<<B.r W.B<<B;
#X floatatom 4294 191 5 0 0 3 S.BøB S.BøB #0-BøB.s;
#X floatatom 4294 171 5 0 0 2 W.BøB #0-BøB.r W.BøB;
#X floatatom 4189 186 5 0 0 3 S.B<<B S.B<<B #0-B<<B.s;
#X floatatom 4189 166 5 0 0 2 W.B<<B #0-B<<B.r W.B<<B;
#X floatatom 4079 186 5 0 0 3 S.BøA S.BøA #0-BøA;
#X floatatom 4079 166 5 0 0 2 W.BøA #0-BøA.r W.BøA;
#X floatatom 4399 186 5 0 0 3 S.#s&pB S.#s&pB #0-#s&pB.s;
#X floatatom 4399 166 5 0 0 2 W.#s&pB #0-#s&pB.r W.#s&pB;
#X floatatom 4519 186 5 0 0 3 S.#sB S.#sB #0-#sB.s;
#X floatatom 4519 166 5 0 0 2 W.#sB #0-#sB.r W.#sB;
#X floatatom 4609 186 5 0 0 3 S.#pB S.#pB #0-#pB.s;
#X floatatom 4609 166 5 0 0 2 W.#pB #0-#pB.r W.#pB;
#X floatatom 4699 186 5 0 0 3 S.save_dataposB S.save_dataposB #0-save_dataposB.s
;
#X floatatom 4699 166 5 0 0 2 W.save_dataposB #0-save_dataposB.r W.save_dataposB
;
#X floatatom 4858 186 5 0 0 3 S.save_BngBA S.save_BngBA #0-save_BngBA.s
;
#X floatatom 4858 166 5 0 0 2 W.save_BngBA #0-save_BngBA.r W.save_BngBA
;
#X floatatom 5018 186 5 0 0 3 S.save_BngBB S.save_BngBB #0-save_BngBB.s
;
#X floatatom 5018 166 5 0 0 2 W.save_BngBB #0-save_BngBB.r W.save_BngBB
;
#X floatatom 5298 182 5 0 0 3 S.save_trgBB S.save_trgBB #0-save_trgBB.s
;
#X floatatom 5298 162 5 0 0 2 W.save_trgBB #0-save_trgBB.r W.save_trgBB
;
#X floatatom 5145 188 5 0 0 3 S.save_trgBA S.save_trgBA #0-save_trgBA.s
;
#X floatatom 5145 167 5 0 0 2 W.save_trgBA #0-save_trgBA.r W.save_trgBA
;
#X text -812 185 save;
#X text -813 165 load;
#X floatatom -356 282 5 0 0 2 W.reposetoinoffB #0-reposetoinoffB.r
W.reposetoinoffB;
#X floatatom -356 304 5 0 0 3 S.reposetoinoffB S.reposetoinoffB #0-reposetoinoffB.s
;
#X floatatom -206 282 5 0 0 2 W.reposetoi#B #0-reposetoi#B.r W.reposetoi#B
;
#X floatatom -206 304 5 0 0 3 S.reposetoi#B S.reposetoi#B #0-reposetoi#B.s
;
#X floatatom -613 506 5 0 0 2 W.IT1≠T1 #0-IT1≠T1.r W.IT1≠T1;
#X floatatom -613 526 5 0 0 3 S.IT1≠T1 S.IT1≠T1 #0-IT1≠T1.s;
#X floatatom -64 283 5 0 0 2 W.ITB≠TB #0-ITB≠TB.r W.ITB≠TB;
#X floatatom -64 305 5 0 0 3 S.ITB≠TB S.ITB≠TB #0-ITB≠TB.s;
#X obj 100 100 cnv 15 150 21 empty empty savestate.to.tx 10 10 1 13
-1 -162280 0;
#X obj 203 102 bng 18 250 50 0 \$0-saveB.s \$0-saveB.r S 5 10 1 14
-162280 -260097 -1;
#X obj 227 102 bng 18 250 50 0 \$0-loadB.s \$0-loadB.r L 5 10 1 14
-162280 -260097 -1;
#X coords 0 -1 1 1 149 22 2 100 100;
