#N canvas 427 52 1253 815 12;
#X floatatom 42 160 5 0 0 2 R.ITDET #0-ITDET.r R.ITDETONOFF_1;
#X floatatom 42 184 5 0 0 3 S.ITDET S.ITDETONOFF_1 #0-ITDET.s;
#X obj 101 101 cnv 15 148 20 empty empty empty 22 10 0 14 -262144 -1
0;
#X obj 103 102 bng 18 250 50 0 \$0-save.s \$0-save.r save 20 10 0 10
-262144 -1 -1;
#X obj 200 102 bng 18 250 50 0 \$0-load.s \$0-load.r load 20 10 0 10
-262144 -1 -1;
#X obj -1 51 cnv 15 400 20 \$0-preset.name.s \$0-preset.name.r PRESET_FILE:no_preset_loaded
5 10 0 10 -86853 -261682 0;
#N canvas 802 476 1591 878 presets 1;
#N canvas 27 528 666 385 read.write 0;
#X obj 51 41 r \$0-save.s;
#X msg 90 101 clear;
#X obj 51 61 savepanel;
#X msg 51 141 write \$1;
#X obj 70 121 s \$0-get.values;
#X obj 51 81 t s b b;
#X obj 261 41 r \$0-load.s;
#X obj 261 61 openpanel;
#X obj 261 81 t b s s;
#X msg 280 101 read \$1;
#X obj 280 121 s \$0-to.text.define;
#X obj 51 241 text define \$0-preset;
#X obj 51 171 s \$0-to.text.define;
#X obj 51 221 r \$0-to.text.define;
#X msg 261 141 line 0 \, bang;
#X obj 261 161 text sequence \$0-preset;
#X obj 261 241 t a a;
#X obj 261 281 list split 2;
#X obj 261 221 list prepend \$0;
#X msg 346 257 symbol \$1-\$2;
#X obj 441 237 t a a;
#X obj 441 217 list prepend \$0;
#X msg 496 253 symbol \$1-\$2.r;
#X obj 441 277 list split 2;
#X obj 475 297 send;
#X obj 51 281 r \$0-to.text.set;
#X obj 51 301 text set \$0-preset 1e+06;
#X obj 295 301 array set;
#X obj 261 181 list trim;
#X obj 261 201 route @array;
#N canvas 132 151 450 300 write.preset.name 0;
#X msg 234 202 label \$1;
#X obj 234 222 s \$0-preset.name.r;
#X obj 44 146 loadbang;
#X obj 44 166 symbol no_preset_loaded;
#X obj 234 182 makefilename PRESET_FILE:%s;
#X obj 206 56 list fromsymbol;
#X obj 206 132 list split;
#X obj 234 152 list tosymbol;
#X obj 263 112 + 1;
#X obj 206 36 inlet;
#N canvas 583 113 293 386 find 0;
#X obj 102 46 inlet;
#X obj 102 175 list store;
#X obj 102 90 until;
#X obj 102 112 f;
#X obj 132 112 + 1;
#X msg 102 153 get \$1 1;
#X obj 145 91 0;
#X obj 102 68 t b b a;
#X obj 102 133 t f f;
#X obj 102 196 == 47;
#X obj 102 217 sel 1;
#X obj 102 238 f;
#X obj 159 279 f;
#X obj 159 300 outlet;
#X connect 0 0 7 0;
#X connect 1 0 9 0;
#X connect 1 1 2 1;
#X connect 1 1 12 0;
#X connect 2 0 3 0;
#X connect 3 0 4 0;
#X connect 3 0 8 0;
#X connect 4 0 3 1;
#X connect 5 0 1 0;
#X connect 6 0 3 1;
#X connect 7 0 2 0;
#X connect 7 1 6 0;
#X connect 7 2 1 1;
#X connect 8 0 5 0;
#X connect 8 1 11 1;
#X connect 9 0 10 0;
#X connect 10 0 11 0;
#X connect 11 0 12 1;
#X connect 12 0 13 0;
#X restore 263 92 pd find;
#X obj 206 76 t a a;
#X connect 0 0 1 0;
#X connect 2 0 3 0;
#X connect 3 0 4 0;
#X connect 4 0 0 0;
#X connect 5 0 11 0;
#X connect 6 1 7 0;
#X connect 7 0 4 0;
#X connect 8 0 6 1;
#X connect 9 0 5 0;
#X connect 10 0 8 0;
#X connect 11 0 6 0;
#X connect 11 1 10 0;
#X restore 341 97 pd write.preset.name;
#X connect 0 0 2 0;
#X connect 1 0 12 0;
#X connect 2 0 5 0;
#X connect 3 0 12 0;
#X connect 5 0 3 0;
#X connect 5 1 4 0;
#X connect 5 2 1 0;
#X connect 6 0 7 0;
#X connect 7 0 8 0;
#X connect 8 0 14 0;
#X connect 8 1 9 0;
#X connect 8 2 30 0;
#X connect 9 0 10 0;
#X connect 13 0 11 0;
#X connect 14 0 15 0;
#X connect 15 0 28 0;
#X connect 16 0 17 0;
#X connect 16 1 19 0;
#X connect 17 1 27 0;
#X connect 18 0 16 0;
#X connect 19 0 27 2;
#X connect 20 0 23 0;
#X connect 20 1 22 0;
#X connect 21 0 20 0;
#X connect 22 0 24 1;
#X connect 23 1 24 0;
#X connect 25 0 26 0;
#X connect 28 0 29 0;
#X connect 29 0 18 0;
#X connect 29 1 21 0;
#X restore 50 32 pd read.write;
#X text 252 129 SEND: \$0-<parameter_name>.s;
#X text 252 149 RECEIVE: \$0-<parameter_name>.r;
#X text 253 31 this is the read/write subpatch which should be left
as-is., f 82;
#X text 253 65 in order for a parameter that is in the parent patch
to be saved in the preset file \, here there needs to be a 'save.param'
abstraction with the name of that parameter as the second argument
(whilst the first argument is always \$0). The send and receive symbols
for each parameter must be formated in this way:, f 82;
#X text 249 166 tables can be saves as well with the [save.table] object.
The first argument is \$0 \, the second is the name of the table without
\$0-. The object on the left will save the content of a table named
"\$0-array1"., f 82;
#X text 249 216 With this method it's still required to create a new
'save.param' (or 'save.table') abstraction for every parameter or table
to be saved in the presets \, but at least there is no need to patch
all the send and receives individually., f 82;
#X obj -70 303 save.param \$0 stp1;
#X obj 77 303 save.param \$0 stp2;
#X obj 226 303 save.param \$0 stp3;
#X obj 385 303 save.param \$0 stp4;
#X obj 530 303 save.param \$0 stp5;
#X obj 679 303 save.param \$0 stp6;
#X obj 828 303 save.param \$0 stp7;
#X obj 977 303 save.param \$0 stp8;
#X obj 1123 303 save.param \$0 stp9;
#X obj 1270 303 save.param \$0 stp10;
#X obj 1425 303 save.param \$0 stp11;
#X obj 1582 303 save.param \$0 stp12;
#X obj 1728 303 save.param \$0 stp13;
#X obj 1876 303 save.param \$0 stp14;
#X obj 2025 303 save.param \$0 stp15;
#X obj 2174 303 save.param \$0 stp16;
#X obj -70 333 save.param \$0 stp1ø;
#X obj 77 333 save.param \$0 stp2ø;
#X obj 226 333 save.param \$0 stp3ø;
#X obj 385 332 save.param \$0 stp4ø;
#X obj 530 333 save.param \$0 stp5ø;
#X obj 680 333 save.param \$0 stp6ø;
#X obj 828 333 save.param \$0 stp7ø;
#X obj 977 333 save.param \$0 stp8ø;
#X obj 1123 333 save.param \$0 stp9ø;
#X obj 1270 333 save.param \$0 stp10ø;
#X obj 1425 333 save.param \$0 stp11ø;
#X obj 1582 333 save.param \$0 stp12ø;
#X obj 1728 333 save.param \$0 stp13ø;
#X obj 1876 333 save.param \$0 stp14ø;
#X obj 2025 333 save.param \$0 stp15ø;
#X obj 2174 333 save.param \$0 stp16ø;
#X obj 77 274 save.param \$0 stpA;
#X floatatom 1020 360 5 0 0 0 send_TprogA - send_TprogA;
#X floatatom 1185 360 5 0 0 0 send_T#stepA_ - send_T#stepA;
#X floatatom 589 361 5 0 0 0 send_TXTA - send_TXTA;
#X floatatom 740 360 5 0 0 0 send_Trgr-tA - send_Trgr-tA;
#X floatatom 880 360 5 0 0 0 send_tA - send_tA;
#X floatatom 439 361 5 0 0 0 send_T≠T - sendT≠T;
#X floatatom 279 361 5 0 0 0 sendIT≠T - sendIT≠T;
#X floatatom 128 361 5 0 0 0 sendITA%ITA - sendITA%ITA;
#X obj -67 274 save.param \$0 ITDET;
#X obj 306 433 save.param \$0 stp3ø;
#X obj 465 432 save.param \$0 stp4ø;
#X obj 540 403 save.param \$0 stp5ø;
#X obj 690 403 save.param \$0 stp6ø;
#X obj 838 403 save.param \$0 stp7ø;
#X obj 987 403 save.param \$0 stp8ø;
#X floatatom -12 361 5 0 0 0 sendTA=TB sendTA=TB -;
#X obj 87 403 save.param \$0 sendITA%ITA;
#X obj -84 403 save.param \$0 TA=TB;
#X restore 3 105 pd presets;
#X floatatom 187 184 5 0 0 3 S.stp1 S.stp1 #0-stp1.s;
#X floatatom 257 184 5 0 0 3 S.stp2 S.stp2 #0-stp2.s;
#X floatatom 328 185 5 0 0 3 S.stp3 S.stp3 #0-stp3.s;
#X floatatom 399 185 5 0 0 3 S.stp4 S.stp4 #0-stp4.s;
#X floatatom 475 185 5 0 0 3 S.stp5 S.stp5 #0-stp5.s;
#X floatatom 553 185 5 0 0 3 S.stp6 S.stp6 #0-stp6.s;
#X floatatom 633 186 5 0 0 3 S.stp7 S.stp7 #0-stp7.s;
#X floatatom 714 186 5 0 0 3 S.stp8 S.stp8 #0-stp8.s;
#X floatatom 797 186 5 0 0 3 S.stp9 S.stp9 #0-stp9.s;
#X floatatom 880 186 5 0 0 3 S.stp10 S.stp10 #0-stp10.s;
#X floatatom 970 186 5 0 0 3 S.stp11 S.stp11 #0-stp11.s;
#X floatatom 1054 186 5 0 0 3 S.stp12 S.stp12 #0-stp12.s;
#X floatatom 1143 185 5 0 0 3 S.stp13 S.stp13 #0-stp13.s;
#X floatatom 1245 185 5 0 0 3 S.stp14 S.stp14 #0-stp14.s;
#X floatatom 1336 185 5 0 0 3 S.stp15 S.stp15 #0-stp15.s;
#X floatatom 1417 185 5 0 0 3 S.stp16 S.stp16 #0-stp16.s;
#X floatatom 187 160 5 0 0 2 R.stp1 #0-stp1.r R.stp1;
#X floatatom 257 160 5 0 0 2 R.stp2 #0-stp2.r R.stp2;
#X floatatom 328 161 5 0 0 2 R.stp3 #0-stp3.r R.stp3;
#X floatatom 399 161 5 0 0 2 R.stp4 #0-stp4.r R.stp4;
#X floatatom 475 161 5 0 0 2 R.stp5 #0-stp5.r R.stp5;
#X floatatom 553 161 5 0 0 2 R.stp6 #0-stp6.r R.stp6;
#X floatatom 633 162 5 0 0 2 R.stp7 #0-stp7.r R.stp7;
#X floatatom 714 162 5 0 0 2 R.stp8 #0-stp8.r R.stp8;
#X floatatom 797 162 5 0 0 2 R.stp9 #0-stp9.r R.stp9;
#X floatatom 880 162 5 0 0 2 R.stp10 #0-stp10.r R.stp10;
#X floatatom 970 162 5 0 0 2 R.stp11 #0-stp11.r R.stp11;
#X floatatom 1054 162 5 0 0 2 R.stp12 #0-stp12.r R.stp12;
#X floatatom 1143 161 5 0 0 2 R.stp13 #0-stp13.r R.stp13;
#X floatatom 1243 161 5 0 0 2 R.stp14 #0-stp14.r R.stp14;
#X floatatom 1336 161 5 0 0 2 R.stp15 #0-stp15.r R.stp15;
#X floatatom 1417 161 5 0 0 2 R.stp16 #0-stp16.r R.stp16;
#X floatatom 116 160 5 0 0 2 R.stpA #0-stpA.r R.stpA;
#X floatatom 116 184 5 0 0 3 S.stpA S.stpA #0-stpA.s;
#X floatatom 185 285 5 0 0 3 S.stp1ø S.stp1ø #0-stp1ø.s;
#X floatatom 259 285 5 0 0 3 S.stp2ø S.stp2ø #0-stp2ø.s;
#X floatatom 331 285 5 0 0 3 S.stp3ø S.stp3ø #0-stp3ø.s;
#X floatatom 399 285 5 0 0 3 S.stp4ø S.stp4ø #0-stp4ø.s;
#X floatatom 479 285 5 0 0 3 S.stp5ø S.stp5ø #0-stp5ø.s;
#X floatatom 556 284 5 0 0 3 S.stp6ø S.stp6ø #0-stp6ø.s;
#X floatatom 642 287 5 0 0 3 S.stp7ø S.stp7ø #0-stp7ø.s;
#X floatatom 721 288 5 0 0 3 S.stp8ø S.stp8ø #0-stp8ø.s;
#X floatatom 795 287 5 0 0 3 S.stp9ø S.stp9ø #0-stp9ø.s;
#X floatatom 880 286 5 0 0 3 S.stp10ø S.stp10ø #0-stp10ø.s;
#X floatatom 964 288 5 0 0 3 S.stp11ø S.stp11ø #0-stp11ø.s;
#X floatatom 1059 288 5 0 0 3 S.stp12ø S.stp12ø #0-stp12ø.s;
#X floatatom 1148 288 5 0 0 3 S.stp13ø S.stp13ø #0-stp13ø.s;
#X floatatom 1246 288 5 0 0 3 S.stp14ø S.stp14ø #0-stp14ø.s;
#X floatatom 1338 288 5 0 0 3 S.stp15ø S.stp15ø #0-stp15ø.s;
#X floatatom 1424 291 5 0 0 3 S.stp16ø S.stp16ø #0-stp16ø.s;
#X floatatom 184 263 5 0 0 2 R.stp1ø #0-stp1ø.r R.stp1ø;
#X floatatom 260 263 5 0 0 2 R.stp2ø #0-stp2ø.r R.stp2ø;
#X floatatom 331 263 5 0 0 2 R.stp3ø #0-stp3ø.r R.stp3ø;
#X floatatom 398 263 5 0 0 2 R.stp4ø #0-stp4ø.r R.stp4ø;
#X floatatom 479 263 5 0 0 2 R.stp5ø #0-stp5ø.r R.stp5ø;
#X floatatom 554 263 5 0 0 2 R.stp6ø #0-stp6ø.r R.stp6ø;
#X floatatom 641 263 5 0 0 2 R.stp7ø #0-stp7ø.r R.stp7ø;
#X floatatom 720 263 5 0 0 2 R.stp8ø #0-stp8ø.r R.stp8ø;
#X floatatom 794 263 5 0 0 2 R.stp9ø #0-stp9ø.r R.stp9ø;
#X floatatom 879 263 5 0 0 2 R.stp10ø #0-stp10ø.r R.stp10ø;
#X floatatom 967 263 5 0 0 2 R.stp11ø #0-stp11ø.r R.stp11ø;
#X floatatom 1060 265 5 0 0 2 R.stp12ø #0-stp12ø.r R.stp12ø;
#X floatatom 1146 265 5 0 0 2 R.stp13ø #0-stp13ø.r R.stp13ø;
#X floatatom 1245 265 5 0 0 2 R.stp14ø #0-stp14ø.r R.stp14ø;
#X floatatom 1337 265 5 0 0 2 R.stp15ø #0-stp15ø.r R.stp15ø;
#X floatatom 1425 265 5 0 0 2 R.stp16ø #0-stp16ø.r R.stp16ø;
#X text 148 103 >.txt >;
#X floatatom 25 405 5 0 0 3 S.TA=TB S.TA=TB #0-TA=TB.s;
#X floatatom 24 383 5 0 0 2 W.TA=TB #0-TA=TB.r W.TA=TB;
#X text -25 189 save;
#X text -26 152 load;
#X floatatom 91 405 5 0 0 3 S.ITA%ITA S.ITA%ITA #0-TA=TB.s;
#X floatatom 90 383 5 0 0 2 W.ITA%ITA #0-TA=TB.r W.ITA%ITA;
#X text 131 297 save;
#X text 130 260 load;
#X text -24 417 save;
#X text -25 380 load;
#X coords 0 -1 1 1 150 23 1 100 100;
