#N canvas 419 13 1680 867 10;
#X obj 216 75 sel 0 1 2;
#X obj 216 145 sel 0 1 2;
#X floatatom 953 -3 5 0 0 0 receive_progr_progr progr_progr -;
#X obj 947 49 f;
#X obj 914 28 bng 15 250 50 0 empty empty write -35 7 0 10 -262144
-1 -1;
#X obj 930 148 f;
#X obj 919 126 bng 15 250 50 0 empty empty send -30 7 0 10 -262144
-1 -1;
#X floatatom 932 174 5 0 0 0 send_progr_progr - send_progr_progr;
#X floatatom 1113 -2 5 0 0 0 receive_progr_step progr_step -;
#X obj 1093 49 f;
#X obj 1070 28 bng 15 250 50 0 empty empty write -35 7 0 10 -262144
-1 -1;
#X obj 1076 148 f;
#X obj 1075 126 bng 15 250 50 0 empty empty send -30 7 0 10 -262144
-1 -1;
#X floatatom 1078 174 5 0 0 0 send_progr_step - send_progr_step;
#X floatatom 1243 -3 5 0 0 0 receive_prog1 prog1 -;
#X obj 1237 49 f;
#X obj 1214 28 bng 15 250 50 0 empty empty write -35 7 0 10 -262144
-1 -1;
#X obj 1220 148 f;
#X obj 1219 126 bng 15 250 50 0 empty empty send -30 7 0 10 -262144
-1 -1;
#X floatatom 1222 174 5 0 0 0 send_prog1 - send_prog1;
#X floatatom 1383 -3 5 0 0 0 receive_prog2 prog2 -;
#X obj 1377 49 f;
#X obj 1354 28 bng 15 250 50 0 empty empty write -35 7 0 10 -262144
-1 -1;
#X obj 1360 148 f;
#X obj 1359 126 bng 15 250 50 0 empty empty send -30 7 0 10 -262144
-1 -1;
#X floatatom 1362 174 5 0 0 0 send_prog2 - send_prog2;
#X floatatom 1523 -3 5 0 0 0 receive_prog3 prog3 -;
#X obj 1517 49 f;
#X obj 1494 28 bng 15 250 50 0 empty empty write -35 7 0 10 -262144
-1 -1;
#X obj 1500 148 f;
#X obj 1499 126 bng 15 250 50 0 empty empty send -30 7 0 10 -262144
-1 -1;
#X floatatom 1502 174 5 0 0 0 send_prog3 - send_prog3;
#X floatatom 1903 -3 5 0 0 0 receive_prog6 prog6 -;
#X obj 1897 49 f;
#X obj 1874 28 bng 15 250 50 0 empty empty write -35 7 0 10 -262144
-1 -1;
#X obj 1880 148 f;
#X obj 1879 126 bng 15 250 50 0 empty empty send -30 7 0 10 -262144
-1 -1;
#X floatatom 1882 174 5 0 0 0 send_prog6 - send_prog6;
#X floatatom 2033 -3 5 0 0 0 receive_prog7 prog7 -;
#X obj 2027 49 f;
#X obj 2004 28 bng 15 250 50 0 empty empty write -35 7 0 10 -262144
-1 -1;
#X obj 2010 148 f;
#X obj 2009 126 bng 15 250 50 0 empty empty send -30 7 0 10 -262144
-1 -1;
#X floatatom 2012 174 5 0 0 0 send_prog7 - send_prog7;
#X floatatom 2173 -3 5 0 0 0 receive_prog8 prog8 -;
#X obj 2167 49 f;
#X obj 2144 28 bng 15 250 50 0 empty empty write -35 7 0 10 -262144
-1 -1;
#X obj 2150 148 f;
#X obj 2149 126 bng 15 250 50 0 empty empty send -30 7 0 10 -262144
-1 -1;
#X floatatom 2152 174 5 0 0 0 send_prog8 - send_prog8;
#X floatatom 2314 -3 5 0 0 0 receive_prog9 prog9 -;
#X obj 2308 49 f;
#X obj 2285 28 bng 15 250 50 0 empty empty write -35 7 0 10 -262144
-1 -1;
#X obj 2291 148 f;
#X obj 2290 126 bng 15 250 50 0 empty empty send -30 7 0 10 -262144
-1 -1;
#X floatatom 2293 174 5 0 0 0 send_prog9 - send_prog9;
#X floatatom 2454 -3 5 0 0 0 receive_prog10 prog10 -;
#X obj 2448 49 f;
#X obj 2425 28 bng 15 250 50 0 empty empty write -35 7 0 10 -262144
-1 -1;
#X obj 2431 148 f;
#X obj 2430 126 bng 15 250 50 0 empty empty send -30 7 0 10 -262144
-1 -1;
#X floatatom 2433 174 5 0 0 0 send_prog10 - send_prog10;
#X floatatom 2584 -3 5 0 0 0 receive_prog11 prog11 -;
#X obj 2578 49 f;
#X obj 2555 28 bng 15 250 50 0 empty empty write -35 7 0 10 -262144
-1 -1;
#X obj 2561 148 f;
#X obj 2560 126 bng 15 250 50 0 empty empty send -30 7 0 10 -262144
-1 -1;
#X floatatom 2563 174 5 0 0 0 send_prog11 - send_prog11;
#X floatatom 2724 -3 5 0 0 0 receive_prog12 prog12 -;
#X obj 2718 49 f;
#X obj 2695 28 bng 15 250 50 0 empty empty write -35 7 0 10 -262144
-1 -1;
#X obj 2701 148 f;
#X obj 2700 126 bng 15 250 50 0 empty empty send -30 7 0 10 -262144
-1 -1;
#X floatatom 2703 174 5 0 0 0 send_prog12 - send_prog12;
#X floatatom 2864 -3 5 0 0 0 receive_prog13 prog13 -;
#X obj 2858 49 f;
#X obj 2835 28 bng 15 250 50 0 empty empty write -35 7 0 10 -262144
-1 -1;
#X obj 2841 148 f;
#X obj 2840 126 bng 15 250 50 0 empty empty send -30 7 0 10 -262144
-1 -1;
#X floatatom 2843 174 5 0 0 0 send_prog13 - send_prog13;
#X floatatom 3004 -3 5 0 0 0 receive_prog14 prog14 -;
#X obj 2998 49 f;
#X obj 2975 28 bng 15 250 50 0 empty empty write -35 7 0 10 -262144
-1 -1;
#X obj 2981 148 f;
#X obj 2980 126 bng 15 250 50 0 empty empty send -30 7 0 10 -262144
-1 -1;
#X floatatom 2983 174 5 0 0 0 send_prog14 - send_prog14;
#X floatatom 3134 -3 5 0 0 0 receive_prog15 prog15 -;
#X obj 3128 49 f;
#X obj 3105 28 bng 15 250 50 0 empty empty write -35 7 0 10 -262144
-1 -1;
#X obj 3111 148 f;
#X obj 3110 126 bng 15 250 50 0 empty empty send -30 7 0 10 -262144
-1 -1;
#X floatatom 3113 174 5 0 0 0 send_prog15 - send_prog15;
#X floatatom 3274 -3 5 0 0 0 receive_prog16 prog16 -;
#X obj 3268 49 f;
#X obj 3245 28 bng 15 250 50 0 empty empty write -35 7 0 10 -262144
-1 -1;
#X obj 3251 148 f;
#X obj 3250 126 bng 15 250 50 0 empty empty send -30 7 0 10 -262144
-1 -1;
#X floatatom 3253 174 5 0 0 0 send_prog16 - send_prog16;
#X floatatom 373 -3 5 0 0 0 receive_progrXT progrXT -;
#X obj 367 49 f;
#X obj 344 28 bng 15 250 50 0 empty empty write -35 7 0 10 -262144
-1 -1;
#X obj 350 148 f;
#X obj 349 126 bng 15 250 50 0 empty empty send -30 7 0 10 -262144
-1 -1;
#X floatatom 352 174 5 0 0 0 send_progrXT - send_progrXT;
#X floatatom 563 -3 5 0 0 0 receive_Trgr-progr Trgr-progr -;
#X obj 557 49 f;
#X obj 534 28 bng 15 250 50 0 empty empty write -35 7 0 10 -262144
-1 -1;
#X obj 540 148 f;
#X obj 539 126 bng 15 250 50 0 empty empty send -30 7 0 10 -262144
-1 -1;
#X floatatom 542 174 5 0 0 0 send_Trgr-progr - send_Trgr-progr;
#X floatatom 763 -3 5 0 0 0 receive_send_progr-t progr-t -;
#X obj 757 49 f;
#X obj 734 28 bng 15 250 50 0 empty empty write -35 7 0 10 -262144
-1 -1;
#X obj 740 148 f;
#X obj 739 126 bng 15 250 50 0 empty empty send -30 7 0 10 -262144
-1 -1;
#X floatatom 742 174 5 0 0 0 send_progr-t - send_progr-t;
#X obj 108 62 inlet;
#X obj 161 65 inlet;
#X floatatom 1642 -3 5 0 0 0 receive_prog4 prog4 -;
#X obj 1636 49 f;
#X obj 1613 28 bng 15 250 50 0 empty empty write -35 7 0 10 -262144
-1 -1;
#X obj 1619 148 f;
#X obj 1618 126 bng 15 250 50 0 empty empty send -30 7 0 10 -262144
-1 -1;
#X floatatom 1621 174 5 0 0 0 send_prog4 - send_prog4;
#X floatatom 1782 -3 5 0 0 0 receive_prog5 prog5 -;
#X obj 1776 49 f;
#X obj 1753 28 bng 15 250 50 0 empty empty write -35 7 0 10 -262144
-1 -1;
#X obj 1759 148 f;
#X obj 1758 126 bng 15 250 50 0 empty empty send -30 7 0 10 -262144
-1 -1;
#X floatatom 1761 174 5 0 0 0 send_prog5 - send_prog5;
#X floatatom 963 227 5 0 0 0 receive_progr_progr_ progr_progr_ -;
#X obj 957 279 f;
#X obj 924 258 bng 15 250 50 0 empty empty write -35 7 0 10 -262144
-1 -1;
#X obj 940 348 f;
#X obj 929 326 bng 15 250 50 0 empty empty send -30 7 0 10 -262144
-1 -1;
#X floatatom 958 307 5 0 0 0 - - -;
#X floatatom 942 374 5 0 0 0 send_progr_progr_ - send_progr_progr_
;
#X obj 1103 279 f;
#X obj 1080 258 bng 15 250 50 0 empty empty write -35 7 0 10 -262144
-1 -1;
#X obj 1086 348 f;
#X obj 1085 326 bng 15 250 50 0 empty empty send -30 7 0 10 -262144
-1 -1;
#X floatatom 1104 307 5 0 0 0 - - -;
#X floatatom 1253 227 5 0 0 0 receive_prog1 prog1 -;
#X obj 1247 279 f;
#X obj 1224 258 bng 15 250 50 0 empty empty write -35 7 0 10 -262144
-1 -1;
#X obj 1230 348 f;
#X obj 1229 326 bng 15 250 50 0 empty empty send -30 7 0 10 -262144
-1 -1;
#X floatatom 1248 307 5 0 0 0 - - -;
#X floatatom 1232 374 5 0 0 0 send_prog1 - send_prog1;
#X floatatom 1393 227 5 0 0 0 receive_prog2 prog2 -;
#X obj 1387 279 f;
#X obj 1364 258 bng 15 250 50 0 empty empty write -35 7 0 10 -262144
-1 -1;
#X obj 1370 348 f;
#X obj 1369 326 bng 15 250 50 0 empty empty send -30 7 0 10 -262144
-1 -1;
#X floatatom 1388 307 5 0 0 0 - - -;
#X floatatom 1372 374 5 0 0 0 send_prog2 - send_prog2;
#X floatatom 1533 227 5 0 0 0 receive_prog3 prog3 -;
#X obj 1527 279 f;
#X obj 1504 258 bng 15 250 50 0 empty empty write -35 7 0 10 -262144
-1 -1;
#X obj 1510 348 f;
#X obj 1509 326 bng 15 250 50 0 empty empty send -30 7 0 10 -262144
-1 -1;
#X floatatom 1528 307 5 0 0 0 - - -;
#X floatatom 1512 374 5 0 0 0 send_prog3 - send_prog3;
#X floatatom 1913 227 5 0 0 0 receive_prog6 prog6 -;
#X obj 1907 279 f;
#X obj 1884 258 bng 15 250 50 0 empty empty write -35 7 0 10 -262144
-1 -1;
#X obj 1890 348 f;
#X obj 1889 326 bng 15 250 50 0 empty empty send -30 7 0 10 -262144
-1 -1;
#X floatatom 1908 307 5 0 0 0 - - -;
#X floatatom 1892 374 5 0 0 0 send_prog6 - send_prog6;
#X floatatom 2043 227 5 0 0 0 receive_prog7 prog7 -;
#X obj 2037 279 f;
#X obj 2014 258 bng 15 250 50 0 empty empty write -35 7 0 10 -262144
-1 -1;
#X obj 2020 348 f;
#X obj 2019 326 bng 15 250 50 0 empty empty send -30 7 0 10 -262144
-1 -1;
#X floatatom 2038 307 5 0 0 0 - - -;
#X floatatom 2022 374 5 0 0 0 send_prog7 - send_prog7;
#X floatatom 2183 227 5 0 0 0 receive_prog8 prog8 -;
#X obj 2177 279 f;
#X obj 2154 258 bng 15 250 50 0 empty empty write -35 7 0 10 -262144
-1 -1;
#X obj 2160 348 f;
#X obj 2159 326 bng 15 250 50 0 empty empty send -30 7 0 10 -262144
-1 -1;
#X floatatom 2178 307 5 0 0 0 - - -;
#X floatatom 2162 374 5 0 0 0 send_prog8 - send_prog8;
#X floatatom 2324 227 5 0 0 0 receive_prog9 prog9 -;
#X obj 2318 279 f;
#X obj 2295 258 bng 15 250 50 0 empty empty write -35 7 0 10 -262144
-1 -1;
#X obj 2301 348 f;
#X obj 2300 326 bng 15 250 50 0 empty empty send -30 7 0 10 -262144
-1 -1;
#X floatatom 2319 307 5 0 0 0 - - -;
#X floatatom 2303 374 5 0 0 0 send_prog9 - send_prog9;
#X floatatom 2464 227 5 0 0 0 receive_prog10 prog10 -;
#X obj 2458 279 f;
#X obj 2435 258 bng 15 250 50 0 empty empty write -35 7 0 10 -262144
-1 -1;
#X obj 2441 348 f;
#X obj 2440 326 bng 15 250 50 0 empty empty send -30 7 0 10 -262144
-1 -1;
#X floatatom 2459 307 5 0 0 0 - - -;
#X floatatom 2443 374 5 0 0 0 send_prog10 - send_prog10;
#X floatatom 2594 227 5 0 0 0 receive_prog11 prog11 -;
#X obj 2588 279 f;
#X obj 2565 258 bng 15 250 50 0 empty empty write -35 7 0 10 -262144
-1 -1;
#X obj 2571 348 f;
#X obj 2570 326 bng 15 250 50 0 empty empty send -30 7 0 10 -262144
-1 -1;
#X floatatom 2589 307 5 0 0 0 - - -;
#X floatatom 2573 374 5 0 0 0 send_prog11 - send_prog11;
#X floatatom 2734 227 5 0 0 0 receive_prog12 prog12 -;
#X obj 2728 279 f;
#X obj 2705 258 bng 15 250 50 0 empty empty write -35 7 0 10 -262144
-1 -1;
#X obj 2711 348 f;
#X obj 2710 326 bng 15 250 50 0 empty empty send -30 7 0 10 -262144
-1 -1;
#X floatatom 2729 307 5 0 0 0 - - -;
#X floatatom 2713 374 5 0 0 0 send_prog12 - send_prog12;
#X floatatom 2874 227 5 0 0 0 receive_prog13 prog13 -;
#X obj 2868 279 f;
#X obj 2845 258 bng 15 250 50 0 empty empty write -35 7 0 10 -262144
-1 -1;
#X obj 2851 348 f;
#X obj 2850 326 bng 15 250 50 0 empty empty send -30 7 0 10 -262144
-1 -1;
#X floatatom 2869 307 5 0 0 0 - - -;
#X floatatom 2853 374 5 0 0 0 send_prog13 - send_prog13;
#X floatatom 3014 227 5 0 0 0 receive_prog14 prog14 -;
#X obj 3008 279 f;
#X obj 2985 258 bng 15 250 50 0 empty empty write -35 7 0 10 -262144
-1 -1;
#X obj 2991 348 f;
#X obj 2990 326 bng 15 250 50 0 empty empty send -30 7 0 10 -262144
-1 -1;
#X floatatom 3009 307 5 0 0 0 - - -;
#X floatatom 2993 374 5 0 0 0 send_prog14 - send_prog14;
#X floatatom 3144 227 5 0 0 0 receive_prog15 prog15 -;
#X obj 3138 279 f;
#X obj 3115 258 bng 15 250 50 0 empty empty write -35 7 0 10 -262144
-1 -1;
#X obj 3121 348 f;
#X obj 3120 326 bng 15 250 50 0 empty empty send -30 7 0 10 -262144
-1 -1;
#X floatatom 3139 307 5 0 0 0 - - -;
#X floatatom 3123 374 5 0 0 0 send_prog15 - send_prog15;
#X floatatom 3284 227 5 0 0 0 receive_prog16 prog16 -;
#X obj 3278 279 f;
#X obj 3255 258 bng 15 250 50 0 empty empty write -35 7 0 10 -262144
-1 -1;
#X obj 3261 348 f;
#X obj 3260 326 bng 15 250 50 0 empty empty send -30 7 0 10 -262144
-1 -1;
#X floatatom 3279 307 5 0 0 0 - - -;
#X floatatom 3263 374 5 0 0 0 send_prog16 - send_prog16;
#X floatatom 373 227 5 0 0 0 receive_progrXT progrXT -;
#X obj 367 279 f;
#X obj 344 258 bng 15 250 50 0 empty empty write -35 7 0 10 -262144
-1 -1;
#X obj 350 348 f;
#X obj 349 326 bng 15 250 50 0 empty empty send -30 7 0 10 -262144
-1 -1;
#X floatatom 368 307 5 0 0 0 - - -;
#X floatatom 352 374 5 0 0 0 send_progrXT - send_progrXT;
#X floatatom 563 227 5 0 0 0 receive_Trgr-progr Trgr-progr -;
#X obj 557 279 f;
#X obj 534 258 bng 15 250 50 0 empty empty write -35 7 0 10 -262144
-1 -1;
#X obj 540 348 f;
#X obj 539 326 bng 15 250 50 0 empty empty send -30 7 0 10 -262144
-1 -1;
#X floatatom 558 307 5 0 0 0 - - -;
#X floatatom 542 374 5 0 0 0 send_Trgr-progr - send_Trgr-progr;
#X floatatom 763 227 5 0 0 0 receive_send_progr-t progr-t -;
#X obj 757 279 f;
#X obj 734 258 bng 15 250 50 0 empty empty write -35 7 0 10 -262144
-1 -1;
#X obj 740 348 f;
#X obj 739 326 bng 15 250 50 0 empty empty send -30 7 0 10 -262144
-1 -1;
#X floatatom 758 307 5 0 0 0 - - -;
#X floatatom 742 374 5 0 0 0 send_progr-t - send_progr-t;
#X floatatom 1652 227 5 0 0 0 receive_prog4 prog4 -;
#X obj 1646 279 f;
#X obj 1623 258 bng 15 250 50 0 empty empty write -35 7 0 10 -262144
-1 -1;
#X obj 1629 348 f;
#X obj 1628 326 bng 15 250 50 0 empty empty send -30 7 0 10 -262144
-1 -1;
#X floatatom 1647 307 5 0 0 0 - - -;
#X floatatom 1631 374 5 0 0 0 send_prog4 - send_prog4;
#X floatatom 1792 227 5 0 0 0 receive_prog5 prog5 -;
#X obj 1786 279 f;
#X obj 1763 258 bng 15 250 50 0 empty empty write -35 7 0 10 -262144
-1 -1;
#X obj 1769 348 f;
#X obj 1768 326 bng 15 250 50 0 empty empty send -30 7 0 10 -262144
-1 -1;
#X floatatom 1787 307 5 0 0 0 - - -;
#X floatatom 1771 374 5 0 0 0 send_prog5 - send_prog5;
#X floatatom 963 407 5 0 0 0 receive_progr_progr_ progr_progr_ -;
#X obj 957 459 f;
#X obj 924 438 bng 15 250 50 0 empty empty write -35 7 0 10 -262144
-1 -1;
#X obj 940 528 f;
#X obj 929 506 bng 15 250 50 0 empty empty send -30 7 0 10 -262144
-1 -1;
#X floatatom 958 487 5 0 0 0 - - -;
#X floatatom 942 554 5 0 0 0 send_progr_progr_ - send_progr_progr_
;
#X obj 1103 459 f;
#X obj 1080 438 bng 15 250 50 0 empty empty write -35 7 0 10 -262144
-1 -1;
#X obj 1086 528 f;
#X obj 1085 506 bng 15 250 50 0 empty empty send -30 7 0 10 -262144
-1 -1;
#X floatatom 1104 487 5 0 0 0 - - -;
#X floatatom 1253 407 5 0 0 0 receive_prog1 prog1 -;
#X obj 1247 459 f;
#X obj 1224 438 bng 15 250 50 0 empty empty write -35 7 0 10 -262144
-1 -1;
#X obj 1230 528 f;
#X obj 1229 506 bng 15 250 50 0 empty empty send -30 7 0 10 -262144
-1 -1;
#X floatatom 1248 487 5 0 0 0 - - -;
#X floatatom 1232 554 5 0 0 0 send_prog1 - send_prog1;
#X floatatom 1393 407 5 0 0 0 receive_prog2 prog2 -;
#X obj 1387 459 f;
#X obj 1364 438 bng 15 250 50 0 empty empty write -35 7 0 10 -262144
-1 -1;
#X obj 1370 528 f;
#X obj 1369 506 bng 15 250 50 0 empty empty send -30 7 0 10 -262144
-1 -1;
#X floatatom 1388 487 5 0 0 0 - - -;
#X floatatom 1372 554 5 0 0 0 send_prog2 - send_prog2;
#X floatatom 1533 407 5 0 0 0 receive_prog3 prog3 -;
#X obj 1527 459 f;
#X obj 1504 438 bng 15 250 50 0 empty empty write -35 7 0 10 -262144
-1 -1;
#X obj 1510 528 f;
#X obj 1509 506 bng 15 250 50 0 empty empty send -30 7 0 10 -262144
-1 -1;
#X floatatom 1528 487 5 0 0 0 - - -;
#X floatatom 1512 554 5 0 0 0 send_prog3 - send_prog3;
#X floatatom 1913 407 5 0 0 0 receive_prog6 prog6 -;
#X obj 1907 459 f;
#X obj 1884 438 bng 15 250 50 0 empty empty write -35 7 0 10 -262144
-1 -1;
#X obj 1890 528 f;
#X obj 1889 506 bng 15 250 50 0 empty empty send -30 7 0 10 -262144
-1 -1;
#X floatatom 1908 487 5 0 0 0 - - -;
#X floatatom 1892 554 5 0 0 0 send_prog6 - send_prog6;
#X floatatom 2043 407 5 0 0 0 receive_prog7 prog7 -;
#X obj 2037 459 f;
#X obj 2014 438 bng 15 250 50 0 empty empty write -35 7 0 10 -262144
-1 -1;
#X obj 2020 528 f;
#X obj 2019 506 bng 15 250 50 0 empty empty send -30 7 0 10 -262144
-1 -1;
#X floatatom 2038 487 5 0 0 0 - - -;
#X floatatom 2022 554 5 0 0 0 send_prog7 - send_prog7;
#X floatatom 2183 407 5 0 0 0 receive_prog8 prog8 -;
#X obj 2177 459 f;
#X obj 2154 438 bng 15 250 50 0 empty empty write -35 7 0 10 -262144
-1 -1;
#X obj 2160 528 f;
#X obj 2159 506 bng 15 250 50 0 empty empty send -30 7 0 10 -262144
-1 -1;
#X floatatom 2178 487 5 0 0 0 - - -;
#X floatatom 2162 554 5 0 0 0 send_prog8 - send_prog8;
#X floatatom 2324 407 5 0 0 0 receive_prog9 prog9 -;
#X obj 2318 459 f;
#X obj 2295 438 bng 15 250 50 0 empty empty write -35 7 0 10 -262144
-1 -1;
#X obj 2301 528 f;
#X obj 2300 506 bng 15 250 50 0 empty empty send -30 7 0 10 -262144
-1 -1;
#X floatatom 2319 487 5 0 0 0 - - -;
#X floatatom 2303 554 5 0 0 0 send_prog9 - send_prog9;
#X floatatom 2464 407 5 0 0 0 receive_prog10 prog10 -;
#X obj 2458 459 f;
#X obj 2435 438 bng 15 250 50 0 empty empty write -35 7 0 10 -262144
-1 -1;
#X obj 2441 528 f;
#X obj 2440 506 bng 15 250 50 0 empty empty send -30 7 0 10 -262144
-1 -1;
#X floatatom 2459 487 5 0 0 0 - - -;
#X floatatom 2443 554 5 0 0 0 send_prog10 - send_prog10;
#X floatatom 2594 407 5 0 0 0 receive_prog11 prog11 -;
#X obj 2588 459 f;
#X obj 2565 438 bng 15 250 50 0 empty empty write -35 7 0 10 -262144
-1 -1;
#X obj 2571 528 f;
#X obj 2570 506 bng 15 250 50 0 empty empty send -30 7 0 10 -262144
-1 -1;
#X floatatom 2589 487 5 0 0 0 - - -;
#X floatatom 2573 554 5 0 0 0 send_prog11 - send_prog11;
#X floatatom 2734 407 5 0 0 0 receive_prog12 prog12 -;
#X obj 2728 459 f;
#X obj 2705 438 bng 15 250 50 0 empty empty write -35 7 0 10 -262144
-1 -1;
#X obj 2711 528 f;
#X obj 2710 506 bng 15 250 50 0 empty empty send -30 7 0 10 -262144
-1 -1;
#X floatatom 2729 487 5 0 0 0 - - -;
#X floatatom 2713 554 5 0 0 0 send_prog12 - send_prog12;
#X floatatom 2874 407 5 0 0 0 receive_prog13 prog13 -;
#X obj 2868 459 f;
#X obj 2845 438 bng 15 250 50 0 empty empty write -35 7 0 10 -262144
-1 -1;
#X obj 2851 528 f;
#X obj 2850 506 bng 15 250 50 0 empty empty send -30 7 0 10 -262144
-1 -1;
#X floatatom 2869 487 5 0 0 0 - - -;
#X floatatom 2853 554 5 0 0 0 send_prog13 - send_prog13;
#X floatatom 3014 407 5 0 0 0 receive_prog14 prog14 -;
#X obj 3008 459 f;
#X obj 2985 438 bng 15 250 50 0 empty empty write -35 7 0 10 -262144
-1 -1;
#X obj 2991 528 f;
#X obj 2990 506 bng 15 250 50 0 empty empty send -30 7 0 10 -262144
-1 -1;
#X floatatom 3009 487 5 0 0 0 - - -;
#X floatatom 2993 554 5 0 0 0 send_prog14 - send_prog14;
#X floatatom 3144 407 5 0 0 0 receive_prog15 prog15 -;
#X obj 3138 459 f;
#X obj 3115 438 bng 15 250 50 0 empty empty write -35 7 0 10 -262144
-1 -1;
#X obj 3121 528 f;
#X obj 3120 506 bng 15 250 50 0 empty empty send -30 7 0 10 -262144
-1 -1;
#X floatatom 3139 487 5 0 0 0 - - -;
#X floatatom 3123 554 5 0 0 0 send_prog15 - send_prog15;
#X floatatom 3284 407 5 0 0 0 receive_prog16 prog16 -;
#X obj 3278 459 f;
#X obj 3255 438 bng 15 250 50 0 empty empty write -35 7 0 10 -262144
-1 -1;
#X obj 3261 528 f;
#X obj 3260 506 bng 15 250 50 0 empty empty send -30 7 0 10 -262144
-1 -1;
#X floatatom 3279 487 5 0 0 0 - - -;
#X floatatom 3263 554 5 0 0 0 send_prog16 - send_prog16;
#X floatatom 373 407 5 0 0 0 receive_progrXT progrXT -;
#X obj 367 459 f;
#X obj 344 438 bng 15 250 50 0 empty empty write -35 7 0 10 -262144
-1 -1;
#X obj 350 528 f;
#X obj 349 506 bng 15 250 50 0 empty empty send -30 7 0 10 -262144
-1 -1;
#X floatatom 368 487 5 0 0 0 - - -;
#X floatatom 352 554 5 0 0 0 send_progrXT - send_progrXT;
#X floatatom 563 407 5 0 0 0 receive_Trgr-progr Trgr-progr -;
#X obj 557 459 f;
#X obj 534 438 bng 15 250 50 0 empty empty write -35 7 0 10 -262144
-1 -1;
#X obj 540 528 f;
#X obj 539 506 bng 15 250 50 0 empty empty send -30 7 0 10 -262144
-1 -1;
#X floatatom 558 487 5 0 0 0 - - -;
#X floatatom 542 554 5 0 0 0 send_Trgr-progr - send_Trgr-progr;
#X floatatom 763 407 5 0 0 0 receive_send_progr-t progr-t -;
#X obj 757 459 f;
#X obj 734 438 bng 15 250 50 0 empty empty write -35 7 0 10 -262144
-1 -1;
#X obj 740 528 f;
#X obj 739 506 bng 15 250 50 0 empty empty send -30 7 0 10 -262144
-1 -1;
#X floatatom 758 487 5 0 0 0 - - -;
#X floatatom 742 554 5 0 0 0 send_progr-t - send_progr-t;
#X floatatom 1652 407 5 0 0 0 receive_prog4 prog4 -;
#X obj 1646 459 f;
#X obj 1623 438 bng 15 250 50 0 empty empty write -35 7 0 10 -262144
-1 -1;
#X obj 1629 528 f;
#X obj 1628 506 bng 15 250 50 0 empty empty send -30 7 0 10 -262144
-1 -1;
#X floatatom 1647 487 5 0 0 0 - - -;
#X floatatom 1631 554 5 0 0 0 send_prog4 - send_prog4;
#X floatatom 1792 407 5 0 0 0 receive_prog5 prog5 -;
#X obj 1786 459 f;
#X obj 1763 438 bng 15 250 50 0 empty empty write -35 7 0 10 -262144
-1 -1;
#X obj 1769 528 f;
#X obj 1768 506 bng 15 250 50 0 empty empty send -30 7 0 10 -262144
-1 -1;
#X floatatom 1787 487 5 0 0 0 - - -;
#X floatatom 1771 554 5 0 0 0 send_prog5 - send_prog5;
#X floatatom 963 607 5 0 0 0 receive_progr_progr_ progr_progr_ -;
#X obj 957 659 f;
#X obj 924 638 bng 15 250 50 0 empty empty write -35 7 0 10 -262144
-1 -1;
#X obj 940 728 f;
#X obj 929 706 bng 15 250 50 0 empty empty send -30 7 0 10 -262144
-1 -1;
#X floatatom 958 687 5 0 0 0 - - -;
#X floatatom 942 754 5 0 0 0 send_progr_progr_ - send_progr_progr_
;
#X obj 1103 659 f;
#X obj 1080 638 bng 15 250 50 0 empty empty write -35 7 0 10 -262144
-1 -1;
#X obj 1086 728 f;
#X obj 1085 706 bng 15 250 50 0 empty empty send -30 7 0 10 -262144
-1 -1;
#X floatatom 1104 687 5 0 0 0 - - -;
#X floatatom 1253 607 5 0 0 0 receive_prog1 prog1 -;
#X obj 1247 659 f;
#X obj 1224 638 bng 15 250 50 0 empty empty write -35 7 0 10 -262144
-1 -1;
#X obj 1230 728 f;
#X obj 1229 706 bng 15 250 50 0 empty empty send -30 7 0 10 -262144
-1 -1;
#X floatatom 1248 687 5 0 0 0 - - -;
#X floatatom 1232 754 5 0 0 0 send_prog1 - send_prog1;
#X floatatom 1393 607 5 0 0 0 receive_prog2 prog2 -;
#X obj 1387 659 f;
#X obj 1364 638 bng 15 250 50 0 empty empty write -35 7 0 10 -262144
-1 -1;
#X obj 1370 728 f;
#X obj 1369 706 bng 15 250 50 0 empty empty send -30 7 0 10 -262144
-1 -1;
#X floatatom 1388 687 5 0 0 0 - - -;
#X floatatom 1372 754 5 0 0 0 send_prog2 - send_prog2;
#X floatatom 1533 607 5 0 0 0 receive_prog3 prog3 -;
#X obj 1527 659 f;
#X obj 1504 638 bng 15 250 50 0 empty empty write -35 7 0 10 -262144
-1 -1;
#X obj 1510 728 f;
#X obj 1509 706 bng 15 250 50 0 empty empty send -30 7 0 10 -262144
-1 -1;
#X floatatom 1528 687 5 0 0 0 - - -;
#X floatatom 1512 754 5 0 0 0 send_prog3 - send_prog3;
#X floatatom 1913 607 5 0 0 0 receive_prog6 prog6 -;
#X obj 1907 659 f;
#X obj 1884 638 bng 15 250 50 0 empty empty write -35 7 0 10 -262144
-1 -1;
#X obj 1890 728 f;
#X obj 1889 706 bng 15 250 50 0 empty empty send -30 7 0 10 -262144
-1 -1;
#X floatatom 1908 687 5 0 0 0 - - -;
#X floatatom 1892 754 5 0 0 0 send_prog6 - send_prog6;
#X floatatom 2043 607 5 0 0 0 receive_prog7 prog7 -;
#X obj 2037 659 f;
#X obj 2014 638 bng 15 250 50 0 empty empty write -35 7 0 10 -262144
-1 -1;
#X obj 2020 728 f;
#X obj 2019 706 bng 15 250 50 0 empty empty send -30 7 0 10 -262144
-1 -1;
#X floatatom 2038 687 5 0 0 0 - - -;
#X floatatom 2022 754 5 0 0 0 send_prog7 - send_prog7;
#X floatatom 2183 607 5 0 0 0 receive_prog8 prog8 -;
#X obj 2177 659 f;
#X obj 2154 638 bng 15 250 50 0 empty empty write -35 7 0 10 -262144
-1 -1;
#X obj 2160 728 f;
#X obj 2159 706 bng 15 250 50 0 empty empty send -30 7 0 10 -262144
-1 -1;
#X floatatom 2178 687 5 0 0 0 - - -;
#X floatatom 2162 754 5 0 0 0 send_prog8 - send_prog8;
#X floatatom 2324 607 5 0 0 0 receive_prog9 prog9 -;
#X obj 2318 659 f;
#X obj 2295 638 bng 15 250 50 0 empty empty write -35 7 0 10 -262144
-1 -1;
#X obj 2301 728 f;
#X obj 2300 706 bng 15 250 50 0 empty empty send -30 7 0 10 -262144
-1 -1;
#X floatatom 2319 687 5 0 0 0 - - -;
#X floatatom 2303 754 5 0 0 0 send_prog9 - send_prog9;
#X floatatom 2464 607 5 0 0 0 receive_prog10 prog10 -;
#X obj 2458 659 f;
#X obj 2435 638 bng 15 250 50 0 empty empty write -35 7 0 10 -262144
-1 -1;
#X obj 2441 728 f;
#X obj 2440 706 bng 15 250 50 0 empty empty send -30 7 0 10 -262144
-1 -1;
#X floatatom 2459 687 5 0 0 0 - - -;
#X floatatom 2443 754 5 0 0 0 send_prog10 - send_prog10;
#X floatatom 2594 607 5 0 0 0 receive_prog11 prog11 -;
#X obj 2588 659 f;
#X obj 2565 638 bng 15 250 50 0 empty empty write -35 7 0 10 -262144
-1 -1;
#X obj 2571 728 f;
#X obj 2570 706 bng 15 250 50 0 empty empty send -30 7 0 10 -262144
-1 -1;
#X floatatom 2589 687 5 0 0 0 - - -;
#X floatatom 2573 754 5 0 0 0 send_prog11 - send_prog11;
#X floatatom 2734 607 5 0 0 0 receive_prog12 prog12 -;
#X obj 2728 659 f;
#X obj 2705 638 bng 15 250 50 0 empty empty write -35 7 0 10 -262144
-1 -1;
#X obj 2711 728 f;
#X obj 2710 706 bng 15 250 50 0 empty empty send -30 7 0 10 -262144
-1 -1;
#X floatatom 2729 687 5 0 0 0 - - -;
#X floatatom 2713 754 5 0 0 0 send_prog12 - send_prog12;
#X floatatom 2874 607 5 0 0 0 receive_prog13 prog13 -;
#X obj 2868 659 f;
#X obj 2845 638 bng 15 250 50 0 empty empty write -35 7 0 10 -262144
-1 -1;
#X obj 2851 728 f;
#X obj 2850 706 bng 15 250 50 0 empty empty send -30 7 0 10 -262144
-1 -1;
#X floatatom 2869 687 5 0 0 0 - - -;
#X floatatom 2853 754 5 0 0 0 send_prog13 - send_prog13;
#X floatatom 3014 607 5 0 0 0 receive_prog14 prog14 -;
#X obj 3008 659 f;
#X obj 2985 638 bng 15 250 50 0 empty empty write -35 7 0 10 -262144
-1 -1;
#X obj 2991 728 f;
#X obj 2990 706 bng 15 250 50 0 empty empty send -30 7 0 10 -262144
-1 -1;
#X floatatom 3009 687 5 0 0 0 - - -;
#X floatatom 2993 754 5 0 0 0 send_prog14 - send_prog14;
#X floatatom 3144 607 5 0 0 0 receive_prog15 prog15 -;
#X obj 3138 659 f;
#X obj 3115 638 bng 15 250 50 0 empty empty write -35 7 0 10 -262144
-1 -1;
#X obj 3121 728 f;
#X obj 3120 706 bng 15 250 50 0 empty empty send -30 7 0 10 -262144
-1 -1;
#X floatatom 3139 687 5 0 0 0 - - -;
#X floatatom 3123 754 5 0 0 0 send_prog15 - send_prog15;
#X floatatom 3284 607 5 0 0 0 receive_prog16 prog16 -;
#X obj 3278 659 f;
#X obj 3255 638 bng 15 250 50 0 empty empty write -35 7 0 10 -262144
-1 -1;
#X obj 3261 728 f;
#X obj 3260 706 bng 15 250 50 0 empty empty send -30 7 0 10 -262144
-1 -1;
#X floatatom 3279 687 5 0 0 0 - - -;
#X floatatom 3263 754 5 0 0 0 send_prog16 - send_prog16;
#X floatatom 373 607 5 0 0 0 receive_progrXT progrXT -;
#X obj 367 659 f;
#X obj 344 638 bng 15 250 50 0 empty empty write -35 7 0 10 -262144
-1 -1;
#X obj 350 728 f;
#X obj 349 706 bng 15 250 50 0 empty empty send -30 7 0 10 -262144
-1 -1;
#X floatatom 368 687 5 0 0 0 - - -;
#X floatatom 352 754 5 0 0 0 send_progrXT - send_progrXT;
#X floatatom 563 607 5 0 0 0 receive_Trgr-progr Trgr-progr -;
#X obj 557 659 f;
#X obj 534 638 bng 15 250 50 0 empty empty write -35 7 0 10 -262144
-1 -1;
#X obj 540 728 f;
#X obj 539 706 bng 15 250 50 0 empty empty send -30 7 0 10 -262144
-1 -1;
#X floatatom 558 687 5 0 0 0 - - -;
#X floatatom 542 754 5 0 0 0 send_Trgr-progr - send_Trgr-progr;
#X floatatom 763 607 5 0 0 0 receive_send_progr-t progr-t -;
#X obj 757 659 f;
#X obj 734 638 bng 15 250 50 0 empty empty write -35 7 0 10 -262144
-1 -1;
#X obj 740 728 f;
#X obj 739 706 bng 15 250 50 0 empty empty send -30 7 0 10 -262144
-1 -1;
#X floatatom 758 687 5 0 0 0 - - -;
#X floatatom 742 754 5 0 0 0 send_progr-t - send_progr-t;
#X floatatom 1652 607 5 0 0 0 receive_prog4 prog4 -;
#X obj 1646 659 f;
#X obj 1623 638 bng 15 250 50 0 empty empty write -35 7 0 10 -262144
-1 -1;
#X obj 1629 728 f;
#X obj 1628 706 bng 15 250 50 0 empty empty send -30 7 0 10 -262144
-1 -1;
#X floatatom 1647 687 5 0 0 0 - - -;
#X floatatom 1631 754 5 0 0 0 send_prog4 - send_prog4;
#X floatatom 1792 607 5 0 0 0 receive_prog5 prog5 -;
#X obj 1786 659 f;
#X obj 1763 638 bng 15 250 50 0 empty empty write -35 7 0 10 -262144
-1 -1;
#X obj 1769 728 f;
#X obj 1768 706 bng 15 250 50 0 empty empty send -30 7 0 10 -262144
-1 -1;
#X floatatom 1787 687 5 0 0 0 - - -;
#X floatatom 1771 754 5 0 0 0 send_prog5 - send_prog5;
#X obj 102 102 hradio 18 1 0 4 empty empty empty 8 -10 0 10 -99865
-262144 -262144 0;
#X obj 176 102 hradio 18 1 0 4 empty empty empty 1 -10 0 10 -128992
-1 -262144 0;
#X floatatom 943 86 5 0 0 0 - - -;
#X floatatom 1089 86 5 0 0 0 - - -;
#X floatatom 1235 86 5 0 0 0 - - -;
#X floatatom 1375 86 5 0 0 0 - - -;
#X floatatom 1515 86 5 0 0 0 - - -;
#X floatatom 1885 86 5 0 0 0 - - -;
#X floatatom 2015 86 5 0 0 0 - - -;
#X floatatom 2155 86 5 0 0 0 - - -;
#X floatatom 2306 86 5 0 0 0 - - -;
#X floatatom 2446 86 5 0 0 0 - - -;
#X floatatom 2576 86 5 0 0 0 - - -;
#X floatatom 2716 86 5 0 0 0 - - -;
#X floatatom 2856 86 5 0 0 0 - - -;
#X floatatom 2996 86 5 0 0 0 - - -;
#X floatatom 3126 86 5 0 0 0 - - -;
#X floatatom 3266 86 5 0 0 0 - - -;
#X floatatom 553 88 5 0 0 0 - - -;
#X floatatom 755 86 5 0 0 0 - - -;
#X floatatom 1634 86 5 0 0 0 - - -;
#X floatatom 1764 86 5 0 0 0 - - -;
#X floatatom 370 86 5 0 0 0 - - -;
#X floatatom 415 73 5 0 0 0 W.progrXT_A W.progrXT_A -;
#X floatatom 416 101 5 0 0 0 S.progrXT_A - S.progrXT_A;
#X floatatom 613 73 5 0 0 0 W.Trgr-progr_A W.Trgr-progr_A -;
#X floatatom 612 101 5 0 0 0 S.Trgr-progr_A - S.Trgr-progr_A;
#X floatatom 794 73 5 0 0 0 W.progprogrtA W.progprogrtA -;
#X floatatom 793 101 5 0 0 0 S.progprogrtA - S.progprogrtA;
#X floatatom 1018 73 5 0 0 0 W.progr_progr_A W.progr_progr_A -;
#X floatatom 1017 101 5 0 0 0 S.progr_progr_A - S.progr_progr_A;
#X floatatom 1148 73 5 0 0 0 W.progrstepA W.progrstepA -;
#X floatatom 1147 101 5 0 0 0 S.progrstepA - S.progrstepA;
#X floatatom 1288 73 5 0 0 0 W.progA1 W.progA1 -;
#X floatatom 1287 101 5 0 0 0 S.progA1 - S.progA1;
#X floatatom 1428 73 5 0 0 0 W.progA2 W.progA2 -;
#X floatatom 1427 101 5 0 0 0 S.progA2 - S.progA2;
#X floatatom 1559 73 5 0 0 0 W.progA3 W.progA3 -;
#X floatatom 1558 101 5 0 0 0 S.progA3 - S.progA3;
#X floatatom 1687 73 5 0 0 0 W.progA4 W.progA4 -;
#X floatatom 1686 101 5 0 0 0 S.progA4 - S.progA4;
#X floatatom 1818 73 5 0 0 0 W.progA5 W.progA5 -;
#X floatatom 1817 101 5 0 0 0 S.progA5 - S.progA5;
#X floatatom 1947 73 5 0 0 0 W.progA6 W.progA6 -;
#X floatatom 1946 101 5 0 0 0 S.progA6 - S.progA6;
#X floatatom 2077 73 5 0 0 0 W.progA7 W.progA7 -;
#X floatatom 2076 101 5 0 0 0 S.progA7 - S.progA7;
#X floatatom 2206 73 5 0 0 0 W.progA8 W.progA8 -;
#X floatatom 2205 101 5 0 0 0 S.progA8 - S.progA8;
#X floatatom 2364 73 5 0 0 0 W.progA9 W.progA9 -;
#X floatatom 2363 102 5 0 0 0 S.progA9 - S.progA9;
#X floatatom 2502 73 5 0 0 0 W.progA10 W.progA10 -;
#X floatatom 2501 101 5 0 0 0 S.progA10 - S.progA10;
#X floatatom 2647 73 5 0 0 0 W.progA11 W.progA11 -;
#X floatatom 2646 101 5 0 0 0 S.progA11 - S.progA11;
#X floatatom 2767 73 5 0 0 0 W.progA12 W.progA12 -;
#X floatatom 2767 101 5 0 0 0 S.progA12 - S.progA12;
#X floatatom 2901 73 5 0 0 0 W.progA13 W.progA13 -;
#X floatatom 2900 101 5 0 0 0 S.progA13 - S.progA13;
#X floatatom 3041 73 5 0 0 0 W.progA14 W.progA14 -;
#X floatatom 3040 101 5 0 0 0 S.progA14 - S.progA14;
#X floatatom 3172 73 5 0 0 0 W.progA15 W.progA15 -;
#X floatatom 3171 101 5 0 0 0 S.progA15 - S.progA15;
#X floatatom 3321 73 5 0 0 0 W.progA16 W.progA16 -;
#X floatatom 3320 101 5 0 0 0 S.progA16 - S.progA16;
#X floatatom 1117 222 5 0 0 0 receive_progr_step progr_step -;
#X floatatom 1082 398 5 0 0 0 send_progr_step - send_progr_step;
#X floatatom 1133 409 5 0 0 0 receive_progr_step progr_step -;
#X floatatom 1098 585 5 0 0 0 send_progr_step - send_progr_step;
#X floatatom 1120 604 5 0 0 0 receive_progr_step progr_step -;
#X floatatom 1087 757 5 0 0 0 send_progr_step - send_progr_step;
#X connect 0 0 100 0;
#X connect 0 1 242 0;
#X connect 0 2 387 0;
#X connect 0 3 532 0;
#X connect 1 0 102 0;
#X connect 1 1 244 0;
#X connect 1 2 389 0;
#X connect 1 3 534 0;
#X connect 2 0 3 1;
#X connect 3 0 567 0;
#X connect 4 0 3 0;
#X connect 4 0 10 0;
#X connect 5 0 7 0;
#X connect 6 0 5 0;
#X connect 6 0 12 0;
#X connect 8 0 9 1;
#X connect 9 0 568 0;
#X connect 10 0 9 0;
#X connect 10 0 16 0;
#X connect 11 0 13 0;
#X connect 12 0 11 0;
#X connect 12 0 18 0;
#X connect 14 0 15 1;
#X connect 15 0 569 0;
#X connect 16 0 15 0;
#X connect 16 0 22 0;
#X connect 17 0 19 0;
#X connect 18 0 17 0;
#X connect 18 0 24 0;
#X connect 20 0 21 1;
#X connect 21 0 570 0;
#X connect 22 0 21 0;
#X connect 22 0 28 0;
#X connect 23 0 25 0;
#X connect 24 0 23 0;
#X connect 24 0 30 0;
#X connect 26 0 27 1;
#X connect 27 0 571 0;
#X connect 28 0 27 0;
#X connect 28 0 120 0;
#X connect 29 0 31 0;
#X connect 30 0 29 0;
#X connect 30 0 122 0;
#X connect 32 0 33 1;
#X connect 33 0 572 0;
#X connect 34 0 33 0;
#X connect 34 0 40 0;
#X connect 35 0 37 0;
#X connect 36 0 35 0;
#X connect 36 0 42 0;
#X connect 38 0 39 1;
#X connect 39 0 573 0;
#X connect 40 0 39 0;
#X connect 40 0 46 0;
#X connect 41 0 43 0;
#X connect 42 0 41 0;
#X connect 42 0 48 0;
#X connect 44 0 45 1;
#X connect 45 0 574 0;
#X connect 46 0 45 0;
#X connect 46 0 52 0;
#X connect 47 0 49 0;
#X connect 48 0 47 0;
#X connect 48 0 54 0;
#X connect 50 0 51 1;
#X connect 51 0 575 0;
#X connect 52 0 51 0;
#X connect 52 0 58 0;
#X connect 53 0 55 0;
#X connect 54 0 53 0;
#X connect 54 0 60 0;
#X connect 56 0 57 1;
#X connect 57 0 576 0;
#X connect 58 0 57 0;
#X connect 58 0 64 0;
#X connect 59 0 61 0;
#X connect 60 0 59 0;
#X connect 60 0 66 0;
#X connect 62 0 63 1;
#X connect 63 0 577 0;
#X connect 64 0 63 0;
#X connect 64 0 70 0;
#X connect 65 0 67 0;
#X connect 66 0 65 0;
#X connect 66 0 72 0;
#X connect 68 0 69 1;
#X connect 69 0 578 0;
#X connect 70 0 69 0;
#X connect 70 0 76 0;
#X connect 71 0 73 0;
#X connect 72 0 71 0;
#X connect 72 0 78 0;
#X connect 74 0 75 1;
#X connect 75 0 579 0;
#X connect 76 0 75 0;
#X connect 76 0 82 0;
#X connect 77 0 79 0;
#X connect 78 0 77 0;
#X connect 78 0 84 0;
#X connect 80 0 81 1;
#X connect 81 0 580 0;
#X connect 82 0 81 0;
#X connect 82 0 88 0;
#X connect 83 0 85 0;
#X connect 84 0 83 0;
#X connect 84 0 90 0;
#X connect 86 0 87 1;
#X connect 87 0 581 0;
#X connect 88 0 87 0;
#X connect 88 0 94 0;
#X connect 89 0 91 0;
#X connect 90 0 89 0;
#X connect 90 0 96 0;
#X connect 92 0 93 1;
#X connect 93 0 582 0;
#X connect 94 0 93 0;
#X connect 95 0 97 0;
#X connect 96 0 95 0;
#X connect 98 0 99 1;
#X connect 99 0 587 0;
#X connect 100 0 99 0;
#X connect 100 0 106 0;
#X connect 101 0 103 0;
#X connect 102 0 101 0;
#X connect 102 0 108 0;
#X connect 104 0 105 1;
#X connect 105 0 583 0;
#X connect 106 0 105 0;
#X connect 106 0 112 0;
#X connect 107 0 109 0;
#X connect 108 0 107 0;
#X connect 108 0 114 0;
#X connect 110 0 111 1;
#X connect 111 0 584 0;
#X connect 112 0 111 0;
#X connect 112 0 4 0;
#X connect 113 0 115 0;
#X connect 114 0 113 0;
#X connect 114 0 6 0;
#X connect 116 0 565 0;
#X connect 117 0 566 0;
#X connect 118 0 119 1;
#X connect 119 0 585 0;
#X connect 120 0 119 0;
#X connect 120 0 126 0;
#X connect 121 0 123 0;
#X connect 122 0 121 0;
#X connect 122 0 128 0;
#X connect 124 0 125 1;
#X connect 125 0 586 0;
#X connect 126 0 125 0;
#X connect 126 0 34 0;
#X connect 127 0 129 0;
#X connect 128 0 127 0;
#X connect 128 0 36 0;
#X connect 130 0 131 1;
#X connect 131 0 135 0;
#X connect 132 0 131 0;
#X connect 132 0 138 0;
#X connect 133 0 136 0;
#X connect 134 0 133 0;
#X connect 134 0 140 0;
#X connect 135 0 133 1;
#X connect 137 0 141 0;
#X connect 138 0 137 0;
#X connect 138 0 144 0;
#X connect 139 0 631 0;
#X connect 140 0 139 0;
#X connect 140 0 146 0;
#X connect 141 0 139 1;
#X connect 142 0 143 1;
#X connect 143 0 147 0;
#X connect 144 0 143 0;
#X connect 144 0 151 0;
#X connect 145 0 148 0;
#X connect 146 0 145 0;
#X connect 146 0 153 0;
#X connect 147 0 145 1;
#X connect 149 0 150 1;
#X connect 150 0 154 0;
#X connect 151 0 150 0;
#X connect 151 0 158 0;
#X connect 152 0 155 0;
#X connect 153 0 152 0;
#X connect 153 0 160 0;
#X connect 154 0 152 1;
#X connect 156 0 157 1;
#X connect 157 0 161 0;
#X connect 158 0 157 0;
#X connect 158 0 263 0;
#X connect 159 0 162 0;
#X connect 160 0 159 0;
#X connect 160 0 265 0;
#X connect 161 0 159 1;
#X connect 163 0 164 1;
#X connect 164 0 168 0;
#X connect 165 0 164 0;
#X connect 165 0 172 0;
#X connect 166 0 169 0;
#X connect 167 0 166 0;
#X connect 167 0 174 0;
#X connect 168 0 166 1;
#X connect 170 0 171 1;
#X connect 171 0 175 0;
#X connect 172 0 171 0;
#X connect 172 0 179 0;
#X connect 173 0 176 0;
#X connect 174 0 173 0;
#X connect 174 0 181 0;
#X connect 175 0 173 1;
#X connect 177 0 178 1;
#X connect 178 0 182 0;
#X connect 179 0 178 0;
#X connect 179 0 186 0;
#X connect 180 0 183 0;
#X connect 181 0 180 0;
#X connect 181 0 188 0;
#X connect 182 0 180 1;
#X connect 184 0 185 1;
#X connect 185 0 189 0;
#X connect 186 0 185 0;
#X connect 186 0 193 0;
#X connect 187 0 190 0;
#X connect 188 0 187 0;
#X connect 188 0 195 0;
#X connect 189 0 187 1;
#X connect 191 0 192 1;
#X connect 192 0 196 0;
#X connect 193 0 192 0;
#X connect 193 0 200 0;
#X connect 194 0 197 0;
#X connect 195 0 194 0;
#X connect 195 0 202 0;
#X connect 196 0 194 1;
#X connect 198 0 199 1;
#X connect 199 0 203 0;
#X connect 200 0 199 0;
#X connect 200 0 207 0;
#X connect 201 0 204 0;
#X connect 202 0 201 0;
#X connect 202 0 209 0;
#X connect 203 0 201 1;
#X connect 205 0 206 1;
#X connect 206 0 210 0;
#X connect 207 0 206 0;
#X connect 207 0 214 0;
#X connect 208 0 211 0;
#X connect 209 0 208 0;
#X connect 209 0 216 0;
#X connect 210 0 208 1;
#X connect 212 0 213 1;
#X connect 213 0 217 0;
#X connect 214 0 213 0;
#X connect 214 0 221 0;
#X connect 215 0 218 0;
#X connect 216 0 215 0;
#X connect 216 0 223 0;
#X connect 217 0 215 1;
#X connect 219 0 220 1;
#X connect 220 0 224 0;
#X connect 221 0 220 0;
#X connect 221 0 228 0;
#X connect 222 0 225 0;
#X connect 223 0 222 0;
#X connect 223 0 230 0;
#X connect 224 0 222 1;
#X connect 226 0 227 1;
#X connect 227 0 231 0;
#X connect 228 0 227 0;
#X connect 228 0 235 0;
#X connect 229 0 232 0;
#X connect 230 0 229 0;
#X connect 230 0 237 0;
#X connect 231 0 229 1;
#X connect 233 0 234 1;
#X connect 234 0 238 0;
#X connect 235 0 234 0;
#X connect 236 0 239 0;
#X connect 237 0 236 0;
#X connect 238 0 236 1;
#X connect 240 0 241 1;
#X connect 241 0 245 0;
#X connect 242 0 241 0;
#X connect 242 0 249 0;
#X connect 243 0 246 0;
#X connect 244 0 243 0;
#X connect 244 0 251 0;
#X connect 245 0 243 1;
#X connect 247 0 248 1;
#X connect 248 0 252 0;
#X connect 249 0 248 0;
#X connect 249 0 256 0;
#X connect 250 0 253 0;
#X connect 251 0 250 0;
#X connect 251 0 258 0;
#X connect 252 0 250 1;
#X connect 254 0 255 1;
#X connect 255 0 259 0;
#X connect 256 0 255 0;
#X connect 256 0 132 0;
#X connect 257 0 260 0;
#X connect 258 0 257 0;
#X connect 258 0 134 0;
#X connect 259 0 257 1;
#X connect 261 0 262 1;
#X connect 262 0 266 0;
#X connect 263 0 262 0;
#X connect 263 0 270 0;
#X connect 264 0 267 0;
#X connect 265 0 264 0;
#X connect 265 0 272 0;
#X connect 266 0 264 1;
#X connect 268 0 269 1;
#X connect 269 0 273 0;
#X connect 270 0 269 0;
#X connect 270 0 165 0;
#X connect 271 0 274 0;
#X connect 272 0 271 0;
#X connect 272 0 167 0;
#X connect 273 0 271 1;
#X connect 275 0 276 1;
#X connect 276 0 280 0;
#X connect 277 0 276 0;
#X connect 277 0 283 0;
#X connect 278 0 281 0;
#X connect 279 0 278 0;
#X connect 279 0 285 0;
#X connect 280 0 278 1;
#X connect 282 0 286 0;
#X connect 283 0 282 0;
#X connect 283 0 289 0;
#X connect 284 0 633 0;
#X connect 285 0 284 0;
#X connect 285 0 291 0;
#X connect 286 0 284 1;
#X connect 287 0 288 1;
#X connect 288 0 292 0;
#X connect 289 0 288 0;
#X connect 289 0 296 0;
#X connect 290 0 293 0;
#X connect 291 0 290 0;
#X connect 291 0 298 0;
#X connect 292 0 290 1;
#X connect 294 0 295 1;
#X connect 295 0 299 0;
#X connect 296 0 295 0;
#X connect 296 0 303 0;
#X connect 297 0 300 0;
#X connect 298 0 297 0;
#X connect 298 0 305 0;
#X connect 299 0 297 1;
#X connect 301 0 302 1;
#X connect 302 0 306 0;
#X connect 303 0 302 0;
#X connect 303 0 408 0;
#X connect 304 0 307 0;
#X connect 305 0 304 0;
#X connect 305 0 410 0;
#X connect 306 0 304 1;
#X connect 308 0 309 1;
#X connect 309 0 313 0;
#X connect 310 0 309 0;
#X connect 310 0 317 0;
#X connect 311 0 314 0;
#X connect 312 0 311 0;
#X connect 312 0 319 0;
#X connect 313 0 311 1;
#X connect 315 0 316 1;
#X connect 316 0 320 0;
#X connect 317 0 316 0;
#X connect 317 0 324 0;
#X connect 318 0 321 0;
#X connect 319 0 318 0;
#X connect 319 0 326 0;
#X connect 320 0 318 1;
#X connect 322 0 323 1;
#X connect 323 0 327 0;
#X connect 324 0 323 0;
#X connect 324 0 331 0;
#X connect 325 0 328 0;
#X connect 326 0 325 0;
#X connect 326 0 333 0;
#X connect 327 0 325 1;
#X connect 329 0 330 1;
#X connect 330 0 334 0;
#X connect 331 0 330 0;
#X connect 331 0 338 0;
#X connect 332 0 335 0;
#X connect 333 0 332 0;
#X connect 333 0 340 0;
#X connect 334 0 332 1;
#X connect 336 0 337 1;
#X connect 337 0 341 0;
#X connect 338 0 337 0;
#X connect 338 0 345 0;
#X connect 339 0 342 0;
#X connect 340 0 339 0;
#X connect 340 0 347 0;
#X connect 341 0 339 1;
#X connect 343 0 344 1;
#X connect 344 0 348 0;
#X connect 345 0 344 0;
#X connect 345 0 352 0;
#X connect 346 0 349 0;
#X connect 347 0 346 0;
#X connect 347 0 354 0;
#X connect 348 0 346 1;
#X connect 350 0 351 1;
#X connect 351 0 355 0;
#X connect 352 0 351 0;
#X connect 352 0 359 0;
#X connect 353 0 356 0;
#X connect 354 0 353 0;
#X connect 354 0 361 0;
#X connect 355 0 353 1;
#X connect 357 0 358 1;
#X connect 358 0 362 0;
#X connect 359 0 358 0;
#X connect 359 0 366 0;
#X connect 360 0 363 0;
#X connect 361 0 360 0;
#X connect 361 0 368 0;
#X connect 362 0 360 1;
#X connect 364 0 365 1;
#X connect 365 0 369 0;
#X connect 366 0 365 0;
#X connect 366 0 373 0;
#X connect 367 0 370 0;
#X connect 368 0 367 0;
#X connect 368 0 375 0;
#X connect 369 0 367 1;
#X connect 371 0 372 1;
#X connect 372 0 376 0;
#X connect 373 0 372 0;
#X connect 373 0 380 0;
#X connect 374 0 377 0;
#X connect 375 0 374 0;
#X connect 375 0 382 0;
#X connect 376 0 374 1;
#X connect 378 0 379 1;
#X connect 379 0 383 0;
#X connect 380 0 379 0;
#X connect 381 0 384 0;
#X connect 382 0 381 0;
#X connect 383 0 381 1;
#X connect 385 0 386 1;
#X connect 386 0 390 0;
#X connect 387 0 386 0;
#X connect 387 0 394 0;
#X connect 388 0 391 0;
#X connect 389 0 388 0;
#X connect 389 0 396 0;
#X connect 390 0 388 1;
#X connect 392 0 393 1;
#X connect 393 0 397 0;
#X connect 394 0 393 0;
#X connect 394 0 401 0;
#X connect 395 0 398 0;
#X connect 396 0 395 0;
#X connect 396 0 403 0;
#X connect 397 0 395 1;
#X connect 399 0 400 1;
#X connect 400 0 404 0;
#X connect 401 0 400 0;
#X connect 401 0 277 0;
#X connect 402 0 405 0;
#X connect 403 0 402 0;
#X connect 403 0 279 0;
#X connect 404 0 402 1;
#X connect 406 0 407 1;
#X connect 407 0 411 0;
#X connect 408 0 407 0;
#X connect 408 0 415 0;
#X connect 409 0 412 0;
#X connect 410 0 409 0;
#X connect 410 0 417 0;
#X connect 411 0 409 1;
#X connect 413 0 414 1;
#X connect 414 0 418 0;
#X connect 415 0 414 0;
#X connect 415 0 310 0;
#X connect 416 0 419 0;
#X connect 417 0 416 0;
#X connect 417 0 312 0;
#X connect 418 0 416 1;
#X connect 420 0 421 1;
#X connect 421 0 425 0;
#X connect 422 0 421 0;
#X connect 422 0 428 0;
#X connect 423 0 426 0;
#X connect 424 0 423 0;
#X connect 424 0 430 0;
#X connect 425 0 423 1;
#X connect 427 0 431 0;
#X connect 428 0 427 0;
#X connect 428 0 434 0;
#X connect 429 0 635 0;
#X connect 430 0 429 0;
#X connect 430 0 436 0;
#X connect 431 0 429 1;
#X connect 432 0 433 1;
#X connect 433 0 437 0;
#X connect 434 0 433 0;
#X connect 434 0 441 0;
#X connect 435 0 438 0;
#X connect 436 0 435 0;
#X connect 436 0 443 0;
#X connect 437 0 435 1;
#X connect 439 0 440 1;
#X connect 440 0 444 0;
#X connect 441 0 440 0;
#X connect 441 0 448 0;
#X connect 442 0 445 0;
#X connect 443 0 442 0;
#X connect 443 0 450 0;
#X connect 444 0 442 1;
#X connect 446 0 447 1;
#X connect 447 0 451 0;
#X connect 448 0 447 0;
#X connect 448 0 553 0;
#X connect 449 0 452 0;
#X connect 450 0 449 0;
#X connect 450 0 555 0;
#X connect 451 0 449 1;
#X connect 453 0 454 1;
#X connect 454 0 458 0;
#X connect 455 0 454 0;
#X connect 455 0 462 0;
#X connect 456 0 459 0;
#X connect 457 0 456 0;
#X connect 457 0 464 0;
#X connect 458 0 456 1;
#X connect 460 0 461 1;
#X connect 461 0 465 0;
#X connect 462 0 461 0;
#X connect 462 0 469 0;
#X connect 463 0 466 0;
#X connect 464 0 463 0;
#X connect 464 0 471 0;
#X connect 465 0 463 1;
#X connect 467 0 468 1;
#X connect 468 0 472 0;
#X connect 469 0 468 0;
#X connect 469 0 476 0;
#X connect 470 0 473 0;
#X connect 471 0 470 0;
#X connect 471 0 478 0;
#X connect 472 0 470 1;
#X connect 474 0 475 1;
#X connect 475 0 479 0;
#X connect 476 0 475 0;
#X connect 476 0 483 0;
#X connect 477 0 480 0;
#X connect 478 0 477 0;
#X connect 478 0 485 0;
#X connect 479 0 477 1;
#X connect 481 0 482 1;
#X connect 482 0 486 0;
#X connect 483 0 482 0;
#X connect 483 0 490 0;
#X connect 484 0 487 0;
#X connect 485 0 484 0;
#X connect 485 0 492 0;
#X connect 486 0 484 1;
#X connect 488 0 489 1;
#X connect 489 0 493 0;
#X connect 490 0 489 0;
#X connect 490 0 497 0;
#X connect 491 0 494 0;
#X connect 492 0 491 0;
#X connect 492 0 499 0;
#X connect 493 0 491 1;
#X connect 495 0 496 1;
#X connect 496 0 500 0;
#X connect 497 0 496 0;
#X connect 497 0 504 0;
#X connect 498 0 501 0;
#X connect 499 0 498 0;
#X connect 499 0 506 0;
#X connect 500 0 498 1;
#X connect 502 0 503 1;
#X connect 503 0 507 0;
#X connect 504 0 503 0;
#X connect 504 0 511 0;
#X connect 505 0 508 0;
#X connect 506 0 505 0;
#X connect 506 0 513 0;
#X connect 507 0 505 1;
#X connect 509 0 510 1;
#X connect 510 0 514 0;
#X connect 511 0 510 0;
#X connect 511 0 518 0;
#X connect 512 0 515 0;
#X connect 513 0 512 0;
#X connect 513 0 520 0;
#X connect 514 0 512 1;
#X connect 516 0 517 1;
#X connect 517 0 521 0;
#X connect 518 0 517 0;
#X connect 518 0 525 0;
#X connect 519 0 522 0;
#X connect 520 0 519 0;
#X connect 520 0 527 0;
#X connect 521 0 519 1;
#X connect 523 0 524 1;
#X connect 524 0 528 0;
#X connect 525 0 524 0;
#X connect 526 0 529 0;
#X connect 527 0 526 0;
#X connect 528 0 526 1;
#X connect 530 0 531 1;
#X connect 531 0 535 0;
#X connect 532 0 531 0;
#X connect 532 0 539 0;
#X connect 533 0 536 0;
#X connect 534 0 533 0;
#X connect 534 0 541 0;
#X connect 535 0 533 1;
#X connect 537 0 538 1;
#X connect 538 0 542 0;
#X connect 539 0 538 0;
#X connect 539 0 546 0;
#X connect 540 0 543 0;
#X connect 541 0 540 0;
#X connect 541 0 548 0;
#X connect 542 0 540 1;
#X connect 544 0 545 1;
#X connect 545 0 549 0;
#X connect 546 0 545 0;
#X connect 546 0 422 0;
#X connect 547 0 550 0;
#X connect 548 0 547 0;
#X connect 548 0 424 0;
#X connect 549 0 547 1;
#X connect 551 0 552 1;
#X connect 552 0 556 0;
#X connect 553 0 552 0;
#X connect 553 0 560 0;
#X connect 554 0 557 0;
#X connect 555 0 554 0;
#X connect 555 0 562 0;
#X connect 556 0 554 1;
#X connect 558 0 559 1;
#X connect 559 0 563 0;
#X connect 560 0 559 0;
#X connect 560 0 455 0;
#X connect 561 0 564 0;
#X connect 562 0 561 0;
#X connect 562 0 457 0;
#X connect 563 0 561 1;
#X connect 565 0 0 0;
#X connect 566 0 1 0;
#X connect 567 0 595 0;
#X connect 567 0 5 1;
#X connect 568 0 597 0;
#X connect 568 0 11 1;
#X connect 569 0 599 0;
#X connect 569 0 17 1;
#X connect 570 0 601 0;
#X connect 570 0 23 1;
#X connect 571 0 603 0;
#X connect 571 0 29 1;
#X connect 572 0 609 0;
#X connect 572 0 35 1;
#X connect 573 0 611 0;
#X connect 573 0 41 1;
#X connect 574 0 613 0;
#X connect 574 0 47 1;
#X connect 575 0 615 0;
#X connect 575 0 53 1;
#X connect 576 0 617 0;
#X connect 576 0 59 1;
#X connect 577 0 619 0;
#X connect 577 0 65 1;
#X connect 578 0 621 0;
#X connect 578 0 71 1;
#X connect 579 0 623 0;
#X connect 579 0 77 1;
#X connect 580 0 625 0;
#X connect 580 0 83 1;
#X connect 581 0 89 1;
#X connect 581 0 627 0;
#X connect 582 0 629 0;
#X connect 582 0 95 1;
#X connect 583 0 591 0;
#X connect 583 0 107 1;
#X connect 584 0 593 0;
#X connect 584 0 113 1;
#X connect 585 0 605 0;
#X connect 585 0 121 1;
#X connect 586 0 607 0;
#X connect 586 0 127 1;
#X connect 587 0 589 0;
#X connect 587 0 101 1;
#X connect 588 0 587 0;
#X connect 590 0 583 0;
#X connect 592 0 584 0;
#X connect 594 0 567 0;
#X connect 596 0 568 0;
#X connect 598 0 569 0;
#X connect 600 0 570 0;
#X connect 602 0 571 0;
#X connect 604 0 585 0;
#X connect 606 0 586 0;
#X connect 608 0 572 0;
#X connect 610 0 573 0;
#X connect 612 0 574 0;
#X connect 614 0 575 0;
#X connect 616 0 576 0;
#X connect 618 0 577 0;
#X connect 620 0 578 0;
#X connect 622 0 579 0;
#X connect 624 0 580 0;
#X connect 626 0 581 0;
#X connect 628 0 582 0;
#X connect 630 0 137 1;
#X connect 632 0 282 1;
#X connect 634 0 427 1;
#X coords 0 -1 1 1 150 22 2 100 100;
