#N canvas 1587 446 1680 1028 10;
#X obj 217 75 sel 0 1 2;
#X obj 217 145 sel 0 1 2;
#X floatatom 1473 17 5 0 0 0 receive_TprogA TprogA -;
#X obj 1467 69 f;
#X obj 1434 48 bng 15 250 50 0 empty empty write -35 7 0 10 -262144
-1 -1;
#X obj 1450 148 f;
#X obj 1439 126 bng 15 250 50 0 empty empty send -30 7 0 10 -262144
-1 -1;
#X floatatom 1468 97 5 0 0 0 - - -;
#X floatatom 1452 174 5 0 0 0 send_TprogA - send_TprogA;
#X floatatom 1619 17 5 0 0 0 receive_T#stepA T#stepA -;
#X obj 1613 69 f;
#X obj 1590 48 bng 15 250 50 0 empty empty write -35 7 0 10 -262144
-1 -1;
#X obj 1596 148 f;
#X obj 1595 126 bng 15 250 50 0 empty empty send -30 7 0 10 -262144
-1 -1;
#X floatatom 1614 97 5 0 0 0 - - -;
#X floatatom 1598 174 5 0 0 0 send_T#stepA_ - send_T#stepA;
#X floatatom 1755 17 5 0 0 0 receive_T1A T1A -;
#X obj 1749 69 f;
#X obj 1726 48 bng 15 250 50 0 empty empty write -35 7 0 10 -262144
-1 -1;
#X obj 1732 148 f;
#X obj 1731 126 bng 15 250 50 0 empty empty send -30 7 0 10 -262144
-1 -1;
#X floatatom 1750 97 5 0 0 0 - - -;
#X floatatom 1734 174 5 0 0 0 send_T1A - send_T1A;
#X floatatom 1895 17 5 0 0 0 receive_T2A T2A -;
#X obj 1889 69 f;
#X obj 1866 48 bng 15 250 50 0 empty empty write -35 7 0 10 -262144
-1 -1;
#X obj 1872 148 f;
#X obj 1871 126 bng 15 250 50 0 empty empty send -30 7 0 10 -262144
-1 -1;
#X floatatom 1890 97 5 0 0 0 - - -;
#X floatatom 1874 174 5 0 0 0 send_T2A - send_T2A;
#X floatatom 2035 17 5 0 0 0 receive_T3A T3A -;
#X obj 2029 69 f;
#X obj 2006 48 bng 15 250 50 0 empty empty write -35 7 0 10 -262144
-1 -1;
#X obj 2012 148 f;
#X obj 2011 126 bng 15 250 50 0 empty empty send -30 7 0 10 -262144
-1 -1;
#X floatatom 2030 97 5 0 0 0 - - -;
#X floatatom 2014 174 5 0 0 0 send_T3A - send_T3A;
#X floatatom 2415 17 5 0 0 0 receive_T6A T6A -;
#X obj 2409 69 f;
#X obj 2386 48 bng 15 250 50 0 empty empty write -35 7 0 10 -262144
-1 -1;
#X obj 2392 148 f;
#X obj 2391 126 bng 15 250 50 0 empty empty send -30 7 0 10 -262144
-1 -1;
#X floatatom 2410 97 5 0 0 0 - - -;
#X floatatom 2394 174 5 0 0 0 send_T6A - send_T6A;
#X floatatom 2545 17 5 0 0 0 receive_T7A T7A -;
#X obj 2539 69 f;
#X obj 2516 48 bng 15 250 50 0 empty empty write -35 7 0 10 -262144
-1 -1;
#X obj 2522 148 f;
#X obj 2521 126 bng 15 250 50 0 empty empty send -30 7 0 10 -262144
-1 -1;
#X floatatom 2540 97 5 0 0 0 - - -;
#X floatatom 2524 174 5 0 0 0 send_T7A - send_T7A;
#X floatatom 2685 17 5 0 0 0 receive_T8A T8A -;
#X obj 2679 69 f;
#X obj 2656 48 bng 15 250 50 0 empty empty write -35 7 0 10 -262144
-1 -1;
#X obj 2662 148 f;
#X obj 2661 126 bng 15 250 50 0 empty empty send -30 7 0 10 -262144
-1 -1;
#X floatatom 2680 97 5 0 0 0 - - -;
#X floatatom 2664 174 5 0 0 0 send_T8A - send_T8A;
#X floatatom 2826 17 5 0 0 0 receive_T9A T9A -;
#X obj 2820 69 f;
#X obj 2797 48 bng 15 250 50 0 empty empty write -35 7 0 10 -262144
-1 -1;
#X obj 2803 148 f;
#X obj 2802 126 bng 15 250 50 0 empty empty send -30 7 0 10 -262144
-1 -1;
#X floatatom 2821 97 5 0 0 0 - - -;
#X floatatom 2804 174 5 0 0 0 send_T9A - send_T9A;
#X floatatom 2966 17 5 0 0 0 receive_T10A T10A -;
#X obj 2960 69 f;
#X obj 2937 48 bng 15 250 50 0 empty empty write -35 7 0 10 -262144
-1 -1;
#X obj 2943 148 f;
#X obj 2942 126 bng 15 250 50 0 empty empty send -30 7 0 10 -262144
-1 -1;
#X floatatom 2961 97 5 0 0 0 - - -;
#X floatatom 2946 174 5 0 0 0 send_T10A - send_T10A;
#X floatatom 3096 17 5 0 0 0 receive_T11A T11A -;
#X obj 3090 69 f;
#X obj 3067 48 bng 15 250 50 0 empty empty write -35 7 0 10 -262144
-1 -1;
#X obj 3073 148 f;
#X obj 3072 126 bng 15 250 50 0 empty empty send -30 7 0 10 -262144
-1 -1;
#X floatatom 3091 97 5 0 0 0 - - -;
#X floatatom 3075 174 5 0 0 0 send_T11A - send_T11A;
#X floatatom 3236 17 5 0 0 0 receive_T12A T12A -;
#X obj 3230 69 f;
#X obj 3207 48 bng 15 250 50 0 empty empty write -35 7 0 10 -262144
-1 -1;
#X obj 3213 148 f;
#X obj 3212 126 bng 15 250 50 0 empty empty send -30 7 0 10 -262144
-1 -1;
#X floatatom 3231 97 5 0 0 0 - - -;
#X floatatom 3215 174 5 0 0 0 send_T12A - send_T12A;
#X floatatom 3376 17 5 0 0 0 receive_T13A T13A -;
#X obj 3370 69 f;
#X obj 3347 48 bng 15 250 50 0 empty empty write -35 7 0 10 -262144
-1 -1;
#X obj 3353 148 f;
#X obj 3352 126 bng 15 250 50 0 empty empty send -30 7 0 10 -262144
-1 -1;
#X floatatom 3371 97 5 0 0 0 - - -;
#X floatatom 3355 174 5 0 0 0 send_T13A - send_T13A;
#X floatatom 3516 17 5 0 0 0 receive_T14A T14A -;
#X obj 3510 69 f;
#X obj 3487 48 bng 15 250 50 0 empty empty write -35 7 0 10 -262144
-1 -1;
#X obj 3493 148 f;
#X obj 3492 126 bng 15 250 50 0 empty empty send -30 7 0 10 -262144
-1 -1;
#X floatatom 3511 97 5 0 0 0 - - -;
#X floatatom 3494 174 5 0 0 0 send_T14A - send_T14A;
#X floatatom 3646 17 5 0 0 0 receive_T15A T15A -;
#X obj 3640 69 f;
#X obj 3617 48 bng 15 250 50 0 empty empty write -35 7 0 10 -262144
-1 -1;
#X obj 3623 148 f;
#X obj 3622 126 bng 15 250 50 0 empty empty send -30 7 0 10 -262144
-1 -1;
#X floatatom 3641 97 5 0 0 0 - - -;
#X floatatom 3625 174 5 0 0 0 send_T15A - send_T15A;
#X floatatom 3785 17 5 0 0 0 receive_T16A T16A -;
#X obj 3780 69 f;
#X obj 3757 48 bng 15 250 50 0 empty empty write -35 7 0 10 -262144
-1 -1;
#X obj 3763 148 f;
#X obj 3762 126 bng 15 250 50 0 empty empty send -30 7 0 10 -262144
-1 -1;
#X floatatom 3781 97 5 0 0 0 - - -;
#X floatatom 3765 174 5 0 0 0 send_T16A - send_T16A;
#X floatatom 1044 16 5 0 0 0 receive_TXTA TXTA -;
#X obj 1037 69 f;
#X obj 1014 48 bng 15 250 50 0 empty empty write -35 7 0 10 -262144
-1 -1;
#X obj 1020 148 f;
#X obj 1019 126 bng 15 250 50 0 empty empty send -30 7 0 10 -262144
-1 -1;
#X floatatom 1038 99 5 0 0 0 - - -;
#X floatatom 1021 175 5 0 0 0 send_TXTA - send_TXTA;
#X floatatom 1193 17 5 0 0 0 receive_Trgr-tA Trgr-tA -;
#X obj 1187 69 f;
#X obj 1164 48 bng 15 250 50 0 empty empty write -35 7 0 10 -262144
-1 -1;
#X obj 1170 148 f;
#X obj 1169 126 bng 15 250 50 0 empty empty send -30 7 0 10 -262144
-1 -1;
#X floatatom 1188 97 5 0 0 0 - - -;
#X floatatom 1172 174 5 0 0 0 send_Trgr-tA - send_Trgr-tA;
#X floatatom 1333 17 5 0 0 0 receive_tA tA -;
#X obj 1327 69 f;
#X obj 1304 48 bng 15 250 50 0 empty empty write -35 7 0 10 -262144
-1 -1;
#X obj 1310 148 f;
#X obj 1309 126 bng 15 250 50 0 empty empty send -30 7 0 10 -262144
-1 -1;
#X floatatom 1328 97 5 0 0 0 - - -;
#X floatatom 1312 174 5 0 0 0 send_tA - send_tA;
#X obj 109 62 inlet;
#X obj 159 62 inlet;
#X floatatom 2154 17 5 0 0 0 receive_T4A T4A -;
#X obj 2148 69 f;
#X obj 2125 48 bng 15 250 50 0 empty empty write -35 7 0 10 -262144
-1 -1;
#X obj 2131 148 f;
#X obj 2130 126 bng 15 250 50 0 empty empty send -30 7 0 10 -262144
-1 -1;
#X floatatom 2149 97 5 0 0 0 - - -;
#X floatatom 2133 174 5 0 0 0 send_T4A - send_T4A;
#X floatatom 2294 17 5 0 0 0 receive_T5A T5A -;
#X obj 2288 69 f;
#X obj 2265 48 bng 15 250 50 0 empty empty write -35 7 0 10 -262144
-1 -1;
#X obj 2271 148 f;
#X obj 2270 126 bng 15 250 50 0 empty empty send -30 7 0 10 -262144
-1 -1;
#X floatatom 2289 97 5 0 0 0 - - -;
#X floatatom 2273 174 5 0 0 0 send_T5A - send_T5A;
#X floatatom 914 16 5 0 0 0 receive_T≠T T≠T -;
#X obj 907 69 f;
#X obj 884 48 bng 15 250 50 0 empty empty write -35 7 0 10 -262144
-1 -1;
#X obj 890 148 f;
#X obj 889 126 bng 15 250 50 0 empty empty send -30 7 0 10 -262144
-1 -1;
#X floatatom 908 97 5 0 0 0 - - -;
#X floatatom 891 175 5 0 0 0 send_T≠T - sendT≠T;
#X floatatom 734 16 5 0 0 0 receive_IT≠T IT≠T -;
#X obj 727 69 f;
#X obj 704 48 bng 15 250 50 0 empty empty write -35 7 0 10 -262144
-1 -1;
#X obj 710 148 f;
#X obj 709 126 bng 15 250 50 0 empty empty send -30 7 0 10 -262144
-1 -1;
#X floatatom 728 97 5 0 0 0 - - -;
#X floatatom 711 175 5 0 0 0 sendIT≠T - sendIT≠T;
#X floatatom 571 19 5 0 0 0 receive_ITA%ITA ITA%ITA -;
#X obj 557 69 f;
#X obj 534 48 bng 15 250 50 0 empty empty write -35 7 0 10 -262144
-1 -1;
#X obj 543 148 f;
#X obj 542 126 bng 15 250 50 0 empty empty send -30 7 0 10 -262144
-1 -1;
#X floatatom 557 97 5 0 0 0 - - -;
#X floatatom 544 175 5 0 0 0 sendITA%ITA - sendITA%ITA;
#X floatatom 1310 380 5 0 0 0 receive_TprogA TprogA -;
#X obj 1304 432 f;
#X obj 1271 411 bng 15 250 50 0 empty empty write -35 7 0 10 -262144
-1 -1;
#X obj 1287 501 f;
#X obj 1276 479 bng 15 250 50 0 empty empty send -30 7 0 10 -262144
-1 -1;
#X floatatom 1305 460 5 0 0 0 - - -;
#X floatatom 1289 527 5 0 0 0 send_TprogA - send_TprogA;
#X floatatom 1456 380 5 0 0 0 receive_T#stepA T#stepA -;
#X obj 1450 432 f;
#X obj 1427 411 bng 15 250 50 0 empty empty write -35 7 0 10 -262144
-1 -1;
#X obj 1433 501 f;
#X obj 1432 479 bng 15 250 50 0 empty empty send -30 7 0 10 -262144
-1 -1;
#X floatatom 1451 460 5 0 0 0 - - -;
#X floatatom 1435 527 5 0 0 0 send_T#stepA_ - send_T#stepA;
#X floatatom 1592 380 5 0 0 0 receive_T1A T1A -;
#X obj 1586 432 f;
#X obj 1563 411 bng 15 250 50 0 empty empty write -35 7 0 10 -262144
-1 -1;
#X obj 1569 501 f;
#X obj 1568 479 bng 15 250 50 0 empty empty send -30 7 0 10 -262144
-1 -1;
#X floatatom 1587 460 5 0 0 0 - - -;
#X floatatom 1571 527 5 0 0 0 send_T1A - send_T1A;
#X floatatom 1732 380 5 0 0 0 receive_T2A T2A -;
#X obj 1726 432 f;
#X obj 1703 411 bng 15 250 50 0 empty empty write -35 7 0 10 -262144
-1 -1;
#X obj 1709 501 f;
#X obj 1708 479 bng 15 250 50 0 empty empty send -30 7 0 10 -262144
-1 -1;
#X floatatom 1727 460 5 0 0 0 - - -;
#X floatatom 1711 527 5 0 0 0 send_T2A - send_T2A;
#X floatatom 1872 380 5 0 0 0 receive_T3A T3A -;
#X obj 1866 432 f;
#X obj 1843 411 bng 15 250 50 0 empty empty write -35 7 0 10 -262144
-1 -1;
#X obj 1849 501 f;
#X obj 1848 479 bng 15 250 50 0 empty empty send -30 7 0 10 -262144
-1 -1;
#X floatatom 1867 460 5 0 0 0 - - -;
#X floatatom 1851 527 5 0 0 0 send_T3A - send_T3A;
#X floatatom 2252 380 5 0 0 0 receive_T6A T6A -;
#X obj 2246 432 f;
#X obj 2223 411 bng 15 250 50 0 empty empty write -35 7 0 10 -262144
-1 -1;
#X obj 2229 501 f;
#X obj 2228 479 bng 15 250 50 0 empty empty send -30 7 0 10 -262144
-1 -1;
#X floatatom 2247 460 5 0 0 0 - - -;
#X floatatom 2231 527 5 0 0 0 send_T6A - send_T6A;
#X floatatom 2382 380 5 0 0 0 receive_T7A T7A -;
#X obj 2376 432 f;
#X obj 2353 411 bng 15 250 50 0 empty empty write -35 7 0 10 -262144
-1 -1;
#X obj 2359 501 f;
#X obj 2358 479 bng 15 250 50 0 empty empty send -30 7 0 10 -262144
-1 -1;
#X floatatom 2377 460 5 0 0 0 - - -;
#X floatatom 2361 527 5 0 0 0 send_T7A - send_T7A;
#X floatatom 2522 380 5 0 0 0 receive_T8A T8A -;
#X obj 2516 432 f;
#X obj 2493 411 bng 15 250 50 0 empty empty write -35 7 0 10 -262144
-1 -1;
#X obj 2499 501 f;
#X obj 2498 479 bng 15 250 50 0 empty empty send -30 7 0 10 -262144
-1 -1;
#X floatatom 2517 460 5 0 0 0 - - -;
#X floatatom 2501 527 5 0 0 0 send_T8A - send_T8A;
#X floatatom 2663 380 5 0 0 0 receive_T9A T9A -;
#X obj 2657 432 f;
#X obj 2634 411 bng 15 250 50 0 empty empty write -35 7 0 10 -262144
-1 -1;
#X obj 2640 501 f;
#X obj 2639 479 bng 15 250 50 0 empty empty send -30 7 0 10 -262144
-1 -1;
#X floatatom 2658 460 5 0 0 0 - - -;
#X floatatom 2641 527 5 0 0 0 send_T9A - send_T9A;
#X floatatom 2803 380 5 0 0 0 receive_T10A T10A -;
#X obj 2797 432 f;
#X obj 2774 411 bng 15 250 50 0 empty empty write -35 7 0 10 -262144
-1 -1;
#X obj 2780 501 f;
#X obj 2779 479 bng 15 250 50 0 empty empty send -30 7 0 10 -262144
-1 -1;
#X floatatom 2798 460 5 0 0 0 - - -;
#X floatatom 2783 527 5 0 0 0 send_T10A - send_T10A;
#X floatatom 2933 380 5 0 0 0 receive_T11A T11A -;
#X obj 2927 432 f;
#X obj 2904 411 bng 15 250 50 0 empty empty write -35 7 0 10 -262144
-1 -1;
#X obj 2910 501 f;
#X obj 2909 479 bng 15 250 50 0 empty empty send -30 7 0 10 -262144
-1 -1;
#X floatatom 2928 460 5 0 0 0 - - -;
#X floatatom 2912 527 5 0 0 0 send_T11A - send_T11A;
#X floatatom 3073 380 5 0 0 0 receive_T12A T12A -;
#X obj 3067 432 f;
#X obj 3044 411 bng 15 250 50 0 empty empty write -35 7 0 10 -262144
-1 -1;
#X obj 3050 501 f;
#X obj 3049 479 bng 15 250 50 0 empty empty send -30 7 0 10 -262144
-1 -1;
#X floatatom 3068 460 5 0 0 0 - - -;
#X floatatom 3052 527 5 0 0 0 send_T12A - send_T12A;
#X floatatom 3213 380 5 0 0 0 receive_T13A T13A -;
#X obj 3207 432 f;
#X obj 3184 411 bng 15 250 50 0 empty empty write -35 7 0 10 -262144
-1 -1;
#X obj 3190 501 f;
#X obj 3189 479 bng 15 250 50 0 empty empty send -30 7 0 10 -262144
-1 -1;
#X floatatom 3208 460 5 0 0 0 - - -;
#X floatatom 3192 527 5 0 0 0 send_T13A - send_T13A;
#X floatatom 3353 380 5 0 0 0 receive_T14A T14A -;
#X obj 3347 432 f;
#X obj 3324 411 bng 15 250 50 0 empty empty write -35 7 0 10 -262144
-1 -1;
#X obj 3330 501 f;
#X obj 3329 479 bng 15 250 50 0 empty empty send -30 7 0 10 -262144
-1 -1;
#X floatatom 3348 460 5 0 0 0 - - -;
#X floatatom 3331 527 5 0 0 0 send_T14A - send_T14A;
#X floatatom 3483 380 5 0 0 0 receive_T15A T15A -;
#X obj 3477 432 f;
#X obj 3454 411 bng 15 250 50 0 empty empty write -35 7 0 10 -262144
-1 -1;
#X obj 3460 501 f;
#X obj 3459 479 bng 15 250 50 0 empty empty send -30 7 0 10 -262144
-1 -1;
#X floatatom 3478 460 5 0 0 0 - - -;
#X floatatom 3462 527 5 0 0 0 send_T15A - send_T15A;
#X floatatom 3622 380 5 0 0 0 receive_T16A T16A -;
#X obj 3617 432 f;
#X obj 3594 411 bng 15 250 50 0 empty empty write -35 7 0 10 -262144
-1 -1;
#X obj 3600 501 f;
#X obj 3599 479 bng 15 250 50 0 empty empty send -30 7 0 10 -262144
-1 -1;
#X floatatom 3618 460 5 0 0 0 - - -;
#X floatatom 3602 527 5 0 0 0 send_T16A - send_T16A;
#X floatatom 881 379 5 0 0 0 receive_TXTA TXTA -;
#X obj 874 432 f;
#X obj 851 411 bng 15 250 50 0 empty empty write -35 7 0 10 -262144
-1 -1;
#X obj 857 501 f;
#X obj 856 479 bng 15 250 50 0 empty empty send -30 7 0 10 -262144
-1 -1;
#X floatatom 875 460 5 0 0 0 - - -;
#X floatatom 858 528 5 0 0 0 send_TXTA - send_TXTA;
#X floatatom 1030 380 5 0 0 0 receive_Trgr-tA Trgr-tA -;
#X obj 1024 432 f;
#X obj 1001 411 bng 15 250 50 0 empty empty write -35 7 0 10 -262144
-1 -1;
#X obj 1007 501 f;
#X obj 1006 479 bng 15 250 50 0 empty empty send -30 7 0 10 -262144
-1 -1;
#X floatatom 1025 460 5 0 0 0 - - -;
#X floatatom 1009 527 5 0 0 0 send_Trgr-tA - send_Trgr-tA;
#X floatatom 1170 380 5 0 0 0 receive_tA tA -;
#X obj 1164 432 f;
#X obj 1141 411 bng 15 250 50 0 empty empty write -35 7 0 10 -262144
-1 -1;
#X obj 1147 501 f;
#X obj 1146 479 bng 15 250 50 0 empty empty send -30 7 0 10 -262144
-1 -1;
#X floatatom 1165 460 5 0 0 0 - - -;
#X floatatom 1149 527 5 0 0 0 send_tA - send_tA;
#X floatatom 1991 380 5 0 0 0 receive_T4A T4A -;
#X obj 1985 432 f;
#X obj 1962 411 bng 15 250 50 0 empty empty write -35 7 0 10 -262144
-1 -1;
#X obj 1968 501 f;
#X obj 1967 479 bng 15 250 50 0 empty empty send -30 7 0 10 -262144
-1 -1;
#X floatatom 1986 460 5 0 0 0 - - -;
#X floatatom 1970 527 5 0 0 0 send_T4A - send_T4A;
#X floatatom 2131 380 5 0 0 0 receive_T5A T5A -;
#X obj 2125 432 f;
#X obj 2102 411 bng 15 250 50 0 empty empty write -35 7 0 10 -262144
-1 -1;
#X obj 2108 501 f;
#X obj 2107 479 bng 15 250 50 0 empty empty send -30 7 0 10 -262144
-1 -1;
#X floatatom 2126 460 5 0 0 0 - - -;
#X floatatom 2110 527 5 0 0 0 send_T5A - send_T5A;
#X floatatom 731 379 5 0 0 0 receive_IT≠T T≠T -;
#X obj 724 432 f;
#X obj 701 411 bng 15 250 50 0 empty empty write -35 7 0 10 -262144
-1 -1;
#X obj 707 501 f;
#X obj 706 479 bng 15 250 50 0 empty empty send -30 7 0 10 -262144
-1 -1;
#X floatatom 725 460 5 0 0 0 - - -;
#X floatatom 708 528 5 0 0 0 send_T≠T - sendT≠T;
#X floatatom 571 379 5 0 0 0 receive_IT≠T IT≠T -;
#X obj 564 432 f;
#X obj 541 411 bng 15 250 50 0 empty empty write -35 7 0 10 -262144
-1 -1;
#X obj 547 501 f;
#X obj 546 479 bng 15 250 50 0 empty empty send -30 7 0 10 -262144
-1 -1;
#X floatatom 565 460 5 0 0 0 - - -;
#X floatatom 548 528 5 0 0 0 sendIT≠T - sendIT≠T;
#X floatatom 401 379 5 0 0 0 receive_ITA%ITA ITA%ITA -;
#X obj 394 432 f;
#X obj 371 411 bng 15 250 50 0 empty empty write -35 7 0 10 -262144
-1 -1;
#X obj 377 501 f;
#X obj 376 479 bng 15 250 50 0 empty empty send -30 7 0 10 -262144
-1 -1;
#X floatatom 395 460 5 0 0 0 - - -;
#X floatatom 378 528 5 0 0 0 sendITA%ITA - sendITA%ITA;
#X floatatom 1282 589 5 0 0 0 receive_TprogA TprogA -;
#X obj 1276 641 f;
#X obj 1243 620 bng 15 250 50 0 empty empty write -35 7 0 10 -262144
-1 -1;
#X obj 1259 710 f;
#X obj 1248 688 bng 15 250 50 0 empty empty send -30 7 0 10 -262144
-1 -1;
#X floatatom 1277 669 5 0 0 0 - - -;
#X floatatom 1261 736 5 0 0 0 send_TprogA - send_TprogA;
#X floatatom 1428 589 5 0 0 0 receive_T#stepA T#stepA -;
#X obj 1422 641 f;
#X obj 1399 620 bng 15 250 50 0 empty empty write -35 7 0 10 -262144
-1 -1;
#X obj 1405 710 f;
#X obj 1404 688 bng 15 250 50 0 empty empty send -30 7 0 10 -262144
-1 -1;
#X floatatom 1423 669 5 0 0 0 - - -;
#X floatatom 1407 736 5 0 0 0 send_T#stepA_ - send_T#stepA;
#X floatatom 1564 589 5 0 0 0 receive_T1A T1A -;
#X obj 1558 641 f;
#X obj 1535 620 bng 15 250 50 0 empty empty write -35 7 0 10 -262144
-1 -1;
#X obj 1541 710 f;
#X obj 1540 688 bng 15 250 50 0 empty empty send -30 7 0 10 -262144
-1 -1;
#X floatatom 1559 669 5 0 0 0 - - -;
#X floatatom 1543 736 5 0 0 0 send_T1A - send_T1A;
#X floatatom 1704 589 5 0 0 0 receive_T2A T2A -;
#X obj 1698 641 f;
#X obj 1675 620 bng 15 250 50 0 empty empty write -35 7 0 10 -262144
-1 -1;
#X obj 1681 710 f;
#X obj 1680 688 bng 15 250 50 0 empty empty send -30 7 0 10 -262144
-1 -1;
#X floatatom 1699 669 5 0 0 0 - - -;
#X floatatom 1683 736 5 0 0 0 send_T2A - send_T2A;
#X floatatom 1844 589 5 0 0 0 receive_T3A T3A -;
#X obj 1838 641 f;
#X obj 1815 620 bng 15 250 50 0 empty empty write -35 7 0 10 -262144
-1 -1;
#X obj 1821 710 f;
#X obj 1820 688 bng 15 250 50 0 empty empty send -30 7 0 10 -262144
-1 -1;
#X floatatom 1839 669 5 0 0 0 - - -;
#X floatatom 1823 736 5 0 0 0 send_T3A - send_T3A;
#X floatatom 2224 589 5 0 0 0 receive_T6A T6A -;
#X obj 2218 641 f;
#X obj 2195 620 bng 15 250 50 0 empty empty write -35 7 0 10 -262144
-1 -1;
#X obj 2201 710 f;
#X obj 2200 688 bng 15 250 50 0 empty empty send -30 7 0 10 -262144
-1 -1;
#X floatatom 2219 669 5 0 0 0 - - -;
#X floatatom 2203 736 5 0 0 0 send_T6A - send_T6A;
#X floatatom 2354 589 5 0 0 0 receive_T7A T7A -;
#X obj 2348 641 f;
#X obj 2325 620 bng 15 250 50 0 empty empty write -35 7 0 10 -262144
-1 -1;
#X obj 2331 710 f;
#X obj 2330 688 bng 15 250 50 0 empty empty send -30 7 0 10 -262144
-1 -1;
#X floatatom 2349 669 5 0 0 0 - - -;
#X floatatom 2333 736 5 0 0 0 send_T7A - send_T7A;
#X floatatom 2494 589 5 0 0 0 receive_T8A T8A -;
#X obj 2488 641 f;
#X obj 2465 620 bng 15 250 50 0 empty empty write -35 7 0 10 -262144
-1 -1;
#X obj 2471 710 f;
#X obj 2470 688 bng 15 250 50 0 empty empty send -30 7 0 10 -262144
-1 -1;
#X floatatom 2489 669 5 0 0 0 - - -;
#X floatatom 2473 736 5 0 0 0 send_T8A - send_T8A;
#X floatatom 2635 589 5 0 0 0 receive_T9A T9A -;
#X obj 2629 641 f;
#X obj 2606 620 bng 15 250 50 0 empty empty write -35 7 0 10 -262144
-1 -1;
#X obj 2612 710 f;
#X obj 2611 688 bng 15 250 50 0 empty empty send -30 7 0 10 -262144
-1 -1;
#X floatatom 2630 669 5 0 0 0 - - -;
#X floatatom 2613 736 5 0 0 0 send_T9A - send_T9A;
#X floatatom 2775 589 5 0 0 0 receive_T10A T10A -;
#X obj 2769 641 f;
#X obj 2746 620 bng 15 250 50 0 empty empty write -35 7 0 10 -262144
-1 -1;
#X obj 2752 710 f;
#X obj 2751 688 bng 15 250 50 0 empty empty send -30 7 0 10 -262144
-1 -1;
#X floatatom 2770 669 5 0 0 0 - - -;
#X floatatom 2755 736 5 0 0 0 send_T10A - send_T10A;
#X floatatom 2905 589 5 0 0 0 receive_T11A T11A -;
#X obj 2899 641 f;
#X obj 2876 620 bng 15 250 50 0 empty empty write -35 7 0 10 -262144
-1 -1;
#X obj 2882 710 f;
#X obj 2881 688 bng 15 250 50 0 empty empty send -30 7 0 10 -262144
-1 -1;
#X floatatom 2900 669 5 0 0 0 - - -;
#X floatatom 2884 736 5 0 0 0 send_T11A - send_T11A;
#X floatatom 3045 589 5 0 0 0 receive_T12A T12A -;
#X obj 3039 641 f;
#X obj 3016 620 bng 15 250 50 0 empty empty write -35 7 0 10 -262144
-1 -1;
#X obj 3022 710 f;
#X obj 3021 688 bng 15 250 50 0 empty empty send -30 7 0 10 -262144
-1 -1;
#X floatatom 3040 669 5 0 0 0 - - -;
#X floatatom 3024 736 5 0 0 0 send_T12A - send_T12A;
#X floatatom 3185 589 5 0 0 0 receive_T13A T13A -;
#X obj 3179 641 f;
#X obj 3156 620 bng 15 250 50 0 empty empty write -35 7 0 10 -262144
-1 -1;
#X obj 3162 710 f;
#X obj 3161 688 bng 15 250 50 0 empty empty send -30 7 0 10 -262144
-1 -1;
#X floatatom 3180 669 5 0 0 0 - - -;
#X floatatom 3164 736 5 0 0 0 send_T13A - send_T13A;
#X floatatom 3325 589 5 0 0 0 receive_T14A T14A -;
#X obj 3319 641 f;
#X obj 3296 620 bng 15 250 50 0 empty empty write -35 7 0 10 -262144
-1 -1;
#X obj 3302 710 f;
#X obj 3301 688 bng 15 250 50 0 empty empty send -30 7 0 10 -262144
-1 -1;
#X floatatom 3320 669 5 0 0 0 - - -;
#X floatatom 3303 736 5 0 0 0 send_T14A - send_T14A;
#X floatatom 3455 589 5 0 0 0 receive_T15A T15A -;
#X obj 3449 641 f;
#X obj 3426 620 bng 15 250 50 0 empty empty write -35 7 0 10 -262144
-1 -1;
#X obj 3432 710 f;
#X obj 3431 688 bng 15 250 50 0 empty empty send -30 7 0 10 -262144
-1 -1;
#X floatatom 3450 669 5 0 0 0 - - -;
#X floatatom 3434 736 5 0 0 0 send_T15A - send_T15A;
#X floatatom 3594 589 5 0 0 0 receive_T16A T16A -;
#X obj 3589 641 f;
#X obj 3566 620 bng 15 250 50 0 empty empty write -35 7 0 10 -262144
-1 -1;
#X obj 3572 710 f;
#X obj 3571 688 bng 15 250 50 0 empty empty send -30 7 0 10 -262144
-1 -1;
#X floatatom 3590 669 5 0 0 0 - - -;
#X floatatom 3574 736 5 0 0 0 send_T16A - send_T16A;
#X floatatom 853 588 5 0 0 0 receive_TXTA TXTA -;
#X obj 846 641 f;
#X obj 823 620 bng 15 250 50 0 empty empty write -35 7 0 10 -262144
-1 -1;
#X obj 829 710 f;
#X obj 828 688 bng 15 250 50 0 empty empty send -30 7 0 10 -262144
-1 -1;
#X floatatom 847 669 5 0 0 0 - - -;
#X floatatom 830 737 5 0 0 0 send_TXTA - send_TXTA;
#X floatatom 1002 589 5 0 0 0 receive_Trgr-tA Trgr-tA -;
#X obj 996 641 f;
#X obj 973 620 bng 15 250 50 0 empty empty write -35 7 0 10 -262144
-1 -1;
#X obj 979 710 f;
#X obj 978 688 bng 15 250 50 0 empty empty send -30 7 0 10 -262144
-1 -1;
#X floatatom 997 669 5 0 0 0 - - -;
#X floatatom 981 736 5 0 0 0 send_Trgr-tA - send_Trgr-tA;
#X floatatom 1142 589 5 0 0 0 receive_tA tA -;
#X obj 1136 641 f;
#X obj 1113 620 bng 15 250 50 0 empty empty write -35 7 0 10 -262144
-1 -1;
#X obj 1119 710 f;
#X obj 1118 688 bng 15 250 50 0 empty empty send -30 7 0 10 -262144
-1 -1;
#X floatatom 1137 669 5 0 0 0 - - -;
#X floatatom 1121 736 5 0 0 0 send_tA - send_tA;
#X floatatom 1963 589 5 0 0 0 receive_T4A T4A -;
#X obj 1957 641 f;
#X obj 1934 620 bng 15 250 50 0 empty empty write -35 7 0 10 -262144
-1 -1;
#X obj 1940 710 f;
#X obj 1939 688 bng 15 250 50 0 empty empty send -30 7 0 10 -262144
-1 -1;
#X floatatom 1958 669 5 0 0 0 - - -;
#X floatatom 1942 736 5 0 0 0 send_T4A - send_T4A;
#X floatatom 2103 589 5 0 0 0 receive_T5A T5A -;
#X obj 2097 641 f;
#X obj 2074 620 bng 15 250 50 0 empty empty write -35 7 0 10 -262144
-1 -1;
#X obj 2080 710 f;
#X obj 2079 688 bng 15 250 50 0 empty empty send -30 7 0 10 -262144
-1 -1;
#X floatatom 2098 669 5 0 0 0 - - -;
#X floatatom 2082 736 5 0 0 0 send_T5A - send_T5A;
#X floatatom 703 588 5 0 0 0 receive_IT≠T T≠T -;
#X obj 696 641 f;
#X obj 673 620 bng 15 250 50 0 empty empty write -35 7 0 10 -262144
-1 -1;
#X obj 679 710 f;
#X obj 678 688 bng 15 250 50 0 empty empty send -30 7 0 10 -262144
-1 -1;
#X floatatom 697 669 5 0 0 0 - - -;
#X floatatom 680 737 5 0 0 0 send_T≠T - sendT≠T;
#X floatatom 543 588 5 0 0 0 receive_IT≠T IT≠T -;
#X obj 536 641 f;
#X obj 513 620 bng 15 250 50 0 empty empty write -35 7 0 10 -262144
-1 -1;
#X obj 519 710 f;
#X obj 518 688 bng 15 250 50 0 empty empty send -30 7 0 10 -262144
-1 -1;
#X floatatom 537 669 5 0 0 0 - - -;
#X floatatom 520 737 5 0 0 0 sendIT≠T - sendIT≠T;
#X floatatom 373 588 5 0 0 0 receive_ITA%ITA ITA%ITA -;
#X obj 366 641 f;
#X obj 343 620 bng 15 250 50 0 empty empty write -35 7 0 10 -262144
-1 -1;
#X obj 349 710 f;
#X obj 348 688 bng 15 250 50 0 empty empty send -30 7 0 10 -262144
-1 -1;
#X floatatom 367 669 5 0 0 0 - - -;
#X floatatom 350 737 5 0 0 0 sendITA%ITA - sendITA%ITA;
#X floatatom 1279 782 5 0 0 0 receive_TprogA TprogA -;
#X obj 1273 834 f;
#X obj 1240 813 bng 15 250 50 0 empty empty write -35 7 0 10 -262144
-1 -1;
#X obj 1256 903 f;
#X obj 1245 881 bng 15 250 50 0 empty empty send -30 7 0 10 -262144
-1 -1;
#X floatatom 1274 862 5 0 0 0 - - -;
#X floatatom 1258 929 5 0 0 0 send_TprogA - send_TprogA;
#X floatatom 1425 782 5 0 0 0 receive_T#stepA T#stepA -;
#X obj 1419 834 f;
#X obj 1396 813 bng 15 250 50 0 empty empty write -35 7 0 10 -262144
-1 -1;
#X obj 1402 903 f;
#X obj 1401 881 bng 15 250 50 0 empty empty send -30 7 0 10 -262144
-1 -1;
#X floatatom 1420 862 5 0 0 0 - - -;
#X floatatom 1404 929 5 0 0 0 send_T#stepA_ - send_T#stepA;
#X floatatom 1561 782 5 0 0 0 receive_T1A T1A -;
#X obj 1555 834 f;
#X obj 1532 813 bng 15 250 50 0 empty empty write -35 7 0 10 -262144
-1 -1;
#X obj 1538 903 f;
#X obj 1537 881 bng 15 250 50 0 empty empty send -30 7 0 10 -262144
-1 -1;
#X floatatom 1556 862 5 0 0 0 - - -;
#X floatatom 1540 929 5 0 0 0 send_T1A - send_T1A;
#X floatatom 1701 782 5 0 0 0 receive_T2A T2A -;
#X obj 1695 834 f;
#X obj 1672 813 bng 15 250 50 0 empty empty write -35 7 0 10 -262144
-1 -1;
#X obj 1678 903 f;
#X obj 1677 881 bng 15 250 50 0 empty empty send -30 7 0 10 -262144
-1 -1;
#X floatatom 1696 862 5 0 0 0 - - -;
#X floatatom 1680 929 5 0 0 0 send_T2A - send_T2A;
#X floatatom 1841 782 5 0 0 0 receive_T3A T3A -;
#X obj 1835 834 f;
#X obj 1812 813 bng 15 250 50 0 empty empty write -35 7 0 10 -262144
-1 -1;
#X obj 1818 903 f;
#X obj 1817 881 bng 15 250 50 0 empty empty send -30 7 0 10 -262144
-1 -1;
#X floatatom 1836 862 5 0 0 0 - - -;
#X floatatom 1820 929 5 0 0 0 send_T3A - send_T3A;
#X floatatom 2221 782 5 0 0 0 receive_T6A T6A -;
#X obj 2215 834 f;
#X obj 2192 813 bng 15 250 50 0 empty empty write -35 7 0 10 -262144
-1 -1;
#X obj 2198 903 f;
#X obj 2197 881 bng 15 250 50 0 empty empty send -30 7 0 10 -262144
-1 -1;
#X floatatom 2216 862 5 0 0 0 - - -;
#X floatatom 2200 929 5 0 0 0 send_T6A - send_T6A;
#X floatatom 2351 782 5 0 0 0 receive_T7A T7A -;
#X obj 2345 834 f;
#X obj 2322 813 bng 15 250 50 0 empty empty write -35 7 0 10 -262144
-1 -1;
#X obj 2328 903 f;
#X obj 2327 881 bng 15 250 50 0 empty empty send -30 7 0 10 -262144
-1 -1;
#X floatatom 2346 862 5 0 0 0 - - -;
#X floatatom 2330 929 5 0 0 0 send_T7A - send_T7A;
#X floatatom 2491 782 5 0 0 0 receive_T8A T8A -;
#X obj 2485 834 f;
#X obj 2462 813 bng 15 250 50 0 empty empty write -35 7 0 10 -262144
-1 -1;
#X obj 2468 903 f;
#X obj 2467 881 bng 15 250 50 0 empty empty send -30 7 0 10 -262144
-1 -1;
#X floatatom 2486 862 5 0 0 0 - - -;
#X floatatom 2470 929 5 0 0 0 send_T8A - send_T8A;
#X floatatom 2632 782 5 0 0 0 receive_T9A T9A -;
#X obj 2626 834 f;
#X obj 2603 813 bng 15 250 50 0 empty empty write -35 7 0 10 -262144
-1 -1;
#X obj 2609 903 f;
#X obj 2608 881 bng 15 250 50 0 empty empty send -30 7 0 10 -262144
-1 -1;
#X floatatom 2627 862 5 0 0 0 - - -;
#X floatatom 2610 929 5 0 0 0 send_T9A - send_T9A;
#X floatatom 2772 782 5 0 0 0 receive_T10A T10A -;
#X obj 2766 834 f;
#X obj 2743 813 bng 15 250 50 0 empty empty write -35 7 0 10 -262144
-1 -1;
#X obj 2749 903 f;
#X obj 2748 881 bng 15 250 50 0 empty empty send -30 7 0 10 -262144
-1 -1;
#X floatatom 2767 862 5 0 0 0 - - -;
#X floatatom 2752 929 5 0 0 0 send_T10A - send_T10A;
#X floatatom 2902 782 5 0 0 0 receive_T11A T11A -;
#X obj 2896 834 f;
#X obj 2873 813 bng 15 250 50 0 empty empty write -35 7 0 10 -262144
-1 -1;
#X obj 2879 903 f;
#X obj 2878 881 bng 15 250 50 0 empty empty send -30 7 0 10 -262144
-1 -1;
#X floatatom 2897 862 5 0 0 0 - - -;
#X floatatom 2881 929 5 0 0 0 send_T11A - send_T11A;
#X floatatom 3042 782 5 0 0 0 receive_T12A T12A -;
#X obj 3036 834 f;
#X obj 3013 813 bng 15 250 50 0 empty empty write -35 7 0 10 -262144
-1 -1;
#X obj 3019 903 f;
#X obj 3018 881 bng 15 250 50 0 empty empty send -30 7 0 10 -262144
-1 -1;
#X floatatom 3037 862 5 0 0 0 - - -;
#X floatatom 3021 929 5 0 0 0 send_T12A - send_T12A;
#X floatatom 3182 782 5 0 0 0 receive_T13A T13A -;
#X obj 3176 834 f;
#X obj 3153 813 bng 15 250 50 0 empty empty write -35 7 0 10 -262144
-1 -1;
#X obj 3159 903 f;
#X obj 3158 881 bng 15 250 50 0 empty empty send -30 7 0 10 -262144
-1 -1;
#X floatatom 3177 862 5 0 0 0 - - -;
#X floatatom 3161 929 5 0 0 0 send_T13A - send_T13A;
#X floatatom 3322 782 5 0 0 0 receive_T14A T14A -;
#X obj 3316 834 f;
#X obj 3293 813 bng 15 250 50 0 empty empty write -35 7 0 10 -262144
-1 -1;
#X obj 3299 903 f;
#X obj 3298 881 bng 15 250 50 0 empty empty send -30 7 0 10 -262144
-1 -1;
#X floatatom 3317 862 5 0 0 0 - - -;
#X floatatom 3300 929 5 0 0 0 send_T14A - send_T14A;
#X floatatom 3452 782 5 0 0 0 receive_T15A T15A -;
#X obj 3446 834 f;
#X obj 3423 813 bng 15 250 50 0 empty empty write -35 7 0 10 -262144
-1 -1;
#X obj 3429 903 f;
#X obj 3428 881 bng 15 250 50 0 empty empty send -30 7 0 10 -262144
-1 -1;
#X floatatom 3447 862 5 0 0 0 - - -;
#X floatatom 3431 929 5 0 0 0 send_T15A - send_T15A;
#X floatatom 3591 782 5 0 0 0 receive_T16A T16A -;
#X obj 3586 834 f;
#X obj 3563 813 bng 15 250 50 0 empty empty write -35 7 0 10 -262144
-1 -1;
#X obj 3569 903 f;
#X obj 3568 881 bng 15 250 50 0 empty empty send -30 7 0 10 -262144
-1 -1;
#X floatatom 3587 862 5 0 0 0 - - -;
#X floatatom 3571 929 5 0 0 0 send_T16A - send_T16A;
#X floatatom 850 781 5 0 0 0 receive_TXTA TXTA -;
#X obj 843 834 f;
#X obj 820 813 bng 15 250 50 0 empty empty write -35 7 0 10 -262144
-1 -1;
#X obj 826 903 f;
#X obj 825 881 bng 15 250 50 0 empty empty send -30 7 0 10 -262144
-1 -1;
#X floatatom 844 862 5 0 0 0 - - -;
#X floatatom 827 930 5 0 0 0 send_TXTA - send_TXTA;
#X floatatom 999 782 5 0 0 0 receive_Trgr-tA Trgr-tA -;
#X obj 993 834 f;
#X obj 970 813 bng 15 250 50 0 empty empty write -35 7 0 10 -262144
-1 -1;
#X obj 976 903 f;
#X obj 975 881 bng 15 250 50 0 empty empty send -30 7 0 10 -262144
-1 -1;
#X floatatom 994 862 5 0 0 0 - - -;
#X floatatom 978 929 5 0 0 0 send_Trgr-tA - send_Trgr-tA;
#X floatatom 1139 782 5 0 0 0 receive_tA tA -;
#X obj 1133 834 f;
#X obj 1110 813 bng 15 250 50 0 empty empty write -35 7 0 10 -262144
-1 -1;
#X obj 1116 903 f;
#X obj 1115 881 bng 15 250 50 0 empty empty send -30 7 0 10 -262144
-1 -1;
#X floatatom 1134 862 5 0 0 0 - - -;
#X floatatom 1118 929 5 0 0 0 send_tA - send_tA;
#X floatatom 1960 782 5 0 0 0 receive_T4A T4A -;
#X obj 1954 834 f;
#X obj 1931 813 bng 15 250 50 0 empty empty write -35 7 0 10 -262144
-1 -1;
#X obj 1937 903 f;
#X obj 1936 881 bng 15 250 50 0 empty empty send -30 7 0 10 -262144
-1 -1;
#X floatatom 1955 862 5 0 0 0 - - -;
#X floatatom 1939 929 5 0 0 0 send_T4A - send_T4A;
#X floatatom 2100 782 5 0 0 0 receive_T5A T5A -;
#X obj 2094 834 f;
#X obj 2071 813 bng 15 250 50 0 empty empty write -35 7 0 10 -262144
-1 -1;
#X obj 2077 903 f;
#X obj 2076 881 bng 15 250 50 0 empty empty send -30 7 0 10 -262144
-1 -1;
#X floatatom 2095 862 5 0 0 0 - - -;
#X floatatom 2079 929 5 0 0 0 send_T5A - send_T5A;
#X floatatom 700 781 5 0 0 0 receive_IT≠T T≠T -;
#X obj 693 834 f;
#X obj 670 813 bng 15 250 50 0 empty empty write -35 7 0 10 -262144
-1 -1;
#X obj 676 903 f;
#X obj 675 881 bng 15 250 50 0 empty empty send -30 7 0 10 -262144
-1 -1;
#X floatatom 694 862 5 0 0 0 - - -;
#X floatatom 677 930 5 0 0 0 send_T≠T - sendT≠T;
#X floatatom 540 781 5 0 0 0 receive_IT≠T IT≠T -;
#X obj 533 834 f;
#X obj 510 813 bng 15 250 50 0 empty empty write -35 7 0 10 -262144
-1 -1;
#X obj 516 903 f;
#X obj 515 881 bng 15 250 50 0 empty empty send -30 7 0 10 -262144
-1 -1;
#X floatatom 534 862 5 0 0 0 - - -;
#X floatatom 517 930 5 0 0 0 sendIT≠T - sendIT≠T;
#X floatatom 370 781 5 0 0 0 receive_ITA%ITA ITA%ITA -;
#X obj 363 834 f;
#X obj 340 813 bng 15 250 50 0 empty empty write -35 7 0 10 -262144
-1 -1;
#X obj 346 903 f;
#X obj 345 881 bng 15 250 50 0 empty empty send -30 7 0 10 -262144
-1 -1;
#X floatatom 364 862 5 0 0 0 - - -;
#X floatatom 347 930 5 0 0 0 sendITA%ITA - sendITA%ITA;
#X obj 102 102 hradio 18 1 0 4 empty empty empty 8 -10 0 10 -99865
-262144 -262144 2;
#X obj 176 102 hradio 18 1 0 4 empty empty empty 1 -10 0 10 -128992
-1 -262144 1;
#X floatatom 414 27 5 0 0 0 TA=TB TA=TB -;
#X obj 397 69 f;
#X obj 374 48 bng 15 250 50 0 empty empty write -35 7 0 10 -262144
-1 -1;
#X obj 383 148 f;
#X obj 382 126 bng 15 250 50 0 empty empty send -30 7 0 10 -262144
-1 -1;
#X floatatom 398 97 5 0 0 0 - - -;
#X floatatom 382 175 5 0 0 0 sendTA=TB - sendTA=TB;
#X floatatom 461 84 5 0 0 0 W.TA=TB W.TA=TB -;
#X floatatom 459 112 5 0 0 0 S.TA=TB - S.TA=TB;
#X floatatom 625 84 5 0 0 0 W.ITA%ITA W.ITA%ITA -;
#X floatatom 624 112 5 0 0 0 S.ITA%ITA - S.ITA%ITA;
#X floatatom 815 84 5 0 0 0 W.IT≠T W.IT≠T -;
#X floatatom 816 112 5 0 0 0 S.IT≠T - S.IT≠T;
#X floatatom 953 84 5 0 0 0 W.T≠T W.T≠T -;
#X floatatom 954 112 5 0 0 0 S.T≠T - S.T≠T;
#X floatatom 1098 84 5 0 0 0 W.TXTA W.TXTA -;
#X floatatom 1097 112 5 0 0 0 S.TXTA - S.TXTA;
#X floatatom 1276 84 5 0 0 0 W.Trgr-tA W.Trgr-tA -;
#X floatatom 1275 112 5 0 0 0 S.Trgr-tA - S.Trgr-tA;
#X floatatom 1367 84 5 0 0 0 W.tA W.tA -;
#X floatatom 1366 112 5 0 0 0 S.tA - S.tA;
#X floatatom 1543 84 5 0 0 0 W.TprogA W.TprogA -;
#X floatatom 1542 112 5 0 0 0 S.progA - S.TprogA;
#X floatatom 1673 84 5 0 0 0 W.T#stepA W.T#stepA -;
#X floatatom 1672 112 5 0 0 0 S.T#stepA - W.T#stepA;
#X floatatom 1813 84 5 0 0 0 W.T1A W.T1A -;
#X floatatom 1812 112 5 0 0 0 S.T1A - S.T1A;
#X floatatom 1973 84 5 0 0 0 W.T2A W.T2A -;
#X floatatom 1972 112 5 0 0 0 S.T2A - S.T2A;
#X floatatom 2074 84 5 0 0 0 W.T3A W.T3A -;
#X floatatom 2073 112 5 0 0 0 S.T3A - S.T3A;
#X floatatom 2202 84 5 0 0 0 W.T4A W.T4A -;
#X floatatom 2201 112 5 0 0 0 S.T4A - S.T4A;
#X floatatom 2343 84 5 0 0 0 W.T5A W.T5A -;
#X floatatom 2342 112 5 0 0 0 S.T5A - S.T5A;
#X floatatom 2472 84 5 0 0 0 W.T6A W.T6A -;
#X floatatom 2471 112 5 0 0 0 S.T6A - S.T6A;
#X floatatom 2602 84 5 0 0 0 W.T7A W.T7A -;
#X floatatom 2601 112 5 0 0 0 S.T7A - S.T7A;
#X floatatom 2731 84 5 0 0 0 W.T8A W.T8A -;
#X floatatom 2730 112 5 0 0 0 S.T8A - S.T8A;
#X floatatom 2879 84 5 0 0 0 W.T9A W.T9A -;
#X floatatom 2878 112 5 0 0 0 S.T9A - S.T9A;
#X floatatom 3017 84 5 0 0 0 W.T10A W.T10A -;
#X floatatom 3016 112 5 0 0 0 S.T10A - S.T10A;
#X floatatom 3162 84 5 0 0 0 W.T11A W.T11A -;
#X floatatom 3161 112 5 0 0 0 S.T11A - S.T11A;
#X floatatom 3282 84 5 0 0 0 W.T12A W.T12A -;
#X floatatom 3282 112 5 0 0 0 S.T12A - S.T12A;
#X floatatom 3416 84 5 0 0 0 W.T13A W.T13A -;
#X floatatom 3415 112 5 0 0 0 S.T13A - S.T13A;
#X floatatom 3556 84 5 0 0 0 W.T14A W.T14A -;
#X floatatom 3555 112 5 0 0 0 S.T14A - S.T14A;
#X floatatom 3687 84 5 0 0 0 W.T15A W.T15A -;
#X floatatom 3686 112 5 0 0 0 S.T15A - S.T15A;
#X floatatom 3836 84 5 0 0 0 W.T16A W.T16A -;
#X floatatom 3835 112 5 0 0 0 S.T16A - S.T16<A;
#X connect 0 0 680 0;
#X connect 0 1 335 0;
#X connect 0 2 503 0;
#X connect 0 3 671 0;
#X connect 1 0 682 0;
#X connect 1 1 337 0;
#X connect 1 2 505 0;
#X connect 1 3 673 0;
#X connect 2 0 3 1;
#X connect 3 0 7 0;
#X connect 4 0 3 0;
#X connect 4 0 11 0;
#X connect 5 0 8 0;
#X connect 6 0 5 0;
#X connect 6 0 13 0;
#X connect 7 0 5 1;
#X connect 7 0 700 0;
#X connect 9 0 10 1;
#X connect 10 0 14 0;
#X connect 11 0 10 0;
#X connect 11 0 18 0;
#X connect 12 0 15 0;
#X connect 13 0 12 0;
#X connect 13 0 20 0;
#X connect 14 0 12 1;
#X connect 14 0 702 0;
#X connect 16 0 17 1;
#X connect 17 0 21 0;
#X connect 18 0 17 0;
#X connect 18 0 25 0;
#X connect 19 0 22 0;
#X connect 20 0 19 0;
#X connect 20 0 27 0;
#X connect 21 0 19 1;
#X connect 21 0 704 0;
#X connect 23 0 24 1;
#X connect 24 0 28 0;
#X connect 25 0 24 0;
#X connect 25 0 32 0;
#X connect 26 0 29 0;
#X connect 27 0 26 0;
#X connect 27 0 34 0;
#X connect 28 0 26 1;
#X connect 28 0 706 0;
#X connect 30 0 31 1;
#X connect 31 0 35 0;
#X connect 32 0 31 0;
#X connect 32 0 139 0;
#X connect 33 0 36 0;
#X connect 34 0 33 0;
#X connect 34 0 141 0;
#X connect 35 0 33 1;
#X connect 35 0 708 0;
#X connect 37 0 38 1;
#X connect 38 0 42 0;
#X connect 39 0 38 0;
#X connect 39 0 46 0;
#X connect 40 0 43 0;
#X connect 41 0 40 0;
#X connect 41 0 48 0;
#X connect 42 0 40 1;
#X connect 42 0 714 0;
#X connect 44 0 45 1;
#X connect 45 0 49 0;
#X connect 46 0 45 0;
#X connect 46 0 53 0;
#X connect 47 0 50 0;
#X connect 48 0 47 0;
#X connect 48 0 55 0;
#X connect 49 0 47 1;
#X connect 49 0 716 0;
#X connect 51 0 52 1;
#X connect 52 0 56 0;
#X connect 53 0 52 0;
#X connect 53 0 60 0;
#X connect 54 0 57 0;
#X connect 55 0 54 0;
#X connect 55 0 62 0;
#X connect 56 0 54 1;
#X connect 56 0 718 0;
#X connect 58 0 59 1;
#X connect 59 0 63 0;
#X connect 60 0 59 0;
#X connect 60 0 67 0;
#X connect 61 0 64 0;
#X connect 62 0 61 0;
#X connect 62 0 69 0;
#X connect 63 0 61 1;
#X connect 63 0 720 0;
#X connect 65 0 66 1;
#X connect 66 0 70 0;
#X connect 67 0 66 0;
#X connect 67 0 74 0;
#X connect 68 0 71 0;
#X connect 69 0 68 0;
#X connect 69 0 76 0;
#X connect 70 0 68 1;
#X connect 70 0 722 0;
#X connect 72 0 73 1;
#X connect 73 0 77 0;
#X connect 74 0 73 0;
#X connect 74 0 81 0;
#X connect 75 0 78 0;
#X connect 76 0 75 0;
#X connect 76 0 83 0;
#X connect 77 0 75 1;
#X connect 77 0 724 0;
#X connect 79 0 80 1;
#X connect 80 0 84 0;
#X connect 81 0 80 0;
#X connect 81 0 88 0;
#X connect 82 0 85 0;
#X connect 83 0 82 0;
#X connect 83 0 90 0;
#X connect 84 0 82 1;
#X connect 84 0 726 0;
#X connect 86 0 87 1;
#X connect 87 0 91 0;
#X connect 88 0 87 0;
#X connect 88 0 95 0;
#X connect 89 0 92 0;
#X connect 90 0 89 0;
#X connect 90 0 97 0;
#X connect 91 0 89 1;
#X connect 91 0 728 0;
#X connect 93 0 94 1;
#X connect 94 0 98 0;
#X connect 95 0 94 0;
#X connect 95 0 102 0;
#X connect 96 0 99 0;
#X connect 97 0 96 0;
#X connect 97 0 104 0;
#X connect 98 0 96 1;
#X connect 98 0 730 0;
#X connect 100 0 101 1;
#X connect 101 0 105 0;
#X connect 102 0 101 0;
#X connect 102 0 109 0;
#X connect 103 0 106 0;
#X connect 104 0 103 0;
#X connect 104 0 111 0;
#X connect 105 0 103 1;
#X connect 105 0 732 0;
#X connect 107 0 108 1;
#X connect 108 0 112 0;
#X connect 109 0 108 0;
#X connect 110 0 113 0;
#X connect 111 0 110 0;
#X connect 112 0 110 1;
#X connect 112 0 734 0;
#X connect 114 0 115 1;
#X connect 115 0 119 0;
#X connect 116 0 115 0;
#X connect 116 0 123 0;
#X connect 117 0 120 0;
#X connect 118 0 117 0;
#X connect 118 0 125 0;
#X connect 119 0 117 1;
#X connect 119 0 694 0;
#X connect 121 0 122 1;
#X connect 122 0 126 0;
#X connect 123 0 122 0;
#X connect 123 0 130 0;
#X connect 124 0 127 0;
#X connect 125 0 124 0;
#X connect 125 0 132 0;
#X connect 126 0 124 1;
#X connect 126 0 696 0;
#X connect 128 0 129 1;
#X connect 129 0 133 0;
#X connect 130 0 129 0;
#X connect 130 0 4 0;
#X connect 131 0 134 0;
#X connect 132 0 131 0;
#X connect 132 0 6 0;
#X connect 133 0 131 1;
#X connect 133 0 698 0;
#X connect 135 0 676 0;
#X connect 136 0 677 0;
#X connect 137 0 138 1;
#X connect 138 0 142 0;
#X connect 139 0 138 0;
#X connect 139 0 146 0;
#X connect 140 0 143 0;
#X connect 141 0 140 0;
#X connect 141 0 148 0;
#X connect 142 0 140 1;
#X connect 142 0 710 0;
#X connect 144 0 145 1;
#X connect 145 0 149 0;
#X connect 146 0 145 0;
#X connect 146 0 39 0;
#X connect 147 0 150 0;
#X connect 148 0 147 0;
#X connect 148 0 41 0;
#X connect 149 0 147 1;
#X connect 149 0 712 0;
#X connect 151 0 152 1;
#X connect 152 0 156 0;
#X connect 153 0 152 0;
#X connect 153 0 116 0;
#X connect 154 0 157 0;
#X connect 155 0 154 0;
#X connect 155 0 118 0;
#X connect 156 0 154 1;
#X connect 156 0 692 0;
#X connect 158 0 159 1;
#X connect 159 0 163 0;
#X connect 160 0 159 0;
#X connect 160 0 153 0;
#X connect 161 0 164 0;
#X connect 162 0 161 0;
#X connect 162 0 155 0;
#X connect 163 0 161 1;
#X connect 163 0 690 0;
#X connect 165 0 166 1;
#X connect 166 0 170 0;
#X connect 167 0 166 0;
#X connect 167 0 160 0;
#X connect 168 0 171 0;
#X connect 169 0 168 0;
#X connect 169 0 162 0;
#X connect 170 0 168 1;
#X connect 170 0 688 0;
#X connect 172 0 173 1;
#X connect 173 0 177 0;
#X connect 174 0 173 0;
#X connect 174 0 181 0;
#X connect 175 0 178 0;
#X connect 176 0 175 0;
#X connect 176 0 183 0;
#X connect 177 0 175 1;
#X connect 179 0 180 1;
#X connect 180 0 184 0;
#X connect 181 0 180 0;
#X connect 181 0 188 0;
#X connect 182 0 185 0;
#X connect 183 0 182 0;
#X connect 183 0 190 0;
#X connect 184 0 182 1;
#X connect 186 0 187 1;
#X connect 187 0 191 0;
#X connect 188 0 187 0;
#X connect 188 0 195 0;
#X connect 189 0 192 0;
#X connect 190 0 189 0;
#X connect 190 0 197 0;
#X connect 191 0 189 1;
#X connect 193 0 194 1;
#X connect 194 0 198 0;
#X connect 195 0 194 0;
#X connect 195 0 202 0;
#X connect 196 0 199 0;
#X connect 197 0 196 0;
#X connect 197 0 204 0;
#X connect 198 0 196 1;
#X connect 200 0 201 1;
#X connect 201 0 205 0;
#X connect 202 0 201 0;
#X connect 202 0 307 0;
#X connect 203 0 206 0;
#X connect 204 0 203 0;
#X connect 204 0 309 0;
#X connect 205 0 203 1;
#X connect 207 0 208 1;
#X connect 208 0 212 0;
#X connect 209 0 208 0;
#X connect 209 0 216 0;
#X connect 210 0 213 0;
#X connect 211 0 210 0;
#X connect 211 0 218 0;
#X connect 212 0 210 1;
#X connect 214 0 215 1;
#X connect 215 0 219 0;
#X connect 216 0 215 0;
#X connect 216 0 223 0;
#X connect 217 0 220 0;
#X connect 218 0 217 0;
#X connect 218 0 225 0;
#X connect 219 0 217 1;
#X connect 221 0 222 1;
#X connect 222 0 226 0;
#X connect 223 0 222 0;
#X connect 223 0 230 0;
#X connect 224 0 227 0;
#X connect 225 0 224 0;
#X connect 225 0 232 0;
#X connect 226 0 224 1;
#X connect 228 0 229 1;
#X connect 229 0 233 0;
#X connect 230 0 229 0;
#X connect 230 0 237 0;
#X connect 231 0 234 0;
#X connect 232 0 231 0;
#X connect 232 0 239 0;
#X connect 233 0 231 1;
#X connect 235 0 236 1;
#X connect 236 0 240 0;
#X connect 237 0 236 0;
#X connect 237 0 244 0;
#X connect 238 0 241 0;
#X connect 239 0 238 0;
#X connect 239 0 246 0;
#X connect 240 0 238 1;
#X connect 242 0 243 1;
#X connect 243 0 247 0;
#X connect 244 0 243 0;
#X connect 244 0 251 0;
#X connect 245 0 248 0;
#X connect 246 0 245 0;
#X connect 246 0 253 0;
#X connect 247 0 245 1;
#X connect 249 0 250 1;
#X connect 250 0 254 0;
#X connect 251 0 250 0;
#X connect 251 0 258 0;
#X connect 252 0 255 0;
#X connect 253 0 252 0;
#X connect 253 0 260 0;
#X connect 254 0 252 1;
#X connect 256 0 257 1;
#X connect 257 0 261 0;
#X connect 258 0 257 0;
#X connect 258 0 265 0;
#X connect 259 0 262 0;
#X connect 260 0 259 0;
#X connect 260 0 267 0;
#X connect 261 0 259 1;
#X connect 263 0 264 1;
#X connect 264 0 268 0;
#X connect 265 0 264 0;
#X connect 265 0 272 0;
#X connect 266 0 269 0;
#X connect 267 0 266 0;
#X connect 267 0 274 0;
#X connect 268 0 266 1;
#X connect 270 0 271 1;
#X connect 271 0 275 0;
#X connect 272 0 271 0;
#X connect 272 0 279 0;
#X connect 273 0 276 0;
#X connect 274 0 273 0;
#X connect 274 0 281 0;
#X connect 275 0 273 1;
#X connect 277 0 278 1;
#X connect 278 0 282 0;
#X connect 279 0 278 0;
#X connect 280 0 283 0;
#X connect 281 0 280 0;
#X connect 282 0 280 1;
#X connect 284 0 285 1;
#X connect 285 0 289 0;
#X connect 286 0 285 0;
#X connect 286 0 293 0;
#X connect 287 0 290 0;
#X connect 288 0 287 0;
#X connect 288 0 295 0;
#X connect 289 0 287 1;
#X connect 291 0 292 1;
#X connect 292 0 296 0;
#X connect 293 0 292 0;
#X connect 293 0 300 0;
#X connect 294 0 297 0;
#X connect 295 0 294 0;
#X connect 295 0 302 0;
#X connect 296 0 294 1;
#X connect 298 0 299 1;
#X connect 299 0 303 0;
#X connect 300 0 299 0;
#X connect 300 0 174 0;
#X connect 301 0 304 0;
#X connect 302 0 301 0;
#X connect 302 0 176 0;
#X connect 303 0 301 1;
#X connect 305 0 306 1;
#X connect 306 0 310 0;
#X connect 307 0 306 0;
#X connect 307 0 314 0;
#X connect 308 0 311 0;
#X connect 309 0 308 0;
#X connect 309 0 316 0;
#X connect 310 0 308 1;
#X connect 312 0 313 1;
#X connect 313 0 317 0;
#X connect 314 0 313 0;
#X connect 314 0 209 0;
#X connect 315 0 318 0;
#X connect 316 0 315 0;
#X connect 316 0 211 0;
#X connect 317 0 315 1;
#X connect 319 0 320 1;
#X connect 320 0 324 0;
#X connect 321 0 320 0;
#X connect 321 0 286 0;
#X connect 322 0 325 0;
#X connect 323 0 322 0;
#X connect 323 0 288 0;
#X connect 324 0 322 1;
#X connect 326 0 327 1;
#X connect 327 0 331 0;
#X connect 328 0 327 0;
#X connect 328 0 321 0;
#X connect 329 0 332 0;
#X connect 330 0 329 0;
#X connect 330 0 323 0;
#X connect 331 0 329 1;
#X connect 333 0 334 1;
#X connect 334 0 338 0;
#X connect 335 0 334 0;
#X connect 335 0 328 0;
#X connect 336 0 339 0;
#X connect 337 0 336 0;
#X connect 337 0 330 0;
#X connect 338 0 336 1;
#X connect 340 0 341 1;
#X connect 341 0 345 0;
#X connect 342 0 341 0;
#X connect 342 0 349 0;
#X connect 343 0 346 0;
#X connect 344 0 343 0;
#X connect 344 0 351 0;
#X connect 345 0 343 1;
#X connect 347 0 348 1;
#X connect 348 0 352 0;
#X connect 349 0 348 0;
#X connect 349 0 356 0;
#X connect 350 0 353 0;
#X connect 351 0 350 0;
#X connect 351 0 358 0;
#X connect 352 0 350 1;
#X connect 354 0 355 1;
#X connect 355 0 359 0;
#X connect 356 0 355 0;
#X connect 356 0 363 0;
#X connect 357 0 360 0;
#X connect 358 0 357 0;
#X connect 358 0 365 0;
#X connect 359 0 357 1;
#X connect 361 0 362 1;
#X connect 362 0 366 0;
#X connect 363 0 362 0;
#X connect 363 0 370 0;
#X connect 364 0 367 0;
#X connect 365 0 364 0;
#X connect 365 0 372 0;
#X connect 366 0 364 1;
#X connect 368 0 369 1;
#X connect 369 0 373 0;
#X connect 370 0 369 0;
#X connect 370 0 475 0;
#X connect 371 0 374 0;
#X connect 372 0 371 0;
#X connect 372 0 477 0;
#X connect 373 0 371 1;
#X connect 375 0 376 1;
#X connect 376 0 380 0;
#X connect 377 0 376 0;
#X connect 377 0 384 0;
#X connect 378 0 381 0;
#X connect 379 0 378 0;
#X connect 379 0 386 0;
#X connect 380 0 378 1;
#X connect 382 0 383 1;
#X connect 383 0 387 0;
#X connect 384 0 383 0;
#X connect 384 0 391 0;
#X connect 385 0 388 0;
#X connect 386 0 385 0;
#X connect 386 0 393 0;
#X connect 387 0 385 1;
#X connect 389 0 390 1;
#X connect 390 0 394 0;
#X connect 391 0 390 0;
#X connect 391 0 398 0;
#X connect 392 0 395 0;
#X connect 393 0 392 0;
#X connect 393 0 400 0;
#X connect 394 0 392 1;
#X connect 396 0 397 1;
#X connect 397 0 401 0;
#X connect 398 0 397 0;
#X connect 398 0 405 0;
#X connect 399 0 402 0;
#X connect 400 0 399 0;
#X connect 400 0 407 0;
#X connect 401 0 399 1;
#X connect 403 0 404 1;
#X connect 404 0 408 0;
#X connect 405 0 404 0;
#X connect 405 0 412 0;
#X connect 406 0 409 0;
#X connect 407 0 406 0;
#X connect 407 0 414 0;
#X connect 408 0 406 1;
#X connect 410 0 411 1;
#X connect 411 0 415 0;
#X connect 412 0 411 0;
#X connect 412 0 419 0;
#X connect 413 0 416 0;
#X connect 414 0 413 0;
#X connect 414 0 421 0;
#X connect 415 0 413 1;
#X connect 417 0 418 1;
#X connect 418 0 422 0;
#X connect 419 0 418 0;
#X connect 419 0 426 0;
#X connect 420 0 423 0;
#X connect 421 0 420 0;
#X connect 421 0 428 0;
#X connect 422 0 420 1;
#X connect 424 0 425 1;
#X connect 425 0 429 0;
#X connect 426 0 425 0;
#X connect 426 0 433 0;
#X connect 427 0 430 0;
#X connect 428 0 427 0;
#X connect 428 0 435 0;
#X connect 429 0 427 1;
#X connect 431 0 432 1;
#X connect 432 0 436 0;
#X connect 433 0 432 0;
#X connect 433 0 440 0;
#X connect 434 0 437 0;
#X connect 435 0 434 0;
#X connect 435 0 442 0;
#X connect 436 0 434 1;
#X connect 438 0 439 1;
#X connect 439 0 443 0;
#X connect 440 0 439 0;
#X connect 440 0 447 0;
#X connect 441 0 444 0;
#X connect 442 0 441 0;
#X connect 442 0 449 0;
#X connect 443 0 441 1;
#X connect 445 0 446 1;
#X connect 446 0 450 0;
#X connect 447 0 446 0;
#X connect 448 0 451 0;
#X connect 449 0 448 0;
#X connect 450 0 448 1;
#X connect 452 0 453 1;
#X connect 453 0 457 0;
#X connect 454 0 453 0;
#X connect 454 0 461 0;
#X connect 455 0 458 0;
#X connect 456 0 455 0;
#X connect 456 0 463 0;
#X connect 457 0 455 1;
#X connect 459 0 460 1;
#X connect 460 0 464 0;
#X connect 461 0 460 0;
#X connect 461 0 468 0;
#X connect 462 0 465 0;
#X connect 463 0 462 0;
#X connect 463 0 470 0;
#X connect 464 0 462 1;
#X connect 466 0 467 1;
#X connect 467 0 471 0;
#X connect 468 0 467 0;
#X connect 468 0 342 0;
#X connect 469 0 472 0;
#X connect 470 0 469 0;
#X connect 470 0 344 0;
#X connect 471 0 469 1;
#X connect 473 0 474 1;
#X connect 474 0 478 0;
#X connect 475 0 474 0;
#X connect 475 0 482 0;
#X connect 476 0 479 0;
#X connect 477 0 476 0;
#X connect 477 0 484 0;
#X connect 478 0 476 1;
#X connect 480 0 481 1;
#X connect 481 0 485 0;
#X connect 482 0 481 0;
#X connect 482 0 377 0;
#X connect 483 0 486 0;
#X connect 484 0 483 0;
#X connect 484 0 379 0;
#X connect 485 0 483 1;
#X connect 487 0 488 1;
#X connect 488 0 492 0;
#X connect 489 0 488 0;
#X connect 489 0 454 0;
#X connect 490 0 493 0;
#X connect 491 0 490 0;
#X connect 491 0 456 0;
#X connect 492 0 490 1;
#X connect 494 0 495 1;
#X connect 495 0 499 0;
#X connect 496 0 495 0;
#X connect 496 0 489 0;
#X connect 497 0 500 0;
#X connect 498 0 497 0;
#X connect 498 0 491 0;
#X connect 499 0 497 1;
#X connect 501 0 502 1;
#X connect 502 0 506 0;
#X connect 503 0 502 0;
#X connect 503 0 496 0;
#X connect 504 0 507 0;
#X connect 505 0 504 0;
#X connect 505 0 498 0;
#X connect 506 0 504 1;
#X connect 508 0 509 1;
#X connect 509 0 513 0;
#X connect 510 0 509 0;
#X connect 510 0 517 0;
#X connect 511 0 514 0;
#X connect 512 0 511 0;
#X connect 512 0 519 0;
#X connect 513 0 511 1;
#X connect 515 0 516 1;
#X connect 516 0 520 0;
#X connect 517 0 516 0;
#X connect 517 0 524 0;
#X connect 518 0 521 0;
#X connect 519 0 518 0;
#X connect 519 0 526 0;
#X connect 520 0 518 1;
#X connect 522 0 523 1;
#X connect 523 0 527 0;
#X connect 524 0 523 0;
#X connect 524 0 531 0;
#X connect 525 0 528 0;
#X connect 526 0 525 0;
#X connect 526 0 533 0;
#X connect 527 0 525 1;
#X connect 529 0 530 1;
#X connect 530 0 534 0;
#X connect 531 0 530 0;
#X connect 531 0 538 0;
#X connect 532 0 535 0;
#X connect 533 0 532 0;
#X connect 533 0 540 0;
#X connect 534 0 532 1;
#X connect 536 0 537 1;
#X connect 537 0 541 0;
#X connect 538 0 537 0;
#X connect 538 0 643 0;
#X connect 539 0 542 0;
#X connect 540 0 539 0;
#X connect 540 0 645 0;
#X connect 541 0 539 1;
#X connect 543 0 544 1;
#X connect 544 0 548 0;
#X connect 545 0 544 0;
#X connect 545 0 552 0;
#X connect 546 0 549 0;
#X connect 547 0 546 0;
#X connect 547 0 554 0;
#X connect 548 0 546 1;
#X connect 550 0 551 1;
#X connect 551 0 555 0;
#X connect 552 0 551 0;
#X connect 552 0 559 0;
#X connect 553 0 556 0;
#X connect 554 0 553 0;
#X connect 554 0 561 0;
#X connect 555 0 553 1;
#X connect 557 0 558 1;
#X connect 558 0 562 0;
#X connect 559 0 558 0;
#X connect 559 0 566 0;
#X connect 560 0 563 0;
#X connect 561 0 560 0;
#X connect 561 0 568 0;
#X connect 562 0 560 1;
#X connect 564 0 565 1;
#X connect 565 0 569 0;
#X connect 566 0 565 0;
#X connect 566 0 573 0;
#X connect 567 0 570 0;
#X connect 568 0 567 0;
#X connect 568 0 575 0;
#X connect 569 0 567 1;
#X connect 571 0 572 1;
#X connect 572 0 576 0;
#X connect 573 0 572 0;
#X connect 573 0 580 0;
#X connect 574 0 577 0;
#X connect 575 0 574 0;
#X connect 575 0 582 0;
#X connect 576 0 574 1;
#X connect 578 0 579 1;
#X connect 579 0 583 0;
#X connect 580 0 579 0;
#X connect 580 0 587 0;
#X connect 581 0 584 0;
#X connect 582 0 581 0;
#X connect 582 0 589 0;
#X connect 583 0 581 1;
#X connect 585 0 586 1;
#X connect 586 0 590 0;
#X connect 587 0 586 0;
#X connect 587 0 594 0;
#X connect 588 0 591 0;
#X connect 589 0 588 0;
#X connect 589 0 596 0;
#X connect 590 0 588 1;
#X connect 592 0 593 1;
#X connect 593 0 597 0;
#X connect 594 0 593 0;
#X connect 594 0 601 0;
#X connect 595 0 598 0;
#X connect 596 0 595 0;
#X connect 596 0 603 0;
#X connect 597 0 595 1;
#X connect 599 0 600 1;
#X connect 600 0 604 0;
#X connect 601 0 600 0;
#X connect 601 0 608 0;
#X connect 602 0 605 0;
#X connect 603 0 602 0;
#X connect 603 0 610 0;
#X connect 604 0 602 1;
#X connect 606 0 607 1;
#X connect 607 0 611 0;
#X connect 608 0 607 0;
#X connect 608 0 615 0;
#X connect 609 0 612 0;
#X connect 610 0 609 0;
#X connect 610 0 617 0;
#X connect 611 0 609 1;
#X connect 613 0 614 1;
#X connect 614 0 618 0;
#X connect 615 0 614 0;
#X connect 616 0 619 0;
#X connect 617 0 616 0;
#X connect 618 0 616 1;
#X connect 620 0 621 1;
#X connect 621 0 625 0;
#X connect 622 0 621 0;
#X connect 622 0 629 0;
#X connect 623 0 626 0;
#X connect 624 0 623 0;
#X connect 624 0 631 0;
#X connect 625 0 623 1;
#X connect 627 0 628 1;
#X connect 628 0 632 0;
#X connect 629 0 628 0;
#X connect 629 0 636 0;
#X connect 630 0 633 0;
#X connect 631 0 630 0;
#X connect 631 0 638 0;
#X connect 632 0 630 1;
#X connect 634 0 635 1;
#X connect 635 0 639 0;
#X connect 636 0 635 0;
#X connect 636 0 510 0;
#X connect 637 0 640 0;
#X connect 638 0 637 0;
#X connect 638 0 512 0;
#X connect 639 0 637 1;
#X connect 641 0 642 1;
#X connect 642 0 646 0;
#X connect 643 0 642 0;
#X connect 643 0 650 0;
#X connect 644 0 647 0;
#X connect 645 0 644 0;
#X connect 645 0 652 0;
#X connect 646 0 644 1;
#X connect 648 0 649 1;
#X connect 649 0 653 0;
#X connect 650 0 649 0;
#X connect 650 0 545 0;
#X connect 651 0 654 0;
#X connect 652 0 651 0;
#X connect 652 0 547 0;
#X connect 653 0 651 1;
#X connect 655 0 656 1;
#X connect 656 0 660 0;
#X connect 657 0 656 0;
#X connect 657 0 622 0;
#X connect 658 0 661 0;
#X connect 659 0 658 0;
#X connect 659 0 624 0;
#X connect 660 0 658 1;
#X connect 662 0 663 1;
#X connect 663 0 667 0;
#X connect 664 0 663 0;
#X connect 664 0 657 0;
#X connect 665 0 668 0;
#X connect 666 0 665 0;
#X connect 666 0 659 0;
#X connect 667 0 665 1;
#X connect 669 0 670 1;
#X connect 670 0 674 0;
#X connect 671 0 670 0;
#X connect 671 0 664 0;
#X connect 672 0 675 0;
#X connect 673 0 672 0;
#X connect 673 0 666 0;
#X connect 674 0 672 1;
#X connect 676 0 0 0;
#X connect 677 0 1 0;
#X connect 678 0 679 1;
#X connect 679 0 683 0;
#X connect 680 0 679 0;
#X connect 680 0 167 0;
#X connect 681 0 684 0;
#X connect 682 0 681 0;
#X connect 682 0 169 0;
#X connect 683 0 681 1;
#X connect 683 0 686 0;
#X connect 685 0 683 0;
#X connect 687 0 170 0;
#X connect 689 0 163 0;
#X connect 691 0 156 0;
#X connect 693 0 119 0;
#X connect 695 0 126 0;
#X connect 697 0 133 0;
#X connect 699 0 7 0;
#X connect 701 0 14 0;
#X connect 703 0 21 0;
#X connect 705 0 28 0;
#X connect 707 0 35 0;
#X connect 709 0 142 0;
#X connect 711 0 149 0;
#X connect 713 0 42 0;
#X connect 715 0 49 0;
#X connect 717 0 56 0;
#X connect 719 0 63 0;
#X connect 721 0 70 0;
#X connect 723 0 77 0;
#X connect 725 0 84 0;
#X connect 727 0 91 0;
#X connect 729 0 98 0;
#X connect 731 0 105 0;
#X connect 733 0 112 0;
#X coords 0 -1 1 1 150 22 2 100 100;
