#N canvas 0 22 450 300 12;
#X obj 0 96;
#X obj 20 104 tgl 15 0 empty empty empty 17 7 0 10 -262144 -1 -1 0
1;
#X obj 101 101 tgl 18 0 empty empty + -2 8 0 38 -260097 -1 -1 0 1;
#X obj 151 110 savestat$B;
#X obj 152 156 savestateITB;
#X obj 151 133 savestateTB;
#X obj 152 179 savestateprogB;
#X obj 152 204 savestate+B;
#X obj 151 63 r saveselB;
#X obj 267 64 r loadselB;
#X connect 8 0 3 0;
#X connect 8 0 5 0;
#X connect 8 0 4 0;
#X connect 8 0 6 0;
#X connect 8 0 7 0;
#X connect 9 0 3 1;
#X connect 9 0 5 1;
#X connect 9 0 4 1;
#X connect 9 0 6 1;
#X connect 9 0 7 1;
#X coords 0 -1 1 1 20 20 2 100 100;
