#N canvas 1680 57 1680 1001 10;
#X floatatom 1106 -65 5 0 0 0 receive_#1B #1B -;
#X obj 1100 -13 f;
#X obj 1077 -34 bng 15 250 50 0 empty empty write -35 7 0 10 -262144
-1 -1;
#X obj 1083 56 f;
#X obj 1082 34 bng 15 250 50 0 empty empty send -30 7 0 10 -262144
-1 -1;
#X floatatom 1101 15 5 0 0 0 - - -;
#X floatatom 1083 79 5 0 0 0 send_#1B - send_#1B;
#X floatatom 1163 34 5 0 0 0 - - -;
#X obj 1163 14 tgl 15 0 empty empty empty 17 7 0 10 -262144 -1 -1 1
1;
#X obj 1150 57 f;
#X obj 1134 122 f;
#X obj 1132 104 bng 15 250 50 0 empty empty send -30 7 0 10 -262144
-1 -1;
#X floatatom 1151 86 5 0 0 0 - - -;
#X obj 289 64 sel 0 1 2;
#X obj 259 405 sel 0 1 2;
#X floatatom 1316 -65 5 0 0 0 receive_#2B #2B -;
#X obj 1310 -13 f;
#X obj 1287 -34 bng 15 250 50 0 empty empty write -35 7 0 10 -262144
-1 -1;
#X obj 1293 56 f;
#X obj 1292 34 bng 15 250 50 0 empty empty send -30 7 0 10 -262144
-1 -1;
#X floatatom 1311 15 5 0 0 0 - - -;
#X floatatom 1293 79 5 0 0 0 send_#2B - send_#2B;
#X floatatom 1373 34 5 0 0 0 - - -;
#X obj 1373 14 tgl 15 0 empty empty empty 17 7 0 10 -262144 -1 -1 1
1;
#X obj 1360 57 f;
#X obj 1344 122 f;
#X obj 1342 104 bng 15 250 50 0 empty empty send -30 7 0 10 -262144
-1 -1;
#X floatatom 1361 86 5 0 0 0 - - -;
#X floatatom 1526 -65 3 0 0 0 receive_#3B #3B -;
#X obj 1520 -13 f;
#X obj 1497 -34 bng 15 250 50 0 empty empty write -35 7 0 10 -262144
-1 -1;
#X obj 1503 56 f;
#X obj 1502 34 bng 15 250 50 0 empty empty send -30 7 0 10 -262144
-1 -1;
#X floatatom 1521 15 5 0 0 0 - - -;
#X floatatom 1503 79 5 0 0 0 send_#3B - send_#3B;
#X floatatom 1583 34 5 0 0 0 - - -;
#X obj 1583 14 tgl 15 0 empty empty empty 17 7 0 10 -262144 -1 -1 1
1;
#X obj 1570 57 f;
#X obj 1554 122 f;
#X obj 1552 104 bng 15 250 50 0 empty empty send -30 7 0 10 -262144
-1 -1;
#X floatatom 1571 86 5 0 0 0 - - -;
#X floatatom 1736 -65 5 0 0 0 receive_#4B #4B -;
#X obj 1730 -13 f;
#X obj 1707 -34 bng 15 250 50 0 empty empty write -35 7 0 10 -262144
-1 -1;
#X obj 1713 56 f;
#X obj 1712 34 bng 15 250 50 0 empty empty send -30 7 0 10 -262144
-1 -1;
#X floatatom 1731 15 5 0 0 0 - - -;
#X floatatom 1713 79 5 0 0 0 send_#4B - send_#4B;
#X floatatom 1793 34 5 0 0 0 - - -;
#X obj 1793 14 tgl 15 0 empty empty empty 17 7 0 10 -262144 -1 -1 1
1;
#X obj 1780 57 f;
#X obj 1764 122 f;
#X obj 1762 104 bng 15 250 50 0 empty empty send -30 7 0 10 -262144
-1 -1;
#X floatatom 1781 86 5 0 0 0 - - -;
#X floatatom 1936 -65 5 0 0 0 receive_#5B #5B -;
#X obj 1930 -13 f;
#X obj 1907 -34 bng 15 250 50 0 empty empty write -35 7 0 10 -262144
-1 -1;
#X obj 1913 56 f;
#X obj 1912 34 bng 15 250 50 0 empty empty send -30 7 0 10 -262144
-1 -1;
#X floatatom 1931 15 5 0 0 0 - - -;
#X floatatom 1913 79 5 0 0 0 send_#5B - send_#5B;
#X floatatom 1993 34 5 0 0 0 - - -;
#X obj 1993 14 tgl 15 0 empty empty empty 17 7 0 10 -262144 -1 -1 1
1;
#X obj 1980 57 f;
#X obj 1964 122 f;
#X obj 1962 104 bng 15 250 50 0 empty empty send -30 7 0 10 -262144
-1 -1;
#X floatatom 1981 86 5 0 0 0 - - -;
#X floatatom 2146 -65 5 0 0 0 receive_#6B #6B -;
#X obj 2140 -13 f;
#X obj 2117 -34 bng 15 250 50 0 empty empty write -35 7 0 10 -262144
-1 -1;
#X obj 2123 56 f;
#X obj 2122 34 bng 15 250 50 0 empty empty send -30 7 0 10 -262144
-1 -1;
#X floatatom 2141 15 5 0 0 0 - - -;
#X floatatom 2123 79 5 0 0 0 send_#6B - send_#6B;
#X floatatom 2203 34 5 0 0 0 - - -;
#X obj 2203 14 tgl 15 0 empty empty empty 17 7 0 10 -262144 -1 -1 1
1;
#X obj 2190 57 f;
#X obj 2174 122 f;
#X obj 2172 104 bng 15 250 50 0 empty empty send -30 7 0 10 -262144
-1 -1;
#X floatatom 2191 86 5 0 0 0 - - -;
#X floatatom 2356 -65 5 0 0 0 receive_#7B #7B -;
#X obj 2350 -13 f;
#X obj 2327 -34 bng 15 250 50 0 empty empty write -35 7 0 10 -262144
-1 -1;
#X obj 2333 56 f;
#X obj 2332 34 bng 15 250 50 0 empty empty send -30 7 0 10 -262144
-1 -1;
#X floatatom 2351 15 5 0 0 0 - - -;
#X floatatom 2333 79 5 0 0 0 send_#7B - send_#7B;
#X floatatom 2413 34 5 0 0 0 - - -;
#X obj 2413 14 tgl 15 0 empty empty empty 17 7 0 10 -262144 -1 -1 1
1;
#X obj 2400 57 f;
#X obj 2384 122 f;
#X obj 2382 104 bng 15 250 50 0 empty empty send -30 7 0 10 -262144
-1 -1;
#X floatatom 2401 86 5 0 0 0 - - -;
#X floatatom 2579 -64 5 0 0 0 receive_#8B #8B -;
#X obj 2573 -12 f;
#X obj 2550 -33 bng 15 250 50 0 empty empty write -35 7 0 10 -262144
-1 -1;
#X obj 2556 57 f;
#X obj 2555 35 bng 15 250 50 0 empty empty send -30 7 0 10 -262144
-1 -1;
#X floatatom 2574 16 5 0 0 0 - - -;
#X floatatom 2556 80 5 0 0 0 send_#8B - send_#8B;
#X floatatom 2636 35 5 0 0 0 - - -;
#X obj 2636 15 tgl 15 0 empty empty empty 17 7 0 10 -262144 -1 -1 1
1;
#X obj 2623 58 f;
#X obj 2607 123 f;
#X obj 2605 105 bng 15 250 50 0 empty empty send -30 7 0 10 -262144
-1 -1;
#X floatatom 2624 87 5 0 0 0 - - -;
#X floatatom 2789 -64 5 0 0 0 receive_#9B #9B -;
#X obj 2783 -12 f;
#X obj 2760 -33 bng 15 250 50 0 empty empty write -35 7 0 10 -262144
-1 -1;
#X obj 2766 57 f;
#X obj 2765 35 bng 15 250 50 0 empty empty send -30 7 0 10 -262144
-1 -1;
#X floatatom 2784 16 5 0 0 0 - - -;
#X floatatom 2766 80 5 0 0 0 send_#9B - send_#9B;
#X floatatom 2846 35 5 0 0 0 - - -;
#X obj 2846 15 tgl 15 0 empty empty empty 17 7 0 10 -262144 -1 -1 1
1;
#X obj 2833 58 f;
#X obj 2817 123 f;
#X obj 2815 105 bng 15 250 50 0 empty empty send -30 7 0 10 -262144
-1 -1;
#X floatatom 2834 87 5 0 0 0 - - -;
#X floatatom 2999 -64 5 0 0 0 receive_#10B #10B -;
#X obj 2993 -12 f;
#X obj 2970 -33 bng 15 250 50 0 empty empty write -35 7 0 10 -262144
-1 -1;
#X obj 2976 57 f;
#X obj 2975 35 bng 15 250 50 0 empty empty send -30 7 0 10 -262144
-1 -1;
#X floatatom 2994 16 5 0 0 0 - - -;
#X floatatom 2976 80 5 0 0 0 send_#10B - send_#10B;
#X floatatom 3056 35 5 0 0 0 - - -;
#X obj 3056 15 tgl 15 0 empty empty empty 17 7 0 10 -262144 -1 -1 1
1;
#X obj 3043 58 f;
#X obj 3027 123 f;
#X obj 3025 105 bng 15 250 50 0 empty empty send -30 7 0 10 -262144
-1 -1;
#X floatatom 3044 87 5 0 0 0 - - -;
#X floatatom 3421 -64 5 0 0 0 receive_#12B #12B -;
#X obj 3203 -12 f;
#X obj 3180 -33 bng 15 250 50 0 empty empty write -35 7 0 10 -262144
-1 -1;
#X obj 3186 57 f;
#X obj 3185 35 bng 15 250 50 0 empty empty send -30 7 0 10 -262144
-1 -1;
#X floatatom 3204 16 5 0 0 0 - - -;
#X floatatom 3186 80 5 0 0 0 send_#11B - send_#11B;
#X floatatom 3266 35 5 0 0 0 - - -;
#X obj 3266 15 tgl 15 0 empty empty empty 17 7 0 10 -262144 -1 -1 1
1;
#X obj 3253 58 f;
#X obj 3237 123 f;
#X obj 3235 105 bng 15 250 50 0 empty empty send -30 7 0 10 -262144
-1 -1;
#X floatatom 3254 87 5 0 0 0 - - -;
#X floatatom 3630 -64 5 0 0 0 receive_#13B #13B -;
#X obj 3403 -12 f;
#X obj 3380 -33 bng 15 250 50 0 empty empty write -35 7 0 10 -262144
-1 -1;
#X obj 3386 57 f;
#X obj 3385 35 bng 15 250 50 0 empty empty send -30 7 0 10 -262144
-1 -1;
#X floatatom 3404 16 5 0 0 0 - - -;
#X floatatom 3386 80 5 0 0 0 send_#12B - send_#12B;
#X floatatom 3466 35 5 0 0 0 - - -;
#X obj 3466 15 tgl 15 0 empty empty empty 17 7 0 10 -262144 -1 -1 1
1;
#X obj 3453 58 f;
#X obj 3437 123 f;
#X obj 3435 103 bng 15 250 50 0 empty empty send -30 7 0 10 -262144
-1 -1;
#X floatatom 3454 87 5 0 0 0 - - -;
#X floatatom 3842 -64 5 0 0 0 receive_#14B #14B -;
#X obj 3613 -12 f;
#X obj 3590 -33 bng 15 250 50 0 empty empty write -35 7 0 10 -262144
-1 -1;
#X obj 3596 57 f;
#X obj 3595 35 bng 15 250 50 0 empty empty send -30 7 0 10 -262144
-1 -1;
#X floatatom 3614 16 5 0 0 0 - - -;
#X floatatom 3596 80 5 0 0 0 send_#13B - send_#13B;
#X floatatom 3676 35 5 0 0 0 - - -;
#X obj 3676 15 tgl 15 0 empty empty empty 17 7 0 10 -262144 -1 -1 1
1;
#X obj 3663 58 f;
#X obj 3647 123 f;
#X obj 3645 105 bng 15 250 50 0 empty empty send -30 7 0 10 -262144
-1 -1;
#X floatatom 3664 87 5 0 0 0 - - -;
#X obj 3823 -12 f;
#X obj 3800 -33 bng 15 250 50 0 empty empty write -35 7 0 10 -262144
-1 -1;
#X obj 3806 57 f;
#X obj 3805 35 bng 15 250 50 0 empty empty send -30 7 0 10 -262144
-1 -1;
#X floatatom 3824 16 5 0 0 0 - - -;
#X floatatom 3806 80 5 0 0 0 send_#14B - send_#14B;
#X floatatom 3886 35 5 0 0 0 - - -;
#X obj 3886 15 tgl 15 0 empty empty empty 17 7 0 10 -262144 -1 -1 1
1;
#X obj 3873 58 f;
#X obj 3857 123 f;
#X obj 3855 105 bng 15 250 50 0 empty empty send -30 7 0 10 -262144
-1 -1;
#X floatatom 3874 87 5 0 0 0 - - -;
#X floatatom 4047 -64 5 0 0 0 receive_#15B #15B -;
#X obj 4033 -12 f;
#X obj 4010 -33 bng 15 250 50 0 empty empty write -35 7 0 10 -262144
-1 -1;
#X obj 4016 57 f;
#X obj 4015 35 bng 15 250 50 0 empty empty send -30 7 0 10 -262144
-1 -1;
#X floatatom 4034 16 5 0 0 0 - - -;
#X floatatom 4016 80 5 0 0 0 send_#15B - send_#15B;
#X floatatom 4096 35 5 0 0 0 - - -;
#X obj 4096 15 tgl 15 0 empty empty empty 17 7 0 10 -262144 -1 -1 1
1;
#X obj 4083 58 f;
#X obj 4067 123 f;
#X obj 4065 105 bng 15 250 50 0 empty empty send -30 7 0 10 -262144
-1 -1;
#X floatatom 4084 87 5 0 0 0 - - -;
#X floatatom 4252 -64 5 0 0 0 receive_#16B #16B -;
#X obj 4233 -12 f;
#X obj 4210 -33 bng 15 250 50 0 empty empty write -35 7 0 10 -262144
-1 -1;
#X obj 4216 57 f;
#X obj 4215 35 bng 15 250 50 0 empty empty send -30 7 0 10 -262144
-1 -1;
#X floatatom 4234 16 5 0 0 0 - - -;
#X floatatom 4216 80 5 0 0 0 send_#16B - send_#16B;
#X floatatom 4296 35 5 0 0 0 - - -;
#X obj 4296 15 tgl 15 0 empty empty empty 17 7 0 10 -262144 -1 -1 1
1;
#X obj 4283 58 f;
#X obj 4267 123 f;
#X obj 4265 105 bng 15 250 50 0 empty empty send -30 7 0 10 -262144
-1 -1;
#X floatatom 4284 87 5 0 0 0 - - -;
#X floatatom 3219 -64 5 0 0 0 receive_#11B #11B -;
#X floatatom 976 -65 5 0 0 0 receive_stpB stpB -;
#X obj 970 -13 f;
#X obj 947 -34 bng 15 250 50 0 empty empty write -35 7 0 10 -262144
-1 -1;
#X obj 953 56 f;
#X obj 952 34 bng 15 250 50 0 empty empty send -30 7 0 10 -262144 -1
-1;
#X floatatom 971 15 5 0 0 0 - - -;
#X floatatom 955 82 5 0 0 0 send_stpB - send_stpB;
#X obj 100 38 inlet;
#X obj 160 38 inlet;
#X obj 3748 127 r lo;
#X obj 1161 -7 r of32;
#X obj 1371 -7 r of33;
#X obj 1581 -7 r of34;
#X obj 1791 -7 r of35;
#X obj 1991 -7 r of36;
#X obj 2201 -7 r of37;
#X obj 2409 -7 r of38;
#X obj 2634 -6 r of39;
#X obj 2844 -6 r of40;
#X obj 3054 -6 r of41;
#X obj 3264 -6 r of42;
#X obj 3464 -6 r of43;
#X obj 3674 -6 r of44;
#X obj 3884 -6 r of45;
#X obj 4094 -6 r of46;
#X obj 4294 -6 r of47;
#X obj 4268 146 s of47;
#X obj 4068 146 s of46;
#X obj 3858 146 s of45;
#X obj 3648 146 s of44;
#X obj 3438 146 s of43;
#X obj 3238 145 s of42;
#X obj 3028 146 s of41;
#X obj 2818 146 s of40;
#X obj 2608 146 s of39;
#X obj 2385 145 s of38;
#X obj 2175 145 s of37;
#X obj 1964 145 s of36;
#X obj 1765 145 s of35;
#X obj 1555 145 s of34;
#X obj 1345 145 s of33;
#X obj 1135 145 s of32;
#X floatatom 1118 385 5 0 0 0 receive_#1B #1B -;
#X obj 1112 437 f;
#X obj 1089 416 bng 15 250 50 0 empty empty write -35 7 0 10 -262144
-1 -1;
#X obj 1095 506 f;
#X obj 1094 484 bng 15 250 50 0 empty empty send -30 7 0 10 -262144
-1 -1;
#X floatatom 1113 465 5 0 0 0 - - -;
#X floatatom 1095 529 5 0 0 0 send_#1B - send_#1B;
#X floatatom 1175 484 5 0 0 0 - - -;
#X obj 1175 464 tgl 15 0 empty empty empty 17 7 0 10 -262144 -1 -1
1 1;
#X obj 1162 507 f;
#X obj 1146 572 f;
#X obj 1144 554 bng 15 250 50 0 empty empty send -30 7 0 10 -262144
-1 -1;
#X floatatom 1163 536 5 0 0 0 - - -;
#X floatatom 1328 385 5 0 0 0 receive_#2B #2B -;
#X obj 1322 437 f;
#X obj 1299 416 bng 15 250 50 0 empty empty write -35 7 0 10 -262144
-1 -1;
#X obj 1305 506 f;
#X obj 1304 484 bng 15 250 50 0 empty empty send -30 7 0 10 -262144
-1 -1;
#X floatatom 1323 465 5 0 0 0 - - -;
#X floatatom 1305 529 5 0 0 0 send_#2B - send_#2B;
#X floatatom 1385 484 5 0 0 0 - - -;
#X obj 1385 464 tgl 15 0 empty empty empty 17 7 0 10 -262144 -1 -1
1 1;
#X obj 1372 507 f;
#X obj 1356 572 f;
#X obj 1354 554 bng 15 250 50 0 empty empty send -30 7 0 10 -262144
-1 -1;
#X floatatom 1373 536 5 0 0 0 - - -;
#X floatatom 1538 385 3 0 0 0 receive_#3B #3B -;
#X obj 1532 437 f;
#X obj 1509 416 bng 15 250 50 0 empty empty write -35 7 0 10 -262144
-1 -1;
#X obj 1515 506 f;
#X obj 1514 484 bng 15 250 50 0 empty empty send -30 7 0 10 -262144
-1 -1;
#X floatatom 1533 465 5 0 0 0 - - -;
#X floatatom 1515 529 5 0 0 0 send_#3B - send_#3B;
#X floatatom 1595 484 5 0 0 0 - - -;
#X obj 1595 464 tgl 15 0 empty empty empty 17 7 0 10 -262144 -1 -1
1 1;
#X obj 1582 507 f;
#X obj 1566 572 f;
#X obj 1564 554 bng 15 250 50 0 empty empty send -30 7 0 10 -262144
-1 -1;
#X floatatom 1583 536 5 0 0 0 - - -;
#X floatatom 1748 385 5 0 0 0 receive_#4B #4B -;
#X obj 1742 437 f;
#X obj 1719 416 bng 15 250 50 0 empty empty write -35 7 0 10 -262144
-1 -1;
#X obj 1725 506 f;
#X obj 1724 484 bng 15 250 50 0 empty empty send -30 7 0 10 -262144
-1 -1;
#X floatatom 1743 465 5 0 0 0 - - -;
#X floatatom 1725 529 5 0 0 0 send_#4B - send_#4B;
#X floatatom 1805 484 5 0 0 0 - - -;
#X obj 1805 464 tgl 15 0 empty empty empty 17 7 0 10 -262144 -1 -1
1 1;
#X obj 1792 507 f;
#X obj 1776 572 f;
#X obj 1774 554 bng 15 250 50 0 empty empty send -30 7 0 10 -262144
-1 -1;
#X floatatom 1793 536 5 0 0 0 - - -;
#X floatatom 1948 385 5 0 0 0 receive_#5B #5B -;
#X obj 1942 437 f;
#X obj 1919 416 bng 15 250 50 0 empty empty write -35 7 0 10 -262144
-1 -1;
#X obj 1925 506 f;
#X obj 1924 484 bng 15 250 50 0 empty empty send -30 7 0 10 -262144
-1 -1;
#X floatatom 1943 465 5 0 0 0 - - -;
#X floatatom 1925 529 5 0 0 0 send_#5B - send_#5B;
#X floatatom 2005 484 5 0 0 0 - - -;
#X obj 2005 464 tgl 15 0 empty empty empty 17 7 0 10 -262144 -1 -1
1 1;
#X obj 1992 507 f;
#X obj 1976 572 f;
#X obj 1974 554 bng 15 250 50 0 empty empty send -30 7 0 10 -262144
-1 -1;
#X floatatom 1993 536 5 0 0 0 - - -;
#X floatatom 2158 385 5 0 0 0 receive_#6B #6B -;
#X obj 2152 437 f;
#X obj 2129 416 bng 15 250 50 0 empty empty write -35 7 0 10 -262144
-1 -1;
#X obj 2135 506 f;
#X obj 2134 484 bng 15 250 50 0 empty empty send -30 7 0 10 -262144
-1 -1;
#X floatatom 2153 465 5 0 0 0 - - -;
#X floatatom 2135 529 5 0 0 0 send_#6B - send_#6B;
#X floatatom 2215 484 5 0 0 0 - - -;
#X obj 2215 464 tgl 15 0 empty empty empty 17 7 0 10 -262144 -1 -1
1 1;
#X obj 2202 507 f;
#X obj 2186 572 f;
#X obj 2184 554 bng 15 250 50 0 empty empty send -30 7 0 10 -262144
-1 -1;
#X floatatom 2203 536 5 0 0 0 - - -;
#X floatatom 2368 385 5 0 0 0 receive_#7B #7B -;
#X obj 2362 437 f;
#X obj 2339 416 bng 15 250 50 0 empty empty write -35 7 0 10 -262144
-1 -1;
#X obj 2345 506 f;
#X obj 2344 484 bng 15 250 50 0 empty empty send -30 7 0 10 -262144
-1 -1;
#X floatatom 2363 465 5 0 0 0 - - -;
#X floatatom 2345 529 5 0 0 0 send_#7B - send_#7B;
#X floatatom 2425 484 5 0 0 0 - - -;
#X obj 2425 464 tgl 15 0 empty empty empty 17 7 0 10 -262144 -1 -1
1 1;
#X obj 2412 507 f;
#X obj 2396 572 f;
#X obj 2394 554 bng 15 250 50 0 empty empty send -30 7 0 10 -262144
-1 -1;
#X floatatom 2413 536 5 0 0 0 - - -;
#X floatatom 2591 386 5 0 0 0 receive_#8B #8B -;
#X obj 2585 438 f;
#X obj 2562 417 bng 15 250 50 0 empty empty write -35 7 0 10 -262144
-1 -1;
#X obj 2568 507 f;
#X obj 2567 485 bng 15 250 50 0 empty empty send -30 7 0 10 -262144
-1 -1;
#X floatatom 2586 466 5 0 0 0 - - -;
#X floatatom 2568 530 5 0 0 0 send_#8B - send_#8B;
#X floatatom 2648 485 5 0 0 0 - - -;
#X obj 2648 465 tgl 15 0 empty empty empty 17 7 0 10 -262144 -1 -1
1 1;
#X obj 2635 508 f;
#X obj 2619 573 f;
#X obj 2617 555 bng 15 250 50 0 empty empty send -30 7 0 10 -262144
-1 -1;
#X floatatom 2636 537 5 0 0 0 - - -;
#X floatatom 2801 386 5 0 0 0 receive_#9B #9B -;
#X obj 2795 438 f;
#X obj 2772 417 bng 15 250 50 0 empty empty write -35 7 0 10 -262144
-1 -1;
#X obj 2778 507 f;
#X obj 2777 485 bng 15 250 50 0 empty empty send -30 7 0 10 -262144
-1 -1;
#X floatatom 2796 466 5 0 0 0 - - -;
#X floatatom 2778 530 5 0 0 0 send_#9B - send_#9B;
#X floatatom 2858 485 5 0 0 0 - - -;
#X obj 2858 465 tgl 15 0 empty empty empty 17 7 0 10 -262144 -1 -1
1 1;
#X obj 2845 508 f;
#X obj 2829 573 f;
#X obj 2827 555 bng 15 250 50 0 empty empty send -30 7 0 10 -262144
-1 -1;
#X floatatom 2846 537 5 0 0 0 - - -;
#X floatatom 3011 386 5 0 0 0 receive_#10B #10B -;
#X obj 3005 438 f;
#X obj 2982 417 bng 15 250 50 0 empty empty write -35 7 0 10 -262144
-1 -1;
#X obj 2988 507 f;
#X obj 2987 485 bng 15 250 50 0 empty empty send -30 7 0 10 -262144
-1 -1;
#X floatatom 3006 466 5 0 0 0 - - -;
#X floatatom 2988 530 5 0 0 0 send_#10B - send_#10B;
#X floatatom 3068 485 5 0 0 0 - - -;
#X obj 3068 465 tgl 15 0 empty empty empty 17 7 0 10 -262144 -1 -1
1 1;
#X obj 3055 508 f;
#X obj 3039 573 f;
#X obj 3037 555 bng 15 250 50 0 empty empty send -30 7 0 10 -262144
-1 -1;
#X floatatom 3056 537 5 0 0 0 - - -;
#X floatatom 3433 386 5 0 0 0 receive_#12B #12B -;
#X obj 3215 438 f;
#X obj 3192 417 bng 15 250 50 0 empty empty write -35 7 0 10 -262144
-1 -1;
#X obj 3198 507 f;
#X obj 3197 485 bng 15 250 50 0 empty empty send -30 7 0 10 -262144
-1 -1;
#X floatatom 3216 466 5 0 0 0 - - -;
#X floatatom 3198 530 5 0 0 0 send_#11B - send_#11B;
#X floatatom 3278 485 5 0 0 0 - - -;
#X obj 3278 465 tgl 15 0 empty empty empty 17 7 0 10 -262144 -1 -1
1 1;
#X obj 3265 508 f;
#X obj 3249 573 f;
#X obj 3247 555 bng 15 250 50 0 empty empty send -30 7 0 10 -262144
-1 -1;
#X floatatom 3266 537 5 0 0 0 - - -;
#X floatatom 3642 386 5 0 0 0 receive_#13B #13B -;
#X obj 3415 438 f;
#X obj 3392 417 bng 15 250 50 0 empty empty write -35 7 0 10 -262144
-1 -1;
#X obj 3398 507 f;
#X obj 3397 485 bng 15 250 50 0 empty empty send -30 7 0 10 -262144
-1 -1;
#X floatatom 3416 466 5 0 0 0 - - -;
#X floatatom 3398 530 5 0 0 0 send_#12B - send_#12B;
#X floatatom 3478 485 5 0 0 0 - - -;
#X obj 3478 465 tgl 15 0 empty empty empty 17 7 0 10 -262144 -1 -1
1 1;
#X obj 3465 508 f;
#X obj 3449 573 f;
#X obj 3447 553 bng 15 250 50 0 empty empty send -30 7 0 10 -262144
-1 -1;
#X floatatom 3466 537 5 0 0 0 - - -;
#X floatatom 3854 386 5 0 0 0 receive_#14B #14B -;
#X obj 3625 438 f;
#X obj 3602 417 bng 15 250 50 0 empty empty write -35 7 0 10 -262144
-1 -1;
#X obj 3608 507 f;
#X obj 3607 485 bng 15 250 50 0 empty empty send -30 7 0 10 -262144
-1 -1;
#X floatatom 3626 466 5 0 0 0 - - -;
#X floatatom 3608 530 5 0 0 0 send_#13B - send_#13B;
#X floatatom 3688 485 5 0 0 0 - - -;
#X obj 3688 465 tgl 15 0 empty empty empty 17 7 0 10 -262144 -1 -1
1 1;
#X obj 3675 508 f;
#X obj 3659 573 f;
#X obj 3657 555 bng 15 250 50 0 empty empty send -30 7 0 10 -262144
-1 -1;
#X floatatom 3676 537 5 0 0 0 - - -;
#X obj 3835 438 f;
#X obj 3812 417 bng 15 250 50 0 empty empty write -35 7 0 10 -262144
-1 -1;
#X obj 3818 507 f;
#X obj 3817 485 bng 15 250 50 0 empty empty send -30 7 0 10 -262144
-1 -1;
#X floatatom 3836 466 5 0 0 0 - - -;
#X floatatom 3818 530 5 0 0 0 send_#14B - send_#14B;
#X floatatom 3898 485 5 0 0 0 - - -;
#X obj 3898 465 tgl 15 0 empty empty empty 17 7 0 10 -262144 -1 -1
1 1;
#X obj 3885 508 f;
#X obj 3869 573 f;
#X obj 3867 555 bng 15 250 50 0 empty empty send -30 7 0 10 -262144
-1 -1;
#X floatatom 3886 537 5 0 0 0 - - -;
#X floatatom 4059 386 5 0 0 0 receive_#15B #15B -;
#X obj 4045 438 f;
#X obj 4022 417 bng 15 250 50 0 empty empty write -35 7 0 10 -262144
-1 -1;
#X obj 4028 507 f;
#X obj 4027 485 bng 15 250 50 0 empty empty send -30 7 0 10 -262144
-1 -1;
#X floatatom 4046 466 5 0 0 0 - - -;
#X floatatom 4028 530 5 0 0 0 send_#15B - send_#15B;
#X floatatom 4108 485 5 0 0 0 - - -;
#X obj 4108 465 tgl 15 0 empty empty empty 17 7 0 10 -262144 -1 -1
1 1;
#X obj 4095 508 f;
#X obj 4079 573 f;
#X obj 4077 555 bng 15 250 50 0 empty empty send -30 7 0 10 -262144
-1 -1;
#X floatatom 4096 537 5 0 0 0 - - -;
#X floatatom 4264 386 5 0 0 0 receive_#16B #16B -;
#X obj 4245 438 f;
#X obj 4222 417 bng 15 250 50 0 empty empty write -35 7 0 10 -262144
-1 -1;
#X obj 4228 507 f;
#X obj 4227 485 bng 15 250 50 0 empty empty send -30 7 0 10 -262144
-1 -1;
#X floatatom 4246 466 5 0 0 0 - - -;
#X floatatom 4228 530 5 0 0 0 send_#16B - send_#16B;
#X floatatom 4308 485 5 0 0 0 - - -;
#X obj 4308 465 tgl 15 0 empty empty empty 17 7 0 10 -262144 -1 -1
1 1;
#X obj 4295 508 f;
#X obj 4279 573 f;
#X obj 4277 555 bng 15 250 50 0 empty empty send -30 7 0 10 -262144
-1 -1;
#X floatatom 4296 537 5 0 0 0 - - -;
#X floatatom 3231 386 5 0 0 0 receive_#11B #11B -;
#X floatatom 988 385 5 0 0 0 receive_stpB stpB -;
#X obj 982 437 f;
#X obj 959 416 bng 15 250 50 0 empty empty write -35 7 0 10 -262144
-1 -1;
#X obj 965 506 f;
#X obj 964 484 bng 15 250 50 0 empty empty send -30 7 0 10 -262144
-1 -1;
#X floatatom 983 465 5 0 0 0 - - -;
#X floatatom 967 532 5 0 0 0 send_stpB - send_stpB;
#X obj 3760 577 r lo;
#X obj 1173 443 r of32;
#X obj 1383 443 r of33;
#X obj 1593 443 r of34;
#X obj 1803 443 r of35;
#X obj 2003 443 r of36;
#X obj 2213 443 r of37;
#X obj 2421 443 r of38;
#X obj 2646 444 r of39;
#X obj 2856 444 r of40;
#X obj 3066 444 r of41;
#X obj 3276 444 r of42;
#X obj 3476 444 r of43;
#X obj 3686 444 r of44;
#X obj 3896 444 r of45;
#X obj 4106 444 r of46;
#X obj 4306 444 r of47;
#X obj 4280 596 s of47;
#X obj 4080 596 s of46;
#X obj 3870 596 s of45;
#X obj 3660 596 s of44;
#X obj 3450 596 s of43;
#X obj 3250 595 s of42;
#X obj 3040 596 s of41;
#X obj 2830 596 s of40;
#X obj 2620 596 s of39;
#X obj 2397 595 s of38;
#X obj 2187 595 s of37;
#X obj 1976 595 s of36;
#X obj 1777 595 s of35;
#X obj 1567 595 s of34;
#X obj 1357 595 s of33;
#X obj 1147 595 s of32;
#X floatatom 1150 1090 5 0 0 0 receive_#1B #1B -;
#X obj 1144 1142 f;
#X obj 1121 1121 bng 15 250 50 0 empty empty write -35 7 0 10 -262144
-1 -1;
#X obj 1127 1211 f;
#X obj 1126 1189 bng 15 250 50 0 empty empty send -30 7 0 10 -262144
-1 -1;
#X floatatom 1145 1170 5 0 0 0 - - -;
#X floatatom 1127 1234 5 0 0 0 send_#1B - send_#1B;
#X floatatom 1207 1189 5 0 0 0 - - -;
#X obj 1207 1169 tgl 15 0 empty empty empty 17 7 0 10 -262144 -1 -1
1 1;
#X obj 1194 1212 f;
#X obj 1178 1277 f;
#X obj 1176 1259 bng 15 250 50 0 empty empty send -30 7 0 10 -262144
-1 -1;
#X floatatom 1195 1241 5 0 0 0 - - -;
#X floatatom 1360 1090 5 0 0 0 receive_#2B #2B -;
#X obj 1354 1142 f;
#X obj 1331 1121 bng 15 250 50 0 empty empty write -35 7 0 10 -262144
-1 -1;
#X obj 1337 1211 f;
#X obj 1336 1189 bng 15 250 50 0 empty empty send -30 7 0 10 -262144
-1 -1;
#X floatatom 1355 1170 5 0 0 0 - - -;
#X floatatom 1337 1234 5 0 0 0 send_#2B - send_#2B;
#X floatatom 1417 1189 5 0 0 0 - - -;
#X obj 1417 1169 tgl 15 0 empty empty empty 17 7 0 10 -262144 -1 -1
1 1;
#X obj 1404 1212 f;
#X obj 1388 1277 f;
#X obj 1386 1259 bng 15 250 50 0 empty empty send -30 7 0 10 -262144
-1 -1;
#X floatatom 1405 1241 5 0 0 0 - - -;
#X floatatom 1570 1090 3 0 0 0 receive_#3B #3B -;
#X obj 1564 1142 f;
#X obj 1541 1121 bng 15 250 50 0 empty empty write -35 7 0 10 -262144
-1 -1;
#X obj 1547 1211 f;
#X obj 1546 1189 bng 15 250 50 0 empty empty send -30 7 0 10 -262144
-1 -1;
#X floatatom 1565 1170 5 0 0 0 - - -;
#X floatatom 1547 1234 5 0 0 0 send_#3B - send_#3B;
#X floatatom 1627 1189 5 0 0 0 - - -;
#X obj 1627 1169 tgl 15 0 empty empty empty 17 7 0 10 -262144 -1 -1
1 1;
#X obj 1614 1212 f;
#X obj 1598 1277 f;
#X obj 1596 1259 bng 15 250 50 0 empty empty send -30 7 0 10 -262144
-1 -1;
#X floatatom 1615 1241 5 0 0 0 - - -;
#X floatatom 1780 1090 5 0 0 0 receive_#4B #4B -;
#X obj 1774 1142 f;
#X obj 1751 1121 bng 15 250 50 0 empty empty write -35 7 0 10 -262144
-1 -1;
#X obj 1757 1211 f;
#X obj 1756 1189 bng 15 250 50 0 empty empty send -30 7 0 10 -262144
-1 -1;
#X floatatom 1775 1170 5 0 0 0 - - -;
#X floatatom 1757 1234 5 0 0 0 send_#4B - send_#4B;
#X floatatom 1837 1189 5 0 0 0 - - -;
#X obj 1837 1169 tgl 15 0 empty empty empty 17 7 0 10 -262144 -1 -1
1 1;
#X obj 1824 1212 f;
#X obj 1808 1277 f;
#X obj 1806 1259 bng 15 250 50 0 empty empty send -30 7 0 10 -262144
-1 -1;
#X floatatom 1825 1241 5 0 0 0 - - -;
#X floatatom 1980 1090 5 0 0 0 receive_#5B #5B -;
#X obj 1974 1142 f;
#X obj 1951 1121 bng 15 250 50 0 empty empty write -35 7 0 10 -262144
-1 -1;
#X obj 1957 1211 f;
#X obj 1956 1189 bng 15 250 50 0 empty empty send -30 7 0 10 -262144
-1 -1;
#X floatatom 1975 1170 5 0 0 0 - - -;
#X floatatom 1957 1234 5 0 0 0 send_#5B - send_#5B;
#X floatatom 2037 1189 5 0 0 0 - - -;
#X obj 2037 1169 tgl 15 0 empty empty empty 17 7 0 10 -262144 -1 -1
1 1;
#X obj 2024 1212 f;
#X obj 2008 1277 f;
#X obj 2006 1259 bng 15 250 50 0 empty empty send -30 7 0 10 -262144
-1 -1;
#X floatatom 2025 1241 5 0 0 0 - - -;
#X floatatom 2190 1090 5 0 0 0 receive_#6B #6B -;
#X obj 2184 1142 f;
#X obj 2161 1121 bng 15 250 50 0 empty empty write -35 7 0 10 -262144
-1 -1;
#X obj 2167 1211 f;
#X obj 2166 1189 bng 15 250 50 0 empty empty send -30 7 0 10 -262144
-1 -1;
#X floatatom 2185 1170 5 0 0 0 - - -;
#X floatatom 2167 1234 5 0 0 0 send_#6B - send_#6B;
#X floatatom 2247 1189 5 0 0 0 - - -;
#X obj 2247 1169 tgl 15 0 empty empty empty 17 7 0 10 -262144 -1 -1
1 1;
#X obj 2234 1212 f;
#X obj 2218 1277 f;
#X obj 2216 1259 bng 15 250 50 0 empty empty send -30 7 0 10 -262144
-1 -1;
#X floatatom 2235 1241 5 0 0 0 - - -;
#X floatatom 2400 1090 5 0 0 0 receive_#7B #7B -;
#X obj 2394 1142 f;
#X obj 2371 1121 bng 15 250 50 0 empty empty write -35 7 0 10 -262144
-1 -1;
#X obj 2377 1211 f;
#X obj 2376 1189 bng 15 250 50 0 empty empty send -30 7 0 10 -262144
-1 -1;
#X floatatom 2395 1170 5 0 0 0 - - -;
#X floatatom 2377 1234 5 0 0 0 send_#7B - send_#7B;
#X floatatom 2457 1189 5 0 0 0 - - -;
#X obj 2457 1169 tgl 15 0 empty empty empty 17 7 0 10 -262144 -1 -1
1 1;
#X obj 2444 1212 f;
#X obj 2428 1277 f;
#X obj 2426 1259 bng 15 250 50 0 empty empty send -30 7 0 10 -262144
-1 -1;
#X floatatom 2445 1241 5 0 0 0 - - -;
#X floatatom 2623 1091 5 0 0 0 receive_#8B #8B -;
#X obj 2617 1143 f;
#X obj 2594 1122 bng 15 250 50 0 empty empty write -35 7 0 10 -262144
-1 -1;
#X obj 2600 1212 f;
#X obj 2599 1190 bng 15 250 50 0 empty empty send -30 7 0 10 -262144
-1 -1;
#X floatatom 2618 1171 5 0 0 0 - - -;
#X floatatom 2600 1235 5 0 0 0 send_#8B - send_#8B;
#X floatatom 2680 1190 5 0 0 0 - - -;
#X obj 2680 1170 tgl 15 0 empty empty empty 17 7 0 10 -262144 -1 -1
1 1;
#X obj 2667 1213 f;
#X obj 2651 1278 f;
#X obj 2649 1260 bng 15 250 50 0 empty empty send -30 7 0 10 -262144
-1 -1;
#X floatatom 2668 1242 5 0 0 0 - - -;
#X floatatom 2833 1091 5 0 0 0 receive_#9B #9B -;
#X obj 2827 1143 f;
#X obj 2804 1122 bng 15 250 50 0 empty empty write -35 7 0 10 -262144
-1 -1;
#X obj 2810 1212 f;
#X obj 2809 1190 bng 15 250 50 0 empty empty send -30 7 0 10 -262144
-1 -1;
#X floatatom 2828 1171 5 0 0 0 - - -;
#X floatatom 2810 1235 5 0 0 0 send_#9B - send_#9B;
#X floatatom 2890 1190 5 0 0 0 - - -;
#X obj 2890 1170 tgl 15 0 empty empty empty 17 7 0 10 -262144 -1 -1
1 1;
#X obj 2877 1213 f;
#X obj 2861 1278 f;
#X obj 2859 1260 bng 15 250 50 0 empty empty send -30 7 0 10 -262144
-1 -1;
#X floatatom 2878 1242 5 0 0 0 - - -;
#X floatatom 3043 1091 5 0 0 0 receive_#10B #10B -;
#X obj 3037 1143 f;
#X obj 3014 1122 bng 15 250 50 0 empty empty write -35 7 0 10 -262144
-1 -1;
#X obj 3020 1212 f;
#X obj 3019 1190 bng 15 250 50 0 empty empty send -30 7 0 10 -262144
-1 -1;
#X floatatom 3038 1171 5 0 0 0 - - -;
#X floatatom 3020 1235 5 0 0 0 send_#10B - send_#10B;
#X floatatom 3100 1190 5 0 0 0 - - -;
#X obj 3100 1170 tgl 15 0 empty empty empty 17 7 0 10 -262144 -1 -1
1 1;
#X obj 3087 1213 f;
#X obj 3071 1278 f;
#X obj 3069 1260 bng 15 250 50 0 empty empty send -30 7 0 10 -262144
-1 -1;
#X floatatom 3088 1242 5 0 0 0 - - -;
#X floatatom 3465 1091 5 0 0 0 receive_#12B #12B -;
#X obj 3247 1143 f;
#X obj 3224 1122 bng 15 250 50 0 empty empty write -35 7 0 10 -262144
-1 -1;
#X obj 3230 1212 f;
#X obj 3229 1190 bng 15 250 50 0 empty empty send -30 7 0 10 -262144
-1 -1;
#X floatatom 3248 1171 5 0 0 0 - - -;
#X floatatom 3230 1235 5 0 0 0 send_#11B - send_#11B;
#X floatatom 3310 1190 5 0 0 0 - - -;
#X obj 3310 1170 tgl 15 0 empty empty empty 17 7 0 10 -262144 -1 -1
1 1;
#X obj 3297 1213 f;
#X obj 3281 1278 f;
#X obj 3279 1260 bng 15 250 50 0 empty empty send -30 7 0 10 -262144
-1 -1;
#X floatatom 3298 1242 5 0 0 0 - - -;
#X floatatom 3674 1091 5 0 0 0 receive_#13B #13B -;
#X obj 3447 1143 f;
#X obj 3424 1122 bng 15 250 50 0 empty empty write -35 7 0 10 -262144
-1 -1;
#X obj 3430 1212 f;
#X obj 3429 1190 bng 15 250 50 0 empty empty send -30 7 0 10 -262144
-1 -1;
#X floatatom 3448 1171 5 0 0 0 - - -;
#X floatatom 3430 1235 5 0 0 0 send_#12B - send_#12B;
#X floatatom 3510 1190 5 0 0 0 - - -;
#X obj 3510 1170 tgl 15 0 empty empty empty 17 7 0 10 -262144 -1 -1
1 1;
#X obj 3497 1213 f;
#X obj 3481 1278 f;
#X obj 3479 1258 bng 15 250 50 0 empty empty send -30 7 0 10 -262144
-1 -1;
#X floatatom 3498 1242 5 0 0 0 - - -;
#X floatatom 3886 1091 5 0 0 0 receive_#14B #14B -;
#X obj 3657 1143 f;
#X obj 3634 1122 bng 15 250 50 0 empty empty write -35 7 0 10 -262144
-1 -1;
#X obj 3640 1212 f;
#X obj 3639 1190 bng 15 250 50 0 empty empty send -30 7 0 10 -262144
-1 -1;
#X floatatom 3658 1171 5 0 0 0 - - -;
#X floatatom 3640 1235 5 0 0 0 send_#13B - send_#13B;
#X floatatom 3720 1190 5 0 0 0 - - -;
#X obj 3720 1170 tgl 15 0 empty empty empty 17 7 0 10 -262144 -1 -1
1 1;
#X obj 3707 1213 f;
#X obj 3691 1278 f;
#X obj 3689 1260 bng 15 250 50 0 empty empty send -30 7 0 10 -262144
-1 -1;
#X floatatom 3708 1242 5 0 0 0 - - -;
#X obj 3867 1143 f;
#X obj 3844 1122 bng 15 250 50 0 empty empty write -35 7 0 10 -262144
-1 -1;
#X obj 3850 1212 f;
#X obj 3849 1190 bng 15 250 50 0 empty empty send -30 7 0 10 -262144
-1 -1;
#X floatatom 3868 1171 5 0 0 0 - - -;
#X floatatom 3850 1235 5 0 0 0 send_#14B - send_#14B;
#X floatatom 3930 1190 5 0 0 0 - - -;
#X obj 3930 1170 tgl 15 0 empty empty empty 17 7 0 10 -262144 -1 -1
1 1;
#X obj 3917 1213 f;
#X obj 3901 1278 f;
#X obj 3899 1260 bng 15 250 50 0 empty empty send -30 7 0 10 -262144
-1 -1;
#X floatatom 3918 1242 5 0 0 0 - - -;
#X floatatom 4091 1091 5 0 0 0 receive_#15B #15B -;
#X obj 4077 1143 f;
#X obj 4054 1122 bng 15 250 50 0 empty empty write -35 7 0 10 -262144
-1 -1;
#X obj 4060 1212 f;
#X obj 4059 1190 bng 15 250 50 0 empty empty send -30 7 0 10 -262144
-1 -1;
#X floatatom 4078 1171 5 0 0 0 - - -;
#X floatatom 4060 1235 5 0 0 0 send_#15B - send_#15B;
#X floatatom 4140 1190 5 0 0 0 - - -;
#X obj 4140 1170 tgl 15 0 empty empty empty 17 7 0 10 -262144 -1 -1
1 1;
#X obj 4127 1213 f;
#X obj 4111 1278 f;
#X obj 4109 1260 bng 15 250 50 0 empty empty send -30 7 0 10 -262144
-1 -1;
#X floatatom 4128 1242 5 0 0 0 - - -;
#X floatatom 4296 1091 5 0 0 0 receive_#16B #16B -;
#X obj 4277 1143 f;
#X obj 4254 1122 bng 15 250 50 0 empty empty write -35 7 0 10 -262144
-1 -1;
#X obj 4260 1212 f;
#X obj 4259 1190 bng 15 250 50 0 empty empty send -30 7 0 10 -262144
-1 -1;
#X floatatom 4278 1171 5 0 0 0 - - -;
#X floatatom 4260 1235 5 0 0 0 send_#16B - send_#16B;
#X floatatom 4340 1190 5 0 0 0 - - -;
#X obj 4340 1170 tgl 15 0 empty empty empty 17 7 0 10 -262144 -1 -1
1 1;
#X obj 4327 1213 f;
#X obj 4311 1278 f;
#X obj 4309 1260 bng 15 250 50 0 empty empty send -30 7 0 10 -262144
-1 -1;
#X floatatom 4328 1242 5 0 0 0 - - -;
#X floatatom 3263 1091 5 0 0 0 receive_#11B #11B -;
#X floatatom 1020 1090 5 0 0 0 receive_stpB stpB -;
#X obj 1014 1142 f;
#X obj 946 1119 bng 15 250 50 0 empty empty write -35 7 0 10 -262144
-1 -1;
#X obj 997 1211 f;
#X obj 951 1187 bng 15 250 50 0 empty empty send -30 7 0 10 -262144
-1 -1;
#X floatatom 1015 1170 5 0 0 0 - - -;
#X floatatom 999 1237 5 0 0 0 send_stpB - send_stpB;
#X obj 3792 1282 r lo;
#X obj 1205 1148 r of32;
#X obj 1415 1148 r of33;
#X obj 1625 1148 r of34;
#X obj 1835 1148 r of35;
#X obj 2035 1148 r of36;
#X obj 2245 1148 r of37;
#X obj 2453 1148 r of38;
#X obj 2678 1149 r of39;
#X obj 2888 1149 r of40;
#X obj 3098 1149 r of41;
#X obj 3308 1149 r of42;
#X obj 3508 1149 r of43;
#X obj 3718 1149 r of44;
#X obj 3928 1149 r of45;
#X obj 4138 1149 r of46;
#X obj 4338 1149 r of47;
#X obj 4312 1301 s of47;
#X obj 4112 1301 s of46;
#X obj 3902 1301 s of45;
#X obj 3692 1301 s of44;
#X obj 3482 1301 s of43;
#X obj 3282 1300 s of42;
#X obj 3072 1301 s of41;
#X obj 2862 1301 s of40;
#X obj 2652 1301 s of39;
#X obj 2429 1300 s of38;
#X obj 2219 1300 s of37;
#X obj 2008 1300 s of36;
#X obj 1809 1300 s of35;
#X obj 1599 1300 s of34;
#X obj 1389 1300 s of33;
#X obj 1179 1300 s of32;
#X floatatom 1118 715 5 0 0 0 receive_#1B #1B -;
#X obj 1112 767 f;
#X obj 1089 746 bng 15 250 50 0 empty empty write -35 7 0 10 -262144
-1 -1;
#X obj 1095 836 f;
#X obj 1094 814 bng 15 250 50 0 empty empty send -30 7 0 10 -262144
-1 -1;
#X floatatom 1113 795 5 0 0 0 - - -;
#X floatatom 1095 859 5 0 0 0 send_#1B - send_#1B;
#X floatatom 1175 814 5 0 0 0 - - -;
#X obj 1175 794 tgl 15 0 empty empty empty 17 7 0 10 -262144 -1 -1
1 1;
#X obj 1162 837 f;
#X obj 1146 902 f;
#X obj 1144 884 bng 15 250 50 0 empty empty send -30 7 0 10 -262144
-1 -1;
#X floatatom 1163 866 5 0 0 0 - - -;
#X floatatom 1328 715 5 0 0 0 receive_#2B #2B -;
#X obj 1322 767 f;
#X obj 1299 746 bng 15 250 50 0 empty empty write -35 7 0 10 -262144
-1 -1;
#X obj 1305 836 f;
#X obj 1304 814 bng 15 250 50 0 empty empty send -30 7 0 10 -262144
-1 -1;
#X floatatom 1323 795 5 0 0 0 - - -;
#X floatatom 1305 859 5 0 0 0 send_#2B - send_#2B;
#X floatatom 1385 814 5 0 0 0 - - -;
#X obj 1385 794 tgl 15 0 empty empty empty 17 7 0 10 -262144 -1 -1
1 1;
#X obj 1372 837 f;
#X obj 1356 902 f;
#X obj 1354 884 bng 15 250 50 0 empty empty send -30 7 0 10 -262144
-1 -1;
#X floatatom 1373 866 5 0 0 0 - - -;
#X floatatom 1538 715 3 0 0 0 receive_#3B #3B -;
#X obj 1532 767 f;
#X obj 1509 746 bng 15 250 50 0 empty empty write -35 7 0 10 -262144
-1 -1;
#X obj 1515 836 f;
#X obj 1514 814 bng 15 250 50 0 empty empty send -30 7 0 10 -262144
-1 -1;
#X floatatom 1533 795 5 0 0 0 - - -;
#X floatatom 1515 859 5 0 0 0 send_#3B - send_#3B;
#X floatatom 1595 814 5 0 0 0 - - -;
#X obj 1595 794 tgl 15 0 empty empty empty 17 7 0 10 -262144 -1 -1
1 1;
#X obj 1582 837 f;
#X obj 1566 902 f;
#X obj 1564 884 bng 15 250 50 0 empty empty send -30 7 0 10 -262144
-1 -1;
#X floatatom 1583 866 5 0 0 0 - - -;
#X floatatom 1748 715 5 0 0 0 receive_#4B #4B -;
#X obj 1742 767 f;
#X obj 1719 746 bng 15 250 50 0 empty empty write -35 7 0 10 -262144
-1 -1;
#X obj 1725 836 f;
#X obj 1724 814 bng 15 250 50 0 empty empty send -30 7 0 10 -262144
-1 -1;
#X floatatom 1743 795 5 0 0 0 - - -;
#X floatatom 1725 859 5 0 0 0 send_#4B - send_#4B;
#X floatatom 1805 814 5 0 0 0 - - -;
#X obj 1805 794 tgl 15 0 empty empty empty 17 7 0 10 -262144 -1 -1
1 1;
#X obj 1792 837 f;
#X obj 1776 902 f;
#X obj 1774 884 bng 15 250 50 0 empty empty send -30 7 0 10 -262144
-1 -1;
#X floatatom 1793 866 5 0 0 0 - - -;
#X floatatom 1948 715 5 0 0 0 receive_#5B #5B -;
#X obj 1942 767 f;
#X obj 1919 746 bng 15 250 50 0 empty empty write -35 7 0 10 -262144
-1 -1;
#X obj 1925 836 f;
#X obj 1924 814 bng 15 250 50 0 empty empty send -30 7 0 10 -262144
-1 -1;
#X floatatom 1943 795 5 0 0 0 - - -;
#X floatatom 1925 859 5 0 0 0 send_#5B - send_#5B;
#X floatatom 2005 814 5 0 0 0 - - -;
#X obj 2005 794 tgl 15 0 empty empty empty 17 7 0 10 -262144 -1 -1
1 1;
#X obj 1992 837 f;
#X obj 1976 902 f;
#X obj 1974 884 bng 15 250 50 0 empty empty send -30 7 0 10 -262144
-1 -1;
#X floatatom 1993 866 5 0 0 0 - - -;
#X floatatom 2158 715 5 0 0 0 receive_#6B #6B -;
#X obj 2152 767 f;
#X obj 2129 746 bng 15 250 50 0 empty empty write -35 7 0 10 -262144
-1 -1;
#X obj 2135 836 f;
#X obj 2134 814 bng 15 250 50 0 empty empty send -30 7 0 10 -262144
-1 -1;
#X floatatom 2153 795 5 0 0 0 - - -;
#X floatatom 2135 859 5 0 0 0 send_#6B - send_#6B;
#X floatatom 2215 814 5 0 0 0 - - -;
#X obj 2215 794 tgl 15 0 empty empty empty 17 7 0 10 -262144 -1 -1
1 1;
#X obj 2202 837 f;
#X obj 2186 902 f;
#X obj 2184 884 bng 15 250 50 0 empty empty send -30 7 0 10 -262144
-1 -1;
#X floatatom 2203 866 5 0 0 0 - - -;
#X floatatom 2368 715 5 0 0 0 receive_#7B #7B -;
#X obj 2362 767 f;
#X obj 2339 746 bng 15 250 50 0 empty empty write -35 7 0 10 -262144
-1 -1;
#X obj 2345 836 f;
#X obj 2344 814 bng 15 250 50 0 empty empty send -30 7 0 10 -262144
-1 -1;
#X floatatom 2363 795 5 0 0 0 - - -;
#X floatatom 2345 859 5 0 0 0 send_#7B - send_#7B;
#X floatatom 2425 814 5 0 0 0 - - -;
#X obj 2425 794 tgl 15 0 empty empty empty 17 7 0 10 -262144 -1 -1
1 1;
#X obj 2412 837 f;
#X obj 2396 902 f;
#X obj 2394 884 bng 15 250 50 0 empty empty send -30 7 0 10 -262144
-1 -1;
#X floatatom 2413 866 5 0 0 0 - - -;
#X floatatom 2591 716 5 0 0 0 receive_#8B #8B -;
#X obj 2585 768 f;
#X obj 2562 747 bng 15 250 50 0 empty empty write -35 7 0 10 -262144
-1 -1;
#X obj 2568 837 f;
#X obj 2567 815 bng 15 250 50 0 empty empty send -30 7 0 10 -262144
-1 -1;
#X floatatom 2586 796 5 0 0 0 - - -;
#X floatatom 2568 860 5 0 0 0 send_#8B - send_#8B;
#X floatatom 2648 815 5 0 0 0 - - -;
#X obj 2648 795 tgl 15 0 empty empty empty 17 7 0 10 -262144 -1 -1
1 1;
#X obj 2635 838 f;
#X obj 2619 903 f;
#X obj 2617 885 bng 15 250 50 0 empty empty send -30 7 0 10 -262144
-1 -1;
#X floatatom 2636 867 5 0 0 0 - - -;
#X floatatom 2801 716 5 0 0 0 receive_#9B #9B -;
#X obj 2795 768 f;
#X obj 2772 747 bng 15 250 50 0 empty empty write -35 7 0 10 -262144
-1 -1;
#X obj 2778 837 f;
#X obj 2777 815 bng 15 250 50 0 empty empty send -30 7 0 10 -262144
-1 -1;
#X floatatom 2796 796 5 0 0 0 - - -;
#X floatatom 2778 860 5 0 0 0 send_#9B - send_#9B;
#X floatatom 2858 815 5 0 0 0 - - -;
#X obj 2858 795 tgl 15 0 empty empty empty 17 7 0 10 -262144 -1 -1
1 1;
#X obj 2845 838 f;
#X obj 2829 903 f;
#X obj 2827 885 bng 15 250 50 0 empty empty send -30 7 0 10 -262144
-1 -1;
#X floatatom 2846 867 5 0 0 0 - - -;
#X floatatom 3011 716 5 0 0 0 receive_#10B #10B -;
#X obj 3005 768 f;
#X obj 2982 747 bng 15 250 50 0 empty empty write -35 7 0 10 -262144
-1 -1;
#X obj 2988 837 f;
#X obj 2987 815 bng 15 250 50 0 empty empty send -30 7 0 10 -262144
-1 -1;
#X floatatom 3006 796 5 0 0 0 - - -;
#X floatatom 2988 860 5 0 0 0 send_#10B - send_#10B;
#X floatatom 3068 815 5 0 0 0 - - -;
#X obj 3068 795 tgl 15 0 empty empty empty 17 7 0 10 -262144 -1 -1
1 1;
#X obj 3055 838 f;
#X obj 3039 903 f;
#X obj 3037 885 bng 15 250 50 0 empty empty send -30 7 0 10 -262144
-1 -1;
#X floatatom 3056 867 5 0 0 0 - - -;
#X floatatom 3433 716 5 0 0 0 receive_#12B #12B -;
#X obj 3215 768 f;
#X obj 3192 747 bng 15 250 50 0 empty empty write -35 7 0 10 -262144
-1 -1;
#X obj 3198 837 f;
#X obj 3197 815 bng 15 250 50 0 empty empty send -30 7 0 10 -262144
-1 -1;
#X floatatom 3216 796 5 0 0 0 - - -;
#X floatatom 3198 860 5 0 0 0 send_#11B - send_#11B;
#X floatatom 3278 815 5 0 0 0 - - -;
#X obj 3278 795 tgl 15 0 empty empty empty 17 7 0 10 -262144 -1 -1
1 1;
#X obj 3265 838 f;
#X obj 3249 903 f;
#X obj 3247 885 bng 15 250 50 0 empty empty send -30 7 0 10 -262144
-1 -1;
#X floatatom 3266 867 5 0 0 0 - - -;
#X floatatom 3642 716 5 0 0 0 receive_#13B #13B -;
#X obj 3415 768 f;
#X obj 3392 747 bng 15 250 50 0 empty empty write -35 7 0 10 -262144
-1 -1;
#X obj 3398 837 f;
#X obj 3397 815 bng 15 250 50 0 empty empty send -30 7 0 10 -262144
-1 -1;
#X floatatom 3416 796 5 0 0 0 - - -;
#X floatatom 3398 860 5 0 0 0 send_#12B - send_#12B;
#X floatatom 3478 815 5 0 0 0 - - -;
#X obj 3478 795 tgl 15 0 empty empty empty 17 7 0 10 -262144 -1 -1
1 1;
#X obj 3465 838 f;
#X obj 3449 903 f;
#X obj 3447 883 bng 15 250 50 0 empty empty send -30 7 0 10 -262144
-1 -1;
#X floatatom 3466 867 5 0 0 0 - - -;
#X floatatom 3854 716 5 0 0 0 receive_#14B #14B -;
#X obj 3625 768 f;
#X obj 3602 747 bng 15 250 50 0 empty empty write -35 7 0 10 -262144
-1 -1;
#X obj 3608 837 f;
#X obj 3607 815 bng 15 250 50 0 empty empty send -30 7 0 10 -262144
-1 -1;
#X floatatom 3626 796 5 0 0 0 - - -;
#X floatatom 3608 860 5 0 0 0 send_#13B - send_#13B;
#X floatatom 3688 815 5 0 0 0 - - -;
#X obj 3688 795 tgl 15 0 empty empty empty 17 7 0 10 -262144 -1 -1
1 1;
#X obj 3675 838 f;
#X obj 3659 903 f;
#X obj 3657 885 bng 15 250 50 0 empty empty send -30 7 0 10 -262144
-1 -1;
#X floatatom 3676 867 5 0 0 0 - - -;
#X obj 3835 768 f;
#X obj 3812 747 bng 15 250 50 0 empty empty write -35 7 0 10 -262144
-1 -1;
#X obj 3818 837 f;
#X obj 3817 815 bng 15 250 50 0 empty empty send -30 7 0 10 -262144
-1 -1;
#X floatatom 3836 796 5 0 0 0 - - -;
#X floatatom 3818 860 5 0 0 0 send_#14B - send_#14B;
#X floatatom 3898 815 5 0 0 0 - - -;
#X obj 3898 795 tgl 15 0 empty empty empty 17 7 0 10 -262144 -1 -1
1 1;
#X obj 3885 838 f;
#X obj 3869 903 f;
#X obj 3867 885 bng 15 250 50 0 empty empty send -30 7 0 10 -262144
-1 -1;
#X floatatom 3886 867 5 0 0 0 - - -;
#X floatatom 4059 716 5 0 0 0 receive_#15B #15B -;
#X obj 4045 768 f;
#X obj 4022 747 bng 15 250 50 0 empty empty write -35 7 0 10 -262144
-1 -1;
#X obj 4028 837 f;
#X obj 4027 815 bng 15 250 50 0 empty empty send -30 7 0 10 -262144
-1 -1;
#X floatatom 4046 796 5 0 0 0 - - -;
#X floatatom 4028 860 5 0 0 0 send_#15B - send_#15B;
#X floatatom 4108 815 5 0 0 0 - - -;
#X obj 4108 795 tgl 15 0 empty empty empty 17 7 0 10 -262144 -1 -1
1 1;
#X obj 4095 838 f;
#X obj 4079 903 f;
#X obj 4077 885 bng 15 250 50 0 empty empty send -30 7 0 10 -262144
-1 -1;
#X floatatom 4096 867 5 0 0 0 - - -;
#X floatatom 4264 716 5 0 0 0 receive_#16B #16B -;
#X obj 4245 768 f;
#X obj 4222 747 bng 15 250 50 0 empty empty write -35 7 0 10 -262144
-1 -1;
#X obj 4228 837 f;
#X obj 4227 815 bng 15 250 50 0 empty empty send -30 7 0 10 -262144
-1 -1;
#X floatatom 4246 796 5 0 0 0 - - -;
#X floatatom 4228 860 5 0 0 0 send_#16B - send_#16B;
#X floatatom 4308 815 5 0 0 0 - - -;
#X obj 4308 795 tgl 15 0 empty empty empty 17 7 0 10 -262144 -1 -1
1 1;
#X obj 4295 838 f;
#X obj 4279 903 f;
#X obj 4277 885 bng 15 250 50 0 empty empty send -30 7 0 10 -262144
-1 -1;
#X floatatom 4296 867 5 0 0 0 - - -;
#X floatatom 3231 716 5 0 0 0 receive_#11B #11B -;
#X floatatom 988 715 5 0 0 0 receive_stpB stpB -;
#X obj 982 767 f;
#X obj 959 746 bng 15 250 50 0 empty empty write -35 7 0 10 -262144
-1 -1;
#X obj 965 836 f;
#X obj 964 814 bng 15 250 50 0 empty empty send -30 7 0 10 -262144
-1 -1;
#X floatatom 983 795 5 0 0 0 - - -;
#X floatatom 967 862 5 0 0 0 send_stpB - send_stpB;
#X obj 3760 907 r lo;
#X obj 1173 773 r of32;
#X obj 1383 773 r of33;
#X obj 1593 773 r of34;
#X obj 1803 773 r of35;
#X obj 2003 773 r of36;
#X obj 2213 773 r of37;
#X obj 2421 773 r of38;
#X obj 2646 774 r of39;
#X obj 2856 774 r of40;
#X obj 3066 774 r of41;
#X obj 3276 774 r of42;
#X obj 3476 774 r of43;
#X obj 3686 774 r of44;
#X obj 3896 774 r of45;
#X obj 4106 774 r of46;
#X obj 4306 774 r of47;
#X obj 4280 926 s of47;
#X obj 4080 926 s of46;
#X obj 3870 926 s of45;
#X obj 3660 926 s of44;
#X obj 3450 926 s of43;
#X obj 3250 925 s of42;
#X obj 3040 926 s of41;
#X obj 2830 926 s of40;
#X obj 2620 926 s of39;
#X obj 2397 925 s of38;
#X obj 2187 925 s of37;
#X obj 1976 925 s of36;
#X obj 1777 925 s of35;
#X obj 1567 925 s of34;
#X obj 1357 925 s of33;
#X obj 1147 925 s of32;
#X floatatom 493 -73 5 0 0 0 receive_reposetoiX#B reposetoiX#B -;
#X obj 516 -21 f;
#X obj 493 -42 bng 15 250 50 0 empty empty write -35 7 0 10 -262144
-1 -1;
#X obj 499 48 f;
#X obj 498 26 bng 15 250 50 0 empty empty send -30 7 0 10 -262144 -1
-1;
#X floatatom 517 7 5 0 0 0 - - -;
#X floatatom 501 74 5 0 0 0 send_reposetoiX#B - send_reposetoiX#B;
#X floatatom 582 -6 5 0 0 0 - - -;
#X obj 582 -26 tgl 15 0 empty empty empty 17 7 0 10 -262144 -1 -1 0
1;
#X obj 569 17 f;
#X obj 553 82 f;
#X floatatom 570 46 5 0 0 0 - - -;
#X obj 554 105 s send_reposetoinoffB;
#X obj 578 -52 r reposetoinoffB;
#X floatatom 383 349 5 0 0 0 receive_reposetoiX#B reposetoiX#B -;
#X obj 406 401 f;
#X obj 383 380 bng 15 250 50 0 empty empty write -35 7 0 10 -262144
-1 -1;
#X obj 389 470 f;
#X obj 388 448 bng 15 250 50 0 empty empty send -30 7 0 10 -262144
-1 -1;
#X floatatom 407 429 5 0 0 0 - - -;
#X floatatom 391 496 5 0 0 0 send_reposetoiX#B - send_reposetoiX#B
;
#X floatatom 472 416 5 0 0 0 - - -;
#X obj 472 396 tgl 15 0 empty empty empty 17 7 0 10 -262144 -1 -1 0
1;
#X obj 459 439 f;
#X obj 443 504 f;
#X floatatom 460 468 5 0 0 0 - - -;
#X obj 444 527 s send_reposetoinoffB;
#X obj 468 370 r reposetoinoffB;
#X floatatom 383 739 5 0 0 0 receive_reposetoiX#B reposetoiX#B -;
#X obj 406 791 f;
#X obj 383 770 bng 15 250 50 0 empty empty write -35 7 0 10 -262144
-1 -1;
#X obj 389 860 f;
#X obj 388 838 bng 15 250 50 0 empty empty send -30 7 0 10 -262144
-1 -1;
#X floatatom 407 819 5 0 0 0 - - -;
#X floatatom 391 886 5 0 0 0 send_reposetoiX#B - send_reposetoiX#B
;
#X floatatom 472 806 5 0 0 0 - - -;
#X obj 472 786 tgl 15 0 empty empty empty 17 7 0 10 -262144 -1 -1 0
1;
#X obj 459 829 f;
#X obj 443 894 f;
#X floatatom 460 858 5 0 0 0 - - -;
#X obj 444 917 s send_reposetoinoffB;
#X obj 468 760 r reposetoinoffB;
#X floatatom 375 1014 5 0 0 0 receive_reposetoiX#B reposetoiX#B -;
#X obj 398 1066 f;
#X obj 375 1045 bng 15 250 50 0 empty empty write -35 7 0 10 -262144
-1 -1;
#X obj 381 1135 f;
#X obj 380 1113 bng 15 250 50 0 empty empty send -30 7 0 10 -262144
-1 -1;
#X floatatom 399 1094 5 0 0 0 - - -;
#X floatatom 383 1161 5 0 0 0 send_reposetoiX#B - send_reposetoiX#B
;
#X floatatom 464 1081 5 0 0 0 - - -;
#X obj 464 1061 tgl 15 0 empty empty empty 17 7 0 10 -262144 -1 -1
0 1;
#X obj 451 1104 f;
#X obj 435 1169 f;
#X floatatom 452 1133 5 0 0 0 - - -;
#X obj 436 1192 s send_reposetoinoffB;
#X obj 460 1035 r reposetoinoffB;
#X floatatom 822 -67 5 0 0 0 receives__ITB≠TB ITB≠TB -;
#X obj 816 -15 f;
#X obj 793 -36 bng 15 250 50 0 empty empty write -35 7 0 10 -262144
-1 -1;
#X obj 799 54 f;
#X obj 798 32 bng 15 250 50 0 empty empty send -30 7 0 10 -262144 -1
-1;
#X floatatom 817 13 5 0 0 0 - - -;
#X floatatom 801 80 5 0 0 0 send__ITB≠TB - sendITB≠TB;
#X floatatom 712 395 5 0 0 0 receives_ITDETonoff1 ITDETonoff1 -;
#X obj 706 447 f;
#X obj 683 426 bng 15 250 50 0 empty empty write -35 7 0 10 -262144
-1 -1;
#X obj 689 516 f;
#X obj 688 494 bng 15 250 50 0 empty empty send -30 7 0 10 -262144
-1 -1;
#X floatatom 707 475 5 0 0 0 - - -;
#X floatatom 691 542 5 0 0 0 send__ITDETonoffload1 - ITDETonoffload1
;
#X floatatom 712 745 5 0 0 0 receives_ITDETonoff1 ITDETonoff1 -;
#X obj 706 797 f;
#X obj 683 776 bng 15 250 50 0 empty empty write -35 7 0 10 -262144
-1 -1;
#X obj 689 866 f;
#X obj 688 844 bng 15 250 50 0 empty empty send -30 7 0 10 -262144
-1 -1;
#X floatatom 707 825 5 0 0 0 - - -;
#X floatatom 691 892 5 0 0 0 send__ITDETonoffload1 - ITDETonoffload1
;
#X floatatom 704 1060 5 0 0 0 receives_ITDETonoff1 ITDETonoff1 -;
#X obj 698 1112 f;
#X obj 675 1091 bng 15 250 50 0 empty empty write -35 7 0 10 -262144
-1 -1;
#X obj 681 1181 f;
#X obj 680 1159 bng 15 250 50 0 empty empty send -30 7 0 10 -262144
-1 -1;
#X floatatom 699 1140 5 0 0 0 - - -;
#X floatatom 683 1207 5 0 0 0 send__ITDETonoffload1 - ITDETonoffload1
;
#X obj 2213 -43 onoff37;
#X obj 2225 407 onoff37;
#X obj 2257 1112 onoff37;
#X obj 2225 737 onoff37;
#X obj 2394 -44 onoff38;
#X obj 2406 406 onoff38;
#X obj 2438 1111 onoff38;
#X obj 2406 736 onoff38;
#X obj 2647 -43 onoff39;
#X obj 2659 407 onoff39;
#X obj 2691 1112 onoff39;
#X obj 2659 737 onoff39;
#X obj 2867 -46 onoff40;
#X obj 2879 404 onoff40;
#X obj 2911 1109 onoff40;
#X obj 2879 734 onoff40;
#X obj 3083 -46 onoff41;
#X obj 3095 404 onoff41;
#X obj 3127 1109 onoff41;
#X obj 3095 734 onoff41;
#X obj 3305 -47 onoff42;
#X obj 3317 403 onoff42;
#X obj 3349 1108 onoff42;
#X obj 3317 733 onoff42;
#X obj 3479 -48 onoff43;
#X obj 3491 402 onoff43;
#X obj 3523 1107 onoff43;
#X obj 3491 732 onoff43;
#X obj 3673 -43 onoff44;
#X obj 3685 407 onoff44;
#X obj 3717 1112 onoff44;
#X obj 3685 737 onoff44;
#X obj 3889 -43 onoff45;
#X obj 3901 407 onoff45;
#X obj 3933 1112 onoff45;
#X obj 3901 737 onoff45;
#X obj 4113 -43 onoff46;
#X obj 4125 407 onoff46;
#X obj 4157 1112 onoff46;
#X obj 4125 737 onoff46;
#X obj 4307 -49 onoff47;
#X obj 4319 401 onoff47;
#X obj 4351 1106 onoff47;
#X obj 4319 731 onoff47;
#X obj 1581 -43 onoff34;
#X obj 1593 407 onoff34;
#X obj 1625 1112 onoff34;
#X obj 1593 737 onoff34;
#X obj 1168 -43 onoff32;
#X obj 1180 407 onoff32;
#X obj 1212 1112 onoff32;
#X obj 1180 717 onoff32;
#X obj 1361 -43 onoff33;
#X obj 1373 407 onoff33;
#X obj 1405 1112 onoff33;
#X obj 1373 737 onoff33;
#X obj 1761 -43 onoff35;
#X obj 1773 407 onoff35;
#X obj 1805 1112 onoff35;
#X obj 1773 737 onoff35;
#X obj 1971 -43 onoff36;
#X obj 1983 407 onoff36;
#X obj 2015 1112 onoff36;
#X obj 1983 737 onoff36;
#X obj 102 102 hradio 15 1 0 4 empty empty empty 8 -10 0 10 -99865
-262144 -262144 1;
#X obj 163 102 hradio 15 1 0 4 empty empty empty 1 -10 0 10 -128992
-1 -262144 1;
#X floatatom 806 -112 5 0 0 2 W.ITB≠TB W.ITB≠TB -;
#X floatatom 802 162 5 0 0 3 S.ITB≠TB - S.ITB≠TB;
#X floatatom 1090 162 5 0 0 3 S.stp1B - S.stp1B;
#X floatatom 1302 193 5 0 0 3 S.stp2B - S.stp2B;
#X floatatom 1523 193 5 0 0 3 S.stp3B - S.stp3B;
#X floatatom 1730 193 5 0 0 3 S.stp4B - S.stp4B;
#X floatatom 1931 193 5 0 0 3 S.stp5B - S.stp5B;
#X floatatom 2141 193 5 0 0 3 S.stp6B - S.stp6B;
#X floatatom 2367 193 5 0 0 3 S.stp7B - S.stp7B;
#X floatatom 2578 193 5 0 0 3 S.stp8B - S.stp8B;
#X floatatom 2780 193 5 0 0 3 S.stp9B - S.stp9B;
#X floatatom 3001 193 5 0 0 3 S.stp10B - S.stp10B;
#X floatatom 3204 193 5 0 0 3 S.stp11B - S.stp11B;
#X floatatom 3401 193 5 0 0 3 S.stp12B - S.stp12B;
#X floatatom 3615 193 5 0 0 3 S.stp13B - S.stp13B;
#X floatatom 3824 193 5 0 0 3 S.stp14B - S.stp14B;
#X floatatom 4034 193 5 0 0 3 S.stp15B - S.stp15B;
#X floatatom 4236 200 5 0 0 3 S.stp16B - S.stp16B;
#X floatatom 1099 -111 5 0 0 2 R.stp1B R.stp1B -;
#X floatatom 1327 -107 5 0 0 2 R.stp2B R.stp2B -;
#X floatatom 1494 -106 5 0 0 2 R.stp3B R.stp3B -;
#X floatatom 1718 -108 5 0 0 2 R.stp4B R.stp4B -;
#X floatatom 1931 -106 5 0 0 2 R.stp5B R.stp5B -;
#X floatatom 2135 -102 5 0 0 2 R.stp6B R.stp6B -;
#X floatatom 2367 -102 5 0 0 2 R.stp7B R.stp7B -;
#X floatatom 2593 -106 5 0 0 2 R.stp8B R.stp8B -;
#X floatatom 2791 -107 5 0 0 2 R.stp9B R.stp9B -;
#X floatatom 2989 -107 5 0 0 2 R.stp10B R.stp10B -;
#X floatatom 3220 -108 5 0 0 2 R.stp11B R.stp11B -;
#X floatatom 3422 -107 5 0 0 2 R.stp12B R.stp12B -;
#X floatatom 3598 -107 5 0 0 2 R.stp13B R.stp13B -;
#X floatatom 3828 -112 5 0 0 2 R.stp14B R.stp14B -;
#X floatatom 4029 -112 5 0 0 2 R.stp15B R.stp15B -;
#X floatatom 4241 -115 5 0 0 2 R.stp16B R.stp16B -;
#X floatatom 968 -111 5 0 0 2 R.stpB R.stpB -;
#X floatatom 968 162 5 0 0 3 S.stpB - S.stpB;
#X floatatom 449 -107 5 0 0 2 W.reposetoinoffB W.reposetoinoffB -;
#X floatatom 504 162 5 0 0 3 S.reposetoinoffB - S.reposetoinoffB;
#X floatatom 599 -107 5 0 0 2 W.reposetoi#B W.reposetoi#B -;
#X floatatom 631 162 5 0 0 3 S.reposetoi#B - S.reposetoi#B;
#X floatatom 1155 193 5 0 0 3 S.stp1øB - S.stp1øB;
#X floatatom 1164 -79 5 0 0 2 R.stp1øB R.stp1øB -;
#X floatatom 1357 173 5 0 0 3 S.stp2øB - S.stp2øB;
#X floatatom 1564 173 5 0 0 3 S.stp3øB - S.stp3øB;
#X floatatom 1778 173 5 0 0 3 S.stp4øB - S.stp4øB;
#X floatatom 1979 173 5 0 0 3 S.stp5øB - S.stp5øB;
#X floatatom 2187 177 5 0 0 3 S.stp6øB - S.stp6øB;
#X floatatom 2395 170 5 0 0 3 S.stp7øB - S.stp7øB;
#X floatatom 2621 170 5 0 0 3 S.stp8øB - S.stp8øB;
#X floatatom 2838 168 5 0 0 3 S.stp9øB - S.stp9øB;
#X floatatom 3040 168 5 0 0 3 S.stp10øB - S.stp10øB;
#X floatatom 3263 168 5 0 0 3 S.stp11øB - S.stp11øB;
#X floatatom 3452 168 5 0 0 3 S.stp12øB - S.stp12øB;
#X floatatom 3668 168 5 0 0 3 S.stp13øB - S.stp13øB;
#X floatatom 3882 168 5 0 0 3 S.stp14øB - S.stp14øB;
#X floatatom 4087 168 5 0 0 3 S.stp15øB - S.stp15øB;
#X floatatom 4289 168 5 0 0 3 S.stp16øB - S.stp16øB;
#X floatatom 1401 -81 5 0 0 2 R.stp2øB R.stp2øB -;
#X floatatom 1574 -80 5 0 0 2 R.stp3øB R.stp2øB -;
#X floatatom 1794 -78 5 0 0 2 R.stp4øB R.stp4øB -;
#X floatatom 1995 -78 5 0 0 2 R.stp5øB R.stp5øB -;
#X floatatom 2195 -78 5 0 0 2 R.stp6øB R.stp6øB -;
#X floatatom 2413 -78 5 0 0 2 R.stp7øB R.stp7øB -;
#X floatatom 2634 -78 5 0 0 2 R.stp8øB R.stp8øB -;
#X floatatom 2845 -78 5 0 0 2 R.stp9øB R.stp9øB -;
#X floatatom 3046 -78 5 0 0 2 R.stp10øB R.stp10øB -;
#X floatatom 3259 -78 5 0 0 2 R.stp11øB R.stp11øB -;
#X floatatom 3475 -78 5 0 0 2 R.stp12øB R.stp12øB -;
#X floatatom 3677 -78 5 0 0 2 R.stp13øB R.stp13øB -;
#X floatatom 3878 -78 5 0 0 2 R.stp14øB R.stp14øB -;
#X floatatom 4091 -78 5 0 0 2 R.stp15øB R.stp15øB -;
#X floatatom 4295 -78 5 0 0 2 R.stp16øB R.stp16øB -;
#X floatatom 866 393 5 0 0 0 receives__ITB≠TB ITB≠TB -;
#X obj 860 445 f;
#X obj 837 424 bng 15 250 50 0 empty empty write -35 7 0 10 -262144
-1 -1;
#X obj 843 514 f;
#X obj 842 492 bng 15 250 50 0 empty empty send -30 7 0 10 -262144
-1 -1;
#X floatatom 861 473 5 0 0 0 - - -;
#X floatatom 845 540 5 0 0 0 send__ITB≠TB - sendITB≠TB;
#X floatatom 856 353 5 0 0 2 W.ITB≠TB W.ITB≠TB -;
#X floatatom 856 571 5 0 0 3 S.ITB≠TB - S.ITB≠TB;
#X floatatom 863 744 5 0 0 0 receives__ITB≠TB ITB≠TB -;
#X obj 852 790 f;
#X obj 829 769 bng 15 250 50 0 empty empty write -35 7 0 10 -262144
-1 -1;
#X obj 835 859 f;
#X obj 834 837 bng 15 250 50 0 empty empty send -30 7 0 10 -262144
-1 -1;
#X floatatom 853 818 5 0 0 0 - - -;
#X floatatom 837 885 5 0 0 0 send__ITB≠TB - sendITB≠TB;
#X floatatom 849 711 5 0 0 2 W.ITB≠TB W.ITB≠TB -;
#X floatatom 850 927 5 0 0 3 S.ITB≠TB - S.ITB≠TB;
#X floatatom 867 1078 5 0 0 0 receives__ITB≠TB ITB≠TB -;
#X obj 845 1111 f;
#X obj 822 1090 bng 15 250 50 0 empty empty write -35 7 0 10 -262144
-1 -1;
#X obj 828 1180 f;
#X obj 827 1158 bng 15 250 50 0 empty empty send -30 7 0 10 -262144
-1 -1;
#X floatatom 846 1139 5 0 0 0 - - -;
#X floatatom 830 1206 5 0 0 0 send__ITB≠TB - sendITB≠TB;
#X floatatom 848 1055 5 0 0 2 W.ITB≠TB W.ITB≠TB -;
#X floatatom 847 1244 5 0 0 3 S.ITB≠TB - S.ITB≠TB;
#X connect 0 0 1 1;
#X connect 1 0 5 0;
#X connect 2 0 1 0;
#X connect 2 0 9 0;
#X connect 2 0 17 0;
#X connect 3 0 6 0;
#X connect 4 0 3 0;
#X connect 4 0 11 0;
#X connect 4 0 19 0;
#X connect 5 0 3 1;
#X connect 5 0 1148 0;
#X connect 7 0 9 1;
#X connect 8 0 7 0;
#X connect 9 0 12 0;
#X connect 10 0 251 0;
#X connect 11 0 10 0;
#X connect 12 0 10 1;
#X connect 12 0 1186 0;
#X connect 13 0 998 0;
#X connect 13 1 1012 0;
#X connect 13 2 1026 0;
#X connect 13 3 1040 0;
#X connect 14 0 1000 0;
#X connect 14 1 1014 0;
#X connect 14 2 1028 0;
#X connect 14 3 1042 0;
#X connect 15 0 16 1;
#X connect 16 0 20 0;
#X connect 17 0 16 0;
#X connect 17 0 24 0;
#X connect 17 0 30 0;
#X connect 18 0 21 0;
#X connect 19 0 18 0;
#X connect 19 0 26 0;
#X connect 19 0 32 0;
#X connect 20 0 18 1;
#X connect 20 0 1149 0;
#X connect 22 0 24 1;
#X connect 23 0 22 0;
#X connect 24 0 27 0;
#X connect 25 0 250 0;
#X connect 26 0 25 0;
#X connect 27 0 25 1;
#X connect 27 0 1188 0;
#X connect 28 0 29 1;
#X connect 29 0 33 0;
#X connect 30 0 29 0;
#X connect 30 0 37 0;
#X connect 30 0 43 0;
#X connect 31 0 34 0;
#X connect 32 0 31 0;
#X connect 32 0 39 0;
#X connect 32 0 45 0;
#X connect 33 0 31 1;
#X connect 33 0 1150 0;
#X connect 35 0 37 1;
#X connect 36 0 35 0;
#X connect 37 0 40 0;
#X connect 38 0 249 0;
#X connect 39 0 38 0;
#X connect 40 0 38 1;
#X connect 40 0 1189 0;
#X connect 41 0 42 1;
#X connect 42 0 46 0;
#X connect 43 0 42 0;
#X connect 43 0 50 0;
#X connect 43 0 56 0;
#X connect 44 0 47 0;
#X connect 45 0 44 0;
#X connect 45 0 52 0;
#X connect 45 0 58 0;
#X connect 46 0 44 1;
#X connect 46 0 1151 0;
#X connect 48 0 50 1;
#X connect 49 0 48 0;
#X connect 50 0 53 0;
#X connect 51 0 248 0;
#X connect 52 0 51 0;
#X connect 53 0 51 1;
#X connect 53 0 1190 0;
#X connect 54 0 55 1;
#X connect 55 0 59 0;
#X connect 56 0 55 0;
#X connect 56 0 63 0;
#X connect 56 0 69 0;
#X connect 57 0 60 0;
#X connect 58 0 57 0;
#X connect 58 0 65 0;
#X connect 58 0 71 0;
#X connect 59 0 57 1;
#X connect 59 0 1152 0;
#X connect 61 0 63 1;
#X connect 62 0 61 0;
#X connect 63 0 66 0;
#X connect 64 0 247 0;
#X connect 65 0 64 0;
#X connect 66 0 64 1;
#X connect 66 0 1191 0;
#X connect 67 0 68 1;
#X connect 68 0 72 0;
#X connect 69 0 68 0;
#X connect 69 0 76 0;
#X connect 69 0 82 0;
#X connect 70 0 73 0;
#X connect 71 0 70 0;
#X connect 71 0 78 0;
#X connect 71 0 84 0;
#X connect 72 0 70 1;
#X connect 72 0 1153 0;
#X connect 74 0 76 1;
#X connect 75 0 74 0;
#X connect 76 0 79 0;
#X connect 77 0 246 0;
#X connect 78 0 77 0;
#X connect 79 0 77 1;
#X connect 79 0 1192 0;
#X connect 80 0 81 1;
#X connect 81 0 85 0;
#X connect 82 0 81 0;
#X connect 82 0 89 0;
#X connect 82 0 95 0;
#X connect 83 0 86 0;
#X connect 84 0 83 0;
#X connect 84 0 91 0;
#X connect 84 0 97 0;
#X connect 85 0 83 1;
#X connect 85 0 1154 0;
#X connect 87 0 89 1;
#X connect 88 0 87 0;
#X connect 89 0 92 0;
#X connect 90 0 245 0;
#X connect 91 0 90 0;
#X connect 92 0 90 1;
#X connect 92 0 1193 0;
#X connect 93 0 94 1;
#X connect 94 0 98 0;
#X connect 95 0 94 0;
#X connect 95 0 102 0;
#X connect 95 0 108 0;
#X connect 96 0 99 0;
#X connect 97 0 96 0;
#X connect 97 0 104 0;
#X connect 97 0 110 0;
#X connect 98 0 96 1;
#X connect 98 0 1155 0;
#X connect 100 0 102 1;
#X connect 101 0 100 0;
#X connect 102 0 105 0;
#X connect 103 0 244 0;
#X connect 104 0 103 0;
#X connect 105 0 103 1;
#X connect 105 0 1194 0;
#X connect 106 0 107 1;
#X connect 107 0 111 0;
#X connect 108 0 107 0;
#X connect 108 0 115 0;
#X connect 108 0 121 0;
#X connect 109 0 112 0;
#X connect 110 0 109 0;
#X connect 110 0 117 0;
#X connect 110 0 123 0;
#X connect 111 0 109 1;
#X connect 111 0 1156 0;
#X connect 113 0 115 1;
#X connect 114 0 113 0;
#X connect 115 0 118 0;
#X connect 116 0 243 0;
#X connect 117 0 116 0;
#X connect 118 0 116 1;
#X connect 118 0 1195 0;
#X connect 119 0 120 1;
#X connect 120 0 124 0;
#X connect 121 0 120 0;
#X connect 121 0 128 0;
#X connect 121 0 134 0;
#X connect 122 0 125 0;
#X connect 123 0 122 0;
#X connect 123 0 130 0;
#X connect 123 0 136 0;
#X connect 124 0 122 1;
#X connect 124 0 1157 0;
#X connect 126 0 128 1;
#X connect 127 0 126 0;
#X connect 128 0 131 0;
#X connect 129 0 242 0;
#X connect 130 0 129 0;
#X connect 131 0 129 1;
#X connect 131 0 1196 0;
#X connect 132 0 146 1;
#X connect 133 0 137 0;
#X connect 134 0 133 0;
#X connect 134 0 141 0;
#X connect 134 0 147 0;
#X connect 135 0 138 0;
#X connect 136 0 135 0;
#X connect 136 0 143 0;
#X connect 136 0 149 0;
#X connect 137 0 135 1;
#X connect 137 0 1158 0;
#X connect 139 0 141 1;
#X connect 139 0 1197 0;
#X connect 140 0 139 0;
#X connect 141 0 144 0;
#X connect 142 0 241 0;
#X connect 143 0 142 0;
#X connect 144 0 142 1;
#X connect 145 0 159 1;
#X connect 146 0 150 0;
#X connect 147 0 146 0;
#X connect 147 0 154 0;
#X connect 147 0 160 0;
#X connect 148 0 151 0;
#X connect 149 0 148 0;
#X connect 149 0 156 0;
#X connect 149 0 162 0;
#X connect 150 0 148 1;
#X connect 150 0 1159 0;
#X connect 152 0 154 1;
#X connect 152 0 1198 0;
#X connect 153 0 152 0;
#X connect 154 0 157 0;
#X connect 155 0 240 0;
#X connect 156 0 155 0;
#X connect 157 0 155 1;
#X connect 158 0 171 1;
#X connect 159 0 163 0;
#X connect 160 0 159 0;
#X connect 160 0 167 0;
#X connect 160 0 172 0;
#X connect 161 0 164 0;
#X connect 162 0 161 0;
#X connect 162 0 169 0;
#X connect 162 0 174 0;
#X connect 163 0 161 1;
#X connect 163 0 1160 0;
#X connect 165 0 167 1;
#X connect 165 0 1199 0;
#X connect 166 0 165 0;
#X connect 167 0 170 0;
#X connect 168 0 239 0;
#X connect 169 0 168 0;
#X connect 170 0 168 1;
#X connect 171 0 175 0;
#X connect 172 0 171 0;
#X connect 172 0 179 0;
#X connect 172 0 185 0;
#X connect 173 0 176 0;
#X connect 174 0 173 0;
#X connect 174 0 181 0;
#X connect 174 0 187 0;
#X connect 175 0 173 1;
#X connect 175 0 1161 0;
#X connect 177 0 179 1;
#X connect 177 0 1200 0;
#X connect 178 0 177 0;
#X connect 179 0 182 0;
#X connect 180 0 238 0;
#X connect 181 0 180 0;
#X connect 182 0 180 1;
#X connect 183 0 184 1;
#X connect 184 0 188 0;
#X connect 185 0 184 0;
#X connect 185 0 192 0;
#X connect 185 0 198 0;
#X connect 186 0 189 0;
#X connect 187 0 186 0;
#X connect 187 0 194 0;
#X connect 187 0 200 0;
#X connect 188 0 186 1;
#X connect 188 0 1162 0;
#X connect 190 0 192 1;
#X connect 191 0 190 0;
#X connect 192 0 195 0;
#X connect 193 0 237 0;
#X connect 194 0 193 0;
#X connect 195 0 193 1;
#X connect 195 0 1201 0;
#X connect 196 0 197 1;
#X connect 197 0 201 0;
#X connect 198 0 197 0;
#X connect 198 0 205 0;
#X connect 199 0 202 0;
#X connect 200 0 199 0;
#X connect 200 0 207 0;
#X connect 201 0 199 1;
#X connect 201 0 1163 0;
#X connect 203 0 205 1;
#X connect 204 0 203 0;
#X connect 205 0 208 0;
#X connect 206 0 236 0;
#X connect 207 0 206 0;
#X connect 208 0 206 1;
#X connect 208 0 1202 0;
#X connect 209 0 133 1;
#X connect 210 0 211 1;
#X connect 211 0 215 0;
#X connect 212 0 211 0;
#X connect 212 0 2 0;
#X connect 213 0 216 0;
#X connect 214 0 213 0;
#X connect 214 0 4 0;
#X connect 215 0 213 1;
#X connect 215 0 1181 0;
#X connect 217 0 1144 0;
#X connect 218 0 1145 0;
#X connect 219 0 236 0;
#X connect 219 0 237 0;
#X connect 219 0 238 0;
#X connect 219 0 239 0;
#X connect 219 0 240 0;
#X connect 219 0 241 0;
#X connect 219 0 242 0;
#X connect 219 0 243 0;
#X connect 219 0 244 0;
#X connect 219 0 245 0;
#X connect 219 0 246 0;
#X connect 219 0 247 0;
#X connect 219 0 248 0;
#X connect 219 0 249 0;
#X connect 219 0 250 0;
#X connect 219 0 251 0;
#X connect 220 0 8 0;
#X connect 221 0 23 0;
#X connect 222 0 36 0;
#X connect 223 0 49 0;
#X connect 224 0 62 0;
#X connect 225 0 75 0;
#X connect 226 0 88 0;
#X connect 227 0 101 0;
#X connect 228 0 114 0;
#X connect 229 0 127 0;
#X connect 230 0 140 0;
#X connect 231 0 153 0;
#X connect 232 0 166 0;
#X connect 233 0 178 0;
#X connect 234 0 191 0;
#X connect 235 0 204 0;
#X connect 252 0 253 1;
#X connect 253 0 257 0;
#X connect 254 0 253 0;
#X connect 254 0 261 0;
#X connect 254 0 267 0;
#X connect 255 0 258 0;
#X connect 256 0 255 0;
#X connect 256 0 263 0;
#X connect 256 0 269 0;
#X connect 257 0 255 1;
#X connect 259 0 261 1;
#X connect 260 0 259 0;
#X connect 261 0 264 0;
#X connect 262 0 499 0;
#X connect 263 0 262 0;
#X connect 264 0 262 1;
#X connect 265 0 266 1;
#X connect 266 0 270 0;
#X connect 267 0 266 0;
#X connect 267 0 274 0;
#X connect 267 0 280 0;
#X connect 268 0 271 0;
#X connect 269 0 268 0;
#X connect 269 0 276 0;
#X connect 269 0 282 0;
#X connect 270 0 268 1;
#X connect 272 0 274 1;
#X connect 273 0 272 0;
#X connect 274 0 277 0;
#X connect 275 0 498 0;
#X connect 276 0 275 0;
#X connect 277 0 275 1;
#X connect 278 0 279 1;
#X connect 279 0 283 0;
#X connect 280 0 279 0;
#X connect 280 0 287 0;
#X connect 280 0 293 0;
#X connect 281 0 284 0;
#X connect 282 0 281 0;
#X connect 282 0 289 0;
#X connect 282 0 295 0;
#X connect 283 0 281 1;
#X connect 285 0 287 1;
#X connect 286 0 285 0;
#X connect 287 0 290 0;
#X connect 288 0 497 0;
#X connect 289 0 288 0;
#X connect 290 0 288 1;
#X connect 291 0 292 1;
#X connect 292 0 296 0;
#X connect 293 0 292 0;
#X connect 293 0 300 0;
#X connect 293 0 306 0;
#X connect 294 0 297 0;
#X connect 295 0 294 0;
#X connect 295 0 302 0;
#X connect 295 0 308 0;
#X connect 296 0 294 1;
#X connect 298 0 300 1;
#X connect 299 0 298 0;
#X connect 300 0 303 0;
#X connect 301 0 496 0;
#X connect 302 0 301 0;
#X connect 303 0 301 1;
#X connect 304 0 305 1;
#X connect 305 0 309 0;
#X connect 306 0 305 0;
#X connect 306 0 313 0;
#X connect 306 0 319 0;
#X connect 307 0 310 0;
#X connect 308 0 307 0;
#X connect 308 0 315 0;
#X connect 308 0 321 0;
#X connect 309 0 307 1;
#X connect 311 0 313 1;
#X connect 312 0 311 0;
#X connect 313 0 316 0;
#X connect 314 0 495 0;
#X connect 315 0 314 0;
#X connect 316 0 314 1;
#X connect 317 0 318 1;
#X connect 318 0 322 0;
#X connect 319 0 318 0;
#X connect 319 0 326 0;
#X connect 319 0 332 0;
#X connect 320 0 323 0;
#X connect 321 0 320 0;
#X connect 321 0 328 0;
#X connect 321 0 334 0;
#X connect 322 0 320 1;
#X connect 324 0 326 1;
#X connect 325 0 324 0;
#X connect 326 0 329 0;
#X connect 327 0 494 0;
#X connect 328 0 327 0;
#X connect 329 0 327 1;
#X connect 330 0 331 1;
#X connect 331 0 335 0;
#X connect 332 0 331 0;
#X connect 332 0 339 0;
#X connect 332 0 345 0;
#X connect 333 0 336 0;
#X connect 334 0 333 0;
#X connect 334 0 341 0;
#X connect 334 0 347 0;
#X connect 335 0 333 1;
#X connect 337 0 339 1;
#X connect 338 0 337 0;
#X connect 339 0 342 0;
#X connect 340 0 493 0;
#X connect 341 0 340 0;
#X connect 342 0 340 1;
#X connect 343 0 344 1;
#X connect 344 0 348 0;
#X connect 345 0 344 0;
#X connect 345 0 352 0;
#X connect 345 0 358 0;
#X connect 346 0 349 0;
#X connect 347 0 346 0;
#X connect 347 0 354 0;
#X connect 347 0 360 0;
#X connect 348 0 346 1;
#X connect 350 0 352 1;
#X connect 351 0 350 0;
#X connect 352 0 355 0;
#X connect 353 0 492 0;
#X connect 354 0 353 0;
#X connect 355 0 353 1;
#X connect 356 0 357 1;
#X connect 357 0 361 0;
#X connect 358 0 357 0;
#X connect 358 0 365 0;
#X connect 358 0 371 0;
#X connect 359 0 362 0;
#X connect 360 0 359 0;
#X connect 360 0 367 0;
#X connect 360 0 373 0;
#X connect 361 0 359 1;
#X connect 363 0 365 1;
#X connect 364 0 363 0;
#X connect 365 0 368 0;
#X connect 366 0 491 0;
#X connect 367 0 366 0;
#X connect 368 0 366 1;
#X connect 369 0 370 1;
#X connect 370 0 374 0;
#X connect 371 0 370 0;
#X connect 371 0 378 0;
#X connect 371 0 384 0;
#X connect 372 0 375 0;
#X connect 373 0 372 0;
#X connect 373 0 380 0;
#X connect 373 0 386 0;
#X connect 374 0 372 1;
#X connect 376 0 378 1;
#X connect 377 0 376 0;
#X connect 378 0 381 0;
#X connect 379 0 490 0;
#X connect 380 0 379 0;
#X connect 381 0 379 1;
#X connect 382 0 396 1;
#X connect 383 0 387 0;
#X connect 384 0 383 0;
#X connect 384 0 391 0;
#X connect 384 0 397 0;
#X connect 385 0 388 0;
#X connect 386 0 385 0;
#X connect 386 0 393 0;
#X connect 386 0 399 0;
#X connect 387 0 385 1;
#X connect 389 0 391 1;
#X connect 390 0 389 0;
#X connect 391 0 394 0;
#X connect 392 0 489 0;
#X connect 393 0 392 0;
#X connect 394 0 392 1;
#X connect 395 0 409 1;
#X connect 396 0 400 0;
#X connect 397 0 396 0;
#X connect 397 0 404 0;
#X connect 397 0 410 0;
#X connect 398 0 401 0;
#X connect 399 0 398 0;
#X connect 399 0 406 0;
#X connect 399 0 412 0;
#X connect 400 0 398 1;
#X connect 402 0 404 1;
#X connect 403 0 402 0;
#X connect 404 0 407 0;
#X connect 405 0 488 0;
#X connect 406 0 405 0;
#X connect 407 0 405 1;
#X connect 408 0 421 1;
#X connect 409 0 413 0;
#X connect 410 0 409 0;
#X connect 410 0 417 0;
#X connect 410 0 422 0;
#X connect 411 0 414 0;
#X connect 412 0 411 0;
#X connect 412 0 419 0;
#X connect 412 0 424 0;
#X connect 413 0 411 1;
#X connect 415 0 417 1;
#X connect 416 0 415 0;
#X connect 417 0 420 0;
#X connect 418 0 487 0;
#X connect 419 0 418 0;
#X connect 420 0 418 1;
#X connect 421 0 425 0;
#X connect 422 0 421 0;
#X connect 422 0 429 0;
#X connect 422 0 435 0;
#X connect 423 0 426 0;
#X connect 424 0 423 0;
#X connect 424 0 431 0;
#X connect 424 0 437 0;
#X connect 425 0 423 1;
#X connect 427 0 429 1;
#X connect 428 0 427 0;
#X connect 429 0 432 0;
#X connect 430 0 486 0;
#X connect 431 0 430 0;
#X connect 432 0 430 1;
#X connect 433 0 434 1;
#X connect 434 0 438 0;
#X connect 435 0 434 0;
#X connect 435 0 442 0;
#X connect 435 0 448 0;
#X connect 436 0 439 0;
#X connect 437 0 436 0;
#X connect 437 0 444 0;
#X connect 437 0 450 0;
#X connect 438 0 436 1;
#X connect 440 0 442 1;
#X connect 441 0 440 0;
#X connect 442 0 445 0;
#X connect 443 0 485 0;
#X connect 444 0 443 0;
#X connect 445 0 443 1;
#X connect 446 0 447 1;
#X connect 447 0 451 0;
#X connect 448 0 447 0;
#X connect 448 0 455 0;
#X connect 449 0 452 0;
#X connect 450 0 449 0;
#X connect 450 0 457 0;
#X connect 451 0 449 1;
#X connect 453 0 455 1;
#X connect 454 0 453 0;
#X connect 455 0 458 0;
#X connect 456 0 484 0;
#X connect 457 0 456 0;
#X connect 458 0 456 1;
#X connect 459 0 383 1;
#X connect 460 0 461 1;
#X connect 461 0 465 0;
#X connect 462 0 461 0;
#X connect 462 0 254 0;
#X connect 463 0 466 0;
#X connect 464 0 463 0;
#X connect 464 0 256 0;
#X connect 465 0 463 1;
#X connect 467 0 484 0;
#X connect 467 0 485 0;
#X connect 467 0 486 0;
#X connect 467 0 487 0;
#X connect 467 0 488 0;
#X connect 467 0 489 0;
#X connect 467 0 490 0;
#X connect 467 0 491 0;
#X connect 467 0 492 0;
#X connect 467 0 493 0;
#X connect 467 0 494 0;
#X connect 467 0 495 0;
#X connect 467 0 496 0;
#X connect 467 0 497 0;
#X connect 467 0 498 0;
#X connect 467 0 499 0;
#X connect 468 0 260 0;
#X connect 469 0 273 0;
#X connect 470 0 286 0;
#X connect 471 0 299 0;
#X connect 472 0 312 0;
#X connect 473 0 325 0;
#X connect 474 0 338 0;
#X connect 475 0 351 0;
#X connect 476 0 364 0;
#X connect 477 0 377 0;
#X connect 478 0 390 0;
#X connect 479 0 403 0;
#X connect 480 0 416 0;
#X connect 481 0 428 0;
#X connect 482 0 441 0;
#X connect 483 0 454 0;
#X connect 500 0 501 1;
#X connect 501 0 505 0;
#X connect 502 0 501 0;
#X connect 502 0 509 0;
#X connect 502 0 515 0;
#X connect 503 0 506 0;
#X connect 504 0 503 0;
#X connect 504 0 511 0;
#X connect 504 0 517 0;
#X connect 505 0 503 1;
#X connect 507 0 509 1;
#X connect 508 0 507 0;
#X connect 509 0 512 0;
#X connect 510 0 747 0;
#X connect 511 0 510 0;
#X connect 512 0 510 1;
#X connect 513 0 514 1;
#X connect 514 0 518 0;
#X connect 515 0 514 0;
#X connect 515 0 522 0;
#X connect 515 0 528 0;
#X connect 516 0 519 0;
#X connect 517 0 516 0;
#X connect 517 0 524 0;
#X connect 517 0 530 0;
#X connect 518 0 516 1;
#X connect 520 0 522 1;
#X connect 521 0 520 0;
#X connect 522 0 525 0;
#X connect 523 0 746 0;
#X connect 524 0 523 0;
#X connect 525 0 523 1;
#X connect 526 0 527 1;
#X connect 527 0 531 0;
#X connect 528 0 527 0;
#X connect 528 0 535 0;
#X connect 528 0 541 0;
#X connect 529 0 532 0;
#X connect 530 0 529 0;
#X connect 530 0 537 0;
#X connect 530 0 543 0;
#X connect 531 0 529 1;
#X connect 533 0 535 1;
#X connect 534 0 533 0;
#X connect 535 0 538 0;
#X connect 536 0 745 0;
#X connect 537 0 536 0;
#X connect 538 0 536 1;
#X connect 539 0 540 1;
#X connect 540 0 544 0;
#X connect 541 0 540 0;
#X connect 541 0 548 0;
#X connect 541 0 554 0;
#X connect 542 0 545 0;
#X connect 543 0 542 0;
#X connect 543 0 550 0;
#X connect 543 0 556 0;
#X connect 544 0 542 1;
#X connect 546 0 548 1;
#X connect 547 0 546 0;
#X connect 548 0 551 0;
#X connect 549 0 744 0;
#X connect 550 0 549 0;
#X connect 551 0 549 1;
#X connect 552 0 553 1;
#X connect 553 0 557 0;
#X connect 554 0 553 0;
#X connect 554 0 561 0;
#X connect 554 0 567 0;
#X connect 555 0 558 0;
#X connect 556 0 555 0;
#X connect 556 0 563 0;
#X connect 556 0 569 0;
#X connect 557 0 555 1;
#X connect 559 0 561 1;
#X connect 560 0 559 0;
#X connect 561 0 564 0;
#X connect 562 0 743 0;
#X connect 563 0 562 0;
#X connect 564 0 562 1;
#X connect 565 0 566 1;
#X connect 566 0 570 0;
#X connect 567 0 566 0;
#X connect 567 0 574 0;
#X connect 567 0 580 0;
#X connect 568 0 571 0;
#X connect 569 0 568 0;
#X connect 569 0 576 0;
#X connect 569 0 582 0;
#X connect 570 0 568 1;
#X connect 572 0 574 1;
#X connect 573 0 572 0;
#X connect 574 0 577 0;
#X connect 575 0 742 0;
#X connect 576 0 575 0;
#X connect 577 0 575 1;
#X connect 578 0 579 1;
#X connect 579 0 583 0;
#X connect 580 0 579 0;
#X connect 580 0 587 0;
#X connect 580 0 593 0;
#X connect 581 0 584 0;
#X connect 582 0 581 0;
#X connect 582 0 589 0;
#X connect 582 0 595 0;
#X connect 583 0 581 1;
#X connect 585 0 587 1;
#X connect 586 0 585 0;
#X connect 587 0 590 0;
#X connect 588 0 741 0;
#X connect 589 0 588 0;
#X connect 590 0 588 1;
#X connect 591 0 592 1;
#X connect 592 0 596 0;
#X connect 593 0 592 0;
#X connect 593 0 600 0;
#X connect 593 0 606 0;
#X connect 594 0 597 0;
#X connect 595 0 594 0;
#X connect 595 0 602 0;
#X connect 595 0 608 0;
#X connect 596 0 594 1;
#X connect 598 0 600 1;
#X connect 599 0 598 0;
#X connect 600 0 603 0;
#X connect 601 0 740 0;
#X connect 602 0 601 0;
#X connect 603 0 601 1;
#X connect 604 0 605 1;
#X connect 605 0 609 0;
#X connect 606 0 605 0;
#X connect 606 0 613 0;
#X connect 606 0 619 0;
#X connect 607 0 610 0;
#X connect 608 0 607 0;
#X connect 608 0 615 0;
#X connect 608 0 621 0;
#X connect 609 0 607 1;
#X connect 611 0 613 1;
#X connect 612 0 611 0;
#X connect 613 0 616 0;
#X connect 614 0 739 0;
#X connect 615 0 614 0;
#X connect 616 0 614 1;
#X connect 617 0 618 1;
#X connect 618 0 622 0;
#X connect 619 0 618 0;
#X connect 619 0 626 0;
#X connect 619 0 632 0;
#X connect 620 0 623 0;
#X connect 621 0 620 0;
#X connect 621 0 628 0;
#X connect 621 0 634 0;
#X connect 622 0 620 1;
#X connect 624 0 626 1;
#X connect 625 0 624 0;
#X connect 626 0 629 0;
#X connect 627 0 738 0;
#X connect 628 0 627 0;
#X connect 629 0 627 1;
#X connect 630 0 644 1;
#X connect 631 0 635 0;
#X connect 632 0 631 0;
#X connect 632 0 639 0;
#X connect 632 0 645 0;
#X connect 633 0 636 0;
#X connect 634 0 633 0;
#X connect 634 0 641 0;
#X connect 634 0 647 0;
#X connect 635 0 633 1;
#X connect 637 0 639 1;
#X connect 638 0 637 0;
#X connect 639 0 642 0;
#X connect 640 0 737 0;
#X connect 641 0 640 0;
#X connect 642 0 640 1;
#X connect 643 0 657 1;
#X connect 644 0 648 0;
#X connect 645 0 644 0;
#X connect 645 0 652 0;
#X connect 645 0 658 0;
#X connect 646 0 649 0;
#X connect 647 0 646 0;
#X connect 647 0 654 0;
#X connect 647 0 660 0;
#X connect 648 0 646 1;
#X connect 650 0 652 1;
#X connect 651 0 650 0;
#X connect 652 0 655 0;
#X connect 653 0 736 0;
#X connect 654 0 653 0;
#X connect 655 0 653 1;
#X connect 656 0 669 1;
#X connect 657 0 661 0;
#X connect 658 0 657 0;
#X connect 658 0 665 0;
#X connect 658 0 670 0;
#X connect 659 0 662 0;
#X connect 660 0 659 0;
#X connect 660 0 667 0;
#X connect 660 0 672 0;
#X connect 661 0 659 1;
#X connect 663 0 665 1;
#X connect 664 0 663 0;
#X connect 665 0 668 0;
#X connect 666 0 735 0;
#X connect 667 0 666 0;
#X connect 668 0 666 1;
#X connect 669 0 673 0;
#X connect 670 0 669 0;
#X connect 670 0 677 0;
#X connect 670 0 683 0;
#X connect 671 0 674 0;
#X connect 672 0 671 0;
#X connect 672 0 679 0;
#X connect 672 0 685 0;
#X connect 673 0 671 1;
#X connect 675 0 677 1;
#X connect 676 0 675 0;
#X connect 677 0 680 0;
#X connect 678 0 734 0;
#X connect 679 0 678 0;
#X connect 680 0 678 1;
#X connect 681 0 682 1;
#X connect 682 0 686 0;
#X connect 683 0 682 0;
#X connect 683 0 690 0;
#X connect 683 0 696 0;
#X connect 684 0 687 0;
#X connect 685 0 684 0;
#X connect 685 0 692 0;
#X connect 685 0 698 0;
#X connect 686 0 684 1;
#X connect 688 0 690 1;
#X connect 689 0 688 0;
#X connect 690 0 693 0;
#X connect 691 0 733 0;
#X connect 692 0 691 0;
#X connect 693 0 691 1;
#X connect 694 0 695 1;
#X connect 695 0 699 0;
#X connect 696 0 695 0;
#X connect 696 0 703 0;
#X connect 697 0 700 0;
#X connect 698 0 697 0;
#X connect 698 0 705 0;
#X connect 699 0 697 1;
#X connect 701 0 703 1;
#X connect 702 0 701 0;
#X connect 703 0 706 0;
#X connect 704 0 732 0;
#X connect 705 0 704 0;
#X connect 706 0 704 1;
#X connect 707 0 631 1;
#X connect 708 0 709 1;
#X connect 709 0 713 0;
#X connect 710 0 709 0;
#X connect 710 0 502 0;
#X connect 711 0 714 0;
#X connect 712 0 711 0;
#X connect 712 0 504 0;
#X connect 713 0 711 1;
#X connect 715 0 732 0;
#X connect 715 0 733 0;
#X connect 715 0 734 0;
#X connect 715 0 735 0;
#X connect 715 0 736 0;
#X connect 715 0 737 0;
#X connect 715 0 738 0;
#X connect 715 0 739 0;
#X connect 715 0 740 0;
#X connect 715 0 741 0;
#X connect 715 0 742 0;
#X connect 715 0 743 0;
#X connect 715 0 744 0;
#X connect 715 0 745 0;
#X connect 715 0 746 0;
#X connect 715 0 747 0;
#X connect 716 0 508 0;
#X connect 717 0 521 0;
#X connect 718 0 534 0;
#X connect 719 0 547 0;
#X connect 720 0 560 0;
#X connect 721 0 573 0;
#X connect 722 0 586 0;
#X connect 723 0 599 0;
#X connect 724 0 612 0;
#X connect 725 0 625 0;
#X connect 726 0 638 0;
#X connect 727 0 651 0;
#X connect 728 0 664 0;
#X connect 729 0 676 0;
#X connect 730 0 689 0;
#X connect 731 0 702 0;
#X connect 748 0 749 1;
#X connect 749 0 753 0;
#X connect 750 0 749 0;
#X connect 750 0 757 0;
#X connect 750 0 763 0;
#X connect 751 0 754 0;
#X connect 752 0 751 0;
#X connect 752 0 759 0;
#X connect 752 0 765 0;
#X connect 753 0 751 1;
#X connect 755 0 757 1;
#X connect 756 0 755 0;
#X connect 757 0 760 0;
#X connect 758 0 995 0;
#X connect 759 0 758 0;
#X connect 760 0 758 1;
#X connect 761 0 762 1;
#X connect 762 0 766 0;
#X connect 763 0 762 0;
#X connect 763 0 770 0;
#X connect 763 0 776 0;
#X connect 764 0 767 0;
#X connect 765 0 764 0;
#X connect 765 0 772 0;
#X connect 765 0 778 0;
#X connect 766 0 764 1;
#X connect 768 0 770 1;
#X connect 769 0 768 0;
#X connect 770 0 773 0;
#X connect 771 0 994 0;
#X connect 772 0 771 0;
#X connect 773 0 771 1;
#X connect 774 0 775 1;
#X connect 775 0 779 0;
#X connect 776 0 775 0;
#X connect 776 0 783 0;
#X connect 776 0 789 0;
#X connect 777 0 780 0;
#X connect 778 0 777 0;
#X connect 778 0 785 0;
#X connect 778 0 791 0;
#X connect 779 0 777 1;
#X connect 781 0 783 1;
#X connect 782 0 781 0;
#X connect 783 0 786 0;
#X connect 784 0 993 0;
#X connect 785 0 784 0;
#X connect 786 0 784 1;
#X connect 787 0 788 1;
#X connect 788 0 792 0;
#X connect 789 0 788 0;
#X connect 789 0 796 0;
#X connect 789 0 802 0;
#X connect 790 0 793 0;
#X connect 791 0 790 0;
#X connect 791 0 798 0;
#X connect 791 0 804 0;
#X connect 792 0 790 1;
#X connect 794 0 796 1;
#X connect 795 0 794 0;
#X connect 796 0 799 0;
#X connect 797 0 992 0;
#X connect 798 0 797 0;
#X connect 799 0 797 1;
#X connect 800 0 801 1;
#X connect 801 0 805 0;
#X connect 802 0 801 0;
#X connect 802 0 809 0;
#X connect 802 0 815 0;
#X connect 803 0 806 0;
#X connect 804 0 803 0;
#X connect 804 0 811 0;
#X connect 804 0 817 0;
#X connect 805 0 803 1;
#X connect 807 0 809 1;
#X connect 808 0 807 0;
#X connect 809 0 812 0;
#X connect 810 0 991 0;
#X connect 811 0 810 0;
#X connect 812 0 810 1;
#X connect 813 0 814 1;
#X connect 814 0 818 0;
#X connect 815 0 814 0;
#X connect 815 0 822 0;
#X connect 815 0 828 0;
#X connect 816 0 819 0;
#X connect 817 0 816 0;
#X connect 817 0 824 0;
#X connect 817 0 830 0;
#X connect 818 0 816 1;
#X connect 820 0 822 1;
#X connect 821 0 820 0;
#X connect 822 0 825 0;
#X connect 823 0 990 0;
#X connect 824 0 823 0;
#X connect 825 0 823 1;
#X connect 826 0 827 1;
#X connect 827 0 831 0;
#X connect 828 0 827 0;
#X connect 828 0 835 0;
#X connect 828 0 841 0;
#X connect 829 0 832 0;
#X connect 830 0 829 0;
#X connect 830 0 837 0;
#X connect 830 0 843 0;
#X connect 831 0 829 1;
#X connect 833 0 835 1;
#X connect 834 0 833 0;
#X connect 835 0 838 0;
#X connect 836 0 989 0;
#X connect 837 0 836 0;
#X connect 838 0 836 1;
#X connect 839 0 840 1;
#X connect 840 0 844 0;
#X connect 841 0 840 0;
#X connect 841 0 848 0;
#X connect 841 0 854 0;
#X connect 842 0 845 0;
#X connect 843 0 842 0;
#X connect 843 0 850 0;
#X connect 843 0 856 0;
#X connect 844 0 842 1;
#X connect 846 0 848 1;
#X connect 847 0 846 0;
#X connect 848 0 851 0;
#X connect 849 0 988 0;
#X connect 850 0 849 0;
#X connect 851 0 849 1;
#X connect 852 0 853 1;
#X connect 853 0 857 0;
#X connect 854 0 853 0;
#X connect 854 0 861 0;
#X connect 854 0 867 0;
#X connect 855 0 858 0;
#X connect 856 0 855 0;
#X connect 856 0 863 0;
#X connect 856 0 869 0;
#X connect 857 0 855 1;
#X connect 859 0 861 1;
#X connect 860 0 859 0;
#X connect 861 0 864 0;
#X connect 862 0 987 0;
#X connect 863 0 862 0;
#X connect 864 0 862 1;
#X connect 865 0 866 1;
#X connect 866 0 870 0;
#X connect 867 0 866 0;
#X connect 867 0 874 0;
#X connect 867 0 880 0;
#X connect 868 0 871 0;
#X connect 869 0 868 0;
#X connect 869 0 876 0;
#X connect 869 0 882 0;
#X connect 870 0 868 1;
#X connect 872 0 874 1;
#X connect 873 0 872 0;
#X connect 874 0 877 0;
#X connect 875 0 986 0;
#X connect 876 0 875 0;
#X connect 877 0 875 1;
#X connect 878 0 892 1;
#X connect 879 0 883 0;
#X connect 880 0 879 0;
#X connect 880 0 887 0;
#X connect 880 0 893 0;
#X connect 881 0 884 0;
#X connect 882 0 881 0;
#X connect 882 0 889 0;
#X connect 882 0 895 0;
#X connect 883 0 881 1;
#X connect 885 0 887 1;
#X connect 886 0 885 0;
#X connect 887 0 890 0;
#X connect 888 0 985 0;
#X connect 889 0 888 0;
#X connect 890 0 888 1;
#X connect 891 0 905 1;
#X connect 892 0 896 0;
#X connect 893 0 892 0;
#X connect 893 0 900 0;
#X connect 893 0 906 0;
#X connect 894 0 897 0;
#X connect 895 0 894 0;
#X connect 895 0 902 0;
#X connect 895 0 908 0;
#X connect 896 0 894 1;
#X connect 898 0 900 1;
#X connect 899 0 898 0;
#X connect 900 0 903 0;
#X connect 901 0 984 0;
#X connect 902 0 901 0;
#X connect 903 0 901 1;
#X connect 904 0 917 1;
#X connect 905 0 909 0;
#X connect 906 0 905 0;
#X connect 906 0 913 0;
#X connect 906 0 918 0;
#X connect 907 0 910 0;
#X connect 908 0 907 0;
#X connect 908 0 915 0;
#X connect 908 0 920 0;
#X connect 909 0 907 1;
#X connect 911 0 913 1;
#X connect 912 0 911 0;
#X connect 913 0 916 0;
#X connect 914 0 983 0;
#X connect 915 0 914 0;
#X connect 916 0 914 1;
#X connect 917 0 921 0;
#X connect 918 0 917 0;
#X connect 918 0 925 0;
#X connect 918 0 931 0;
#X connect 919 0 922 0;
#X connect 920 0 919 0;
#X connect 920 0 927 0;
#X connect 920 0 933 0;
#X connect 921 0 919 1;
#X connect 923 0 925 1;
#X connect 924 0 923 0;
#X connect 925 0 928 0;
#X connect 926 0 982 0;
#X connect 927 0 926 0;
#X connect 928 0 926 1;
#X connect 929 0 930 1;
#X connect 930 0 934 0;
#X connect 931 0 930 0;
#X connect 931 0 938 0;
#X connect 931 0 944 0;
#X connect 932 0 935 0;
#X connect 933 0 932 0;
#X connect 933 0 940 0;
#X connect 933 0 946 0;
#X connect 934 0 932 1;
#X connect 936 0 938 1;
#X connect 937 0 936 0;
#X connect 938 0 941 0;
#X connect 939 0 981 0;
#X connect 940 0 939 0;
#X connect 941 0 939 1;
#X connect 942 0 943 1;
#X connect 943 0 947 0;
#X connect 944 0 943 0;
#X connect 944 0 951 0;
#X connect 945 0 948 0;
#X connect 946 0 945 0;
#X connect 946 0 953 0;
#X connect 947 0 945 1;
#X connect 949 0 951 1;
#X connect 950 0 949 0;
#X connect 951 0 954 0;
#X connect 952 0 980 0;
#X connect 953 0 952 0;
#X connect 954 0 952 1;
#X connect 955 0 879 1;
#X connect 956 0 957 1;
#X connect 957 0 961 0;
#X connect 958 0 957 0;
#X connect 958 0 750 0;
#X connect 959 0 962 0;
#X connect 960 0 959 0;
#X connect 960 0 752 0;
#X connect 961 0 959 1;
#X connect 963 0 980 0;
#X connect 963 0 981 0;
#X connect 963 0 982 0;
#X connect 963 0 983 0;
#X connect 963 0 984 0;
#X connect 963 0 985 0;
#X connect 963 0 986 0;
#X connect 963 0 987 0;
#X connect 963 0 988 0;
#X connect 963 0 989 0;
#X connect 963 0 990 0;
#X connect 963 0 991 0;
#X connect 963 0 992 0;
#X connect 963 0 993 0;
#X connect 963 0 994 0;
#X connect 963 0 995 0;
#X connect 964 0 756 0;
#X connect 965 0 769 0;
#X connect 966 0 782 0;
#X connect 967 0 795 0;
#X connect 968 0 808 0;
#X connect 969 0 821 0;
#X connect 970 0 834 0;
#X connect 971 0 847 0;
#X connect 972 0 860 0;
#X connect 973 0 873 0;
#X connect 974 0 886 0;
#X connect 975 0 899 0;
#X connect 976 0 912 0;
#X connect 977 0 924 0;
#X connect 978 0 937 0;
#X connect 979 0 950 0;
#X connect 996 0 997 1;
#X connect 997 0 1001 0;
#X connect 998 0 997 0;
#X connect 998 0 1005 0;
#X connect 998 0 1054 0;
#X connect 999 0 1002 0;
#X connect 1000 0 999 0;
#X connect 1000 0 1006 0;
#X connect 1000 0 1056 0;
#X connect 1001 0 999 1;
#X connect 1001 0 1183 0;
#X connect 1003 0 1005 1;
#X connect 1004 0 1003 0;
#X connect 1005 0 1007 0;
#X connect 1006 0 1008 0;
#X connect 1007 0 1006 1;
#X connect 1007 0 1185 0;
#X connect 1009 0 1004 0;
#X connect 1010 0 1011 1;
#X connect 1011 0 1015 0;
#X connect 1012 0 1011 0;
#X connect 1012 0 1019 0;
#X connect 1012 0 1061 0;
#X connect 1013 0 1016 0;
#X connect 1014 0 1013 0;
#X connect 1014 0 1020 0;
#X connect 1014 0 1063 0;
#X connect 1015 0 1013 1;
#X connect 1017 0 1019 1;
#X connect 1018 0 1017 0;
#X connect 1019 0 1021 0;
#X connect 1020 0 1022 0;
#X connect 1021 0 1020 1;
#X connect 1023 0 1018 0;
#X connect 1024 0 1025 1;
#X connect 1025 0 1029 0;
#X connect 1026 0 1025 0;
#X connect 1026 0 1033 0;
#X connect 1026 0 1068 0;
#X connect 1027 0 1030 0;
#X connect 1028 0 1027 0;
#X connect 1028 0 1034 0;
#X connect 1028 0 1070 0;
#X connect 1029 0 1027 1;
#X connect 1031 0 1033 1;
#X connect 1032 0 1031 0;
#X connect 1033 0 1035 0;
#X connect 1034 0 1036 0;
#X connect 1035 0 1034 1;
#X connect 1037 0 1032 0;
#X connect 1038 0 1039 1;
#X connect 1039 0 1043 0;
#X connect 1040 0 1039 0;
#X connect 1040 0 1047 0;
#X connect 1040 0 1075 0;
#X connect 1041 0 1044 0;
#X connect 1042 0 1041 0;
#X connect 1042 0 1048 0;
#X connect 1042 0 1077 0;
#X connect 1043 0 1041 1;
#X connect 1045 0 1047 1;
#X connect 1046 0 1045 0;
#X connect 1047 0 1049 0;
#X connect 1048 0 1050 0;
#X connect 1049 0 1048 1;
#X connect 1051 0 1046 0;
#X connect 1052 0 1053 1;
#X connect 1053 0 1057 0;
#X connect 1054 0 1053 0;
#X connect 1054 0 212 0;
#X connect 1055 0 1058 0;
#X connect 1056 0 1055 0;
#X connect 1056 0 214 0;
#X connect 1057 0 1055 1;
#X connect 1057 0 1147 0;
#X connect 1059 0 1060 1;
#X connect 1060 0 1064 0;
#X connect 1061 0 1060 0;
#X connect 1061 0 1220 0;
#X connect 1062 0 1065 0;
#X connect 1063 0 1062 0;
#X connect 1063 0 1222 0;
#X connect 1064 0 1062 1;
#X connect 1066 0 1067 1;
#X connect 1067 0 1071 0;
#X connect 1068 0 1067 0;
#X connect 1068 0 1229 0;
#X connect 1069 0 1072 0;
#X connect 1070 0 1069 0;
#X connect 1070 0 1231 0;
#X connect 1071 0 1069 1;
#X connect 1073 0 1074 1;
#X connect 1074 0 1078 0;
#X connect 1075 0 1074 0;
#X connect 1075 0 1238 0;
#X connect 1076 0 1079 0;
#X connect 1077 0 1076 0;
#X connect 1077 0 1240 0;
#X connect 1078 0 1076 1;
#X connect 1080 0 75 0;
#X connect 1081 0 325 0;
#X connect 1082 0 573 0;
#X connect 1083 0 821 0;
#X connect 1084 0 88 0;
#X connect 1085 0 338 0;
#X connect 1086 0 586 0;
#X connect 1087 0 834 0;
#X connect 1088 0 101 0;
#X connect 1089 0 351 0;
#X connect 1090 0 599 0;
#X connect 1091 0 847 0;
#X connect 1092 0 114 0;
#X connect 1093 0 364 0;
#X connect 1094 0 612 0;
#X connect 1095 0 860 0;
#X connect 1096 0 127 0;
#X connect 1097 0 377 0;
#X connect 1098 0 625 0;
#X connect 1099 0 873 0;
#X connect 1100 0 140 0;
#X connect 1101 0 390 0;
#X connect 1102 0 638 0;
#X connect 1103 0 886 0;
#X connect 1104 0 153 0;
#X connect 1105 0 403 0;
#X connect 1106 0 651 0;
#X connect 1107 0 899 0;
#X connect 1108 0 166 0;
#X connect 1109 0 416 0;
#X connect 1110 0 664 0;
#X connect 1111 0 912 0;
#X connect 1112 0 178 0;
#X connect 1113 0 428 0;
#X connect 1114 0 676 0;
#X connect 1115 0 924 0;
#X connect 1116 0 191 0;
#X connect 1117 0 441 0;
#X connect 1118 0 689 0;
#X connect 1119 0 937 0;
#X connect 1120 0 204 0;
#X connect 1121 0 454 0;
#X connect 1122 0 702 0;
#X connect 1123 0 950 0;
#X connect 1124 0 36 0;
#X connect 1125 0 286 0;
#X connect 1126 0 534 0;
#X connect 1127 0 782 0;
#X connect 1128 0 8 0;
#X connect 1129 0 260 0;
#X connect 1130 0 508 0;
#X connect 1131 0 756 0;
#X connect 1132 0 23 0;
#X connect 1133 0 273 0;
#X connect 1134 0 521 0;
#X connect 1135 0 769 0;
#X connect 1136 0 49 0;
#X connect 1137 0 299 0;
#X connect 1138 0 547 0;
#X connect 1139 0 795 0;
#X connect 1140 0 62 0;
#X connect 1141 0 312 0;
#X connect 1142 0 560 0;
#X connect 1143 0 808 0;
#X connect 1144 0 13 0;
#X connect 1145 0 14 0;
#X connect 1146 0 1057 0;
#X connect 1164 0 5 0;
#X connect 1165 0 20 0;
#X connect 1166 0 33 0;
#X connect 1167 0 46 0;
#X connect 1168 0 59 0;
#X connect 1169 0 72 0;
#X connect 1170 0 85 0;
#X connect 1171 0 98 0;
#X connect 1172 0 111 0;
#X connect 1173 0 124 0;
#X connect 1174 0 137 0;
#X connect 1175 0 150 0;
#X connect 1176 0 163 0;
#X connect 1177 0 175 0;
#X connect 1178 0 188 0;
#X connect 1179 0 201 0;
#X connect 1180 0 215 0;
#X connect 1182 0 1001 0;
#X connect 1184 0 1007 0;
#X connect 1187 0 12 0;
#X connect 1203 0 27 0;
#X connect 1204 0 40 0;
#X connect 1205 0 53 0;
#X connect 1206 0 66 0;
#X connect 1207 0 79 0;
#X connect 1208 0 92 0;
#X connect 1209 0 105 0;
#X connect 1210 0 118 0;
#X connect 1211 0 131 0;
#X connect 1212 0 139 0;
#X connect 1213 0 152 0;
#X connect 1214 0 165 0;
#X connect 1215 0 177 0;
#X connect 1216 0 195 0;
#X connect 1217 0 208 0;
#X connect 1218 0 1219 1;
#X connect 1219 0 1223 0;
#X connect 1220 0 1219 0;
#X connect 1220 0 462 0;
#X connect 1221 0 1224 0;
#X connect 1222 0 1221 0;
#X connect 1222 0 464 0;
#X connect 1223 0 1221 1;
#X connect 1223 0 1226 0;
#X connect 1225 0 1223 0;
#X connect 1227 0 1228 1;
#X connect 1228 0 1232 0;
#X connect 1229 0 1228 0;
#X connect 1229 0 958 0;
#X connect 1230 0 1233 0;
#X connect 1231 0 1230 0;
#X connect 1231 0 960 0;
#X connect 1232 0 1230 1;
#X connect 1232 0 1235 0;
#X connect 1234 0 1232 0;
#X connect 1236 0 1237 1;
#X connect 1237 0 1241 0;
#X connect 1238 0 1237 0;
#X connect 1238 0 710 0;
#X connect 1239 0 1242 0;
#X connect 1240 0 1239 0;
#X connect 1240 0 712 0;
#X connect 1241 0 1239 1;
#X connect 1241 0 1244 0;
#X connect 1243 0 1241 0;
#X coords 0 -1 1 1 125 20 2 100 100;
