#N canvas 296 30 1384 998 12;
#X floatatom -66 320 5 0 0 2 W.IT=T #0-IT=T.r W.IT=T;
#X floatatom -66 342 5 0 0 3 S.IT=T S.IT=T #0-IT=T.s;
#X obj 100 100 cnv 15 150 21 empty empty S.to.tx 62 10 1 13 -1 -162280
0;
#X obj 203 102 bng 18 250 50 0 \$0-save.s \$0-save.r S 4 9 1 14 -162280
-260097 -1;
#X obj 227 102 bng 18 250 50 0 \$0-load.s \$0-load.r L 5 9 1 14 -162280
-260097 -1;
#X obj -17 50 cnv 15 400 20 \$0-preset.name.s \$0-preset.name.r PRESET_FILE:no_preset_loaded
5 10 0 10 -86853 -261682 0;
#N canvas 0 0 1531 1028 presets 0;
#N canvas 27 528 666 385 read.write 0;
#X obj 51 41 r \$0-save.s;
#X msg 90 101 clear;
#X obj 51 61 savepanel;
#X msg 51 141 write \$1;
#X obj 70 121 s \$0-get.values;
#X obj 51 81 t s b b;
#X obj 261 41 r \$0-load.s;
#X obj 261 61 openpanel;
#X obj 261 81 t b s s;
#X msg 280 101 read \$1;
#X obj 280 121 s \$0-to.text.define;
#X obj 51 241 text define \$0-preset;
#X obj 51 171 s \$0-to.text.define;
#X obj 51 221 r \$0-to.text.define;
#X msg 261 141 line 0 \, bang;
#X obj 261 161 text sequence \$0-preset;
#X obj 261 241 t a a;
#X obj 261 281 list split 2;
#X obj 261 221 list prepend \$0;
#X msg 346 257 symbol \$1-\$2;
#X obj 441 237 t a a;
#X obj 441 217 list prepend \$0;
#X msg 496 253 symbol \$1-\$2.r;
#X obj 441 277 list split 2;
#X obj 475 297 send;
#X obj 51 281 r \$0-to.text.set;
#X obj 51 301 text set \$0-preset 1e+06;
#X obj 295 301 array set;
#X obj 261 181 list trim;
#X obj 261 201 route @array;
#N canvas 132 151 450 300 write.preset.name 0;
#X msg 234 202 label \$1;
#X obj 234 222 s \$0-preset.name.r;
#X obj 44 146 loadbang;
#X obj 44 166 symbol no_preset_loaded;
#X obj 234 182 makefilename PRESET_FILE:%s;
#X obj 206 56 list fromsymbol;
#X obj 206 132 list split;
#X obj 234 152 list tosymbol;
#X obj 263 112 + 1;
#X obj 206 36 inlet;
#N canvas 583 113 293 386 find 0;
#X obj 102 46 inlet;
#X obj 102 175 list store;
#X obj 102 90 until;
#X obj 102 112 f;
#X obj 132 112 + 1;
#X msg 102 153 get \$1 1;
#X obj 145 91 0;
#X obj 102 68 t b b a;
#X obj 102 133 t f f;
#X obj 102 196 == 47;
#X obj 102 217 sel 1;
#X obj 102 238 f;
#X obj 159 279 f;
#X obj 159 300 outlet;
#X connect 0 0 7 0;
#X connect 1 0 9 0;
#X connect 1 1 2 1;
#X connect 1 1 12 0;
#X connect 2 0 3 0;
#X connect 3 0 4 0;
#X connect 3 0 8 0;
#X connect 4 0 3 1;
#X connect 5 0 1 0;
#X connect 6 0 3 1;
#X connect 7 0 2 0;
#X connect 7 1 6 0;
#X connect 7 2 1 1;
#X connect 8 0 5 0;
#X connect 8 1 11 1;
#X connect 9 0 10 0;
#X connect 10 0 11 0;
#X connect 11 0 12 1;
#X connect 12 0 13 0;
#X restore 263 92 pd find;
#X obj 206 76 t a a;
#X connect 0 0 1 0;
#X connect 2 0 3 0;
#X connect 3 0 4 0;
#X connect 4 0 0 0;
#X connect 5 0 11 0;
#X connect 6 1 7 0;
#X connect 7 0 4 0;
#X connect 8 0 6 1;
#X connect 9 0 5 0;
#X connect 10 0 8 0;
#X connect 11 0 6 0;
#X connect 11 1 10 0;
#X restore 341 97 pd write.preset.name;
#X connect 0 0 2 0;
#X connect 1 0 12 0;
#X connect 2 0 5 0;
#X connect 3 0 12 0;
#X connect 5 0 3 0;
#X connect 5 1 4 0;
#X connect 5 2 1 0;
#X connect 6 0 7 0;
#X connect 7 0 8 0;
#X connect 8 0 14 0;
#X connect 8 1 9 0;
#X connect 8 2 30 0;
#X connect 9 0 10 0;
#X connect 13 0 11 0;
#X connect 14 0 15 0;
#X connect 15 0 28 0;
#X connect 16 0 17 0;
#X connect 16 1 19 0;
#X connect 17 1 27 0;
#X connect 18 0 16 0;
#X connect 19 0 27 2;
#X connect 20 0 23 0;
#X connect 20 1 22 0;
#X connect 21 0 20 0;
#X connect 22 0 24 1;
#X connect 23 1 24 0;
#X connect 25 0 26 0;
#X connect 28 0 29 0;
#X connect 29 0 18 0;
#X connect 29 1 21 0;
#X restore 50 32 pd read.write;
#X text 253 129 SEND: \$0-<parameter_name>.s;
#X text 253 157 RECEIVE: \$0-<parameter_name>.r;
#X text 253 31 this is the read/write subpatch which should be left
as-is., f 82;
#X text 253 59 in order for a parameter that is in the parent patch
to be saved in the preset file \, here there needs to be a 'save.param'
abstraction with the name of that parameter as the second argument
(whilst the first argument is always \$0). The send and receive symbols
for each parameter must be formated in this way:, f 82;
#X text 253 185 tables can be saves as well with the [save.table] object.
The first argument is \$0 \, the second is the name of the table without
\$0-. The object on the left will save the content of a table named
"\$0-array1"., f 82;
#X text 253 241 With this method it's still required to create a new
'save.param' (or 'save.table') abstraction for every parameter or table
to be saved in the presets \, but at least there is no need to patch
all the send and receives individually., f 82;
#X obj -81 651 save.param \$0 stp1;
#X obj 68 651 save.param \$0 stp2;
#X obj 245 651 save.param \$0 stp3;
#X obj 407 651 save.param \$0 stp4;
#X obj 572 651 save.param \$0 stp5;
#X obj 731 651 save.param \$0 stp6;
#X obj 890 651 save.param \$0 stp7;
#X obj 1049 651 save.param \$0 stp8;
#X obj 1205 651 save.param \$0 stp9;
#X obj 1362 651 save.param \$0 stp10;
#X obj 1527 651 save.param \$0 stp11;
#X obj 1694 651 save.param \$0 stp12;
#X obj 1858 651 save.param \$0 stp13;
#X obj 2023 651 save.param \$0 stp14;
#X obj 2184 651 save.param \$0 stp15;
#X obj 2346 651 save.param \$0 stp16;
#X obj -81 682 save.param \$0 stp1ø;
#X obj 68 682 save.param \$0 stp2ø;
#X obj 245 682 save.param \$0 stp3ø;
#X obj 407 682 save.param \$0 stp4ø;
#X obj 572 682 save.param \$0 stp5ø;
#X obj 731 682 save.param \$0 stp6ø;
#X obj 890 682 save.param \$0 stp7ø;
#X obj 1049 682 save.param \$0 stp8ø;
#X obj 1205 682 save.param \$0 stp9ø;
#X obj 1362 682 save.param \$0 stp10ø;
#X obj 1527 682 save.param \$0 stp11ø;
#X obj 1694 682 save.param \$0 stp12ø;
#X obj 1858 682 save.param \$0 stp13ø;
#X obj 2023 682 save.param \$0 stp14ø;
#X obj 2184 682 save.param \$0 stp15ø;
#X obj 2346 682 save.param \$0 stp16ø;
#X obj -272 653 save.param \$0 stpA;
#X obj -81 713 save.param \$0 T1A;
#X obj 68 713 save.param \$0 T2A;
#X obj 245 713 save.param \$0 T3A;
#X obj 407 713 save.param \$0 T4A;
#X obj 572 713 save.param \$0 T5A;
#X obj 731 713 save.param \$0 T6A;
#X obj 890 713 save.param \$0 T7A;
#X obj 1049 713 save.param \$0 T8A;
#X obj 1205 713 save.param \$0 T9A;
#X obj 1362 713 save.param \$0 T10A;
#X obj 1527 713 save.param \$0 T11A;
#X obj 1694 713 save.param \$0 T12A;
#X obj 1858 713 save.param \$0 T13A;
#X obj 2023 713 save.param \$0 T14A;
#X obj 2184 713 save.param \$0 T15A;
#X obj 2346 713 save.param \$0 T16A;
#X obj -276 714 save.param \$0 T$stepA;
#X obj -535 713 save.param \$0 progA;
#X obj -735 713 save.param \$0 tA;
#X obj -940 713 save.param \$0 Trgr-tA;
#X obj -1114 713 save.param \$0 TXTA;
#X obj -1241 713 save.param \$0 T≠T;
#X obj -1375 713 save.param \$0 IT≠T;
#X obj -1694 715 save.param \$0 ITA%ITA;
#X obj -1522 713 save.param \$0 TA=TB;
#X obj -434 653 save.param \$0 IT=T;
#X obj 2346 744 save.param \$0 it16;
#X obj 2184 744 save.param \$0 it15;
#X obj 2023 744 save.param \$0 it14;
#X obj 1858 744 save.param \$0 it13;
#X obj 1694 744 save.param \$0 it12;
#X obj 1527 744 save.param \$0 it11;
#X obj 1362 744 save.param \$0 it10;
#X obj 1205 744 save.param \$0 it9;
#X obj 1049 744 save.param \$0 it8;
#X obj 890 744 save.param \$0 it7;
#X obj 731 744 save.param \$0 it6;
#X obj 572 744 save.param \$0 it5;
#X obj 407 744 save.param \$0 it4;
#X obj 245 744 save.param \$0 it3;
#X obj 68 744 save.param \$0 it2;
#X obj -81 744 save.param \$0 it1;
#X obj -276 745 save.param \$0 stepitA;
#X obj -1114 803 save.param \$0 +_XT_A;
#X obj -934 804 save.param \$0 Trgr-+_A;
#X obj -739 803 save.param \$0 +_t_A;
#X obj -533 800 save.param \$0 +_progr_A;
#X obj -276 807 save.param \$0 +_step_A;
#X obj -81 806 save.param \$0 +_A1;
#X obj 68 806 save.param \$0 +_A2;
#X obj 245 806 save.param \$0 +_A3;
#X obj 407 806 save.param \$0 +_A4;
#X obj 572 806 save.param \$0 +_A5;
#X obj 731 806 save.param \$0 +_A6;
#X obj 890 806 save.param \$0 +_A7;
#X obj 1049 806 save.param \$0 +_A8;
#X obj 1205 806 save.param \$0 +_A9;
#X obj 1362 806 save.param \$0 +_A10;
#X obj 1527 806 save.param \$0 +_A11;
#X obj 1694 806 save.param \$0 +_A12;
#X obj 1858 808 save.param \$0 +_A13;
#X obj 2023 808 save.param \$0 +_A14;
#X obj 2184 808 save.param \$0 +_A15;
#X obj 2346 808 save.param \$0 +_A16;
#X obj -1113 770 save.param \$0 progrXT_A;
#X obj -936 770 save.param \$0 Trgr-progr_A;
#X obj -533 770 save.param \$0 progr_progr_A;
#X obj -81 775 save.param \$0 progA1;
#X obj 68 775 save.param \$0 progA1;
#X obj 245 775 save.param \$0 progA3;
#X obj 407 775 save.param \$0 progA4;
#X obj 572 775 save.param \$0 progA5;
#X obj 731 775 save.param \$0 progA6;
#X obj 890 775 save.param \$0 progA7;
#X obj 1049 775 save.param \$0 progA8;
#X obj 1205 775 save.param \$0 progA9;
#X obj 1362 775 save.param \$0 progA10;
#X obj 1527 775 save.param \$0 progA11;
#X obj 1694 775 save.param \$0 progA12;
#X obj 2023 776 save.param \$0 progA14;
#X obj 1858 776 save.param \$0 progA13;
#X obj 2184 776 save.param \$0 progA15;
#X obj 2346 776 save.param \$0 progA16;
#X obj -277 776 save.param \$0 progrstepA;
#X obj -738 771 save.param \$0 progprogrtA;
#X floatatom 2385 622 5 0 0 2 W.reposetoinoffAB #0-reposetoinoffAB.r
W.reposetoinoffAB;
#X obj -1916 586 save.param \$0 s@pAb;
#X obj -1744 586 save.param \$0 mods@AA;
#X obj -1583 586 save.param \$0 mods@AB;
#X obj -1412 586 save.param \$0 mods@Aa;
#X obj -1243 586 save.param \$0 mods@Ab;
#X obj -1088 586 save.param \$0 spAA;
#X obj -957 586 save.param \$0 spAB;
#X obj -817 586 save.param \$0 spAa;
#X obj -679 586 save.param \$0 spAb;
#X obj -537 586 save.param \$0 spAB;
#X obj -399 586 save.param \$0 modspAa;
#X obj -239 586 save.param \$0 modspAb;
#X obj -63 586 save.param \$0 pAA;
#X obj 86 586 save.param \$0 pAB;
#X obj 221 586 save.param \$0 pAa;
#X obj 364 586 save.param \$0 pAb;
#X obj 500 586 save.param \$0 pAA;
#X obj 627 586 save.param \$0 pAB;
#X obj 763 586 save.param \$0 modpAa;
#X obj 915 586 save.param \$0 modpAb;
#X obj 1064 586 save.param \$0 AAbuton;
#X obj 1239 586 save.param \$0 AB;
#X obj 1380 586 save.param \$0 rawA;
#X obj 1545 586 save.param \$0 A@;
#X obj 1712 586 save.param \$0 @re;
#X obj 1876 586 save.param \$0 @A;
#X obj 2041 586 save.param \$0 modAA;
#X obj 2202 586 save.param \$0 modAB;
#X obj 2364 586 save.param \$0 reposetoinofffA;
#X obj 2592 586 save.param \$0 A<<A;
#X obj 2744 586 save.param \$0 AøA;
#X obj 2893 586 save.param \$0 A<<B;
#X obj 3045 586 save.param \$0 AøB;
#X obj 3174 586 save.param \$0 $s&pA;
#X obj 3316 586 save.param \$0 $sA;
#X obj 3441 586 save.param \$0 $pA;
#X obj 3571 586 save.param \$0 save_dataposA;
#X obj 3771 586 save.param \$0 save_BngAA;
#X obj 3953 586 save.param \$0 save_BngAB;
#X obj 4150 586 save.param \$0 save_trgAA;
#X obj -828 650 save.param \$0 reposetoinoffA;
#X obj -614 651 save.param \$0 repostoi$A;
#X obj 4333 586 save.param \$0 save_trgAB;
#X restore 5 102 pd presets;
#X floatatom 159 342 5 0 0 3 S.stp1 S.stp1 #0-stp1.s;
#X floatatom 249 342 5 0 0 3 S.stp2 S.stp2 #0-stp2.s;
#X floatatom 320 343 5 0 0 3 S.stp3 S.stp3 #0-stp3.s;
#X floatatom 401 343 5 0 0 3 S.stp4 S.stp4 #0-stp4.s;
#X floatatom 477 343 5 0 0 3 S.stp5 S.stp5 #0-stp5.s;
#X floatatom 555 342 5 0 0 3 S.stp6 S.stp6 #0-stp6.s;
#X floatatom 635 344 5 0 0 3 S.stp7 S.stp7 #0-stp7.s;
#X floatatom 716 344 5 0 0 3 S.stp8 S.stp8 #0-stp8.s;
#X floatatom 809 346 5 0 0 3 S.stp9 S.stp9 #0-stp9.s;
#X floatatom 892 345 5 0 0 3 S.stp10 S.stp10 #0-stp10.s;
#X floatatom 979 346 5 0 0 3 S.stp11 S.stp11 #0-stp11.s;
#X floatatom 1066 345 5 0 0 3 S.stp12 S.stp12 #0-stp12.s;
#X floatatom 1154 344 5 0 0 3 S.stp13 S.stp13 #0-stp13.s;
#X floatatom 1245 344 5 0 0 3 S.stp14 S.stp14 #0-stp14.s;
#X floatatom 1338 344 5 0 0 3 S.stp15 S.stp15 #0-stp15.s;
#X floatatom 1429 345 5 0 0 3 S.stp16 S.stp16 #0-stp16.s;
#X floatatom 159 320 5 0 0 2 R.stp1 #0-stp1.r R.stp1;
#X floatatom 249 320 5 0 0 2 R.stp2 #0-stp2.r R.stp2;
#X floatatom 320 321 5 0 0 2 R.stp3 #0-stp3.r R.stp3;
#X floatatom 401 321 5 0 0 2 R.stp4 #0-stp4.r R.stp4;
#X floatatom 477 321 5 0 0 2 R.stp5 #0-stp5.r R.stp5;
#X floatatom 555 321 5 0 0 2 R.stp6 #0-stp6.r R.stp6;
#X floatatom 635 322 5 0 0 2 R.stp7 #0-stp7.r R.stp7;
#X floatatom 716 322 5 0 0 2 R.stp8 #0-stp8.r R.stp8;
#X floatatom 809 322 5 0 0 2 R.stp9 #0-stp9.r R.stp9;
#X floatatom 892 322 5 0 0 2 R.stp10 #0-stp10.r R.stp10;
#X floatatom 979 322 5 0 0 2 R.stp11 #0-stp11.r R.stp11;
#X floatatom 1066 322 5 0 0 2 R.stp12 #0-stp12.r R.stp12;
#X floatatom 1154 321 5 0 0 2 R.stp13 #0-stp13.r R.stp13;
#X floatatom 1245 321 5 0 0 2 R.stp14 #0-stp14.r R.stp14;
#X floatatom 1338 321 5 0 0 2 R.stp15 #0-stp15.r R.stp15;
#X floatatom 1429 321 5 0 0 2 R.stp16 #0-stp16.r R.stp16;
#X floatatom 28 320 5 0 0 2 R.stpA #0-stpA.r R.stpA;
#X floatatom 28 342 5 0 0 3 S.stpA S.stpA #0-stpA.s;
#X floatatom 155 435 5 0 0 3 S.stp1ø S.stp1ø #0-stp1ø.s;
#X floatatom 244 435 5 0 0 3 S.stp2ø S.stp2ø #0-stp2ø.s;
#X floatatom 323 435 5 0 0 3 S.stp3ø S.stp3ø #0-stp3ø.s;
#X floatatom 400 435 5 0 0 3 S.stp4ø S.stp4ø #0-stp4ø.s;
#X floatatom 481 435 5 0 0 3 S.stp5ø S.stp5ø #0-stp5ø.s;
#X floatatom 556 434 5 0 0 3 S.stp6ø S.stp6ø #0-stp6ø.s;
#X floatatom 632 435 5 0 0 3 S.stp7ø S.stp7ø #0-stp7ø.s;
#X floatatom 722 435 5 0 0 3 S.stp8ø S.stp8ø #0-stp8ø.s;
#X floatatom 806 437 5 0 0 3 S.stp9ø S.stp9ø #0-stp9ø.s;
#X floatatom 891 436 5 0 0 3 S.stp10ø S.stp10ø #0-stp10ø.s;
#X floatatom 979 437 5 0 0 3 S.stp11ø S.stp11ø #0-stp11ø.s;
#X floatatom 1068 438 5 0 0 3 S.stp12ø S.stp12ø #0-stp12ø.s;
#X floatatom 1157 438 5 0 0 3 S.stp13ø S.stp13ø #0-stp13ø.s;
#X floatatom 1247 438 5 0 0 3 S.stp14ø S.stp14ø #0-stp14ø.s;
#X floatatom 1339 438 5 0 0 3 S.stp15ø S.stp15ø #0-stp15ø.s;
#X floatatom 1427 439 5 0 0 3 S.stp16ø S.stp16ø #0-stp16ø.s;
#X floatatom 155 413 5 0 0 2 R.stp1ø #0-stp1ø.r R.stp1ø;
#X floatatom 244 413 5 0 0 2 R.stp2ø #0-stp2ø.r R.stp2ø;
#X floatatom 323 413 5 0 0 2 R.stp3ø #0-stp3ø.r R.stp3ø;
#X floatatom 400 413 5 0 0 2 R.stp4ø #0-stp4ø.r R.stp4ø;
#X floatatom 481 413 5 0 0 2 R.stp5ø #0-stp5ø.r R.stp5ø;
#X floatatom 556 413 5 0 0 2 R.stp6ø #0-stp6ø.r R.stp6ø;
#X floatatom 632 413 5 0 0 2 R.stp7ø #0-stp7ø.r R.stp7ø;
#X floatatom 722 413 5 0 0 2 R.stp8ø #0-stp8ø.r R.stp8ø;
#X floatatom 806 413 5 0 0 2 R.stp9ø #0-stp9ø.r R.stp9ø;
#X floatatom 891 413 5 0 0 2 R.stp10ø #0-stp10ø.r R.stp10ø;
#X floatatom 979 413 5 0 0 2 R.stp11ø #0-stp11ø.r R.stp11ø;
#X floatatom 1068 415 5 0 0 2 R.stp12ø #0-stp12ø.r R.stp12ø;
#X floatatom 1157 415 5 0 0 2 R.stp13ø #0-stp13ø.r R.stp13ø;
#X floatatom 1247 415 5 0 0 2 R.stp14ø #0-stp14ø.r R.stp14ø;
#X floatatom 1339 415 5 0 0 2 R.stp15ø #0-stp15ø.r R.stp15ø;
#X floatatom 1427 415 5 0 0 2 R.stp16ø #0-stp16ø.r R.stp16ø;
#X floatatom -714 554 5 0 0 3 S.TA=TB S.TA=TB #0-TA=TB.s;
#X floatatom -714 534 5 0 0 2 W.TA=TB #0-TA=TB.r W.TA=TB;
#X floatatom -802 554 5 0 0 3 S.ITA%ITA S.ITA%ITA #0-ITA%ITA.s;
#X floatatom -802 534 5 0 0 2 W.ITA%ITA #0-ITA%ITA.r W.ITA%ITA;
#X text 117 436 save;
#X text 117 412 load;
#X text -839 553 save;
#X text -840 533 load;
#X floatatom -651 534 5 0 0 2 W.IT≠T #0-IT≠T.r W.IT≠T;
#X floatatom -651 554 5 0 0 3 S.IT≠T S.IT≠T #0-IT≠T.s;
#X floatatom -602 534 5 0 0 2 W.T≠T #0-T≠T.r W.T≠T;
#X floatatom -602 554 5 0 0 3 S.T≠T S.T≠T #0-T≠T.s;
#X floatatom -520 541 5 0 0 2 W.TXTA #0-TXTA.r W.TXTA;
#X floatatom -520 561 5 0 0 3 S.TXTA S.TXTA #0-TXTA.s;
#X floatatom -403 539 5 0 0 2 W.Trgr-tA #0-Trgr-tA.r W.Trgr-tA;
#X floatatom -403 561 5 0 0 3 S.Trgr-tA S.Trgr-tA #0-Trgr-tA.s;
#X floatatom -268 539 5 0 0 2 W.tA #0-tA.r W.tA;
#X floatatom -268 561 5 0 0 3 S.tA S.tA #0-tA.s;
#X floatatom -133 537 5 0 0 2 W.TprogA #0-TprogA.r W.TprogA;
#X floatatom -133 559 5 0 0 3 S.progA S.TprogA #0-TprogA.s;
#X floatatom 14 537 5 0 0 2 W.T#stepA #0-T#stepA.r W.T#stepA;
#X floatatom 14 559 5 0 0 3 S.T#stepA W.T#stepA #0-T#stepA.s;
#X floatatom 154 556 5 0 0 3 S.T1A S.T1A #0-T1A.s;
#X floatatom 154 534 5 0 0 2 W.T1A #0-T1A.r W.T1A;
#X floatatom 246 556 5 0 0 3 S.T2A S.T2A #0-T2A.s;
#X floatatom 246 534 5 0 0 2 W.T2A #0-T2A.r W.T2A;
#X floatatom 326 556 5 0 0 3 S.T3A S.T3A #0-T3A.s;
#X floatatom 326 534 5 0 0 2 W.T3A #0-T3A.r W.T3A;
#X floatatom 400 556 5 0 0 3 S.T4A S.T4A #0-T4A.s;
#X floatatom 400 534 5 0 0 2 W.T4A #0-T4A.r W.T4A;
#X floatatom 476 556 5 0 0 3 S.T5A S.T5A #0-T5A.s;
#X floatatom 476 534 5 0 0 2 W.T5A #0-T5A.r W.T5A;
#X floatatom 554 555 5 0 0 3 S.T6A S.T6A #0-T6A.s;
#X floatatom 554 534 5 0 0 2 W.T6A #0-T6A.r W.T6A;
#X floatatom 631 556 5 0 0 3 S.T7A S.T7A #0-T7A.s;
#X floatatom 631 534 5 0 0 2 W.T7A #0-T7A.r W.T7A;
#X floatatom 723 556 5 0 0 3 S.T8A S.T8A #0-T8A.s;
#X floatatom 723 534 5 0 0 2 W.T8A #0-T8A.r W.T8A;
#X floatatom 808 556 5 0 0 3 S.T9A S.T9A #0-T9A.s;
#X floatatom 808 534 5 0 0 2 W.T9 #0-T9.r W.T9;
#X floatatom 893 556 5 0 0 3 S.T10A S.T10A #0-T10A.s;
#X floatatom 893 534 5 0 0 2 W.T10A #0-T10A.r W.T10A;
#X floatatom 982 556 5 0 0 3 S.T11A S.T11A #0-T11A.s;
#X floatatom 982 534 5 0 0 2 W.T11A #0-T11A.r W.T11A;
#X floatatom 1069 556 5 0 0 3 S.T12 S.T12 #0-T12.s;
#X floatatom 1069 534 5 0 0 2 W.T12A #0-T12A.r W.T12A;
#X floatatom 1161 556 5 0 0 3 S.T13A S.T13A #0-T13A.s;
#X floatatom 1161 534 5 0 0 2 W.T13A #0-T13A.r W.T13A;
#X floatatom 1248 556 5 0 0 3 S.T14A S.T14A #0-T14A.s;
#X floatatom 1248 534 5 0 0 2 W.T14A #0-T14.r W.T14A;
#X floatatom 1341 556 5 0 0 3 S.T15A S.T15A #0-T15A.s;
#X floatatom 1341 534 5 0 0 2 W.T15A #0-T15A.r W.T15A;
#X floatatom 1430 556 5 0 0 3 S.T16A S.T16A #0-T6A.s;
#X floatatom 1430 534 5 0 0 2 W.T16A #0-T16A.r W.T16A;
#X floatatom 1430 634 5 0 0 2 W.it16 #0-it16.r W.it16;
#X floatatom 1430 656 5 0 0 3 S.it16 S.it16 #0-it16.s;
#X floatatom 1341 634 5 0 0 2 W.it15 #0-it15.r W.it15;
#X floatatom 1341 656 5 0 0 3 S.it16 S.it16 #0-it16.s;
#X floatatom 1250 634 5 0 0 2 W.it14 #0-it14.r W.it14;
#X floatatom 1250 656 5 0 0 3 S.it14 S.it14 #0-it14.s;
#X floatatom 1161 634 5 0 0 2 W.it13 #0-it13.r W.it13;
#X floatatom 1161 656 5 0 0 3 S.it13 S.it13 #0-it13.s;
#X floatatom 1070 634 5 0 0 2 W.it12 #0-it12.r W.it12;
#X floatatom 1070 656 5 0 0 3 S.it12 S.it12 #0-it12.s;
#X floatatom 981 634 5 0 0 2 W.it11 #0-it11.r W.it11;
#X floatatom 981 656 5 0 0 3 S.it11 S.it11 #0-it11.s;
#X floatatom 890 634 5 0 0 2 W.it10 #0-it10.r W.it10;
#X floatatom 890 656 5 0 0 3 S.it10 S.it10 #0-it10.s;
#X floatatom 811 634 5 0 0 2 W.it9 #0-it9.r W.it9;
#X floatatom 811 656 5 0 0 3 S.it9 S.it9 #0-it9.s;
#X floatatom 723 634 5 0 0 2 W.it8 #0-it8.r W.it8;
#X floatatom 723 656 5 0 0 3 S.it8 S.it8 #0-it8.s;
#X floatatom 634 634 5 0 0 2 W.it7 #0-it7.r W.it7;
#X floatatom 634 656 5 0 0 3 S.it7 S.it7 #0-it7.s;
#X floatatom 553 634 5 0 0 2 W.it6 #0-it6.r W.it6;
#X floatatom 553 655 5 0 0 3 S.it6 S.it6 #0-it6.s;
#X floatatom 474 634 5 0 0 2 W.it5 #0-it5.r W.it5;
#X floatatom 474 656 5 0 0 3 S.it5 S.it5 #0-it5.s;
#X floatatom 399 634 5 0 0 2 W.it4 #0-it4.r W.it4;
#X floatatom 399 656 5 0 0 3 S.it4 S.it14 #0-it4.s;
#X floatatom 324 634 5 0 0 2 W.it3 #0-it3.r W.it3;
#X floatatom 324 656 5 0 0 3 S.it3 S.it3 #0-it3.s;
#X floatatom 243 634 5 0 0 2 W.it2 #0-it2.r W.it2;
#X floatatom 243 656 5 0 0 3 S.it2 S.it2 #0-it2.s;
#X floatatom 154 634 5 0 0 2 W.it1 #0-it1.r W.it1;
#X floatatom 154 656 5 0 0 3 S.it1 S.it1 #0-it1.s;
#X floatatom 14 634 5 0 0 2 W.stepitA #0-stepitA.r W.stepitA;
#X floatatom 14 656 5 0 0 3 S.stepitA S.stepitA #0-stepitA.s;
#X text -21 656 save;
#X text -21 632 load;
#X floatatom 1430 734 5 0 0 2 W.progA16 #0-progA16.r W.progA16;
#X floatatom 1430 756 5 0 0 3 S.progA16 S.progA16 #0-progA16.s;
#X floatatom 1341 734 5 0 0 2 W.progA15 #0-progA15.r W.progA15;
#X floatatom 1341 756 5 0 0 3 S.progA15 S.progA15 #0-progA15.s;
#X floatatom 1250 734 5 0 0 2 W.progA14 #0-progA14.r W.progA14;
#X floatatom 1250 756 5 0 0 3 S.progA14 S.progA14 #0-progA14.s;
#X floatatom 1161 734 5 0 0 2 W.progA13 #0-progA13.r W.progA13;
#X floatatom 1161 756 5 0 0 3 S.progA13 S.progA13 #0-progA13.s;
#X floatatom 1070 734 5 0 0 2 W.progA12 #0-progA12.r W.progA12;
#X floatatom 1070 756 5 0 0 3 S.progA12 S.progA12 #0-progA12.s;
#X floatatom 981 734 5 0 0 2 W.progA11 #0-progA11.r W.progA11;
#X floatatom 981 756 5 0 0 3 S.progA11 S.progA11 #0-progA11.s;
#X floatatom 890 734 5 0 0 2 W.progA10 #0-progA10.r W.progA10;
#X floatatom 890 756 5 0 0 3 S.progA10 S.progA10 #0-progA10.s;
#X floatatom 811 734 5 0 0 2 W.progA9 #0-progA9.r W.progA9;
#X floatatom 811 756 5 0 0 3 S.progA9 S.progA9 #0-progA9.s;
#X floatatom 720 734 5 0 0 2 W.progA8 #0-progA8.r W.progA8;
#X floatatom 720 756 5 0 0 3 S.progA8 S.progA8 #0-progA8.s;
#X floatatom 635 734 5 0 0 2 W.progA7 #0-progA7.r W.progA7;
#X floatatom 635 756 5 0 0 3 S.progA7 S.progA7 #0-progA7.s;
#X floatatom 551 734 5 0 0 2 W.progA6 #0-progA6.r W.progA6;
#X floatatom 551 756 5 0 0 3 S.progA6 S.progA6 #0-progA6.s;
#X floatatom 475 734 5 0 0 2 W.progA5 #0-progA5.r W.progA5;
#X floatatom 475 756 5 0 0 3 S.progA5 S.progA5 #0-progA5.s;
#X floatatom 394 734 5 0 0 2 W.progA4 #0-progA4.r W.progA4;
#X floatatom 394 756 5 0 0 3 S.progA4 S.progA4 #0-progA4.s;
#X floatatom 321 734 5 0 0 2 W.progA3 #0-progA3.r W.progA3;
#X floatatom 321 756 5 0 0 3 S.progA3 S.progA3 #0-progA3.s;
#X floatatom 242 734 5 0 0 2 W.progA2 #0-progA2.r W.progA2;
#X floatatom 242 756 5 0 0 3 S.progA2 S.progA2 #0-progA2.s;
#X floatatom 153 734 5 0 0 2 W.progA1 #0-progA1.r W.progA1;
#X floatatom 153 756 5 0 0 3 S.progA1 S.progA1 #0-progA1.s;
#X floatatom 11 734 5 0 0 2 W.progrstepA #0-progrstepA.r W.progrstepA
;
#X floatatom 12 756 5 0 0 3 S.progrstepA S.progrstepA #0-progrstepA.s
;
#X floatatom -131 734 5 0 0 2 W.progr_progr_A #0-progr_progr_A.r W.progr_progr_A
;
#X floatatom -130 756 5 0 0 3 S.progr_progr_A S.progr_progr_A #0-progr_progr_A.s
;
#X floatatom -398 734 5 0 0 2 W.Trgr-progr_A #0-Trgr-progr_A.r W.Trgr-progr_A
;
#X floatatom -398 756 5 0 0 3 S.Trgr-progr_A S.Trgr-progr_A #0-Trgr-progr_A.s
;
#X floatatom -517 734 5 0 0 2 W.progrXT_A #0-progrXT_A.r W.progrXT_A
;
#X floatatom -517 757 5 0 0 3 S.progrXT_A S.progrXT_A #0-progrXT_A.s
;
#X floatatom 1430 834 5 0 0 2 W.+_A16 #0-+_A16.r W.+_A16;
#X floatatom 1430 856 5 0 0 3 S.+_A16 S.+_A16 #0-+_A16.s;
#X floatatom 1341 834 5 0 0 2 W.+_A15 #0-+_A15.r W.+_A15;
#X floatatom 1341 856 5 0 0 3 S.+_A15 S.+_A15 #0-+_A15.s;
#X floatatom 1250 834 5 0 0 2 W.+_A14 #0-+_A14.r W.+_A14;
#X floatatom 1250 856 5 0 0 3 S.+_A14 S.+_A14 #0-+_A14.s;
#X floatatom 1161 834 5 0 0 2 W.+_A13 #0-+_A13.r W.+_A13;
#X floatatom 1161 856 5 0 0 3 S.+_A13 S.+_A13 #0-+_A13.s;
#X floatatom 1070 834 5 0 0 2 W.+_A12 #0-+_A12.r W.+_A12;
#X floatatom 1070 856 5 0 0 3 S.+_A12 S.+_A12 #0-+_A12.s;
#X floatatom 981 834 5 0 0 2 W.+_A11 #0-+_A11.r W.+_A11;
#X floatatom 981 856 5 0 0 3 S.+_A11 S.+_A11 #0-+_A11.s;
#X floatatom 890 834 5 0 0 2 W.+_A10 #0-+_A10.r W.+_A10;
#X floatatom 890 856 5 0 0 3 S.+_A10 S.+_A10 #0-+_A10.s;
#X floatatom 811 834 5 0 0 2 W.+_A9 #0-+_A9.r W.+_A9;
#X floatatom 811 856 5 0 0 3 S.+_A9 S.+_A9 #0-+_A9.s;
#X floatatom 720 834 5 0 0 2 W.+_A8 #0-+_A8.r W.+_A8;
#X floatatom 720 856 5 0 0 3 S.+_A8 S.+_A8 #0-+_A8.s;
#X floatatom 635 834 5 0 0 2 W.+_A7 #0-+_A7.r W.+_A7;
#X floatatom 635 856 5 0 0 3 S.+_A7 S.+_A7 #0-+_A7.s;
#X floatatom 551 834 5 0 0 2 W.+_A6 #0-+_A6.r W.+_A6;
#X floatatom 551 856 5 0 0 3 S.+_A6 S.+_A6 #0-+_A6.s;
#X floatatom 475 834 5 0 0 2 W.+_A5 #0-+_A5.r W+_A5;
#X floatatom 475 856 5 0 0 3 S.+_A5 S.+_A5 #0-+_A5.s;
#X floatatom 394 835 5 0 0 2 W.+_A4 #0-+_A4.r W.+_A4;
#X floatatom 394 856 5 0 0 3 S.+_A4 S.+_A4 #0-+_A4.s;
#X floatatom 321 834 5 0 0 2 W.+_A3 #0-+_A3.r W.+_A3;
#X floatatom 321 856 5 0 0 3 S.+_A3 S.+_A3 #0-+_A3.s;
#X floatatom 242 834 5 0 0 2 W.+_A2 #0-+_A2.r W.+_A2;
#X floatatom 242 856 5 0 0 3 S.+_A2 S.+_A2 #0-+_A2.s;
#X floatatom 153 834 5 0 0 2 W.+_A1 #0-+_A1.r W.+_A1;
#X floatatom 153 856 5 0 0 3 S.+_A1 S.+_A1 #0-+_A1.s;
#X floatatom 11 834 5 0 0 2 W.+_step_A #0-+_step_A.r W.+_step_A;
#X floatatom 12 856 5 0 0 3 S.+_step_A S.+_step_A #0-+_step_A.s;
#X floatatom -131 834 5 0 0 2 W.+_progr_A #0-+_progr_A.r W.+_progr_A
;
#X floatatom -130 856 5 0 0 3 S.+_progr_A S.+_progr_A #0-+_progr_A.s
;
#X floatatom -269 834 5 0 0 2 W.+_t_A #0-+_t_A.r W.+_t_A;
#X floatatom -269 856 5 0 0 3 S.+_t_A S.+_t_A #0-+_t_A.s;
#X floatatom -398 834 5 0 0 2 W.Trgr-+_A #0-Trgr-+_A.r W.Trgr-+_A;
#X floatatom -398 856 5 0 0 3 S.Trgr-+_A S.Trgr-+_A #0-Trgr-+_A.s;
#X floatatom -517 834 5 0 0 2 W.+_XT_A #0-+_XT_A.r W.+_XT_A;
#X floatatom -517 857 5 0 0 3 S.+_XT_A S.+_XT_A #0-+_XT_A.s;
#X floatatom -261 734 5 0 0 2 W.progprogrtA #0-progprogrtA.r W.progprogrtA
;
#X floatatom -260 756 5 0 0 3 S.progprogrtA S.progprogrtA #0-progprogrtA.s
;
#X floatatom -781 200 5 0 0 3 S.s@pAA S.s@pAA #0-s@pAA.s;
#X floatatom -781 179 5 0 0 2 W.s@pAA #0-s@pAA.r W.s@pAA;
#X floatatom -661 200 5 0 0 3 S.s@pAB S.s@pAB #0-s@pAB.s;
#X floatatom -661 180 5 0 0 2 W.s@pAB #0-s@pAB.r W.s@pAB;
#X floatatom -511 200 5 0 0 3 S.s@pAa S.s@pAa #0-s@pAa.s;
#X floatatom -511 180 5 0 0 2 W.s@pAa #0-s@pAa.r W.s@pAa;
#X floatatom -371 200 5 0 0 3 S.s@pAb S.s@pAb #0-s@pAb.s;
#X floatatom -371 180 5 0 0 2 W.s@pAb #0-s@pAb.r W.s@pAb;
#X floatatom -251 200 5 0 0 3 S.mods@AA S.mods@AA #0-smods@AA.s;
#X floatatom -251 180 5 0 0 2 W.mods@AA #0-mods@AA.r W.mods@AA;
#X floatatom -111 200 5 0 0 3 S.mods@AB S.mods@AB #0-smods@AB.s;
#X floatatom -111 180 5 0 0 2 W.mods@AB #0-mods@AB.r W.mods@AB;
#X floatatom 29 200 5 0 0 3 S.mods@Aa S.mods@Aa #0-smods@Aa.s;
#X floatatom 29 180 5 0 0 2 W.mods@Aa #0-mods@Aa.r W.mods@Aa;
#X floatatom 169 200 5 0 0 3 S.mods@Ab S.mods@Ab #0-smods@Ab.s;
#X floatatom 169 180 5 0 0 2 W.mods@Ab #0-mods@Ab.r W.mods@Ab;
#X floatatom 289 200 5 0 0 3 S.spAA S.spAA #0-spAA.s;
#X floatatom 289 180 5 0 0 2 W.spAA #0-spAA.r W.spAA;
#X floatatom 419 200 5 0 0 3 S.spAB S.spAB #0-spAB.s;
#X floatatom 419 180 5 0 0 2 W.spAB #0-spAB.r W.spAB;
#X floatatom 560 200 5 0 0 3 S.spAa S.spAa #0-spAa.s;
#X floatatom 560 180 5 0 0 2 W.spAa #0-spAa.r W.spAa;
#X floatatom 690 200 5 0 0 3 S.spAb S.spAb #0-spAb.s;
#X floatatom 690 180 5 0 0 2 W.spAb #0-spAb.r W.spAb;
#X floatatom 810 200 5 0 0 3 S.modspAA S.modspAA #0-modspAA.s;
#X floatatom 810 180 5 0 0 2 W.modspAA #0-modspAA.r W.modspAA;
#X floatatom 950 200 5 0 0 3 S.modspAB S.modspAB #0-modspAB.s;
#X floatatom 950 180 5 0 0 2 W.modspAB #0-modspAB.r W.modspAB;
#X floatatom 1100 200 5 0 0 3 S.modspAa S.modspAa #0-modspAa.s;
#X floatatom 1100 180 5 0 0 2 W.modspAa #0-modspAa.r W.modspAa;
#X floatatom 1240 200 5 0 0 3 S.modspAb S.modspAb #0-modspAb.s;
#X floatatom 1240 180 5 0 0 2 W.modspAb #0-modspAb.r W.modspAb;
#X floatatom 1380 200 5 0 0 3 S.pAA S.pAA #0-pAA.s;
#X floatatom 1380 180 5 0 0 2 W.pAA #0-pAA.r W.pAA;
#X floatatom 1530 200 5 0 0 3 S.pAB S.pAB #0-pAB.s;
#X floatatom 1530 180 5 0 0 2 W.pAB #0-pAB.r W.pAB;
#X floatatom 1670 200 5 0 0 3 S.pAa S.pAa #0-pAa.s;
#X floatatom 1670 180 5 0 0 2 W.pAa #0-pAa.r W.pAa;
#X floatatom 1790 200 5 0 0 3 S.pAb S.pAb #0-pAb.s;
#X floatatom 1790 180 5 0 0 2 W.pAb #0-pAb.r W.pAb;
#X floatatom 1920 200 5 0 0 3 S.modpAA S.modpAA #0-modpAA.s;
#X floatatom 1920 180 5 0 0 2 W.modpAA #0-modpAA.r W.modpAA;
#X floatatom 2020 200 5 0 0 3 S.modpAB S.modpAB #0-modpAB.s;
#X floatatom 2020 180 5 0 0 2 W.modpAB #0-modpAB.r W.modpAB;
#X floatatom 2130 200 5 0 0 3 S.modpAa S.modpAa #0-modpAa.s;
#X floatatom 2130 180 5 0 0 2 W.modpAa #0-modpAa.r W.modpAa;
#X floatatom 2270 200 5 0 0 3 S.modpAb S.modpAb #0-modpAb.s;
#X floatatom 2270 180 5 0 0 2 W.modpAb #0-modpAb.r W.modpAb;
#X floatatom 2400 200 5 0 0 3 S.AAbuton S.AAbuton #0-AAbuton.s;
#X floatatom 2400 180 5 0 0 2 W.AAbuton #0-AAbuton.r W.AAbuton;
#X floatatom 2540 200 5 0 0 3 S.AB S.AB #0-AB.s;
#X floatatom 2540 180 5 0 0 2 W.AB #0-AB.r W.AB;
#X floatatom 2680 200 5 0 0 3 S.rawA S.rawA #0-rawA.s;
#X floatatom 2680 180 5 0 0 2 W.rawA #0-rawA.r W.rawA;
#X floatatom 2810 200 5 0 0 3 S.A@ S.A@ #0-rA@.s;
#X floatatom 2810 180 5 0 0 2 W.A@ #0-A@.r W.A@;
#X floatatom 2980 200 5 0 0 3 S.@re S.@re #0-@re.s;
#X floatatom 2980 180 5 0 0 2 W.@re #0-@re.r W.@re;
#X floatatom 3120 200 5 0 0 3 S.@A S.@A #0-@A.s;
#X floatatom 3120 180 5 0 0 2 W.@A #0-@A.r W.@A;
#X floatatom 3250 200 5 0 0 3 S.modAA S.modAA #0-modAA.s;
#X floatatom 3250 180 5 0 0 2 W.modAA #0-modAA.r W.modAA;
#X floatatom 3380 200 5 0 0 3 S.modAB S.modAB #0-modAB.s;
#X floatatom 3380 180 5 0 0 2 W.modAB #0-modAB.r W.modAB;
#X floatatom 3560 200 5 0 0 3 S.reposetoinoffA S.reposetoinoffA #0-reposetoinoffA.s
;
#X floatatom 3560 180 5 0 0 2 W.reposetoinoffA #0-reposetoinoffA.r
W.reposetoinoffA;
#X floatatom 3780 200 5 0 0 3 S.reposetoinoffAB S.reposetoinoffAB #0-reposetoinoffAB.s
;
#X floatatom 3780 180 5 0 0 2 W.reposetoinoffAB #0-reposetoinoffAB.r
W.reposetoinoffAB;
#X floatatom 3970 200 5 0 0 3 S.A<<A S.A<<A #0-A<<A.s;
#X floatatom 3970 180 5 0 0 2 W.A<<A #0-A<<A.r W.A<<A;
#X floatatom 4070 200 5 0 0 3 S.AøA S.AøA #0-AøA.s;
#X floatatom 4070 180 5 0 0 2 W.AøA #0-AøA.r W.AøA;
#X floatatom 4190 200 5 0 0 3 S.A<<B S.A<<B #0-rA<<B.s;
#X floatatom 4190 180 5 0 0 2 W.A<<B #0-A<<B.r W.A<<B;
#X floatatom 4290 200 5 0 0 3 S.AøB S.AøB #0-AøBs;
#X floatatom 4290 180 5 0 0 2 W.AøB #0-AøB.r W.AøB;
#X floatatom 4400 200 5 0 0 3 S.#s&pA S.#s&pA #0-#s&pA.s;
#X floatatom 4400 180 5 0 0 2 W.#s&pA #0-#s&pA.r W.#s&pA;
#X floatatom 4520 200 5 0 0 3 S.#sA S.#sA #0-#sA.s;
#X floatatom 4520 180 5 0 0 2 W.#sA #0-#sA.r W.#sA;
#X floatatom 4610 200 5 0 0 3 S.#pA S.#pA #0-#pA.s;
#X floatatom 4610 180 5 0 0 2 W.#pA #0-#pA.r W.#pA;
#X floatatom 4700 200 5 0 0 3 S.save_dataposA S.save_dataposA #0-save_dataposA.s
;
#X floatatom 4700 180 5 0 0 2 W.save_dataposA #0-save_dataposA.r W.save_dataposA
;
#X floatatom 4859 200 5 0 0 3 S.save_BngAA S.save_BngAA #0-save_BngAA.s
;
#X floatatom 4859 180 5 0 0 2 W.save_BngAA #0-save_BngAA.r W.save_BngAA
;
#X floatatom 5019 200 5 0 0 3 S.save_BngAB S.save_BngAB #0-save_BngAB.s
;
#X floatatom 5019 180 5 0 0 2 W.save_BngAB #0-save_BngAB.r W.save_BngAB
;
#X floatatom 5141 199 5 0 0 3 S.save_trgAA S.save_trgAA #0-save_trgAA.s
;
#X floatatom 5141 179 5 0 0 2 W.save_trgAA #0-save_trgAA.r W.save_trgAA
;
#X floatatom 5291 199 5 0 0 3 S.save_trgAB S.save_trgAB #0-save_trgAB.s
;
#X floatatom 5291 179 5 0 0 2 W.save_trgAB #0-save_trgAB.r W.save_trgAB
;
#X text -821 203 save;
#X text -822 183 load;
#X text -409 340 save;
#X text -409 315 load;
#X floatatom -371 315 5 0 0 2 W.reposetoinoffA #0-reposetoinoffA.r
W.reposetoinoffA;
#X floatatom -371 337 5 0 0 3 S.reposetoinoffA S.reposetoinoffA #0-reposetoinoffA.s
;
#X floatatom -221 315 5 0 0 2 W.reposetoi#A #0-reposetoi#A.r W.reposetoi#A
;
#X floatatom -221 337 5 0 0 3 S.reposetoi#A S.reposetoi#A #0-reposetoi#A.s
;
#X floatatom 5403 198 5 0 0 3 S.save_ø@S S.save_trgAB #0-save_trgAB.s
;
#X floatatom 5403 178 5 0 0 2 W.save_ø@S #0-save_trgAB.r W.save_trgAB
;
#X floatatom 5507 199 5 0 0 3 S.save_sNd_A S.save_sNd_A #0-save_sNd_A
;
#X floatatom 5507 179 5 0 0 2 W.save_sNd_A #0-save_sNd_A W.save_sNd_A
;
#X floatatom 5629 198 5 0 0 3 S.save_sNd_B S.save_sNd_B #0-save_sNd_B
;
#X floatatom 5629 178 5 0 0 2 W.save_sNd_B #0-save_sNd_B W.save_sNd_B
;
#X floatatom 5779 198 5 0 0 3 S.save_sNd_BB S.save_sNd_BB #0-save_sNd_BB
;
#X floatatom 5779 178 5 0 0 2 W.save_sNd_BB #0-save_sNd_BB W.save_sNd_BB
;
#X floatatom 5891 197 5 0 0 3 S.save_sNd_BB1 S.save_sNd_BB1 #0-save_sNd_BB1
;
#X floatatom 5891 177 5 0 0 2 W.save_sNd_BB1 #0-save_sNd_BB1 W.save_sNd_BB1
;
#X floatatom 6011 194 5 0 0 3 S.save_every S.save_every #0-save_every
;
#X floatatom 6011 174 5 0 0 2 W.save_every #0-save_every W.save_every
;
#X coords 0 -1 1 1 150 22 2 100 100;
