#N canvas -215 770 1680 867 10;
#X obj 216 75 sel 0 1 2;
#X obj 216 145 sel 0 1 2;
#X floatatom 533 27 5 0 0 0 receive_it1 it1 -;
#X obj 517 76 f;
#X obj 504 58 bng 15 250 50 0 empty empty write -35 7 0 10 -262144
-1 -1;
#X obj 510 148 f;
#X obj 509 126 bng 15 250 50 0 empty empty send -30 7 0 10 -262144
-1 -1;
#X floatatom 512 174 5 0 0 0 send_it1 - send_it1;
#X floatatom 673 27 5 0 0 0 receive_it2 it2 -;
#X obj 667 76 f;
#X obj 644 58 bng 15 250 50 0 empty empty write -35 7 0 10 -262144
-1 -1;
#X obj 650 148 f;
#X obj 649 126 bng 15 250 50 0 empty empty send -30 7 0 10 -262144
-1 -1;
#X floatatom 652 174 5 0 0 0 send_it2 - send_it2;
#X floatatom 813 27 5 0 0 0 receive_it3 it3 -;
#X obj 807 76 f;
#X obj 784 58 bng 15 250 50 0 empty empty write -35 7 0 10 -262144
-1 -1;
#X obj 790 148 f;
#X obj 789 126 bng 15 250 50 0 empty empty send -30 7 0 10 -262144
-1 -1;
#X floatatom 792 174 5 0 0 0 send_it3 - send_it3;
#X floatatom 383 27 5 0 0 0 receive_stepit stepit -;
#X obj 374 76 f;
#X obj 354 58 bng 15 250 50 0 empty empty write -35 7 0 10 -262144
-1 -1;
#X obj 360 148 f;
#X obj 359 126 bng 15 250 50 0 empty empty send -30 7 0 10 -262144
-1 -1;
#X floatatom 362 174 5 0 0 0 send_stepit - send_stepit;
#X obj 108 62 inlet;
#X obj 158 62 inlet;
#X floatatom 953 27 5 0 0 0 receive_it4 it4 -;
#X obj 947 76 f;
#X obj 924 58 bng 15 250 50 0 empty empty write -35 7 0 10 -262144
-1 -1;
#X obj 930 148 f;
#X obj 929 126 bng 15 250 50 0 empty empty send -30 7 0 10 -262144
-1 -1;
#X floatatom 932 174 5 0 0 0 send_it4 - send_it4;
#X floatatom 1083 27 5 0 0 0 receive_it5 it5 -;
#X obj 1077 76 f;
#X obj 1054 58 bng 15 250 50 0 empty empty write -35 7 0 10 -262144
-1 -1;
#X obj 1060 148 f;
#X obj 1059 126 bng 15 250 50 0 empty empty send -30 7 0 10 -262144
-1 -1;
#X floatatom 1062 174 5 0 0 0 send_it5 - send_it5;
#X floatatom 1223 27 5 0 0 0 receive_it6 it6 -;
#X obj 1217 76 f;
#X obj 1194 58 bng 15 250 50 0 empty empty write -35 7 0 10 -262144
-1 -1;
#X obj 1200 148 f;
#X obj 1202 126 bng 15 250 50 0 empty empty send -30 7 0 10 -262144
-1 -1;
#X floatatom 1202 174 5 0 0 0 send_it6 - send_it6;
#X floatatom 1363 27 5 0 0 0 receive_it7 it7 -;
#X obj 1357 76 f;
#X obj 1334 58 bng 15 250 50 0 empty empty write -35 7 0 10 -262144
-1 -1;
#X obj 1340 148 f;
#X obj 1339 126 bng 15 250 50 0 empty empty send -30 7 0 10 -262144
-1 -1;
#X floatatom 1342 174 5 0 0 0 send_it7 - send_it7;
#X floatatom 1503 27 5 0 0 0 receive_it8 it8 -;
#X obj 1497 76 f;
#X obj 1474 58 bng 15 250 50 0 empty empty write -35 7 0 10 -262144
-1 -1;
#X obj 1480 148 f;
#X obj 1479 126 bng 15 250 50 0 empty empty send -30 7 0 10 -262144
-1 -1;
#X floatatom 1482 174 5 0 0 0 send_it8 - send_it8;
#X floatatom 1653 29 5 0 0 0 receive_it9 it9 -;
#X obj 1647 78 f;
#X obj 1624 60 bng 15 250 50 0 empty empty write -35 7 0 10 -262144
-1 -1;
#X obj 1630 150 f;
#X obj 1629 128 bng 15 250 50 0 empty empty send -30 7 0 10 -262144
-1 -1;
#X floatatom 1632 176 5 0 0 0 send_it9 - send_it9;
#X floatatom 1793 29 5 0 0 0 receive_it10 it10 -;
#X obj 1787 78 f;
#X obj 1764 60 bng 15 250 50 0 empty empty write -35 7 0 10 -262144
-1 -1;
#X obj 1770 150 f;
#X obj 1769 128 bng 15 250 50 0 empty empty send -30 7 0 10 -262144
-1 -1;
#X floatatom 1772 176 5 0 0 0 send_it10 - send_it10;
#X floatatom 1933 29 5 0 0 0 receive_it11 it11 -;
#X obj 1927 78 f;
#X obj 1904 60 bng 15 250 50 0 empty empty write -35 7 0 10 -262144
-1 -1;
#X obj 1910 150 f;
#X obj 1909 128 bng 15 250 50 0 empty empty send -30 7 0 10 -262144
-1 -1;
#X floatatom 1912 176 5 0 0 0 send_it11 - send_it11;
#X floatatom 2073 29 5 0 0 0 receive_it12 it12 -;
#X obj 2067 78 f;
#X obj 2044 60 bng 15 250 50 0 empty empty write -35 7 0 10 -262144
-1 -1;
#X obj 2050 150 f;
#X obj 2049 128 bng 15 250 50 0 empty empty send -30 7 0 10 -262144
-1 -1;
#X floatatom 2052 176 5 0 0 0 send_it12 - send_it12;
#X floatatom 2253 29 5 0 0 0 receive_it13 it13 -;
#X obj 2227 78 f;
#X obj 2204 60 bng 15 250 50 0 empty empty write -35 7 0 10 -262144
-1 -1;
#X obj 2210 150 f;
#X obj 2209 128 bng 15 250 50 0 empty empty send -30 7 0 10 -262144
-1 -1;
#X floatatom 2212 176 5 0 0 0 send_it13 - send_it13;
#X floatatom 2383 29 5 0 0 0 receive_it14 it14 -;
#X obj 2377 78 f;
#X obj 2354 60 bng 15 250 50 0 empty empty write -35 7 0 10 -262144
-1 -1;
#X obj 2360 150 f;
#X obj 2359 128 bng 15 250 50 0 empty empty send -30 7 0 10 -262144
-1 -1;
#X floatatom 2362 176 5 0 0 0 send_it14 - send_it14;
#X floatatom 2533 29 5 0 0 0 receive_it15 it15 -;
#X obj 2527 78 f;
#X obj 2504 60 bng 15 250 50 0 empty empty write -35 7 0 10 -262144
-1 -1;
#X obj 2510 150 f;
#X obj 2509 128 bng 15 250 50 0 empty empty send -30 7 0 10 -262144
-1 -1;
#X floatatom 2512 176 5 0 0 0 send_it15 - send_it15;
#X floatatom 2683 29 5 0 0 0 receive_it16 it16 -;
#X obj 2677 81 f;
#X obj 2654 60 bng 15 250 50 0 empty empty write -35 7 0 10 -262144
-1 -1;
#X obj 2660 150 f;
#X obj 2659 128 bng 15 250 50 0 empty empty send -30 7 0 10 -262144
-1 -1;
#X floatatom 2662 176 5 0 0 0 send_it16 - send_it16;
#X floatatom 533 227 5 0 0 0 receive_it1 it1 -;
#X obj 527 279 f;
#X obj 504 258 bng 15 250 50 0 empty empty write -35 7 0 10 -262144
-1 -1;
#X obj 510 348 f;
#X obj 509 326 bng 15 250 50 0 empty empty send -30 7 0 10 -262144
-1 -1;
#X floatatom 528 307 5 0 0 0 - - -;
#X floatatom 512 374 5 0 0 0 send_it1 - send_it1;
#X floatatom 673 227 5 0 0 0 receive_it2 it2 -;
#X obj 667 279 f;
#X obj 644 258 bng 15 250 50 0 empty empty write -35 7 0 10 -262144
-1 -1;
#X obj 650 348 f;
#X obj 649 326 bng 15 250 50 0 empty empty send -30 7 0 10 -262144
-1 -1;
#X floatatom 668 307 5 0 0 0 - - -;
#X floatatom 652 374 5 0 0 0 send_it2 - send_it2;
#X floatatom 813 227 5 0 0 0 receive_it3 it3 -;
#X obj 807 279 f;
#X obj 784 258 bng 15 250 50 0 empty empty write -35 7 0 10 -262144
-1 -1;
#X obj 790 348 f;
#X obj 789 326 bng 15 250 50 0 empty empty send -30 7 0 10 -262144
-1 -1;
#X floatatom 808 307 5 0 0 0 - - -;
#X floatatom 792 374 5 0 0 0 send_it3 - send_it3;
#X floatatom 363 227 5 0 0 0 receive_stepit stepit -;
#X obj 357 279 f;
#X obj 334 258 bng 15 250 50 0 empty empty write -35 7 0 10 -262144
-1 -1;
#X obj 340 348 f;
#X obj 339 326 bng 15 250 50 0 empty empty send -30 7 0 10 -262144
-1 -1;
#X floatatom 358 307 5 0 0 0 - - -;
#X floatatom 342 374 5 0 0 0 send_stepit - send_stepit;
#X floatatom 953 227 5 0 0 0 receive_it4 it4 -;
#X obj 947 279 f;
#X obj 924 258 bng 15 250 50 0 empty empty write -35 7 0 10 -262144
-1 -1;
#X obj 930 348 f;
#X obj 929 326 bng 15 250 50 0 empty empty send -30 7 0 10 -262144
-1 -1;
#X floatatom 948 307 5 0 0 0 - - -;
#X floatatom 932 374 5 0 0 0 send_it4 - send_it4;
#X floatatom 1083 227 5 0 0 0 receive_it5 it5 -;
#X obj 1077 279 f;
#X obj 1054 258 bng 15 250 50 0 empty empty write -35 7 0 10 -262144
-1 -1;
#X obj 1060 348 f;
#X obj 1059 326 bng 15 250 50 0 empty empty send -30 7 0 10 -262144
-1 -1;
#X floatatom 1078 307 5 0 0 0 - - -;
#X floatatom 1062 374 5 0 0 0 send_it5 - send_it5;
#X floatatom 1223 227 5 0 0 0 receive_it6 it6 -;
#X obj 1217 279 f;
#X obj 1194 258 bng 15 250 50 0 empty empty write -35 7 0 10 -262144
-1 -1;
#X obj 1200 348 f;
#X obj 1199 326 bng 15 250 50 0 empty empty send -30 7 0 10 -262144
-1 -1;
#X floatatom 1218 307 5 0 0 0 - - -;
#X floatatom 1202 374 5 0 0 0 send_it6 - send_it6;
#X floatatom 1363 227 5 0 0 0 receive_it7 it7 -;
#X obj 1357 279 f;
#X obj 1334 258 bng 15 250 50 0 empty empty write -35 7 0 10 -262144
-1 -1;
#X obj 1340 348 f;
#X obj 1339 326 bng 15 250 50 0 empty empty send -30 7 0 10 -262144
-1 -1;
#X floatatom 1358 307 5 0 0 0 - - -;
#X floatatom 1342 374 5 0 0 0 send_it7 - send_it7;
#X floatatom 1503 227 5 0 0 0 receive_it8 it8 -;
#X obj 1497 279 f;
#X obj 1474 258 bng 15 250 50 0 empty empty write -35 7 0 10 -262144
-1 -1;
#X obj 1480 348 f;
#X obj 1479 326 bng 15 250 50 0 empty empty send -30 7 0 10 -262144
-1 -1;
#X floatatom 1498 307 5 0 0 0 - - -;
#X floatatom 1482 374 5 0 0 0 send_it8 - send_it8;
#X floatatom 1653 229 5 0 0 0 receive_it9 it9 -;
#X obj 1647 281 f;
#X obj 1624 260 bng 15 250 50 0 empty empty write -35 7 0 10 -262144
-1 -1;
#X obj 1630 350 f;
#X obj 1629 328 bng 15 250 50 0 empty empty send -30 7 0 10 -262144
-1 -1;
#X floatatom 1648 309 5 0 0 0 - - -;
#X floatatom 1632 376 5 0 0 0 send_it9 - send_it9;
#X floatatom 1793 229 5 0 0 0 receive_it10 it10 -;
#X obj 1787 281 f;
#X obj 1764 260 bng 15 250 50 0 empty empty write -35 7 0 10 -262144
-1 -1;
#X obj 1770 350 f;
#X obj 1769 328 bng 15 250 50 0 empty empty send -30 7 0 10 -262144
-1 -1;
#X floatatom 1788 309 5 0 0 0 - - -;
#X floatatom 1772 376 5 0 0 0 send_it10 - send_it10;
#X floatatom 1933 229 5 0 0 0 receive_it11 it11 -;
#X obj 1927 281 f;
#X obj 1904 260 bng 15 250 50 0 empty empty write -35 7 0 10 -262144
-1 -1;
#X obj 1910 350 f;
#X obj 1909 328 bng 15 250 50 0 empty empty send -30 7 0 10 -262144
-1 -1;
#X floatatom 1928 309 5 0 0 0 - - -;
#X floatatom 1912 376 5 0 0 0 send_it11 - send_it11;
#X floatatom 2073 229 5 0 0 0 receive_it12 it12 -;
#X obj 2067 281 f;
#X obj 2044 260 bng 15 250 50 0 empty empty write -35 7 0 10 -262144
-1 -1;
#X obj 2050 350 f;
#X obj 2049 328 bng 15 250 50 0 empty empty send -30 7 0 10 -262144
-1 -1;
#X floatatom 2068 309 5 0 0 0 - - -;
#X floatatom 2052 376 5 0 0 0 send_it12 - send_it12;
#X floatatom 2233 229 5 0 0 0 receive_it13 it13 -;
#X obj 2207 281 f;
#X obj 2184 260 bng 15 250 50 0 empty empty write -35 7 0 10 -262144
-1 -1;
#X obj 2190 350 f;
#X obj 2189 328 bng 15 250 50 0 empty empty send -30 7 0 10 -262144
-1 -1;
#X floatatom 2208 309 5 0 0 0 - - -;
#X floatatom 2192 376 5 0 0 0 send_it13 - send_it13;
#X floatatom 2373 229 5 0 0 0 receive_it14 it14 -;
#X obj 2367 281 f;
#X obj 2344 260 bng 15 250 50 0 empty empty write -35 7 0 10 -262144
-1 -1;
#X obj 2350 350 f;
#X obj 2349 328 bng 15 250 50 0 empty empty send -30 7 0 10 -262144
-1 -1;
#X floatatom 2368 309 5 0 0 0 - - -;
#X floatatom 2352 376 5 0 0 0 send_it14 - send_it14;
#X floatatom 2513 229 5 0 0 0 receive_it15 it15 -;
#X obj 2507 281 f;
#X obj 2484 260 bng 15 250 50 0 empty empty write -35 7 0 10 -262144
-1 -1;
#X obj 2490 350 f;
#X obj 2489 328 bng 15 250 50 0 empty empty send -30 7 0 10 -262144
-1 -1;
#X floatatom 2508 309 5 0 0 0 - - -;
#X floatatom 2492 376 5 0 0 0 send_it15 - send_it15;
#X floatatom 2653 229 5 0 0 0 receive_it16 it16 -;
#X obj 2647 281 f;
#X obj 2624 260 bng 15 250 50 0 empty empty write -35 7 0 10 -262144
-1 -1;
#X obj 2630 350 f;
#X obj 2629 328 bng 15 250 50 0 empty empty send -30 7 0 10 -262144
-1 -1;
#X floatatom 2648 309 5 0 0 0 - - -;
#X floatatom 2632 376 5 0 0 0 send_it16 - send_it16;
#X floatatom 533 407 5 0 0 0 receive_it1 it1 -;
#X obj 527 459 f;
#X obj 504 438 bng 15 250 50 0 empty empty write -35 7 0 10 -262144
-1 -1;
#X obj 510 528 f;
#X obj 509 506 bng 15 250 50 0 empty empty send -30 7 0 10 -262144
-1 -1;
#X floatatom 528 487 5 0 0 0 - - -;
#X floatatom 512 554 5 0 0 0 send_it1 - send_it1;
#X floatatom 673 407 5 0 0 0 receive_it2 it2 -;
#X obj 667 459 f;
#X obj 644 438 bng 15 250 50 0 empty empty write -35 7 0 10 -262144
-1 -1;
#X obj 650 528 f;
#X obj 649 506 bng 15 250 50 0 empty empty send -30 7 0 10 -262144
-1 -1;
#X floatatom 668 487 5 0 0 0 - - -;
#X floatatom 652 554 5 0 0 0 send_it2 - send_it2;
#X floatatom 813 407 5 0 0 0 receive_it3 it3 -;
#X obj 807 459 f;
#X obj 784 438 bng 15 250 50 0 empty empty write -35 7 0 10 -262144
-1 -1;
#X obj 790 528 f;
#X obj 789 506 bng 15 250 50 0 empty empty send -30 7 0 10 -262144
-1 -1;
#X floatatom 808 487 5 0 0 0 - - -;
#X floatatom 792 554 5 0 0 0 send_it3 - send_it3;
#X floatatom 363 407 5 0 0 0 receive_stepit stepit -;
#X obj 357 459 f;
#X obj 334 438 bng 15 250 50 0 empty empty write -35 7 0 10 -262144
-1 -1;
#X obj 340 528 f;
#X obj 339 506 bng 15 250 50 0 empty empty send -30 7 0 10 -262144
-1 -1;
#X floatatom 358 487 5 0 0 0 - - -;
#X floatatom 342 554 5 0 0 0 send_stepit - send_stepit;
#X floatatom 953 407 5 0 0 0 receive_it4 it4 -;
#X obj 947 459 f;
#X obj 924 438 bng 15 250 50 0 empty empty write -35 7 0 10 -262144
-1 -1;
#X obj 930 528 f;
#X obj 929 506 bng 15 250 50 0 empty empty send -30 7 0 10 -262144
-1 -1;
#X floatatom 948 487 5 0 0 0 - - -;
#X floatatom 932 554 5 0 0 0 send_it4 - send_it4;
#X floatatom 1083 407 5 0 0 0 receive_it5 it5 -;
#X obj 1077 459 f;
#X obj 1054 438 bng 15 250 50 0 empty empty write -35 7 0 10 -262144
-1 -1;
#X obj 1060 528 f;
#X obj 1059 506 bng 15 250 50 0 empty empty send -30 7 0 10 -262144
-1 -1;
#X floatatom 1078 487 5 0 0 0 - - -;
#X floatatom 1062 554 5 0 0 0 send_it5 - send_it5;
#X floatatom 1223 407 5 0 0 0 receive_it6 it6 -;
#X obj 1217 459 f;
#X obj 1194 438 bng 15 250 50 0 empty empty write -35 7 0 10 -262144
-1 -1;
#X obj 1200 528 f;
#X obj 1199 506 bng 15 250 50 0 empty empty send -30 7 0 10 -262144
-1 -1;
#X floatatom 1218 487 5 0 0 0 - - -;
#X floatatom 1202 554 5 0 0 0 send_it6 - send_it6;
#X floatatom 1363 407 5 0 0 0 receive_it7 it7 -;
#X obj 1357 459 f;
#X obj 1334 438 bng 15 250 50 0 empty empty write -35 7 0 10 -262144
-1 -1;
#X obj 1340 528 f;
#X obj 1339 506 bng 15 250 50 0 empty empty send -30 7 0 10 -262144
-1 -1;
#X floatatom 1358 487 5 0 0 0 - - -;
#X floatatom 1342 554 5 0 0 0 send_it7 - send_it7;
#X floatatom 1503 407 5 0 0 0 receive_it8 it8 -;
#X obj 1497 459 f;
#X obj 1474 438 bng 15 250 50 0 empty empty write -35 7 0 10 -262144
-1 -1;
#X obj 1480 528 f;
#X obj 1479 506 bng 15 250 50 0 empty empty send -30 7 0 10 -262144
-1 -1;
#X floatatom 1498 487 5 0 0 0 - - -;
#X floatatom 1482 554 5 0 0 0 send_it8 - send_it8;
#X floatatom 1653 409 5 0 0 0 receive_it9 it9 -;
#X obj 1647 461 f;
#X obj 1624 440 bng 15 250 50 0 empty empty write -35 7 0 10 -262144
-1 -1;
#X obj 1630 530 f;
#X obj 1629 508 bng 15 250 50 0 empty empty send -30 7 0 10 -262144
-1 -1;
#X floatatom 1648 489 5 0 0 0 - - -;
#X floatatom 1632 556 5 0 0 0 send_it9 - send_it9;
#X floatatom 1793 409 5 0 0 0 receive_it10 it10 -;
#X obj 1787 461 f;
#X obj 1764 440 bng 15 250 50 0 empty empty write -35 7 0 10 -262144
-1 -1;
#X obj 1770 530 f;
#X obj 1769 508 bng 15 250 50 0 empty empty send -30 7 0 10 -262144
-1 -1;
#X floatatom 1788 489 5 0 0 0 - - -;
#X floatatom 1772 556 5 0 0 0 send_it10 - send_it10;
#X floatatom 1933 409 5 0 0 0 receive_it11 it11 -;
#X obj 1927 461 f;
#X obj 1904 440 bng 15 250 50 0 empty empty write -35 7 0 10 -262144
-1 -1;
#X obj 1910 530 f;
#X obj 1909 508 bng 15 250 50 0 empty empty send -30 7 0 10 -262144
-1 -1;
#X floatatom 1928 489 5 0 0 0 - - -;
#X floatatom 1912 556 5 0 0 0 send_it11 - send_it11;
#X floatatom 2073 409 5 0 0 0 receive_it12 it12 -;
#X obj 2067 461 f;
#X obj 2044 440 bng 15 250 50 0 empty empty write -35 7 0 10 -262144
-1 -1;
#X obj 2050 530 f;
#X obj 2049 508 bng 15 250 50 0 empty empty send -30 7 0 10 -262144
-1 -1;
#X floatatom 2068 489 5 0 0 0 - - -;
#X floatatom 2052 556 5 0 0 0 send_it12 - send_it12;
#X floatatom 2233 409 5 0 0 0 receive_it13 it13 -;
#X obj 2207 461 f;
#X obj 2184 440 bng 15 250 50 0 empty empty write -35 7 0 10 -262144
-1 -1;
#X obj 2190 530 f;
#X obj 2189 508 bng 15 250 50 0 empty empty send -30 7 0 10 -262144
-1 -1;
#X floatatom 2208 489 5 0 0 0 - - -;
#X floatatom 2192 556 5 0 0 0 send_it13 - send_it13;
#X floatatom 2373 409 5 0 0 0 receive_it14 it14 -;
#X obj 2367 461 f;
#X obj 2344 440 bng 15 250 50 0 empty empty write -35 7 0 10 -262144
-1 -1;
#X obj 2350 530 f;
#X obj 2349 508 bng 15 250 50 0 empty empty send -30 7 0 10 -262144
-1 -1;
#X floatatom 2368 489 5 0 0 0 - - -;
#X floatatom 2352 556 5 0 0 0 send_it14 - send_it14;
#X floatatom 2513 409 5 0 0 0 receive_it15 it15 -;
#X obj 2507 461 f;
#X obj 2484 440 bng 15 250 50 0 empty empty write -35 7 0 10 -262144
-1 -1;
#X obj 2490 530 f;
#X obj 2489 508 bng 15 250 50 0 empty empty send -30 7 0 10 -262144
-1 -1;
#X floatatom 2508 489 5 0 0 0 - - -;
#X floatatom 2492 556 5 0 0 0 send_it15 - send_it15;
#X floatatom 2653 409 5 0 0 0 receive_it16 it16 -;
#X obj 2647 461 f;
#X obj 2624 440 bng 15 250 50 0 empty empty write -35 7 0 10 -262144
-1 -1;
#X obj 2630 530 f;
#X obj 2629 508 bng 15 250 50 0 empty empty send -30 7 0 10 -262144
-1 -1;
#X floatatom 2648 489 5 0 0 0 - - -;
#X floatatom 2632 556 5 0 0 0 send_it16 - send_it16;
#X floatatom 523 607 5 0 0 0 receive_it1 it1 -;
#X obj 517 659 f;
#X obj 494 638 bng 15 250 50 0 empty empty write -35 7 0 10 -262144
-1 -1;
#X obj 500 728 f;
#X obj 499 706 bng 15 250 50 0 empty empty send -30 7 0 10 -262144
-1 -1;
#X floatatom 518 687 5 0 0 0 - - -;
#X floatatom 502 754 5 0 0 0 send_it1 - send_it1;
#X floatatom 663 607 5 0 0 0 receive_it2 it2 -;
#X obj 657 659 f;
#X obj 634 638 bng 15 250 50 0 empty empty write -35 7 0 10 -262144
-1 -1;
#X obj 640 728 f;
#X obj 639 706 bng 15 250 50 0 empty empty send -30 7 0 10 -262144
-1 -1;
#X floatatom 658 687 5 0 0 0 - - -;
#X floatatom 642 754 5 0 0 0 send_it2 - send_it2;
#X floatatom 803 607 5 0 0 0 receive_it3 it3 -;
#X obj 797 659 f;
#X obj 774 638 bng 15 250 50 0 empty empty write -35 7 0 10 -262144
-1 -1;
#X obj 780 728 f;
#X obj 779 706 bng 15 250 50 0 empty empty send -30 7 0 10 -262144
-1 -1;
#X floatatom 798 687 5 0 0 0 - - -;
#X floatatom 782 754 5 0 0 0 send_it3 - send_it3;
#X floatatom 353 607 5 0 0 0 receive_stepit stepit -;
#X obj 347 659 f;
#X obj 324 638 bng 15 250 50 0 empty empty write -35 7 0 10 -262144
-1 -1;
#X obj 330 728 f;
#X obj 329 706 bng 15 250 50 0 empty empty send -30 7 0 10 -262144
-1 -1;
#X floatatom 348 687 5 0 0 0 - - -;
#X floatatom 332 754 5 0 0 0 send_stepit - send_stepit;
#X floatatom 943 607 5 0 0 0 receive_it4 it4 -;
#X obj 937 659 f;
#X obj 914 638 bng 15 250 50 0 empty empty write -35 7 0 10 -262144
-1 -1;
#X obj 920 728 f;
#X obj 919 706 bng 15 250 50 0 empty empty send -30 7 0 10 -262144
-1 -1;
#X floatatom 938 687 5 0 0 0 - - -;
#X floatatom 922 754 5 0 0 0 send_it4 - send_it4;
#X floatatom 1073 607 5 0 0 0 receive_it5 it5 -;
#X obj 1067 659 f;
#X obj 1044 638 bng 15 250 50 0 empty empty write -35 7 0 10 -262144
-1 -1;
#X obj 1050 728 f;
#X obj 1049 706 bng 15 250 50 0 empty empty send -30 7 0 10 -262144
-1 -1;
#X floatatom 1068 687 5 0 0 0 - - -;
#X floatatom 1052 754 5 0 0 0 send_it5 - send_it5;
#X floatatom 1213 607 5 0 0 0 receive_it6 it6 -;
#X obj 1207 659 f;
#X obj 1184 638 bng 15 250 50 0 empty empty write -35 7 0 10 -262144
-1 -1;
#X obj 1190 728 f;
#X obj 1189 706 bng 15 250 50 0 empty empty send -30 7 0 10 -262144
-1 -1;
#X floatatom 1208 687 5 0 0 0 - - -;
#X floatatom 1192 754 5 0 0 0 send_it6 - send_it6;
#X floatatom 1353 607 5 0 0 0 receive_it7 it7 -;
#X obj 1347 659 f;
#X obj 1324 638 bng 15 250 50 0 empty empty write -35 7 0 10 -262144
-1 -1;
#X obj 1330 728 f;
#X obj 1329 706 bng 15 250 50 0 empty empty send -30 7 0 10 -262144
-1 -1;
#X floatatom 1348 687 5 0 0 0 - - -;
#X floatatom 1332 754 5 0 0 0 send_it7 - send_it7;
#X floatatom 1493 607 5 0 0 0 receive_it8 it8 -;
#X obj 1487 659 f;
#X obj 1464 638 bng 15 250 50 0 empty empty write -35 7 0 10 -262144
-1 -1;
#X obj 1470 728 f;
#X obj 1469 706 bng 15 250 50 0 empty empty send -30 7 0 10 -262144
-1 -1;
#X floatatom 1488 687 5 0 0 0 - - -;
#X floatatom 1472 754 5 0 0 0 send_it8 - send_it8;
#X floatatom 1643 609 5 0 0 0 receive_it9 it9 -;
#X obj 1637 661 f;
#X obj 1614 640 bng 15 250 50 0 empty empty write -35 7 0 10 -262144
-1 -1;
#X obj 1620 730 f;
#X obj 1619 708 bng 15 250 50 0 empty empty send -30 7 0 10 -262144
-1 -1;
#X floatatom 1638 689 5 0 0 0 - - -;
#X floatatom 1622 756 5 0 0 0 send_it9 - send_it9;
#X floatatom 1783 609 5 0 0 0 receive_it10 it10 -;
#X obj 1777 661 f;
#X obj 1754 640 bng 15 250 50 0 empty empty write -35 7 0 10 -262144
-1 -1;
#X obj 1760 730 f;
#X obj 1759 708 bng 15 250 50 0 empty empty send -30 7 0 10 -262144
-1 -1;
#X floatatom 1778 689 5 0 0 0 - - -;
#X floatatom 1762 756 5 0 0 0 send_it10 - send_it10;
#X floatatom 1923 609 5 0 0 0 receive_it11 it11 -;
#X obj 1917 661 f;
#X obj 1894 640 bng 15 250 50 0 empty empty write -35 7 0 10 -262144
-1 -1;
#X obj 1900 730 f;
#X obj 1899 708 bng 15 250 50 0 empty empty send -30 7 0 10 -262144
-1 -1;
#X floatatom 1918 689 5 0 0 0 - - -;
#X floatatom 1902 756 5 0 0 0 send_it11 - send_it11;
#X floatatom 2063 609 5 0 0 0 receive_it12 it12 -;
#X obj 2057 661 f;
#X obj 2034 640 bng 15 250 50 0 empty empty write -35 7 0 10 -262144
-1 -1;
#X obj 2040 730 f;
#X obj 2039 708 bng 15 250 50 0 empty empty send -30 7 0 10 -262144
-1 -1;
#X floatatom 2058 689 5 0 0 0 - - -;
#X floatatom 2042 756 5 0 0 0 send_it12 - send_it12;
#X floatatom 2223 609 5 0 0 0 receive_it13 it13 -;
#X obj 2197 661 f;
#X obj 2174 640 bng 15 250 50 0 empty empty write -35 7 0 10 -262144
-1 -1;
#X obj 2180 730 f;
#X obj 2179 708 bng 15 250 50 0 empty empty send -30 7 0 10 -262144
-1 -1;
#X floatatom 2198 689 5 0 0 0 - - -;
#X floatatom 2182 756 5 0 0 0 send_it13 - send_it13;
#X floatatom 2363 609 5 0 0 0 receive_it14 it14 -;
#X obj 2357 661 f;
#X obj 2334 640 bng 15 250 50 0 empty empty write -35 7 0 10 -262144
-1 -1;
#X obj 2340 730 f;
#X obj 2339 708 bng 15 250 50 0 empty empty send -30 7 0 10 -262144
-1 -1;
#X floatatom 2358 689 5 0 0 0 - - -;
#X floatatom 2342 756 5 0 0 0 send_it14 - send_it14;
#X floatatom 2503 609 5 0 0 0 receive_it15 it15 -;
#X obj 2497 661 f;
#X obj 2474 640 bng 15 250 50 0 empty empty write -35 7 0 10 -262144
-1 -1;
#X obj 2480 730 f;
#X obj 2479 708 bng 15 250 50 0 empty empty send -30 7 0 10 -262144
-1 -1;
#X floatatom 2498 689 5 0 0 0 - - -;
#X floatatom 2482 756 5 0 0 0 send_it15 - send_it15;
#X floatatom 2643 609 5 0 0 0 receive_it16 it16 -;
#X obj 2637 661 f;
#X obj 2614 640 bng 15 250 50 0 empty empty write -35 7 0 10 -262144
-1 -1;
#X obj 2620 730 f;
#X obj 2619 708 bng 15 250 50 0 empty empty send -30 7 0 10 -262144
-1 -1;
#X floatatom 2638 689 5 0 0 0 - - -;
#X floatatom 2622 756 5 0 0 0 send_it16 - send_it16;
#X obj 102 102 hradio 18 1 0 4 empty empty empty 8 -10 0 10 -99865
-262144 -262144 1;
#X obj 176 102 hradio 18 1 0 4 empty empty empty 1 -10 0 10 -128992
-1 -262144 0;
#X floatatom 1359 103 5 0 0 0 - - -;
#X floatatom 1515 103 5 0 0 0 - - -;
#X floatatom 1650 103 5 0 0 0 - - -;
#X floatatom 1781 103 5 0 0 0 - - -;
#X floatatom 1931 103 5 0 0 0 - - -;
#X floatatom 2072 103 5 0 0 0 - - -;
#X floatatom 2232 103 5 0 0 0 - - -;
#X floatatom 2379 103 5 0 0 0 - - -;
#X floatatom 2522 103 5 0 0 0 - - -;
#X floatatom 2677 103 5 0 0 0 - - -;
#X floatatom 946 105 5 0 0 0 - - -;
#X floatatom 1072 103 5 0 0 0 - - -;
#X floatatom 1219 103 5 0 0 0 - - -;
#X floatatom 809 103 5 0 0 0 - - -;
#X floatatom 667 104 5 0 0 0 - - -;
#X floatatom 518 103 5 0 0 0 - - -;
#X floatatom 376 103 5 0 0 0 - - -;
#X floatatom 442 90 5 0 0 0 W.stepitA W.stepitA -;
#X floatatom 440 118 5 0 0 0 S.stepitA - S.stepitA;
#X floatatom 566 90 5 0 0 0 W.it1 W.it1 -;
#X floatatom 565 118 5 0 0 0 S.it1 - S.it1;
#X floatatom 716 90 5 0 0 0 W.it2 W.it2 -;
#X floatatom 717 118 5 0 0 0 S.it2 - S.it2;
#X floatatom 854 90 5 0 0 0 W.it3 W.it3 -;
#X floatatom 855 118 5 0 0 0 S.it3 - S.it3;
#X floatatom 1006 90 5 0 0 0 W.it4 W.it4 -;
#X floatatom 1005 118 5 0 0 0 S.it4 - S.it4;
#X floatatom 1130 90 5 0 0 0 W.it5 W.it5 -;
#X floatatom 1129 118 5 0 0 0 S.it5 - S.it5;
#X floatatom 1267 90 5 0 0 0 W.it6 W.it6 -;
#X floatatom 1267 118 5 0 0 0 S.it6 - S.it6;
#X floatatom 1434 90 5 0 0 0 W.it7 W.it7 -;
#X floatatom 1433 118 5 0 0 0 S.it7 - S.it7;
#X floatatom 1574 90 5 0 0 0 W.it8 W.it8 -;
#X floatatom 1573 118 5 0 0 0 S.it8 - S.it8;
#X floatatom 1703 90 5 0 0 0 W.it9 W.it9 -;
#X floatatom 1702 118 5 0 0 0 S.it9 - S.it9;
#X floatatom 1843 90 5 0 0 0 W.it10 W.it10 -;
#X floatatom 1842 118 5 0 0 0 S.it10 - S.it10;
#X floatatom 1985 90 5 0 0 0 W.it11 W.it11 -;
#X floatatom 1984 118 5 0 0 0 S.it11 - S.it11;
#X floatatom 2133 90 5 0 0 0 W.it12 W.it12 -;
#X floatatom 2133 118 5 0 0 0 S.it12 - S.it12;
#X floatatom 2287 90 5 0 0 0 W.it13 W.it13 -;
#X floatatom 2286 118 5 0 0 0 S.it13 - S.it13;
#X floatatom 2434 90 5 0 0 0 W.it14 W.it14 -;
#X floatatom 2433 118 5 0 0 0 S.it14 - S.it14;
#X floatatom 2588 90 5 0 0 0 W.it15 W.it15 -;
#X floatatom 2587 118 5 0 0 0 S.it15 - S.it15;
#X floatatom 2742 90 5 0 0 0 W.it16 W.it16 -;
#X floatatom 2741 118 5 0 0 0 S.it16 - S.it16;
#X connect 0 0 22 0;
#X connect 0 1 129 0;
#X connect 0 2 248 0;
#X connect 0 3 367 0;
#X connect 1 0 24 0;
#X connect 1 1 131 0;
#X connect 1 2 250 0;
#X connect 1 3 369 0;
#X connect 2 0 3 1;
#X connect 3 0 480 0;
#X connect 4 0 3 0;
#X connect 4 0 10 0;
#X connect 5 0 7 0;
#X connect 6 0 5 0;
#X connect 6 0 12 0;
#X connect 8 0 9 1;
#X connect 9 0 479 0;
#X connect 10 0 9 0;
#X connect 10 0 16 0;
#X connect 11 0 13 0;
#X connect 12 0 11 0;
#X connect 12 0 18 0;
#X connect 14 0 15 1;
#X connect 15 0 478 0;
#X connect 16 0 15 0;
#X connect 16 0 30 0;
#X connect 17 0 19 0;
#X connect 18 0 17 0;
#X connect 18 0 32 0;
#X connect 20 0 21 1;
#X connect 21 0 481 0;
#X connect 22 0 21 0;
#X connect 22 0 4 0;
#X connect 23 0 25 0;
#X connect 24 0 23 0;
#X connect 24 0 6 0;
#X connect 26 0 463 0;
#X connect 27 0 464 0;
#X connect 28 0 29 1;
#X connect 29 0 475 0;
#X connect 30 0 29 0;
#X connect 30 0 36 0;
#X connect 31 0 33 0;
#X connect 32 0 31 0;
#X connect 32 0 38 0;
#X connect 34 0 35 1;
#X connect 35 0 476 0;
#X connect 36 0 35 0;
#X connect 36 0 42 0;
#X connect 37 0 39 0;
#X connect 38 0 37 0;
#X connect 38 0 44 0;
#X connect 40 0 41 1;
#X connect 41 0 477 0;
#X connect 42 0 41 0;
#X connect 42 0 48 0;
#X connect 43 0 45 0;
#X connect 44 0 43 0;
#X connect 44 0 50 0;
#X connect 46 0 47 1;
#X connect 47 0 465 0;
#X connect 48 0 47 0;
#X connect 48 0 54 0;
#X connect 49 0 51 0;
#X connect 50 0 49 0;
#X connect 50 0 56 0;
#X connect 52 0 53 1;
#X connect 53 0 466 0;
#X connect 54 0 53 0;
#X connect 54 0 60 0;
#X connect 55 0 57 0;
#X connect 56 0 55 0;
#X connect 56 0 62 0;
#X connect 58 0 59 1;
#X connect 59 0 467 0;
#X connect 60 0 59 0;
#X connect 60 0 66 0;
#X connect 61 0 63 0;
#X connect 62 0 61 0;
#X connect 62 0 68 0;
#X connect 64 0 65 1;
#X connect 65 0 468 0;
#X connect 66 0 65 0;
#X connect 66 0 72 0;
#X connect 67 0 69 0;
#X connect 68 0 67 0;
#X connect 68 0 74 0;
#X connect 70 0 71 1;
#X connect 71 0 469 0;
#X connect 72 0 71 0;
#X connect 72 0 78 0;
#X connect 73 0 75 0;
#X connect 74 0 73 0;
#X connect 74 0 80 0;
#X connect 76 0 77 1;
#X connect 77 0 470 0;
#X connect 78 0 77 0;
#X connect 78 0 84 0;
#X connect 79 0 81 0;
#X connect 80 0 79 0;
#X connect 80 0 86 0;
#X connect 82 0 83 1;
#X connect 83 0 471 0;
#X connect 84 0 83 0;
#X connect 84 0 90 0;
#X connect 85 0 87 0;
#X connect 86 0 85 0;
#X connect 86 0 92 0;
#X connect 88 0 89 1;
#X connect 89 0 472 0;
#X connect 90 0 89 0;
#X connect 90 0 96 0;
#X connect 91 0 93 0;
#X connect 92 0 91 0;
#X connect 92 0 98 0;
#X connect 94 0 95 1;
#X connect 95 0 473 0;
#X connect 96 0 95 0;
#X connect 96 0 102 0;
#X connect 97 0 99 0;
#X connect 98 0 97 0;
#X connect 98 0 104 0;
#X connect 100 0 101 1;
#X connect 101 0 474 0;
#X connect 102 0 101 0;
#X connect 103 0 105 0;
#X connect 104 0 103 0;
#X connect 106 0 107 1;
#X connect 107 0 111 0;
#X connect 108 0 107 0;
#X connect 108 0 115 0;
#X connect 109 0 112 0;
#X connect 110 0 109 0;
#X connect 110 0 117 0;
#X connect 111 0 109 1;
#X connect 113 0 114 1;
#X connect 114 0 118 0;
#X connect 115 0 114 0;
#X connect 115 0 122 0;
#X connect 116 0 119 0;
#X connect 117 0 116 0;
#X connect 117 0 124 0;
#X connect 118 0 116 1;
#X connect 120 0 121 1;
#X connect 121 0 125 0;
#X connect 122 0 121 0;
#X connect 122 0 136 0;
#X connect 123 0 126 0;
#X connect 124 0 123 0;
#X connect 124 0 138 0;
#X connect 125 0 123 1;
#X connect 127 0 128 1;
#X connect 128 0 132 0;
#X connect 129 0 128 0;
#X connect 129 0 108 0;
#X connect 130 0 133 0;
#X connect 131 0 130 0;
#X connect 131 0 110 0;
#X connect 132 0 130 1;
#X connect 134 0 135 1;
#X connect 135 0 139 0;
#X connect 136 0 135 0;
#X connect 136 0 143 0;
#X connect 137 0 140 0;
#X connect 138 0 137 0;
#X connect 138 0 145 0;
#X connect 139 0 137 1;
#X connect 141 0 142 1;
#X connect 142 0 146 0;
#X connect 143 0 142 0;
#X connect 143 0 150 0;
#X connect 144 0 147 0;
#X connect 145 0 144 0;
#X connect 145 0 152 0;
#X connect 146 0 144 1;
#X connect 148 0 149 1;
#X connect 149 0 153 0;
#X connect 150 0 149 0;
#X connect 150 0 157 0;
#X connect 151 0 154 0;
#X connect 152 0 151 0;
#X connect 152 0 159 0;
#X connect 153 0 151 1;
#X connect 155 0 156 1;
#X connect 156 0 160 0;
#X connect 157 0 156 0;
#X connect 157 0 164 0;
#X connect 158 0 161 0;
#X connect 159 0 158 0;
#X connect 159 0 166 0;
#X connect 160 0 158 1;
#X connect 162 0 163 1;
#X connect 163 0 167 0;
#X connect 164 0 163 0;
#X connect 164 0 171 0;
#X connect 165 0 168 0;
#X connect 166 0 165 0;
#X connect 166 0 173 0;
#X connect 167 0 165 1;
#X connect 169 0 170 1;
#X connect 170 0 174 0;
#X connect 171 0 170 0;
#X connect 171 0 178 0;
#X connect 172 0 175 0;
#X connect 173 0 172 0;
#X connect 173 0 180 0;
#X connect 174 0 172 1;
#X connect 176 0 177 1;
#X connect 177 0 181 0;
#X connect 178 0 177 0;
#X connect 178 0 185 0;
#X connect 179 0 182 0;
#X connect 180 0 179 0;
#X connect 180 0 187 0;
#X connect 181 0 179 1;
#X connect 183 0 184 1;
#X connect 184 0 188 0;
#X connect 185 0 184 0;
#X connect 185 0 192 0;
#X connect 186 0 189 0;
#X connect 187 0 186 0;
#X connect 187 0 194 0;
#X connect 188 0 186 1;
#X connect 190 0 191 1;
#X connect 191 0 195 0;
#X connect 192 0 191 0;
#X connect 192 0 199 0;
#X connect 193 0 196 0;
#X connect 194 0 193 0;
#X connect 194 0 201 0;
#X connect 195 0 193 1;
#X connect 197 0 198 1;
#X connect 198 0 202 0;
#X connect 199 0 198 0;
#X connect 199 0 206 0;
#X connect 200 0 203 0;
#X connect 201 0 200 0;
#X connect 201 0 208 0;
#X connect 202 0 200 1;
#X connect 204 0 205 1;
#X connect 205 0 209 0;
#X connect 206 0 205 0;
#X connect 206 0 213 0;
#X connect 207 0 210 0;
#X connect 208 0 207 0;
#X connect 208 0 215 0;
#X connect 209 0 207 1;
#X connect 211 0 212 1;
#X connect 212 0 216 0;
#X connect 213 0 212 0;
#X connect 213 0 220 0;
#X connect 214 0 217 0;
#X connect 215 0 214 0;
#X connect 215 0 222 0;
#X connect 216 0 214 1;
#X connect 218 0 219 1;
#X connect 219 0 223 0;
#X connect 220 0 219 0;
#X connect 221 0 224 0;
#X connect 222 0 221 0;
#X connect 223 0 221 1;
#X connect 225 0 226 1;
#X connect 226 0 230 0;
#X connect 227 0 226 0;
#X connect 227 0 234 0;
#X connect 228 0 231 0;
#X connect 229 0 228 0;
#X connect 229 0 236 0;
#X connect 230 0 228 1;
#X connect 232 0 233 1;
#X connect 233 0 237 0;
#X connect 234 0 233 0;
#X connect 234 0 241 0;
#X connect 235 0 238 0;
#X connect 236 0 235 0;
#X connect 236 0 243 0;
#X connect 237 0 235 1;
#X connect 239 0 240 1;
#X connect 240 0 244 0;
#X connect 241 0 240 0;
#X connect 241 0 255 0;
#X connect 242 0 245 0;
#X connect 243 0 242 0;
#X connect 243 0 257 0;
#X connect 244 0 242 1;
#X connect 246 0 247 1;
#X connect 247 0 251 0;
#X connect 248 0 247 0;
#X connect 248 0 227 0;
#X connect 249 0 252 0;
#X connect 250 0 249 0;
#X connect 250 0 229 0;
#X connect 251 0 249 1;
#X connect 253 0 254 1;
#X connect 254 0 258 0;
#X connect 255 0 254 0;
#X connect 255 0 262 0;
#X connect 256 0 259 0;
#X connect 257 0 256 0;
#X connect 257 0 264 0;
#X connect 258 0 256 1;
#X connect 260 0 261 1;
#X connect 261 0 265 0;
#X connect 262 0 261 0;
#X connect 262 0 269 0;
#X connect 263 0 266 0;
#X connect 264 0 263 0;
#X connect 264 0 271 0;
#X connect 265 0 263 1;
#X connect 267 0 268 1;
#X connect 268 0 272 0;
#X connect 269 0 268 0;
#X connect 269 0 276 0;
#X connect 270 0 273 0;
#X connect 271 0 270 0;
#X connect 271 0 278 0;
#X connect 272 0 270 1;
#X connect 274 0 275 1;
#X connect 275 0 279 0;
#X connect 276 0 275 0;
#X connect 276 0 283 0;
#X connect 277 0 280 0;
#X connect 278 0 277 0;
#X connect 278 0 285 0;
#X connect 279 0 277 1;
#X connect 281 0 282 1;
#X connect 282 0 286 0;
#X connect 283 0 282 0;
#X connect 283 0 290 0;
#X connect 284 0 287 0;
#X connect 285 0 284 0;
#X connect 285 0 292 0;
#X connect 286 0 284 1;
#X connect 288 0 289 1;
#X connect 289 0 293 0;
#X connect 290 0 289 0;
#X connect 290 0 297 0;
#X connect 291 0 294 0;
#X connect 292 0 291 0;
#X connect 292 0 299 0;
#X connect 293 0 291 1;
#X connect 295 0 296 1;
#X connect 296 0 300 0;
#X connect 297 0 296 0;
#X connect 297 0 304 0;
#X connect 298 0 301 0;
#X connect 299 0 298 0;
#X connect 299 0 306 0;
#X connect 300 0 298 1;
#X connect 302 0 303 1;
#X connect 303 0 307 0;
#X connect 304 0 303 0;
#X connect 304 0 311 0;
#X connect 305 0 308 0;
#X connect 306 0 305 0;
#X connect 306 0 313 0;
#X connect 307 0 305 1;
#X connect 309 0 310 1;
#X connect 310 0 314 0;
#X connect 311 0 310 0;
#X connect 311 0 318 0;
#X connect 312 0 315 0;
#X connect 313 0 312 0;
#X connect 313 0 320 0;
#X connect 314 0 312 1;
#X connect 316 0 317 1;
#X connect 317 0 321 0;
#X connect 318 0 317 0;
#X connect 318 0 325 0;
#X connect 319 0 322 0;
#X connect 320 0 319 0;
#X connect 320 0 327 0;
#X connect 321 0 319 1;
#X connect 323 0 324 1;
#X connect 324 0 328 0;
#X connect 325 0 324 0;
#X connect 325 0 332 0;
#X connect 326 0 329 0;
#X connect 327 0 326 0;
#X connect 327 0 334 0;
#X connect 328 0 326 1;
#X connect 330 0 331 1;
#X connect 331 0 335 0;
#X connect 332 0 331 0;
#X connect 332 0 339 0;
#X connect 333 0 336 0;
#X connect 334 0 333 0;
#X connect 334 0 341 0;
#X connect 335 0 333 1;
#X connect 337 0 338 1;
#X connect 338 0 342 0;
#X connect 339 0 338 0;
#X connect 340 0 343 0;
#X connect 341 0 340 0;
#X connect 342 0 340 1;
#X connect 344 0 345 1;
#X connect 345 0 349 0;
#X connect 346 0 345 0;
#X connect 346 0 353 0;
#X connect 347 0 350 0;
#X connect 348 0 347 0;
#X connect 348 0 355 0;
#X connect 349 0 347 1;
#X connect 351 0 352 1;
#X connect 352 0 356 0;
#X connect 353 0 352 0;
#X connect 353 0 360 0;
#X connect 354 0 357 0;
#X connect 355 0 354 0;
#X connect 355 0 362 0;
#X connect 356 0 354 1;
#X connect 358 0 359 1;
#X connect 359 0 363 0;
#X connect 360 0 359 0;
#X connect 360 0 374 0;
#X connect 361 0 364 0;
#X connect 362 0 361 0;
#X connect 362 0 376 0;
#X connect 363 0 361 1;
#X connect 365 0 366 1;
#X connect 366 0 370 0;
#X connect 367 0 366 0;
#X connect 367 0 346 0;
#X connect 368 0 371 0;
#X connect 369 0 368 0;
#X connect 369 0 348 0;
#X connect 370 0 368 1;
#X connect 372 0 373 1;
#X connect 373 0 377 0;
#X connect 374 0 373 0;
#X connect 374 0 381 0;
#X connect 375 0 378 0;
#X connect 376 0 375 0;
#X connect 376 0 383 0;
#X connect 377 0 375 1;
#X connect 379 0 380 1;
#X connect 380 0 384 0;
#X connect 381 0 380 0;
#X connect 381 0 388 0;
#X connect 382 0 385 0;
#X connect 383 0 382 0;
#X connect 383 0 390 0;
#X connect 384 0 382 1;
#X connect 386 0 387 1;
#X connect 387 0 391 0;
#X connect 388 0 387 0;
#X connect 388 0 395 0;
#X connect 389 0 392 0;
#X connect 390 0 389 0;
#X connect 390 0 397 0;
#X connect 391 0 389 1;
#X connect 393 0 394 1;
#X connect 394 0 398 0;
#X connect 395 0 394 0;
#X connect 395 0 402 0;
#X connect 396 0 399 0;
#X connect 397 0 396 0;
#X connect 397 0 404 0;
#X connect 398 0 396 1;
#X connect 400 0 401 1;
#X connect 401 0 405 0;
#X connect 402 0 401 0;
#X connect 402 0 409 0;
#X connect 403 0 406 0;
#X connect 404 0 403 0;
#X connect 404 0 411 0;
#X connect 405 0 403 1;
#X connect 407 0 408 1;
#X connect 408 0 412 0;
#X connect 409 0 408 0;
#X connect 409 0 416 0;
#X connect 410 0 413 0;
#X connect 411 0 410 0;
#X connect 411 0 418 0;
#X connect 412 0 410 1;
#X connect 414 0 415 1;
#X connect 415 0 419 0;
#X connect 416 0 415 0;
#X connect 416 0 423 0;
#X connect 417 0 420 0;
#X connect 418 0 417 0;
#X connect 418 0 425 0;
#X connect 419 0 417 1;
#X connect 421 0 422 1;
#X connect 422 0 426 0;
#X connect 423 0 422 0;
#X connect 423 0 430 0;
#X connect 424 0 427 0;
#X connect 425 0 424 0;
#X connect 425 0 432 0;
#X connect 426 0 424 1;
#X connect 428 0 429 1;
#X connect 429 0 433 0;
#X connect 430 0 429 0;
#X connect 430 0 437 0;
#X connect 431 0 434 0;
#X connect 432 0 431 0;
#X connect 432 0 439 0;
#X connect 433 0 431 1;
#X connect 435 0 436 1;
#X connect 436 0 440 0;
#X connect 437 0 436 0;
#X connect 437 0 444 0;
#X connect 438 0 441 0;
#X connect 439 0 438 0;
#X connect 439 0 446 0;
#X connect 440 0 438 1;
#X connect 442 0 443 1;
#X connect 443 0 447 0;
#X connect 444 0 443 0;
#X connect 444 0 451 0;
#X connect 445 0 448 0;
#X connect 446 0 445 0;
#X connect 446 0 453 0;
#X connect 447 0 445 1;
#X connect 449 0 450 1;
#X connect 450 0 454 0;
#X connect 451 0 450 0;
#X connect 451 0 458 0;
#X connect 452 0 455 0;
#X connect 453 0 452 0;
#X connect 453 0 460 0;
#X connect 454 0 452 1;
#X connect 456 0 457 1;
#X connect 457 0 461 0;
#X connect 458 0 457 0;
#X connect 459 0 462 0;
#X connect 460 0 459 0;
#X connect 461 0 459 1;
#X connect 463 0 0 0;
#X connect 464 0 1 0;
#X connect 465 0 497 0;
#X connect 465 0 49 1;
#X connect 466 0 499 0;
#X connect 466 0 55 1;
#X connect 467 0 501 0;
#X connect 467 0 61 1;
#X connect 468 0 503 0;
#X connect 468 0 67 1;
#X connect 469 0 505 0;
#X connect 469 0 73 1;
#X connect 470 0 507 0;
#X connect 470 0 79 1;
#X connect 471 0 509 0;
#X connect 471 0 85 1;
#X connect 472 0 511 0;
#X connect 472 0 91 1;
#X connect 473 0 513 0;
#X connect 473 0 97 1;
#X connect 474 0 515 0;
#X connect 474 0 103 1;
#X connect 475 0 491 0;
#X connect 475 0 31 1;
#X connect 476 0 493 0;
#X connect 476 0 37 1;
#X connect 477 0 495 0;
#X connect 477 0 43 1;
#X connect 478 0 489 0;
#X connect 478 0 17 1;
#X connect 479 0 487 0;
#X connect 479 0 11 1;
#X connect 480 0 485 0;
#X connect 480 0 5 1;
#X connect 481 0 483 0;
#X connect 481 0 23 1;
#X connect 482 0 481 0;
#X connect 484 0 480 0;
#X connect 486 0 479 0;
#X connect 488 0 478 0;
#X connect 490 0 475 0;
#X connect 492 0 476 0;
#X connect 494 0 477 0;
#X connect 496 0 465 0;
#X connect 498 0 466 0;
#X connect 500 0 467 0;
#X connect 502 0 468 0;
#X connect 504 0 469 0;
#X connect 506 0 470 0;
#X connect 508 0 471 0;
#X connect 510 0 472 0;
#X connect 512 0 473 0;
#X connect 514 0 474 0;
#X coords 0 -1 1 1 150 22 2 100 100;
