#N canvas 0 0 1680 1028 12;
#X obj 356 75 sel 0 1 2;
#X obj 358 145 sel 0 1 2;
#X obj 957 79 f;
#X obj 924 58 bng 15 250 50 0 empty empty write -35 7 0 10 -262144
-1 -1;
#X obj 940 148 f;
#X obj 929 126 bng 15 250 50 0 empty empty send -30 7 0 10 -262144
-1 -1;
#X floatatom 958 107 5 0 0 0 - - -;
#X obj 1103 79 f;
#X obj 1080 58 bng 15 250 50 0 empty empty write -35 7 0 10 -262144
-1 -1;
#X obj 1086 148 f;
#X obj 1085 126 bng 15 250 50 0 empty empty send -30 7 0 10 -262144
-1 -1;
#X floatatom 1104 107 5 0 0 0 - - -;
#X obj 1247 79 f;
#X obj 1224 58 bng 15 250 50 0 empty empty write -35 7 0 10 -262144
-1 -1;
#X obj 1230 148 f;
#X obj 1229 126 bng 15 250 50 0 empty empty send -30 7 0 10 -262144
-1 -1;
#X floatatom 1248 107 5 0 0 0 - - -;
#X obj 1387 79 f;
#X obj 1364 58 bng 15 250 50 0 empty empty write -35 7 0 10 -262144
-1 -1;
#X obj 1370 148 f;
#X obj 1369 126 bng 15 250 50 0 empty empty send -30 7 0 10 -262144
-1 -1;
#X floatatom 1388 107 5 0 0 0 - - -;
#X obj 1527 79 f;
#X obj 1504 58 bng 15 250 50 0 empty empty write -35 7 0 10 -262144
-1 -1;
#X obj 1510 148 f;
#X obj 1509 126 bng 15 250 50 0 empty empty send -30 7 0 10 -262144
-1 -1;
#X floatatom 1528 107 5 0 0 0 - - -;
#X obj 1907 79 f;
#X obj 1884 58 bng 15 250 50 0 empty empty write -35 7 0 10 -262144
-1 -1;
#X obj 1890 148 f;
#X obj 1889 126 bng 15 250 50 0 empty empty send -30 7 0 10 -262144
-1 -1;
#X floatatom 1908 107 5 0 0 0 - - -;
#X obj 2037 79 f;
#X obj 2014 58 bng 15 250 50 0 empty empty write -35 7 0 10 -262144
-1 -1;
#X obj 2020 148 f;
#X obj 2019 126 bng 15 250 50 0 empty empty send -30 7 0 10 -262144
-1 -1;
#X floatatom 2038 107 5 0 0 0 - - -;
#X obj 2177 79 f;
#X obj 2154 58 bng 15 250 50 0 empty empty write -35 7 0 10 -262144
-1 -1;
#X obj 2160 148 f;
#X obj 2159 126 bng 15 250 50 0 empty empty send -30 7 0 10 -262144
-1 -1;
#X floatatom 2178 107 5 0 0 0 - - -;
#X obj 2318 79 f;
#X obj 2295 58 bng 15 250 50 0 empty empty write -35 7 0 10 -262144
-1 -1;
#X obj 2301 148 f;
#X obj 2300 126 bng 15 250 50 0 empty empty send -30 7 0 10 -262144
-1 -1;
#X floatatom 2319 107 5 0 0 0 - - -;
#X obj 2458 79 f;
#X obj 2435 58 bng 15 250 50 0 empty empty write -35 7 0 10 -262144
-1 -1;
#X obj 2441 148 f;
#X obj 2440 126 bng 15 250 50 0 empty empty send -30 7 0 10 -262144
-1 -1;
#X floatatom 2459 107 5 0 0 0 - - -;
#X obj 2588 79 f;
#X obj 2565 58 bng 15 250 50 0 empty empty write -35 7 0 10 -262144
-1 -1;
#X obj 2571 148 f;
#X obj 2570 126 bng 15 250 50 0 empty empty send -30 7 0 10 -262144
-1 -1;
#X floatatom 2589 107 5 0 0 0 - - -;
#X obj 2728 79 f;
#X obj 2705 58 bng 15 250 50 0 empty empty write -35 7 0 10 -262144
-1 -1;
#X obj 2711 148 f;
#X obj 2710 126 bng 15 250 50 0 empty empty send -30 7 0 10 -262144
-1 -1;
#X floatatom 2729 107 5 0 0 0 - - -;
#X obj 2868 79 f;
#X obj 2845 58 bng 15 250 50 0 empty empty write -35 7 0 10 -262144
-1 -1;
#X obj 2851 148 f;
#X obj 2850 126 bng 15 250 50 0 empty empty send -30 7 0 10 -262144
-1 -1;
#X floatatom 2869 107 5 0 0 0 - - -;
#X obj 3008 79 f;
#X obj 2985 58 bng 15 250 50 0 empty empty write -35 7 0 10 -262144
-1 -1;
#X obj 2991 148 f;
#X obj 2990 126 bng 15 250 50 0 empty empty send -30 7 0 10 -262144
-1 -1;
#X floatatom 3009 107 5 0 0 0 - - -;
#X obj 3138 79 f;
#X obj 3115 58 bng 15 250 50 0 empty empty write -35 7 0 10 -262144
-1 -1;
#X obj 3121 148 f;
#X obj 3120 126 bng 15 250 50 0 empty empty send -30 7 0 10 -262144
-1 -1;
#X floatatom 3139 107 5 0 0 0 - - -;
#X obj 3278 79 f;
#X obj 3255 58 bng 15 250 50 0 empty empty write -35 7 0 10 -262144
-1 -1;
#X obj 3261 148 f;
#X obj 3260 126 bng 15 250 50 0 empty empty send -30 7 0 10 -262144
-1 -1;
#X floatatom 3279 107 5 0 0 0 - - -;
#X obj 507 79 f;
#X obj 484 58 bng 15 250 50 0 empty empty write -35 7 0 10 -262144
-1 -1;
#X obj 490 148 f;
#X obj 489 126 bng 15 250 50 0 empty empty send -30 7 0 10 -262144
-1 -1;
#X floatatom 508 107 5 0 0 0 - - -;
#X obj 657 79 f;
#X obj 634 58 bng 15 250 50 0 empty empty write -35 7 0 10 -262144
-1 -1;
#X obj 640 148 f;
#X obj 639 126 bng 15 250 50 0 empty empty send -30 7 0 10 -262144
-1 -1;
#X floatatom 658 107 5 0 0 0 - - -;
#X obj 807 79 f;
#X obj 784 58 bng 15 250 50 0 empty empty write -35 7 0 10 -262144
-1 -1;
#X obj 790 148 f;
#X obj 789 126 bng 15 250 50 0 empty empty send -30 7 0 10 -262144
-1 -1;
#X floatatom 808 107 5 0 0 0 - - -;
#X obj 248 62 inlet;
#X obj 298 62 inlet;
#X obj 1646 79 f;
#X obj 1623 58 bng 15 250 50 0 empty empty write -35 7 0 10 -262144
-1 -1;
#X obj 1629 148 f;
#X obj 1628 126 bng 15 250 50 0 empty empty send -30 7 0 10 -262144
-1 -1;
#X floatatom 1647 107 5 0 0 0 - - -;
#X obj 1786 79 f;
#X obj 1763 58 bng 15 250 50 0 empty empty write -35 7 0 10 -262144
-1 -1;
#X obj 1769 148 f;
#X obj 1768 126 bng 15 250 50 0 empty empty send -30 7 0 10 -262144
-1 -1;
#X floatatom 1787 107 5 0 0 0 - - -;
#X obj 101 103 hradio 19 1 0 4 empty empty empty 8 -10 0 10 -99865
-262144 -262144 0;
#X obj 178 103 hradio 19 1 0 4 empty empty ALL_SAVE_<<•>>_ALL_LOAD
-70 -5 0 10 -99865 -1 -191407 2;
#X obj 243 174 outlet;
#X obj 303 176 outlet;
#X obj 3398 79 f;
#X obj 3375 58 bng 15 250 50 0 empty empty write -35 7 0 10 -262144
-1 -1;
#X obj 3381 148 f;
#X obj 3380 126 bng 15 250 50 0 empty empty send -30 7 0 10 -262144
-1 -1;
#X floatatom 3399 107 5 0 0 0 - - -;
#X obj 3528 79 f;
#X obj 3505 58 bng 15 250 50 0 empty empty write -35 7 0 10 -262144
-1 -1;
#X obj 3511 148 f;
#X obj 3510 126 bng 15 250 50 0 empty empty send -30 7 0 10 -262144
-1 -1;
#X floatatom 3529 107 5 0 0 0 - - -;
#X obj 3668 79 f;
#X obj 3645 58 bng 15 250 50 0 empty empty write -35 7 0 10 -262144
-1 -1;
#X obj 3651 148 f;
#X obj 3650 126 bng 15 250 50 0 empty empty send -30 7 0 10 -262144
-1 -1;
#X floatatom 3669 107 5 0 0 0 - - -;
#X obj 3786 68 bng 15 250 50 0 empty empty write -35 7 0 10 -262144
-1 -1;
#X obj 3791 136 bng 15 250 50 0 empty empty send -30 7 0 10 -262144
-1 -1;
#X floatatom 3810 117 5 0 0 0 - - -;
#X obj 3939 89 f;
#X obj 3916 68 bng 15 250 50 0 empty empty write -35 7 0 10 -262144
-1 -1;
#X obj 3922 158 f;
#X obj 3921 136 bng 15 250 50 0 empty empty send -30 7 0 10 -262144
-1 -1;
#X floatatom 3940 117 5 0 0 0 - - -;
#X obj 4079 89 f;
#X obj 4056 68 bng 15 250 50 0 empty empty write -35 7 0 10 -262144
-1 -1;
#X obj 4062 158 f;
#X obj 4061 136 bng 15 250 50 0 empty empty send -30 7 0 10 -262144
-1 -1;
#X floatatom 4080 117 5 0 0 0 - - -;
#X obj 4219 89 f;
#X obj 4196 68 bng 15 250 50 0 empty empty write -35 7 0 10 -262144
-1 -1;
#X obj 4202 158 f;
#X obj 4201 136 bng 15 250 50 0 empty empty send -30 7 0 10 -262144
-1 -1;
#X floatatom 4220 117 5 0 0 0 - - -;
#X obj 4359 89 f;
#X obj 4336 68 bng 15 250 50 0 empty empty write -35 7 0 10 -262144
-1 -1;
#X obj 4342 158 f;
#X obj 4341 136 bng 15 250 50 0 empty empty send -30 7 0 10 -262144
-1 -1;
#X floatatom 4360 117 5 0 0 0 - - -;
#X obj 4489 89 f;
#X obj 4466 68 bng 15 250 50 0 empty empty write -35 7 0 10 -262144
-1 -1;
#X obj 4473 163 f;
#X obj 4471 136 bng 15 250 50 0 empty empty send -30 7 0 10 -262144
-1 -1;
#X floatatom 4490 117 5 0 0 0 - - -;
#X obj 4629 89 f;
#X obj 4606 68 bng 15 250 50 0 empty empty write -35 7 0 10 -262144
-1 -1;
#X obj 4612 158 f;
#X obj 4611 136 bng 15 250 50 0 empty empty send -30 7 0 10 -262144
-1 -1;
#X floatatom 4630 117 5 0 0 0 - - -;
#X obj 4749 89 f;
#X obj 4726 68 bng 15 250 50 0 empty empty write -35 7 0 10 -262144
-1 -1;
#X obj 4732 158 f;
#X obj 4731 136 bng 15 250 50 0 empty empty send -30 7 0 10 -262144
-1 -1;
#X floatatom 4750 117 5 0 0 0 - - -;
#X obj 4879 89 f;
#X obj 4856 68 bng 15 250 50 0 empty empty write -35 7 0 10 -262144
-1 -1;
#X obj 4862 158 f;
#X obj 4861 136 bng 15 250 50 0 empty empty send -30 7 0 10 -262144
-1 -1;
#X floatatom 4880 117 5 0 0 0 - - -;
#X obj 5054 93 f;
#X obj 5031 72 bng 15 250 50 0 empty empty write -35 7 0 10 -262144
-1 -1;
#X obj 5037 162 f;
#X obj 5036 140 bng 15 250 50 0 empty empty send -30 7 0 10 -262144
-1 -1;
#X floatatom 5055 121 5 0 0 0 - - -;
#X obj 526 47 r s@pAA;
#X obj 475 180 s send_s@pAA;
#X obj 640 174 s send_s@pAB;
#X obj 675 50 r s@pAB;
#X obj 826 51 r s@pAa;
#X obj 788 175 s send_s@pAa;
#X obj 940 176 s send_s@pAb;
#X obj 974 51 r s@pAb;
#X obj 1116 47 r mods@pAA;
#X obj 1085 193 s send_mods@pAA;
#X obj 1252 44 r mods@pAB;
#X obj 1230 173 s send_mods@pAB;
#X obj 1402 36 r mods@pAa;
#X obj 1370 174 s send_mods@pAa;
#X obj 1537 36 r mods@pAb;
#X obj 1508 180 s send_mods@pAb;
#X obj 1670 35 r spAA;
#X obj 1629 177 s send_spAA;
#X obj 1795 23 r spAB;
#X obj 1769 174 s send_spAB;
#X obj 1906 24 r spAa;
#X obj 1887 178 s send_spAa;
#X obj 2053 32 r spAb;
#X obj 2019 176 s send_spAb;
#X obj 2185 33 r modspAA;
#X obj 2158 175 s send_modspAA;
#X obj 2337 38 r modspAB;
#X obj 2303 172 s send_modspAB;
#X obj 2463 36 r modspAa;
#X obj 2441 173 s send_modspAa;
#X obj 2601 40 r modspAb;
#X obj 2571 173 s send_modspAb;
#X obj 2730 31 r pAA;
#X obj 2711 175 s send_pAA;
#X obj 2879 27 r pAB;
#X obj 2850 173 s send_pAB;
#X obj 3010 34 r pAa;
#X obj 2989 173 s send_pAa;
#X obj 3149 35 r pAb;
#X obj 3121 177 s send_pAb;
#X obj 3293 29 r modpAA;
#X obj 3261 177 s send_modpAA;
#X obj 3408 30 r modpAB;
#X obj 3382 181 s send_modpAB;
#X obj 3531 29 r modpAa;
#X obj 3508 184 s send_modpAa;
#X obj 3650 183 s send_modpAb;
#X obj 3683 35 r modpAb;
#X obj 3943 37 r AB;
#X obj 3923 191 s send_AB;
#X obj 4077 44 r rawA;
#X obj 4060 182 s send_rawA;
#X obj 4200 189 s send_A@;
#X obj 4217 35 r A@;
#X obj 4372 39 r @re;
#X obj 4340 190 s send_@re;
#X obj 4502 38 r @A;
#X obj 4464 191 s send_@A;
#X obj 4642 43 r modAA;
#X obj 4602 191 s send_modAA;
#X obj 4727 190 s send_modAB;
#X obj 4760 48 r modAB;
#X obj 4896 39 r reposetoinoffA;
#X obj 4838 185 s send_reposetoinoffA;
#X obj 5069 67 r reposetoinoffAB;
#X obj 5037 188 s send_reposetoinoffAB;
#X obj 947 269 f;
#X obj 914 248 bng 15 250 50 0 empty empty write -35 7 0 10 -262144
-1 -1;
#X obj 930 338 f;
#X obj 919 316 bng 15 250 50 0 empty empty send -30 7 0 10 -262144
-1 -1;
#X floatatom 948 297 5 0 0 0 - - -;
#X obj 1093 269 f;
#X obj 1070 248 bng 15 250 50 0 empty empty write -35 7 0 10 -262144
-1 -1;
#X obj 1076 338 f;
#X obj 1075 316 bng 15 250 50 0 empty empty send -30 7 0 10 -262144
-1 -1;
#X floatatom 1094 297 5 0 0 0 - - -;
#X obj 1237 269 f;
#X obj 1214 248 bng 15 250 50 0 empty empty write -35 7 0 10 -262144
-1 -1;
#X obj 1220 338 f;
#X obj 1219 316 bng 15 250 50 0 empty empty send -30 7 0 10 -262144
-1 -1;
#X floatatom 1238 297 5 0 0 0 - - -;
#X obj 1377 269 f;
#X obj 1354 248 bng 15 250 50 0 empty empty write -35 7 0 10 -262144
-1 -1;
#X obj 1360 338 f;
#X obj 1359 316 bng 15 250 50 0 empty empty send -30 7 0 10 -262144
-1 -1;
#X floatatom 1378 297 5 0 0 0 - - -;
#X obj 1517 269 f;
#X obj 1494 248 bng 15 250 50 0 empty empty write -35 7 0 10 -262144
-1 -1;
#X obj 1500 338 f;
#X obj 1499 316 bng 15 250 50 0 empty empty send -30 7 0 10 -262144
-1 -1;
#X floatatom 1518 297 5 0 0 0 - - -;
#X obj 1897 269 f;
#X obj 1874 248 bng 15 250 50 0 empty empty write -35 7 0 10 -262144
-1 -1;
#X obj 1880 338 f;
#X obj 1879 316 bng 15 250 50 0 empty empty send -30 7 0 10 -262144
-1 -1;
#X floatatom 1898 297 5 0 0 0 - - -;
#X obj 2027 269 f;
#X obj 2004 248 bng 15 250 50 0 empty empty write -35 7 0 10 -262144
-1 -1;
#X obj 2010 338 f;
#X obj 2009 316 bng 15 250 50 0 empty empty send -30 7 0 10 -262144
-1 -1;
#X floatatom 2028 297 5 0 0 0 - - -;
#X obj 2167 269 f;
#X obj 2144 248 bng 15 250 50 0 empty empty write -35 7 0 10 -262144
-1 -1;
#X obj 2150 338 f;
#X obj 2149 316 bng 15 250 50 0 empty empty send -30 7 0 10 -262144
-1 -1;
#X floatatom 2168 297 5 0 0 0 - - -;
#X obj 2308 269 f;
#X obj 2285 248 bng 15 250 50 0 empty empty write -35 7 0 10 -262144
-1 -1;
#X obj 2291 338 f;
#X obj 2290 316 bng 15 250 50 0 empty empty send -30 7 0 10 -262144
-1 -1;
#X floatatom 2309 297 5 0 0 0 - - -;
#X obj 2448 269 f;
#X obj 2425 248 bng 15 250 50 0 empty empty write -35 7 0 10 -262144
-1 -1;
#X obj 2431 338 f;
#X obj 2430 316 bng 15 250 50 0 empty empty send -30 7 0 10 -262144
-1 -1;
#X floatatom 2449 297 5 0 0 0 - - -;
#X obj 2578 269 f;
#X obj 2555 248 bng 15 250 50 0 empty empty write -35 7 0 10 -262144
-1 -1;
#X obj 2561 338 f;
#X obj 2560 316 bng 15 250 50 0 empty empty send -30 7 0 10 -262144
-1 -1;
#X floatatom 2579 297 5 0 0 0 - - -;
#X obj 2718 269 f;
#X obj 2695 248 bng 15 250 50 0 empty empty write -35 7 0 10 -262144
-1 -1;
#X obj 2701 338 f;
#X obj 2700 316 bng 15 250 50 0 empty empty send -30 7 0 10 -262144
-1 -1;
#X floatatom 2719 297 5 0 0 0 - - -;
#X obj 2858 269 f;
#X obj 2835 248 bng 15 250 50 0 empty empty write -35 7 0 10 -262144
-1 -1;
#X obj 2841 338 f;
#X obj 2840 316 bng 15 250 50 0 empty empty send -30 7 0 10 -262144
-1 -1;
#X floatatom 2859 297 5 0 0 0 - - -;
#X obj 2998 269 f;
#X obj 2975 248 bng 15 250 50 0 empty empty write -35 7 0 10 -262144
-1 -1;
#X obj 2981 338 f;
#X obj 2980 316 bng 15 250 50 0 empty empty send -30 7 0 10 -262144
-1 -1;
#X floatatom 2999 297 5 0 0 0 - - -;
#X obj 3128 269 f;
#X obj 3105 248 bng 15 250 50 0 empty empty write -35 7 0 10 -262144
-1 -1;
#X obj 3111 338 f;
#X obj 3110 316 bng 15 250 50 0 empty empty send -30 7 0 10 -262144
-1 -1;
#X floatatom 3129 297 5 0 0 0 - - -;
#X obj 3268 269 f;
#X obj 3245 248 bng 15 250 50 0 empty empty write -35 7 0 10 -262144
-1 -1;
#X obj 3251 338 f;
#X obj 3250 316 bng 15 250 50 0 empty empty send -30 7 0 10 -262144
-1 -1;
#X floatatom 3269 297 5 0 0 0 - - -;
#X obj 497 269 f;
#X obj 474 248 bng 15 250 50 0 empty empty write -35 7 0 10 -262144
-1 -1;
#X obj 480 338 f;
#X obj 479 316 bng 15 250 50 0 empty empty send -30 7 0 10 -262144
-1 -1;
#X floatatom 498 297 5 0 0 0 - - -;
#X obj 647 269 f;
#X obj 624 248 bng 15 250 50 0 empty empty write -35 7 0 10 -262144
-1 -1;
#X obj 630 338 f;
#X obj 629 316 bng 15 250 50 0 empty empty send -30 7 0 10 -262144
-1 -1;
#X floatatom 648 297 5 0 0 0 - - -;
#X obj 797 269 f;
#X obj 774 248 bng 15 250 50 0 empty empty write -35 7 0 10 -262144
-1 -1;
#X obj 780 338 f;
#X obj 779 316 bng 15 250 50 0 empty empty send -30 7 0 10 -262144
-1 -1;
#X floatatom 798 297 5 0 0 0 - - -;
#X obj 1636 269 f;
#X obj 1613 248 bng 15 250 50 0 empty empty write -35 7 0 10 -262144
-1 -1;
#X obj 1619 338 f;
#X obj 1618 316 bng 15 250 50 0 empty empty send -30 7 0 10 -262144
-1 -1;
#X floatatom 1637 297 5 0 0 0 - - -;
#X obj 1776 269 f;
#X obj 1753 248 bng 15 250 50 0 empty empty write -35 7 0 10 -262144
-1 -1;
#X obj 1759 338 f;
#X obj 1758 316 bng 15 250 50 0 empty empty send -30 7 0 10 -262144
-1 -1;
#X floatatom 1777 297 5 0 0 0 - - -;
#X obj 3388 269 f;
#X obj 3365 248 bng 15 250 50 0 empty empty write -35 7 0 10 -262144
-1 -1;
#X obj 3371 338 f;
#X obj 3370 316 bng 15 250 50 0 empty empty send -30 7 0 10 -262144
-1 -1;
#X floatatom 3389 297 5 0 0 0 - - -;
#X obj 3518 269 f;
#X obj 3495 248 bng 15 250 50 0 empty empty write -35 7 0 10 -262144
-1 -1;
#X obj 3501 338 f;
#X obj 3500 316 bng 15 250 50 0 empty empty send -30 7 0 10 -262144
-1 -1;
#X floatatom 3519 297 5 0 0 0 - - -;
#X obj 3658 269 f;
#X obj 3635 248 bng 15 250 50 0 empty empty write -35 7 0 10 -262144
-1 -1;
#X obj 3641 338 f;
#X obj 3640 316 bng 15 250 50 0 empty empty send -30 7 0 10 -262144
-1 -1;
#X floatatom 3659 297 5 0 0 0 - - -;
#X obj 3776 258 bng 15 250 50 0 empty empty write -35 7 0 10 -262144
-1 -1;
#X obj 3781 326 bng 15 250 50 0 empty empty send -30 7 0 10 -262144
-1 -1;
#X floatatom 3800 307 5 0 0 0 - - -;
#X obj 3929 279 f;
#X obj 3906 258 bng 15 250 50 0 empty empty write -35 7 0 10 -262144
-1 -1;
#X obj 3912 348 f;
#X obj 3911 326 bng 15 250 50 0 empty empty send -30 7 0 10 -262144
-1 -1;
#X floatatom 3930 307 5 0 0 0 - - -;
#X obj 4069 279 f;
#X obj 4046 258 bng 15 250 50 0 empty empty write -35 7 0 10 -262144
-1 -1;
#X obj 4052 348 f;
#X obj 4051 326 bng 15 250 50 0 empty empty send -30 7 0 10 -262144
-1 -1;
#X floatatom 4070 307 5 0 0 0 - - -;
#X obj 4209 279 f;
#X obj 4186 258 bng 15 250 50 0 empty empty write -35 7 0 10 -262144
-1 -1;
#X obj 4192 348 f;
#X obj 4191 326 bng 15 250 50 0 empty empty send -30 7 0 10 -262144
-1 -1;
#X floatatom 4210 307 5 0 0 0 - - -;
#X obj 4349 279 f;
#X obj 4326 258 bng 15 250 50 0 empty empty write -35 7 0 10 -262144
-1 -1;
#X obj 4332 348 f;
#X obj 4331 326 bng 15 250 50 0 empty empty send -30 7 0 10 -262144
-1 -1;
#X floatatom 4350 307 5 0 0 0 - - -;
#X obj 4479 279 f;
#X obj 4456 258 bng 15 250 50 0 empty empty write -35 7 0 10 -262144
-1 -1;
#X obj 4463 353 f;
#X obj 4461 326 bng 15 250 50 0 empty empty send -30 7 0 10 -262144
-1 -1;
#X floatatom 4480 307 5 0 0 0 - - -;
#X obj 4619 279 f;
#X obj 4596 258 bng 15 250 50 0 empty empty write -35 7 0 10 -262144
-1 -1;
#X obj 4602 348 f;
#X obj 4601 326 bng 15 250 50 0 empty empty send -30 7 0 10 -262144
-1 -1;
#X floatatom 4620 307 5 0 0 0 - - -;
#X obj 4739 279 f;
#X obj 4716 258 bng 15 250 50 0 empty empty write -35 7 0 10 -262144
-1 -1;
#X obj 4722 348 f;
#X obj 4721 326 bng 15 250 50 0 empty empty send -30 7 0 10 -262144
-1 -1;
#X floatatom 4740 307 5 0 0 0 - - -;
#X obj 4869 279 f;
#X obj 4846 258 bng 15 250 50 0 empty empty write -35 7 0 10 -262144
-1 -1;
#X obj 4852 348 f;
#X obj 4851 326 bng 15 250 50 0 empty empty send -30 7 0 10 -262144
-1 -1;
#X floatatom 4870 307 5 0 0 0 - - -;
#X obj 5044 283 f;
#X obj 5021 262 bng 15 250 50 0 empty empty write -35 7 0 10 -262144
-1 -1;
#X obj 5027 352 f;
#X obj 5026 330 bng 15 250 50 0 empty empty send -30 7 0 10 -262144
-1 -1;
#X floatatom 5045 311 5 0 0 0 - - -;
#X obj 516 237 r s@pAA;
#X obj 465 370 s send_s@pAA;
#X obj 630 364 s send_s@pAB;
#X obj 665 240 r s@pAB;
#X obj 816 241 r s@pAa;
#X obj 778 365 s send_s@pAa;
#X obj 930 366 s send_s@pAb;
#X obj 964 241 r s@pAb;
#X obj 1106 237 r mods@pAA;
#X obj 1076 364 s send_mods@pAA;
#X obj 1242 234 r mods@pAB;
#X obj 1220 363 s send_mods@pAB;
#X obj 1392 226 r mods@pAa;
#X obj 1360 364 s send_mods@pAa;
#X obj 1527 226 r mods@pAb;
#X obj 1498 370 s send_mods@pAb;
#X obj 1660 225 r spAA;
#X obj 1619 367 s send_spAA;
#X obj 1785 213 r spAB;
#X obj 1759 364 s send_spAB;
#X obj 1896 214 r spAa;
#X obj 1877 368 s send_spAa;
#X obj 2043 222 r spAb;
#X obj 2009 366 s send_spAb;
#X obj 2175 223 r modspAA;
#X obj 2148 365 s send_modspAA;
#X obj 2327 228 r modspAB;
#X obj 2293 362 s send_modspAB;
#X obj 2453 226 r modspAa;
#X obj 2431 363 s send_modspAa;
#X obj 2591 230 r modspAb;
#X obj 2561 363 s send_modspAb;
#X obj 2720 221 r pAA;
#X obj 2701 365 s send_pAA;
#X obj 2869 217 r pAB;
#X obj 2840 363 s send_pAB;
#X obj 3000 224 r pAa;
#X obj 2979 363 s send_pAa;
#X obj 3139 225 r pAb;
#X obj 3111 367 s send_pAb;
#X obj 3283 219 r modpAA;
#X obj 3251 367 s send_modpAA;
#X obj 3398 220 r modpAB;
#X obj 3372 371 s send_modpAB;
#X obj 3521 219 r modpAa;
#X obj 3498 374 s send_modpAa;
#X obj 3640 373 s send_modpAb;
#X obj 3673 225 r modpAb;
#X obj 3933 227 r AB;
#X obj 3913 381 s send_AB;
#X obj 4067 234 r rawA;
#X obj 4050 372 s send_rawA;
#X obj 4190 379 s send_A@;
#X obj 4207 225 r A@;
#X obj 4362 229 r @re;
#X obj 4330 380 s send_@re;
#X obj 4492 228 r @A;
#X obj 4454 381 s send_@A;
#X obj 4632 233 r modAA;
#X obj 4592 381 s send_modAA;
#X obj 4717 380 s send_modAB;
#X obj 4750 238 r modAB;
#X obj 4886 229 r reposetoinoffA;
#X obj 4828 375 s send_reposetoinoffA;
#X obj 5059 257 r reposetoinoffAB;
#X obj 5027 378 s send_reposetoinoffAB;
#X obj 967 449 f;
#X obj 934 428 bng 15 250 50 0 empty empty write -35 7 0 10 -262144
-1 -1;
#X obj 950 518 f;
#X obj 939 496 bng 15 250 50 0 empty empty send -30 7 0 10 -262144
-1 -1;
#X floatatom 968 477 5 0 0 0 - - -;
#X obj 1113 449 f;
#X obj 1090 428 bng 15 250 50 0 empty empty write -35 7 0 10 -262144
-1 -1;
#X obj 1096 518 f;
#X obj 1095 496 bng 15 250 50 0 empty empty send -30 7 0 10 -262144
-1 -1;
#X floatatom 1114 477 5 0 0 0 - - -;
#X obj 1257 449 f;
#X obj 1234 428 bng 15 250 50 0 empty empty write -35 7 0 10 -262144
-1 -1;
#X obj 1240 518 f;
#X obj 1239 496 bng 15 250 50 0 empty empty send -30 7 0 10 -262144
-1 -1;
#X floatatom 1258 477 5 0 0 0 - - -;
#X obj 1397 449 f;
#X obj 1374 428 bng 15 250 50 0 empty empty write -35 7 0 10 -262144
-1 -1;
#X obj 1380 518 f;
#X obj 1379 496 bng 15 250 50 0 empty empty send -30 7 0 10 -262144
-1 -1;
#X floatatom 1398 477 5 0 0 0 - - -;
#X obj 1537 449 f;
#X obj 1514 428 bng 15 250 50 0 empty empty write -35 7 0 10 -262144
-1 -1;
#X obj 1520 518 f;
#X obj 1519 496 bng 15 250 50 0 empty empty send -30 7 0 10 -262144
-1 -1;
#X floatatom 1538 477 5 0 0 0 - - -;
#X obj 1917 449 f;
#X obj 1894 428 bng 15 250 50 0 empty empty write -35 7 0 10 -262144
-1 -1;
#X obj 1900 518 f;
#X obj 1899 496 bng 15 250 50 0 empty empty send -30 7 0 10 -262144
-1 -1;
#X floatatom 1918 477 5 0 0 0 - - -;
#X obj 2047 449 f;
#X obj 2024 428 bng 15 250 50 0 empty empty write -35 7 0 10 -262144
-1 -1;
#X obj 2030 518 f;
#X obj 2029 496 bng 15 250 50 0 empty empty send -30 7 0 10 -262144
-1 -1;
#X floatatom 2048 477 5 0 0 0 - - -;
#X obj 2187 449 f;
#X obj 2164 428 bng 15 250 50 0 empty empty write -35 7 0 10 -262144
-1 -1;
#X obj 2170 518 f;
#X obj 2169 496 bng 15 250 50 0 empty empty send -30 7 0 10 -262144
-1 -1;
#X floatatom 2188 477 5 0 0 0 - - -;
#X obj 2328 449 f;
#X obj 2305 428 bng 15 250 50 0 empty empty write -35 7 0 10 -262144
-1 -1;
#X obj 2311 518 f;
#X obj 2310 496 bng 15 250 50 0 empty empty send -30 7 0 10 -262144
-1 -1;
#X floatatom 2329 477 5 0 0 0 - - -;
#X obj 2468 449 f;
#X obj 2445 428 bng 15 250 50 0 empty empty write -35 7 0 10 -262144
-1 -1;
#X obj 2451 518 f;
#X obj 2450 496 bng 15 250 50 0 empty empty send -30 7 0 10 -262144
-1 -1;
#X floatatom 2469 477 5 0 0 0 - - -;
#X obj 2598 449 f;
#X obj 2575 428 bng 15 250 50 0 empty empty write -35 7 0 10 -262144
-1 -1;
#X obj 2581 518 f;
#X obj 2580 496 bng 15 250 50 0 empty empty send -30 7 0 10 -262144
-1 -1;
#X floatatom 2599 477 5 0 0 0 - - -;
#X obj 2738 449 f;
#X obj 2715 428 bng 15 250 50 0 empty empty write -35 7 0 10 -262144
-1 -1;
#X obj 2721 518 f;
#X obj 2720 496 bng 15 250 50 0 empty empty send -30 7 0 10 -262144
-1 -1;
#X floatatom 2739 477 5 0 0 0 - - -;
#X obj 2878 449 f;
#X obj 2855 428 bng 15 250 50 0 empty empty write -35 7 0 10 -262144
-1 -1;
#X obj 2861 518 f;
#X obj 2860 496 bng 15 250 50 0 empty empty send -30 7 0 10 -262144
-1 -1;
#X floatatom 2879 477 5 0 0 0 - - -;
#X obj 3018 449 f;
#X obj 2995 428 bng 15 250 50 0 empty empty write -35 7 0 10 -262144
-1 -1;
#X obj 3001 518 f;
#X obj 3000 496 bng 15 250 50 0 empty empty send -30 7 0 10 -262144
-1 -1;
#X floatatom 3019 477 5 0 0 0 - - -;
#X obj 3148 449 f;
#X obj 3125 428 bng 15 250 50 0 empty empty write -35 7 0 10 -262144
-1 -1;
#X obj 3131 518 f;
#X obj 3130 496 bng 15 250 50 0 empty empty send -30 7 0 10 -262144
-1 -1;
#X floatatom 3149 477 5 0 0 0 - - -;
#X obj 3288 449 f;
#X obj 3265 428 bng 15 250 50 0 empty empty write -35 7 0 10 -262144
-1 -1;
#X obj 3271 518 f;
#X obj 3270 496 bng 15 250 50 0 empty empty send -30 7 0 10 -262144
-1 -1;
#X floatatom 3289 477 5 0 0 0 - - -;
#X obj 517 449 f;
#X obj 494 428 bng 15 250 50 0 empty empty write -35 7 0 10 -262144
-1 -1;
#X obj 500 518 f;
#X obj 499 496 bng 15 250 50 0 empty empty send -30 7 0 10 -262144
-1 -1;
#X floatatom 518 477 5 0 0 0 - - -;
#X obj 667 449 f;
#X obj 644 428 bng 15 250 50 0 empty empty write -35 7 0 10 -262144
-1 -1;
#X obj 650 518 f;
#X obj 649 496 bng 15 250 50 0 empty empty send -30 7 0 10 -262144
-1 -1;
#X floatatom 668 477 5 0 0 0 - - -;
#X obj 817 449 f;
#X obj 794 428 bng 15 250 50 0 empty empty write -35 7 0 10 -262144
-1 -1;
#X obj 800 518 f;
#X obj 799 496 bng 15 250 50 0 empty empty send -30 7 0 10 -262144
-1 -1;
#X floatatom 818 477 5 0 0 0 - - -;
#X obj 1656 449 f;
#X obj 1633 428 bng 15 250 50 0 empty empty write -35 7 0 10 -262144
-1 -1;
#X obj 1639 518 f;
#X obj 1638 496 bng 15 250 50 0 empty empty send -30 7 0 10 -262144
-1 -1;
#X floatatom 1657 477 5 0 0 0 - - -;
#X obj 1796 449 f;
#X obj 1773 428 bng 15 250 50 0 empty empty write -35 7 0 10 -262144
-1 -1;
#X obj 1779 518 f;
#X obj 1778 496 bng 15 250 50 0 empty empty send -30 7 0 10 -262144
-1 -1;
#X floatatom 1797 477 5 0 0 0 - - -;
#X obj 3408 449 f;
#X obj 3385 428 bng 15 250 50 0 empty empty write -35 7 0 10 -262144
-1 -1;
#X obj 3391 518 f;
#X obj 3390 496 bng 15 250 50 0 empty empty send -30 7 0 10 -262144
-1 -1;
#X floatatom 3409 477 5 0 0 0 - - -;
#X obj 3538 449 f;
#X obj 3515 428 bng 15 250 50 0 empty empty write -35 7 0 10 -262144
-1 -1;
#X obj 3521 518 f;
#X obj 3520 496 bng 15 250 50 0 empty empty send -30 7 0 10 -262144
-1 -1;
#X floatatom 3539 477 5 0 0 0 - - -;
#X obj 3678 449 f;
#X obj 3655 428 bng 15 250 50 0 empty empty write -35 7 0 10 -262144
-1 -1;
#X obj 3661 518 f;
#X obj 3660 496 bng 15 250 50 0 empty empty send -30 7 0 10 -262144
-1 -1;
#X floatatom 3679 477 5 0 0 0 - - -;
#X obj 3796 438 bng 15 250 50 0 empty empty write -35 7 0 10 -262144
-1 -1;
#X obj 3801 506 bng 15 250 50 0 empty empty send -30 7 0 10 -262144
-1 -1;
#X floatatom 3820 487 5 0 0 0 - - -;
#X obj 3949 459 f;
#X obj 3926 438 bng 15 250 50 0 empty empty write -35 7 0 10 -262144
-1 -1;
#X obj 3932 528 f;
#X obj 3931 506 bng 15 250 50 0 empty empty send -30 7 0 10 -262144
-1 -1;
#X floatatom 3950 487 5 0 0 0 - - -;
#X obj 4089 459 f;
#X obj 4066 438 bng 15 250 50 0 empty empty write -35 7 0 10 -262144
-1 -1;
#X obj 4072 528 f;
#X obj 4071 506 bng 15 250 50 0 empty empty send -30 7 0 10 -262144
-1 -1;
#X floatatom 4090 487 5 0 0 0 - - -;
#X obj 4229 459 f;
#X obj 4206 438 bng 15 250 50 0 empty empty write -35 7 0 10 -262144
-1 -1;
#X obj 4212 528 f;
#X obj 4211 506 bng 15 250 50 0 empty empty send -30 7 0 10 -262144
-1 -1;
#X floatatom 4230 487 5 0 0 0 - - -;
#X obj 4369 459 f;
#X obj 4346 438 bng 15 250 50 0 empty empty write -35 7 0 10 -262144
-1 -1;
#X obj 4352 528 f;
#X obj 4351 506 bng 15 250 50 0 empty empty send -30 7 0 10 -262144
-1 -1;
#X floatatom 4370 487 5 0 0 0 - - -;
#X obj 4499 459 f;
#X obj 4476 438 bng 15 250 50 0 empty empty write -35 7 0 10 -262144
-1 -1;
#X obj 4483 533 f;
#X obj 4481 506 bng 15 250 50 0 empty empty send -30 7 0 10 -262144
-1 -1;
#X floatatom 4500 487 5 0 0 0 - - -;
#X obj 4639 459 f;
#X obj 4616 438 bng 15 250 50 0 empty empty write -35 7 0 10 -262144
-1 -1;
#X obj 4622 528 f;
#X obj 4621 506 bng 15 250 50 0 empty empty send -30 7 0 10 -262144
-1 -1;
#X floatatom 4640 487 5 0 0 0 - - -;
#X obj 4759 459 f;
#X obj 4736 438 bng 15 250 50 0 empty empty write -35 7 0 10 -262144
-1 -1;
#X obj 4742 528 f;
#X obj 4741 506 bng 15 250 50 0 empty empty send -30 7 0 10 -262144
-1 -1;
#X floatatom 4760 487 5 0 0 0 - - -;
#X obj 4889 459 f;
#X obj 4866 438 bng 15 250 50 0 empty empty write -35 7 0 10 -262144
-1 -1;
#X obj 4872 528 f;
#X obj 4871 506 bng 15 250 50 0 empty empty send -30 7 0 10 -262144
-1 -1;
#X floatatom 4890 487 5 0 0 0 - - -;
#X obj 5064 463 f;
#X obj 5041 442 bng 15 250 50 0 empty empty write -35 7 0 10 -262144
-1 -1;
#X obj 5047 532 f;
#X obj 5046 510 bng 15 250 50 0 empty empty send -30 7 0 10 -262144
-1 -1;
#X floatatom 5065 491 5 0 0 0 - - -;
#X obj 536 417 r s@pAA;
#X obj 485 550 s send_s@pAA;
#X obj 650 544 s send_s@pAB;
#X obj 685 420 r s@pAB;
#X obj 836 421 r s@pAa;
#X obj 798 545 s send_s@pAa;
#X obj 950 546 s send_s@pAb;
#X obj 984 421 r s@pAb;
#X obj 1126 417 r mods@pAA;
#X obj 1096 544 s send_mods@pAA;
#X obj 1262 414 r mods@pAB;
#X obj 1240 543 s send_mods@pAB;
#X obj 1412 406 r mods@pAa;
#X obj 1380 544 s send_mods@pAa;
#X obj 1547 406 r mods@pAb;
#X obj 1518 550 s send_mods@pAb;
#X obj 1680 405 r spAA;
#X obj 1639 547 s send_spAA;
#X obj 1805 393 r spAB;
#X obj 1779 544 s send_spAB;
#X obj 1916 394 r spAa;
#X obj 1897 548 s send_spAa;
#X obj 2063 402 r spAb;
#X obj 2029 546 s send_spAb;
#X obj 2195 403 r modspAA;
#X obj 2168 545 s send_modspAA;
#X obj 2347 408 r modspAB;
#X obj 2313 542 s send_modspAB;
#X obj 2473 406 r modspAa;
#X obj 2451 543 s send_modspAa;
#X obj 2611 410 r modspAb;
#X obj 2581 543 s send_modspAb;
#X obj 2740 401 r pAA;
#X obj 2721 545 s send_pAA;
#X obj 2889 397 r pAB;
#X obj 2860 543 s send_pAB;
#X obj 3020 404 r pAa;
#X obj 2999 543 s send_pAa;
#X obj 3159 405 r pAb;
#X obj 3131 547 s send_pAb;
#X obj 3303 399 r modpAA;
#X obj 3271 547 s send_modpAA;
#X obj 3418 400 r modpAB;
#X obj 3392 551 s send_modpAB;
#X obj 3541 399 r modpAa;
#X obj 3518 554 s send_modpAa;
#X obj 3660 553 s send_modpAb;
#X obj 3693 405 r modpAb;
#X obj 3953 407 r AB;
#X obj 3933 561 s send_AB;
#X obj 4087 414 r rawA;
#X obj 4070 552 s send_rawA;
#X obj 4210 559 s send_A@;
#X obj 4227 405 r A@;
#X obj 4382 409 r @re;
#X obj 4350 560 s send_@re;
#X obj 4512 408 r @A;
#X obj 4474 561 s send_@A;
#X obj 4652 413 r modAA;
#X obj 4612 561 s send_modAA;
#X obj 4737 560 s send_modAB;
#X obj 4770 418 r modAB;
#X obj 4906 409 r reposetoinoffA;
#X obj 4848 555 s send_reposetoinoffA;
#X obj 5079 437 r reposetoinoffAB;
#X obj 5047 558 s send_reposetoinoffAB;
#X obj 957 639 f;
#X obj 924 618 bng 15 250 50 0 empty empty write -35 7 0 10 -262144
-1 -1;
#X obj 940 708 f;
#X obj 929 686 bng 15 250 50 0 empty empty send -30 7 0 10 -262144
-1 -1;
#X floatatom 958 667 5 0 0 0 - - -;
#X obj 1103 639 f;
#X obj 1080 618 bng 15 250 50 0 empty empty write -35 7 0 10 -262144
-1 -1;
#X obj 1086 708 f;
#X obj 1085 686 bng 15 250 50 0 empty empty send -30 7 0 10 -262144
-1 -1;
#X floatatom 1104 667 5 0 0 0 - - -;
#X obj 1247 639 f;
#X obj 1224 618 bng 15 250 50 0 empty empty write -35 7 0 10 -262144
-1 -1;
#X obj 1230 708 f;
#X obj 1229 686 bng 15 250 50 0 empty empty send -30 7 0 10 -262144
-1 -1;
#X floatatom 1248 667 5 0 0 0 - - -;
#X obj 1387 639 f;
#X obj 1364 618 bng 15 250 50 0 empty empty write -35 7 0 10 -262144
-1 -1;
#X obj 1370 708 f;
#X obj 1369 686 bng 15 250 50 0 empty empty send -30 7 0 10 -262144
-1 -1;
#X floatatom 1388 667 5 0 0 0 - - -;
#X obj 1527 639 f;
#X obj 1504 618 bng 15 250 50 0 empty empty write -35 7 0 10 -262144
-1 -1;
#X obj 1510 708 f;
#X obj 1509 686 bng 15 250 50 0 empty empty send -30 7 0 10 -262144
-1 -1;
#X floatatom 1528 667 5 0 0 0 - - -;
#X obj 1907 639 f;
#X obj 1884 618 bng 15 250 50 0 empty empty write -35 7 0 10 -262144
-1 -1;
#X obj 1890 708 f;
#X obj 1889 686 bng 15 250 50 0 empty empty send -30 7 0 10 -262144
-1 -1;
#X floatatom 1908 667 5 0 0 0 - - -;
#X obj 2037 639 f;
#X obj 2014 618 bng 15 250 50 0 empty empty write -35 7 0 10 -262144
-1 -1;
#X obj 2020 708 f;
#X obj 2019 686 bng 15 250 50 0 empty empty send -30 7 0 10 -262144
-1 -1;
#X floatatom 2038 667 5 0 0 0 - - -;
#X obj 2177 639 f;
#X obj 2154 618 bng 15 250 50 0 empty empty write -35 7 0 10 -262144
-1 -1;
#X obj 2160 708 f;
#X obj 2159 686 bng 15 250 50 0 empty empty send -30 7 0 10 -262144
-1 -1;
#X floatatom 2178 667 5 0 0 0 - - -;
#X obj 2318 639 f;
#X obj 2295 618 bng 15 250 50 0 empty empty write -35 7 0 10 -262144
-1 -1;
#X obj 2301 708 f;
#X obj 2300 686 bng 15 250 50 0 empty empty send -30 7 0 10 -262144
-1 -1;
#X floatatom 2319 667 5 0 0 0 - - -;
#X obj 2458 639 f;
#X obj 2435 618 bng 15 250 50 0 empty empty write -35 7 0 10 -262144
-1 -1;
#X obj 2441 708 f;
#X obj 2440 686 bng 15 250 50 0 empty empty send -30 7 0 10 -262144
-1 -1;
#X floatatom 2459 667 5 0 0 0 - - -;
#X obj 2588 639 f;
#X obj 2565 618 bng 15 250 50 0 empty empty write -35 7 0 10 -262144
-1 -1;
#X obj 2571 708 f;
#X obj 2570 686 bng 15 250 50 0 empty empty send -30 7 0 10 -262144
-1 -1;
#X floatatom 2589 667 5 0 0 0 - - -;
#X obj 2728 639 f;
#X obj 2705 618 bng 15 250 50 0 empty empty write -35 7 0 10 -262144
-1 -1;
#X obj 2711 708 f;
#X obj 2710 686 bng 15 250 50 0 empty empty send -30 7 0 10 -262144
-1 -1;
#X floatatom 2729 667 5 0 0 0 - - -;
#X obj 2868 639 f;
#X obj 2845 618 bng 15 250 50 0 empty empty write -35 7 0 10 -262144
-1 -1;
#X obj 2851 708 f;
#X obj 2850 686 bng 15 250 50 0 empty empty send -30 7 0 10 -262144
-1 -1;
#X floatatom 2869 667 5 0 0 0 - - -;
#X obj 3008 639 f;
#X obj 2985 618 bng 15 250 50 0 empty empty write -35 7 0 10 -262144
-1 -1;
#X obj 2991 708 f;
#X obj 2990 686 bng 15 250 50 0 empty empty send -30 7 0 10 -262144
-1 -1;
#X floatatom 3009 667 5 0 0 0 - - -;
#X obj 3138 639 f;
#X obj 3115 618 bng 15 250 50 0 empty empty write -35 7 0 10 -262144
-1 -1;
#X obj 3121 708 f;
#X obj 3120 686 bng 15 250 50 0 empty empty send -30 7 0 10 -262144
-1 -1;
#X floatatom 3139 667 5 0 0 0 - - -;
#X obj 3278 639 f;
#X obj 3255 618 bng 15 250 50 0 empty empty write -35 7 0 10 -262144
-1 -1;
#X obj 3261 708 f;
#X obj 3260 686 bng 15 250 50 0 empty empty send -30 7 0 10 -262144
-1 -1;
#X floatatom 3279 667 5 0 0 0 - - -;
#X obj 507 639 f;
#X obj 484 618 bng 15 250 50 0 empty empty write -35 7 0 10 -262144
-1 -1;
#X obj 490 708 f;
#X obj 489 686 bng 15 250 50 0 empty empty send -30 7 0 10 -262144
-1 -1;
#X floatatom 508 667 5 0 0 0 - - -;
#X obj 657 639 f;
#X obj 634 618 bng 15 250 50 0 empty empty write -35 7 0 10 -262144
-1 -1;
#X obj 640 708 f;
#X obj 639 686 bng 15 250 50 0 empty empty send -30 7 0 10 -262144
-1 -1;
#X floatatom 658 667 5 0 0 0 - - -;
#X obj 807 639 f;
#X obj 784 618 bng 15 250 50 0 empty empty write -35 7 0 10 -262144
-1 -1;
#X obj 790 708 f;
#X obj 789 686 bng 15 250 50 0 empty empty send -30 7 0 10 -262144
-1 -1;
#X floatatom 808 667 5 0 0 0 - - -;
#X obj 1646 639 f;
#X obj 1623 618 bng 15 250 50 0 empty empty write -35 7 0 10 -262144
-1 -1;
#X obj 1629 708 f;
#X obj 1628 686 bng 15 250 50 0 empty empty send -30 7 0 10 -262144
-1 -1;
#X floatatom 1647 667 5 0 0 0 - - -;
#X obj 1786 639 f;
#X obj 1763 618 bng 15 250 50 0 empty empty write -35 7 0 10 -262144
-1 -1;
#X obj 1769 708 f;
#X obj 1768 686 bng 15 250 50 0 empty empty send -30 7 0 10 -262144
-1 -1;
#X floatatom 1787 667 5 0 0 0 - - -;
#X obj 3398 639 f;
#X obj 3375 618 bng 15 250 50 0 empty empty write -35 7 0 10 -262144
-1 -1;
#X obj 3381 708 f;
#X obj 3380 686 bng 15 250 50 0 empty empty send -30 7 0 10 -262144
-1 -1;
#X floatatom 3399 667 5 0 0 0 - - -;
#X obj 3528 639 f;
#X obj 3505 618 bng 15 250 50 0 empty empty write -35 7 0 10 -262144
-1 -1;
#X obj 3511 708 f;
#X obj 3510 686 bng 15 250 50 0 empty empty send -30 7 0 10 -262144
-1 -1;
#X floatatom 3529 667 5 0 0 0 - - -;
#X obj 3668 639 f;
#X obj 3645 618 bng 15 250 50 0 empty empty write -35 7 0 10 -262144
-1 -1;
#X obj 3651 708 f;
#X obj 3650 686 bng 15 250 50 0 empty empty send -30 7 0 10 -262144
-1 -1;
#X floatatom 3669 667 5 0 0 0 - - -;
#X obj 3786 628 bng 15 250 50 0 empty empty write -35 7 0 10 -262144
-1 -1;
#X obj 3791 696 bng 15 250 50 0 empty empty send -30 7 0 10 -262144
-1 -1;
#X floatatom 3810 677 5 0 0 0 - - -;
#X obj 3939 649 f;
#X obj 3916 628 bng 15 250 50 0 empty empty write -35 7 0 10 -262144
-1 -1;
#X obj 3922 718 f;
#X obj 3921 696 bng 15 250 50 0 empty empty send -30 7 0 10 -262144
-1 -1;
#X floatatom 3940 677 5 0 0 0 - - -;
#X obj 4079 649 f;
#X obj 4056 628 bng 15 250 50 0 empty empty write -35 7 0 10 -262144
-1 -1;
#X obj 4062 718 f;
#X obj 4061 696 bng 15 250 50 0 empty empty send -30 7 0 10 -262144
-1 -1;
#X floatatom 4080 677 5 0 0 0 - - -;
#X obj 4219 649 f;
#X obj 4196 628 bng 15 250 50 0 empty empty write -35 7 0 10 -262144
-1 -1;
#X obj 4202 718 f;
#X obj 4201 696 bng 15 250 50 0 empty empty send -30 7 0 10 -262144
-1 -1;
#X floatatom 4220 677 5 0 0 0 - - -;
#X obj 4359 649 f;
#X obj 4336 628 bng 15 250 50 0 empty empty write -35 7 0 10 -262144
-1 -1;
#X obj 4342 718 f;
#X obj 4341 696 bng 15 250 50 0 empty empty send -30 7 0 10 -262144
-1 -1;
#X floatatom 4360 677 5 0 0 0 - - -;
#X obj 4489 649 f;
#X obj 4466 628 bng 15 250 50 0 empty empty write -35 7 0 10 -262144
-1 -1;
#X obj 4473 723 f;
#X obj 4471 696 bng 15 250 50 0 empty empty send -30 7 0 10 -262144
-1 -1;
#X floatatom 4490 677 5 0 0 0 - - -;
#X obj 4629 649 f;
#X obj 4606 628 bng 15 250 50 0 empty empty write -35 7 0 10 -262144
-1 -1;
#X obj 4612 718 f;
#X obj 4611 696 bng 15 250 50 0 empty empty send -30 7 0 10 -262144
-1 -1;
#X floatatom 4630 677 5 0 0 0 - - -;
#X obj 4749 649 f;
#X obj 4726 628 bng 15 250 50 0 empty empty write -35 7 0 10 -262144
-1 -1;
#X obj 4732 718 f;
#X obj 4731 696 bng 15 250 50 0 empty empty send -30 7 0 10 -262144
-1 -1;
#X floatatom 4750 677 5 0 0 0 - - -;
#X obj 4879 649 f;
#X obj 4856 628 bng 15 250 50 0 empty empty write -35 7 0 10 -262144
-1 -1;
#X obj 4862 718 f;
#X obj 4861 696 bng 15 250 50 0 empty empty send -30 7 0 10 -262144
-1 -1;
#X floatatom 4880 677 5 0 0 0 - - -;
#X obj 5054 653 f;
#X obj 5031 632 bng 15 250 50 0 empty empty write -35 7 0 10 -262144
-1 -1;
#X obj 5037 722 f;
#X obj 5036 700 bng 15 250 50 0 empty empty send -30 7 0 10 -262144
-1 -1;
#X floatatom 5055 681 5 0 0 0 - - -;
#X obj 526 607 r s@pAA;
#X obj 475 740 s send_s@pAA;
#X obj 640 734 s send_s@pAB;
#X obj 675 610 r s@pAB;
#X obj 826 611 r s@pAa;
#X obj 788 735 s send_s@pAa;
#X obj 940 736 s send_s@pAb;
#X obj 974 611 r s@pAb;
#X obj 1116 607 r mods@pAA;
#X obj 1086 734 s send_mods@pAA;
#X obj 1252 604 r mods@pAB;
#X obj 1230 733 s send_mods@pAB;
#X obj 1402 596 r mods@pAa;
#X obj 1370 734 s send_mods@pAa;
#X obj 1537 596 r mods@pAb;
#X obj 1508 740 s send_mods@pAb;
#X obj 1670 595 r spAA;
#X obj 1629 737 s send_spAA;
#X obj 1795 583 r spAB;
#X obj 1769 734 s send_spAB;
#X obj 1906 584 r spAa;
#X obj 1887 738 s send_spAa;
#X obj 2053 592 r spAb;
#X obj 2019 736 s send_spAb;
#X obj 2185 593 r modspAA;
#X obj 2158 735 s send_modspAA;
#X obj 2337 598 r modspAB;
#X obj 2303 732 s send_modspAB;
#X obj 2463 596 r modspAa;
#X obj 2441 733 s send_modspAa;
#X obj 2601 600 r modspAb;
#X obj 2571 733 s send_modspAb;
#X obj 2730 591 r pAA;
#X obj 2711 735 s send_pAA;
#X obj 2879 587 r pAB;
#X obj 2850 733 s send_pAB;
#X obj 3010 594 r pAa;
#X obj 2989 733 s send_pAa;
#X obj 3149 595 r pAb;
#X obj 3121 737 s send_pAb;
#X obj 3293 589 r modpAA;
#X obj 3261 737 s send_modpAA;
#X obj 3408 590 r modpAB;
#X obj 3382 741 s send_modpAB;
#X obj 3531 589 r modpAa;
#X obj 3508 744 s send_modpAa;
#X obj 3650 743 s send_modpAb;
#X obj 3683 595 r modpAb;
#X obj 3943 597 r AB;
#X obj 3923 751 s send_AB;
#X obj 4077 604 r rawA;
#X obj 4060 742 s send_rawA;
#X obj 4200 749 s send_A@;
#X obj 4217 595 r A@;
#X obj 4372 599 r @re;
#X obj 4340 750 s send_@re;
#X obj 4502 598 r @A;
#X obj 4464 751 s send_@A;
#X obj 4642 603 r modAA;
#X obj 4602 751 s send_modAA;
#X obj 4727 750 s send_modAB;
#X obj 4760 608 r modAB;
#X obj 4896 599 r reposetoinoffA;
#X obj 4838 745 s send_reposetoinoffA;
#X obj 5069 627 r reposetoinoffAB;
#X obj 5037 748 s send_reposetoinoffAB;
#X obj 5425 196 s send_A<<B;
#X obj 5429 39 r A<<B;
#X obj 5521 198 s send_AøB;
#X obj 5526 43 r AøB;
#X obj 5242 191 s send_A<<A;
#X obj 5245 35 r A<<A;
#X obj 5341 193 s send_AøA;
#X obj 5345 37 r AøA;
#X obj 5279 99 f;
#X obj 5256 78 bng 15 250 50 0 empty empty write -35 7 0 10 -262144
-1 -1;
#X obj 5262 168 f;
#X obj 5261 146 bng 15 250 50 0 empty empty send -30 7 0 10 -262144
-1 -1;
#X floatatom 5280 127 5 0 0 0 - - -;
#X obj 5389 99 f;
#X obj 5366 78 bng 15 250 50 0 empty empty write -35 7 0 10 -262144
-1 -1;
#X obj 5372 168 f;
#X obj 5371 146 bng 15 250 50 0 empty empty send -30 7 0 10 -262144
-1 -1;
#X floatatom 5390 127 5 0 0 0 - - -;
#X obj 5489 99 f;
#X obj 5466 78 bng 15 250 50 0 empty empty write -35 7 0 10 -262144
-1 -1;
#X obj 5472 168 f;
#X obj 5471 146 bng 15 250 50 0 empty empty send -30 7 0 10 -262144
-1 -1;
#X floatatom 5490 127 5 0 0 0 - - -;
#X obj 5558 99 f;
#X obj 5535 78 bng 15 250 50 0 empty empty write -35 7 0 10 -262144
-1 -1;
#X obj 5541 168 f;
#X obj 5540 146 bng 15 250 50 0 empty empty send -30 7 0 10 -262144
-1 -1;
#X floatatom 5559 127 5 0 0 0 - - -;
#X obj 5435 396 s send_A<<B;
#X obj 5439 239 r A<<B;
#X obj 5531 398 s send_AøB;
#X obj 5536 243 r AøB;
#X obj 5252 391 s send_A<<A;
#X obj 5255 235 r A<<A;
#X obj 5351 393 s send_AøA;
#X obj 5355 237 r AøA;
#X obj 5289 299 f;
#X obj 5266 278 bng 15 250 50 0 empty empty write -35 7 0 10 -262144
-1 -1;
#X obj 5272 368 f;
#X obj 5271 346 bng 15 250 50 0 empty empty send -30 7 0 10 -262144
-1 -1;
#X floatatom 5290 327 5 0 0 0 - - -;
#X obj 5399 299 f;
#X obj 5376 278 bng 15 250 50 0 empty empty write -35 7 0 10 -262144
-1 -1;
#X obj 5382 368 f;
#X obj 5381 346 bng 15 250 50 0 empty empty send -30 7 0 10 -262144
-1 -1;
#X floatatom 5400 327 5 0 0 0 - - -;
#X obj 5499 299 f;
#X obj 5476 278 bng 15 250 50 0 empty empty write -35 7 0 10 -262144
-1 -1;
#X obj 5482 368 f;
#X obj 5481 346 bng 15 250 50 0 empty empty send -30 7 0 10 -262144
-1 -1;
#X floatatom 5500 327 5 0 0 0 - - -;
#X obj 5568 299 f;
#X obj 5545 278 bng 15 250 50 0 empty empty write -35 7 0 10 -262144
-1 -1;
#X obj 5551 368 f;
#X obj 5550 346 bng 15 250 50 0 empty empty send -30 7 0 10 -262144
-1 -1;
#X floatatom 5569 327 5 0 0 0 - - -;
#X obj 5435 586 s send_A<<B;
#X obj 5439 429 r A<<B;
#X obj 5531 588 s send_AøB;
#X obj 5536 433 r AøB;
#X obj 5252 581 s send_A<<A;
#X obj 5255 425 r A<<A;
#X obj 5351 583 s send_AøA;
#X obj 5355 427 r AøA;
#X obj 5289 489 f;
#X obj 5266 468 bng 15 250 50 0 empty empty write -35 7 0 10 -262144
-1 -1;
#X obj 5272 558 f;
#X obj 5271 536 bng 15 250 50 0 empty empty send -30 7 0 10 -262144
-1 -1;
#X floatatom 5290 517 5 0 0 0 - - -;
#X obj 5399 489 f;
#X obj 5376 468 bng 15 250 50 0 empty empty write -35 7 0 10 -262144
-1 -1;
#X obj 5382 558 f;
#X obj 5381 536 bng 15 250 50 0 empty empty send -30 7 0 10 -262144
-1 -1;
#X floatatom 5400 517 5 0 0 0 - - -;
#X obj 5499 489 f;
#X obj 5476 468 bng 15 250 50 0 empty empty write -35 7 0 10 -262144
-1 -1;
#X obj 5482 558 f;
#X obj 5481 536 bng 15 250 50 0 empty empty send -30 7 0 10 -262144
-1 -1;
#X floatatom 5500 517 5 0 0 0 - - -;
#X obj 5568 489 f;
#X obj 5545 468 bng 15 250 50 0 empty empty write -35 7 0 10 -262144
-1 -1;
#X obj 5551 558 f;
#X obj 5550 536 bng 15 250 50 0 empty empty send -30 7 0 10 -262144
-1 -1;
#X floatatom 5569 517 5 0 0 0 - - -;
#X obj 5445 786 s send_A<<B;
#X obj 5449 629 r A<<B;
#X obj 5541 788 s send_AøB;
#X obj 5546 633 r AøB;
#X obj 5262 781 s send_A<<A;
#X obj 5265 625 r A<<A;
#X obj 5361 783 s send_AøA;
#X obj 5365 627 r AøA;
#X obj 5299 689 f;
#X obj 5276 668 bng 15 250 50 0 empty empty write -35 7 0 10 -262144
-1 -1;
#X obj 5282 758 f;
#X obj 5281 736 bng 15 250 50 0 empty empty send -30 7 0 10 -262144
-1 -1;
#X floatatom 5300 717 5 0 0 0 - - -;
#X obj 5409 689 f;
#X obj 5386 668 bng 15 250 50 0 empty empty write -35 7 0 10 -262144
-1 -1;
#X obj 5392 758 f;
#X obj 5391 736 bng 15 250 50 0 empty empty send -30 7 0 10 -262144
-1 -1;
#X floatatom 5410 717 5 0 0 0 - - -;
#X obj 5509 689 f;
#X obj 5486 668 bng 15 250 50 0 empty empty write -35 7 0 10 -262144
-1 -1;
#X obj 5492 758 f;
#X obj 5491 736 bng 15 250 50 0 empty empty send -30 7 0 10 -262144
-1 -1;
#X floatatom 5510 717 5 0 0 0 - - -;
#X obj 5578 689 f;
#X obj 5555 668 bng 15 250 50 0 empty empty write -35 7 0 10 -262144
-1 -1;
#X obj 5561 758 f;
#X obj 5560 736 bng 15 250 50 0 empty empty send -30 7 0 10 -262144
-1 -1;
#X floatatom 5579 717 5 0 0 0 - - -;
#X floatatom 1114 157 5 0 0 0 - - -;
#X obj 5651 208 s send_$s&pA;
#X obj 5750 211 s send_$sA;
#X obj 5832 209 s send_$pA;
#X obj 5858 50 r $pA;
#X obj 5764 41 r $sA;
#X obj 5648 43 r $s&pA;
#X obj 5646 88 bng 15 250 50 0 empty empty write -35 7 0 10 -262144
-1 -1;
#X obj 5651 156 bng 15 250 50 0 empty empty send -30 7 0 10 -262144
-1 -1;
#X floatatom 5671 131 5 0 0 0 - - -;
#X obj 5769 109 f;
#X obj 5746 88 bng 15 250 50 0 empty empty write -35 7 0 10 -262144
-1 -1;
#X obj 5752 178 f;
#X obj 5751 156 bng 15 250 50 0 empty empty send -30 7 0 10 -262144
-1 -1;
#X floatatom 5770 137 5 0 0 0 - - -;
#X obj 5838 109 f;
#X obj 5815 88 bng 15 250 50 0 empty empty write -35 7 0 10 -262144
-1 -1;
#X obj 5821 178 f;
#X obj 5820 156 bng 15 250 50 0 empty empty send -30 7 0 10 -262144
-1 -1;
#X floatatom 5839 137 5 0 0 0 - - -;
#X obj 5651 409 s send_$s&pA;
#X obj 5750 412 s send_$sA;
#X obj 5832 410 s send_$pA;
#X obj 5858 251 r $pA;
#X obj 5764 242 r $sA;
#X obj 5648 244 r $s&pA;
#X obj 5646 289 bng 15 250 50 0 empty empty write -35 7 0 10 -262144
-1 -1;
#X obj 5652 379 f;
#X obj 5651 357 bng 15 250 50 0 empty empty send -30 7 0 10 -262144
-1 -1;
#X floatatom 5670 338 5 0 0 0 - - -;
#X obj 5769 310 f;
#X obj 5746 289 bng 15 250 50 0 empty empty write -35 7 0 10 -262144
-1 -1;
#X obj 5752 379 f;
#X obj 5751 357 bng 15 250 50 0 empty empty send -30 7 0 10 -262144
-1 -1;
#X floatatom 5770 338 5 0 0 0 - - -;
#X obj 5838 310 f;
#X obj 5815 289 bng 15 250 50 0 empty empty write -35 7 0 10 -262144
-1 -1;
#X obj 5821 379 f;
#X obj 5820 357 bng 15 250 50 0 empty empty send -30 7 0 10 -262144
-1 -1;
#X floatatom 5839 338 5 0 0 0 - - -;
#X obj 5643 613 s send_$s&pA;
#X obj 5742 616 s send_$sA;
#X obj 5824 614 s send_$pA;
#X obj 5850 455 r $pA;
#X obj 5756 446 r $sA;
#X obj 5640 448 r $s&pA;
#X obj 5661 514 f;
#X obj 5638 493 bng 15 250 50 0 empty empty write -35 7 0 10 -262144
-1 -1;
#X obj 5644 583 f;
#X obj 5643 561 bng 15 250 50 0 empty empty send -30 7 0 10 -262144
-1 -1;
#X floatatom 5662 542 5 0 0 0 - - -;
#X obj 5761 514 f;
#X obj 5738 493 bng 15 250 50 0 empty empty write -35 7 0 10 -262144
-1 -1;
#X obj 5744 583 f;
#X obj 5743 561 bng 15 250 50 0 empty empty send -30 7 0 10 -262144
-1 -1;
#X floatatom 5762 542 5 0 0 0 - - -;
#X obj 5830 514 f;
#X obj 5807 493 bng 15 250 50 0 empty empty write -35 7 0 10 -262144
-1 -1;
#X obj 5813 583 f;
#X obj 5812 561 bng 15 250 50 0 empty empty send -30 7 0 10 -262144
-1 -1;
#X floatatom 5831 542 5 0 0 0 - - -;
#X obj 5650 812 s send_$s&pA;
#X obj 5749 815 s send_$sA;
#X obj 5831 813 s send_$pA;
#X obj 5857 654 r $pA;
#X obj 5763 645 r $sA;
#X obj 5647 647 r $s&pA;
#X obj 5668 713 f;
#X obj 5651 782 f;
#X floatatom 5669 741 5 0 0 0 - - -;
#X obj 5768 713 f;
#X obj 5745 692 bng 15 250 50 0 empty empty write -35 7 0 10 -262144
-1 -1;
#X obj 5751 782 f;
#X obj 5750 760 bng 15 250 50 0 empty empty send -30 7 0 10 -262144
-1 -1;
#X floatatom 5769 741 5 0 0 0 - - -;
#X obj 5837 713 f;
#X obj 5814 692 bng 15 250 50 0 empty empty write -35 7 0 10 -262144
-1 -1;
#X obj 5820 782 f;
#X obj 5819 760 bng 15 250 50 0 empty empty send -30 7 0 10 -262144
-1 -1;
#X floatatom 5838 741 5 0 0 0 - - -;
#X obj 5648 683 bng 15 250 50 0 empty empty write -35 7 0 10 -262144
-1 -1;
#X obj 5653 751 bng 15 250 50 0 empty empty send -30 7 0 10 -262144
-1 -1;
#X obj 3783 190 s send_AAbuton;
#X obj 3826 42 r AAbuton;
#X obj 3816 233 r AAbuton;
#X obj 3836 413 r AAbuton;
#X obj 3826 602 r AAbuton;
#X obj 3784 750 s send_AAbuton;
#X obj 3794 560 s send_AAbuton;
#X obj 3774 380 s send_AAbuton;
#X obj 3782 348 f;
#X obj 3799 279 f;
#X obj 3792 158 f;
#X obj 3809 89 f;
#X obj 3809 649 f;
#X obj 3792 718 f;
#X floatatom -316 -46 5 0 0 0 - - -;
#X obj 5938 38 r save_dataposA;
#X obj 5946 214 s send_save_dataposA;
#X obj 5968 109 f;
#X obj 5945 88 bng 15 250 50 0 empty empty write -35 7 0 10 -262144
-1 -1;
#X obj 5951 178 f;
#X obj 5950 156 bng 15 250 50 0 empty empty send -30 7 0 10 -262144
-1 -1;
#X floatatom 5969 137 5 0 0 0 - - -;
#X obj 5948 248 r save_dataposA;
#X obj 5956 424 s send_save_dataposA;
#X obj 5978 319 f;
#X obj 5955 298 bng 15 250 50 0 empty empty write -35 7 0 10 -262144
-1 -1;
#X obj 5961 388 f;
#X obj 5960 366 bng 15 250 50 0 empty empty send -30 7 0 10 -262144
-1 -1;
#X floatatom 5979 347 5 0 0 0 - - -;
#X obj 5958 468 r save_dataposA;
#X obj 5966 644 s send_save_dataposA;
#X obj 5988 539 f;
#X obj 5965 518 bng 15 250 50 0 empty empty write -35 7 0 10 -262144
-1 -1;
#X obj 5971 608 f;
#X obj 5970 586 bng 15 250 50 0 empty empty send -30 7 0 10 -262144
-1 -1;
#X floatatom 5989 567 5 0 0 0 - - -;
#X obj 5968 668 r save_dataposA;
#X obj 5976 844 s send_save_dataposA;
#X obj 5998 739 f;
#X obj 5975 718 bng 15 250 50 0 empty empty write -35 7 0 10 -262144
-1 -1;
#X obj 5981 808 f;
#X obj 5980 786 bng 15 250 50 0 empty empty send -30 7 0 10 -262144
-1 -1;
#X floatatom 5999 767 5 0 0 0 - - -;
#X obj 6100 217 s send_save_BngAA;
#X obj 6114 37 r save_BngAA;
#X obj 6243 218 s send_save_BngAB;
#X obj 6238 38 r save_BngAB;
#X obj 6385 219 s send_save_trgAA;
#X obj 6383 32 r save_trgAA;
#X obj 6546 222 s send_save_trgAB;
#X obj 6531 29 r save_trgAB;
#X obj 6138 99 f;
#X obj 6115 78 bng 15 250 50 0 empty empty write -35 7 0 10 -262144
-1 -1;
#X obj 6121 168 f;
#X obj 6120 146 bng 15 250 50 0 empty empty send -30 7 0 10 -262144
-1 -1;
#X floatatom 6139 127 5 0 0 0 - - -;
#X obj 6268 99 f;
#X obj 6245 78 bng 15 250 50 0 empty empty write -35 7 0 10 -262144
-1 -1;
#X obj 6251 168 f;
#X obj 6250 146 bng 15 250 50 0 empty empty send -30 7 0 10 -262144
-1 -1;
#X floatatom 6269 127 5 0 0 0 - - -;
#X obj 6428 99 f;
#X obj 6405 78 bng 15 250 50 0 empty empty write -35 7 0 10 -262144
-1 -1;
#X obj 6411 168 f;
#X obj 6410 146 bng 15 250 50 0 empty empty send -30 7 0 10 -262144
-1 -1;
#X floatatom 6429 127 5 0 0 0 - - -;
#X obj 6558 99 f;
#X obj 6535 78 bng 15 250 50 0 empty empty write -35 7 0 10 -262144
-1 -1;
#X obj 6541 168 f;
#X obj 6540 146 bng 15 250 50 0 empty empty send -30 7 0 10 -262144
-1 -1;
#X floatatom 6559 127 5 0 0 0 - - -;
#X obj 6110 437 s send_save_BngAA;
#X obj 6124 257 r save_BngAA;
#X obj 6253 438 s send_save_BngAB;
#X obj 6248 258 r save_BngAB;
#X obj 6395 439 s send_save_trgAA;
#X obj 6393 252 r save_trgAA;
#X obj 6556 442 s send_save_trgAB;
#X obj 6541 249 r save_trgAB;
#X obj 6148 319 f;
#X obj 6125 298 bng 15 250 50 0 empty empty write -35 7 0 10 -262144
-1 -1;
#X obj 6131 388 f;
#X obj 6130 366 bng 15 250 50 0 empty empty send -30 7 0 10 -262144
-1 -1;
#X floatatom 6149 347 5 0 0 0 - - -;
#X obj 6278 319 f;
#X obj 6255 298 bng 15 250 50 0 empty empty write -35 7 0 10 -262144
-1 -1;
#X obj 6261 388 f;
#X obj 6260 366 bng 15 250 50 0 empty empty send -30 7 0 10 -262144
-1 -1;
#X floatatom 6279 347 5 0 0 0 - - -;
#X obj 6438 319 f;
#X obj 6415 298 bng 15 250 50 0 empty empty write -35 7 0 10 -262144
-1 -1;
#X obj 6421 388 f;
#X obj 6420 366 bng 15 250 50 0 empty empty send -30 7 0 10 -262144
-1 -1;
#X floatatom 6439 347 5 0 0 0 - - -;
#X obj 6568 319 f;
#X obj 6545 298 bng 15 250 50 0 empty empty write -35 7 0 10 -262144
-1 -1;
#X obj 6551 388 f;
#X obj 6550 366 bng 15 250 50 0 empty empty send -30 7 0 10 -262144
-1 -1;
#X floatatom 6569 347 5 0 0 0 - - -;
#X obj 6130 637 s send_save_BngAA;
#X obj 6188 471 r save_BngAA;
#X obj 6273 638 s send_save_BngAB;
#X obj 6312 472 r save_BngAB;
#X obj 6415 639 s send_save_trgAA;
#X obj 6457 466 r save_trgAA;
#X obj 6576 642 s send_save_trgAB;
#X obj 6605 463 r save_trgAB;
#X obj 6168 519 f;
#X obj 6145 498 bng 15 250 50 0 empty empty write -35 7 0 10 -262144
-1 -1;
#X obj 6151 588 f;
#X obj 6150 566 bng 15 250 50 0 empty empty send -30 7 0 10 -262144
-1 -1;
#X floatatom 6169 547 5 0 0 0 - - -;
#X obj 6298 519 f;
#X obj 6275 498 bng 15 250 50 0 empty empty write -35 7 0 10 -262144
-1 -1;
#X obj 6281 588 f;
#X obj 6280 566 bng 15 250 50 0 empty empty send -30 7 0 10 -262144
-1 -1;
#X floatatom 6299 547 5 0 0 0 - - -;
#X obj 6458 519 f;
#X obj 6435 498 bng 15 250 50 0 empty empty write -35 7 0 10 -262144
-1 -1;
#X obj 6441 588 f;
#X obj 6440 566 bng 15 250 50 0 empty empty send -30 7 0 10 -262144
-1 -1;
#X floatatom 6459 547 5 0 0 0 - - -;
#X obj 6588 519 f;
#X obj 6565 498 bng 15 250 50 0 empty empty write -35 7 0 10 -262144
-1 -1;
#X obj 6571 588 f;
#X obj 6570 566 bng 15 250 50 0 empty empty send -30 7 0 10 -262144
-1 -1;
#X floatatom 6589 547 5 0 0 0 - - -;
#X obj 6140 857 s send_save_BngAA;
#X obj 6154 677 r save_BngAA;
#X obj 6283 858 s send_save_BngAB;
#X obj 6278 678 r save_BngAB;
#X obj 6425 859 s send_save_trgAA;
#X obj 6423 672 r save_trgAA;
#X obj 6586 862 s send_save_trgAB;
#X obj 6571 669 r save_trgAB;
#X obj 6178 739 f;
#X obj 6155 718 bng 15 250 50 0 empty empty write -35 7 0 10 -262144
-1 -1;
#X obj 6161 808 f;
#X obj 6160 786 bng 15 250 50 0 empty empty send -30 7 0 10 -262144
-1 -1;
#X floatatom 6179 767 5 0 0 0 - - -;
#X obj 6308 739 f;
#X obj 6285 718 bng 15 250 50 0 empty empty write -35 7 0 10 -262144
-1 -1;
#X obj 6291 808 f;
#X obj 6290 786 bng 15 250 50 0 empty empty send -30 7 0 10 -262144
-1 -1;
#X floatatom 6309 767 5 0 0 0 - - -;
#X obj 6468 739 f;
#X obj 6445 718 bng 15 250 50 0 empty empty write -35 7 0 10 -262144
-1 -1;
#X obj 6451 808 f;
#X obj 6450 786 bng 15 250 50 0 empty empty send -30 7 0 10 -262144
-1 -1;
#X floatatom 6469 767 5 0 0 0 - - -;
#X obj 6598 739 f;
#X obj 6575 718 bng 15 250 50 0 empty empty write -35 7 0 10 -262144
-1 -1;
#X obj 6581 808 f;
#X obj 6580 786 bng 15 250 50 0 empty empty send -30 7 0 10 -262144
-1 -1;
#X floatatom 6599 767 5 0 0 0 - - -;
#X obj 3802 528 f;
#X obj 3819 459 f;
#X obj 5669 109 f;
#X obj 5669 310 f;
#X obj 5652 178 f;
#X connect 0 0 83 0;
#X connect 0 1 323 0;
#X connect 0 2 557 0;
#X connect 0 3 791 0;
#X connect 1 0 85 0;
#X connect 1 1 325 0;
#X connect 1 2 559 0;
#X connect 1 3 793 0;
#X connect 2 0 6 0;
#X connect 3 0 2 0;
#X connect 3 0 8 0;
#X connect 4 0 182 0;
#X connect 5 0 4 0;
#X connect 5 0 10 0;
#X connect 6 0 4 1;
#X connect 7 0 11 0;
#X connect 8 0 7 0;
#X connect 8 0 13 0;
#X connect 9 0 185 0;
#X connect 9 0 1056 0;
#X connect 10 0 9 0;
#X connect 10 0 15 0;
#X connect 11 0 9 1;
#X connect 12 0 16 0;
#X connect 13 0 12 0;
#X connect 13 0 18 0;
#X connect 14 0 187 0;
#X connect 15 0 14 0;
#X connect 15 0 20 0;
#X connect 16 0 14 1;
#X connect 17 0 21 0;
#X connect 18 0 17 0;
#X connect 18 0 23 0;
#X connect 19 0 189 0;
#X connect 20 0 19 0;
#X connect 20 0 25 0;
#X connect 21 0 19 1;
#X connect 22 0 26 0;
#X connect 23 0 22 0;
#X connect 23 0 100 0;
#X connect 24 0 191 0;
#X connect 25 0 24 0;
#X connect 25 0 102 0;
#X connect 26 0 24 1;
#X connect 27 0 31 0;
#X connect 28 0 27 0;
#X connect 28 0 33 0;
#X connect 29 0 197 0;
#X connect 30 0 29 0;
#X connect 30 0 35 0;
#X connect 31 0 29 1;
#X connect 32 0 36 0;
#X connect 33 0 32 0;
#X connect 33 0 38 0;
#X connect 34 0 199 0;
#X connect 35 0 34 0;
#X connect 35 0 40 0;
#X connect 36 0 34 1;
#X connect 37 0 41 0;
#X connect 38 0 37 0;
#X connect 38 0 43 0;
#X connect 39 0 201 0;
#X connect 40 0 39 0;
#X connect 40 0 45 0;
#X connect 41 0 39 1;
#X connect 42 0 46 0;
#X connect 43 0 42 0;
#X connect 43 0 48 0;
#X connect 44 0 203 0;
#X connect 45 0 44 0;
#X connect 45 0 50 0;
#X connect 46 0 44 1;
#X connect 47 0 51 0;
#X connect 48 0 47 0;
#X connect 48 0 53 0;
#X connect 49 0 205 0;
#X connect 50 0 49 0;
#X connect 50 0 55 0;
#X connect 51 0 49 1;
#X connect 52 0 56 0;
#X connect 53 0 52 0;
#X connect 53 0 58 0;
#X connect 54 0 207 0;
#X connect 55 0 54 0;
#X connect 55 0 60 0;
#X connect 56 0 54 1;
#X connect 57 0 61 0;
#X connect 58 0 57 0;
#X connect 58 0 63 0;
#X connect 59 0 209 0;
#X connect 60 0 59 0;
#X connect 60 0 65 0;
#X connect 61 0 59 1;
#X connect 62 0 66 0;
#X connect 63 0 62 0;
#X connect 63 0 68 0;
#X connect 64 0 211 0;
#X connect 65 0 64 0;
#X connect 65 0 70 0;
#X connect 66 0 64 1;
#X connect 67 0 71 0;
#X connect 68 0 67 0;
#X connect 68 0 73 0;
#X connect 69 0 213 0;
#X connect 70 0 69 0;
#X connect 70 0 75 0;
#X connect 71 0 69 1;
#X connect 72 0 76 0;
#X connect 73 0 72 0;
#X connect 73 0 78 0;
#X connect 74 0 215 0;
#X connect 75 0 74 0;
#X connect 75 0 80 0;
#X connect 76 0 74 1;
#X connect 77 0 81 0;
#X connect 78 0 77 0;
#X connect 78 0 114 0;
#X connect 79 0 217 0;
#X connect 80 0 79 0;
#X connect 80 0 116 0;
#X connect 81 0 79 1;
#X connect 82 0 86 0;
#X connect 83 0 82 0;
#X connect 83 0 88 0;
#X connect 84 0 177 0;
#X connect 85 0 84 0;
#X connect 85 0 90 0;
#X connect 86 0 84 1;
#X connect 87 0 91 0;
#X connect 88 0 87 0;
#X connect 88 0 93 0;
#X connect 89 0 178 0;
#X connect 90 0 89 0;
#X connect 90 0 95 0;
#X connect 91 0 89 1;
#X connect 92 0 96 0;
#X connect 93 0 92 0;
#X connect 93 0 3 0;
#X connect 94 0 181 0;
#X connect 95 0 94 0;
#X connect 95 0 5 0;
#X connect 96 0 94 1;
#X connect 97 0 109 0;
#X connect 98 0 110 0;
#X connect 99 0 103 0;
#X connect 100 0 99 0;
#X connect 100 0 105 0;
#X connect 101 0 193 0;
#X connect 102 0 101 0;
#X connect 102 0 107 0;
#X connect 103 0 101 1;
#X connect 104 0 108 0;
#X connect 105 0 104 0;
#X connect 105 0 28 0;
#X connect 106 0 195 0;
#X connect 107 0 106 0;
#X connect 107 0 30 0;
#X connect 108 0 106 1;
#X connect 109 0 0 0;
#X connect 109 0 111 0;
#X connect 110 0 1 0;
#X connect 110 0 112 0;
#X connect 113 0 117 0;
#X connect 114 0 113 0;
#X connect 114 0 119 0;
#X connect 115 0 219 0;
#X connect 116 0 115 0;
#X connect 116 0 121 0;
#X connect 117 0 115 1;
#X connect 118 0 122 0;
#X connect 119 0 118 0;
#X connect 119 0 124 0;
#X connect 120 0 221 0;
#X connect 121 0 120 0;
#X connect 121 0 126 0;
#X connect 122 0 120 1;
#X connect 123 0 127 0;
#X connect 124 0 123 0;
#X connect 124 0 128 0;
#X connect 125 0 222 0;
#X connect 126 0 125 0;
#X connect 126 0 129 0;
#X connect 127 0 125 1;
#X connect 128 0 132 0;
#X connect 128 0 1149 0;
#X connect 129 0 134 0;
#X connect 129 0 1148 0;
#X connect 130 0 1148 1;
#X connect 131 0 135 0;
#X connect 132 0 131 0;
#X connect 132 0 137 0;
#X connect 133 0 225 0;
#X connect 134 0 133 0;
#X connect 134 0 139 0;
#X connect 135 0 133 1;
#X connect 136 0 140 0;
#X connect 137 0 136 0;
#X connect 137 0 142 0;
#X connect 138 0 227 0;
#X connect 139 0 138 0;
#X connect 139 0 144 0;
#X connect 140 0 138 1;
#X connect 141 0 145 0;
#X connect 142 0 141 0;
#X connect 142 0 147 0;
#X connect 143 0 228 0;
#X connect 144 0 143 0;
#X connect 144 0 149 0;
#X connect 145 0 143 1;
#X connect 146 0 150 0;
#X connect 147 0 146 0;
#X connect 147 0 152 0;
#X connect 148 0 231 0;
#X connect 149 0 148 0;
#X connect 149 0 154 0;
#X connect 150 0 148 1;
#X connect 151 0 155 0;
#X connect 152 0 151 0;
#X connect 152 0 157 0;
#X connect 153 0 233 0;
#X connect 154 0 153 0;
#X connect 154 0 159 0;
#X connect 155 0 153 1;
#X connect 156 0 160 0;
#X connect 157 0 156 0;
#X connect 157 0 162 0;
#X connect 158 0 235 0;
#X connect 159 0 158 0;
#X connect 159 0 164 0;
#X connect 160 0 158 1;
#X connect 161 0 165 0;
#X connect 162 0 161 0;
#X connect 162 0 167 0;
#X connect 163 0 236 0;
#X connect 164 0 163 0;
#X connect 164 0 169 0;
#X connect 165 0 163 1;
#X connect 166 0 170 0;
#X connect 167 0 166 0;
#X connect 167 0 172 0;
#X connect 168 0 239 0;
#X connect 169 0 168 0;
#X connect 169 0 174 0;
#X connect 170 0 168 1;
#X connect 171 0 175 0;
#X connect 172 0 171 0;
#X connect 172 0 953 0;
#X connect 173 0 241 0;
#X connect 174 0 173 0;
#X connect 174 0 955 0;
#X connect 175 0 173 1;
#X connect 176 0 82 1;
#X connect 179 0 87 1;
#X connect 180 0 92 1;
#X connect 183 0 2 1;
#X connect 184 0 7 1;
#X connect 186 0 12 1;
#X connect 188 0 17 1;
#X connect 190 0 22 1;
#X connect 192 0 99 1;
#X connect 194 0 104 1;
#X connect 196 0 27 1;
#X connect 198 0 32 1;
#X connect 200 0 37 1;
#X connect 202 0 42 1;
#X connect 204 0 47 1;
#X connect 206 0 52 1;
#X connect 208 0 57 1;
#X connect 210 0 62 1;
#X connect 212 0 67 1;
#X connect 214 0 72 1;
#X connect 216 0 77 1;
#X connect 218 0 113 1;
#X connect 220 0 118 1;
#X connect 223 0 123 1;
#X connect 224 0 131 1;
#X connect 226 0 136 1;
#X connect 229 0 141 1;
#X connect 230 0 146 1;
#X connect 232 0 151 1;
#X connect 234 0 156 1;
#X connect 237 0 161 1;
#X connect 238 0 166 1;
#X connect 240 0 171 1;
#X connect 242 0 246 0;
#X connect 243 0 242 0;
#X connect 243 0 248 0;
#X connect 244 0 416 0;
#X connect 245 0 244 0;
#X connect 245 0 250 0;
#X connect 246 0 244 1;
#X connect 247 0 251 0;
#X connect 248 0 247 0;
#X connect 248 0 253 0;
#X connect 249 0 419 0;
#X connect 250 0 249 0;
#X connect 250 0 255 0;
#X connect 251 0 249 1;
#X connect 252 0 256 0;
#X connect 253 0 252 0;
#X connect 253 0 258 0;
#X connect 254 0 421 0;
#X connect 255 0 254 0;
#X connect 255 0 260 0;
#X connect 256 0 254 1;
#X connect 257 0 261 0;
#X connect 258 0 257 0;
#X connect 258 0 263 0;
#X connect 259 0 423 0;
#X connect 260 0 259 0;
#X connect 260 0 265 0;
#X connect 261 0 259 1;
#X connect 262 0 266 0;
#X connect 263 0 262 0;
#X connect 263 0 338 0;
#X connect 264 0 425 0;
#X connect 265 0 264 0;
#X connect 265 0 340 0;
#X connect 266 0 264 1;
#X connect 267 0 271 0;
#X connect 268 0 267 0;
#X connect 268 0 273 0;
#X connect 269 0 431 0;
#X connect 270 0 269 0;
#X connect 270 0 275 0;
#X connect 271 0 269 1;
#X connect 272 0 276 0;
#X connect 273 0 272 0;
#X connect 273 0 278 0;
#X connect 274 0 433 0;
#X connect 275 0 274 0;
#X connect 275 0 280 0;
#X connect 276 0 274 1;
#X connect 277 0 281 0;
#X connect 278 0 277 0;
#X connect 278 0 283 0;
#X connect 279 0 435 0;
#X connect 280 0 279 0;
#X connect 280 0 285 0;
#X connect 281 0 279 1;
#X connect 282 0 286 0;
#X connect 283 0 282 0;
#X connect 283 0 288 0;
#X connect 284 0 437 0;
#X connect 285 0 284 0;
#X connect 285 0 290 0;
#X connect 286 0 284 1;
#X connect 287 0 291 0;
#X connect 288 0 287 0;
#X connect 288 0 293 0;
#X connect 289 0 439 0;
#X connect 290 0 289 0;
#X connect 290 0 295 0;
#X connect 291 0 289 1;
#X connect 292 0 296 0;
#X connect 293 0 292 0;
#X connect 293 0 298 0;
#X connect 294 0 441 0;
#X connect 295 0 294 0;
#X connect 295 0 300 0;
#X connect 296 0 294 1;
#X connect 297 0 301 0;
#X connect 298 0 297 0;
#X connect 298 0 303 0;
#X connect 299 0 443 0;
#X connect 300 0 299 0;
#X connect 300 0 305 0;
#X connect 301 0 299 1;
#X connect 302 0 306 0;
#X connect 303 0 302 0;
#X connect 303 0 308 0;
#X connect 304 0 445 0;
#X connect 305 0 304 0;
#X connect 305 0 310 0;
#X connect 306 0 304 1;
#X connect 307 0 311 0;
#X connect 308 0 307 0;
#X connect 308 0 313 0;
#X connect 309 0 447 0;
#X connect 310 0 309 0;
#X connect 310 0 315 0;
#X connect 311 0 309 1;
#X connect 312 0 316 0;
#X connect 313 0 312 0;
#X connect 313 0 318 0;
#X connect 314 0 449 0;
#X connect 315 0 314 0;
#X connect 315 0 320 0;
#X connect 316 0 314 1;
#X connect 317 0 321 0;
#X connect 318 0 317 0;
#X connect 318 0 348 0;
#X connect 319 0 451 0;
#X connect 320 0 319 0;
#X connect 320 0 350 0;
#X connect 321 0 319 1;
#X connect 322 0 326 0;
#X connect 323 0 322 0;
#X connect 323 0 328 0;
#X connect 324 0 411 0;
#X connect 325 0 324 0;
#X connect 325 0 330 0;
#X connect 326 0 324 1;
#X connect 327 0 331 0;
#X connect 328 0 327 0;
#X connect 328 0 333 0;
#X connect 329 0 412 0;
#X connect 330 0 329 0;
#X connect 330 0 335 0;
#X connect 331 0 329 1;
#X connect 332 0 336 0;
#X connect 333 0 332 0;
#X connect 333 0 243 0;
#X connect 334 0 415 0;
#X connect 335 0 334 0;
#X connect 335 0 245 0;
#X connect 336 0 334 1;
#X connect 337 0 341 0;
#X connect 338 0 337 0;
#X connect 338 0 343 0;
#X connect 339 0 427 0;
#X connect 340 0 339 0;
#X connect 340 0 345 0;
#X connect 341 0 339 1;
#X connect 342 0 346 0;
#X connect 343 0 342 0;
#X connect 343 0 268 0;
#X connect 344 0 429 0;
#X connect 345 0 344 0;
#X connect 345 0 270 0;
#X connect 346 0 344 1;
#X connect 347 0 351 0;
#X connect 348 0 347 0;
#X connect 348 0 353 0;
#X connect 349 0 453 0;
#X connect 350 0 349 0;
#X connect 350 0 355 0;
#X connect 351 0 349 1;
#X connect 352 0 356 0;
#X connect 353 0 352 0;
#X connect 353 0 358 0;
#X connect 354 0 455 0;
#X connect 355 0 354 0;
#X connect 355 0 360 0;
#X connect 356 0 354 1;
#X connect 357 0 361 0;
#X connect 358 0 357 0;
#X connect 358 0 362 0;
#X connect 359 0 456 0;
#X connect 360 0 359 0;
#X connect 360 0 363 0;
#X connect 361 0 359 1;
#X connect 362 0 366 0;
#X connect 362 0 1147 0;
#X connect 363 0 368 0;
#X connect 363 0 1146 0;
#X connect 364 0 1146 1;
#X connect 365 0 369 0;
#X connect 366 0 365 0;
#X connect 366 0 371 0;
#X connect 367 0 459 0;
#X connect 368 0 367 0;
#X connect 368 0 373 0;
#X connect 369 0 367 1;
#X connect 370 0 374 0;
#X connect 371 0 370 0;
#X connect 371 0 376 0;
#X connect 372 0 461 0;
#X connect 373 0 372 0;
#X connect 373 0 378 0;
#X connect 374 0 372 1;
#X connect 375 0 379 0;
#X connect 376 0 375 0;
#X connect 376 0 381 0;
#X connect 377 0 462 0;
#X connect 378 0 377 0;
#X connect 378 0 383 0;
#X connect 379 0 377 1;
#X connect 380 0 384 0;
#X connect 381 0 380 0;
#X connect 381 0 386 0;
#X connect 382 0 465 0;
#X connect 383 0 382 0;
#X connect 383 0 388 0;
#X connect 384 0 382 1;
#X connect 385 0 389 0;
#X connect 386 0 385 0;
#X connect 386 0 391 0;
#X connect 387 0 467 0;
#X connect 388 0 387 0;
#X connect 388 0 393 0;
#X connect 389 0 387 1;
#X connect 390 0 394 0;
#X connect 391 0 390 0;
#X connect 391 0 396 0;
#X connect 392 0 469 0;
#X connect 393 0 392 0;
#X connect 393 0 398 0;
#X connect 394 0 392 1;
#X connect 395 0 399 0;
#X connect 396 0 395 0;
#X connect 396 0 401 0;
#X connect 397 0 470 0;
#X connect 398 0 397 0;
#X connect 398 0 403 0;
#X connect 399 0 397 1;
#X connect 400 0 404 0;
#X connect 401 0 400 0;
#X connect 401 0 406 0;
#X connect 402 0 473 0;
#X connect 403 0 402 0;
#X connect 403 0 408 0;
#X connect 404 0 402 1;
#X connect 405 0 409 0;
#X connect 406 0 405 0;
#X connect 406 0 981 0;
#X connect 407 0 475 0;
#X connect 408 0 407 0;
#X connect 408 0 983 0;
#X connect 409 0 407 1;
#X connect 410 0 322 1;
#X connect 413 0 327 1;
#X connect 414 0 332 1;
#X connect 417 0 242 1;
#X connect 418 0 247 1;
#X connect 420 0 252 1;
#X connect 422 0 257 1;
#X connect 424 0 262 1;
#X connect 426 0 337 1;
#X connect 428 0 342 1;
#X connect 430 0 267 1;
#X connect 432 0 272 1;
#X connect 434 0 277 1;
#X connect 436 0 282 1;
#X connect 438 0 287 1;
#X connect 440 0 292 1;
#X connect 442 0 297 1;
#X connect 444 0 302 1;
#X connect 446 0 307 1;
#X connect 448 0 312 1;
#X connect 450 0 317 1;
#X connect 452 0 347 1;
#X connect 454 0 352 1;
#X connect 457 0 357 1;
#X connect 458 0 365 1;
#X connect 460 0 370 1;
#X connect 463 0 375 1;
#X connect 464 0 380 1;
#X connect 466 0 385 1;
#X connect 468 0 390 1;
#X connect 471 0 395 1;
#X connect 472 0 400 1;
#X connect 474 0 405 1;
#X connect 476 0 480 0;
#X connect 477 0 476 0;
#X connect 477 0 482 0;
#X connect 478 0 650 0;
#X connect 479 0 478 0;
#X connect 479 0 484 0;
#X connect 480 0 478 1;
#X connect 481 0 485 0;
#X connect 482 0 481 0;
#X connect 482 0 487 0;
#X connect 483 0 653 0;
#X connect 484 0 483 0;
#X connect 484 0 489 0;
#X connect 485 0 483 1;
#X connect 486 0 490 0;
#X connect 487 0 486 0;
#X connect 487 0 492 0;
#X connect 488 0 655 0;
#X connect 489 0 488 0;
#X connect 489 0 494 0;
#X connect 490 0 488 1;
#X connect 491 0 495 0;
#X connect 492 0 491 0;
#X connect 492 0 497 0;
#X connect 493 0 657 0;
#X connect 494 0 493 0;
#X connect 494 0 499 0;
#X connect 495 0 493 1;
#X connect 496 0 500 0;
#X connect 497 0 496 0;
#X connect 497 0 572 0;
#X connect 498 0 659 0;
#X connect 499 0 498 0;
#X connect 499 0 574 0;
#X connect 500 0 498 1;
#X connect 501 0 505 0;
#X connect 502 0 501 0;
#X connect 502 0 507 0;
#X connect 503 0 665 0;
#X connect 504 0 503 0;
#X connect 504 0 509 0;
#X connect 505 0 503 1;
#X connect 506 0 510 0;
#X connect 507 0 506 0;
#X connect 507 0 512 0;
#X connect 508 0 667 0;
#X connect 509 0 508 0;
#X connect 509 0 514 0;
#X connect 510 0 508 1;
#X connect 511 0 515 0;
#X connect 512 0 511 0;
#X connect 512 0 517 0;
#X connect 513 0 669 0;
#X connect 514 0 513 0;
#X connect 514 0 519 0;
#X connect 515 0 513 1;
#X connect 516 0 520 0;
#X connect 517 0 516 0;
#X connect 517 0 522 0;
#X connect 518 0 671 0;
#X connect 519 0 518 0;
#X connect 519 0 524 0;
#X connect 520 0 518 1;
#X connect 521 0 525 0;
#X connect 522 0 521 0;
#X connect 522 0 527 0;
#X connect 523 0 673 0;
#X connect 524 0 523 0;
#X connect 524 0 529 0;
#X connect 525 0 523 1;
#X connect 526 0 530 0;
#X connect 527 0 526 0;
#X connect 527 0 532 0;
#X connect 528 0 675 0;
#X connect 529 0 528 0;
#X connect 529 0 534 0;
#X connect 530 0 528 1;
#X connect 531 0 535 0;
#X connect 532 0 531 0;
#X connect 532 0 537 0;
#X connect 533 0 677 0;
#X connect 534 0 533 0;
#X connect 534 0 539 0;
#X connect 535 0 533 1;
#X connect 536 0 540 0;
#X connect 537 0 536 0;
#X connect 537 0 542 0;
#X connect 538 0 679 0;
#X connect 539 0 538 0;
#X connect 539 0 544 0;
#X connect 540 0 538 1;
#X connect 541 0 545 0;
#X connect 542 0 541 0;
#X connect 542 0 547 0;
#X connect 543 0 681 0;
#X connect 544 0 543 0;
#X connect 544 0 549 0;
#X connect 545 0 543 1;
#X connect 546 0 550 0;
#X connect 547 0 546 0;
#X connect 547 0 552 0;
#X connect 548 0 683 0;
#X connect 549 0 548 0;
#X connect 549 0 554 0;
#X connect 550 0 548 1;
#X connect 551 0 555 0;
#X connect 552 0 551 0;
#X connect 552 0 582 0;
#X connect 553 0 685 0;
#X connect 554 0 553 0;
#X connect 554 0 584 0;
#X connect 555 0 553 1;
#X connect 556 0 560 0;
#X connect 557 0 556 0;
#X connect 557 0 562 0;
#X connect 558 0 645 0;
#X connect 559 0 558 0;
#X connect 559 0 564 0;
#X connect 560 0 558 1;
#X connect 561 0 565 0;
#X connect 562 0 561 0;
#X connect 562 0 567 0;
#X connect 563 0 646 0;
#X connect 564 0 563 0;
#X connect 564 0 569 0;
#X connect 565 0 563 1;
#X connect 566 0 570 0;
#X connect 567 0 566 0;
#X connect 567 0 477 0;
#X connect 568 0 649 0;
#X connect 569 0 568 0;
#X connect 569 0 479 0;
#X connect 570 0 568 1;
#X connect 571 0 575 0;
#X connect 572 0 571 0;
#X connect 572 0 577 0;
#X connect 573 0 661 0;
#X connect 574 0 573 0;
#X connect 574 0 579 0;
#X connect 575 0 573 1;
#X connect 576 0 580 0;
#X connect 577 0 576 0;
#X connect 577 0 502 0;
#X connect 578 0 663 0;
#X connect 579 0 578 0;
#X connect 579 0 504 0;
#X connect 580 0 578 1;
#X connect 581 0 585 0;
#X connect 582 0 581 0;
#X connect 582 0 587 0;
#X connect 583 0 687 0;
#X connect 584 0 583 0;
#X connect 584 0 589 0;
#X connect 585 0 583 1;
#X connect 586 0 590 0;
#X connect 587 0 586 0;
#X connect 587 0 592 0;
#X connect 588 0 689 0;
#X connect 589 0 588 0;
#X connect 589 0 594 0;
#X connect 590 0 588 1;
#X connect 591 0 595 0;
#X connect 592 0 591 0;
#X connect 592 0 596 0;
#X connect 593 0 690 0;
#X connect 594 0 593 0;
#X connect 594 0 597 0;
#X connect 595 0 593 1;
#X connect 596 0 600 0;
#X connect 596 0 1294 0;
#X connect 597 0 602 0;
#X connect 597 0 1293 0;
#X connect 598 0 1293 1;
#X connect 599 0 603 0;
#X connect 600 0 599 0;
#X connect 600 0 605 0;
#X connect 601 0 693 0;
#X connect 602 0 601 0;
#X connect 602 0 607 0;
#X connect 603 0 601 1;
#X connect 604 0 608 0;
#X connect 605 0 604 0;
#X connect 605 0 610 0;
#X connect 606 0 695 0;
#X connect 607 0 606 0;
#X connect 607 0 612 0;
#X connect 608 0 606 1;
#X connect 609 0 613 0;
#X connect 610 0 609 0;
#X connect 610 0 615 0;
#X connect 611 0 696 0;
#X connect 612 0 611 0;
#X connect 612 0 617 0;
#X connect 613 0 611 1;
#X connect 614 0 618 0;
#X connect 615 0 614 0;
#X connect 615 0 620 0;
#X connect 616 0 699 0;
#X connect 617 0 616 0;
#X connect 617 0 622 0;
#X connect 618 0 616 1;
#X connect 619 0 623 0;
#X connect 620 0 619 0;
#X connect 620 0 625 0;
#X connect 621 0 701 0;
#X connect 622 0 621 0;
#X connect 622 0 627 0;
#X connect 623 0 621 1;
#X connect 624 0 628 0;
#X connect 625 0 624 0;
#X connect 625 0 630 0;
#X connect 626 0 703 0;
#X connect 627 0 626 0;
#X connect 627 0 632 0;
#X connect 628 0 626 1;
#X connect 629 0 633 0;
#X connect 630 0 629 0;
#X connect 630 0 635 0;
#X connect 631 0 704 0;
#X connect 632 0 631 0;
#X connect 632 0 637 0;
#X connect 633 0 631 1;
#X connect 634 0 638 0;
#X connect 635 0 634 0;
#X connect 635 0 640 0;
#X connect 636 0 707 0;
#X connect 637 0 636 0;
#X connect 637 0 642 0;
#X connect 638 0 636 1;
#X connect 639 0 643 0;
#X connect 640 0 639 0;
#X connect 640 0 1009 0;
#X connect 641 0 709 0;
#X connect 642 0 641 0;
#X connect 642 0 1011 0;
#X connect 643 0 641 1;
#X connect 644 0 556 1;
#X connect 647 0 561 1;
#X connect 648 0 566 1;
#X connect 651 0 476 1;
#X connect 652 0 481 1;
#X connect 654 0 486 1;
#X connect 656 0 491 1;
#X connect 658 0 496 1;
#X connect 660 0 571 1;
#X connect 662 0 576 1;
#X connect 664 0 501 1;
#X connect 666 0 506 1;
#X connect 668 0 511 1;
#X connect 670 0 516 1;
#X connect 672 0 521 1;
#X connect 674 0 526 1;
#X connect 676 0 531 1;
#X connect 678 0 536 1;
#X connect 680 0 541 1;
#X connect 682 0 546 1;
#X connect 684 0 551 1;
#X connect 686 0 581 1;
#X connect 688 0 586 1;
#X connect 691 0 591 1;
#X connect 692 0 599 1;
#X connect 694 0 604 1;
#X connect 697 0 609 1;
#X connect 698 0 614 1;
#X connect 700 0 619 1;
#X connect 702 0 624 1;
#X connect 705 0 629 1;
#X connect 706 0 634 1;
#X connect 708 0 639 1;
#X connect 710 0 714 0;
#X connect 711 0 710 0;
#X connect 711 0 716 0;
#X connect 712 0 884 0;
#X connect 713 0 712 0;
#X connect 713 0 718 0;
#X connect 714 0 712 1;
#X connect 715 0 719 0;
#X connect 716 0 715 0;
#X connect 716 0 721 0;
#X connect 717 0 887 0;
#X connect 718 0 717 0;
#X connect 718 0 723 0;
#X connect 719 0 717 1;
#X connect 720 0 724 0;
#X connect 721 0 720 0;
#X connect 721 0 726 0;
#X connect 722 0 889 0;
#X connect 723 0 722 0;
#X connect 723 0 728 0;
#X connect 724 0 722 1;
#X connect 725 0 729 0;
#X connect 726 0 725 0;
#X connect 726 0 731 0;
#X connect 727 0 891 0;
#X connect 728 0 727 0;
#X connect 728 0 733 0;
#X connect 729 0 727 1;
#X connect 730 0 734 0;
#X connect 731 0 730 0;
#X connect 731 0 806 0;
#X connect 732 0 893 0;
#X connect 733 0 732 0;
#X connect 733 0 808 0;
#X connect 734 0 732 1;
#X connect 735 0 739 0;
#X connect 736 0 735 0;
#X connect 736 0 741 0;
#X connect 737 0 899 0;
#X connect 738 0 737 0;
#X connect 738 0 743 0;
#X connect 739 0 737 1;
#X connect 740 0 744 0;
#X connect 741 0 740 0;
#X connect 741 0 746 0;
#X connect 742 0 901 0;
#X connect 743 0 742 0;
#X connect 743 0 748 0;
#X connect 744 0 742 1;
#X connect 745 0 749 0;
#X connect 746 0 745 0;
#X connect 746 0 751 0;
#X connect 747 0 903 0;
#X connect 748 0 747 0;
#X connect 748 0 753 0;
#X connect 749 0 747 1;
#X connect 750 0 754 0;
#X connect 751 0 750 0;
#X connect 751 0 756 0;
#X connect 752 0 905 0;
#X connect 753 0 752 0;
#X connect 753 0 758 0;
#X connect 754 0 752 1;
#X connect 755 0 759 0;
#X connect 756 0 755 0;
#X connect 756 0 761 0;
#X connect 757 0 907 0;
#X connect 758 0 757 0;
#X connect 758 0 763 0;
#X connect 759 0 757 1;
#X connect 760 0 764 0;
#X connect 761 0 760 0;
#X connect 761 0 766 0;
#X connect 762 0 909 0;
#X connect 763 0 762 0;
#X connect 763 0 768 0;
#X connect 764 0 762 1;
#X connect 765 0 769 0;
#X connect 766 0 765 0;
#X connect 766 0 771 0;
#X connect 767 0 911 0;
#X connect 768 0 767 0;
#X connect 768 0 773 0;
#X connect 769 0 767 1;
#X connect 770 0 774 0;
#X connect 771 0 770 0;
#X connect 771 0 776 0;
#X connect 772 0 913 0;
#X connect 773 0 772 0;
#X connect 773 0 778 0;
#X connect 774 0 772 1;
#X connect 775 0 779 0;
#X connect 776 0 775 0;
#X connect 776 0 781 0;
#X connect 777 0 915 0;
#X connect 778 0 777 0;
#X connect 778 0 783 0;
#X connect 779 0 777 1;
#X connect 780 0 784 0;
#X connect 781 0 780 0;
#X connect 781 0 786 0;
#X connect 782 0 917 0;
#X connect 783 0 782 0;
#X connect 783 0 788 0;
#X connect 784 0 782 1;
#X connect 785 0 789 0;
#X connect 786 0 785 0;
#X connect 786 0 816 0;
#X connect 787 0 919 0;
#X connect 788 0 787 0;
#X connect 788 0 818 0;
#X connect 789 0 787 1;
#X connect 790 0 794 0;
#X connect 791 0 790 0;
#X connect 791 0 796 0;
#X connect 792 0 879 0;
#X connect 793 0 792 0;
#X connect 793 0 798 0;
#X connect 794 0 792 1;
#X connect 795 0 799 0;
#X connect 796 0 795 0;
#X connect 796 0 801 0;
#X connect 797 0 880 0;
#X connect 798 0 797 0;
#X connect 798 0 803 0;
#X connect 799 0 797 1;
#X connect 800 0 804 0;
#X connect 801 0 800 0;
#X connect 801 0 711 0;
#X connect 802 0 883 0;
#X connect 803 0 802 0;
#X connect 803 0 713 0;
#X connect 804 0 802 1;
#X connect 805 0 809 0;
#X connect 806 0 805 0;
#X connect 806 0 811 0;
#X connect 807 0 895 0;
#X connect 808 0 807 0;
#X connect 808 0 813 0;
#X connect 809 0 807 1;
#X connect 810 0 814 0;
#X connect 811 0 810 0;
#X connect 811 0 736 0;
#X connect 812 0 897 0;
#X connect 813 0 812 0;
#X connect 813 0 738 0;
#X connect 814 0 812 1;
#X connect 815 0 819 0;
#X connect 816 0 815 0;
#X connect 816 0 821 0;
#X connect 817 0 921 0;
#X connect 818 0 817 0;
#X connect 818 0 823 0;
#X connect 819 0 817 1;
#X connect 820 0 824 0;
#X connect 821 0 820 0;
#X connect 821 0 826 0;
#X connect 822 0 923 0;
#X connect 823 0 822 0;
#X connect 823 0 828 0;
#X connect 824 0 822 1;
#X connect 825 0 829 0;
#X connect 826 0 825 0;
#X connect 826 0 830 0;
#X connect 827 0 924 0;
#X connect 828 0 827 0;
#X connect 828 0 831 0;
#X connect 829 0 827 1;
#X connect 830 0 834 0;
#X connect 830 0 1150 0;
#X connect 831 0 836 0;
#X connect 831 0 1151 0;
#X connect 832 0 1151 1;
#X connect 833 0 837 0;
#X connect 834 0 833 0;
#X connect 834 0 839 0;
#X connect 835 0 927 0;
#X connect 836 0 835 0;
#X connect 836 0 841 0;
#X connect 837 0 835 1;
#X connect 838 0 842 0;
#X connect 839 0 838 0;
#X connect 839 0 844 0;
#X connect 840 0 929 0;
#X connect 841 0 840 0;
#X connect 841 0 846 0;
#X connect 842 0 840 1;
#X connect 843 0 847 0;
#X connect 844 0 843 0;
#X connect 844 0 849 0;
#X connect 845 0 930 0;
#X connect 846 0 845 0;
#X connect 846 0 851 0;
#X connect 847 0 845 1;
#X connect 848 0 852 0;
#X connect 849 0 848 0;
#X connect 849 0 854 0;
#X connect 850 0 933 0;
#X connect 851 0 850 0;
#X connect 851 0 856 0;
#X connect 852 0 850 1;
#X connect 853 0 857 0;
#X connect 854 0 853 0;
#X connect 854 0 859 0;
#X connect 855 0 935 0;
#X connect 856 0 855 0;
#X connect 856 0 861 0;
#X connect 857 0 855 1;
#X connect 858 0 862 0;
#X connect 859 0 858 0;
#X connect 859 0 864 0;
#X connect 860 0 937 0;
#X connect 861 0 860 0;
#X connect 861 0 866 0;
#X connect 862 0 860 1;
#X connect 863 0 867 0;
#X connect 864 0 863 0;
#X connect 864 0 869 0;
#X connect 865 0 938 0;
#X connect 866 0 865 0;
#X connect 866 0 871 0;
#X connect 867 0 865 1;
#X connect 868 0 872 0;
#X connect 869 0 868 0;
#X connect 869 0 874 0;
#X connect 870 0 941 0;
#X connect 871 0 870 0;
#X connect 871 0 876 0;
#X connect 872 0 870 1;
#X connect 873 0 877 0;
#X connect 874 0 873 0;
#X connect 874 0 1037 0;
#X connect 875 0 943 0;
#X connect 876 0 875 0;
#X connect 876 0 1039 0;
#X connect 877 0 875 1;
#X connect 878 0 790 1;
#X connect 881 0 795 1;
#X connect 882 0 800 1;
#X connect 885 0 710 1;
#X connect 886 0 715 1;
#X connect 888 0 720 1;
#X connect 890 0 725 1;
#X connect 892 0 730 1;
#X connect 894 0 805 1;
#X connect 896 0 810 1;
#X connect 898 0 735 1;
#X connect 900 0 740 1;
#X connect 902 0 745 1;
#X connect 904 0 750 1;
#X connect 906 0 755 1;
#X connect 908 0 760 1;
#X connect 910 0 765 1;
#X connect 912 0 770 1;
#X connect 914 0 775 1;
#X connect 916 0 780 1;
#X connect 918 0 785 1;
#X connect 920 0 815 1;
#X connect 922 0 820 1;
#X connect 925 0 825 1;
#X connect 926 0 833 1;
#X connect 928 0 838 1;
#X connect 931 0 843 1;
#X connect 932 0 848 1;
#X connect 934 0 853 1;
#X connect 936 0 858 1;
#X connect 939 0 863 1;
#X connect 940 0 868 1;
#X connect 942 0 873 1;
#X connect 945 0 962 1;
#X connect 947 0 967 1;
#X connect 949 0 952 1;
#X connect 951 0 957 1;
#X connect 952 0 956 0;
#X connect 953 0 952 0;
#X connect 953 0 958 0;
#X connect 954 0 948 0;
#X connect 955 0 954 0;
#X connect 955 0 960 0;
#X connect 956 0 954 1;
#X connect 957 0 961 0;
#X connect 958 0 957 0;
#X connect 958 0 963 0;
#X connect 959 0 950 0;
#X connect 960 0 959 0;
#X connect 960 0 965 0;
#X connect 961 0 959 1;
#X connect 962 0 966 0;
#X connect 963 0 962 0;
#X connect 963 0 968 0;
#X connect 964 0 944 0;
#X connect 965 0 964 0;
#X connect 965 0 970 0;
#X connect 966 0 964 1;
#X connect 967 0 971 0;
#X connect 968 0 967 0;
#X connect 968 0 1063 0;
#X connect 969 0 946 0;
#X connect 970 0 969 0;
#X connect 970 0 1064 0;
#X connect 971 0 969 1;
#X connect 973 0 990 1;
#X connect 975 0 995 1;
#X connect 977 0 980 1;
#X connect 979 0 985 1;
#X connect 980 0 984 0;
#X connect 981 0 980 0;
#X connect 981 0 986 0;
#X connect 982 0 976 0;
#X connect 983 0 982 0;
#X connect 983 0 988 0;
#X connect 984 0 982 1;
#X connect 985 0 989 0;
#X connect 986 0 985 0;
#X connect 986 0 991 0;
#X connect 987 0 978 0;
#X connect 988 0 987 0;
#X connect 988 0 993 0;
#X connect 989 0 987 1;
#X connect 990 0 994 0;
#X connect 991 0 990 0;
#X connect 991 0 996 0;
#X connect 992 0 972 0;
#X connect 993 0 992 0;
#X connect 993 0 998 0;
#X connect 994 0 992 1;
#X connect 995 0 999 0;
#X connect 996 0 995 0;
#X connect 996 0 1082 0;
#X connect 997 0 974 0;
#X connect 998 0 997 0;
#X connect 998 0 1084 0;
#X connect 999 0 997 1;
#X connect 1001 0 1018 1;
#X connect 1003 0 1023 1;
#X connect 1005 0 1008 1;
#X connect 1007 0 1013 1;
#X connect 1008 0 1012 0;
#X connect 1009 0 1008 0;
#X connect 1009 0 1014 0;
#X connect 1010 0 1004 0;
#X connect 1011 0 1010 0;
#X connect 1011 0 1016 0;
#X connect 1012 0 1010 1;
#X connect 1013 0 1017 0;
#X connect 1014 0 1013 0;
#X connect 1014 0 1019 0;
#X connect 1015 0 1006 0;
#X connect 1016 0 1015 0;
#X connect 1016 0 1021 0;
#X connect 1017 0 1015 1;
#X connect 1018 0 1022 0;
#X connect 1019 0 1018 0;
#X connect 1019 0 1024 0;
#X connect 1020 0 1000 0;
#X connect 1021 0 1020 0;
#X connect 1021 0 1026 0;
#X connect 1022 0 1020 1;
#X connect 1023 0 1027 0;
#X connect 1024 0 1023 0;
#X connect 1024 0 1103 0;
#X connect 1025 0 1002 0;
#X connect 1026 0 1025 0;
#X connect 1026 0 1105 0;
#X connect 1027 0 1025 1;
#X connect 1029 0 1046 1;
#X connect 1031 0 1051 1;
#X connect 1033 0 1036 1;
#X connect 1035 0 1041 1;
#X connect 1036 0 1040 0;
#X connect 1037 0 1036 0;
#X connect 1037 0 1042 0;
#X connect 1038 0 1032 0;
#X connect 1039 0 1038 0;
#X connect 1039 0 1044 0;
#X connect 1040 0 1038 1;
#X connect 1041 0 1045 0;
#X connect 1042 0 1041 0;
#X connect 1042 0 1047 0;
#X connect 1043 0 1034 0;
#X connect 1044 0 1043 0;
#X connect 1044 0 1049 0;
#X connect 1045 0 1043 1;
#X connect 1046 0 1050 0;
#X connect 1047 0 1046 0;
#X connect 1047 0 1052 0;
#X connect 1048 0 1028 0;
#X connect 1049 0 1048 0;
#X connect 1049 0 1054 0;
#X connect 1050 0 1048 1;
#X connect 1051 0 1055 0;
#X connect 1052 0 1051 0;
#X connect 1052 0 1136 0;
#X connect 1053 0 1030 0;
#X connect 1054 0 1053 0;
#X connect 1054 0 1137 0;
#X connect 1055 0 1053 1;
#X connect 1060 0 1071 1;
#X connect 1061 0 1066 1;
#X connect 1062 0 1295 1;
#X connect 1063 0 1067 0;
#X connect 1063 0 1295 0;
#X connect 1064 0 1069 0;
#X connect 1064 0 1297 0;
#X connect 1065 0 1297 1;
#X connect 1066 0 1070 0;
#X connect 1067 0 1066 0;
#X connect 1067 0 1072 0;
#X connect 1068 0 1058 0;
#X connect 1069 0 1068 0;
#X connect 1069 0 1074 0;
#X connect 1070 0 1068 1;
#X connect 1071 0 1075 0;
#X connect 1072 0 1071 0;
#X connect 1072 0 1156 0;
#X connect 1073 0 1059 0;
#X connect 1074 0 1073 0;
#X connect 1074 0 1158 0;
#X connect 1075 0 1073 1;
#X connect 1079 0 1091 1;
#X connect 1080 0 1086 1;
#X connect 1081 0 1296 1;
#X connect 1082 0 1087 0;
#X connect 1082 0 1296 0;
#X connect 1083 0 1076 0;
#X connect 1084 0 1083 0;
#X connect 1084 0 1089 0;
#X connect 1085 0 1083 1;
#X connect 1086 0 1090 0;
#X connect 1087 0 1086 0;
#X connect 1087 0 1092 0;
#X connect 1088 0 1077 0;
#X connect 1089 0 1088 0;
#X connect 1089 0 1094 0;
#X connect 1090 0 1088 1;
#X connect 1091 0 1095 0;
#X connect 1092 0 1091 0;
#X connect 1092 0 1163 0;
#X connect 1093 0 1078 0;
#X connect 1094 0 1093 0;
#X connect 1094 0 1165 0;
#X connect 1095 0 1093 1;
#X connect 1099 0 1112 1;
#X connect 1100 0 1107 1;
#X connect 1101 0 1102 1;
#X connect 1102 0 1106 0;
#X connect 1103 0 1102 0;
#X connect 1103 0 1108 0;
#X connect 1104 0 1096 0;
#X connect 1105 0 1104 0;
#X connect 1105 0 1110 0;
#X connect 1106 0 1104 1;
#X connect 1107 0 1111 0;
#X connect 1108 0 1107 0;
#X connect 1108 0 1113 0;
#X connect 1109 0 1097 0;
#X connect 1110 0 1109 0;
#X connect 1110 0 1115 0;
#X connect 1111 0 1109 1;
#X connect 1112 0 1116 0;
#X connect 1113 0 1112 0;
#X connect 1113 0 1170 0;
#X connect 1114 0 1098 0;
#X connect 1115 0 1114 0;
#X connect 1115 0 1172 0;
#X connect 1116 0 1114 1;
#X connect 1120 0 1131 1;
#X connect 1121 0 1126 1;
#X connect 1122 0 1123 1;
#X connect 1123 0 1125 0;
#X connect 1124 0 1117 0;
#X connect 1125 0 1124 1;
#X connect 1126 0 1130 0;
#X connect 1127 0 1126 0;
#X connect 1127 0 1132 0;
#X connect 1128 0 1118 0;
#X connect 1129 0 1128 0;
#X connect 1129 0 1134 0;
#X connect 1130 0 1128 1;
#X connect 1131 0 1135 0;
#X connect 1132 0 1131 0;
#X connect 1132 0 1177 0;
#X connect 1133 0 1119 0;
#X connect 1134 0 1133 0;
#X connect 1134 0 1179 0;
#X connect 1135 0 1133 1;
#X connect 1136 0 1123 0;
#X connect 1136 0 1127 0;
#X connect 1137 0 1124 0;
#X connect 1137 0 1129 0;
#X connect 1139 0 1149 1;
#X connect 1140 0 1147 1;
#X connect 1141 0 1294 1;
#X connect 1142 0 1150 1;
#X connect 1146 0 1145 0;
#X connect 1147 0 364 0;
#X connect 1148 0 1138 0;
#X connect 1149 0 130 0;
#X connect 1150 0 832 0;
#X connect 1151 0 1143 0;
#X connect 1153 0 1155 1;
#X connect 1155 0 1159 0;
#X connect 1156 0 1155 0;
#X connect 1156 0 1190 0;
#X connect 1157 0 1154 0;
#X connect 1158 0 1157 0;
#X connect 1158 0 1192 0;
#X connect 1159 0 1157 1;
#X connect 1160 0 1162 1;
#X connect 1162 0 1166 0;
#X connect 1163 0 1162 0;
#X connect 1163 0 1218 0;
#X connect 1164 0 1161 0;
#X connect 1165 0 1164 0;
#X connect 1165 0 1220 0;
#X connect 1166 0 1164 1;
#X connect 1167 0 1169 1;
#X connect 1169 0 1173 0;
#X connect 1170 0 1169 0;
#X connect 1170 0 1246 0;
#X connect 1171 0 1168 0;
#X connect 1172 0 1171 0;
#X connect 1172 0 1248 0;
#X connect 1173 0 1171 1;
#X connect 1174 0 1176 1;
#X connect 1176 0 1180 0;
#X connect 1177 0 1176 0;
#X connect 1177 0 1274 0;
#X connect 1178 0 1175 0;
#X connect 1179 0 1178 0;
#X connect 1179 0 1276 0;
#X connect 1180 0 1178 1;
#X connect 1182 0 1189 1;
#X connect 1184 0 1194 1;
#X connect 1186 0 1199 1;
#X connect 1188 0 1204 1;
#X connect 1189 0 1193 0;
#X connect 1190 0 1189 0;
#X connect 1190 0 1195 0;
#X connect 1191 0 1181 0;
#X connect 1192 0 1191 0;
#X connect 1192 0 1197 0;
#X connect 1193 0 1191 1;
#X connect 1194 0 1198 0;
#X connect 1195 0 1194 0;
#X connect 1195 0 1200 0;
#X connect 1196 0 1183 0;
#X connect 1197 0 1196 0;
#X connect 1197 0 1202 0;
#X connect 1198 0 1196 1;
#X connect 1199 0 1203 0;
#X connect 1200 0 1199 0;
#X connect 1200 0 1205 0;
#X connect 1201 0 1185 0;
#X connect 1202 0 1201 0;
#X connect 1202 0 1207 0;
#X connect 1203 0 1201 1;
#X connect 1204 0 1208 0;
#X connect 1205 0 1204 0;
#X connect 1206 0 1187 0;
#X connect 1207 0 1206 0;
#X connect 1208 0 1206 1;
#X connect 1210 0 1217 1;
#X connect 1212 0 1222 1;
#X connect 1214 0 1227 1;
#X connect 1216 0 1232 1;
#X connect 1217 0 1221 0;
#X connect 1218 0 1217 0;
#X connect 1218 0 1223 0;
#X connect 1219 0 1209 0;
#X connect 1220 0 1219 0;
#X connect 1220 0 1225 0;
#X connect 1221 0 1219 1;
#X connect 1222 0 1226 0;
#X connect 1223 0 1222 0;
#X connect 1223 0 1228 0;
#X connect 1224 0 1211 0;
#X connect 1225 0 1224 0;
#X connect 1225 0 1230 0;
#X connect 1226 0 1224 1;
#X connect 1227 0 1231 0;
#X connect 1228 0 1227 0;
#X connect 1228 0 1233 0;
#X connect 1229 0 1213 0;
#X connect 1230 0 1229 0;
#X connect 1230 0 1235 0;
#X connect 1231 0 1229 1;
#X connect 1232 0 1236 0;
#X connect 1233 0 1232 0;
#X connect 1234 0 1215 0;
#X connect 1235 0 1234 0;
#X connect 1236 0 1234 1;
#X connect 1238 0 1245 1;
#X connect 1240 0 1250 1;
#X connect 1242 0 1255 1;
#X connect 1244 0 1260 1;
#X connect 1245 0 1249 0;
#X connect 1246 0 1245 0;
#X connect 1246 0 1251 0;
#X connect 1247 0 1237 0;
#X connect 1248 0 1247 0;
#X connect 1248 0 1253 0;
#X connect 1249 0 1247 1;
#X connect 1250 0 1254 0;
#X connect 1251 0 1250 0;
#X connect 1251 0 1256 0;
#X connect 1252 0 1239 0;
#X connect 1253 0 1252 0;
#X connect 1253 0 1258 0;
#X connect 1254 0 1252 1;
#X connect 1255 0 1259 0;
#X connect 1256 0 1255 0;
#X connect 1256 0 1261 0;
#X connect 1257 0 1241 0;
#X connect 1258 0 1257 0;
#X connect 1258 0 1263 0;
#X connect 1259 0 1257 1;
#X connect 1260 0 1264 0;
#X connect 1261 0 1260 0;
#X connect 1262 0 1243 0;
#X connect 1263 0 1262 0;
#X connect 1264 0 1262 1;
#X connect 1266 0 1273 1;
#X connect 1268 0 1278 1;
#X connect 1270 0 1283 1;
#X connect 1272 0 1288 1;
#X connect 1273 0 1277 0;
#X connect 1274 0 1273 0;
#X connect 1274 0 1279 0;
#X connect 1275 0 1265 0;
#X connect 1276 0 1275 0;
#X connect 1276 0 1281 0;
#X connect 1277 0 1275 1;
#X connect 1278 0 1282 0;
#X connect 1279 0 1278 0;
#X connect 1279 0 1284 0;
#X connect 1280 0 1267 0;
#X connect 1281 0 1280 0;
#X connect 1281 0 1286 0;
#X connect 1282 0 1280 1;
#X connect 1283 0 1287 0;
#X connect 1284 0 1283 0;
#X connect 1284 0 1289 0;
#X connect 1285 0 1269 0;
#X connect 1286 0 1285 0;
#X connect 1286 0 1291 0;
#X connect 1287 0 1285 1;
#X connect 1288 0 1292 0;
#X connect 1289 0 1288 0;
#X connect 1290 0 1271 0;
#X connect 1291 0 1290 0;
#X connect 1292 0 1290 1;
#X connect 1293 0 1144 0;
#X connect 1294 0 598 0;
#X connect 1295 0 1065 0;
#X connect 1296 0 1085 0;
#X connect 1297 0 1057 0;
#X coords 0 -1 1 1 155 24 1 100 100;
