#N canvas 1783 23 1680 867 10;
#X obj 101 102 hradio 18 1 0 4 empty empty empty -45 7 0 10 -262144
-1 -1 1;
#X obj 216 75 sel 0 1 2;
#X obj 176 102 hradio 18 1 0 4 empty empty empty -26 7 0 10 -262144
-1 -1 0;
#X obj 216 145 sel 0 1 2;
#X floatatom 1303 27 5 0 0 0 receive_TprogB TprogB -;
#X obj 1297 79 f;
#X obj 1264 58 bng 15 250 50 0 empty empty write -35 7 0 10 -262144
-1 -1;
#X obj 1280 148 f;
#X obj 1269 126 bng 15 250 50 0 empty empty send -30 7 0 10 -262144
-1 -1;
#X floatatom 1298 107 5 0 0 0 - - -;
#X floatatom 1282 174 5 0 0 0 send_TprogB - send_TprogB;
#X floatatom 1449 27 5 0 0 0 receive_T#stepB T#stepB -;
#X obj 1443 79 f;
#X obj 1420 58 bng 15 250 50 0 empty empty write -35 7 0 10 -262144
-1 -1;
#X obj 1426 148 f;
#X obj 1425 126 bng 15 250 50 0 empty empty send -30 7 0 10 -262144
-1 -1;
#X floatatom 1444 107 5 0 0 0 - - -;
#X floatatom 1428 174 5 0 0 0 send_T#stepB - send_T#stepB;
#X floatatom 1585 27 5 0 0 0 receive_T1B T1B -;
#X obj 1579 79 f;
#X obj 1556 58 bng 15 250 50 0 empty empty write -35 7 0 10 -262144
-1 -1;
#X obj 1562 148 f;
#X obj 1561 126 bng 15 250 50 0 empty empty send -30 7 0 10 -262144
-1 -1;
#X floatatom 1580 107 5 0 0 0 - - -;
#X floatatom 1564 174 5 0 0 0 send_T1B - send_T1B;
#X floatatom 1725 27 5 0 0 0 receive_T2B T2B -;
#X obj 1719 79 f;
#X obj 1696 58 bng 15 250 50 0 empty empty write -35 7 0 10 -262144
-1 -1;
#X obj 1702 148 f;
#X obj 1701 126 bng 15 250 50 0 empty empty send -30 7 0 10 -262144
-1 -1;
#X floatatom 1720 107 5 0 0 0 - - -;
#X floatatom 1704 174 5 0 0 0 send_T2B - send_T2B;
#X floatatom 1865 27 5 0 0 0 receive_T3B T3B -;
#X obj 1859 79 f;
#X obj 1836 58 bng 15 250 50 0 empty empty write -35 7 0 10 -262144
-1 -1;
#X obj 1842 148 f;
#X obj 1841 126 bng 15 250 50 0 empty empty send -30 7 0 10 -262144
-1 -1;
#X floatatom 1860 107 5 0 0 0 - - -;
#X floatatom 1844 174 5 0 0 0 send_T3B - send_T3B;
#X floatatom 2245 27 5 0 0 0 receive_T6B T6B -;
#X obj 2239 79 f;
#X obj 2216 58 bng 15 250 50 0 empty empty write -35 7 0 10 -262144
-1 -1;
#X obj 2222 148 f;
#X obj 2221 126 bng 15 250 50 0 empty empty send -30 7 0 10 -262144
-1 -1;
#X floatatom 2240 107 5 0 0 0 - - -;
#X floatatom 2224 174 5 0 0 0 send_T6B - send_T6B;
#X floatatom 2375 27 5 0 0 0 receive_T7B T7B -;
#X obj 2369 79 f;
#X obj 2346 58 bng 15 250 50 0 empty empty write -35 7 0 10 -262144
-1 -1;
#X obj 2352 148 f;
#X obj 2351 126 bng 15 250 50 0 empty empty send -30 7 0 10 -262144
-1 -1;
#X floatatom 2370 107 5 0 0 0 - - -;
#X floatatom 2354 174 5 0 0 0 send_T7B - send_T7B;
#X floatatom 2515 27 5 0 0 0 receive_T8B T8B -;
#X obj 2509 79 f;
#X obj 2486 58 bng 15 250 50 0 empty empty write -35 7 0 10 -262144
-1 -1;
#X obj 2492 148 f;
#X obj 2491 126 bng 15 250 50 0 empty empty send -30 7 0 10 -262144
-1 -1;
#X floatatom 2510 107 5 0 0 0 - - -;
#X floatatom 2494 174 5 0 0 0 send_T8B - send_T8B;
#X floatatom 2656 27 5 0 0 0 receive_T9B T9B -;
#X obj 2650 79 f;
#X obj 2627 58 bng 15 250 50 0 empty empty write -35 7 0 10 -262144
-1 -1;
#X obj 2633 148 f;
#X obj 2632 126 bng 15 250 50 0 empty empty send -30 7 0 10 -262144
-1 -1;
#X floatatom 2651 107 5 0 0 0 - - -;
#X floatatom 2634 174 5 0 0 0 send_T9B - send_T9B;
#X floatatom 2796 27 5 0 0 0 receive_T10B T10B -;
#X obj 2790 79 f;
#X obj 2767 58 bng 15 250 50 0 empty empty write -35 7 0 10 -262144
-1 -1;
#X obj 2773 148 f;
#X obj 2772 126 bng 15 250 50 0 empty empty send -30 7 0 10 -262144
-1 -1;
#X floatatom 2791 107 5 0 0 0 - - -;
#X floatatom 2776 174 5 0 0 0 send_T10B - send_T10B;
#X floatatom 2926 27 5 0 0 0 receive_T11B T11B -;
#X obj 2920 79 f;
#X obj 2897 58 bng 15 250 50 0 empty empty write -35 7 0 10 -262144
-1 -1;
#X obj 2903 148 f;
#X obj 2902 126 bng 15 250 50 0 empty empty send -30 7 0 10 -262144
-1 -1;
#X floatatom 2921 107 5 0 0 0 - - -;
#X floatatom 2905 174 5 0 0 0 send_T11B - send_T11B;
#X floatatom 3066 27 5 0 0 0 receive_T12B T12B -;
#X obj 3060 79 f;
#X obj 3037 58 bng 15 250 50 0 empty empty write -35 7 0 10 -262144
-1 -1;
#X obj 3043 148 f;
#X obj 3042 126 bng 15 250 50 0 empty empty send -30 7 0 10 -262144
-1 -1;
#X floatatom 3061 107 5 0 0 0 - - -;
#X floatatom 3045 174 5 0 0 0 send_T12B - send_T12B;
#X floatatom 3206 27 5 0 0 0 receive_T13B T13B -;
#X obj 3200 79 f;
#X obj 3177 58 bng 15 250 50 0 empty empty write -35 7 0 10 -262144
-1 -1;
#X obj 3183 148 f;
#X obj 3182 126 bng 15 250 50 0 empty empty send -30 7 0 10 -262144
-1 -1;
#X floatatom 3201 107 5 0 0 0 - - -;
#X floatatom 3185 174 5 0 0 0 send_T13B - send_T13B;
#X floatatom 3346 27 5 0 0 0 receive_T14B T14B -;
#X obj 3340 79 f;
#X obj 3317 58 bng 15 250 50 0 empty empty write -35 7 0 10 -262144
-1 -1;
#X obj 3323 148 f;
#X obj 3322 126 bng 15 250 50 0 empty empty send -30 7 0 10 -262144
-1 -1;
#X floatatom 3341 107 5 0 0 0 - - -;
#X floatatom 3324 174 5 0 0 0 send_T14B - send_T14B;
#X floatatom 3476 27 5 0 0 0 receive_T15B T15B -;
#X obj 3470 79 f;
#X obj 3447 58 bng 15 250 50 0 empty empty write -35 7 0 10 -262144
-1 -1;
#X obj 3453 148 f;
#X obj 3452 126 bng 15 250 50 0 empty empty send -30 7 0 10 -262144
-1 -1;
#X floatatom 3471 107 5 0 0 0 - - -;
#X floatatom 3455 174 5 0 0 0 send_T15B - send_T15B;
#X floatatom 3615 27 5 0 0 0 receive_T16B T16B -;
#X obj 3610 79 f;
#X obj 3587 58 bng 15 250 50 0 empty empty write -35 7 0 10 -262144
-1 -1;
#X obj 3593 148 f;
#X obj 3592 126 bng 15 250 50 0 empty empty send -30 7 0 10 -262144
-1 -1;
#X floatatom 3611 107 5 0 0 0 - - -;
#X floatatom 3595 174 5 0 0 0 send_T16B - send_T16B;
#X floatatom 874 26 5 0 0 0 receive_TXTB TXTB -;
#X obj 867 79 f;
#X obj 844 58 bng 15 250 50 0 empty empty write -35 7 0 10 -262144
-1 -1;
#X obj 850 148 f;
#X obj 849 126 bng 15 250 50 0 empty empty send -30 7 0 10 -262144
-1 -1;
#X floatatom 868 107 5 0 0 0 - - -;
#X floatatom 852 174 5 0 0 0 send_T1B - send_TXTB;
#X floatatom 1023 27 5 0 0 0 receive_Trgr-tB Trgr-tB -;
#X obj 1017 79 f;
#X obj 994 58 bng 15 250 50 0 empty empty write -35 7 0 10 -262144
-1 -1;
#X obj 1000 148 f;
#X obj 999 126 bng 15 250 50 0 empty empty send -30 7 0 10 -262144
-1 -1;
#X floatatom 1018 107 5 0 0 0 - - -;
#X floatatom 1002 174 5 0 0 0 send_Trgr-tB - send_Trgr-tB;
#X floatatom 1163 27 5 0 0 0 receive_tB tB -;
#X obj 1157 79 f;
#X obj 1134 58 bng 15 250 50 0 empty empty write -35 7 0 10 -262144
-1 -1;
#X obj 1140 148 f;
#X obj 1139 126 bng 15 250 50 0 empty empty send -30 7 0 10 -262144
-1 -1;
#X floatatom 1158 107 5 0 0 0 - - -;
#X floatatom 1142 174 5 0 0 0 send_tB - send_tB;
#X obj 108 62 inlet;
#X obj 158 62 inlet;
#X floatatom 1984 27 5 0 0 0 receive_T4B T4B -;
#X obj 1978 79 f;
#X obj 1955 58 bng 15 250 50 0 empty empty write -35 7 0 10 -262144
-1 -1;
#X obj 1961 148 f;
#X obj 1960 126 bng 15 250 50 0 empty empty send -30 7 0 10 -262144
-1 -1;
#X floatatom 1979 107 5 0 0 0 - - -;
#X floatatom 1963 174 5 0 0 0 send_T4B - send_T4B;
#X floatatom 2124 27 5 0 0 0 receive_T5B T5B -;
#X obj 2118 79 f;
#X obj 2095 58 bng 15 250 50 0 empty empty write -35 7 0 10 -262144
-1 -1;
#X obj 2101 148 f;
#X obj 2100 126 bng 15 250 50 0 empty empty send -30 7 0 10 -262144
-1 -1;
#X floatatom 2119 107 5 0 0 0 - - -;
#X floatatom 2103 174 5 0 0 0 send_T5B - send_T5B;
#X floatatom 734 31 5 0 0 0 receive_T1≠T1 T1≠T1 -;
#X obj 727 84 f;
#X obj 704 63 bng 15 250 50 0 empty empty write -35 7 0 10 -262144
-1 -1;
#X obj 710 153 f;
#X obj 709 131 bng 15 250 50 0 empty empty send -30 7 0 10 -262144
-1 -1;
#X floatatom 728 112 5 0 0 0 - - -;
#X floatatom 711 180 5 0 0 0 send_T1≠T1 - sendT1≠T1;
#X floatatom 574 31 5 0 0 0 receive_IT1≠T1 IT1≠T1 -;
#X obj 567 84 f;
#X obj 544 63 bng 15 250 50 0 empty empty write -35 7 0 10 -262144
-1 -1;
#X obj 550 153 f;
#X obj 549 131 bng 15 250 50 0 empty empty send -30 7 0 10 -262144
-1 -1;
#X floatatom 568 112 5 0 0 0 - - -;
#X floatatom 551 180 5 0 0 0 sendIT1≠T1 - sendIT1≠T1;
#X floatatom 404 31 5 0 0 0 receive_ITB%ITB ITB%ITB -;
#X obj 397 84 f;
#X obj 374 63 bng 15 250 50 0 empty empty write -35 7 0 10 -262144
-1 -1;
#X obj 380 153 f;
#X obj 379 131 bng 15 250 50 0 empty empty send -30 7 0 10 -262144
-1 -1;
#X floatatom 398 112 5 0 0 0 - - -;
#X floatatom 381 180 5 0 0 0 sendITB%ITB - sendITB%ITB;
#X floatatom 1283 227 5 0 0 0 receive_TprogB TprogB -;
#X obj 1277 279 f;
#X obj 1244 258 bng 15 250 50 0 empty empty write -35 7 0 10 -262144
-1 -1;
#X obj 1260 348 f;
#X obj 1249 326 bng 15 250 50 0 empty empty send -30 7 0 10 -262144
-1 -1;
#X floatatom 1278 307 5 0 0 0 - - -;
#X floatatom 1262 374 5 0 0 0 send_TprogB - send_TprogB;
#X floatatom 1429 227 5 0 0 0 receive_T#stepB T#stepB -;
#X obj 1423 279 f;
#X obj 1400 258 bng 15 250 50 0 empty empty write -35 7 0 10 -262144
-1 -1;
#X obj 1406 348 f;
#X obj 1405 326 bng 15 250 50 0 empty empty send -30 7 0 10 -262144
-1 -1;
#X floatatom 1424 307 5 0 0 0 - - -;
#X floatatom 1408 374 5 0 0 0 send_T#stepB - send_T#stepB;
#X floatatom 1565 227 5 0 0 0 receive_T1B T1B -;
#X obj 1559 279 f;
#X obj 1536 258 bng 15 250 50 0 empty empty write -35 7 0 10 -262144
-1 -1;
#X obj 1542 348 f;
#X obj 1541 326 bng 15 250 50 0 empty empty send -30 7 0 10 -262144
-1 -1;
#X floatatom 1560 307 5 0 0 0 - - -;
#X floatatom 1544 374 5 0 0 0 send_T1B - send_T1B;
#X floatatom 1705 227 5 0 0 0 receive_T2B T2B -;
#X obj 1699 279 f;
#X obj 1676 258 bng 15 250 50 0 empty empty write -35 7 0 10 -262144
-1 -1;
#X obj 1682 348 f;
#X obj 1681 326 bng 15 250 50 0 empty empty send -30 7 0 10 -262144
-1 -1;
#X floatatom 1700 307 5 0 0 0 - - -;
#X floatatom 1684 374 5 0 0 0 send_T2B - send_T2B;
#X floatatom 1845 227 5 0 0 0 receive_T3B T3B -;
#X obj 1839 279 f;
#X obj 1816 258 bng 15 250 50 0 empty empty write -35 7 0 10 -262144
-1 -1;
#X obj 1822 348 f;
#X obj 1821 326 bng 15 250 50 0 empty empty send -30 7 0 10 -262144
-1 -1;
#X floatatom 1840 307 5 0 0 0 - - -;
#X floatatom 1824 374 5 0 0 0 send_T3B - send_T3B;
#X floatatom 2225 227 5 0 0 0 receive_T6B T6B -;
#X obj 2219 279 f;
#X obj 2196 258 bng 15 250 50 0 empty empty write -35 7 0 10 -262144
-1 -1;
#X obj 2202 348 f;
#X obj 2201 326 bng 15 250 50 0 empty empty send -30 7 0 10 -262144
-1 -1;
#X floatatom 2220 307 5 0 0 0 - - -;
#X floatatom 2204 374 5 0 0 0 send_T6B - send_T6B;
#X floatatom 2355 227 5 0 0 0 receive_T7B T7B -;
#X obj 2349 279 f;
#X obj 2326 258 bng 15 250 50 0 empty empty write -35 7 0 10 -262144
-1 -1;
#X obj 2332 348 f;
#X obj 2331 326 bng 15 250 50 0 empty empty send -30 7 0 10 -262144
-1 -1;
#X floatatom 2350 307 5 0 0 0 - - -;
#X floatatom 2334 374 5 0 0 0 send_T7B - send_T7B;
#X floatatom 2495 227 5 0 0 0 receive_T8B T8B -;
#X obj 2489 279 f;
#X obj 2466 258 bng 15 250 50 0 empty empty write -35 7 0 10 -262144
-1 -1;
#X obj 2472 348 f;
#X obj 2471 326 bng 15 250 50 0 empty empty send -30 7 0 10 -262144
-1 -1;
#X floatatom 2490 307 5 0 0 0 - - -;
#X floatatom 2474 374 5 0 0 0 send_T8B - send_T8B;
#X floatatom 2636 227 5 0 0 0 receive_T9B T9B -;
#X obj 2630 279 f;
#X obj 2607 258 bng 15 250 50 0 empty empty write -35 7 0 10 -262144
-1 -1;
#X obj 2613 348 f;
#X obj 2612 326 bng 15 250 50 0 empty empty send -30 7 0 10 -262144
-1 -1;
#X floatatom 2631 307 5 0 0 0 - - -;
#X floatatom 2614 374 5 0 0 0 send_T9B - send_T9B;
#X floatatom 2776 227 5 0 0 0 receive_T10B T10B -;
#X obj 2770 279 f;
#X obj 2747 258 bng 15 250 50 0 empty empty write -35 7 0 10 -262144
-1 -1;
#X obj 2753 348 f;
#X obj 2752 326 bng 15 250 50 0 empty empty send -30 7 0 10 -262144
-1 -1;
#X floatatom 2771 307 5 0 0 0 - - -;
#X floatatom 2756 374 5 0 0 0 send_T10B - send_T10B;
#X floatatom 2906 227 5 0 0 0 receive_T11B T11B -;
#X obj 2900 279 f;
#X obj 2877 258 bng 15 250 50 0 empty empty write -35 7 0 10 -262144
-1 -1;
#X obj 2883 348 f;
#X obj 2882 326 bng 15 250 50 0 empty empty send -30 7 0 10 -262144
-1 -1;
#X floatatom 2901 307 5 0 0 0 - - -;
#X floatatom 2885 374 5 0 0 0 send_T11B - send_T11B;
#X floatatom 3046 227 5 0 0 0 receive_T12B T12B -;
#X obj 3040 279 f;
#X obj 3017 258 bng 15 250 50 0 empty empty write -35 7 0 10 -262144
-1 -1;
#X obj 3023 348 f;
#X obj 3022 326 bng 15 250 50 0 empty empty send -30 7 0 10 -262144
-1 -1;
#X floatatom 3041 307 5 0 0 0 - - -;
#X floatatom 3025 374 5 0 0 0 send_T12B - send_T12B;
#X floatatom 3186 227 5 0 0 0 receive_T13B T13B -;
#X obj 3180 279 f;
#X obj 3157 258 bng 15 250 50 0 empty empty write -35 7 0 10 -262144
-1 -1;
#X obj 3163 348 f;
#X obj 3162 326 bng 15 250 50 0 empty empty send -30 7 0 10 -262144
-1 -1;
#X floatatom 3181 307 5 0 0 0 - - -;
#X floatatom 3165 374 5 0 0 0 send_T13B - send_T13B;
#X floatatom 3326 227 5 0 0 0 receive_T14B T14B -;
#X obj 3320 279 f;
#X obj 3297 258 bng 15 250 50 0 empty empty write -35 7 0 10 -262144
-1 -1;
#X obj 3303 348 f;
#X obj 3302 326 bng 15 250 50 0 empty empty send -30 7 0 10 -262144
-1 -1;
#X floatatom 3321 307 5 0 0 0 - - -;
#X floatatom 3304 374 5 0 0 0 send_T14B - send_T14B;
#X floatatom 3456 227 5 0 0 0 receive_T15B T15B -;
#X obj 3450 279 f;
#X obj 3427 258 bng 15 250 50 0 empty empty write -35 7 0 10 -262144
-1 -1;
#X obj 3433 348 f;
#X obj 3432 326 bng 15 250 50 0 empty empty send -30 7 0 10 -262144
-1 -1;
#X floatatom 3451 307 5 0 0 0 - - -;
#X floatatom 3435 374 5 0 0 0 send_T15B - send_T15B;
#X floatatom 3595 227 5 0 0 0 receive_T16B T16B -;
#X obj 3590 279 f;
#X obj 3567 258 bng 15 250 50 0 empty empty write -35 7 0 10 -262144
-1 -1;
#X obj 3573 348 f;
#X obj 3572 326 bng 15 250 50 0 empty empty send -30 7 0 10 -262144
-1 -1;
#X floatatom 3591 307 5 0 0 0 - - -;
#X floatatom 3575 374 5 0 0 0 send_T16B - send_T16B;
#X floatatom 854 226 5 0 0 0 receive_TXTB TXTB -;
#X obj 847 279 f;
#X obj 824 258 bng 15 250 50 0 empty empty write -35 7 0 10 -262144
-1 -1;
#X obj 830 348 f;
#X obj 829 326 bng 15 250 50 0 empty empty send -30 7 0 10 -262144
-1 -1;
#X floatatom 848 307 5 0 0 0 - - -;
#X floatatom 832 374 5 0 0 0 send_T1B - send_TXTB;
#X floatatom 1003 227 5 0 0 0 receive_Trgr-tB Trgr-tB -;
#X obj 997 279 f;
#X obj 974 258 bng 15 250 50 0 empty empty write -35 7 0 10 -262144
-1 -1;
#X obj 980 348 f;
#X obj 979 326 bng 15 250 50 0 empty empty send -30 7 0 10 -262144
-1 -1;
#X floatatom 998 307 5 0 0 0 - - -;
#X floatatom 982 374 5 0 0 0 send_Trgr-tB - send_Trgr-tB;
#X floatatom 1143 227 5 0 0 0 receive_tB tB -;
#X obj 1137 279 f;
#X obj 1114 258 bng 15 250 50 0 empty empty write -35 7 0 10 -262144
-1 -1;
#X obj 1120 348 f;
#X obj 1119 326 bng 15 250 50 0 empty empty send -30 7 0 10 -262144
-1 -1;
#X floatatom 1138 307 5 0 0 0 - - -;
#X floatatom 1122 374 5 0 0 0 send_tB - send_tB;
#X floatatom 1964 227 5 0 0 0 receive_T4B T4B -;
#X obj 1958 279 f;
#X obj 1935 258 bng 15 250 50 0 empty empty write -35 7 0 10 -262144
-1 -1;
#X obj 1941 348 f;
#X obj 1940 326 bng 15 250 50 0 empty empty send -30 7 0 10 -262144
-1 -1;
#X floatatom 1959 307 5 0 0 0 - - -;
#X floatatom 1943 374 5 0 0 0 send_T4B - send_T4B;
#X floatatom 2104 227 5 0 0 0 receive_T5B T5B -;
#X obj 2098 279 f;
#X obj 2075 258 bng 15 250 50 0 empty empty write -35 7 0 10 -262144
-1 -1;
#X obj 2081 348 f;
#X obj 2080 326 bng 15 250 50 0 empty empty send -30 7 0 10 -262144
-1 -1;
#X floatatom 2099 307 5 0 0 0 - - -;
#X floatatom 2083 374 5 0 0 0 send_T5B - send_T5B;
#X floatatom 714 231 5 0 0 0 receive_T1≠T1 T1≠T1 -;
#X obj 707 284 f;
#X obj 684 263 bng 15 250 50 0 empty empty write -35 7 0 10 -262144
-1 -1;
#X obj 690 353 f;
#X obj 689 331 bng 15 250 50 0 empty empty send -30 7 0 10 -262144
-1 -1;
#X floatatom 708 312 5 0 0 0 - - -;
#X floatatom 691 380 5 0 0 0 send_T1≠T1 - sendT1≠T1;
#X floatatom 554 231 5 0 0 0 receive_IT1≠T1 IT1≠T1 -;
#X obj 547 284 f;
#X obj 524 263 bng 15 250 50 0 empty empty write -35 7 0 10 -262144
-1 -1;
#X obj 530 353 f;
#X obj 529 331 bng 15 250 50 0 empty empty send -30 7 0 10 -262144
-1 -1;
#X floatatom 548 312 5 0 0 0 - - -;
#X floatatom 531 380 5 0 0 0 sendIT1≠T1 - sendIT1≠T1;
#X floatatom 384 231 5 0 0 0 receive_ITB%ITB ITB%ITB -;
#X obj 377 284 f;
#X obj 354 263 bng 15 250 50 0 empty empty write -35 7 0 10 -262144
-1 -1;
#X obj 360 353 f;
#X obj 359 331 bng 15 250 50 0 empty empty send -30 7 0 10 -262144
-1 -1;
#X floatatom 378 312 5 0 0 0 - - -;
#X floatatom 361 380 5 0 0 0 sendITB%ITB - sendITB%ITB;
#X floatatom 1263 417 5 0 0 0 receive_TprogB TprogB -;
#X obj 1257 469 f;
#X obj 1224 448 bng 15 250 50 0 empty empty write -35 7 0 10 -262144
-1 -1;
#X obj 1240 538 f;
#X obj 1229 516 bng 15 250 50 0 empty empty send -30 7 0 10 -262144
-1 -1;
#X floatatom 1258 497 5 0 0 0 - - -;
#X floatatom 1242 564 5 0 0 0 send_TprogB - send_TprogB;
#X floatatom 1409 417 5 0 0 0 receive_T#stepB T#stepB -;
#X obj 1403 469 f;
#X obj 1380 448 bng 15 250 50 0 empty empty write -35 7 0 10 -262144
-1 -1;
#X obj 1386 538 f;
#X obj 1385 516 bng 15 250 50 0 empty empty send -30 7 0 10 -262144
-1 -1;
#X floatatom 1404 497 5 0 0 0 - - -;
#X floatatom 1388 564 5 0 0 0 send_T#stepB - send_T#stepB;
#X floatatom 1545 417 5 0 0 0 receive_T1B T1B -;
#X obj 1539 469 f;
#X obj 1516 448 bng 15 250 50 0 empty empty write -35 7 0 10 -262144
-1 -1;
#X obj 1522 538 f;
#X obj 1521 516 bng 15 250 50 0 empty empty send -30 7 0 10 -262144
-1 -1;
#X floatatom 1540 497 5 0 0 0 - - -;
#X floatatom 1524 564 5 0 0 0 send_T1B - send_T1B;
#X floatatom 1685 417 5 0 0 0 receive_T2B T2B -;
#X obj 1679 469 f;
#X obj 1656 448 bng 15 250 50 0 empty empty write -35 7 0 10 -262144
-1 -1;
#X obj 1662 538 f;
#X obj 1661 516 bng 15 250 50 0 empty empty send -30 7 0 10 -262144
-1 -1;
#X floatatom 1680 497 5 0 0 0 - - -;
#X floatatom 1664 564 5 0 0 0 send_T2B - send_T2B;
#X floatatom 1825 417 5 0 0 0 receive_T3B T3B -;
#X obj 1819 469 f;
#X obj 1796 448 bng 15 250 50 0 empty empty write -35 7 0 10 -262144
-1 -1;
#X obj 1802 538 f;
#X obj 1801 516 bng 15 250 50 0 empty empty send -30 7 0 10 -262144
-1 -1;
#X floatatom 1820 497 5 0 0 0 - - -;
#X floatatom 1804 564 5 0 0 0 send_T3B - send_T3B;
#X floatatom 2205 417 5 0 0 0 receive_T6B T6B -;
#X obj 2199 469 f;
#X obj 2176 448 bng 15 250 50 0 empty empty write -35 7 0 10 -262144
-1 -1;
#X obj 2182 538 f;
#X obj 2181 516 bng 15 250 50 0 empty empty send -30 7 0 10 -262144
-1 -1;
#X floatatom 2200 497 5 0 0 0 - - -;
#X floatatom 2184 564 5 0 0 0 send_T6B - send_T6B;
#X floatatom 2335 417 5 0 0 0 receive_T7B T7B -;
#X obj 2329 469 f;
#X obj 2306 448 bng 15 250 50 0 empty empty write -35 7 0 10 -262144
-1 -1;
#X obj 2312 538 f;
#X obj 2311 516 bng 15 250 50 0 empty empty send -30 7 0 10 -262144
-1 -1;
#X floatatom 2330 497 5 0 0 0 - - -;
#X floatatom 2314 564 5 0 0 0 send_T7B - send_T7B;
#X floatatom 2475 417 5 0 0 0 receive_T8B T8B -;
#X obj 2469 469 f;
#X obj 2446 448 bng 15 250 50 0 empty empty write -35 7 0 10 -262144
-1 -1;
#X obj 2452 538 f;
#X obj 2451 516 bng 15 250 50 0 empty empty send -30 7 0 10 -262144
-1 -1;
#X floatatom 2470 497 5 0 0 0 - - -;
#X floatatom 2454 564 5 0 0 0 send_T8B - send_T8B;
#X floatatom 2616 417 5 0 0 0 receive_T9B T9B -;
#X obj 2610 469 f;
#X obj 2587 448 bng 15 250 50 0 empty empty write -35 7 0 10 -262144
-1 -1;
#X obj 2593 538 f;
#X obj 2592 516 bng 15 250 50 0 empty empty send -30 7 0 10 -262144
-1 -1;
#X floatatom 2611 497 5 0 0 0 - - -;
#X floatatom 2594 564 5 0 0 0 send_T9B - send_T9B;
#X floatatom 2756 417 5 0 0 0 receive_T10B T10B -;
#X obj 2750 469 f;
#X obj 2727 448 bng 15 250 50 0 empty empty write -35 7 0 10 -262144
-1 -1;
#X obj 2733 538 f;
#X obj 2732 516 bng 15 250 50 0 empty empty send -30 7 0 10 -262144
-1 -1;
#X floatatom 2751 497 5 0 0 0 - - -;
#X floatatom 2736 564 5 0 0 0 send_T10B - send_T10B;
#X floatatom 2886 417 5 0 0 0 receive_T11B T11B -;
#X obj 2880 469 f;
#X obj 2857 448 bng 15 250 50 0 empty empty write -35 7 0 10 -262144
-1 -1;
#X obj 2863 538 f;
#X obj 2862 516 bng 15 250 50 0 empty empty send -30 7 0 10 -262144
-1 -1;
#X floatatom 2881 497 5 0 0 0 - - -;
#X floatatom 2865 564 5 0 0 0 send_T11B - send_T11B;
#X floatatom 3026 417 5 0 0 0 receive_T12B T12B -;
#X obj 3020 469 f;
#X obj 2997 448 bng 15 250 50 0 empty empty write -35 7 0 10 -262144
-1 -1;
#X obj 3003 538 f;
#X obj 3002 516 bng 15 250 50 0 empty empty send -30 7 0 10 -262144
-1 -1;
#X floatatom 3021 497 5 0 0 0 - - -;
#X floatatom 3005 564 5 0 0 0 send_T12B - send_T12B;
#X floatatom 3166 417 5 0 0 0 receive_T13B T13B -;
#X obj 3160 469 f;
#X obj 3137 448 bng 15 250 50 0 empty empty write -35 7 0 10 -262144
-1 -1;
#X obj 3143 538 f;
#X obj 3142 516 bng 15 250 50 0 empty empty send -30 7 0 10 -262144
-1 -1;
#X floatatom 3161 497 5 0 0 0 - - -;
#X floatatom 3145 564 5 0 0 0 send_T13B - send_T13B;
#X floatatom 3306 417 5 0 0 0 receive_T14B T14B -;
#X obj 3300 469 f;
#X obj 3277 448 bng 15 250 50 0 empty empty write -35 7 0 10 -262144
-1 -1;
#X obj 3283 538 f;
#X obj 3282 516 bng 15 250 50 0 empty empty send -30 7 0 10 -262144
-1 -1;
#X floatatom 3301 497 5 0 0 0 - - -;
#X floatatom 3284 564 5 0 0 0 send_T14B - send_T14B;
#X floatatom 3436 417 5 0 0 0 receive_T15B T15B -;
#X obj 3430 469 f;
#X obj 3407 448 bng 15 250 50 0 empty empty write -35 7 0 10 -262144
-1 -1;
#X obj 3413 538 f;
#X obj 3412 516 bng 15 250 50 0 empty empty send -30 7 0 10 -262144
-1 -1;
#X floatatom 3431 497 5 0 0 0 - - -;
#X floatatom 3415 564 5 0 0 0 send_T15B - send_T15B;
#X floatatom 3575 417 5 0 0 0 receive_T16B T16B -;
#X obj 3570 469 f;
#X obj 3547 448 bng 15 250 50 0 empty empty write -35 7 0 10 -262144
-1 -1;
#X obj 3553 538 f;
#X obj 3552 516 bng 15 250 50 0 empty empty send -30 7 0 10 -262144
-1 -1;
#X floatatom 3571 497 5 0 0 0 - - -;
#X floatatom 3555 564 5 0 0 0 send_T16B - send_T16B;
#X floatatom 834 416 5 0 0 0 receive_TXTB TXTB -;
#X obj 827 469 f;
#X obj 804 448 bng 15 250 50 0 empty empty write -35 7 0 10 -262144
-1 -1;
#X obj 810 538 f;
#X obj 809 516 bng 15 250 50 0 empty empty send -30 7 0 10 -262144
-1 -1;
#X floatatom 828 497 5 0 0 0 - - -;
#X floatatom 812 564 5 0 0 0 send_T1B - send_TXTB;
#X floatatom 983 417 5 0 0 0 receive_Trgr-tB Trgr-tB -;
#X obj 977 469 f;
#X obj 954 448 bng 15 250 50 0 empty empty write -35 7 0 10 -262144
-1 -1;
#X obj 960 538 f;
#X obj 959 516 bng 15 250 50 0 empty empty send -30 7 0 10 -262144
-1 -1;
#X floatatom 978 497 5 0 0 0 - - -;
#X floatatom 962 564 5 0 0 0 send_Trgr-tB - send_Trgr-tB;
#X floatatom 1123 417 5 0 0 0 receive_tB tB -;
#X obj 1117 469 f;
#X obj 1094 448 bng 15 250 50 0 empty empty write -35 7 0 10 -262144
-1 -1;
#X obj 1100 538 f;
#X obj 1099 516 bng 15 250 50 0 empty empty send -30 7 0 10 -262144
-1 -1;
#X floatatom 1118 497 5 0 0 0 - - -;
#X floatatom 1102 564 5 0 0 0 send_tB - send_tB;
#X floatatom 1944 417 5 0 0 0 receive_T4B T4B -;
#X obj 1938 469 f;
#X obj 1915 448 bng 15 250 50 0 empty empty write -35 7 0 10 -262144
-1 -1;
#X obj 1921 538 f;
#X obj 1920 516 bng 15 250 50 0 empty empty send -30 7 0 10 -262144
-1 -1;
#X floatatom 1939 497 5 0 0 0 - - -;
#X floatatom 1923 564 5 0 0 0 send_T4B - send_T4B;
#X floatatom 2084 417 5 0 0 0 receive_T5B T5B -;
#X obj 2078 469 f;
#X obj 2055 448 bng 15 250 50 0 empty empty write -35 7 0 10 -262144
-1 -1;
#X obj 2061 538 f;
#X obj 2060 516 bng 15 250 50 0 empty empty send -30 7 0 10 -262144
-1 -1;
#X floatatom 2079 497 5 0 0 0 - - -;
#X floatatom 2063 564 5 0 0 0 send_T5B - send_T5B;
#X floatatom 694 421 5 0 0 0 receive_T1≠T1 T1≠T1 -;
#X obj 687 474 f;
#X obj 664 453 bng 15 250 50 0 empty empty write -35 7 0 10 -262144
-1 -1;
#X obj 670 543 f;
#X obj 669 521 bng 15 250 50 0 empty empty send -30 7 0 10 -262144
-1 -1;
#X floatatom 688 502 5 0 0 0 - - -;
#X floatatom 671 570 5 0 0 0 send_T1≠T1 - sendT1≠T1;
#X floatatom 534 421 5 0 0 0 receive_IT1≠T1 IT1≠T1 -;
#X obj 527 474 f;
#X obj 504 453 bng 15 250 50 0 empty empty write -35 7 0 10 -262144
-1 -1;
#X obj 510 543 f;
#X obj 509 521 bng 15 250 50 0 empty empty send -30 7 0 10 -262144
-1 -1;
#X floatatom 528 502 5 0 0 0 - - -;
#X floatatom 511 570 5 0 0 0 sendIT1≠T1 - sendIT1≠T1;
#X floatatom 364 421 5 0 0 0 receive_ITB%ITB ITB%ITB -;
#X obj 357 474 f;
#X obj 334 453 bng 15 250 50 0 empty empty write -35 7 0 10 -262144
-1 -1;
#X obj 340 543 f;
#X obj 339 521 bng 15 250 50 0 empty empty send -30 7 0 10 -262144
-1 -1;
#X floatatom 358 502 5 0 0 0 - - -;
#X floatatom 341 570 5 0 0 0 sendITB%ITB - sendITB%ITB;
#X floatatom 1233 597 5 0 0 0 receive_TprogB TprogB -;
#X obj 1227 649 f;
#X obj 1194 628 bng 15 250 50 0 empty empty write -35 7 0 10 -262144
-1 -1;
#X obj 1210 718 f;
#X obj 1199 696 bng 15 250 50 0 empty empty send -30 7 0 10 -262144
-1 -1;
#X floatatom 1228 677 5 0 0 0 - - -;
#X floatatom 1212 744 5 0 0 0 send_TprogB - send_TprogB;
#X floatatom 1379 597 5 0 0 0 receive_T#stepB T#stepB -;
#X obj 1373 649 f;
#X obj 1350 628 bng 15 250 50 0 empty empty write -35 7 0 10 -262144
-1 -1;
#X obj 1356 718 f;
#X obj 1355 696 bng 15 250 50 0 empty empty send -30 7 0 10 -262144
-1 -1;
#X floatatom 1374 677 5 0 0 0 - - -;
#X floatatom 1358 744 5 0 0 0 send_T#stepB - send_T#stepB;
#X floatatom 1515 597 5 0 0 0 receive_T1B T1B -;
#X obj 1509 649 f;
#X obj 1486 628 bng 15 250 50 0 empty empty write -35 7 0 10 -262144
-1 -1;
#X obj 1492 718 f;
#X obj 1491 696 bng 15 250 50 0 empty empty send -30 7 0 10 -262144
-1 -1;
#X floatatom 1510 677 5 0 0 0 - - -;
#X floatatom 1494 744 5 0 0 0 send_T1B - send_T1B;
#X floatatom 1655 597 5 0 0 0 receive_T2B T2B -;
#X obj 1649 649 f;
#X obj 1626 628 bng 15 250 50 0 empty empty write -35 7 0 10 -262144
-1 -1;
#X obj 1632 718 f;
#X obj 1631 696 bng 15 250 50 0 empty empty send -30 7 0 10 -262144
-1 -1;
#X floatatom 1650 677 5 0 0 0 - - -;
#X floatatom 1634 744 5 0 0 0 send_T2B - send_T2B;
#X floatatom 1795 597 5 0 0 0 receive_T3B T3B -;
#X obj 1789 649 f;
#X obj 1766 628 bng 15 250 50 0 empty empty write -35 7 0 10 -262144
-1 -1;
#X obj 1772 718 f;
#X obj 1771 696 bng 15 250 50 0 empty empty send -30 7 0 10 -262144
-1 -1;
#X floatatom 1790 677 5 0 0 0 - - -;
#X floatatom 1774 744 5 0 0 0 send_T3B - send_T3B;
#X floatatom 2175 597 5 0 0 0 receive_T6B T6B -;
#X obj 2169 649 f;
#X obj 2146 628 bng 15 250 50 0 empty empty write -35 7 0 10 -262144
-1 -1;
#X obj 2152 718 f;
#X obj 2151 696 bng 15 250 50 0 empty empty send -30 7 0 10 -262144
-1 -1;
#X floatatom 2170 677 5 0 0 0 - - -;
#X floatatom 2154 744 5 0 0 0 send_T6B - send_T6B;
#X floatatom 2305 597 5 0 0 0 receive_T7B T7B -;
#X obj 2299 649 f;
#X obj 2276 628 bng 15 250 50 0 empty empty write -35 7 0 10 -262144
-1 -1;
#X obj 2282 718 f;
#X obj 2281 696 bng 15 250 50 0 empty empty send -30 7 0 10 -262144
-1 -1;
#X floatatom 2300 677 5 0 0 0 - - -;
#X floatatom 2284 744 5 0 0 0 send_T7B - send_T7B;
#X floatatom 2445 597 5 0 0 0 receive_T8B T8B -;
#X obj 2439 649 f;
#X obj 2416 628 bng 15 250 50 0 empty empty write -35 7 0 10 -262144
-1 -1;
#X obj 2422 718 f;
#X obj 2421 696 bng 15 250 50 0 empty empty send -30 7 0 10 -262144
-1 -1;
#X floatatom 2440 677 5 0 0 0 - - -;
#X floatatom 2424 744 5 0 0 0 send_T8B - send_T8B;
#X floatatom 2586 597 5 0 0 0 receive_T9B T9B -;
#X obj 2580 649 f;
#X obj 2557 628 bng 15 250 50 0 empty empty write -35 7 0 10 -262144
-1 -1;
#X obj 2563 718 f;
#X obj 2562 696 bng 15 250 50 0 empty empty send -30 7 0 10 -262144
-1 -1;
#X floatatom 2581 677 5 0 0 0 - - -;
#X floatatom 2564 744 5 0 0 0 send_T9B - send_T9B;
#X floatatom 2726 597 5 0 0 0 receive_T10B T10B -;
#X obj 2720 649 f;
#X obj 2697 628 bng 15 250 50 0 empty empty write -35 7 0 10 -262144
-1 -1;
#X obj 2703 718 f;
#X obj 2702 696 bng 15 250 50 0 empty empty send -30 7 0 10 -262144
-1 -1;
#X floatatom 2721 677 5 0 0 0 - - -;
#X floatatom 2706 744 5 0 0 0 send_T10B - send_T10B;
#X floatatom 2856 597 5 0 0 0 receive_T11B T11B -;
#X obj 2850 649 f;
#X obj 2827 628 bng 15 250 50 0 empty empty write -35 7 0 10 -262144
-1 -1;
#X obj 2833 718 f;
#X obj 2832 696 bng 15 250 50 0 empty empty send -30 7 0 10 -262144
-1 -1;
#X floatatom 2851 677 5 0 0 0 - - -;
#X floatatom 2835 744 5 0 0 0 send_T11B - send_T11B;
#X floatatom 2996 597 5 0 0 0 receive_T12B T12B -;
#X obj 2990 649 f;
#X obj 2967 628 bng 15 250 50 0 empty empty write -35 7 0 10 -262144
-1 -1;
#X obj 2973 718 f;
#X obj 2972 696 bng 15 250 50 0 empty empty send -30 7 0 10 -262144
-1 -1;
#X floatatom 2991 677 5 0 0 0 - - -;
#X floatatom 2975 744 5 0 0 0 send_T12B - send_T12B;
#X floatatom 3136 597 5 0 0 0 receive_T13B T13B -;
#X obj 3130 649 f;
#X obj 3107 628 bng 15 250 50 0 empty empty write -35 7 0 10 -262144
-1 -1;
#X obj 3113 718 f;
#X obj 3112 696 bng 15 250 50 0 empty empty send -30 7 0 10 -262144
-1 -1;
#X floatatom 3131 677 5 0 0 0 - - -;
#X floatatom 3115 744 5 0 0 0 send_T13B - send_T13B;
#X floatatom 3276 597 5 0 0 0 receive_T14B T14B -;
#X obj 3270 649 f;
#X obj 3247 628 bng 15 250 50 0 empty empty write -35 7 0 10 -262144
-1 -1;
#X obj 3253 718 f;
#X obj 3252 696 bng 15 250 50 0 empty empty send -30 7 0 10 -262144
-1 -1;
#X floatatom 3271 677 5 0 0 0 - - -;
#X floatatom 3254 744 5 0 0 0 send_T14B - send_T14B;
#X floatatom 3406 597 5 0 0 0 receive_T15B T15B -;
#X obj 3400 649 f;
#X obj 3377 628 bng 15 250 50 0 empty empty write -35 7 0 10 -262144
-1 -1;
#X obj 3383 718 f;
#X obj 3382 696 bng 15 250 50 0 empty empty send -30 7 0 10 -262144
-1 -1;
#X floatatom 3401 677 5 0 0 0 - - -;
#X floatatom 3385 744 5 0 0 0 send_T15B - send_T15B;
#X floatatom 3545 597 5 0 0 0 receive_T16B T16B -;
#X obj 3540 649 f;
#X obj 3517 628 bng 15 250 50 0 empty empty write -35 7 0 10 -262144
-1 -1;
#X obj 3523 718 f;
#X obj 3522 696 bng 15 250 50 0 empty empty send -30 7 0 10 -262144
-1 -1;
#X floatatom 3541 677 5 0 0 0 - - -;
#X floatatom 3525 744 5 0 0 0 send_T16B - send_T16B;
#X floatatom 804 596 5 0 0 0 receive_TXTB TXTB -;
#X obj 797 649 f;
#X obj 774 628 bng 15 250 50 0 empty empty write -35 7 0 10 -262144
-1 -1;
#X obj 780 718 f;
#X obj 779 696 bng 15 250 50 0 empty empty send -30 7 0 10 -262144
-1 -1;
#X floatatom 798 677 5 0 0 0 - - -;
#X floatatom 782 744 5 0 0 0 send_T1B - send_TXTB;
#X floatatom 953 597 5 0 0 0 receive_Trgr-tB Trgr-tB -;
#X obj 947 649 f;
#X obj 924 628 bng 15 250 50 0 empty empty write -35 7 0 10 -262144
-1 -1;
#X obj 930 718 f;
#X obj 929 696 bng 15 250 50 0 empty empty send -30 7 0 10 -262144
-1 -1;
#X floatatom 948 677 5 0 0 0 - - -;
#X floatatom 932 744 5 0 0 0 send_Trgr-tB - send_Trgr-tB;
#X floatatom 1093 597 5 0 0 0 receive_tB tB -;
#X obj 1087 649 f;
#X obj 1064 628 bng 15 250 50 0 empty empty write -35 7 0 10 -262144
-1 -1;
#X obj 1070 718 f;
#X obj 1069 696 bng 15 250 50 0 empty empty send -30 7 0 10 -262144
-1 -1;
#X floatatom 1088 677 5 0 0 0 - - -;
#X floatatom 1072 744 5 0 0 0 send_tB - send_tB;
#X floatatom 1914 597 5 0 0 0 receive_T4B T4B -;
#X obj 1908 649 f;
#X obj 1885 628 bng 15 250 50 0 empty empty write -35 7 0 10 -262144
-1 -1;
#X obj 1891 718 f;
#X obj 1890 696 bng 15 250 50 0 empty empty send -30 7 0 10 -262144
-1 -1;
#X floatatom 1909 677 5 0 0 0 - - -;
#X floatatom 1893 744 5 0 0 0 send_T4B - send_T4B;
#X floatatom 2054 597 5 0 0 0 receive_T5B T5B -;
#X obj 2048 649 f;
#X obj 2025 628 bng 15 250 50 0 empty empty write -35 7 0 10 -262144
-1 -1;
#X obj 2031 718 f;
#X obj 2030 696 bng 15 250 50 0 empty empty send -30 7 0 10 -262144
-1 -1;
#X floatatom 2049 677 5 0 0 0 - - -;
#X floatatom 2033 744 5 0 0 0 send_T5B - send_T5B;
#X floatatom 664 601 5 0 0 0 receive_T1≠T1 T1≠T1 -;
#X obj 657 654 f;
#X obj 634 633 bng 15 250 50 0 empty empty write -35 7 0 10 -262144
-1 -1;
#X obj 640 723 f;
#X obj 639 701 bng 15 250 50 0 empty empty send -30 7 0 10 -262144
-1 -1;
#X floatatom 658 682 5 0 0 0 - - -;
#X floatatom 641 750 5 0 0 0 send_T1≠T1 - sendT1≠T1;
#X floatatom 504 601 5 0 0 0 receive_IT1≠T1 IT1≠T1 -;
#X obj 497 654 f;
#X obj 474 633 bng 15 250 50 0 empty empty write -35 7 0 10 -262144
-1 -1;
#X obj 480 723 f;
#X obj 479 701 bng 15 250 50 0 empty empty send -30 7 0 10 -262144
-1 -1;
#X floatatom 498 682 5 0 0 0 - - -;
#X floatatom 481 750 5 0 0 0 sendIT1≠T1 - sendIT1≠T1;
#X floatatom 334 601 5 0 0 0 receive_ITB%ITB ITB%ITB -;
#X obj 327 654 f;
#X obj 304 633 bng 15 250 50 0 empty empty write -35 7 0 10 -262144
-1 -1;
#X obj 310 723 f;
#X obj 309 701 bng 15 250 50 0 empty empty send -30 7 0 10 -262144
-1 -1;
#X floatatom 328 682 5 0 0 0 - - -;
#X floatatom 311 750 5 0 0 0 sendITB%ITB - sendITB%ITB;
#X connect 0 0 1 0;
#X connect 1 0 169 0;
#X connect 1 1 337 0;
#X connect 1 2 505 0;
#X connect 1 3 673 0;
#X connect 2 0 3 0;
#X connect 3 0 171 0;
#X connect 3 1 339 0;
#X connect 3 2 507 0;
#X connect 3 3 675 0;
#X connect 4 0 5 1;
#X connect 5 0 9 0;
#X connect 6 0 5 0;
#X connect 6 0 13 0;
#X connect 7 0 10 0;
#X connect 8 0 7 0;
#X connect 8 0 15 0;
#X connect 9 0 7 1;
#X connect 11 0 12 1;
#X connect 12 0 16 0;
#X connect 13 0 12 0;
#X connect 13 0 20 0;
#X connect 14 0 17 0;
#X connect 15 0 14 0;
#X connect 15 0 22 0;
#X connect 16 0 14 1;
#X connect 18 0 19 1;
#X connect 19 0 23 0;
#X connect 20 0 19 0;
#X connect 20 0 27 0;
#X connect 21 0 24 0;
#X connect 22 0 21 0;
#X connect 22 0 29 0;
#X connect 23 0 21 1;
#X connect 25 0 26 1;
#X connect 26 0 30 0;
#X connect 27 0 26 0;
#X connect 27 0 34 0;
#X connect 28 0 31 0;
#X connect 29 0 28 0;
#X connect 29 0 36 0;
#X connect 30 0 28 1;
#X connect 32 0 33 1;
#X connect 33 0 37 0;
#X connect 34 0 33 0;
#X connect 34 0 141 0;
#X connect 35 0 38 0;
#X connect 36 0 35 0;
#X connect 36 0 143 0;
#X connect 37 0 35 1;
#X connect 39 0 40 1;
#X connect 40 0 44 0;
#X connect 41 0 40 0;
#X connect 41 0 48 0;
#X connect 42 0 45 0;
#X connect 43 0 42 0;
#X connect 43 0 50 0;
#X connect 44 0 42 1;
#X connect 46 0 47 1;
#X connect 47 0 51 0;
#X connect 48 0 47 0;
#X connect 48 0 55 0;
#X connect 49 0 52 0;
#X connect 50 0 49 0;
#X connect 50 0 57 0;
#X connect 51 0 49 1;
#X connect 53 0 54 1;
#X connect 54 0 58 0;
#X connect 55 0 54 0;
#X connect 55 0 62 0;
#X connect 56 0 59 0;
#X connect 57 0 56 0;
#X connect 57 0 64 0;
#X connect 58 0 56 1;
#X connect 60 0 61 1;
#X connect 61 0 65 0;
#X connect 62 0 61 0;
#X connect 62 0 69 0;
#X connect 63 0 66 0;
#X connect 64 0 63 0;
#X connect 64 0 71 0;
#X connect 65 0 63 1;
#X connect 67 0 68 1;
#X connect 68 0 72 0;
#X connect 69 0 68 0;
#X connect 69 0 76 0;
#X connect 70 0 73 0;
#X connect 71 0 70 0;
#X connect 71 0 78 0;
#X connect 72 0 70 1;
#X connect 74 0 75 1;
#X connect 75 0 79 0;
#X connect 76 0 75 0;
#X connect 76 0 83 0;
#X connect 77 0 80 0;
#X connect 78 0 77 0;
#X connect 78 0 85 0;
#X connect 79 0 77 1;
#X connect 81 0 82 1;
#X connect 82 0 86 0;
#X connect 83 0 82 0;
#X connect 83 0 90 0;
#X connect 84 0 87 0;
#X connect 85 0 84 0;
#X connect 85 0 92 0;
#X connect 86 0 84 1;
#X connect 88 0 89 1;
#X connect 89 0 93 0;
#X connect 90 0 89 0;
#X connect 90 0 97 0;
#X connect 91 0 94 0;
#X connect 92 0 91 0;
#X connect 92 0 99 0;
#X connect 93 0 91 1;
#X connect 95 0 96 1;
#X connect 96 0 100 0;
#X connect 97 0 96 0;
#X connect 97 0 104 0;
#X connect 98 0 101 0;
#X connect 99 0 98 0;
#X connect 99 0 106 0;
#X connect 100 0 98 1;
#X connect 102 0 103 1;
#X connect 103 0 107 0;
#X connect 104 0 103 0;
#X connect 104 0 111 0;
#X connect 105 0 108 0;
#X connect 106 0 105 0;
#X connect 106 0 113 0;
#X connect 107 0 105 1;
#X connect 109 0 110 1;
#X connect 110 0 114 0;
#X connect 111 0 110 0;
#X connect 112 0 115 0;
#X connect 113 0 112 0;
#X connect 114 0 112 1;
#X connect 116 0 117 1;
#X connect 117 0 121 0;
#X connect 118 0 117 0;
#X connect 118 0 125 0;
#X connect 119 0 122 0;
#X connect 120 0 119 0;
#X connect 120 0 127 0;
#X connect 121 0 119 1;
#X connect 123 0 124 1;
#X connect 124 0 128 0;
#X connect 125 0 124 0;
#X connect 125 0 132 0;
#X connect 126 0 129 0;
#X connect 127 0 126 0;
#X connect 127 0 134 0;
#X connect 128 0 126 1;
#X connect 130 0 131 1;
#X connect 131 0 135 0;
#X connect 132 0 131 0;
#X connect 132 0 6 0;
#X connect 133 0 136 0;
#X connect 134 0 133 0;
#X connect 134 0 8 0;
#X connect 135 0 133 1;
#X connect 137 0 0 0;
#X connect 138 0 2 0;
#X connect 139 0 140 1;
#X connect 140 0 144 0;
#X connect 141 0 140 0;
#X connect 141 0 148 0;
#X connect 142 0 145 0;
#X connect 143 0 142 0;
#X connect 143 0 150 0;
#X connect 144 0 142 1;
#X connect 146 0 147 1;
#X connect 147 0 151 0;
#X connect 148 0 147 0;
#X connect 148 0 41 0;
#X connect 149 0 152 0;
#X connect 150 0 149 0;
#X connect 150 0 43 0;
#X connect 151 0 149 1;
#X connect 153 0 154 1;
#X connect 154 0 158 0;
#X connect 155 0 154 0;
#X connect 155 0 118 0;
#X connect 156 0 159 0;
#X connect 157 0 156 0;
#X connect 157 0 120 0;
#X connect 158 0 156 1;
#X connect 160 0 161 1;
#X connect 161 0 165 0;
#X connect 162 0 161 0;
#X connect 162 0 155 0;
#X connect 163 0 166 0;
#X connect 164 0 163 0;
#X connect 164 0 157 0;
#X connect 165 0 163 1;
#X connect 167 0 168 1;
#X connect 168 0 172 0;
#X connect 169 0 168 0;
#X connect 169 0 162 0;
#X connect 170 0 173 0;
#X connect 171 0 170 0;
#X connect 171 0 164 0;
#X connect 172 0 170 1;
#X connect 174 0 175 1;
#X connect 175 0 179 0;
#X connect 176 0 175 0;
#X connect 176 0 183 0;
#X connect 177 0 180 0;
#X connect 178 0 177 0;
#X connect 178 0 185 0;
#X connect 179 0 177 1;
#X connect 181 0 182 1;
#X connect 182 0 186 0;
#X connect 183 0 182 0;
#X connect 183 0 190 0;
#X connect 184 0 187 0;
#X connect 185 0 184 0;
#X connect 185 0 192 0;
#X connect 186 0 184 1;
#X connect 188 0 189 1;
#X connect 189 0 193 0;
#X connect 190 0 189 0;
#X connect 190 0 197 0;
#X connect 191 0 194 0;
#X connect 192 0 191 0;
#X connect 192 0 199 0;
#X connect 193 0 191 1;
#X connect 195 0 196 1;
#X connect 196 0 200 0;
#X connect 197 0 196 0;
#X connect 197 0 204 0;
#X connect 198 0 201 0;
#X connect 199 0 198 0;
#X connect 199 0 206 0;
#X connect 200 0 198 1;
#X connect 202 0 203 1;
#X connect 203 0 207 0;
#X connect 204 0 203 0;
#X connect 204 0 309 0;
#X connect 205 0 208 0;
#X connect 206 0 205 0;
#X connect 206 0 311 0;
#X connect 207 0 205 1;
#X connect 209 0 210 1;
#X connect 210 0 214 0;
#X connect 211 0 210 0;
#X connect 211 0 218 0;
#X connect 212 0 215 0;
#X connect 213 0 212 0;
#X connect 213 0 220 0;
#X connect 214 0 212 1;
#X connect 216 0 217 1;
#X connect 217 0 221 0;
#X connect 218 0 217 0;
#X connect 218 0 225 0;
#X connect 219 0 222 0;
#X connect 220 0 219 0;
#X connect 220 0 227 0;
#X connect 221 0 219 1;
#X connect 223 0 224 1;
#X connect 224 0 228 0;
#X connect 225 0 224 0;
#X connect 225 0 232 0;
#X connect 226 0 229 0;
#X connect 227 0 226 0;
#X connect 227 0 234 0;
#X connect 228 0 226 1;
#X connect 230 0 231 1;
#X connect 231 0 235 0;
#X connect 232 0 231 0;
#X connect 232 0 239 0;
#X connect 233 0 236 0;
#X connect 234 0 233 0;
#X connect 234 0 241 0;
#X connect 235 0 233 1;
#X connect 237 0 238 1;
#X connect 238 0 242 0;
#X connect 239 0 238 0;
#X connect 239 0 246 0;
#X connect 240 0 243 0;
#X connect 241 0 240 0;
#X connect 241 0 248 0;
#X connect 242 0 240 1;
#X connect 244 0 245 1;
#X connect 245 0 249 0;
#X connect 246 0 245 0;
#X connect 246 0 253 0;
#X connect 247 0 250 0;
#X connect 248 0 247 0;
#X connect 248 0 255 0;
#X connect 249 0 247 1;
#X connect 251 0 252 1;
#X connect 252 0 256 0;
#X connect 253 0 252 0;
#X connect 253 0 260 0;
#X connect 254 0 257 0;
#X connect 255 0 254 0;
#X connect 255 0 262 0;
#X connect 256 0 254 1;
#X connect 258 0 259 1;
#X connect 259 0 263 0;
#X connect 260 0 259 0;
#X connect 260 0 267 0;
#X connect 261 0 264 0;
#X connect 262 0 261 0;
#X connect 262 0 269 0;
#X connect 263 0 261 1;
#X connect 265 0 266 1;
#X connect 266 0 270 0;
#X connect 267 0 266 0;
#X connect 267 0 274 0;
#X connect 268 0 271 0;
#X connect 269 0 268 0;
#X connect 269 0 276 0;
#X connect 270 0 268 1;
#X connect 272 0 273 1;
#X connect 273 0 277 0;
#X connect 274 0 273 0;
#X connect 274 0 281 0;
#X connect 275 0 278 0;
#X connect 276 0 275 0;
#X connect 276 0 283 0;
#X connect 277 0 275 1;
#X connect 279 0 280 1;
#X connect 280 0 284 0;
#X connect 281 0 280 0;
#X connect 282 0 285 0;
#X connect 283 0 282 0;
#X connect 284 0 282 1;
#X connect 286 0 287 1;
#X connect 287 0 291 0;
#X connect 288 0 287 0;
#X connect 288 0 295 0;
#X connect 289 0 292 0;
#X connect 290 0 289 0;
#X connect 290 0 297 0;
#X connect 291 0 289 1;
#X connect 293 0 294 1;
#X connect 294 0 298 0;
#X connect 295 0 294 0;
#X connect 295 0 302 0;
#X connect 296 0 299 0;
#X connect 297 0 296 0;
#X connect 297 0 304 0;
#X connect 298 0 296 1;
#X connect 300 0 301 1;
#X connect 301 0 305 0;
#X connect 302 0 301 0;
#X connect 302 0 176 0;
#X connect 303 0 306 0;
#X connect 304 0 303 0;
#X connect 304 0 178 0;
#X connect 305 0 303 1;
#X connect 307 0 308 1;
#X connect 308 0 312 0;
#X connect 309 0 308 0;
#X connect 309 0 316 0;
#X connect 310 0 313 0;
#X connect 311 0 310 0;
#X connect 311 0 318 0;
#X connect 312 0 310 1;
#X connect 314 0 315 1;
#X connect 315 0 319 0;
#X connect 316 0 315 0;
#X connect 316 0 211 0;
#X connect 317 0 320 0;
#X connect 318 0 317 0;
#X connect 318 0 213 0;
#X connect 319 0 317 1;
#X connect 321 0 322 1;
#X connect 322 0 326 0;
#X connect 323 0 322 0;
#X connect 323 0 288 0;
#X connect 324 0 327 0;
#X connect 325 0 324 0;
#X connect 325 0 290 0;
#X connect 326 0 324 1;
#X connect 328 0 329 1;
#X connect 329 0 333 0;
#X connect 330 0 329 0;
#X connect 330 0 323 0;
#X connect 331 0 334 0;
#X connect 332 0 331 0;
#X connect 332 0 325 0;
#X connect 333 0 331 1;
#X connect 335 0 336 1;
#X connect 336 0 340 0;
#X connect 337 0 336 0;
#X connect 337 0 330 0;
#X connect 338 0 341 0;
#X connect 339 0 338 0;
#X connect 339 0 332 0;
#X connect 340 0 338 1;
#X connect 342 0 343 1;
#X connect 343 0 347 0;
#X connect 344 0 343 0;
#X connect 344 0 351 0;
#X connect 345 0 348 0;
#X connect 346 0 345 0;
#X connect 346 0 353 0;
#X connect 347 0 345 1;
#X connect 349 0 350 1;
#X connect 350 0 354 0;
#X connect 351 0 350 0;
#X connect 351 0 358 0;
#X connect 352 0 355 0;
#X connect 353 0 352 0;
#X connect 353 0 360 0;
#X connect 354 0 352 1;
#X connect 356 0 357 1;
#X connect 357 0 361 0;
#X connect 358 0 357 0;
#X connect 358 0 365 0;
#X connect 359 0 362 0;
#X connect 360 0 359 0;
#X connect 360 0 367 0;
#X connect 361 0 359 1;
#X connect 363 0 364 1;
#X connect 364 0 368 0;
#X connect 365 0 364 0;
#X connect 365 0 372 0;
#X connect 366 0 369 0;
#X connect 367 0 366 0;
#X connect 367 0 374 0;
#X connect 368 0 366 1;
#X connect 370 0 371 1;
#X connect 371 0 375 0;
#X connect 372 0 371 0;
#X connect 372 0 477 0;
#X connect 373 0 376 0;
#X connect 374 0 373 0;
#X connect 374 0 479 0;
#X connect 375 0 373 1;
#X connect 377 0 378 1;
#X connect 378 0 382 0;
#X connect 379 0 378 0;
#X connect 379 0 386 0;
#X connect 380 0 383 0;
#X connect 381 0 380 0;
#X connect 381 0 388 0;
#X connect 382 0 380 1;
#X connect 384 0 385 1;
#X connect 385 0 389 0;
#X connect 386 0 385 0;
#X connect 386 0 393 0;
#X connect 387 0 390 0;
#X connect 388 0 387 0;
#X connect 388 0 395 0;
#X connect 389 0 387 1;
#X connect 391 0 392 1;
#X connect 392 0 396 0;
#X connect 393 0 392 0;
#X connect 393 0 400 0;
#X connect 394 0 397 0;
#X connect 395 0 394 0;
#X connect 395 0 402 0;
#X connect 396 0 394 1;
#X connect 398 0 399 1;
#X connect 399 0 403 0;
#X connect 400 0 399 0;
#X connect 400 0 407 0;
#X connect 401 0 404 0;
#X connect 402 0 401 0;
#X connect 402 0 409 0;
#X connect 403 0 401 1;
#X connect 405 0 406 1;
#X connect 406 0 410 0;
#X connect 407 0 406 0;
#X connect 407 0 414 0;
#X connect 408 0 411 0;
#X connect 409 0 408 0;
#X connect 409 0 416 0;
#X connect 410 0 408 1;
#X connect 412 0 413 1;
#X connect 413 0 417 0;
#X connect 414 0 413 0;
#X connect 414 0 421 0;
#X connect 415 0 418 0;
#X connect 416 0 415 0;
#X connect 416 0 423 0;
#X connect 417 0 415 1;
#X connect 419 0 420 1;
#X connect 420 0 424 0;
#X connect 421 0 420 0;
#X connect 421 0 428 0;
#X connect 422 0 425 0;
#X connect 423 0 422 0;
#X connect 423 0 430 0;
#X connect 424 0 422 1;
#X connect 426 0 427 1;
#X connect 427 0 431 0;
#X connect 428 0 427 0;
#X connect 428 0 435 0;
#X connect 429 0 432 0;
#X connect 430 0 429 0;
#X connect 430 0 437 0;
#X connect 431 0 429 1;
#X connect 433 0 434 1;
#X connect 434 0 438 0;
#X connect 435 0 434 0;
#X connect 435 0 442 0;
#X connect 436 0 439 0;
#X connect 437 0 436 0;
#X connect 437 0 444 0;
#X connect 438 0 436 1;
#X connect 440 0 441 1;
#X connect 441 0 445 0;
#X connect 442 0 441 0;
#X connect 442 0 449 0;
#X connect 443 0 446 0;
#X connect 444 0 443 0;
#X connect 444 0 451 0;
#X connect 445 0 443 1;
#X connect 447 0 448 1;
#X connect 448 0 452 0;
#X connect 449 0 448 0;
#X connect 450 0 453 0;
#X connect 451 0 450 0;
#X connect 452 0 450 1;
#X connect 454 0 455 1;
#X connect 455 0 459 0;
#X connect 456 0 455 0;
#X connect 456 0 463 0;
#X connect 457 0 460 0;
#X connect 458 0 457 0;
#X connect 458 0 465 0;
#X connect 459 0 457 1;
#X connect 461 0 462 1;
#X connect 462 0 466 0;
#X connect 463 0 462 0;
#X connect 463 0 470 0;
#X connect 464 0 467 0;
#X connect 465 0 464 0;
#X connect 465 0 472 0;
#X connect 466 0 464 1;
#X connect 468 0 469 1;
#X connect 469 0 473 0;
#X connect 470 0 469 0;
#X connect 470 0 344 0;
#X connect 471 0 474 0;
#X connect 472 0 471 0;
#X connect 472 0 346 0;
#X connect 473 0 471 1;
#X connect 475 0 476 1;
#X connect 476 0 480 0;
#X connect 477 0 476 0;
#X connect 477 0 484 0;
#X connect 478 0 481 0;
#X connect 479 0 478 0;
#X connect 479 0 486 0;
#X connect 480 0 478 1;
#X connect 482 0 483 1;
#X connect 483 0 487 0;
#X connect 484 0 483 0;
#X connect 484 0 379 0;
#X connect 485 0 488 0;
#X connect 486 0 485 0;
#X connect 486 0 381 0;
#X connect 487 0 485 1;
#X connect 489 0 490 1;
#X connect 490 0 494 0;
#X connect 491 0 490 0;
#X connect 491 0 456 0;
#X connect 492 0 495 0;
#X connect 493 0 492 0;
#X connect 493 0 458 0;
#X connect 494 0 492 1;
#X connect 496 0 497 1;
#X connect 497 0 501 0;
#X connect 498 0 497 0;
#X connect 498 0 491 0;
#X connect 499 0 502 0;
#X connect 500 0 499 0;
#X connect 500 0 493 0;
#X connect 501 0 499 1;
#X connect 503 0 504 1;
#X connect 504 0 508 0;
#X connect 505 0 504 0;
#X connect 505 0 498 0;
#X connect 506 0 509 0;
#X connect 507 0 506 0;
#X connect 507 0 500 0;
#X connect 508 0 506 1;
#X connect 510 0 511 1;
#X connect 511 0 515 0;
#X connect 512 0 511 0;
#X connect 512 0 519 0;
#X connect 513 0 516 0;
#X connect 514 0 513 0;
#X connect 514 0 521 0;
#X connect 515 0 513 1;
#X connect 517 0 518 1;
#X connect 518 0 522 0;
#X connect 519 0 518 0;
#X connect 519 0 526 0;
#X connect 520 0 523 0;
#X connect 521 0 520 0;
#X connect 521 0 528 0;
#X connect 522 0 520 1;
#X connect 524 0 525 1;
#X connect 525 0 529 0;
#X connect 526 0 525 0;
#X connect 526 0 533 0;
#X connect 527 0 530 0;
#X connect 528 0 527 0;
#X connect 528 0 535 0;
#X connect 529 0 527 1;
#X connect 531 0 532 1;
#X connect 532 0 536 0;
#X connect 533 0 532 0;
#X connect 533 0 540 0;
#X connect 534 0 537 0;
#X connect 535 0 534 0;
#X connect 535 0 542 0;
#X connect 536 0 534 1;
#X connect 538 0 539 1;
#X connect 539 0 543 0;
#X connect 540 0 539 0;
#X connect 540 0 645 0;
#X connect 541 0 544 0;
#X connect 542 0 541 0;
#X connect 542 0 647 0;
#X connect 543 0 541 1;
#X connect 545 0 546 1;
#X connect 546 0 550 0;
#X connect 547 0 546 0;
#X connect 547 0 554 0;
#X connect 548 0 551 0;
#X connect 549 0 548 0;
#X connect 549 0 556 0;
#X connect 550 0 548 1;
#X connect 552 0 553 1;
#X connect 553 0 557 0;
#X connect 554 0 553 0;
#X connect 554 0 561 0;
#X connect 555 0 558 0;
#X connect 556 0 555 0;
#X connect 556 0 563 0;
#X connect 557 0 555 1;
#X connect 559 0 560 1;
#X connect 560 0 564 0;
#X connect 561 0 560 0;
#X connect 561 0 568 0;
#X connect 562 0 565 0;
#X connect 563 0 562 0;
#X connect 563 0 570 0;
#X connect 564 0 562 1;
#X connect 566 0 567 1;
#X connect 567 0 571 0;
#X connect 568 0 567 0;
#X connect 568 0 575 0;
#X connect 569 0 572 0;
#X connect 570 0 569 0;
#X connect 570 0 577 0;
#X connect 571 0 569 1;
#X connect 573 0 574 1;
#X connect 574 0 578 0;
#X connect 575 0 574 0;
#X connect 575 0 582 0;
#X connect 576 0 579 0;
#X connect 577 0 576 0;
#X connect 577 0 584 0;
#X connect 578 0 576 1;
#X connect 580 0 581 1;
#X connect 581 0 585 0;
#X connect 582 0 581 0;
#X connect 582 0 589 0;
#X connect 583 0 586 0;
#X connect 584 0 583 0;
#X connect 584 0 591 0;
#X connect 585 0 583 1;
#X connect 587 0 588 1;
#X connect 588 0 592 0;
#X connect 589 0 588 0;
#X connect 589 0 596 0;
#X connect 590 0 593 0;
#X connect 591 0 590 0;
#X connect 591 0 598 0;
#X connect 592 0 590 1;
#X connect 594 0 595 1;
#X connect 595 0 599 0;
#X connect 596 0 595 0;
#X connect 596 0 603 0;
#X connect 597 0 600 0;
#X connect 598 0 597 0;
#X connect 598 0 605 0;
#X connect 599 0 597 1;
#X connect 601 0 602 1;
#X connect 602 0 606 0;
#X connect 603 0 602 0;
#X connect 603 0 610 0;
#X connect 604 0 607 0;
#X connect 605 0 604 0;
#X connect 605 0 612 0;
#X connect 606 0 604 1;
#X connect 608 0 609 1;
#X connect 609 0 613 0;
#X connect 610 0 609 0;
#X connect 610 0 617 0;
#X connect 611 0 614 0;
#X connect 612 0 611 0;
#X connect 612 0 619 0;
#X connect 613 0 611 1;
#X connect 615 0 616 1;
#X connect 616 0 620 0;
#X connect 617 0 616 0;
#X connect 618 0 621 0;
#X connect 619 0 618 0;
#X connect 620 0 618 1;
#X connect 622 0 623 1;
#X connect 623 0 627 0;
#X connect 624 0 623 0;
#X connect 624 0 631 0;
#X connect 625 0 628 0;
#X connect 626 0 625 0;
#X connect 626 0 633 0;
#X connect 627 0 625 1;
#X connect 629 0 630 1;
#X connect 630 0 634 0;
#X connect 631 0 630 0;
#X connect 631 0 638 0;
#X connect 632 0 635 0;
#X connect 633 0 632 0;
#X connect 633 0 640 0;
#X connect 634 0 632 1;
#X connect 636 0 637 1;
#X connect 637 0 641 0;
#X connect 638 0 637 0;
#X connect 638 0 512 0;
#X connect 639 0 642 0;
#X connect 640 0 639 0;
#X connect 640 0 514 0;
#X connect 641 0 639 1;
#X connect 643 0 644 1;
#X connect 644 0 648 0;
#X connect 645 0 644 0;
#X connect 645 0 652 0;
#X connect 646 0 649 0;
#X connect 647 0 646 0;
#X connect 647 0 654 0;
#X connect 648 0 646 1;
#X connect 650 0 651 1;
#X connect 651 0 655 0;
#X connect 652 0 651 0;
#X connect 652 0 547 0;
#X connect 653 0 656 0;
#X connect 654 0 653 0;
#X connect 654 0 549 0;
#X connect 655 0 653 1;
#X connect 657 0 658 1;
#X connect 658 0 662 0;
#X connect 659 0 658 0;
#X connect 659 0 624 0;
#X connect 660 0 663 0;
#X connect 661 0 660 0;
#X connect 661 0 626 0;
#X connect 662 0 660 1;
#X connect 664 0 665 1;
#X connect 665 0 669 0;
#X connect 666 0 665 0;
#X connect 666 0 659 0;
#X connect 667 0 670 0;
#X connect 668 0 667 0;
#X connect 668 0 661 0;
#X connect 669 0 667 1;
#X connect 671 0 672 1;
#X connect 672 0 676 0;
#X connect 673 0 672 0;
#X connect 673 0 666 0;
#X connect 674 0 677 0;
#X connect 675 0 674 0;
#X connect 675 0 668 0;
#X connect 676 0 674 1;
#X coords 0 -1 1 1 150 22 2 100 100;
