#N canvas 1816 124 1280 867 10;
#X obj 216 75 sel 0 1 2;
#X obj 216 145 sel 0 1 2;
#X obj 108 62 inlet;
#X obj 158 62 inlet;
#X floatatom 543 27 5 0 0 0 receive_it1B it1B -;
#X obj 537 79 f;
#X obj 514 58 bng 15 250 50 0 empty empty write -35 7 0 10 -262144
-1 -1;
#X obj 520 148 f;
#X obj 519 126 bng 15 250 50 0 empty empty send -30 7 0 10 -262144
-1 -1;
#X floatatom 538 107 5 0 0 0 - - -;
#X floatatom 522 174 5 0 0 0 send_it1B - send_it1B;
#X floatatom 683 27 5 0 0 0 receive_it2B it2B -;
#X obj 677 79 f;
#X obj 654 58 bng 15 250 50 0 empty empty write -35 7 0 10 -262144
-1 -1;
#X obj 660 148 f;
#X obj 659 126 bng 15 250 50 0 empty empty send -30 7 0 10 -262144
-1 -1;
#X floatatom 678 107 5 0 0 0 - - -;
#X floatatom 662 174 5 0 0 0 send_it2B - send_it2B;
#X floatatom 823 27 5 0 0 0 receive_it3B it3B -;
#X obj 817 79 f;
#X obj 794 58 bng 15 250 50 0 empty empty write -35 7 0 10 -262144
-1 -1;
#X obj 800 148 f;
#X obj 799 126 bng 15 250 50 0 empty empty send -30 7 0 10 -262144
-1 -1;
#X floatatom 818 107 5 0 0 0 - - -;
#X floatatom 802 174 5 0 0 0 send_it3B - send_it3B;
#X floatatom 373 27 5 0 0 0 receive_stepitB stepitB -;
#X obj 367 79 f;
#X obj 344 58 bng 15 250 50 0 empty empty write -35 7 0 10 -262144
-1 -1;
#X obj 350 148 f;
#X obj 349 126 bng 15 250 50 0 empty empty send -30 7 0 10 -262144
-1 -1;
#X floatatom 367 107 5 0 0 0 - - -;
#X floatatom 352 174 5 0 0 0 send_stepitB - send_stepitB;
#X floatatom 963 27 5 0 0 0 receive_it4B it4B -;
#X obj 957 79 f;
#X obj 934 58 bng 15 250 50 0 empty empty write -35 7 0 10 -262144
-1 -1;
#X obj 940 148 f;
#X obj 939 126 bng 15 250 50 0 empty empty send -30 7 0 10 -262144
-1 -1;
#X floatatom 958 107 5 0 0 0 - - -;
#X floatatom 942 174 5 0 0 0 send_it4B - send_it4B;
#X floatatom 1093 27 5 0 0 0 receive_it5B it5B -;
#X obj 1087 79 f;
#X obj 1064 58 bng 15 250 50 0 empty empty write -35 7 0 10 -262144
-1 -1;
#X obj 1070 148 f;
#X obj 1069 126 bng 15 250 50 0 empty empty send -30 7 0 10 -262144
-1 -1;
#X floatatom 1088 107 5 0 0 0 - - -;
#X floatatom 1072 174 5 0 0 0 send_it5B - send_it5B;
#X floatatom 1233 27 5 0 0 0 receive_it6B it6B -;
#X obj 1227 79 f;
#X obj 1204 58 bng 15 250 50 0 empty empty write -35 7 0 10 -262144
-1 -1;
#X obj 1210 148 f;
#X obj 1209 126 bng 15 250 50 0 empty empty send -30 7 0 10 -262144
-1 -1;
#X floatatom 1228 107 5 0 0 0 - - -;
#X floatatom 1212 174 5 0 0 0 send_it6B - send_it6B;
#X floatatom 1373 27 5 0 0 0 receive_it7B it7B -;
#X obj 1367 79 f;
#X obj 1344 58 bng 15 250 50 0 empty empty write -35 7 0 10 -262144
-1 -1;
#X obj 1350 148 f;
#X obj 1349 126 bng 15 250 50 0 empty empty send -30 7 0 10 -262144
-1 -1;
#X floatatom 1368 107 5 0 0 0 - - -;
#X floatatom 1352 174 5 0 0 0 send_it7B - send_it7B;
#X floatatom 1513 27 5 0 0 0 receive_it8B it8B -;
#X obj 1507 79 f;
#X obj 1484 58 bng 15 250 50 0 empty empty write -35 7 0 10 -262144
-1 -1;
#X obj 1490 148 f;
#X obj 1489 126 bng 15 250 50 0 empty empty send -30 7 0 10 -262144
-1 -1;
#X floatatom 1508 107 5 0 0 0 - - -;
#X floatatom 1492 174 5 0 0 0 send_it8B - send_it8B;
#X floatatom 1663 29 5 0 0 0 receive_it9B it9B -;
#X obj 1657 81 f;
#X obj 1634 60 bng 15 250 50 0 empty empty write -35 7 0 10 -262144
-1 -1;
#X obj 1640 150 f;
#X obj 1639 128 bng 15 250 50 0 empty empty send -30 7 0 10 -262144
-1 -1;
#X floatatom 1658 109 5 0 0 0 - - -;
#X floatatom 1642 176 5 0 0 0 send_it9B - send_it9B;
#X floatatom 1803 29 5 0 0 0 receive_it10B it10B -;
#X obj 1797 81 f;
#X obj 1774 60 bng 15 250 50 0 empty empty write -35 7 0 10 -262144
-1 -1;
#X obj 1780 150 f;
#X obj 1779 128 bng 15 250 50 0 empty empty send -30 7 0 10 -262144
-1 -1;
#X floatatom 1798 109 5 0 0 0 - - -;
#X floatatom 1782 176 5 0 0 0 send_it10B - send_it10B;
#X floatatom 1943 29 5 0 0 0 receive_it11B it11B -;
#X obj 1937 81 f;
#X obj 1914 60 bng 15 250 50 0 empty empty write -35 7 0 10 -262144
-1 -1;
#X obj 1920 150 f;
#X obj 1919 128 bng 15 250 50 0 empty empty send -30 7 0 10 -262144
-1 -1;
#X floatatom 1938 109 5 0 0 0 - - -;
#X floatatom 1922 176 5 0 0 0 send_it11B - send_it11B;
#X floatatom 2083 29 5 0 0 0 receive_it12B it12B -;
#X obj 2077 81 f;
#X obj 2054 60 bng 15 250 50 0 empty empty write -35 7 0 10 -262144
-1 -1;
#X obj 2060 150 f;
#X obj 2059 128 bng 15 250 50 0 empty empty send -30 7 0 10 -262144
-1 -1;
#X floatatom 2078 109 5 0 0 0 - - -;
#X floatatom 2062 176 5 0 0 0 send_it12B - send_it12B;
#X floatatom 2243 29 5 0 0 0 receive_it13B it13B -;
#X obj 2217 81 f;
#X obj 2194 60 bng 15 250 50 0 empty empty write -35 7 0 10 -262144
-1 -1;
#X obj 2200 150 f;
#X obj 2199 128 bng 15 250 50 0 empty empty send -30 7 0 10 -262144
-1 -1;
#X floatatom 2218 109 5 0 0 0 - - -;
#X floatatom 2202 176 5 0 0 0 send_it13B - send_it13B;
#X floatatom 2383 29 5 0 0 0 receive_it14B it14B -;
#X obj 2377 81 f;
#X obj 2354 60 bng 15 250 50 0 empty empty write -35 7 0 10 -262144
-1 -1;
#X obj 2360 150 f;
#X obj 2359 128 bng 15 250 50 0 empty empty send -30 7 0 10 -262144
-1 -1;
#X floatatom 2378 109 5 0 0 0 - - -;
#X floatatom 2362 176 5 0 0 0 send_it14B - send_it14B;
#X floatatom 2523 29 5 0 0 0 receive_it15B it15B -;
#X obj 2517 81 f;
#X obj 2494 60 bng 15 250 50 0 empty empty write -35 7 0 10 -262144
-1 -1;
#X obj 2500 150 f;
#X obj 2499 128 bng 15 250 50 0 empty empty send -30 7 0 10 -262144
-1 -1;
#X floatatom 2518 109 5 0 0 0 - - -;
#X floatatom 2502 176 5 0 0 0 send_it15B - send_it15B;
#X floatatom 2663 29 5 0 0 0 receive_it16B it16B -;
#X obj 2657 81 f;
#X obj 2634 60 bng 15 250 50 0 empty empty write -35 7 0 10 -262144
-1 -1;
#X obj 2640 150 f;
#X obj 2639 128 bng 15 250 50 0 empty empty send -30 7 0 10 -262144
-1 -1;
#X floatatom 2658 109 5 0 0 0 - - -;
#X floatatom 2642 176 5 0 0 0 send_it16B - send_it16B;
#X floatatom 543 207 5 0 0 0 receive_it1B it1B -;
#X obj 537 259 f;
#X obj 514 238 bng 15 250 50 0 empty empty write -35 7 0 10 -262144
-1 -1;
#X obj 520 328 f;
#X obj 519 306 bng 15 250 50 0 empty empty send -30 7 0 10 -262144
-1 -1;
#X floatatom 538 287 5 0 0 0 - - -;
#X floatatom 522 354 5 0 0 0 send_it1B - send_it1B;
#X floatatom 683 207 5 0 0 0 receive_it2B it2B -;
#X obj 677 259 f;
#X obj 654 238 bng 15 250 50 0 empty empty write -35 7 0 10 -262144
-1 -1;
#X obj 660 328 f;
#X obj 659 306 bng 15 250 50 0 empty empty send -30 7 0 10 -262144
-1 -1;
#X floatatom 678 287 5 0 0 0 - - -;
#X floatatom 662 354 5 0 0 0 send_it2B - send_it2B;
#X floatatom 823 207 5 0 0 0 receive_it3B it3B -;
#X obj 817 259 f;
#X obj 794 238 bng 15 250 50 0 empty empty write -35 7 0 10 -262144
-1 -1;
#X obj 800 328 f;
#X obj 799 306 bng 15 250 50 0 empty empty send -30 7 0 10 -262144
-1 -1;
#X floatatom 818 287 5 0 0 0 - - -;
#X floatatom 802 354 5 0 0 0 send_it3B - send_it3B;
#X floatatom 373 207 5 0 0 0 receive_stepitB stepitB -;
#X obj 367 259 f;
#X obj 344 238 bng 15 250 50 0 empty empty write -35 7 0 10 -262144
-1 -1;
#X obj 350 328 f;
#X obj 349 306 bng 15 250 50 0 empty empty send -30 7 0 10 -262144
-1 -1;
#X floatatom 368 287 5 0 0 0 - - -;
#X floatatom 352 354 5 0 0 0 send_stepitB - send_stepitB;
#X floatatom 963 207 5 0 0 0 receive_it4B it4B -;
#X obj 957 259 f;
#X obj 934 238 bng 15 250 50 0 empty empty write -35 7 0 10 -262144
-1 -1;
#X obj 940 328 f;
#X obj 939 306 bng 15 250 50 0 empty empty send -30 7 0 10 -262144
-1 -1;
#X floatatom 958 287 5 0 0 0 - - -;
#X floatatom 942 354 5 0 0 0 send_it4B - send_it4B;
#X floatatom 1093 207 5 0 0 0 receive_it5B it5B -;
#X obj 1087 259 f;
#X obj 1064 238 bng 15 250 50 0 empty empty write -35 7 0 10 -262144
-1 -1;
#X obj 1070 328 f;
#X obj 1069 306 bng 15 250 50 0 empty empty send -30 7 0 10 -262144
-1 -1;
#X floatatom 1088 287 5 0 0 0 - - -;
#X floatatom 1072 354 5 0 0 0 send_it5B - send_it5B;
#X floatatom 1233 207 5 0 0 0 receive_it6B it6B -;
#X obj 1227 259 f;
#X obj 1204 238 bng 15 250 50 0 empty empty write -35 7 0 10 -262144
-1 -1;
#X obj 1210 328 f;
#X obj 1209 306 bng 15 250 50 0 empty empty send -30 7 0 10 -262144
-1 -1;
#X floatatom 1228 287 5 0 0 0 - - -;
#X floatatom 1212 354 5 0 0 0 send_it6B - send_it6B;
#X floatatom 1373 207 5 0 0 0 receive_it7B it7B -;
#X obj 1367 259 f;
#X obj 1344 238 bng 15 250 50 0 empty empty write -35 7 0 10 -262144
-1 -1;
#X obj 1350 328 f;
#X obj 1349 306 bng 15 250 50 0 empty empty send -30 7 0 10 -262144
-1 -1;
#X floatatom 1368 287 5 0 0 0 - - -;
#X floatatom 1352 354 5 0 0 0 send_it7B - send_it7B;
#X floatatom 1513 207 5 0 0 0 receive_it8B it8B -;
#X obj 1507 259 f;
#X obj 1484 238 bng 15 250 50 0 empty empty write -35 7 0 10 -262144
-1 -1;
#X obj 1490 328 f;
#X obj 1489 306 bng 15 250 50 0 empty empty send -30 7 0 10 -262144
-1 -1;
#X floatatom 1508 287 5 0 0 0 - - -;
#X floatatom 1492 354 5 0 0 0 send_it8B - send_it8B;
#X floatatom 1663 209 5 0 0 0 receive_it9B it9B -;
#X obj 1657 261 f;
#X obj 1634 240 bng 15 250 50 0 empty empty write -35 7 0 10 -262144
-1 -1;
#X obj 1640 330 f;
#X obj 1639 308 bng 15 250 50 0 empty empty send -30 7 0 10 -262144
-1 -1;
#X floatatom 1658 289 5 0 0 0 - - -;
#X floatatom 1642 356 5 0 0 0 send_it9B - send_it9B;
#X floatatom 1803 209 5 0 0 0 receive_it10B it10B -;
#X obj 1797 261 f;
#X obj 1774 240 bng 15 250 50 0 empty empty write -35 7 0 10 -262144
-1 -1;
#X obj 1780 330 f;
#X obj 1779 308 bng 15 250 50 0 empty empty send -30 7 0 10 -262144
-1 -1;
#X floatatom 1798 289 5 0 0 0 - - -;
#X floatatom 1782 356 5 0 0 0 send_it10B - send_it10B;
#X floatatom 1943 209 5 0 0 0 receive_it11B it11B -;
#X obj 1937 261 f;
#X obj 1914 240 bng 15 250 50 0 empty empty write -35 7 0 10 -262144
-1 -1;
#X obj 1920 330 f;
#X obj 1919 308 bng 15 250 50 0 empty empty send -30 7 0 10 -262144
-1 -1;
#X floatatom 1938 289 5 0 0 0 - - -;
#X floatatom 1922 356 5 0 0 0 send_it11B - send_it11B;
#X floatatom 2083 209 5 0 0 0 receive_it12B it12B -;
#X obj 2077 261 f;
#X obj 2054 240 bng 15 250 50 0 empty empty write -35 7 0 10 -262144
-1 -1;
#X obj 2060 330 f;
#X obj 2059 308 bng 15 250 50 0 empty empty send -30 7 0 10 -262144
-1 -1;
#X floatatom 2078 289 5 0 0 0 - - -;
#X floatatom 2062 356 5 0 0 0 send_it12B - send_it12B;
#X floatatom 2243 209 5 0 0 0 receive_it13B it13B -;
#X obj 2217 261 f;
#X obj 2194 240 bng 15 250 50 0 empty empty write -35 7 0 10 -262144
-1 -1;
#X obj 2200 330 f;
#X obj 2199 308 bng 15 250 50 0 empty empty send -30 7 0 10 -262144
-1 -1;
#X floatatom 2218 289 5 0 0 0 - - -;
#X floatatom 2202 356 5 0 0 0 send_it13B - send_it13B;
#X floatatom 2383 209 5 0 0 0 receive_it14B it14B -;
#X obj 2377 261 f;
#X obj 2354 240 bng 15 250 50 0 empty empty write -35 7 0 10 -262144
-1 -1;
#X obj 2360 330 f;
#X obj 2359 308 bng 15 250 50 0 empty empty send -30 7 0 10 -262144
-1 -1;
#X floatatom 2378 289 5 0 0 0 - - -;
#X floatatom 2362 356 5 0 0 0 send_it14B - send_it14B;
#X floatatom 2523 209 5 0 0 0 receive_it15B it15B -;
#X obj 2517 261 f;
#X obj 2494 240 bng 15 250 50 0 empty empty write -35 7 0 10 -262144
-1 -1;
#X obj 2500 330 f;
#X obj 2499 308 bng 15 250 50 0 empty empty send -30 7 0 10 -262144
-1 -1;
#X floatatom 2518 289 5 0 0 0 - - -;
#X floatatom 2502 356 5 0 0 0 send_it15B - send_it15B;
#X floatatom 2663 209 5 0 0 0 receive_it16B it16B -;
#X obj 2657 261 f;
#X obj 2634 240 bng 15 250 50 0 empty empty write -35 7 0 10 -262144
-1 -1;
#X obj 2640 330 f;
#X obj 2639 308 bng 15 250 50 0 empty empty send -30 7 0 10 -262144
-1 -1;
#X floatatom 2658 289 5 0 0 0 - - -;
#X floatatom 2642 356 5 0 0 0 send_it16B - send_it16B;
#X floatatom 543 397 5 0 0 0 receive_it1B it1B -;
#X obj 537 449 f;
#X obj 514 428 bng 15 250 50 0 empty empty write -35 7 0 10 -262144
-1 -1;
#X obj 520 518 f;
#X obj 519 496 bng 15 250 50 0 empty empty send -30 7 0 10 -262144
-1 -1;
#X floatatom 538 477 5 0 0 0 - - -;
#X floatatom 522 544 5 0 0 0 send_it1B - send_it1B;
#X floatatom 683 397 5 0 0 0 receive_it2B it2B -;
#X obj 677 449 f;
#X obj 654 428 bng 15 250 50 0 empty empty write -35 7 0 10 -262144
-1 -1;
#X obj 660 518 f;
#X obj 659 496 bng 15 250 50 0 empty empty send -30 7 0 10 -262144
-1 -1;
#X floatatom 678 477 5 0 0 0 - - -;
#X floatatom 662 544 5 0 0 0 send_it2B - send_it2B;
#X floatatom 823 397 5 0 0 0 receive_it3B it3B -;
#X obj 817 449 f;
#X obj 794 428 bng 15 250 50 0 empty empty write -35 7 0 10 -262144
-1 -1;
#X obj 800 518 f;
#X obj 799 496 bng 15 250 50 0 empty empty send -30 7 0 10 -262144
-1 -1;
#X floatatom 818 477 5 0 0 0 - - -;
#X floatatom 802 544 5 0 0 0 send_it3B - send_it3B;
#X floatatom 373 397 5 0 0 0 receive_stepitB stepitB -;
#X obj 367 449 f;
#X obj 344 428 bng 15 250 50 0 empty empty write -35 7 0 10 -262144
-1 -1;
#X obj 350 518 f;
#X obj 349 496 bng 15 250 50 0 empty empty send -30 7 0 10 -262144
-1 -1;
#X floatatom 368 477 5 0 0 0 - - -;
#X floatatom 352 544 5 0 0 0 send_stepitB - send_stepitB;
#X floatatom 963 397 5 0 0 0 receive_it4B it4B -;
#X obj 957 449 f;
#X obj 934 428 bng 15 250 50 0 empty empty write -35 7 0 10 -262144
-1 -1;
#X obj 940 518 f;
#X obj 939 496 bng 15 250 50 0 empty empty send -30 7 0 10 -262144
-1 -1;
#X floatatom 958 477 5 0 0 0 - - -;
#X floatatom 942 544 5 0 0 0 send_it4B - send_it4B;
#X floatatom 1093 397 5 0 0 0 receive_it5B it5B -;
#X obj 1087 449 f;
#X obj 1064 428 bng 15 250 50 0 empty empty write -35 7 0 10 -262144
-1 -1;
#X obj 1070 518 f;
#X obj 1069 496 bng 15 250 50 0 empty empty send -30 7 0 10 -262144
-1 -1;
#X floatatom 1088 477 5 0 0 0 - - -;
#X floatatom 1072 544 5 0 0 0 send_it5B - send_it5B;
#X floatatom 1233 397 5 0 0 0 receive_it6B it6B -;
#X obj 1227 449 f;
#X obj 1204 428 bng 15 250 50 0 empty empty write -35 7 0 10 -262144
-1 -1;
#X obj 1210 518 f;
#X obj 1209 496 bng 15 250 50 0 empty empty send -30 7 0 10 -262144
-1 -1;
#X floatatom 1228 477 5 0 0 0 - - -;
#X floatatom 1212 544 5 0 0 0 send_it6B - send_it6B;
#X floatatom 1373 397 5 0 0 0 receive_it7B it7B -;
#X obj 1367 449 f;
#X obj 1344 428 bng 15 250 50 0 empty empty write -35 7 0 10 -262144
-1 -1;
#X obj 1350 518 f;
#X obj 1349 496 bng 15 250 50 0 empty empty send -30 7 0 10 -262144
-1 -1;
#X floatatom 1368 477 5 0 0 0 - - -;
#X floatatom 1352 544 5 0 0 0 send_it7B - send_it7B;
#X floatatom 1513 397 5 0 0 0 receive_it8B it8B -;
#X obj 1507 449 f;
#X obj 1484 428 bng 15 250 50 0 empty empty write -35 7 0 10 -262144
-1 -1;
#X obj 1490 518 f;
#X obj 1489 496 bng 15 250 50 0 empty empty send -30 7 0 10 -262144
-1 -1;
#X floatatom 1508 477 5 0 0 0 - - -;
#X floatatom 1492 544 5 0 0 0 send_it8B - send_it8B;
#X floatatom 1663 399 5 0 0 0 receive_it9B it9B -;
#X obj 1657 451 f;
#X obj 1634 430 bng 15 250 50 0 empty empty write -35 7 0 10 -262144
-1 -1;
#X obj 1640 520 f;
#X obj 1639 498 bng 15 250 50 0 empty empty send -30 7 0 10 -262144
-1 -1;
#X floatatom 1658 479 5 0 0 0 - - -;
#X floatatom 1642 546 5 0 0 0 send_it9B - send_it9B;
#X floatatom 1803 399 5 0 0 0 receive_it10B it10B -;
#X obj 1797 451 f;
#X obj 1774 430 bng 15 250 50 0 empty empty write -35 7 0 10 -262144
-1 -1;
#X obj 1780 520 f;
#X obj 1779 498 bng 15 250 50 0 empty empty send -30 7 0 10 -262144
-1 -1;
#X floatatom 1798 479 5 0 0 0 - - -;
#X floatatom 1782 546 5 0 0 0 send_it10B - send_it10B;
#X floatatom 1943 399 5 0 0 0 receive_it11B it11B -;
#X obj 1937 451 f;
#X obj 1914 430 bng 15 250 50 0 empty empty write -35 7 0 10 -262144
-1 -1;
#X obj 1920 520 f;
#X obj 1919 498 bng 15 250 50 0 empty empty send -30 7 0 10 -262144
-1 -1;
#X floatatom 1938 479 5 0 0 0 - - -;
#X floatatom 1922 546 5 0 0 0 send_it11B - send_it11B;
#X floatatom 2083 399 5 0 0 0 receive_it12B it12B -;
#X obj 2077 451 f;
#X obj 2054 430 bng 15 250 50 0 empty empty write -35 7 0 10 -262144
-1 -1;
#X obj 2060 520 f;
#X obj 2059 498 bng 15 250 50 0 empty empty send -30 7 0 10 -262144
-1 -1;
#X floatatom 2078 479 5 0 0 0 - - -;
#X floatatom 2062 546 5 0 0 0 send_it12B - send_it12B;
#X floatatom 2243 399 5 0 0 0 receive_it13B it13B -;
#X obj 2217 451 f;
#X obj 2194 430 bng 15 250 50 0 empty empty write -35 7 0 10 -262144
-1 -1;
#X obj 2200 520 f;
#X obj 2199 498 bng 15 250 50 0 empty empty send -30 7 0 10 -262144
-1 -1;
#X floatatom 2218 479 5 0 0 0 - - -;
#X floatatom 2202 546 5 0 0 0 send_it13B - send_it13B;
#X floatatom 2383 399 5 0 0 0 receive_it14B it14B -;
#X obj 2377 451 f;
#X obj 2354 430 bng 15 250 50 0 empty empty write -35 7 0 10 -262144
-1 -1;
#X obj 2360 520 f;
#X obj 2359 498 bng 15 250 50 0 empty empty send -30 7 0 10 -262144
-1 -1;
#X floatatom 2378 479 5 0 0 0 - - -;
#X floatatom 2362 546 5 0 0 0 send_it14B - send_it14B;
#X floatatom 2523 399 5 0 0 0 receive_it15B it15B -;
#X obj 2517 451 f;
#X obj 2494 430 bng 15 250 50 0 empty empty write -35 7 0 10 -262144
-1 -1;
#X obj 2500 520 f;
#X obj 2499 498 bng 15 250 50 0 empty empty send -30 7 0 10 -262144
-1 -1;
#X floatatom 2518 479 5 0 0 0 - - -;
#X floatatom 2502 546 5 0 0 0 send_it15B - send_it15B;
#X floatatom 2663 399 5 0 0 0 receive_it16B it16B -;
#X obj 2657 451 f;
#X obj 2634 430 bng 15 250 50 0 empty empty write -35 7 0 10 -262144
-1 -1;
#X obj 2640 520 f;
#X obj 2639 498 bng 15 250 50 0 empty empty send -30 7 0 10 -262144
-1 -1;
#X floatatom 2658 479 5 0 0 0 - - -;
#X floatatom 2642 546 5 0 0 0 send_it16B - send_it16B;
#X floatatom 543 577 5 0 0 0 receive_it1B it1B -;
#X obj 537 629 f;
#X obj 514 608 bng 15 250 50 0 empty empty write -35 7 0 10 -262144
-1 -1;
#X obj 520 698 f;
#X obj 519 676 bng 15 250 50 0 empty empty send -30 7 0 10 -262144
-1 -1;
#X floatatom 538 657 5 0 0 0 - - -;
#X floatatom 522 724 5 0 0 0 send_it1B - send_it1B;
#X floatatom 683 577 5 0 0 0 receive_it2B it2B -;
#X obj 677 629 f;
#X obj 654 608 bng 15 250 50 0 empty empty write -35 7 0 10 -262144
-1 -1;
#X obj 660 698 f;
#X obj 659 676 bng 15 250 50 0 empty empty send -30 7 0 10 -262144
-1 -1;
#X floatatom 678 657 5 0 0 0 - - -;
#X floatatom 662 724 5 0 0 0 send_it2B - send_it2B;
#X floatatom 823 577 5 0 0 0 receive_it3B it3B -;
#X obj 817 629 f;
#X obj 794 608 bng 15 250 50 0 empty empty write -35 7 0 10 -262144
-1 -1;
#X obj 800 698 f;
#X obj 799 676 bng 15 250 50 0 empty empty send -30 7 0 10 -262144
-1 -1;
#X floatatom 818 657 5 0 0 0 - - -;
#X floatatom 802 724 5 0 0 0 send_it3B - send_it3B;
#X floatatom 373 577 5 0 0 0 receive_stepitB stepitB -;
#X obj 367 629 f;
#X obj 344 608 bng 15 250 50 0 empty empty write -35 7 0 10 -262144
-1 -1;
#X obj 350 698 f;
#X obj 349 676 bng 15 250 50 0 empty empty send -30 7 0 10 -262144
-1 -1;
#X floatatom 368 657 5 0 0 0 - - -;
#X floatatom 352 724 5 0 0 0 send_stepitB - send_stepitB;
#X floatatom 963 577 5 0 0 0 receive_it4B it4B -;
#X obj 957 629 f;
#X obj 934 608 bng 15 250 50 0 empty empty write -35 7 0 10 -262144
-1 -1;
#X obj 940 698 f;
#X obj 939 676 bng 15 250 50 0 empty empty send -30 7 0 10 -262144
-1 -1;
#X floatatom 958 657 5 0 0 0 - - -;
#X floatatom 942 724 5 0 0 0 send_it4B - send_it4B;
#X floatatom 1093 577 5 0 0 0 receive_it5B it5B -;
#X obj 1087 629 f;
#X obj 1064 608 bng 15 250 50 0 empty empty write -35 7 0 10 -262144
-1 -1;
#X obj 1070 698 f;
#X obj 1069 676 bng 15 250 50 0 empty empty send -30 7 0 10 -262144
-1 -1;
#X floatatom 1088 657 5 0 0 0 - - -;
#X floatatom 1072 724 5 0 0 0 send_it5B - send_it5B;
#X floatatom 1233 577 5 0 0 0 receive_it6B it6B -;
#X obj 1227 629 f;
#X obj 1204 608 bng 15 250 50 0 empty empty write -35 7 0 10 -262144
-1 -1;
#X obj 1210 698 f;
#X obj 1209 676 bng 15 250 50 0 empty empty send -30 7 0 10 -262144
-1 -1;
#X floatatom 1228 657 5 0 0 0 - - -;
#X floatatom 1212 724 5 0 0 0 send_it6B - send_it6B;
#X floatatom 1373 577 5 0 0 0 receive_it7B it7B -;
#X obj 1367 629 f;
#X obj 1344 608 bng 15 250 50 0 empty empty write -35 7 0 10 -262144
-1 -1;
#X obj 1350 698 f;
#X obj 1349 676 bng 15 250 50 0 empty empty send -30 7 0 10 -262144
-1 -1;
#X floatatom 1368 657 5 0 0 0 - - -;
#X floatatom 1352 724 5 0 0 0 send_it7B - send_it7B;
#X floatatom 1513 577 5 0 0 0 receive_it8B it8B -;
#X obj 1507 629 f;
#X obj 1484 608 bng 15 250 50 0 empty empty write -35 7 0 10 -262144
-1 -1;
#X obj 1490 698 f;
#X obj 1489 676 bng 15 250 50 0 empty empty send -30 7 0 10 -262144
-1 -1;
#X floatatom 1508 657 5 0 0 0 - - -;
#X floatatom 1492 724 5 0 0 0 send_it8B - send_it8B;
#X floatatom 1663 579 5 0 0 0 receive_it9B it9B -;
#X obj 1657 631 f;
#X obj 1634 610 bng 15 250 50 0 empty empty write -35 7 0 10 -262144
-1 -1;
#X obj 1640 700 f;
#X obj 1639 678 bng 15 250 50 0 empty empty send -30 7 0 10 -262144
-1 -1;
#X floatatom 1658 659 5 0 0 0 - - -;
#X floatatom 1642 726 5 0 0 0 send_it9B - send_it9B;
#X floatatom 1803 579 5 0 0 0 receive_it10B it10B -;
#X obj 1797 631 f;
#X obj 1774 610 bng 15 250 50 0 empty empty write -35 7 0 10 -262144
-1 -1;
#X obj 1780 700 f;
#X obj 1779 678 bng 15 250 50 0 empty empty send -30 7 0 10 -262144
-1 -1;
#X floatatom 1798 659 5 0 0 0 - - -;
#X floatatom 1782 726 5 0 0 0 send_it10B - send_it10B;
#X floatatom 1943 579 5 0 0 0 receive_it11B it11B -;
#X obj 1937 631 f;
#X obj 1914 610 bng 15 250 50 0 empty empty write -35 7 0 10 -262144
-1 -1;
#X obj 1920 700 f;
#X obj 1919 678 bng 15 250 50 0 empty empty send -30 7 0 10 -262144
-1 -1;
#X floatatom 1938 659 5 0 0 0 - - -;
#X floatatom 1922 726 5 0 0 0 send_it11B - send_it11B;
#X floatatom 2083 579 5 0 0 0 receive_it12B it12B -;
#X obj 2077 631 f;
#X obj 2054 610 bng 15 250 50 0 empty empty write -35 7 0 10 -262144
-1 -1;
#X obj 2060 700 f;
#X obj 2059 678 bng 15 250 50 0 empty empty send -30 7 0 10 -262144
-1 -1;
#X floatatom 2078 659 5 0 0 0 - - -;
#X floatatom 2062 726 5 0 0 0 send_it12B - send_it12B;
#X floatatom 2243 579 5 0 0 0 receive_it13B it13B -;
#X obj 2217 631 f;
#X obj 2194 610 bng 15 250 50 0 empty empty write -35 7 0 10 -262144
-1 -1;
#X obj 2200 700 f;
#X obj 2199 678 bng 15 250 50 0 empty empty send -30 7 0 10 -262144
-1 -1;
#X floatatom 2218 659 5 0 0 0 - - -;
#X floatatom 2202 726 5 0 0 0 send_it13B - send_it13B;
#X floatatom 2383 579 5 0 0 0 receive_it14B it14B -;
#X obj 2377 631 f;
#X obj 2354 610 bng 15 250 50 0 empty empty write -35 7 0 10 -262144
-1 -1;
#X obj 2360 700 f;
#X obj 2359 678 bng 15 250 50 0 empty empty send -30 7 0 10 -262144
-1 -1;
#X floatatom 2378 659 5 0 0 0 - - -;
#X floatatom 2362 726 5 0 0 0 send_it14B - send_it14B;
#X floatatom 2523 579 5 0 0 0 receive_it15B it15B -;
#X obj 2517 631 f;
#X obj 2494 610 bng 15 250 50 0 empty empty write -35 7 0 10 -262144
-1 -1;
#X obj 2500 700 f;
#X obj 2499 678 bng 15 250 50 0 empty empty send -30 7 0 10 -262144
-1 -1;
#X floatatom 2518 659 5 0 0 0 - - -;
#X floatatom 2502 726 5 0 0 0 send_it15B - send_it15B;
#X floatatom 2663 579 5 0 0 0 receive_it16B it16B -;
#X obj 2657 631 f;
#X obj 2634 610 bng 15 250 50 0 empty empty write -35 7 0 10 -262144
-1 -1;
#X obj 2640 700 f;
#X obj 2639 678 bng 15 250 50 0 empty empty send -30 7 0 10 -262144
-1 -1;
#X floatatom 2658 659 5 0 0 0 - - -;
#X floatatom 2642 726 5 0 0 0 send_it16B - send_it16B;
#X obj 102 102 hradio 15 1 0 4 empty empty empty 8 -10 0 10 -99865
-262144 -262144 2;
#X obj 163 102 hradio 15 1 0 4 empty empty empty 1 -10 0 10 -128992
-1 -262144 3;
#X floatatom 457 90 5 0 0 0 W.stepitB W.stepitB -;
#X floatatom 455 118 5 0 0 0 S.stepitB - S.stepitB;
#X floatatom 581 90 5 0 0 0 W.it1B W.it1B -;
#X floatatom 580 118 5 0 0 0 S.it1B - S.it1B;
#X floatatom 731 90 5 0 0 0 W.it2B W.it2B -;
#X floatatom 732 118 5 0 0 0 S.it2B - S.it2B;
#X floatatom 869 90 5 0 0 0 W.it3B W.it3B -;
#X floatatom 870 118 5 0 0 0 S.it3B - S.it3B;
#X floatatom 1021 90 5 0 0 0 W.it4B W.it4B -;
#X floatatom 1020 118 5 0 0 0 S.it4B - S.it4B;
#X floatatom 1145 90 5 0 0 0 W.it5B W.it5B -;
#X floatatom 1144 118 5 0 0 0 S.it5B - S.it5B;
#X floatatom 1282 90 5 0 0 0 W.it6B W.it6B -;
#X floatatom 1282 118 5 0 0 0 S.it6B - S.it6B;
#X floatatom 1449 90 5 0 0 0 W.it7B W.it7B -;
#X floatatom 1448 118 5 0 0 0 S.it7B - S.it7B;
#X floatatom 1589 90 5 0 0 0 W.it8B W.it8B -;
#X floatatom 1588 118 5 0 0 0 S.it8B - S.it8B;
#X floatatom 1718 90 5 0 0 0 W.it9B W.it9B -;
#X floatatom 1717 118 5 0 0 0 S.it9B - S.it9B;
#X floatatom 1858 90 5 0 0 0 W.it10B W.it10B -;
#X floatatom 1857 118 5 0 0 0 S.it10B - S.it10B;
#X floatatom 2000 90 5 0 0 0 W.it11B W.it11B -;
#X floatatom 1999 118 5 0 0 0 S.it11B - S.it11B;
#X floatatom 2148 90 5 0 0 0 W.it12B W.it12B -;
#X floatatom 2148 118 5 0 0 0 S.it12B - S.it12B;
#X floatatom 2302 90 5 0 0 0 W.it13B W.it13B -;
#X floatatom 2301 118 5 0 0 0 S.it13B - S.it13B;
#X floatatom 2449 90 5 0 0 0 W.it14B W.it14B -;
#X floatatom 2448 118 5 0 0 0 S.it14B - S.it14B;
#X floatatom 2603 90 5 0 0 0 W.it15B W.it15B -;
#X floatatom 2602 118 5 0 0 0 S.it15B - S.it15B;
#X floatatom 2757 90 5 0 0 0 W.it16B W.it16B -;
#X floatatom 2756 118 5 0 0 0 S.it16B - S.it16B;
#X connect 0 0 27 0;
#X connect 0 1 146 0;
#X connect 0 2 265 0;
#X connect 0 3 384 0;
#X connect 1 0 29 0;
#X connect 1 1 148 0;
#X connect 1 2 267 0;
#X connect 1 3 386 0;
#X connect 2 0 480 0;
#X connect 3 0 481 0;
#X connect 4 0 5 1;
#X connect 5 0 9 0;
#X connect 6 0 5 0;
#X connect 6 0 13 0;
#X connect 7 0 10 0;
#X connect 8 0 7 0;
#X connect 8 0 15 0;
#X connect 9 0 7 1;
#X connect 9 0 485 0;
#X connect 11 0 12 1;
#X connect 12 0 16 0;
#X connect 13 0 12 0;
#X connect 13 0 20 0;
#X connect 14 0 17 0;
#X connect 15 0 14 0;
#X connect 15 0 22 0;
#X connect 16 0 14 1;
#X connect 16 0 487 0;
#X connect 18 0 19 1;
#X connect 19 0 23 0;
#X connect 20 0 19 0;
#X connect 20 0 34 0;
#X connect 21 0 24 0;
#X connect 22 0 21 0;
#X connect 22 0 36 0;
#X connect 23 0 21 1;
#X connect 23 0 489 0;
#X connect 25 0 26 1;
#X connect 26 0 30 0;
#X connect 27 0 26 0;
#X connect 27 0 6 0;
#X connect 28 0 31 0;
#X connect 29 0 28 0;
#X connect 29 0 8 0;
#X connect 30 0 28 1;
#X connect 30 0 483 0;
#X connect 32 0 33 1;
#X connect 33 0 37 0;
#X connect 34 0 33 0;
#X connect 34 0 41 0;
#X connect 35 0 38 0;
#X connect 36 0 35 0;
#X connect 36 0 43 0;
#X connect 37 0 35 1;
#X connect 37 0 491 0;
#X connect 39 0 40 1;
#X connect 40 0 44 0;
#X connect 41 0 40 0;
#X connect 41 0 48 0;
#X connect 42 0 45 0;
#X connect 43 0 42 0;
#X connect 43 0 50 0;
#X connect 44 0 42 1;
#X connect 44 0 493 0;
#X connect 46 0 47 1;
#X connect 47 0 51 0;
#X connect 48 0 47 0;
#X connect 48 0 55 0;
#X connect 49 0 52 0;
#X connect 50 0 49 0;
#X connect 50 0 57 0;
#X connect 51 0 49 1;
#X connect 51 0 495 0;
#X connect 53 0 54 1;
#X connect 54 0 58 0;
#X connect 55 0 54 0;
#X connect 55 0 62 0;
#X connect 56 0 59 0;
#X connect 57 0 56 0;
#X connect 57 0 64 0;
#X connect 58 0 56 1;
#X connect 58 0 497 0;
#X connect 60 0 61 1;
#X connect 61 0 65 0;
#X connect 62 0 61 0;
#X connect 62 0 69 0;
#X connect 63 0 66 0;
#X connect 64 0 63 0;
#X connect 64 0 71 0;
#X connect 65 0 63 1;
#X connect 65 0 499 0;
#X connect 67 0 68 1;
#X connect 68 0 72 0;
#X connect 69 0 68 0;
#X connect 69 0 76 0;
#X connect 70 0 73 0;
#X connect 71 0 70 0;
#X connect 71 0 78 0;
#X connect 72 0 70 1;
#X connect 72 0 501 0;
#X connect 74 0 75 1;
#X connect 75 0 79 0;
#X connect 76 0 75 0;
#X connect 76 0 83 0;
#X connect 77 0 80 0;
#X connect 78 0 77 0;
#X connect 78 0 85 0;
#X connect 79 0 77 1;
#X connect 79 0 503 0;
#X connect 81 0 82 1;
#X connect 82 0 86 0;
#X connect 83 0 82 0;
#X connect 83 0 90 0;
#X connect 84 0 87 0;
#X connect 85 0 84 0;
#X connect 85 0 92 0;
#X connect 86 0 84 1;
#X connect 86 0 505 0;
#X connect 88 0 89 1;
#X connect 89 0 93 0;
#X connect 90 0 89 0;
#X connect 90 0 97 0;
#X connect 91 0 94 0;
#X connect 92 0 91 0;
#X connect 92 0 99 0;
#X connect 93 0 91 1;
#X connect 93 0 507 0;
#X connect 95 0 96 1;
#X connect 96 0 100 0;
#X connect 97 0 96 0;
#X connect 97 0 104 0;
#X connect 98 0 101 0;
#X connect 99 0 98 0;
#X connect 99 0 106 0;
#X connect 100 0 98 1;
#X connect 100 0 509 0;
#X connect 102 0 103 1;
#X connect 103 0 107 0;
#X connect 104 0 103 0;
#X connect 104 0 111 0;
#X connect 105 0 108 0;
#X connect 106 0 105 0;
#X connect 106 0 113 0;
#X connect 107 0 105 1;
#X connect 107 0 511 0;
#X connect 109 0 110 1;
#X connect 110 0 114 0;
#X connect 111 0 110 0;
#X connect 111 0 118 0;
#X connect 112 0 115 0;
#X connect 113 0 112 0;
#X connect 113 0 120 0;
#X connect 114 0 112 1;
#X connect 114 0 513 0;
#X connect 116 0 117 1;
#X connect 117 0 121 0;
#X connect 118 0 117 0;
#X connect 119 0 122 0;
#X connect 120 0 119 0;
#X connect 121 0 119 1;
#X connect 121 0 515 0;
#X connect 123 0 124 1;
#X connect 124 0 128 0;
#X connect 125 0 124 0;
#X connect 125 0 132 0;
#X connect 126 0 129 0;
#X connect 127 0 126 0;
#X connect 127 0 134 0;
#X connect 128 0 126 1;
#X connect 130 0 131 1;
#X connect 131 0 135 0;
#X connect 132 0 131 0;
#X connect 132 0 139 0;
#X connect 133 0 136 0;
#X connect 134 0 133 0;
#X connect 134 0 141 0;
#X connect 135 0 133 1;
#X connect 137 0 138 1;
#X connect 138 0 142 0;
#X connect 139 0 138 0;
#X connect 139 0 153 0;
#X connect 140 0 143 0;
#X connect 141 0 140 0;
#X connect 141 0 155 0;
#X connect 142 0 140 1;
#X connect 144 0 145 1;
#X connect 145 0 149 0;
#X connect 146 0 145 0;
#X connect 146 0 125 0;
#X connect 147 0 150 0;
#X connect 148 0 147 0;
#X connect 148 0 127 0;
#X connect 149 0 147 1;
#X connect 151 0 152 1;
#X connect 152 0 156 0;
#X connect 153 0 152 0;
#X connect 153 0 160 0;
#X connect 154 0 157 0;
#X connect 155 0 154 0;
#X connect 155 0 162 0;
#X connect 156 0 154 1;
#X connect 158 0 159 1;
#X connect 159 0 163 0;
#X connect 160 0 159 0;
#X connect 160 0 167 0;
#X connect 161 0 164 0;
#X connect 162 0 161 0;
#X connect 162 0 169 0;
#X connect 163 0 161 1;
#X connect 165 0 166 1;
#X connect 166 0 170 0;
#X connect 167 0 166 0;
#X connect 167 0 174 0;
#X connect 168 0 171 0;
#X connect 169 0 168 0;
#X connect 169 0 176 0;
#X connect 170 0 168 1;
#X connect 172 0 173 1;
#X connect 173 0 177 0;
#X connect 174 0 173 0;
#X connect 174 0 181 0;
#X connect 175 0 178 0;
#X connect 176 0 175 0;
#X connect 176 0 183 0;
#X connect 177 0 175 1;
#X connect 179 0 180 1;
#X connect 180 0 184 0;
#X connect 181 0 180 0;
#X connect 181 0 188 0;
#X connect 182 0 185 0;
#X connect 183 0 182 0;
#X connect 183 0 190 0;
#X connect 184 0 182 1;
#X connect 186 0 187 1;
#X connect 187 0 191 0;
#X connect 188 0 187 0;
#X connect 188 0 195 0;
#X connect 189 0 192 0;
#X connect 190 0 189 0;
#X connect 190 0 197 0;
#X connect 191 0 189 1;
#X connect 193 0 194 1;
#X connect 194 0 198 0;
#X connect 195 0 194 0;
#X connect 195 0 202 0;
#X connect 196 0 199 0;
#X connect 197 0 196 0;
#X connect 197 0 204 0;
#X connect 198 0 196 1;
#X connect 200 0 201 1;
#X connect 201 0 205 0;
#X connect 202 0 201 0;
#X connect 202 0 209 0;
#X connect 203 0 206 0;
#X connect 204 0 203 0;
#X connect 204 0 211 0;
#X connect 205 0 203 1;
#X connect 207 0 208 1;
#X connect 208 0 212 0;
#X connect 209 0 208 0;
#X connect 209 0 216 0;
#X connect 210 0 213 0;
#X connect 211 0 210 0;
#X connect 211 0 218 0;
#X connect 212 0 210 1;
#X connect 214 0 215 1;
#X connect 215 0 219 0;
#X connect 216 0 215 0;
#X connect 216 0 223 0;
#X connect 217 0 220 0;
#X connect 218 0 217 0;
#X connect 218 0 225 0;
#X connect 219 0 217 1;
#X connect 221 0 222 1;
#X connect 222 0 226 0;
#X connect 223 0 222 0;
#X connect 223 0 230 0;
#X connect 224 0 227 0;
#X connect 225 0 224 0;
#X connect 225 0 232 0;
#X connect 226 0 224 1;
#X connect 228 0 229 1;
#X connect 229 0 233 0;
#X connect 230 0 229 0;
#X connect 230 0 237 0;
#X connect 231 0 234 0;
#X connect 232 0 231 0;
#X connect 232 0 239 0;
#X connect 233 0 231 1;
#X connect 235 0 236 1;
#X connect 236 0 240 0;
#X connect 237 0 236 0;
#X connect 238 0 241 0;
#X connect 239 0 238 0;
#X connect 240 0 238 1;
#X connect 242 0 243 1;
#X connect 243 0 247 0;
#X connect 244 0 243 0;
#X connect 244 0 251 0;
#X connect 245 0 248 0;
#X connect 246 0 245 0;
#X connect 246 0 253 0;
#X connect 247 0 245 1;
#X connect 249 0 250 1;
#X connect 250 0 254 0;
#X connect 251 0 250 0;
#X connect 251 0 258 0;
#X connect 252 0 255 0;
#X connect 253 0 252 0;
#X connect 253 0 260 0;
#X connect 254 0 252 1;
#X connect 256 0 257 1;
#X connect 257 0 261 0;
#X connect 258 0 257 0;
#X connect 258 0 272 0;
#X connect 259 0 262 0;
#X connect 260 0 259 0;
#X connect 260 0 274 0;
#X connect 261 0 259 1;
#X connect 263 0 264 1;
#X connect 264 0 268 0;
#X connect 265 0 264 0;
#X connect 265 0 244 0;
#X connect 266 0 269 0;
#X connect 267 0 266 0;
#X connect 267 0 246 0;
#X connect 268 0 266 1;
#X connect 270 0 271 1;
#X connect 271 0 275 0;
#X connect 272 0 271 0;
#X connect 272 0 279 0;
#X connect 273 0 276 0;
#X connect 274 0 273 0;
#X connect 274 0 281 0;
#X connect 275 0 273 1;
#X connect 277 0 278 1;
#X connect 278 0 282 0;
#X connect 279 0 278 0;
#X connect 279 0 286 0;
#X connect 280 0 283 0;
#X connect 281 0 280 0;
#X connect 281 0 288 0;
#X connect 282 0 280 1;
#X connect 284 0 285 1;
#X connect 285 0 289 0;
#X connect 286 0 285 0;
#X connect 286 0 293 0;
#X connect 287 0 290 0;
#X connect 288 0 287 0;
#X connect 288 0 295 0;
#X connect 289 0 287 1;
#X connect 291 0 292 1;
#X connect 292 0 296 0;
#X connect 293 0 292 0;
#X connect 293 0 300 0;
#X connect 294 0 297 0;
#X connect 295 0 294 0;
#X connect 295 0 302 0;
#X connect 296 0 294 1;
#X connect 298 0 299 1;
#X connect 299 0 303 0;
#X connect 300 0 299 0;
#X connect 300 0 307 0;
#X connect 301 0 304 0;
#X connect 302 0 301 0;
#X connect 302 0 309 0;
#X connect 303 0 301 1;
#X connect 305 0 306 1;
#X connect 306 0 310 0;
#X connect 307 0 306 0;
#X connect 307 0 314 0;
#X connect 308 0 311 0;
#X connect 309 0 308 0;
#X connect 309 0 316 0;
#X connect 310 0 308 1;
#X connect 312 0 313 1;
#X connect 313 0 317 0;
#X connect 314 0 313 0;
#X connect 314 0 321 0;
#X connect 315 0 318 0;
#X connect 316 0 315 0;
#X connect 316 0 323 0;
#X connect 317 0 315 1;
#X connect 319 0 320 1;
#X connect 320 0 324 0;
#X connect 321 0 320 0;
#X connect 321 0 328 0;
#X connect 322 0 325 0;
#X connect 323 0 322 0;
#X connect 323 0 330 0;
#X connect 324 0 322 1;
#X connect 326 0 327 1;
#X connect 327 0 331 0;
#X connect 328 0 327 0;
#X connect 328 0 335 0;
#X connect 329 0 332 0;
#X connect 330 0 329 0;
#X connect 330 0 337 0;
#X connect 331 0 329 1;
#X connect 333 0 334 1;
#X connect 334 0 338 0;
#X connect 335 0 334 0;
#X connect 335 0 342 0;
#X connect 336 0 339 0;
#X connect 337 0 336 0;
#X connect 337 0 344 0;
#X connect 338 0 336 1;
#X connect 340 0 341 1;
#X connect 341 0 345 0;
#X connect 342 0 341 0;
#X connect 342 0 349 0;
#X connect 343 0 346 0;
#X connect 344 0 343 0;
#X connect 344 0 351 0;
#X connect 345 0 343 1;
#X connect 347 0 348 1;
#X connect 348 0 352 0;
#X connect 349 0 348 0;
#X connect 349 0 356 0;
#X connect 350 0 353 0;
#X connect 351 0 350 0;
#X connect 351 0 358 0;
#X connect 352 0 350 1;
#X connect 354 0 355 1;
#X connect 355 0 359 0;
#X connect 356 0 355 0;
#X connect 357 0 360 0;
#X connect 358 0 357 0;
#X connect 359 0 357 1;
#X connect 361 0 362 1;
#X connect 362 0 366 0;
#X connect 363 0 362 0;
#X connect 363 0 370 0;
#X connect 364 0 367 0;
#X connect 365 0 364 0;
#X connect 365 0 372 0;
#X connect 366 0 364 1;
#X connect 368 0 369 1;
#X connect 369 0 373 0;
#X connect 370 0 369 0;
#X connect 370 0 377 0;
#X connect 371 0 374 0;
#X connect 372 0 371 0;
#X connect 372 0 379 0;
#X connect 373 0 371 1;
#X connect 375 0 376 1;
#X connect 376 0 380 0;
#X connect 377 0 376 0;
#X connect 377 0 391 0;
#X connect 378 0 381 0;
#X connect 379 0 378 0;
#X connect 379 0 393 0;
#X connect 380 0 378 1;
#X connect 382 0 383 1;
#X connect 383 0 387 0;
#X connect 384 0 383 0;
#X connect 384 0 363 0;
#X connect 385 0 388 0;
#X connect 386 0 385 0;
#X connect 386 0 365 0;
#X connect 387 0 385 1;
#X connect 389 0 390 1;
#X connect 390 0 394 0;
#X connect 391 0 390 0;
#X connect 391 0 398 0;
#X connect 392 0 395 0;
#X connect 393 0 392 0;
#X connect 393 0 400 0;
#X connect 394 0 392 1;
#X connect 396 0 397 1;
#X connect 397 0 401 0;
#X connect 398 0 397 0;
#X connect 398 0 405 0;
#X connect 399 0 402 0;
#X connect 400 0 399 0;
#X connect 400 0 407 0;
#X connect 401 0 399 1;
#X connect 403 0 404 1;
#X connect 404 0 408 0;
#X connect 405 0 404 0;
#X connect 405 0 412 0;
#X connect 406 0 409 0;
#X connect 407 0 406 0;
#X connect 407 0 414 0;
#X connect 408 0 406 1;
#X connect 410 0 411 1;
#X connect 411 0 415 0;
#X connect 412 0 411 0;
#X connect 412 0 419 0;
#X connect 413 0 416 0;
#X connect 414 0 413 0;
#X connect 414 0 421 0;
#X connect 415 0 413 1;
#X connect 417 0 418 1;
#X connect 418 0 422 0;
#X connect 419 0 418 0;
#X connect 419 0 426 0;
#X connect 420 0 423 0;
#X connect 421 0 420 0;
#X connect 421 0 428 0;
#X connect 422 0 420 1;
#X connect 424 0 425 1;
#X connect 425 0 429 0;
#X connect 426 0 425 0;
#X connect 426 0 433 0;
#X connect 427 0 430 0;
#X connect 428 0 427 0;
#X connect 428 0 435 0;
#X connect 429 0 427 1;
#X connect 431 0 432 1;
#X connect 432 0 436 0;
#X connect 433 0 432 0;
#X connect 433 0 440 0;
#X connect 434 0 437 0;
#X connect 435 0 434 0;
#X connect 435 0 442 0;
#X connect 436 0 434 1;
#X connect 438 0 439 1;
#X connect 439 0 443 0;
#X connect 440 0 439 0;
#X connect 440 0 447 0;
#X connect 441 0 444 0;
#X connect 442 0 441 0;
#X connect 442 0 449 0;
#X connect 443 0 441 1;
#X connect 445 0 446 1;
#X connect 446 0 450 0;
#X connect 447 0 446 0;
#X connect 447 0 454 0;
#X connect 448 0 451 0;
#X connect 449 0 448 0;
#X connect 449 0 456 0;
#X connect 450 0 448 1;
#X connect 452 0 453 1;
#X connect 453 0 457 0;
#X connect 454 0 453 0;
#X connect 454 0 461 0;
#X connect 455 0 458 0;
#X connect 456 0 455 0;
#X connect 456 0 463 0;
#X connect 457 0 455 1;
#X connect 459 0 460 1;
#X connect 460 0 464 0;
#X connect 461 0 460 0;
#X connect 461 0 468 0;
#X connect 462 0 465 0;
#X connect 463 0 462 0;
#X connect 463 0 470 0;
#X connect 464 0 462 1;
#X connect 466 0 467 1;
#X connect 467 0 471 0;
#X connect 468 0 467 0;
#X connect 468 0 475 0;
#X connect 469 0 472 0;
#X connect 470 0 469 0;
#X connect 470 0 477 0;
#X connect 471 0 469 1;
#X connect 473 0 474 1;
#X connect 474 0 478 0;
#X connect 475 0 474 0;
#X connect 476 0 479 0;
#X connect 477 0 476 0;
#X connect 478 0 476 1;
#X connect 480 0 0 0;
#X connect 481 0 1 0;
#X connect 482 0 30 0;
#X connect 484 0 9 0;
#X connect 486 0 16 0;
#X connect 488 0 23 0;
#X connect 490 0 37 0;
#X connect 492 0 44 0;
#X connect 494 0 51 0;
#X connect 496 0 58 0;
#X connect 498 0 65 0;
#X connect 500 0 72 0;
#X connect 502 0 79 0;
#X connect 504 0 86 0;
#X connect 506 0 93 0;
#X connect 508 0 100 0;
#X connect 510 0 107 0;
#X connect 512 0 114 0;
#X connect 514 0 121 0;
#X coords 0 -1 1 1 125 20 2 100 100;
