#N canvas 56 0 1624 1028 12;
#N canvas 67 224 450 432 :: 0;
#X text 24 16 the format [pix_film] is able to decode depends on the
system you are running Gem.;
#X text 30 101 Win32: [pix_film] should be able to decode AVIs (all
installed codecs). If you are lucky and your version of Gem is compiled
with quicktime-support and you have quicktime installed on your machine
\, you might be able to play back quicktime MOVs.;
#X text 31 63 macOS-X: [pix_film] should be ablte to decode quicktime
MOVs.;
#X text 32 175 linux: that's a bit tricky. Since there is no "native"
video-format for linux it heavily depends on what you have installed
on your machine and how Gem has been compiled. If your system supports
it \, [pix_film] is able to use quicktime4linux/libquicktime to decode
quicktime-MOVs \, libmpeg1/libmpeg3 to decode MPEG2-videos and libaviplay
which opens a wide range of supported formats (with the possibility
to install additional codec-plugins) \, from AVI via MPEG2 to DivX
\, although i have found MPEG support rather unstable. libaviplay does
not support quicktime decoding. There is also some ruddy ffmpeg support
(apart from the one supplied by libaviplay).;
#X text 36 351 although one wouldn't believe it \, but i have found
that under linux i could play most formats...;
#X restore 337 683 pd :: FORMATS;
#X msg 222 943 label \$1;
#X floatatom 218 -208 5 0 0 0 - - -;
#X obj 225 987 s \$4-cnv;
#X obj 260 698 outlet;
#X msg 364 880 label \$1;
#X obj 389 45 bng 15 250 50 0 empty empty empty 17 7 0 10 -262144 -1
-1;
#X obj 466 352 outlet;
#X obj 419 216 tgl 15 0 empty empty empty 17 7 0 10 -262144 -1 -1 0
1;
#X obj 422 113 tgl 15 0 empty empty empty 17 7 0 10 -262144 -1 -1 0
1;
#X obj 453 113 spigot-toggle_red;
#X obj 449 216 spigot-toggle_red;
#X obj 389 89 bng 15 250 50 0 empty empty empty 17 7 0 10 -262144 -1
-1;
#X obj 417 242 tgl 15 0 empty empty empty 17 7 0 10 -262144 -1 -1 0
1;
#X obj 421 147 tgl 15 0 empty empty empty 17 7 0 10 -262144 -1 -1 0
1;
#X obj 389 113 spigot-toggle_red;
#X obj 453 147 spigot-toggle_red;
#X obj 449 242 spigot-toggle_red;
#X obj 386 216 spigot-toggle_red;
#X obj 364 908 s \$3-cnv;
#X obj 42 -189 random;
#X floatatom 6 -170 5 0 0 0 - - -;
#X obj 134 -113 f;
#X obj 134 -38 sel;
#X obj 134 -68 mod 10;
#X obj 247 -117 + 1;
#X floatatom 185 792 5 0 0 0 - - -;
#X obj 27 802 random;
#X floatatom 22 843 5 0 0 0 - - -;
#X obj 132 -160 r BB;
#X obj 8 667 f;
#X obj 49 749 sel;
#X obj 41 668 + 1;
#X obj 133 -136 spigot-toggle_red;
#X obj 10 625 spigot-toggle_red;
#X obj 481 216 spigot-toggle_red;
#X obj 25 712 mod 100;
#X obj -108 207 openpanel;
#X obj -204 423 openpanel;
#X obj -201 397 r lo;
#X obj 487 121 spigot-toggle_red;
#X obj 489 63 r T$;
#X obj 609 312 outlet;
#X obj 387 10 r BB;
#X obj 538 52 r trgrA;
#X obj 538 75 r trgrB;
#X floatatom 540 214 2 0 0 0 - - -;
#X obj 536 186 spigot-toggle_vert;
#X obj 538 242 outlet;
#X obj 449 285 * 100;
#X obj 11 602 r BB;
#X obj 387 64 r BB1;
#X obj 153 -136 spigot-toggle_red;
#X obj 46 625 spigot-toggle_red;
#X obj 177 -160 r BB1;
#X obj 53 600 r BB1;
#X obj 256 228 s TRGnB_@sA;
#X obj 264 287 s TRGnB_@sB;
#X obj 86 667 * 1;
#X obj 456 177 * 100;
#X floatatom 321 -58 5 0 0 0 - - -;
#X obj 481 242 spigot-toggle_red;
#X obj 487 85 r T1;
#X obj 218 -59 * 1;
#X obj 1 180 folder2;
#X obj 3 432 folder3;
#X floatatom -200 248 5 0 0 2 - - -;
#X obj -198 285 spigot-toggle_red;
#X obj -52 562 outlet;
#X obj -49 540 bng 15 250 50 0 empty empty empty 17 7 0 10 -262144
-1 -1;
#X obj 404 385 s øSbangA;
#X obj 285 615 s soundfileA;
#X msg 319 13 open \$1;
#X obj 276 850 splitfilename;
#X obj 8 884 splitfilename;
#X obj 435 353 bng 15 250 50 0 empty empty empty 17 7 0 10 -262144
-1 -1;
#X obj 264 349 s TRGnB_@s B1fromselnd;
#X obj 0 0 cnv 15 180 22 empty empty Open_video 60 8 1 10 -1 -262144
0;
#X obj 321 -32 s movieA;
#X obj 191 229 r lo;
#X obj 19 55 cnv 15 163 16 empty empty A/V.BO 10 9 1 12 -1 -4034 0
;
#X obj 19 71 cnv 15 163 16 empty empty vsmpl 10 9 1 12 -1 -4034 0;
#X obj 19 87 cnv 15 163 16 empty empty tstfinderfolder 10 9 1 12 -1
-4034 0;
#X obj 19 103 cnv 15 163 16 empty empty axe_reboot 10 9 1 12 -1 -4034
0;
#X obj 2 202 cnv 15 180 20 empty empty empty 10 9 1 12 -1 -260097 0
;
#X obj 19 119 cnv 15 163 16 empty empty ... 10 9 1 12 -1 -4034 0;
#X obj 19 135 cnv 15 163 16 empty empty ... 10 9 1 12 -1 -4034 0;
#X msg -486 54 .../*.mov;
#X msg -488 74 .../*.mov;
#X msg -491 99 .../*.mov;
#X obj 2 222 cnv 15 180 18 empty empty °_______________% 40 11 1 14
-260097 -1 0;
#X obj 86 222 bng 17 250 50 0 empty empty rdm 1 8 1 9 -33289 -260097
-260097;
#X obj 104 222 tgl 17 0 empty empty BB 3 9 1 9 -1 -260097 -260097 1
1;
#X floatatom 138 222 6 0 0 3 - - -;
#X obj 50 222 tgl 17 0 empty empty A 5 9 1 12 -1 -260097 -260097 0
1;
#X obj 68 222 tgl 17 0 empty empty B 5 9 0 12 -1 -260097 -260097 0
1;
#X floatatom 2 221 8 0 0 2 - - -;
#X obj 122 222 tgl 17 0 empty empty BB1 0 9 1 9 -1 -260097 -260097
0 1;
#X obj 2 240 cnv 15 180 23 empty empty video'select____audio'select
15 11 1 12 -1 -262144 0;
#X obj 82 241 tgl 22 0 empty empty = 5 9 1 20 -1 -262144 -262144 1
1;
#X obj 2 471 cnv 15 180 18 empty empty °_______________% 40 11 1 14
-260097 -1 0;
#X obj 85 472 bng 17 250 50 0 empty empty rdm 0 9 0 9 -33289 -260097
-260097;
#X obj 103 472 tgl 17 0 empty empty BB 2 9 1 10 -1 -260097 -260097
0 1;
#X floatatom 137 472 6 0 0 1 - - -;
#X obj 49 472 tgl 17 0 empty empty A 5 9 0 12 -1 -260097 -260097 0
1;
#X obj 67 472 tgl 17 0 empty empty B 5 9 1 12 -1 -260097 -260097 0
1;
#X floatatom 4 472 7 0 0 2 - - -;
#X obj 121 472 tgl 17 0 empty empty BB1 1 9 1 9 -1 -260097 -260097
0 1;
#X obj 487 147 spigot-toggle_red;
#X obj 536 160 spigot-toggle_vert;
#X obj 389 143 spigot-toggle_red;
#X obj 386 242 spigot-toggle_red;
#X obj 5 327 cnv 2 3 22 empty empty empty 20 12 0 14 -1 -66577 0;
#X obj 478 28 spigot-toggle_vert;
#X obj 451 -29 spigot-toggle_vert;
#X obj 473 -29 r A;
#X obj 473 1 r B;
#X obj 450 31 * 1;
#X obj 473 52 * 1;
#X obj 581 215 s trgrø@SA;
#X obj -998 249 s save_sNd_A;
#X obj -850 249 s save_sNd_B;
#X obj -714 248 s save_sNd_BB;
#X obj -575 248 s save_sNd_BB1;
#X obj -577 209 r send_save_sNd_BB1;
#X obj -715 209 r send_save_sNd_BB;
#X obj -849 209 r send_save_sNd_B;
#X obj -997 209 r send_save_sNd_A;
#X obj -988 507 s save_sNd_A;
#X obj -840 507 s save_sNd_B;
#X obj -705 508 s save_sNd_BB;
#X obj -566 508 s save_sNd_BB1;
#X obj -568 473 r send_save_sNd_BB1;
#X obj -706 473 r send_save_sNd_BB;
#X obj -841 473 r send_save_sNd_B;
#X obj -989 473 r send_save_sNd_A;
#X obj -435 209 r send_save_every;
#X obj -433 249 s save_sNd_every;
#X obj -429 473 r send_save_every;
#X obj -427 508 s save_every;
#X floatatom 630 -29 12 0 0 0 - - -;
#X obj 2 35 cnv 1 180 20 folder2lib_slct folder2_cnv axe_reboot/*.mov
8 9 1 14 -4034 -1 0;
#X msg -601 38 label \$1;
#X obj -602 62 s folder2_cnv;
#X obj -600 9 symbol;
#X msg -485 -27 avBO/*.mov;
#X msg -484 10 tstfinderfolder/*.mov;
#X msg -485 33 axe_reboot/*.mov;
#X obj 4 56 bng 15 250 50 0 empty empty empty 17 7 0 10 -4034 -1 -4034
;
#X obj -287 168 r folder2lib_slct;
#X obj -599 -21 r folder2;
#X obj -490 127 s folder2;
#X obj 0 20 cnv 12 180 15 empty empty FOLDER: 8 9 1 12 -1 -4034 0;
#X obj 2 167 cnv 12 180 15 empty empty INTEMS: 8 9 1 12 -1 -260097
0;
#X obj 4 72 bng 15 250 50 0 empty empty empty 17 7 0 10 -4034 -1 -4034
;
#X obj 4 88 bng 15 250 50 0 empty empty empty 17 7 0 10 -4034 -1 -4034
;
#X obj 4 104 bng 15 250 50 0 empty empty empty 17 7 0 10 -4034 -1 -4034
;
#X obj 4 120 bng 15 250 50 0 empty empty empty 17 7 0 10 -4034 -1 -4034
;
#X obj 4 136 bng 15 250 50 0 empty empty empty 17 7 0 10 -4034 -1 -4034
;
#X obj 4 152 bng 15 250 50 0 empty empty empty 17 7 0 10 -4034 -1 -4034
;
#X obj 19 151 cnv 15 163 16 empty empty ... 10 9 1 12 -1 -4034 0;
#X msg -483 -10 vsmp/*.mov;
#X obj 166 205 bng 15 500 500 0 empty empty clear_bank -63 6 1 12 -260097
-1 -260097;
#X obj 4 205 bng 15 500 500 0 empty empty open 18 6 1 12 -260097 -1
-260097;
#X msg -605 113 nada_here;
#X obj 2 263 cnv 15 180 22 empty empty Open_audio 60 8 1 10 -1 -262144
0;
#X obj 19 304 cnv 15 163 16 empty empty A/V.BO 10 9 1 12 -1 -4034 0
;
#X obj 19 320 cnv 15 163 16 empty empty vsmpl 10 9 1 12 -1 -4034 0
;
#X obj 19 336 cnv 15 163 16 empty empty tstfinderfolder 10 9 1 12 -1
-4034 0;
#X obj 19 352 cnv 15 163 16 empty empty axe_reboot 10 9 1 12 -1 -4034
0;
#X obj 19 368 cnv 15 163 16 empty empty ... 10 9 1 12 -1 -4034 0;
#X obj 19 384 cnv 15 163 16 empty empty ... 10 9 1 12 -1 -4034 0;
#X obj 2 284 cnv 15 180 20 folder3lib_slct folder3_cnv axe_reboot/*.wav
8 9 1 14 -4034 -1 0;
#X msg -379 638 label \$1;
#X obj -378 609 symbol;
#X obj 4 305 bng 15 250 50 0 empty empty empty 17 7 0 10 -4034 -1 -4034
;
#X obj 4 321 bng 15 250 50 0 empty empty empty 17 7 0 10 -4034 -1 -4034
;
#X obj 4 337 bng 15 250 50 0 empty empty empty 17 7 0 10 -4034 -1 -4034
;
#X obj 4 353 bng 15 250 50 0 empty empty empty 17 7 0 10 -4034 -1 -4034
;
#X obj 4 369 bng 15 250 50 0 empty empty empty 17 7 0 10 -4034 -1 -4034
;
#X obj 4 385 bng 15 250 50 0 empty empty empty 17 7 0 10 -4034 -1 -4034
;
#X obj 4 401 bng 15 250 50 0 empty empty empty 17 7 0 10 -4034 -1 -4034
;
#X obj 19 400 cnv 15 163 16 empty empty ... 10 9 1 12 -1 -4034 0;
#X msg -388 769 nada_here;
#X obj -373 579 r folder3;
#X obj -380 662 s folder3_cnv;
#X obj -267 738 s folder3;
#X obj -484 422 r folder3lib_slct;
#X obj 2 416 cnv 12 180 15 empty empty INTEMS: 8 9 1 12 -1 -260097
0;
#X obj 2 451 cnv 15 180 20 empty empty empty 10 9 1 12 -1 -260097 0
;
#X obj 163 454 bng 15 500 500 0 empty empty clear_bank -63 6 1 12 -260097
-1 -260097;
#X obj 6 454 bng 15 500 500 0 empty empty open 18 6 1 12 -260097 -1
-260097;
#X obj 1 489 cnv 4 180 44 empty empty empty 20 12 0 14 -1 -66577 0
;
#X obj 0 30 cnv 3 3 505 empty empty empty 20 12 0 14 -1 -66577 0;
#X obj 179 0 cnv 3 3 535 empty empty empty 20 12 0 14 -1 -66577 0;
#X floatatom 353 573 12 0 0 0 - - -;
#X msg -262 584 avBO/*.wav;
#X msg -260 601 vsmp/*.wav;
#X msg -261 621 tstfinderfolder/*.wav;
#X msg -262 644 axe_reboot/*.wav;
#X msg -263 665 .../*.wav;
#X msg -264 684 .../*.wav;
#X msg -263 703 .../*.wav;
#X connect 1 0 3 0;
#X connect 2 0 20 1;
#X connect 5 0 19 0;
#X connect 6 0 15 0;
#X connect 6 0 18 0;
#X connect 8 0 11 1;
#X connect 8 0 18 1;
#X connect 8 0 109 1;
#X connect 9 0 10 1;
#X connect 9 0 40 1;
#X connect 9 0 15 1;
#X connect 10 0 59 0;
#X connect 11 0 35 0;
#X connect 11 0 49 0;
#X connect 12 0 110 0;
#X connect 12 0 111 0;
#X connect 13 0 17 1;
#X connect 13 0 61 1;
#X connect 13 0 111 1;
#X connect 13 0 47 1;
#X connect 14 0 16 1;
#X connect 14 0 108 1;
#X connect 14 0 110 1;
#X connect 16 0 59 0;
#X connect 17 0 49 0;
#X connect 18 0 75 0;
#X connect 20 0 21 0;
#X connect 21 0 96 0;
#X connect 22 0 24 0;
#X connect 22 0 25 0;
#X connect 23 0 91 0;
#X connect 24 0 23 0;
#X connect 25 0 22 1;
#X connect 26 0 27 1;
#X connect 27 0 28 0;
#X connect 28 0 106 0;
#X connect 29 0 33 0;
#X connect 30 0 32 0;
#X connect 30 0 36 0;
#X connect 31 0 101 0;
#X connect 32 0 30 1;
#X connect 33 0 22 0;
#X connect 34 0 30 0;
#X connect 35 0 42 0;
#X connect 36 0 31 0;
#X connect 37 0 64 0;
#X connect 38 0 65 0;
#X connect 39 0 103 0;
#X connect 40 0 42 0;
#X connect 41 0 40 0;
#X connect 43 0 6 0;
#X connect 44 0 109 0;
#X connect 44 0 114 1;
#X connect 45 0 47 0;
#X connect 45 0 113 1;
#X connect 46 0 48 0;
#X connect 46 0 119 0;
#X connect 47 0 46 0;
#X connect 49 0 106 0;
#X connect 50 0 34 0;
#X connect 51 0 12 0;
#X connect 52 0 22 0;
#X connect 53 0 30 0;
#X connect 54 0 52 0;
#X connect 55 0 53 0;
#X connect 58 0 36 1;
#X connect 59 0 96 0;
#X connect 60 0 78 0;
#X connect 61 0 42 0;
#X connect 62 0 61 0;
#X connect 62 0 108 0;
#X connect 63 0 24 1;
#X connect 64 0 66 0;
#X connect 64 1 72 0;
#X connect 64 1 74 0;
#X connect 64 2 2 0;
#X connect 65 1 73 0;
#X connect 65 1 4 0;
#X connect 65 1 71 0;
#X connect 65 2 26 0;
#X connect 66 0 67 0;
#X connect 67 0 106 0;
#X connect 69 0 68 0;
#X connect 72 0 78 0;
#X connect 73 1 5 0;
#X connect 74 1 1 0;
#X connect 75 0 76 0;
#X connect 75 0 70 0;
#X connect 75 0 7 0;
#X connect 79 0 93 0;
#X connect 87 0 151 0;
#X connect 88 0 151 0;
#X connect 89 0 151 0;
#X connect 91 0 20 0;
#X connect 92 0 33 1;
#X connect 92 0 122 0;
#X connect 93 0 63 0;
#X connect 93 0 137 0;
#X connect 94 0 9 0;
#X connect 94 0 120 0;
#X connect 94 0 56 0;
#X connect 95 0 14 0;
#X connect 95 0 121 0;
#X connect 95 0 57 0;
#X connect 96 0 66 0;
#X connect 96 0 64 0;
#X connect 97 0 52 1;
#X connect 97 0 123 0;
#X connect 99 0 67 1;
#X connect 101 0 27 0;
#X connect 102 0 34 1;
#X connect 102 0 130 0;
#X connect 103 0 58 0;
#X connect 103 0 139 0;
#X connect 104 0 56 0;
#X connect 104 0 8 0;
#X connect 104 0 128 0;
#X connect 105 0 57 0;
#X connect 105 0 13 0;
#X connect 105 0 129 0;
#X connect 106 0 69 0;
#X connect 106 0 65 0;
#X connect 107 0 53 1;
#X connect 107 0 131 0;
#X connect 109 0 46 0;
#X connect 110 0 75 0;
#X connect 111 0 75 0;
#X connect 113 0 118 0;
#X connect 114 0 117 0;
#X connect 115 0 114 0;
#X connect 116 0 113 0;
#X connect 116 0 140 0;
#X connect 117 0 10 0;
#X connect 117 0 11 0;
#X connect 118 0 17 0;
#X connect 118 0 16 0;
#X connect 124 0 97 0;
#X connect 125 0 92 0;
#X connect 126 0 95 0;
#X connect 127 0 94 0;
#X connect 132 0 107 0;
#X connect 133 0 102 0;
#X connect 134 0 105 0;
#X connect 135 0 104 0;
#X connect 136 0 93 0;
#X connect 138 0 103 0;
#X connect 142 0 143 0;
#X connect 144 0 142 0;
#X connect 145 0 151 0;
#X connect 146 0 151 0;
#X connect 147 0 151 0;
#X connect 148 0 145 0;
#X connect 149 0 64 1;
#X connect 150 0 144 0;
#X connect 154 0 161 0;
#X connect 155 0 146 0;
#X connect 156 0 147 0;
#X connect 157 0 87 0;
#X connect 158 0 88 0;
#X connect 159 0 89 0;
#X connect 161 0 151 0;
#X connect 162 0 64 2;
#X connect 162 0 164 0;
#X connect 163 0 37 0;
#X connect 164 0 144 0;
#X connect 173 0 185 0;
#X connect 174 0 173 0;
#X connect 175 0 196 0;
#X connect 176 0 197 0;
#X connect 177 0 198 0;
#X connect 178 0 199 0;
#X connect 179 0 200 0;
#X connect 180 0 201 0;
#X connect 181 0 202 0;
#X connect 183 0 174 0;
#X connect 184 0 174 0;
#X connect 187 0 65 1;
#X connect 190 0 65 2;
#X connect 191 0 38 0;
#X connect 195 0 71 0;
#X connect 196 0 186 0;
#X connect 197 0 186 0;
#X connect 198 0 186 0;
#X connect 199 0 186 0;
#X connect 200 0 186 0;
#X connect 201 0 186 0;
#X connect 202 0 186 0;
#X coords 0 -1 1 1 182 534 2 0 0;
