#N canvas 179 21 898 878 12;
#N canvas 67 224 450 432 :: 0;
#X text 24 16 the format [pix_film] is able to decode depends on the
system you are running Gem.;
#X text 30 101 Win32: [pix_film] should be able to decode AVIs (all
installed codecs). If you are lucky and your version of Gem is compiled
with quicktime-support and you have quicktime installed on your machine
\, you might be able to play back quicktime MOVs.;
#X text 31 63 macOS-X: [pix_film] should be ablte to decode quicktime
MOVs.;
#X text 32 175 linux: that's a bit tricky. Since there is no "native"
video-format for linux it heavily depends on what you have installed
on your machine and how Gem has been compiled. If your system supports
it \, [pix_film] is able to use quicktime4linux/libquicktime to decode
quicktime-MOVs \, libmpeg1/libmpeg3 to decode MPEG2-videos and libaviplay
which opens a wide range of supported formats (with the possibility
to install additional codec-plugins) \, from AVI via MPEG2 to DivX
\, although i have found MPEG support rather unstable. libaviplay does
not support quicktime decoding. There is also some ruddy ffmpeg support
(apart from the one supplied by libaviplay).;
#X text 36 351 although one wouldn't believe it \, but i have found
that under linux i could play most formats...;
#X restore 337 773 pd :: FORMATS;
#X msg 222 1033 label \$1;
#X floatatom 98 -220 5 0 0 0 - - -;
#X obj 225 1077 s \$4-cnv;
#X obj 260 788 outlet;
#X msg 364 970 label \$1;
#X obj 402 131 bng 15 250 50 0 empty empty empty 17 7 0 10 -262144
-1 -1;
#X obj 466 442 outlet;
#X obj 419 306 tgl 15 0 empty empty empty 17 7 0 10 -262144 -1 -1 0
1;
#X obj 422 203 tgl 15 0 empty empty empty 17 7 0 10 -262144 -1 -1 0
1;
#X obj 512 216 spigot-toggle_red;
#X obj 516 312 spigot-toggle_red;
#X obj 400 179 bng 15 250 50 0 empty empty empty 17 7 0 10 -262144
-1 -1;
#X obj 419 332 tgl 15 0 empty empty empty 17 7 0 10 -262144 -1 -1 0
1;
#X obj 422 230 tgl 15 0 empty empty empty 17 7 0 10 -262144 -1 -1 0
1;
#X obj 392 214 spigot-toggle_red;
#X obj 513 243 spigot-toggle_red;
#X obj 514 346 spigot-toggle_red;
#X obj 384 319 spigot-toggle_red;
#X obj 364 998 s \$3-cnv;
#X obj 42 -219 random;
#X floatatom 6 -200 5 0 0 0 - - -;
#X obj 134 -143 f;
#X obj 109 -67 sel;
#X obj 109 -97 mod 10;
#X obj 247 -147 + 1;
#X floatatom 185 882 5 0 0 0 - - -;
#X obj 27 892 random;
#X floatatom 22 933 5 0 0 0 - - -;
#X obj 132 -190 r BB;
#X obj 8 757 f;
#X obj 49 839 sel;
#X obj 41 758 + 1;
#X obj 133 -166 spigot-toggle_red;
#X obj 10 715 spigot-toggle_red;
#X obj 464 312 spigot-toggle_red;
#X obj 25 802 mod 100;
#X obj -102 138 openpanel;
#X obj -90 328 openpanel;
#X obj 287 405 r lo;
#X obj 468 216 spigot-toggle_red;
#X obj 470 158 r T$;
#X obj 668 406 outlet;
#X obj 387 100 r BB;
#X obj 598 145 r trgrA;
#X obj 597 169 r trgrB;
#X floatatom 595 307 2 0 0 0 - - -;
#X obj 596 241 spigot-toggle_vert;
#X obj 593 335 outlet;
#X obj 512 387 * 100;
#X obj 11 692 r BB;
#X obj 387 154 r BB1;
#X obj 153 -166 spigot-toggle_red;
#X obj 46 715 spigot-toggle_red;
#X obj 177 -190 r BB1;
#X obj 53 690 r BB1;
#X obj 224 260 s TRGnB_@sA;
#X obj 231 337 s TRGnB_@sB;
#X obj 86 757 * 1;
#X obj 510 269 * 100;
#X floatatom 202 108 5 0 0 0 - - -;
#X obj 465 346 spigot-toggle_red;
#X obj 468 180 r T1;
#X obj 160 -96 * 1;
#X obj 0 189 folder2;
#X obj 1 361 folder3;
#X floatatom -89 235 5 0 0 2 - - -;
#X obj -88 255 spigot-toggle_red;
#X obj -52 668 outlet;
#X obj -49 646 bng 15 250 50 0 empty empty empty 17 7 0 10 -262144
-1 -1;
#X obj 379 481 s øSbangA;
#X obj 202 379 s soundfileA;
#X msg 200 195 open \$1;
#X obj 276 940 splitfilename;
#X obj 8 974 splitfilename;
#X obj 393 386 bng 15 250 50 0 empty empty empty 17 7 0 10 -262144
-1 -1;
#X obj 354 556 s TRGnB_@s B1fromselnd;
#X obj 202 134 s movieA;
#X obj 209 223 r lo;
#X obj 1 207 cnv 15 180 8 empty empty empty 10 9 1 10 -1 -260097 0
;
#X obj 57 213 cnv 15 122 18 empty empty °_________% 30 11 1 14 -4034
-1 0;
#X obj 137 231 tgl 20 0 empty empty BA 3 10 1 12 -4034 -1 -1 0 1;
#X floatatom 137 213 6 0 0 3 - - -;
#X obj 58 231 tgl 20 0 empty empty A 5 9 1 12 -4034 -1 -1 0 1;
#X obj 75 231 tgl 20 0 empty empty B 6 9 0 12 -4034 -1 -1 0 1;
#X floatatom 58 213 5 0 0 2 - - -;
#X obj 158 231 tgl 20 0 empty empty BB 3 10 1 12 -4034 -1 -1 0 1;
#X obj 58 385 cnv 15 120 20 empty sendV=A °________% 33 13 1 14 -24198
-1 0;
#X obj 138 404 tgl 20 0 empty sendV=A BA 3 9 1 12 -24198 -1 -1 0 1
;
#X floatatom 138 387 6 0 0 1 - - -;
#X obj 61 404 tgl 20 0 empty sendV=A A 5 9 0 12 -24198 -1 -1 0 1;
#X obj 79 404 tgl 20 0 empty sendV=A B 5 9 1 12 -24198 -1 -1 0 1;
#X floatatom 61 387 5 0 0 2 - - -;
#X obj 158 404 tgl 20 0 empty sendV=A BB 2 9 1 12 -24198 -1 -1 0 1
;
#X obj 468 244 spigot-toggle_red;
#X obj 596 215 spigot-toggle_vert;
#X obj 387 243 spigot-toggle_red;
#X obj 387 347 spigot-toggle_red;
#X obj 517 166 spigot-toggle_vert;
#X obj 512 79 spigot-toggle_vert;
#X obj 511 55 r A;
#X obj 518 139 r B;
#X obj 513 103 * 1;
#X obj 512 190 * 1;
#X obj 640 309 s trgrø@SA;
#X obj -998 227 s save_sNd_A;
#X obj -850 243 s save_sNd_B;
#X obj -714 242 s save_sNd_BB;
#X obj -575 242 s save_sNd_BB1;
#X obj -577 203 r send_save_sNd_BB1;
#X obj -715 203 r send_save_sNd_BB;
#X obj -849 203 r send_save_sNd_B;
#X obj -997 187 r send_save_sNd_A;
#X obj -717 414 s save_sNd_A;
#X obj -840 410 s save_sNd_B;
#X obj -977 398 s save_sNd_BB;
#X obj -566 411 s save_sNd_BB1;
#X obj -568 376 r send_save_sNd_BB1;
#X obj -978 363 r send_save_sNd_BB;
#X obj -841 376 r send_save_sNd_B;
#X obj -718 380 r send_save_sNd_A;
#X obj -435 203 r send_save_every;
#X obj -433 243 s save_sNd_every;
#X obj -429 376 r send_save_every;
#X obj -427 411 s save_every;
#X obj 1 148 cnv 2 180 20 empty empty empty 0 14 1 14 -4034 -1 0;
#X msg -601 76 label \$1;
#X obj -600 105 s folder2_cnv;
#X obj -600 47 symbol;
#X obj -617 3 r folder2;
#X obj -206 165 s folder2;
#X msg -370 116 nada_here;
#X msg -379 728 label \$1;
#X obj -378 699 symbol;
#X msg -196 366 nada_here;
#X obj -373 669 r folder3;
#X obj -380 779 s folder3_cnv;
#X obj -196 322 s folder3;
#X obj 2 381 cnv 15 180 6 empty empty empty 10 9 1 10 -1 -260097 0
;
#X obj 0 424 cnv 33 181 133 empty empty empty 6 12 1 14 -1 -66577 0
;
#X floatatom 201 452 12 0 0 0 - - -;
#X obj -67 709 s øSbangA;
#X obj 1 322 cnv 3 180 18 empty empty empty 0 14 1 14 -4034 -1 0;
#X obj 0 1 cnv 15 181 150 empty empty OPEN_VIDEO__Write/select 5 146
1 12 -1 -4034 0;
#X floatatom -97 -134 5 0 0 0 - - -;
#X obj -105 -74 s sendV=A;
#X obj -99 -191 sel;
#X obj 96 213 bng 40 250 50 0 empty empty RDM 6 20 1 12 -4034 -1 -1
;
#X obj 99 387 bng 38 250 50 0 empty sendV=A RDM 6 20 1 12 -24198 -1
-1;
#X msg -64 -160 22;
#X obj -253 231 r lo;
#X obj 554 440 s Tø@SA;
#X msg -215 114 starter/*.mov;
#X msg -323 425 starter/*.wav;
#X obj -103 -246 r lo;
#X symbolatom 2 151 25 0 0 0 - - -;
#X msg -368 30 starter/*.mov;
#X obj 0 168 cnv 15 182 20 empty \$10-cnv nada_here 4 10 0 12 -1 -4034
0;
#X obj -214 -73 s \$10-cnv;
#X msg -214 -47 label \$1;
#X obj -214 -99 symbol;
#X obj 6 43 bng 15 500 500 0 empty empty avBO2 18 6 1 10 -260097 -1
-260097;
#X msg -216 48 avBO2/*.mov;
#X obj 6 60 bng 15 500 500 0 empty empty avBO3 18 6 1 10 -260097 -1
-260097;
#X msg -216 70 avBO3/*.mov;
#X obj 6 26 bng 15 500 500 0 empty empty avBO1 18 6 1 10 -260097 -1
-260097;
#X obj 6 77 bng 15 500 500 0 empty empty avBO4 18 6 1 10 -260097 -1
-260097;
#X msg -216 26 avBO1/*.mov;
#X msg -216 92 avBO4/*.mov;
#X obj 82 43 bng 15 500 500 0 empty empty axe_reboot 18 6 1 10 -260097
-1 -260097;
#X obj 82 60 bng 15 500 500 0 empty empty greenscreen 18 6 1 10 -260097
-1 -260097;
#X obj 82 26 bng 15 500 500 0 empty empty kitchina 18 6 1 10 -260097
-1 -260097;
#X obj 82 77 bng 15 500 500 0 empty empty vsmpl 18 6 1 10 -260097 -1
-260097;
#X msg -369 52 axe_reboot/*.mov;
#X obj 6 95 bng 15 500 500 0 empty empty starter 18 6 1 10 -260097
-1 -260097;
#X obj 0 341 cnv 15 182 22 empty \$11-cnv building/*.wav 7 12 0 12
-1 -4034 0;
#X symbolatom 4 322 25 0 0 0 - - -;
#X msg -191 603 label \$1;
#X obj -194 576 symbol;
#X obj 6 478 bng 15 500 500 0 empty empty kitchina 18 6 1 10 -260097
-1 -260097;
#X obj 6 495 bng 15 500 500 0 empty empty axe_reboot 18 6 1 10 -260097
-1 -260097;
#X obj 6 461 bng 15 500 500 0 empty empty starter1 18 6 1 10 -260097
-1 -260097;
#X obj 6 512 bng 15 500 500 0 empty empty pub70 18 6 1 10 -260097 -1
-260097;
#X obj -196 629 s \$11-cnv;
#X msg -197 407 starter/*.wav;
#X obj 6 444 bng 15 500 500 0 empty empty starter 18 6 1 10 -260097
-1 -260097;
#X msg -197 451 kitchina/*.wav;
#X msg -197 472 axe_reboot/*.wav;
#X msg -197 493 pub70/*.wav;
#X obj 93 460 bng 15 500 500 0 empty empty asmlp2 18 6 1 10 -260097
-1 -260097;
#X obj 93 476 bng 15 500 500 0 empty empty DrumaBank 18 6 1 10 -260097
-1 -260097;
#X obj 93 444 bng 15 500 500 0 empty empty asmpl 18 6 1 10 -260097
-1 -260097;
#X msg -323 497 DrumaBank/*.wav;
#X msg -323 473 asmlp2/*.wav;
#X msg -369 94 vsmpl/*.mov;
#X msg -323 448 asmpl/*.wav;
#X msg -197 430 starter1/*.wav;
#X msg 319 34 starter/*.wav;
#X msg 318 -30 axe_reboot/*.wav;
#X msg 318 12 vsmpl/*.wav;
#X msg 471 10 avBO4/*.wav;
#X msg 471 -12 avBO3/*.wav;
#X msg 471 -34 avBO2/*.wav;
#X msg 471 -56 avBO1/*.wav;
#X obj 315 -214 symbol;
#X obj 320 102 s folder3;
#X msg 310 -183 label \$1;
#X obj 305 -157 s \$11-cnv;
#X msg -216 2 inakitch/*.mov;
#X msg 318 -51 inakitch/*.wav;
#X msg 318 -9 greenscreen/*.wav;
#X msg -369 73 greenscreen/*.mov;
#X obj 3 213 cnv 10 36 38 empty empty empty 60 22 1 10 -1 -262144 0
;
#X obj 0 296 cnv 15 181 25 empty empty OPEN_AUDIO__Write/select 5 20
1 12 -1 -4034 0;
#X obj 2 388 cnv 10 40 38 empty empty empty 60 22 1 10 -1 -262144 0
;
#X obj 178 146 cnv 3 3 400 empty empty empty 20 12 0 14 -1 -66577 0
;
#X obj 0 146 cnv 3 3 408 empty empty empty 20 12 0 14 -1 -66577 0;
#X obj 39 233 bng 18 500 500 0 empty empty load -28 9 1 12 -4034 -1
-4034;
#X obj 39 214 bng 18 500 500 0 empty empty clear -28 9 1 12 -4034 -1
-4034;
#X obj 1 251 cnv 15 180 45 empty empty empty 10 9 1 10 -1 -260097 0
;
#X obj 42 388 bng 18 500 500 0 empty empty clear -28 9 1 12 -4034 -1
-4034;
#X obj 42 406 bng 18 500 500 0 empty empty load -28 9 1 12 -4034 -1
-4034;
#X obj 79 265 tgl 25 0 empty empty V 3 14 1 28 -1 -4034 -4034 0 1;
#X obj -2 425 cnv 15 180 6 empty empty empty 10 9 1 10 -1 -260097 0
;
#X msg -101 -161 76;
#X msg -103 -105 color \$1 22;
#X obj 2 271 cnv 12 75 12 empty empty empty 60 22 1 10 -4034 -262144
0;
#X obj 105 271 cnv 12 75 12 empty empty empty 60 22 1 10 -4034 -262144
0;
#X connect 1 0 3 0;
#X connect 2 0 20 1;
#X connect 5 0 19 0;
#X connect 6 0 15 0;
#X connect 6 0 18 0;
#X connect 8 0 11 1;
#X connect 8 0 18 1;
#X connect 8 0 95 1;
#X connect 9 0 10 1;
#X connect 9 0 40 1;
#X connect 9 0 15 1;
#X connect 9 0 95 1;
#X connect 10 0 59 0;
#X connect 11 0 49 0;
#X connect 12 0 96 0;
#X connect 12 0 97 0;
#X connect 13 0 17 1;
#X connect 13 0 61 1;
#X connect 13 0 97 1;
#X connect 13 0 47 1;
#X connect 14 0 16 1;
#X connect 14 0 94 1;
#X connect 14 0 96 1;
#X connect 14 0 47 1;
#X connect 15 0 75 0;
#X connect 16 0 59 0;
#X connect 17 0 49 0;
#X connect 18 0 75 0;
#X connect 20 0 21 0;
#X connect 21 0 85 0;
#X connect 22 0 24 0;
#X connect 22 0 25 0;
#X connect 23 0 147 0;
#X connect 24 0 23 0;
#X connect 25 0 22 1;
#X connect 26 0 27 1;
#X connect 27 0 28 0;
#X connect 28 0 92 0;
#X connect 29 0 33 0;
#X connect 30 0 32 0;
#X connect 30 0 36 0;
#X connect 31 0 148 0;
#X connect 32 0 30 1;
#X connect 33 0 22 0;
#X connect 34 0 30 0;
#X connect 35 0 42 0;
#X connect 35 0 151 0;
#X connect 36 0 31 0;
#X connect 37 0 64 1;
#X connect 37 0 64 0;
#X connect 37 0 130 0;
#X connect 38 0 65 1;
#X connect 38 0 65 0;
#X connect 39 0 89 0;
#X connect 40 0 42 0;
#X connect 40 0 151 0;
#X connect 41 0 40 0;
#X connect 43 0 6 0;
#X connect 44 0 95 0;
#X connect 44 0 99 1;
#X connect 45 0 47 0;
#X connect 45 0 98 1;
#X connect 46 0 48 0;
#X connect 46 0 104 0;
#X connect 47 0 46 0;
#X connect 49 0 92 0;
#X connect 50 0 34 0;
#X connect 51 0 12 0;
#X connect 52 0 22 0;
#X connect 53 0 30 0;
#X connect 54 0 52 0;
#X connect 55 0 53 0;
#X connect 58 0 36 1;
#X connect 59 0 85 0;
#X connect 60 0 77 0;
#X connect 61 0 42 0;
#X connect 61 0 151 0;
#X connect 62 0 61 0;
#X connect 62 0 94 0;
#X connect 62 0 35 0;
#X connect 63 0 24 1;
#X connect 64 0 66 0;
#X connect 64 1 72 0;
#X connect 64 1 74 0;
#X connect 64 2 2 0;
#X connect 65 1 73 0;
#X connect 65 1 4 0;
#X connect 65 1 71 0;
#X connect 65 2 26 0;
#X connect 66 0 67 0;
#X connect 67 0 92 0;
#X connect 69 0 68 0;
#X connect 69 0 141 0;
#X connect 72 0 77 0;
#X connect 73 1 5 0;
#X connect 74 1 1 0;
#X connect 75 0 70 0;
#X connect 75 0 7 0;
#X connect 78 0 82 0;
#X connect 81 0 33 1;
#X connect 81 0 107 0;
#X connect 82 0 63 0;
#X connect 82 0 122 0;
#X connect 83 0 9 0;
#X connect 83 0 105 0;
#X connect 83 0 56 0;
#X connect 84 0 14 0;
#X connect 84 0 106 0;
#X connect 84 0 57 0;
#X connect 85 0 64 0;
#X connect 86 0 52 1;
#X connect 86 0 108 0;
#X connect 88 0 34 1;
#X connect 88 0 115 0;
#X connect 88 0 56 0;
#X connect 89 0 58 0;
#X connect 89 0 124 0;
#X connect 90 0 56 0;
#X connect 90 0 8 0;
#X connect 90 0 113 0;
#X connect 91 0 57 0;
#X connect 91 0 13 0;
#X connect 91 0 114 0;
#X connect 92 0 69 0;
#X connect 92 0 65 0;
#X connect 93 0 53 1;
#X connect 93 0 116 0;
#X connect 93 0 57 0;
#X connect 94 0 42 0;
#X connect 94 0 151 0;
#X connect 95 0 46 0;
#X connect 96 0 75 0;
#X connect 97 0 75 0;
#X connect 98 0 103 0;
#X connect 99 0 102 0;
#X connect 100 0 99 0;
#X connect 101 0 98 0;
#X connect 102 0 10 0;
#X connect 102 0 11 0;
#X connect 103 0 17 0;
#X connect 103 0 16 0;
#X connect 109 0 86 0;
#X connect 110 0 81 0;
#X connect 111 0 84 0;
#X connect 112 0 83 0;
#X connect 117 0 93 0;
#X connect 118 0 88 0;
#X connect 119 0 91 0;
#X connect 120 0 90 0;
#X connect 121 0 82 0;
#X connect 123 0 89 0;
#X connect 126 0 127 0;
#X connect 128 0 126 0;
#X connect 131 0 160 0;
#X connect 133 0 132 0;
#X connect 134 0 178 0;
#X connect 135 0 133 0;
#X connect 140 0 71 0;
#X connect 144 0 225 0;
#X connect 146 0 224 0;
#X connect 146 1 149 0;
#X connect 147 0 20 0;
#X connect 148 0 27 0;
#X connect 149 0 144 0;
#X connect 150 0 152 0;
#X connect 150 0 153 0;
#X connect 152 0 130 0;
#X connect 153 0 137 0;
#X connect 154 0 224 0;
#X connect 155 0 130 0;
#X connect 155 0 160 0;
#X connect 156 0 160 0;
#X connect 156 0 130 0;
#X connect 159 0 158 0;
#X connect 160 0 159 0;
#X connect 161 0 162 0;
#X connect 161 0 202 0;
#X connect 162 0 160 0;
#X connect 162 0 130 0;
#X connect 163 0 164 0;
#X connect 163 0 201 0;
#X connect 164 0 160 0;
#X connect 164 0 130 0;
#X connect 165 0 167 0;
#X connect 165 0 203 0;
#X connect 166 0 168 0;
#X connect 166 0 200 0;
#X connect 167 0 160 0;
#X connect 167 0 130 0;
#X connect 168 0 160 0;
#X connect 168 0 130 0;
#X connect 169 0 173 0;
#X connect 169 0 198 0;
#X connect 170 0 211 0;
#X connect 170 0 210 0;
#X connect 171 0 208 0;
#X connect 171 0 209 0;
#X connect 172 0 194 0;
#X connect 172 0 199 0;
#X connect 173 0 160 0;
#X connect 173 0 130 0;
#X connect 174 0 156 0;
#X connect 174 0 197 0;
#X connect 176 0 178 0;
#X connect 176 0 137 0;
#X connect 177 0 183 0;
#X connect 178 0 177 0;
#X connect 179 0 186 0;
#X connect 180 0 187 0;
#X connect 181 0 196 0;
#X connect 182 0 188 0;
#X connect 184 0 178 0;
#X connect 184 0 137 0;
#X connect 185 0 184 0;
#X connect 186 0 178 0;
#X connect 186 0 137 0;
#X connect 187 0 178 0;
#X connect 187 0 137 0;
#X connect 188 0 178 0;
#X connect 188 0 137 0;
#X connect 189 0 193 0;
#X connect 190 0 192 0;
#X connect 191 0 195 0;
#X connect 192 0 178 0;
#X connect 192 0 137 0;
#X connect 193 0 178 0;
#X connect 193 0 137 0;
#X connect 194 0 160 0;
#X connect 194 0 130 0;
#X connect 195 0 178 0;
#X connect 195 0 137 0;
#X connect 196 0 178 0;
#X connect 196 0 137 0;
#X connect 197 0 204 0;
#X connect 197 0 205 0;
#X connect 198 0 204 0;
#X connect 198 0 205 0;
#X connect 199 0 204 0;
#X connect 199 0 205 0;
#X connect 200 0 204 0;
#X connect 201 0 204 0;
#X connect 201 0 205 0;
#X connect 202 0 204 0;
#X connect 202 0 205 0;
#X connect 203 0 204 0;
#X connect 203 0 205 0;
#X connect 204 0 206 0;
#X connect 206 0 207 0;
#X connect 208 0 160 0;
#X connect 208 0 130 0;
#X connect 209 0 204 0;
#X connect 209 0 205 0;
#X connect 210 0 204 0;
#X connect 210 0 205 0;
#X connect 211 0 160 0;
#X connect 211 0 130 0;
#X connect 217 0 37 0;
#X connect 218 0 131 0;
#X connect 218 0 64 2;
#X connect 220 0 134 0;
#X connect 220 0 65 2;
#X connect 221 0 38 0;
#X connect 222 0 146 0;
#X connect 222 0 67 1;
#X connect 224 0 144 0;
#X connect 225 0 145 0;
#X coords 0 -1 1 1 182 558 2 0 0;
