#N canvas 306 71 770 878 12;
#N canvas 67 224 450 432 :: 0;
#X text 24 16 the format [pix_film] is able to decode depends on the
system you are running Gem.;
#X text 30 101 Win32: [pix_film] should be able to decode AVIs (all
installed codecs). If you are lucky and your version of Gem is compiled
with quicktime-support and you have quicktime installed on your machine
\, you might be able to play back quicktime MOVs.;
#X text 31 63 macOS-X: [pix_film] should be ablte to decode quicktime
MOVs.;
#X text 32 175 linux: that's a bit tricky. Since there is no "native"
video-format for linux it heavily depends on what you have installed
on your machine and how Gem has been compiled. If your system supports
it \, [pix_film] is able to use quicktime4linux/libquicktime to decode
quicktime-MOVs \, libmpeg1/libmpeg3 to decode MPEG2-videos and libaviplay
which opens a wide range of supported formats (with the possibility
to install additional codec-plugins) \, from AVI via MPEG2 to DivX
\, although i have found MPEG support rather unstable. libaviplay does
not support quicktime decoding. There is also some ruddy ffmpeg support
(apart from the one supplied by libaviplay).;
#X text 36 351 although one wouldn't believe it \, but i have found
that under linux i could play most formats...;
#X restore 845 352 pd :: FORMATS;
#X msg 477 478 label \$1;
#X floatatom 562 -256 5 0 0 0 - - -;
#X msg 378 -463 avBO/*.mov;
#X msg 376 -432 vsmpl/*.mov;
#X msg 600 480 label \$1;
#X msg 731 480 label \$1;
#X obj 958 -95 outlet;
#X obj 1263 6 inlet;
#X floatatom 1264 50 5 0 0 0 - - -;
#X obj 1263 6 inlet;
#X obj 1117 104 r B;
#X obj 1054 1 bng 15 250 50 0 empty empty empty 17 7 0 10 -262144 -1
-1;
#X obj 1118 -271 r BB;
#X obj 1294 84 outlet;
#X obj 1086 129 tgl 15 0 empty empty empty 17 7 0 10 -262144 -1 -1
0 1;
#X obj 1089 26 tgl 15 0 empty empty empty 17 7 0 10 -262144 -1 -1 0
1;
#X obj 1056 23 spigot-toggle_red;
#X obj 1115 24 spigot-toggle_red;
#X obj 1116 121 spigot-toggle_red;
#X obj 1054 108 bng 15 250 50 0 empty empty empty 17 7 0 10 -262144
-1 -1;
#X obj 1053 128 spigot-toggle_red;
#X obj 1084 155 tgl 15 0 empty empty empty 17 7 0 10 -262144 -1 -1
0 1;
#X obj 1088 60 tgl 15 0 empty empty empty 17 7 0 10 -262144 -1 -1 0
1;
#X obj 1055 58 spigot-toggle_red;
#X obj 1114 58 spigot-toggle_red;
#X obj 1115 153 spigot-toggle_red;
#X obj 1053 153 spigot-toggle_red;
#X obj 513 -280 random;
#X obj 529 -176 f;
#X obj 528 -125 sel;
#X obj 529 -147 mod 10;
#X obj 611 -175 + 1;
#X floatatom 516 374 5 0 0 0 - - -;
#X obj 467 350 random;
#X floatatom 467 373 5 0 0 0 - - -;
#X obj 527 -223 r BB;
#X obj 477 224 f;
#X obj 476 291 sel;
#X obj 506 224 + 1;
#X obj 539 -203 spigot-toggle_red;
#X obj 452 181 spigot-toggle_red;
#X obj 459 141 r BB;
#X obj 1012 77 spigot-toggle_red;
#X obj 1157 156 spigot-toggle_red;
#X floatatom 588 363 5 0 0 0 - - -;
#X obj 477 269 mod 100;
#X obj 15 55 bng 15 250 50 0 empty empty a/v 1 -10 1 10 -191407 -4034
-1;
#X obj 137 93 bng 15 250 50 0 empty empty Asnd -3 -10 1 10 -191407
-4034 -1;
#X obj 44 21 bng 15 250 50 0 empty empty Vsnd -2 -10 1 10 -191407 -4034
-1;
#X obj 832 -25 openpanel;
#X obj 658 315 openpanel;
#X obj 619 -39 r lo;
#X obj 1090 -113 r chgmtstpA envoi un top départ ou alors un top départ
seulement à l'enveloppe... sinon il suffit de pas mettre de s sons
de clicks.. aussi;
#X obj 1148 22 spigot-toggle_red;
#X obj 1169 -1 r T$;
#X obj 1295 115 outlet;
#X obj 1044 -40 r BB;
#X obj 1207 -39 r trgrA;
#X obj 1205 -12 r trgrB;
#X floatatom 1204 127 2 0 0 0 - - -;
#X obj 1206 82 spigot-toggle_vert;
#X obj 1206 103 spigot-toggle_red;
#X obj 1295 145 outlet;
#X obj 1295 115 outlet;
#X obj 284 90 bng 12 250 50 0 empty empty clr_bnk -38 6 0 8 -262144
-1 -1;
#X obj 285 20 bng 12 250 50 0 empty empty clr_bnk -38 6 0 9 -262144
-1 -1;
#X obj 542 11 bng 20 250 50 0 empty empty rdm 1 10 0 10 -1 -262144
-262144;
#X obj 572 11 tgl 20 0 empty empty BB 4 10 0 10 -1 -262144 -262144
0 1;
#X floatatom 615 12 4 0 0 1 every - -;
#X obj 543 68 bng 20 250 50 0 empty empty rdm 1 10 0 10 -1 -262144
-262144;
#X obj 573 69 tgl 20 0 empty empty BB 4 10 0 10 -1 -262144 -262144
0 1;
#X obj 457 11 tgl 20 0 empty empty A 6 11 0 12 -1 -262144 -262144 0
1;
#X obj 489 11 tgl 20 0 empty empty B 6 11 0 12 -1 -262144 -262144 0
1;
#X obj 456 68 tgl 20 0 empty empty A 6 11 0 12 -1 -262144 -262144 0
1;
#X obj 488 68 tgl 20 0 empty empty B 6 11 0 12 -1 -262144 -262144 0
1;
#X floatatom 616 70 4 0 0 1 every - -;
#X obj 1114 208 * 100;
#X obj 890 -125 * 100;
#X obj 376 91 folder1;
#X obj 375 34 folder;
#X obj 599 523 s \$1-cnv;
#X obj 480 522 s \$0-cnv;
#X obj 1051 86 r BB1;
#X msg 383 737 asmpl/*.wav;
#X floatatom 317 36 3 0 0 2 - - -;
#X floatatom 315 93 3 0 0 0 - - -;
#X obj 351 34 bng 20 250 50 0 empty empty open_video -30 -10 0 14 -262144
-1 -1;
#X obj 351 91 bng 20 250 50 0 empty empty open_audio -30 -10 0 14 -262144
-262144 -1;
#X obj 78 93 bng 15 250 50 0 empty empty drm 1 -10 1 10 -191407 -4034
-1;
#X msg 379 -267 DrumaBank/*.aiff;
#X obj 44 93 bng 15 250 50 0 empty empty aplle -3 -10 1 10 -191407
-4034 -1;
#X msg 378 -292 APL/*.wav;
#X obj 569 -203 spigot-toggle_red;
#X obj 499 182 spigot-toggle_red;
#X obj 593 11 tgl 20 0 empty empty BB1 1 10 0 10 -1 -262144 -262144
0 1;
#X obj 498 141 r BB1;
#X obj 557 -223 r BB1;
#X obj 1114 -1 r A;
#X floatatom 1079 270 5 0 0 0 - - -;
#X obj 536 224 * 1;
#X obj 1149 102 spigot-toggle_red;
#X obj 1170 79 r T1;
#X msg 382 703 avBO/*.wav;
#X obj 594 69 tgl 20 0 empty empty BB1 1 10 0 10 -1 -262144 -262144
0 1;
#X obj 566 -80 * 1;
#X obj 105 93 bng 15 250 50 0 empty empty 2 3 -10 0 10 -191407 -1 -1
;
#X obj 78 21 bng 15 250 50 0 empty empty clmt -3 -10 0 10 -191407 -1
-1;
#X obj 78 55 bng 15 250 50 0 empty empty mtg -2 -8 0 10 -191407 -1
-1;
#X msg 383 664 bassnNspeed/*.wav;
#X msg 377 -361 climat/*.mov;
#X msg 377 -401 montage_bo/*.mov;
#X msg 381 769 montage_bo/*.wav;
#X obj 284 54 tgl 15 0 empty empty v 2 7 0 18 -262144 -1 -1 0 1;
#X obj 337 190 spigot-toggle_red;
#X obj 2 406 outlet;
#X obj 538 598 bng 15 250 50 0 empty empty empty 17 7 0 10 -262144
-1 -1;
#X msg 833 -74 open \$1;
#X obj 771 -151 s moviefileB;
#X obj 195 428 s audiofileB;
#X obj 609 564 s øSbangB;
#X obj 169 93 bng 15 250 50 0 empty empty empty -5 20 1 10 -191407
-4034 -1;
#X obj 201 93 bng 15 250 50 0 empty empty empty -5 20 1 10 -191407
-4034 -1;
#X obj 137 21 bng 15 250 50 0 empty empty empty -5 20 1 10 -191407
-4034 -1;
#X obj 169 21 bng 15 250 50 0 empty empty empty -5 20 1 10 -191407
-4034 -1;
#X obj 201 21 bng 15 250 50 0 empty empty empty -5 20 1 10 -191407
-4034 -1;
#X obj 137 55 bng 15 250 50 0 empty empty empty -5 20 1 10 -191407
-4034 -1;
#X obj 169 55 bng 15 250 50 0 empty empty empty -5 20 1 10 -191407
-4034 -1;
#X obj 201 55 bng 15 250 50 0 empty empty sel 1 -10 1 10 -191407 -4034
-1;
#X obj 44 55 bng 15 250 50 0 empty empty empty -5 20 1 10 -191407 -4034
-1;
#X obj 15 21 bng 15 250 50 0 empty empty A/V 1 -10 1 10 -191407 -4034
-1;
#X obj 15 93 bng 15 250 50 0 empty empty a/v 1 -10 1 10 -191407 -4034
-1;
#X obj 599 397 outlet;
#X obj 676 390 s audiofileB;
#X obj 105 21 bng 15 250 50 0 empty empty empty -5 20 1 10 -191407
-4034 -1;
#X obj 105 55 bng 15 250 50 0 empty empty empty -5 20 1 10 -191407
-4034 -1;
#X obj 460 441 splitfilename;
#X obj 596 445 splitfilename;
#X obj 728 445 splitfilename;
#X obj 670 614 bng 15 250 50 0 empty empty empty 17 7 0 10 -262144
-1 -1;
#X obj 612 589 > 0;
#X obj 614 613 sel;
#X floatatom 347 443 5 0 0 0 - - -;
#X obj 739 627 s TRGnB_@sA1fromselnd;
#X obj 767 271 s TRGnB_@sA1_;
#X obj 763 306 s TRGnB_@sB1_;
#X msg 376 -321 music/*.mov;
#X msg 377 634 music/*.wav;
#X obj 407 -27 folder1;
#X connect 1 0 82 0;
#X connect 2 0 28 1;
#X connect 3 0 80 0;
#X connect 4 0 80 0;
#X connect 5 0 81 0;
#X connect 6 0 81 0;
#X connect 10 0 9 0;
#X connect 11 0 19 0;
#X connect 11 0 26 0;
#X connect 12 0 17 0;
#X connect 12 0 24 0;
#X connect 15 0 19 1;
#X connect 15 0 21 1;
#X connect 16 0 18 1;
#X connect 16 0 17 1;
#X connect 18 0 78 0;
#X connect 19 0 78 0;
#X connect 19 0 44 0;
#X connect 20 0 21 0;
#X connect 20 0 27 0;
#X connect 22 0 26 1;
#X connect 22 0 27 1;
#X connect 22 0 62 1;
#X connect 22 0 101 1;
#X connect 23 0 24 1;
#X connect 23 0 25 1;
#X connect 23 0 54 1;
#X connect 23 0 61 1;
#X connect 24 0 14 0;
#X connect 25 0 77 0;
#X connect 26 0 77 0;
#X connect 27 0 14 0;
#X connect 28 0 85 0;
#X connect 29 0 31 0;
#X connect 29 0 32 0;
#X connect 30 0 67 0;
#X connect 31 0 30 0;
#X connect 32 0 29 1;
#X connect 33 0 34 1;
#X connect 34 0 35 0;
#X connect 35 0 86 0;
#X connect 36 0 40 0;
#X connect 37 0 39 0;
#X connect 37 0 46 0;
#X connect 38 0 70 0;
#X connect 39 0 37 1;
#X connect 40 0 29 0;
#X connect 41 0 37 0;
#X connect 42 0 41 0;
#X connect 43 0 79 0;
#X connect 44 0 77 0;
#X connect 45 0 132 0;
#X connect 46 0 38 0;
#X connect 47 0 3 0;
#X connect 47 0 103 0;
#X connect 48 0 84 0;
#X connect 49 0 4 0;
#X connect 50 0 117 0;
#X connect 51 0 132 0;
#X connect 51 0 133 0;
#X connect 52 0 69 0;
#X connect 52 0 76 0;
#X connect 54 0 56 0;
#X connect 55 0 54 0;
#X connect 57 0 12 0;
#X connect 58 0 61 0;
#X connect 59 0 62 0;
#X connect 60 0 63 0;
#X connect 61 0 60 0;
#X connect 62 0 60 0;
#X connect 65 0 79 2;
#X connect 66 0 80 2;
#X connect 67 0 28 0;
#X connect 68 0 40 1;
#X connect 68 0 49 0;
#X connect 69 0 105 0;
#X connect 70 0 34 0;
#X connect 71 0 41 1;
#X connect 71 0 48 0;
#X connect 71 0 51 0;
#X connect 71 0 144 0;
#X connect 72 0 16 0;
#X connect 73 0 15 0;
#X connect 74 0 23 0;
#X connect 74 0 144 0;
#X connect 75 0 22 0;
#X connect 75 0 145 0;
#X connect 76 0 100 0;
#X connect 77 0 99 0;
#X connect 77 0 86 0;
#X connect 78 0 85 0;
#X connect 79 0 142 0;
#X connect 79 1 119 0;
#X connect 79 1 132 0;
#X connect 79 1 133 0;
#X connect 79 1 138 0;
#X connect 79 2 33 0;
#X connect 80 0 43 0;
#X connect 80 1 117 0;
#X connect 80 1 136 0;
#X connect 80 2 2 0;
#X connect 83 0 20 0;
#X connect 84 0 79 0;
#X connect 85 0 114 0;
#X connect 85 0 80 0;
#X connect 86 0 79 0;
#X connect 87 0 50 0;
#X connect 88 0 51 0;
#X connect 89 0 90 0;
#X connect 90 0 79 0;
#X connect 91 0 92 0;
#X connect 92 0 79 0;
#X connect 93 0 29 0;
#X connect 94 0 37 0;
#X connect 95 0 93 1;
#X connect 96 0 94 0;
#X connect 97 0 93 0;
#X connect 98 0 18 0;
#X connect 98 0 25 0;
#X connect 100 0 46 1;
#X connect 101 0 56 0;
#X connect 102 0 101 0;
#X connect 103 0 79 0;
#X connect 104 0 94 1;
#X connect 104 0 145 0;
#X connect 105 0 31 1;
#X connect 106 0 109 0;
#X connect 107 0 110 0;
#X connect 108 0 111 0;
#X connect 108 0 112 0;
#X connect 109 0 79 0;
#X connect 110 0 80 0;
#X connect 111 0 80 0;
#X connect 112 0 79 0;
#X connect 113 0 114 1;
#X connect 114 0 79 0;
#X connect 116 0 120 0;
#X connect 116 0 115 0;
#X connect 117 0 7 0;
#X connect 117 0 118 0;
#X connect 128 0 147 0;
#X connect 128 0 146 0;
#X connect 130 0 3 0;
#X connect 131 0 103 0;
#X connect 136 1 1 0;
#X connect 137 1 5 0;
#X connect 138 1 6 0;
#X connect 139 0 143 0;
#X connect 139 0 116 0;
#X connect 140 0 141 0;
#X connect 141 1 139 0;
#X connect 142 0 140 0;
#X connect 146 0 80 0;
#X connect 147 0 79 0;
#X coords 0 -1 1 1 698 120 2 0 0;
