#N canvas 173 94 971 934 10;
#X obj 655 179 s fll0;
#X obj 787 41 *~;
#X obj 792 213 *~;
#X obj 792 182 r~ C;
#X msg 54 276 5;
#X obj 791 4 r~ A0;
#X obj 111 180 cnv 15 101 120 empty empty empty 20 12 0 16 -260097
-66577 0;
#X floatatom 118 252 4 0 0 1 glide - -;
#X floatatom 118 237 4 0 0 1 *stps - -;
#X obj 138 188 tgl 20 0 empty empty ⇋ 2 11 1 16 -260097 -1 -1 0 1
;
#X obj 185 188 tgl 20 0 empty empty C 6 10 1 12 -1 -262144 -262144
0 1;
#X obj 164 188 tgl 20 0 empty empty A 6 10 1 12 -1 -262144 -262144
1 1;
#X obj 114 21 BONKtoBBonktoB;
#X text 1118 1013 www.pd-tutorial.com;
#X text 1129 987 Johannes Kreidler;
#X floatatom 118 207 4 0 0 1 snslbt - -;
#X obj 117 188 tgl 20 0 empty empty stp 3 10 1 12 -260097 -1 -1 0 1
;
#X obj 104 177 cnv 10 13 100 empty empty empty 10 60 1 14 -1 -260097
0;
#X floatatom 654 120 11 0 0 3 - - -;
#X obj 104 500 tgl 10 0 empty empty A 6 10 1 12 -1 -1 -1 0 1;
#X obj 289 1 cnv 10 117 5 empty empty empty 21 11 1 10 -1 -260097 0
;
#X floatatom 655 159 11 0 0 3 - - -;
#X obj 654 139 * 0.01;
#X obj 282 134 bng 40 250 50 0 empty empty a∝ 13 18 0 22 -1 -260097
-260097;
#X floatatom 118 221 4 0 0 1 %gate - -;
#X obj 255 40 cnv 10 13 100 empty empty empty 10 60 1 14 -1 -260097
0;
#X obj 55 303 r lo;
#X msg 52 247 50;
#X msg 54 226 1;
#X obj 788 308 *~;
#X obj 793 480 *~;
#X msg 56 532 5;
#X obj 114 440 cnv 15 89 120 empty empty empty 20 12 0 16 -260097 -66577
0;
#X floatatom 116 524 4 0 0 1 glide - -;
#X floatatom 116 509 4 0 0 1 *stps - -;
#X obj 134 458 tgl 20 0 empty empty ⇋ 2 11 1 16 -260097 -1 -1 0 1
;
#X obj 185 458 tgl 20 0 empty empty D 6 10 1 12 -1 -262144 -262144
0 1;
#X obj 164 458 tgl 20 0 empty empty B 6 10 1 12 -1 -262144 -262144
1 1;
#X floatatom 116 479 4 0 0 1 snslbt - -;
#X obj 114 458 tgl 20 0 empty empty stp 3 10 1 12 -260097 -1 -1 0 1
;
#X obj 154 458 cnv 10 10 20 empty empty empty 10 60 1 14 -1 -260097
0;
#X floatatom 655 387 11 0 0 3 - - -;
#X floatatom 656 426 11 0 0 3 - - -;
#X obj 655 406 * 0.01;
#X obj 367 529 bng 40 250 50 0 empty empty b 13 18 0 22 -1 -260097
-260097;
#X floatatom 116 493 4 0 0 1 %gate - -;
#X obj 255 446 cnv 10 13 110 empty empty empty 10 60 1 14 -1 -260097
0;
#X obj 56 486 r lo;
#X msg 53 511 50;
#X msg 57 561 1;
#X obj 114 290 silencedown;
#X obj 792 271 r~ A1;
#X obj 793 449 r~ D;
#X obj 101 540 cnv 5 117 21 empty empty empty 21 11 1 10 -1 -260097
0;
#X obj 295 453 cnv 10 13 110 empty empty empty 10 60 1 14 -1 -260097
0;
#X obj 227 530 cnv 10 13 100 empty empty empty 10 60 1 14 -1 -260097
0;
#X obj -7 484 cnv 10 13 100 empty empty empty 10 60 1 14 -1 -260097
0;
#X obj 101 265 cnv 5 117 40 empty empty empty 21 11 1 10 -1 -260097
0;
#X obj 656 446 s fll1;
#X obj 335 67 cnv 5 1 2 empty empty ∝ -22 2 0 30 -1 -1 0;
#X obj 317 372 cnv 5 1 2 empty empty ∝ -22 2 0 30 -1 -1 0;
#X obj 101 2 cnv 5 117 20 empty empty empty 21 11 1 10 -1 -260097 0
;
#X obj 204 2 cnv 10 14 558 empty empty empty -1 148 0 15 -1 -1 0;
#X obj 101 2 cnv 10 14 558 empty empty empty -1 148 0 15 -1 -1 0;
#X obj 185 208 tgl 20 0 empty empty C 6 10 1 12 -1 -1 -1 0 1;
#X obj 185 228 tgl 20 0 empty empty C 6 10 1 12 -1 -1 -1 0 1;
#X obj 185 248 tgl 20 0 empty empty C 6 10 1 12 -1 -1 -1 0 1;
#X obj 186 479 tgl 20 0 empty empty C 6 10 1 12 -1 -1 -1 0 1;
#X obj 186 499 tgl 20 0 empty empty C 6 10 1 12 -1 -1 -1 0 1;
#X obj 186 519 tgl 20 0 empty empty C 6 10 1 12 -1 -1 -1 0 1;
#X obj 158 188 cnv 10 10 20 empty empty empty 10 60 1 14 -1 -260097
0;
#X connect 1 0 12 0;
#X connect 2 0 12 0;
#X connect 3 0 2 0;
#X connect 4 0 8 0;
#X connect 5 0 1 0;
#X connect 7 0 12 5;
#X connect 8 0 12 6;
#X connect 9 0 12 3;
#X connect 10 0 2 1;
#X connect 11 0 1 1;
#X connect 12 1 23 0;
#X connect 12 1 18 0;
#X connect 15 0 12 2;
#X connect 16 0 12 4;
#X connect 18 0 22 0;
#X connect 21 0 0 0;
#X connect 22 0 21 0;
#X connect 24 0 12 1;
#X connect 26 0 27 0;
#X connect 26 0 28 0;
#X connect 26 0 4 0;
#X connect 27 0 24 0;
#X connect 28 0 15 0;
#X connect 29 0 50 0;
#X connect 30 0 50 0;
#X connect 31 0 34 0;
#X connect 33 0 50 5;
#X connect 34 0 50 6;
#X connect 35 0 50 3;
#X connect 36 0 30 1;
#X connect 37 0 29 1;
#X connect 38 0 50 2;
#X connect 39 0 50 4;
#X connect 41 0 43 0;
#X connect 42 0 58 0;
#X connect 43 0 42 0;
#X connect 45 0 50 1;
#X connect 47 0 48 0;
#X connect 47 0 49 0;
#X connect 47 0 31 0;
#X connect 48 0 45 0;
#X connect 49 0 38 0;
#X connect 50 1 44 0;
#X connect 50 1 41 0;
#X connect 51 0 29 0;
#X connect 52 0 30 0;
#X coords 0 -1 1 1 118 559 1 100 2;
