#N canvas 709 94 971 934 10;
#X obj 655 181 s fll0;
#X obj 787 43 *~;
#X obj 792 215 *~;
#X obj 792 184 r~ C;
#X msg 54 275 5;
#X obj 791 6 r~ A0;
#X obj 105 176 cnv 15 101 120 empty empty empty 20 12 0 16 -260097
-66577 0;
#X floatatom 118 261 4 0 0 1 glide - -;
#X floatatom 118 246 4 0 0 1 *stps - -;
#X obj 180 196 tgl 20 0 empty empty ⇋ 2 11 1 16 -1 -262144 -262144
0 1;
#X obj 118 195 tgl 20 0 empty empty C 6 10 1 12 -1 -262144 -262144
0 1;
#X obj 118 176 tgl 20 0 empty empty A 6 10 1 12 -1 -262144 -262144
0 1;
#X obj 112 8 BONKtoBBonktoB;
#X obj 100 4 cnv 10 13 558 empty empty empty -1 148 0 15 -1 -1 0;
#X text 1118 1015 www.pd-tutorial.com;
#X text 1129 989 Johannes Kreidler;
#X floatatom 118 216 4 0 0 1 snslbt - -;
#X obj 180 176 tgl 20 0 empty empty stp 3 10 1 12 -1 -262144 -262144
0 1;
#X obj 104 176 cnv 10 13 100 empty empty empty 10 60 1 14 -1 -260097
0;
#X floatatom 654 122 11 0 0 3 - - -;
#X obj 103 500 tgl 10 0 empty empty A 6 10 1 12 -1 -1 -1 0 1;
#X obj 100 2 cnv 10 117 5 empty empty empty 21 11 1 10 -1 -260097 0
;
#X floatatom 655 161 11 0 0 3 - - -;
#X obj 654 141 * 0.01;
#X obj 139 176 bng 40 250 50 0 empty empty a' 13 18 2 22 -1 -260097
-260097;
#X floatatom 118 230 4 0 0 1 %gate - -;
#X obj 204 5 cnv 10 13 558 empty empty empty -1 148 0 15 -1 -1 0;
#X obj 200 176 cnv 10 13 100 empty empty empty 10 60 1 14 -1 -260097
0;
#X obj 55 305 r lo;
#X msg 52 246 50;
#X msg 54 225 1;
#X obj 788 310 *~;
#X obj 793 482 *~;
#X msg 56 534 5;
#X obj 106 443 cnv 15 101 120 empty empty empty 20 12 0 16 -260097
-66577 0;
#X floatatom 117 537 4 0 0 1 glide - -;
#X floatatom 117 522 4 0 0 1 *stps - -;
#X obj 179 472 tgl 20 0 empty empty ⇋ 2 11 1 16 -1 -262144 -262144
0 1;
#X obj 117 471 tgl 20 0 empty empty D 6 10 1 12 -1 -262144 -262144
0 1;
#X obj 117 452 tgl 20 0 empty empty B 6 10 1 12 -1 -262144 -262144
0 1;
#X floatatom 117 492 4 0 0 1 snslbt - -;
#X obj 179 452 tgl 20 0 empty empty stp 3 10 1 12 -1 -262144 -262144
0 1;
#X obj 300 715 cnv 10 13 100 empty empty empty 10 60 1 14 -1 -260097
0;
#X floatatom 655 389 11 0 0 3 - - -;
#X floatatom 656 428 11 0 0 3 - - -;
#X obj 655 408 * 0.01;
#X obj 138 452 bng 40 250 50 0 empty empty b' 13 18 2 22 -1 -260097
-260097;
#X floatatom 117 506 4 0 0 1 %gate - -;
#X obj 201 442 cnv 10 13 110 empty empty empty 10 60 1 14 -1 -260097
0;
#X obj 56 488 r lo;
#X msg 53 513 50;
#X msg 57 563 1;
#X obj 113 284 silencedown;
#X obj 792 273 r~ A1;
#X obj 793 451 r~ D;
#X obj 100 552 cnv 5 117 10 empty empty empty 21 11 1 10 -1 -260097
0;
#X obj 100 442 cnv 10 13 110 empty empty empty 10 60 1 14 -1 -260097
0;
#X obj 200 452 cnv 10 13 100 empty empty empty 10 60 1 14 -1 -260097
0;
#X obj 103 452 cnv 10 13 100 empty empty empty 10 60 1 14 -1 -260097
0;
#X obj 101 277 cnv 5 117 10 empty empty empty 21 11 1 10 -1 -260097
0;
#X obj 656 448 s fll1;
#X connect 1 0 12 0;
#X connect 2 0 12 0;
#X connect 3 0 2 0;
#X connect 4 0 8 0;
#X connect 5 0 1 0;
#X connect 7 0 12 5;
#X connect 8 0 12 6;
#X connect 9 0 12 3;
#X connect 10 0 2 1;
#X connect 11 0 1 1;
#X connect 12 1 24 0;
#X connect 12 1 19 0;
#X connect 16 0 12 2;
#X connect 17 0 12 4;
#X connect 19 0 23 0;
#X connect 22 0 0 0;
#X connect 23 0 22 0;
#X connect 25 0 12 1;
#X connect 28 0 29 0;
#X connect 28 0 30 0;
#X connect 28 0 4 0;
#X connect 29 0 25 0;
#X connect 30 0 16 0;
#X connect 31 0 52 0;
#X connect 32 0 52 0;
#X connect 33 0 36 0;
#X connect 35 0 52 5;
#X connect 36 0 52 6;
#X connect 37 0 52 3;
#X connect 38 0 32 1;
#X connect 39 0 31 1;
#X connect 40 0 52 2;
#X connect 41 0 52 4;
#X connect 43 0 45 0;
#X connect 44 0 60 0;
#X connect 45 0 44 0;
#X connect 47 0 52 1;
#X connect 49 0 50 0;
#X connect 49 0 51 0;
#X connect 49 0 33 0;
#X connect 50 0 47 0;
#X connect 51 0 40 0;
#X connect 52 1 46 0;
#X connect 52 1 43 0;
#X connect 53 0 31 0;
#X connect 54 0 32 0;
#X coords 0 -1 1 1 118 559 1 100 2;
