#N canvas 425 888 1680 1028 10;
#X obj -161 -58 pack 0 0;
#X obj -161 -37 line;
#X floatatom -162 -16 5 0 0 0 - - -;
#X obj -164 91 outlet;
#X obj -562 -764 inlet~;
#X obj -507 -763 inlet;
#X obj -443 -317 f;
#X obj -411 -319 + 1;
#X floatatom -442 -278 0 0 0 0 - - -;
#X floatatom -399 -557 0 0 0 0 >_<_back_n_forth - -;
#X obj -400 -580 inlet;
#X obj -96 -403 inlet;
#X floatatom -443 -174 5 0 0 0 - - -;
#X obj -443 -239 bng 15 250 50 0 empty empty empty 17 7 0 10 -262144
-1 -1;
#X obj -442 -259 sel 0 1;
#X floatatom -99 -376 5 0 0 0 - - -;
#X floatatom -163 49 5 0 0 0 - - -;
#X floatatom -444 -90 5 0 0 0 - - -;
#X floatatom -394 -174 5 0 0 0 - - -;
#X obj -394 -239 bng 15 250 50 0 empty empty empty 17 7 0 10 -262144
-1 -1;
#X floatatom -395 -90 5 0 0 0 - - -;
#X obj -101 -153 inlet;
#X obj -443 -317 f;
#X obj -411 -319 + 1;
#X obj -442 -296 mod 2;
#X obj -441 -419 f;
#X obj -417 -420 + 1;
#X floatatom -442 -376 0 0 0 0 - - -;
#X obj -441 -396 mod 2;
#X obj -444 -353 sel;
#X floatatom -102 -133 5 0 0 0 - - -;
#X obj -329 -326 spigot-toggle_jaune;
#X obj -320 -363 inlet;
#X obj -442 -296 mod 2;
#X obj -473 -335 spigot-toggle_jaune;
#X obj -372 -319 bng 15 250 50 0 empty empty empty 17 7 0 10 -262144
-1 -1;
#X obj -374 -276 outlet;
#X floatatom -172 -268 5 0 0 0 - - -;
#X floatatom -169 -135 5 0 0 0 - - -;
#X obj -173 -341 f;
#X obj -141 -343 + 1;
#X obj -172 -320 mod 2;
#X floatatom -128 -321 5 0 0 0 - - -;
#X obj -172 -363 bng 15 250 50 0 empty empty empty 17 7 0 10 -262144
-1 -1;
#X obj 100 100 cnv 15 90 165 empty audioanacanvadown empty 3 122 0
32 -24198 -260097 0;
#X obj -413 -471 inlet;
#X floatatom -413 -446 5 0 0 0 - - -;
#X obj -161 17 * 100;
#X obj -444 -114 * 0.01;
#X obj -394 -113 * 0.01;
#X obj -589 -626 bng 15 250 50 0 empty empty empty 17 7 0 10 -262144
-1 -1;
#X obj -32 -314 pack f f;
#X obj -164 -441 metro 200;
#X obj -164 -463 tgl 15 0 empty empty empty 17 7 0 10 -262144 -1 -1
0 1;
#X msg -32 -279 range \$2 \$1;
#X obj -32 -339 init \$2 \$1;
#X obj -30 -253 hsl 85 8 0 6 0 0 empty empty empty -2 -8 0 10 -260097
-1 -1 4200 1;
#X floatatom 100 251 15 0 0 0 - - -;
#X obj 132 -167 vsl 15 128 250 0 0 1 empty empty empty 0 -9 0 10 -262144
-1 -1 7500 1;
#X obj 164 -170 hsl 128 15 0 250 0 1 empty empty empty -2 -8 0 10 -262144
-1 -1 7417 1;
#X obj 360 -187 vsl 15 128 0 127 0 1 empty empty empty 0 -9 0 10 -262144
-1 -1 12700 1;
#X obj 392 -190 hsl 128 15 0 127 0 1 empty empty empty -2 -8 0 10 -262144
-1 -1 1533 1;
#N canvas 993 436 450 300 init 0;
#X msg 68 73 \; silence1_r color 13;
#X obj 68 34 bang;
#X connect 1 0 0 0;
#X restore 441 -83 pd init;
#X obj 390 -359 t b f;
#X obj 386 -259 t b f;
#X floatatom 386 -283 5 0 0 0 - - -;
#X floatatom 392 -385 5 0 0 0 - - -;
#X obj 356 -358 bng 15 250 50 0 empty empty empty 17 7 0 10 -262144
-1 -1;
#X obj 389 -233 + 0;
#X floatatom 111 -199 5 0 0 0 - - -;
#X floatatom 91 -147 5 0 0 0 - - -;
#X floatatom 310 -65 5 0 0 0 - - -;
#X obj 172 -232 *;
#X obj 167 -193 + 100;
#X floatatom 167 -212 5 0 0 0 - - -;
#X floatatom 80 -27 5 0 0 0 - - -;
#X obj 101 184 cnv 1 90 1 empty empty empty 2 12 0 14 -259585 -66577
0;
#X obj 294 -110 r lo;
#X msg 298 -89 148;
#X obj -172 -384 r lo;
#X floatatom 555 -164 5 0 0 0 - - -;
#X floatatom 436 -224 5 0 0 0 - - -;
#X obj 390 -338 / 92;
#X msg 356 -341 92;
#X obj 146 102 cnv 4 15 148 silencedown_s silencedown_r empty 3 82
0 32 -259841 -1 0;
#N canvas 0 0 450 300 (subpatch) 0;
#X array array33 6 float 3;
#A 0 -0.818182 -0.745454 -0.757576 -0.715151 -0.684848 -0.636364;
#X coords 0 1 6 -1 90 165 1 0 0;
#X restore 100 101 graph;
#X msg 364 116 color \$1 33;
#X floatatom 364 84 5 0 0 0 - - -;
#X obj 362 1 r lo;
#X msg -442 -216 -100;
#X msg -394 -217 100;
#X floatatom -571 -668 0 0 0 0 - - -;
#X obj -561 -710 bonk~;
#X floatatom -507 -718 5 0 0 0 - - -;
#X obj -505 -698 t b f;
#X obj -496 -636 * 1;
#X msg 360 60 16, f 4;
#X floatatom -381 -403 5 0 0 0 - - -;
#X obj -590 -601 f;
#X obj -566 -602 + 1;
#X floatatom -591 -558 0 0 0 0 - - -;
#X obj -593 -535 sel 0 1 2 3 4;
#X obj -573 -509 bng 15 250 50 0 empty empty empty 17 7 0 10 -262144
-1 -1;
#X obj -590 -509 bng 15 250 50 0 empty empty empty 17 7 0 10 -262144
-1 -1;
#X obj -537 -509 bng 15 250 50 0 empty empty empty 17 7 0 10 -262144
-1 -1;
#X obj -554 -509 bng 15 250 50 0 empty empty empty 17 7 0 10 -262144
-1 -1;
#X obj -590 -578 mod 2;
#X obj -592 -451 f;
#X obj -568 -452 + 1;
#X floatatom -593 -408 0 0 0 0 - - -;
#X obj -595 -385 sel 0 1 2 3 4;
#X obj -575 -359 bng 15 250 50 0 empty empty empty 17 7 0 10 -262144
-1 -1;
#X obj -594 -358 bng 15 250 50 0 empty empty empty 17 7 0 10 -262144
-1 -1;
#X obj -539 -359 bng 15 250 50 0 empty empty empty 17 7 0 10 -262144
-1 -1;
#X obj -556 -359 bng 15 250 50 0 empty empty empty 17 7 0 10 -262144
-1 -1;
#X obj -592 -428 mod 200;
#X floatatom -591 -289 0 0 0 0 - - -;
#X obj -593 -266 sel 0 1 2 3 4;
#X obj -573 -240 bng 15 250 50 0 empty empty empty 17 7 0 10 -262144
-1 -1;
#X obj -439 -445 bng 15 250 50 0 empty empty empty 17 7 0 10 -262144
-1 -1;
#X obj -554 -240 bng 15 250 50 0 empty empty empty 17 7 0 10 -262144
-1 -1;
#X obj -590 -309 mod 2;
#X obj 361 142 s audioanacanvadown;
#X obj -328 -276 s bonkdown;
#X msg 50 -357 \; array33 resize \$1;
#X obj -173 -240 tabread array33;
#X obj -500 -611 s bonkTdown;
#N canvas 756 150 450 300 positiondown 0;
#X obj -129 28 inlet x;
#X obj 29 30 inlet y;
#X obj -51 126 f;
#X msg -73 105 bang;
#X floatatom -35 104 3 20 60 0 - - -;
#X floatatom 0 126 3 150 200 0 - - -;
#X obj -51 149 pack 0 0;
#X text -7 104 x-position;
#X text 27 126 y-position;
#X obj -99 61 t b f;
#X obj 31 65 t b f;
#X msg -51 174 \; silencedown_r pos \$1 \$2;
#X connect 0 0 9 0;
#X connect 1 0 10 0;
#X connect 2 0 6 0;
#X connect 3 0 2 0;
#X connect 4 0 2 1;
#X connect 5 0 6 1;
#X connect 6 0 11 0;
#X connect 9 0 3 0;
#X connect 9 1 4 0;
#X connect 10 0 3 0;
#X connect 10 1 5 0;
#X restore 163 -138 pd positiondown;
#N canvas 197 138 450 300 sizedown 0;
#X obj 187 29 inlet width;
#X obj 61 28 inlet height;
#X obj 97 104 f;
#X msg 75 83 bang;
#X floatatom 113 82 3 -10 10 0 - - -;
#X floatatom 148 104 3 -10 10 0 - - -;
#X obj 97 127 pack 0 0;
#X text 141 82 x-delta;
#X text 175 104 y-delta;
#X obj 81 51 t b f;
#X obj 161 51 t b f;
#X msg 97 152 \; silencedown_r vis_size \$1 \$2;
#X connect 0 0 10 0;
#X connect 1 0 9 0;
#X connect 2 0 6 0;
#X connect 3 0 2 0;
#X connect 4 0 2 1;
#X connect 5 0 6 1;
#X connect 6 0 11 0;
#X connect 9 0 3 0;
#X connect 9 1 4 0;
#X connect 10 0 3 0;
#X connect 10 1 5 0;
#X restore 389 -160 pd sizedown;
#X msg -577 -481 -1;
#X obj -398 -6 moses;
#X obj -593 -336 f;
#X obj -569 -337 + 1;
#X obj -506 -740 * 1;
#X connect 0 0 1 0;
#X connect 1 0 2 0;
#X connect 2 0 47 0;
#X connect 4 0 92 0;
#X connect 5 0 133 0;
#X connect 6 0 7 0;
#X connect 6 0 33 0;
#X connect 7 0 6 1;
#X connect 8 0 14 0;
#X connect 9 0 34 1;
#X connect 10 0 9 0;
#X connect 11 0 15 0;
#X connect 12 0 48 0;
#X connect 13 0 89 0;
#X connect 14 0 13 0;
#X connect 14 1 19 0;
#X connect 15 0 42 0;
#X connect 15 0 66 0;
#X connect 15 0 43 0;
#X connect 15 0 55 0;
#X connect 15 0 124 0;
#X connect 16 0 3 0;
#X connect 16 0 57 0;
#X connect 17 0 0 0;
#X connect 18 0 49 0;
#X connect 19 0 90 0;
#X connect 20 0 0 0;
#X connect 21 0 30 0;
#X connect 22 0 23 0;
#X connect 22 0 24 0;
#X connect 23 0 22 1;
#X connect 25 0 26 0;
#X connect 25 0 28 0;
#X connect 25 0 97 0;
#X connect 26 0 25 1;
#X connect 27 0 29 0;
#X connect 28 0 27 0;
#X connect 29 0 34 0;
#X connect 29 0 31 0;
#X connect 29 0 35 0;
#X connect 30 0 0 1;
#X connect 31 0 39 0;
#X connect 32 0 31 1;
#X connect 33 0 8 0;
#X connect 34 0 6 0;
#X connect 35 0 36 0;
#X connect 35 0 123 0;
#X connect 37 0 56 0;
#X connect 37 0 125 0;
#X connect 38 0 0 0;
#X connect 39 0 40 0;
#X connect 39 0 41 0;
#X connect 40 0 39 1;
#X connect 41 0 37 0;
#X connect 42 0 41 1;
#X connect 43 0 39 0;
#X connect 45 0 46 0;
#X connect 46 0 28 1;
#X connect 47 0 16 0;
#X connect 48 0 17 0;
#X connect 49 0 20 0;
#X connect 50 0 98 0;
#X connect 50 0 119 0;
#X connect 51 0 54 0;
#X connect 52 0 39 0;
#X connect 53 0 52 0;
#X connect 54 0 56 0;
#X connect 55 0 51 0;
#X connect 56 0 72 0;
#X connect 58 0 75 0;
#X connect 59 0 127 0;
#X connect 59 0 69 0;
#X connect 60 0 128 1;
#X connect 61 0 71 0;
#X connect 61 0 80 0;
#X connect 61 0 128 0;
#X connect 63 0 82 0;
#X connect 63 1 82 1;
#X connect 64 0 68 0;
#X connect 64 1 68 1;
#X connect 65 0 64 0;
#X connect 66 0 67 0;
#X connect 66 0 63 0;
#X connect 67 0 83 0;
#X connect 68 0 72 1;
#X connect 68 0 81 0;
#X connect 72 0 74 0;
#X connect 73 0 59 0;
#X connect 74 0 73 0;
#X connect 75 0 127 1;
#X connect 77 0 78 0;
#X connect 78 0 60 0;
#X connect 79 0 43 0;
#X connect 81 0 61 0;
#X connect 82 0 68 0;
#X connect 83 0 82 0;
#X connect 86 0 122 0;
#X connect 87 0 86 0;
#X connect 88 0 96 0;
#X connect 89 0 12 0;
#X connect 90 0 18 0;
#X connect 91 0 95 0;
#X connect 92 0 91 0;
#X connect 92 1 50 0;
#X connect 93 0 94 0;
#X connect 94 0 95 0;
#X connect 94 1 95 1;
#X connect 95 0 126 0;
#X connect 96 0 87 0;
#X connect 98 0 99 0;
#X connect 98 0 106 0;
#X connect 99 0 98 1;
#X connect 100 0 101 0;
#X connect 101 0 103 0;
#X connect 101 1 102 0;
#X connect 101 2 105 0;
#X connect 101 3 104 0;
#X connect 102 0 129 0;
#X connect 103 0 107 0;
#X connect 106 0 100 0;
#X connect 107 0 108 0;
#X connect 107 0 115 0;
#X connect 108 0 107 1;
#X connect 109 0 110 0;
#X connect 110 0 112 0;
#X connect 110 1 111 0;
#X connect 110 2 114 0;
#X connect 110 3 113 0;
#X connect 112 0 131 0;
#X connect 115 0 109 0;
#X connect 116 0 117 0;
#X connect 117 1 118 0;
#X connect 117 2 120 0;
#X connect 119 0 25 0;
#X connect 121 0 116 0;
#X connect 125 0 38 0;
#X connect 129 0 107 0;
#X connect 131 0 132 0;
#X connect 131 0 121 0;
#X connect 132 0 131 1;
#X connect 133 0 93 0;
#X coords 0 -1 1 1 92 167 2 100 100;
