#N canvas 102 94 1430 934 10;
#X obj 100 -151 r lo;
#X obj -46 717 s env0;
#X obj -42 643 env~;
#X obj 18 225 s fll0;
#X obj 100 39 cnv 10 40 200 empty empty empty -1 148 0 15 -99865 -1
0;
#X floatatom 101 43 4 0 0 2 - - -;
#X msg 134 -127 0;
#X obj 16 204 * 0.01;
#X msg 164 -127 1;
#X floatatom 101 58 4 0 0 2 - - -;
#X floatatom 101 73 4 0 0 3 - - -;
#X floatatom 101 89 4 0 0 1 - - -;
#X floatatom 101 105 4 0 0 1 - - -;
#X obj 858 100 *~;
#X obj 198 23 tgl 20 0 empty empty BCK 2 11 1 8 -1 -262144 -262144
0 1;
#X obj 526 154 sel;
#X msg 526 176 75;
#X floatatom -45 665 5 0 0 0 - - -;
#X obj -45 684 spigot-toggle_jaune;
#X obj 617 185 *~;
#X obj 612 155 r~ C;
#X msg 103 -127 1;
#X obj 546 316 r lo;
#X floatatom 100 316 4 0 0 2 - - -;
#X obj 898 437 * 0.01;
#X msg 550 361 1;
#X floatatom 100 331 4 0 0 2 - - -;
#X floatatom 100 346 4 0 0 3 - - -;
#X floatatom 100 362 4 0 0 1 - - -;
#X floatatom 100 376 4 0 0 1 - - -;
#X floatatom 203 690 3 0 0 0 - - -;
#X obj 692 449 *~;
#X obj 820 374 sel;
#X msg 820 396 75;
#X obj 698 395 *~;
#X msg 549 340 1;
#X obj 901 464 s fll1;
#X obj 693 421 r~ A1;
#X obj 11 718 s env1;
#X obj 7 650 env~;
#X floatatom 8 673 5 0 0 0 - - -;
#X obj 12 692 spigot-toggle_jaune;
#X msg 98 -57 75;
#X msg 98 -38 25;
#X msg 100 -84 5;
#X obj 100 -106 r lo;
#X msg 102 688 75;
#X msg 103 707 25;
#X msg 102 669 5;
#X obj 102 648 r lo;
#X obj 862 63 r~ A0;
#X msg 190 -79 2;
#X floatatom 101 120 4 0 0 1 - - -;
#X obj 131 44 hsl 85 15 0 100 0 0 empty empty empty -2 -8 0 10 -99865
-260097 -1 1300 0;
#X floatatom 101 136 4 0 0 1 - - -;
#X floatatom 101 151 4 0 0 1 - - -;
#X floatatom 101 166 4 0 0 1 - - -;
#X floatatom 100 392 4 0 0 1 - - -;
#X floatatom 100 407 4 0 0 1 - - -;
#X floatatom 100 424 4 0 0 1 - - -;
#X floatatom 100 439 4 0 0 1 - - -;
#X obj 197 296 tgl 20 0 empty empty BCK 2 11 1 8 -1 -262144 -262144
0 1;
#X msg 580 340 8;
#X obj 701 362 r~ D;
#X obj 177 23 tgl 20 0 empty empty empty 6 8 1 15 -260097 -1 -262144
0 1;
#X obj 136 181 cnv 15 82 70 empty empty empty 20 12 0 14 -99865 -66577
0;
#X floatatom 136 203 3 0 0 1 snslbt - -;
#X floatatom 198 203 3 0 0 1 - - -;
#X floatatom 136 219 3 0 0 1 glide - -;
#X floatatom 198 219 3 0 0 1 - - -;
#X floatatom 198 235 3 0 0 0 nmbr/stps - -;
#X obj 198 181 tgl 20 0 empty empty stp 3 9 1 12 -260097 -1 -1 0 1
;
#X obj 136 182 tgl 20 0 empty empty >< 2 9 1 14 -260097 -1 -1 0 1;
#X obj 133 454 cnv 15 85 68 empty empty empty 20 12 0 14 -99865 -66577
0;
#X floatatom 137 475 3 0 0 1 snslbt - -;
#X floatatom 198 476 3 0 0 1 - - -;
#X floatatom 137 491 3 0 0 1 glide - -;
#X floatatom 198 492 3 0 0 1 - - -;
#X floatatom 198 508 3 0 0 0 nmbr/stps - -;
#X obj 198 455 tgl 20 0 empty empty stp 3 9 1 12 -260097 -1 -1 0 1
;
#X obj 137 455 tgl 20 0 empty empty >< 2 9 1 14 -260097 -1 -1 0 1;
#X obj 176 296 tgl 20 0 empty empty empty 6 8 1 15 -260097 -1 -262144
0 1;
#X obj 101 453 cnv 10 35 70 empty empty << 10 60 1 14 -1 -260097 0
;
#X obj 101 181 cnv 10 35 70 empty empty >> 10 60 1 14 -1 -260097 0
;
#X obj 101 22 cnv 15 75 22 empty empty enveloppe__>B 23 11 1 9 -1 -262144
0;
#X obj 101 522 cnv 6 117 35 empty empty empty 20 16 1 12 -1 -258113
0;
#X obj 131 60 hsl 85 15 0 300 0 0 empty empty empty -2 -8 0 10 -99865
-260097 -1 0 0;
#X obj 131 74 hsl 85 15 0 300 0 0 empty empty empty -2 -8 0 10 -99865
-260097 -1 0 0;
#X obj 131 90 hsl 85 15 0 300 0 0 empty empty empty -2 -8 0 10 -99865
-260097 -1 6900 0;
#X obj 131 104 hsl 85 15 0 300 0 0 empty empty empty -2 -8 0 10 -99865
-260097 -1 6500 0;
#X obj 131 120 hsl 85 15 0 300 0 0 empty empty empty -2 -8 0 10 -99865
-260097 -1 6700 0;
#X obj 131 134 hsl 85 15 0 300 0 0 empty empty empty -2 -8 0 10 -99865
-260097 -1 5100 0;
#X obj 131 150 hsl 85 15 0 300 0 0 empty empty empty -2 -8 0 10 -99865
-260097 -1 2800 0;
#X obj 131 166 hsl 85 15 0 300 0 0 empty empty empty -2 -8 0 10 -99865
-260097 -1 3600 0;
#X obj 103 184 cnv 15 28 33 empty empty a'= 2 8 1 14 -260097 -1 0;
#X floatatom 103 203 5 0 0 3 - - -;
#X obj 101 252 cnv 15 116 44 empty empty <<<<--Attack-detection 6 35
1 10 -1 -228856 0;
#X obj 104 458 cnv 15 28 33 empty empty b'= 2 8 1 14 -260097 -1 0;
#X floatatom 103 476 5 0 0 3 - - -;
#X obj 157 182 cnv 15 40 20 empty empty empty 20 12 0 14 -1 -66577
0;
#X obj 158 455 cnv 15 40 20 empty empty empty 20 12 0 14 -1 -66577
0;
#X obj 131 317 hsl 85 15 0 300 0 0 empty empty empty -2 -8 0 10 -99865
-260097 -1 6400 0;
#X obj 131 333 hsl 85 15 0 300 0 0 empty empty empty -2 -8 0 10 -99865
-260097 -1 7600 0;
#X obj 131 347 hsl 85 15 0 300 0 0 empty empty empty -2 -8 0 10 -99865
-260097 -1 5400 0;
#X obj 131 363 hsl 85 15 0 300 0 0 empty empty empty -2 -8 0 10 -99865
-260097 -1 7100 0;
#X obj 131 377 hsl 85 15 0 300 0 0 empty empty empty -2 -8 0 10 -99865
-260097 -1 7100 0;
#X obj 131 393 hsl 85 15 0 300 0 0 empty empty empty -2 -8 0 10 -99865
-260097 -1 7700 0;
#X obj 131 407 hsl 85 15 0 300 0 0 empty empty empty -2 -8 0 10 -99865
-260097 -1 6400 0;
#X obj 131 423 hsl 85 15 0 300 0 0 empty empty empty -2 -8 0 10 -99865
-260097 -1 4800 0;
#X obj 131 439 hsl 85 15 0 300 0 0 empty empty empty -2 -8 0 10 -99865
-260097 -1 2400 0;
#X obj 180 454 tgl 20 0 empty empty D 6 11 1 12 -1 -262144 -262144
0 1;
#X obj 159 454 tgl 20 0 empty empty B 6 11 1 12 -1 -262144 -262144
0 1;
#X obj 179 182 tgl 20 0 empty empty C 6 11 1 12 -1 -262144 -262144
0 1;
#X obj 158 182 tgl 20 0 empty empty A 6 11 1 12 -1 -262144 -262144
0 1;
#X obj 101 3 cnv 15 116 22 empty empty Attack-detection-->>>> 6 11
1 10 -1 -228856 0;
#X obj 101 294 cnv 15 75 22 empty empty enveloppe__>A 23 11 1 9 -1
-262144 0;
#X obj 100 2 cnv 15 2 538 empty empty empty 20 12 0 14 -1 -66577 0
;
#X obj 535 -27 s bonkAouBtoenvB;
#X obj 539 299 s bonkAouBtoenvA;
#X obj 852 312 BONKtoBBonktoB;
#X obj 229 772 BONKtoABonktoA;
#X connect 0 0 6 0;
#X connect 0 0 21 0;
#X connect 0 0 8 0;
#X connect 2 0 17 0;
#X connect 5 0 119 7;
#X connect 7 0 3 0;
#X connect 8 0 66 0;
#X connect 8 0 67 0;
#X connect 9 0 119 9;
#X connect 10 0 119 10;
#X connect 11 0 119 11;
#X connect 12 0 119 12;
#X connect 13 0 119 0;
#X connect 14 0 15 0;
#X connect 15 1 16 0;
#X connect 16 0 95 0;
#X connect 17 0 18 0;
#X connect 18 0 1 0;
#X connect 19 0 119 0;
#X connect 20 0 19 0;
#X connect 22 0 62 0;
#X connect 22 0 35 0;
#X connect 22 0 25 0;
#X connect 23 0 120 7;
#X connect 24 0 36 0;
#X connect 25 0 75 0;
#X connect 26 0 120 9;
#X connect 27 0 120 10;
#X connect 28 0 120 11;
#X connect 29 0 120 12;
#X connect 30 0 120 1;
#X connect 31 0 120 0;
#X connect 32 1 33 0;
#X connect 33 0 98 0;
#X connect 34 0 120 0;
#X connect 37 0 31 0;
#X connect 39 0 40 0;
#X connect 40 0 41 0;
#X connect 41 0 38 0;
#X connect 42 0 5 0;
#X connect 42 0 10 0;
#X connect 42 0 43 0;
#X connect 42 0 12 0;
#X connect 42 0 54 0;
#X connect 42 0 56 0;
#X connect 43 0 9 0;
#X connect 43 0 11 0;
#X connect 43 0 55 0;
#X connect 43 0 52 0;
#X connect 44 0 42 0;
#X connect 44 0 70 0;
#X connect 45 0 44 0;
#X connect 45 0 51 0;
#X connect 46 0 47 0;
#X connect 46 0 23 0;
#X connect 46 0 27 0;
#X connect 46 0 29 0;
#X connect 46 0 58 0;
#X connect 46 0 60 0;
#X connect 47 0 26 0;
#X connect 47 0 28 0;
#X connect 47 0 57 0;
#X connect 47 0 59 0;
#X connect 48 0 46 0;
#X connect 49 0 48 0;
#X connect 50 0 13 0;
#X connect 51 0 66 0;
#X connect 52 0 119 13;
#X connect 53 0 5 0;
#X connect 54 0 119 14;
#X connect 55 0 119 14;
#X connect 55 0 119 15;
#X connect 56 0 119 16;
#X connect 57 0 120 13;
#X connect 58 0 120 14;
#X connect 59 0 120 15;
#X connect 60 0 120 16;
#X connect 61 0 32 0;
#X connect 62 0 78 0;
#X connect 63 0 34 0;
#X connect 64 0 117 0;
#X connect 66 0 119 5;
#X connect 67 0 119 8;
#X connect 68 0 119 3;
#X connect 69 0 119 6;
#X connect 70 0 119 4;
#X connect 71 0 119 2;
#X connect 72 0 119 1;
#X connect 74 0 120 5;
#X connect 75 0 120 8;
#X connect 76 0 120 3;
#X connect 77 0 120 6;
#X connect 78 0 120 4;
#X connect 79 0 120 2;
#X connect 80 0 30 0;
#X connect 81 0 118 0;
#X connect 86 0 9 0;
#X connect 87 0 10 0;
#X connect 88 0 11 0;
#X connect 89 0 12 0;
#X connect 90 0 52 0;
#X connect 91 0 54 0;
#X connect 92 0 55 0;
#X connect 93 0 56 0;
#X connect 95 0 7 0;
#X connect 98 0 24 0;
#X connect 101 0 23 0;
#X connect 102 0 26 0;
#X connect 103 0 27 0;
#X connect 104 0 28 0;
#X connect 105 0 29 0;
#X connect 106 0 57 0;
#X connect 107 0 58 0;
#X connect 108 0 59 0;
#X connect 109 0 60 0;
#X connect 110 0 34 1;
#X connect 111 0 31 1;
#X connect 112 0 19 1;
#X connect 113 0 13 1;
#X connect 119 0 95 0;
#X connect 120 0 98 0;
#X coords 0 -1 1 1 118 555 1 100 2;
