#N canvas 400 272 1280 756 12;
#X obj -16720 -1265 select 0 1 2 3 4 5 6 7 8 9 10 11 12 13 14 15;
#X obj -16717 -1324 f;
#X obj -16659 -1324 f;
#X obj -16602 -1324 f;
#X obj -16544 -1324 f;
#X obj -16474 -1324 f;
#X obj -16295 -1324 f;
#X obj -16248 -1323 f;
#X obj -16191 -1322 f;
#X obj -16125 -1322 f;
#X obj -16052 -1324 f;
#X obj -16009 -1323 f;
#X obj -15966 -1322 f;
#X obj -15904 -1322 f;
#X obj -15844 -1322 f;
#X obj -16717 -1349 nbx 5 14 -1e+37 1e+37 0 0 empty empty empty 0 -8
0 10 -262144 -1 -1 208.787 256;
#X obj -16659 -1349 nbx 5 14 -1e+37 1e+37 0 0 empty empty empty 0 -8
0 10 -262144 -1 -1 139.191 256;
#X obj -16602 -1349 nbx 5 14 -1e+37 1e+37 0 0 empty empty empty 0 -8
0 10 -262144 -1 -1 69.5956 256;
#X obj -16544 -1349 nbx 5 14 -1e+37 1e+37 0 0 empty empty empty 0 -8
0 10 -262144 -1 -1 139.191 256;
#X obj -16486 -1349 nbx 5 14 -1e+37 1e+37 0 0 empty empty empty 0 -8
0 10 -262144 -1 -1 83.5148 256;
#X obj -16291 -1349 nbx 5 14 -1e+37 1e+37 0 0 empty empty empty 0 -8
0 10 -262144 -1 -1 139.191 256;
#X obj -16234 -1349 nbx 5 14 -1e+37 1e+37 0 0 empty empty empty 0 -8
0 10 -262144 -1 -1 139.191 256;
#X obj -16180 -1349 nbx 5 14 -1e+37 1e+37 0 0 empty empty empty 0 -8
0 10 -262144 -1 -1 139.191 256;
#X obj -16118 -1349 nbx 5 14 -1e+37 1e+37 0 0 empty empty empty 0 -8
0 10 -262144 -1 -1 139.191 256;
#X obj -16058 -1349 nbx 5 14 -1e+37 1e+37 0 0 empty empty empty 0 -8
0 10 -262144 -1 -1 139.191 256;
#X obj -15989 -1349 nbx 5 14 -1e+37 1e+37 0 0 empty empty empty 0 -8
0 10 -262144 -1 -1 139.191 256;
#X obj -15927 -1349 nbx 5 14 -1e+37 1e+37 0 0 empty empty empty 0 -8
0 10 -262144 -1 -1 139.191 256;
#X obj -15861 -1349 nbx 5 14 -1e+37 1e+37 0 0 empty empty empty 0 -8
0 10 -262144 -1 -1 139.191 256;
#X obj -15787 -1351 nbx 5 14 -1e+37 1e+37 0 0 empty empty empty 0 -8
0 10 -262144 -1 -1 139.191 256;
#X floatatom -15777 -1304 5 0 0 0 - - -;
#X obj -16656 -1476 inlet;
#X obj -16594 -1474 inlet;
#X obj -16537 -1475 inlet;
#X obj -16457 -1474 inlet;
#X obj -16274 -1475 inlet;
#X obj -16225 -1473 inlet;
#X obj -16150 -1476 inlet;
#X obj -16105 -1475 inlet;
#X obj -16063 -1474 inlet;
#X obj -16019 -1475 inlet;
#X obj -15974 -1475 inlet, f 6;
#X obj -15924 -1473 inlet;
#X obj -15642 -1384 inlet;
#X obj -15870 -1477 inlet;
#X floatatom -17016 -848 5 0 0 0 - - -;
#X obj -15686 -927 outlet;
#X obj -16879 -890 tgl 15 0 empty empty empty 17 7 0 10 -262144 -1
-1 0 1;
#X floatatom -16813 -892 5 0 0 0 - - -;
#X floatatom -16362 -851 5 0 0 0 - - -;
#X obj -15770 -1055 pack \$1 \$2;
#X obj -15723 -1395 inlet;
#X obj -16348 -1349 nbx 5 14 -1e+37 1e+37 0 0 empty empty empty 0 -8
0 10 -262144 -1 -1 139.191 256;
#X obj -16325 -1476 inlet;
#X obj -16405 -1349 nbx 5 14 -1e+37 1e+37 0 0 empty empty empty 0 -8
0 10 -262144 -1 -1 69.5956 256;
#X obj -16407 -1474 inlet;
#X obj -16876 -993 inlet;
#X obj -15771 -1030 line;
#X obj -17020 -821 mod;
#X floatatom -16834 -1221 5 0 0 0 - - -;
#X floatatom -15654 -1094 5 0 0 0 - - -;
#X obj -16809 -722 outlet;
#X obj -16815 -672 outlet;
#X obj -16861 -827 bng 15 250 50 0 empty empty empty 17 7 0 10 -262144
-1 -1;
#X floatatom -16971 -831 5 0 0 0 - - -;
#X floatatom -15649 -1286 12 0 0 0 - - -;
#X floatatom -16879 -917 5 0 0 0 - - -;
#X obj -16611 -998 inlet;
#X obj -16735 -889 tgl 15 0 empty empty empty 17 7 0 10 -262144 -1
-1 0 1;
#X floatatom -16644 -903 5 0 0 0 - - -;
#X obj -16751 -995 inlet;
#X floatatom -16749 -964 5 0 0 0 - - -;
#X obj -16932 -1162 r lo;
#X obj -16971 -881 inlet;
#X obj -16192 -779 r lo;
#X obj -16733 -867 metro 200;
#X obj -16880 -869 metro 200;
#X obj -16703 -963 - 1;
#X obj -16701 -936 * -1;
#X floatatom -15689 -1172 5 0 0 0 - - -;
#X obj -16408 -1325 f;
#X obj -16358 -1324 f;
#X floatatom -15612 -1339 5 0 0 0 - - -;
#X obj -17004 -968 spigot-toggle_jaunenoir;
#X obj -16856 -1465 inlet;
#X obj -16735 -841 f;
#X obj -16699 -840 + 1;
#X obj -15649 -1126 * 1;
#X obj -16321 -747 spigot-toggle_jaunenoir;
#X obj -16361 -744 spigot-toggle_jaunenoir;
#X floatatom -16516 -874 5 0 0 0 - - -;
#X obj -16598 -833 * 1;
#X obj -16893 -1414 nbx 5 14 -1e+37 1e+37 0 0 empty empty empty 0 -8
0 10 -262144 -1 -1 0.695957 256;
#X obj -16750 -1415 t b f;
#X obj -16749 -1438 nbx 5 14 -1e+37 1e+37 0 0 empty empty empty 0 -8
0 10 -262144 -1 -1 300 256;
#X obj -16750 -1389 * 1;
#X obj -16690 -1415 t b f;
#X obj -16689 -1438 nbx 5 14 -1e+37 1e+37 0 0 empty empty empty 0 -8
0 10 -262144 -1 -1 200 256;
#X obj -16690 -1389 * 1;
#X obj -16632 -1415 t b f;
#X obj -16631 -1438 nbx 5 14 -1e+37 1e+37 0 0 empty empty empty 0 -8
0 10 -262144 -1 -1 100 256;
#X obj -16632 -1389 * 1;
#X obj -16572 -1415 t b f;
#X obj -16571 -1438 nbx 5 14 -1e+37 1e+37 0 0 empty empty empty 0 -8
0 10 -262144 -1 -1 200 256;
#X obj -16572 -1389 * 1;
#X obj -16510 -1415 t b f;
#X obj -16509 -1438 nbx 5 14 -1e+37 1e+37 0 0 empty empty empty 0 -8
0 10 -262144 -1 -1 120 256;
#X obj -16510 -1389 * 1;
#X obj -16450 -1415 t b f;
#X obj -16449 -1438 nbx 5 14 -1e+37 1e+37 0 0 empty empty empty 0 -8
0 10 -262144 -1 -1 100 256;
#X obj -16450 -1389 * 1;
#X obj -16390 -1415 t b f;
#X obj -16389 -1438 nbx 5 14 -1e+37 1e+37 0 0 empty empty empty 0 -8
0 10 -262144 -1 -1 200 256;
#X obj -16390 -1389 * 1;
#X obj -16330 -1415 t b f;
#X obj -16329 -1438 nbx 5 14 -1e+37 1e+37 0 0 empty empty empty 0 -8
0 10 -262144 -1 -1 200 256;
#X obj -16330 -1389 * 1;
#X obj -16272 -1415 t b f;
#X obj -16271 -1438 nbx 5 14 -1e+37 1e+37 0 0 empty empty empty 0 -8
0 10 -262144 -1 -1 200 256;
#X obj -16272 -1389 * 1;
#X obj -16212 -1415 t b f;
#X obj -16211 -1438 nbx 5 14 -1e+37 1e+37 0 0 empty empty empty 0 -8
0 10 -262144 -1 -1 200 256;
#X obj -16212 -1389 * 1;
#X obj -16150 -1415 t b f;
#X obj -16149 -1438 nbx 5 14 -1e+37 1e+37 0 0 empty empty empty 0 -8
0 10 -262144 -1 -1 200 256;
#X obj -16150 -1389 * 1;
#X obj -16090 -1415 t b f;
#X obj -16089 -1438 nbx 5 14 -1e+37 1e+37 0 0 empty empty empty 0 -8
0 10 -262144 -1 -1 200 256;
#X obj -16090 -1389 * 1;
#X obj -16032 -1415 t b f;
#X obj -16031 -1438 nbx 5 14 -1e+37 1e+37 0 0 empty empty empty 0 -8
0 10 -262144 -1 -1 200 256;
#X obj -16032 -1389 * 1;
#X obj -15970 -1415 t b f;
#X obj -15969 -1438 nbx 5 14 -1e+37 1e+37 0 0 empty empty empty 0 -8
0 10 -262144 -1 -1 200 256;
#X obj -15970 -1389 * 1;
#X obj -15910 -1415 t b f;
#X obj -15909 -1438 nbx 5 14 -1e+37 1e+37 0 0 empty empty empty 0 -8
0 10 -262144 -1 -1 200 256;
#X obj -15910 -1389 * 1;
#X obj -16996 -1437 inlet, f 11;
#X obj -16904 -1458 r lo;
#X obj -15820 -1415 t b f;
#X obj -15819 -1438 nbx 5 14 -1e+37 1e+37 0 0 empty empty empty 0 -8
0 10 -262144 -1 -1 200 256;
#X obj -15820 -1389 * 1;
#X obj -16981 -579 t b f;
#X obj -16993 -545 * 1;
#X floatatom -16993 -520 5 0 0 0 - - -;
#X obj -17062 -755 notein;
#X obj -17041 -718 / 64;
#X obj -17096 -669 spigot-toggle_red;
#X obj -17007 -667 r LNR+TUCH;
#X obj -16997 -636 - 1;
#X obj -16999 -607 * -1;
#X floatatom -17089 -694 5 0 0 0 - - -;
#X obj -17088 -718 < 16;
#X floatatom -17041 -695 5 0 0 0 - - -;
#X floatatom -17094 -644 5 0 0 0 - - -;
#X obj -17090 -614 - 1;
#X obj -17092 -585 * -1;
#X obj -17088 -543 * 100;
#X obj -17044 -637 spigot-toggle_red;
#X obj -17044 -587 spigot-toggle_red;
#X obj -16949 -546 r lo;
#X obj -16807 -534 s lo;
#X floatatom -16913 -520 5 0 0 0 - - -;
#X obj -15635 -1172 t b f;
#X obj -16040 -528 spigot-toggle_jaunenoir;
#X obj -16914 -607 - 1;
#X obj -16916 -578 * -1;
#X obj -16042 -585 spigot-toggle_jaunenoir;
#X obj -16826 -815 spigot-toggle_jaunenoir;
#X obj -17001 -896 spigot-toggle_jaunenoir;
#X obj -16934 -969 - 1;
#X obj -16933 -944 * -1;
#X obj -16933 -1085 tgl 15 0 empty empty IT_control_chgnmt_de_step_de_stepseqT_ou_pas
17 7 0 10 -262144 -1 -1 0 1;
#X obj -16934 -1124 r IT≠T;
#X obj -15533 -1296 t b f;
#X floatatom -15526 -1226 5 0 0 0 - - -;
#X obj -15730 -1214 spigot-toggle_jaunenoir;
#X obj -15844 -1248 tgl 15 0 empty empty empty 17 7 0 10 -262144 -1
-1 0 1;
#X obj -15777 -1250 spigot-toggle_jaunenoir;
#X obj -15848 -1223 - 1;
#X obj -15850 -1195 * -1;
#X obj -15382 -1367 inlet;
#X obj -15537 -1373 r ITA;
#X obj -15510 -1258 / 1;
#X floatatom -15466 -1226 5 0 0 0 - - -;
#X text -15504 -1139 % du temps par le nombre d'iteration;
#X text -16909 -1071 ------------------------------;
#X obj -16658 -758 ==;
#X floatatom -16661 -730 5 0 0 0 - - -;
#X obj -16686 -757 spigot-toggle_jaunenoir;
#X obj -16722 -758 + 1;
#X obj -16242 -617 bng 15 250 50 0 empty empty empty 17 7 0 10 -262144
-1 -1;
#X obj -16261 -653 sel;
#X obj -16244 -548 s ≠ITstep;
#X obj -16640 -809 + 1;
#X obj -15775 -1182 + 0;
#X obj -15542 -1337 +;
#X connect 0 0 1 0;
#X connect 0 1 2 0;
#X connect 0 2 3 0;
#X connect 0 3 4 0;
#X connect 0 4 5 0;
#X connect 0 5 79 0;
#X connect 0 6 80 0;
#X connect 0 7 6 0;
#X connect 0 8 7 0;
#X connect 0 9 8 0;
#X connect 0 10 9 0;
#X connect 0 11 10 0;
#X connect 0 12 11 0;
#X connect 0 13 12 0;
#X connect 0 14 13 0;
#X connect 0 15 14 0;
#X connect 1 0 29 0;
#X connect 2 0 29 0;
#X connect 3 0 29 0;
#X connect 4 0 29 0;
#X connect 5 0 29 0;
#X connect 6 0 29 0;
#X connect 7 0 29 0;
#X connect 8 0 29 0;
#X connect 9 0 29 0;
#X connect 10 0 29 0;
#X connect 11 0 29 0;
#X connect 12 0 29 0;
#X connect 13 0 29 0;
#X connect 14 0 29 0;
#X connect 15 0 1 1;
#X connect 16 0 2 1;
#X connect 17 0 3 1;
#X connect 18 0 4 1;
#X connect 19 0 5 1;
#X connect 20 0 6 1;
#X connect 21 0 7 1;
#X connect 22 0 8 1;
#X connect 23 0 9 1;
#X connect 24 0 10 1;
#X connect 25 0 11 1;
#X connect 26 0 12 1;
#X connect 27 0 13 1;
#X connect 28 0 14 1;
#X connect 29 0 178 0;
#X connect 29 0 183 0;
#X connect 30 0 93 0;
#X connect 31 0 96 0;
#X connect 32 0 99 0;
#X connect 33 0 102 0;
#X connect 34 0 111 0;
#X connect 35 0 114 0;
#X connect 36 0 117 0;
#X connect 37 0 120 0;
#X connect 38 0 123 0;
#X connect 39 0 126 0;
#X connect 40 0 129 0;
#X connect 41 0 132 0;
#X connect 42 0 81 0;
#X connect 43 0 135 0;
#X connect 44 0 57 0;
#X connect 44 0 61 0;
#X connect 46 0 75 0;
#X connect 47 0 75 1;
#X connect 48 0 45 0;
#X connect 48 0 47 0;
#X connect 48 0 88 0;
#X connect 49 0 56 0;
#X connect 50 0 64 0;
#X connect 51 0 80 1;
#X connect 52 0 108 0;
#X connect 53 0 79 1;
#X connect 54 0 105 0;
#X connect 55 0 65 0;
#X connect 56 0 167 0;
#X connect 56 0 164 0;
#X connect 57 0 58 0;
#X connect 57 0 190 0;
#X connect 58 0 0 0;
#X connect 59 0 49 1;
#X connect 62 0 168 0;
#X connect 62 0 60 0;
#X connect 63 0 142 0;
#X connect 63 0 187 1;
#X connect 64 0 163 0;
#X connect 64 0 89 0;
#X connect 65 0 46 0;
#X connect 66 0 68 0;
#X connect 67 0 74 0;
#X connect 68 0 90 0;
#X connect 69 0 70 0;
#X connect 70 0 67 0;
#X connect 70 0 76 0;
#X connect 70 0 87 1;
#X connect 71 0 82 1;
#X connect 71 0 172 0;
#X connect 72 0 63 0;
#X connect 73 0 88 1;
#X connect 73 0 167 1;
#X connect 74 0 84 0;
#X connect 75 0 62 0;
#X connect 76 0 77 0;
#X connect 77 0 82 1;
#X connect 77 0 88 1;
#X connect 78 0 86 0;
#X connect 79 0 29 0;
#X connect 80 0 29 0;
#X connect 81 0 140 0;
#X connect 82 0 169 0;
#X connect 83 0 91 0;
#X connect 84 0 85 0;
#X connect 84 0 44 0;
#X connect 85 0 84 1;
#X connect 86 0 59 0;
#X connect 87 0 78 0;
#X connect 88 0 78 0;
#X connect 89 0 90 1;
#X connect 90 0 74 1;
#X connect 90 0 87 0;
#X connect 91 0 94 0;
#X connect 91 0 97 0;
#X connect 91 0 100 0;
#X connect 91 0 103 0;
#X connect 91 0 106 0;
#X connect 91 0 109 0;
#X connect 91 0 112 0;
#X connect 91 0 115 0;
#X connect 91 0 118 0;
#X connect 91 0 121 0;
#X connect 91 0 124 0;
#X connect 91 0 127 0;
#X connect 91 0 130 0;
#X connect 91 0 133 0;
#X connect 91 0 136 0;
#X connect 91 0 141 0;
#X connect 92 0 94 0;
#X connect 92 1 94 1;
#X connect 93 0 92 0;
#X connect 94 0 15 0;
#X connect 95 0 97 0;
#X connect 95 1 97 1;
#X connect 96 0 95 0;
#X connect 97 0 16 0;
#X connect 98 0 100 0;
#X connect 98 1 100 1;
#X connect 99 0 98 0;
#X connect 100 0 17 0;
#X connect 101 0 103 0;
#X connect 101 1 103 1;
#X connect 102 0 101 0;
#X connect 103 0 18 0;
#X connect 104 0 106 0;
#X connect 104 1 106 1;
#X connect 105 0 104 0;
#X connect 106 0 19 0;
#X connect 107 0 109 0;
#X connect 107 1 109 1;
#X connect 108 0 107 0;
#X connect 109 0 53 0;
#X connect 110 0 112 0;
#X connect 110 1 112 1;
#X connect 111 0 110 0;
#X connect 112 0 51 0;
#X connect 113 0 115 0;
#X connect 113 1 115 1;
#X connect 114 0 113 0;
#X connect 115 0 20 0;
#X connect 116 0 118 0;
#X connect 116 1 118 1;
#X connect 117 0 116 0;
#X connect 118 0 21 0;
#X connect 119 0 121 0;
#X connect 119 1 121 1;
#X connect 120 0 119 0;
#X connect 121 0 22 0;
#X connect 122 0 124 0;
#X connect 122 1 124 1;
#X connect 123 0 122 0;
#X connect 124 0 23 0;
#X connect 125 0 127 0;
#X connect 125 1 127 1;
#X connect 126 0 125 0;
#X connect 127 0 24 0;
#X connect 128 0 130 0;
#X connect 128 1 130 1;
#X connect 129 0 128 0;
#X connect 130 0 25 0;
#X connect 131 0 133 0;
#X connect 131 1 133 1;
#X connect 132 0 131 0;
#X connect 133 0 26 0;
#X connect 134 0 136 0;
#X connect 134 1 136 1;
#X connect 135 0 134 0;
#X connect 136 0 27 0;
#X connect 137 0 82 0;
#X connect 138 0 91 0;
#X connect 139 0 141 0;
#X connect 139 1 141 1;
#X connect 140 0 139 0;
#X connect 141 0 28 0;
#X connect 142 0 143 0;
#X connect 142 1 143 1;
#X connect 143 0 144 0;
#X connect 144 0 57 1;
#X connect 145 0 152 0;
#X connect 145 1 146 0;
#X connect 146 0 153 0;
#X connect 147 0 154 0;
#X connect 148 0 149 0;
#X connect 148 0 158 1;
#X connect 148 0 159 1;
#X connect 149 0 150 0;
#X connect 150 0 143 0;
#X connect 151 0 147 1;
#X connect 152 0 151 0;
#X connect 153 0 147 0;
#X connect 154 0 155 0;
#X connect 154 0 158 0;
#X connect 154 0 157 0;
#X connect 155 0 156 0;
#X connect 157 0 159 0;
#X connect 158 0 143 0;
#X connect 158 0 165 0;
#X connect 158 0 167 1;
#X connect 159 0 44 0;
#X connect 160 0 143 0;
#X connect 162 0 161 0;
#X connect 163 0 86 0;
#X connect 163 1 86 1;
#X connect 164 0 48 0;
#X connect 165 0 166 0;
#X connect 166 0 164 1;
#X connect 167 0 48 0;
#X connect 168 0 84 0;
#X connect 169 0 44 0;
#X connect 170 0 171 0;
#X connect 171 0 168 1;
#X connect 171 0 189 1;
#X connect 172 0 170 0;
#X connect 172 0 169 1;
#X connect 173 0 172 0;
#X connect 174 0 183 0;
#X connect 174 1 183 1;
#X connect 175 0 176 0;
#X connect 176 0 195 0;
#X connect 177 0 179 0;
#X connect 177 0 176 1;
#X connect 178 0 195 0;
#X connect 179 0 180 0;
#X connect 180 0 178 1;
#X connect 181 0 177 0;
#X connect 182 0 196 0;
#X connect 183 0 175 0;
#X connect 187 0 188 0;
#X connect 188 0 193 0;
#X connect 189 0 187 0;
#X connect 190 0 189 0;
#X connect 191 0 193 0;
#X connect 192 1 191 0;
#X connect 195 0 49 0;
#X connect 196 0 174 0;
