#N canvas 153 115 1440 631 10;
#X obj -16550 -1010 select 0 1 2 3 4 5 6 7 8 9 10 11 12 13 14 15;
#X obj -16716 -1327 f;
#X obj -16658 -1327 f;
#X obj -16601 -1327 f;
#X obj -16543 -1327 f;
#X obj -16495 -1327 f;
#X obj -16328 -1326 f;
#X obj -16271 -1326 f;
#X obj -16213 -1326 f;
#X obj -16156 -1326 f;
#X obj -16098 -1326 f;
#X obj -16042 -1326 f;
#X obj -15999 -1327 f;
#X obj -15935 -1322 f;
#X obj -15866 -1325 f;
#X obj -16661 -1350 nbx 5 14 -1e+37 1e+37 0 0 empty empty empty 0 -8
0 10 -262144 -1 -1 0 256;
#X obj -16602 -1349 nbx 5 14 -1e+37 1e+37 0 0 empty empty empty 0 -8
0 10 -262144 -1 -1 0 256;
#X obj -16544 -1349 nbx 5 14 -1e+37 1e+37 0 0 empty empty empty 0 -8
0 10 -262144 -1 -1 0 256;
#X obj -16486 -1352 nbx 5 14 -1e+37 1e+37 0 0 empty empty empty 0 -8
0 10 -262144 -1 -1 0 256;
#X obj -16308 -1352 nbx 5 14 -1e+37 1e+37 0 0 empty empty empty 0 -8
0 10 -262144 -1 -1 0 256;
#X obj -16257 -1353 nbx 5 14 -1e+37 1e+37 0 0 empty empty empty 0 -8
0 10 -262144 -1 -1 0 256;
#X obj -16187 -1353 nbx 5 14 -1e+37 1e+37 0 0 empty empty empty 0 -8
0 10 -262144 -1 -1 0 256;
#X obj -16118 -1347 nbx 5 14 -1e+37 1e+37 0 0 empty empty empty 0 -8
0 10 -262144 -1 -1 0 256;
#X obj -16058 -1350 nbx 5 14 -1e+37 1e+37 0 0 empty empty empty 0 -8
0 10 -262144 -1 -1 0 256;
#X obj -15989 -1353 nbx 5 14 -1e+37 1e+37 0 0 empty empty empty 0 -8
0 10 -262144 -1 -1 0 256;
#X obj -15927 -1355 nbx 5 14 -1e+37 1e+37 0 0 empty empty empty 0 -8
0 10 -262144 -1 -1 0 256;
#X obj -15861 -1356 nbx 5 14 -1e+37 1e+37 0 0 empty empty empty 0 -8
0 10 -262144 -1 -1 0 256;
#X obj -16725 -1350 nbx 5 14 -1e+37 1e+37 0 0 empty empty empty 0 -8
0 10 -262144 -1 -1 9 256;
#X floatatom -15828 -1307 5 0 0 0 - - -;
#X obj -16374 -1402 inlet;
#X obj -16306 -1402 inlet;
#X obj -16253 -1402 inlet;
#X obj -16201 -1402 inlet;
#X obj -16006 -1402 inlet;
#X obj -15937 -1402 inlet;
#X obj -15875 -1402 inlet;
#X obj -15806 -1402 inlet;
#X obj -16721 -1402 inlet;
#X obj -17146 -1321 inlet;
#X obj -17089 -1325 inlet;
#X obj -16675 -1402 inlet;
#X obj -16609 -1402 inlet;
#X obj -16427 -1402 inlet;
#X floatatom -17193 -1131 5 0 0 0 - - -;
#X obj -17261 -1125 mod;
#X obj -17256 -1419 mod;
#X floatatom -17225 -1417 5 0 0 0 - - -;
#X obj -17259 -1233 bng 15 250 50 0 empty empty empty 17 7 0 10 -262144
-1 -1;
#X obj -17261 -1201 f;
#X floatatom -17262 -1177 5 0 0 0 - - -;
#X obj -17261 -1477 inlet;
#X obj -15819 -1054 outlet;
#X obj -17185 -1160 inlet;
#X obj -17151 -1452 inlet;
#X obj -17154 -1253 metro 100;
#X obj -17156 -1277 tgl 15 0 empty empty empty 17 7 0 10 -262144 -1
-1 0 1;
#X floatatom -17094 -1271 5 0 0 0 - - -;
#X floatatom -15820 -1079 5 0 0 0 - - -;
#X floatatom -15769 -1227 5 0 0 0 - - -;
#X obj -15816 -1148 pack \$1 \$2;
#X floatatom -15782 -1281 5 0 0 0 - - -;
#X obj -16484 -1402 inlet;
#X obj -15723 -1402 inlet;
#X obj -16386 -1326 f;
#X obj -16375 -1351 nbx 5 14 -1e+37 1e+37 0 0 empty empty empty 0 -8
0 10 -262144 -1 -1 0 256;
#X obj -16085 -1402 inlet;
#X obj -16445 -1325 f;
#X obj -16429 -1353 nbx 5 14 -1e+37 1e+37 0 0 empty empty empty 0 -8
0 10 -262144 -1 -1 0 256;
#X obj -16132 -1402 inlet;
#X obj -16541 -1402 inlet;
#X obj -17226 -1233 outlet;
#X obj -15821 -1102 line;
#X obj -15776 -1256 * 0;
#X obj -17224 -1204 + 1;
#X obj -17256 -1396 sel;
#X obj -17256 -1444 f;
#X obj -17218 -1453 + 1;
#X obj -17160 -1205 bng 15 250 50 0 empty empty empty 17 7 0 10 -262144
-1 -1;
#X floatatom -17192 -1474 5 0 0 0 - - -;
#X obj -15805 -1353 nbx 5 14 -1e+37 1e+37 0 0 empty empty empty 0 -8
0 10 -262144 -1 -1 0 256;
#X obj -16801 -1384 tgl 15 0 empty empty empty 17 7 0 10 -262144 -1
-1 0 1;
#X floatatom -16973 -1336 5 0 0 0 - - -;
#X obj -16971 -1362 r T$;
#X obj -16970 -1289 spigot-toggle_red;
#X obj -16963 -1318 r lo;
#X obj -16949 -1240 - 1;
#X obj -16948 -1210 * -1;
#X obj -17020 -1283 * 1;
#X obj 37 37 t b f;
#X obj -15713 -1281 t b f;
#X connect 0 0 1 0;
#X connect 0 1 2 0;
#X connect 0 2 3 0;
#X connect 0 3 4 0;
#X connect 0 4 5 0;
#X connect 0 5 66 0;
#X connect 0 6 63 0;
#X connect 0 7 6 0;
#X connect 0 8 7 0;
#X connect 0 9 8 0;
#X connect 0 10 9 0;
#X connect 0 11 10 0;
#X connect 0 12 11 0;
#X connect 0 13 12 0;
#X connect 0 14 13 0;
#X connect 0 15 14 0;
#X connect 1 0 28 0;
#X connect 2 0 28 0;
#X connect 3 0 28 0;
#X connect 4 0 28 0;
#X connect 5 0 28 0;
#X connect 6 0 28 0;
#X connect 7 0 28 0;
#X connect 8 0 28 0;
#X connect 9 0 28 0;
#X connect 10 0 28 0;
#X connect 11 0 28 0;
#X connect 12 0 28 0;
#X connect 13 0 28 0;
#X connect 14 0 28 0;
#X connect 15 0 2 1;
#X connect 16 0 3 1;
#X connect 17 0 4 1;
#X connect 18 0 5 1;
#X connect 19 0 6 1;
#X connect 20 0 7 1;
#X connect 21 0 8 1;
#X connect 22 0 9 1;
#X connect 23 0 10 1;
#X connect 24 0 11 1;
#X connect 25 0 12 1;
#X connect 26 0 13 1;
#X connect 27 0 1 1;
#X connect 28 0 59 0;
#X connect 29 0 64 0;
#X connect 30 0 19 0;
#X connect 31 0 20 0;
#X connect 32 0 21 0;
#X connect 33 0 24 0;
#X connect 34 0 25 0;
#X connect 35 0 26 0;
#X connect 36 0 79 0;
#X connect 37 0 27 0;
#X connect 38 0 55 0;
#X connect 39 0 87 0;
#X connect 40 0 15 0;
#X connect 41 0 16 0;
#X connect 42 0 67 0;
#X connect 43 0 44 1;
#X connect 44 0 0 0;
#X connect 45 0 74 0;
#X connect 46 0 45 1;
#X connect 46 0 87 1;
#X connect 47 0 48 0;
#X connect 47 0 70 0;
#X connect 48 0 49 0;
#X connect 48 0 73 0;
#X connect 49 0 44 0;
#X connect 50 0 75 0;
#X connect 50 0 78 0;
#X connect 52 0 43 0;
#X connect 53 0 46 0;
#X connect 54 0 47 0;
#X connect 55 0 54 0;
#X connect 55 0 85 0;
#X connect 56 0 54 1;
#X connect 56 0 72 0;
#X connect 57 0 51 0;
#X connect 58 0 59 1;
#X connect 59 0 71 0;
#X connect 60 0 72 0;
#X connect 60 0 89 0;
#X connect 61 0 18 0;
#X connect 62 0 60 0;
#X connect 63 0 28 0;
#X connect 64 0 63 1;
#X connect 65 0 23 0;
#X connect 66 0 28 0;
#X connect 67 0 66 1;
#X connect 68 0 22 0;
#X connect 69 0 17 0;
#X connect 71 0 57 0;
#X connect 72 0 58 0;
#X connect 73 0 48 1;
#X connect 74 0 47 0;
#X connect 75 0 76 0;
#X connect 75 0 45 0;
#X connect 76 0 75 1;
#X connect 79 0 14 1;
#X connect 81 0 83 0;
#X connect 82 0 81 0;
#X connect 83 0 87 0;
#X connect 84 0 83 1;
#X connect 85 0 86 0;
#X connect 86 0 83 1;
#X connect 87 0 56 0;
#X connect 89 0 72 0;
#X connect 89 1 72 1;
