#N canvas 179 574 626 710 12;
#X obj -17143 -1205 select 0 1 2 3 4 5 6 7 8 9 10 11 12 13 14 15;
#X obj -16718 -1185 f;
#X obj -16660 -1185 f;
#X obj -16603 -1185 f;
#X obj -16545 -1185 f;
#X obj -16475 -1185 f;
#X obj -16296 -1185 f;
#X obj -16249 -1184 f;
#X obj -16192 -1183 f;
#X obj -16126 -1183 f;
#X obj -16053 -1185 f;
#X obj -16010 -1184 f;
#X obj -15967 -1183 f;
#X obj -15905 -1183 f;
#X obj -15845 -1183 f;
#X obj -16718 -1210 nbx 5 14 -1e+37 1e+37 0 0 empty empty empty 0 -8
0 10 -262144 -1 -1 320 256;
#X obj -16660 -1210 nbx 5 14 -1e+37 1e+37 0 0 empty empty empty 0 -8
0 10 -262144 -1 -1 372 256;
#X obj -16603 -1210 nbx 5 14 -1e+37 1e+37 0 0 empty empty empty 0 -8
0 10 -262144 -1 -1 100 256;
#X obj -16545 -1210 nbx 5 14 -1e+37 1e+37 0 0 empty empty empty 0 -8
0 10 -262144 -1 -1 713 256;
#X obj -16487 -1210 nbx 5 14 -1e+37 1e+37 0 0 empty empty empty 0 -8
0 10 -262144 -1 -1 372 256;
#X obj -16292 -1210 nbx 5 14 -1e+37 1e+37 0 0 empty empty empty 0 -8
0 10 -262144 -1 -1 372 256;
#X obj -16235 -1210 nbx 5 14 -1e+37 1e+37 0 0 empty empty empty 0 -8
0 10 -262144 -1 -1 372 256;
#X obj -16181 -1210 nbx 5 14 -1e+37 1e+37 0 0 empty empty empty 0 -8
0 10 -262144 -1 -1 372 256;
#X obj -16119 -1210 nbx 5 14 -1e+37 1e+37 0 0 empty empty empty 0 -8
0 10 -262144 -1 -1 372 256;
#X obj -16059 -1210 nbx 5 14 -1e+37 1e+37 0 0 empty empty empty 0 -8
0 10 -262144 -1 -1 372 256;
#X obj -15990 -1210 nbx 5 14 -1e+37 1e+37 0 0 empty empty empty 0 -8
0 10 -262144 -1 -1 372 256;
#X obj -15928 -1210 nbx 5 14 -1e+37 1e+37 0 0 empty empty empty 0 -8
0 10 -262144 -1 -1 372 256;
#X obj -15862 -1210 nbx 5 14 -1e+37 1e+37 0 0 empty empty empty 0 -8
0 10 -262144 -1 -1 372 256;
#X obj -15788 -1212 nbx 5 14 -1e+37 1e+37 0 0 empty empty empty 0 -8
0 10 -262144 -1 -1 372 256;
#X floatatom -15778 -1165 5 0 0 0 - - -;
#X obj -16657 -1337 inlet;
#X obj -16595 -1335 inlet;
#X obj -16538 -1336 inlet;
#X obj -16458 -1335 inlet;
#X obj -16275 -1336 inlet;
#X obj -16226 -1334 inlet;
#X obj -16151 -1337 inlet;
#X obj -16106 -1336 inlet;
#X obj -16064 -1335 inlet;
#X obj -16020 -1336 inlet;
#X obj -15975 -1336 inlet, f 6;
#X obj -15925 -1334 inlet;
#X obj -15818 -1349 inlet;
#X obj -15871 -1338 inlet;
#X floatatom -16986 -755 5 0 0 0 - - -;
#X obj -15686 -911 outlet;
#X obj -16939 -881 tgl 15 0 empty empty empty 17 7 0 10 -262144 -1
-1 0 1;
#X floatatom -15682 -939 5 0 0 0 - - -;
#X obj -15680 -992 pack \$1 \$2;
#X obj -15555 -1170 inlet;
#X obj -16349 -1210 nbx 5 14 -1e+37 1e+37 0 0 empty empty empty 0 -8
0 10 -262144 -1 -1 372 256;
#X obj -16326 -1337 inlet;
#X obj -16406 -1210 nbx 5 14 -1e+37 1e+37 0 0 empty empty empty 0 -8
0 10 -262144 -1 -1 372 256;
#X obj -16408 -1335 inlet;
#X obj -16939 -949 inlet;
#X obj -15681 -967 line;
#X obj -16986 -700 mod;
#X floatatom -17109 -1137 5 0 0 0 - - -;
#X floatatom -15602 -993 5 0 0 0 - - -;
#X obj -16694 -791 outlet;
#X obj -17197 -731 outlet;
#X obj -16938 -802 bng 15 250 50 0 empty empty empty 17 7 0 10 -262144
-1 -1;
#X floatatom -16940 -702 5 0 0 0 - - -;
#X floatatom -15549 -1112 12 0 0 0 - - -;
#X floatatom -16938 -910 5 0 0 0 - - -;
#X obj -16700 -934 inlet;
#X obj -16795 -882 tgl 15 0 empty empty empty 17 7 0 10 -262144 -1
-1 0 1;
#X obj -16792 -934 inlet;
#X floatatom -16790 -904 5 0 0 0 - - -;
#X obj -16983 -995 r lo;
#X obj -16940 -728 inlet;
#X obj -16272 -955 r lo;
#X obj -16793 -859 metro 200;
#X obj -16940 -861 metro 200;
#X obj -16834 -930 - 1;
#X obj -16832 -903 * -1;
#X floatatom -15549 -886 5 0 0 0 - - -;
#X obj -16409 -1186 f;
#X obj -16359 -1185 f;
#X floatatom -15815 -1327 5 0 0 0 - - -;
#X obj -16992 -963 spigot-toggle_jaunenoir;
#X obj -16653 -934 inlet;
#X obj -16813 -776 f;
#X obj -16782 -776 + 1;
#X obj -15548 -1062 * 1;
#X obj -16257 -890 spigot-toggle_jaunenoir;
#X obj -16281 -891 spigot-toggle_jaunenoir;
#X obj -16858 -1263 nbx 5 14 -1e+37 1e+37 0 0 empty empty empty 0 -8
0 10 -262144 -1 -1 1 256;
#X obj -16751 -1276 t b f;
#X obj -16750 -1299 nbx 5 14 -1e+37 1e+37 0 0 empty empty empty 0 -8
0 10 -262144 -1 -1 320 256;
#X obj -16751 -1250 * 1;
#X obj -16691 -1276 t b f;
#X obj -16690 -1299 nbx 5 14 -1e+37 1e+37 0 0 empty empty empty 0 -8
0 10 -262144 -1 -1 372 256;
#X obj -16691 -1250 * 1;
#X obj -16633 -1276 t b f;
#X obj -16632 -1299 nbx 5 14 -1e+37 1e+37 0 0 empty empty empty 0 -8
0 10 -262144 -1 -1 100 256;
#X obj -16633 -1250 * 1;
#X obj -16573 -1276 t b f;
#X obj -16572 -1299 nbx 5 14 -1e+37 1e+37 0 0 empty empty empty 0 -8
0 10 -262144 -1 -1 713 256;
#X obj -16573 -1250 * 1;
#X obj -16511 -1276 t b f;
#X obj -16510 -1299 nbx 5 14 -1e+37 1e+37 0 0 empty empty empty 0 -8
0 10 -262144 -1 -1 372 256;
#X obj -16511 -1250 * 1;
#X obj -16451 -1276 t b f;
#X obj -16450 -1299 nbx 5 14 -1e+37 1e+37 0 0 empty empty empty 0 -8
0 10 -262144 -1 -1 372 256;
#X obj -16451 -1250 * 1;
#X obj -16391 -1276 t b f;
#X obj -16390 -1299 nbx 5 14 -1e+37 1e+37 0 0 empty empty empty 0 -8
0 10 -262144 -1 -1 372 256;
#X obj -16391 -1250 * 1;
#X obj -16331 -1276 t b f;
#X obj -16330 -1299 nbx 5 14 -1e+37 1e+37 0 0 empty empty empty 0 -8
0 10 -262144 -1 -1 372 256;
#X obj -16331 -1250 * 1;
#X obj -16273 -1276 t b f;
#X obj -16272 -1299 nbx 5 14 -1e+37 1e+37 0 0 empty empty empty 0 -8
0 10 -262144 -1 -1 372 256;
#X obj -16273 -1250 * 1;
#X obj -16213 -1276 t b f;
#X obj -16212 -1299 nbx 5 14 -1e+37 1e+37 0 0 empty empty empty 0 -8
0 10 -262144 -1 -1 372 256;
#X obj -16213 -1250 * 1;
#X obj -16151 -1276 t b f;
#X obj -16150 -1299 nbx 5 14 -1e+37 1e+37 0 0 empty empty empty 0 -8
0 10 -262144 -1 -1 372 256;
#X obj -16151 -1250 * 1;
#X obj -16091 -1276 t b f;
#X obj -16090 -1299 nbx 5 14 -1e+37 1e+37 0 0 empty empty empty 0 -8
0 10 -262144 -1 -1 372 256;
#X obj -16091 -1250 * 1;
#X obj -16033 -1276 t b f;
#X obj -16032 -1299 nbx 5 14 -1e+37 1e+37 0 0 empty empty empty 0 -8
0 10 -262144 -1 -1 372 256;
#X obj -16033 -1250 * 1;
#X obj -15971 -1276 t b f;
#X obj -15970 -1299 nbx 5 14 -1e+37 1e+37 0 0 empty empty empty 0 -8
0 10 -262144 -1 -1 372 256;
#X obj -15971 -1250 * 1;
#X obj -15911 -1276 t b f;
#X obj -15910 -1299 nbx 5 14 -1e+37 1e+37 0 0 empty empty empty 0 -8
0 10 -262144 -1 -1 372 256;
#X obj -15911 -1250 * 1;
#X obj -16855 -1294 r lo;
#X obj -15821 -1276 t b f;
#X obj -15820 -1299 nbx 5 14 -1e+37 1e+37 0 0 empty empty empty 0 -8
0 10 -262144 -1 -1 372 256;
#X obj -15821 -1250 * 1;
#X obj -15550 -1090 t b f;
#X obj -16813 -826 spigot-toggle_jaunenoir;
#X obj -16989 -815 spigot-toggle_jaunenoir;
#X obj -16807 -990 - 1;
#X obj -16806 -965 * -1;
#X obj -16804 -1020 tgl 15 0 empty empty empty 17 7 0 10 -262144 -1
-1 0 1;
#X obj -16804 -1049 r IT≠T;
#X obj -15664 -1254 t b f;
#X floatatom -15666 -1193 5 0 0 0 - - -;
#X obj -15664 -1052 spigot-toggle_jaunenoir;
#X obj -15690 -1053 spigot-toggle_jaunenoir;
#X obj -15382 -1367 inlet;
#X obj -15662 -1285 r ITA;
#X obj -15667 -1223 / 1;
#X obj -15687 -1026 + 0;
#X floatatom -16882 -901 5 0 0 0 - - -;
#X floatatom -16703 -904 5 0 0 0 - - -;
#X obj -16813 -804 bng 15 250 50 0 empty empty empty 17 7 0 10 -262144
-1 -1;
#X obj -16793 -804 bng 15 250 50 0 empty empty empty 17 7 0 10 -262144
-1 -1;
#X obj -15682 -1112 - 1;
#X obj -15681 -1087 * -1;
#X obj -15681 -1137 tgl 15 0 empty empty empty 17 7 0 10 -262144 -1
-1 1 1;
#X obj -15677 -1170 r ITA%ITA;
#X floatatom -16992 -1020 5 0 0 0 - - -;
#X obj -16940 -677 s stpT;
#X obj -15735 -1166 s realT;
#X obj -16761 -1183 bng 15 250 50 0 empty empty empty 17 7 0 10 -262144
-1 -1;
#X obj -16766 -1024 r lo;
#X obj -16761 -1208 r lo;
#X obj -16812 -1158 delay 100;
#X obj -16704 -868 * 1;
#X obj -16674 -868 + 0;
#X obj -15439 -923 s tglidelessA;
#X obj -16609 -934 r multiTA;
#X obj -16986 -727 + 0;
#X obj -17055 -1049 r ITfloatA;
#X obj -16727 -618 r timeseqtrgrrawinA;
#X obj -16960 -620 f;
#X obj -16595 -689 t b b;
#X obj -16591 -714 r pitchrawA;
#X obj -17158 -884 r tstDenv;
#X obj -17117 -816 r extfA;
#X obj -17119 -775 r extTA;
#X connect 0 0 1 0;
#X connect 0 1 2 0;
#X connect 0 2 3 0;
#X connect 0 3 4 0;
#X connect 0 4 5 0;
#X connect 0 5 77 0;
#X connect 0 6 78 0;
#X connect 0 7 6 0;
#X connect 0 8 7 0;
#X connect 0 9 8 0;
#X connect 0 10 9 0;
#X connect 0 11 10 0;
#X connect 0 12 11 0;
#X connect 0 13 12 0;
#X connect 0 14 13 0;
#X connect 0 15 14 0;
#X connect 1 0 29 0;
#X connect 2 0 29 0;
#X connect 3 0 29 0;
#X connect 4 0 29 0;
#X connect 5 0 29 0;
#X connect 6 0 29 0;
#X connect 7 0 29 0;
#X connect 8 0 29 0;
#X connect 9 0 29 0;
#X connect 10 0 29 0;
#X connect 11 0 29 0;
#X connect 12 0 29 0;
#X connect 13 0 29 0;
#X connect 14 0 29 0;
#X connect 15 0 1 1;
#X connect 16 0 2 1;
#X connect 17 0 3 1;
#X connect 18 0 4 1;
#X connect 19 0 5 1;
#X connect 20 0 6 1;
#X connect 21 0 7 1;
#X connect 22 0 8 1;
#X connect 23 0 9 1;
#X connect 24 0 10 1;
#X connect 25 0 11 1;
#X connect 26 0 12 1;
#X connect 27 0 13 1;
#X connect 28 0 14 1;
#X connect 29 0 147 0;
#X connect 29 0 150 0;
#X connect 29 0 162 0;
#X connect 30 0 89 0;
#X connect 31 0 92 0;
#X connect 32 0 95 0;
#X connect 33 0 98 0;
#X connect 34 0 107 0;
#X connect 35 0 110 0;
#X connect 36 0 113 0;
#X connect 37 0 116 0;
#X connect 38 0 119 0;
#X connect 39 0 122 0;
#X connect 40 0 125 0;
#X connect 41 0 128 0;
#X connect 42 0 79 0;
#X connect 43 0 131 0;
#X connect 44 0 171 0;
#X connect 44 0 174 1;
#X connect 46 0 73 0;
#X connect 47 0 45 0;
#X connect 47 0 152 0;
#X connect 48 0 55 0;
#X connect 49 0 63 0;
#X connect 50 0 78 1;
#X connect 51 0 104 0;
#X connect 52 0 77 1;
#X connect 53 0 101 0;
#X connect 54 0 64 0;
#X connect 55 0 47 0;
#X connect 56 0 57 0;
#X connect 57 0 0 0;
#X connect 58 0 48 1;
#X connect 61 0 138 0;
#X connect 61 0 59 0;
#X connect 62 0 56 1;
#X connect 62 0 161 0;
#X connect 63 0 137 0;
#X connect 64 0 46 0;
#X connect 65 0 153 0;
#X connect 66 0 72 0;
#X connect 67 0 68 0;
#X connect 68 0 66 0;
#X connect 68 0 74 0;
#X connect 68 0 85 1;
#X connect 69 0 80 1;
#X connect 70 0 62 0;
#X connect 71 0 86 1;
#X connect 72 0 155 0;
#X connect 73 0 61 0;
#X connect 74 0 75 0;
#X connect 75 0 80 1;
#X connect 75 0 86 1;
#X connect 75 0 46 0;
#X connect 76 0 84 0;
#X connect 77 0 29 0;
#X connect 78 0 29 0;
#X connect 79 0 135 0;
#X connect 80 0 139 0;
#X connect 81 0 168 0;
#X connect 82 0 83 0;
#X connect 82 0 44 0;
#X connect 83 0 82 1;
#X connect 84 0 58 0;
#X connect 85 0 76 0;
#X connect 86 0 76 0;
#X connect 87 0 90 0;
#X connect 87 0 93 0;
#X connect 87 0 96 0;
#X connect 87 0 99 0;
#X connect 87 0 102 0;
#X connect 87 0 105 0;
#X connect 87 0 108 0;
#X connect 87 0 111 0;
#X connect 87 0 114 0;
#X connect 87 0 117 0;
#X connect 87 0 120 0;
#X connect 87 0 123 0;
#X connect 87 0 126 0;
#X connect 87 0 129 0;
#X connect 87 0 132 0;
#X connect 87 0 136 0;
#X connect 88 0 90 0;
#X connect 88 1 90 1;
#X connect 89 0 88 0;
#X connect 90 0 15 0;
#X connect 91 0 93 0;
#X connect 91 1 93 1;
#X connect 92 0 91 0;
#X connect 93 0 16 0;
#X connect 94 0 96 0;
#X connect 94 1 96 1;
#X connect 95 0 94 0;
#X connect 96 0 17 0;
#X connect 97 0 99 0;
#X connect 97 1 99 1;
#X connect 98 0 97 0;
#X connect 99 0 18 0;
#X connect 100 0 102 0;
#X connect 100 1 102 1;
#X connect 101 0 100 0;
#X connect 102 0 19 0;
#X connect 103 0 105 0;
#X connect 103 1 105 1;
#X connect 104 0 103 0;
#X connect 105 0 52 0;
#X connect 106 0 108 0;
#X connect 106 1 108 1;
#X connect 107 0 106 0;
#X connect 108 0 50 0;
#X connect 109 0 111 0;
#X connect 109 1 111 1;
#X connect 110 0 109 0;
#X connect 111 0 20 0;
#X connect 112 0 114 0;
#X connect 112 1 114 1;
#X connect 113 0 112 0;
#X connect 114 0 21 0;
#X connect 115 0 117 0;
#X connect 115 1 117 1;
#X connect 116 0 115 0;
#X connect 117 0 22 0;
#X connect 118 0 120 0;
#X connect 118 1 120 1;
#X connect 119 0 118 0;
#X connect 120 0 23 0;
#X connect 121 0 123 0;
#X connect 121 1 123 1;
#X connect 122 0 121 0;
#X connect 123 0 24 0;
#X connect 124 0 126 0;
#X connect 124 1 126 1;
#X connect 125 0 124 0;
#X connect 126 0 25 0;
#X connect 127 0 129 0;
#X connect 127 1 129 1;
#X connect 128 0 127 0;
#X connect 129 0 26 0;
#X connect 130 0 132 0;
#X connect 130 1 132 1;
#X connect 131 0 130 0;
#X connect 132 0 27 0;
#X connect 133 0 87 0;
#X connect 134 0 136 0;
#X connect 134 1 136 1;
#X connect 135 0 134 0;
#X connect 136 0 28 0;
#X connect 137 0 84 0;
#X connect 137 1 84 1;
#X connect 138 0 154 0;
#X connect 139 0 44 0;
#X connect 140 0 141 0;
#X connect 141 0 138 1;
#X connect 142 0 140 0;
#X connect 142 0 139 1;
#X connect 143 0 142 0;
#X connect 144 0 150 0;
#X connect 144 1 150 1;
#X connect 145 0 146 0;
#X connect 146 0 151 0;
#X connect 147 0 151 0;
#X connect 149 0 144 0;
#X connect 150 0 145 0;
#X connect 151 0 48 0;
#X connect 151 0 169 0;
#X connect 152 0 73 1;
#X connect 152 0 86 0;
#X connect 153 0 85 0;
#X connect 153 0 167 0;
#X connect 154 0 82 0;
#X connect 155 0 82 0;
#X connect 155 0 59 0;
#X connect 156 0 157 0;
#X connect 157 0 147 1;
#X connect 158 0 156 0;
#X connect 158 0 146 1;
#X connect 159 0 158 0;
#X connect 160 0 80 0;
#X connect 163 0 1 0;
#X connect 163 0 166 0;
#X connect 164 0 142 0;
#X connect 165 0 163 0;
#X connect 166 0 1 0;
#X connect 167 0 72 1;
#X connect 168 0 167 1;
#X connect 168 0 87 0;
#X connect 170 0 168 0;
#X connect 171 0 60 0;
#X connect 171 0 56 0;
#X connect 172 0 160 0;
#X connect 173 0 154 0;
#X connect 173 0 174 0;
#X connect 174 0 171 0;
#X connect 175 0 66 0;
#X connect 175 1 66 0;
#X connect 176 0 175 0;
#X connect 178 0 152 0;
#X connect 179 0 61 0;
