#N canvas -126 87 1443 1028 12;
#X obj -16876 -1149 f;
#X obj -16818 -1149 f;
#X obj -16761 -1149 f;
#X obj -16703 -1149 f;
#X obj -16584 -1149 f;
#X obj -16425 -1149 f;
#X obj -16318 -1149 f;
#X obj -16261 -1149 f;
#X obj -16203 -1149 f;
#X obj -16162 -1149 f;
#X obj -16059 -1149 f;
#X obj -16016 -1149 f;
#X obj -15954 -1149 f;
#X obj -15894 -1149 f;
#X obj -16877 -1180 nbx 5 14 -1e+37 1e+37 0 0 empty empty empty 0 -8
0 10 -262144 -1 -1 200 256;
#X obj -16819 -1180 nbx 5 14 -1e+37 1e+37 0 0 empty empty empty 0 -8
0 10 -262144 -1 -1 200 256;
#X obj -16762 -1180 nbx 5 14 -1e+37 1e+37 0 0 empty empty empty 0 -8
0 10 -262144 -1 -1 200 256;
#X obj -16704 -1180 nbx 5 14 -1e+37 1e+37 0 0 empty empty empty 0 -8
0 10 -262144 -1 -1 200 256;
#X obj -16596 -1180 nbx 5 14 -1e+37 1e+37 0 0 empty empty empty 0 -8
0 10 -262144 -1 -1 200 256;
#X obj -16421 -1180 nbx 5 14 -1e+37 1e+37 0 0 empty empty empty 0 -8
0 10 -262144 -1 -1 200 256;
#X obj -16305 -1180 nbx 5 14 -1e+37 1e+37 0 0 empty empty empty 0 -8
0 10 -262144 -1 -1 200 256;
#X obj -16251 -1180 nbx 5 14 -1e+37 1e+37 0 0 empty empty empty 0 -8
0 10 -262144 -1 -1 200 256;
#X obj -16189 -1180 nbx 5 14 -1e+37 1e+37 0 0 empty empty empty 0 -8
0 10 -262144 -1 -1 200 256;
#X obj -16129 -1180 nbx 5 14 -1e+37 1e+37 0 0 empty empty empty 0 -8
0 10 -262144 -1 -1 200 256;
#X obj -16040 -1180 nbx 5 14 -1e+37 1e+37 0 0 empty empty empty 0 -8
0 10 -262144 -1 -1 200 256;
#X obj -15978 -1180 nbx 5 14 -1e+37 1e+37 0 0 empty empty empty 0 -8
0 10 -262144 -1 -1 200 256;
#X obj -15912 -1180 nbx 5 14 -1e+37 1e+37 0 0 empty empty empty 0 -8
0 10 -262144 -1 -1 200 256;
#X obj -15849 -1180 nbx 5 14 -1e+37 1e+37 0 0 empty empty empty 0 -8
0 10 -262144 -1 -1 200 256;
#X obj -16866 -1307 inlet;
#X obj -16804 -1307 inlet;
#X obj -16747 -1307 inlet;
#X obj -16667 -1307 inlet;
#X obj -16444 -1307 inlet;
#X obj -16395 -1307 inlet;
#X obj -16270 -1307 inlet;
#X obj -16225 -1307 inlet;
#X obj -16183 -1307 inlet;
#X obj -16139 -1307 inlet;
#X obj -15984 -1307 inlet, f 6;
#X obj -15934 -1307 inlet;
#X obj -15832 -1307 inlet;
#X obj -15880 -1307 inlet;
#X floatatom -17058 -738 5 0 0 0 - - -;
#X obj -16799 -844 tgl 15 0 empty empty empty 17 7 0 10 -262144 -1
-1 0 1;
#X obj -15770 -1035 pack \$1 \$2;
#X obj -16478 -1180 nbx 5 14 -1e+37 1e+37 0 0 empty empty empty 0 -8
0 10 -262144 -1 -1 200 256;
#X obj -16495 -1307 inlet;
#X obj -16535 -1180 nbx 5 14 -1e+37 1e+37 0 0 empty empty empty 0 -8
0 10 -262144 -1 -1 200 256;
#X obj -16577 -1307 inlet;
#X obj -16799 -882 inlet;
#X obj -15771 -1010 line;
#X floatatom -15654 -1094 5 0 0 0 - - -;
#X obj -16810 -692 outlet;
#X obj -16807 -758 bng 15 250 50 0 empty empty empty 17 7 0 10 -262144
-1 -1;
#X floatatom -17000 -722 5 0 0 0 - - -;
#X obj -15769 -1056 * 1;
#X floatatom -15635 -1206 12 0 0 0 - - -;
#X obj -16546 -882 inlet;
#X obj -16681 -810 tgl 15 0 empty empty empty 17 7 0 10 -262144 -1
-1 0 1;
#X floatatom -16543 -839 5 0 0 0 - - -;
#X obj -16663 -882 inlet;
#X floatatom -16664 -839 5 0 0 0 - - -;
#X obj -17038 -857 r lo;
#X obj -17010 -768 inlet;
#X obj -16296 -852 r lo;
#X obj -16700 -862 - 1;
#X obj -16700 -839 * -1;
#X floatatom -15761 -741 5 0 0 0 - - -;
#X obj -16538 -1149 f;
#X obj -16488 -1149 f;
#X obj -17057 -826 spigot-toggle_jaunenoir;
#X obj -16462 -882 inlet;
#X obj -16701 -737 f;
#X obj -15649 -1126 * 1;
#X obj -16260 -823 spigot-toggle_jaunenoir;
#X obj -16296 -823 spigot-toggle_jaunenoir;
#X floatatom -16509 -810 5 0 0 0 - - -;
#X obj -16541 -810 * 1;
#X obj -16860 -1246 t b f;
#X obj -16859 -1269 nbx 5 14 -1e+37 1e+37 0 0 empty empty empty 0 -8
0 10 -262144 -1 -1 200 256;
#X obj -16860 -1220 * 1;
#X obj -16800 -1246 t b f;
#X obj -16799 -1269 nbx 5 14 -1e+37 1e+37 0 0 empty empty empty 0 -8
0 10 -262144 -1 -1 200 256;
#X obj -16800 -1220 * 1;
#X obj -16742 -1246 t b f;
#X obj -16741 -1269 nbx 5 14 -1e+37 1e+37 0 0 empty empty empty 0 -8
0 10 -262144 -1 -1 200 256;
#X obj -16742 -1220 * 1;
#X obj -16682 -1246 t b f;
#X obj -16681 -1269 nbx 5 14 -1e+37 1e+37 0 0 empty empty empty 0 -8
0 10 -262144 -1 -1 200 256;
#X obj -16682 -1220 * 1;
#X obj -16590 -1246 t b f;
#X obj -16589 -1269 nbx 5 14 -1e+37 1e+37 0 0 empty empty empty 0 -8
0 10 -262144 -1 -1 200 256;
#X obj -16590 -1220 * 1;
#X obj -16530 -1246 t b f;
#X obj -16529 -1269 nbx 5 14 -1e+37 1e+37 0 0 empty empty empty 0 -8
0 10 -262144 -1 -1 200 256;
#X obj -16530 -1220 * 1;
#X obj -16470 -1246 t b f;
#X obj -16469 -1269 nbx 5 14 -1e+37 1e+37 0 0 empty empty empty 0 -8
0 10 -262144 -1 -1 200 256;
#X obj -16470 -1220 * 1;
#X obj -16410 -1246 t b f;
#X obj -16409 -1269 nbx 5 14 -1e+37 1e+37 0 0 empty empty empty 0 -8
0 10 -262144 -1 -1 200 256;
#X obj -16410 -1220 * 1;
#X obj -16312 -1246 t b f;
#X obj -16311 -1269 nbx 5 14 -1e+37 1e+37 0 0 empty empty empty 0 -8
0 10 -262144 -1 -1 200 256;
#X obj -16312 -1220 * 1;
#X obj -16252 -1246 t b f;
#X obj -16251 -1269 nbx 5 14 -1e+37 1e+37 0 0 empty empty empty 0 -8
0 10 -262144 -1 -1 200 256;
#X obj -16252 -1220 * 1;
#X obj -16190 -1246 t b f;
#X obj -16189 -1269 nbx 5 14 -1e+37 1e+37 0 0 empty empty empty 0 -8
0 10 -262144 -1 -1 200 256;
#X obj -16190 -1220 * 1;
#X obj -16130 -1246 t b f;
#X obj -16129 -1269 nbx 5 14 -1e+37 1e+37 0 0 empty empty empty 0 -8
0 10 -262144 -1 -1 200 256;
#X obj -16130 -1220 * 1;
#X obj -16042 -1246 t b f;
#X obj -16041 -1269 nbx 5 14 -1e+37 1e+37 0 0 empty empty empty 0 -8
0 10 -262144 -1 -1 200 256;
#X obj -16042 -1220 * 1;
#X obj -15980 -1246 t b f;
#X obj -15979 -1269 nbx 5 14 -1e+37 1e+37 0 0 empty empty empty 0 -8
0 10 -262144 -1 -1 200 256;
#X obj -15980 -1220 * 1;
#X obj -15920 -1246 t b f;
#X obj -15919 -1269 nbx 5 14 -1e+37 1e+37 0 0 empty empty empty 0 -8
0 10 -262144 -1 -1 200 256;
#X obj -15920 -1220 * 1;
#X obj -17056 -1357 inlet;
#X obj -16974 -1289 r lo;
#X obj -15850 -1246 t b f;
#X obj -15849 -1269 nbx 5 14 -1e+37 1e+37 0 0 empty empty empty 0 -8
0 10 -262144 -1 -1 200 256;
#X obj -15850 -1220 * 1;
#X obj -15635 -1172 t b f;
#X obj -17223 -1168 select 0 1 2 3 4 5 6 7 8 9 10 11 12 13 14 15;
#X obj -15784 -932 outlet;
#X floatatom -16958 -1239 5 0 0 0 - - -;
#X obj -17060 -784 spigot-toggle_jaunenoir;
#X obj -16958 -944 - 1;
#X obj -16957 -919 * -1;
#X obj -16954 -974 tgl 15 0 empty empty empty 17 7 0 10 -262144 -1
-1 0 1;
#X obj -15716 -1247 r ITB;
#X obj -15693 -1150 / 1;
#X obj -15716 -1188 t b f;
#X floatatom -15796 -1130 5 0 0 0 - - -;
#X floatatom -15709 -1118 5 0 0 0 - - -;
#X obj -15757 -1091 spigot-toggle_jaunenoir;
#X obj -15745 -1242 tgl 15 0 empty empty empty 17 7 0 10 -262144 -1
-1 0 1;
#X obj -15777 -1091 spigot-toggle_jaunenoir;
#X obj -15763 -1215 - 1;
#X obj -15761 -1188 * -1;
#X obj -15633 -1236 inlet;
#X obj -16700 -784 spigot-toggle_jaunenoir;
#X floatatom -15767 -986 5 0 0 0 - - -;
#X obj -16954 -1036 r IT1≠T1;
#X obj -15766 -1342 inlet;
#X obj -15716 -1219 + 0;
#X floatatom -16741 -902 5 0 0 0 - - -;
#X floatatom -16607 -839 5 0 0 0 - - -;
#X obj -16662 -770 bng 15 250 50 0 empty empty empty 17 7 0 10 -262144
-1 -1;
#X obj -16702 -761 bng 15 250 50 0 empty empty empty 17 7 0 10 -262144
-1 -1;
#X obj -16524 -757 s tbngtoITB;
#X obj -16459 -810 + 0;
#X floatatom -15751 -1315 12 0 0 0 - - -;
#X obj -15744 -1273 r ITB%ITB;
#X floatatom -15595 -1268 12 0 0 0 - - -;
#X obj -17019 -690 s stpTB;
#X floatatom -17051 -1047 5 0 0 0 - - -;
#X obj -16665 -736 + 1;
#X obj -15562 -1057 s tglidelessB;
#X obj -17178 -1131 bng 15 250 50 0 empty empty empty 17 7 0 10 -262144
-1 -1;
#X obj -17153 -1131 bng 15 250 50 0 empty empty empty 17 7 0 10 -262144
-1 -1;
#X obj -17224 -1131 bng 15 250 50 0 empty empty empty 17 7 0 10 -262144
-1 -1;
#X obj -17203 -1131 bng 15 250 50 0 empty empty empty 17 7 0 10 -262144
-1 -1;
#X obj -17056 -688 mod;
#X obj -17057 -715 + 0;
#X obj -17052 -1073 r ITfloatB;
#X obj -16802 -810 metro 122;
#X obj -16661 -810 metro 200;
#X obj -17016 -620 f;
#X obj -16688 -633 r timeseqtrgrrawinB;
#X obj -16595 -689 t b b;
#X obj -16591 -715 r pitchrawB;
#X obj -16802 -781 spigot-toggle_jaunenoir;
#X obj -16935 -776 r recmodulstepTB;
#X obj -16927 -854 r TAdirect;
#X obj -15785 -964 spigot-toggle_jaunenoir;
#X obj -15745 -962 r lo;
#X obj -15909 -922 r TAdirect;
#X connect 0 0 139 0;
#X connect 1 0 139 0;
#X connect 2 0 139 0;
#X connect 3 0 139 0;
#X connect 4 0 139 0;
#X connect 5 0 139 0;
#X connect 6 0 139 0;
#X connect 7 0 139 0;
#X connect 8 0 139 0;
#X connect 9 0 139 0;
#X connect 10 0 139 0;
#X connect 11 0 139 0;
#X connect 12 0 139 0;
#X connect 13 0 139 0;
#X connect 14 0 0 1;
#X connect 15 0 1 1;
#X connect 16 0 2 1;
#X connect 17 0 3 1;
#X connect 18 0 4 1;
#X connect 19 0 5 1;
#X connect 20 0 6 1;
#X connect 21 0 7 1;
#X connect 22 0 8 1;
#X connect 23 0 9 1;
#X connect 24 0 10 1;
#X connect 25 0 11 1;
#X connect 26 0 12 1;
#X connect 27 0 13 1;
#X connect 28 0 79 0;
#X connect 29 0 82 0;
#X connect 30 0 85 0;
#X connect 31 0 88 0;
#X connect 32 0 97 0;
#X connect 33 0 100 0;
#X connect 34 0 103 0;
#X connect 35 0 106 0;
#X connect 36 0 109 0;
#X connect 37 0 112 0;
#X connect 38 0 115 0;
#X connect 39 0 118 0;
#X connect 40 0 126 0;
#X connect 41 0 121 0;
#X connect 42 0 170 0;
#X connect 42 0 174 1;
#X connect 43 0 172 0;
#X connect 44 0 50 0;
#X connect 45 0 69 1;
#X connect 46 0 94 0;
#X connect 47 0 68 1;
#X connect 48 0 91 0;
#X connect 49 0 43 0;
#X connect 50 0 148 0;
#X connect 51 0 44 1;
#X connect 53 0 147 0;
#X connect 53 0 52 0;
#X connect 53 0 156 0;
#X connect 54 0 161 0;
#X connect 54 0 169 1;
#X connect 55 0 44 0;
#X connect 55 0 164 0;
#X connect 56 0 128 0;
#X connect 57 0 59 0;
#X connect 58 0 173 0;
#X connect 59 0 77 0;
#X connect 60 0 61 0;
#X connect 61 0 58 0;
#X connect 61 0 65 0;
#X connect 61 0 74 1;
#X connect 62 0 70 1;
#X connect 62 0 135 0;
#X connect 62 0 178 1;
#X connect 63 0 54 0;
#X connect 64 0 75 1;
#X connect 65 0 66 0;
#X connect 66 0 70 1;
#X connect 66 0 75 1;
#X connect 66 0 43 0;
#X connect 67 0 73 0;
#X connect 68 0 139 0;
#X connect 69 0 139 0;
#X connect 70 0 132 0;
#X connect 71 0 55 1;
#X connect 71 0 157 0;
#X connect 72 0 42 0;
#X connect 72 0 163 0;
#X connect 73 0 51 0;
#X connect 74 0 67 0;
#X connect 75 0 67 0;
#X connect 76 0 77 1;
#X connect 77 0 153 0;
#X connect 78 0 80 0;
#X connect 78 1 80 1;
#X connect 79 0 78 0;
#X connect 80 0 14 0;
#X connect 81 0 83 0;
#X connect 81 1 83 1;
#X connect 82 0 81 0;
#X connect 83 0 15 0;
#X connect 84 0 86 0;
#X connect 84 1 86 1;
#X connect 85 0 84 0;
#X connect 86 0 16 0;
#X connect 87 0 89 0;
#X connect 87 1 89 1;
#X connect 88 0 87 0;
#X connect 89 0 17 0;
#X connect 90 0 92 0;
#X connect 90 1 92 1;
#X connect 91 0 90 0;
#X connect 92 0 18 0;
#X connect 93 0 95 0;
#X connect 93 1 95 1;
#X connect 94 0 93 0;
#X connect 95 0 47 0;
#X connect 96 0 98 0;
#X connect 96 1 98 1;
#X connect 97 0 96 0;
#X connect 98 0 45 0;
#X connect 99 0 101 0;
#X connect 99 1 101 1;
#X connect 100 0 99 0;
#X connect 101 0 19 0;
#X connect 102 0 104 0;
#X connect 102 1 104 1;
#X connect 103 0 102 0;
#X connect 104 0 20 0;
#X connect 105 0 107 0;
#X connect 105 1 107 1;
#X connect 106 0 105 0;
#X connect 107 0 21 0;
#X connect 108 0 110 0;
#X connect 108 1 110 1;
#X connect 109 0 108 0;
#X connect 110 0 22 0;
#X connect 111 0 113 0;
#X connect 111 1 113 1;
#X connect 112 0 111 0;
#X connect 113 0 23 0;
#X connect 114 0 116 0;
#X connect 114 1 116 1;
#X connect 115 0 114 0;
#X connect 116 0 24 0;
#X connect 117 0 119 0;
#X connect 117 1 119 1;
#X connect 118 0 117 0;
#X connect 119 0 25 0;
#X connect 120 0 122 0;
#X connect 120 1 122 1;
#X connect 121 0 120 0;
#X connect 122 0 26 0;
#X connect 124 0 131 0;
#X connect 125 0 127 0;
#X connect 125 1 127 1;
#X connect 126 0 125 0;
#X connect 127 0 27 0;
#X connect 128 0 73 0;
#X connect 128 1 73 1;
#X connect 129 0 0 0;
#X connect 129 0 167 0;
#X connect 129 1 1 0;
#X connect 129 1 168 0;
#X connect 129 2 2 0;
#X connect 129 2 165 0;
#X connect 129 3 3 0;
#X connect 129 3 166 0;
#X connect 129 4 4 0;
#X connect 129 5 68 0;
#X connect 129 6 69 0;
#X connect 129 7 5 0;
#X connect 129 8 6 0;
#X connect 129 9 7 0;
#X connect 129 10 8 0;
#X connect 129 11 9 0;
#X connect 129 12 10 0;
#X connect 129 13 11 0;
#X connect 129 14 12 0;
#X connect 129 15 13 0;
#X connect 131 0 80 0;
#X connect 131 0 83 0;
#X connect 131 0 86 0;
#X connect 131 0 89 0;
#X connect 131 0 92 0;
#X connect 131 0 95 0;
#X connect 131 0 98 0;
#X connect 131 0 101 0;
#X connect 131 0 104 0;
#X connect 131 0 107 0;
#X connect 131 0 110 0;
#X connect 131 0 113 0;
#X connect 131 0 116 0;
#X connect 131 0 119 0;
#X connect 131 0 122 0;
#X connect 131 0 127 0;
#X connect 132 0 42 0;
#X connect 133 0 134 0;
#X connect 134 0 147 1;
#X connect 135 0 133 0;
#X connect 135 0 132 1;
#X connect 136 0 151 0;
#X connect 136 0 160 0;
#X connect 137 0 140 0;
#X connect 138 0 137 0;
#X connect 138 1 137 1;
#X connect 139 0 137 0;
#X connect 139 0 143 0;
#X connect 140 0 141 0;
#X connect 141 0 55 0;
#X connect 142 0 144 0;
#X connect 142 0 141 1;
#X connect 143 0 55 0;
#X connect 144 0 145 0;
#X connect 145 0 143 1;
#X connect 146 0 56 0;
#X connect 147 0 155 0;
#X connect 148 0 152 0;
#X connect 148 0 181 0;
#X connect 149 0 135 0;
#X connect 150 0 158 0;
#X connect 151 0 138 0;
#X connect 152 0 75 0;
#X connect 152 0 172 1;
#X connect 153 0 74 0;
#X connect 153 0 173 1;
#X connect 154 0 72 0;
#X connect 154 0 52 0;
#X connect 154 0 156 0;
#X connect 155 0 72 0;
#X connect 157 0 76 0;
#X connect 157 0 131 0;
#X connect 159 0 142 0;
#X connect 162 0 70 0;
#X connect 163 0 72 1;
#X connect 169 0 129 0;
#X connect 170 0 169 0;
#X connect 171 0 162 0;
#X connect 172 0 178 0;
#X connect 173 0 154 0;
#X connect 174 0 170 0;
#X connect 175 0 155 0;
#X connect 175 0 174 0;
#X connect 176 0 43 0;
#X connect 176 1 43 0;
#X connect 177 0 176 0;
#X connect 178 0 53 0;
#X connect 179 0 53 0;
#X connect 180 0 132 1;
#X connect 180 0 43 0;
#X connect 181 0 130 0;
#X connect 182 0 181 1;
#X connect 183 0 181 1;
