#N canvas -165 0 1234 837 12;
#X obj -16867 -1324 f;
#X obj -16809 -1324 f;
#X obj -16752 -1324 f;
#X obj -16694 -1324 f;
#X obj -16574 -1318 f;
#X obj -16415 -1318 f;
#X obj -16248 -1323 f;
#X obj -16191 -1322 f;
#X obj -16133 -1322 f;
#X obj -16092 -1324 f;
#X obj -16009 -1323 f;
#X obj -15966 -1322 f;
#X obj -15904 -1322 f;
#X obj -15844 -1322 f;
#X obj -16867 -1349 nbx 5 14 -1e+37 1e+37 0 0 empty empty empty 0 -8
0 10 -262144 -1 -1 200 256;
#X obj -16809 -1349 nbx 5 14 -1e+37 1e+37 0 0 empty empty empty 0 -8
0 10 -262144 -1 -1 1000 256;
#X obj -16752 -1349 nbx 5 14 -1e+37 1e+37 0 0 empty empty empty 0 -8
0 10 -262144 -1 -1 200 256;
#X obj -16694 -1349 nbx 5 14 -1e+37 1e+37 0 0 empty empty empty 0 -8
0 10 -262144 -1 -1 100 256;
#X obj -16586 -1343 nbx 5 14 -1e+37 1e+37 0 0 empty empty empty 0 -8
0 10 -262144 -1 -1 200 256;
#X obj -16411 -1343 nbx 5 14 -1e+37 1e+37 0 0 empty empty empty 0 -8
0 10 -262144 -1 -1 200 256;
#X obj -16234 -1349 nbx 5 14 -1e+37 1e+37 0 0 empty empty empty 0 -8
0 10 -262144 -1 -1 200 256;
#X obj -16180 -1349 nbx 5 14 -1e+37 1e+37 0 0 empty empty empty 0 -8
0 10 -262144 -1 -1 200 256;
#X obj -16118 -1349 nbx 5 14 -1e+37 1e+37 0 0 empty empty empty 0 -8
0 10 -262144 -1 -1 200 256;
#X obj -16058 -1349 nbx 5 14 -1e+37 1e+37 0 0 empty empty empty 0 -8
0 10 -262144 -1 -1 200 256;
#X obj -15989 -1349 nbx 5 14 -1e+37 1e+37 0 0 empty empty empty 0 -8
0 10 -262144 -1 -1 200 256;
#X obj -15927 -1349 nbx 5 14 -1e+37 1e+37 0 0 empty empty empty 0 -8
0 10 -262144 -1 -1 200 256;
#X obj -15861 -1349 nbx 5 14 -1e+37 1e+37 0 0 empty empty empty 0 -8
0 10 -262144 -1 -1 200 256;
#X obj -15787 -1351 nbx 5 14 -1e+37 1e+37 0 0 empty empty empty 0 -8
0 10 -262144 -1 -1 200 256;
#X obj -16856 -1476 inlet;
#X obj -16794 -1474 inlet;
#X obj -16737 -1475 inlet;
#X obj -16657 -1474 inlet;
#X obj -16434 -1474 inlet;
#X obj -16385 -1474 inlet;
#X obj -16260 -1476 inlet;
#X obj -16215 -1475 inlet;
#X obj -16173 -1474 inlet;
#X obj -16129 -1475 inlet;
#X obj -15974 -1475 inlet, f 6;
#X obj -15924 -1473 inlet;
#X obj -15642 -1384 inlet;
#X obj -15870 -1477 inlet;
#X floatatom -17055 -894 5 0 0 0 - - -;
#X obj -15766 -981 outlet;
#X obj -16799 -846 tgl 15 0 empty empty empty 17 7 0 10 -262144 -1
-1 1 1;
#X floatatom -16725 -857 5 0 0 0 - - -;
#X obj -15770 -1055 pack \$1 \$2;
#X obj -16468 -1343 nbx 5 14 -1e+37 1e+37 0 0 empty empty empty 0 -8
0 10 -262144 -1 -1 200 256;
#X obj -16485 -1474 inlet;
#X obj -16525 -1343 nbx 5 14 -1e+37 1e+37 0 0 empty empty empty 0 -8
0 10 -262144 -1 -1 300 256;
#X obj -16567 -1474 inlet;
#X obj -16862 -1003 inlet;
#X obj -15771 -1030 line;
#X obj -17052 -864 mod;
#X floatatom -17056 -841 5 0 0 0 - - -;
#X floatatom -15654 -1094 5 0 0 0 - - -;
#X obj -16796 -721 outlet;
#X obj -16788 -670 outlet;
#X obj -16799 -773 bng 15 250 50 0 empty empty empty 17 7 0 10 -262144
-1 -1;
#X floatatom -17015 -876 5 0 0 0 - - -;
#X obj -15777 -1170 * 1;
#X floatatom -15635 -1206 12 0 0 0 - - -;
#X obj -16611 -998 inlet;
#X obj -16647 -852 tgl 15 0 empty empty empty 17 7 0 10 -262144 -1
-1 0 1;
#X floatatom -16564 -859 5 0 0 0 - - -;
#X obj -16751 -995 inlet;
#X floatatom -16648 -906 5 0 0 0 - - -;
#X obj -16986 -1005 r lo;
#X obj -16747 -1028 inlet;
#X obj -16375 -802 r lo;
#X obj -16646 -829 metro 200;
#X obj -16465 -971 - 1;
#X obj -16463 -944 * -1;
#X floatatom -15689 -1172 5 0 0 0 - - -;
#X obj -16528 -1319 f;
#X obj -16478 -1318 f;
#X obj -17055 -954 spigot-toggle_jaunenoir;
#X obj -17002 -1059 inlet;
#X obj -16648 -803 f;
#X obj -16612 -802 + 1;
#X obj -15649 -1126 * 1;
#X obj -16268 -906 spigot-toggle_jaunenoir;
#X obj -16307 -910 spigot-toggle_jaunenoir;
#X floatatom -16521 -825 5 0 0 0 - - -;
#X obj -16561 -830 * 1;
#X obj -16850 -1415 t b f;
#X obj -16849 -1438 nbx 5 14 -1e+37 1e+37 0 0 empty empty empty 0 -8
0 10 -262144 -1 -1 200 256;
#X obj -16850 -1389 * 1;
#X obj -16790 -1415 t b f;
#X obj -16789 -1438 nbx 5 14 -1e+37 1e+37 0 0 empty empty empty 0 -8
0 10 -262144 -1 -1 1000 256;
#X obj -16790 -1389 * 1;
#X obj -16732 -1415 t b f;
#X obj -16731 -1438 nbx 5 14 -1e+37 1e+37 0 0 empty empty empty 0 -8
0 10 -262144 -1 -1 200 256;
#X obj -16732 -1389 * 1;
#X obj -16672 -1415 t b f;
#X obj -16671 -1438 nbx 5 14 -1e+37 1e+37 0 0 empty empty empty 0 -8
0 10 -262144 -1 -1 100 256;
#X obj -16672 -1389 * 1;
#X obj -16580 -1415 t b f;
#X obj -16579 -1438 nbx 5 14 -1e+37 1e+37 0 0 empty empty empty 0 -8
0 10 -262144 -1 -1 200 256;
#X obj -16580 -1389 * 1;
#X obj -16520 -1415 t b f;
#X obj -16519 -1438 nbx 5 14 -1e+37 1e+37 0 0 empty empty empty 0 -8
0 10 -262144 -1 -1 300 256;
#X obj -16520 -1389 * 1;
#X obj -16460 -1415 t b f;
#X obj -16459 -1438 nbx 5 14 -1e+37 1e+37 0 0 empty empty empty 0 -8
0 10 -262144 -1 -1 200 256;
#X obj -16460 -1389 * 1;
#X obj -16400 -1415 t b f;
#X obj -16399 -1438 nbx 5 14 -1e+37 1e+37 0 0 empty empty empty 0 -8
0 10 -262144 -1 -1 200 256;
#X obj -16400 -1389 * 1;
#X obj -16302 -1415 t b f;
#X obj -16301 -1438 nbx 5 14 -1e+37 1e+37 0 0 empty empty empty 0 -8
0 10 -262144 -1 -1 200 256;
#X obj -16302 -1389 * 1;
#X obj -16242 -1415 t b f;
#X obj -16241 -1438 nbx 5 14 -1e+37 1e+37 0 0 empty empty empty 0 -8
0 10 -262144 -1 -1 200 256;
#X obj -16242 -1389 * 1;
#X obj -16180 -1415 t b f;
#X obj -16179 -1438 nbx 5 14 -1e+37 1e+37 0 0 empty empty empty 0 -8
0 10 -262144 -1 -1 200 256;
#X obj -16180 -1389 * 1;
#X obj -16120 -1415 t b f;
#X obj -16119 -1438 nbx 5 14 -1e+37 1e+37 0 0 empty empty empty 0 -8
0 10 -262144 -1 -1 200 256;
#X obj -16120 -1389 * 1;
#X obj -16032 -1415 t b f;
#X obj -16031 -1438 nbx 5 14 -1e+37 1e+37 0 0 empty empty empty 0 -8
0 10 -262144 -1 -1 200 256;
#X obj -16032 -1389 * 1;
#X obj -15970 -1415 t b f;
#X obj -15969 -1438 nbx 5 14 -1e+37 1e+37 0 0 empty empty empty 0 -8
0 10 -262144 -1 -1 200 256;
#X obj -15970 -1389 * 1;
#X obj -15910 -1415 t b f;
#X obj -15909 -1438 nbx 5 14 -1e+37 1e+37 0 0 empty empty empty 0 -8
0 10 -262144 -1 -1 200 256;
#X obj -15910 -1389 * 1;
#X obj -17056 -1357 inlet;
#X obj -16964 -1458 r lo;
#X obj -15820 -1415 t b f;
#X obj -15819 -1438 nbx 5 14 -1e+37 1e+37 0 0 empty empty empty 0 -8
0 10 -262144 -1 -1 200 256;
#X obj -15820 -1389 * 1;
#X obj -15635 -1172 t b f;
#X obj -16800 -825 metro 300;
#X obj -16550 -1010 select 0 1 2 3 4 5 6 7 8 9 10 11 12 13 14 15;
#X obj -15732 -1261 outlet;
#X floatatom -17027 -1004 5 0 0 0 - - -;
#X floatatom -16945 -1422 5 0 0 0 - - -;
#X obj -17054 -921 spigot-toggle_jaunenoir;
#X obj -16934 -969 - 1;
#X obj -16933 -944 * -1;
#X obj -16932 -1065 tgl 15 0 empty empty IT_control_chgnmt_de_step_de_stepseqT_ou_pas
17 7 0 10 -262144 -1 -1 0 1;
#X obj -15546 -1381 r ITB;
#X obj -15510 -1258 / 1;
#X obj -15533 -1296 t b f;
#X floatatom -15781 -1298 5 0 0 0 - - -;
#X floatatom -15526 -1226 5 0 0 0 - - -;
#X obj -15750 -1236 spigot-toggle_jaunenoir;
#X obj -15844 -1248 tgl 15 0 empty empty empty 17 7 0 10 -262144 -1
-1 1 1;
#X obj -15777 -1250 spigot-toggle_jaunenoir;
#X obj -15848 -1223 - 1;
#X obj -15846 -1196 * -1;
#X obj -15382 -1367 inlet;
#X obj -16713 -786 spigot-toggle_jaunenoir;
#X obj -16900 -813 ==;
#X floatatom -16903 -785 5 0 0 0 - - -;
#X obj -16297 -394 s ≠ITstep1;
#X obj -16940 -832 spigot-toggle_jaunenoir;
#X obj -16703 -690 s bbstpt;
#X floatatom -15767 -1006 5 0 0 0 - - -;
#X obj -16255 -492 sel;
#X obj -16255 -463 bng 15 250 50 0 empty empty empty 17 7 0 10 -262144
-1 -1;
#X obj -16980 -819 + 1;
#X msg -16116 -512 iteration avec ≠IT plusieur valeur de temps par
stepG . une stp G qui se retpet et qui recoit plusieur fois plusieurs
des valeurs de temps venant de stepseq T1;
#X obj -16932 -1127 r IT1≠T1;
#X obj -15498 -1123 inlet;
#X obj -15533 -1327 + 0;
#X floatatom -16707 -997 5 0 0 0 - - -;
#X obj -16705 -966 > 5;
#X obj -16714 -938 spigot-toggle_jaunenoir;
#X floatatom -16714 -902 5 0 0 0 - - -;
#X floatatom -16646 -1052 5 0 0 0 - - -;
#X obj -16645 -995 > 5;
#X obj -16652 -968 spigot-toggle_jaunenoir;
#X floatatom -16652 -932 5 0 0 0 - - -;
#X connect 0 0 148 0;
#X connect 1 0 148 0;
#X connect 2 0 148 0;
#X connect 3 0 148 0;
#X connect 4 0 148 0;
#X connect 5 0 148 0;
#X connect 6 0 148 0;
#X connect 7 0 148 0;
#X connect 8 0 148 0;
#X connect 9 0 148 0;
#X connect 10 0 148 0;
#X connect 11 0 148 0;
#X connect 12 0 148 0;
#X connect 13 0 148 0;
#X connect 14 0 0 1;
#X connect 15 0 1 1;
#X connect 16 0 2 1;
#X connect 17 0 3 1;
#X connect 18 0 4 1;
#X connect 19 0 5 1;
#X connect 20 0 6 1;
#X connect 21 0 7 1;
#X connect 22 0 8 1;
#X connect 23 0 9 1;
#X connect 24 0 10 1;
#X connect 25 0 11 1;
#X connect 26 0 12 1;
#X connect 27 0 13 1;
#X connect 28 0 86 0;
#X connect 29 0 89 0;
#X connect 30 0 92 0;
#X connect 31 0 95 0;
#X connect 32 0 104 0;
#X connect 33 0 107 0;
#X connect 34 0 110 0;
#X connect 35 0 113 0;
#X connect 36 0 116 0;
#X connect 37 0 119 0;
#X connect 38 0 122 0;
#X connect 39 0 125 0;
#X connect 40 0 133 0;
#X connect 41 0 128 0;
#X connect 42 0 53 0;
#X connect 42 0 57 0;
#X connect 44 0 136 0;
#X connect 45 0 136 1;
#X connect 46 0 52 0;
#X connect 47 0 75 1;
#X connect 48 0 101 0;
#X connect 49 0 74 1;
#X connect 50 0 98 0;
#X connect 51 0 44 0;
#X connect 52 0 162 0;
#X connect 53 0 54 0;
#X connect 54 0 137 0;
#X connect 54 0 165 0;
#X connect 55 0 46 1;
#X connect 58 0 156 0;
#X connect 58 0 161 0;
#X connect 58 0 56 0;
#X connect 59 0 53 1;
#X connect 59 0 157 1;
#X connect 60 0 46 0;
#X connect 61 0 135 0;
#X connect 62 0 64 0;
#X connect 63 0 70 0;
#X connect 64 0 84 0;
#X connect 65 0 66 0;
#X connect 66 0 63 0;
#X connect 66 0 71 0;
#X connect 66 0 81 1;
#X connect 67 0 76 1;
#X connect 67 0 144 0;
#X connect 67 0 172 1;
#X connect 67 0 176 1;
#X connect 68 0 59 0;
#X connect 69 0 82 1;
#X connect 70 0 78 0;
#X connect 71 0 72 0;
#X connect 72 0 76 1;
#X connect 72 0 82 1;
#X connect 73 0 80 0;
#X connect 74 0 148 0;
#X connect 75 0 148 0;
#X connect 76 0 141 0;
#X connect 77 0 139 0;
#X connect 77 0 60 1;
#X connect 78 0 79 0;
#X connect 78 0 42 0;
#X connect 79 0 78 1;
#X connect 80 0 55 0;
#X connect 81 0 73 0;
#X connect 82 0 73 0;
#X connect 83 0 84 1;
#X connect 84 0 174 0;
#X connect 85 0 87 0;
#X connect 85 1 87 1;
#X connect 86 0 85 0;
#X connect 87 0 14 0;
#X connect 88 0 90 0;
#X connect 88 1 90 1;
#X connect 89 0 88 0;
#X connect 90 0 15 0;
#X connect 91 0 93 0;
#X connect 91 1 93 1;
#X connect 92 0 91 0;
#X connect 93 0 16 0;
#X connect 94 0 96 0;
#X connect 94 1 96 1;
#X connect 95 0 94 0;
#X connect 96 0 17 0;
#X connect 97 0 99 0;
#X connect 97 1 99 1;
#X connect 98 0 97 0;
#X connect 99 0 18 0;
#X connect 100 0 102 0;
#X connect 100 1 102 1;
#X connect 101 0 100 0;
#X connect 102 0 49 0;
#X connect 103 0 105 0;
#X connect 103 1 105 1;
#X connect 104 0 103 0;
#X connect 105 0 47 0;
#X connect 106 0 108 0;
#X connect 106 1 108 1;
#X connect 107 0 106 0;
#X connect 108 0 19 0;
#X connect 109 0 111 0;
#X connect 109 1 111 1;
#X connect 110 0 109 0;
#X connect 111 0 20 0;
#X connect 112 0 114 0;
#X connect 112 1 114 1;
#X connect 113 0 112 0;
#X connect 114 0 21 0;
#X connect 115 0 117 0;
#X connect 115 1 117 1;
#X connect 116 0 115 0;
#X connect 117 0 22 0;
#X connect 118 0 120 0;
#X connect 118 1 120 1;
#X connect 119 0 118 0;
#X connect 120 0 23 0;
#X connect 121 0 123 0;
#X connect 121 1 123 1;
#X connect 122 0 121 0;
#X connect 123 0 24 0;
#X connect 124 0 126 0;
#X connect 124 1 126 1;
#X connect 125 0 124 0;
#X connect 126 0 25 0;
#X connect 127 0 129 0;
#X connect 127 1 129 1;
#X connect 128 0 127 0;
#X connect 129 0 26 0;
#X connect 130 0 76 0;
#X connect 131 0 140 0;
#X connect 132 0 134 0;
#X connect 132 1 134 1;
#X connect 133 0 132 0;
#X connect 134 0 27 0;
#X connect 135 0 80 0;
#X connect 135 1 80 1;
#X connect 136 0 58 0;
#X connect 137 0 0 0;
#X connect 137 1 1 0;
#X connect 137 2 2 0;
#X connect 137 3 3 0;
#X connect 137 4 4 0;
#X connect 137 5 74 0;
#X connect 137 6 75 0;
#X connect 137 7 5 0;
#X connect 137 8 6 0;
#X connect 137 9 7 0;
#X connect 137 10 8 0;
#X connect 137 11 9 0;
#X connect 137 12 10 0;
#X connect 137 13 11 0;
#X connect 137 14 12 0;
#X connect 137 15 13 0;
#X connect 140 0 87 0;
#X connect 140 0 90 0;
#X connect 140 0 93 0;
#X connect 140 0 96 0;
#X connect 140 0 99 0;
#X connect 140 0 102 0;
#X connect 140 0 105 0;
#X connect 140 0 108 0;
#X connect 140 0 111 0;
#X connect 140 0 114 0;
#X connect 140 0 117 0;
#X connect 140 0 120 0;
#X connect 140 0 123 0;
#X connect 140 0 126 0;
#X connect 140 0 129 0;
#X connect 140 0 134 0;
#X connect 141 0 42 0;
#X connect 142 0 143 0;
#X connect 143 0 160 1;
#X connect 143 0 156 1;
#X connect 144 0 142 0;
#X connect 144 0 141 1;
#X connect 145 0 169 0;
#X connect 146 0 149 0;
#X connect 147 0 146 0;
#X connect 147 1 146 1;
#X connect 148 0 146 0;
#X connect 148 0 152 0;
#X connect 149 0 150 0;
#X connect 150 0 60 0;
#X connect 150 0 138 0;
#X connect 151 0 153 0;
#X connect 151 0 150 1;
#X connect 152 0 60 0;
#X connect 152 0 138 0;
#X connect 153 0 154 0;
#X connect 154 0 152 1;
#X connect 155 0 151 0;
#X connect 156 0 78 0;
#X connect 157 0 158 0;
#X connect 158 0 163 0;
#X connect 160 0 157 0;
#X connect 162 0 43 0;
#X connect 162 0 170 0;
#X connect 163 1 164 0;
#X connect 164 0 159 0;
#X connect 165 0 160 0;
#X connect 167 0 144 0;
#X connect 168 0 61 0;
#X connect 169 0 147 0;
#X connect 170 0 171 0;
#X connect 170 0 172 0;
#X connect 172 0 173 0;
#X connect 173 0 82 0;
#X connect 173 0 45 0;
#X connect 174 0 175 0;
#X connect 174 0 176 0;
#X connect 176 0 177 0;
#X connect 177 0 81 0;
#X connect 177 0 70 1;
