#N canvas -157 172 1624 698 10;
#X obj 1151 78 pack f f;
#X obj 1190 37 t b f;
#X msg 1152 119 \; /receive_symbol/toggle pos \$1 \$2;
#X text 1459 225 move it;
#X floatatom 1059 297 5 0 0 0 - - -;
#N canvas 0 0 450 300 (subpatch) 0;
#X array array7 3 float 3;
#A 0 0.4501 0.0166667 0.878125;
#X coords 0 0 3 1 704 320 1 0 0;
#X restore 0 -4 graph;
#X obj 1058 325 tabread array7;
#X floatatom 1175 297 5 0 0 0 - - -;
#X floatatom 1265 292 5 0 0 0 - - -;
#X obj 1180 321 tabwrite array7;
#X obj 969 279 r STPA;
#X obj 1162 241 r A;
#X floatatom 1015 281 0 0 0 0 - - -;
#X floatatom 1348 281 5 0 0 0 - - -;
#X msg 1350 320 \; array7 resize \$1;
#X obj 1338 242 r nbrSTPA;
#X obj 1243 177 tgl 20 0 empty empty empty 35 14 1 12 -262144 -1 -1
0 1;
#X obj 1181 267 spigot-toggle_jaune;
#X obj 1210 247 r lo;
#X floatatom 1095 715 5 0 0 0 - - -;
#N canvas 0 0 450 300 (subpatch) 0;
#X array array8 1 float 3;
#A 0 0.1875;
#X coords 0 1 1 -1 600 30 1 0 0;
#X restore 926 384 graph;
#X floatatom 1086 473 5 0 0 0 - - -;
#X floatatom 1217 711 5 0 0 0 - - -;
#X floatatom 1301 710 5 0 0 0 - - -;
#X obj 969 623 r STPA;
#X obj 1216 659 r A;
#X floatatom 1013 624 0 0 0 0 - - -;
#X floatatom 1056 600 5 0 0 0 - - -;
#X obj 954 586 r nbrSTPA;
#X obj 1279 595 tgl 20 0 empty empty empty 35 14 1 12 -262144 -1 -1
0 1;
#X obj 1217 685 spigot-toggle_jaune;
#X obj 926 417 vsl 670 30 0 1 0 0 empty empty empty 0 -9 0 10 -262144
-1 -258113 0 1;
#X msg 1092 621 \; array8 resize \$1;
#X obj 1094 743 tabread array8;
#X obj 1216 738 tabwrite array8;
#X obj 1125 -38 r STPA;
#X floatatom 1123 55 0 0 0 0 - - -;
#X floatatom 1190 13 5 0 0 0 - - -;
#X floatatom 822 164 6 0 0 0 - - -;
#X msg 823 185 color \$1 33;
#X obj 820 217 s /receive_symbol/toggle;
#X floatatom 1126 -10 0 0 0 0 - - -;
#X obj 1191 -34 r lo;
#X obj 825 48 sel;
#X obj 844 70 bng 15 250 50 0 empty empty empty 17 7 0 10 -262144 -1
-1;
#X obj 821 71 bng 15 250 50 0 empty empty empty 17 7 0 10 -262144 -1
-1;
#X msg 817 95 12;
#X obj 738 24 r sl_trgA;
#X obj 739 43 r sl_trgB;
#X obj 816 115 t b f;
#X obj 817 137 +;
#X msg 850 95 0;
#X obj 738 63 - 1;
#X obj 735 86 * -1;
#X obj 739 104 * -11;
#X obj 962 76 r lo;
#X floatatom 1001 -29 12 0 0 0 - - -;
#X obj 1124 31 + 336.4;
#X obj 1124 14 * 42.8;
#X msg 1190 -10 329;
#X obj 825 22 r trgrmodenvA;
#X connect 0 0 2 0;
#X connect 1 0 0 0;
#X connect 1 1 0 1;
#X connect 4 0 6 0;
#X connect 7 0 9 0;
#X connect 8 0 9 1;
#X connect 11 0 17 0;
#X connect 12 0 4 0;
#X connect 12 0 8 0;
#X connect 15 0 13 0;
#X connect 16 0 17 1;
#X connect 17 0 7 0;
#X connect 19 0 33 0;
#X connect 21 0 31 0;
#X connect 22 0 34 0;
#X connect 23 0 34 1;
#X connect 25 0 30 0;
#X connect 26 0 19 0;
#X connect 26 0 23 0;
#X connect 28 0 27 0;
#X connect 29 0 30 1;
#X connect 30 0 22 0;
#X connect 33 0 21 0;
#X connect 35 0 41 0;
#X connect 36 0 0 0;
#X connect 37 0 1 0;
#X connect 38 0 39 0;
#X connect 39 0 40 0;
#X connect 41 0 58 0;
#X connect 42 0 59 0;
#X connect 43 0 45 0;
#X connect 43 1 44 0;
#X connect 44 0 51 0;
#X connect 45 0 46 0;
#X connect 46 0 49 0;
#X connect 47 0 52 0;
#X connect 48 0 52 0;
#X connect 49 0 50 0;
#X connect 49 1 50 1;
#X connect 50 0 38 0;
#X connect 51 0 38 0;
#X connect 52 0 53 0;
#X connect 53 0 54 0;
#X connect 54 0 50 0;
#X connect 55 0 54 0;
#X connect 56 0 57 1;
#X connect 57 0 36 0;
#X connect 58 0 57 0;
#X connect 59 0 37 0;
#X connect 60 0 43 0;
