#N canvas 697 619 377 300 12;
#X floatatom 814 160 6 0 0 0 - - -;
#X msg 823 185 color \$1 33;
#X obj 825 48 sel;
#X obj 844 70 bng 15 250 50 0 empty empty empty 17 7 0 10 -262144 -1
-1;
#X obj 821 71 bng 15 250 50 0 empty empty empty 17 7 0 10 -262144 -1
-1;
#X msg 850 95 0;
#X msg 817 95 12;
#X obj 816 115 t b f;
#X obj 817 137 +;
#X obj 820 217 s /receive_symbol/toggle1;
#X obj 1151 76 pack f f;
#X obj 1190 35 t b f;
#X floatatom 1123 53 0 0 0 0 - - -;
#X floatatom 1190 11 5 0 0 0 - - -;
#X floatatom 1125 -12 0 0 0 0 - - -;
#X obj 1191 -36 r lo;
#X msg 1152 118 \; /receive_symbol/toggle1 pos \$1 \$2;
#X obj 1125 12 * 43;
#X obj 1125 -40 r STPB;
#X obj 738 63 - 1;
#X obj 735 86 * -1;
#X obj 738 24 r sl_trgAB;
#X obj 739 43 r sl_trgBB;
#X obj 736 106 * -11;
#X obj 904 117 r lo;
#X msg 698 64 0;
#X obj 1128 32 + 335.5;
#X msg 1191 -12 549;
#X obj 825 22 r trgrmodenvB;
#X connect 0 0 1 0;
#X connect 1 0 9 0;
#X connect 2 0 4 0;
#X connect 2 1 3 0;
#X connect 3 0 5 0;
#X connect 4 0 6 0;
#X connect 5 0 0 0;
#X connect 6 0 7 0;
#X connect 7 0 8 0;
#X connect 7 1 8 1;
#X connect 8 0 0 0;
#X connect 10 0 16 0;
#X connect 11 0 10 0;
#X connect 11 1 10 1;
#X connect 12 0 10 0;
#X connect 13 0 11 0;
#X connect 14 0 17 0;
#X connect 15 0 27 0;
#X connect 17 0 26 0;
#X connect 18 0 14 0;
#X connect 19 0 20 0;
#X connect 20 0 23 0;
#X connect 21 0 19 0;
#X connect 22 0 19 0;
#X connect 23 0 8 0;
#X connect 24 0 25 0;
#X connect 25 0 19 0;
#X connect 26 0 12 0;
#X connect 27 0 13 0;
#X connect 28 0 2 0;
