#N canvas 1032 66 1260 974 12;
#X obj 65 269 cnv 15 28 124 empty empty empty 20 6 0 18 -1 -66577 0
;
#X obj -61 -298 spigot-toggle_violet;
#X obj -111 -298 spigot-toggle_violet;
#X floatatom 110 -509 5 0 0 0 - - -;
#X obj 73 -472 / 127;
#X obj 80 -222 tgl 20 0 empty empty ☞ 2 9 0 45 -1 -260097 -260097
1 1;
#X floatatom 63 -280 5 0 0 0 speed - -;
#X obj -26 -48 bng 15 250 50 0 empty empty empty 17 7 0 10 -262144
-1 -1;
#X floatatom 63 -337 12 0 0 2 - - -;
#X obj 66 -441 - 1;
#X obj 62 -414 * -1;
#X obj 279 72 t b f;
#X obj 283 99 * 1;
#N canvas 293 158 494 344 META 0;
#X text 12 245 HELP_PATCH_AUTHORS "pd meta" information added by Jonathan
Wilkes for Pd version 0.42.;
#X text 12 25 LICENSE GPL v2;
#X text 12 225 AUTHOR Olaf Matthes <olaf.matthes@gmx.de>;
#X text 12 205 OUTLET_0 float;
#X text 12 105 INLET_1 float;
#X text 12 45 DESCRIPTION scale input from a certain input range to
lie between output boundaries;
#X text 12 5 KEYWORDS control;
#X text 12 85 INLET_0 float;
#X text 12 125 INLET_2 float;
#X text 12 145 INLET_3 float;
#X text 12 165 INLET_4 float;
#X text 12 185 INLET_5 float;
#X restore 855 212 pd META;
#X obj 62 -389 * 1;
#X obj 64 -363 * 2;
#X obj -26 -27 spigot-toggle_violet;
#X msg -32 142 0;
#X obj -29 101 r lo;
#X msg -30 171 1;
#X obj -88 -434 r B;
#X obj -88 -402 * 2;
#X obj -88 -370 - 1;
#X obj -135 -397 * 2;
#X obj -135 -365 - 1;
#X obj -135 -429 r A;
#X obj 112 -306 * 0.1;
#X obj 112 1 snapshot~;
#X msg 64 -53 0;
#X obj 231 -131 f;
#X obj 316 -72 bng 15 250 50 0 empty empty empty 17 7 0 10 -262144
-1 -1;
#X obj 112 -24 phasor~;
#X obj 190 -135 bng 15 250 50 0 empty empty empty 17 7 0 10 -262144
-1 -1;
#X obj 199 -100 f;
#X obj 187 -162 sel;
#X obj 112 -49 sig~ 1;
#X msg 314 -43 0;
#X obj 68 -3 bng 15 250 50 0 empty empty empty 17 7 0 10 -262144 -1
-1;
#X floatatom 99 32 22 0 0 0 - - -;
#X msg 217 -54 1;
#X obj 65 -316 - 1;
#X obj -123 5 spigot-toggle_violet;
#X obj 85 -109 sel;
#X floatatom 310 -130 22 0 0 0 - - -;
#X obj 5 -294 spigot-toggle_violet;
#X obj -24 -298 spigot-toggle_violet;
#X obj -1 -402 * 2;
#X obj -1 -370 - 1;
#X obj -48 -397 * 2;
#X obj -48 -365 - 1;
#X obj 100 101 cnv 15 57 28 empty tmstrtchBvisu empty 1 8 0 15 -262144
-260097 0;
#X obj 129 101 mknob 28 8000 0.001 2 0 0 empty empty empty 8 14 0 20
-1 -262144 -262144 0 1;
#X obj -135 -333 * 0.01;
#X obj -88 -338 * 0.01;
#X obj -48 -333 * 0.01;
#X obj -1 -338 * 0.01;
#X obj 144 130 tgl 14 0 empty empty B 4 7 1 10 -1 -262144 -262144 0
1;
#X obj -30 77 bng 15 220 50 0 empty empty 0 6 8 0 6 -1 -262144 -262144
;
#X obj 130 144 tgl 14 0 empty empty a 5 7 1 10 -1 -262144 -262144 0
1;
#X obj 144 144 tgl 14 0 empty empty b 5 7 1 10 -1 -262144 -262144 0
1;
#X obj -50 -429 r fll0;
#X obj -1 -432 r fll1;
#X obj 65 -79 r 0+;
#X obj 101 130 bng 28 220 50 0 empty empty o 6 12 1 30 -1 -262144 -262144
;
#X obj 100 101 mknob 28 8000 -0.1 0.1 0 0 empty empty empty 6 14 0
28 -262144 -1 -1 0 1;
#X obj 130 130 tgl 14 0 empty empty A 4 7 1 10 -1 -262144 -262144 0
1;
#X obj 70 -532 ctlin 55;
#X obj 115 -244 r reposetoinoffBA;
#X obj 115 -221 r reposetoinoffBB;
#X obj 265 27 s stretchB;
#X obj -123 -23 r BBBmod;
#X obj 79 -143 r BBonoff;
#X connect 1 0 6 0;
#X connect 2 0 6 0;
#X connect 4 0 9 0;
#X connect 5 0 16 1;
#X connect 5 0 34 0;
#X connect 5 0 41 1;
#X connect 6 0 64 0;
#X connect 7 0 16 0;
#X connect 8 0 40 0;
#X connect 9 0 10 0;
#X connect 10 0 14 0;
#X connect 11 0 12 0;
#X connect 11 1 12 1;
#X connect 12 0 29 1;
#X connect 12 0 35 0;
#X connect 12 0 43 0;
#X connect 14 0 15 0;
#X connect 15 0 8 0;
#X connect 16 0 37 0;
#X connect 17 0 64 0;
#X connect 18 0 19 0;
#X connect 18 0 17 0;
#X connect 18 0 41 1;
#X connect 19 0 51 0;
#X connect 20 0 21 0;
#X connect 21 0 22 0;
#X connect 22 0 53 0;
#X connect 23 0 24 0;
#X connect 24 0 52 0;
#X connect 25 0 23 0;
#X connect 26 0 6 0;
#X connect 27 0 38 0;
#X connect 28 0 35 0;
#X connect 28 0 31 1;
#X connect 29 0 33 1;
#X connect 30 0 36 0;
#X connect 31 0 27 0;
#X connect 32 0 33 0;
#X connect 33 0 35 0;
#X connect 34 0 30 0;
#X connect 34 0 29 0;
#X connect 34 1 32 0;
#X connect 35 0 31 0;
#X connect 36 0 27 0;
#X connect 36 0 35 0;
#X connect 37 0 27 0;
#X connect 38 0 69 0;
#X connect 39 0 31 1;
#X connect 39 0 35 0;
#X connect 40 0 26 0;
#X connect 41 0 7 0;
#X connect 42 0 28 0;
#X connect 42 0 37 0;
#X connect 44 0 6 0;
#X connect 45 0 6 0;
#X connect 46 0 47 0;
#X connect 47 0 55 0;
#X connect 48 0 49 0;
#X connect 49 0 54 0;
#X connect 51 0 12 0;
#X connect 52 0 2 0;
#X connect 53 0 1 0;
#X connect 54 0 45 0;
#X connect 55 0 44 0;
#X connect 56 0 1 1;
#X connect 57 0 17 0;
#X connect 58 0 45 1;
#X connect 59 0 44 1;
#X connect 60 0 48 0;
#X connect 61 0 46 0;
#X connect 62 0 28 0;
#X connect 62 0 37 0;
#X connect 63 0 17 0;
#X connect 64 0 11 0;
#X connect 65 0 2 1;
#X connect 66 0 4 0;
#X connect 66 1 3 0;
#X connect 67 0 5 0;
#X connect 68 0 5 0;
#X connect 70 0 41 0;
#X connect 71 0 42 0;
#X coords 0 -1 1 1 58 58 2 100 100;
