#N canvas 0 0 1680 1028 12;
#X obj 101 100 cnv 15 234 51 empty empty empty 20 12 0 14 -1 -66577
0;
#X obj 134 114 cnv 15 60 16 empty empty empty 20 12 0 14 -262144 -66577
0;
#X obj 302 -341 r B;
#X obj 296 -272 spigot-toggle_violet;
#X obj 247 -272 spigot-toggle_violet;
#X obj 254 -341 r A;
#X obj 246 -247 + 1;
#X obj 294 -247 + 1;
#X floatatom 102 -341 5 0 0 0 - - -;
#X obj 96 -315 / 127;
#X obj 114 112 tgl 20 0 empty empty ☞ 2 9 0 25 -1 -260097 -260097
0 1;
#X obj 246 -299 * 20;
#X obj 298 -299 * 20;
#X floatatom 61 66 22 0 0 0 - - -;
#X obj 110 -5 phasor~;
#X obj 110 42 snapshot~;
#X floatatom 86 -123 5 0 0 0 speed - -;
#X obj 109 -36 sig~ 1;
#X obj 29 180 t b f;
#X obj 33 207 * 1;
#X obj 283 27 bng 15 250 50 0 empty empty empty 17 7 0 10 -262144 -1
-1;
#X obj 169 -29 tgl 15 0 empty empty empty 17 7 0 10 -262144 -1 -1 0
1;
#X obj 167 -83 sel;
#X obj 170 -10 spigot-toggle_violet;
#X floatatom 86 -180 12 0 0 2 - - -;
#X obj 89 -284 - 1;
#X obj 85 -257 * -1;
#X obj 179 -55 bng 15 250 50 0 empty empty empty 17 7 0 10 -262144
-1 -1;
#X msg 152 -129 0;
#X obj 146 -155 r 0+;
#X obj 224 110 bng 30 250 50 0 empty empty o 9 14 0 20 -1 -260097 -260097
;
#X msg 150 239 0;
#X obj 261 110 mknob 30 1000 -1 1 0 0 empty empty empty -2 -6 0 8 -260097
-33289 -1 49950 1;
#X obj 298 110 mknob 30 1000 0 2 0 0 empty empty empty -2 -6 0 8 -1
-260097 -260097 49950 1;
#X obj -130 112 r TStrchonoffB;
#X obj -26 46 s stretchB;
#X obj 167 -108 r Bbutton;
#X obj 33 -343 ctlin 55;
#X obj 56 -36 r BB;
#X obj 280 5 r BBBmod;
#X obj 134 114 cnv 15 70 16 empty empty empty 20 12 0 14 -260097 -66577
0;
#X floatatom 133 113 10 0 0 2 - - -;
#X obj 199 105 tgl 20 0 empty empty A 7 10 1 10 -1 -260097 -260097
0 1;
#X obj 199 126 tgl 20 0 empty empty B 7 10 1 10 -1 -260097 -260097
0 1;
#X obj 193 211 r lo;
#X obj 261 174 t b f;
#X obj 265 201 * 1;
#X msg 189 240 1;
#X floatatom 596 -145 22 0 0 0 - - -;
#X obj 596 -169 r looplenghtB;
#X floatatom 451 180 22 0 0 0 - - -;
#X floatatom 543 -26 5 0 0 0 - - -;
#X text 729 -51 written by <olaf.matthes@gmx.de>;
#X text 553 207 creation:;
#X text 657 -88 scale :: scale input from a certain input range;
#X text 728 -70 to lie between output boundaries;
#X floatatom 572 32 5 0 0 0 - - -;
#X floatatom 601 53 5 0 0 0 - - -;
#X floatatom 631 74 5 0 0 0 - - -;
#X floatatom 660 95 5 0 0 0 - - -;
#X text 600 -28 input value;
#X text 622 179 scaled output value;
#X text 627 31 in low;
#X text 653 52 in high;
#X text 687 73 out low;
#X text 709 95 out high;
#X text 573 5 creation arguments can be changed dynamically:;
#X text 569 224 scale <in low> <in high> <out low> <out high> <log
coeff>;
#X floatatom 690 121 5 0 0 0 - - -;
#X text 743 120 log coefficient;
#X text 781 138 0 = linear 1 = log;
#N canvas 293 158 494 344 META 0;
#X text 12 245 HELP_PATCH_AUTHORS "pd meta" information added by Jonathan
Wilkes for Pd version 0.42.;
#X text 12 25 LICENSE GPL v2;
#X text 12 225 AUTHOR Olaf Matthes <olaf.matthes@gmx.de>;
#X text 12 205 OUTLET_0 float;
#X text 12 105 INLET_1 float;
#X text 12 45 DESCRIPTION scale input from a certain input range to
lie between output boundaries;
#X text 12 5 KEYWORDS control;
#X text 12 85 INLET_0 float;
#X text 12 125 INLET_2 float;
#X text 12 145 INLET_3 float;
#X text 12 165 INLET_4 float;
#X text 12 185 INLET_5 float;
#X restore 989 258 pd META;
#X obj 543 150 maxlib/scale 0 9 100 255 0;
#X obj 776 43 r lo;
#X msg 761 79 1000;
#X obj 85 -232 * 1;
#X obj 87 -206 * 2;
#X obj 81 -153 - 1;
#X obj 482 231 - 100;
#X connect 2 0 12 0;
#X connect 3 0 7 0;
#X connect 4 0 6 0;
#X connect 5 0 11 0;
#X connect 6 0 75 0;
#X connect 7 0 75 0;
#X connect 8 0 9 0;
#X connect 9 0 25 0;
#X connect 10 0 18 0;
#X connect 10 0 23 1;
#X connect 11 0 4 0;
#X connect 12 0 3 0;
#X connect 13 0 35 0;
#X connect 14 0 15 0;
#X connect 15 0 13 0;
#X connect 16 0 32 0;
#X connect 17 0 14 0;
#X connect 18 0 19 0;
#X connect 18 1 19 1;
#X connect 19 0 17 0;
#X connect 20 0 15 0;
#X connect 21 0 23 0;
#X connect 22 0 21 0;
#X connect 22 0 27 0;
#X connect 23 0 14 1;
#X connect 24 0 77 0;
#X connect 25 0 26 0;
#X connect 26 0 75 0;
#X connect 28 0 14 1;
#X connect 29 0 28 0;
#X connect 30 0 31 0;
#X connect 31 0 41 0;
#X connect 31 0 32 0;
#X connect 32 0 45 0;
#X connect 33 0 46 0;
#X connect 34 0 10 0;
#X connect 36 0 22 0;
#X connect 37 0 8 0;
#X connect 39 0 20 0;
#X connect 41 0 19 0;
#X connect 42 0 4 1;
#X connect 43 0 3 1;
#X connect 44 0 31 0;
#X connect 44 0 47 0;
#X connect 45 0 46 0;
#X connect 45 1 46 1;
#X connect 46 0 51 0;
#X connect 47 0 33 0;
#X connect 48 0 57 0;
#X connect 49 0 48 0;
#X connect 50 0 78 0;
#X connect 51 0 72 0;
#X connect 56 0 72 1;
#X connect 57 0 72 2;
#X connect 58 0 72 3;
#X connect 59 0 72 4;
#X connect 68 0 72 5;
#X connect 72 0 50 0;
#X connect 73 0 74 0;
#X connect 74 0 59 0;
#X connect 75 0 76 0;
#X connect 76 0 24 0;
#X connect 77 0 16 0;
#X connect 78 0 41 0;
#X coords 0 -1 1 1 235 51 2 100 100;
