#N canvas 1920 30 1680 1028 12;
#X floatatom 752 503 12 0 0 0 - - -;
#X obj 741 429 r looplenghtA;
#X floatatom 274 101 5 0 0 0 - - -;
#X obj 158 71 bng 18 250 50 0 empty empty empty 3 7 1 20 -260097 -1
-1;
#X obj 327 101 hsl 280 18 1 40 0 0 empty empty TimeStretch 5 11 1 10
-16662 -260097 -260097 0 1;
#X obj 190 -12 r lo;
#X obj 238 208 bng 15 250 50 0 empty empty empty 17 7 0 10 -262144
-1 -1;
#X obj 1 4 r reposetoinoffA;
#X obj 238 101 tgl 18 0 empty empty A 6 9 1 10 -1 -260097 -260097 0
1;
#X obj 255 101 tgl 18 0 empty empty B 6 9 1 10 -1 -260097 -260097 0
1;
#X obj 357 -125 r B;
#X obj 351 -56 spigot-toggle_violet;
#X obj 302 -56 spigot-toggle_violet;
#X obj 309 -125 r A;
#X obj 301 -31 + 1;
#X obj 349 -31 + 1;
#X floatatom 188 -149 5 0 0 0 - - -;
#X obj 143 -151 / 127;
#X floatatom 146 -15 12 0 0 2 - - -;
#X obj 145 -127 - 1;
#X obj 149 -98 * -1;
#X obj 148 -172 ctlin 48;
#X obj 104 139 hsl 503 9 0 1 0 0 empty empty OUT 478 5 1 9 -1 -260097
-260097 50200 1;
#X obj 305 101 tgl 18 0 empty empty ☞ 2 9 0 25 -260097 -1 -1 0 1
;
#X floatatom 983 377 5 0 0 0 - - -;
#X floatatom 954 441 5 0 0 0 - - -;
#X obj 1017 409 t b f;
#X floatatom 1015 459 5 0 0 0 - - -;
#X obj 850 536 t b f;
#X floatatom 747 590 12 0 0 0 - - -;
#X floatatom 1016 508 5 0 0 0 - - -;
#X obj 148 -41 + 1;
#X obj 104 120 hsl 503 9 0 1 0 0 empty empty IN 6 5 1 9 -1 -260097
-260097 0 1;
#X obj 301 -83 * 20;
#X obj 353 -83 * 20;
#X obj 750 472 * 1;
#X obj 1021 436 - 0;
#X obj 104 130 hsl 503 8 0 1 0 0 empty empty empty 3 -22 1 84 -260097
-1 -1 0 1;
#X obj -84 552 bng 15 250 50 0 empty empty empty 17 7 0 10 -262144
-1 -1;
#X obj -107 555 bng 15 250 50 0 empty empty empty 17 7 0 10 -262144
-1 -1;
#X obj 855 561 * 1;
#X obj -67 403 pack \$1 \$2;
#X obj -66 428 line;
#X floatatom 641 758 12 0 0 0 - - -;
#X floatatom -108 456 12 0 0 0 - - -;
#X obj -58 347 bng 15 250 50 0 empty empty empty 17 7 0 10 -262144
-1 -1;
#X obj -59 371 f;
#X obj 633 792 t b f;
#X obj 631 834 * 1;
#X floatatom 633 864 12 0 0 0 - - -;
#X obj 1014 482 * 1;
#X obj -38 600 delay 10;
#X obj -104 342 bng 15 250 50 0 empty empty empty 17 7 0 10 -262144
-1 -1;
#X obj -99 378 f;
#X obj -109 528 sel 0;
#X obj 959 467 + 0.01;
#X obj -18 562 spigot-toggle_red;
#X obj 13 650 f;
#X obj 43 605 bng 15 250 50 0 empty empty empty 17 7 0 10 -262144 -1
-1;
#X floatatom 13 675 12 0 0 0 - - -;
#X floatatom 758 666 12 0 0 0 - - -;
#X obj 750 698 t b f;
#X floatatom 753 753 12 0 0 0 - - -;
#X obj 746 626 * 1;
#X obj 12 699 * -1;
#X floatatom 12 751 12 0 0 0 - - -;
#X obj 12 722 + 1;
#X msg 56 71 1;
#X obj 755 723 * 1;
#X obj -106 486 == 1;
#X obj -36 811 s stretchA;
#X obj 150 -75 * 40;
#X obj 3 -20 r reposetoi>0A;
#X obj 162 101 tgl 18 0 empty empty B 6 9 1 10 -1 -1 -1 0 1;
#X obj 181 101 tgl 18 0 empty empty B 6 9 1 10 -1 -1 -1 0 1;
#X obj 143 101 tgl 18 0 empty empty B 6 9 1 10 -1 -1 -1 0 1;
#X obj 101 101 tgl 18 0 empty empty B 6 9 1 10 -1 -1 -1 0 1;
#X obj 124 101 tgl 18 0 empty empty B 6 9 1 10 -1 -1 -1 0 1;
#X obj 114 101 tgl 18 0 empty empty B 6 9 1 10 -1 -1 -1 0 1;
#X obj 200 101 tgl 18 0 empty empty B 6 9 1 10 -1 -1 -1 0 1;
#X obj 219 101 tgl 18 0 empty empty B 6 9 1 10 -1 -1 -1 0 1;
#X connect 0 0 40 0;
#X connect 1 0 35 0;
#X connect 2 0 6 0;
#X connect 3 0 6 0;
#X connect 4 0 2 0;
#X connect 4 0 43 0;
#X connect 5 0 4 0;
#X connect 5 0 67 0;
#X connect 6 0 45 0;
#X connect 6 0 58 0;
#X connect 7 0 23 0;
#X connect 8 0 12 1;
#X connect 9 0 11 1;
#X connect 10 0 34 0;
#X connect 11 0 15 0;
#X connect 12 0 14 0;
#X connect 13 0 33 0;
#X connect 14 0 18 0;
#X connect 15 0 18 0;
#X connect 17 0 19 0;
#X connect 18 0 4 0;
#X connect 19 0 20 0;
#X connect 20 0 71 0;
#X connect 21 0 17 0;
#X connect 21 1 16 0;
#X connect 22 0 25 0;
#X connect 22 0 46 1;
#X connect 22 0 69 1;
#X connect 23 0 56 1;
#X connect 23 0 38 0;
#X connect 24 0 26 0;
#X connect 25 0 55 0;
#X connect 26 0 36 0;
#X connect 26 1 36 1;
#X connect 27 0 50 0;
#X connect 28 0 40 0;
#X connect 28 1 40 1;
#X connect 29 0 63 0;
#X connect 30 0 28 0;
#X connect 30 0 45 0;
#X connect 30 0 58 0;
#X connect 31 0 18 0;
#X connect 32 0 53 1;
#X connect 32 0 24 0;
#X connect 33 0 12 0;
#X connect 34 0 11 0;
#X connect 35 0 0 0;
#X connect 36 0 27 0;
#X connect 37 0 70 0;
#X connect 38 0 52 0;
#X connect 38 0 56 0;
#X connect 38 0 58 0;
#X connect 40 0 29 0;
#X connect 41 0 42 0;
#X connect 42 0 44 0;
#X connect 43 0 47 0;
#X connect 44 0 37 0;
#X connect 44 0 57 1;
#X connect 44 0 69 0;
#X connect 45 0 46 0;
#X connect 46 0 41 0;
#X connect 47 0 48 0;
#X connect 47 1 48 1;
#X connect 48 0 49 0;
#X connect 49 0 41 1;
#X connect 51 0 45 0;
#X connect 52 0 53 0;
#X connect 53 0 42 0;
#X connect 54 0 39 0;
#X connect 54 1 38 0;
#X connect 55 0 36 0;
#X connect 56 0 51 0;
#X connect 57 0 59 0;
#X connect 58 0 57 0;
#X connect 59 0 64 0;
#X connect 60 0 68 0;
#X connect 61 0 68 0;
#X connect 61 1 68 1;
#X connect 62 0 48 0;
#X connect 63 0 60 0;
#X connect 64 0 66 0;
#X connect 65 0 61 0;
#X connect 66 0 65 0;
#X connect 67 0 22 0;
#X connect 67 0 4 0;
#X connect 68 0 62 0;
#X connect 69 0 54 0;
#X connect 71 0 31 0;
#X connect 72 0 23 0;
#X coords 0 -1 1 1 510 48 2 100 100;
