#N canvas 1701 150 1680 1028 12;
#X obj 303 -326 r B;
#X obj 297 -257 spigot-toggle_violet;
#X obj 248 -257 spigot-toggle_violet;
#X obj 255 -326 r A;
#X obj 247 -232 + 1;
#X obj 295 -232 + 1;
#X floatatom 134 -350 5 0 0 0 - - -;
#X obj 97 -313 / 127;
#X obj 101 125 tgl 20 0 empty empty ☞ 2 9 0 25 -260097 -1 -1 1 1
;
#X obj 247 -284 * 20;
#X obj 299 -284 * 20;
#X floatatom 111 74 22 0 0 0 - - -;
#X obj 110 -7 phasor~;
#X obj 111 44 snapshot~;
#X floatatom 87 -121 5 0 0 0 speed - -;
#X obj 223 126 hsl 90 19 0 1 0 0 empty empty time_stretch 12 10 1 10
-260097 -1 -1 8846 1;
#X obj 110 -34 sig~ 1;
#X obj -35 20 t b f;
#X obj -31 47 * 1;
#X obj 104 101 hsl 210 27 -0.21 0.21 0 0 empty empty _____________l______<>_____
-3 17 1 15 -1 -260097 -260097 15469 1;
#X obj 284 29 bng 15 250 50 0 empty empty empty 17 7 0 10 -262144 -1
-1;
#X msg 50 108 0;
#X obj 199 125 bng 20 250 50 0 empty empty o 7 8 1 16 -1 -260097 -260097
;
#X obj 170 -27 tgl 15 0 empty empty empty 17 7 0 10 -262144 -1 -1 1
1;
#X obj 168 -81 sel;
#X floatatom 120 127 5 0 0 0 - - -;
#X obj 315 101 cnv 15 298 44 empty empty empty 20 12 0 14 -1 -66577
0;
#X obj 157 125 tgl 20 0 empty empty A 7 10 1 10 -1 -260097 -260097
0 1;
#X obj 178 125 tgl 20 0 empty empty B 7 10 1 10 -1 -260097 -260097
0 1;
#X obj 171 -8 spigot-toggle_violet;
#X floatatom 87 -178 12 0 0 2 - - -;
#X obj 90 -282 - 1;
#X obj 86 -255 * -1;
#X obj 86 -230 * 0.6;
#X obj 88 -204 - 0.3;
#X obj 221 251 s stretchB;
#X obj 281 7 r BBBmod;
#X obj 168 -106 r Bbutton;
#X obj 94 -373 ctlin 55;
#X obj -128 114 r TStrchonoffB;
#X obj 180 -52 bng 15 250 50 0 empty empty empty 17 7 0 10 -262144
-1 -1;
#X obj 82 -151 * 0.7;
#X connect 0 0 10 0;
#X connect 1 0 5 0;
#X connect 2 0 4 0;
#X connect 3 0 9 0;
#X connect 4 0 33 0;
#X connect 5 0 33 0;
#X connect 7 0 31 0;
#X connect 8 0 17 0;
#X connect 8 0 29 1;
#X connect 9 0 2 0;
#X connect 10 0 1 0;
#X connect 11 0 15 0;
#X connect 12 0 13 0;
#X connect 13 0 11 0;
#X connect 14 0 19 0;
#X connect 15 0 35 0;
#X connect 16 0 12 0;
#X connect 17 0 18 0;
#X connect 17 1 18 1;
#X connect 18 0 16 0;
#X connect 19 0 25 0;
#X connect 20 0 13 0;
#X connect 21 0 19 0;
#X connect 22 0 21 0;
#X connect 23 0 29 0;
#X connect 24 0 23 0;
#X connect 24 0 40 0;
#X connect 25 0 18 0;
#X connect 27 0 2 1;
#X connect 28 0 1 1;
#X connect 29 0 12 1;
#X connect 30 0 41 0;
#X connect 31 0 32 0;
#X connect 32 0 33 0;
#X connect 33 0 34 0;
#X connect 34 0 30 0;
#X connect 36 0 20 0;
#X connect 37 0 24 0;
#X connect 38 0 7 0;
#X connect 38 1 6 0;
#X connect 39 0 8 0;
#X connect 40 0 21 0;
#X connect 41 0 14 0;
#X coords 0 -1 1 1 514 48 2 100 100;
