#N canvas 796 90 884 702 12;
#X obj 100 128 cnv 15 28 98 empty empty empty 20 6 0 18 -1 -66577 0
;
#X obj 32 -252 spigot-toggle_violet;
#X obj -18 -252 spigot-toggle_violet;
#X floatatom 203 -463 5 0 0 0 - - -;
#X obj 166 -426 / 127;
#X obj 173 -176 tgl 20 0 empty empty ☞ 2 9 0 45 -1 -260097 -260097
0 1;
#X floatatom 156 -234 5 0 0 0 speed - -;
#X obj 67 -2 bng 15 250 50 0 empty empty empty 17 7 0 10 -262144 -1
-1;
#X floatatom 156 -291 12 0 0 2 - - -;
#X obj 159 -395 - 1;
#X obj 155 -368 * -1;
#X obj 372 118 t b f;
#X obj 376 145 * 1;
#N canvas 293 158 494 344 META 0;
#X text 12 245 HELP_PATCH_AUTHORS "pd meta" information added by Jonathan
Wilkes for Pd version 0.42.;
#X text 12 25 LICENSE GPL v2;
#X text 12 225 AUTHOR Olaf Matthes <olaf.matthes@gmx.de>;
#X text 12 205 OUTLET_0 float;
#X text 12 105 INLET_1 float;
#X text 12 45 DESCRIPTION scale input from a certain input range to
lie between output boundaries;
#X text 12 5 KEYWORDS control;
#X text 12 85 INLET_0 float;
#X text 12 125 INLET_2 float;
#X text 12 145 INLET_3 float;
#X text 12 165 INLET_4 float;
#X text 12 185 INLET_5 float;
#X restore 948 258 pd META;
#X obj 155 -343 * 1;
#X obj 157 -317 * 2;
#X obj 67 19 spigot-toggle_violet;
#X msg 61 188 0;
#X obj 64 147 r lo;
#X msg 63 217 1;
#X obj 5 -388 r B;
#X obj 5 -356 * 2;
#X obj 5 -324 - 1;
#X obj -42 -351 * 2;
#X obj -42 -319 - 1;
#X obj -42 -383 r A;
#X obj 205 -260 * 0.1;
#X obj 205 47 snapshot~;
#X msg 157 -7 0;
#X obj 324 -85 f;
#X obj 409 -26 bng 15 250 50 0 empty empty empty 17 7 0 10 -262144
-1 -1;
#X obj 205 22 phasor~;
#X obj 283 -89 bng 15 250 50 0 empty empty empty 17 7 0 10 -262144
-1 -1;
#X obj 292 -54 f;
#X obj 280 -116 sel;
#X obj 205 -3 sig~ 1;
#X msg 407 3 0;
#X obj 161 43 bng 15 250 50 0 empty empty empty 17 7 0 10 -262144 -1
-1;
#X floatatom 192 78 22 0 0 0 - - -;
#X msg 310 -8 1;
#X obj 158 -270 - 1;
#X obj -30 51 spigot-toggle_violet;
#X obj 178 -63 sel;
#X obj 172 -97 r BBonoff;
#X floatatom 403 -84 22 0 0 0 - - -;
#X obj 98 -248 spigot-toggle_violet;
#X obj 69 -252 spigot-toggle_violet;
#X obj 92 -356 * 2;
#X obj 92 -324 - 1;
#X obj 45 -351 * 2;
#X obj 45 -319 - 1;
#X obj 105 125 cnv 15 19 90 empty tmstrtchAvisu empty 1 8 0 15 -1 -260097
0;
#X obj 31 100 cnv 1 28 2 empty sendtmstchBcolor empty 1 12 0 18 -1
-1 0;
#X obj 100 101 mknob 28 4000 -0.1 0.1 0 0 empty empty empty 35 36 0
27 -1 -262144 -1 199950 1;
#X obj 100 196 mknob 28 4000 0.001 2 0 0 empty empty empty -2 -6 0
8 -1 -260097 -260097 199850 1;
#X obj -42 -287 * 0.01;
#X obj 5 -292 * 0.01;
#X obj 45 -287 * 0.01;
#X obj 92 -292 * 0.01;
#X obj 107 143 tgl 15 0 empty empty A 5 7 1 10 -1 -262144 -262144 0
1;
#X obj 107 157 tgl 15 0 empty empty B 5 7 1 10 -1 -262144 -262144 0
1;
#X obj 107 129 bng 15 220 50 0 empty empty 0 4 8 0 13 -1 -260097 -262144
;
#X obj 107 169 tgl 15 0 empty empty a 5 7 1 10 -1 -262144 -262144 0
1;
#X obj 107 183 tgl 15 0 empty empty b 5 7 1 10 -1 -262144 -262144 0
1;
#X obj 43 -383 r fll0;
#X obj 92 -386 r fll1;
#X obj 208 -198 r reposetoinoffAA;
#X obj 208 -175 r reposetoinoffAB;
#X obj -30 23 r BBmod;
#X obj 358 73 s stretchA;
#X obj 158 -33 r 0+;
#X obj 163 -486 ctlin 52;
#X connect 1 0 6 0;
#X connect 2 0 6 0;
#X connect 4 0 9 0;
#X connect 5 0 16 1;
#X connect 5 0 34 0;
#X connect 5 0 41 1;
#X connect 6 0 53 0;
#X connect 7 0 16 0;
#X connect 8 0 40 0;
#X connect 9 0 10 0;
#X connect 10 0 14 0;
#X connect 11 0 12 0;
#X connect 11 1 12 1;
#X connect 12 0 29 1;
#X connect 12 0 35 0;
#X connect 12 0 44 0;
#X connect 14 0 15 0;
#X connect 15 0 8 0;
#X connect 16 0 37 0;
#X connect 17 0 53 0;
#X connect 18 0 19 0;
#X connect 18 0 17 0;
#X connect 18 0 41 1;
#X connect 19 0 54 0;
#X connect 20 0 21 0;
#X connect 21 0 22 0;
#X connect 22 0 56 0;
#X connect 23 0 24 0;
#X connect 24 0 55 0;
#X connect 25 0 23 0;
#X connect 26 0 6 0;
#X connect 27 0 38 0;
#X connect 28 0 35 0;
#X connect 28 0 31 1;
#X connect 29 0 33 1;
#X connect 30 0 36 0;
#X connect 31 0 27 0;
#X connect 32 0 33 0;
#X connect 33 0 35 0;
#X connect 34 0 30 0;
#X connect 34 0 29 0;
#X connect 34 1 32 0;
#X connect 35 0 31 0;
#X connect 36 0 27 0;
#X connect 36 0 35 0;
#X connect 37 0 27 0;
#X connect 38 0 69 0;
#X connect 39 0 31 1;
#X connect 39 0 35 0;
#X connect 40 0 26 0;
#X connect 41 0 7 0;
#X connect 42 0 28 0;
#X connect 42 0 37 0;
#X connect 43 0 42 0;
#X connect 45 0 6 0;
#X connect 46 0 6 0;
#X connect 47 0 48 0;
#X connect 48 0 58 0;
#X connect 49 0 50 0;
#X connect 50 0 57 0;
#X connect 53 0 11 0;
#X connect 54 0 12 0;
#X connect 55 0 2 0;
#X connect 56 0 1 0;
#X connect 57 0 46 0;
#X connect 58 0 45 0;
#X connect 59 0 2 1;
#X connect 60 0 1 1;
#X connect 61 0 17 0;
#X connect 62 0 46 1;
#X connect 63 0 45 1;
#X connect 64 0 49 0;
#X connect 65 0 47 0;
#X connect 66 0 5 0;
#X connect 67 0 5 0;
#X connect 68 0 41 0;
#X connect 70 0 28 0;
#X connect 70 0 37 0;
#X connect 71 0 4 0;
#X connect 71 1 3 0;
#X coords 0 -1 1 1 28 125 2 100 100;
