#N canvas 790 21 884 702 12;
#X obj 101 101 cnv 15 235 53 empty empty empty 20 12 0 14 -1 -66577
0;
#X obj 143 -252 spigot-toggle_violet;
#X obj 93 -252 spigot-toggle_violet;
#X floatatom 244 -463 5 0 0 0 - - -;
#X obj 207 -426 / 127;
#X obj 214 -176 tgl 20 0 empty empty ☞ 2 9 0 45 -1 -260097 -260097
1 1;
#X floatatom 220 56 22 0 0 0 - - -;
#X obj 214 31 snapshot~;
#X floatatom 197 -234 5 0 0 0 speed - -;
#X obj 108 -2 bng 15 250 50 0 empty empty empty 17 7 0 10 -262144 -1
-1;
#X obj 211 -147 sel;
#X floatatom 197 -291 12 0 0 2 - - -;
#X obj 200 -395 - 1;
#X obj 196 -368 * -1;
#X msg 209 -79 0;
#X floatatom 537 301 10 0 0 2 - - -;
#X obj 137 106 tgl 20 0 empty empty A 7 10 1 10 -1 -260097 -262144
0 1;
#X obj 137 129 tgl 20 0 empty empty B 7 10 1 10 -1 -260097 -262144
1 1;
#X obj 163 129 bng 20 250 50 0 empty empty o 4 8 0 20 -1 -260097 -260097
;
#X obj 186 114 mknob 28 1000 -0.1 0.1 0 0 empty empty empty -2 -6 0
8 -260097 -33289 -1 29970 1;
#X obj 163 108 mknob 20 1000 0 2 0 0 empty empty empty -2 -6 0 8 -1
-260097 -260097 49950 1;
#X obj 413 118 t b f;
#X obj 417 145 * 1;
#X floatatom 596 -145 22 0 0 0 - - -;
#X floatatom 537 179 22 0 0 0 - - -;
#X floatatom 543 -26 5 0 0 0 - - -;
#X text 729 -51 written by <olaf.matthes@gmx.de>;
#X text 553 207 creation:;
#X text 657 -88 scale :: scale input from a certain input range;
#X text 728 -70 to lie between output boundaries;
#X floatatom 572 32 5 0 0 0 - - -;
#X floatatom 601 53 5 0 0 0 - - -;
#X floatatom 631 74 5 0 0 0 - - -;
#X floatatom 660 95 5 0 0 0 - - -;
#X text 600 -28 input value;
#X text 622 179 scaled output value;
#X text 627 31 in low;
#X text 653 52 in high;
#X text 687 73 out low;
#X text 709 95 out high;
#X text 573 5 creation arguments can be changed dynamically:;
#X text 569 224 scale <in low> <in high> <out low> <out high> <log
coeff>;
#X floatatom 690 121 5 0 0 0 - - -;
#X text 743 120 log coefficient;
#X text 781 138 0 = linear 1 = log;
#N canvas 293 158 494 344 META 0;
#X text 12 245 HELP_PATCH_AUTHORS "pd meta" information added by Jonathan
Wilkes for Pd version 0.42.;
#X text 12 25 LICENSE GPL v2;
#X text 12 225 AUTHOR Olaf Matthes <olaf.matthes@gmx.de>;
#X text 12 205 OUTLET_0 float;
#X text 12 105 INLET_1 float;
#X text 12 45 DESCRIPTION scale input from a certain input range to
lie between output boundaries;
#X text 12 5 KEYWORDS control;
#X text 12 85 INLET_0 float;
#X text 12 125 INLET_2 float;
#X text 12 145 INLET_3 float;
#X text 12 165 INLET_4 float;
#X text 12 185 INLET_5 float;
#X restore 989 258 pd META;
#X obj 543 150 maxlib/scale 0 9 100 255 0;
#X obj 776 43 r lo;
#X msg 761 79 1000;
#X obj 196 -343 * 1;
#X obj 198 -317 * 2;
#X obj 192 -264 - 1;
#X obj 482 231 - 100;
#X floatatom 482 258 22 0 0 0 - - -;
#X obj 213 -12 phasor~;
#X obj 108 19 spigot-toggle_violet;
#X obj 212 -43 sig~ 1;
#X obj 217 102 vsl 28 48 0 1 0 0 empty empty empty 8 44 0 22 -16662
-260097 -260097 3145 1;
#X msg 187 184 0;
#X obj 107 113 bng 30 250 50 0 empty empty ☞ 5 15 0 35 -1 -260097
-260097;
#X obj 204 -486 ctlin 55;
#X obj 596 -169 r looplenghtB;
#X obj 243 -149 r Bbutton;
#X obj 399 75 s stretchB;
#X obj 109 -27 r BBBmod;
#X obj 105 176 r lo;
#X msg 154 186 1;
#X obj 249 -198 r reposetoinoffBA;
#X obj 281 -99 f;
#X obj 280 -120 bng 15 250 50 0 empty empty empty 17 7 0 10 -262144
-1 -1;
#X obj 210 -113 r 0+B;
#X obj 184 -22 bng 15 250 50 0 empty empty empty 17 7 0 10 -262144
-1 -1;
#X obj 116 -388 r B;
#X obj 116 -356 * 2;
#X obj 116 -324 - 1;
#X obj 116 -292 * 0.1;
#X obj 69 -351 * 2;
#X obj 69 -319 - 1;
#X obj 69 -287 * 0.1;
#X obj 69 -383 r A;
#X obj 249 -175 r reposetoinoffBB;
#X connect 1 0 8 0;
#X connect 2 0 8 0;
#X connect 4 0 12 0;
#X connect 5 0 55 1;
#X connect 5 0 10 0;
#X connect 6 0 57 0;
#X connect 6 0 63 0;
#X connect 7 0 6 0;
#X connect 8 0 19 0;
#X connect 9 0 55 0;
#X connect 10 0 14 0;
#X connect 10 1 69 0;
#X connect 11 0 51 0;
#X connect 12 0 13 0;
#X connect 13 0 49 0;
#X connect 14 0 54 1;
#X connect 14 0 56 0;
#X connect 14 0 71 0;
#X connect 16 0 2 1;
#X connect 17 0 1 1;
#X connect 18 0 58 0;
#X connect 19 0 21 0;
#X connect 20 0 22 0;
#X connect 21 0 22 0;
#X connect 21 1 22 1;
#X connect 22 0 68 1;
#X connect 23 0 31 0;
#X connect 24 0 52 0;
#X connect 25 0 46 0;
#X connect 30 0 46 1;
#X connect 31 0 46 2;
#X connect 32 0 46 3;
#X connect 33 0 46 4;
#X connect 42 0 46 5;
#X connect 46 0 24 0;
#X connect 47 0 48 0;
#X connect 48 0 33 0;
#X connect 49 0 50 0;
#X connect 50 0 11 0;
#X connect 51 0 8 0;
#X connect 52 0 53 0;
#X connect 53 0 15 0;
#X connect 54 0 7 0;
#X connect 55 0 7 0;
#X connect 55 0 59 0;
#X connect 56 0 54 0;
#X connect 58 0 19 0;
#X connect 60 0 4 0;
#X connect 60 1 3 0;
#X connect 61 0 23 0;
#X connect 62 0 10 0;
#X connect 64 0 9 0;
#X connect 65 0 66 0;
#X connect 65 0 58 0;
#X connect 66 0 20 0;
#X connect 67 0 5 0;
#X connect 68 0 56 0;
#X connect 69 0 68 0;
#X connect 70 0 14 0;
#X connect 71 0 7 0;
#X connect 72 0 73 0;
#X connect 73 0 74 0;
#X connect 74 0 75 0;
#X connect 75 0 1 0;
#X connect 76 0 77 0;
#X connect 77 0 78 0;
#X connect 78 0 2 0;
#X connect 79 0 76 0;
#X connect 80 0 5 0;
#X coords 0 -1 1 1 235 55 2 100 100;
