#N canvas 651 56 884 702 12;
#X obj 101 101 cnv 15 235 53 empty empty empty 20 12 0 14 -1 -66577
0;
#X obj 143 -252 spigot-toggle_violet;
#X obj 93 -252 spigot-toggle_violet;
#X floatatom 244 -463 5 0 0 0 - - -;
#X obj 207 -426 / 127;
#X obj 214 -176 tgl 20 0 empty empty ☞ 2 9 0 45 -1 -260097 -260097
0 1;
#X floatatom 197 -234 5 0 0 0 speed - -;
#X obj 108 -2 bng 15 250 50 0 empty empty empty 17 7 0 10 -262144 -1
-1;
#X floatatom 197 -291 12 0 0 2 - - -;
#X obj 200 -395 - 1;
#X obj 196 -368 * -1;
#X obj 137 106 tgl 20 0 empty empty A 7 10 1 10 -1 -260097 -262144
0 1;
#X obj 137 129 tgl 20 0 empty empty B 7 10 1 10 -1 -260097 -262144
0 1;
#X obj 163 129 bng 20 250 50 0 empty empty o 4 8 0 20 -1 -260097 -260097
;
#X obj 186 114 mknob 28 1000 -0.1 0.1 0 0 empty empty empty -2 -6 0
8 -260097 -33289 -1 62450 1;
#X obj 163 108 mknob 20 1000 0 2 0 0 empty empty empty -2 -6 0 8 -1
-260097 -260097 49650 1;
#X obj 413 118 t b f;
#X obj 417 145 * 1;
#N canvas 293 158 494 344 META 0;
#X text 12 245 HELP_PATCH_AUTHORS "pd meta" information added by Jonathan
Wilkes for Pd version 0.42.;
#X text 12 25 LICENSE GPL v2;
#X text 12 225 AUTHOR Olaf Matthes <olaf.matthes@gmx.de>;
#X text 12 205 OUTLET_0 float;
#X text 12 105 INLET_1 float;
#X text 12 45 DESCRIPTION scale input from a certain input range to
lie between output boundaries;
#X text 12 5 KEYWORDS control;
#X text 12 85 INLET_0 float;
#X text 12 125 INLET_2 float;
#X text 12 145 INLET_3 float;
#X text 12 165 INLET_4 float;
#X text 12 185 INLET_5 float;
#X restore 989 258 pd META;
#X obj 196 -343 * 1;
#X obj 198 -317 * 2;
#X obj 199 -270 - 1;
#X obj 108 19 spigot-toggle_violet;
#X obj 219 102 vsl 28 48 0 1 0 0 empty empty empty 8 44 0 22 -16662
-260097 -260097 0 1;
#X msg 187 184 0;
#X obj 107 113 bng 30 250 50 0 empty empty ☞ 5 15 0 35 -1 -260097
-260097;
#X obj 204 -486 ctlin 55;
#X obj 530 -163 r Bbutton;
#X obj 399 75 s stretchB;
#X obj 109 -27 r BBBmod;
#X obj 105 176 r lo;
#X msg 154 186 1;
#X obj 249 -198 r reposetoinoffBA;
#X obj 116 -388 r B;
#X obj 116 -356 * 2;
#X obj 116 -324 - 1;
#X obj 116 -292 * 0.1;
#X obj 69 -351 * 2;
#X obj 69 -319 - 1;
#X obj 69 -287 * 0.1;
#X obj 69 -383 r A;
#X obj 249 -175 r reposetoinoffBB;
#X obj 246 -260 * 0.1;
#X obj 276 126 tgl 28 0 bonkdowntoenvB empty • 6 15 1 50 -1 -260097
-260097 0 1;
#X obj 276 100 tgl 28 0 bonkuptoenvB empty • 6 15 1 50 -1 -260097
-260097 0 1;
#X obj 246 47 snapshot~;
#X msg 198 -7 0;
#X obj 365 -85 f;
#X obj 450 -26 bng 15 250 50 0 empty empty empty 17 7 0 10 -262144
-1 -1;
#X obj 246 22 phasor~;
#X obj 324 -89 bng 15 250 50 0 empty empty empty 17 7 0 10 -262144
-1 -1;
#X obj 333 -54 f;
#X obj 321 -116 sel;
#X obj 246 -3 sig~ 1;
#X msg 448 3 0;
#X obj 198 20 bng 15 250 50 0 empty empty empty 17 7 0 10 -262144 -1
-1;
#X obj 199 -33 r 0+B;
#X floatatom 233 78 22 0 0 0 - - -;
#X connect 1 0 6 0;
#X connect 2 0 6 0;
#X connect 4 0 9 0;
#X connect 5 0 22 1;
#X connect 5 0 52 0;
#X connect 6 0 14 0;
#X connect 7 0 22 0;
#X connect 8 0 21 0;
#X connect 9 0 10 0;
#X connect 10 0 19 0;
#X connect 11 0 2 1;
#X connect 12 0 1 1;
#X connect 13 0 24 0;
#X connect 14 0 16 0;
#X connect 15 0 17 0;
#X connect 16 0 17 0;
#X connect 16 1 17 1;
#X connect 17 0 47 1;
#X connect 19 0 20 0;
#X connect 20 0 8 0;
#X connect 21 0 42 0;
#X connect 22 0 25 0;
#X connect 24 0 14 0;
#X connect 26 0 4 0;
#X connect 26 1 3 0;
#X connect 29 0 7 0;
#X connect 30 0 31 0;
#X connect 30 0 24 0;
#X connect 31 0 15 0;
#X connect 32 0 5 0;
#X connect 33 0 34 0;
#X connect 34 0 35 0;
#X connect 35 0 36 0;
#X connect 36 0 1 0;
#X connect 37 0 38 0;
#X connect 38 0 39 0;
#X connect 39 0 2 0;
#X connect 40 0 37 0;
#X connect 41 0 5 0;
#X connect 42 0 6 0;
#X connect 45 0 57 0;
#X connect 46 0 53 0;
#X connect 46 0 49 1;
#X connect 47 0 51 1;
#X connect 48 0 54 0;
#X connect 49 0 45 0;
#X connect 50 0 51 0;
#X connect 51 0 53 0;
#X connect 52 0 48 0;
#X connect 52 0 47 0;
#X connect 52 1 50 0;
#X connect 53 0 49 0;
#X connect 54 0 45 0;
#X connect 54 0 53 0;
#X connect 55 0 45 0;
#X connect 56 0 46 0;
#X connect 56 0 55 0;
#X connect 57 0 28 0;
#X coords 0 -1 1 1 235 55 2 100 100;
