#N canvas 82 97 1680 1028 12;
#X floatatom 754 503 12 0 0 0 - - -;
#X floatatom 176 101 5 0 0 0 - - -;
#X obj 157 101 bng 18 250 50 0 empty empty ø 3 7 1 20 -260097 -1 -1
;
#X obj 247 101 hsl 367 18 1 40 0 0 empty empty TimeStretch 5 9 1 10
-1 -260097 -260097 10300 1;
#X obj 192 -12 r lo;
#X obj 240 208 bng 15 250 50 0 empty empty empty 17 7 0 10 -262144
-1 -1;
#X obj 208 101 tgl 18 0 empty empty A 6 9 1 10 -1 -260097 -260097 0
1;
#X obj 225 101 tgl 18 0 empty empty B 6 9 1 10 -1 -260097 -260097 0
1;
#X obj 359 -125 r B;
#X obj 353 -56 spigot-toggle_violet;
#X obj 304 -56 spigot-toggle_violet;
#X obj 311 -125 r A;
#X obj 303 -31 + 1;
#X obj 351 -31 + 1;
#X floatatom 190 -149 5 0 0 0 - - -;
#X obj 145 -151 / 127;
#X floatatom 148 -15 12 0 0 2 - - -;
#X obj 147 -127 - 1;
#X obj 151 -98 * -1;
#X obj 104 130 hsl 509 9 0 1 0 0 empty empty OUT 480 5 1 9 -1 -260097
-260097 50800 1;
#X obj 100 100 cnv 15 56 20 empty empty empty 20 12 0 11 -1 -1 0;
#X obj 138 101 tgl 18 0 empty empty ->- 2 9 1 12 -260097 -1 -1 0 1
;
#X floatatom 985 377 5 0 0 0 - - -;
#X floatatom 956 441 5 0 0 0 - - -;
#X obj 1019 409 t b f;
#X floatatom 1017 459 5 0 0 0 - - -;
#X obj 852 536 t b f;
#X floatatom 749 590 12 0 0 0 - - -;
#X floatatom 1018 508 5 0 0 0 - - -;
#X obj 150 -41 + 1;
#X obj 104 120 hsl 509 9 0 1 0 0 empty empty IN 12 5 1 9 -1 -260097
-260097 0 1;
#X obj 303 -83 * 20;
#X obj 355 -83 * 20;
#X obj 752 472 * 1;
#X obj 1023 436 - 0;
#X obj -94 785 hsl 509 9 0 1 0 0 empty empty IN 12 5 1 9 -1 -260097
-260097 7323 1;
#X obj -82 552 bng 15 250 50 0 empty empty empty 17 7 0 10 -262144
-1 -1;
#X obj -105 555 bng 15 250 50 0 empty empty empty 17 7 0 10 -262144
-1 -1;
#X obj 857 561 * 1;
#X obj -65 403 pack \$1 \$2;
#X obj -64 428 line;
#X floatatom 643 758 12 0 0 0 - - -;
#X floatatom -106 456 12 0 0 0 - - -;
#X obj -56 347 bng 15 250 50 0 empty empty empty 17 7 0 10 -262144
-1 -1;
#X obj -57 371 f;
#X obj 635 792 t b f;
#X obj 633 834 * 1;
#X floatatom 635 864 12 0 0 0 - - -;
#X obj 1016 482 * 1;
#X obj -36 600 delay 10;
#X obj -102 342 bng 15 250 50 0 empty empty empty 17 7 0 10 -262144
-1 -1;
#X obj -97 378 f;
#X obj -107 528 sel 0;
#X obj 961 467 + 0.01;
#X obj -16 562 spigot-toggle_red;
#X obj 15 650 f;
#X obj 45 605 bng 15 250 50 0 empty empty empty 17 7 0 10 -262144 -1
-1;
#X floatatom 15 675 12 0 0 0 - - -;
#X floatatom 760 666 12 0 0 0 - - -;
#X obj 752 698 t b f;
#X floatatom 755 753 12 0 0 0 - - -;
#X obj 748 626 * 1;
#X obj 14 699 * -1;
#X floatatom 14 751 12 0 0 0 - - -;
#X obj 14 722 + 1;
#X msg 58 71 1;
#X obj 757 723 * 1;
#X obj -104 486 == 1;
#X obj 152 -75 * 40;
#X obj 743 429 r looplenghtB;
#X obj -34 811 s stretchB;
#X obj 3 4 r reposetoinoffB;
#X obj 150 -172 ctlin 57;
#X connect 0 0 38 0;
#X connect 1 0 5 0;
#X connect 2 0 5 0;
#X connect 3 0 1 0;
#X connect 3 0 41 0;
#X connect 4 0 3 0;
#X connect 4 0 65 0;
#X connect 5 0 43 0;
#X connect 5 0 56 0;
#X connect 6 0 10 1;
#X connect 7 0 9 1;
#X connect 8 0 32 0;
#X connect 9 0 13 0;
#X connect 10 0 12 0;
#X connect 11 0 31 0;
#X connect 12 0 16 0;
#X connect 13 0 16 0;
#X connect 15 0 17 0;
#X connect 16 0 3 0;
#X connect 17 0 18 0;
#X connect 18 0 68 0;
#X connect 19 0 23 0;
#X connect 19 0 44 1;
#X connect 19 0 67 1;
#X connect 21 0 54 1;
#X connect 21 0 36 0;
#X connect 22 0 24 0;
#X connect 23 0 53 0;
#X connect 24 0 34 0;
#X connect 24 1 34 1;
#X connect 25 0 48 0;
#X connect 26 0 38 0;
#X connect 26 1 38 1;
#X connect 27 0 61 0;
#X connect 28 0 26 0;
#X connect 28 0 43 0;
#X connect 28 0 56 0;
#X connect 29 0 16 0;
#X connect 30 0 51 1;
#X connect 30 0 22 0;
#X connect 31 0 10 0;
#X connect 32 0 9 0;
#X connect 33 0 0 0;
#X connect 34 0 25 0;
#X connect 35 0 70 0;
#X connect 36 0 50 0;
#X connect 36 0 54 0;
#X connect 36 0 56 0;
#X connect 38 0 27 0;
#X connect 39 0 40 0;
#X connect 40 0 42 0;
#X connect 41 0 45 0;
#X connect 42 0 35 0;
#X connect 42 0 55 1;
#X connect 42 0 67 0;
#X connect 43 0 44 0;
#X connect 44 0 39 0;
#X connect 45 0 46 0;
#X connect 45 1 46 1;
#X connect 46 0 47 0;
#X connect 47 0 39 1;
#X connect 49 0 43 0;
#X connect 50 0 51 0;
#X connect 51 0 40 0;
#X connect 52 0 37 0;
#X connect 52 1 36 0;
#X connect 53 0 34 0;
#X connect 54 0 49 0;
#X connect 55 0 57 0;
#X connect 56 0 55 0;
#X connect 57 0 62 0;
#X connect 58 0 66 0;
#X connect 59 0 66 0;
#X connect 59 1 66 1;
#X connect 60 0 46 0;
#X connect 61 0 58 0;
#X connect 62 0 64 0;
#X connect 63 0 59 0;
#X connect 64 0 63 0;
#X connect 65 0 19 0;
#X connect 65 0 3 0;
#X connect 66 0 60 0;
#X connect 67 0 52 0;
#X connect 68 0 29 0;
#X connect 69 0 33 0;
#X connect 71 0 21 0;
#X connect 72 0 15 0;
#X connect 72 1 14 0;
#X coords 0 -1 1 1 516 40 2 100 100;
