#N canvas 378 454 919 402 12;
#X obj 151 110 savestat$B;
#X obj 152 156 savestateITB;
#X obj 151 133 savestateTB;
#X obj 152 179 savestateprogB;
#X obj 152 204 savestate+B;
#X obj 151 63 inlet;
#X obj 267 64 inlet;
#X connect 5 0 0 0;
#X connect 5 0 2 0;
#X connect 5 0 1 0;
#X connect 5 0 3 0;
#X connect 5 0 4 0;
#X connect 6 0 0 1;
#X connect 6 0 2 1;
#X connect 6 0 1 1;
#X connect 6 0 3 1;
#X connect 6 0 4 1;
#X coords 0 402 1 401 130 122 0;
