#N canvas 199 12 1204 637 12;
#X obj 135 85 t b;
#X msg 136 108 relocate 475x205+1+1 1x1+50+60 \, vis 1;
#X obj 4 2 hsl 23 25 0 127 0 0 \$0-SVSTBall empty ≣ 5 10 0 25 -1
-16662 -260097 0 1;
#X obj 96 190 r saveselB;
#X obj 212 191 r loadselB;
#N canvas 50 60 475 205 \$0-SVSTBall 0;
#X obj 151 110 savestat$B;
#X obj 152 156 savestateITB;
#X obj 151 133 savestateTB;
#X obj 152 179 savestateprogB;
#X obj 152 204 savestate+B;
#X obj 151 63 inlet;
#X obj 267 64 inlet;
#X floatatom 54 98 5 0 0 0 - - -;
#X connect 5 0 0 0;
#X connect 5 0 2 0;
#X connect 5 0 1 0;
#X connect 5 0 3 0;
#X connect 5 0 4 0;
#X connect 5 0 7 0;
#X connect 6 0 0 1;
#X connect 6 0 2 1;
#X connect 6 0 1 1;
#X connect 6 0 3 1;
#X connect 6 0 4 1;
#X coords 0 205 1 204 128 113 0;
#X restore 105 251 pd \$0-SVSTBall;
#X obj 136 129 s pd-\$0-SVSTBall;
#X obj 135 63 r \$0-SVSTBall;
#X floatatom 68 149 5 0 0 0 - - -;
#X floatatom 54 98 5 0 0 0 - - -;
#X connect 0 0 1 0;
#X connect 1 0 6 0;
#X connect 3 0 5 0;
#X connect 4 0 5 1;
#X connect 7 0 0 0;
#X connect 8 0 5 0;
#X coords 0 -1 1 1 30 30 2 0 0;
