#N canvas 177 34 1364 710 12;
#X obj -16823 -1186 f;
#X obj -16895 -1184 f;
#X floatatom -16823 -1157 5 0 0 0 - - -;
#X obj -17157 -1020 mod;
#X obj -17163 -1165 mod;
#X floatatom -17128 -1147 5 0 0 0 - - -;
#X obj -17158 -1102 bng 15 250 50 0 empty empty empty 17 7 0 10 -262144
-1 -1;
#X obj -17160 -1073 f;
#X floatatom -17161 -1046 5 0 0 0 - - -;
#X obj -17126 -1173 inlet;
#X obj -17064 -995 metro 100;
#X obj -17064 -1017 tgl 15 0 empty empty empty 17 7 0 10 -262144 -1
-1 0 1;
#X floatatom -17005 -1023 12 0 0 0 - - -;
#X floatatom -16861 -905 12 0 0 0 - - -;
#X floatatom -16787 -988 12 0 0 0 - - -;
#X obj -16853 -958 pack \$1 \$2;
#X floatatom -16718 -1318 5 0 0 0 - - -;
#X obj -16862 -928 line;
#X obj -17123 -1073 + 1;
#X obj -17163 -1142 sel;
#X obj -17163 -1190 f;
#X obj -17125 -1199 + 1;
#X obj -17067 -951 bng 15 250 50 0 empty empty empty 17 7 0 10 -262144
-1 -1;
#X floatatom -16677 -1155 5 0 0 1 - - -;
#X obj -16664 -1184 r looplenghtA;
#X obj -16638 -1123 t b f;
#X obj -16692 -1086 * 1;
#X obj -16624 -925 hsl 128 15 0 0.99 0 0 empty empty empty -2 -8 0
10 -262144 -1 -1 1505 1;
#X obj -16945 -1272 sel 0 1;
#X floatatom -17157 -993 5 0 0 0 - - -;
#X obj -16947 -1210 bng 15 250 50 0 empty empty empty 17 7 0 10 -262144
-1 -1;
#X obj -16947 -1240 bng 15 250 50 0 empty empty empty 17 7 0 10 -262144
-1 -1;
#X obj -16824 -1215 bng 15 250 50 0 empty empty empty 17 7 0 10 -262144
-1 -1;
#X obj -17163 -1212 bng 15 250 50 0 empty empty empty 17 7 0 10 -262144
-1 -1;
#X obj -16535 -873 == 1;
#X obj -16536 -851 sel;
#X msg -16522 -799 1;
#X obj -16520 -821 bng 15 250 50 0 empty empty empty 17 7 0 10 -262144
-1 -1;
#X floatatom -16359 -1138 5 0 0 0 reposetoiX#A - reposetoiX#A;
#X floatatom -16359 -1173 5 0 0 0 reçoit_de_reposetoiX#A send_reposetoiX#A
-;
#X obj -16140 -1360 r B;
#X obj -16150 -1293 spigot-toggle_violet;
#X obj -16148 -1318 * 100;
#X obj -16106 -1289 spigot-toggle_violet;
#X obj -16107 -1316 * 100;
#X obj -16099 -1358 r A;
#X obj -16107 -1264 + 1;
#X obj -16152 -1267 + 1;
#X floatatom -16231 -1455 5 0 0 0 - - -;
#X obj -16276 -1457 / 127;
#X floatatom -16271 -1321 12 0 0 2 - - -;
#X obj -16274 -1433 - 1;
#X obj -16270 -1404 * -1;
#X obj -16271 -1478 ctlin 48;
#X obj -16269 -1381 * 40;
#X obj -16271 -1347 + 0;
#X obj -16664 -1316 tgl 15 0 empty empty B 5 8 0 11 -66577 -260097
-260097 0 1;
#X obj -16680 -1316 tgl 15 0 empty empty A 5 8 0 11 -66577 -260097
-260097 0 1;
#X obj -17046 -1335 hsl 508 8 0 1 0 0 empty empty empty 1 5 1 11 -66577
-260097 -262144 0 1;
#X obj -17046 -1326 hsl 508 9 0 1 0 0 empty empty empty 1 5 1 11 -66577
-260097 -262144 0 1;
#X floatatom -16904 -1316 5 0 0 0 - - -;
#X floatatom -16835 -1316 5 0 0 1 - - -;
#X obj -17100 -1332 r lo;
#X obj -16860 -853 s timestrech;
#X obj -17164 -1236 r BBmod;
#X obj -16681 -1241 + 1;
#X obj -16826 -792 tgl 15 0 empty empty empty 17 7 0 10 -262144 -1
-1 0 1;
#X obj -16826 -772 sel;
#X msg -16823 -747 0;
#X obj -16900 -1109 - 1;
#X obj -16901 -1084 * -1;
#X obj -16912 -1059 spigot-toggle_violet;
#X obj -16972 -1085 loadbang;
#X msg -16974 -1055 1;
#X msg -16702 -977 1e+08;
#X msg -17031 -1058 1;
#X obj -16968 -914 f;
#X obj -16993 -937 bng 15 250 50 0 empty empty empty 17 7 0 10 -262144
-1 -1;
#X msg -16969 -880 1;
#X obj -17032 -888 tgl 15 0 empty empty empty 17 7 0 10 -262144 -1
-1 0 1;
#X obj -17035 -850 sel;
#X obj -17066 -897 - 1;
#X obj -17067 -872 * -1;
#X obj -16947 -978 + 100;
#X obj -16961 -944 f;
#X obj -16500 -1023 - 1;
#X obj -16496 -994 * -1;
#X floatatom -16495 -972 5 0 0 0 - - -;
#X floatatom -16210 -1106 12 0 0 1 - - -;
#X obj -16197 -1135 r looplenghtA;
#X obj -16202 -1075 t b f;
#X obj -16091 -1136 r T$mod;
#X floatatom -16112 -1103 5 0 0 1 - - -;
#X floatatom -16214 -1023 12 0 0 1 - - -;
#X obj -16215 -1049 /;
#X obj -16114 -1075 * 1;
#X floatatom -17121 -1023 5 0 0 0 - - -;
#X obj -16107 -1174 t b f;
#X floatatom -16107 -1200 5 0 0 1 - - -;
#X connect 0 0 2 0;
#X connect 1 0 17 0;
#X connect 2 0 15 0;
#X connect 3 0 29 0;
#X connect 4 0 19 0;
#X connect 5 0 4 1;
#X connect 6 0 7 0;
#X connect 7 0 8 0;
#X connect 7 0 18 0;
#X connect 8 0 3 0;
#X connect 9 0 5 0;
#X connect 10 0 22 0;
#X connect 11 0 10 0;
#X connect 12 0 10 1;
#X connect 13 0 27 0;
#X connect 13 0 63 0;
#X connect 13 0 76 1;
#X connect 14 0 15 1;
#X connect 14 0 83 0;
#X connect 14 0 12 0;
#X connect 15 0 17 0;
#X connect 16 0 38 0;
#X connect 16 0 32 0;
#X connect 16 0 65 0;
#X connect 17 0 13 0;
#X connect 18 0 7 1;
#X connect 19 0 6 0;
#X connect 20 0 21 0;
#X connect 20 0 4 0;
#X connect 21 0 20 1;
#X connect 23 0 26 0;
#X connect 23 0 14 0;
#X connect 24 0 23 0;
#X connect 25 0 26 0;
#X connect 25 1 26 1;
#X connect 27 0 34 0;
#X connect 27 0 85 0;
#X connect 28 0 31 0;
#X connect 29 0 28 0;
#X connect 30 0 1 0;
#X connect 31 0 30 0;
#X connect 31 0 0 0;
#X connect 32 0 0 0;
#X connect 33 0 20 0;
#X connect 34 0 35 0;
#X connect 35 1 37 0;
#X connect 37 0 36 0;
#X connect 39 0 16 0;
#X connect 40 0 42 0;
#X connect 41 0 47 0;
#X connect 42 0 41 0;
#X connect 43 0 46 0;
#X connect 44 0 43 0;
#X connect 45 0 44 0;
#X connect 46 0 50 0;
#X connect 47 0 50 0;
#X connect 49 0 51 0;
#X connect 50 0 16 0;
#X connect 51 0 52 0;
#X connect 52 0 54 0;
#X connect 53 0 49 0;
#X connect 53 1 48 0;
#X connect 54 0 55 0;
#X connect 55 0 50 0;
#X connect 56 0 43 1;
#X connect 57 0 41 1;
#X connect 58 0 60 0;
#X connect 59 0 61 0;
#X connect 60 0 1 1;
#X connect 61 0 0 1;
#X connect 61 0 34 1;
#X connect 62 0 59 0;
#X connect 64 0 33 0;
#X connect 66 0 67 0;
#X connect 67 0 68 0;
#X connect 69 0 70 0;
#X connect 70 0 71 1;
#X connect 72 0 73 0;
#X connect 73 0 71 1;
#X connect 77 0 76 0;
#X connect 77 0 78 0;
#X connect 77 0 84 0;
#X connect 78 0 15 1;
#X connect 79 0 80 0;
#X connect 79 0 81 0;
#X connect 80 1 77 0;
#X connect 81 0 82 0;
#X connect 83 0 84 1;
#X connect 84 0 12 0;
#X connect 85 0 86 0;
#X connect 86 0 87 0;
#X connect 88 0 94 0;
#X connect 89 0 88 0;
#X connect 90 0 94 0;
#X connect 90 1 94 1;
#X connect 91 0 92 0;
#X connect 92 0 95 0;
#X connect 93 0 5 0;
#X connect 94 0 93 0;
#X connect 95 0 90 0;
#X connect 96 0 3 1;
#X connect 97 0 95 0;
#X connect 97 1 95 1;
#X connect 98 0 97 0;
