#N canvas 0 22 788 486 12;
#X obj 148 155 * 1;
#X obj -768 939 spigot-toggle_red;
#X obj 88 31 spigot-toggle_red;
#X obj 50 98 r lo;
#X msg 52 138 100;
#X obj 92 85 t b f;
#X obj 97 113 / 1;
#X obj 178 155 * 2;
#X obj 208 155 * 3;
#X obj 238 154 * 4;
#X obj 278 155 * 5;
#X obj 308 155 * 6;
#X obj 338 155 * 7;
#X obj 368 155 * 8;
#X obj 408 155 * 9;
#X obj 438 155 * 10;
#X obj 478 155 * 11;
#X obj 518 155 * 12;
#X obj 558 155 * 13;
#X obj 599 155 * 14;
#X obj 639 155 * 15;
#X obj 679 155 * 16;
#X connect 2 0 5 0;
#X connect 3 0 4 0;
#X connect 4 0 6 0;
#X connect 5 0 6 0;
#X connect 5 1 6 1;
#X connect 6 0 0 0;
#X connect 6 0 7 0;
#X connect 6 0 8 0;
#X connect 6 0 9 0;
#X connect 6 0 10 0;
#X connect 6 0 11 0;
#X connect 6 0 12 0;
#X connect 6 0 13 0;
#X connect 6 0 14 0;
#X connect 6 0 15 1;
#X connect 6 0 16 0;
#X connect 6 0 17 0;
#X connect 6 0 18 0;
#X connect 6 0 19 0;
#X connect 6 0 20 0;
#X connect 6 0 21 0;
