#N canvas 453 390 1047 385 12;
#X obj 166 164 savestat$A;
#X obj 166 197 savestateTA;
#X obj 166 219 savestateITA;
#X obj 166 241 savestateprogA;
#X obj 120 135 inlet;
#X obj 172 137 inlet;
#X connect 4 0 0 0;
#X connect 4 0 1 0;
#X connect 4 0 2 0;
#X connect 4 0 3 0;
#X connect 5 0 0 1;
#X connect 5 0 1 1;
#X connect 5 0 2 1;
#X connect 5 0 3 1;
#X coords 0 385 1 384 222 222 0;
