#N canvas 193 260 598 500 10;
#N canvas 751 303 450 300 color 0;
#X obj 131 159 pack f f;
#X obj 131 135 bondo 2;
#X msg 131 186 color \$1 \$2;
#X obj 96 70 r \$0color;
#X obj 170 70 r \$0select;
#X obj 138 98 demux;
#X obj 243 83 loadbang;
#X msg 214 110 10;
#X msg 243 110 2;
#X obj 131 227 s \$2;
#X connect 0 0 2 0;
#X connect 1 0 0 0;
#X connect 1 1 0 1;
#X connect 2 0 9 0;
#X connect 3 0 5 0;
#X connect 4 0 5 1;
#X connect 5 0 1 0;
#X connect 5 1 1 1;
#X connect 6 0 8 0;
#X connect 6 0 7 0;
#X connect 7 0 1 0;
#X connect 8 0 1 1;
#X coords 0 300 1 299 85 60 0;
#X restore -103 115 pd color;
#N canvas 713 387 450 300 labelpos 0;
#X obj 145 106 pack f f;
#X obj 148 19 r \$0labelx;
#X obj 194 49 r \$0labely;
#X obj 148 81 bondo 2;
#X msg 145 131 label_pos \$1 \$2;
#X obj 145 211 s \$2;
#X connect 0 0 4 0;
#X connect 1 0 3 0;
#X connect 2 0 3 1;
#X connect 3 0 0 0;
#X connect 3 1 0 1;
#X connect 4 0 5 0;
#X restore -103 144 pd labelpos;
#N canvas 572 370 450 300 font 0;
#X obj 103 79 pack f f;
#X msg 103 105 label_font \$1 \$2;
#X obj 99 49 bondo 2;
#X obj 98 11 r \$0font;
#X obj 167 13 r \$0fontsize;
#X obj 103 171 s \$2;
#X connect 0 0 1 0;
#X connect 1 0 5 0;
#X connect 2 0 0 0;
#X connect 2 1 0 1;
#X connect 3 0 2 0;
#X connect 4 0 2 1;
#X restore -103 173 pd font;
#N canvas 730 255 450 300 loadbangs 0;
#X obj 104 53 init 14;
#X obj 104 90 s \$0fontsize_load;
#X obj 254 53 init 15;
#X obj 254 90 s \$0boxsize_load;
#X obj 29 55 init 1;
#X obj 29 91 s \$0numbang;
#X connect 0 0 1 0;
#X connect 2 0 3 0;
#X connect 4 0 5 0;
#X restore -103 86 pd loadbangs;
#N canvas 292 239 1032 509 colorscroll 0;
#X obj 529 444 s \$0color;
#X obj 462 358 f;
#X obj 489 358 f;
#X obj 517 358 f;
#X obj 544 358 f;
#X obj 571 358 f;
#X obj 598 358 f;
#X obj 626 358 f;
#X obj 653 358 f;
#X obj 408 358 f;
#X obj 435 358 f;
#X obj 369 71 f;
#X obj 271 68 f;
#X obj 271 32 + 1;
#X obj 189 96 t f f f;
#X obj 271 97 t f f f;
#X obj 369 35 + 1;
#X obj 534 76 f;
#X obj 442 76 f;
#X obj 442 40 + 1;
#X obj 369 101 t f f f;
#X obj 442 106 t f f f;
#X obj 534 40 + 1;
#X obj 674 79 f;
#X obj 603 75 f;
#X obj 603 39 + 1;
#X obj 536 104 t f f f;
#X obj 600 103 t f f f;
#X obj 674 43 + 1;
#X obj 831 78 f;
#X obj 749 81 f;
#X obj 749 45 + 1;
#X obj 674 104 t f f f;
#X obj 750 107 t f f f;
#X obj 831 42 + 1;
#X obj 913 38 + 1;
#X obj 831 103 t f f f;
#X obj 913 72 f;
#X obj 913 109 t f f f;
#X msg 189 151 color \$1 1;
#X obj 189 176 s \$0cc0;
#X msg 271 153 color \$1 1;
#X obj 271 179 s \$0cc1;
#X msg 353 155 color \$1 1;
#X msg 913 151 color \$1 1;
#X obj 913 176 s \$0cc9;
#X msg 831 151 color \$1 1;
#X obj 831 176 s \$0cc8;
#X msg 750 155 color \$1 1;
#X obj 750 180 s \$0cc7;
#X msg 672 155 color \$1 1;
#X obj 672 180 s \$0cc6;
#X msg 590 155 color \$1 1;
#X obj 590 180 s \$0cc5;
#X msg 510 155 color \$1 1;
#X obj 510 180 s \$0cc4;
#X msg 431 155 color \$1 1;
#X obj 431 180 s \$0cc3;
#X obj 353 180 s \$0cc2;
#X obj 408 273 r \$0bb0;
#X obj 435 295 r \$0bb1;
#X obj 462 318 r \$0bb2;
#X obj 489 273 r \$0bb3;
#X obj 517 295 r \$0bb4;
#X obj 544 318 r \$0bb5;
#X obj 572 272 r \$0bb6;
#X obj 599 294 r \$0bb7;
#X obj 626 317 r \$0bb8;
#X obj 653 272 r \$0bb9;
#X obj 41 279 t b f b;
#X msg 80 335 0;
#X obj 40 376 spigot;
#X msg 41 335 1;
#X obj 131 279 t b f b;
#X msg 170 335 0;
#X msg 131 338 1;
#X obj 122 372 spigot;
#X obj 122 401 s \$0n2r;
#X obj 131 253 r \$0n2s;
#X obj 40 401 s \$0n1r;
#X obj 41 255 r \$0n1s;
#X obj 171 13 r \$0n2s;
#X obj 81 15 r \$0n1s;
#X obj 171 38 - 9;
#X obj 150 309 - 9;
#X obj 60 309 + 9;
#X obj -13 343 init 1;
#X obj 244 303 init 10;
#X connect 1 0 0 0;
#X connect 2 0 0 0;
#X connect 3 0 0 0;
#X connect 4 0 0 0;
#X connect 5 0 0 0;
#X connect 6 0 0 0;
#X connect 7 0 0 0;
#X connect 8 0 0 0;
#X connect 9 0 0 0;
#X connect 10 0 0 0;
#X connect 11 0 20 0;
#X connect 12 0 15 0;
#X connect 13 0 12 0;
#X connect 14 0 39 0;
#X connect 14 1 9 1;
#X connect 14 2 13 0;
#X connect 15 0 41 0;
#X connect 15 1 10 1;
#X connect 15 2 16 0;
#X connect 16 0 11 0;
#X connect 17 0 26 0;
#X connect 18 0 21 0;
#X connect 19 0 18 0;
#X connect 20 0 43 0;
#X connect 20 1 1 1;
#X connect 20 2 19 0;
#X connect 21 0 56 0;
#X connect 21 1 2 1;
#X connect 21 2 22 0;
#X connect 22 0 17 0;
#X connect 23 0 32 0;
#X connect 24 0 27 0;
#X connect 25 0 24 0;
#X connect 26 0 54 0;
#X connect 26 1 3 1;
#X connect 26 2 25 0;
#X connect 27 0 52 0;
#X connect 27 1 4 1;
#X connect 27 2 28 0;
#X connect 28 0 23 0;
#X connect 29 0 36 0;
#X connect 30 0 33 0;
#X connect 31 0 30 0;
#X connect 32 0 50 0;
#X connect 32 1 5 1;
#X connect 32 2 31 0;
#X connect 33 0 48 0;
#X connect 33 1 6 1;
#X connect 33 2 34 0;
#X connect 34 0 29 0;
#X connect 35 0 37 0;
#X connect 36 0 46 0;
#X connect 36 1 7 1;
#X connect 36 2 35 0;
#X connect 37 0 38 0;
#X connect 38 0 44 0;
#X connect 38 1 8 1;
#X connect 39 0 40 0;
#X connect 41 0 42 0;
#X connect 43 0 58 0;
#X connect 44 0 45 0;
#X connect 46 0 47 0;
#X connect 48 0 49 0;
#X connect 50 0 51 0;
#X connect 52 0 53 0;
#X connect 54 0 55 0;
#X connect 56 0 57 0;
#X connect 59 0 9 0;
#X connect 60 0 10 0;
#X connect 61 0 1 0;
#X connect 62 0 2 0;
#X connect 63 0 3 0;
#X connect 64 0 4 0;
#X connect 65 0 5 0;
#X connect 66 0 6 0;
#X connect 67 0 7 0;
#X connect 68 0 8 0;
#X connect 69 0 72 0;
#X connect 69 1 85 0;
#X connect 69 2 70 0;
#X connect 70 0 71 1;
#X connect 71 0 79 0;
#X connect 72 0 71 1;
#X connect 73 0 75 0;
#X connect 73 1 84 0;
#X connect 73 2 74 0;
#X connect 74 0 76 1;
#X connect 75 0 76 1;
#X connect 76 0 77 0;
#X connect 78 0 73 0;
#X connect 80 0 69 0;
#X connect 81 0 83 0;
#X connect 82 0 14 0;
#X connect 83 0 14 0;
#X connect 84 0 71 0;
#X connect 85 0 76 0;
#X connect 86 0 79 0;
#X connect 87 0 77 0;
#X restore -103 260 pd colorscroll;
#N canvas 454 82 604 686 resize 0;
#X obj 350 -7771 loadbang;
#X obj 150 -7737 route motion mouse mouseup;
#X obj 150 -7766 iemguts/receivecanvas 2;
#X obj 349 -7739 metro 20;
#N canvas 65 54 1301 714 resize 0;
#X obj 342 -7640 l;
#X obj 265 -7614 unpack f f f f;
#X obj 395 -7498 t f f;
#X obj 463 -7495 t f f;
#X obj 444 -7440 <=;
#X obj 395 -7440 >=;
#X obj 365 -7441 <=;
#X obj 330 -7440 >=;
#X obj 263 -7542 t f f;
#X obj 322 -7542 t f f;
#X msg 387 -7074 runmode_nothing arrow;
#X msg 345 -7028 runmode_nothing sb_v_double_arrow;
#X msg 381 -7001 runmode_nothing sb_h_double_arrow;
#X msg 370 -7055 runmode_nothing tcross;
#X obj 365 -7470 - 5;
#X obj 395 -7469 + 5;
#X obj 463 -7466 - 5;
#X obj 495 -7470 + 5;
#X obj 395 -7527 + 100;
#X obj 463 -7524 + 60;
#X obj 330 -7411 bondo;
#X obj 330 -7382 +;
#X obj 330 -7353 == 2;
#X obj 395 -7411 bondo;
#X obj 415 -7385 +;
#X obj 415 -7356 == 2;
#X obj 415 -7327 * 2;
#X obj 367 -7296 bondo;
#X obj 324 -7114 sel 1 2 3;
#X obj 367 -7267 +;
#X obj 326 -7218 change;
#X obj 143 -7539 spigot;
#X msg 176 -7614 1;
#X msg 213 -7614 0;
#X obj 76 -7385 unpack f f;
#X obj 156 -7385 unpack f f;
#X obj 236 -7385 unpack f f;
#X obj 39 -7090 t f f;
#X obj 151 -7068 t f f;
#X obj 94 -7028 bondo;
#X obj 39 -7119 + 100;
#X obj 151 -7105 + 60;
#X msg 94 -6970 vis_size \$1 \$2;
#X obj 326 -7247 demux;
#X obj 176 -7207 loadbang;
#X obj 61 -7654 t a a a;
#X obj 39 -7614 unpack f f f f;
#X obj 34 -7490 f;
#X obj 93 -7487 f;
#X obj 94 -6999 pack f f;
#X obj 325 -7189 t f f f;
#X obj 221 -7680 spigot;
#X obj 145 -7479 demux 0 1 2 3;
#X obj 269 -7673 spigot;
#X obj 72 -7333 -;
#X obj 179 -7330 -;
#X obj 196 -7645 t b b;
#X obj 143 -7589 demux;
#X obj 146 -7564 t b b;
#X obj 395 -7582 unpack f f f;
#X obj 442 -7556 t f f f;
#X obj 385 -7558 t f f f;
#X obj 68 -7285 +;
#X obj 68 -7258 -;
#X obj 179 -7291 +;
#X obj 179 -7260 -;
#X obj 476 -7386 demux;
#X obj 521 -7385 demux;
#X msg 621 -7051 editmode_nothing tcross;
#X msg 616 -7026 editmode_nothing sb_v_double_arrow;
#X msg 631 -7001 editmode_nothing sb_h_double_arrow;
#X obj 64 -7711 inlet motion;
#X obj 218 -7713 inlet mouse;
#X obj 291 -7711 inlet mouseup;
#X obj 463 -6946 outlet;
#X obj 406 -7708 inlet metro;
#X msg 619 -7076 editmode_nothing hand1;
#X obj 94 -6941 s \$2;
#X obj 395 -7605 r \$1;
#X connect 0 0 1 0;
#X connect 1 0 8 0;
#X connect 1 1 9 0;
#X connect 2 0 14 0;
#X connect 2 1 15 0;
#X connect 3 0 16 0;
#X connect 3 1 17 0;
#X connect 4 0 23 1;
#X connect 5 0 23 0;
#X connect 6 0 20 1;
#X connect 7 0 20 0;
#X connect 8 0 7 0;
#X connect 8 1 6 0;
#X connect 9 0 5 0;
#X connect 9 1 4 0;
#X connect 10 0 74 0;
#X connect 11 0 74 0;
#X connect 12 0 74 0;
#X connect 13 0 74 0;
#X connect 14 0 7 1;
#X connect 15 0 6 1;
#X connect 16 0 5 1;
#X connect 17 0 4 1;
#X connect 18 0 2 0;
#X connect 19 0 3 0;
#X connect 20 0 21 0;
#X connect 20 1 21 1;
#X connect 21 0 22 0;
#X connect 22 0 27 0;
#X connect 23 0 24 0;
#X connect 23 1 24 1;
#X connect 24 0 25 0;
#X connect 25 0 26 0;
#X connect 26 0 27 1;
#X connect 27 0 29 0;
#X connect 27 1 29 1;
#X connect 28 0 12 0;
#X connect 28 0 70 0;
#X connect 28 1 11 0;
#X connect 28 1 69 0;
#X connect 28 2 13 0;
#X connect 28 2 68 0;
#X connect 28 3 10 0;
#X connect 28 3 76 0;
#X connect 29 0 43 0;
#X connect 30 0 50 0;
#X connect 31 0 52 0;
#X connect 32 0 31 1;
#X connect 32 0 43 1;
#X connect 32 0 57 1;
#X connect 32 0 66 1;
#X connect 32 0 67 1;
#X connect 33 0 31 1;
#X connect 33 0 43 1;
#X connect 34 0 54 0;
#X connect 35 1 55 0;
#X connect 36 0 54 0;
#X connect 36 1 55 0;
#X connect 37 0 39 0;
#X connect 37 1 18 1;
#X connect 38 0 39 1;
#X connect 38 1 19 1;
#X connect 39 0 49 0;
#X connect 39 1 49 1;
#X connect 40 0 37 0;
#X connect 41 0 38 0;
#X connect 42 0 77 0;
#X connect 43 0 30 0;
#X connect 44 0 41 0;
#X connect 44 0 40 0;
#X connect 44 0 10 0;
#X connect 44 0 76 0;
#X connect 45 0 31 0;
#X connect 45 1 46 0;
#X connect 45 2 0 1;
#X connect 46 0 47 1;
#X connect 46 1 48 1;
#X connect 47 0 54 1;
#X connect 48 0 55 1;
#X connect 49 0 42 0;
#X connect 50 0 28 0;
#X connect 50 1 52 1;
#X connect 50 2 51 1;
#X connect 50 2 53 1;
#X connect 51 0 56 0;
#X connect 52 1 34 0;
#X connect 52 2 35 0;
#X connect 52 3 36 0;
#X connect 53 0 33 0;
#X connect 54 0 62 0;
#X connect 55 0 64 0;
#X connect 56 0 32 0;
#X connect 56 1 57 0;
#X connect 57 0 58 0;
#X connect 58 0 47 0;
#X connect 58 1 48 0;
#X connect 59 0 61 0;
#X connect 59 1 60 0;
#X connect 60 0 65 1;
#X connect 60 1 67 0;
#X connect 60 2 19 0;
#X connect 61 0 63 1;
#X connect 61 1 66 0;
#X connect 61 2 18 0;
#X connect 62 0 63 0;
#X connect 63 0 40 0;
#X connect 64 0 65 0;
#X connect 65 0 41 0;
#X connect 66 0 62 1;
#X connect 67 0 64 1;
#X connect 68 0 74 0;
#X connect 69 0 74 0;
#X connect 70 0 74 0;
#X connect 71 0 45 0;
#X connect 72 0 51 0;
#X connect 73 0 53 0;
#X connect 75 0 0 0;
#X connect 76 0 74 0;
#X connect 78 0 59 0;
#X restore 171 -7678 pd resize;
#X msg 349 -7710 get_pos;
#N canvas 65 54 1301 714 move 0;
#X obj 272 -7644 l;
#X obj 265 -7614 unpack f f f f;
#X obj 395 -7498 t f f;
#X obj 463 -7495 t f f;
#X obj 444 -7440 <=;
#X obj 395 -7440 >=;
#X obj 365 -7441 <=;
#X obj 330 -7440 >=;
#X obj 263 -7542 t f f;
#X obj 322 -7542 t f f;
#X msg 377 -7056 runmode_nothing arrow;
#X obj 330 -7411 bondo;
#X obj 330 -7382 +;
#X obj 330 -7353 == 2;
#X obj 395 -7411 bondo;
#X obj 410 -7378 +;
#X obj 414 -7350 == 2;
#X obj 367 -7296 bondo;
#X obj 367 -7267 +;
#X obj 342 -7207 change;
#X obj 143 -7539 spigot;
#X msg 176 -7614 1;
#X msg 213 -7614 0;
#X obj 94 -7383 unpack f f;
#X obj 39 -7090 t f f;
#X obj 151 -7068 t f f;
#X obj 94 -7028 bondo;
#X obj 369 -7237 demux;
#X obj 176 -7207 loadbang;
#X obj 61 -7654 t a a a;
#X obj 39 -7614 unpack f f f f;
#X obj 34 -7490 f;
#X obj 93 -7487 f;
#X obj 94 -6999 pack f f;
#X obj 341 -7178 t f f f;
#X obj 221 -7680 spigot;
#X obj 269 -7673 spigot;
#X obj 72 -7333 -;
#X obj 179 -7330 -;
#X obj 196 -7645 t b b;
#X obj 143 -7589 demux;
#X obj 146 -7564 t b b;
#X obj 395 -7582 unpack f f f;
#X obj 442 -7556 t f f f;
#X obj 385 -7558 t f f f;
#X obj 68 -7285 +;
#X obj 68 -7258 -;
#X obj 179 -7291 +;
#X obj 179 -7260 -;
#X obj 476 -7386 demux;
#X obj 521 -7385 demux;
#X msg 618 -7076 editmode_nothing hand1;
#X obj 64 -7711 inlet motion;
#X obj 218 -7713 inlet mouse;
#X obj 291 -7711 inlet mouseup;
#X obj 463 -6946 outlet;
#X obj 406 -7708 inlet metro;
#X obj 365 -7470 - 10;
#X obj 463 -7466 - 10;
#X obj 502 -7467 + 10;
#X obj 358 -7116 sel 2;
#X obj 39 -7119 + 30;
#X obj 151 -7105 + 30;
#X msg 94 -6970 label_pos \$1 \$2;
#X obj 137 -7468 demux 0 1 2;
#X msg 631 -7001 editmode_nothing dot;
#X msg 381 -7001 runmode_nothing dot;
#X obj 395 -7527 + 20;
#X obj 483 -7525 + 40;
#X obj 395 -7469 + 20;
#X obj 94 -6941 s \$2;
#X obj 395 -7605 r \$1;
#X connect 0 0 1 0;
#X connect 1 0 8 0;
#X connect 1 1 9 0;
#X connect 2 0 57 0;
#X connect 2 1 69 0;
#X connect 3 0 58 0;
#X connect 3 1 59 0;
#X connect 4 0 14 1;
#X connect 5 0 14 0;
#X connect 6 0 11 1;
#X connect 7 0 11 0;
#X connect 8 0 7 0;
#X connect 8 1 6 0;
#X connect 9 0 5 0;
#X connect 9 1 4 0;
#X connect 10 0 55 0;
#X connect 11 0 12 0;
#X connect 11 1 12 1;
#X connect 12 0 13 0;
#X connect 13 0 17 0;
#X connect 14 0 15 0;
#X connect 14 1 15 1;
#X connect 15 0 16 0;
#X connect 16 0 17 1;
#X connect 17 0 18 0;
#X connect 17 1 18 1;
#X connect 18 0 27 0;
#X connect 19 0 34 0;
#X connect 20 0 64 0;
#X connect 21 0 20 1;
#X connect 21 0 27 1;
#X connect 21 0 40 1;
#X connect 21 0 49 1;
#X connect 21 0 50 1;
#X connect 22 0 20 1;
#X connect 22 0 27 1;
#X connect 23 0 37 0;
#X connect 23 1 38 0;
#X connect 24 0 26 0;
#X connect 24 1 67 1;
#X connect 25 0 26 1;
#X connect 25 1 68 1;
#X connect 26 0 33 0;
#X connect 26 1 33 1;
#X connect 27 0 19 0;
#X connect 28 0 10 0;
#X connect 28 0 51 0;
#X connect 28 0 61 0;
#X connect 28 0 62 0;
#X connect 29 0 20 0;
#X connect 29 1 30 0;
#X connect 29 2 0 1;
#X connect 30 0 31 1;
#X connect 30 1 32 1;
#X connect 31 0 37 1;
#X connect 32 0 38 1;
#X connect 33 0 63 0;
#X connect 34 0 60 0;
#X connect 34 1 64 1;
#X connect 34 2 35 1;
#X connect 34 2 36 1;
#X connect 35 0 39 0;
#X connect 36 0 22 0;
#X connect 37 0 45 0;
#X connect 38 0 47 0;
#X connect 39 0 21 0;
#X connect 39 1 40 0;
#X connect 40 0 41 0;
#X connect 41 0 31 0;
#X connect 41 1 32 0;
#X connect 42 0 44 0;
#X connect 42 1 43 0;
#X connect 43 0 48 1;
#X connect 43 1 50 0;
#X connect 43 2 68 0;
#X connect 44 0 46 1;
#X connect 44 1 49 0;
#X connect 44 2 67 0;
#X connect 45 0 46 0;
#X connect 46 0 61 0;
#X connect 47 0 48 0;
#X connect 48 0 62 0;
#X connect 49 0 45 1;
#X connect 50 0 47 1;
#X connect 51 0 55 0;
#X connect 52 0 29 0;
#X connect 53 0 35 0;
#X connect 54 0 36 0;
#X connect 56 0 0 0;
#X connect 57 0 7 1;
#X connect 58 0 5 1;
#X connect 59 0 4 1;
#X connect 60 0 66 0;
#X connect 60 0 65 0;
#X connect 60 1 10 0;
#X connect 60 1 51 0;
#X connect 61 0 24 0;
#X connect 62 0 25 0;
#X connect 63 0 70 0;
#X connect 64 2 23 0;
#X connect 65 0 55 0;
#X connect 66 0 55 0;
#X connect 67 0 2 0;
#X connect 68 0 3 0;
#X connect 69 0 6 1;
#X connect 71 0 42 0;
#X restore 251 -7678 pd move;
#X obj 222 -7601 outlet;
#X obj 349 -7674 s \$2;
#X obj 446 -7645 route symbol;
#X msg 446 -7614 0;
#X obj 446 -7685 symbol \$1;
#X connect 0 0 3 0;
#X connect 0 0 11 0;
#X connect 1 0 4 0;
#X connect 1 0 6 0;
#X connect 1 1 4 1;
#X connect 1 1 6 1;
#X connect 1 2 4 2;
#X connect 1 2 6 2;
#X connect 2 0 1 0;
#X connect 3 0 5 0;
#X connect 3 0 4 3;
#X connect 3 0 6 3;
#X connect 4 0 7 0;
#X connect 5 0 8 0;
#X connect 6 0 7 0;
#X connect 9 0 10 0;
#X connect 10 0 3 0;
#X connect 11 0 9 0;
#X coords 0 0 1 1 85 60 0;
#X restore -103 289 pd resize;
#N canvas 784 403 450 300 boxsize 0;
#X obj 103 71 r \$0boxsize;
#X msg 103 105 size \$1;
#X obj 103 171 s \$2;
#X connect 0 0 1 0;
#X connect 1 0 2 0;
#X restore -103 231 pd boxsize;
#N canvas 723 442 450 300 label 0;
#X obj 284 31 r \$0labeltext;
#X msg 284 61 label \$1;
#X obj 284 94 s \$2;
#X connect 0 0 1 0;
#X connect 1 0 2 0;
#X restore -103 202 pd label;
#X obj 101 179 cnv 15 221 50 empty empty empty 20 12 0 14 -204800 -262144
0;
#X obj 137 205 bng 15 250 50 0 \$0bb2 empty empty 17 7 0 10 -262144
-1 -1;
#X obj 153 205 bng 15 250 50 0 \$0bb3 empty empty 17 7 0 10 -262144
-1 -1;
#X obj 169 205 bng 15 250 50 0 \$0bb4 empty empty 17 7 0 10 -262144
-1 -1;
#X obj 185 205 bng 15 250 50 0 \$0bb5 empty empty 17 7 0 10 -262144
-1 -1;
#X obj 201 205 bng 15 250 50 0 \$0bb6 empty empty 17 7 0 10 -262144
-1 -1;
#X obj 217 205 bng 15 250 50 0 \$0bb7 empty empty 17 7 0 10 -262144
-1 -1;
#X obj 233 205 bng 15 250 50 0 \$0bb8 empty empty 17 7 0 10 -262144
-1 -1;
#X obj 249 205 bng 15 250 50 0 \$0bb9 empty empty 17 7 0 10 -262144
-1 -1;
#X obj 105 205 bng 15 250 50 0 \$0bb0 empty empty 17 7 0 10 -262144
-1 -1;
#X obj 121 205 bng 15 250 50 0 \$0bb1 empty empty 17 7 0 10 -262144
-1 -1;
#X obj 105 205 cnv 15 15 15 empty \$0cc0 empty 20 12 0 14 -166441 -166441
0;
#X obj 121 205 cnv 15 15 15 empty \$0cc1 empty 20 12 0 14 -66577 -166441
0;
#X obj 137 205 cnv 15 15 15 empty \$0cc2 empty 20 12 0 14 -261689 -166441
0;
#X obj 153 205 cnv 15 15 15 empty \$0cc3 empty 20 12 0 14 -261681 -166441
0;
#X obj 169 205 cnv 15 15 15 empty \$0cc4 empty 20 12 0 14 -262131 -166441
0;
#X obj 185 205 cnv 15 15 15 empty \$0cc5 empty 20 12 0 14 -225271 -166441
0;
#X obj 201 205 cnv 15 15 15 empty \$0cc6 empty 20 12 0 14 -225280 -166441
0;
#X obj 217 205 cnv 15 15 15 empty \$0cc7 empty 20 12 0 14 -228992 -166441
0;
#X obj 233 205 cnv 15 15 15 empty \$0cc8 empty 20 12 0 14 -257472 -166441
0;
#X obj 249 205 cnv 15 15 15 empty \$0cc9 empty 20 12 0 14 -233017 -166441
0;
#X floatatom 158 184 5 0 0 0 - #0n1r #0n1s;
#X floatatom 207 184 5 0 0 0 - #0n2r #0n2s;
#X text 191 184 to;
#X text 117 183 colors;
#X obj 267 190 vradio 15 1 0 2 \$0select nul empty 0 -8 0 10 -262144
-1 -1 0;
#X text 283 187 canvas;
#X text 284 203 label;
#X obj 101 122 cnv 15 221 57 s1 r1 empty 20 12 0 14 -262131 -262144
0;
#X floatatom 285 141 5 0 0 0 - #0fontsize_load #0fontsize;
#X symbolatom 255 160 10 0 0 0 - nul #0labeltext;
#X text 216 159 label;
#X obj 107 131 vradio 15 1 0 3 \$0font nul empty 0 -8 0 10 -262144
-1 -1 0;
#X text 124 143 Helvetica;
#X text 124 158 Times;
#X floatatom 285 122 5 0 0 0 - #0boxsize_load #0boxsize;
#X text 217 121 box size;
#X text 216 140 font size;
#X text 123 127 DejaVu Sans;
#X obj 262 101 cnv 15 60 20 s1 r1 empty 20 12 0 14 -262131 -262144
0;
#X obj -103 318 cursor;
#X text -62 317 <-- Delete this if the cursor error messages annoy
you. Be ready to lose the handy cursors used for resizing \, though.
;
#X text 362 383 2014 Liam Goodacre;
#X text 4 -95 * Use as an abstraction in another patch to control canvases
;
#X text 4 10 * Resize canvas using the cursor \, the same as you would
a window;
#X text 4 40 * Drag label using cursor;
#X text 4 -40 * Control properties using the cnvtools window;
#X text 4 -22 * Select colors by clicking on them. Drag the color number
boxes to scroll through more colours;
#X text 3 59 * Only use one cnvtools at a time. Delete when finished.
;
#X text 4 -77 * Set the canvas' send and receive symbols as the creation
arguments \, ie [cnvtool canvas_send canvas_receive];
#X connect 5 0 48 0;
#X coords 0 -1 1 1 223 130 1 100 100;
