#N canvas 439 1001 1514 1028 10;
#X obj 226 64 cnv 15 170 340 empty empty empty 20 12 0 14 -228992 -66577
0;
#X obj 227 428 cnv 15 100 60 empty empty empty 20 12 0 14 -195568 -66577
0;
#N canvas 0 22 450 300 gemwin 0;
#X obj 132 136 gemwin;
#X obj 67 89 outlet;
#X obj 67 10 inlet;
#X obj 67 41 route create;
#X msg 67 70 set destroy;
#X msg 142 68 set create;
#X msg 132 112 create \, 1;
#X msg 198 112 destroy;
#X connect 2 0 3 0;
#X connect 3 0 4 0;
#X connect 3 0 6 0;
#X connect 3 1 5 0;
#X connect 3 1 7 0;
#X connect 4 0 1 0;
#X connect 5 0 1 0;
#X connect 6 0 0 0;
#X connect 7 0 0 0;
#X restore 233 467 pd gemwin;
#X msg 233 448 destroy;
#X text 229 427 Create window:;
#X obj 228 215 cnv 15 160 60 empty empty empty 20 12 0 14 -24198 -66577
0;
#X obj 229 243 rotate 45 0 0 1;
#X floatatom 289 219 5 0 0 0 - - -;
#X msg 342 235 1 0 0;
#X msg 342 256 0 1 1;
#X msg 342 214 0 0 0;
#X floatatom 330 283 5 0 0 0 - - -;
#X floatatom 238 283 5 0 0 0 - - -;
#X floatatom 288 283 5 0 0 0 - - -;
#X obj 227 304 translateXYZ;
#X floatatom 316 88 5 0 0 0 - - -;
#X floatatom 237 87 5 0 0 0 - - -;
#X floatatom 276 87 5 0 0 0 - - -;
#X obj 231 108 translateXYZ;
#X obj 250 216 line;
#X obj 295 140 bng 15 250 50 0 empty empty empty 17 7 0 10 -262144
-1 -1;
#X obj 248 194 pack \$1 \$2;
#X obj 295 158 f;
#X obj 325 159 + 1;
#X obj 634 64 cnv 15 170 340 empty empty empty 20 12 0 14 -228992 -66577
0;
#X obj 635 210 cnv 15 160 60 empty empty empty 20 12 0 14 -24198 -66577
0;
#X msg 749 230 1 0 0;
#X msg 749 251 0 1 1;
#X msg 749 209 0 0 0;
#X floatatom 760 91 5 0 0 0 - - -;
#X floatatom 658 91 5 0 0 0 - - -;
#X floatatom 708 91 5 0 0 0 - - -;
#X obj 638 113 translateXYZ;
#X obj 369 177 r T$;
#X floatatom 249 137 5 0 0 0 - - -;
#X obj 639 322 color;
#X floatatom 342 353 5 0 0 0 - - -;
#X obj 235 327 color;
#X floatatom 302 354 5 0 0 0 - - -;
#X obj 435 64 cnv 15 170 340 empty empty empty 20 12 0 14 -228992 -66577
0;
#X obj 436 235 cnv 15 160 60 empty empty empty 20 12 0 14 -24198 -66577
0;
#X floatatom 454 244 5 0 0 0 - - -;
#X msg 550 255 1 0 0;
#X msg 550 276 0 1 1;
#X msg 550 234 0 0 0;
#X floatatom 552 89 5 0 0 0 - - -;
#X floatatom 459 91 5 0 0 0 - - -;
#X floatatom 509 91 5 0 0 0 - - -;
#X obj 439 113 translateXYZ;
#X obj 459 352 color;
#X obj 502 138 bng 15 250 50 0 empty empty empty 17 7 0 10 -262144
-1 -1;
#X obj 456 199 pack \$1 \$2;
#X obj 500 156 f;
#X obj 529 158 + 1;
#X obj 568 189 r T$;
#X floatatom 454 136 5 0 0 0 - - -;
#X obj 560 130 r ITA;
#X obj 437 263 rotate 45 0 0 1;
#X obj 454 178 * 360;
#X obj 455 221 line;
#X obj 744 115 r STPA;
#X floatatom 739 346 5 0 0 0 - - -;
#X obj 442 67 gemhead 6;
#X obj 724 487 r lo;
#X obj 248 154 * -1;
#X obj 247 173 * 360;
#X obj 454 157 * -1;
#X floatatom 699 346 5 0 0 0 - - -;
#X floatatom 757 275 5 0 0 0 - - -;
#X floatatom 667 275 5 0 0 0 - - -;
#X floatatom 723 275 5 0 0 0 - - -;
#X obj 638 297 translateXYZ;
#X floatatom 510 371 5 0 0 0 - - -;
#X floatatom 547 371 5 0 0 0 - - -;
#X msg 749 190 0 0 1;
#X floatatom 693 219 5 0 0 0 - - -;
#X obj 697 174 pack \$1 \$2;
#X obj 694 196 line;
#X obj 636 238 rotate 45 0 0 1;
#X obj 370 122 r BB;
#X obj 721 146 * -22.5;
#X obj 1440 434 cnv 15 170 340 empty empty empty 20 12 0 14 -228992
-66577 0;
#X msg 1511 575 draw line;
#X msg 1511 596 draw fill;
#X msg 1511 618 draw point;
#X floatatom 1562 700 5 0 0 2 size - -;
#X obj 232 63 gemhead 4;
#X obj 1238 64 cnv 15 170 340 empty empty empty 20 12 0 14 -228992
-66577 0;
#X obj 1040 64 cnv 15 170 340 empty empty empty 20 12 0 14 -228992
-66577 0;
#X msg 688 321 1 0 0;
#X msg 282 327 0 1 0;
#X msg 1019 325 -2;
#X msg 1272 114 draw line;
#X msg 1273 143 draw fill;
#X msg 1271 169 draw point;
#X obj 1275 279 color;
#X obj 1438 64 cnv 15 170 340 empty empty empty 20 12 0 14 -228992
-66577 0;
#X msg 1451 128 draw line;
#X msg 1452 157 draw fill;
#X msg 1448 181 draw point;
#X obj 1471 292 color;
#X msg 1509 260 1 1 1;
#X floatatom 1178 331 5 0 0 0 - - -;
#X msg 1019 285 -4;
#X floatatom 1361 368 5 0 0 0 - - -;
#X floatatom 574 -33 5 0 0 0 - - -;
#X floatatom 1359 307 5 0 0 0 - - -;
#X floatatom 1273 308 5 0 0 0 - - -;
#X floatatom 1318 307 5 0 0 0 - - -;
#X obj 1275 336 translateXYZ;
#X floatatom 1359 307 5 0 0 0 - - -;
#X floatatom 1273 308 5 0 0 0 - - -;
#X floatatom 1318 307 5 0 0 0 - - -;
#X obj 1275 336 translateXYZ;
#X floatatom 1571 314 5 0 0 0 - - -;
#X floatatom 1485 315 5 0 0 0 - - -;
#X floatatom 1530 314 5 0 0 0 - - -;
#X obj 1467 343 translateXYZ;
#X floatatom 1571 314 5 0 0 0 - - -;
#X floatatom 1485 315 5 0 0 0 - - -;
#X floatatom 1530 314 5 0 0 0 - - -;
#X obj 1467 343 translateXYZ;
#X floatatom 1563 650 5 0 0 0 - - -;
#X floatatom 1477 651 5 0 0 0 - - -;
#X floatatom 1522 650 5 0 0 0 - - -;
#X obj 1459 679 translateXYZ;
#X floatatom 1563 650 5 0 0 0 - - -;
#X floatatom 1477 651 5 0 0 0 - - -;
#X floatatom 1522 650 5 0 0 0 - - -;
#X obj 1459 679 translateXYZ;
#X obj 661 -71 r lo;
#X obj 1046 210 cnv 15 160 60 empty empty empty 20 12 0 14 -24198 -66577
0;
#X obj 1066 306 color;
#X floatatom 1114 210 5 0 0 0 - - -;
#X obj 1066 232 translateXYZ;
#X obj 1153 71 r posvisu;
#X obj 835 450 cnv 15 400 340 empty empty empty 20 12 0 14 -228992
-66577 0;
#X msg 584 -79 0.6;
#X floatatom 563 306 5 0 0 0 - - -;
#X floatatom 468 306 5 0 0 0 - - -;
#X floatatom 524 306 5 0 0 0 - - -;
#X obj 439 328 translateXYZ;
#X floatatom 1571 334 5 0 0 0 - - -;
#X obj 1295 75 gemhead 3;
#X obj 1491 85 gemhead 3;
#X msg 509 350 0 1 1;
#X msg 374 282 1.4;
#X obj 235 375 rectangle 0.4 0.12;
#X obj 461 392 rectangle 0.4 0.12;
#X obj 640 369 rectangle 0.4 0.12;
#X msg 559 331 1.8;
#X msg 1300 245 1 1 1;
#X obj 1263 359 circle 1.44;
#X obj 1447 364 circle 1.82;
#X msg 758 300 2.2;
#X obj 1472 438 gemhead 3;
#X obj 638 66 gemhead 4;
#X obj 1472 742 circle 2.2;
#X msg 374 322 0.4;
#X obj 842 569 cnv 15 380 95 empty empty empty 20 12 0 14 -24198 -66577
0;
#X obj 645 794 r looplenghtA;
#X obj 660 846 t b f;
#X floatatom 660 905 9 0 0 0 - - -;
#X obj 1084 730 color;
#X obj 743 849 r T$;
#X obj 701 510 bng 15 250 50 0 empty empty empty 17 7 0 10 -262144
-1 -1;
#X obj 851 501 spigot-toggle_red;
#X obj 852 729 color;
#X floatatom 927 550 5 0 0 0 - - -;
#X floatatom 956 703 5 0 0 0 - - -;
#X floatatom 646 814 7 0 0 0 - - -;
#X floatatom 839 955 7 0 0 0 - - -;
#X floatatom 728 877 5 0 0 0 - - -;
#X obj 919 -68 r add;
#X floatatom 1118 331 5 0 0 0 - - -;
#X floatatom 691 751 7 0 0 0 - - -;
#X floatatom 1178 694 5 0 0 0 - - -;
#X obj 851 459 gemhead 20;
#X obj 1065 71 gemhead 21;
#X obj 1129 651 translateXYZ;
#X obj 1129 621 translateXYZ;
#X obj 1066 262 translateXYZ;
#X obj 1129 569 translateXYZ;
#X floatatom 996 433 5 0 0 0 - - -;
#X obj 1121 501 spigot-toggle_red;
#X obj 1084 475 < 1;
#X obj 904 588 translateXYZ;
#X obj 900 624 translateXYZ;
#X obj 900 654 translateXYZ;
#X msg 897 729 1 1 1;
#X msg 1129 730 1 1 1;
#X msg 676 557 -2.5;
#X msg 1019 209 -2.5;
#X obj 998 394 r Amod;
#X msg 1109 307 0 0 0;
#X obj 662 871 /;
#X obj 1306 597 color;
#X floatatom 1398 637 7 0 0 0 - - -;
#X obj 1306 470 gemhead 21;
#X floatatom 1335 634 7 0 0 0 - - -;
#X floatatom 1321 534 5 0 0 0 - - -;
#X obj 1309 561 translateXYZ;
#X floatatom 1360 530 7 0 0 0 - - -;
#X floatatom 1413 528 7 0 0 0 - - -;
#X msg 1312 504 -7;
#X obj 1262 567 r lo;
#X obj 1239 590 bng 15 250 50 0 empty empty empty 17 7 0 10 -262144
-1 -1;
#X obj 1309 831 color;
#X floatatom 1402 858 7 0 0 0 - - -;
#X floatatom 1321 757 5 0 0 0 - - -;
#X obj 1308 801 translateXYZ;
#X floatatom 1351 857 7 0 0 0 - - -;
#X floatatom 1359 762 7 0 0 0 - - -;
#X msg 1372 504 -2.5;
#X msg 1380 728 -2.5;
#X msg 1138 289 0 0 1;
#X obj 1303 698 gemhead 22;
#X msg 1320 728 7;
#X obj 1086 762 rectangle 0.01 0.1;
#X obj 852 766 rectangle 0.01 0.1;
#X obj 1054 366 rectangle 0.02 0.1;
#X obj 1308 890 rectangle 2 0.1;
#X obj 1304 669 rectangle 2 0.1;
#X obj 1133 435 gemhead 19;
#X obj 955 10 r trgrA;
#X msg 1351 597 0 0 0;
#X msg 1354 831 0 0 0;
#X obj 989 722 * 1;
#X floatatom 623 570 5 0 0 0 - - -;
#X floatatom 725 631 5 0 0 0 - - -;
#X floatatom 1152 95 5 0 0 0 - - -;
#X floatatom 1047 536 9 0 0 0 - - -;
#X obj 987 744 + 0;
#X msg 928 423 7;
#X obj 660 925 * 1;
#X msg 1019 235 -4.5;
#X obj 1152 137 + 2;
#X obj 1152 116 * 5;
#X obj 996 488 + 2;
#X obj 994 459 * 5;
#X msg 678 606 -4.5;
#X floatatom 1211 481 5 0 0 0 - - -;
#X obj 1211 501 - 0;
#X floatatom 1133 454 5 0 0 0 - - -;
#X obj 874 489 < 0;
#X obj 926 507 - 5;
#X obj 1134 476 > 0;
#X floatatom 1143 504 5 0 0 0 - - -;
#X obj 1006 859 sel;
#X obj 1077 897 bng 15 250 50 0 empty empty empty 17 7 0 10 -262144
-1 -1;
#X obj 1107 895 f;
#X floatatom 1112 105 5 0 0 0 - - -;
#X obj 1222 691 t b f;
#X obj 1222 712 - 0;
#X obj 924 837 +;
#X floatatom 922 859 7 0 0 0 - - -;
#X obj 974 860 > 7;
#X obj 922 889 - 7;
#X floatatom 954 889 7 0 0 0 - - -;
#X floatatom 1218 774 5 0 0 0 - - -;
#X obj 661 952 * 7;
#X obj 1011 894 bng 15 250 50 0 empty empty empty 17 7 0 10 -262144
-1 -1;
#X msg 1034 894 0;
#X obj 311 564 + 1;
#X obj 309 539 r 44/88_A;
#X obj 411 960 cnv 15 160 60 empty empty empty 20 12 0 14 -24198 -66577
0;
#X obj 412 988 rotate 45 0 0 1;
#X floatatom 472 964 5 0 0 0 - - -;
#X msg 525 980 1 0 0;
#X msg 525 1001 0 1 1;
#X msg 525 959 0 0 0;
#X obj 433 961 line;
#X obj 478 885 bng 15 250 50 0 empty empty empty 17 7 0 10 -262144
-1 -1;
#X obj 431 939 pack \$1 \$2;
#X obj 478 903 f;
#X obj 508 904 + 1;
#X obj 552 922 r T$;
#X floatatom 432 882 5 0 0 0 - - -;
#X obj 431 899 * -1;
#X obj 430 918 * 360;
#X obj 553 867 r BB;
#X obj 288 778 square;
#X obj 368 707 * 20;
#X obj 466 781 s XX;
#X obj 469 825 s YY;
#X connect 2 0 3 0;
#X connect 3 0 2 0;
#X connect 6 0 14 0;
#X connect 7 0 6 1;
#X connect 8 0 6 2;
#X connect 9 0 6 2;
#X connect 10 0 6 2;
#X connect 11 0 14 3;
#X connect 12 0 14 1;
#X connect 13 0 14 2;
#X connect 14 0 37 0;
#X connect 15 0 18 3;
#X connect 16 0 18 1;
#X connect 17 0 18 2;
#X connect 18 0 6 0;
#X connect 19 0 7 0;
#X connect 20 0 22 0;
#X connect 21 0 19 0;
#X connect 22 0 23 0;
#X connect 22 0 34 0;
#X connect 23 0 22 1;
#X connect 26 0 78 2;
#X connect 27 0 78 2;
#X connect 28 0 78 2;
#X connect 29 0 32 3;
#X connect 30 0 32 1;
#X connect 31 0 32 2;
#X connect 32 0 78 0;
#X connect 33 0 21 1;
#X connect 34 0 64 0;
#X connect 35 0 149 0;
#X connect 36 0 147 2;
#X connect 37 0 147 0;
#X connect 38 0 147 1;
#X connect 41 0 57 1;
#X connect 42 0 57 2;
#X connect 43 0 57 2;
#X connect 44 0 57 2;
#X connect 45 0 48 3;
#X connect 46 0 48 1;
#X connect 47 0 48 2;
#X connect 48 0 57 0;
#X connect 49 0 148 0;
#X connect 50 0 52 0;
#X connect 51 0 59 0;
#X connect 52 0 53 0;
#X connect 52 0 55 0;
#X connect 53 0 52 1;
#X connect 54 0 51 1;
#X connect 55 0 66 0;
#X connect 56 0 50 0;
#X connect 57 0 141 0;
#X connect 58 0 51 0;
#X connect 59 0 41 0;
#X connect 60 0 80 0;
#X connect 61 0 149 2;
#X connect 62 0 48 0;
#X connect 63 0 165 0;
#X connect 64 0 65 0;
#X connect 65 0 21 0;
#X connect 66 0 58 0;
#X connect 67 0 149 1;
#X connect 68 0 71 3;
#X connect 69 0 71 1;
#X connect 70 0 71 2;
#X connect 71 0 35 0;
#X connect 72 0 148 1;
#X connect 73 0 148 2;
#X connect 74 0 78 2;
#X connect 75 0 78 1;
#X connect 76 0 77 0;
#X connect 77 0 75 0;
#X connect 78 0 71 0;
#X connect 79 0 20 0;
#X connect 80 0 75 0;
#X connect 82 0 157 0;
#X connect 83 0 157 0;
#X connect 84 0 157 0;
#X connect 85 0 157 1;
#X connect 86 0 18 0;
#X connect 89 0 35 1;
#X connect 90 0 37 1;
#X connect 91 0 151 0;
#X connect 91 0 101 0;
#X connect 92 0 152 0;
#X connect 92 0 97 0;
#X connect 93 0 152 0;
#X connect 94 0 152 0;
#X connect 95 0 109 0;
#X connect 97 0 153 0;
#X connect 97 0 82 0;
#X connect 98 0 153 0;
#X connect 99 0 153 0;
#X connect 100 0 117 0;
#X connect 101 0 100 1;
#X connect 102 0 220 2;
#X connect 104 0 152 1;
#X connect 105 0 47 0;
#X connect 105 0 31 0;
#X connect 105 0 108 0;
#X connect 105 0 116 0;
#X connect 105 0 17 0;
#X connect 105 0 124 0;
#X connect 106 0 109 3;
#X connect 107 0 109 1;
#X connect 108 0 109 2;
#X connect 109 0 152 0;
#X connect 110 0 113 3;
#X connect 111 0 113 1;
#X connect 112 0 113 2;
#X connect 114 0 117 3;
#X connect 115 0 117 1;
#X connect 116 0 117 2;
#X connect 117 0 153 0;
#X connect 118 0 121 3;
#X connect 119 0 121 1;
#X connect 120 0 121 2;
#X connect 122 0 125 3;
#X connect 123 0 125 1;
#X connect 124 0 125 2;
#X connect 125 0 157 0;
#X connect 126 0 129 3;
#X connect 127 0 129 1;
#X connect 128 0 129 2;
#X connect 130 0 137 0;
#X connect 132 0 220 0;
#X connect 133 0 134 2;
#X connect 134 0 181 0;
#X connect 135 0 230 0;
#X connect 137 0 105 0;
#X connect 138 0 141 3;
#X connect 139 0 141 1;
#X connect 140 0 141 2;
#X connect 141 0 49 0;
#X connect 142 0 153 1;
#X connect 143 0 95 0;
#X connect 144 0 100 0;
#X connect 145 0 49 1;
#X connect 146 0 13 0;
#X connect 150 0 140 0;
#X connect 151 0 95 1;
#X connect 154 0 70 0;
#X connect 155 0 125 0;
#X connect 156 0 32 0;
#X connect 158 0 38 0;
#X connect 158 0 146 0;
#X connect 160 0 170 0;
#X connect 161 0 195 0;
#X connect 161 1 195 1;
#X connect 162 0 234 0;
#X connect 163 0 266 0;
#X connect 164 0 172 0;
#X connect 165 0 191 0;
#X connect 165 0 89 0;
#X connect 165 0 90 0;
#X connect 165 0 154 0;
#X connect 165 0 145 0;
#X connect 165 0 158 0;
#X connect 165 0 91 0;
#X connect 165 0 103 0;
#X connect 165 0 137 0;
#X connect 165 0 150 0;
#X connect 165 0 189 0;
#X connect 165 0 92 0;
#X connect 165 0 194 0;
#X connect 165 0 192 0;
#X connect 165 0 206 0;
#X connect 165 0 233 0;
#X connect 165 0 240 0;
#X connect 165 0 190 0;
#X connect 166 0 186 0;
#X connect 167 0 219 0;
#X connect 168 0 186 1;
#X connect 169 0 227 0;
#X connect 170 0 161 0;
#X connect 171 0 218 2;
#X connect 171 0 219 2;
#X connect 172 0 195 0;
#X connect 174 0 220 1;
#X connect 175 0 169 0;
#X connect 176 0 253 0;
#X connect 176 0 254 1;
#X connect 177 0 166 0;
#X connect 178 0 134 0;
#X connect 179 0 163 0;
#X connect 180 0 179 0;
#X connect 181 0 132 0;
#X connect 182 0 180 0;
#X connect 183 0 239 0;
#X connect 184 0 182 0;
#X connect 185 0 184 1;
#X connect 186 0 187 0;
#X connect 187 0 188 0;
#X connect 188 0 167 0;
#X connect 189 0 167 1;
#X connect 190 0 163 1;
#X connect 191 0 228 0;
#X connect 192 0 133 0;
#X connect 192 0 235 0;
#X connect 193 0 183 0;
#X connect 194 0 132 1;
#X connect 195 0 162 0;
#X connect 196 0 222 0;
#X connect 197 0 222 2;
#X connect 199 0 222 1;
#X connect 200 0 201 1;
#X connect 201 0 196 0;
#X connect 202 0 201 2;
#X connect 203 0 201 3;
#X connect 204 0 200 0;
#X connect 204 0 213 0;
#X connect 205 0 206 0;
#X connect 206 0 204 0;
#X connect 206 0 217 0;
#X connect 206 0 225 0;
#X connect 206 0 226 0;
#X connect 207 0 221 0;
#X connect 208 0 221 2;
#X connect 209 0 210 1;
#X connect 210 0 207 0;
#X connect 211 0 221 1;
#X connect 212 0 210 2;
#X connect 213 0 202 0;
#X connect 214 0 212 0;
#X connect 215 0 132 1;
#X connect 217 0 214 0;
#X connect 217 0 209 0;
#X connect 223 0 184 0;
#X connect 225 0 196 1;
#X connect 226 0 207 1;
#X connect 227 0 232 0;
#X connect 228 0 187 2;
#X connect 228 0 180 2;
#X connect 229 0 187 1;
#X connect 229 0 180 1;
#X connect 230 0 237 0;
#X connect 231 0 182 1;
#X connect 231 0 242 1;
#X connect 231 0 254 0;
#X connect 232 0 188 1;
#X connect 232 0 176 0;
#X connect 232 0 219 1;
#X connect 234 0 260 0;
#X connect 235 0 181 1;
#X connect 236 0 134 1;
#X connect 236 0 241 0;
#X connect 237 0 236 0;
#X connect 238 0 231 0;
#X connect 238 0 245 0;
#X connect 239 0 238 0;
#X connect 240 0 229 0;
#X connect 241 0 242 0;
#X connect 242 0 243 0;
#X connect 243 0 244 0;
#X connect 243 0 246 0;
#X connect 244 0 166 1;
#X connect 245 0 168 0;
#X connect 246 0 247 0;
#X connect 246 0 184 1;
#X connect 248 0 261 0;
#X connect 248 1 249 0;
#X connect 249 0 250 0;
#X connect 250 0 252 0;
#X connect 251 0 134 1;
#X connect 252 0 253 0;
#X connect 252 1 253 1;
#X connect 253 0 259 0;
#X connect 254 0 255 0;
#X connect 255 0 256 0;
#X connect 255 0 257 0;
#X connect 256 0 248 0;
#X connect 257 0 258 0;
#X connect 258 0 250 1;
#X connect 259 0 218 1;
#X connect 259 0 179 1;
#X connect 259 0 282 0;
#X connect 259 0 72 0;
#X connect 259 0 283 0;
#X connect 260 0 175 0;
#X connect 261 0 262 0;
#X connect 262 0 252 0;
#X connect 264 0 263 0;
#X connect 266 0 281 0;
#X connect 267 0 266 1;
#X connect 268 0 266 2;
#X connect 269 0 266 2;
#X connect 270 0 266 2;
#X connect 271 0 267 0;
#X connect 272 0 274 0;
#X connect 273 0 271 0;
#X connect 274 0 275 0;
#X connect 274 0 277 0;
#X connect 275 0 274 1;
#X connect 276 0 273 1;
#X connect 277 0 278 0;
#X connect 278 0 279 0;
#X connect 279 0 273 0;
#X connect 280 0 272 0;
#X connect 282 0 281 1;
