#N canvas 896 0 986 1028 10;
#X obj 226 64 cnv 15 170 340 empty empty empty 20 12 0 14 -228992 -66577
0;
#X obj 423 578 cnv 15 100 60 empty empty empty 20 12 0 14 -195568 -66577
0;
#N canvas 0 22 450 300 gemwin 0;
#X obj 132 136 gemwin;
#X obj 67 89 outlet;
#X obj 67 10 inlet;
#X obj 67 41 route create;
#X msg 67 70 set destroy;
#X msg 142 68 set create;
#X msg 132 112 create \, 1;
#X msg 198 112 destroy;
#X connect 2 0 3 0;
#X connect 3 0 4 0;
#X connect 3 0 6 0;
#X connect 3 1 5 0;
#X connect 3 1 7 0;
#X connect 4 0 1 0;
#X connect 5 0 1 0;
#X connect 6 0 0 0;
#X connect 7 0 0 0;
#X restore 429 617 pd gemwin;
#X msg 429 598 destroy;
#X text 425 577 Create window:;
#X obj 228 215 cnv 15 160 60 empty empty empty 20 12 0 14 -24198 -66577
0;
#X obj 229 243 rotate 45 0 0 1;
#X floatatom 289 219 5 0 0 0 - - -, f 5;
#X msg 342 235 1 0 0;
#X msg 342 256 0 1 1;
#X msg 342 214 0 0 0;
#X floatatom 330 283 5 0 0 0 - - -, f 5;
#X floatatom 238 283 5 0 0 0 - - -, f 5;
#X floatatom 288 283 5 0 0 0 - - -, f 5;
#X obj 227 304 translateXYZ;
#X floatatom 316 88 5 0 0 0 - - -, f 5;
#X floatatom 237 87 5 0 0 0 - - -, f 5;
#X floatatom 276 87 5 0 0 0 - - -, f 5;
#X obj 231 108 translateXYZ;
#X obj 250 216 line;
#X obj 295 140 bng 15 250 50 0 empty empty empty 17 7 0 10 -262144
-1 -1;
#X obj 248 194 pack \$1 \$2;
#X obj 295 158 f;
#X obj 325 159 + 1;
#X obj 634 64 cnv 15 170 340 empty empty empty 20 12 0 14 -228992 -66577
0;
#X obj 635 210 cnv 15 160 60 empty empty empty 20 12 0 14 -24198 -66577
0;
#X msg 749 230 1 0 0;
#X msg 749 251 0 1 1;
#X msg 749 209 0 0 0;
#X floatatom 760 91 5 0 0 0 - - -, f 5;
#X floatatom 658 91 5 0 0 0 - - -, f 5;
#X floatatom 708 91 5 0 0 0 - - -, f 5;
#X obj 638 113 translateXYZ;
#X obj 369 177 r T$;
#X floatatom 249 137 5 0 0 0 - - -, f 5;
#X obj 639 322 color;
#X floatatom 342 353 5 0 0 0 - - -, f 5;
#X obj 235 327 color;
#X floatatom 302 354 5 0 0 0 - - -, f 5;
#X obj 435 64 cnv 15 170 340 empty empty empty 20 12 0 14 -228992 -66577
0;
#X obj 436 235 cnv 15 160 60 empty empty empty 20 12 0 14 -24198 -66577
0;
#X floatatom 454 244 5 0 0 0 - - -, f 5;
#X msg 550 255 1 0 0;
#X msg 550 276 0 1 1;
#X msg 550 234 0 0 0;
#X floatatom 552 89 5 0 0 0 - - -, f 5;
#X floatatom 459 91 5 0 0 0 - - -, f 5;
#X floatatom 509 91 5 0 0 0 - - -, f 5;
#X obj 439 113 translateXYZ;
#X obj 459 352 color;
#X obj 502 138 bng 15 250 50 0 empty empty empty 17 7 0 10 -262144
-1 -1;
#X obj 456 199 pack \$1 \$2;
#X obj 500 156 f;
#X obj 529 158 + 1;
#X obj 568 189 r T$;
#X floatatom 454 136 5 0 0 0 - - -, f 5;
#X obj 560 130 r ITA;
#X obj 437 263 rotate 45 0 0 1;
#X obj 454 178 * 360;
#X obj 455 221 line;
#X obj 744 115 r STPA;
#X floatatom 739 346 5 0 0 0 - - -, f 5;
#X obj 442 67 gemhead 6;
#X obj 724 487 r lo;
#X obj 248 154 * -1;
#X obj 247 173 * 360;
#X obj 454 157 * -1;
#X floatatom 699 346 5 0 0 0 - - -, f 5;
#X floatatom 769 275 5 0 0 0 - - -, f 5;
#X floatatom 667 275 5 0 0 0 - - -, f 5;
#X floatatom 723 275 5 0 0 0 - - -, f 5;
#X obj 638 297 translateXYZ;
#X floatatom 519 379 5 0 0 0 - - -, f 5;
#X floatatom 560 378 5 0 0 0 - - -, f 5;
#X msg 749 190 0 0 1;
#X floatatom 693 219 5 0 0 0 - - -, f 5;
#X obj 697 174 pack \$1 \$2;
#X obj 694 196 line;
#X obj 636 238 rotate 45 0 0 1;
#X obj 370 122 r BB;
#X obj 721 146 * -22.5;
#X obj 1440 434 cnv 15 170 340 empty empty empty 20 12 0 14 -228992
-66577 0;
#X msg 1511 575 draw line;
#X msg 1511 596 draw fill;
#X msg 1511 618 draw point;
#X floatatom 1562 700 5 0 0 2 size - -, f 5;
#X obj 232 63 gemhead 4;
#X obj 1238 64 cnv 15 170 340 empty empty empty 20 12 0 14 -228992
-66577 0;
#X obj 1040 64 cnv 15 170 340 empty empty empty 20 12 0 14 -228992
-66577 0;
#X msg 688 321 1 0 0;
#X msg 282 327 0 1 0;
#X msg 1019 325 -2;
#X msg 1272 114 draw line;
#X msg 1273 143 draw fill;
#X msg 1271 169 draw point;
#X obj 1275 279 color;
#X obj 1438 64 cnv 15 170 340 empty empty empty 20 12 0 14 -228992
-66577 0;
#X msg 1451 128 draw line;
#X msg 1452 157 draw fill;
#X msg 1448 181 draw point;
#X obj 1471 292 color;
#X msg 1509 260 1 1 1;
#X floatatom 1178 331 5 0 0 0 - - -, f 5;
#X msg 1019 285 -4;
#X floatatom 1361 368 5 0 0 0 - - -, f 5;
#X floatatom 574 -33 5 0 0 0 - - -, f 5;
#X floatatom 1359 307 5 0 0 0 - - -, f 5;
#X floatatom 1273 308 5 0 0 0 - - -, f 5;
#X floatatom 1318 307 5 0 0 0 - - -, f 5;
#X obj 1275 336 translateXYZ;
#X floatatom 1359 307 5 0 0 0 - - -, f 5;
#X floatatom 1273 308 5 0 0 0 - - -, f 5;
#X floatatom 1318 307 5 0 0 0 - - -, f 5;
#X obj 1275 336 translateXYZ;
#X floatatom 1571 314 5 0 0 0 - - -, f 5;
#X floatatom 1485 315 5 0 0 0 - - -, f 5;
#X floatatom 1530 314 5 0 0 0 - - -, f 5;
#X obj 1467 343 translateXYZ;
#X floatatom 1571 314 5 0 0 0 - - -, f 5;
#X floatatom 1485 315 5 0 0 0 - - -, f 5;
#X floatatom 1530 314 5 0 0 0 - - -, f 5;
#X obj 1467 343 translateXYZ;
#X floatatom 1563 650 5 0 0 0 - - -, f 5;
#X floatatom 1477 651 5 0 0 0 - - -, f 5;
#X floatatom 1522 650 5 0 0 0 - - -, f 5;
#X obj 1459 679 translateXYZ;
#X floatatom 1563 650 5 0 0 0 - - -, f 5;
#X floatatom 1477 651 5 0 0 0 - - -, f 5;
#X floatatom 1522 650 5 0 0 0 - - -, f 5;
#X obj 1459 679 translateXYZ;
#X obj 661 -71 r lo;
#X obj 1046 210 cnv 15 160 60 empty empty empty 20 12 0 14 -24198 -66577
0;
#X obj 1066 306 color;
#X floatatom 1133 168 5 0 0 0 - - -, f 5;
#X obj 1066 232 translateXYZ;
#X floatatom 1077 153 5 0 0 0 - - -, f 5;
#X obj 1138 43 r posvisu;
#X obj 835 450 cnv 15 400 340 empty empty empty 20 12 0 14 -228992
-66577 0;
#X msg 584 -79 0.6;
#X floatatom 570 306 5 0 0 0 - - -, f 5;
#X floatatom 468 306 5 0 0 0 - - -, f 5;
#X floatatom 524 306 5 0 0 0 - - -, f 5;
#X obj 439 328 translateXYZ;
#X floatatom 1571 334 5 0 0 0 - - -, f 5;
#X obj 1295 75 gemhead 3;
#X obj 1491 85 gemhead 3;
#X msg 509 350 0 1 1;
#X msg 374 282 1.4;
#X obj 235 375 rectangle 0.4 0.12;
#X obj 462 405 rectangle 0.4 0.12;
#X obj 640 369 rectangle 0.4 0.12;
#X msg 559 331 1.8;
#X msg 1300 245 1 1 1;
#X obj 1263 359 circle 1.44;
#X obj 1447 364 circle 1.82;
#X msg 758 300 2.2;
#X obj 1472 438 gemhead 3;
#X obj 638 66 gemhead 4;
#X obj 1472 742 circle 2.2;
#X floatatom 1139 105 5 0 0 0 - - -, f 5;
#X msg 374 322 0.4;
#X obj 842 569 cnv 15 380 95 empty empty empty 20 12 0 14 -24198 -66577
0;
#X obj 642 794 r looplenghtA;
#X obj 660 846 t b f;
#X floatatom 660 905 9 0 0 0 - - -, f 9;
#X obj 1084 730 color;
#X obj 705 859 r T$;
#X obj 701 510 bng 15 250 50 0 empty empty empty 17 7 0 10 -262144
-1 -1;
#X obj 849 530 spigot-toggle_red;
#X obj 861 495 > 1;
#X obj 852 729 color;
#X floatatom 927 550 5 0 0 0 - - -, f 5;
#X floatatom 956 703 5 0 0 0 - - -, f 5;
#X floatatom 646 814 7 0 0 0 - - -, f 7;
#X floatatom 1180 730 7 0 0 0 - - -, f 7;
#X floatatom 699 884 5 0 0 0 - - -, f 5;
#X obj 919 -68 r add;
#X floatatom 1118 331 5 0 0 0 - - -, f 5;
#X floatatom 691 751 7 0 0 0 - - -, f 7;
#X floatatom 1166 688 5 0 0 0 - - -, f 5;
#X obj 851 459 gemhead 20;
#X obj 1065 71 gemhead 21;
#X obj 1129 651 translateXYZ;
#X obj 1129 621 translateXYZ;
#X obj 1066 262 translateXYZ;
#X msg 1019 235 -5;
#X obj 1129 569 translateXYZ;
#X obj 892 495 + 0;
#X obj 1160 494 * 10;
#X obj 1101 121 * 10;
#X floatatom 952 420 5 0 0 0 - - -, f 5;
#X floatatom 995 441 5 0 0 0 - - -, f 5;
#X obj 1121 501 spigot-toggle_red;
#X obj 1095 448 < 1;
#X msg 749 599 -5;
#X obj 904 588 translateXYZ;
#X obj 900 624 translateXYZ;
#X obj 900 654 translateXYZ;
#X msg 897 729 1 1 1;
#X msg 1129 730 1 1 1;
#X msg 689 599 -2.5;
#X msg 1019 195 -2.5;
#X obj 1043 455 r Amod;
#X msg 1109 307 0 0 0;
#X obj 957 724 + 0;
#X obj 1165 709 + 0;
#X obj 662 871 /;
#X obj 659 938 * 10;
#X obj 928 520 - 10;
#X obj 1268 690 color;
#X floatatom 1360 730 7 0 0 0 - - -, f 7;
#X obj 1290 457 gemhead 21;
#X floatatom 1297 727 7 0 0 0 - - -, f 7;
#X floatatom 1321 534 5 0 0 0 - - -, f 5;
#X obj 1309 561 translateXYZ;
#X floatatom 1360 530 7 0 0 0 - - -, f 7;
#X floatatom 1413 528 7 0 0 0 - - -, f 7;
#X msg 1312 504 -7;
#X obj 1262 567 r lo;
#X obj 1239 590 bng 15 250 50 0 empty empty empty 17 7 0 10 -262144
-1 -1;
#X obj 1268 905 color;
#X floatatom 1360 945 7 0 0 0 - - -, f 7;
#X floatatom 1322 822 5 0 0 0 - - -, f 5;
#X obj 1309 866 translateXYZ;
#X floatatom 1297 942 7 0 0 0 - - -, f 7;
#X floatatom 1360 827 7 0 0 0 - - -, f 7;
#X msg 1372 504 -2.5;
#X msg 1381 793 -2.5;
#X msg 1138 289 0 0 1;
#X obj 1177 857 gemhead 22;
#X msg 1321 793 7;
#X obj 1086 762 rectangle 0.01 0.1;
#X obj 849 762 rectangle 0.01 0.1;
#X obj 1054 366 rectangle 0.02 0.1;
#X obj 1266 977 rectangle 2 0.1;
#X obj 1266 762 rectangle 2 0.1;
#X obj 1130 457 gemhead 19;
#X obj 955 10 r trgrA;
#X obj 849 330 spigot-toggle_red;
#X msg 1313 905 0 0 1;
#X msg 1313 690 0 0 1;
#X connect 2 0 3 0;
#X connect 3 0 2 0;
#X connect 6 0 14 0;
#X connect 7 0 6 1;
#X connect 8 0 6 2;
#X connect 9 0 6 2;
#X connect 10 0 6 2;
#X connect 11 0 14 3;
#X connect 12 0 14 1;
#X connect 13 0 14 2;
#X connect 14 0 37 0;
#X connect 15 0 18 3;
#X connect 16 0 18 1;
#X connect 17 0 18 2;
#X connect 18 0 6 0;
#X connect 19 0 7 0;
#X connect 20 0 22 0;
#X connect 21 0 19 0;
#X connect 22 0 23 0;
#X connect 22 0 34 0;
#X connect 23 0 22 1;
#X connect 26 0 78 2;
#X connect 27 0 78 2;
#X connect 28 0 78 2;
#X connect 29 0 32 3;
#X connect 30 0 32 1;
#X connect 31 0 32 2;
#X connect 32 0 78 0;
#X connect 33 0 21 1;
#X connect 34 0 64 0;
#X connect 35 0 150 0;
#X connect 36 0 148 2;
#X connect 37 0 148 0;
#X connect 38 0 148 1;
#X connect 41 0 57 1;
#X connect 42 0 57 2;
#X connect 43 0 57 2;
#X connect 44 0 57 2;
#X connect 45 0 48 3;
#X connect 46 0 48 1;
#X connect 47 0 48 2;
#X connect 48 0 57 0;
#X connect 49 0 149 0;
#X connect 50 0 52 0;
#X connect 51 0 59 0;
#X connect 52 0 53 0;
#X connect 52 0 55 0;
#X connect 53 0 52 1;
#X connect 54 0 51 1;
#X connect 55 0 66 0;
#X connect 56 0 50 0;
#X connect 57 0 142 0;
#X connect 58 0 51 0;
#X connect 59 0 41 0;
#X connect 60 0 80 0;
#X connect 61 0 150 2;
#X connect 62 0 48 0;
#X connect 63 0 167 0;
#X connect 64 0 65 0;
#X connect 65 0 21 0;
#X connect 66 0 58 0;
#X connect 67 0 150 1;
#X connect 68 0 71 3;
#X connect 69 0 71 1;
#X connect 70 0 71 2;
#X connect 71 0 35 0;
#X connect 72 0 149 1;
#X connect 73 0 149 2;
#X connect 74 0 78 2;
#X connect 75 0 78 1;
#X connect 76 0 77 0;
#X connect 77 0 75 0;
#X connect 78 0 71 0;
#X connect 79 0 20 0;
#X connect 80 0 75 0;
#X connect 82 0 158 0;
#X connect 83 0 158 0;
#X connect 84 0 158 0;
#X connect 85 0 158 1;
#X connect 86 0 18 0;
#X connect 89 0 35 1;
#X connect 90 0 37 1;
#X connect 91 0 152 0;
#X connect 91 0 101 0;
#X connect 92 0 153 0;
#X connect 92 0 97 0;
#X connect 93 0 153 0;
#X connect 94 0 153 0;
#X connect 95 0 109 0;
#X connect 97 0 154 0;
#X connect 97 0 82 0;
#X connect 98 0 154 0;
#X connect 99 0 154 0;
#X connect 100 0 117 0;
#X connect 101 0 100 1;
#X connect 102 0 233 2;
#X connect 104 0 153 1;
#X connect 105 0 47 0;
#X connect 105 0 31 0;
#X connect 105 0 108 0;
#X connect 105 0 116 0;
#X connect 105 0 17 0;
#X connect 105 0 124 0;
#X connect 106 0 109 3;
#X connect 107 0 109 1;
#X connect 108 0 109 2;
#X connect 109 0 153 0;
#X connect 110 0 113 3;
#X connect 111 0 113 1;
#X connect 112 0 113 2;
#X connect 114 0 117 3;
#X connect 115 0 117 1;
#X connect 116 0 117 2;
#X connect 117 0 154 0;
#X connect 118 0 121 3;
#X connect 119 0 121 1;
#X connect 120 0 121 2;
#X connect 122 0 125 3;
#X connect 123 0 125 1;
#X connect 124 0 125 2;
#X connect 125 0 158 0;
#X connect 126 0 129 3;
#X connect 127 0 129 1;
#X connect 128 0 129 2;
#X connect 130 0 138 0;
#X connect 132 0 233 0;
#X connect 133 0 134 2;
#X connect 134 0 184 0;
#X connect 135 0 134 1;
#X connect 136 0 159 0;
#X connect 138 0 105 0;
#X connect 139 0 142 3;
#X connect 140 0 142 1;
#X connect 141 0 142 2;
#X connect 142 0 49 0;
#X connect 143 0 154 1;
#X connect 144 0 95 0;
#X connect 145 0 100 0;
#X connect 146 0 49 1;
#X connect 147 0 13 0;
#X connect 151 0 141 0;
#X connect 152 0 95 1;
#X connect 155 0 70 0;
#X connect 156 0 125 0;
#X connect 157 0 32 0;
#X connect 159 0 189 0;
#X connect 160 0 38 0;
#X connect 160 0 147 0;
#X connect 162 0 173 0;
#X connect 163 0 206 0;
#X connect 163 1 206 1;
#X connect 164 0 207 0;
#X connect 165 0 231 0;
#X connect 166 0 175 0;
#X connect 167 0 200 0;
#X connect 167 0 89 0;
#X connect 167 0 90 0;
#X connect 167 0 155 0;
#X connect 167 0 146 0;
#X connect 167 0 160 0;
#X connect 167 0 91 0;
#X connect 167 0 103 0;
#X connect 167 0 138 0;
#X connect 167 0 151 0;
#X connect 167 0 198 0;
#X connect 167 0 199 0;
#X connect 167 0 92 0;
#X connect 167 0 203 0;
#X connect 167 0 194 0;
#X connect 167 0 201 0;
#X connect 167 0 219 0;
#X connect 168 0 195 0;
#X connect 169 0 168 1;
#X connect 170 0 232 0;
#X connect 171 0 195 1;
#X connect 172 0 204 0;
#X connect 172 0 197 1;
#X connect 172 0 179 0;
#X connect 173 0 163 0;
#X connect 174 0 231 2;
#X connect 175 0 206 0;
#X connect 177 0 233 1;
#X connect 178 0 187 1;
#X connect 178 0 172 0;
#X connect 179 0 182 1;
#X connect 179 0 205 0;
#X connect 180 0 168 0;
#X connect 181 0 134 0;
#X connect 182 0 165 0;
#X connect 183 0 182 0;
#X connect 184 0 132 0;
#X connect 185 0 184 1;
#X connect 186 0 183 0;
#X connect 187 0 169 0;
#X connect 187 0 190 0;
#X connect 188 0 186 1;
#X connect 188 0 208 0;
#X connect 189 0 135 0;
#X connect 192 0 186 0;
#X connect 193 0 192 1;
#X connect 194 0 183 1;
#X connect 194 0 196 1;
#X connect 195 0 196 0;
#X connect 196 0 197 0;
#X connect 197 0 170 0;
#X connect 198 0 170 1;
#X connect 199 0 165 1;
#X connect 200 0 183 2;
#X connect 200 0 196 2;
#X connect 201 0 133 0;
#X connect 201 0 185 0;
#X connect 202 0 187 0;
#X connect 202 0 188 0;
#X connect 202 0 191 0;
#X connect 202 0 193 0;
#X connect 203 0 132 1;
#X connect 204 0 232 1;
#X connect 205 0 231 1;
#X connect 206 0 164 0;
#X connect 207 0 178 0;
#X connect 208 0 171 0;
#X connect 209 0 235 0;
#X connect 210 0 235 2;
#X connect 211 0 214 0;
#X connect 212 0 235 1;
#X connect 213 0 214 1;
#X connect 214 0 209 0;
#X connect 215 0 214 2;
#X connect 216 0 214 3;
#X connect 217 0 213 0;
#X connect 217 0 226 0;
#X connect 218 0 219 0;
#X connect 219 0 217 0;
#X connect 219 0 230 0;
#X connect 219 0 239 0;
#X connect 219 0 240 0;
#X connect 220 0 234 0;
#X connect 221 0 234 2;
#X connect 222 0 223 1;
#X connect 223 0 220 0;
#X connect 224 0 234 1;
#X connect 225 0 223 2;
#X connect 226 0 215 0;
#X connect 227 0 225 0;
#X connect 228 0 132 1;
#X connect 229 0 223 0;
#X connect 230 0 227 0;
#X connect 230 0 222 0;
#X connect 236 0 192 0;
#X connect 237 0 238 1;
#X connect 237 0 168 1;
#X connect 237 0 192 1;
#X connect 239 0 220 1;
#X connect 240 0 209 1;
