#N canvas 128 243 1247 778 10;
#X obj -928 -91 translateXYZ;
#X floatatom -864 -342 5 0 0 0 - - -;
#X obj -863 -371 inlet;
#X obj -882 -294 * 1;
#X floatatom -882 -263 5 0 0 0 - - -;
#X obj -880 -317 * 1;
#X obj -888 -232 int;
#X obj -792 -375 inlet;
#X floatatom -868 266 3 0 1 0 - - -;
#X obj -918 293 colorRGB 0 0 0;
#X floatatom -780 281 3 0 1 0 - - -;
#X floatatom -784 252 3 0 1 0 - - -;
#X floatatom -801 238 3 0 1 0 - - -;
#X floatatom -818 220 3 0 1 0 - - -;
#X obj -766 224 r lo;
#X floatatom -677 -101 5 0 0 0 - - -;
#X floatatom -713 -101 5 0 0 0 - - -;
#X floatatom -750 -104 5 0 0 0 - - -;
#X obj -765 168 inlet;
#X obj -755 178 inlet;
#X obj -745 188 inlet;
#X obj -732 -154 inlet;
#X obj -722 -144 inlet;
#X obj -712 -134 inlet;
#X obj -641 189 inlet;
#X obj -918 355 outlet;
#X floatatom -874 -6 0 0 1 0 - - -;
#X obj -925 -33 alpha;
#X floatatom -874 -51 0 0 1 0 - - -;
#X obj -958 -290 spigot-toggle_red;
#X obj -935 -367 inlet;
#X obj -642 215 * 1;
#X obj -918 315 pix_motionblur;
#X obj -809 315 * 0.99;
#X floatatom -761 315 5 0 0 0 - - -;
#X obj -918 335 pix_texture;
#X obj -714 314 r $A-motionBlur1;
#X obj -983 -330 gemhead 1;
#X obj -1062 -276 r movieB;
#X obj -762 -234 unpack f f f;
#X floatatom -771 -209 5 0 0 0 - - -;
#X floatatom -852 -234 5 0 0 0 - - -;
#X obj -853 -211 int;
#X floatatom -926 -203 5 0 0 0 - - -;
#X floatatom -864 -185 5 0 0 0 - - -;
#X obj -939 -150 pix_movie;
#X obj -842 104 pix_invert;
#X obj -743 53 loadbang;
#X msg -743 84 1;
#X msg -713 84 0;
#X obj -870 68 r colorInv1;
#X connect 0 0 27 0;
#X connect 1 0 5 0;
#X connect 2 0 1 0;
#X connect 3 0 4 0;
#X connect 4 0 6 0;
#X connect 5 0 3 0;
#X connect 6 0 43 0;
#X connect 7 0 3 1;
#X connect 8 0 9 3;
#X connect 8 0 9 2;
#X connect 8 0 9 1;
#X connect 9 0 32 0;
#X connect 10 0 9 4;
#X connect 11 0 9 3;
#X connect 12 0 9 2;
#X connect 13 0 9 1;
#X connect 14 0 11 0;
#X connect 14 0 12 0;
#X connect 14 0 13 0;
#X connect 15 0 0 3;
#X connect 16 0 0 2;
#X connect 17 0 0 1;
#X connect 18 0 13 0;
#X connect 19 0 12 0;
#X connect 20 0 11 0;
#X connect 21 0 17 0;
#X connect 22 0 16 0;
#X connect 23 0 15 0;
#X connect 24 0 31 0;
#X connect 27 0 46 0;
#X connect 28 0 27 1;
#X connect 29 0 45 0;
#X connect 30 0 29 1;
#X connect 31 0 10 0;
#X connect 31 0 11 0;
#X connect 31 0 12 0;
#X connect 31 0 13 0;
#X connect 32 0 35 0;
#X connect 33 0 32 1;
#X connect 34 0 33 0;
#X connect 35 0 25 0;
#X connect 36 0 34 0;
#X connect 37 0 29 0;
#X connect 38 0 45 0;
#X connect 39 0 40 0;
#X connect 40 0 3 1;
#X connect 41 0 42 0;
#X connect 42 0 44 0;
#X connect 43 0 45 1;
#X connect 45 0 0 0;
#X connect 45 1 39 0;
#X connect 46 0 9 0;
#X connect 47 0 49 0;
#X connect 48 0 46 0;
#X connect 49 0 46 0;
#X connect 50 0 46 0;
