#N canvas 97 208 1247 517 10;
#X obj -928 49 translateXYZ;
#X obj -883 -119 pix_separator;
#X obj -886 -162 pix_separator;
#X obj -883 -140 pix_texture;
#X floatatom -851 -321 5 0 0 0 - - -;
#X obj -881 -363 inlet;
#X obj -847 -274 * 1;
#X floatatom -845 -247 5 0 0 0 - - -;
#X obj -848 -298 * 1;
#X floatatom -639 259 3 0 1 0 - - -;
#X obj -689 286 colorRGB 0 0 0;
#X floatatom -551 274 3 0 1 0 - - -;
#X floatatom -555 245 3 0 1 0 - - -;
#X floatatom -572 231 3 0 1 0 - - -;
#X floatatom -589 213 3 0 1 0 - - -;
#X obj -537 217 r lo;
#X floatatom -779 -18 5 0 0 0 - - -;
#X floatatom -815 -18 5 0 0 0 - - -;
#X floatatom -852 -21 5 0 0 0 - - -;
#X obj -536 161 inlet;
#X obj -526 171 inlet;
#X obj -516 181 inlet;
#X obj -801 -85 inlet;
#X obj -791 -75 inlet;
#X obj -781 -65 inlet;
#X obj -496 244 inlet;
#X obj -691 562 outlet;
#X obj -384 -151 outlet;
#X obj -314 -165 outlet;
#X obj -471 -238 unpack f f f;
#X obj -493 -157 outlet;
#X obj -935 -367 inlet;
#X obj -497 270 * 1;
#X obj -693 384 pix_invert;
#X obj -691 512 pix_motionblur;
#X obj -597 512 * 0.99;
#X obj -594 333 loadbang;
#X floatatom -549 512 5 0 0 0 - - -;
#X msg -594 364 1;
#X msg -564 364 0;
#X obj -690 537 pix_texture;
#X obj -513 512 r $A-motionBlur;
#X obj -690 256 spigot-toggle_red;
#X obj -927 -82 alpha;
#X obj -948 -330 gemhead 1;
#X obj -1031 -241 r movieA;
#X floatatom -449 -200 5 0 0 0 - - -;
#X floatatom -782 -176 5 0 0 0 - - -;
#X floatatom -365 -201 5 0 0 0 - - -;
#X floatatom -412 -203 5 0 0 0 - - -;
#X obj -721 348 r colorInv;
#X obj -890 -199 pix_film;
#X connect 0 0 42 0;
#X connect 1 0 43 0;
#X connect 2 0 3 0;
#X connect 3 0 1 0;
#X connect 4 0 8 0;
#X connect 5 0 4 0;
#X connect 6 0 7 0;
#X connect 7 0 51 1;
#X connect 8 0 6 0;
#X connect 9 0 10 3;
#X connect 9 0 10 2;
#X connect 9 0 10 1;
#X connect 10 0 33 0;
#X connect 11 0 10 4;
#X connect 12 0 10 3;
#X connect 13 0 10 2;
#X connect 14 0 10 1;
#X connect 15 0 12 0;
#X connect 15 0 13 0;
#X connect 15 0 14 0;
#X connect 16 0 0 3;
#X connect 17 0 0 2;
#X connect 18 0 0 1;
#X connect 19 0 14 0;
#X connect 20 0 13 0;
#X connect 21 0 12 0;
#X connect 22 0 18 0;
#X connect 23 0 17 0;
#X connect 24 0 16 0;
#X connect 25 0 32 0;
#X connect 29 0 30 0;
#X connect 29 0 6 1;
#X connect 29 0 46 0;
#X connect 29 1 27 0;
#X connect 29 1 49 0;
#X connect 29 2 28 0;
#X connect 29 2 48 0;
#X connect 31 0 42 1;
#X connect 32 0 11 0;
#X connect 33 0 34 0;
#X connect 34 0 40 0;
#X connect 35 0 34 1;
#X connect 36 0 39 0;
#X connect 37 0 35 0;
#X connect 38 0 33 0;
#X connect 39 0 33 0;
#X connect 40 0 26 0;
#X connect 41 0 37 0;
#X connect 42 0 10 0;
#X connect 43 0 0 0;
#X connect 44 0 51 0;
#X connect 45 0 51 0;
#X connect 50 0 33 0;
#X connect 51 0 2 0;
#X connect 51 1 29 0;
#X connect 51 2 47 0;
