#N struct 1033-rectangle float x float c;
#N struct 1033-pixel float x0 float y0 float x1 float y1;
#N canvas 828 735 1145 1017 10;
#X floatatom 701 441 5 0 0 0 y - -;
#X floatatom 654 439 5 0 0 0 x - -;
#X obj 287 27 bng 15 250 50 0 empty empty clear 17 7 0 10 -262144 -1
-1;
#X obj 664 -55 nbx 5 14 -1e+37 1e+37 0 1 empty empty color 0 -8 0 10
-262144 -1 -1 446 256;
#X obj 262 62 xy-paint 400 400 0;
#X obj 1065 537 spigot-toggle_violet;
#X floatatom 98 726 5 0 0 0 X - -;
#X obj 1101 521 bng 15 250 50 0 empty empty empty 17 7 0 10 -262144
-1 -1;
#X obj 99 679 * 1, f 4;
#X obj 1074 1100 spigot-toggle_violet;
#X floatatom 171 729 5 0 0 0 X - -;
#X obj 1098 1060 bng 15 250 50 0 empty empty empty 17 7 0 10 -262144
-1 -1;
#X obj 951 1051 cyclone/seq seq1.mid;
#X floatatom 215 689 4 0 0 0 ramp - -;
#X obj 286 758 pipe;
#X obj 318 757 f;
#X obj 285 738 t f b b;
#X floatatom 286 777 10 0 0 0 - - -;
#X floatatom 533 744 10 0 0 0 delay - -;
#X obj 415 756 pipe;
#X obj 448 757 f;
#X obj 414 736 t f b b;
#X floatatom 415 775 10 0 0 0 - - -;
#X floatatom 534 710 10 0 0 0 DELAY - -;
#X obj 153 779 hsl 128 15 0 500 0 0 empty empty empty -2 -8 0 10 -262144
-1 -1 0 1;
#X obj 485 775 hsl 128 15 0 500 0 0 empty empty empty -2 -8 0 10 -262144
-1 -1 0 1;
#X obj 287 818 pipe;
#X obj 319 817 f;
#X obj 286 798 t f b b;
#X floatatom 287 837 10 0 0 0 - - -;
#X floatatom 534 804 10 0 0 0 delay - -;
#X obj 416 816 pipe;
#X obj 449 817 f;
#X obj 415 796 t f b b;
#X floatatom 416 835 10 0 0 0 - - -;
#X obj 154 839 hsl 128 15 0 500 0 0 empty empty empty -2 -8 0 10 -262144
-1 -1 0 1;
#X obj 486 835 hsl 128 15 0 500 0 0 empty empty empty -2 -8 0 10 -262144
-1 -1 0 1;
#X obj 287 879 pipe;
#X obj 319 878 f;
#X obj 286 859 t f b b;
#X floatatom 287 898 10 0 0 0 - - -;
#X floatatom 534 865 10 0 0 0 delay - -;
#X obj 416 877 pipe;
#X obj 449 878 f;
#X obj 415 857 t f b b;
#X floatatom 416 896 10 0 0 0 - - -;
#X obj 154 900 hsl 128 15 0 500 0 0 empty empty empty -2 -8 0 10 -262144
-1 -1 0 1;
#X obj 486 896 hsl 128 15 0 500 0 0 empty empty empty -2 -8 0 10 -262144
-1 -1 0 1;
#X obj 288 939 pipe;
#X obj 320 938 f;
#X obj 287 919 t f b b;
#X floatatom 288 958 10 0 0 0 - - -;
#X floatatom 535 925 10 0 0 0 delay - -;
#X obj 417 937 pipe;
#X obj 450 938 f;
#X obj 416 917 t f b b;
#X floatatom 417 956 10 0 0 0 - - -;
#X obj 155 960 hsl 128 15 0 500 0 0 empty empty empty -2 -8 0 10 -262144
-1 -1 0 1;
#X obj 487 956 hsl 128 15 0 500 0 0 empty empty empty -2 -8 0 10 -262144
-1 -1 0 1;
#X obj 291 999 pipe;
#X obj 323 998 f;
#X obj 290 979 t f b b;
#X floatatom 291 1018 10 0 0 0 - - -;
#X floatatom 538 985 10 0 0 0 delay - -;
#X obj 420 997 pipe;
#X obj 453 998 f;
#X obj 419 977 t f b b;
#X floatatom 420 1016 10 0 0 0 - - -;
#X obj 158 1020 hsl 128 15 0 500 0 0 empty empty empty -2 -8 0 10 -262144
-1 -1 0 1;
#X obj 490 1016 hsl 128 15 0 500 0 0 empty empty empty -2 -8 0 10 -262144
-1 -1 0 1;
#X obj 292 1059 pipe;
#X obj 324 1058 f;
#X obj 291 1039 t f b b;
#X floatatom 292 1078 10 0 0 0 - - -;
#X floatatom 539 1045 10 0 0 0 delay - -;
#X obj 421 1057 pipe;
#X obj 454 1058 f;
#X obj 420 1037 t f b b;
#X floatatom 421 1076 10 0 0 0 - - -;
#X obj 159 1080 hsl 128 15 0 500 0 0 empty empty empty -2 -8 0 10 -262144
-1 -1 0 1;
#X obj 491 1076 hsl 128 15 0 500 0 0 empty empty empty -2 -8 0 10 -262144
-1 -1 0 1;
#X obj 292 1120 pipe;
#X obj 324 1119 f;
#X obj 291 1100 t f b b;
#X floatatom 292 1139 10 0 0 0 - - -;
#X floatatom 539 1106 10 0 0 0 delay - -;
#X obj 421 1118 pipe;
#X obj 454 1119 f;
#X obj 420 1098 t f b b;
#X floatatom 421 1137 10 0 0 0 - - -;
#X obj 159 1141 hsl 128 15 0 500 0 0 empty empty empty -2 -8 0 10 -262144
-1 -1 0 1;
#X obj 491 1137 hsl 128 15 0 500 0 0 empty empty empty -2 -8 0 10 -262144
-1 -1 0 1;
#X obj 293 1180 pipe;
#X obj 325 1179 f;
#X obj 292 1160 t f b b;
#X floatatom 293 1199 10 0 0 0 - - -;
#X floatatom 540 1166 10 0 0 0 delay - -;
#X obj 422 1178 pipe;
#X obj 455 1179 f;
#X obj 421 1158 t f b b;
#X floatatom 422 1197 10 0 0 0 - - -;
#X obj 160 1201 hsl 128 15 0 500 0 0 empty empty empty -2 -8 0 10 -262144
-1 -1 0 1;
#X obj 492 1197 hsl 128 15 0 500 0 0 empty empty empty -2 -8 0 10 -262144
-1 -1 0 1;
#X obj 294 1240 pipe;
#X obj 326 1239 f;
#X obj 293 1220 t f b b;
#X floatatom 294 1259 10 0 0 0 - - -;
#X floatatom 541 1226 10 0 0 0 delay - -;
#X obj 423 1238 pipe;
#X obj 456 1239 f;
#X obj 422 1218 t f b b;
#X floatatom 423 1257 10 0 0 0 - - -;
#X obj 161 1261 hsl 128 15 0 500 0 0 empty empty empty -2 -8 0 10 -262144
-1 -1 0 1;
#X obj 493 1257 hsl 128 15 0 500 0 0 empty empty empty -2 -8 0 10 -262144
-1 -1 0 1;
#X obj 295 1300 pipe;
#X obj 327 1299 f;
#X obj 294 1280 t f b b;
#X floatatom 295 1319 10 0 0 0 - - -;
#X floatatom 542 1286 10 0 0 0 delay - -;
#X obj 424 1298 pipe;
#X obj 457 1299 f;
#X obj 423 1278 t f b b;
#X floatatom 424 1317 10 0 0 0 - - -;
#X obj 162 1321 hsl 128 15 0 500 0 0 empty empty empty -2 -8 0 10 -262144
-1 -1 0 1;
#X obj 494 1317 hsl 128 15 0 500 0 0 empty empty empty -2 -8 0 10 -262144
-1 -1 0 1;
#X obj 298 1360 pipe;
#X obj 330 1359 f;
#X obj 297 1340 t f b b;
#X floatatom 298 1379 10 0 0 0 - - -;
#X floatatom 545 1346 10 0 0 0 delay - -;
#X obj 427 1358 pipe;
#X obj 460 1359 f;
#X obj 426 1338 t f b b;
#X floatatom 427 1377 10 0 0 0 - - -;
#X obj 165 1381 hsl 128 15 0 500 0 0 empty empty empty -2 -8 0 10 -262144
-1 -1 0 1;
#X obj 497 1377 hsl 128 15 0 500 0 0 empty empty empty -2 -8 0 10 -262144
-1 -1 0 1;
#X obj 299 1420 pipe;
#X obj 331 1419 f;
#X obj 298 1400 t f b b;
#X floatatom 299 1439 10 0 0 0 - - -;
#X floatatom 546 1406 10 0 0 0 delay - -;
#X obj 428 1418 pipe;
#X obj 461 1419 f;
#X obj 427 1398 t f b b;
#X floatatom 428 1437 10 0 0 0 - - -;
#X obj 166 1441 hsl 128 15 0 500 0 0 empty empty empty -2 -8 0 10 -262144
-1 -1 0 1;
#X obj 498 1437 hsl 128 15 0 500 0 0 empty empty empty -2 -8 0 10 -262144
-1 -1 0 1;
#X obj 299 1481 pipe;
#X obj 331 1480 f;
#X obj 298 1461 t f b b;
#X floatatom 299 1500 10 0 0 0 - - -;
#X floatatom 546 1467 10 0 0 0 delay - -;
#X obj 428 1479 pipe;
#X obj 461 1480 f;
#X obj 427 1459 t f b b;
#X floatatom 428 1498 10 0 0 0 - - -;
#X obj 166 1502 hsl 128 15 0 500 0 0 empty empty empty -2 -8 0 10 -262144
-1 -1 0 1;
#X obj 498 1498 hsl 128 15 0 500 0 0 empty empty empty -2 -8 0 10 -262144
-1 -1 0 1;
#X obj 300 1541 pipe;
#X obj 332 1540 f;
#X obj 299 1521 t f b b;
#X floatatom 300 1560 10 0 0 0 - - -;
#X floatatom 547 1527 10 0 0 0 delay - -;
#X obj 429 1539 pipe;
#X obj 462 1540 f;
#X obj 428 1519 t f b b;
#X floatatom 429 1558 10 0 0 0 - - -;
#X obj 167 1562 hsl 128 15 0 500 0 0 empty empty empty -2 -8 0 10 -262144
-1 -1 0 1;
#X obj 499 1558 hsl 128 15 0 500 0 0 empty empty empty -2 -8 0 10 -262144
-1 -1 0 1;
#X obj 540 -52 nbx 5 14 -1e+37 1e+37 0 1 empty empty x_size 0 -8 0
10 -262144 -1 -1 544.97 256;
#X obj 166 703 line 20;
#X obj 329 648 s led2000;
#X obj 169 637 s XX;
#X obj 237 645 s YY;
#X obj 98 701 line 20;
#X obj 817 579 cyclone/midiparse;
#X obj 817 551 cyclone/midiflush;
#X text 682 1152 synthesizer;
#N canvas 638 210 345 266 polysynth 0;
#X obj 65 20 inlet;
#N canvas 667 245 370 323 synth 0;
#X obj 234 124 / 127;
#X obj 219 204 *~;
#X obj 81 134 phasor~;
#X obj 81 102 mtof;
#X obj 81 31 inlet;
#X obj 219 273 outlet~;
#X obj 81 70 unpack float float;
#X obj 234 174 vline~;
#X msg 234 149 \$1 50;
#X obj 81 162 cyclone/triangle~ 0.9;
#X obj 219 236 /~ 3;
#X connect 0 0 8 0;
#X connect 1 0 10 0;
#X connect 2 0 9 0;
#X connect 3 0 2 0;
#X connect 4 0 6 0;
#X connect 6 0 3 0;
#X connect 6 1 0 0;
#X connect 7 0 1 1;
#X connect 8 0 7 0;
#X connect 9 0 1 0;
#X connect 10 0 5 0;
#X restore 41 151 pd synth;
#X obj 65 84 pack f f f;
#X obj 100 207 outlet~;
#N canvas 667 245 370 323 synth 0;
#X obj 234 124 / 127;
#X obj 219 204 *~;
#X obj 81 134 phasor~;
#X obj 81 102 mtof;
#X obj 81 31 inlet;
#X obj 219 273 outlet~;
#X obj 81 70 unpack float float;
#X obj 234 174 vline~;
#X msg 234 149 \$1 50;
#X obj 81 162 cyclone/triangle~ 0.9;
#X obj 219 236 /~ 3;
#X connect 0 0 8 0;
#X connect 1 0 10 0;
#X connect 2 0 9 0;
#X connect 3 0 2 0;
#X connect 4 0 6 0;
#X connect 6 0 3 0;
#X connect 6 1 0 0;
#X connect 7 0 1 1;
#X connect 8 0 7 0;
#X connect 9 0 1 0;
#X connect 10 0 5 0;
#X restore 100 151 pd synth;
#N canvas 667 245 370 323 synth 0;
#X obj 234 124 / 127;
#X obj 219 204 *~;
#X obj 81 134 phasor~;
#X obj 81 102 mtof;
#X obj 81 31 inlet;
#X obj 219 273 outlet~;
#X obj 81 70 unpack float float;
#X obj 234 174 vline~;
#X msg 234 149 \$1 50;
#X obj 81 162 cyclone/triangle~ 0.9;
#X obj 219 236 /~ 3;
#X connect 0 0 8 0;
#X connect 1 0 10 0;
#X connect 2 0 9 0;
#X connect 3 0 2 0;
#X connect 4 0 6 0;
#X connect 6 0 3 0;
#X connect 6 1 0 0;
#X connect 7 0 1 1;
#X connect 8 0 7 0;
#X connect 9 0 1 0;
#X connect 10 0 5 0;
#X restore 161 152 pd synth;
#X text 124 19 3-voice polyphonic synth;
#X obj 65 115 route 1 2 3, f 18;
#X obj 65 52 poly 3 1;
#X connect 0 0 8 0;
#X connect 1 0 3 0;
#X connect 2 0 7 0;
#X connect 4 0 3 0;
#X connect 5 0 3 0;
#X connect 7 0 1 0;
#X connect 7 1 4 0;
#X connect 7 2 5 0;
#X connect 8 0 2 0;
#X connect 8 1 2 1;
#X connect 8 2 2 2;
#X restore 817 612 pd polysynth;
#X text 972 615 <= 3 voice polyphonic;
#X obj 818 650 ./out~;
#X obj 819 1100 cyclone/midiparse;
#X obj 819 1072 cyclone/midiflush;
#X text 928 1149 synthesizer;
#N canvas 638 210 345 266 polysynth 0;
#X obj 65 20 inlet;
#N canvas 667 245 370 323 synth 0;
#X obj 234 124 / 127;
#X obj 219 204 *~;
#X obj 81 134 phasor~;
#X obj 81 102 mtof;
#X obj 81 31 inlet;
#X obj 219 273 outlet~;
#X obj 81 70 unpack float float;
#X obj 234 174 vline~;
#X msg 234 149 \$1 50;
#X obj 81 162 cyclone/triangle~ 0.9;
#X obj 219 236 /~ 3;
#X connect 0 0 8 0;
#X connect 1 0 10 0;
#X connect 2 0 9 0;
#X connect 3 0 2 0;
#X connect 4 0 6 0;
#X connect 6 0 3 0;
#X connect 6 1 0 0;
#X connect 7 0 1 1;
#X connect 8 0 7 0;
#X connect 9 0 1 0;
#X connect 10 0 5 0;
#X restore 41 151 pd synth;
#X obj 65 84 pack f f f;
#X obj 100 207 outlet~;
#N canvas 667 245 370 323 synth 0;
#X obj 234 124 / 127;
#X obj 219 204 *~;
#X obj 81 134 phasor~;
#X obj 81 102 mtof;
#X obj 81 31 inlet;
#X obj 219 273 outlet~;
#X obj 81 70 unpack float float;
#X obj 234 174 vline~;
#X msg 234 149 \$1 50;
#X obj 81 162 cyclone/triangle~ 0.9;
#X obj 219 236 /~ 3;
#X connect 0 0 8 0;
#X connect 1 0 10 0;
#X connect 2 0 9 0;
#X connect 3 0 2 0;
#X connect 4 0 6 0;
#X connect 6 0 3 0;
#X connect 6 1 0 0;
#X connect 7 0 1 1;
#X connect 8 0 7 0;
#X connect 9 0 1 0;
#X connect 10 0 5 0;
#X restore 100 151 pd synth;
#N canvas 667 245 370 323 synth 0;
#X obj 234 124 / 127;
#X obj 219 204 *~;
#X obj 81 134 phasor~;
#X obj 81 102 mtof;
#X obj 81 31 inlet;
#X obj 219 273 outlet~;
#X obj 81 70 unpack float float;
#X obj 234 174 vline~;
#X msg 234 149 \$1 50;
#X obj 81 162 cyclone/triangle~ 0.9;
#X obj 219 236 /~ 3;
#X connect 0 0 8 0;
#X connect 1 0 10 0;
#X connect 2 0 9 0;
#X connect 3 0 2 0;
#X connect 4 0 6 0;
#X connect 6 0 3 0;
#X connect 6 1 0 0;
#X connect 7 0 1 1;
#X connect 8 0 7 0;
#X connect 9 0 1 0;
#X connect 10 0 5 0;
#X restore 161 152 pd synth;
#X text 124 19 3-voice polyphonic synth;
#X obj 65 115 route 1 2 3, f 18;
#X obj 65 52 poly 3 1;
#X connect 0 0 8 0;
#X connect 1 0 3 0;
#X connect 2 0 7 0;
#X connect 4 0 3 0;
#X connect 5 0 3 0;
#X connect 7 0 1 0;
#X connect 7 1 4 0;
#X connect 7 2 5 0;
#X connect 8 0 2 0;
#X connect 8 1 2 1;
#X connect 8 2 2 2;
#X restore 819 1133 pd polysynth;
#X text 900 1133 <= 3 voice polyphonic;
#X obj 820 1171 ./out~;
#X obj 954 512 cyclone/seq seq2.mid;
#X obj 970 80 notein;
#X obj 970 130 cyclone/midiformat;
#X obj 970 104 pack;
#X obj 970 210 cyclone/seq;
#X msg 1177 144 record;
#X floatatom 1063 55 12 0 0 0 - - -;
#X floatatom 969 279 5 0 0 0 - - -;
#X obj 1183 183 bng 15 250 50 0 empty empty empty 17 7 0 10 -262144
-1 -1;
#X obj 1050 -17 hsl 128 15 0 127 0 0 empty empty empty -2 -8 0 10 -262144
-1 -1 9700 0;
#X obj 963 325 hsl 128 15 0 127 0 0 empty empty empty -2 -8 0 10 -262144
-1 -1 9600 1;
#X obj 1273 84 notein;
#X obj 1273 134 cyclone/midiformat;
#X obj 1273 108 pack;
#X obj 1273 214 cyclone/seq;
#X floatatom 1163 55 12 0 0 0 - - -;
#X floatatom 1272 283 5 0 0 0 - - -;
#X obj 1229 331 hsl 128 15 0 127 0 0 empty empty empty -2 -8 0 10 -262144
-1 -1 9300 1;
#X obj 1044 241 bng 15 250 50 0 empty empty empty 17 7 0 10 -262144
-1 -1;
#X obj 1347 243 bng 15 250 50 0 empty empty empty 17 7 0 10 -262144
-1 -1;
#X floatatom 1426 402 8 0 0 0 - - -;
#X msg 1451 227 39;
#X msg 1427 182 1 1000;
#X msg 1462 252 stop;
#X obj 1426 376 line 0 100;
#X msg 1471 282 set 5;
#X floatatom 1493 339 0 0 0 0 - - -;
#X floatatom 1489 312 0 0 0 0 - - -;
#X obj 1435 66 metro 800;
#X obj 1430 144 sel;
#X obj 1435 94 f;
#X obj 1464 94 + 1;
#X obj 1438 45 tgl 15 0 empty empty empty 17 7 0 10 -262144 -1 -1 0
1;
#X floatatom 847 417 8 0 0 0 - - -;
#X msg 872 242 39;
#X msg 883 267 stop;
#X obj 847 391 line 0 100;
#X msg 892 297 set 5;
#X floatatom 914 354 0 0 0 0 - - -;
#X floatatom 910 327 0 0 0 0 - - -;
#X obj 856 81 metro 800;
#X obj 854 158 sel;
#X obj 856 109 f;
#X obj 885 109 + 1;
#X obj 859 60 tgl 15 0 empty empty empty 17 7 0 10 -262144 -1 -1 0
1;
#X msg 848 197 12 2000;
#X msg 857 220 33 1000;
#X obj 857 137 mod 2;
#X obj 1432 120 mod 2;
#X text 1503 189 send a pair to ramp to a new value;
#X text 1506 224 send a single number to jump;
#X text 1512 249 "stop" message to stop output;
#X text 1529 377 creation arguments:;
#X text 1688 369 1 initial value;
#X text 1529 277 "set" to change value (and stop) without output;
#X text 1687 385 2 time grain in milliseconds (20 by default);
#X text 1526 307 middle inlet sets next ramp time (cleared when ramp
starts!);
#X text 1534 335 right inlet sets grain (not cleared \, acts as normal
inlet);
#X msg 1436 205 9 1000;
#X obj 657 489 * 1;
#X obj 697 489 * 1;
#X obj 1213 -5 hsl 128 15 0 127 0 0 empty empty empty -2 -8 0 10 -262144
-1 -1 10000 0;
#X msg 1290 168 record;
#X obj 1216 395 s hautbas;
#X obj 975 371 s gauchedroite;
#X obj 1355 528 notein;
#X obj 1355 578 cyclone/midiformat;
#X obj 1355 552 pack;
#X obj 1355 658 cyclone/seq;
#X floatatom 1245 499 12 0 0 0 - - -;
#X floatatom 1354 727 5 0 0 0 - - -;
#X obj 1311 775 hsl 128 15 0 127 0 0 empty empty empty -2 -8 0 10 -262144
-1 -1 0 1;
#X obj 1429 687 bng 15 250 50 0 empty empty empty 17 7 0 10 -262144
-1 -1;
#X obj 1295 439 hsl 128 15 0 127 0 0 empty empty empty -2 -8 0 10 -262144
-1 -1 10300 0;
#X msg 1372 612 record;
#X obj 1298 839 s tensionmotors;
#X connect 0 0 247 0;
#X connect 1 0 246 0;
#X connect 2 0 4 0;
#X connect 3 0 4 2;
#X connect 4 0 1 0;
#X connect 4 1 0 0;
#X connect 6 0 16 0;
#X connect 6 0 172 0;
#X connect 8 0 174 0;
#X connect 10 0 21 0;
#X connect 10 0 173 0;
#X connect 12 0 182 0;
#X connect 12 1 9 0;
#X connect 12 1 11 0;
#X connect 13 0 170 2;
#X connect 13 0 174 2;
#X connect 14 0 17 0;
#X connect 15 0 14 1;
#X connect 16 0 14 0;
#X connect 16 1 15 0;
#X connect 17 0 24 0;
#X connect 17 0 28 0;
#X connect 18 0 15 1;
#X connect 18 0 20 1;
#X connect 18 0 30 0;
#X connect 19 0 22 0;
#X connect 20 0 19 1;
#X connect 21 0 19 0;
#X connect 21 1 20 0;
#X connect 22 0 25 0;
#X connect 22 0 33 0;
#X connect 23 0 18 0;
#X connect 24 0 171 0;
#X connect 26 0 29 0;
#X connect 27 0 26 1;
#X connect 28 0 26 0;
#X connect 28 1 27 0;
#X connect 29 0 35 0;
#X connect 29 0 39 0;
#X connect 30 0 27 1;
#X connect 30 0 32 1;
#X connect 30 0 41 0;
#X connect 31 0 34 0;
#X connect 32 0 31 1;
#X connect 33 0 31 0;
#X connect 33 1 32 0;
#X connect 34 0 36 0;
#X connect 34 0 44 0;
#X connect 37 0 40 0;
#X connect 38 0 37 1;
#X connect 39 0 37 0;
#X connect 39 1 38 0;
#X connect 40 0 46 0;
#X connect 40 0 50 0;
#X connect 41 0 38 1;
#X connect 41 0 43 1;
#X connect 41 0 52 0;
#X connect 42 0 45 0;
#X connect 43 0 42 1;
#X connect 44 0 42 0;
#X connect 44 1 43 0;
#X connect 45 0 47 0;
#X connect 45 0 55 0;
#X connect 48 0 51 0;
#X connect 49 0 48 1;
#X connect 50 0 48 0;
#X connect 50 1 49 0;
#X connect 51 0 57 0;
#X connect 51 0 61 0;
#X connect 52 0 49 1;
#X connect 52 0 54 1;
#X connect 52 0 63 0;
#X connect 53 0 56 0;
#X connect 54 0 53 1;
#X connect 55 0 53 0;
#X connect 55 1 54 0;
#X connect 56 0 58 0;
#X connect 56 0 66 0;
#X connect 59 0 62 0;
#X connect 60 0 59 1;
#X connect 61 0 59 0;
#X connect 61 1 60 0;
#X connect 62 0 68 0;
#X connect 62 0 72 0;
#X connect 63 0 60 1;
#X connect 63 0 65 1;
#X connect 63 0 74 0;
#X connect 64 0 67 0;
#X connect 65 0 64 1;
#X connect 66 0 64 0;
#X connect 66 1 65 0;
#X connect 67 0 69 0;
#X connect 67 0 77 0;
#X connect 70 0 73 0;
#X connect 71 0 70 1;
#X connect 72 0 70 0;
#X connect 72 1 71 0;
#X connect 73 0 79 0;
#X connect 73 0 83 0;
#X connect 74 0 71 1;
#X connect 74 0 76 1;
#X connect 74 0 85 0;
#X connect 75 0 78 0;
#X connect 76 0 75 1;
#X connect 77 0 75 0;
#X connect 77 1 76 0;
#X connect 78 0 80 0;
#X connect 78 0 88 0;
#X connect 81 0 84 0;
#X connect 82 0 81 1;
#X connect 83 0 81 0;
#X connect 83 1 82 0;
#X connect 84 0 90 0;
#X connect 84 0 94 0;
#X connect 85 0 82 1;
#X connect 85 0 87 1;
#X connect 85 0 96 0;
#X connect 86 0 89 0;
#X connect 87 0 86 1;
#X connect 88 0 86 0;
#X connect 88 1 87 0;
#X connect 89 0 91 0;
#X connect 89 0 99 0;
#X connect 92 0 95 0;
#X connect 93 0 92 1;
#X connect 94 0 92 0;
#X connect 94 1 93 0;
#X connect 95 0 101 0;
#X connect 95 0 105 0;
#X connect 96 0 93 1;
#X connect 96 0 98 1;
#X connect 96 0 107 0;
#X connect 97 0 100 0;
#X connect 98 0 97 1;
#X connect 99 0 97 0;
#X connect 99 1 98 0;
#X connect 100 0 102 0;
#X connect 100 0 110 0;
#X connect 103 0 106 0;
#X connect 104 0 103 1;
#X connect 105 0 103 0;
#X connect 105 1 104 0;
#X connect 106 0 112 0;
#X connect 106 0 116 0;
#X connect 107 0 104 1;
#X connect 107 0 109 1;
#X connect 107 0 118 0;
#X connect 108 0 111 0;
#X connect 109 0 108 1;
#X connect 110 0 108 0;
#X connect 110 1 109 0;
#X connect 111 0 113 0;
#X connect 111 0 121 0;
#X connect 114 0 117 0;
#X connect 115 0 114 1;
#X connect 116 0 114 0;
#X connect 116 1 115 0;
#X connect 117 0 123 0;
#X connect 117 0 127 0;
#X connect 118 0 115 1;
#X connect 118 0 120 1;
#X connect 118 0 129 0;
#X connect 119 0 122 0;
#X connect 120 0 119 1;
#X connect 121 0 119 0;
#X connect 121 1 120 0;
#X connect 122 0 124 0;
#X connect 122 0 132 0;
#X connect 125 0 128 0;
#X connect 126 0 125 1;
#X connect 127 0 125 0;
#X connect 127 1 126 0;
#X connect 128 0 134 0;
#X connect 128 0 138 0;
#X connect 129 0 126 1;
#X connect 129 0 131 1;
#X connect 129 0 140 0;
#X connect 130 0 133 0;
#X connect 131 0 130 1;
#X connect 132 0 130 0;
#X connect 132 1 131 0;
#X connect 133 0 135 0;
#X connect 133 0 143 0;
#X connect 136 0 139 0;
#X connect 137 0 136 1;
#X connect 138 0 136 0;
#X connect 138 1 137 0;
#X connect 139 0 145 0;
#X connect 139 0 149 0;
#X connect 140 0 137 1;
#X connect 140 0 142 1;
#X connect 140 0 151 0;
#X connect 141 0 144 0;
#X connect 142 0 141 1;
#X connect 143 0 141 0;
#X connect 143 1 142 0;
#X connect 144 0 146 0;
#X connect 144 0 154 0;
#X connect 147 0 150 0;
#X connect 148 0 147 1;
#X connect 149 0 147 0;
#X connect 149 1 148 0;
#X connect 150 0 156 0;
#X connect 150 0 160 0;
#X connect 151 0 148 1;
#X connect 151 0 153 1;
#X connect 151 0 162 0;
#X connect 152 0 155 0;
#X connect 153 0 152 1;
#X connect 154 0 152 0;
#X connect 154 1 153 0;
#X connect 155 0 157 0;
#X connect 155 0 165 0;
#X connect 158 0 161 0;
#X connect 159 0 158 1;
#X connect 160 0 158 0;
#X connect 160 1 159 0;
#X connect 161 0 167 0;
#X connect 162 0 159 1;
#X connect 162 0 164 1;
#X connect 163 0 166 0;
#X connect 164 0 163 1;
#X connect 165 0 163 0;
#X connect 165 1 164 0;
#X connect 166 0 168 0;
#X connect 169 0 4 1;
#X connect 170 0 10 0;
#X connect 174 0 6 0;
#X connect 175 0 178 0;
#X connect 176 0 175 0;
#X connect 178 0 180 0;
#X connect 178 0 180 1;
#X connect 181 0 184 0;
#X connect 182 0 181 0;
#X connect 184 0 186 0;
#X connect 184 0 186 1;
#X connect 187 0 176 0;
#X connect 187 1 5 0;
#X connect 187 1 7 0;
#X connect 188 0 190 0;
#X connect 188 1 190 1;
#X connect 189 0 191 0;
#X connect 190 0 189 0;
#X connect 191 0 194 0;
#X connect 191 1 205 0;
#X connect 192 0 191 0;
#X connect 193 0 190 1;
#X connect 193 0 190 0;
#X connect 194 0 197 0;
#X connect 195 0 191 0;
#X connect 195 0 201 0;
#X connect 196 0 193 0;
#X connect 196 0 251 0;
#X connect 198 0 200 0;
#X connect 198 1 200 1;
#X connect 199 0 201 0;
#X connect 200 0 199 0;
#X connect 201 0 203 0;
#X connect 201 1 206 0;
#X connect 202 0 200 1;
#X connect 202 0 200 0;
#X connect 203 0 204 0;
#X connect 204 0 250 0;
#X connect 205 0 191 0;
#X connect 206 0 201 0;
#X connect 207 0 202 0;
#X connect 208 0 211 0;
#X connect 209 0 211 0;
#X connect 210 0 211 0;
#X connect 211 0 207 0;
#X connect 212 0 211 0;
#X connect 213 0 211 2;
#X connect 214 0 211 1;
#X connect 215 0 217 0;
#X connect 216 0 209 0;
#X connect 216 1 245 0;
#X connect 217 0 218 0;
#X connect 217 0 235 0;
#X connect 218 0 217 1;
#X connect 219 0 215 0;
#X connect 220 0 193 0;
#X connect 221 0 223 0;
#X connect 222 0 223 0;
#X connect 223 0 220 0;
#X connect 224 0 223 0;
#X connect 225 0 223 2;
#X connect 226 0 223 1;
#X connect 227 0 229 0;
#X connect 228 0 232 0;
#X connect 228 1 233 0;
#X connect 229 0 230 0;
#X connect 229 0 234 0;
#X connect 230 0 229 1;
#X connect 231 0 227 0;
#X connect 232 0 223 0;
#X connect 233 0 223 0;
#X connect 234 0 228 0;
#X connect 235 0 216 0;
#X connect 245 0 211 0;
#X connect 248 0 202 0;
#X connect 248 0 250 0;
#X connect 249 0 201 0;
#X connect 252 0 254 0;
#X connect 252 1 254 1;
#X connect 253 0 255 0;
#X connect 254 0 253 0;
#X connect 255 0 257 0;
#X connect 255 1 259 0;
#X connect 256 0 254 1;
#X connect 256 0 254 0;
#X connect 257 0 258 0;
#X connect 258 0 262 0;
#X connect 259 0 255 0;
#X connect 260 0 256 0;
#X connect 260 0 262 0;
#X connect 261 0 255 0;
